# Blender v3.5.0 OBJ File: ''
# www.blender.org
mtllib boden4.mtl
o TEMPLE.004_water_0
v -1.897768 -1.223135 -18.943642
v -0.047735 -1.223135 -19.034529
v -0.047735 -1.223149 -64.602242
v -6.364190 -1.223149 -64.291939
v -3.730000 -1.223135 -18.671856
v -1.897768 -1.223135 -18.943642
v -6.364190 -1.223149 -64.291939
v -12.619815 -1.223149 -63.363998
v -5.526759 -1.223135 -18.221798
v -3.730000 -1.223135 -18.671856
v -12.619815 -1.223149 -63.363998
v -18.754364 -1.223148 -61.827377
v -7.270742 -1.223135 -17.597784
v -5.526759 -1.223135 -18.221798
v -18.754364 -1.223148 -61.827377
v -24.708759 -1.223148 -59.696861
v -8.945183 -1.223135 -16.805832
v -7.270742 -1.223135 -17.597784
v -24.708759 -1.223148 -59.696861
v -30.425655 -1.223147 -56.992970
v -10.533937 -1.223134 -15.853571
v -8.945183 -1.223135 -16.805832
v -30.425655 -1.223147 -56.992970
v -35.849991 -1.223146 -53.741749
v -12.021681 -1.223134 -14.750175
v -10.533937 -1.223134 -15.853571
v -35.849991 -1.223146 -53.741749
v -40.929535 -1.223145 -49.974503
v -13.394122 -1.223133 -13.506268
v -12.021681 -1.223134 -14.750175
v -40.929535 -1.223145 -49.974503
v -45.615364 -1.223143 -45.727512
v -14.638039 -1.223133 -12.133832
v -13.394122 -1.223133 -13.506268
v -45.615364 -1.223143 -45.727512
v -49.862350 -1.223142 -41.041683
v -15.741426 -1.223133 -10.646081
v -14.638039 -1.223133 -12.133832
v -49.862350 -1.223142 -41.041683
v -53.629593 -1.223140 -35.962139
v -16.693687 -1.223132 -9.057327
v -15.741426 -1.223133 -10.646081
v -53.629593 -1.223140 -35.962139
v -56.880814 -1.223139 -30.537802
v -17.485641 -1.223132 -7.382887
v -16.693687 -1.223132 -9.057327
v -56.880814 -1.223139 -30.537802
v -59.584705 -1.223137 -24.820906
v -18.109646 -1.223131 -5.638900
v -17.485641 -1.223132 -7.382887
v -59.584705 -1.223137 -24.820906
v -61.715225 -1.223135 -18.866508
v -18.559711 -1.223131 -3.842144
v -18.109646 -1.223131 -5.638900
v -61.715225 -1.223135 -18.866508
v -63.251846 -1.223133 -12.731960
v -18.831497 -1.223130 -2.009911
v -18.559711 -1.223131 -3.842144
v -63.251846 -1.223133 -12.731960
v -64.179779 -1.223131 -6.476334
v -18.922384 -1.223129 -0.159878
v -64.490089 -1.223129 -0.159878
v -18.831497 -1.223129 1.690155
v -64.179779 -1.223127 6.156579
v -18.559711 -1.223128 3.522388
v -63.251846 -1.223126 12.412204
v -18.109653 -1.223128 5.319146
v -18.559711 -1.223128 3.522388
v -63.251846 -1.223126 12.412204
v -61.715225 -1.223124 18.546751
v -17.485638 -1.223127 7.063130
v -18.109653 -1.223128 5.319146
v -61.715225 -1.223124 18.546751
v -59.584705 -1.223122 24.501146
v -16.693687 -1.223127 8.737571
v -17.485638 -1.223127 7.063130
v -59.584705 -1.223122 24.501146
v -56.880814 -1.223120 30.218042
v -15.741426 -1.223126 10.326324
v -16.693687 -1.223127 8.737571
v -56.880814 -1.223120 30.218042
v -53.629593 -1.223119 35.642380
v -14.638031 -1.223126 11.814069
v -15.741426 -1.223126 10.326324
v -53.629593 -1.223119 35.642380
v -49.862350 -1.223117 40.721924
v -13.394122 -1.223125 13.186511
v -14.638031 -1.223126 11.814069
v -49.862350 -1.223117 40.721924
v -45.615364 -1.223116 45.407749
v -12.021687 -1.223125 14.430428
v -13.394122 -1.223125 13.186511
v -45.615364 -1.223116 45.407749
v -40.929535 -1.223114 49.654743
v -10.533937 -1.223125 15.533814
v -12.021687 -1.223125 14.430428
v -40.929535 -1.223114 49.654743
v -35.849991 -1.223113 53.421989
v -8.945183 -1.223124 16.486076
v -10.533937 -1.223125 15.533814
v -35.849991 -1.223113 53.421989
v -30.425655 -1.223112 56.673210
v -7.270743 -1.223124 17.278032
v -8.945183 -1.223124 16.486076
v -30.425655 -1.223112 56.673210
v -24.708759 -1.223111 59.377098
v -5.526757 -1.223124 17.902035
v -7.270743 -1.223124 17.278032
v -24.708759 -1.223111 59.377098
v -18.754364 -1.223111 61.507618
v -3.730000 -1.223124 18.352098
v -5.526757 -1.223124 17.902035
v -18.754364 -1.223111 61.507618
v -12.619815 -1.223110 63.044239
v -1.897768 -1.223124 18.623884
v -3.730000 -1.223124 18.352098
v -12.619815 -1.223110 63.044239
v -6.364190 -1.223110 63.972176
v -0.047735 -1.223124 18.714773
v -1.897768 -1.223124 18.623884
v -6.364190 -1.223110 63.972176
v -0.047735 -1.223110 64.282486
v 1.802298 -1.223124 18.623884
v -0.047735 -1.223124 18.714773
v -0.047735 -1.223110 64.282486
v 6.268721 -1.223110 63.972176
v 3.634531 -1.223124 18.352098
v 1.802298 -1.223124 18.623884
v 6.268721 -1.223110 63.972176
v 12.524345 -1.223110 63.044239
v 5.431289 -1.223124 17.902042
v 3.634531 -1.223124 18.352098
v 12.524345 -1.223110 63.044239
v 18.658894 -1.223111 61.507618
v 7.175272 -1.223124 17.278027
v 5.431289 -1.223124 17.902042
v 18.658894 -1.223111 61.507618
v 24.613285 -1.223111 59.377098
v 8.849713 -1.223124 16.486076
v 7.175272 -1.223124 17.278027
v 24.613285 -1.223111 59.377098
v 30.330181 -1.223112 56.673210
v 10.438467 -1.223125 15.533814
v 8.849713 -1.223124 16.486076
v 30.330181 -1.223112 56.673210
v 35.754517 -1.223113 53.421989
v 11.926211 -1.223125 14.430420
v 10.438467 -1.223125 15.533814
v 35.754517 -1.223113 53.421989
v 40.834064 -1.223114 49.654743
v 13.298653 -1.223125 13.186511
v 11.926211 -1.223125 14.430420
v 40.834064 -1.223114 49.654743
v 45.519890 -1.223116 45.407749
v 14.542570 -1.223126 11.814075
v 13.298653 -1.223125 13.186511
v 45.519890 -1.223116 45.407749
v 49.766884 -1.223117 40.721924
v 15.645956 -1.223126 10.326324
v 14.542570 -1.223126 11.814075
v 49.766884 -1.223117 40.721924
v 53.534126 -1.223119 35.642380
v 16.598217 -1.223127 8.737571
v 15.645956 -1.223126 10.326324
v 53.534126 -1.223119 35.642380
v 56.785347 -1.223120 30.218042
v 17.390173 -1.223127 7.063132
v 16.598217 -1.223127 8.737571
v 56.785347 -1.223120 30.218042
v 59.489239 -1.223122 24.501146
v 18.014175 -1.223128 5.319145
v 17.390173 -1.223127 7.063132
v 59.489239 -1.223122 24.501146
v 61.619759 -1.223124 18.546751
v 18.464241 -1.223128 3.522388
v 18.014175 -1.223128 5.319145
v 61.619759 -1.223124 18.546751
v 63.156380 -1.223126 12.412204
v 18.736027 -1.223129 1.690155
v 18.464241 -1.223128 3.522388
v 63.156380 -1.223126 12.412204
v 64.084320 -1.223127 6.156579
v 18.826914 -1.223129 -0.159878
v 18.736027 -1.223129 1.690155
v 64.084320 -1.223127 6.156579
v 64.394623 -1.223129 -0.159878
v 18.736027 -1.223130 -2.009911
v 64.084320 -1.223131 -6.476334
v 18.464241 -1.223131 -3.842144
v 18.736027 -1.223130 -2.009911
v 64.084320 -1.223131 -6.476334
v 63.156380 -1.223133 -12.731960
v 18.014183 -1.223131 -5.638903
v 18.464241 -1.223131 -3.842144
v 63.156380 -1.223133 -12.731960
v 61.619759 -1.223135 -18.866508
v 17.390169 -1.223132 -7.382886
v 59.489239 -1.223137 -24.820906
v 16.598217 -1.223132 -9.057327
v 17.390169 -1.223132 -7.382886
v 59.489239 -1.223137 -24.820906
v 56.785347 -1.223139 -30.537802
v 15.645956 -1.223133 -10.646081
v 16.598217 -1.223132 -9.057327
v 56.785347 -1.223139 -30.537802
v 53.534126 -1.223140 -35.962139
v 14.542561 -1.223133 -12.133826
v 15.645956 -1.223133 -10.646081
v 53.534126 -1.223140 -35.962139
v 49.766884 -1.223142 -41.041683
v 13.298653 -1.223133 -13.506268
v 14.542561 -1.223133 -12.133826
v 49.766884 -1.223142 -41.041683
v 45.519890 -1.223143 -45.727512
v 11.926217 -1.223134 -14.750185
v 13.298653 -1.223133 -13.506268
v 45.519890 -1.223143 -45.727512
v 40.834064 -1.223145 -49.974503
v 10.438467 -1.223134 -15.853571
v 11.926217 -1.223134 -14.750185
v 40.834064 -1.223145 -49.974503
v 35.754517 -1.223146 -53.741749
v 8.849713 -1.223135 -16.805832
v 10.438467 -1.223134 -15.853571
v 35.754517 -1.223146 -53.741749
v 30.330181 -1.223147 -56.992970
v 7.175274 -1.223135 -17.597788
v 8.849713 -1.223135 -16.805832
v 30.330181 -1.223147 -56.992970
v 24.613285 -1.223148 -59.696861
v 5.431287 -1.223135 -18.221792
v 7.175274 -1.223135 -17.597788
v 24.613285 -1.223148 -59.696861
v 18.658894 -1.223148 -61.827377
v 3.634531 -1.223135 -18.671856
v 5.431287 -1.223135 -18.221792
v 18.658894 -1.223148 -61.827377
v 12.524345 -1.223149 -63.363998
v 1.802298 -1.223135 -18.943642
v 3.634531 -1.223135 -18.671856
v 12.524345 -1.223149 -63.363998
v 6.268721 -1.223149 -64.291939
v -0.047735 -1.223135 -19.034529
v 1.802298 -1.223135 -18.943642
v 6.268721 -1.223149 -64.291939
v -0.047735 -1.223149 -64.602242
vt 0.069682 0.563831
vt 0.065497 0.521345
vt -0.983492 0.572878
vt -0.969205 0.717935
vt 0.078010 0.605703
vt 0.069682 0.563831
vt -0.969205 0.717935
vt -0.940769 0.860893
vt 0.090403 0.646556
vt 0.078010 0.605703
vt -0.940769 0.860893
vt -0.898458 1.000375
vt 0.106740 0.685997
vt 0.090403 0.646556
vt -0.898458 1.000375
vt -0.842678 1.135038
vt 0.126865 0.723648
vt 0.106740 0.685997
vt -0.842678 1.135038
vt -0.773968 1.263586
vt 0.150583 0.759145
vt 0.126865 0.723648
vt -0.773968 1.263586
vt -0.692989 1.384780
vt 0.177666 0.792146
vt 0.150583 0.759145
vt -0.692989 1.384780
vt -0.600521 1.497453
vt 0.207854 0.822333
vt 0.177666 0.792146
vt -0.600521 1.497453
vt -0.497455 1.600519
vt 0.240855 0.849417
vt 0.207854 0.822333
vt -0.497455 1.600519
vt -0.384782 1.692988
vt 0.276351 0.873135
vt 0.240855 0.849417
vt -0.384782 1.692988
vt -0.263588 1.773967
vt 0.314002 0.893260
vt 0.276351 0.873135
vt -0.263588 1.773967
vt -0.135041 1.842677
vt 0.353444 0.909597
vt 0.314002 0.893260
vt -0.135041 1.842677
vt -0.000377 1.898457
vt 0.394297 0.921989
vt 0.353444 0.909597
vt -0.000377 1.898457
vt 0.139105 1.940768
vt 0.436168 0.930318
vt 0.394297 0.921989
vt 0.139105 1.940768
vt 0.282063 1.969205
vt 0.478654 0.934503
vt 0.436168 0.930318
vt 0.282063 1.969205
vt 0.427119 1.983492
vt 0.521345 0.934503
vt 0.572878 1.983492
vt 0.563831 0.930318
vt 0.717935 1.969205
vt 0.605703 0.921990
vt 0.860893 1.940769
vt 0.646556 0.909597
vt 0.605703 0.921990
vt 0.860893 1.940769
vt 1.000375 1.898458
vt 0.685998 0.893260
vt 0.646556 0.909597
vt 1.000375 1.898458
vt 1.135038 1.842678
vt 0.723648 0.873135
vt 0.685998 0.893260
vt 1.135038 1.842678
vt 1.263586 1.773968
vt 0.759145 0.849417
vt 0.723648 0.873135
vt 1.263586 1.773968
vt 1.384780 1.692989
vt 0.792146 0.822334
vt 0.759145 0.849417
vt 1.384780 1.692989
vt 1.497453 1.600521
vt 0.822333 0.792146
vt 0.792146 0.822334
vt 1.497453 1.600521
vt 1.600519 1.497455
vt 0.849417 0.759145
vt 0.822333 0.792146
vt 1.600519 1.497455
vt 1.692988 1.384782
vt 0.873135 0.723649
vt 0.849417 0.759145
vt 1.692988 1.384782
vt 1.773967 1.263588
vt 0.893260 0.685998
vt 0.873135 0.723649
vt 1.773967 1.263588
vt 1.842677 1.135041
vt 0.909597 0.646556
vt 0.893260 0.685998
vt 1.842677 1.135041
vt 1.898457 1.000377
vt 0.921990 0.605703
vt 0.909597 0.646556
vt 1.898457 1.000377
vt 1.940769 0.860895
vt 0.930318 0.563832
vt 0.921990 0.605703
vt 1.940769 0.860895
vt 1.969205 0.717937
vt 0.934503 0.521346
vt 0.930318 0.563832
vt 1.969205 0.717937
vt 1.983492 0.572881
vt 0.934503 0.478655
vt 0.934503 0.521346
vt 1.983492 0.572881
vt 1.983492 0.427122
vt 0.930318 0.436169
vt 0.934503 0.478655
vt 1.983492 0.427122
vt 1.969205 0.282065
vt 0.921990 0.394297
vt 0.930318 0.436169
vt 1.969205 0.282065
vt 1.940769 0.139107
vt 0.909597 0.353444
vt 0.921990 0.394297
vt 1.940769 0.139107
vt 1.898458 -0.000375
vt 0.893260 0.314002
vt 0.909597 0.353444
vt 1.898458 -0.000375
vt 1.842678 -0.135038
vt 0.873135 0.276352
vt 0.893260 0.314002
vt 1.842678 -0.135038
vt 1.773968 -0.263586
vt 0.849417 0.240855
vt 0.873135 0.276352
vt 1.773968 -0.263586
vt 1.692990 -0.384780
vt 0.822333 0.207854
vt 0.849417 0.240855
vt 1.692990 -0.384780
vt 1.600521 -0.497453
vt 0.792146 0.177667
vt 0.822333 0.207854
vt 1.600521 -0.497453
vt 1.497455 -0.600519
vt 0.759145 0.150583
vt 0.792146 0.177667
vt 1.497455 -0.600519
vt 1.384782 -0.692988
vt 0.723649 0.126865
vt 0.759145 0.150583
vt 1.384782 -0.692988
vt 1.263588 -0.773967
vt 0.685998 0.106740
vt 0.723649 0.126865
vt 1.263588 -0.773967
vt 1.135041 -0.842677
vt 0.646556 0.090403
vt 0.685998 0.106740
vt 1.135041 -0.842677
vt 1.000377 -0.898457
vt 0.605703 0.078010
vt 0.646556 0.090403
vt 1.000377 -0.898457
vt 0.860895 -0.940769
vt 0.563832 0.069682
vt 0.605703 0.078010
vt 0.860895 -0.940769
vt 0.717937 -0.969205
vt 0.521346 0.065497
vt 0.563832 0.069682
vt 0.717937 -0.969205
vt 0.572881 -0.983492
vt 0.478655 0.065497
vt 0.521346 0.065497
vt 0.572881 -0.983492
vt 0.427122 -0.983492
vt 0.436169 0.069681
vt 0.282065 -0.969205
vt 0.394298 0.078010
vt 0.436169 0.069681
vt 0.282065 -0.969205
vt 0.139107 -0.940769
vt 0.353444 0.090403
vt 0.394298 0.078010
vt 0.139107 -0.940769
vt -0.000375 -0.898458
vt 0.314003 0.106740
vt -0.135038 -0.842678
vt 0.276352 0.126865
vt 0.314003 0.106740
vt -0.135038 -0.842678
vt -0.263586 -0.773968
vt 0.240855 0.150583
vt 0.276352 0.126865
vt -0.263586 -0.773968
vt -0.384780 -0.692990
vt 0.207854 0.177666
vt 0.240855 0.150583
vt -0.384780 -0.692990
vt -0.497453 -0.600521
vt 0.177667 0.207854
vt 0.207854 0.177666
vt -0.497453 -0.600521
vt -0.600519 -0.497455
vt 0.150583 0.240855
vt 0.177667 0.207854
vt -0.600519 -0.497455
vt -0.692988 -0.384782
vt 0.126865 0.276351
vt 0.150583 0.240855
vt -0.692988 -0.384782
vt -0.773967 -0.263588
vt 0.106741 0.314002
vt 0.126865 0.276351
vt -0.773967 -0.263588
vt -0.842677 -0.135041
vt 0.090403 0.353444
vt 0.106741 0.314002
vt -0.842677 -0.135041
vt -0.898457 -0.000377
vt 0.078011 0.394297
vt 0.090403 0.353444
vt -0.898457 -0.000377
vt -0.940768 0.139105
vt 0.069682 0.436168
vt 0.078011 0.394297
vt -0.940768 0.139105
vt -0.969205 0.282063
vt 0.065497 0.478654
vt 0.069682 0.436168
vt -0.969205 0.282063
vt -0.983492 0.427119
vt 0.065497 0.521345
vt 0.065497 0.478654
vt -0.983492 0.427119
vt -0.983492 0.572878
vn -0.0000 1.0000 -0.0000
usemtl water
s off
f 1/1/1 2/2/1 3/3/1
f 1/1/1 3/3/1 4/4/1
f 5/5/1 6/6/1 7/7/1
f 5/5/1 7/7/1 8/8/1
f 9/9/1 10/10/1 11/11/1
f 9/9/1 11/11/1 12/12/1
f 13/13/1 14/14/1 15/15/1
f 13/13/1 15/15/1 16/16/1
f 17/17/1 18/18/1 19/19/1
f 17/17/1 19/19/1 20/20/1
f 21/21/1 22/22/1 23/23/1
f 21/21/1 23/23/1 24/24/1
f 25/25/1 26/26/1 27/27/1
f 25/25/1 27/27/1 28/28/1
f 29/29/1 30/30/1 31/31/1
f 29/29/1 31/31/1 32/32/1
f 33/33/1 34/34/1 35/35/1
f 33/33/1 35/35/1 36/36/1
f 37/37/1 38/38/1 39/39/1
f 37/37/1 39/39/1 40/40/1
f 41/41/1 42/42/1 43/43/1
f 41/41/1 43/43/1 44/44/1
f 45/45/1 46/46/1 47/47/1
f 45/45/1 47/47/1 48/48/1
f 49/49/1 50/50/1 51/51/1
f 49/49/1 51/51/1 52/52/1
f 53/53/1 54/54/1 55/55/1
f 53/53/1 55/55/1 56/56/1
f 57/57/1 58/58/1 59/59/1
f 57/57/1 59/59/1 60/60/1
f 61/61/1 57/57/1 60/60/1
f 61/61/1 60/60/1 62/62/1
f 63/63/1 61/61/1 62/62/1
f 63/63/1 62/62/1 64/64/1
f 65/65/1 63/63/1 64/64/1
f 65/65/1 64/64/1 66/66/1
f 67/67/1 68/68/1 69/69/1
f 67/67/1 69/69/1 70/70/1
f 71/71/1 72/72/1 73/73/1
f 71/71/1 73/73/1 74/74/1
f 75/75/1 76/76/1 77/77/1
f 75/75/1 77/77/1 78/78/1
f 79/79/1 80/80/1 81/81/1
f 79/79/1 81/81/1 82/82/1
f 83/83/1 84/84/1 85/85/1
f 83/83/1 85/85/1 86/86/1
f 87/87/1 88/88/1 89/89/1
f 87/87/1 89/89/1 90/90/1
f 91/91/1 92/92/1 93/93/1
f 91/91/1 93/93/1 94/94/1
f 95/95/1 96/96/1 97/97/1
f 95/95/1 97/97/1 98/98/1
f 99/99/1 100/100/1 101/101/1
f 99/99/1 101/101/1 102/102/1
f 103/103/1 104/104/1 105/105/1
f 103/103/1 105/105/1 106/106/1
f 107/107/1 108/108/1 109/109/1
f 107/107/1 109/109/1 110/110/1
f 111/111/1 112/112/1 113/113/1
f 111/111/1 113/113/1 114/114/1
f 115/115/1 116/116/1 117/117/1
f 115/115/1 117/117/1 118/118/1
f 119/119/1 120/120/1 121/121/1
f 119/119/1 121/121/1 122/122/1
f 123/123/1 124/124/1 125/125/1
f 123/123/1 125/125/1 126/126/1
f 127/127/1 128/128/1 129/129/1
f 127/127/1 129/129/1 130/130/1
f 131/131/1 132/132/1 133/133/1
f 131/131/1 133/133/1 134/134/1
f 135/135/1 136/136/1 137/137/1
f 135/135/1 137/137/1 138/138/1
f 139/139/1 140/140/1 141/141/1
f 139/139/1 141/141/1 142/142/1
f 143/143/1 144/144/1 145/145/1
f 143/143/1 145/145/1 146/146/1
f 147/147/1 148/148/1 149/149/1
f 147/147/1 149/149/1 150/150/1
f 151/151/1 152/152/1 153/153/1
f 151/151/1 153/153/1 154/154/1
f 155/155/1 156/156/1 157/157/1
f 155/155/1 157/157/1 158/158/1
f 159/159/1 160/160/1 161/161/1
f 159/159/1 161/161/1 162/162/1
f 163/163/1 164/164/1 165/165/1
f 163/163/1 165/165/1 166/166/1
f 167/167/1 168/168/1 169/169/1
f 167/167/1 169/169/1 170/170/1
f 171/171/1 172/172/1 173/173/1
f 171/171/1 173/173/1 174/174/1
f 175/175/1 176/176/1 177/177/1
f 175/175/1 177/177/1 178/178/1
f 179/179/1 180/180/1 181/181/1
f 179/179/1 181/181/1 182/182/1
f 183/183/1 184/184/1 185/185/1
f 183/183/1 185/185/1 186/186/1
f 187/187/1 183/183/1 186/186/1
f 187/187/1 186/186/1 188/188/1
f 189/189/1 190/190/1 191/191/1
f 189/189/1 191/191/1 192/192/1
f 193/193/1 194/194/1 195/195/1
f 193/193/1 195/195/1 196/196/1
f 197/197/1 193/193/1 196/196/1
f 197/197/1 196/196/1 198/198/1
f 199/199/1 200/200/1 201/201/1
f 199/199/1 201/201/1 202/202/1
f 203/203/1 204/204/1 205/205/1
f 203/203/1 205/205/1 206/206/1
f 207/207/1 208/208/1 209/209/1
f 207/207/1 209/209/1 210/210/1
f 211/211/1 212/212/1 213/213/1
f 211/211/1 213/213/1 214/214/1
f 215/215/1 216/216/1 217/217/1
f 215/215/1 217/217/1 218/218/1
f 219/219/1 220/220/1 221/221/1
f 219/219/1 221/221/1 222/222/1
f 223/223/1 224/224/1 225/225/1
f 223/223/1 225/225/1 226/226/1
f 227/227/1 228/228/1 229/229/1
f 227/227/1 229/229/1 230/230/1
f 231/231/1 232/232/1 233/233/1
f 231/231/1 233/233/1 234/234/1
f 235/235/1 236/236/1 237/237/1
f 235/235/1 237/237/1 238/238/1
f 239/239/1 240/240/1 241/241/1
f 239/239/1 241/241/1 242/242/1
f 243/243/1 244/244/1 245/245/1
f 243/243/1 245/245/1 246/246/1
