# Blender v3.5.0 OBJ File: ''
# www.blender.org
mtllib Säule.mtl
o Object_2_Object_0
v 4.877260 -0.000007 -24.519604
v 0.000000 -0.000007 -25.000004
v 0.000000 200.000031 -25.000031
v 4.877260 200.000031 -24.519730
v 9.567090 -0.000007 -23.097002
v 9.567090 200.000031 -23.097029
v 13.889300 -0.000006 -20.786701
v 13.889300 200.000031 -20.786829
v 17.677700 -0.000005 -17.677702
v 17.677700 200.000031 -17.677729
v 20.786699 -0.000004 -13.889302
v 20.786699 200.000031 -13.889329
v 23.097000 -0.000003 -9.567091
v 20.786699 -0.000004 -13.889302
v 20.786699 200.000031 -13.889329
v 23.097000 200.000031 -9.567147
v 24.519600 -0.000001 -4.877261
v 24.519600 200.000031 -4.877317
v 25.000000 -0.000000 -0.000002
v 25.000000 200.000031 -0.000061
v 24.519600 0.000001 4.877251
v 24.519600 200.000031 4.877194
v 23.097000 0.000003 9.567080
v 23.097000 200.000031 9.567024
v 20.786699 0.000004 13.889302
v 20.786699 200.000031 13.889175
v 17.677700 0.000005 17.677702
v 17.677700 200.000031 17.677576
v 13.889300 0.000006 20.786701
v 17.677700 0.000005 17.677702
v 17.677700 200.000031 17.677576
v 13.889300 200.000031 20.786674
v 9.567080 0.000007 23.097002
v 9.567080 200.000031 23.096975
v 4.877250 0.000007 24.519604
v 4.877250 200.000031 24.519577
v -0.000008 0.000007 25.000004
v -0.000008 200.000031 24.999977
v -4.877270 0.000007 24.519604
v -4.877270 200.000031 24.519577
v -9.567100 0.000007 23.097002
v -9.567100 200.000031 23.096975
v -13.889300 0.000006 20.786701
v -13.889300 200.000031 20.786674
v -17.677700 0.000005 17.677702
v -17.677700 200.000031 17.677576
v -20.786800 0.000004 13.889202
v -20.786800 200.000031 13.889175
v -23.097000 0.000003 9.567071
v -23.097000 200.000031 9.567015
v -24.519600 0.000001 4.877241
v -23.097000 0.000003 9.567071
v -23.097000 200.000031 9.567015
v -24.519600 200.000031 4.877174
v -25.000000 -0.000000 -0.000024
v -25.000000 200.000031 -0.000084
v -24.519600 -0.000001 -4.877281
v -24.519600 200.000031 -4.877347
v -23.097000 -0.000003 -9.567111
v -23.097000 200.000031 -9.567178
v -20.786699 -0.000004 -13.889302
v -20.786699 200.000031 -13.889329
v -17.677601 -0.000005 -17.677702
v -17.677601 200.000031 -17.677729
v -13.889200 -0.000006 -20.786802
v -13.889200 200.000031 -20.786829
v -9.567050 -0.000007 -23.097002
v -9.567050 200.000031 -23.097029
v 9.567090 200.000031 -23.097029
v 4.877260 200.000031 -24.519730
v 0.000000 200.000031 -25.000031
v -4.877220 200.000031 -24.519730
v -9.567050 200.000031 -23.097029
v -13.889200 200.000031 -20.786829
v -17.677601 200.000031 -17.677729
v -20.786699 200.000031 -13.889329
v -23.097000 200.000031 -9.567178
v -24.519600 200.000031 -4.877347
v -25.000000 200.000031 -0.000084
v -24.519600 200.000031 4.877174
v -23.097000 200.000031 9.567015
v -20.786800 200.000031 13.889175
v -17.677700 200.000031 17.677576
v -13.889300 200.000031 20.786674
v -9.567100 200.000031 23.096975
v -4.877270 200.000031 24.519577
v -0.000008 200.000031 24.999977
v 4.877250 200.000031 24.519577
v 9.567080 200.000031 23.096975
v 13.889300 200.000031 20.786674
v 17.677700 200.000031 17.677576
v 20.786699 200.000031 13.889175
v 23.097000 200.000031 9.567024
v 24.519600 200.000031 4.877194
v 25.000000 200.000031 -0.000061
v 24.519600 200.000031 -4.877317
v 23.097000 200.000031 -9.567147
v 20.786699 200.000031 -13.889329
v 17.677700 200.000031 -17.677729
v 13.889300 200.000031 -20.786829
v -4.877220 -0.000007 -24.519604
v -9.567050 -0.000007 -23.097002
v -9.567050 200.000031 -23.097029
v -4.877220 200.000031 -24.519730
v 27.022800 -225.000031 18.056133
v 27.022800 -201.145035 18.056129
v 22.981001 -201.145035 22.981030
v 22.981001 -225.000031 22.981033
v -18.056101 -225.000031 27.022835
v -18.056101 -201.145035 27.022831
v -22.981001 -201.145035 22.981030
v -22.981001 -225.000031 22.981033
v 0.000000 -200.000031 -24.999977
v -4.877220 -200.000031 -24.519577
v -9.567050 -200.000031 -23.096975
v -9.567050 -200.000031 -23.096975
v -13.889200 -200.000031 -20.786674
v -17.677601 -200.000031 -17.677675
v -20.786699 -200.000031 -13.889175
v -23.097000 -200.000031 -9.567054
v -24.519600 -200.000031 -4.877224
v -25.000000 -200.000031 0.000035
v -24.519600 -200.000031 4.877297
v -23.097000 -200.000031 9.567127
v -23.097000 -200.000031 9.567127
v -20.786800 -200.000031 13.889329
v -17.677700 -200.000031 17.677729
v -13.889300 -200.000031 20.786829
v -9.567100 -200.000031 23.097029
v -4.877270 -200.000031 24.519730
v -0.000008 -200.000031 25.000031
v 4.877250 -200.000031 24.519730
v 9.567080 -200.000031 23.097029
v 13.889300 -200.000031 20.786829
v 17.677700 -200.000031 17.677729
v 17.677700 -200.000031 17.677729
v 20.786699 -200.000031 13.889329
v 23.097000 -200.000031 9.567138
v 24.519600 -200.000031 4.877317
v 25.000000 -200.000031 0.000058
v 24.519600 -200.000031 -4.877204
v 23.097000 -200.000031 -9.567024
v 20.786699 -200.000031 -13.889175
v 20.786699 -200.000031 -13.889175
v 17.677700 -200.000031 -17.677576
v 13.889300 -200.000031 -20.786674
v 9.567090 -200.000031 -23.096975
v 4.877260 -200.000031 -24.519577
v 35.063099 -250.000031 6.974555
v 35.063099 -226.145035 6.974542
v 33.028702 -226.145035 13.681032
v 33.028702 -250.000031 13.681035
v 12.437200 -225.000031 -30.025972
v 12.437200 -201.145035 -30.025976
v 18.056000 -201.145035 -27.022676
v 18.056000 -225.000031 -27.022673
v -32.500000 -225.000031 0.000038
v -32.500000 -201.145035 0.000031
v -31.875500 -201.145035 -6.340404
v -31.875500 -225.000031 -6.340401
v 6.340410 -225.000031 31.875635
v 6.340430 -201.145035 31.875631
v -0.000012 -201.145035 32.500031
v -0.000027 -225.000031 32.500034
v 30.026100 -225.000031 -12.437171
v 30.026100 -201.145035 -12.437175
v 31.875500 -201.145035 -6.340374
v 31.875500 -225.000031 -6.340371
v -22.981001 -225.000031 -22.980972
v -22.980900 -201.145035 -22.980976
v -18.056000 -201.145035 -27.022778
v -18.056000 -225.000031 -27.022774
v -27.022800 -201.145035 18.056129
v -27.022800 -225.000031 18.056133
v 30.026100 -225.000031 12.437232
v 30.026100 -201.145035 12.437228
v 6.340420 -225.000031 -31.875473
v 6.340440 -201.145035 -31.875477
v -31.875500 -225.000031 6.340481
v -31.875500 -201.145035 6.340468
v 12.437200 -225.000031 30.026134
v 12.437200 -201.145035 30.026131
v 27.022800 -225.000031 -18.055971
v 27.022800 -201.145035 -18.055975
v -27.022800 -225.000031 -18.055971
v -27.022699 -201.145035 -18.055975
v -12.437200 -225.000031 30.026134
v -12.437200 -201.145035 30.026131
v 31.875500 -225.000031 6.340501
v 31.875500 -201.145035 6.340498
v -0.000017 -225.000031 -32.499973
v -0.000002 -201.145035 -32.499977
v -30.026100 -225.000031 12.437232
v -30.026100 -201.145035 12.437228
v 18.056000 -225.000031 27.022835
v 18.056000 -201.145035 27.022831
v 22.981001 -225.000031 -22.980871
v 22.981001 -201.145035 -22.980875
v 27.022800 -201.145035 -18.055975
v 27.022800 -225.000031 -18.055971
v -30.026100 -225.000031 -12.437171
v -30.026100 -201.145035 -12.437175
v -6.340470 -225.000031 31.875635
v -6.340450 -201.145035 31.875631
v 32.500000 -225.000031 0.000067
v 32.500000 -201.145035 0.000059
v -12.437200 -225.000031 -30.026073
v -12.437200 -201.145035 -30.026077
v -6.340390 -201.145035 -31.875477
v -6.340400 -225.000031 -31.875473
v 6.974450 -250.000031 -35.062969
v 6.974460 -226.145035 -35.062973
v 13.680900 -226.145035 -33.028675
v 13.680900 -250.000031 -33.028568
v -26.065800 -200.000031 17.416628
v -20.786800 -200.000031 13.889329
v -23.097000 -200.000031 9.567127
v -28.962799 -200.000031 11.996828
v 22.981001 -225.000031 22.981033
v 22.981001 -201.145035 22.981030
v -6.115850 -200.000031 -30.746677
v -4.877220 -200.000031 -24.519577
v 0.000000 -200.000031 -24.999977
v -0.000001 -200.000031 -31.348978
v -19.861700 -250.000031 29.725138
v -19.861700 -226.145035 29.725134
v -25.279100 -226.145035 25.279135
v -25.279100 -250.000031 25.279139
v 30.746700 -200.000031 -6.115844
v 24.519600 -200.000031 -4.877204
v 25.000000 -200.000031 0.000058
v 31.349100 -200.000031 0.000059
v -22.167200 -200.000031 22.167229
v -17.677700 -200.000031 17.677729
v 24.519600 -200.000031 4.877317
v 30.746700 -200.000031 6.115958
v -24.519600 -200.000031 4.877297
v -30.746700 -200.000031 6.115938
v 23.097000 -200.000031 9.567138
v 28.962799 -200.000031 11.996828
v -25.000000 -200.000031 0.000035
v -31.349100 -200.000031 0.000031
v 20.786699 -200.000031 13.889329
v 26.065800 -200.000031 17.416628
v -24.519600 -200.000031 -4.877224
v -30.746700 -200.000031 -6.115874
v 17.677700 -200.000031 17.677729
v 22.167101 -200.000031 22.167229
v -23.097000 -200.000031 -9.567054
v -28.962700 -200.000031 -11.996775
v 13.889300 -200.000031 20.786829
v 17.416599 -200.000031 26.065830
v -20.786699 -200.000031 -13.889175
v -26.065800 -200.000031 -17.416574
v 9.567080 -200.000031 23.097029
v 11.996800 -200.000031 28.962830
v -17.677601 -200.000031 -17.677675
v -22.167101 -200.000031 -22.167076
v 4.877250 -200.000031 24.519730
v 6.115890 -200.000031 30.746731
v 6.115900 -200.000031 -30.746677
v 4.877260 -200.000031 -24.519577
v 9.567090 -200.000031 -23.096975
v 11.996800 -200.000031 -28.962677
v -13.889200 -200.000031 -20.786674
v -17.416599 -200.000031 -26.065777
v -0.000008 -200.000031 25.000031
v -0.000011 -200.000031 31.349131
v 13.889300 -200.000031 -20.786674
v 17.416599 -200.000031 -26.065777
v -9.567050 -200.000031 -23.096975
v -11.996700 -200.000031 -28.962677
v -4.877270 -200.000031 24.519730
v -6.115910 -200.000031 30.746731
v 17.677700 -200.000031 -17.677576
v 22.167101 -200.000031 -22.167076
v -12.437200 -201.145035 -30.026077
v -12.437200 -225.000031 -30.026073
v -9.567100 -200.000031 23.097029
v -11.996800 -200.000031 28.962830
v 20.786699 -200.000031 -13.889175
v 26.065800 -200.000031 -17.416574
v -13.889300 -200.000031 20.786829
v -17.416599 -200.000031 26.065830
v 23.097000 -200.000031 -9.567024
v 28.962799 -200.000031 -11.996675
v -30.026100 -201.145035 12.437228
v -30.026100 -225.000031 12.437232
v -13.240500 -225.000031 31.965435
v -12.437200 -225.000031 30.026134
v -18.056101 -225.000031 27.022835
v -19.222200 -225.000031 28.768135
v -29.725000 -250.000031 -19.861568
v -29.725000 -226.145035 -19.861572
v -25.279100 -226.145035 -25.279074
v -25.279100 -250.000031 -25.279070
v 29.725000 -250.000031 -19.861568
v 29.725000 -226.145035 -19.861572
v 33.028702 -226.145035 -13.680871
v 33.028702 -250.000031 -13.680868
v 13.680900 -250.000031 33.028740
v 13.680900 -226.145035 33.028736
v 6.974450 -226.145035 35.063133
v 6.974450 -250.000031 35.063137
v -35.063099 -250.000031 6.974524
v -35.063099 -226.145035 6.974522
v -35.750000 -226.145035 0.000036
v -35.750000 -250.000031 0.000043
v 29.725000 -226.145035 19.861732
v 29.725000 -250.000031 19.861736
v -13.681000 -250.000031 33.028740
v -13.681000 -226.145035 33.028736
v -19.861601 -226.145035 -29.724974
v -19.861601 -250.000031 -29.724970
v 35.063099 -226.145035 -6.974411
v 35.063000 -250.000031 -6.974408
v -0.000029 -226.145035 35.750034
v -0.000037 -250.000031 35.750038
v -35.063099 -226.145035 -6.974451
v -35.063099 -250.000031 -6.974438
v -0.000026 -250.000031 -35.749969
v -0.000018 -226.145035 -35.749973
v 25.279100 -226.145035 25.279135
v 25.278999 -250.000031 25.279139
v 6.749930 -225.000031 -33.934174
v 6.340420 -225.000031 -31.875473
v 12.437200 -225.000031 -30.025972
v 13.240500 -225.000031 -31.965273
v -29.725100 -226.145035 19.861732
v -29.725100 -250.000031 19.861736
v -13.680900 -226.145035 -33.028675
v -13.680900 -250.000031 -33.028671
v 35.750000 -226.145035 0.000068
v 35.750000 -250.000031 0.000075
v -6.974510 -226.145035 35.063133
v -6.974520 -250.000031 35.063137
v -33.028702 -226.145035 -13.680871
v -33.028702 -250.000031 -13.680868
v 19.861601 -250.000031 -29.724970
v 19.861601 -226.145035 -29.724974
v 25.279100 -226.145035 -25.278973
v 25.278999 -250.000031 -25.278969
v 25.278999 -250.000031 25.279139
v 25.279100 -226.145035 25.279135
v 19.861601 -226.145035 29.725134
v 19.861601 -250.000031 29.725138
v -33.028702 -226.145035 13.680932
v -33.028702 -250.000031 13.681035
v -13.680900 -250.000031 -33.028671
v -13.680900 -226.145035 -33.028675
v -6.974440 -226.145035 -35.062973
v -6.974450 -250.000031 -35.062969
v 29.725000 -226.145035 -19.861572
v 29.725000 -250.000031 -19.861568
v -33.028702 -250.000031 13.681035
v -33.028702 -226.145035 13.680932
v -6.974450 -250.000031 -35.062969
v -0.000026 -250.000031 -35.749969
v 6.974450 -250.000031 -35.062969
v 13.680900 -250.000031 -33.028568
v 19.861601 -250.000031 -29.724970
v 25.278999 -250.000031 -25.278969
v 29.725000 -250.000031 -19.861568
v 33.028702 -250.000031 -13.680868
v 35.063000 -250.000031 -6.974408
v 35.750000 -250.000031 0.000075
v 35.063099 -250.000031 6.974555
v 33.028702 -250.000031 13.681035
v 29.725000 -250.000031 19.861736
v 25.278999 -250.000031 25.279139
v 19.861601 -250.000031 29.725138
v 13.680900 -250.000031 33.028740
v 6.974450 -250.000031 35.063137
v -0.000037 -250.000031 35.750038
v -6.974520 -250.000031 35.063137
v -13.681000 -250.000031 33.028740
v -19.861700 -250.000031 29.725138
v -25.279100 -250.000031 25.279139
v -29.725100 -250.000031 19.861736
v -33.028702 -250.000031 13.681035
v -35.063099 -250.000031 6.974524
v -35.750000 -250.000031 0.000043
v -35.063099 -250.000031 -6.974438
v -33.028702 -250.000031 -13.680868
v -29.725000 -250.000031 -19.861568
v -25.279100 -250.000031 -25.279070
v -19.861601 -250.000031 -29.724970
v -13.680900 -250.000031 -33.028671
v 28.768101 -225.000031 -19.222172
v 27.022800 -225.000031 -18.055971
v 30.026100 -225.000031 -12.437171
v 31.965401 -225.000031 -13.240472
v -22.981001 -225.000031 22.981033
v -24.465300 -225.000031 24.465334
v 31.875500 -225.000031 -6.340371
v 33.934200 -225.000031 -6.749881
v -27.022800 -225.000031 18.056133
v -28.768101 -225.000031 19.222233
v 32.500000 -225.000031 0.000067
v 34.599098 -225.000031 0.000067
v -30.026100 -225.000031 12.437232
v -31.965401 -225.000031 13.240533
v 31.875500 -225.000031 6.340501
v 33.934200 -225.000031 6.750011
v -31.875500 -225.000031 6.340481
v -33.934299 -225.000031 6.749981
v 30.026100 -225.000031 12.437232
v 31.965401 -225.000031 13.240533
v -32.500000 -225.000031 0.000038
v -34.599098 -225.000031 0.000036
v 27.022800 -225.000031 18.056133
v 28.768101 -225.000031 19.222332
v -31.875500 -225.000031 -6.340401
v -33.934299 -225.000031 -6.749911
v 22.981001 -225.000031 22.981033
v 24.465200 -225.000031 24.465334
v -30.026100 -225.000031 -12.437171
v -31.965401 -225.000031 -13.240472
v 18.056000 -225.000031 27.022835
v 19.222200 -225.000031 28.768135
v -27.022800 -225.000031 -18.055971
v -28.768101 -225.000031 -19.222172
v 12.437200 -225.000031 30.026134
v 13.240500 -225.000031 31.965435
v -22.981001 -225.000031 -22.980972
v -24.465200 -225.000031 -24.465174
v 6.340410 -225.000031 31.875635
v 6.749920 -225.000031 33.934334
v -0.000017 -225.000031 -34.598972
v -0.000017 -225.000031 -32.499973
v -18.056000 -225.000031 -27.022774
v -19.222200 -225.000031 -28.768074
v -0.000027 -225.000031 32.500034
v -0.000028 -225.000031 34.599133
v 18.056000 -225.000031 -27.022673
v 19.222200 -225.000031 -28.767973
v -12.437200 -225.000031 -30.026073
v -13.240500 -225.000031 -31.965374
v -6.340470 -225.000031 31.875635
v -6.749980 -225.000031 33.934334
v 22.981001 -225.000031 -22.980871
v 24.465200 -225.000031 -24.465174
v -6.340400 -225.000031 -31.875473
v -6.749910 -225.000031 -33.934174
v 33.978100 215.693024 34.999973
v 17.500000 200.000031 34.999977
v 35.000000 200.000031 17.499975
v 35.000000 215.693024 33.977974
v 35.000000 215.693024 -33.978134
v 35.000000 200.000031 -17.500029
v 17.500000 200.000031 -35.000031
v 33.978100 215.693024 -35.000034
v -17.500000 250.000031 34.999969
v -17.500000 250.000031 17.499968
v -35.000000 250.000031 17.499968
v -35.000000 250.000031 33.588669
v -33.588699 250.000031 34.999969
v 17.500000 200.000031 17.499975
v 35.000000 200.000031 17.499975
v 17.500000 200.000031 34.999977
v -17.500000 200.000031 -35.000031
v -33.978100 215.693024 -35.000034
v -33.588699 216.667038 -35.000034
v -17.500000 216.667038 -35.000034
v -17.500000 233.333023 -35.000034
v -33.588699 233.333023 -35.000034
v -33.588699 250.000031 -35.000038
v -17.500000 250.000031 -35.000038
v -17.500000 250.000031 -0.000071
v -17.500000 250.000031 -17.500036
v -35.000000 250.000031 -17.500036
v -35.000000 250.000031 -0.000071
v 17.500000 200.000031 -35.000031
v 35.000000 200.000031 -17.500029
v 17.500000 200.000031 -17.500029
v 17.500000 200.000031 -0.000056
v 35.000000 200.000031 -0.000056
v 33.588699 233.333023 -35.000034
v 17.500000 233.333023 -35.000034
v 17.500000 250.000031 -35.000038
v 33.588699 250.000031 -35.000038
v 35.000000 233.333023 -0.000066
v 35.000000 233.333023 -17.500032
v 35.000000 250.000031 -17.500036
v 35.000000 250.000031 -0.000071
v 35.000000 233.333023 17.499971
v 35.000000 250.000031 17.499968
v -33.588699 233.333023 34.999973
v -17.500000 233.333023 34.999973
v -17.500000 250.000031 34.999969
v -33.588699 250.000031 34.999969
v -35.000000 233.333023 -0.000066
v -35.000000 233.333023 17.499971
v -35.000000 250.000031 17.499968
v -35.000000 250.000031 -0.000071
v -35.000000 233.333023 -17.500032
v -35.000000 250.000031 -17.500036
v -35.000000 200.000031 17.499975
v -35.000000 200.000031 -0.000056
v -17.500000 200.000031 -0.000056
v -17.500000 200.000031 17.499975
v 0.000000 200.000031 -0.000056
v 0.000000 200.000031 17.499975
v -35.000000 200.000031 -17.500029
v -17.500000 200.000031 -17.500029
v 0.000000 200.000031 -17.500029
v -35.000000 215.693024 -33.978134
v -35.000000 200.000031 -17.500029
v -35.000000 216.667038 -17.500031
v -35.000000 216.667038 -33.588833
v -17.500000 200.000031 -35.000031
v 0.000000 200.000031 -35.000031
v 35.000000 250.000031 17.499968
v 35.000000 250.000031 -0.000071
v 17.500000 250.000031 -0.000071
v 17.500000 250.000031 17.499968
v 0.000000 250.000031 -0.000071
v 0.000000 250.000031 17.499968
v 35.000000 250.000031 -17.500036
v 17.500000 250.000031 -17.500036
v 0.000000 250.000031 -17.500036
v 35.000000 233.333023 -33.588833
v 35.000000 250.000031 -33.588837
v 17.500000 250.000031 -35.000038
v 0.000000 250.000031 -35.000038
v -17.500000 250.000031 -35.000038
v 17.500000 233.333023 34.999973
v 33.588699 233.333023 34.999973
v 33.588699 250.000031 34.999969
v 17.500000 250.000031 34.999969
v 17.500000 250.000031 34.999969
v 0.000000 250.000031 34.999969
v -17.500000 200.000031 34.999977
v 0.000000 200.000031 34.999977
v 35.000000 233.333023 33.588673
v 35.000000 250.000031 33.588669
v 0.000000 233.333023 34.999973
v 0.000000 250.000031 34.999969
v -35.000000 233.333023 -33.588833
v -35.000000 250.000031 -33.588837
v 0.000000 233.333023 -35.000034
v 0.000000 250.000031 -35.000038
v 17.500000 200.000031 -35.000031
v 0.000000 200.000031 -35.000031
v 0.000000 216.667038 -35.000034
v 17.500000 216.667038 -35.000034
v -35.000000 200.000031 -17.500029
v -35.000000 215.693024 -33.978134
v -33.978100 215.693024 -35.000034
v -17.500000 200.000031 -35.000031
v -17.500000 200.000031 34.999977
v 0.000000 200.000031 34.999977
v 0.000000 216.667038 34.999973
v -17.500000 216.667038 34.999973
v 17.500000 200.000031 34.999977
v 17.500000 216.667038 34.999973
v 33.588699 216.667038 34.999973
v 35.000000 250.000031 33.588669
v 33.588699 250.000031 34.999969
v -35.000000 200.000031 -0.000056
v -35.000000 216.667038 -0.000061
v -35.000000 200.000031 17.499975
v -35.000000 216.667038 17.499973
v -35.000000 216.667038 33.588673
v -35.000000 233.333023 33.588673
v -35.000000 250.000031 33.588669
v 35.000000 200.000031 17.499975
v 35.000000 200.000031 -0.000056
v 35.000000 216.667038 -0.000061
v 35.000000 216.667038 17.499973
v 35.000000 200.000031 -17.500029
v 35.000000 216.667038 -17.500031
v 33.588699 216.667038 -35.000034
v 35.000000 215.693024 -33.978134
v 35.000000 216.667038 -33.588833
v -33.588699 216.667038 34.999973
v -35.000000 215.693024 33.977974
v 35.000000 216.667038 33.588673
v 33.978100 215.693024 34.999973
v 35.000000 250.000031 -33.588837
v 33.588699 250.000031 -35.000038
v -35.000000 216.667038 -33.588833
v -33.588699 250.000031 -35.000038
v -35.000000 250.000031 -33.588837
v -33.978100 215.693024 34.999973
v 35.000000 215.693024 33.977974
v 33.978100 215.693024 -35.000034
v -33.978100 215.693024 34.999973
v -33.588699 216.667038 34.999973
v -35.000000 216.667038 33.588673
v -35.000000 215.693024 33.977974
v -35.000000 216.667038 -33.588833
v -33.588699 216.667038 -35.000034
v 35.000000 215.693024 33.977974
v 35.000000 216.667038 33.588673
v 33.588699 216.667038 34.999973
v 33.978100 215.693024 34.999973
v 33.588699 216.667038 -35.000034
v 35.000000 216.667038 -33.588833
v -35.000000 233.333023 33.588673
v -33.588699 233.333023 34.999973
v -33.588699 250.000031 34.999969
v -35.000000 250.000031 33.588669
v -35.000000 250.000031 -33.588837
v -33.588699 250.000031 -35.000038
v -33.588699 233.333023 -35.000034
v -35.000000 233.333023 -33.588833
v 33.588699 250.000031 -35.000038
v 35.000000 250.000031 -33.588837
v 35.000000 233.333023 -33.588833
v 33.588699 233.333023 -35.000034
v 35.000000 250.000031 33.588669
v 33.588699 250.000031 34.999969
v 33.588699 233.333023 34.999973
v 35.000000 233.333023 33.588673
v -35.000000 200.000031 17.499975
v -17.500000 200.000031 34.999977
v -33.978100 215.693024 34.999973
v -35.000000 215.693024 33.977974
v -0.000001 -200.335037 -32.162876
v -0.000001 -200.000031 -31.348978
v 6.115900 -200.000031 -30.746677
v 6.274670 -200.335037 -31.544878
v -0.000002 -201.145035 -32.499977
v -0.000001 -200.335037 -32.162876
v 6.274670 -200.335037 -31.544878
v 6.340440 -201.145035 -31.875477
v -6.274620 -200.335037 -31.544878
v -6.115850 -200.000031 -30.746677
v -6.340390 -201.145035 -31.875477
v -6.274620 -200.335037 -31.544878
v -12.308200 -200.335037 -29.714577
v -11.996700 -200.000031 -28.962677
v -12.437200 -201.145035 -30.026077
v -12.308200 -200.335037 -29.714577
v -17.868700 -200.335037 -26.742477
v -17.416599 -200.000031 -26.065777
v -18.056000 -201.145035 -27.022778
v -17.868700 -200.335037 -26.742477
v -12.308200 -200.335037 -29.714577
v -12.437200 -201.145035 -30.026077
v -22.742599 -200.335037 -22.742575
v -22.167101 -200.000031 -22.167076
v -22.980900 -201.145035 -22.980976
v -22.742599 -200.335037 -22.742575
v -26.742500 -200.335037 -17.868774
v -26.065800 -200.000031 -17.416574
v -27.022699 -201.145035 -18.055975
v -26.742500 -200.335037 -17.868774
v -29.714600 -200.335037 -12.308175
v -28.962700 -200.000031 -11.996775
v -30.026100 -201.145035 -12.437175
v -29.714600 -200.335037 -12.308175
v -31.544901 -200.335037 -6.274644
v -30.746700 -200.000031 -6.115874
v -31.875500 -201.145035 -6.340404
v -31.544901 -200.335037 -6.274644
v -32.162899 -200.335037 0.000031
v -31.349100 -200.000031 0.000031
v -32.500000 -201.145035 0.000031
v -32.162899 -200.335037 0.000031
v -31.544901 -200.335037 6.274708
v -30.746700 -200.000031 6.115938
v -31.875500 -201.145035 6.340468
v -31.544901 -200.335037 6.274708
v -29.714701 -200.335037 12.308228
v -28.962799 -200.000031 11.996828
v -30.026100 -201.145035 12.437228
v -29.714701 -200.335037 12.308228
v -26.742500 -200.335037 17.868828
v -26.065800 -200.000031 17.416628
v -27.022800 -201.145035 18.056129
v -26.742500 -200.335037 17.868828
v -29.714701 -200.335037 12.308228
v -30.026100 -201.145035 12.437228
v -22.742599 -200.335037 22.742628
v -22.167200 -200.000031 22.167229
v -22.981001 -201.145035 22.981030
v -22.742599 -200.335037 22.742628
v -17.868799 -200.335037 26.742531
v -17.416599 -200.000031 26.065830
v -18.056101 -201.145035 27.022831
v -17.868799 -200.335037 26.742531
v -12.308200 -200.335037 29.714731
v -11.996800 -200.000031 28.962830
v -12.437200 -201.145035 30.026131
v -12.308200 -200.335037 29.714731
v -6.274690 -200.335037 31.544931
v -6.115910 -200.000031 30.746731
v -6.340450 -201.145035 31.875631
v -6.274690 -200.335037 31.544931
v -0.000012 -200.335037 32.162930
v -0.000011 -200.000031 31.349131
v -0.000012 -201.145035 32.500031
v -0.000012 -200.335037 32.162930
v 6.274660 -200.335037 31.544931
v 6.115890 -200.000031 30.746731
v 6.340430 -201.145035 31.875631
v 6.274660 -200.335037 31.544931
v 12.308200 -200.335037 29.714731
v 11.996800 -200.000031 28.962830
v 12.437200 -201.145035 30.026131
v 12.308200 -200.335037 29.714731
v 17.868700 -200.335037 26.742531
v 17.416599 -200.000031 26.065830
v 18.056000 -201.145035 27.022831
v 17.868700 -200.335037 26.742531
v 22.742599 -200.335037 22.742628
v 22.167101 -200.000031 22.167229
v 22.981001 -201.145035 22.981030
v 22.742599 -200.335037 22.742628
v 26.742500 -200.335037 17.868828
v 26.065800 -200.000031 17.416628
v 27.022800 -201.145035 18.056129
v 26.742500 -200.335037 17.868828
v 22.742599 -200.335037 22.742628
v 22.981001 -201.145035 22.981030
v 29.714600 -200.335037 12.308228
v 28.962799 -200.000031 11.996828
v 30.026100 -201.145035 12.437228
v 29.714600 -200.335037 12.308228
v 31.544901 -200.335037 6.274728
v 30.746700 -200.000031 6.115958
v 31.875500 -201.145035 6.340498
v 31.544901 -200.335037 6.274728
v 32.162899 -200.335037 0.000059
v 31.349100 -200.000031 0.000059
v 32.500000 -201.145035 0.000059
v 32.162899 -200.335037 0.000059
v 31.544901 -200.335037 -6.274614
v 30.746700 -200.000031 -6.115844
v 31.875500 -201.145035 -6.340374
v 31.544901 -200.335037 -6.274614
v 29.714600 -200.335037 -12.308175
v 28.962799 -200.000031 -11.996675
v 30.026100 -201.145035 -12.437175
v 29.714600 -200.335037 -12.308175
v 26.742500 -200.335037 -17.868675
v 26.065800 -200.000031 -17.416574
v 27.022800 -201.145035 -18.055975
v 26.742500 -200.335037 -17.868675
v 22.742599 -200.335037 -22.742575
v 22.167101 -200.000031 -22.167076
v 22.981001 -201.145035 -22.980875
v 22.742599 -200.335037 -22.742575
v 26.742500 -200.335037 -17.868675
v 27.022800 -201.145035 -18.055975
v 17.868799 -200.335037 -26.742376
v 17.416599 -200.000031 -26.065777
v 18.056000 -201.145035 -27.022676
v 17.868799 -200.335037 -26.742376
v 12.308200 -200.335037 -29.714577
v 11.996800 -200.000031 -28.962677
v 12.437200 -201.145035 -30.025976
v 12.308200 -200.335037 -29.714577
v 6.908700 -225.335037 -34.732372
v 6.749930 -225.000031 -33.934174
v 13.240500 -225.000031 -31.965273
v 13.551900 -225.335037 -32.717175
v 6.974460 -226.145035 -35.062973
v 6.908700 -225.335037 -34.732372
v 13.551900 -225.335037 -32.717175
v 13.680900 -226.145035 -33.028675
v 19.222200 -225.000031 -28.767973
v 19.674299 -225.335037 -29.444674
v 19.674299 -225.335037 -29.444674
v 19.861601 -226.145035 -29.724974
v 24.465200 -225.000031 -24.465174
v 25.040701 -225.335037 -25.040674
v 25.040701 -225.335037 -25.040674
v 25.279100 -226.145035 -25.278973
v 28.768101 -225.000031 -19.222172
v 29.444700 -225.335037 -19.674271
v 29.444700 -225.335037 -19.674271
v 29.725000 -226.145035 -19.861572
v 31.965401 -225.000031 -13.240472
v 32.717201 -225.335037 -13.551871
v 29.725000 -226.145035 -19.861572
v 29.444700 -225.335037 -19.674271
v 32.717201 -225.335037 -13.551871
v 33.028702 -226.145035 -13.680871
v 33.934200 -225.000031 -6.749881
v 34.732399 -225.335037 -6.908651
v 34.732399 -225.335037 -6.908651
v 35.063099 -226.145035 -6.974411
v 34.599098 -225.000031 0.000067
v 35.412899 -225.335037 0.000067
v 35.412899 -225.335037 0.000067
v 35.750000 -226.145035 0.000068
v 33.934200 -225.000031 6.750011
v 34.732399 -225.335037 6.908781
v 34.732399 -225.335037 6.908781
v 35.063099 -226.145035 6.974542
v 31.965401 -225.000031 13.240533
v 32.717201 -225.335037 13.552032
v 32.717201 -225.335037 13.552032
v 33.028702 -226.145035 13.681032
v 28.768101 -225.000031 19.222332
v 29.444700 -225.335037 19.674433
v 29.444700 -225.335037 19.674433
v 29.725000 -226.145035 19.861732
v 24.465200 -225.000031 24.465334
v 25.040701 -225.335037 25.040735
v 25.040701 -225.335037 25.040735
v 25.279100 -226.145035 25.279135
v 19.222200 -225.000031 28.768135
v 19.674299 -225.335037 29.444834
v 25.279100 -226.145035 25.279135
v 25.040701 -225.335037 25.040735
v 19.674299 -225.335037 29.444834
v 19.861601 -226.145035 29.725134
v 13.240500 -225.000031 31.965435
v 13.551900 -225.335037 32.717335
v 13.551900 -225.335037 32.717335
v 13.680900 -226.145035 33.028736
v 6.749920 -225.000031 33.934334
v 6.908690 -225.335037 34.732533
v 6.908690 -225.335037 34.732533
v 6.974450 -226.145035 35.063133
v -0.000028 -225.000031 34.599133
v -0.000029 -225.335037 35.412933
v -0.000029 -225.335037 35.412933
v -0.000029 -226.145035 35.750034
v -6.749980 -225.000031 33.934334
v -6.908750 -225.335037 34.732533
v -6.908750 -225.335037 34.732533
v -6.974510 -226.145035 35.063133
v -13.240500 -225.000031 31.965435
v -13.552000 -225.335037 32.717335
v -13.552000 -225.335037 32.717335
v -13.681000 -226.145035 33.028736
v -19.222200 -225.000031 28.768135
v -19.674400 -225.335037 29.444834
v -19.674400 -225.335037 29.444834
v -19.861700 -226.145035 29.725134
v -24.465300 -225.000031 24.465334
v -25.040701 -225.335037 25.040735
v -25.040701 -225.335037 25.040735
v -25.279100 -226.145035 25.279135
v -28.768101 -225.000031 19.222233
v -29.444799 -225.335037 19.674433
v -29.444799 -225.335037 19.674433
v -29.725100 -226.145035 19.861732
v -31.965401 -225.000031 13.240533
v -32.717300 -225.335037 13.551932
v -32.717300 -225.335037 13.551932
v -33.028702 -226.145035 13.680932
v -33.934299 -225.000031 6.749981
v -34.732498 -225.335037 6.908751
v -33.028702 -226.145035 13.680932
v -32.717300 -225.335037 13.551932
v -34.732498 -225.335037 6.908751
v -35.063099 -226.145035 6.974522
v -34.599098 -225.000031 0.000036
v -35.412899 -225.335037 0.000036
v -35.412899 -225.335037 0.000036
v -35.750000 -226.145035 0.000036
v -33.934299 -225.000031 -6.749911
v -34.732498 -225.335037 -6.908681
v -34.732498 -225.335037 -6.908681
v -35.063099 -226.145035 -6.974451
v -31.965401 -225.000031 -13.240472
v -32.717300 -225.335037 -13.551871
v -32.717300 -225.335037 -13.551871
v -33.028702 -226.145035 -13.680871
v -28.768101 -225.000031 -19.222172
v -29.444700 -225.335037 -19.674372
v -29.444700 -225.335037 -19.674372
v -29.725000 -226.145035 -19.861572
v -24.465200 -225.000031 -24.465174
v -25.040701 -225.335037 -25.040674
v -25.040701 -225.335037 -25.040674
v -25.279100 -226.145035 -25.279074
v -19.222200 -225.000031 -28.768074
v -19.674299 -225.335037 -29.444674
v -19.674299 -225.335037 -29.444674
v -19.861601 -226.145035 -29.724974
v -13.240500 -225.000031 -31.965374
v -13.551900 -225.335037 -32.717175
v -13.551900 -225.335037 -32.717175
v -13.680900 -226.145035 -33.028675
v -6.749910 -225.000031 -33.934174
v -6.908680 -225.335037 -34.732372
v -13.680900 -226.145035 -33.028675
v -13.551900 -225.335037 -32.717175
v -6.908680 -225.335037 -34.732372
v -6.974440 -226.145035 -35.062973
v -0.000017 -225.000031 -34.598972
v -0.000017 -225.335037 -35.412872
v -0.000017 -225.335037 -35.412872
v -0.000018 -226.145035 -35.749973
vt 0.751147 0.986097
vt 0.759821 0.977422
vt 0.766637 0.967222
vt 0.771331 0.955889
vt 0.773725 0.943857
vt 0.773725 0.931590
vt 0.771331 0.919558
vt 0.766637 0.908224
vt 0.759821 0.898024
vt 0.751147 0.889350
vt 0.740947 0.882535
vt 0.729613 0.877840
vt 0.717582 0.875447
vt 0.705314 0.875447
vt 0.693282 0.877840
vt 0.681949 0.882535
vt 0.671749 0.889350
vt 0.663075 0.898024
vt 0.656259 0.908224
vt 0.651565 0.919558
vt 0.649171 0.931590
vt 0.649171 0.943857
vt 0.651565 0.955889
vt 0.656259 0.967223
vt 0.663075 0.977422
vt 0.671749 0.986097
vt 0.681949 0.992912
vt 0.693283 0.997607
vt 0.705314 1.000000
vt 0.717582 1.000000
vt 0.729613 0.997607
vt 0.740947 0.992912
vt 0.625310 0.666677
vt 0.620697 0.681886
vt 0.632030 0.686580
vt 0.639522 0.672564
vt 0.663190 0.791550
vt 0.650905 0.781468
vt 0.642230 0.790142
vt 0.652313 0.802427
vt 0.552750 0.802427
vt 0.562832 0.790142
vt 0.554158 0.781468
vt 0.541873 0.791550
vt 0.610223 0.663676
vt 0.608665 0.679492
vt 0.547343 0.771268
vt 0.533327 0.778760
vt 0.642230 0.693396
vt 0.652312 0.681110
vt 0.542648 0.759934
vt 0.527440 0.764548
vt 0.650905 0.702070
vt 0.663190 0.691988
vt 0.540255 0.747903
vt 0.524439 0.749460
vt 0.657720 0.712270
vt 0.671736 0.704778
vt 0.540255 0.735635
vt 0.524439 0.734078
vt 0.662415 0.723604
vt 0.677623 0.718990
vt 0.542648 0.723604
vt 0.527440 0.718990
vt 0.664808 0.735635
vt 0.680624 0.734078
vt 0.547342 0.712270
vt 0.533327 0.704778
vt 0.664808 0.747903
vt 0.680624 0.749460
vt 0.554158 0.702070
vt 0.541873 0.691988
vt 0.639522 0.810974
vt 0.632030 0.796958
vt 0.620697 0.801652
vt 0.625310 0.816860
vt 0.662415 0.759934
vt 0.677623 0.764548
vt 0.562832 0.693396
vt 0.552750 0.681111
vt 0.608665 0.804046
vt 0.610223 0.819862
vt 0.657720 0.771268
vt 0.671736 0.778760
vt 0.573032 0.686580
vt 0.565541 0.672564
vt 0.596398 0.804046
vt 0.594840 0.819862
vt 0.584366 0.681886
vt 0.579753 0.666677
vt 0.584366 0.801652
vt 0.579753 0.816860
vt 0.596398 0.679492
vt 0.594840 0.663676
vt 0.573032 0.796958
vt 0.565541 0.810974
vt 0.517072 0.758813
vt 0.512044 0.757288
vt 0.505941 0.772022
vt 0.510575 0.774499
vt 0.348007 0.725184
vt 0.353236 0.725699
vt 0.356347 0.710058
vt 0.351319 0.708533
vt 0.520669 0.936921
vt 0.524091 0.919716
vt 0.524091 0.902173
vt 0.520669 0.884968
vt 0.513955 0.868761
vt 0.504209 0.854175
vt 0.491805 0.841770
vt 0.477219 0.832024
vt 0.461012 0.825311
vt 0.443807 0.821889
vt 0.426264 0.821889
vt 0.409059 0.825311
vt 0.392852 0.832024
vt 0.378266 0.841770
vt 0.365861 0.854175
vt 0.356115 0.868761
vt 0.349402 0.884968
vt 0.345980 0.902173
vt 0.345980 0.919716
vt 0.349402 0.936921
vt 0.356115 0.953128
vt 0.365861 0.967714
vt 0.378266 0.980118
vt 0.392852 0.989865
vt 0.409059 0.996578
vt 0.426264 1.000000
vt 0.443807 1.000000
vt 0.461012 0.996578
vt 0.477219 0.989864
vt 0.491805 0.980118
vt 0.504209 0.967714
vt 0.513955 0.953128
vt 0.379254 0.666726
vt 0.382587 0.670788
vt 0.395847 0.661928
vt 0.393370 0.657294
vt 0.497081 0.785282
vt 0.501143 0.788615
vt 0.410581 0.655825
vt 0.409055 0.650797
vt 0.485804 0.796558
vt 0.489138 0.800620
vt 0.426222 0.652713
vt 0.425707 0.647484
vt 0.472544 0.805419
vt 0.475021 0.810052
vt 0.442169 0.652713
vt 0.442684 0.647484
vt 0.457811 0.811521
vt 0.459336 0.816549
vt 0.457811 0.655825
vt 0.459336 0.650797
vt 0.442169 0.814633
vt 0.442684 0.819862
vt 0.472544 0.661928
vt 0.475021 0.657294
vt 0.426222 0.814633
vt 0.425707 0.819862
vt 0.485804 0.670788
vt 0.489138 0.666726
vt 0.410580 0.811521
vt 0.409055 0.816549
vt 0.497081 0.682064
vt 0.501143 0.678731
vt 0.395847 0.805418
vt 0.393370 0.810052
vt 0.505941 0.695324
vt 0.510575 0.692847
vt 0.382587 0.796558
vt 0.379254 0.800620
vt 0.512044 0.710058
vt 0.517072 0.708533
vt 0.348007 0.742162
vt 0.353236 0.741647
vt 0.371310 0.785282
vt 0.367249 0.788615
vt 0.515155 0.725699
vt 0.520384 0.725184
vt 0.362450 0.695324
vt 0.357816 0.692847
vt 0.362450 0.772022
vt 0.357816 0.774498
vt 0.515155 0.741647
vt 0.520384 0.742162
vt 0.371310 0.682064
vt 0.367249 0.678731
vt 0.356347 0.757288
vt 0.351319 0.758813
vt 0.345980 0.514043
vt 0.389784 0.514043
vt 0.389784 0.470239
vt 0.349512 0.470239
vt 0.345980 0.473771
vt 0.652612 0.601653
vt 0.652612 0.645457
vt 0.696416 0.601653
vt 0.346158 0.428414
vt 0.385332 0.469301
vt 0.387754 0.468409
vt 0.387672 0.429329
vt 0.429186 0.430244
vt 0.429268 0.469324
vt 0.470782 0.470239
vt 0.470700 0.431159
vt 0.433589 0.514043
vt 0.477393 0.514043
vt 0.477393 0.470239
vt 0.433589 0.470239
vt 0.521198 0.601653
vt 0.565003 0.645457
vt 0.565003 0.601653
vt 0.608807 0.601653
vt 0.608807 0.645457
vt 0.428925 0.306150
vt 0.429007 0.345230
vt 0.470521 0.346145
vt 0.470439 0.307065
vt 0.607306 0.914949
vt 0.607306 0.958754
vt 0.648914 0.958754
vt 0.648914 0.914949
vt 0.607306 0.871144
vt 0.648914 0.871144
vt 0.553761 0.301710
vt 0.553840 0.341888
vt 0.595370 0.342078
vt 0.595291 0.301901
vt 0.678040 0.401049
vt 0.678190 0.434850
vt 0.719324 0.439164
vt 0.719174 0.405364
vt 0.677889 0.367249
vt 0.719024 0.371564
vt 0.652612 0.470239
vt 0.608807 0.470239
vt 0.608807 0.514043
vt 0.652612 0.514043
vt 0.608807 0.557848
vt 0.652612 0.557848
vt 0.565003 0.470239
vt 0.565003 0.514043
vt 0.565003 0.557848
vt 0.634211 0.330856
vt 0.595620 0.358619
vt 0.636755 0.362934
vt 0.636616 0.331860
vt 0.521198 0.514043
vt 0.521198 0.557848
vt 0.389784 0.645457
vt 0.433589 0.645457
vt 0.433589 0.601653
vt 0.389784 0.601653
vt 0.433589 0.557848
vt 0.389784 0.557848
vt 0.477393 0.645457
vt 0.477393 0.601653
vt 0.477393 0.557848
vt 0.607306 0.999026
vt 0.648914 0.999026
vt 0.521198 0.601653
vt 0.521198 0.557848
vt 0.521198 0.514043
vt 0.554012 0.429291
vt 0.554090 0.469468
vt 0.595620 0.469659
vt 0.595541 0.429482
vt 0.345980 0.601653
vt 0.345980 0.557848
vt 0.696416 0.514043
vt 0.696416 0.557848
vt 0.607306 0.830872
vt 0.648914 0.830872
vt 0.553926 0.385589
vt 0.595455 0.385780
vt 0.677751 0.336174
vt 0.718886 0.340489
vt 0.429096 0.387737
vt 0.470610 0.388652
vt 0.345980 0.343399
vt 0.346069 0.385907
vt 0.387583 0.386822
vt 0.387494 0.344314
vt 0.470782 0.341506
vt 0.470867 0.385208
vt 0.512397 0.385399
vt 0.512311 0.341697
vt 0.470953 0.428910
vt 0.512482 0.429100
vt 0.512561 0.469278
vt 0.349512 0.645457
vt 0.345980 0.641925
vt 0.595770 0.392420
vt 0.636905 0.396735
vt 0.595920 0.426220
vt 0.637055 0.430535
vt 0.637193 0.461609
vt 0.678328 0.465924
vt 0.719463 0.470239
vt 0.524091 0.871144
vt 0.524091 0.914949
vt 0.565699 0.914949
vt 0.565699 0.871144
vt 0.524091 0.958754
vt 0.565699 0.958754
vt 0.387411 0.305235
vt 0.563269 1.000000
vt 0.565699 0.999026
vt 0.512232 0.301519
vt 0.634794 0.462109
vt 0.565699 0.830872
vt 0.510138 0.470239
vt 0.517666 0.645457
vt 0.521198 0.641925
vt 0.636616 0.331860
vt 0.521198 0.473771
vt 0.517666 0.470239
vt 0.509805 0.300536
vt 0.563269 0.829898
vt 0.384985 0.304236
vt 0.554091 0.297944
vt 0.553761 0.301710
vt 0.595291 0.301901
vt 0.595620 0.298135
vt 0.718886 0.340489
vt 0.719463 0.335546
vt 0.678328 0.331231
vt 0.677751 0.336174
vt 0.470439 0.307065
vt 0.470782 0.302788
vt 0.429268 0.301872
vt 0.428925 0.306150
vt 0.648914 0.830872
vt 0.649171 0.827340
vt 0.607564 0.827340
vt 0.607306 0.830872
vt 0.221873 0.500155
vt 0.209738 0.500328
vt 0.209738 0.998615
vt 0.221873 0.998441
vt 0.234126 0.500213
vt 0.234126 0.998500
vt 0.246025 0.500501
vt 0.246025 0.998788
vt 0.257113 0.501008
vt 0.257113 0.999294
vt 0.266964 0.501713
vt 0.266964 1.000000
vt 0.335161 0.500361
vt 0.345980 0.499939
vt 0.345980 0.000648
vt 0.335161 0.001069
vt 0.323422 0.500621
vt 0.323422 0.001329
vt 0.311213 0.500708
vt 0.311213 0.001416
vt 0.299005 0.500621
vt 0.299005 0.001329
vt 0.287266 0.500361
vt 0.287266 0.001069
vt 0.276447 0.499939
vt 0.276447 0.000648
vt 0.266964 0.499372
vt 0.266964 0.000080
vt 0.094293 0.500415
vt 0.103218 0.499615
vt 0.103218 0.001258
vt 0.094293 0.002058
vt 0.083898 0.501034
vt 0.083898 0.002677
vt 0.072431 0.501449
vt 0.072431 0.003091
vt 0.060334 0.501642
vt 0.060334 0.003285
vt 0.048072 0.501608
vt 0.048072 0.003251
vt 0.036116 0.501347
vt 0.036116 0.002990
vt 0.024925 0.500870
vt 0.024925 0.002512
vt 0.014929 0.500194
vt 0.014929 0.001836
vt 0.006513 0.499346
vt 0.006513 0.000988
vt 0.000000 0.498358
vt 0.000000 0.000000
vt 0.180943 0.500657
vt 0.187663 0.499315
vt 0.187663 0.002990
vt 0.180943 0.004333
vt 0.172350 0.501802
vt 0.172350 0.005478
vt 0.162214 0.502705
vt 0.162214 0.006381
vt 0.150925 0.503333
vt 0.150925 0.007009
vt 0.138916 0.503661
vt 0.138916 0.007337
vt 0.126649 0.503676
vt 0.126649 0.007352
vt 0.114595 0.503378
vt 0.114595 0.007054
vt 0.103218 0.502778
vt 0.103218 0.006453
vt 0.198187 0.500727
vt 0.187663 0.501335
vt 0.187663 0.999622
vt 0.198187 0.999013
vt 0.346655 0.199964
vt 0.406205 0.199536
vt 0.406854 0.187204
vt 0.347304 0.187631
vt 0.697010 0.543703
vt 0.756446 0.542979
vt 0.757166 0.529975
vt 0.697730 0.530699
vt 0.209738 0.002042
vt 0.198187 0.002440
vt 0.187663 0.003049
vt 0.103218 0.999102
vt 0.114595 0.999702
vt 0.126649 1.000000
vt 0.138916 0.999985
vt 0.150925 0.999657
vt 0.162214 0.999030
vt 0.172350 0.998126
vt 0.180943 0.996981
vt 0.187663 0.995639
vt 0.000000 0.996715
vt 0.006513 0.997703
vt 0.014929 0.998551
vt 0.024925 0.999227
vt 0.036116 0.999705
vt 0.048072 0.999966
vt 0.060334 1.000000
vt 0.072431 0.999806
vt 0.083898 0.999392
vt 0.094293 0.998773
vt 0.103218 0.997973
vt 0.266964 0.998664
vt 0.276447 0.999231
vt 0.287266 0.999653
vt 0.299005 0.999912
vt 0.311213 1.000000
vt 0.323422 0.999912
vt 0.335161 0.999653
vt 0.345980 0.999231
vt 0.266964 0.003427
vt 0.257113 0.002721
vt 0.246025 0.002215
vt 0.234126 0.001927
vt 0.221873 0.001868
vt 0.533858 0.251496
vt 0.474307 0.251924
vt 0.474057 0.268713
vt 0.533607 0.268285
vt 0.595620 0.236932
vt 0.655051 0.236648
vt 0.655352 0.221178
vt 0.595921 0.221462
vt 0.720311 0.324509
vt 0.779459 0.326934
vt 0.778825 0.313720
vt 0.719677 0.311295
vt 0.697010 0.605466
vt 0.756446 0.604741
vt 0.756002 0.589020
vt 0.696566 0.589744
vt 0.346655 0.276294
vt 0.406205 0.275866
vt 0.405758 0.260608
vt 0.346208 0.261036
vt 0.720311 0.265047
vt 0.779459 0.267473
vt 0.780488 0.251833
vt 0.721340 0.249407
vt 0.758135 0.519021
vt 0.698699 0.519745
vt 0.346208 0.214032
vt 0.405758 0.213604
vt 0.595620 0.252860
vt 0.655051 0.252577
vt 0.721340 0.335731
vt 0.780488 0.338157
vt 0.697730 0.620364
vt 0.757166 0.619640
vt 0.347304 0.290354
vt 0.406854 0.289927
vt 0.719677 0.280982
vt 0.778825 0.283407
vt 0.696566 0.558258
vt 0.756002 0.557534
vt 0.345980 0.229295
vt 0.405530 0.228867
vt 0.595921 0.268635
vt 0.655352 0.268351
vt 0.722726 0.344531
vt 0.781874 0.346956
vt 0.698699 0.633868
vt 0.758135 0.633144
vt 0.596510 0.207044
vt 0.655942 0.206761
vt 0.656798 0.193950
vt 0.597366 0.194234
vt 0.719463 0.296598
vt 0.778611 0.299023
vt 0.696416 0.573804
vt 0.755853 0.573080
vt 0.345980 0.245166
vt 0.405530 0.244739
vt 0.597366 0.297326
vt 0.656798 0.297043
vt 0.655942 0.283365
vt 0.596510 0.283649
vt 0.747961 0.772976
vt 0.807392 0.772692
vt 0.807392 0.755171
vt 0.747961 0.755455
vt 0.699880 0.645457
vt 0.759317 0.644733
vt 0.683304 0.709959
vt 0.742740 0.709235
vt 0.743532 0.694931
vt 0.684096 0.695655
vt 0.781874 0.237087
vt 0.722726 0.234661
vt 0.759317 0.510539
vt 0.699880 0.511263
vt 0.719698 0.397909
vt 0.778846 0.400335
vt 0.779544 0.382807
vt 0.720395 0.380381
vt 0.532402 0.184331
vt 0.472851 0.184758
vt 0.473565 0.200225
vt 0.533116 0.199797
vt 0.684096 0.794287
vt 0.743532 0.793563
vt 0.742740 0.777174
vt 0.683304 0.777898
vt 0.721528 0.458133
vt 0.780676 0.460559
vt 0.779544 0.448214
vt 0.720396 0.445789
vt 0.473565 0.284188
vt 0.533116 0.283760
vt 0.682816 0.725970
vt 0.742252 0.725245
vt 0.780676 0.365602
vt 0.721528 0.363177
vt 0.474057 0.217009
vt 0.533607 0.216581
vt 0.742252 0.759880
vt 0.682816 0.760605
vt 0.778846 0.433679
vt 0.719698 0.431253
vt 0.748291 0.790328
vt 0.807723 0.790044
vt 0.472851 0.297754
vt 0.532402 0.297326
vt 0.744599 0.682882
vt 0.685162 0.683606
vt 0.782200 0.349382
vt 0.723052 0.346956
vt 0.474307 0.234465
vt 0.533858 0.234038
vt 0.742087 0.742346
vt 0.682651 0.743070
vt 0.778611 0.417512
vt 0.719463 0.415087
vt 0.748291 0.738438
vt 0.807723 0.738154
vt 0.808372 0.722295
vt 0.748940 0.722579
vt 0.686462 0.821889
vt 0.745898 0.821165
vt 0.744599 0.808416
vt 0.685162 0.809141
vt 0.745898 0.673551
vt 0.686462 0.674276
vt 0.749882 0.821889
vt 0.809313 0.821605
vt 0.808372 0.806560
vt 0.748940 0.806844
vt 0.809313 0.708203
vt 0.749882 0.708487
vt 0.723052 0.467813
vt 0.782200 0.470239
vt 0.696416 0.642899
vt 0.696416 0.601653
vt 0.652612 0.645457
vt 0.693858 0.645457
vt 0.385233 0.301138
vt 0.350225 0.290354
vt 0.345980 0.343399
vt 0.384985 0.304236
vt 0.595620 0.358619
vt 0.634211 0.330856
vt 0.634629 0.327276
vt 0.602772 0.297326
vt 0.509805 0.300536
vt 0.512232 0.301519
vt 0.512561 0.297754
vt 0.510043 0.297809
vt 0.636616 0.331860
vt 0.637193 0.326917
vt 0.563269 0.829898
vt 0.565699 0.830872
vt 0.565956 0.827340
vt 0.563455 0.827340
vt 0.387411 0.305235
vt 0.387754 0.300957
vt 0.652612 0.470239
vt 0.696416 0.514043
vt 0.696416 0.472797
vt 0.693858 0.470239
vt 0.653605 0.804002
vt 0.652313 0.802427
vt 0.639522 0.810974
vt 0.640482 0.812770
vt 0.655352 0.268351
vt 0.657448 0.268136
vt 0.657150 0.252525
vt 0.655051 0.252577
vt 0.664764 0.792842
vt 0.663190 0.791550
vt 0.655942 0.283365
vt 0.658032 0.282995
vt 0.673533 0.779720
vt 0.671736 0.778760
vt 0.656798 0.297043
vt 0.658879 0.296530
vt 0.679572 0.765139
vt 0.677623 0.764548
vt 0.780488 0.251833
vt 0.782593 0.252156
vt 0.783964 0.237564
vt 0.781874 0.237087
vt 0.682651 0.749660
vt 0.680624 0.749460
vt 0.779459 0.267473
vt 0.781574 0.267635
vt 0.682651 0.733878
vt 0.680624 0.734078
vt 0.778825 0.283407
vt 0.780947 0.283404
vt 0.679572 0.718399
vt 0.677623 0.718990
vt 0.778611 0.299023
vt 0.780735 0.298858
vt 0.673533 0.703818
vt 0.671736 0.704778
vt 0.778825 0.313720
vt 0.780947 0.313402
vt 0.664764 0.690695
vt 0.663190 0.691988
vt 0.779459 0.326934
vt 0.781574 0.326479
vt 0.653605 0.679536
vt 0.652312 0.681110
vt 0.780488 0.338157
vt 0.782593 0.337585
vt 0.640482 0.670768
vt 0.639522 0.672564
vt 0.781874 0.346956
vt 0.783964 0.346294
vt 0.625901 0.664728
vt 0.625310 0.666677
vt 0.758135 0.519021
vt 0.760211 0.519664
vt 0.761379 0.511270
vt 0.759317 0.510539
vt 0.610422 0.661649
vt 0.610223 0.663676
vt 0.757166 0.529975
vt 0.759251 0.530504
vt 0.594640 0.661649
vt 0.594840 0.663676
vt 0.756446 0.542979
vt 0.758538 0.543373
vt 0.579161 0.664728
vt 0.579753 0.666677
vt 0.756002 0.557534
vt 0.758100 0.557777
vt 0.564580 0.670768
vt 0.565541 0.672564
vt 0.755853 0.573080
vt 0.757951 0.573162
vt 0.551458 0.679536
vt 0.552750 0.681111
vt 0.756002 0.589020
vt 0.758100 0.588936
vt 0.540298 0.690696
vt 0.541873 0.691988
vt 0.756446 0.604741
vt 0.758538 0.604495
vt 0.531530 0.703818
vt 0.533327 0.704778
vt 0.757166 0.619640
vt 0.759251 0.619239
vt 0.525490 0.718399
vt 0.527440 0.718990
vt 0.758135 0.633144
vt 0.760211 0.632602
vt 0.522411 0.733878
vt 0.524439 0.734078
vt 0.759317 0.644733
vt 0.761379 0.644071
vt 0.522411 0.749660
vt 0.524439 0.749460
vt 0.406205 0.199536
vt 0.408282 0.199990
vt 0.408924 0.187785
vt 0.406854 0.187204
vt 0.525490 0.765139
vt 0.527440 0.764548
vt 0.405758 0.213604
vt 0.407839 0.213912
vt 0.531530 0.779720
vt 0.533327 0.778760
vt 0.405530 0.228867
vt 0.407614 0.229017
vt 0.540298 0.792842
vt 0.541873 0.791550
vt 0.405530 0.244739
vt 0.407614 0.244724
vt 0.551458 0.804002
vt 0.552750 0.802427
vt 0.405758 0.260608
vt 0.407839 0.260429
vt 0.564580 0.812770
vt 0.565541 0.810974
vt 0.406205 0.275866
vt 0.408282 0.275529
vt 0.579161 0.818810
vt 0.579753 0.816860
vt 0.406854 0.289927
vt 0.408924 0.289443
vt 0.594640 0.821889
vt 0.594840 0.819862
vt 0.655942 0.206761
vt 0.658032 0.207185
vt 0.658879 0.194507
vt 0.656798 0.193950
vt 0.610422 0.821889
vt 0.610223 0.819862
vt 0.655352 0.221178
vt 0.657448 0.221453
vt 0.625902 0.818810
vt 0.625310 0.816860
vt 0.655051 0.236648
vt 0.657150 0.236762
vt 0.345980 0.724984
vt 0.348007 0.725184
vt 0.351319 0.708533
vt 0.349370 0.707941
vt 0.807392 0.772692
vt 0.809491 0.772641
vt 0.809491 0.755285
vt 0.807392 0.755171
vt 0.357816 0.692847
vt 0.356020 0.691887
vt 0.809819 0.738429
vt 0.807723 0.738154
vt 0.367249 0.678731
vt 0.365674 0.677439
vt 0.810461 0.722719
vt 0.808372 0.722295
vt 0.379254 0.666726
vt 0.377961 0.665151
vt 0.811394 0.708760
vt 0.809313 0.708203
vt 0.393370 0.657294
vt 0.392410 0.655497
vt 0.472851 0.184758
vt 0.470782 0.185242
vt 0.471489 0.200563
vt 0.473565 0.200225
vt 0.409055 0.650797
vt 0.408464 0.648847
vt 0.471976 0.217188
vt 0.474057 0.217009
vt 0.425707 0.647484
vt 0.425507 0.645457
vt 0.472224 0.234480
vt 0.474307 0.234465
vt 0.442684 0.647484
vt 0.442884 0.645457
vt 0.472224 0.251774
vt 0.474307 0.251924
vt 0.459336 0.650797
vt 0.459927 0.648847
vt 0.471976 0.268405
vt 0.474057 0.268713
vt 0.475021 0.657294
vt 0.475981 0.655497
vt 0.471489 0.283734
vt 0.473565 0.284188
vt 0.489138 0.666726
vt 0.490430 0.665151
vt 0.470782 0.297172
vt 0.472851 0.297754
vt 0.501143 0.678731
vt 0.502717 0.677439
vt 0.745898 0.821165
vt 0.747961 0.820503
vt 0.746674 0.807875
vt 0.744599 0.808416
vt 0.510575 0.692847
vt 0.512371 0.691887
vt 0.745618 0.793161
vt 0.743532 0.793563
vt 0.517072 0.708533
vt 0.519021 0.707941
vt 0.744833 0.776927
vt 0.742740 0.777174
vt 0.520384 0.725184
vt 0.522411 0.724985
vt 0.744350 0.759797
vt 0.742252 0.759880
vt 0.520384 0.742162
vt 0.522411 0.742362
vt 0.744186 0.742428
vt 0.742087 0.742346
vt 0.517072 0.758813
vt 0.519021 0.759405
vt 0.744349 0.725488
vt 0.742252 0.725245
vt 0.510575 0.774499
vt 0.512371 0.775459
vt 0.744833 0.709629
vt 0.742740 0.709235
vt 0.501143 0.788615
vt 0.502717 0.789907
vt 0.745618 0.695459
vt 0.743532 0.694931
vt 0.489138 0.800620
vt 0.490430 0.802195
vt 0.746674 0.683524
vt 0.744599 0.682882
vt 0.475021 0.810052
vt 0.475981 0.811849
vt 0.747961 0.674282
vt 0.745898 0.673551
vt 0.459336 0.816549
vt 0.459927 0.818499
vt 0.782200 0.470239
vt 0.784290 0.469576
vt 0.782781 0.459987
vt 0.780676 0.460559
vt 0.442684 0.819862
vt 0.442884 0.821889
vt 0.781659 0.447759
vt 0.779544 0.448214
vt 0.425707 0.819862
vt 0.425507 0.821889
vt 0.780968 0.433361
vt 0.778846 0.433679
vt 0.409055 0.816549
vt 0.408464 0.818499
vt 0.780735 0.417347
vt 0.778611 0.417512
vt 0.393370 0.810052
vt 0.392410 0.811849
vt 0.780968 0.400331
vt 0.778846 0.400335
vt 0.379254 0.800620
vt 0.377961 0.802195
vt 0.781659 0.382969
vt 0.779544 0.382807
vt 0.367249 0.788615
vt 0.365674 0.789907
vt 0.782781 0.365926
vt 0.780676 0.365602
vt 0.357816 0.774498
vt 0.356020 0.775459
vt 0.784290 0.349859
vt 0.782200 0.349382
vt 0.351319 0.758813
vt 0.349370 0.759404
vt 0.809313 0.821605
vt 0.811394 0.821093
vt 0.810462 0.806190
vt 0.808372 0.806560
vt 0.348007 0.742162
vt 0.345980 0.742361
vt 0.809819 0.789830
vt 0.807723 0.790044
vn 0.0000 1.0000 0.0000
vn 0.0000 -1.0000 -0.0000
vn 0.0000 -0.0000 -1.0000
vn 1.0000 0.0000 0.0000
vn 0.0000 0.0000 1.0000
vn -1.0000 -0.0000 0.0000
vn -0.7071 0.0000 0.7071
vn -0.7071 -0.0000 -0.7071
vn 0.7071 -0.0000 -0.7071
vn 0.7071 0.0000 0.7071
vn 0.1951 -0.0000 -0.9808
vn 0.3827 -0.0000 -0.9239
vn 0.5556 -0.0000 -0.8315
vn 0.8315 0.0000 -0.5556
vn 0.9239 -0.0000 -0.3827
vn 0.9808 -0.0000 -0.1951
vn 0.9808 0.0000 0.1951
vn 0.9239 0.0000 0.3827
vn 0.8315 0.0000 0.5556
vn 0.5556 0.0000 0.8315
vn 0.3827 0.0000 0.9239
vn 0.1951 0.0000 0.9808
vn -0.1951 0.0000 0.9808
vn -0.3827 0.0000 0.9239
vn -0.5556 0.0000 0.8315
vn -0.8315 0.0000 0.5556
vn -0.9239 0.0000 0.3827
vn -0.9808 0.0000 0.1951
vn -0.9808 -0.0000 -0.1951
vn -0.9239 -0.0000 -0.3827
vn -0.8315 -0.0000 -0.5556
vn -0.5556 -0.0000 -0.8315
vn -0.3827 -0.0000 -0.9239
vn -0.1951 -0.0000 -0.9808
vn -0.9239 0.0001 0.3827
vn 0.6908 -0.2137 0.6908
vn 0.5677 -0.5961 0.5677
vn 0.6908 -0.2139 -0.6907
vn 0.5677 -0.5961 -0.5677
vn 0.6907 -0.2138 -0.6908
vn -0.5677 -0.5961 -0.5677
vn -0.6907 -0.2138 -0.6908
vn -0.6908 -0.2138 -0.6908
vn -0.6908 -0.2138 0.6908
vn -0.7016 0.1246 0.7016
vn -0.6908 -0.2137 0.6908
vn -0.7016 0.1246 -0.7016
vn 0.6907 -0.2137 0.6908
vn 0.7016 0.1246 0.7016
vn 0.7016 0.1246 -0.7016
vn -0.5677 -0.5961 0.5677
vn 0.0000 0.6966 -0.7175
vn 0.0000 0.9245 -0.3811
vn 0.0743 0.9245 -0.3738
vn 0.1400 0.6966 -0.7037
vn -0.0000 0.3842 -0.9232
vn 0.1400 0.6965 -0.7037
vn 0.1801 0.3842 -0.9055
vn -0.1400 0.6966 -0.7037
vn -0.0743 0.9246 -0.3736
vn -0.1801 0.3842 -0.9055
vn -0.1400 0.6965 -0.7037
vn -0.2746 0.6966 -0.6629
vn -0.1457 0.9247 -0.3517
vn -0.3533 0.3843 -0.8529
vn -0.3986 0.6966 -0.5966
vn -0.2117 0.9246 -0.3168
vn -0.5129 0.3842 -0.7676
vn -0.5073 0.6966 -0.5074
vn -0.2691 0.9247 -0.2692
vn -0.6528 0.3842 -0.6528
vn -0.5073 0.6966 -0.5073
vn -0.5966 0.6966 -0.3986
vn -0.3165 0.9247 -0.2115
vn -0.7676 0.3844 -0.5129
vn -0.5966 0.6965 -0.3986
vn -0.6629 0.6966 -0.2746
vn -0.3517 0.9247 -0.1457
vn -0.8529 0.3843 -0.3533
vn -0.7037 0.6966 -0.1400
vn -0.3739 0.9245 -0.0744
vn -0.9055 0.3842 -0.1801
vn -0.7175 0.6965 0.0000
vn -0.3811 0.9245 0.0000
vn -0.9232 0.3842 0.0000
vn -0.7175 0.6966 -0.0000
vn -0.7037 0.6966 0.1400
vn -0.3736 0.9246 0.0743
vn -0.9055 0.3842 0.1801
vn -0.6629 0.6966 0.2746
vn -0.3521 0.9245 0.1458
vn -0.8529 0.3842 0.3533
vn -0.5966 0.6966 0.3986
vn -0.3165 0.9247 0.2115
vn -0.7676 0.3842 0.5129
vn -0.8530 0.3843 0.3533
vn -0.5073 0.6966 0.5074
vn -0.2695 0.9245 0.2695
vn -0.6528 0.3843 0.6528
vn -0.5074 0.6966 0.5073
vn -0.3986 0.6966 0.5966
vn -0.2116 0.9246 0.3168
vn -0.5129 0.3842 0.7676
vn -0.2746 0.6966 0.6629
vn -0.1458 0.9246 0.3520
vn -0.3533 0.3842 0.8530
vn -0.1400 0.6966 0.7037
vn -0.0743 0.9247 0.3733
vn -0.1801 0.3843 0.9055
vn -0.1400 0.6965 0.7037
vn -0.0000 0.6966 0.7175
vn -0.0000 0.9247 0.3806
vn -0.0000 0.3842 0.9232
vn 0.1400 0.6966 0.7037
vn 0.0744 0.9245 0.3738
vn 0.1801 0.3843 0.9055
vn 0.1400 0.6965 0.7037
vn 0.2746 0.6966 0.6629
vn 0.1458 0.9246 0.3520
vn 0.3533 0.3842 0.8530
vn 0.3986 0.6966 0.5966
vn 0.2115 0.9247 0.3165
vn 0.5129 0.3842 0.7676
vn 0.5073 0.6965 0.5074
vn 0.2692 0.9247 0.2692
vn 0.6528 0.3843 0.6528
vn 0.5074 0.6966 0.5073
vn 0.5966 0.6966 0.3986
vn 0.3169 0.9245 0.2117
vn 0.7676 0.3842 0.5129
vn 0.6629 0.6966 0.2746
vn 0.3520 0.9246 0.1458
vn 0.8529 0.3843 0.3533
vn 0.7037 0.6966 0.1400
vn 0.3733 0.9247 0.0743
vn 0.9055 0.3842 0.1801
vn 0.7037 0.6965 0.1400
vn 0.7175 0.6965 -0.0000
vn 0.3807 0.9247 0.0000
vn 0.9232 0.3842 -0.0000
vn 0.7175 0.6966 0.0000
vn 0.7037 0.6966 -0.1400
vn 0.3733 0.9247 -0.0743
vn 0.9055 0.3842 -0.1801
vn 0.7037 0.6965 -0.1400
vn 0.6629 0.6966 -0.2746
vn 0.3520 0.9246 -0.1458
vn 0.8529 0.3843 -0.3533
vn 0.5966 0.6966 -0.3986
vn 0.3169 0.9245 -0.2117
vn 0.7677 0.3843 -0.5129
vn 0.5074 0.6966 -0.5073
vn 0.2691 0.9247 -0.2691
vn 0.6528 0.3842 -0.6528
vn 0.5073 0.6966 -0.5073
vn 0.7676 0.3842 -0.5129
vn 0.3986 0.6965 -0.5966
vn 0.2117 0.9245 -0.3169
vn 0.5129 0.3842 -0.7677
vn 0.3986 0.6966 -0.5966
vn 0.2746 0.6966 -0.6628
vn 0.1457 0.9247 -0.3517
vn 0.3533 0.3842 -0.8530
vn 0.2746 0.6966 -0.6629
vn 0.0743 0.9247 -0.3733
vn 0.1458 0.9245 -0.3521
vn 0.3533 0.3843 -0.8529
vn 0.2117 0.9246 -0.3168
vn 0.5129 0.3842 -0.7676
vn 0.2694 0.9246 -0.2694
vn 0.3165 0.9247 -0.2115
vn 0.7676 0.3843 -0.5129
vn 0.3517 0.9247 -0.1457
vn 0.9055 0.3843 -0.1801
vn 0.3811 0.9245 -0.0000
vn 0.3738 0.9245 0.0743
vn 0.9055 0.3843 0.1801
vn 0.3170 0.9245 0.2118
vn 0.5966 0.6965 0.3986
vn 0.2695 0.9245 0.2695
vn 0.5073 0.6966 0.5073
vn 0.2117 0.9246 0.3168
vn 0.3986 0.6965 0.5966
vn 0.0743 0.9246 0.3736
vn 0.1801 0.3842 0.9055
vn -0.0000 0.9247 0.3807
vn 0.0000 0.6965 0.7175
vn -0.0743 0.9246 0.3736
vn -0.1801 0.3842 0.9055
vn -0.1457 0.9247 0.3517
vn -0.2116 0.9246 0.3167
vn -0.2692 0.9247 0.2692
vn -0.3170 0.9245 0.2118
vn -0.5966 0.6965 0.3986
vn -0.3520 0.9246 0.1458
vn -0.6629 0.6966 0.2745
vn -0.8529 0.3843 0.3533
vn -0.7037 0.6965 0.1400
vn -0.3807 0.9247 -0.0000
vn -0.3738 0.9245 -0.0744
vn -0.3520 0.9246 -0.1458
vn -0.8530 0.3842 -0.3533
vn -0.3169 0.9245 -0.2117
vn -0.7677 0.3842 -0.5129
vn -0.2695 0.9245 -0.2695
vn -0.5074 0.6966 -0.5073
vn -0.6528 0.3843 -0.6528
vn -0.2115 0.9247 -0.3165
vn -0.3986 0.6965 -0.5966
vn -0.1459 0.9245 -0.3522
vn -0.0743 0.9247 -0.3733
vn -0.0000 0.9247 -0.3806
usemtl Column1
s off
f 69/1/1 70/2/1 71/3/1
f 69/1/1 71/3/1 72/4/1
f 69/1/1 72/4/1 73/5/1
f 69/1/1 73/5/1 74/6/1
f 69/1/1 74/6/1 75/7/1
f 69/1/1 75/7/1 76/8/1
f 69/1/1 76/8/1 77/9/1
f 69/1/1 77/9/1 78/10/1
f 69/1/1 78/10/1 79/11/1
f 69/1/1 79/11/1 80/12/1
f 69/1/1 80/12/1 81/13/1
f 69/1/1 81/13/1 82/14/1
f 69/1/1 82/14/1 83/15/1
f 69/1/1 83/15/1 84/16/1
f 69/1/1 84/16/1 85/17/1
f 69/1/1 85/17/1 86/18/1
f 69/1/1 86/18/1 87/19/1
f 69/1/1 87/19/1 88/20/1
f 69/1/1 88/20/1 89/21/1
f 69/1/1 89/21/1 90/22/1
f 69/1/1 90/22/1 91/23/1
f 69/1/1 91/23/1 92/24/1
f 69/1/1 92/24/1 93/25/1
f 69/1/1 93/25/1 94/26/1
f 69/1/1 94/26/1 95/27/1
f 69/1/1 95/27/1 96/28/1
f 69/1/1 96/28/1 97/29/1
f 69/1/1 97/29/1 98/30/1
f 69/1/1 98/30/1 99/31/1
f 99/31/1 100/32/1 69/1/1
f 215/33/1 216/34/1 217/35/1
f 217/35/1 218/36/1 215/33/1
f 221/37/1 222/38/1 223/39/1
f 223/39/1 224/40/1 221/37/1
f 229/41/1 230/42/1 231/43/1
f 231/43/1 232/44/1 229/41/1
f 233/45/1 234/46/1 216/34/1
f 216/34/1 215/33/1 233/45/1
f 232/44/1 231/43/1 235/47/1
f 235/47/1 236/48/1 232/44/1
f 218/36/1 217/35/1 237/49/1
f 237/49/1 238/50/1 218/36/1
f 236/48/1 235/47/1 239/51/1
f 239/51/1 240/52/1 236/48/1
f 238/50/1 237/49/1 241/53/1
f 241/53/1 242/54/1 238/50/1
f 240/52/1 239/51/1 243/55/1
f 243/55/1 244/56/1 240/52/1
f 242/54/1 241/53/1 245/57/1
f 245/57/1 246/58/1 242/54/1
f 244/56/1 243/55/1 247/59/1
f 247/59/1 248/60/1 244/56/1
f 246/58/1 245/57/1 249/61/1
f 249/61/1 250/62/1 246/58/1
f 248/60/1 247/59/1 251/63/1
f 251/63/1 252/64/1 248/60/1
f 250/62/1 249/61/1 253/65/1
f 253/65/1 254/66/1 250/62/1
f 252/64/1 251/63/1 255/67/1
f 255/67/1 256/68/1 252/64/1
f 254/66/1 253/65/1 257/69/1
f 257/69/1 258/70/1 254/66/1
f 256/68/1 255/67/1 259/71/1
f 259/71/1 260/72/1 256/68/1
f 261/73/1 262/74/1 263/75/1
f 263/75/1 264/76/1 261/73/1
f 224/40/1 223/39/1 262/74/1
f 262/74/1 261/73/1 224/40/1
f 258/70/1 257/69/1 265/77/1
f 265/77/1 266/78/1 258/70/1
f 260/72/1 259/71/1 267/79/1
f 267/79/1 268/80/1 260/72/1
f 264/76/1 263/75/1 269/81/1
f 269/81/1 270/82/1 264/76/1
f 266/78/1 265/77/1 271/83/1
f 271/83/1 272/84/1 266/78/1
f 268/80/1 267/79/1 273/85/1
f 273/85/1 274/86/1 268/80/1
f 270/82/1 269/81/1 275/87/1
f 275/87/1 276/88/1 270/82/1
f 274/86/1 273/85/1 279/89/1
f 279/89/1 280/90/1 274/86/1
f 276/88/1 275/87/1 281/91/1
f 281/91/1 282/92/1 276/88/1
f 272/84/1 271/83/1 222/38/1
f 222/38/1 221/37/1 272/84/1
f 280/90/1 279/89/1 283/93/1
f 283/93/1 284/94/1 280/90/1
f 282/92/1 281/91/1 285/95/1
f 285/95/1 286/96/1 282/92/1
f 284/94/1 283/93/1 234/46/1
f 234/46/1 233/45/1 284/94/1
f 286/96/1 285/95/1 230/42/1
f 230/42/1 229/41/1 286/96/1
f 289/97/1 290/98/1 291/99/1
f 291/99/1 292/100/1 289/97/1
f 325/101/1 326/102/1 327/103/1
f 327/103/1 328/104/1 325/101/1
f 357/105/2 358/106/2 359/107/2
f 357/105/2 359/107/2 360/108/2
f 357/105/2 360/108/2 361/109/2
f 357/105/2 361/109/2 362/110/2
f 357/105/2 362/110/2 363/111/2
f 357/105/2 363/111/2 364/112/2
f 357/105/2 364/112/2 365/113/2
f 357/105/2 365/113/2 366/114/2
f 357/105/2 366/114/2 367/115/2
f 357/105/2 367/115/2 368/116/2
f 357/105/2 368/116/2 369/117/2
f 357/105/2 369/117/2 370/118/2
f 357/105/2 370/118/2 371/119/2
f 357/105/2 371/119/2 372/120/2
f 357/105/2 372/120/2 373/121/2
f 357/105/2 373/121/2 374/122/2
f 357/105/2 374/122/2 375/123/2
f 357/105/2 375/123/2 376/124/2
f 357/105/2 376/124/2 377/125/2
f 357/105/2 377/125/2 378/126/2
f 357/105/2 378/126/2 379/127/2
f 357/105/2 379/127/2 380/128/2
f 357/105/2 380/128/2 381/129/2
f 357/105/2 381/129/2 382/130/2
f 357/105/2 382/130/2 383/131/2
f 357/105/2 383/131/2 384/132/2
f 357/105/2 384/132/2 385/133/2
f 357/105/2 385/133/2 386/134/2
f 357/105/2 386/134/2 387/135/2
f 387/135/2 388/136/2 357/105/2
f 389/137/1 390/138/1 391/139/1
f 391/139/1 392/140/1 389/137/1
f 292/100/1 291/99/1 393/141/1
f 393/141/1 394/142/1 292/100/1
f 392/140/1 391/139/1 395/143/1
f 395/143/1 396/144/1 392/140/1
f 394/142/1 393/141/1 397/145/1
f 397/145/1 398/146/1 394/142/1
f 396/144/1 395/143/1 399/147/1
f 399/147/1 400/148/1 396/144/1
f 398/146/1 397/145/1 401/149/1
f 401/149/1 402/150/1 398/146/1
f 400/148/1 399/147/1 403/151/1
f 403/151/1 404/152/1 400/148/1
f 402/150/1 401/149/1 405/153/1
f 405/153/1 406/154/1 402/150/1
f 404/152/1 403/151/1 407/155/1
f 407/155/1 408/156/1 404/152/1
f 406/154/1 405/153/1 409/157/1
f 409/157/1 410/158/1 406/154/1
f 408/156/1 407/155/1 411/159/1
f 411/159/1 412/160/1 408/156/1
f 410/158/1 409/157/1 413/161/1
f 413/161/1 414/162/1 410/158/1
f 412/160/1 411/159/1 415/163/1
f 415/163/1 416/164/1 412/160/1
f 414/162/1 413/161/1 417/165/1
f 417/165/1 418/166/1 414/162/1
f 416/164/1 415/163/1 419/167/1
f 419/167/1 420/168/1 416/164/1
f 418/166/1 417/165/1 421/169/1
f 421/169/1 422/170/1 418/166/1
f 420/168/1 419/167/1 423/171/1
f 423/171/1 424/172/1 420/168/1
f 422/170/1 421/169/1 425/173/1
f 425/173/1 426/174/1 422/170/1
f 424/172/1 423/171/1 427/175/1
f 427/175/1 428/176/1 424/172/1
f 429/177/1 430/178/1 326/102/1
f 326/102/1 325/101/1 429/177/1
f 426/174/1 425/173/1 431/179/1
f 431/179/1 432/180/1 426/174/1
f 428/176/1 427/175/1 433/181/1
f 433/181/1 434/182/1 428/176/1
f 328/104/1 327/103/1 435/183/1
f 435/183/1 436/184/1 328/104/1
f 432/180/1 431/179/1 437/185/1
f 437/185/1 438/186/1 432/180/1
f 434/182/1 433/181/1 439/187/1
f 439/187/1 440/188/1 434/182/1
f 436/184/1 435/183/1 441/189/1
f 441/189/1 442/190/1 436/184/1
f 438/186/1 437/185/1 443/191/1
f 443/191/1 444/192/1 438/186/1
f 440/188/1 439/187/1 290/98/1
f 290/98/1 289/97/1 440/188/1
f 442/190/1 441/189/1 390/138/1
f 390/138/1 389/137/1 442/190/1
f 444/192/1 443/191/1 430/178/1
f 430/178/1 429/177/1 444/192/1
f 453/193/1 454/194/1 455/195/1
f 453/193/1 455/195/1 456/196/1
f 456/196/1 457/197/1 453/193/1
f 458/198/2 459/199/2 460/200/2
f 461/201/3 462/202/3 463/203/3
f 463/203/3 464/204/3 461/201/3
f 465/205/3 466/206/3 467/207/3
f 467/207/3 468/208/3 465/205/3
f 469/209/1 470/210/1 471/211/1
f 471/211/1 472/212/1 469/209/1
f 454/194/1 469/209/1 472/212/1
f 472/212/1 455/195/1 454/194/1
f 473/213/2 474/214/2 475/215/2
f 476/216/2 475/215/2 474/214/2
f 474/214/2 477/217/2 476/216/2
f 458/198/2 476/216/2 477/217/2
f 477/217/2 459/199/2 458/198/2
f 478/218/3 479/219/3 480/220/3
f 480/220/3 481/221/3 478/218/3
f 482/222/4 483/223/4 484/224/4
f 484/224/4 485/225/4 482/222/4
f 486/226/4 482/222/4 485/225/4
f 485/225/4 487/227/4 486/226/4
f 488/228/5 489/229/5 490/230/5
f 490/230/5 491/231/5 488/228/5
f 492/232/6 493/233/6 494/234/6
f 494/234/6 495/235/6 492/232/6
f 496/236/6 492/232/6 495/235/6
f 495/235/6 497/237/6 496/236/6
f 498/238/2 499/239/2 500/240/2
f 500/240/2 501/241/2 498/238/2
f 501/241/2 500/240/2 502/242/2
f 502/242/2 503/243/2 501/241/2
f 503/243/2 502/242/2 476/216/2
f 476/216/2 458/198/2 503/243/2
f 499/239/2 504/244/2 505/245/2
f 505/245/2 500/240/2 499/239/2
f 500/240/2 505/245/2 506/246/2
f 506/246/2 502/242/2 500/240/2
f 502/242/2 506/246/2 475/215/2
f 475/215/2 476/216/2 502/242/2
f 507/247/6 508/248/6 509/249/6
f 509/249/6 510/250/6 507/247/6
f 505/245/2 511/251/2 512/252/2
f 512/252/2 506/246/2 505/245/2
f 506/246/2 512/252/2 473/213/2
f 473/213/2 475/215/2 506/246/2
f 513/253/1 514/254/1 515/255/1
f 515/255/1 516/256/1 513/253/1
f 516/256/1 515/255/1 517/257/1
f 517/257/1 518/258/1 516/256/1
f 518/258/1 517/257/1 469/209/1
f 469/209/1 454/194/1 518/258/1
f 514/254/1 519/259/1 520/260/1
f 520/260/1 515/255/1 514/254/1
f 515/255/1 520/260/1 521/261/1
f 521/261/1 517/257/1 515/255/1
f 517/257/1 521/261/1 470/210/1
f 470/210/1 469/209/1 517/257/1
f 483/223/4 522/262/4 523/263/4
f 523/263/4 484/224/4 483/223/4
f 520/260/1 524/264/1 525/265/1
f 525/265/1 521/261/1 520/260/1
f 521/261/1 525/265/1 526/266/1
f 526/266/1 470/210/1 521/261/1
f 527/267/5 528/268/5 529/269/5
f 529/269/5 530/270/5 527/267/5
f 531/271/1 516/256/1 518/258/1
f 518/258/1 532/272/1 531/271/1
f 532/272/1 518/258/1 454/194/1
f 454/194/1 453/193/1 532/272/1
f 498/238/2 501/241/2 533/273/2
f 533/273/2 501/241/2 503/243/2
f 503/243/2 534/274/2 533/273/2
f 534/274/2 503/243/2 458/198/2
f 458/198/2 460/200/2 534/274/2
f 535/275/4 486/226/4 487/227/4
f 487/227/4 536/276/4 535/275/4
f 537/277/5 527/267/5 530/270/5
f 530/270/5 538/278/5 537/277/5
f 489/229/5 537/277/5 538/278/5
f 538/278/5 490/230/5 489/229/5
f 539/279/6 496/236/6 497/237/6
f 497/237/6 540/280/6 539/279/6
f 541/281/3 465/205/3 468/208/3
f 468/208/3 542/282/3 541/281/3
f 479/219/3 541/281/3 542/282/3
f 542/282/3 480/220/3 479/219/3
f 543/283/3 544/284/3 545/285/3
f 545/285/3 546/286/3 543/283/3
f 546/286/3 545/285/3 541/281/3
f 541/281/3 479/219/3 546/286/3
f 544/284/3 461/201/3 464/204/3
f 464/204/3 545/285/3 544/284/3
f 545/285/3 464/204/3 465/205/3
f 465/205/3 541/281/3 545/285/3
f 464/204/3 463/203/3 466/206/3
f 466/206/3 465/205/3 464/204/3
f 551/287/5 552/288/5 553/289/5
f 553/289/5 554/290/5 551/287/5
f 554/290/5 553/289/5 537/277/5
f 537/277/5 489/229/5 554/290/5
f 552/288/5 555/291/5 556/292/5
f 556/292/5 553/289/5 552/288/5
f 553/289/5 556/292/5 527/267/5
f 527/267/5 537/277/5 553/289/5
f 556/292/5 557/293/5 528/268/5
f 528/268/5 527/267/5 556/292/5
f 558/294/1 513/253/1 516/256/1
f 558/294/1 516/256/1 531/271/1
f 531/271/1 559/295/1 558/294/1
f 508/248/6 560/296/6 561/297/6
f 561/297/6 509/249/6 508/248/6
f 509/249/6 561/297/6 492/232/6
f 492/232/6 496/236/6 509/249/6
f 560/296/6 562/298/6 563/299/6
f 563/299/6 561/297/6 560/296/6
f 561/297/6 563/299/6 493/233/6
f 493/233/6 492/232/6 561/297/6
f 563/299/6 564/300/6 565/301/6
f 565/301/6 493/233/6 563/299/6
f 493/233/6 565/301/6 566/302/6
f 566/302/6 494/234/6 493/233/6
f 567/303/4 568/304/4 569/305/4
f 569/305/4 570/306/4 567/303/4
f 570/306/4 569/305/4 482/222/4
f 482/222/4 486/226/4 570/306/4
f 568/304/4 571/307/4 572/308/4
f 572/308/4 569/305/4 568/304/4
f 569/305/4 572/308/4 483/223/4
f 483/223/4 482/222/4 569/305/4
f 573/309/3 546/286/3 479/219/3
f 479/219/3 478/218/3 573/309/3
f 571/307/4 574/310/4 575/311/4
f 575/311/4 572/308/4 571/307/4
f 576/312/5 554/290/5 489/229/5
f 489/229/5 488/228/5 576/312/5
f 562/298/6 577/313/6 564/300/6
f 564/300/6 563/299/6 562/298/6
f 578/314/4 570/306/4 486/226/4
f 486/226/4 535/275/4 578/314/4
f 555/291/5 579/315/5 557/293/5
f 557/293/5 556/292/5 555/291/5
f 572/308/4 575/311/4 522/262/4
f 522/262/4 483/223/4 572/308/4
f 519/259/1 580/316/1 581/317/1
f 519/259/1 581/317/1 524/264/1
f 524/264/1 520/260/1 519/259/1
f 582/318/6 509/249/6 496/236/6
f 496/236/6 539/279/6 582/318/6
f 470/210/1 526/266/1 583/319/1
f 470/210/1 583/319/1 584/320/1
f 584/320/1 471/211/1 470/210/1
f 504/244/2 511/251/2 505/245/2
f 585/321/5 551/287/5 554/290/5
f 554/290/5 576/312/5 585/321/5
f 586/322/4 567/303/4 570/306/4
f 570/306/4 578/314/4 586/322/4
f 587/323/3 543/283/3 546/286/3
f 546/286/3 573/309/3 587/323/3
f 600/324/7 601/325/7 602/326/7
f 602/326/7 603/327/7 600/324/7
f 604/328/8 605/329/8 606/330/8
f 606/330/8 607/331/8 604/328/8
f 608/332/9 609/333/9 610/334/9
f 610/334/9 611/335/9 608/332/9
f 612/336/10 613/337/10 614/338/10
f 614/338/10 615/339/10 612/336/10
s 1
f 1/340/11 2/341/3 3/342/3
f 3/342/3 4/343/11 1/340/11
f 5/344/12 1/340/11 4/343/11
f 4/343/11 6/345/12 5/344/12
f 7/346/13 5/344/12 6/345/12
f 6/345/12 8/347/13 7/346/13
f 9/348/9 7/346/13 8/347/13
f 8/347/13 10/349/9 9/348/9
f 11/350/14 9/348/9 10/349/9
f 10/349/9 12/351/14 11/350/14
f 13/352/15 14/353/14 15/354/14
f 15/354/14 16/355/15 13/352/15
f 17/356/16 13/352/15 16/355/15
f 16/355/15 18/357/16 17/356/16
f 19/358/4 17/356/16 18/357/16
f 18/357/16 20/359/4 19/358/4
f 21/360/17 19/358/4 20/359/4
f 20/359/4 22/361/17 21/360/17
f 23/362/18 21/360/17 22/361/17
f 22/361/17 24/363/18 23/362/18
f 25/364/19 23/362/18 24/363/18
f 24/363/18 26/365/19 25/364/19
f 27/366/10 25/364/19 26/365/19
f 26/365/19 28/367/10 27/366/10
f 29/368/20 30/369/10 31/370/10
f 31/370/10 32/371/20 29/368/20
f 33/372/21 29/368/20 32/371/20
f 32/371/20 34/373/21 33/372/21
f 35/374/22 33/372/21 34/373/21
f 34/373/21 36/375/22 35/374/22
f 37/376/5 35/374/22 36/375/22
f 36/375/22 38/377/5 37/376/5
f 39/378/23 37/376/5 38/377/5
f 38/377/5 40/379/23 39/378/23
f 41/380/24 39/378/23 40/379/23
f 40/379/23 42/381/24 41/380/24
f 43/382/25 41/380/24 42/381/24
f 42/381/24 44/383/25 43/382/25
f 45/384/7 43/382/25 44/383/25
f 44/383/25 46/385/7 45/384/7
f 47/386/26 45/384/7 46/385/7
f 46/385/7 48/387/26 47/386/26
f 49/388/27 47/386/26 48/387/26
f 48/387/26 50/389/27 49/388/27
f 51/390/28 52/391/27 53/392/27
f 53/392/27 54/393/28 51/390/28
f 55/394/6 51/390/28 54/393/28
f 54/393/28 56/395/6 55/394/6
f 57/396/29 55/394/6 56/395/6
f 56/395/6 58/397/29 57/396/29
f 59/398/30 57/396/29 58/397/29
f 58/397/29 60/399/30 59/398/30
f 61/400/31 59/398/30 60/399/30
f 60/399/30 62/401/31 61/400/31
f 63/402/8 61/400/31 62/401/31
f 62/401/31 64/403/8 63/402/8
f 65/404/32 63/402/8 64/403/8
f 64/403/8 66/405/32 65/404/32
f 67/406/33 65/404/32 66/405/32
f 66/405/32 68/407/33 67/406/33
f 101/408/34 102/409/33 103/410/33
f 103/410/33 104/411/34 101/408/34
f 2/341/3 101/408/34 104/411/34
f 104/411/34 3/342/3 2/341/3
f 105/412/19 106/413/19 107/414/10
f 107/414/10 108/415/10 105/412/19
f 109/416/25 110/417/25 111/418/7
f 111/418/7 112/419/7 109/416/25
f 113/420/3 114/421/34 101/408/34
f 101/408/34 2/341/3 113/420/3
f 114/421/34 115/422/33 102/409/33
f 102/409/33 101/408/34 114/421/34
f 116/423/33 117/424/32 65/404/32
f 65/404/32 67/406/33 116/423/33
f 117/424/32 118/425/8 63/402/8
f 63/402/8 65/404/32 117/424/32
f 118/425/8 119/426/31 61/400/31
f 61/400/31 63/402/8 118/425/8
f 119/426/31 120/427/30 59/398/30
f 59/398/30 61/400/31 119/426/31
f 120/427/30 121/428/29 57/396/29
f 57/396/29 59/398/30 120/427/30
f 121/428/29 122/429/6 55/394/6
f 55/394/6 57/396/29 121/428/29
f 122/429/6 123/430/28 51/390/28
f 51/390/28 55/394/6 122/429/6
f 123/430/28 124/431/27 52/391/27
f 52/391/27 51/390/28 123/430/28
f 125/432/27 126/433/26 47/386/26
f 47/386/26 49/388/27 125/432/27
f 126/433/26 127/434/7 45/384/7
f 45/384/7 47/386/26 126/433/26
f 127/434/7 128/435/25 43/382/25
f 43/382/25 45/384/7 127/434/7
f 128/435/25 129/436/24 41/380/24
f 41/380/24 43/382/25 128/435/25
f 129/436/24 130/437/23 39/378/23
f 39/378/23 41/380/24 129/436/24
f 130/437/23 131/438/5 37/376/5
f 37/376/5 39/378/23 130/437/23
f 131/438/5 132/439/22 35/374/22
f 35/374/22 37/376/5 131/438/5
f 132/439/22 133/440/21 33/372/21
f 33/372/21 35/374/22 132/439/22
f 133/440/21 134/441/20 29/368/20
f 29/368/20 33/372/21 133/440/21
f 134/441/20 135/442/10 30/369/10
f 30/369/10 29/368/20 134/441/20
f 136/443/10 137/444/19 25/364/19
f 25/364/19 27/366/10 136/443/10
f 137/444/19 138/445/18 23/362/18
f 23/362/18 25/364/19 137/444/19
f 138/445/18 139/446/17 21/360/17
f 21/360/17 23/362/18 138/445/18
f 139/446/17 140/447/4 19/358/4
f 19/358/4 21/360/17 139/446/17
f 140/447/4 141/448/16 17/356/16
f 17/356/16 19/358/4 140/447/4
f 141/448/16 142/449/15 13/352/15
f 13/352/15 17/356/16 141/448/16
f 142/449/15 143/450/14 14/353/14
f 14/353/14 13/352/15 142/449/15
f 144/451/14 145/452/9 9/348/9
f 9/348/9 11/350/14 144/451/14
f 145/452/9 146/453/13 7/346/13
f 7/346/13 9/348/9 145/452/9
f 146/453/13 147/454/12 5/344/12
f 5/344/12 7/346/13 146/453/13
f 147/454/12 148/455/11 1/340/11
f 1/340/11 5/344/12 147/454/12
f 148/455/11 113/420/3 2/341/3
f 2/341/3 1/340/11 148/455/11
f 149/456/17 150/457/17 151/458/18
f 151/458/18 152/459/18 149/456/17
f 153/460/12 154/461/12 155/462/13
f 155/462/13 156/463/13 153/460/12
f 157/464/6 158/465/6 159/466/29
f 159/466/29 160/467/29 157/464/6
f 161/468/22 162/469/22 163/470/5
f 163/470/5 164/471/5 161/468/22
f 165/472/15 166/473/15 167/474/16
f 167/474/16 168/475/16 165/472/15
f 169/476/8 170/477/8 171/478/32
f 171/478/32 172/479/32 169/476/8
f 112/419/7 111/418/7 173/480/26
f 173/480/26 174/481/26 112/419/7
f 175/482/18 176/483/18 106/413/19
f 106/413/19 105/412/19 175/482/18
f 177/484/11 178/485/11 154/461/12
f 154/461/12 153/460/12 177/484/11
f 179/486/28 180/487/28 158/465/6
f 158/465/6 157/464/6 179/486/28
f 181/488/21 182/489/21 162/469/22
f 162/469/22 161/468/22 181/488/21
f 183/490/14 184/491/14 166/473/15
f 166/473/15 165/472/15 183/490/14
f 185/492/31 186/493/31 170/477/8
f 170/477/8 169/476/8 185/492/31
f 187/494/24 188/495/24 110/417/25
f 110/417/25 109/416/25 187/494/24
f 189/496/17 190/497/17 176/483/18
f 176/483/18 175/482/18 189/496/17
f 191/498/3 192/499/3 178/485/11
f 178/485/11 177/484/11 191/498/3
f 193/500/27 194/501/35 180/487/28
f 180/487/28 179/486/28 193/500/27
f 195/502/20 196/503/20 182/489/21
f 182/489/21 181/488/21 195/502/20
f 197/504/9 198/505/9 199/506/14
f 199/506/14 200/507/14 197/504/9
f 201/508/30 202/509/30 186/493/31
f 186/493/31 185/492/31 201/508/30
f 203/510/23 204/511/23 188/495/24
f 188/495/24 187/494/24 203/510/23
f 205/512/4 206/513/4 190/497/17
f 190/497/17 189/496/17 205/512/4
f 207/514/33 208/515/33 209/516/34
f 209/516/34 210/517/34 207/514/33
f 211/518/11 212/519/11 213/520/12
f 213/520/12 214/521/12 211/518/11
f 219/522/10 220/523/10 196/503/20
f 196/503/20 195/502/20 219/522/10
f 156/463/13 155/462/13 198/505/9
f 198/505/9 197/504/9 156/463/13
f 160/467/29 159/466/29 202/509/30
f 202/509/30 201/508/30 160/467/29
f 164/471/5 163/470/5 204/511/23
f 204/511/23 203/510/23 164/471/5
f 168/475/16 167/474/16 206/513/4
f 206/513/4 205/512/4 168/475/16
f 225/524/25 226/525/25 227/526/7
f 227/526/7 228/527/7 225/524/25
f 172/479/32 171/478/32 277/528/33
f 277/528/33 278/529/33 172/479/32
f 174/481/26 173/480/26 287/530/27
f 287/530/27 288/531/27 174/481/26
f 293/532/31 294/533/31 295/534/8
f 295/534/8 296/535/8 293/532/31
f 297/536/14 298/537/14 299/538/15
f 299/538/15 300/539/15 297/536/14
f 301/540/21 302/541/21 303/542/22
f 303/542/22 304/543/22 301/540/21
f 305/544/28 306/545/28 307/546/6
f 307/546/6 308/547/6 305/544/28
f 152/459/18 151/458/18 309/548/19
f 309/548/19 310/549/19 152/459/18
f 311/550/24 312/551/24 226/525/25
f 226/525/25 225/524/25 311/550/24
f 296/535/8 295/534/8 313/552/32
f 313/552/32 314/553/32 296/535/8
f 300/539/15 299/538/15 315/554/16
f 315/554/16 316/555/16 300/539/15
f 304/543/22 303/542/22 317/556/5
f 317/556/5 318/557/5 304/543/22
f 308/547/6 307/546/6 319/558/29
f 319/558/29 320/559/29 308/547/6
f 321/560/3 322/561/3 212/519/11
f 212/519/11 211/518/11 321/560/3
f 310/549/19 309/548/19 323/562/10
f 323/562/10 324/563/10 310/549/19
f 228/527/7 227/526/7 329/564/26
f 329/564/26 330/565/26 228/527/7
f 314/553/32 313/552/32 331/566/33
f 331/566/33 332/567/33 314/553/32
f 316/555/16 315/554/16 333/568/4
f 333/568/4 334/569/4 316/555/16
f 318/557/5 317/556/5 335/570/23
f 335/570/23 336/571/23 318/557/5
f 320/559/29 319/558/29 337/572/30
f 337/572/30 338/573/30 320/559/29
f 339/574/13 340/575/13 341/576/9
f 341/576/9 342/577/9 339/574/13
f 343/578/10 344/579/10 345/580/20
f 345/580/20 346/581/20 343/578/10
f 330/565/26 329/564/26 347/582/27
f 347/582/27 348/583/27 330/565/26
f 349/584/33 350/585/33 351/586/34
f 351/586/34 352/587/34 349/584/33
f 334/569/4 333/568/4 150/457/17
f 150/457/17 149/456/17 334/569/4
f 336/571/23 335/570/23 312/551/24
f 312/551/24 311/550/24 336/571/23
f 338/573/30 337/572/30 294/533/31
f 294/533/31 293/532/31 338/573/30
f 342/577/9 341/576/9 353/588/14
f 353/588/14 354/589/14 342/577/9
f 346/581/20 345/580/20 302/541/21
f 302/541/21 301/540/21 346/581/20
f 355/590/27 356/591/27 306/545/28
f 306/545/28 305/544/28 355/590/27
f 352/587/34 351/586/34 322/561/3
f 322/561/3 321/560/3 352/587/34
f 214/521/12 213/520/12 340/575/13
f 340/575/13 339/574/13 214/521/12
f 445/592/36 446/593/37 447/594/37
f 447/594/37 448/595/36 445/592/36
f 449/596/38 450/597/39 451/598/39
f 451/598/39 452/599/40 449/596/38
f 547/600/41 548/601/42 549/602/43
f 549/602/43 550/603/41 547/600/41
f 588/604/44 589/605/45 590/606/45
f 590/606/45 591/607/46 588/604/44
f 548/601/42 592/608/47 593/609/47
f 593/609/47 549/602/43 548/601/42
f 594/610/48 595/611/49 596/612/49
f 596/612/49 597/613/48 594/610/48
f 452/599/40 598/614/50 599/615/50
f 599/615/50 449/596/38 452/599/40
f 615/339/10 614/338/10 596/612/49
f 596/612/49 595/611/49 615/339/10
f 607/331/8 606/330/8 593/609/47
f 593/609/47 592/608/47 607/331/8
f 590/606/45 589/605/45 601/325/7
f 601/325/7 600/324/7 590/606/45
f 611/335/9 610/334/9 599/615/50
f 599/615/50 598/614/50 611/335/9
f 616/616/51 617/617/51 618/618/46
f 618/618/46 619/619/46 616/616/51
f 620/620/52 621/621/53 622/622/54
f 622/622/54 623/623/55 620/620/52
f 624/624/56 625/625/52 626/626/57
f 626/626/57 627/627/58 624/624/56
f 628/628/59 629/629/60 621/621/53
f 621/621/53 620/620/52 628/628/59
f 630/630/61 631/631/62 625/625/52
f 625/625/52 624/624/56 630/630/61
f 632/632/63 633/633/64 629/629/60
f 629/629/60 628/628/59 632/632/63
f 634/634/65 635/635/63 631/631/62
f 631/631/62 630/630/61 634/634/65
f 636/636/66 637/637/67 633/633/64
f 633/633/64 632/632/63 636/636/66
f 638/638/68 639/639/66 640/640/63
f 640/640/63 641/641/65 638/638/68
f 642/642/69 643/643/70 637/637/67
f 637/637/67 636/636/66 642/642/69
f 644/644/71 645/645/72 639/639/66
f 639/639/66 638/638/68 644/644/71
f 646/646/73 647/647/74 643/643/70
f 643/643/70 642/642/69 646/646/73
f 648/648/75 649/649/76 645/645/72
f 645/645/72 644/644/71 648/648/75
f 650/650/77 651/651/78 647/647/74
f 647/647/74 646/646/73 650/650/77
f 652/652/79 653/653/77 649/649/76
f 649/649/76 648/648/75 652/652/79
f 654/654/80 655/655/81 651/651/78
f 651/651/78 650/650/77 654/654/80
f 656/656/82 657/657/80 653/653/77
f 653/653/77 652/652/79 656/656/82
f 658/658/83 659/659/84 655/655/81
f 655/655/81 654/654/80 658/658/83
f 660/660/85 661/661/86 657/657/80
f 657/657/80 656/656/82 660/660/85
f 662/662/87 663/663/88 659/659/84
f 659/659/84 658/658/83 662/662/87
f 664/664/89 665/665/87 661/661/86
f 661/661/86 660/660/85 664/664/89
f 666/666/90 667/667/91 663/663/88
f 663/663/88 662/662/87 666/666/90
f 668/668/92 669/669/90 665/665/87
f 665/665/87 664/664/89 668/668/92
f 670/670/93 671/671/94 667/667/91
f 667/667/91 666/666/90 670/670/93
f 672/672/95 673/673/93 674/674/90
f 674/674/90 675/675/96 672/672/95
f 676/676/97 677/677/98 671/671/94
f 671/671/94 670/670/93 676/676/97
f 678/678/99 679/679/100 673/673/93
f 673/673/93 672/672/95 678/678/99
f 680/680/101 681/681/102 677/677/98
f 677/677/98 676/676/97 680/680/101
f 682/682/103 683/683/101 679/679/100
f 679/679/100 678/678/99 682/682/103
f 684/684/104 685/685/105 681/681/102
f 681/681/102 680/680/101 684/684/104
f 686/686/106 687/687/104 683/683/101
f 683/683/101 682/682/103 686/686/106
f 688/688/107 689/689/108 685/685/105
f 685/685/105 684/684/104 688/688/107
f 690/690/109 691/691/110 687/687/104
f 687/687/104 686/686/106 690/690/109
f 692/692/111 693/693/112 689/689/108
f 689/689/108 688/688/107 692/692/111
f 694/694/113 695/695/111 691/691/110
f 691/691/110 690/690/109 694/694/113
f 696/696/114 697/697/115 693/693/112
f 693/693/112 692/692/111 696/696/114
f 698/698/116 699/699/117 695/695/111
f 695/695/111 694/694/113 698/698/116
f 700/700/118 701/701/119 697/697/115
f 697/697/115 696/696/114 700/700/118
f 702/702/120 703/703/118 699/699/117
f 699/699/117 698/698/116 702/702/120
f 704/704/121 705/705/122 701/701/119
f 701/701/119 700/700/118 704/704/121
f 706/706/123 707/707/121 703/703/118
f 703/703/118 702/702/120 706/706/123
f 708/708/124 709/709/125 705/705/122
f 705/705/122 704/704/121 708/708/124
f 710/710/126 711/711/127 707/707/121
f 707/707/121 706/706/123 710/710/126
f 712/712/128 713/713/129 709/709/125
f 709/709/125 708/708/124 712/712/128
f 714/714/130 715/715/128 716/716/127
f 716/716/127 717/717/126 714/714/130
f 718/718/131 719/719/132 713/713/129
f 713/713/129 712/712/128 718/718/131
f 720/720/133 721/721/131 715/715/128
f 715/715/128 714/714/130 720/720/133
f 722/722/134 723/723/135 719/719/132
f 719/719/132 718/718/131 722/722/134
f 724/724/136 725/725/137 721/721/131
f 721/721/131 720/720/133 724/724/136
f 726/726/138 727/727/139 723/723/135
f 723/723/135 722/722/134 726/726/138
f 728/728/140 729/729/141 725/725/137
f 725/725/137 724/724/136 728/728/140
f 730/730/142 731/731/143 727/727/139
f 727/727/139 726/726/138 730/730/142
f 732/732/144 733/733/145 729/729/141
f 729/729/141 728/728/140 732/732/144
f 734/734/146 735/735/147 731/731/143
f 731/731/143 730/730/142 734/734/146
f 736/736/148 737/737/146 733/733/145
f 733/733/145 732/732/144 736/736/148
f 738/738/149 739/739/150 735/735/147
f 735/735/147 734/734/146 738/738/149
f 740/740/151 741/741/149 737/737/146
f 737/737/146 736/736/148 740/740/151
f 742/742/152 743/743/153 739/739/150
f 739/739/150 738/738/149 742/742/152
f 744/744/154 745/745/155 746/746/149
f 746/746/149 747/747/156 744/744/154
f 748/748/157 749/749/158 743/743/153
f 743/743/153 742/742/152 748/748/157
f 750/750/159 751/751/160 745/745/155
f 745/745/155 744/744/154 750/750/159
f 752/752/161 753/753/162 749/749/158
f 749/749/158 748/748/157 752/752/161
f 754/754/163 755/755/164 751/751/160
f 751/751/160 750/750/159 754/754/163
f 623/623/55 622/622/54 753/753/162
f 753/753/162 752/752/161 623/623/55
f 627/627/58 626/626/57 755/755/164
f 755/755/164 754/754/163 627/627/58
f 756/756/55 757/757/165 758/758/166
f 758/758/166 759/759/161 756/756/55
f 760/760/58 761/761/57 762/762/164
f 762/762/164 763/763/167 760/760/58
f 759/759/161 758/758/166 764/764/168
f 764/764/168 765/765/157 759/759/161
f 763/763/167 762/762/164 766/766/160
f 766/766/160 767/767/169 763/763/167
f 765/765/157 764/764/168 768/768/170
f 768/768/170 769/769/152 765/765/157
f 767/767/169 766/766/160 770/770/152
f 770/770/152 771/771/154 767/767/169
f 769/769/152 768/768/170 772/772/171
f 772/772/171 773/773/149 769/769/152
f 771/771/154 770/770/152 774/774/149
f 774/774/149 775/775/172 771/771/154
f 773/773/149 772/772/171 776/776/173
f 776/776/173 777/777/146 773/773/149
f 778/778/156 779/779/149 780/780/146
f 780/780/146 781/781/148 778/778/156
f 777/777/146 776/776/173 782/782/143
f 782/782/143 783/783/142 777/777/146
f 781/781/148 780/780/146 784/784/145
f 784/784/145 785/785/174 781/781/148
f 783/783/142 782/782/143 786/786/175
f 786/786/175 787/787/138 783/783/142
f 785/785/174 784/784/145 788/788/141
f 788/788/141 789/789/140 785/785/174
f 787/787/138 786/786/175 790/790/176
f 790/790/176 791/791/134 787/787/138
f 789/789/140 788/788/141 792/792/137
f 792/792/137 793/793/177 789/789/140
f 791/791/134 790/790/176 794/794/132
f 794/794/132 795/795/131 791/791/134
f 793/793/177 792/792/137 796/796/131
f 796/796/131 797/797/133 793/793/177
f 795/795/131 794/794/132 798/798/178
f 798/798/178 799/799/128 795/795/131
f 797/797/133 796/796/131 800/800/179
f 800/800/179 801/801/130 797/797/133
f 799/799/128 798/798/178 802/802/180
f 802/802/180 803/803/181 799/799/128
f 801/801/130 800/800/179 804/804/127
f 804/804/127 805/805/126 801/801/130
f 803/803/181 802/802/180 806/806/182
f 806/806/182 807/807/121 803/803/181
f 808/808/126 809/809/181 810/810/183
f 810/810/183 811/811/123 808/808/126
f 807/807/121 806/806/182 812/812/119
f 812/812/119 813/813/118 807/807/121
f 811/811/123 810/810/183 814/814/118
f 814/814/118 815/815/120 811/811/123
f 813/813/118 812/812/119 816/816/184
f 816/816/184 817/817/114 813/813/118
f 815/815/120 814/814/118 818/818/117
f 818/818/117 819/819/185 815/815/120
f 817/817/114 816/816/184 820/820/186
f 820/820/186 821/821/187 817/817/114
f 819/819/185 818/818/117 822/822/111
f 822/822/111 823/823/113 819/819/185
f 821/821/187 820/820/186 824/824/188
f 824/824/188 825/825/107 821/821/187
f 823/823/113 822/822/111 826/826/110
f 826/826/110 827/827/189 823/823/113
f 825/825/107 824/824/188 828/828/190
f 828/828/190 829/829/104 825/825/107
f 827/827/189 826/826/110 830/830/104
f 830/830/104 831/831/106 827/827/189
f 829/829/104 828/828/190 832/832/191
f 832/832/191 833/833/101 829/829/104
f 831/831/106 830/830/104 834/834/101
f 834/834/101 835/835/103 831/831/106
f 833/833/101 832/832/191 836/836/192
f 836/836/192 837/837/97 833/833/101
f 835/835/103 834/834/101 838/838/100
f 838/838/100 839/839/99 835/835/103
f 837/837/97 836/836/192 840/840/193
f 840/840/193 841/841/93 837/837/97
f 839/839/99 838/838/100 842/842/194
f 842/842/194 843/843/95 839/839/99
f 841/841/93 840/840/193 844/844/195
f 844/844/195 845/845/90 841/841/93
f 843/843/95 842/842/194 846/846/196
f 846/846/196 847/847/96 843/843/95
f 845/845/90 844/844/195 848/848/88
f 848/848/88 849/849/87 845/845/90
f 850/850/197 851/851/90 852/852/198
f 852/852/198 853/853/89 850/850/197
f 849/849/87 848/848/88 854/854/199
f 854/854/199 855/855/83 849/849/87
f 853/853/89 852/852/198 856/856/86
f 856/856/86 857/857/85 853/853/89
f 855/855/83 854/854/199 858/858/200
f 858/858/200 859/859/80 855/855/83
f 857/857/85 856/856/86 860/860/80
f 860/860/80 861/861/82 857/857/85
f 859/859/80 858/858/200 862/862/201
f 862/862/201 863/863/77 859/859/80
f 861/861/82 860/860/80 864/864/77
f 864/864/77 865/865/202 861/861/82
f 863/863/77 862/862/201 866/866/203
f 866/866/203 867/867/73 863/863/77
f 865/865/202 864/864/77 868/868/73
f 868/868/73 869/869/204 865/865/202
f 867/867/73 866/866/203 870/870/205
f 870/870/205 871/871/206 867/867/73
f 869/869/204 868/868/73 872/872/69
f 872/872/69 873/873/207 869/869/204
f 871/871/206 870/870/205 874/874/208
f 874/874/208 875/875/66 871/871/206
f 873/873/207 872/872/69 876/876/209
f 876/876/209 877/877/68 873/873/207
f 875/875/66 874/874/208 878/878/210
f 878/878/210 879/879/63 875/875/66
f 877/877/68 876/876/209 880/880/63
f 880/880/63 881/881/65 877/877/68
f 879/879/63 878/878/210 882/882/211
f 882/882/211 883/883/59 879/879/63
f 884/884/65 885/885/63 886/886/62
f 886/886/62 887/887/61 884/884/65
f 883/883/59 882/882/211 888/888/212
f 888/888/212 889/889/52 883/883/59
f 887/887/61 886/886/62 890/890/52
f 890/890/52 891/891/56 887/887/61
f 889/889/52 888/888/212 757/757/165
f 757/757/165 756/756/55 889/889/52
f 891/891/56 890/890/52 761/761/57
f 761/761/57 760/760/58 891/891/56
f 210/517/34 209/516/34 192/499/3
f 192/499/3 191/498/3 210/517/34
