# Blender v3.5.0 OBJ File: ''
# www.blender.org
mtllib Säule Kaputt 02.mtl
o Object_2_Object_0.001
v 0.000000 -233.261948 -1.889861
v 4.877260 -0.000007 -24.519604
v 0.000000 -0.000007 -25.000004
v 0.000000 200.000031 -25.000031
v 4.877260 200.000031 -24.519730
v 9.567090 -0.000007 -23.097002
v 9.567090 200.000031 -23.097029
v 13.889300 -0.000006 -20.786701
v 13.889300 200.000031 -20.786829
v 17.677700 -0.000005 -17.677702
v 17.677700 200.000031 -17.677729
v 20.786699 -0.000004 -13.889302
v 20.786699 200.000031 -13.889329
v -8.122778 -225.794678 23.109903
v 21.266134 -225.794662 13.560710
v -2.706146 -116.408432 -0.340193
v 23.097000 -0.000003 -9.567091
v 21.266134 -225.794662 -17.340433
v 23.097000 200.000031 -9.567147
v -26.286489 -225.794525 -1.889863
v 24.519600 -0.000001 -4.877261
v -8.122778 -225.794678 -26.889629
v 24.519600 200.000031 -4.877317
v 25.000000 -0.000000 -0.000002
v 25.000000 200.000031 -0.000061
v 24.519600 0.000001 4.877251
v 24.519600 200.000031 4.877194
v 23.097000 0.000003 9.567080
v 23.097000 200.000031 9.567024
v 20.786699 0.000004 13.889302
v 20.786699 200.000031 13.889175
v 17.677700 0.000005 17.677702
v 17.677700 200.000031 17.677576
v 13.889300 0.000006 20.786701
v 13.889300 200.000031 20.786674
v 9.567080 0.000007 23.097002
v 9.567080 200.000031 23.096975
v 4.877250 0.000007 24.519604
v 4.877250 200.000031 24.519577
v -0.000008 0.000007 25.000004
v -0.000008 200.000031 24.999977
v -4.877270 0.000007 24.519604
v 23.580343 -123.875847 -0.340192
v -4.877270 200.000031 24.519577
v -9.567100 0.000007 23.097002
v -9.567100 200.000031 23.096975
v -13.889300 0.000006 20.786701
v -13.889300 200.000031 20.786674
v -17.677700 0.000005 17.677702
v -17.677700 200.000031 17.677576
v -20.786800 0.000004 13.889202
v -20.786800 200.000031 13.889175
v -23.097000 0.000003 9.567071
v -23.097000 200.000031 9.567015
v -24.519600 0.000001 4.877241
v -24.519600 200.000031 4.877174
v -25.000000 -0.000000 -0.000024
v -25.000000 200.000031 -0.000084
v -24.519600 -0.000001 -4.877281
v -24.519600 200.000031 -4.877347
v -23.097000 -0.000003 -9.567111
v -23.097000 200.000031 -9.567178
v -20.786699 -0.000004 -13.889302
v -20.786699 200.000031 -13.889329
v -17.677601 -0.000005 -17.677702
v -17.677601 200.000031 -17.677729
v -13.889200 -0.000006 -20.786802
v -13.889200 200.000031 -20.786829
v -9.567050 -0.000007 -23.097002
v -9.567050 200.000031 -23.097029
v -4.877220 200.000031 -24.519730
v -4.877220 -0.000007 -24.519604
v 27.022800 -225.000031 18.056133
v 22.981001 -225.000031 22.981033
v -18.056101 -225.000031 27.022835
v -22.981001 -225.000031 22.981033
v 35.063099 -250.000031 6.974555
v 35.063099 -226.145035 6.974542
v 33.028702 -226.145035 13.681032
v 33.028702 -250.000031 13.681035
v 12.437200 -225.000031 -30.025972
v 18.056000 -225.000031 -27.022673
v -32.500000 -225.000031 0.000038
v -31.875500 -225.000031 -6.340401
v 6.340410 -225.000031 31.875635
v -0.000027 -225.000031 32.500034
v 30.026100 -225.000031 -12.437171
v 31.875500 -225.000031 -6.340371
v -22.981001 -225.000031 -22.980972
v -18.056000 -225.000031 -27.022774
v -27.022800 -225.000031 18.056133
v 30.026100 -225.000031 12.437232
v 6.340420 -225.000031 -31.875473
v -31.875500 -225.000031 6.340481
v 12.437200 -225.000031 30.026134
v 27.022800 -225.000031 -18.055971
v -27.022800 -225.000031 -18.055971
v -12.437200 -225.000031 30.026134
v 31.875500 -225.000031 6.340501
v -0.000017 -225.000031 -32.499973
v -30.026100 -225.000031 12.437232
v 18.056000 -225.000031 27.022835
v 22.981001 -225.000031 -22.980871
v -30.026100 -225.000031 -12.437171
v -6.340470 -225.000031 31.875635
v 32.500000 -225.000031 0.000067
v -12.437200 -225.000031 -30.026073
v -6.340400 -225.000031 -31.875473
v 6.974450 -250.000031 -35.062969
v 6.974460 -226.145035 -35.062973
v 13.680900 -226.145035 -33.028675
v 13.680900 -250.000031 -33.028568
v -19.861700 -250.000031 29.725138
v -19.861700 -226.145035 29.725134
v -25.279100 -226.145035 25.279135
v -25.279100 -250.000031 25.279139
v -13.240500 -225.000031 31.965435
v -19.222200 -225.000031 28.768135
v -29.725000 -250.000031 -19.861568
v -29.725000 -226.145035 -19.861572
v -25.279100 -226.145035 -25.279074
v -25.279100 -250.000031 -25.279070
v 29.725000 -250.000031 -19.861568
v 29.725000 -226.145035 -19.861572
v 33.028702 -226.145035 -13.680871
v 33.028702 -250.000031 -13.680868
v 13.680900 -250.000031 33.028740
v 13.680900 -226.145035 33.028736
v 6.974450 -226.145035 35.063133
v 6.974450 -250.000031 35.063137
v -35.063099 -250.000031 6.974524
v -35.063099 -226.145035 6.974522
v -35.750000 -226.145035 0.000036
v -35.750000 -250.000031 0.000043
v 29.725000 -226.145035 19.861732
v 29.725000 -250.000031 19.861736
v -13.681000 -250.000031 33.028740
v -13.681000 -226.145035 33.028736
v -19.861601 -226.145035 -29.724974
v -19.861601 -250.000031 -29.724970
v 35.063099 -226.145035 -6.974411
v 35.063000 -250.000031 -6.974408
v -0.000029 -226.145035 35.750034
v -0.000037 -250.000031 35.750038
v -35.063099 -226.145035 -6.974451
v -35.063099 -250.000031 -6.974438
v -0.000026 -250.000031 -35.749969
v -0.000018 -226.145035 -35.749973
v 25.279100 -226.145035 25.279135
v 25.278999 -250.000031 25.279139
v 6.749930 -225.000031 -33.934174
v 13.240500 -225.000031 -31.965273
v -29.725100 -226.145035 19.861732
v -29.725100 -250.000031 19.861736
v -13.680900 -226.145035 -33.028675
v -13.680900 -250.000031 -33.028671
v 35.750000 -226.145035 0.000068
v 35.750000 -250.000031 0.000075
v -6.974510 -226.145035 35.063133
v -6.974520 -250.000031 35.063137
v -33.028702 -226.145035 -13.680871
v -33.028702 -250.000031 -13.680868
v 19.861601 -250.000031 -29.724970
v 19.861601 -226.145035 -29.724974
v 25.279100 -226.145035 -25.278973
v 25.278999 -250.000031 -25.278969
v 19.861601 -226.145035 29.725134
v 19.861601 -250.000031 29.725138
v -33.028702 -226.145035 13.680932
v -33.028702 -250.000031 13.681035
v -6.974440 -226.145035 -35.062973
v -6.974450 -250.000031 -35.062969
v 28.768101 -225.000031 -19.222172
v 31.965401 -225.000031 -13.240472
v -24.465300 -225.000031 24.465334
v 33.934200 -225.000031 -6.749881
v -28.768101 -225.000031 19.222233
v 34.599098 -225.000031 0.000067
v -31.965401 -225.000031 13.240533
v 33.934200 -225.000031 6.750011
v -33.934299 -225.000031 6.749981
v 31.965401 -225.000031 13.240533
v -34.599098 -225.000031 0.000036
v 28.768101 -225.000031 19.222332
v -33.934299 -225.000031 -6.749911
v 24.465200 -225.000031 24.465334
v -31.965401 -225.000031 -13.240472
v 19.222200 -225.000031 28.768135
v -28.768101 -225.000031 -19.222172
v 13.240500 -225.000031 31.965435
v -24.465200 -225.000031 -24.465174
v 6.749920 -225.000031 33.934334
v -0.000017 -225.000031 -34.598972
v -19.222200 -225.000031 -28.768074
v -0.000028 -225.000031 34.599133
v 19.222200 -225.000031 -28.767973
v -13.240500 -225.000031 -31.965374
v -6.749980 -225.000031 33.934334
v 24.465200 -225.000031 -24.465174
v -6.749910 -225.000031 -33.934174
v 33.978100 215.693024 34.999973
v 17.500000 200.000031 34.999977
v 35.000000 200.000031 17.499975
v 35.000000 215.693024 33.977974
v 35.000000 215.693024 -33.978134
v 35.000000 200.000031 -17.500029
v 17.500000 200.000031 -35.000031
v 33.978100 215.693024 -35.000034
v -17.500000 250.000031 34.999969
v -17.500000 250.000031 17.499968
v -35.000000 250.000031 17.499968
v -35.000000 250.000031 33.588669
v -33.588699 250.000031 34.999969
v 17.500000 200.000031 17.499975
v -17.500000 200.000031 -35.000031
v -33.978100 215.693024 -35.000034
v -33.588699 216.667038 -35.000034
v -17.500000 216.667038 -35.000034
v -17.500000 233.333023 -35.000034
v -33.588699 233.333023 -35.000034
v -33.588699 250.000031 -35.000038
v -17.500000 250.000031 -35.000038
v -17.500000 250.000031 -0.000071
v -17.500000 250.000031 -17.500036
v -35.000000 250.000031 -17.500036
v -35.000000 250.000031 -0.000071
v 17.500000 200.000031 -17.500029
v 17.500000 200.000031 -0.000056
v 35.000000 200.000031 -0.000056
v 33.588699 233.333023 -35.000034
v 17.500000 233.333023 -35.000034
v 17.500000 250.000031 -35.000038
v 33.588699 250.000031 -35.000038
v 35.000000 233.333023 -0.000066
v 35.000000 233.333023 -17.500032
v 35.000000 250.000031 -17.500036
v 35.000000 250.000031 -0.000071
v 35.000000 233.333023 17.499971
v 35.000000 250.000031 17.499968
v -33.588699 233.333023 34.999973
v -17.500000 233.333023 34.999973
v -35.000000 233.333023 -0.000066
v -35.000000 233.333023 17.499971
v -35.000000 233.333023 -17.500032
v -35.000000 200.000031 17.499975
v -35.000000 200.000031 -0.000056
v -17.500000 200.000031 -0.000056
v -17.500000 200.000031 17.499975
v 0.000000 200.000031 -0.000056
v 0.000000 200.000031 17.499975
v -35.000000 200.000031 -17.500029
v -17.500000 200.000031 -17.500029
v 0.000000 200.000031 -17.500029
v -35.000000 215.693024 -33.978134
v -35.000000 216.667038 -17.500031
v -35.000000 216.667038 -33.588833
v 0.000000 200.000031 -35.000031
v 17.500000 250.000031 -0.000071
v 17.500000 250.000031 17.499968
v 0.000000 250.000031 -0.000071
v 0.000000 250.000031 17.499968
v 17.500000 250.000031 -17.500036
v 0.000000 250.000031 -17.500036
v 35.000000 233.333023 -33.588833
v 35.000000 250.000031 -33.588837
v 0.000000 250.000031 -35.000038
v 17.500000 233.333023 34.999973
v 33.588699 233.333023 34.999973
v 33.588699 250.000031 34.999969
v 17.500000 250.000031 34.999969
v 0.000000 250.000031 34.999969
v -17.500000 200.000031 34.999977
v 0.000000 200.000031 34.999977
v 35.000000 233.333023 33.588673
v 35.000000 250.000031 33.588669
v 0.000000 233.333023 34.999973
v -35.000000 233.333023 -33.588833
v -35.000000 250.000031 -33.588837
v 0.000000 233.333023 -35.000034
v 0.000000 216.667038 -35.000034
v 17.500000 216.667038 -35.000034
v 0.000000 216.667038 34.999973
v -17.500000 216.667038 34.999973
v 17.500000 216.667038 34.999973
v 33.588699 216.667038 34.999973
v -35.000000 216.667038 -0.000061
v -35.000000 216.667038 17.499973
v -35.000000 216.667038 33.588673
v -35.000000 233.333023 33.588673
v 35.000000 216.667038 -0.000061
v 35.000000 216.667038 17.499973
v 35.000000 216.667038 -17.500031
v 33.588699 216.667038 -35.000034
v 35.000000 216.667038 -33.588833
v -33.588699 216.667038 34.999973
v -35.000000 215.693024 33.977974
v 35.000000 216.667038 33.588673
v -33.978100 215.693024 34.999973
v 6.908700 -225.335037 -34.732372
v 13.551900 -225.335037 -32.717175
v 19.674299 -225.335037 -29.444674
v 25.040701 -225.335037 -25.040674
v 29.444700 -225.335037 -19.674271
v 32.717201 -225.335037 -13.551871
v 34.732399 -225.335037 -6.908651
v 35.412899 -225.335037 0.000067
v 34.732399 -225.335037 6.908781
v 32.717201 -225.335037 13.552032
v 29.444700 -225.335037 19.674433
v 25.040701 -225.335037 25.040735
v 19.674299 -225.335037 29.444834
v 13.551900 -225.335037 32.717335
v 6.908690 -225.335037 34.732533
v -0.000029 -225.335037 35.412933
v -6.908750 -225.335037 34.732533
v -13.552000 -225.335037 32.717335
v -19.674400 -225.335037 29.444834
v -25.040701 -225.335037 25.040735
v -29.444799 -225.335037 19.674433
v -32.717300 -225.335037 13.551932
v -34.732498 -225.335037 6.908751
v -35.412899 -225.335037 0.000036
v -34.732498 -225.335037 -6.908681
v -32.717300 -225.335037 -13.551871
v -29.444700 -225.335037 -19.674372
v -25.040701 -225.335037 -25.040674
v -19.674299 -225.335037 -29.444674
v -13.551900 -225.335037 -32.717175
v -6.908680 -225.335037 -34.732372
v -0.000017 -225.335037 -35.412872
v -4.877220 -125.709747 -24.519587
v -1.823899 -125.207458 -24.820335
v 0.000000 -124.907417 -24.999987
v -6.618623 -125.737061 -23.991352
v -9.567050 -125.783302 -23.096985
v -11.176224 -125.538284 -22.236877
v -13.889200 -125.125145 -20.786722
v -15.317224 -124.610786 -19.614759
v -17.358122 -123.875717 -17.939869
v -17.677601 -123.822830 -17.677685
v -18.867332 -123.467804 -16.228012
v -20.786699 -122.895035 -13.889224
v -23.097000 -123.568375 -9.567076
v -21.675365 -123.069191 -12.226676
v -20.945665 -122.812965 -13.591825
v -23.639303 -123.758797 -7.779284
v -23.972281 -123.875717 -6.681572
v -24.519600 -124.293831 -4.877245
v -25.000000 -124.660820 0.000013
v -24.701113 -124.432495 -3.034435
v -24.818703 -124.522324 1.840636
v -24.519600 -124.293831 4.877276
v -23.097000 -123.568375 9.567105
v -23.972281 -123.875717 6.681603
v -23.978159 -123.880211 6.662221
v -21.207697 -122.904976 13.101815
v -20.786800 -123.122276 13.889280
v -22.210543 -123.257111 11.225570
v -19.597216 -123.477272 15.338812
v -18.261959 -123.875717 16.965807
v -17.677700 -124.255020 17.677719
v -13.889300 -125.619537 20.786781
v -16.252661 -124.768280 18.847197
v -9.567100 -126.277664 23.097019
v -12.287136 -125.863510 21.643169
v -4.877270 -126.204155 24.519684
v -7.837737 -126.250542 23.621599
v -0.000008 -125.401764 25.000021
v -3.070413 -125.906914 24.697655
v 4.877250 -123.901413 24.519682
v 1.832917 -124.837898 24.819481
v 9.567080 -125.739174 23.097019
v 6.651543 -124.334442 23.981472
v 4.933540 -123.875717 24.502607
v 5.699487 -123.875717 24.270267
v 5.326865 -123.793198 24.383297
v 13.889300 -127.373070 20.786783
v 11.158934 -126.340919 22.246145
v 17.677700 -128.318359 17.677719
v 15.258528 -127.714729 19.663109
v 20.786699 -128.538712 13.889319
v 18.790766 -128.397247 16.321419
v 21.614307 -128.354950 12.340991
v 23.097000 -128.025757 9.567117
v 23.612112 -127.581604 7.868967
v 24.519600 -126.799118 4.877293
v 24.697100 -126.102982 3.075220
v 25.000000 -125.529396 0.000035
v 24.695469 -126.106071 3.091794
v 24.821453 -125.667244 -1.812665
v 24.644035 -126.003212 -3.613887
v 24.519600 -126.493576 -4.877224
v 24.966488 -125.392601 -0.340192
v 23.097000 -127.720222 -9.567048
v 23.999935 -126.941658 -6.590381
v 20.786699 -128.233154 -13.889221
v 22.264196 -127.905128 -11.125094
v 19.669853 -128.153992 -15.250128
v 17.677700 -128.012802 -17.677622
v 16.307642 -127.670929 -18.801977
v 13.889300 -127.067520 -20.786684
v 12.300170 -126.466805 -21.636103
v 9.567090 -125.433662 -23.096985
v 7.798592 -124.581558 -23.633436
v 6.333654 -123.875725 -24.077808
v 5.125605 -123.608177 -24.444254
v 4.877260 -123.660278 -24.519587
v 3.023348 -123.977341 -24.702192
v 3.353686 -123.875717 -24.669655
v 27.022800 -217.732834 18.056131
v 25.711159 -217.258621 19.654356
v 22.981001 -216.271561 22.981031
v -19.866352 -216.231628 25.537184
v -18.056101 -215.939453 27.022833
v -22.981001 -216.669754 22.981031
v -22.823917 -216.708954 23.109949
v 13.878271 -218.881866 -29.255709
v 12.437200 -218.662430 -30.025974
v 18.056000 -219.518005 -27.022675
v -32.344830 -219.072800 -1.575368
v -32.500000 -218.439362 0.000036
v -31.875500 -218.369110 -6.340401
v -32.313854 -219.199249 -1.889863
v 4.035045 -216.326401 32.102665
v 6.340417 -216.011765 31.875633
v 4.228473 -216.359222 32.083618
v -0.000021 -215.641769 32.500034
v 30.026100 -218.510818 -12.437172
v 30.518606 -218.647308 -10.813559
v 31.875500 -217.689850 -6.340372
v 30.594603 -218.668365 -10.563024
v -21.678661 -218.691940 -24.049767
v -22.980972 -218.366989 -22.980974
v -18.218199 -219.555420 -26.889664
v -18.056000 -219.529251 -27.022776
v -24.409576 -216.568481 21.240326
v -27.022800 -216.383224 18.056131
v 30.026100 -216.979752 12.437231
v 29.053156 -217.272003 14.257520
v 27.143307 -217.845688 17.830673
v 7.942159 -218.732880 -31.389576
v 6.340425 -218.757965 -31.875475
v -32.068638 -217.622482 4.379591
v -31.875500 -217.256729 6.340477
v 10.124854 -215.952454 30.727600
v 12.437200 -215.916214 30.026133
v 27.022800 -219.412994 -18.055973
v 27.753845 -219.193390 -16.688278
v -25.864294 -218.162613 -19.467596
v -27.022772 -218.080505 -18.055973
v -14.478324 -216.334457 28.935152
v -12.437200 -216.559799 30.026133
v 31.875500 -217.492264 6.340500
v 31.280668 -217.327423 8.301424
v 1.445017 -219.563309 -32.357647
v -0.000013 -219.801041 -32.499973
v -30.614285 -217.413162 10.498210
v -30.026100 -217.050125 12.437231
v -30.468159 -217.431290 10.979933
v 16.045826 -216.465698 28.097290
v 18.056000 -216.217590 27.022833
v 16.647596 -216.557327 27.775637
v 22.981001 -219.602600 -22.980873
v 23.842714 -219.914139 -21.930883
v 25.240370 -220.419449 -20.227850
v -29.216234 -218.567535 -13.952279
v -29.831701 -218.704178 -12.800856
v -30.026100 -218.598495 -12.437172
v -6.340462 -215.979141 31.875633
v -8.489422 -216.591705 31.223728
v -10.555436 -217.180634 30.596983
v 32.500000 -217.212784 0.000064
v 32.300133 -217.365463 2.029262
v 31.927250 -217.650314 5.815090
v -11.293924 -220.526733 -30.372873
v -12.437200 -220.149521 -30.026073
v -9.437501 -221.139236 -30.935999
v -6.340398 -220.256470 -31.875473
v 21.174873 -216.251770 24.463268
v 19.178934 -219.560928 -26.101116
v 18.143682 -219.549591 -26.950716
v -31.366323 -218.432266 -8.018965
v -2.452672 -215.772278 32.258499
v 32.070778 -217.540680 -4.357745
v -16.800070 -219.667892 -27.694082
v -28.078138 -216.617569 16.081692
v -5.061522 -220.188400 -32.001438
v -0.463660 -219.943665 -32.454308
vt 0.751147 0.986097
vt 0.759821 0.977422
vt 0.766637 0.967222
vt 0.771331 0.955889
vt 0.773725 0.943857
vt 0.773725 0.931590
vt 0.771331 0.919558
vt 0.766637 0.908224
vt 0.759821 0.898024
vt 0.751147 0.889350
vt 0.740947 0.882535
vt 0.729613 0.877840
vt 0.717582 0.875447
vt 0.705314 0.875447
vt 0.693282 0.877840
vt 0.681949 0.882535
vt 0.671749 0.889350
vt 0.663075 0.898024
vt 0.656259 0.908224
vt 0.651565 0.919558
vt 0.649171 0.931590
vt 0.649171 0.943857
vt 0.651565 0.955889
vt 0.656259 0.967223
vt 0.663075 0.977422
vt 0.671749 0.986097
vt 0.681949 0.992912
vt 0.693283 0.997607
vt 0.705314 1.000000
vt 0.717582 1.000000
vt 0.729613 0.997607
vt 0.740947 0.992912
vt 0.505941 0.772022
vt 0.517072 0.758813
vt 0.512044 0.757288
vt 0.510575 0.774499
vt 0.348007 0.725184
vt 0.353236 0.725699
vt 0.356347 0.710058
vt 0.351319 0.708533
vt 0.520669 0.936921
vt 0.524091 0.919716
vt 0.524091 0.902173
vt 0.520669 0.884968
vt 0.513955 0.868761
vt 0.504209 0.854175
vt 0.491805 0.841770
vt 0.477219 0.832024
vt 0.461012 0.825311
vt 0.443807 0.821889
vt 0.426264 0.821889
vt 0.409059 0.825311
vt 0.392852 0.832024
vt 0.378266 0.841770
vt 0.365861 0.854175
vt 0.356115 0.868761
vt 0.349402 0.884968
vt 0.345980 0.902173
vt 0.345980 0.919716
vt 0.349402 0.936921
vt 0.356115 0.953128
vt 0.365861 0.967714
vt 0.378266 0.980118
vt 0.392852 0.989865
vt 0.409059 0.996578
vt 0.426264 1.000000
vt 0.443807 1.000000
vt 0.461012 0.996578
vt 0.477219 0.989864
vt 0.491805 0.980118
vt 0.504209 0.967714
vt 0.513955 0.953128
vt 0.379254 0.666726
vt 0.382587 0.670788
vt 0.395847 0.661928
vt 0.393370 0.657294
vt 0.497081 0.785282
vt 0.501143 0.788615
vt 0.410581 0.655825
vt 0.409055 0.650797
vt 0.485804 0.796558
vt 0.489138 0.800620
vt 0.426222 0.652713
vt 0.425707 0.647484
vt 0.472544 0.805419
vt 0.475021 0.810052
vt 0.442169 0.652713
vt 0.442684 0.647484
vt 0.457811 0.811521
vt 0.459336 0.816549
vt 0.457811 0.655825
vt 0.459336 0.650797
vt 0.442169 0.814633
vt 0.442684 0.819862
vt 0.472544 0.661928
vt 0.475021 0.657294
vt 0.426222 0.814633
vt 0.425707 0.819862
vt 0.485804 0.670788
vt 0.489138 0.666726
vt 0.410580 0.811521
vt 0.409055 0.816549
vt 0.497081 0.682064
vt 0.501143 0.678731
vt 0.395847 0.805418
vt 0.393370 0.810052
vt 0.505941 0.695324
vt 0.510575 0.692847
vt 0.382587 0.796558
vt 0.379254 0.800620
vt 0.512044 0.710058
vt 0.517072 0.708533
vt 0.348007 0.742162
vt 0.353236 0.741647
vt 0.371310 0.785282
vt 0.367249 0.788615
vt 0.515155 0.725699
vt 0.520384 0.725184
vt 0.362450 0.695324
vt 0.357816 0.692847
vt 0.362450 0.772022
vt 0.357816 0.774498
vt 0.515155 0.741647
vt 0.520384 0.742162
vt 0.371310 0.682064
vt 0.367249 0.678731
vt 0.356347 0.757288
vt 0.351319 0.758813
vt 0.345980 0.514043
vt 0.389784 0.514043
vt 0.389784 0.470239
vt 0.349512 0.470239
vt 0.345980 0.473771
vt 0.652612 0.601653
vt 0.652612 0.645457
vt 0.696416 0.601653
vt 0.346158 0.428414
vt 0.385332 0.469301
vt 0.387754 0.468409
vt 0.387672 0.429329
vt 0.429186 0.430244
vt 0.429268 0.469324
vt 0.470782 0.470239
vt 0.470700 0.431159
vt 0.433589 0.514043
vt 0.477393 0.514043
vt 0.477393 0.470239
vt 0.433589 0.470239
vt 0.521198 0.601653
vt 0.565003 0.645457
vt 0.565003 0.601653
vt 0.608807 0.601653
vt 0.608807 0.645457
vt 0.428925 0.306150
vt 0.429007 0.345230
vt 0.470521 0.346145
vt 0.470439 0.307065
vt 0.607306 0.914949
vt 0.607306 0.958754
vt 0.648914 0.958754
vt 0.648914 0.914949
vt 0.607306 0.871144
vt 0.648914 0.871144
vt 0.553761 0.301710
vt 0.553840 0.341888
vt 0.595370 0.342078
vt 0.595291 0.301901
vt 0.678040 0.401049
vt 0.678190 0.434850
vt 0.719324 0.439164
vt 0.719174 0.405364
vt 0.677889 0.367249
vt 0.719024 0.371564
vt 0.652612 0.470239
vt 0.608807 0.470239
vt 0.608807 0.514043
vt 0.652612 0.514043
vt 0.608807 0.557848
vt 0.652612 0.557848
vt 0.565003 0.470239
vt 0.565003 0.514043
vt 0.565003 0.557848
vt 0.634211 0.330856
vt 0.595620 0.358619
vt 0.636755 0.362934
vt 0.636616 0.331860
vt 0.521198 0.514043
vt 0.521198 0.557848
vt 0.389784 0.645457
vt 0.433589 0.645457
vt 0.433589 0.601653
vt 0.389784 0.601653
vt 0.433589 0.557848
vt 0.389784 0.557848
vt 0.477393 0.645457
vt 0.477393 0.601653
vt 0.477393 0.557848
vt 0.607306 0.999026
vt 0.648914 0.999026
vt 0.521198 0.601653
vt 0.521198 0.557848
vt 0.521198 0.514043
vt 0.554012 0.429291
vt 0.554090 0.469468
vt 0.595620 0.469659
vt 0.595541 0.429482
vt 0.345980 0.601653
vt 0.345980 0.557848
vt 0.696416 0.514043
vt 0.696416 0.557848
vt 0.607306 0.830872
vt 0.648914 0.830872
vt 0.553926 0.385589
vt 0.595455 0.385780
vt 0.677751 0.336174
vt 0.718886 0.340489
vt 0.429096 0.387737
vt 0.470610 0.388652
vt 0.345980 0.343399
vt 0.346069 0.385907
vt 0.387583 0.386822
vt 0.387494 0.344314
vt 0.470782 0.341506
vt 0.470867 0.385208
vt 0.512397 0.385399
vt 0.512311 0.341697
vt 0.470953 0.428910
vt 0.512482 0.429100
vt 0.512561 0.469278
vt 0.349512 0.645457
vt 0.345980 0.641925
vt 0.595770 0.392420
vt 0.636905 0.396735
vt 0.595920 0.426220
vt 0.637055 0.430535
vt 0.637193 0.461609
vt 0.678328 0.465924
vt 0.719463 0.470239
vt 0.524091 0.871144
vt 0.524091 0.914949
vt 0.565699 0.914949
vt 0.565699 0.871144
vt 0.524091 0.958754
vt 0.565699 0.958754
vt 0.387411 0.305235
vt 0.563269 1.000000
vt 0.565699 0.999026
vt 0.512232 0.301519
vt 0.634794 0.462109
vt 0.565699 0.830872
vt 0.510138 0.470239
vt 0.517666 0.645457
vt 0.521198 0.641925
vt 0.521198 0.473771
vt 0.517666 0.470239
vt 0.509805 0.300536
vt 0.563269 0.829898
vt 0.384985 0.304236
vt 0.554091 0.297944
vt 0.595620 0.298135
vt 0.719463 0.335546
vt 0.678328 0.331231
vt 0.470782 0.302788
vt 0.429268 0.301872
vt 0.649171 0.827340
vt 0.607564 0.827340
vt 0.000000 0.000000
vt 0.000000 0.000000
vt 0.000000 0.000000
vt 0.000000 0.000000
vt 0.000000 0.000000
vt 0.000000 0.000000
vt 0.000000 0.000000
vt 0.000000 0.000000
vt 0.000000 0.000000
vt 0.000000 0.000000
vt 0.000000 0.000000
vt 0.000000 0.000000
vt 0.000000 0.000000
vt 0.000000 0.000000
vt 0.000000 0.000000
vt 0.000000 0.000000
vt 0.000000 0.000000
vt 0.000000 0.000000
vt 0.000000 0.000000
vt 0.000000 0.000000
vt 0.000000 0.000000
vt 0.000000 0.000000
vt 0.000000 0.000000
vt 0.000000 0.000000
vt 0.000000 0.000000
vt 0.000000 0.000000
vt 0.000000 0.000000
vt 0.000000 0.000000
vt 0.000000 0.000000
vt 0.000000 0.000000
vt 0.000000 0.000000
vt 0.000000 0.000000
vt 0.000000 0.000000
vt 0.000000 0.000000
vt 0.000000 0.000000
vt 0.000000 0.000000
vt 0.000000 0.000000
vt 0.000000 0.000000
vt 0.000000 0.000000
vt 0.000000 0.000000
vt 0.000000 0.000000
vt 0.000000 0.000000
vt 0.000000 0.000000
vt 0.000000 0.000000
vt 0.000000 0.000000
vt 0.000000 0.000000
vt 0.000000 0.000000
vt 0.000000 0.000000
vt 0.000000 0.000000
vt 0.000000 0.000000
vt 0.000000 0.000000
vt 0.000000 0.000000
vt 0.000000 0.000000
vt 0.000000 0.000000
vt 0.000000 0.000000
vt 0.000000 0.000000
vt 0.000000 0.000000
vt 0.000000 0.000000
vt 0.000000 0.000000
vt 0.000000 0.000000
vt 0.000000 0.000000
vt 0.000000 0.000000
vt 0.000000 0.000000
vt 0.000000 0.000000
vt 0.000000 0.000000
vt 0.000000 0.000000
vt 0.000000 0.000000
vt 0.000000 0.000000
vt 0.000000 0.000000
vt 0.000000 0.000000
vt 0.000000 0.000000
vt 0.000000 0.000000
vt 0.000000 0.000000
vt 0.000000 0.000000
vt 0.000000 0.000000
vt 0.000000 0.000000
vt 0.000000 0.000000
vt 0.000000 0.000000
vt 0.000000 0.000000
vt 0.000000 0.000000
vt 0.000000 0.000000
vt 0.000000 0.000000
vt 0.000000 0.000000
vt 0.000000 0.000000
vt 0.000000 0.000000
vt 0.000000 0.000000
vt 0.000000 0.000000
vt 0.000000 0.000000
vt 0.000000 0.000000
vt 0.000000 0.000000
vt 0.000000 0.000000
vt 0.000000 0.000000
vt 0.000000 0.000000
vt 0.000000 0.000000
vt 0.000000 0.000000
vt 0.000000 0.000000
vt 0.000000 0.000000
vt 0.000000 0.000000
vt 0.000000 0.000000
vt 0.000000 0.000000
vt 0.000000 0.000000
vt 0.000000 0.000000
vt 0.000000 0.000000
vt 0.000000 0.000000
vt 0.000000 0.000000
vt 0.000000 0.000000
vt 0.000000 0.000000
vt 0.000000 0.000000
vt 0.000000 0.000000
vt 0.000000 0.000000
vt 0.000000 0.000000
vt 0.000000 0.000000
vt 0.000000 0.000000
vt 0.000000 0.000000
vt 0.000000 0.000000
vt 0.000000 0.000000
vt 0.000000 0.000000
vt 0.000000 0.000000
vt 0.000000 0.000000
vt 0.000000 0.000000
vt 0.000000 0.000000
vt 0.000000 0.000000
vt 0.000000 0.000000
vt 0.000000 0.000000
vt 0.000000 0.000000
vt 0.000000 0.000000
vt 0.000000 0.000000
vt 0.000000 0.000000
vt 0.000000 0.000000
vt 0.000000 0.000000
vt 0.000000 0.000000
vt 0.000000 0.000000
vt 0.000000 0.000000
vt 0.000000 0.000000
vt 0.000000 0.000000
vt 0.000000 0.000000
vt 0.000000 0.000000
vt 0.000000 0.000000
vt 0.000000 0.000000
vt 0.000000 0.000000
vt 0.000000 0.000000
vt 0.000000 0.000000
vt 0.000000 0.000000
vt 0.000000 0.000000
vt 0.000000 0.000000
vt 0.000000 0.000000
vt 0.000000 0.000000
vt 0.000000 0.000000
vt 0.000000 0.000000
vt 0.000000 0.000000
vt 0.000000 0.000000
vt 0.000000 0.000000
vt 0.000000 0.000000
vt 0.000000 0.000000
vt 0.000000 0.000000
vt 0.000000 0.000000
vt 0.000000 0.000000
vt 0.000000 0.000000
vt 0.000000 0.000000
vt 0.000000 0.000000
vt 0.000000 0.000000
vt 0.000000 0.000000
vt 0.000000 0.000000
vt 0.000000 0.000000
vt 0.000000 0.000000
vt 0.000000 0.000000
vt 0.221873 0.500155
vt 0.209738 0.500328
vt 0.209738 0.998615
vt 0.221873 0.998441
vt 0.234126 0.500213
vt 0.234126 0.998500
vt 0.246025 0.500501
vt 0.246025 0.998788
vt 0.257113 0.501008
vt 0.257113 0.999294
vt 0.266964 0.501713
vt 0.266964 1.000000
vt 0.335161 0.500361
vt 0.345980 0.499939
vt 0.345980 0.000648
vt 0.335161 0.001069
vt 0.323422 0.500621
vt 0.323422 0.001329
vt 0.311213 0.500708
vt 0.311213 0.001416
vt 0.299005 0.500621
vt 0.299005 0.001329
vt 0.287266 0.500361
vt 0.287266 0.001069
vt 0.276447 0.499939
vt 0.276447 0.000648
vt 0.266964 0.499372
vt 0.266964 0.000080
vt 0.094293 0.500415
vt 0.103218 0.499615
vt 0.103218 0.001258
vt 0.094293 0.002058
vt 0.083898 0.501034
vt 0.083898 0.002677
vt 0.072431 0.501449
vt 0.072431 0.003091
vt 0.060334 0.501642
vt 0.060334 0.003285
vt 0.048072 0.501608
vt 0.048072 0.003251
vt 0.036116 0.501347
vt 0.036116 0.002990
vt 0.024925 0.500870
vt 0.024925 0.002512
vt 0.014929 0.500194
vt 0.014929 0.001836
vt 0.006513 0.499346
vt 0.006513 0.000988
vt 0.000000 0.498358
vt 0.000000 0.000000
vt 0.180943 0.500657
vt 0.187663 0.499315
vt 0.187663 0.002990
vt 0.180943 0.004333
vt 0.172350 0.501802
vt 0.172350 0.005478
vt 0.162214 0.502705
vt 0.162214 0.006381
vt 0.150925 0.503333
vt 0.150925 0.007009
vt 0.138916 0.503661
vt 0.138916 0.007337
vt 0.126649 0.503676
vt 0.126649 0.007352
vt 0.114595 0.503378
vt 0.114595 0.007054
vt 0.103218 0.502778
vt 0.103218 0.006453
vt 0.198187 0.500727
vt 0.187663 0.501335
vt 0.187663 0.999622
vt 0.198187 0.999013
vt 0.364796 0.199834
vt 0.366191 0.195823
vt 0.346655 0.199964
vt 0.347304 0.187631
vt 0.369093 0.187475
vt 0.719122 0.538657
vt 0.697010 0.543703
vt 0.719585 0.543428
vt 0.718485 0.530446
vt 0.697730 0.530699
vt 0.718365 0.530862
vt 0.198187 0.187529
vt 0.205418 0.188532
vt 0.209738 0.189130
vt 0.187663 0.187955
vt 0.194279 0.187687
vt 0.114595 0.813891
vt 0.107454 0.814539
vt 0.103218 0.814924
vt 0.126649 0.810957
vt 0.119139 0.812727
vt 0.125632 0.811063
vt 0.131343 0.810070
vt 0.138916 0.808640
vt 0.143535 0.808946
vt 0.150925 0.809983
vt 0.139742 0.808414
vt 0.157871 0.810359
vt 0.162214 0.811155
vt 0.155228 0.810216
vt 0.166044 0.811158
vt 0.172350 0.811163
vt 0.175593 0.810387
vt 0.180943 0.809107
vt 0.183501 0.807570
vt 0.183528 0.807553
vt 0.187663 0.805964
vt 0.005327 0.805419
vt 0.006513 0.806140
vt 0.002499 0.805867
vt 0.000000 0.806264
vt 0.013348 0.808707
vt 0.014929 0.809811
vt 0.009733 0.807349
vt 0.018689 0.811344
vt 0.024925 0.813887
vt 0.029073 0.814672
vt 0.036116 0.816004
vt 0.040525 0.816033
vt 0.048072 0.816082
vt 0.052615 0.815354
vt 0.060334 0.814117
vt 0.064880 0.812639
vt 0.072431 0.810185
vt 0.076769 0.811107
vt 0.083898 0.814349
vt 0.072569 0.810116
vt 0.073530 0.809875
vt 0.074441 0.810048
vt 0.087726 0.815621
vt 0.094293 0.817802
vt 0.097519 0.818364
vt 0.103218 0.819357
vt 0.270359 0.820114
vt 0.276447 0.820831
vt 0.266964 0.819714
vt 0.287266 0.819972
vt 0.280323 0.820523
vt 0.299005 0.817169
vt 0.291517 0.818957
vt 0.311213 0.814087
vt 0.303516 0.815464
vt 0.303474 0.815471
vt 0.315751 0.814399
vt 0.320260 0.815205
vt 0.323422 0.816407
vt 0.312065 0.813739
vt 0.327710 0.817430
vt 0.335161 0.819209
vt 0.339061 0.819519
vt 0.345980 0.820068
vt 0.257113 0.182072
vt 0.263425 0.182173
vt 0.266964 0.182229
vt 0.246025 0.183921
vt 0.253103 0.182741
vt 0.234126 0.187704
vt 0.241650 0.185312
vt 0.222522 0.192196
vt 0.221873 0.192063
vt 0.229505 0.189805
vt 0.225678 0.191545
vt 0.217260 0.191339
vt 0.218082 0.191581
vt 0.533858 0.251496
vt 0.474307 0.251924
vt 0.474057 0.268713
vt 0.533607 0.268285
vt 0.610940 0.232892
vt 0.595620 0.236932
vt 0.611409 0.236857
vt 0.609579 0.221397
vt 0.595921 0.221462
vt 0.734850 0.321828
vt 0.720311 0.324509
vt 0.736578 0.325176
vt 0.736118 0.311969
vt 0.719677 0.311295
vt 0.734505 0.321160
vt 0.718459 0.599486
vt 0.697010 0.605466
vt 0.719405 0.605193
vt 0.718391 0.599967
vt 0.696566 0.589744
vt 0.719883 0.589460
vt 0.362854 0.276178
vt 0.362394 0.272117
vt 0.346655 0.276294
vt 0.346208 0.261036
vt 0.362324 0.271490
vt 0.364457 0.260905
vt 0.720311 0.265047
vt 0.736757 0.265722
vt 0.736224 0.261553
vt 0.734905 0.249963
vt 0.721340 0.249407
vt 0.734806 0.250476
vt 0.719080 0.526571
vt 0.720168 0.519483
vt 0.698699 0.519745
vt 0.366229 0.213888
vt 0.365645 0.209336
vt 0.346208 0.214032
vt 0.364497 0.200400
vt 0.595620 0.252860
vt 0.611171 0.252786
vt 0.611234 0.248601
vt 0.739314 0.333010
vt 0.721340 0.335731
vt 0.740539 0.336518
vt 0.720363 0.620088
vt 0.719999 0.614439
vt 0.697730 0.620364
vt 0.361251 0.290254
vt 0.361641 0.286827
vt 0.347304 0.290354
vt 0.736812 0.277110
vt 0.719677 0.280982
vt 0.736834 0.281685
vt 0.718318 0.552708
vt 0.696566 0.558258
vt 0.717595 0.558002
vt 0.364722 0.229160
vt 0.365207 0.224248
vt 0.345980 0.229295
vt 0.595921 0.268635
vt 0.608873 0.268573
vt 0.609397 0.264975
vt 0.741097 0.342504
vt 0.722726 0.344531
vt 0.742438 0.345339
vt 0.741161 0.343197
vt 0.719616 0.628778
vt 0.698699 0.633868
vt 0.720581 0.633601
vt 0.719492 0.630227
vt 0.609957 0.206980
vt 0.609363 0.204252
vt 0.596510 0.207044
vt 0.597366 0.194234
vt 0.608400 0.199829
vt 0.611285 0.194167
vt 0.735087 0.296227
vt 0.735470 0.293041
vt 0.719463 0.296598
vt 0.735335 0.297249
vt 0.718892 0.573530
vt 0.717419 0.568069
vt 0.696416 0.573804
vt 0.716002 0.562819
vt 0.365420 0.245027
vt 0.365038 0.239950
vt 0.345980 0.245166
vt 0.364327 0.230478
vt 0.597366 0.297326
vt 0.609450 0.297269
vt 0.608350 0.294708
vt 0.608328 0.283593
vt 0.596510 0.283649
vt 0.606564 0.290551
vt 0.747961 0.772976
vt 0.807392 0.772692
vt 0.807392 0.755171
vt 0.747961 0.755455
vt 0.721628 0.645192
vt 0.721244 0.640942
vt 0.699880 0.645457
vt 0.609510 0.221140
vt 0.609606 0.218110
vt 0.735903 0.307916
vt 0.719500 0.583298
vt 0.364758 0.255940
vt 0.683304 0.709959
vt 0.742740 0.709235
vt 0.743532 0.694931
vt 0.684096 0.695655
vt 0.734871 0.246653
vt 0.734753 0.235154
vt 0.722726 0.234661
vt 0.720000 0.516510
vt 0.719688 0.511022
vt 0.699880 0.511263
vt 0.779544 0.382807
vt 0.719698 0.397909
vt 0.778846 0.400335
vt 0.720395 0.380381
vt 0.532402 0.184331
vt 0.472851 0.184758
vt 0.473565 0.200225
vt 0.533116 0.199797
vt 0.684096 0.794287
vt 0.743532 0.793563
vt 0.742740 0.777174
vt 0.683304 0.777898
vt 0.721528 0.458133
vt 0.780676 0.460559
vt 0.779544 0.448214
vt 0.720396 0.445789
vt 0.473565 0.284188
vt 0.533116 0.283760
vt 0.682816 0.725970
vt 0.742252 0.725245
vt 0.780676 0.365602
vt 0.721528 0.363177
vt 0.474057 0.217009
vt 0.533607 0.216581
vt 0.742252 0.759880
vt 0.682816 0.760605
vt 0.778846 0.433679
vt 0.719698 0.431253
vt 0.748291 0.790328
vt 0.807723 0.790044
vt 0.472851 0.297754
vt 0.532402 0.297326
vt 0.744599 0.682882
vt 0.685162 0.683606
vt 0.782200 0.349382
vt 0.723052 0.346956
vt 0.474307 0.234465
vt 0.533858 0.234038
vt 0.742087 0.742346
vt 0.682651 0.743070
vt 0.778611 0.417512
vt 0.719463 0.415087
vt 0.748291 0.738438
vt 0.807723 0.738154
vt 0.808372 0.722295
vt 0.748940 0.722579
vt 0.686462 0.821889
vt 0.745898 0.821165
vt 0.744599 0.808416
vt 0.685162 0.809141
vt 0.745898 0.673551
vt 0.686462 0.674276
vt 0.749882 0.821889
vt 0.809313 0.821605
vt 0.808372 0.806560
vt 0.748940 0.806844
vt 0.809313 0.708203
vt 0.749882 0.708487
vt 0.723052 0.467813
vt 0.782200 0.470239
vt 0.696416 0.642899
vt 0.693858 0.645457
vt 0.385233 0.301138
vt 0.350225 0.290354
vt 0.634629 0.327276
vt 0.602772 0.297326
vt 0.512561 0.297754
vt 0.510043 0.297809
vt 0.637193 0.326917
vt 0.565956 0.827340
vt 0.563455 0.827340
vt 0.387754 0.300957
vt 0.696416 0.472797
vt 0.693858 0.470239
vt 0.345980 0.724984
vt 0.349370 0.707941
vt 0.809491 0.772641
vt 0.809491 0.755285
vt 0.356020 0.691887
vt 0.809819 0.738429
vt 0.365674 0.677439
vt 0.810461 0.722719
vt 0.377961 0.665151
vt 0.811394 0.708760
vt 0.392410 0.655497
vt 0.470782 0.185242
vt 0.471489 0.200563
vt 0.408464 0.648847
vt 0.471976 0.217188
vt 0.425507 0.645457
vt 0.472224 0.234480
vt 0.442884 0.645457
vt 0.472224 0.251774
vt 0.459927 0.648847
vt 0.471976 0.268405
vt 0.475981 0.655497
vt 0.471489 0.283734
vt 0.490430 0.665151
vt 0.470782 0.297172
vt 0.502717 0.677439
vt 0.746674 0.807875
vt 0.747961 0.820503
vt 0.512371 0.691887
vt 0.745618 0.793161
vt 0.519021 0.707941
vt 0.744833 0.776927
vt 0.522411 0.724985
vt 0.744350 0.759797
vt 0.522411 0.742362
vt 0.744186 0.742428
vt 0.519021 0.759405
vt 0.744349 0.725488
vt 0.512371 0.775459
vt 0.744833 0.709629
vt 0.502717 0.789907
vt 0.745618 0.695459
vt 0.490430 0.802195
vt 0.746674 0.683524
vt 0.475981 0.811849
vt 0.747961 0.674282
vt 0.459927 0.818499
vt 0.782781 0.459987
vt 0.784290 0.469576
vt 0.442884 0.821889
vt 0.781659 0.447759
vt 0.425507 0.821889
vt 0.780968 0.433361
vt 0.408464 0.818499
vt 0.780735 0.417347
vt 0.392410 0.811849
vt 0.780968 0.400331
vt 0.377961 0.802195
vt 0.781659 0.382969
vt 0.365674 0.789907
vt 0.782781 0.365926
vt 0.356020 0.775459
vt 0.784290 0.349859
vt 0.349370 0.759404
vt 0.811394 0.821093
vt 0.810462 0.806190
vt 0.345980 0.742361
vt 0.809819 0.789830
vt 0.608379 0.280563
vt 0.608561 0.269673
vn 0.0000 1.0000 0.0000
vn 0.0000 -1.0000 -0.0000
vn 0.0000 -0.0000 -1.0000
vn 1.0000 0.0000 0.0000
vn 0.0000 0.0000 1.0000
vn -1.0000 -0.0000 0.0000
vn -0.7071 0.0000 0.7071
vn -0.7071 -0.0000 -0.7071
vn 0.7071 -0.0000 -0.7071
vn 0.7071 0.0000 0.7071
vn -0.7240 -0.6617 0.1947
vn -0.2680 -0.9435 0.1947
vn -0.4911 -0.7947 0.3568
vn 0.1024 -0.9435 0.3151
vn 0.1876 -0.7947 0.5773
vn 0.3313 -0.9435 -0.0000
vn 0.6071 -0.7947 0.0000
vn 0.1024 -0.9435 -0.3151
vn 0.1876 -0.7947 -0.5773
vn -0.2680 -0.9435 -0.1947
vn -0.4911 -0.7947 -0.3568
vn -0.7240 -0.6617 -0.1947
vn -0.1024 0.9435 -0.3151
vn -0.7002 0.6617 -0.2680
vn 0.2680 0.9435 -0.1947
vn 0.2680 0.9435 0.1947
vn -0.1024 0.9435 0.3151
vn -0.4713 0.6617 0.5831
vn -0.1876 0.7947 0.5773
vn 0.0385 0.6617 0.7488
vn 0.4089 0.6617 0.6284
vn 0.4911 0.7947 0.3568
vn 0.7240 0.6617 0.1947
vn 0.7240 0.6617 -0.1947
vn 0.4911 0.7947 -0.3568
vn 0.4089 0.6617 -0.6284
vn -0.7002 0.6617 0.2680
vn -0.6071 0.7947 0.0000
vn -0.3313 0.9435 0.0000
vn 0.0385 0.6617 -0.7488
vn -0.1876 0.7947 -0.5773
vn -0.4713 0.6617 -0.5831
vn 0.1951 -0.0000 -0.9808
vn 0.3827 -0.0000 -0.9239
vn 0.5556 -0.0000 -0.8315
vn 0.8125 -0.0000 -0.5830
vn 0.8486 0.0115 -0.5289
vn 0.9239 -0.0000 -0.3827
vn 0.9808 -0.0000 -0.1951
vn 0.9808 0.0000 0.1951
vn 0.9239 0.0000 0.3827
vn 0.8315 0.0000 0.5556
vn 0.7303 0.0000 0.6831
vn 0.6843 0.0115 0.7291
vn 0.5556 0.0000 0.8315
vn 0.3827 0.0000 0.9239
vn 0.1951 0.0000 0.9808
vn -0.1951 0.0000 0.9808
vn -0.3827 0.0000 0.9239
vn -0.5556 0.0000 0.8315
vn -0.8315 0.0000 0.5556
vn -0.9106 0.0000 0.4133
vn -0.9355 0.0115 0.3532
vn -0.9808 0.0000 0.1951
vn -0.9808 -0.0000 -0.1951
vn -0.9239 -0.0000 -0.3827
vn -0.8315 -0.0000 -0.5556
vn -0.5556 -0.0000 -0.8315
vn -0.4133 -0.0000 -0.9106
vn -0.3532 0.0115 -0.9355
vn -0.1951 -0.0000 -0.9808
vn 0.8194 0.0000 0.5732
vn 0.7730 0.0000 0.6344
vn 0.7015 0.0000 0.7127
vn -0.6344 0.0000 0.7730
vn -0.5548 0.0000 0.8320
vn -0.7126 0.0000 0.7016
vn -0.2008 -0.0000 -0.9796
vn -0.0980 -0.0000 -0.9952
vn -0.0150 -0.0000 -0.9999
vn -0.3791 -0.0000 -0.9254
vn -0.2903 -0.0000 -0.9569
vn -0.5445 -0.0000 -0.8388
vn -0.4714 -0.0000 -0.8819
vn -0.7000 -0.0000 -0.7142
vn -0.6344 -0.0000 -0.7730
vn -0.7730 -0.0000 -0.6344
vn -0.8239 -0.0000 -0.5668
vn -0.8819 -0.0000 -0.4714
vn -0.9271 -0.0000 -0.3748
vn -0.9569 -0.0000 -0.2903
vn -0.9826 -0.0000 -0.1856
vn -0.9952 -0.0000 -0.0980
vn -0.9952 0.0000 0.0980
vn -0.9826 0.0000 0.1856
vn -0.9569 0.0000 0.2903
vn -0.9271 0.0000 0.3748
vn -0.8819 0.0000 0.4714
vn -0.8239 0.0000 0.5668
vn -0.7730 0.0000 0.6344
vn -0.6917 0.0000 0.7222
vn -0.5445 0.0000 0.8388
vn -0.4714 0.0000 0.8819
vn -0.3791 0.0000 0.9254
vn -0.2903 0.0000 0.9569
vn -0.2008 0.0000 0.9796
vn -0.0980 0.0000 0.9952
vn -0.0150 0.0000 0.9999
vn 0.0980 0.0000 0.9952
vn 0.1724 0.0000 0.9850
vn 0.2903 0.0000 0.9569
vn 0.4052 0.0000 0.9142
vn 0.4714 0.0000 0.8819
vn 0.5694 0.0000 0.8220
vn 0.6344 0.0000 0.7730
vn 0.7126 0.0000 0.7016
vn 0.8304 0.0000 0.5572
vn 0.9194 0.0000 0.3933
vn 0.8819 0.0000 0.4714
vn 0.9767 0.0000 0.2147
vn 0.9569 0.0000 0.2903
vn 0.9998 -0.0000 0.0189
vn 0.9952 0.0000 0.0980
vn 0.9952 -0.0000 -0.0980
vn 0.9767 -0.0000 -0.2147
vn 0.9569 -0.0000 -0.2903
vn 0.9194 -0.0000 -0.3933
vn 0.8819 -0.0000 -0.4714
vn 0.8304 -0.0000 -0.5572
vn 0.7126 -0.0000 -0.7016
vn 0.7730 -0.0000 -0.6344
vn 0.5694 -0.0000 -0.8220
vn 0.6344 -0.0000 -0.7730
vn 0.4052 -0.0000 -0.9142
vn 0.4714 -0.0000 -0.8819
vn 0.2903 -0.0000 -0.9569
vn 0.1845 -0.0000 -0.9828
vn 0.0980 -0.0000 -0.9952
vn 0.9622 0.1936 0.1914
vn 0.9064 0.1936 0.3754
vn 0.3791 -0.0000 -0.9254
vn 0.5445 -0.0000 -0.8388
vn -0.9998 0.0000 0.0189
vn -0.9798 0.0000 -0.2000
vn 0.2008 -0.0000 0.9796
vn -0.0039 0.0000 1.0000
vn 0.9247 0.0000 -0.3808
vn 0.9826 0.0000 -0.1856
vn -0.7126 0.0000 -0.7016
vn -0.5548 -0.0000 -0.8320
vn -0.8304 0.0000 0.5572
vn 0.9247 -0.0000 0.3808
vn 0.2008 -0.0000 -0.9796
vn -0.9798 0.0000 0.2000
vn 0.3791 0.0000 0.9254
vn 0.8404 -0.0000 -0.5420
vn 0.8315 -0.0000 -0.5556
vn -0.8304 0.0000 -0.5572
vn -0.3951 0.0000 0.9186
vn 0.9783 0.0000 0.2073
vn 0.0150 -0.0000 -0.9999
vn -0.9239 0.0000 0.3827
vn -0.9194 -0.0000 0.3933
vn 0.5612 0.0000 0.8277
vn 0.7015 -0.0000 -0.7127
vn -0.9275 -0.0000 -0.3737
vn -0.1845 0.0000 0.9828
vn -0.3827 -0.0000 -0.9239
vn -0.3951 -0.0000 -0.9186
vn -0.1845 0.0000 -0.9828
vn 0.1914 0.1936 -0.9622
vn 0.3754 0.1936 -0.9064
vn -0.5451 0.1936 0.8157
vn -0.6937 0.1936 0.6937
vn -0.6937 0.1936 -0.6937
vn -0.8157 0.1936 -0.5451
vn 0.8007 -0.0435 -0.5974
vn 0.8255 0.1939 -0.5300
vn 0.9064 0.1936 -0.3754
vn 0.3754 0.1936 0.9064
vn 0.1914 0.1936 0.9622
vn -0.9622 0.1936 0.1914
vn -0.9811 0.1936 -0.0000
vn 0.8157 0.1936 0.5451
vn -0.3754 0.1936 0.9064
vn -0.5451 0.1936 -0.8157
vn 0.9622 0.1936 -0.1914
vn 0.0000 0.1936 0.9811
vn -0.9622 0.1936 -0.1914
vn -0.0000 0.1936 -0.9811
vn 0.7053 0.1598 0.6907
vn 0.7250 -0.0218 0.6884
vn -0.8157 0.1936 0.5451
vn -0.3873 0.1598 -0.9080
vn -0.4064 -0.0218 -0.9134
vn 0.9811 0.1936 0.0000
vn -0.1914 0.1936 0.9622
vn -0.9064 0.1936 -0.3754
vn 0.5451 0.1936 -0.8157
vn 0.6937 0.1936 -0.6937
vn 0.5451 0.1936 0.8157
vn -0.9080 0.1597 0.3873
vn -0.9134 -0.0218 0.4064
vn -0.1914 0.1936 -0.9622
vn 0.4175 -0.2182 0.8821
vn 0.5677 -0.5961 0.5677
vn 0.7661 -0.0768 0.6381
vn 0.6908 -0.2139 -0.6907
vn 0.5677 -0.5961 -0.5677
vn 0.6907 -0.2138 -0.6908
vn -0.5677 -0.5961 -0.5677
vn -0.6907 -0.2138 -0.6908
vn -0.6908 -0.2138 -0.6908
vn -0.6908 -0.2138 0.6907
vn -0.7016 0.1246 0.7016
vn -0.7016 0.1246 -0.7016
vn 0.7016 0.1246 0.7016
vn 0.7016 0.1246 -0.7016
vn -0.5677 -0.5961 0.5677
vn 0.1400 0.6967 -0.7036
vn 0.0743 0.9247 -0.3733
vn 0.1457 0.9247 -0.3517
vn 0.2745 0.6967 -0.6627
vn 0.2115 0.9247 -0.3165
vn 0.3985 0.6967 -0.5965
vn 0.2691 0.9247 -0.2691
vn 0.5072 0.6967 -0.5072
vn 0.3165 0.9247 -0.2115
vn 0.5965 0.6967 -0.3985
vn 0.3517 0.9247 -0.1457
vn 0.6627 0.6967 -0.2745
vn 0.3733 0.9247 -0.0743
vn 0.7035 0.6967 -0.1399
vn 0.3807 0.9247 0.0000
vn 0.7174 0.6967 0.0000
vn 0.3733 0.9247 0.0743
vn 0.7035 0.6967 0.1399
vn 0.3517 0.9247 0.1457
vn 0.6627 0.6967 0.2745
vn 0.3165 0.9247 0.2115
vn 0.5965 0.6967 0.3985
vn 0.2692 0.9247 0.2692
vn 0.5072 0.6967 0.5072
vn 0.2115 0.9247 0.3165
vn 0.3985 0.6967 0.5964
vn 0.1457 0.9247 0.3517
vn 0.2745 0.6967 0.6627
vn 0.0743 0.9247 0.3733
vn 0.1399 0.6967 0.7036
vn -0.0000 0.9247 0.3807
vn 0.0000 0.6967 0.7174
vn -0.0743 0.9247 0.3733
vn -0.1399 0.6967 0.7036
vn -0.1457 0.9247 0.3517
vn -0.2745 0.6967 0.6627
vn -0.2115 0.9247 0.3165
vn -0.3985 0.6967 0.5964
vn -0.2692 0.9247 0.2692
vn -0.5072 0.6967 0.5072
vn -0.3165 0.9247 0.2115
vn -0.5964 0.6967 0.3985
vn -0.3517 0.9247 0.1457
vn -0.6628 0.6967 0.2745
vn -0.3733 0.9247 0.0743
vn -0.7036 0.6967 0.1399
vn -0.3807 0.9247 -0.0000
vn -0.7174 0.6967 -0.0000
vn -0.3733 0.9247 -0.0743
vn -0.7036 0.6967 -0.1399
vn -0.3517 0.9247 -0.1457
vn -0.6628 0.6967 -0.2745
vn -0.3165 0.9247 -0.2115
vn -0.5965 0.6967 -0.3986
vn -0.2691 0.9247 -0.2692
vn -0.5072 0.6967 -0.5072
vn -0.2115 0.9247 -0.3165
vn -0.3985 0.6967 -0.5965
vn -0.1457 0.9247 -0.3517
vn -0.2745 0.6967 -0.6627
vn -0.0743 0.9247 -0.3733
vn -0.1399 0.6967 -0.7036
vn -0.0000 0.9247 -0.3806
vn -0.0000 0.6967 -0.7173
usemtl Column1.001
s off
f 7/1/1 5/2/1 4/3/1
f 7/1/1 4/3/1 71/4/1
f 7/1/1 71/4/1 70/5/1
f 7/1/1 70/5/1 68/6/1
f 7/1/1 68/6/1 66/7/1
f 7/1/1 66/7/1 64/8/1
f 7/1/1 64/8/1 62/9/1
f 7/1/1 62/9/1 60/10/1
f 7/1/1 60/10/1 58/11/1
f 7/1/1 58/11/1 56/12/1
f 7/1/1 56/12/1 54/13/1
f 7/1/1 54/13/1 52/14/1
f 7/1/1 52/14/1 50/15/1
f 7/1/1 50/15/1 48/16/1
f 7/1/1 48/16/1 46/17/1
f 7/1/1 46/17/1 44/18/1
f 7/1/1 44/18/1 41/19/1
f 7/1/1 41/19/1 39/20/1
f 7/1/1 39/20/1 37/21/1
f 7/1/1 37/21/1 35/22/1
f 7/1/1 35/22/1 33/23/1
f 7/1/1 33/23/1 31/24/1
f 7/1/1 31/24/1 29/25/1
f 7/1/1 29/25/1 27/26/1
f 7/1/1 27/26/1 25/27/1
f 7/1/1 25/27/1 23/28/1
f 7/1/1 23/28/1 19/29/1
f 7/1/1 19/29/1 13/30/1
f 7/1/1 13/30/1 11/31/1
f 11/31/1 9/32/1 7/1/1
f 75/33/1 117/34/1 98/35/1
f 75/33/1 118/36/1 117/34/1
f 151/37/1 93/38/1 81/39/1
f 151/37/1 81/39/1 152/40/1
f 172/41/2 147/42/2 109/43/2
f 172/41/2 109/43/2 112/44/2
f 172/41/2 112/44/2 163/45/2
f 172/41/2 163/45/2 166/46/2
f 172/41/2 166/46/2 123/47/2
f 172/41/2 123/47/2 126/48/2
f 172/41/2 126/48/2 142/49/2
f 172/41/2 142/49/2 158/50/2
f 172/41/2 158/50/2 77/51/2
f 172/41/2 77/51/2 80/52/2
f 172/41/2 80/52/2 136/53/2
f 172/41/2 136/53/2 150/54/2
f 172/41/2 150/54/2 168/55/2
f 172/41/2 168/55/2 127/56/2
f 172/41/2 127/56/2 130/57/2
f 172/41/2 130/57/2 144/58/2
f 172/41/2 144/58/2 160/59/2
f 172/41/2 160/59/2 137/60/2
f 172/41/2 137/60/2 113/61/2
f 172/41/2 113/61/2 116/62/2
f 172/41/2 116/62/2 154/63/2
f 172/41/2 154/63/2 170/64/2
f 172/41/2 170/64/2 131/65/2
f 172/41/2 131/65/2 134/66/2
f 172/41/2 134/66/2 146/67/2
f 172/41/2 146/67/2 162/68/2
f 172/41/2 162/68/2 119/69/2
f 172/41/2 119/69/2 122/70/2
f 172/41/2 122/70/2 140/71/2
f 140/71/2 156/72/2 172/41/2
f 173/73/1 96/74/1 87/75/1
f 173/73/1 87/75/1 174/76/1
f 76/77/1 118/36/1 75/33/1
f 76/77/1 175/78/1 118/36/1
f 87/75/1 88/79/1 174/76/1
f 174/76/1 88/79/1 176/80/1
f 91/81/1 175/78/1 76/77/1
f 91/81/1 177/82/1 175/78/1
f 88/79/1 106/83/1 176/80/1
f 176/80/1 106/83/1 178/84/1
f 101/85/1 177/82/1 91/81/1
f 101/85/1 179/86/1 177/82/1
f 106/83/1 99/87/1 178/84/1
f 99/87/1 180/88/1 178/84/1
f 94/89/1 179/86/1 101/85/1
f 181/90/1 179/86/1 94/89/1
f 99/87/1 92/91/1 180/88/1
f 92/91/1 182/92/1 180/88/1
f 83/93/1 181/90/1 94/89/1
f 183/94/1 181/90/1 83/93/1
f 92/91/1 73/95/1 182/92/1
f 73/95/1 184/96/1 182/92/1
f 183/94/1 83/93/1 84/97/1
f 185/98/1 183/94/1 84/97/1
f 73/95/1 74/99/1 184/96/1
f 74/99/1 186/100/1 184/96/1
f 185/98/1 84/97/1 104/101/1
f 187/102/1 185/98/1 104/101/1
f 74/99/1 102/103/1 186/100/1
f 102/103/1 188/104/1 186/100/1
f 187/102/1 104/101/1 97/105/1
f 189/106/1 187/102/1 97/105/1
f 102/103/1 95/107/1 188/104/1
f 95/107/1 190/108/1 188/104/1
f 189/106/1 97/105/1 89/109/1
f 191/110/1 189/106/1 89/109/1
f 95/107/1 85/111/1 190/108/1
f 85/111/1 192/112/1 190/108/1
f 193/113/1 100/114/1 93/38/1
f 193/113/1 93/38/1 151/37/1
f 191/110/1 89/109/1 90/115/1
f 194/116/1 191/110/1 90/115/1
f 85/111/1 86/117/1 192/112/1
f 86/117/1 195/118/1 192/112/1
f 152/40/1 81/39/1 82/119/1
f 152/40/1 82/119/1 196/120/1
f 194/116/1 90/115/1 107/121/1
f 197/122/1 194/116/1 107/121/1
f 105/123/1 195/118/1 86/117/1
f 105/123/1 198/124/1 195/118/1
f 196/120/1 82/119/1 103/125/1
f 196/120/1 103/125/1 199/126/1
f 197/122/1 107/121/1 108/127/1
f 200/128/1 197/122/1 108/127/1
f 98/35/1 198/124/1 105/123/1
f 98/35/1 117/34/1 198/124/1
f 199/126/1 103/125/1 96/74/1
f 199/126/1 96/74/1 173/73/1
f 200/128/1 108/127/1 100/114/1
f 193/113/1 200/128/1 100/114/1
f 209/129/1 210/130/1 211/131/1
f 209/129/1 211/131/1 212/132/1
f 212/132/1 213/133/1 209/129/1
f 214/134/2 203/135/2 202/136/2
f 215/137/3 216/138/3 217/139/3
f 217/139/3 218/140/3 215/137/3
f 219/141/3 220/142/3 221/143/3
f 221/143/3 222/144/3 219/141/3
f 223/145/1 224/146/1 225/147/1
f 225/147/1 226/148/1 223/145/1
f 210/130/1 223/145/1 226/148/1
f 226/148/1 211/131/1 210/130/1
f 207/149/2 206/150/2 227/151/2
f 228/152/2 227/151/2 206/150/2
f 206/150/2 229/153/2 228/152/2
f 214/134/2 228/152/2 229/153/2
f 229/153/2 203/135/2 214/134/2
f 230/154/3 231/155/3 232/156/3
f 232/156/3 233/157/3 230/154/3
f 234/158/4 235/159/4 236/160/4
f 236/160/4 237/161/4 234/158/4
f 238/162/4 234/158/4 237/161/4
f 237/161/4 239/163/4 238/162/4
f 240/164/5 241/165/5 209/166/5
f 209/166/5 213/167/5 240/164/5
f 242/168/6 243/169/6 211/170/6
f 211/170/6 226/171/6 242/168/6
f 244/172/6 242/168/6 226/171/6
f 226/171/6 225/173/6 244/172/6
f 245/174/2 246/175/2 247/176/2
f 247/176/2 248/177/2 245/174/2
f 248/177/2 247/176/2 249/178/2
f 249/178/2 250/179/2 248/177/2
f 250/179/2 249/178/2 228/152/2
f 228/152/2 214/134/2 250/179/2
f 246/175/2 251/180/2 252/181/2
f 252/181/2 247/176/2 246/175/2
f 247/176/2 252/181/2 253/182/2
f 253/182/2 249/178/2 247/176/2
f 249/178/2 253/182/2 227/151/2
f 227/151/2 228/152/2 249/178/2
f 254/183/6 251/184/6 255/185/6
f 255/185/6 256/186/6 254/183/6
f 252/181/2 215/187/2 257/188/2
f 257/188/2 253/182/2 252/181/2
f 253/182/2 257/188/2 207/149/2
f 207/149/2 227/151/2 253/182/2
f 239/189/1 237/190/1 258/191/1
f 258/191/1 259/192/1 239/189/1
f 259/192/1 258/191/1 260/193/1
f 260/193/1 261/194/1 259/192/1
f 261/194/1 260/193/1 223/145/1
f 223/145/1 210/130/1 261/194/1
f 237/190/1 236/195/1 262/196/1
f 262/196/1 258/191/1 237/190/1
f 258/191/1 262/196/1 263/197/1
f 263/197/1 260/193/1 258/191/1
f 260/193/1 263/197/1 224/146/1
f 224/146/1 223/145/1 260/193/1
f 235/159/4 264/198/4 265/199/4
f 265/199/4 236/160/4 235/159/4
f 262/196/1 232/200/1 266/201/1
f 266/201/1 263/197/1 262/196/1
f 263/197/1 266/201/1 222/202/1
f 222/202/1 224/146/1 263/197/1
f 267/203/5 268/204/5 269/205/5
f 269/205/5 270/206/5 267/203/5
f 270/207/1 259/192/1 261/194/1
f 261/194/1 271/208/1 270/207/1
f 271/208/1 261/194/1 210/130/1
f 210/130/1 209/129/1 271/208/1
f 245/174/2 248/177/2 272/209/2
f 272/209/2 248/177/2 250/179/2
f 250/179/2 273/210/2 272/209/2
f 273/210/2 250/179/2 214/134/2
f 214/134/2 202/136/2 273/210/2
f 274/211/4 238/162/4 239/163/4
f 239/163/4 275/212/4 274/211/4
f 276/213/5 267/203/5 270/206/5
f 270/206/5 271/214/5 276/213/5
f 241/165/5 276/213/5 271/214/5
f 271/214/5 209/166/5 241/165/5
f 277/215/6 244/172/6 225/173/6
f 225/173/6 278/216/6 277/215/6
f 279/217/3 219/141/3 222/144/3
f 222/144/3 266/218/3 279/217/3
f 231/155/3 279/217/3 266/218/3
f 266/218/3 232/156/3 231/155/3
f 207/219/3 257/220/3 280/221/3
f 280/221/3 281/222/3 207/219/3
f 281/222/3 280/221/3 279/217/3
f 279/217/3 231/155/3 281/222/3
f 257/220/3 215/137/3 218/140/3
f 218/140/3 280/221/3 257/220/3
f 280/221/3 218/140/3 219/141/3
f 219/141/3 279/217/3 280/221/3
f 218/140/3 217/139/3 220/142/3
f 220/142/3 219/141/3 218/140/3
f 272/223/5 273/224/5 282/225/5
f 282/225/5 283/226/5 272/223/5
f 283/226/5 282/225/5 276/213/5
f 276/213/5 241/165/5 283/226/5
f 273/224/5 202/227/5 284/228/5
f 284/228/5 282/225/5 273/224/5
f 282/225/5 284/228/5 267/203/5
f 267/203/5 276/213/5 282/225/5
f 284/228/5 285/229/5 268/204/5
f 268/204/5 267/203/5 284/228/5
f 275/230/1 239/189/1 259/192/1
f 275/230/1 259/192/1 270/207/1
f 270/207/1 269/231/1 275/230/1
f 251/184/6 246/232/6 286/233/6
f 286/233/6 255/185/6 251/184/6
f 255/185/6 286/233/6 242/168/6
f 242/168/6 244/172/6 255/185/6
f 246/232/6 245/234/6 287/235/6
f 287/235/6 286/233/6 246/232/6
f 286/233/6 287/235/6 243/169/6
f 243/169/6 242/168/6 286/233/6
f 287/235/6 288/236/6 289/237/6
f 289/237/6 243/169/6 287/235/6
f 243/169/6 289/237/6 212/238/6
f 212/238/6 211/170/6 243/169/6
f 203/239/4 229/240/4 290/241/4
f 290/241/4 291/242/4 203/239/4
f 291/242/4 290/241/4 234/158/4
f 234/158/4 238/162/4 291/242/4
f 229/240/4 206/243/4 292/244/4
f 292/244/4 290/241/4 229/240/4
f 290/241/4 292/244/4 235/159/4
f 235/159/4 234/158/4 290/241/4
f 293/245/3 281/222/3 231/155/3
f 231/155/3 230/154/3 293/245/3
f 206/243/4 205/246/4 294/247/4
f 294/247/4 292/244/4 206/243/4
f 295/248/5 283/226/5 241/165/5
f 241/165/5 240/164/5 295/248/5
f 245/234/6 296/249/6 288/236/6
f 288/236/6 287/235/6 245/234/6
f 297/250/4 291/242/4 238/162/4
f 238/162/4 274/211/4 297/250/4
f 202/227/5 201/251/5 285/229/5
f 285/229/5 284/228/5 202/227/5
f 292/244/4 294/247/4 264/198/4
f 264/198/4 235/159/4 292/244/4
f 236/195/1 265/252/1 233/253/1
f 236/195/1 233/253/1 232/200/1
f 232/200/1 262/196/1 236/195/1
f 256/186/6 255/185/6 244/172/6
f 244/172/6 277/215/6 256/186/6
f 224/146/1 222/202/1 221/254/1
f 224/146/1 221/254/1 278/255/1
f 278/255/1 225/147/1 224/146/1
f 251/180/2 215/187/2 252/181/2
f 298/256/5 272/223/5 283/226/5
f 283/226/5 295/248/5 298/256/5
f 204/257/4 203/239/4 291/242/4
f 291/242/4 297/250/4 204/257/4
f 208/258/3 207/219/3 281/222/3
f 281/222/3 293/245/3 208/258/3
f 289/259/7 240/164/7 213/167/7
f 213/167/7 212/260/7 289/259/7
f 278/216/8 221/261/8 220/262/8
f 220/262/8 277/215/8 278/216/8
f 233/157/9 265/263/9 264/264/9
f 264/264/9 230/154/9 233/157/9
f 275/212/10 269/265/10 268/266/10
f 268/266/10 274/211/10 275/212/10
f 43/267/11 391/268/11 390/269/11 393/270/11
f 43/267/12 16/271/12 406/272/12 405/273/12
f 395/274/13 392/275/13 391/268/13 43/267/13 405/273/13 404/276/13 403/277/13 402/278/13 401/279/13 400/280/13 399/281/13 398/282/13 396/283/13 397/284/13 394/285/13
f 407/286/14 406/272/14 16/271/14 345/287/14 342/288/14 341/289/14 340/290/14 339/291/14 409/292/14
f 336/293/15 335/294/15 334/295/15 331/296/15 332/297/15 333/298/15 408/299/15 409/292/15 339/291/15 338/300/15 337/301/15
f 346/302/16 343/303/16 344/304/16 345/287/16 16/271/16 356/305/16 358/306/16 353/307/16 354/308/16 347/309/16
f 347/309/17 354/308/17 355/310/17 352/311/17 351/312/17 349/313/17 350/314/17 348/315/17
f 359/316/18 357/317/18 356/305/18 16/271/18 376/318/18 374/319/18 360/320/18
f 360/320/19 374/319/19 370/321/19 371/322/19 368/323/19 369/324/19 366/325/19 367/326/19 364/327/19 365/328/19 362/329/19 363/330/19 361/331/19
f 16/271/20 43/267/20 375/332/20 376/318/20
f 383/333/21 381/334/21 382/335/21 379/336/21 380/337/21 377/338/21 378/339/21 372/340/21 373/341/21 375/332/21 43/267/21 389/342/21 386/343/21 385/344/21 384/345/21
f 387/346/22 389/342/22 43/267/22 393/270/22 388/347/22
f 1/348/23 14/349/23 15/350/23
f 15/350/24 440/351/24 439/352/24 438/353/24 454/354/24 453/355/24 474/356/24
f 20/357/25 14/349/25 1/348/25
f 22/358/26 20/357/26 1/348/26
f 22/358/27 1/348/27 18/359/27
f 18/359/28 465/360/28 464/361/28 463/362/28 480/363/28 481/364/28
f 488/365/29 22/358/29 18/359/29 481/364/29 419/366/29 417/367/29 418/368/29 441/369/29 442/370/29 455/371/29 456/372/29
f 478/373/30 477/374/30 22/358/30 488/365/30 487/375/30
f 435/376/31 434/377/31 22/358/31 477/374/31 475/378/31 476/379/31 485/380/31
f 466/381/32 467/382/32 20/357/32 22/358/32 434/377/32 432/383/32 433/384/32 449/385/32 450/386/32
f 422/387/33 423/388/33 20/357/33 467/382/33 468/389/33 482/390/33
f 459/391/34 20/357/34 423/388/34 420/392/34 421/393/34 443/394/34 444/395/34 457/396/34
f 486/397/35 437/398/35 436/399/35 415/400/35 416/401/35 14/349/35 20/357/35 459/391/35 458/402/35
f 452/403/36 471/404/36 14/349/36 416/401/36 413/405/36 414/406/36 451/407/36
f 465/360/37 18/359/37 431/408/37 429/409/37 428/410/37 448/411/37 447/412/37
f 430/413/38 431/408/38 18/359/38 15/350/38 474/356/38 473/414/38 472/415/38 484/416/38
f 15/350/39 18/359/39 1/348/39
f 424/417/40 426/418/40 14/349/40 471/404/40 470/419/40 469/420/40 483/421/40 427/422/40
f 460/423/41 462/424/41 15/350/41 14/349/41 426/418/41 425/425/41 445/426/41 446/427/41
f 410/428/42 440/351/42 15/350/42 462/424/42 461/429/42 479/430/42 412/431/42 411/432/42
s 1
f 2/433/43 3/434/3 4/435/3
f 4/435/3 5/436/43 2/433/43
f 6/437/44 2/433/43 5/436/43
f 5/436/43 7/438/44 6/437/44
f 8/439/45 6/437/44 7/438/44
f 7/438/44 9/440/45 8/439/45
f 10/441/9 8/439/45 9/440/45
f 9/440/45 11/442/9 10/441/9
f 12/443/46 10/441/9 11/442/9
f 11/442/9 13/444/47 12/443/46
f 17/445/48 12/446/46 13/447/47
f 13/447/47 19/448/48 17/445/48
f 21/449/49 17/445/48 19/448/48
f 19/448/48 23/450/49 21/449/49
f 24/451/4 21/449/49 23/450/49
f 23/450/49 25/452/4 24/451/4
f 26/453/50 24/451/4 25/452/4
f 25/452/4 27/454/50 26/453/50
f 28/455/51 26/453/50 27/454/50
f 27/454/50 29/456/51 28/455/51
f 30/457/52 28/455/51 29/456/51
f 29/456/51 31/458/52 30/457/52
f 32/459/53 30/457/52 31/458/52
f 31/458/52 33/460/54 32/459/53
f 34/461/55 32/462/53 33/463/54
f 33/463/54 35/464/55 34/461/55
f 36/465/56 34/461/55 35/464/55
f 35/464/55 37/466/56 36/465/56
f 38/467/57 36/465/56 37/466/56
f 37/466/56 39/468/57 38/467/57
f 40/469/5 38/467/57 39/468/57
f 39/468/57 41/470/5 40/469/5
f 42/471/58 40/469/5 41/470/5
f 41/470/5 44/472/58 42/471/58
f 45/473/59 42/471/58 44/472/58
f 44/472/58 46/474/59 45/473/59
f 47/475/60 45/473/59 46/474/59
f 46/474/59 48/476/60 47/475/60
f 49/477/7 47/475/60 48/476/60
f 48/476/60 50/478/7 49/477/7
f 51/479/61 49/477/7 50/478/7
f 50/478/7 52/480/61 51/479/61
f 53/481/62 51/479/61 52/480/61
f 52/480/61 54/482/63 53/481/62
f 55/483/64 53/484/62 54/485/63
f 54/485/63 56/486/64 55/483/64
f 57/487/6 55/483/64 56/486/64
f 56/486/64 58/488/6 57/487/6
f 59/489/65 57/487/6 58/488/6
f 58/488/6 60/490/65 59/489/65
f 61/491/66 59/489/65 60/490/65
f 60/490/65 62/492/66 61/491/66
f 63/493/67 61/491/66 62/492/66
f 62/492/66 64/494/67 63/493/67
f 65/495/8 63/493/67 64/494/67
f 64/494/67 66/496/8 65/495/8
f 67/497/68 65/495/8 66/496/8
f 66/496/8 68/498/68 67/497/68
f 69/499/69 67/497/68 68/498/68
f 68/498/68 70/500/70 69/499/69
f 72/501/71 69/502/69 70/503/70
f 70/503/70 71/504/71 72/501/71
f 3/434/3 72/501/71 71/504/71
f 71/504/71 4/435/3 3/434/3
f 410/505/72 411/506/73 73/507/52
f 74/508/10 73/507/52 411/506/73 412/509/74
f 413/510/75 75/511/60 414/512/76
f 415/513/77 76/514/7 75/511/60 413/510/75 416/515/75
f 331/516/78 72/501/71 332/517/79
f 332/517/79 72/501/71 3/434/3 333/518/80
f 335/519/81 69/502/69 334/520/82
f 334/520/82 69/502/69 72/501/71 331/516/78
f 337/521/83 67/497/68 336/522/84
f 336/522/84 67/497/68 69/499/69 335/523/81
f 340/524/85 65/495/8 338/525/86 339/526/86
f 338/525/86 65/495/8 67/497/68 337/521/83
f 63/493/67 341/527/87 342/528/88
f 65/495/8 340/524/85 341/527/87 63/493/67
f 344/529/89 343/530/90 61/491/66
f 345/531/89 344/529/89 61/491/66 63/493/67 342/528/88
f 347/532/91 348/533/92 59/489/65 346/534/91
f 346/534/91 59/489/65 61/491/66 343/530/90
f 350/535/93 349/536/6 57/487/6
f 350/535/93 57/487/6 59/489/65 348/533/92
f 55/483/64 351/537/94 352/538/95
f 57/487/6 349/536/6 351/537/94 55/483/64
f 53/484/62 355/539/96 354/540/96 353/541/97
f 55/483/64 352/538/95 355/539/96 53/484/62
f 356/542/98 357/543/99 51/479/61 358/544/98
f 53/481/62 353/545/97 358/544/98 51/479/61
f 360/546/100 361/547/101 49/477/7 359/548/100
f 359/548/100 49/477/7 51/479/61 357/543/99
f 47/475/60 363/549/75 362/550/102
f 47/475/60 49/477/7 361/547/101 363/549/75
f 45/473/59 365/551/103 364/552/104
f 45/473/59 47/475/60 362/550/102 365/551/103
f 42/471/58 367/553/105 366/554/106
f 42/471/58 45/473/59 364/552/104 367/553/105
f 40/469/5 369/555/107 368/556/108
f 40/469/5 42/471/58 366/554/106 369/555/107
f 38/467/57 371/557/109 370/558/110
f 38/467/57 40/469/5 368/556/108 371/557/109
f 36/465/56 373/559/111 372/560/112
f 373/559/111 36/465/56 38/467/57 370/558/110 374/561/111 376/562/111 375/563/111
f 34/461/55 378/564/113 377/565/114
f 34/461/55 36/465/56 372/560/112 378/564/113
f 32/462/53 380/566/115 379/567/116
f 32/462/53 34/461/55 377/565/114 380/566/115
f 30/457/52 382/568/73 381/569/117
f 379/570/116 382/568/73 30/457/52 32/459/53
f 384/571/118 28/455/51 383/572/119
f 28/455/51 30/457/52 381/569/117 383/572/119
f 386/573/120 26/453/50 385/574/121
f 26/453/50 28/455/51 384/571/118 385/574/121
f 388/575/122 24/451/4 387/576/123
f 387/576/123 24/451/4 26/453/50 386/573/120 389/577/123
f 21/449/49 390/578/124 391/579/124 392/580/125
f 390/578/124 21/449/49 24/451/4 388/575/122 393/581/124
f 17/445/48 395/582/126 394/583/127
f 392/580/125 395/582/126 17/445/48 21/449/49
f 12/446/46 397/584/128 396/585/129
f 394/583/127 397/584/128 12/446/46 17/445/48
f 399/586/130 10/441/9 398/587/131
f 10/441/9 12/443/46 396/588/129 398/587/131
f 401/589/132 8/439/45 400/590/133
f 400/590/133 8/439/45 10/441/9 399/586/130
f 403/591/134 6/437/44 402/592/135
f 402/592/135 6/437/44 8/439/45 401/589/132
f 406/593/136 407/594/137 2/433/43 404/595/136 405/596/136
f 404/595/136 2/433/43 6/437/44 403/591/134
f 333/518/80 3/434/3 408/597/138
f 409/598/138 408/597/138 3/434/3 2/433/43 407/594/137
f 77/599/50 78/600/139 79/601/140
f 79/601/140 80/602/51 77/599/50
f 417/603/135 81/604/44 418/605/141
f 419/606/142 82/607/45 81/604/44 417/603/135
f 420/608/93 83/609/6 421/610/143
f 422/611/144 84/612/65 83/609/6 420/608/93 423/613/93
f 424/614/109 85/615/57 425/616/145 426/617/109
f 86/618/5 85/615/57 424/614/109 427/619/146
f 428/620/147 429/621/126 87/622/48
f 88/623/49 87/622/48 429/621/126 431/624/126 430/625/148
f 89/626/8 433/627/149 432/628/86
f 435/629/150 90/630/68 89/626/8 432/628/86 434/631/86
f 436/632/100 76/514/7 415/513/77
f 437/633/151 91/634/61 76/514/7 436/632/100
f 438/635/152 439/636/119 92/637/51
f 73/507/52 92/637/51 439/636/119 440/638/119 410/505/72
f 93/639/43 442/640/153 441/641/136
f 418/605/141 81/604/44 93/639/43 441/641/136
f 443/642/94 94/643/64 444/644/154
f 421/610/143 83/609/6 94/643/64 443/642/94
f 446/645/155 445/646/111 95/647/56
f 85/615/57 95/647/56 445/646/111 425/616/145
f 447/648/156 448/649/128 96/650/157
f 87/622/48 96/650/157 448/649/128 428/620/147
f 449/651/87 97/652/67 450/653/158
f 433/627/149 89/626/8 97/652/67 449/651/87
f 451/654/103 98/655/59 452/656/159
f 414/512/76 75/511/60 98/655/59 451/654/103
f 453/657/160 454/658/121 99/659/50
f 92/637/51 99/659/50 454/658/121 438/635/152
f 100/660/3 456/661/161 455/662/138
f 442/640/153 93/639/43 100/660/3 455/662/138
f 457/663/96 101/664/162 458/665/163 459/666/96
f 444/644/154 94/643/64 101/664/162 457/663/96
f 460/667/113 102/668/55 461/669/164 462/670/113
f 460/667/113 446/645/155 95/647/56 102/668/55
f 463/671/165 464/672/131 103/673/9
f 96/674/157 103/673/9 464/672/131 465/675/131 447/676/156
f 467/677/89 466/678/89 104/679/66 468/680/166
f 450/653/158 97/652/67 104/679/66 466/678/89
f 469/681/167 470/682/105 105/683/58
f 98/655/59 105/683/58 470/682/105 471/684/105 452/656/159
f 472/685/4 473/686/123 106/687/4
f 99/659/50 106/687/4 473/686/123 474/688/123 453/657/160
f 107/689/168 476/690/169 475/691/82
f 478/692/170 108/693/71 107/689/168 475/691/82 477/694/82
f 109/695/43 110/696/171 111/697/172
f 111/697/172 112/698/44 109/695/43
f 412/699/74 479/700/115 74/701/10
f 479/700/115 461/669/164 102/668/55 74/701/10
f 481/702/133 480/703/133 82/607/45 419/606/142
f 463/671/165 103/673/9 82/607/45 480/703/133
f 482/704/91 84/612/65 422/611/144
f 468/680/166 104/679/66 84/612/65 482/704/91
f 427/619/146 483/705/107 86/618/5
f 105/683/58 86/618/5 483/705/107 469/681/167
f 430/625/148 484/706/124 88/623/49
f 106/687/4 88/623/49 484/706/124 472/685/4
f 113/707/60 114/708/173 115/709/174
f 115/709/174 116/710/7 113/707/60
f 485/711/84 90/630/68 435/629/150
f 476/712/169 107/713/168 90/630/68 485/711/84
f 486/714/98 91/634/61 437/633/151
f 458/715/163 101/716/162 91/634/61 486/714/98
f 121/717/175 119/718/67 120/719/176
f 121/717/175 122/720/8 119/718/67
f 123/721/177 124/722/178 125/723/179
f 125/723/179 126/724/48 123/721/177
f 127/725/56 128/726/180 129/727/181
f 129/727/181 130/728/57 127/725/56
f 131/729/64 132/730/182 133/731/183
f 133/731/183 134/732/6 131/729/64
f 80/602/51 79/601/140 135/733/184
f 135/733/184 136/734/52 80/602/51
f 137/735/59 138/736/185 114/708/173
f 114/708/173 113/707/60 137/735/59
f 122/720/8 121/717/175 139/737/186
f 122/720/8 139/737/186 140/738/68
f 126/724/48 125/723/179 141/739/187
f 141/739/187 142/740/49 126/724/48
f 130/728/57 129/727/181 143/741/188
f 143/741/188 144/742/5 130/728/57
f 134/732/6 133/731/183 145/743/189
f 145/743/189 146/744/65 134/732/6
f 147/745/3 148/746/190 110/696/171
f 110/696/171 109/695/43 147/745/3
f 136/734/52 135/733/184 149/747/191
f 149/747/191 150/748/192 136/734/52
f 153/749/193 116/710/7 115/709/174
f 153/749/193 154/750/61 116/710/7
f 140/738/68 139/737/186 155/751/194
f 155/751/194 156/752/195 140/738/68
f 142/740/49 141/739/187 157/753/196
f 157/753/196 158/754/4 142/740/49
f 144/742/5 143/741/188 159/755/197
f 159/755/197 160/756/58 144/742/5
f 146/744/65 145/743/189 161/757/198
f 161/757/198 162/758/66 146/744/65
f 163/759/45 164/760/199 165/761/200
f 166/762/9 163/759/45 165/761/200
f 150/763/192 149/764/191 167/765/201
f 167/765/201 168/766/55 150/763/192
f 154/750/61 153/749/193 169/767/202
f 169/767/202 170/768/203 154/750/61
f 156/769/195 155/770/194 171/771/204
f 171/771/204 172/772/71 156/769/195
f 158/754/4 157/753/196 78/600/139
f 78/600/139 77/599/50 158/754/4
f 160/756/58 159/755/197 138/736/185
f 138/736/185 137/735/59 160/756/58
f 162/758/66 161/757/198 120/719/176
f 120/719/176 119/718/67 162/758/66
f 166/762/9 165/761/200 124/773/178
f 124/773/178 123/774/177 166/762/9
f 168/766/55 167/765/201 128/726/180
f 128/726/180 127/725/56 168/766/55
f 170/775/203 169/776/202 132/730/182
f 132/730/182 131/729/64 170/775/203
f 172/772/71 171/771/204 148/746/190
f 148/746/190 147/745/3 172/772/71
f 112/698/44 111/697/172 164/760/199
f 164/760/199 163/759/45 112/698/44
f 201/777/205 202/136/206 203/135/206
f 203/135/206 204/778/207 201/777/205
f 205/779/208 206/780/209 207/219/209
f 207/219/209 208/258/210 205/779/208
f 251/184/211 254/183/212 216/781/213
f 216/781/213 215/782/211 251/184/211
f 298/256/214 295/248/215 288/783/215
f 288/783/215 296/784/214 298/256/214
f 254/183/212 256/186/216 217/785/216
f 217/785/216 216/781/213 254/183/212
f 204/257/207 297/250/217 285/786/217
f 285/786/217 201/787/205 204/257/207
f 208/258/210 293/245/218 294/788/218
f 294/788/218 205/779/208 208/258/210
f 274/211/10 268/266/10 285/786/217
f 285/786/217 297/250/217 274/211/10
f 277/215/8 220/262/8 217/785/216
f 217/785/216 256/186/216 277/215/8
f 288/783/215 295/248/215 240/164/7
f 240/164/7 289/259/7 288/783/215
f 230/154/9 264/264/9 294/788/218
f 294/788/218 293/245/218 230/154/9
f 245/174/219 272/209/219 298/789/214
f 298/789/214 296/790/214 245/174/219
f 299/791/220 151/37/221 152/40/222
f 299/791/220 152/40/222 300/792/223
f 110/696/171 299/793/220 300/794/223
f 110/696/171 300/794/223 111/697/172
f 300/792/223 152/40/222 196/120/224
f 300/792/223 196/120/224 301/795/225
f 111/697/172 300/794/223 301/796/225
f 111/697/172 301/796/225 164/760/199
f 301/795/225 196/120/224 199/126/226
f 301/795/225 199/126/226 302/797/227
f 164/760/199 301/796/225 302/798/227
f 164/760/199 302/798/227 165/761/200
f 302/797/227 199/126/226 173/73/228
f 302/797/227 173/73/228 303/799/229
f 302/798/227 303/800/229 165/761/200
f 303/800/229 124/773/178 165/761/200
f 303/799/229 173/73/228 174/76/230
f 303/799/229 174/76/230 304/801/231
f 303/802/229 304/803/231 124/722/178
f 304/803/231 125/723/179 124/722/178
f 304/801/231 174/76/230 176/80/232
f 304/801/231 176/80/232 305/804/233
f 304/803/231 305/805/233 125/723/179
f 305/805/233 141/739/187 125/723/179
f 176/80/232 178/84/234 305/804/233
f 305/804/233 178/84/234 306/806/235
f 305/805/233 306/807/235 141/739/187
f 306/807/235 157/753/196 141/739/187
f 178/84/234 180/88/236 306/806/235
f 180/88/236 307/808/237 306/806/235
f 306/807/235 307/809/237 157/753/196
f 307/809/237 78/600/139 157/753/196
f 180/88/236 182/92/238 307/808/237
f 182/92/238 308/810/239 307/808/237
f 307/809/237 308/811/239 78/600/139
f 308/811/239 79/601/140 78/600/139
f 182/92/238 184/96/240 308/810/239
f 184/96/240 309/812/241 308/810/239
f 308/811/239 309/813/241 79/601/140
f 309/813/241 135/733/184 79/601/140
f 184/96/240 186/100/242 309/812/241
f 186/100/242 310/814/243 309/812/241
f 309/813/241 310/815/243 135/733/184
f 310/815/243 149/747/191 135/733/184
f 186/100/242 188/104/244 310/814/243
f 188/104/244 311/816/245 310/814/243
f 311/817/245 149/764/191 310/818/243
f 167/765/201 149/764/191 311/817/245
f 188/104/244 190/108/246 311/816/245
f 190/108/246 312/819/247 311/816/245
f 312/820/247 167/765/201 311/817/245
f 128/726/180 167/765/201 312/820/247
f 190/108/246 192/112/248 312/819/247
f 192/112/248 313/821/249 312/819/247
f 313/822/249 128/726/180 312/820/247
f 129/727/181 128/726/180 313/822/249
f 192/112/248 195/118/250 313/821/249
f 195/118/250 314/823/251 313/821/249
f 314/824/251 129/727/181 313/822/249
f 143/741/188 129/727/181 314/824/251
f 198/124/252 314/823/251 195/118/250
f 198/124/252 315/825/253 314/823/251
f 143/741/188 314/824/251 315/826/253
f 159/755/197 143/741/188 315/826/253
f 117/34/254 315/825/253 198/124/252
f 117/34/254 316/827/255 315/825/253
f 159/755/197 315/826/253 316/828/255
f 138/736/185 159/755/197 316/828/255
f 118/36/256 316/827/255 117/34/254
f 118/36/256 317/829/257 316/827/255
f 138/736/185 316/828/255 317/830/257
f 114/708/173 138/736/185 317/830/257
f 175/78/258 317/829/257 118/36/256
f 175/78/258 318/831/259 317/829/257
f 114/708/173 317/830/257 318/832/259
f 115/709/174 114/708/173 318/832/259
f 177/82/260 318/831/259 175/78/258
f 177/82/260 319/833/261 318/831/259
f 319/834/261 115/709/174 318/832/259
f 319/834/261 153/749/193 115/709/174
f 179/86/262 319/833/261 177/82/260
f 179/86/262 320/835/263 319/833/261
f 320/836/263 153/749/193 319/834/261
f 320/836/263 169/767/202 153/749/193
f 181/90/264 320/835/263 179/86/262
f 181/90/264 321/837/265 320/835/263
f 321/838/265 169/776/202 320/839/263
f 321/838/265 132/730/182 169/776/202
f 183/94/266 321/837/265 181/90/264
f 322/840/267 321/837/265 183/94/266
f 322/841/267 132/730/182 321/838/265
f 322/841/267 133/731/183 132/730/182
f 322/840/267 183/94/266 185/98/268
f 323/842/269 322/840/267 185/98/268
f 323/843/269 133/731/183 322/841/267
f 323/843/269 145/743/189 133/731/183
f 323/842/269 185/98/268 187/102/270
f 324/844/271 323/842/269 187/102/270
f 324/845/271 145/743/189 323/843/269
f 324/845/271 161/757/198 145/743/189
f 324/844/271 187/102/270 189/106/272
f 325/846/273 324/844/271 189/106/272
f 325/847/273 161/757/198 324/845/271
f 325/847/273 120/719/176 161/757/198
f 325/846/273 189/106/272 191/110/274
f 326/848/275 325/846/273 191/110/274
f 326/849/275 120/719/176 325/847/273
f 326/849/275 121/717/175 120/719/176
f 326/848/275 191/110/274 194/116/276
f 327/850/277 326/848/275 194/116/276
f 121/717/175 326/849/275 327/851/277
f 139/737/186 121/717/175 327/851/277
f 327/850/277 194/116/276 197/122/278
f 328/852/279 327/850/277 197/122/278
f 139/737/186 327/851/277 328/853/279
f 155/751/194 139/737/186 328/853/279
f 328/852/279 197/122/278 200/128/280
f 329/854/281 328/852/279 200/128/280
f 155/770/194 328/855/279 329/856/281
f 171/771/204 155/770/194 329/856/281
f 329/854/281 200/128/280 193/113/282
f 330/857/283 329/854/281 193/113/282
f 171/771/204 329/856/281 330/858/283
f 148/746/190 171/771/204 330/858/283
f 330/857/283 193/113/282 151/37/221
f 330/857/283 151/37/221 299/791/220
f 148/746/190 330/858/283 299/793/220
f 148/746/190 299/793/220 110/696/171
f 108/693/71 478/692/170 487/859/79
f 456/661/161 100/660/3 108/693/71 487/859/79 488/860/79
