# Blender 3.5.1
# www.blender.org
mtllib cortexhead.mtl
o cortex
v 0.125792 11.489913 3.159058
v 0.125792 11.589913 1.059058
v 0.125792 11.089913 4.459058
v 0.125792 11.689914 4.459058
v 0.125792 5.989913 3.159059
v 0.125792 5.789913 3.759059
v 0.125792 12.189914 5.259058
v 0.125792 5.189913 0.059059
v 0.125792 5.689913 -0.240941
v -1.474208 6.789913 2.659059
v -1.574208 6.689913 2.659059
v -1.674208 7.589913 2.559058
v 0.125792 4.889914 3.859059
v -0.674208 4.689913 3.859059
v -0.974208 5.189913 3.459059
v -2.274208 10.989913 3.559058
v -1.874208 11.389914 3.059058
v -0.274208 11.389914 3.659058
v 0.125792 8.389914 -4.240942
v 0.125792 9.389914 -1.640942
v -2.774208 8.389914 -3.740942
v -1.874208 6.189913 1.359058
v -1.774208 5.189913 1.559059
v -1.174208 6.689913 0.259059
v -0.174208 5.889914 3.459059
v -0.274208 6.589914 3.359059
v -0.374208 5.489913 -0.140941
v 0.125792 6.589913 -0.340942
v -0.974208 5.789913 3.359059
v -1.074208 5.889913 2.859059
v -1.074208 4.389914 4.059059
v -1.374208 7.389913 -0.040942
v 0.125792 7.489913 -0.740942
v 0.125792 5.389914 3.459059
v 0.125792 5.589913 3.459059
v -0.474208 6.589913 3.059058
v 0.125792 6.789914 3.259059
v -1.174208 6.389913 2.959059
v -1.874208 7.189913 1.459058
v -1.674208 6.789913 1.159058
v -1.874208 11.089913 -0.840942
v -2.674208 11.189914 1.159058
v 0.125792 4.789913 3.359059
v 0.125792 3.989913 4.459059
v 0.125792 10.589913 -2.240942
v -1.874208 9.189914 -0.640942
v 0.125792 6.689914 3.659059
v -1.674208 6.789913 1.359058
v -1.374208 8.289913 2.859058
v -2.174208 8.389914 3.559058
v -2.274208 10.689914 -1.240942
v -3.274208 10.789913 1.159058
v -2.074208 7.689914 3.459059
v -0.574208 6.789913 3.059058
v -0.974208 5.689913 3.359059
v -1.174208 5.289913 3.659059
v 0.125792 4.989913 3.859059
v 0.125792 4.989913 3.559059
v -1.074208 5.589913 3.759059
v 0.125792 5.289913 3.859059
v -0.374208 11.789913 3.859058
v 0.125792 11.889914 3.659058
v 0.125792 10.989913 -1.640942
v -2.474208 6.889913 0.759058
v -2.274208 7.189913 0.959058
v -1.174208 6.689913 2.959059
v -2.074208 8.989913 2.459058
v -5.574208 8.189914 1.659058
v -2.374208 6.389913 0.759059
v -2.574208 8.889914 1.259058
v -5.574208 8.189914 -1.340942
v 1.725792 6.789913 2.659059
v 1.825792 6.689913 2.659059
v 1.925792 7.589913 2.559058
v 0.925792 4.689913 3.859059
v 1.225792 5.189913 3.459059
v 2.525792 10.989913 3.559058
v 2.125792 11.389914 3.059058
v 0.525792 11.389914 3.659058
v 3.025792 8.389914 -3.740942
v 2.125792 6.189913 1.359058
v 2.025792 5.189913 1.559059
v 1.425792 6.689913 0.259059
v 0.425792 5.889914 3.459059
v 0.525792 6.589914 3.359059
v 0.625792 5.489913 -0.140941
v 1.225792 5.789913 3.359059
v 1.325792 5.889913 2.859059
v 1.325792 4.389914 4.059059
v 1.625792 7.389913 -0.040942
v 0.725792 6.589913 3.059058
v 1.425792 6.389913 2.959059
v 2.125792 7.189913 1.459058
v 1.925792 6.789913 1.159058
v 2.125792 11.089913 -0.840942
v 2.925792 11.189914 1.159058
v 2.125792 9.189914 -0.640942
v 1.925792 6.789913 1.359058
v 1.625792 8.289913 2.859058
v 2.425792 8.389914 3.559058
v 2.525792 10.689914 -1.240942
v 3.525792 10.789913 1.159058
v 2.325792 7.689914 3.459059
v 0.825792 6.789913 3.059058
v 1.225792 5.689913 3.359059
v 1.425792 5.289913 3.659059
v 1.325792 5.589913 3.759059
v 0.625792 11.789913 3.859058
v 2.725792 6.889913 0.759058
v 2.525792 7.189913 0.959058
v 1.425792 6.689913 2.959059
v 2.325792 8.989913 2.459058
v 5.825792 8.189914 1.659058
v 2.625792 6.389913 0.759059
v 2.825792 8.889914 1.259058
v 5.825792 8.189914 -1.340942
vn -0.9632 0.0795 0.2567
vn -0.6490 -0.0465 0.7594
vn -0.3958 0.2887 0.8717
vn -0.6018 0.4456 0.6628
vn -0.5907 -0.6332 0.5002
vn -0.0000 0.7252 0.6885
vn -0.5426 0.8204 0.1806
vn -0.2499 0.9503 0.1859
vn -0.6629 0.4451 0.6020
vn -0.4302 -0.0338 -0.9021
vn -0.0000 0.7310 -0.6823
vn 0.0001 -0.0592 -0.9982
vn -0.7029 -0.2138 -0.6784
vn -0.9000 -0.4334 -0.0465
vn -0.9604 -0.0018 -0.2787
vn -0.6837 0.4282 0.5909
vn -0.7833 -0.6119 0.1096
vn -0.0000 -0.5905 0.8070
vn -0.9000 -0.4333 -0.0465
vn -0.7069 -0.1059 -0.6993
vn -0.0000 -0.1647 -0.9864
vn -0.0000 -0.0902 0.9959
vn -0.8333 0.0383 0.5515
vn -0.3965 0.5304 0.7493
vn -0.2765 0.5799 0.7663
vn -0.5907 -0.6332 0.5001
vn -0.0000 0.9987 -0.0504
vn -0.2499 0.9503 0.1858
vn -0.5426 0.8203 0.1806
vn -0.0000 -0.7895 -0.6137
vn -0.7029 -0.2138 -0.6783
vn -0.3406 -0.8485 -0.4049
vn -0.2766 0.5799 0.7663
vn -0.5906 -0.6332 0.5002
vn -0.0000 0.2571 0.9664
vn -0.5859 0.0234 0.8100
vn -0.6838 0.4282 0.5908
vn -0.3675 -0.0276 0.9296
vn 0.0992 0.1590 -0.9823
vn -0.6976 -0.6840 0.2134
vn -0.5860 0.0233 0.8100
vn -0.4333 0.8993 -0.0591
vn -0.2396 0.9220 -0.3042
vn -0.0000 -0.9911 -0.1328
vn -0.0000 -0.9322 -0.3620
vn -0.0001 -0.6718 0.7407
vn -0.7234 0.3058 -0.6190
vn -0.0000 -0.0119 -0.9999
vn -0.5860 0.0234 0.8100
vn -0.6838 0.4282 0.5909
vn -0.0000 0.6967 0.7174
vn -0.9632 0.0796 0.2567
vn -0.8671 -0.0283 0.4973
vn -0.0000 -0.6718 0.7408
vn -0.6630 0.4450 0.6020
vn -0.7740 -0.0334 0.6324
vn -0.0000 -0.0202 0.9998
vn -0.6333 0.7081 0.3122
vn -0.9975 0.0697 -0.0082
vn -0.4334 0.8993 -0.0591
vn -0.5878 0.5256 -0.6150
vn -0.6333 0.7081 0.3121
vn -0.7117 -0.6375 0.2952
vn -0.7117 -0.6374 0.2952
vn -0.0000 0.2572 0.9664
vn -0.3674 -0.0276 0.9296
vn -0.2627 0.1565 0.9521
vn -0.9632 0.0796 0.2568
vn -0.7740 -0.0333 0.6323
vn -0.2397 0.9220 -0.3042
vn -0.5878 0.5256 -0.6151
vn -0.8333 0.0384 0.5514
vn -0.7439 0.4758 0.4693
vn -0.0000 -0.8569 0.5155
vn -0.0001 -0.7021 0.7121
vn -0.7015 -0.5792 0.4151
vn -0.0001 0.5471 0.8371
vn -0.4980 0.5913 0.6343
vn -0.7016 -0.5792 0.4151
vn -0.0000 0.5471 0.8371
vn -0.0000 0.9111 -0.4122
vn -0.9801 0.1985 -0.0030
vn -0.0000 0.7755 0.6313
vn -0.7015 -0.5793 0.4151
vn -0.0000 0.2100 0.9777
vn -0.6018 0.4456 0.6627
vn -0.0000 0.8859 -0.4640
vn -0.0000 0.6079 0.7940
vn -0.0000 0.5470 0.8371
vn -0.6097 0.7921 0.0285
vn -0.8355 0.3088 -0.4546
vn -0.0000 0.8858 -0.4640
vn -0.5878 0.5255 -0.6151
vn -0.0000 -0.7021 0.7121
vn 0.0001 -0.0120 -0.9999
vn -0.6629 0.4450 0.6020
vn -0.7234 0.3059 -0.6189
vn -0.9000 -0.4333 -0.0466
vn -0.4223 0.3226 0.8471
vn -0.4224 0.3226 0.8471
vn -0.3959 0.2887 0.8717
vn -0.3958 0.2887 0.8718
vn -0.6489 -0.0465 0.7594
vn -0.9001 -0.4333 -0.0465
vn -0.0000 -0.0201 0.9998
vn -0.7740 -0.0334 0.6323
vn -0.6216 0.3821 0.6838
vn -0.6975 -0.6841 0.2133
vn -0.7648 -0.1977 0.6132
vn -0.0000 0.8464 -0.5325
vn -0.9801 0.1985 -0.0029
vn -0.8355 0.3087 -0.4546
vn -0.6097 0.7921 0.0284
vn -0.9604 -0.0018 -0.2788
vn -0.7050 -0.6560 -0.2696
vn -0.7050 -0.6560 -0.2695
vn -0.9604 -0.0019 -0.2787
vn -0.7739 -0.0334 0.6324
vn -0.6976 -0.6840 0.2133
vn -0.6629 0.4451 0.6021
vn -0.3406 -0.8485 -0.4050
vn -0.7344 0.6783 0.0244
vn -0.7343 0.6783 0.0243
vn -0.6216 0.3821 0.6839
vn -0.9209 -0.0131 -0.3897
vn -0.3407 -0.8485 -0.4049
vn -0.5878 0.5255 -0.6150
vn -0.7234 0.3059 -0.6190
vn -0.0000 -0.1646 -0.9864
vn -0.7739 -0.0333 0.6324
vn -0.7344 0.6783 0.0243
vn -0.9209 -0.0131 -0.3896
vn -0.7235 0.3059 -0.6189
vn -0.6216 0.3820 0.6838
vn -0.9208 -0.0131 -0.3897
vn -0.4301 -0.0338 -0.9022
vn -0.9208 -0.0130 -0.3898
vn -0.4301 -0.0338 -0.9021
vn -0.4302 -0.0339 -0.9021
vn -0.0000 -0.0593 -0.9982
vn -0.0000 -0.5313 0.8472
vn -0.6629 0.4450 0.6021
vn -0.0001 -0.0202 0.9998
vn -0.9801 0.1985 -0.0028
vn -0.0001 0.7755 0.6313
vn -0.9801 0.1986 -0.0029
vn -0.7439 0.4757 0.4693
vn 0.3958 0.2887 0.8717
vn 0.6490 -0.0465 0.7594
vn 0.9632 0.0795 0.2567
vn 0.5907 -0.6332 0.5002
vn 0.6018 0.4456 0.6628
vn 0.6629 0.4451 0.6020
vn 0.2499 0.9503 0.1859
vn 0.5426 0.8204 0.1806
vn -0.0001 -0.0592 -0.9982
vn 0.4302 -0.0338 -0.9021
vn 0.9604 -0.0018 -0.2787
vn 0.9000 -0.4334 -0.0465
vn 0.7029 -0.2138 -0.6784
vn 0.7833 -0.6119 0.1096
vn 0.6837 0.4282 0.5909
vn 0.7069 -0.1059 -0.6993
vn 0.9000 -0.4333 -0.0465
vn 0.3965 0.5304 0.7493
vn 0.8333 0.0383 0.5515
vn 0.5907 -0.6332 0.5001
vn 0.2765 0.5799 0.7663
vn 0.5426 0.8203 0.1806
vn 0.2499 0.9503 0.1858
vn 0.3406 -0.8485 -0.4049
vn 0.7029 -0.2138 -0.6783
vn 0.5906 -0.6332 0.5002
vn 0.2766 0.5799 0.7663
vn 0.6838 0.4282 0.5908
vn 0.5859 0.0234 0.8100
vn 0.3675 -0.0276 0.9296
vn 0.6976 -0.6840 0.2134
vn -0.0992 0.1590 -0.9823
vn 0.5860 0.0233 0.8100
vn 0.2396 0.9220 -0.3042
vn 0.4333 0.8993 -0.0591
vn 0.0001 -0.6718 0.7407
vn 0.7234 0.3058 -0.6190
vn 0.5860 0.0234 0.8100
vn 0.6838 0.4282 0.5909
vn 0.8671 -0.0283 0.4973
vn 0.9632 0.0796 0.2567
vn 0.7740 -0.0334 0.6324
vn 0.6630 0.4450 0.6020
vn 0.6333 0.7081 0.3122
vn 0.5878 0.5256 -0.6150
vn 0.4334 0.8993 -0.0591
vn 0.9975 0.0697 -0.0082
vn 0.7117 -0.6375 0.2952
vn 0.6333 0.7081 0.3121
vn 0.7117 -0.6374 0.2952
vn 0.2627 0.1565 0.9521
vn 0.3674 -0.0276 0.9296
vn 0.7740 -0.0333 0.6323
vn 0.9632 0.0796 0.2568
vn 0.5878 0.5256 -0.6151
vn 0.2397 0.9220 -0.3042
vn 0.8333 0.0384 0.5514
vn 0.7439 0.4758 0.4693
vn 0.7015 -0.5792 0.4151
vn 0.0001 -0.7021 0.7121
vn 0.7016 -0.5792 0.4151
vn 0.4980 0.5913 0.6343
vn 0.0001 0.5471 0.8371
vn 0.9801 0.1985 -0.0030
vn 0.7015 -0.5793 0.4151
vn 0.6018 0.4456 0.6627
vn 0.8355 0.3088 -0.4546
vn 0.6097 0.7921 0.0285
vn 0.5878 0.5255 -0.6151
vn -0.0001 -0.0120 -0.9999
vn 0.6629 0.4450 0.6020
vn 0.7234 0.3059 -0.6189
vn 0.9000 -0.4333 -0.0466
vn 0.4223 0.3226 0.8471
vn 0.3959 0.2887 0.8717
vn 0.4224 0.3226 0.8471
vn 0.3958 0.2887 0.8718
vn 0.9001 -0.4333 -0.0465
vn 0.6489 -0.0465 0.7594
vn 0.7740 -0.0334 0.6323
vn 0.7648 -0.1977 0.6132
vn 0.6975 -0.6841 0.2133
vn 0.6216 0.3821 0.6838
vn 0.9801 0.1985 -0.0029
vn 0.6097 0.7921 0.0284
vn 0.8355 0.3087 -0.4546
vn 0.7050 -0.6560 -0.2696
vn 0.9604 -0.0018 -0.2788
vn 0.9604 -0.0019 -0.2787
vn 0.7050 -0.6560 -0.2695
vn 0.6978 -0.6838 0.2132
vn 0.7739 -0.0334 0.6324
vn 0.6629 0.4451 0.6021
vn 0.3406 -0.8485 -0.4050
vn 0.7344 0.6783 0.0244
vn 0.6216 0.3821 0.6839
vn 0.7343 0.6783 0.0243
vn 0.3407 -0.8485 -0.4049
vn 0.9209 -0.0131 -0.3897
vn 0.6976 -0.6840 0.2133
vn 0.7234 0.3059 -0.6190
vn 0.5878 0.5255 -0.6150
vn 0.7739 -0.0333 0.6324
vn 0.7344 0.6783 0.0243
vn 0.9208 -0.0131 -0.3898
vn 0.9208 -0.0131 -0.3897
vn 0.6216 0.3820 0.6838
vn 0.9209 -0.0131 -0.3896
vn 0.4301 -0.0338 -0.9022
vn 0.9208 -0.0130 -0.3898
vn 0.4301 -0.0338 -0.9021
vn 0.4302 -0.0339 -0.9021
vn 0.0001 -0.0202 0.9998
vn 0.6629 0.4450 0.6021
vn 0.0001 0.7755 0.6313
vn 0.9801 0.1985 -0.0028
vn 0.9801 0.1986 -0.0029
vn 0.7439 0.4757 0.4693
vt 0.391061 0.134486
vt 0.280638 0.207196
vt 0.391061 0.134486
vt 0.390364 0.137463
vt 0.390364 0.134486
vt 0.499709 0.874590
vt 0.280638 0.207196
vt 0.390364 0.137463
vt 0.279941 0.207196
vt 0.279941 0.207196
vt 0.299625 0.220716
vt 0.391061 0.134486
vt 0.323705 0.216378
vt 0.390364 0.134486
vt 0.390364 0.134486
vt 0.390364 0.137463
vt 0.279941 0.210173
vt 0.555137 0.202475
vt 0.458546 0.137463
vt 0.453561 0.137319
vt 0.881245 0.031712
vt 0.380776 0.174114
vt 0.380776 0.171137
vt 0.381473 0.171137
vt 0.390364 0.134486
vt 0.391061 0.134486
vt 0.390364 0.137463
vt 0.381473 0.171137
vt 0.299455 0.208140
vt 0.297441 0.214467
vt 0.866964 0.092258
vt 0.391061 0.134486
vt 0.390364 0.134486
vt 0.310819 0.212472
vt 0.311377 0.208141
vt 0.476657 0.137175
vt 0.310819 0.212472
vt 0.390364 0.137463
vt 0.555834 0.202475
vt 0.310819 0.208141
vt 0.452864 0.137319
vt 0.311377 0.208141
vt 0.310819 0.212472
vt 0.310819 0.208141
vt 0.477354 0.137175
vt 0.476657 0.140152
vt 0.141102 0.867261
vt 0.391061 0.134486
vt 0.143935 0.740245
vt 0.390364 0.137463
vt 0.390364 0.134486
vt 0.390364 0.134486
vt 0.279941 0.207196
vt 0.391061 0.134486
vt 0.390364 0.137463
vt 0.280638 0.207196
vt 0.301545 0.212597
vt 0.390364 0.137463
vt 0.301545 0.209620
vt 0.302242 0.209620
vt 0.318978 0.209620
vt 0.307147 0.209620
vt 0.301545 0.212597
vt 0.301545 0.209620
vt 0.465345 0.135682
vt 0.364759 0.134486
vt 0.390364 0.137463
vt 0.478129 0.133829
vt 0.459243 0.134486
vt 0.390364 0.137463
vt 0.390364 0.134486
vt 0.452864 0.140296
vt 0.391061 0.134486
vt 0.390364 0.134486
vt 0.391061 0.134486
vt 0.387486 0.137414
vt 0.435819 0.134486
vt 0.478129 0.133734
vt 0.436516 0.134486
vt 0.390364 0.134486
vt 0.390364 0.137463
vt 0.391061 0.134486
vt 0.390364 0.137463
vt 0.390364 0.134486
vt 0.390364 0.137463
vt 0.458546 0.134486
vt 0.390364 0.134486
vt 0.435819 0.137463
vt 0.299455 0.220971
vt 0.323705 0.216553
vt 0.299625 0.220716
vt 0.310819 0.208141
vt 0.310819 0.212472
vt 0.311377 0.208141
vt 0.299455 0.220716
vt 0.391061 0.134486
vt 0.390364 0.134486
vt 0.311377 0.208141
vt 0.435819 0.137463
vt 0.436516 0.134486
vt 0.307147 0.209813
vt 0.302242 0.209620
vt 0.436516 0.134486
vt 0.435819 0.134486
vt 0.301545 0.212597
vt 0.302242 0.209620
vt 0.391061 0.134486
vt 0.289690 0.166754
vt 0.323917 0.216378
vt 0.323705 0.216378
vt 0.289690 0.169732
vt 0.390364 0.134486
vt 0.391061 0.134486
vt 0.380776 0.171137
vt 0.390364 0.137463
vt 0.380776 0.174114
vt 0.995496 0.031712
vt 0.391061 0.134486
vt 0.297441 0.214467
vt 0.296744 0.214467
vt 0.316501 0.205308
vt 0.841285 0.088899
vt 0.499709 0.559425
vt 0.381473 0.171137
vt 0.380776 0.174114
vt 0.391061 0.134486
vt 0.380776 0.171137
vt 0.390364 0.137463
vt 0.381473 0.171137
vt 0.387486 0.137319
vt 0.307147 0.209620
vt 0.378834 0.131749
vt 0.458379 0.134486
vt 0.435819 0.137463
vt 0.390364 0.137463
vt 0.318978 0.209620
vt 0.391392 0.137319
vt 0.382740 0.131654
vt 0.461439 0.135777
vt 0.482035 0.133734
vt 0.379052 0.135682
vt 0.390364 0.137463
vt 0.391061 0.134486
vt 0.390364 0.134486
vt 0.391061 0.134486
vt 0.390364 0.137463
vt 0.555137 0.205452
vt 0.310819 0.212472
vt 0.310819 0.212472
vt 0.311377 0.208141
vt 0.390364 0.137463
vt 0.390364 0.134486
vt 0.391061 0.134486
vt 0.390364 0.137463
vt 0.307147 0.209813
vt 0.302242 0.209620
vt 0.390364 0.137463
vt 0.391061 0.134486
vt 0.390364 0.134486
vt 0.390364 0.137463
vt 0.462285 0.134486
vt 0.391061 0.134486
vt 0.364759 0.134582
vt 0.296744 0.214467
vt 0.390364 0.137463
vt 0.275580 0.669367
vt 0.390364 0.134486
vt 0.275748 0.394635
vt 0.391061 0.134486
vt 0.300290 0.208140
vt 0.296744 0.217444
vt 0.390364 0.134486
vt 0.390364 0.137463
vt 0.390364 0.134486
vt 0.391061 0.134486
vt 0.391061 0.134486
vt 0.390364 0.134486
vt 0.299455 0.210052
vt 0.297441 0.214467
vt 0.296744 0.217444
vt 0.380776 0.174114
vt 0.381473 0.171137
vt 0.945511 0.031712
vt 0.380776 0.171137
vt 0.310819 0.212472
vt 0.390364 0.137463
vt 0.476657 0.137175
vt 0.390364 0.134486
vt 0.477354 0.137175
vt 0.323917 0.216378
vt 0.299455 0.220971
vt 0.290386 0.166754
vt 0.476657 0.140152
vt 0.477354 0.137175
vt 0.476657 0.137175
vt 0.476657 0.137175
vt 0.476657 0.140152
vt 0.476657 0.140152
vt 0.477354 0.137175
vt 0.476657 0.137175
vt 0.391061 0.134486
vt 0.476657 0.140152
vt 0.390364 0.134486
vt 0.390364 0.137463
vt 0.477354 0.137175
vt 0.280638 0.207196
vt 0.279941 0.210173
vt 0.279941 0.207196
vt 0.280638 0.207196
vt 0.279941 0.210173
vt 0.390364 0.137463
vt 0.390364 0.134486
vt 0.364759 0.134486
vt 0.368665 0.134486
vt 0.375146 0.135777
vt 0.368665 0.134486
vt 0.375146 0.135777
vt 0.378834 0.131654
vt 0.458379 0.134582
vt 0.902667 0.024144
vt 0.380776 0.171137
vt 0.307147 0.209813
vt 0.173227 0.484237
vt 0.390364 0.137463
vt 0.318978 0.209620
vt 0.390364 0.134486
vt 0.307147 0.209813
vt 0.318978 0.209620
vt 0.307147 0.209620
vt 0.461439 0.135682
vt 0.368665 0.134486
vt 0.364759 0.134486
vt 0.375146 0.135682
vt 0.390364 0.134486
vt 0.391061 0.134486
vt 0.307147 0.209620
vt 0.307147 0.209813
vt 0.307147 0.209620
vt 0.318978 0.209620
vt 0.980485 0.088899
vt 0.380776 0.174114
vt 0.380776 0.171137
vt 0.381473 0.171137
vt 0.390364 0.134486
vt 0.391061 0.134486
vt 0.390364 0.137463
vt 0.381473 0.171137
vt 0.296744 0.214467
vt 0.317198 0.205308
vt 0.297441 0.214467
vt 0.997886 0.018789
vt 0.391061 0.134486
vt 0.390364 0.134486
vt 0.310819 0.212472
vt 0.390364 0.137463
vt 0.555834 0.202475
vt 0.310819 0.208141
vt 0.452864 0.137319
vt 0.311377 0.208141
vt 0.310819 0.212472
vt 0.310819 0.208141
vt 0.477354 0.137175
vt 0.476657 0.140152
vt 0.858315 0.867261
vt 0.391061 0.134486
vt 0.846936 0.740245
vt 0.390364 0.137463
vt 0.390364 0.134486
vt 0.390364 0.134486
vt 0.279941 0.207196
vt 0.391061 0.134486
vt 0.390364 0.137463
vt 0.280638 0.207196
vt 0.302242 0.209620
vt 0.318978 0.209620
vt 0.307147 0.209620
vt 0.301545 0.212597
vt 0.301545 0.209620
vt 0.465345 0.135682
vt 0.364759 0.134486
vt 0.390364 0.137463
vt 0.478129 0.133829
vt 0.459243 0.134486
vt 0.390364 0.137463
vt 0.390364 0.134486
vt 0.452864 0.140296
vt 0.391061 0.134486
vt 0.390364 0.134486
vt 0.391061 0.134486
vt 0.387486 0.137414
vt 0.435819 0.134486
vt 0.478129 0.133734
vt 0.436516 0.134486
vt 0.390364 0.134486
vt 0.390364 0.137463
vt 0.391061 0.134486
vt 0.390364 0.137463
vt 0.390364 0.134486
vt 0.390364 0.137463
vt 0.458546 0.134486
vt 0.299455 0.220971
vt 0.323705 0.216553
vt 0.299625 0.220716
vt 0.310819 0.208141
vt 0.310819 0.212472
vt 0.311377 0.208141
vt 0.299455 0.220716
vt 0.391061 0.134486
vt 0.390364 0.134486
vt 0.311377 0.208141
vt 0.435819 0.137463
vt 0.436516 0.134486
vt 0.307147 0.209813
vt 0.302242 0.209620
vt 0.390364 0.134486
vt 0.391061 0.134486
vt 0.380776 0.171137
vt 0.390364 0.137463
vt 0.380776 0.174114
vt 0.380776 0.174114
vt 0.391061 0.134486
vt 0.380776 0.171137
vt 0.390364 0.137463
vt 0.381473 0.171137
vt 0.387486 0.137319
vt 0.307147 0.209620
vt 0.378834 0.131749
vt 0.458379 0.134486
vt 0.435819 0.137463
vt 0.390364 0.137463
vt 0.318978 0.209620
vt 0.391392 0.137319
vt 0.382740 0.131654
vt 0.461439 0.135777
vt 0.482035 0.133734
vt 0.379052 0.135682
vt 0.390364 0.137463
vt 0.391061 0.134486
vt 0.390364 0.134486
vt 0.391061 0.134486
vt 0.390364 0.137463
vt 0.391061 0.134486
vt 0.390364 0.137463
vt 0.307147 0.209813
vt 0.302242 0.209620
vt 0.390364 0.134486
vt 0.390364 0.137463
vt 0.462285 0.134486
vt 0.391061 0.134486
vt 0.364759 0.134582
vt 0.296744 0.214467
vt 0.296744 0.217444
vt 0.723838 0.669367
vt 0.390364 0.134486
vt 0.715124 0.394635
vt 0.391061 0.134486
vt 0.297441 0.214467
vt 0.296744 0.217444
vt 0.296744 0.214467
vt 0.390364 0.137463
vt 0.390364 0.134486
vt 0.391061 0.134486
vt 0.391061 0.134486
vt 0.390364 0.134486
vt 0.296744 0.217444
vt 0.297441 0.214467
vt 0.316501 0.208285
vt 0.380776 0.174114
vt 0.381473 0.171137
vt 0.902185 0.088899
vt 0.380776 0.171137
vt 0.310819 0.212472
vt 0.390364 0.137463
vt 0.476657 0.137175
vt 0.390364 0.134486
vt 0.477354 0.137175
vt 0.323917 0.216378
vt 0.299455 0.220971
vt 0.290386 0.166754
vt 0.476657 0.140152
vt 0.477354 0.137175
vt 0.476657 0.137175
vt 0.476657 0.137175
vt 0.391061 0.134486
vt 0.476657 0.140152
vt 0.280638 0.207196
vt 0.279941 0.210173
vt 0.279941 0.207196
vt 0.364759 0.134486
vt 0.368665 0.134486
vt 0.375146 0.135777
vt 0.368665 0.134486
vt 0.375146 0.135777
vt 0.378834 0.131654
vt 0.458379 0.134582
vt 0.954386 0.097663
vt 0.380776 0.171137
vt 0.307147 0.209813
vt 0.817645 0.484237
vt 0.390364 0.137463
vt 0.318978 0.209620
vt 0.390364 0.134486
vt 0.307147 0.209813
vt 0.318978 0.209620
vt 0.307147 0.209620
vt 0.461439 0.135682
vt 0.368665 0.134486
vt 0.364759 0.134486
vt 0.375146 0.135682
vt 0.390364 0.134486
vt 0.391061 0.134486
vt 0.307147 0.209620
vt 0.307147 0.209813
vt 0.307147 0.209620
vt 0.318978 0.209620
s 0
usemtl cortex
f 12/28/1 11/23/2 10/22/3
f 15/42/4 14/40/5 13/34/6
f 18/54/7 17/52/8 16/50/9
f 21/60/10 20/59/11 19/57/12
f 24/75/13 23/71/14 22/67/15
f 26/82/16 25/80/17 6/16/18
f 23/73/19 24/74/13 27/85/20
f 24/75/13 28/87/21 27/85/20
f 5/11/22 30/95/23 29/89/24
f 31/98/25 30/92/23 14/37/26
f 2/3/27 17/52/28 18/55/29
f 30/96/23 23/71/19 14/38/26
f 33/103/30 24/77/31 32/99/32
f 31/98/33 14/40/34 15/43/4
f 37/118/35 36/112/36 26/83/37
f 30/96/23 5/14/22 38/128/38
f 40/137/39 39/130/40 24/76/13
f 36/113/41 5/14/22 25/81/17
f 42/145/42 2/5/27 41/142/43
f 14/39/5 8/18/44 43/147/45
f 13/35/6 14/40/5 44/149/46
f 46/153/47 45/152/48 20/58/11
f 36/113/49 25/80/17 26/83/16
f 37/118/35 26/84/50 47/157/51
f 12/32/52 48/159/53 22/67/15
f 44/150/54 14/40/5 43/148/45
f 5/12/22 6/15/18 25/81/17
f 16/47/55 49/166/56 3/6/57
f 37/119/35 49/164/56 50/171/58
f 52/176/59 42/144/60 51/173/61
f 50/170/62 12/29/52 53/178/63
f 53/179/64 37/120/35 50/171/58
f 12/30/52 37/120/65 53/180/63
f 38/129/66 36/114/41 54/181/67
f 12/32/68 50/172/58 49/165/69
f 47/158/51 26/84/16 6/16/18
f 41/143/70 51/174/71 42/146/42
f 31/98/33 15/44/4 30/93/72
f 30/94/23 15/44/4 55/185/73
f 58/199/74 57/196/75 56/193/76
f 60/205/77 59/200/78 56/193/79
f 59/201/78 60/203/80 55/186/73
f 62/209/81 61/208/82 7/17/83
f 56/194/84 55/187/73 15/46/4
f 35/109/85 5/13/22 29/90/24
f 15/45/86 13/36/6 58/198/74
f 41/143/70 2/5/27 63/211/87
f 34/107/88 55/188/73 60/204/89
f 65/216/90 64/213/91 48/163/53
f 41/143/70 63/212/92 51/173/93
f 55/189/73 56/195/76 59/202/78
f 58/199/74 56/195/79 15/46/4
f 60/205/80 56/195/79 57/197/94
f 51/175/93 63/212/87 45/151/95
f 42/145/42 17/52/8 2/4/27
f 16/48/55 17/52/28 42/146/42
f 52/176/59 16/51/96 42/146/42
f 52/176/59 51/174/93 46/154/97
f 23/69/98 27/86/20 8/19/44
f 55/190/73 35/110/85 29/90/24
f 29/91/24 30/95/23 55/191/73
f 54/182/67 66/221/99 38/125/66
f 66/220/100 54/183/67 10/21/101
f 37/117/35 12/31/52 54/183/67
f 12/31/52 10/21/102 54/183/67
f 38/126/66 5/14/22 36/115/41
f 11/24/2 38/127/66 10/22/102
f 30/96/23 11/25/103 23/70/104
f 11/26/103 30/97/23 38/128/66
f 37/123/65 3/6/105 49/166/106
f 12/32/52 23/71/19 11/27/103
f 8/20/44 14/41/5 23/72/98
f 12/32/52 49/167/69 48/160/53
f 68/228/107 39/131/108 67/222/109
f 1/2/110 18/53/29 61/207/111
f 40/141/39 64/215/112 65/217/113
f 40/138/39 65/218/90 39/132/108
f 48/161/53 39/133/108 65/219/113
f 22/65/114 69/230/115 40/139/39
f 69/231/116 22/66/117 48/163/53
f 48/162/53 49/167/118 39/135/119
f 49/168/69 16/49/120 67/223/109
f 32/100/121 24/77/13 39/134/108
f 23/73/19 12/33/52 22/67/114
f 40/140/39 24/78/13 22/68/114
f 64/214/112 69/232/115 48/163/53
f 40/141/39 69/233/115 64/215/112
f 52/176/59 70/234/122 67/224/109
f 67/225/109 70/236/123 68/227/124
f 39/136/119 71/238/125 32/101/126
f 51/175/127 45/152/48 46/154/128
f 24/79/13 33/104/30 28/88/129
f 52/176/59 67/226/109 16/50/96
f 70/235/122 52/177/59 46/154/128
f 49/169/130 67/226/109 39/135/119
f 68/228/107 70/236/131 71/237/125
f 71/239/132 70/236/131 46/155/133
f 39/136/119 68/229/134 71/237/135
f 21/61/136 71/238/132 46/155/128
f 71/239/137 21/62/136 32/101/32
f 46/156/97 20/59/11 21/63/10
f 32/102/121 21/64/138 33/105/30
f 33/106/30 21/64/139 19/57/140
f 3/7/57 4/10/141 61/207/111
f 18/54/29 16/51/142 3/8/143
f 61/206/144 4/10/141 7/17/145
f 1/1/110 2/5/27 18/55/29
f 18/56/29 3/9/57 61/207/146
f 1/2/110 61/208/111 62/210/81
f 55/192/147 34/108/88 35/111/85
f 38/129/66 66/221/100 10/22/3
f 37/124/35 54/184/67 36/116/41
f 72/241/148 73/242/149 74/247/150
f 13/34/6 75/257/151 76/259/152
f 77/267/153 78/269/154 79/271/155
f 19/57/156 20/59/11 80/274/157
f 81/281/158 82/285/159 83/289/160
f 6/16/18 84/294/161 85/296/162
f 86/299/163 83/288/160 82/287/164
f 86/299/163 28/87/21 83/289/160
f 87/301/165 88/307/166 5/11/22
f 75/254/167 88/304/166 89/310/168
f 79/272/169 78/269/170 2/3/27
f 75/255/167 82/285/164 88/308/166
f 90/311/171 83/291/172 33/103/30
f 76/260/152 75/257/173 89/310/174
f 85/297/175 91/315/176 37/118/35
f 92/323/177 5/14/22 88/308/166
f 83/290/160 93/325/178 94/332/179
f 84/295/161 5/14/22 91/316/180
f 95/337/181 2/5/27 96/340/182
f 43/147/45 8/18/44 75/256/151
f 44/149/183 75/257/151 13/35/6
f 20/58/11 45/152/48 97/342/184
f 85/297/162 84/294/161 91/316/185
f 47/157/51 85/298/186 37/118/35
f 81/281/158 98/346/187 74/252/188
f 43/148/45 75/257/151 44/150/54
f 84/295/161 6/15/18 5/12/22
f 3/6/57 99/353/189 77/264/190
f 100/358/191 99/351/189 37/119/35
f 101/360/192 96/339/193 102/363/194
f 103/365/195 74/248/188 100/357/196
f 100/358/191 37/120/35 103/366/197
f 103/367/195 37/121/65 74/249/188
f 104/368/198 91/317/180 92/324/199
f 99/352/200 100/359/191 74/250/201
f 6/16/18 85/298/162 47/158/51
f 96/341/182 101/361/202 95/338/203
f 88/305/204 76/261/152 89/310/174
f 105/372/205 76/261/152 88/306/166
f 106/380/206 57/196/207 58/199/74
f 106/380/208 107/383/209 60/205/210
f 105/373/205 60/203/80 107/384/209
f 7/17/83 108/388/211 62/209/81
f 76/263/152 105/374/205 106/381/212
f 87/302/165 5/13/22 35/109/85
f 58/198/74 13/36/6 76/262/213
f 63/211/87 2/5/27 95/338/203
f 60/204/89 105/375/205 34/107/88
f 98/350/187 109/389/214 110/392/215
f 101/360/216 63/212/92 95/338/203
f 107/385/209 106/382/206 105/376/205
f 76/263/152 106/382/208 58/199/74
f 57/197/94 106/382/208 60/205/80
f 45/151/217 63/212/87 101/362/216
f 2/4/27 78/269/154 96/340/182
f 96/341/182 78/269/170 77/265/190
f 96/341/182 77/268/218 102/363/194
f 97/343/219 101/361/216 102/363/194
f 8/19/44 86/300/163 82/283/220
f 87/302/165 35/110/85 105/377/205
f 105/378/205 88/307/166 87/303/165
f 92/320/199 111/397/221 104/369/198
f 72/240/222 104/370/198 111/396/223
f 104/370/198 74/251/188 37/122/35
f 104/370/198 72/240/224 74/251/188
f 91/318/180 5/14/22 92/321/199
f 72/241/224 92/322/199 73/243/149
f 82/284/225 73/244/226 88/308/166
f 92/323/199 88/309/166 73/245/226
f 99/353/227 3/6/105 37/123/65
f 73/246/226 82/285/164 74/252/188
f 82/286/220 75/258/151 8/20/44
f 98/347/187 99/354/200 74/252/188
f 112/398/228 93/326/229 113/404/230
f 108/387/231 79/270/169 1/2/110
f 110/393/232 109/391/233 94/336/179
f 93/327/229 110/394/215 94/333/179
f 110/395/232 93/328/229 98/348/187
f 94/334/179 114/406/234 81/279/235
f 98/350/187 81/280/236 114/407/237
f 93/330/238 99/354/239 98/349/187
f 112/399/228 77/266/240 99/355/200
f 93/329/229 83/291/160 90/312/241
f 81/281/235 74/253/188 82/287/164
f 81/282/235 83/292/160 94/335/179
f 98/350/187 114/408/234 109/390/233
f 109/391/233 114/409/234 94/336/179
f 112/400/228 115/410/242 102/363/194
f 113/403/243 115/412/244 112/401/228
f 90/313/245 116/414/246 93/331/247
f 97/343/248 45/152/48 101/362/249
f 28/88/129 33/104/30 83/293/160
f 77/267/218 112/402/228 102/363/194
f 97/343/248 102/364/194 115/411/242
f 93/330/247 112/402/228 99/356/250
f 116/413/246 115/412/251 113/404/230
f 97/344/248 115/412/251 116/415/252
f 116/413/253 113/405/254 93/331/247
f 97/344/248 116/414/255 80/275/256
f 90/313/171 80/276/256 116/415/257
f 80/277/157 20/59/11 97/345/219
f 33/105/30 80/278/258 90/314/241
f 19/57/140 80/278/259 33/106/30
f 108/387/231 4/10/141 3/7/57
f 3/8/260 77/268/261 79/271/169
f 7/17/262 4/10/141 108/386/263
f 79/272/169 2/5/27 1/1/110
f 108/387/264 3/9/57 79/273/169
f 62/210/81 108/388/231 1/2/110
f 35/111/85 34/108/88 105/379/265
f 72/241/148 111/397/223 92/324/199
f 91/319/180 104/371/198 37/124/35
l 9 28
