# Blender 3.5.1
# www.blender.org
mtllib cortexrarm.mtl
o cortex.001
v -3.060556 4.516684 -1.922580
v -3.672297 4.710481 -1.990556
v -3.121009 4.426404 -2.118016
v -2.816471 4.571975 -2.279463
v -1.174208 4.789913 -2.040941
v -2.950150 4.801044 -2.139259
v -2.716179 4.349267 -2.105271
v -1.274208 4.589913 -2.240941
v -0.974208 4.389913 -2.040941
v -1.174208 4.389913 -2.240941
v -2.906263 4.690883 -1.846106
v -2.751717 4.457838 -1.888593
v -0.974208 4.689913 -1.940941
v -3.774644 4.633298 -1.969313
v -3.697834 4.809472 -2.088274
v -3.376870 4.992661 -1.739890
v -3.706116 4.508835 -2.185991
v -3.646759 4.611491 -1.892839
v -3.513827 4.001637 -2.347439
v -3.731653 4.607825 -2.283709
v -3.492854 5.105770 -2.326195
v -3.533877 4.607293 -2.738309
v -3.354889 4.286215 -1.761133
v -5.622474 4.933467 -1.153577
v -5.620542 4.832676 -1.565691
v -5.599778 4.629270 -1.370256
v -6.960627 4.373931 -0.877415
v -7.141042 3.890510 -1.463720
v -7.141548 4.795799 -1.442477
v -7.012536 4.882446 -1.366003
v -6.928054 4.873321 -0.975132
v -7.014825 4.782112 -0.856171
v -5.663139 4.636114 -1.663409
v -6.657212 3.938832 -1.157823
v -6.689576 4.746981 -1.234297
v -5.827518 4.855032 -1.111091
v -6.430839 5.322525 -1.276784
v -6.431196 5.121399 -1.179066
v -6.161216 4.891075 -1.242796
v -6.388598 5.317962 -1.081349
v -5.652757 4.534411 -1.565691
v -5.814847 4.853663 -1.523204
v -5.662782 4.837239 -1.761126
v -6.336185 3.904158 -0.614004
v -7.014320 3.876822 -0.877415
v -6.035207 4.475139 -0.461055
v -2.929028 4.389823 -2.160502
v -3.125310 4.630821 -2.313451
vn 0.0270 0.9555 -0.2936
vn -0.8681 0.4818 -0.1193
vn 0.0777 0.0219 -0.9967
vn 0.0304 -0.5053 -0.8624
vn -0.0464 -0.9135 -0.4041
vn -0.1271 -0.9739 -0.1882
vn -0.2704 -0.7678 0.5808
vn -0.0464 -0.9135 -0.4042
vn -0.1252 -0.6943 0.7087
vn -0.2704 -0.7679 0.5808
vn -0.0439 0.2988 0.9533
vn -0.5230 -0.2856 0.8031
vn -0.8681 0.4818 -0.1192
vn 0.0303 -0.5053 -0.8624
vn 0.0777 0.0218 -0.9967
vn -0.5229 -0.2856 0.8031
vn 0.0270 0.9555 -0.2937
vn -0.0438 0.2988 0.9533
vn 0.9634 -0.0349 -0.2658
vn 0.6755 -0.6725 0.3024
vn 0.4127 -0.6826 -0.6031
vn 0.5730 0.7896 -0.2194
vn 0.7121 0.5699 0.4100
vn 0.9634 -0.0349 -0.2659
vn 0.3915 -0.1961 -0.8991
vn 0.5730 0.7897 -0.2194
vn 0.7120 0.5700 0.4100
vn 0.4126 -0.6826 -0.6032
vn 0.3915 -0.1960 -0.8991
vn -0.0465 -0.9135 -0.4042
vn -0.1604 -0.9566 -0.2433
vn 0.4952 -0.3783 0.7821
vn 0.2418 0.9694 -0.0412
vn 0.7606 0.4589 0.4593
vn -0.8220 0.2720 -0.5004
vn -0.4262 -0.7442 -0.5144
vn -0.8255 -0.0243 0.5638
vn -0.6462 0.4393 0.6240
vn 0.0664 0.9800 0.1875
vn -0.1830 0.9819 0.0482
vn -0.4262 -0.7442 -0.5143
vn -0.2301 -0.4664 -0.8541
vn 0.0013 -0.1739 0.9848
vn 0.5238 0.7879 0.3239
vn 0.4854 -0.8521 0.1959
vn 0.7605 0.4589 0.4593
vn -0.4356 0.4251 -0.7935
vn -0.4356 0.4252 -0.7934
vn -0.8585 0.4024 0.3178
vn -0.7888 -0.4747 0.3905
vn -0.2882 0.3329 0.8978
vn -0.2882 0.3330 0.8978
vn 0.1299 -0.9830 -0.1301
vn 0.4952 -0.3782 0.7821
vn 0.4853 -0.8521 0.1959
vn -0.4261 -0.7442 -0.5143
vn 0.1299 -0.9830 -0.1302
vn 0.5237 0.7879 0.3239
vn -0.1887 0.8267 -0.5301
vn -0.1830 0.9819 0.0483
vn -0.2096 0.7413 -0.6376
vn 0.0014 -0.1739 0.9848
vn -0.4356 0.4251 -0.7934
vn 0.2418 0.9695 -0.0412
vn 0.7121 0.5699 0.4101
vn 0.6756 -0.6724 0.3024
vn -0.2095 0.7413 -0.6376
vn 0.1299 -0.9829 -0.1301
vn 0.5729 0.7897 -0.2195
vn -0.4738 -0.7770 0.4145
vn 0.2277 -0.6545 0.7209
vn -0.2302 -0.4664 -0.8541
vn 0.4127 -0.6826 -0.6032
vn 0.2277 -0.6545 0.7210
vn 0.5238 0.7878 0.3240
vn 0.4144 0.7945 0.4439
vn -0.8220 0.2719 -0.5004
vn -0.1831 0.9819 0.0482
vn 0.6755 -0.6724 0.3024
vn -0.8586 0.4023 0.3178
vn -0.4262 -0.7443 -0.5143
vn -0.4738 -0.7770 0.4144
vn -0.8255 -0.0242 0.5638
vn -0.1886 0.8267 -0.5301
vn 0.2277 -0.6546 0.7209
vn 0.2278 -0.6545 0.7209
vn -0.4739 -0.7770 0.4144
vn -0.0379 -0.2757 -0.9605
vn -0.0067 0.6153 0.7883
vn -0.1441 -0.6252 0.7671
vn -0.1690 -0.9723 -0.1616
vn -0.1605 -0.9566 -0.2433
vn -0.0380 -0.2758 -0.9605
vn 0.0269 0.9555 -0.2936
vn 0.0107 0.9999 -0.0076
vn -0.0067 0.6153 0.7882
vn -0.1008 -0.9764 -0.1910
vn -0.1690 -0.9723 -0.1615
vn 0.0171 -0.2015 0.9793
vn -0.0066 0.6153 0.7882
vn -0.0495 0.3330 -0.9416
vn 0.0108 0.9999 -0.0077
vn -0.1007 -0.9764 -0.1910
vn 0.0271 0.9555 -0.2936
vt 0.305908 0.224969
vt 0.303946 0.224969
vt 0.303946 0.227822
vt 0.303946 0.227822
vt 0.305908 0.224969
vt 0.305908 0.224969
vt 0.303946 0.224969
vt 0.303946 0.227822
vt 0.303946 0.227822
vt 0.303946 0.224969
vt 0.303946 0.224969
vt 0.303946 0.227822
vt 0.305908 0.224969
vt 0.303946 0.224969
vt 0.303946 0.227822
vt 0.305908 0.224969
vt 0.303946 0.224969
vt 0.305908 0.224969
vt 0.303946 0.227822
vt 0.303946 0.224969
vt 0.305908 0.224969
vt 0.303946 0.224969
vt 0.305908 0.224969
vt 0.305908 0.224969
vt 0.303946 0.224969
vt 0.305908 0.224969
vt 0.303946 0.224969
vt 0.303946 0.227822
vt 0.303946 0.224969
vt 0.305908 0.224969
vt 0.303946 0.224969
vt 0.607970 0.157511
vt 0.303946 0.224969
vt 0.607211 0.157511
vt 0.523952 0.136910
vt 0.523193 0.136910
vt 0.303946 0.224969
vt 0.305908 0.224969
vt 0.305908 0.224969
vt 0.303946 0.224969
vt 0.607211 0.157511
vt 0.523193 0.136910
vt 0.523952 0.136910
vt 0.305908 0.224969
vt 0.303946 0.224969
vt 0.303946 0.227822
vt 0.607211 0.157517
vt 0.523952 0.136910
vt 0.523193 0.136910
vt 0.607211 0.157517
vt 0.523952 0.136910
vt 0.523193 0.136916
vt 0.607211 0.157517
vt 0.523952 0.136910
vt 0.523193 0.136910
vt 0.523193 0.136916
vt 0.523952 0.136910
vt 0.631059 0.157233
vt 0.631818 0.157227
vt 0.523952 0.136910
vt 0.523193 0.136910
vt 0.631059 0.157227
vt 0.631818 0.157227
vt 0.523193 0.136916
vt 0.523952 0.136910
vt 0.523193 0.136916
vt 0.523952 0.136910
vt 0.523193 0.136916
vt 0.523193 0.136910
vt 0.523952 0.136910
vt 0.523952 0.136910
vt 0.523193 0.136916
vt 0.523193 0.136916
vt 0.523952 0.136910
vt 0.523952 0.136910
vt 0.523193 0.136910
vt 0.523952 0.136910
vt 0.523193 0.136916
vt 0.631059 0.157227
vt 0.523193 0.136916
vt 0.523952 0.136910
vt 0.631818 0.157227
vt 0.523952 0.136910
vt 0.631059 0.157233
vt 0.523193 0.136916
vt 0.631818 0.157227
vt 0.631059 0.157227
vt 0.523952 0.136910
vt 0.631818 0.157227
vt 0.523193 0.136910
vt 0.523193 0.136916
vt 0.631059 0.157233
vt 0.631059 0.157233
vt 0.523952 0.136910
vt 0.631818 0.157227
vt 0.523193 0.136916
vt 0.631818 0.157227
vt 0.523952 0.136910
vt 0.631059 0.157227
vt 0.523193 0.136916
vt 0.523952 0.136910
vt 0.523193 0.136910
vt 0.523952 0.136910
vt 0.523952 0.136910
vt 0.523193 0.136916
vt 0.523193 0.136910
vt 0.631818 0.157227
vt 0.523952 0.136910
vt 0.523952 0.136910
vt 0.523193 0.136910
vt 0.631059 0.157233
vt 0.523193 0.136910
vt 0.303946 0.227822
vt 0.305908 0.224969
vt 0.303946 0.224969
vt 0.303946 0.227822
vt 0.303946 0.224969
vt 0.305908 0.224969
s 0
usemtl cortex.001
f 6/16/1 5/11/2 4/9/3
f 8/21/4 7/17/5 4/9/3
f 10/24/6 9/22/7 7/19/8
f 12/30/9 9/22/10 11/28/11
f 9/23/7 13/31/12 11/28/11
f 5/13/13 8/20/14 4/9/15
f 11/26/11 13/31/16 5/12/13
f 5/13/13 6/14/17 11/28/18
f 14/32/19 23/53/20 19/41/21
f 14/32/19 21/47/22 16/34/23
f 14/32/24 22/50/25 21/47/26
f 14/32/19 16/34/27 23/53/20
f 14/32/19 19/41/28 22/50/29
f 8/21/4 10/25/6 7/19/30
f 9/23/7 12/29/9 7/19/30
f 7/18/8 47/115/31 4/9/15
f 26/65/32 25/61/33 24/56/34
f 29/70/35 28/68/36 27/66/37
f 32/75/38 31/73/39 30/72/40
f 28/67/41 29/69/35 33/78/42
f 36/86/43 35/84/44 34/79/45
f 24/57/46 25/61/33 37/90/47
f 37/88/48 39/96/49 38/91/50
f 40/97/51 38/92/50 36/87/43
f 40/98/52 37/90/48 38/91/50
f 41/101/53 26/64/54 34/80/55
f 34/81/55 28/68/56 41/100/57
f 41/101/53 28/68/41 33/78/42
f 35/82/58 36/87/43 39/93/49
f 36/86/43 26/62/32 24/58/46
f 39/94/49 37/90/48 42/102/59
f 30/71/60 42/102/59 43/105/61
f 39/95/49 36/87/62 38/92/50
f 35/83/44 30/72/60 31/73/39
f 37/89/48 40/99/51 24/58/34
f 24/59/34 40/99/51 36/87/43
f 42/103/59 37/90/63 25/61/64
f 16/35/65 26/64/32 23/55/66
f 22/51/25 43/105/67 21/49/26
f 23/54/20 41/100/68 19/42/21
f 21/48/69 25/61/33 16/36/65
f 45/109/70 44/106/71 27/66/37
f 30/71/60 29/69/35 32/76/38
f 33/77/72 19/42/73 41/100/68
f 26/63/32 36/87/43 34/79/55
f 43/104/61 22/52/29 33/78/42
f 44/107/74 35/84/75 46/111/76
f 32/75/38 44/106/71 46/112/76
f 29/70/77 27/66/37 32/76/38
f 30/71/78 35/85/44 39/96/49
f 41/101/68 23/55/79 26/64/32
f 42/103/59 30/72/40 39/96/80
f 25/60/64 21/49/26 43/105/67
f 19/43/28 33/78/72 22/52/29
f 26/65/32 16/36/65 25/61/33
f 43/104/67 29/69/35 30/72/40
f 28/67/81 45/110/82 27/66/83
f 29/70/77 43/105/61 33/78/72
f 42/103/84 25/61/33 43/105/67
f 44/108/74 32/76/38 27/66/37
f 44/107/85 34/79/55 35/84/44
f 31/74/39 32/76/38 46/112/76
f 31/74/39 46/112/76 35/85/44
f 44/108/86 45/110/70 34/80/55
f 34/81/55 45/110/87 28/68/41
f 48/118/88 4/10/3 47/113/31
f 2/5/89 11/27/18 6/15/1
f 1/1/90 12/29/9 11/28/11
f 3/6/91 47/115/31 1/3/90
f 47/114/92 12/29/9 1/3/90
f 6/16/1 4/10/15 48/116/93
f 6/16/94 15/33/95 2/4/96
f 17/38/97 48/117/88 3/8/98
f 18/39/99 17/37/97 1/3/90
f 2/5/100 1/2/90 11/28/11
f 20/44/101 15/33/102 6/15/1
f 17/38/97 20/45/101 48/116/93
f 17/38/103 3/7/98 1/3/90
f 2/5/96 18/40/99 1/3/90
f 6/16/104 48/117/88 20/46/101
f 48/118/88 47/115/31 3/8/98
f 12/30/9 47/115/31 7/19/8
