# Blender v3.5.0 OBJ File: ''
# www.blender.org
mtllib 03.mtl
o Cylinder001_07_-_Default_0
v -22.014147 6.554472 36.593163
v -33.485657 6.009363 33.550434
v -33.485657 -5.392139 33.550434
v -22.014147 -5.937246 36.593166
v -43.530422 5.299173 29.395899
v -43.530422 -4.681951 29.395901
v -22.014149 18.292847 32.203789
v -33.485661 16.723269 29.528057
v -43.530426 14.678361 25.874624
v -22.014151 27.862041 23.954491
v -33.485664 25.457312 21.968487
v -43.530426 22.324333 19.256809
v -49.948673 4.576088 25.165924
v -49.948673 -3.958867 25.165926
v -54.312183 3.787003 20.549856
v -54.312180 -3.169784 20.549856
v -49.948673 12.596322 22.154852
v -54.312180 10.324244 18.095551
v -49.948669 19.134466 16.495893
v -54.312180 15.653442 13.482971
v -22.014162 6.554472 -36.189980
v -22.014162 -5.937246 -36.189983
v -33.485672 -5.392139 -33.147243
v -33.485672 6.009363 -33.147243
v -43.530437 5.299173 -28.992708
v -43.530437 -4.681951 -28.992710
v -22.014160 18.292847 -31.800606
v -33.485672 16.723269 -29.124870
v -43.530434 14.678361 -25.471434
v -22.014162 27.862041 -23.551308
v -33.485672 25.457312 -21.565300
v -43.530434 22.324333 -18.853619
v -49.948681 -3.958867 -24.762732
v -49.948681 4.576088 -24.762730
v -54.312191 3.787003 -20.146662
v -54.312187 -3.169784 -20.146662
v -49.948681 12.596322 -21.751657
v -54.312187 10.324244 -17.692356
v -49.948677 19.134466 -16.092699
v -54.312187 15.653442 -13.079777
vt 0.943268 0.499949
vt 0.629484 0.484678
vt 0.628737 0.822439
vt 0.943545 0.782274
vt 0.395341 0.502372
vt 0.391935 0.814034
vt 0.942370 0.247907
vt 0.630692 0.235814
vt 0.390002 0.243056
vt 0.944619 0.091996
vt 0.626479 0.108813
vt 0.392276 0.125762
vt 0.234775 0.525856
vt 0.227000 0.777366
vt 0.090114 0.563252
vt 0.087913 0.741732
vt 0.233990 0.271995
vt 0.088474 0.306490
vt 0.231735 0.173003
vt 0.086309 0.227965
vt 0.943268 0.499949
vt 0.943545 0.782274
vt 0.628737 0.822439
vt 0.629484 0.484678
vt 0.395341 0.502372
vt 0.391935 0.814034
vt 0.942370 0.247907
vt 0.630692 0.235814
vt 0.390002 0.243056
vt 0.944619 0.091996
vt 0.626479 0.108813
vt 0.392276 0.125762
vt 0.227000 0.777366
vt 0.234775 0.525856
vt 0.090114 0.563252
vt 0.087913 0.741732
vt 0.233990 0.271995
vt 0.088474 0.306490
vt 0.231735 0.173003
vt 0.086309 0.227965
vn -0.1726 0.1746 0.9694
vn -0.3221 0.1688 0.9315
vn -0.3221 -0.1687 0.9315
vn -0.1727 -0.1746 0.9694
vn -0.4690 0.1577 0.8690
vn -0.4690 -0.1577 0.8690
vn -0.1769 0.4999 0.8478
vn -0.3215 0.4833 0.8143
vn -0.4666 0.4519 0.7603
vn -0.1833 0.7596 0.6240
vn -0.3203 0.7338 0.5992
vn -0.4630 0.6871 0.5600
vn -0.6416 0.1371 0.7547
vn -0.6416 -0.1371 0.7547
vn -0.7696 0.1142 0.6282
vn -0.7696 -0.1142 0.6282
vn -0.6392 0.3931 0.6610
vn -0.7675 0.3279 0.5509
vn -0.6355 0.5987 0.4876
vn -0.7643 0.5001 0.4071
vn -0.1726 0.1746 -0.9694
vn -0.1727 -0.1746 -0.9694
vn -0.3221 -0.1687 -0.9315
vn -0.3221 0.1688 -0.9315
vn -0.4690 0.1577 -0.8690
vn -0.4690 -0.1577 -0.8690
vn -0.1769 0.4999 -0.8478
vn -0.3215 0.4833 -0.8143
vn -0.4666 0.4519 -0.7603
vn -0.1833 0.7596 -0.6240
vn -0.3203 0.7338 -0.5992
vn -0.4630 0.6871 -0.5600
vn -0.6416 -0.1371 -0.7547
vn -0.6416 0.1371 -0.7547
vn -0.7696 0.1142 -0.6282
vn -0.7696 -0.1142 -0.6282
vn -0.6392 0.3931 -0.6610
vn -0.7675 0.3278 -0.5509
vn -0.6355 0.5987 -0.4876
vn -0.7643 0.5001 -0.4071
usemtl 07_-_Default
s 1
f 1/1/1 2/2/2 3/3/3
f 1/1/1 3/3/3 4/4/4
f 3/3/3 2/2/2 5/5/5
f 3/3/3 5/5/5 6/6/6
f 7/7/7 8/8/8 2/2/2
f 7/7/7 2/2/2 1/1/1
f 2/2/2 8/8/8 9/9/9
f 2/2/2 9/9/9 5/5/5
f 10/10/10 11/11/11 8/8/8
f 10/10/10 8/8/8 7/7/7
f 8/8/8 11/11/11 12/12/12
f 8/8/8 12/12/12 9/9/9
f 5/5/5 13/13/13 14/14/14
f 5/5/5 14/14/14 6/6/6
f 14/14/14 13/13/13 15/15/15
f 14/14/14 15/15/15 16/16/16
f 9/9/9 17/17/17 13/13/13
f 9/9/9 13/13/13 5/5/5
f 13/13/13 17/17/17 18/18/18
f 13/13/13 18/18/18 15/15/15
f 12/12/12 19/19/19 17/17/17
f 12/12/12 17/17/17 9/9/9
f 17/17/17 19/19/19 20/20/20
f 17/17/17 20/20/20 18/18/18
f 21/21/21 22/22/22 23/23/23
f 21/21/21 23/23/23 24/24/24
f 25/25/25 24/24/24 23/23/23
f 25/25/25 23/23/23 26/26/26
f 27/27/27 21/21/21 24/24/24
f 27/27/27 24/24/24 28/28/28
f 29/29/29 28/28/28 24/24/24
f 29/29/29 24/24/24 25/25/25
f 30/30/30 27/27/27 28/28/28
f 30/30/30 28/28/28 31/31/31
f 32/32/32 31/31/31 28/28/28
f 32/32/32 28/28/28 29/29/29
f 25/25/25 26/26/26 33/33/33
f 25/25/25 33/33/33 34/34/34
f 35/35/35 34/34/34 33/33/33
f 35/35/35 33/33/33 36/36/36
f 29/29/29 25/25/25 34/34/34
f 29/29/29 34/34/34 37/37/37
f 38/38/38 37/37/37 34/34/34
f 38/38/38 34/34/34 35/35/35
f 32/32/32 29/29/29 37/37/37
f 32/32/32 37/37/37 39/39/39
f 40/40/40 39/39/39 37/37/37
f 40/40/40 37/37/37 38/38/38
