# Blender v3.5.0 OBJ File: ''
# www.blender.org
mtllib Dirt.mtl
o Circle001_Dirt_0
v 53.410084 -0.330147 -11.949582
v 53.410084 13.623654 -11.949584
v 54.823647 13.617837 -0.109507
v 54.823647 13.617837 -0.109507
v 54.823647 -0.330145 -0.109505
v 53.410084 -0.330147 -11.949582
v 49.384296 -0.330148 -22.822798
v 49.384296 13.640229 -22.822800
v 53.410084 13.623654 -11.949584
v 53.410084 13.623654 -11.949584
v 53.410084 -0.330147 -11.949582
v 49.384296 -0.330148 -22.822798
v 43.068626 -0.330149 -32.417629
v 43.068626 13.666230 -32.417629
v 49.384296 13.640229 -22.822800
v 49.384296 13.640229 -22.822800
v 49.384296 -0.330148 -22.822798
v 43.068626 -0.330149 -32.417629
v 34.785446 -0.330150 -40.422562
v 34.785446 13.700336 -40.422562
v 43.068626 13.666230 -32.417629
v 43.068626 13.666230 -32.417629
v 43.068626 -0.330149 -32.417629
v 34.785446 -0.330150 -40.422562
v 24.857092 -0.330151 -46.526054
v 24.857092 13.741212 -46.526054
v 34.785446 13.700336 -40.422562
v 34.785446 13.700336 -40.422562
v 34.785446 -0.330150 -40.422562
v 24.857092 -0.330151 -46.526054
v 13.605917 -0.330152 -50.416611
v 13.605917 13.787539 -50.416611
v 24.857092 13.741212 -46.526054
v 24.857092 13.741212 -46.526054
v 24.857092 -0.330151 -46.526054
v 13.605917 -0.330152 -50.416611
v 1.354276 -0.330152 -51.782692
v 1.354276 13.837982 -51.782692
v 13.605917 13.787539 -50.416611
v 13.605917 13.787539 -50.416611
v 13.605917 -0.330152 -50.416611
v 1.354276 -0.330152 -51.782692
v -10.897367 -0.330152 -50.416615
v -10.897367 13.888427 -50.416622
v 1.354276 13.837982 -51.782692
v 1.354276 13.837982 -51.782692
v 1.354276 -0.330152 -51.782692
v -10.897367 -0.330152 -50.416615
v -22.148542 -0.330151 -46.526066
v -22.148542 13.934752 -46.526070
v -10.897367 13.888427 -50.416622
v -10.897367 13.888427 -50.416622
v -10.897367 -0.330152 -50.416615
v -22.148542 -0.330151 -46.526066
v -32.076889 -0.330150 -40.422554
v -32.076889 13.975631 -40.422558
v -22.148542 13.934752 -46.526070
v -22.148542 13.934752 -46.526070
v -22.148542 -0.330151 -46.526066
v -32.076889 -0.330150 -40.422554
v -40.360077 -0.330149 -32.417629
v -40.360077 14.009738 -32.417633
v -32.076889 13.975631 -40.422558
v -32.076889 13.975631 -40.422558
v -32.076889 -0.330150 -40.422554
v -40.360077 -0.330149 -32.417629
v -46.675739 -0.330148 -22.822792
v -46.675739 14.035743 -22.822794
v -40.360077 14.009738 -32.417633
v -40.360077 14.009738 -32.417633
v -40.360077 -0.330149 -32.417629
v -46.675739 -0.330148 -22.822792
v -50.701519 -0.330147 -11.949575
v -50.701519 14.052320 -11.949577
v -46.675739 14.035743 -22.822794
v -46.675739 14.035743 -22.822794
v -46.675739 -0.330148 -22.822792
v -50.701519 -0.330147 -11.949575
v -52.115089 -0.330145 -0.109500
v -52.115089 14.058141 -0.109502
v -50.701519 14.052320 -11.949577
v -50.701519 14.052320 -11.949577
v -50.701519 -0.330147 -11.949575
v -52.115089 -0.330145 -0.109500
v -50.701519 -0.330143 11.730577
v -50.701519 14.052324 11.730575
v -52.115089 14.058141 -0.109502
v -52.115089 14.058141 -0.109502
v -52.115089 -0.330145 -0.109500
v -50.701519 -0.330143 11.730577
v -46.675739 -0.330142 22.603794
v -46.675739 14.035748 22.603792
v -50.701519 14.052324 11.730575
v -50.701519 14.052324 11.730575
v -50.701519 -0.330143 11.730577
v -46.675739 -0.330142 22.603794
v -40.360069 -0.330141 32.198624
v -40.360069 14.009748 32.198620
v -46.675739 14.035748 22.603792
v -46.675739 14.035748 22.603792
v -46.675739 -0.330142 22.603794
v -40.360069 -0.330141 32.198624
v -32.076889 -0.330140 40.203552
v -32.076889 13.975642 40.203548
v -40.360069 14.009748 32.198620
v -40.360069 14.009748 32.198620
v -40.360069 -0.330141 32.198624
v -32.076889 -0.330140 40.203552
v -22.148535 -0.330139 46.307056
v -22.148535 13.934765 46.307053
v -32.076889 13.975642 40.203548
v -32.076889 13.975642 40.203548
v -32.076889 -0.330140 40.203552
v -22.148535 -0.330139 46.307056
v -10.897362 -0.330138 50.197601
v -10.897362 13.888440 50.197598
v -22.148535 13.934765 46.307053
v -22.148535 13.934765 46.307053
v -22.148535 -0.330139 46.307056
v -10.897362 -0.330138 50.197601
v 1.354279 -0.330138 51.563683
v 1.354279 13.837996 51.563683
v -10.897362 13.888440 50.197598
v -10.897362 13.888440 50.197598
v -10.897362 -0.330138 50.197601
v 1.354279 -0.330138 51.563683
v 13.605921 -0.330138 50.197605
v 13.605921 13.787553 50.197605
v 1.354279 13.837996 51.563683
v 1.354279 13.837996 51.563683
v 1.354279 -0.330138 51.563683
v 13.605921 -0.330138 50.197605
v 24.857096 -0.330139 46.307060
v 24.857096 13.741225 46.307060
v 13.605921 13.787553 50.197605
v 13.605921 13.787553 50.197605
v 13.605921 -0.330138 50.197605
v 24.857096 -0.330139 46.307060
v 34.785446 -0.330140 40.203545
v 34.785446 13.700347 40.203545
v 24.857096 13.741225 46.307060
v 24.857096 13.741225 46.307060
v 24.857096 -0.330139 46.307060
v 34.785446 -0.330140 40.203545
v 43.068634 -0.330141 32.198620
v 43.068634 13.666240 32.198620
v 34.785446 13.700347 40.203545
v 34.785446 13.700347 40.203545
v 34.785446 -0.330140 40.203545
v 43.068634 -0.330141 32.198620
v 49.384289 -0.330142 22.603785
v 49.384289 13.640235 22.603783
v 43.068634 13.666240 32.198620
v 43.068634 13.666240 32.198620
v 43.068634 -0.330141 32.198620
v 49.384289 -0.330142 22.603785
v 53.410076 -0.330143 11.730570
v 53.410076 13.623658 11.730568
v 49.384289 13.640235 22.603783
v 49.384289 13.640235 22.603783
v 49.384289 -0.330142 22.603785
v 53.410076 -0.330143 11.730570
v 54.823647 -0.330145 -0.109505
v 54.823647 13.617837 -0.109507
v 53.410076 13.623658 11.730568
v 53.410076 13.623658 11.730568
v 53.410076 -0.330143 11.730570
v 54.823647 -0.330145 -0.109505
v -40.360069 -0.330141 32.198624
v -46.675739 -0.330142 22.603794
v -50.701519 -0.330143 11.730577
v -40.360069 -0.330141 32.198624
v -50.701519 -0.330143 11.730577
v -52.115089 -0.330145 -0.109500
v -40.360069 -0.330141 32.198624
v -52.115089 -0.330145 -0.109500
v -50.701519 -0.330147 -11.949575
v -40.360069 -0.330141 32.198624
v -50.701519 -0.330147 -11.949575
v -46.675739 -0.330148 -22.822792
v -40.360069 -0.330141 32.198624
v -46.675739 -0.330148 -22.822792
v -40.360077 -0.330149 -32.417629
v -40.360069 -0.330141 32.198624
v -40.360077 -0.330149 -32.417629
v -32.076889 -0.330150 -40.422554
v -40.360069 -0.330141 32.198624
v -32.076889 -0.330150 -40.422554
v -22.148542 -0.330151 -46.526066
v -40.360069 -0.330141 32.198624
v -22.148542 -0.330151 -46.526066
v -10.897367 -0.330152 -50.416615
v -40.360069 -0.330141 32.198624
v -10.897367 -0.330152 -50.416615
v 1.354276 -0.330152 -51.782692
v -40.360069 -0.330141 32.198624
v 1.354276 -0.330152 -51.782692
v 13.605917 -0.330152 -50.416611
v -40.360069 -0.330141 32.198624
v 13.605917 -0.330152 -50.416611
v 24.857092 -0.330151 -46.526054
v -40.360069 -0.330141 32.198624
v 24.857092 -0.330151 -46.526054
v 34.785446 -0.330150 -40.422562
v -40.360069 -0.330141 32.198624
v 34.785446 -0.330150 -40.422562
v 43.068626 -0.330149 -32.417629
v -40.360069 -0.330141 32.198624
v 43.068626 -0.330149 -32.417629
v 49.384296 -0.330148 -22.822798
v 49.384296 -0.330148 -22.822798
v 53.410084 -0.330147 -11.949582
v 53.410084 -0.330147 -11.949582
v 54.823647 -0.330145 -0.109505
v -40.360069 -0.330141 32.198624
v 54.823647 -0.330145 -0.109505
v 53.410076 -0.330143 11.730570
v -40.360069 -0.330141 32.198624
v 53.410076 -0.330143 11.730570
v 49.384289 -0.330142 22.603785
v 49.384289 -0.330142 22.603785
v 43.068634 -0.330141 32.198620
v 43.068634 -0.330141 32.198620
v 34.785446 -0.330140 40.203545
v -32.076889 -0.330140 40.203552
v -40.360069 -0.330141 32.198624
v 34.785446 -0.330140 40.203545
v -22.148535 -0.330139 46.307056
v -32.076889 -0.330140 40.203552
v 34.785446 -0.330140 40.203545
v -22.148535 -0.330139 46.307056
v 34.785446 -0.330140 40.203545
v 24.857096 -0.330139 46.307060
v -10.897362 -0.330138 50.197601
v -22.148535 -0.330139 46.307056
v 24.857096 -0.330139 46.307060
v -10.897362 -0.330138 50.197601
v 24.857096 -0.330139 46.307060
v 13.605921 -0.330138 50.197605
v -10.897362 -0.330138 50.197601
v 13.605921 -0.330138 50.197605
v 1.354279 -0.330138 51.563683
vt -2.711831 0.486618
vt -2.617395 0.224256
vt -2.450469 -0.052244
vt -2.711831 0.486618
vt -2.450469 -0.052244
vt -2.211876 -0.333586
vt -2.711831 0.486618
vt -2.211876 -0.333586
vt -1.919195 -0.596132
vt -2.711831 0.486618
vt -1.919195 -0.596132
vt -1.598231 -0.819105
vt -2.711831 0.486618
vt -1.598231 -0.819105
vt -1.262139 -0.997493
vt -2.711831 0.486618
vt -1.262139 -0.997493
vt -0.924075 -1.126283
vt -2.711831 0.486618
vt -0.924075 -1.126283
vt -0.597196 -1.200464
vt -2.711831 0.486618
vt -0.597196 -1.200464
vt -0.294658 -1.215024
vt -2.711831 0.486618
vt -0.294658 -1.215024
vt -0.029617 -1.164950
vt -2.711831 0.486618
vt -0.029617 -1.164950
vt 0.174127 -1.052124
vt -2.711831 0.486618
vt 0.174127 -1.052124
vt 0.302092 -0.887967
vt -2.711831 0.486618
vt 0.302092 -0.887967
vt 0.355102 -0.681777
vt -2.711831 0.486618
vt 0.355102 -0.681777
vt 0.333978 -0.442851
vt -2.711831 0.486618
vt 0.333978 -0.442851
vt 0.239542 -0.180490
vt 0.239542 -0.180490
vt 0.072616 0.096011
vt 0.072616 0.096011
vt -0.165977 0.377352
vt -2.711831 0.486618
vt -0.165977 0.377352
vt -0.458658 0.639899
vt -2.711831 0.486618
vt -0.458658 0.639899
vt -0.779623 0.862872
vt -0.779623 0.862872
vt -1.115715 1.041260
vt -1.115715 1.041260
vt -1.453778 1.170050
vt -2.732955 0.725543
vt -2.711831 0.486618
vt -1.453778 1.170050
vt -2.679946 0.931734
vt -2.732955 0.725543
vt -1.453778 1.170050
vt -2.679946 0.931734
vt -1.453778 1.170050
vt -1.780658 1.244231
vt -2.551980 1.095891
vt -2.679946 0.931734
vt -1.780658 1.244231
vt -2.551980 1.095891
vt -1.780658 1.244231
vt -2.083195 1.258791
vt -2.551980 1.095891
vt -2.083195 1.258791
vt -2.348236 1.208717
vt 0.072616 0.096011
vt 1.216173 0.403313
vt 0.977103 0.684526
vt 0.977103 0.684526
vt -0.165977 0.377352
vt 0.072616 0.096011
vt 0.239542 -0.180490
vt 1.384458 0.127177
vt 1.216173 0.403313
vt 1.216173 0.403313
vt 0.072616 0.096011
vt 0.239542 -0.180490
vt 0.333978 -0.442851
vt 1.481024 -0.134612
vt 1.384458 0.127177
vt 1.384458 0.127177
vt 0.239542 -0.180490
vt 0.333978 -0.442851
vt 0.355102 -0.681777
vt 1.504944 -0.372786
vt 1.481024 -0.134612
vt 1.481024 -0.134612
vt 0.333978 -0.442851
vt 0.355102 -0.681777
vt 0.302092 -0.887967
vt 1.455284 -0.578076
vt 1.504944 -0.372786
vt 1.504944 -0.372786
vt 0.355102 -0.681777
vt 0.302092 -0.887967
vt 0.174127 -1.052124
vt 1.331115 -0.741213
vt 1.455284 -0.578076
vt 1.455284 -0.578076
vt 0.302092 -0.887967
vt 0.174127 -1.052124
vt -0.029617 -1.164950
vt 1.131505 -0.852928
vt 1.331115 -0.741213
vt 1.331115 -0.741213
vt 0.174127 -1.052124
vt -0.029617 -1.164950
vt -0.294658 -1.215024
vt 0.870599 -0.901891
vt 1.131505 -0.852928
vt 1.131505 -0.852928
vt -0.029617 -1.164950
vt -0.294658 -1.215024
vt -0.597196 -1.200464
vt 0.571857 -0.886311
vt 0.870599 -0.901891
vt 0.870599 -0.901891
vt -0.294658 -1.215024
vt -0.597196 -1.200464
vt -0.924075 -1.126283
vt 0.248328 -0.811230
vt 0.571857 -0.886311
vt 0.571857 -0.886311
vt -0.597196 -1.200464
vt -0.924075 -1.126283
vt -1.262139 -0.997493
vt -0.086941 -0.681688
vt 0.248328 -0.811230
vt 0.248328 -0.811230
vt -0.924075 -1.126283
vt -1.262139 -0.997493
vt -1.598231 -0.819105
vt -0.420902 -0.502728
vt -0.086941 -0.681688
vt -0.086941 -0.681688
vt -1.262139 -0.997493
vt -1.598231 -0.819105
vt -1.919195 -0.596132
vt -0.740508 -0.279390
vt -0.420902 -0.502728
vt -0.420902 -0.502728
vt -1.598231 -0.819105
vt -1.919195 -0.596132
vt -2.211876 -0.333586
vt -1.032712 -0.016715
vt -0.740508 -0.279390
vt -0.740508 -0.279390
vt -1.919195 -0.596132
vt -2.211876 -0.333586
vt -2.450469 -0.052244
vt -1.271782 0.264498
vt -1.032712 -0.016715
vt -1.032712 -0.016715
vt -2.211876 -0.333586
vt -2.450469 -0.052244
vt -2.617395 0.224256
vt -1.440067 0.540633
vt -1.271782 0.264498
vt -1.271782 0.264498
vt -2.450469 -0.052244
vt -2.617395 0.224256
vt -2.711831 0.486618
vt -1.536633 0.802423
vt -1.440067 0.540633
vt -1.440067 0.540633
vt -2.617395 0.224256
vt -2.711831 0.486618
vt -2.732955 0.725543
vt -1.560553 1.040597
vt -1.536633 0.802423
vt -1.536633 0.802423
vt -2.711831 0.486618
vt -2.732955 0.725543
vt -2.679946 0.931734
vt -1.510893 1.245887
vt -1.560553 1.040597
vt -1.560553 1.040597
vt -2.732955 0.725543
vt -2.679946 0.931734
vt -2.551980 1.095891
vt -1.386724 1.409024
vt -1.510893 1.245887
vt -1.510893 1.245887
vt -2.679946 0.931734
vt -2.551980 1.095891
vt -2.348236 1.208717
vt -1.187114 1.520739
vt -1.386724 1.409024
vt -1.386724 1.409024
vt -2.551980 1.095891
vt -2.348236 1.208717
vt -2.083195 1.258791
vt -0.926207 1.569702
vt -1.187114 1.520739
vt -1.187114 1.520739
vt -2.348236 1.208717
vt -2.083195 1.258791
vt -1.780658 1.244231
vt -0.627466 1.554122
vt -0.926207 1.569702
vt -0.926207 1.569702
vt -2.083195 1.258791
vt -1.780658 1.244231
vt -1.453778 1.170050
vt -0.303937 1.479040
vt -0.627466 1.554122
vt -0.627466 1.554122
vt -1.780658 1.244231
vt -1.453778 1.170050
vt -1.115715 1.041260
vt 0.031332 1.349499
vt -0.303937 1.479040
vt -0.303937 1.479040
vt -1.453778 1.170050
vt -1.115715 1.041260
vt -0.779623 0.862872
vt 0.365293 1.170538
vt 0.031332 1.349499
vt 0.031332 1.349499
vt -1.115715 1.041260
vt -0.779623 0.862872
vt -0.458658 0.639899
vt 0.684899 0.947200
vt 0.365293 1.170538
vt 0.365293 1.170538
vt -0.779623 0.862872
vt -0.458658 0.639899
vt -0.165977 0.377352
vt 0.977103 0.684526
vt 0.684899 0.947200
vt 0.684899 0.947200
vt -0.458658 0.639899
vt -0.165977 0.377352
vn 0.0000 -1.0000 0.0000
vn 0.9729 0.0041 -0.2310
vn 0.9729 0.0000 -0.2312
vn 1.0000 -0.0089 -0.0043
vn 1.0000 -0.0041 -0.0040
vn 1.0000 0.0000 -0.0040
vn 0.9730 0.0089 -0.2308
vn 0.8934 0.0040 -0.4493
vn 0.8933 -0.0000 -0.4495
vn 0.9711 -0.0089 -0.2383
vn 0.9712 -0.0041 -0.2381
vn 0.9713 0.0000 -0.2379
vn 0.8935 0.0087 -0.4490
vn 0.7703 0.0040 -0.6377
vn 0.7701 -0.0000 -0.6379
vn 0.8910 -0.0088 -0.4539
vn 0.8912 -0.0041 -0.4537
vn 0.8913 0.0000 -0.4535
vn 0.7705 0.0087 -0.6374
vn 0.6123 0.0041 -0.7906
vn 0.6120 -0.0000 -0.7909
vn 0.7689 -0.0088 -0.6393
vn 0.7691 -0.0041 -0.6392
vn 0.7693 0.0000 -0.6389
vn 0.6125 0.0089 -0.7904
vn 0.4258 0.0043 -0.9048
vn 0.4254 -0.0001 -0.9050
vn 0.6130 -0.0091 -0.7900
vn 0.6133 -0.0042 -0.7898
vn 0.6136 0.0000 -0.7896
vn 0.4260 0.0093 -0.9047
vn 0.2169 0.0045 -0.9762
vn 0.2164 -0.0001 -0.9763
vn 0.4292 -0.0094 -0.9032
vn 0.4295 -0.0044 -0.9031
vn 0.4299 0.0000 -0.9029
vn 0.2172 0.0098 -0.9761
vn -0.0037 0.0046 -1.0000
vn -0.0042 -0.0000 -1.0000
vn 0.2227 -0.0098 -0.9748
vn 0.2231 -0.0046 -0.9748
vn 0.2235 0.0000 -0.9747
vn -0.0034 0.0100 -0.9999
vn -0.2234 0.0046 -0.9747
vn -0.2239 -0.0000 -0.9746
vn 0.0030 -0.0099 -0.9999
vn 0.0033 -0.0046 -1.0000
vn 0.0038 0.0000 -1.0000
vn -0.2231 0.0099 -0.9747
vn -0.4298 0.0044 -0.9029
vn -0.4302 -0.0001 -0.9027
vn -0.2176 -0.0097 -0.9760
vn -0.2173 -0.0045 -0.9761
vn -0.2168 0.0001 -0.9762
vn -0.4295 0.0095 -0.9030
vn -0.6135 0.0042 -0.7897
vn -0.6139 -0.0000 -0.7894
vn -0.4263 -0.0092 -0.9045
vn -0.4261 -0.0042 -0.9047
vn -0.4257 0.0000 -0.9049
vn -0.6133 0.0091 -0.7898
vn -0.7693 0.0041 -0.6389
vn -0.7695 -0.0000 -0.6387
vn -0.6127 -0.0088 -0.7902
vn -0.6125 -0.0040 -0.7904
vn -0.6123 0.0000 -0.7907
vn -0.7691 0.0089 -0.6391
vn -0.8912 0.0040 -0.4536
vn -0.8913 -0.0000 -0.4533
vn -0.7706 -0.0086 -0.6373
vn -0.7705 -0.0040 -0.6375
vn -0.7702 0.0000 -0.6378
vn -0.8911 0.0088 -0.4538
vn -0.9713 0.0041 -0.2380
vn -0.9713 -0.0000 -0.2378
vn -0.8935 -0.0086 -0.4489
vn -0.8934 -0.0040 -0.4492
vn -0.8933 0.0000 -0.4494
vn -0.9712 0.0089 -0.2382
vn -1.0000 0.0041 -0.0040
vn -1.0000 -0.0000 -0.0040
vn -0.9730 -0.0088 -0.2307
vn -0.9730 -0.0041 -0.2309
vn -0.9729 0.0000 -0.2311
vn -1.0000 0.0088 -0.0043
vn -0.9729 0.0041 0.2310
vn -0.9730 -0.0000 0.2310
vn -1.0000 -0.0088 0.0043
vn -1.0000 -0.0041 0.0040
vn -1.0000 0.0000 0.0040
vn -0.9730 0.0088 0.2308
vn -0.8934 0.0040 0.4493
vn -0.8934 0.0000 0.4492
vn -0.9712 -0.0089 0.2381
vn -0.9713 -0.0041 0.2379
vn -0.9713 0.0000 0.2379
vn -0.8935 0.0086 0.4491
vn -0.7703 0.0040 0.6377
vn -0.7704 0.0000 0.6375
vn -0.8912 -0.0089 0.4536
vn -0.8913 -0.0040 0.4534
vn -0.8913 0.0000 0.4535
vn -0.7705 0.0086 0.6374
vn -0.6123 0.0041 0.7906
vn -0.6125 0.0000 0.7905
vn -0.7692 -0.0089 0.6389
vn -0.7694 -0.0041 0.6387
vn -0.7693 0.0000 0.6389
vn -0.6125 0.0089 0.7904
vn -0.4258 0.0043 0.9048
vn -0.4260 0.0000 0.9047
vn -0.6135 -0.0092 0.7896
vn -0.6138 -0.0042 0.7895
vn -0.6136 0.0000 0.7896
vn -0.4260 0.0093 0.9047
vn -0.2169 0.0045 0.9762
vn -0.2172 0.0001 0.9761
vn -0.4299 -0.0096 0.9028
vn -0.4302 -0.0044 0.9027
vn -0.4299 -0.0000 0.9029
vn -0.2172 0.0098 0.9761
vn 0.0037 0.0046 1.0000
vn 0.0034 0.0001 1.0000
vn -0.2235 -0.0101 0.9747
vn -0.2238 -0.0046 0.9746
vn -0.2235 0.0000 0.9747
vn 0.0034 0.0100 0.9999
vn 0.2234 0.0046 0.9747
vn 0.2231 0.0001 0.9748
vn -0.0038 -0.0101 0.9999
vn -0.0042 -0.0046 1.0000
vn -0.0038 0.0000 1.0000
vn 0.2231 0.0099 0.9747
vn 0.4298 0.0044 0.9029
vn 0.4296 0.0000 0.9030
vn 0.2168 -0.0099 0.9762
vn 0.2165 -0.0045 0.9763
vn 0.2168 0.0000 0.9762
vn 0.4295 0.0095 0.9030
vn 0.6135 0.0042 0.7897
vn 0.6134 0.0000 0.7898
vn 0.4257 -0.0094 0.9048
vn 0.4254 -0.0043 0.9050
vn 0.4257 0.0000 0.9049
vn 0.6133 0.0091 0.7898
vn 0.7693 0.0041 0.6389
vn 0.7691 0.0000 0.6391
vn 0.6123 -0.0090 0.7906
vn 0.6121 -0.0041 0.7908
vn 0.6122 0.0000 0.7907
vn 0.7690 0.0089 0.6391
vn 0.8912 0.0041 0.4536
vn 0.8912 0.0000 0.4536
vn 0.7703 -0.0087 0.6377
vn 0.7701 -0.0040 0.6379
vn 0.7702 0.0000 0.6378
vn 0.8911 0.0089 0.4538
vn 0.9713 0.0041 0.2380
vn 0.9713 0.0000 0.2380
vn 0.8934 -0.0087 0.4492
vn 0.8933 -0.0040 0.4495
vn 0.8933 0.0000 0.4494
vn 0.9712 0.0089 0.2382
vn 1.0000 0.0041 0.0040
vn 1.0000 0.0000 0.0040
vn 0.9729 -0.0089 0.2308
vn 0.9729 -0.0041 0.2311
vn 0.9729 0.0000 0.2311
vn 1.0000 0.0089 0.0043
usemtl Dirt
s off
f 169/1/1 170/2/1 171/3/1
f 172/4/1 173/5/1 174/6/1
f 175/7/1 176/8/1 177/9/1
f 178/10/1 179/11/1 180/12/1
f 181/13/1 182/14/1 183/15/1
f 184/16/1 185/17/1 186/18/1
f 187/19/1 188/20/1 189/21/1
f 190/22/1 191/23/1 192/24/1
f 193/25/1 194/26/1 195/27/1
f 196/28/1 197/29/1 198/30/1
f 199/31/1 200/32/1 201/33/1
f 202/34/1 203/35/1 204/36/1
f 205/37/1 206/38/1 207/39/1
f 208/40/1 209/41/1 210/42/1
f 184/16/1 211/43/1 212/44/1
f 205/37/1 213/45/1 214/46/1
f 215/47/1 216/48/1 217/49/1
f 218/50/1 219/51/1 220/52/1
f 199/31/1 221/53/1 222/54/1
f 208/40/1 223/55/1 224/56/1
f 225/57/1 226/58/1 227/59/1
f 228/60/1 229/61/1 230/62/1
f 231/63/1 232/64/1 233/65/1
f 234/66/1 235/67/1 236/68/1
f 237/69/1 238/70/1 239/71/1
f 240/72/1 241/73/1 242/74/1
s 1
f 1/75/2 2/76/3 3/77/4
f 4/78/5 5/79/6 6/80/7
f 7/81/8 8/82/9 9/83/10
f 10/84/11 11/85/12 12/86/13
f 13/87/14 14/88/15 15/89/16
f 16/90/17 17/91/18 18/92/19
f 19/93/20 20/94/21 21/95/22
f 22/96/23 23/97/24 24/98/25
f 25/99/26 26/100/27 27/101/28
f 28/102/29 29/103/30 30/104/31
f 31/105/32 32/106/33 33/107/34
f 34/108/35 35/109/36 36/110/37
f 37/111/38 38/112/39 39/113/40
f 40/114/41 41/115/42 42/116/43
f 43/117/44 44/118/45 45/119/46
f 46/120/47 47/121/48 48/122/49
f 49/123/50 50/124/51 51/125/52
f 52/126/53 53/127/54 54/128/55
f 55/129/56 56/130/57 57/131/58
f 58/132/59 59/133/60 60/134/61
f 61/135/62 62/136/63 63/137/64
f 64/138/65 65/139/66 66/140/67
f 67/141/68 68/142/69 69/143/70
f 70/144/71 71/145/72 72/146/73
f 73/147/74 74/148/75 75/149/76
f 76/150/77 77/151/78 78/152/79
f 79/153/80 80/154/81 81/155/82
f 82/156/83 83/157/84 84/158/85
f 85/159/86 86/160/87 87/161/88
f 88/162/89 89/163/90 90/164/91
f 91/165/92 92/166/93 93/167/94
f 94/168/95 95/169/96 96/170/97
f 97/171/98 98/172/99 99/173/100
f 100/174/101 101/175/102 102/176/103
f 103/177/104 104/178/105 105/179/106
f 106/180/107 107/181/108 108/182/109
f 109/183/110 110/184/111 111/185/112
f 112/186/113 113/187/114 114/188/115
f 115/189/116 116/190/117 117/191/118
f 118/192/119 119/193/120 120/194/121
f 121/195/122 122/196/123 123/197/124
f 124/198/125 125/199/126 126/200/127
f 127/201/128 128/202/129 129/203/130
f 130/204/131 131/205/132 132/206/133
f 133/207/134 134/208/135 135/209/136
f 136/210/137 137/211/138 138/212/139
f 139/213/140 140/214/141 141/215/142
f 142/216/143 143/217/144 144/218/145
f 145/219/146 146/220/147 147/221/148
f 148/222/149 149/223/150 150/224/151
f 151/225/152 152/226/153 153/227/154
f 154/228/155 155/229/156 156/230/157
f 157/231/158 158/232/159 159/233/160
f 160/234/161 161/235/162 162/236/163
f 163/237/164 164/238/165 165/239/166
f 166/240/167 167/241/168 168/242/169
