# Blender v3.5.0 OBJ File: ''
# www.blender.org
mtllib Flappy 04.mtl
o Object_5_Object_1
v 1.085521 0.544544 0.458553
v 1.096811 0.510572 0.493476
v 1.074755 0.532704 0.552027
v 1.031410 0.595174 0.584752
v 1.068941 0.578501 0.423787
v 1.011860 0.666885 0.438885
v 0.988289 0.669522 0.560748
v 0.974711 0.708626 0.491830
v 1.088158 0.545548 0.552455
v 1.110214 0.523415 0.493904
v 1.098925 0.557387 0.458981
v 1.044813 0.608017 0.585181
v 1.082345 0.591344 0.424216
v 1.025263 0.679729 0.439313
v 1.001693 0.682366 0.561177
v 0.988115 0.721469 0.492259
v 1.074755 0.532704 -0.552027
v 1.096811 0.510572 -0.493476
v 1.085521 0.544544 -0.458553
v 1.031410 0.595174 -0.584752
v 1.068941 0.578501 -0.423787
v 1.011860 0.666885 -0.438885
v 0.988289 0.669522 -0.560748
v 0.974711 0.708626 -0.491830
v 1.098925 0.557387 -0.458981
v 1.110214 0.523415 -0.493904
v 1.088158 0.545548 -0.552455
v 1.044813 0.608017 -0.585181
v 1.082345 0.591344 -0.424216
v 1.025263 0.679729 -0.439313
v 1.001693 0.682366 -0.561177
v 0.988115 0.721469 -0.492259
vn -0.2111 -0.7519 -0.6245
vn 0.0064 -0.9885 -0.1513
vn -0.2254 -0.8295 0.5111
vn -0.5412 -0.4417 0.7155
vn -0.3025 -0.5115 -0.8043
vn -0.6742 -0.0752 -0.7347
vn -0.8459 -0.0108 0.5333
vn -0.9466 0.2751 -0.1679
vn 0.7886 -0.0548 0.6125
vn 0.9595 -0.2742 -0.0648
vn 0.9245 0.0108 -0.3810
vn 0.4966 0.2890 0.8184
vn 0.6965 0.2052 -0.6876
vn 0.3681 0.6761 -0.6382
vn 0.1695 0.7124 0.6811
vn -0.0112 0.9974 -0.0713
vn -0.2254 -0.8295 -0.5111
vn 0.0064 -0.9885 0.1513
vn -0.2111 -0.7519 0.6245
vn -0.5412 -0.4417 -0.7155
vn -0.3025 -0.5115 0.8043
vn -0.6742 -0.0752 0.7347
vn -0.8459 -0.0108 -0.5333
vn -0.9466 0.2751 0.1679
vn 0.9245 0.0108 0.3810
vn 0.9595 -0.2742 0.0648
vn 0.7886 -0.0548 -0.6125
vn 0.4966 0.2890 -0.8184
vn 0.6965 0.2052 0.6876
vn 0.3681 0.6761 0.6382
vn 0.1695 0.7124 -0.6811
vn -0.0112 0.9974 0.0713
usemtl Material.003
s 1
f 1//1 2//2 3//3
f 1//1 3//3 4//4
f 5//5 1//1 4//4
f 6//6 5//5 4//4
f 6//6 4//4 7//7
f 8//8 6//6 7//7
f 9//9 10//10 11//11
f 12//12 9//9 11//11
f 12//12 11//11 13//13
f 12//12 13//13 14//14
f 15//15 12//12 14//14
f 15//15 14//14 16//16
f 11//11 1//1 5//5
f 13//13 11//11 5//5
f 3//3 2//2 10//10
f 3//3 10//10 9//9
f 7//7 4//4 12//12
f 7//7 12//12 15//15
f 4//4 3//3 9//9
f 4//4 9//9 12//12
f 10//10 2//2 1//1
f 11//11 10//10 1//1
f 13//13 5//5 6//6
f 14//14 13//13 6//6
f 8//8 7//7 15//15
f 8//8 15//15 16//16
f 14//14 6//6 8//8
f 16//16 14//14 8//8
f 17//17 18//18 19//19
f 20//20 17//17 19//19
f 20//20 19//19 21//21
f 20//20 21//21 22//22
f 23//23 20//20 22//22
f 23//23 22//22 24//24
f 25//25 26//26 27//27
f 25//25 27//27 28//28
f 29//29 25//25 28//28
f 30//30 29//29 28//28
f 30//30 28//28 31//31
f 32//32 30//30 31//31
f 21//21 19//19 25//25
f 21//21 25//25 29//29
f 26//26 18//18 17//17
f 27//27 26//26 17//17
f 28//28 20//20 23//23
f 31//31 28//28 23//23
f 27//27 17//17 20//20
f 28//28 27//27 20//20
f 19//19 18//18 26//26
f 19//19 26//26 25//25
f 22//22 21//21 29//29
f 22//22 29//29 30//30
f 31//31 23//23 24//24
f 32//32 31//31 24//24
f 24//24 22//22 30//30
f 24//24 30//30 32//32
