# Blender v3.5.0 OBJ File: ''
# www.blender.org
mtllib Flappy 02.mtl
o Object_4_Object_0
v 0.588563 -0.251092 1.066617
v 0.596877 -0.303458 1.071591
v 0.594596 -0.303066 1.099871
v 0.586459 -0.250969 1.110490
v 0.651671 -0.314324 1.104208
v 0.648503 -0.254101 1.139737
v 0.642843 -0.254492 1.021386
v 0.652760 -0.315857 1.049334
v 0.754820 -0.324528 1.096800
v 0.873654 -0.334568 1.092350
v 0.872787 -0.259239 1.152631
v 0.753231 -0.257106 1.150862
v 0.758545 -0.331458 1.001658
v 0.877408 -0.360700 0.986755
v 0.932687 -0.321825 0.764360
v 0.890987 -0.338793 0.863514
v 0.856148 -0.257247 0.823009
v 0.911413 -0.254147 0.740555
v 0.808181 -0.321355 0.914574
v 0.788889 -0.255626 0.891617
v 0.995243 -0.259616 1.149490
v 0.995456 -0.338277 1.088376
v 1.117700 -0.337037 1.081716
v 1.117890 -0.258831 1.140386
v 0.996782 -0.375561 0.979432
v 1.118211 -0.378933 0.975161
v 1.123315 -0.383864 0.697589
v 1.119527 -0.389204 0.841190
v 1.001413 -0.372532 0.846431
v 1.010730 -0.343083 0.703882
v 0.970333 -0.257516 0.660065
v 0.723167 -0.257692 0.964152
v 1.073120 -0.320645 0.475263
v 1.052042 -0.333011 0.568200
v 1.015911 -0.256666 0.556265
v 1.051951 -0.255264 0.460847
v 1.092698 -0.260653 0.369130
v 1.135548 -0.348255 0.409404
v 1.133844 -0.375340 0.554164
v 1.179696 -0.340382 0.106055
v 1.165200 -0.344190 0.253453
v 1.121276 -0.260624 0.243301
v 1.139104 -0.259389 0.103896
v 0.588884 -0.172256 1.066800
v 0.586786 -0.172426 1.110560
v 0.595262 -0.121064 1.100054
v 0.597533 -0.120575 1.071937
v 0.648670 -0.169379 1.139653
v 0.651990 -0.109823 1.104094
v 0.642910 -0.168596 1.021312
v 0.652944 -0.107843 1.049190
v 0.754658 -0.098960 1.096056
v 0.753242 -0.166195 1.150618
v 0.872727 -0.163879 1.152444
v 0.873227 -0.088181 1.091639
v 0.757676 -0.090197 0.999829
v 0.875841 -0.058523 0.984774
v 0.909253 -0.161094 0.738940
v 0.854137 -0.159557 0.820825
v 0.887591 -0.075130 0.859806
v 0.928723 -0.089883 0.761339
v 0.787637 -0.163887 0.889482
v 0.805828 -0.096707 0.910611
v 0.995217 -0.163431 1.149628
v 1.117877 -0.164171 1.140859
v 1.117641 -0.085074 1.082524
v 0.995245 -0.084011 1.088436
v 0.995933 -0.041794 0.978674
v 1.117982 -0.037618 0.975429
v 1.122893 -0.024944 0.697351
v 1.008924 -0.067829 0.702643
v 0.999553 -0.037632 0.844621
v 1.119000 -0.018960 0.840801
v 0.969283 -0.158201 0.659405
v 0.722724 -0.164147 0.963159
v 1.074080 -0.101926 0.477143
v 1.052467 -0.167433 0.461854
v 1.015914 -0.163377 0.556588
v 1.052168 -0.085240 0.568902
v 1.093395 -0.163056 0.370066
v 1.136656 -0.075917 0.410956
v 1.134269 -0.042563 0.554928
v 1.181524 -0.085980 0.106300
v 1.140165 -0.164770 0.104058
v 1.122192 -0.163497 0.243805
v 1.166760 -0.081878 0.254270
v 1.239169 -0.257438 1.122523
v 1.237896 -0.332665 1.069917
v 1.349114 -0.325667 1.053731
v 1.355571 -0.256100 1.095363
v 1.239757 -0.374324 0.970299
v 1.358529 -0.363297 0.965360
v 1.240964 -0.390586 0.839171
v 1.241972 -0.396659 0.695557
v 1.364027 -0.394583 0.695252
v 1.362895 -0.382938 0.838253
v 1.433148 -0.316325 1.036921
v 1.474339 -0.340882 0.965551
v 1.516048 -0.294360 1.008224
v 1.465801 -0.258160 1.057460
v 1.563355 -0.323893 0.932437
v 1.595392 -0.263810 0.968900
v 1.538610 -0.238157 1.030417
v 1.484421 -0.368268 0.838781
v 1.487121 -0.385593 0.695971
v 1.610108 -0.370922 0.696267
v 1.604643 -0.344573 0.837060
v 1.648788 -0.298988 0.890746
v 1.246149 -0.395437 0.403059
v 1.364779 -0.408503 0.401356
v 1.364372 -0.403782 0.548492
v 1.244240 -0.399475 0.549600
v 1.367977 -0.409349 0.106312
v 1.366624 -0.410021 0.253754
v 1.254640 -0.393055 0.254118
v 1.260318 -0.389746 0.106389
v 1.487139 -0.398373 0.548640
v 1.486936 -0.406134 0.401048
v 1.609705 -0.398485 0.401194
v 1.610347 -0.388423 0.549137
v 1.487152 -0.409685 0.253617
v 1.487352 -0.410861 0.106290
v 1.609782 -0.405061 0.106380
v 1.609631 -0.403141 0.253673
v 1.692633 -0.326369 0.796870
v 1.729035 -0.346700 0.692107
v 1.775266 -0.300804 0.747496
v 1.726427 -0.265642 0.841051
v 1.813751 -0.327080 0.645759
v 1.851085 -0.266046 0.685591
v 1.802043 -0.234257 0.779074
v 1.731267 -0.372445 0.547725
v 1.730617 -0.386973 0.400874
v 1.842842 -0.368331 0.397488
v 1.844299 -0.345442 0.538659
v 1.731301 -0.393385 0.253938
v 1.732457 -0.395884 0.106903
v 1.853128 -0.380338 0.108607
v 1.847288 -0.377412 0.254505
v 1.916821 -0.323310 0.487537
v 1.930940 -0.340745 0.386883
v 1.989559 -0.294894 0.392107
v 1.954271 -0.263037 0.518725
v 2.027917 -0.242927 0.376160
v 2.007245 -0.233947 0.459466
v 1.945977 -0.350217 0.256464
v 1.967622 -0.350077 0.111974
v 2.018747 -0.314279 0.165751
v 2.008932 -0.308993 0.268472
v 2.025156 -0.318108 0.061411
v 2.051253 -0.264021 0.112525
v 2.043821 -0.250722 0.254803
v 1.890200 -0.298832 0.588812
v 1.672488 -0.240688 0.921170
v 1.916405 -0.240775 0.617513
v 1.237792 -0.089307 1.070689
v 1.239117 -0.165496 1.122964
v 1.355409 -0.166766 1.095444
v 1.348812 -0.096115 1.053831
v 1.358369 -0.053190 0.965323
v 1.239663 -0.042058 0.970702
v 1.240877 -0.017214 0.839210
v 1.362987 -0.025223 0.838251
v 1.364000 -0.014158 0.695179
v 1.241928 -0.011813 0.695560
v 1.432720 -0.105221 1.036565
v 1.465534 -0.164466 1.057290
v 1.515767 -0.126687 1.008234
v 1.474378 -0.076516 0.965299
v 1.595374 -0.157070 0.970602
v 1.564824 -0.092671 0.933019
v 1.538518 -0.184250 1.030666
v 1.485412 -0.041022 0.838900
v 1.609615 -0.067139 0.838030
v 1.609220 -0.038410 0.693956
v 1.487018 -0.023646 0.695497
v 1.362987 -0.025223 0.838251
v 1.364000 -0.014158 0.695179
v 1.240877 -0.017214 0.839210
v 1.648826 -0.119640 0.897790
v 1.364923 -0.017828 0.401549
v 1.246710 -0.030316 0.403779
v 1.244468 -0.018973 0.549968
v 1.364405 -0.014970 0.548552
v 1.368262 -0.020213 0.106331
v 1.261332 -0.038938 0.106493
v 1.255498 -0.035151 0.254513
v 1.366866 -0.018976 0.253851
v 1.486997 -0.020420 0.548406
v 1.609693 -0.030288 0.548108
v 1.609502 -0.027321 0.400915
v 1.486919 -0.020053 0.401026
v 1.487184 -0.019149 0.253624
v 1.609576 -0.025211 0.253612
v 1.609764 -0.023859 0.106328
v 1.487394 -0.018549 0.106286
v 1.802952 -0.160123 0.779637
v 1.864887 -0.161216 0.678001
v 1.811898 -0.091933 0.673365
v 1.785960 -0.104548 0.759197
v 1.716470 -0.087906 0.793263
v 1.721406 -0.158262 0.857688
v 1.721492 -0.058132 0.682119
v 1.729475 -0.046095 0.545691
v 1.845015 -0.077187 0.542685
v 1.842348 -0.057166 0.397675
v 1.730065 -0.038407 0.400295
v 1.731028 -0.034318 0.253667
v 1.846527 -0.049401 0.253809
v 1.852517 -0.046892 0.107435
v 1.732304 -0.032376 0.106584
v 1.916582 -0.100576 0.487415
v 1.955287 -0.161068 0.517579
v 1.988418 -0.129428 0.390937
v 1.929569 -0.084185 0.385934
v 2.007258 -0.189864 0.459004
v 2.027397 -0.181159 0.375654
v 1.944327 -0.075303 0.254715
v 2.007238 -0.115565 0.266465
v 2.017106 -0.110254 0.162602
v 1.966152 -0.075510 0.109197
v 2.050277 -0.159876 0.110690
v 2.023522 -0.106445 0.058422
v 2.043064 -0.173413 0.253795
v 1.895843 -0.126081 0.586633
v 1.671333 -0.182433 0.926042
v 1.609693 -0.030288 0.548108
v 1.609502 -0.027321 0.400915
v 1.731028 -0.034318 0.253667
v 1.732304 -0.032376 0.106584
v 1.730065 -0.038407 0.400295
v 1.486997 -0.020420 0.548406
v 1.487018 -0.023646 0.695497
v 1.920356 -0.184679 0.615327
v 1.122893 -0.024944 0.697351
v 1.119000 -0.018960 0.840801
v 1.246710 -0.030316 0.403779
v 1.244468 -0.018973 0.549968
v 1.261332 -0.038938 0.106493
v 1.255498 -0.035151 0.254513
v 1.241928 -0.011813 0.695560
v 1.182001 -0.339460 0.000000
v 1.142152 -0.259065 0.000000
v 1.368201 -0.409022 0.000000
v 1.261264 -0.388853 0.000000
v 1.487380 -0.410970 0.000000
v 1.609766 -0.405348 0.000000
v 1.732362 -0.396356 0.000000
v 1.852539 -0.381424 0.000000
v 1.963508 -0.353496 0.000000
v 2.025535 -0.318319 0.000000
v 1.183870 -0.086918 0.000000
v 1.143238 -0.165100 0.000000
v 1.368489 -0.020577 0.000000
v 1.262296 -0.039860 0.000000
v 1.609753 -0.023616 0.000000
v 1.487423 -0.018480 0.000000
v 1.852012 -0.045944 0.000000
v 1.732237 -0.031973 0.000000
v 2.023823 -0.106281 0.000000
v 1.962280 -0.072415 0.000000
v 1.732237 -0.031973 0.000000
v 1.262296 -0.039860 0.000000
v 0.588563 0.100816 1.066617
v 0.596877 0.048449 1.071591
v 0.594596 0.048841 1.099871
v 0.586459 0.100939 1.110490
v 0.651671 0.037583 1.104208
v 0.648503 0.097807 1.139737
v 0.642843 0.097416 1.021386
v 0.652760 0.036050 1.049334
v 0.754820 0.027379 1.096800
v 0.873654 0.017340 1.092350
v 0.872787 0.092668 1.152631
v 0.753231 0.094801 1.150862
v 0.758545 0.020449 1.001658
v 0.877408 -0.008793 0.986755
v 0.932687 0.030083 0.764360
v 0.890987 0.013115 0.863514
v 0.856148 0.094661 0.823009
v 0.911413 0.097761 0.740555
v 0.808181 0.030553 0.914574
v 0.788889 0.096281 0.891617
v 0.995243 0.092292 1.149490
v 0.995456 0.013630 1.088376
v 1.117700 0.014871 1.081716
v 1.117890 0.093077 1.140386
v 0.996782 -0.023654 0.979432
v 1.118211 -0.027026 0.975161
v 1.123315 -0.031956 0.697589
v 1.119527 -0.037297 0.841190
v 1.001413 -0.020624 0.846431
v 1.010730 0.008824 0.703882
v 0.970333 0.094391 0.660065
v 0.723167 0.094215 0.964152
v 1.073120 0.031262 0.475263
v 1.052042 0.018896 0.568200
v 1.015911 0.095242 0.556265
v 1.051951 0.096643 0.460847
v 1.092698 0.091255 0.369130
v 1.135548 0.003652 0.409404
v 1.133844 -0.023433 0.554164
v 1.179696 0.011525 0.106055
v 1.165200 0.007718 0.253453
v 1.121276 0.091283 0.243301
v 1.139104 0.092519 0.103896
v 0.588884 0.179652 1.066800
v 0.586786 0.179482 1.110560
v 0.595262 0.230843 1.100054
v 0.597533 0.231332 1.071937
v 0.648670 0.182529 1.139653
v 0.651990 0.242085 1.104094
v 0.642910 0.183312 1.021312
v 0.652944 0.244064 1.049190
v 0.754658 0.252947 1.096056
v 0.753242 0.185713 1.150618
v 0.872727 0.188028 1.152444
v 0.873227 0.263727 1.091639
v 0.757676 0.261710 0.999829
v 0.875841 0.293384 0.984774
v 0.909253 0.190813 0.738940
v 0.854137 0.192350 0.820825
v 0.887591 0.276777 0.859806
v 0.928723 0.262024 0.761339
v 0.787637 0.188021 0.889482
v 0.805828 0.255200 0.910611
v 0.995217 0.188477 1.149628
v 1.117877 0.187736 1.140859
v 1.117641 0.266833 1.082524
v 0.995245 0.267897 1.088436
v 0.995933 0.310114 0.978674
v 1.117982 0.314290 0.975429
v 1.122893 0.326963 0.697351
v 1.008924 0.284078 0.702643
v 0.999553 0.314275 0.844621
v 1.119000 0.332947 0.840801
v 0.969283 0.193706 0.659405
v 0.722724 0.187760 0.963159
v 1.074080 0.249981 0.477143
v 1.052467 0.184474 0.461854
v 1.015914 0.188530 0.556588
v 1.052168 0.266667 0.568902
v 1.093395 0.188851 0.370066
v 1.136656 0.275991 0.410956
v 1.134269 0.309345 0.554928
v 1.181524 0.265928 0.106300
v 1.140165 0.187137 0.104058
v 1.122192 0.188411 0.243805
v 1.166760 0.270030 0.254270
v 1.239169 0.094469 1.122523
v 1.237896 0.019243 1.069917
v 1.349114 0.026240 1.053731
v 1.355571 0.095808 1.095363
v 1.239757 -0.022417 0.970299
v 1.358529 -0.011389 0.965360
v 1.240964 -0.038679 0.839171
v 1.241972 -0.044751 0.695557
v 1.364027 -0.042676 0.695252
v 1.362895 -0.031031 0.838253
v 1.433148 0.035582 1.036921
v 1.474339 0.011025 0.965551
v 1.516048 0.057548 1.008224
v 1.465801 0.093747 1.057460
v 1.563355 0.028014 0.932437
v 1.595392 0.088097 0.968900
v 1.538610 0.113751 1.030417
v 1.484421 -0.016361 0.838781
v 1.487121 -0.033686 0.695971
v 1.610108 -0.019015 0.696267
v 1.604643 0.007335 0.837060
v 1.362895 -0.031031 0.838253
v 1.364027 -0.042676 0.695252
v 1.240964 -0.038679 0.839171
v 1.648788 0.052919 0.890746
v 1.246149 -0.043529 0.403059
v 1.364779 -0.056596 0.401356
v 1.364372 -0.051875 0.548492
v 1.244240 -0.047567 0.549600
v 1.367977 -0.057442 0.106312
v 1.366624 -0.058113 0.253754
v 1.254640 -0.041148 0.254118
v 1.260318 -0.037839 0.106389
v 1.487139 -0.046466 0.548640
v 1.486936 -0.054227 0.401048
v 1.609705 -0.046577 0.401194
v 1.610347 -0.036516 0.549137
v 1.487152 -0.057778 0.253617
v 1.487352 -0.058953 0.106290
v 1.609782 -0.053153 0.106380
v 1.609631 -0.051233 0.253673
v 1.692633 0.025538 0.796870
v 1.729035 0.005207 0.692107
v 1.775266 0.051104 0.747496
v 1.726427 0.086266 0.841051
v 1.813751 0.024828 0.645759
v 1.851085 0.085862 0.685591
v 1.802043 0.117650 0.779074
v 1.731267 -0.020537 0.547725
v 1.730617 -0.035066 0.400874
v 1.842842 -0.016423 0.397488
v 1.844299 0.006465 0.538659
v 1.731301 -0.041478 0.253938
v 1.732457 -0.043977 0.106903
v 1.853128 -0.028431 0.108607
v 1.847288 -0.025505 0.254505
v 1.916821 0.028597 0.487537
v 1.930940 0.011163 0.386883
v 1.989559 0.057014 0.392107
v 1.954271 0.088870 0.518725
v 2.027917 0.108980 0.376160
v 2.007245 0.117961 0.459466
v 1.945977 0.001690 0.256464
v 1.967622 0.001830 0.111974
v 2.018747 0.037629 0.165751
v 2.008932 0.042914 0.268472
v 2.025156 0.033800 0.061411
v 2.051253 0.087886 0.112525
v 2.043821 0.101186 0.254803
v 1.890200 0.053075 0.588812
v 1.672488 0.111219 0.921170
v 1.610347 -0.036516 0.549137
v 1.609705 -0.046577 0.401194
v 1.732457 -0.043977 0.106903
v 1.731301 -0.041478 0.253938
v 1.609631 -0.051233 0.253673
v 1.487139 -0.046466 0.548640
v 1.487121 -0.033686 0.695971
v 1.916405 0.111132 0.617513
v 1.237792 0.262600 1.070689
v 1.239117 0.186412 1.122964
v 1.355409 0.185141 1.095444
v 1.348812 0.255793 1.053831
v 1.358369 0.298718 0.965323
v 1.239663 0.309850 0.970702
v 1.240877 0.334694 0.839210
v 1.362987 0.326685 0.838251
v 1.364000 0.337750 0.695179
v 1.241928 0.340094 0.695560
v 1.432720 0.246686 1.036565
v 1.465534 0.187441 1.057290
v 1.515767 0.225220 1.008234
v 1.474378 0.275392 0.965299
v 1.595374 0.194837 0.970602
v 1.564824 0.259237 0.933019
v 1.538518 0.167657 1.030666
v 1.485412 0.310885 0.838900
v 1.609615 0.284769 0.838030
v 1.609220 0.313497 0.693956
v 1.487018 0.328262 0.695497
v 1.648826 0.232267 0.897790
v 1.364923 0.334079 0.401549
v 1.246710 0.321591 0.403779
v 1.244468 0.332934 0.549968
v 1.364405 0.336937 0.548552
v 1.368262 0.331694 0.106331
v 1.261332 0.312970 0.106493
v 1.255498 0.316756 0.254513
v 1.366866 0.332932 0.253851
v 1.486997 0.331487 0.548406
v 1.609693 0.321619 0.548108
v 1.609502 0.324586 0.400915
v 1.486919 0.331854 0.401026
v 1.487184 0.332759 0.253624
v 1.609576 0.326696 0.253612
v 1.609764 0.328049 0.106328
v 1.487394 0.333358 0.106286
v 1.802952 0.191784 0.779637
v 1.864887 0.190692 0.678001
v 1.811898 0.259974 0.673365
v 1.785960 0.247360 0.759197
v 1.716470 0.264002 0.793263
v 1.721406 0.193645 0.857688
v 1.721492 0.293775 0.682119
v 1.729475 0.305812 0.545691
v 1.845015 0.274720 0.542685
v 1.842348 0.294742 0.397675
v 1.730065 0.313500 0.400295
v 1.731028 0.317590 0.253667
v 1.846527 0.302507 0.253809
v 1.852517 0.305015 0.107435
v 1.732304 0.319531 0.106584
v 1.916582 0.251331 0.487415
v 1.955287 0.190840 0.517579
v 1.988418 0.222479 0.390937
v 1.929569 0.267723 0.385934
v 2.007258 0.162043 0.459004
v 2.027397 0.170748 0.375654
v 1.944327 0.276605 0.254715
v 2.007238 0.236343 0.266465
v 2.017106 0.241653 0.162602
v 1.966152 0.276397 0.109197
v 2.050277 0.192031 0.110690
v 2.023522 0.245462 0.058422
v 2.043064 0.178495 0.253795
v 1.895843 0.225826 0.586633
v 1.671333 0.169474 0.926042
v 1.920356 0.167228 0.615327
v 1.123315 -0.031956 0.697589
v 1.119527 -0.037297 0.841190
v 1.246149 -0.043529 0.403059
v 1.244240 -0.047567 0.549600
v 1.260318 -0.037839 0.106389
v 1.254640 -0.041148 0.254118
v 1.241972 -0.044751 0.695557
v 1.182001 0.012448 0.000000
v 1.142152 0.092842 0.000000
v 1.368201 -0.057115 0.000000
v 1.367977 -0.057442 0.106312
v 1.261264 -0.036946 0.000000
v 1.487380 -0.059063 0.000000
v 1.609766 -0.053440 0.000000
v 1.368201 -0.057115 0.000000
v 1.732362 -0.044449 0.000000
v 1.852539 -0.029516 0.000000
v 1.963508 -0.001589 0.000000
v 2.025535 0.033589 0.000000
v 1.732362 -0.044449 0.000000
v 1.183870 0.264989 0.000000
v 1.143238 0.186808 0.000000
v 1.368489 0.331330 0.000000
v 1.262296 0.312047 0.000000
v 1.609753 0.328291 0.000000
v 1.487423 0.333428 0.000000
v 1.852012 0.305963 0.000000
v 1.732237 0.319934 0.000000
v 2.023823 0.245626 0.000000
v 1.962280 0.279492 0.000000
v 2.055202 -0.163318 0.000000
v 2.055202 0.188589 0.000000
v 2.056250 -0.260360 0.000000
v 2.056250 0.091547 0.000000
v 0.594596 -0.303066 -1.099871
v 0.596877 -0.303458 -1.071591
v 0.588563 -0.251092 -1.066617
v 0.586459 -0.250969 -1.110490
v 0.648503 -0.254101 -1.139737
v 0.651671 -0.314324 -1.104208
v 0.652760 -0.315857 -1.049334
v 0.642843 -0.254492 -1.021386
v 0.872787 -0.259239 -1.152631
v 0.873654 -0.334568 -1.092350
v 0.754820 -0.324528 -1.096800
v 0.753231 -0.257106 -1.150862
v 0.877408 -0.360700 -0.986755
v 0.758545 -0.331458 -1.001658
v 0.856148 -0.257247 -0.823009
v 0.890987 -0.338793 -0.863514
v 0.932687 -0.321825 -0.764360
v 0.911413 -0.254147 -0.740555
v 0.808181 -0.321355 -0.914574
v 0.788889 -0.255626 -0.891617
v 1.117700 -0.337037 -1.081716
v 0.995456 -0.338277 -1.088376
v 0.995243 -0.259616 -1.149490
v 1.117890 -0.258831 -1.140386
v 1.118211 -0.378933 -0.975161
v 0.996782 -0.375561 -0.979432
v 1.001413 -0.372532 -0.846431
v 1.119527 -0.389204 -0.841190
v 1.123315 -0.383864 -0.697589
v 1.010730 -0.343083 -0.703882
v 0.970333 -0.257516 -0.660065
v 0.723167 -0.257692 -0.964152
v 1.015911 -0.256666 -0.556265
v 1.052042 -0.333011 -0.568200
v 1.073120 -0.320645 -0.475263
v 1.051951 -0.255264 -0.460847
v 1.135548 -0.348255 -0.409404
v 1.092698 -0.260653 -0.369130
v 1.133844 -0.375340 -0.554164
v 1.121276 -0.260624 -0.243301
v 1.165200 -0.344190 -0.253453
v 1.179696 -0.340382 -0.106055
v 1.139104 -0.259389 -0.103896
v 0.595262 -0.121064 -1.100054
v 0.586786 -0.172426 -1.110560
v 0.588884 -0.172256 -1.066800
v 0.597533 -0.120575 -1.071937
v 0.651990 -0.109823 -1.104094
v 0.648670 -0.169379 -1.139653
v 0.642910 -0.168596 -1.021312
v 0.652944 -0.107843 -1.049190
v 0.872727 -0.163879 -1.152444
v 0.753242 -0.166195 -1.150618
v 0.754658 -0.098960 -1.096056
v 0.873227 -0.088181 -1.091639
v 0.757676 -0.090197 -0.999829
v 0.875841 -0.058523 -0.984774
v 0.887591 -0.075130 -0.859806
v 0.854137 -0.159557 -0.820825
v 0.909253 -0.161094 -0.738940
v 0.928723 -0.089883 -0.761339
v 0.805828 -0.096707 -0.910611
v 0.787637 -0.163887 -0.889482
v 1.117641 -0.085074 -1.082524
v 1.117877 -0.164171 -1.140859
v 0.995217 -0.163431 -1.149628
v 0.995245 -0.084011 -1.088436
v 0.995933 -0.041794 -0.978674
v 1.117982 -0.037618 -0.975429
v 0.999553 -0.037632 -0.844621
v 1.008924 -0.067829 -0.702643
v 1.122893 -0.024944 -0.697351
v 1.119000 -0.018960 -0.840801
v 0.969283 -0.158201 -0.659405
v 0.722724 -0.164147 -0.963159
v 1.015914 -0.163377 -0.556588
v 1.052467 -0.167433 -0.461854
v 1.074080 -0.101926 -0.477143
v 1.052168 -0.085240 -0.568902
v 1.093395 -0.163056 -0.370066
v 1.136656 -0.075917 -0.410956
v 1.134269 -0.042563 -0.554928
v 1.122192 -0.163497 -0.243805
v 1.140165 -0.164770 -0.104058
v 1.181524 -0.085980 -0.106300
v 1.166760 -0.081878 -0.254270
v 1.349114 -0.325667 -1.053731
v 1.237896 -0.332665 -1.069917
v 1.239169 -0.257438 -1.122523
v 1.355571 -0.256100 -1.095363
v 1.358529 -0.363297 -0.965360
v 1.239757 -0.374324 -0.970299
v 1.364027 -0.394583 -0.695252
v 1.241972 -0.396659 -0.695557
v 1.240964 -0.390586 -0.839171
v 1.362895 -0.382938 -0.838253
v 1.516048 -0.294360 -1.008224
v 1.474339 -0.340882 -0.965551
v 1.433148 -0.316325 -1.036921
v 1.465801 -0.258160 -1.057460
v 1.563355 -0.323893 -0.932437
v 1.595392 -0.263810 -0.968900
v 1.538610 -0.238157 -1.030417
v 1.610108 -0.370922 -0.696267
v 1.487121 -0.385593 -0.695971
v 1.484421 -0.368268 -0.838781
v 1.604643 -0.344573 -0.837060
v 1.648788 -0.298988 -0.890746
v 1.364372 -0.403782 -0.548492
v 1.364779 -0.408503 -0.401356
v 1.246149 -0.395437 -0.403059
v 1.244240 -0.399475 -0.549600
v 1.254640 -0.393055 -0.254118
v 1.366624 -0.410021 -0.253754
v 1.367977 -0.409349 -0.106312
v 1.260318 -0.389746 -0.106389
v 1.609705 -0.398485 -0.401194
v 1.486936 -0.406134 -0.401048
v 1.487139 -0.398373 -0.548640
v 1.610347 -0.388423 -0.549137
v 1.609782 -0.405061 -0.106380
v 1.487352 -0.410861 -0.106290
v 1.487152 -0.409685 -0.253617
v 1.609631 -0.403141 -0.253673
v 1.775266 -0.300804 -0.747496
v 1.729035 -0.346700 -0.692107
v 1.692633 -0.326369 -0.796870
v 1.726427 -0.265642 -0.841051
v 1.813751 -0.327080 -0.645759
v 1.851085 -0.266046 -0.685591
v 1.802043 -0.234257 -0.779074
v 1.842842 -0.368331 -0.397488
v 1.730617 -0.386973 -0.400874
v 1.731267 -0.372445 -0.547725
v 1.844299 -0.345442 -0.538659
v 1.853128 -0.380338 -0.108607
v 1.732457 -0.395884 -0.106903
v 1.731301 -0.393385 -0.253938
v 1.847288 -0.377412 -0.254505
v 1.989559 -0.294894 -0.392107
v 1.930940 -0.340745 -0.386883
v 1.916821 -0.323310 -0.487537
v 1.954271 -0.263037 -0.518725
v 2.027917 -0.242927 -0.376160
v 2.007245 -0.233947 -0.459466
v 2.018747 -0.314279 -0.165751
v 1.967622 -0.350077 -0.111974
v 1.945977 -0.350217 -0.256464
v 2.008932 -0.308993 -0.268472
v 2.025156 -0.318108 -0.061411
v 2.051253 -0.264021 -0.112524
v 2.043821 -0.250722 -0.254803
v 1.890200 -0.298832 -0.588812
v 1.672488 -0.240688 -0.921170
v 1.916405 -0.240775 -0.617513
v 1.355409 -0.166766 -1.095444
v 1.239117 -0.165496 -1.122964
v 1.237792 -0.089307 -1.070689
v 1.348812 -0.096115 -1.053831
v 1.358369 -0.053190 -0.965323
v 1.239663 -0.042058 -0.970702
v 1.364000 -0.014158 -0.695179
v 1.362987 -0.025223 -0.838251
v 1.240877 -0.017214 -0.839210
v 1.241928 -0.011813 -0.695560
v 1.515767 -0.126687 -1.008234
v 1.465534 -0.164466 -1.057290
v 1.432720 -0.105221 -1.036565
v 1.474378 -0.076516 -0.965299
v 1.564824 -0.092671 -0.933019
v 1.595374 -0.157070 -0.970602
v 1.538518 -0.184250 -1.030666
v 1.609220 -0.038410 -0.693956
v 1.609615 -0.067139 -0.838030
v 1.485412 -0.041022 -0.838900
v 1.487018 -0.023646 -0.695497
v 1.362987 -0.025223 -0.838251
v 1.364000 -0.014158 -0.695179
v 1.240877 -0.017214 -0.839210
v 1.648826 -0.119640 -0.897790
v 1.244468 -0.018973 -0.549968
v 1.246710 -0.030316 -0.403779
v 1.364923 -0.017828 -0.401549
v 1.364405 -0.014970 -0.548552
v 1.255498 -0.035151 -0.254513
v 1.261332 -0.038938 -0.106493
v 1.368262 -0.020213 -0.106331
v 1.366866 -0.018976 -0.253851
v 1.609502 -0.027321 -0.400915
v 1.609693 -0.030288 -0.548108
v 1.486997 -0.020420 -0.548406
v 1.486919 -0.020053 -0.401026
v 1.609764 -0.023859 -0.106328
v 1.609576 -0.025211 -0.253612
v 1.487184 -0.019149 -0.253624
v 1.487394 -0.018549 -0.106286
v 1.811898 -0.091933 -0.673365
v 1.864887 -0.161216 -0.678001
v 1.802952 -0.160123 -0.779637
v 1.785960 -0.104548 -0.759197
v 1.721406 -0.158262 -0.857688
v 1.716470 -0.087906 -0.793263
v 1.721492 -0.058132 -0.682119
v 1.842348 -0.057166 -0.397675
v 1.845015 -0.077187 -0.542685
v 1.729475 -0.046095 -0.545691
v 1.730065 -0.038407 -0.400295
v 1.852517 -0.046892 -0.107435
v 1.846527 -0.049401 -0.253809
v 1.731028 -0.034318 -0.253667
v 1.732304 -0.032376 -0.106584
v 1.988418 -0.129428 -0.390937
v 1.955287 -0.161068 -0.517579
v 1.916582 -0.100576 -0.487415
v 1.929569 -0.084185 -0.385934
v 2.027397 -0.181159 -0.375654
v 2.007258 -0.189864 -0.459004
v 2.017106 -0.110254 -0.162602
v 2.007238 -0.115565 -0.266465
v 1.944327 -0.075303 -0.254715
v 1.966152 -0.075510 -0.109197
v 2.023522 -0.106445 -0.058422
v 2.050277 -0.159876 -0.110690
v 2.043064 -0.173413 -0.253795
v 1.895843 -0.126081 -0.586633
v 1.671333 -0.182433 -0.926042
v 1.609693 -0.030288 -0.548108
v 1.609502 -0.027321 -0.400915
v 1.732304 -0.032376 -0.106584
v 1.731028 -0.034318 -0.253667
v 1.730065 -0.038407 -0.400295
v 1.486997 -0.020420 -0.548406
v 1.487018 -0.023646 -0.695497
v 1.920356 -0.184679 -0.615327
v 1.119000 -0.018960 -0.840801
v 1.122893 -0.024944 -0.697351
v 1.246710 -0.030316 -0.403779
v 1.244468 -0.018973 -0.549968
v 1.261332 -0.038938 -0.106493
v 1.255498 -0.035151 -0.254513
v 1.241928 -0.011813 -0.695560
v 0.594596 0.048841 -1.099871
v 0.596877 0.048449 -1.071591
v 0.588563 0.100816 -1.066617
v 0.586459 0.100939 -1.110490
v 0.648503 0.097807 -1.139737
v 0.651671 0.037583 -1.104208
v 0.652760 0.036050 -1.049334
v 0.642843 0.097416 -1.021386
v 0.872787 0.092668 -1.152631
v 0.873654 0.017340 -1.092350
v 0.754820 0.027379 -1.096800
v 0.753231 0.094801 -1.150862
v 0.877408 -0.008793 -0.986755
v 0.758545 0.020449 -1.001658
v 0.856148 0.094661 -0.823009
v 0.890987 0.013115 -0.863514
v 0.932687 0.030083 -0.764360
v 0.911413 0.097761 -0.740555
v 0.808181 0.030553 -0.914574
v 0.788889 0.096281 -0.891617
v 1.117700 0.014871 -1.081716
v 0.995456 0.013630 -1.088376
v 0.995243 0.092292 -1.149490
v 1.117890 0.093077 -1.140386
v 1.118211 -0.027026 -0.975161
v 0.996782 -0.023654 -0.979432
v 1.001413 -0.020624 -0.846431
v 1.119527 -0.037297 -0.841190
v 1.123315 -0.031956 -0.697589
v 1.010730 0.008824 -0.703882
v 0.970333 0.094391 -0.660065
v 0.723167 0.094215 -0.964152
v 1.015911 0.095242 -0.556265
v 1.052042 0.018896 -0.568200
v 1.073120 0.031262 -0.475263
v 1.051951 0.096643 -0.460847
v 1.135548 0.003652 -0.409404
v 1.092698 0.091255 -0.369130
v 1.133844 -0.023433 -0.554164
v 1.121276 0.091283 -0.243301
v 1.165200 0.007718 -0.253453
v 1.179696 0.011525 -0.106055
v 1.139104 0.092519 -0.103896
v 0.595262 0.230843 -1.100054
v 0.586786 0.179482 -1.110560
v 0.588884 0.179652 -1.066800
v 0.597533 0.231332 -1.071937
v 0.651990 0.242085 -1.104094
v 0.648670 0.182529 -1.139653
v 0.642910 0.183312 -1.021312
v 0.652944 0.244064 -1.049190
v 0.872727 0.188028 -1.152444
v 0.753242 0.185713 -1.150618
v 0.754658 0.252947 -1.096056
v 0.873227 0.263727 -1.091639
v 0.757676 0.261710 -0.999829
v 0.875841 0.293384 -0.984774
v 0.887591 0.276777 -0.859806
v 0.854137 0.192350 -0.820825
v 0.909253 0.190813 -0.738940
v 0.928723 0.262024 -0.761339
v 0.805828 0.255200 -0.910611
v 0.787637 0.188021 -0.889482
v 1.117641 0.266833 -1.082524
v 1.117877 0.187736 -1.140859
v 0.995217 0.188477 -1.149628
v 0.995245 0.267897 -1.088436
v 0.995933 0.310114 -0.978674
v 1.117982 0.314290 -0.975429
v 0.999553 0.314275 -0.844621
v 1.008924 0.284078 -0.702643
v 1.122893 0.326963 -0.697351
v 1.119000 0.332947 -0.840801
v 0.969283 0.193706 -0.659405
v 0.722724 0.187760 -0.963159
v 1.015914 0.188530 -0.556588
v 1.052467 0.184474 -0.461854
v 1.074080 0.249981 -0.477143
v 1.052168 0.266667 -0.568902
v 1.093395 0.188851 -0.370066
v 1.136656 0.275991 -0.410956
v 1.134269 0.309345 -0.554928
v 1.122192 0.188411 -0.243805
v 1.140165 0.187137 -0.104058
v 1.181524 0.265928 -0.106300
v 1.166760 0.270030 -0.254270
v 1.349114 0.026240 -1.053731
v 1.237896 0.019243 -1.069917
v 1.239169 0.094469 -1.122523
v 1.355571 0.095808 -1.095363
v 1.358529 -0.011389 -0.965360
v 1.239757 -0.022417 -0.970299
v 1.364027 -0.042676 -0.695252
v 1.241972 -0.044751 -0.695557
v 1.240964 -0.038679 -0.839171
v 1.362895 -0.031031 -0.838253
v 1.516048 0.057548 -1.008224
v 1.474339 0.011025 -0.965551
v 1.433148 0.035582 -1.036921
v 1.465801 0.093747 -1.057460
v 1.563355 0.028014 -0.932437
v 1.595392 0.088097 -0.968900
v 1.538610 0.113751 -1.030417
v 1.610108 -0.019015 -0.696267
v 1.487121 -0.033686 -0.695971
v 1.484421 -0.016361 -0.838781
v 1.604643 0.007335 -0.837060
v 1.364027 -0.042676 -0.695252
v 1.362895 -0.031031 -0.838253
v 1.240964 -0.038679 -0.839171
v 1.648788 0.052919 -0.890746
v 1.364372 -0.051875 -0.548492
v 1.364779 -0.056596 -0.401356
v 1.246149 -0.043529 -0.403059
v 1.244240 -0.047567 -0.549600
v 1.254640 -0.041148 -0.254118
v 1.366624 -0.058113 -0.253754
v 1.367977 -0.057442 -0.106312
v 1.260318 -0.037839 -0.106389
v 1.609705 -0.046577 -0.401194
v 1.486936 -0.054227 -0.401048
v 1.487139 -0.046466 -0.548640
v 1.610347 -0.036516 -0.549137
v 1.609782 -0.053153 -0.106380
v 1.487352 -0.058953 -0.106290
v 1.487152 -0.057778 -0.253617
v 1.609631 -0.051233 -0.253673
v 1.775266 0.051104 -0.747496
v 1.729035 0.005207 -0.692107
v 1.692633 0.025538 -0.796870
v 1.726427 0.086266 -0.841051
v 1.813751 0.024828 -0.645759
v 1.851085 0.085862 -0.685591
v 1.802043 0.117650 -0.779074
v 1.842842 -0.016423 -0.397488
v 1.730617 -0.035066 -0.400874
v 1.731267 -0.020537 -0.547725
v 1.844299 0.006465 -0.538659
v 1.853128 -0.028431 -0.108607
v 1.732457 -0.043977 -0.106903
v 1.731301 -0.041478 -0.253938
v 1.847288 -0.025505 -0.254505
v 1.989559 0.057014 -0.392107
v 1.930940 0.011163 -0.386883
v 1.916821 0.028597 -0.487537
v 1.954271 0.088870 -0.518725
v 2.027917 0.108980 -0.376160
v 2.007245 0.117961 -0.459466
v 2.018747 0.037629 -0.165751
v 1.967622 0.001830 -0.111974
v 1.945977 0.001690 -0.256464
v 2.008932 0.042914 -0.268472
v 2.025156 0.033800 -0.061411
v 2.051253 0.087886 -0.112524
v 2.043821 0.101186 -0.254803
v 1.890200 0.053075 -0.588812
v 1.672488 0.111219 -0.921170
v 1.609705 -0.046577 -0.401194
v 1.610347 -0.036516 -0.549137
v 1.732457 -0.043977 -0.106903
v 1.731301 -0.041478 -0.253938
v 1.730617 -0.035066 -0.400874
v 1.487139 -0.046466 -0.548640
v 1.487121 -0.033686 -0.695971
v 1.916405 0.111132 -0.617513
v 1.355409 0.185141 -1.095444
v 1.239117 0.186412 -1.122964
v 1.237792 0.262600 -1.070689
v 1.348812 0.255793 -1.053831
v 1.358369 0.298718 -0.965323
v 1.239663 0.309850 -0.970702
v 1.364000 0.337750 -0.695179
v 1.362987 0.326685 -0.838251
v 1.240877 0.334694 -0.839210
v 1.241928 0.340094 -0.695560
v 1.515767 0.225220 -1.008234
v 1.465534 0.187441 -1.057290
v 1.432720 0.246686 -1.036565
v 1.474378 0.275392 -0.965299
v 1.564824 0.259237 -0.933019
v 1.595374 0.194837 -0.970602
v 1.538518 0.167657 -1.030666
v 1.609220 0.313497 -0.693956
v 1.609615 0.284769 -0.838030
v 1.485412 0.310885 -0.838900
v 1.487018 0.328262 -0.695497
v 1.648826 0.232267 -0.897790
v 1.244468 0.332934 -0.549968
v 1.246710 0.321591 -0.403779
v 1.364923 0.334079 -0.401549
v 1.364405 0.336937 -0.548552
v 1.255498 0.316756 -0.254513
v 1.261332 0.312970 -0.106493
v 1.368262 0.331694 -0.106331
v 1.366866 0.332932 -0.253851
v 1.609502 0.324586 -0.400915
v 1.609693 0.321619 -0.548108
v 1.486997 0.331487 -0.548406
v 1.486919 0.331854 -0.401026
v 1.609764 0.328049 -0.106328
v 1.609576 0.326696 -0.253612
v 1.487184 0.332759 -0.253624
v 1.487394 0.333358 -0.106286
v 1.811898 0.259974 -0.673365
v 1.864887 0.190692 -0.678001
v 1.802952 0.191784 -0.779637
v 1.785960 0.247360 -0.759197
v 1.721406 0.193645 -0.857688
v 1.716470 0.264002 -0.793263
v 1.721492 0.293775 -0.682119
v 1.842348 0.294742 -0.397675
v 1.845015 0.274720 -0.542685
v 1.729475 0.305812 -0.545691
v 1.730065 0.313500 -0.400295
v 1.852517 0.305015 -0.107435
v 1.846527 0.302507 -0.253809
v 1.731028 0.317590 -0.253667
v 1.732304 0.319531 -0.106584
v 1.988418 0.222479 -0.390937
v 1.955287 0.190840 -0.517579
v 1.916582 0.251331 -0.487415
v 1.929569 0.267723 -0.385934
v 2.027397 0.170748 -0.375654
v 2.007258 0.162043 -0.459004
v 2.017106 0.241653 -0.162602
v 2.007238 0.236343 -0.266465
v 1.944327 0.276605 -0.254715
v 1.966152 0.276397 -0.109197
v 2.023522 0.245462 -0.058422
v 2.050277 0.192031 -0.110690
v 2.043064 0.178495 -0.253795
v 1.895843 0.225826 -0.586633
v 1.671333 0.169474 -0.926042
v 1.920356 0.167228 -0.615327
v 1.123315 -0.031956 -0.697589
v 1.119527 -0.037297 -0.841190
v 1.244240 -0.047567 -0.549600
v 1.246149 -0.043529 -0.403059
v 1.254640 -0.041148 -0.254118
v 1.260318 -0.037839 -0.106389
v 1.241972 -0.044751 -0.695557
v 1.367977 -0.057442 -0.106312
vn -0.8777 -0.1223 -0.4634
vn -0.6843 -0.6387 -0.3518
vn -0.6626 -0.6367 0.3944
vn -0.8308 -0.1587 0.5334
vn -0.1807 -0.8400 0.5115
vn -0.2260 -0.2480 0.9420
vn -0.5680 -0.2149 -0.7944
vn -0.3693 -0.8330 -0.4120
vn -0.0898 -0.8692 0.4862
vn -0.0598 -0.8473 0.5278
vn -0.0004 -0.3290 0.9443
vn -0.0509 -0.3137 0.9482
vn -0.3800 -0.8851 -0.2687
vn -0.1849 -0.9825 0.0216
vn -0.5944 -0.6871 -0.4178
vn -0.4608 -0.8141 -0.3534
vn -0.7463 -0.2735 -0.6068
vn -0.7856 -0.2628 -0.5602
vn -0.5188 -0.7168 -0.4659
vn -0.7039 -0.2645 -0.6592
vn 0.0433 -0.3238 0.9451
vn 0.0036 -0.8173 0.5762
vn 0.0613 -0.7942 0.6046
vn 0.1014 -0.3138 0.9441
vn -0.0917 -0.9866 0.1352
vn -0.0002 -0.9770 0.2134
vn -0.2213 -0.9725 -0.0733
vn -0.0949 -0.9955 -0.0016
vn -0.2314 -0.9656 -0.1182
vn -0.5201 -0.8034 -0.2899
vn -0.8327 -0.2753 -0.4804
vn -0.6436 -0.2779 -0.7132
vn -0.7248 -0.6211 -0.2983
vn -0.6671 -0.7052 -0.2401
vn -0.9062 -0.2324 -0.3531
vn -0.8995 -0.2170 -0.3792
vn -0.9168 -0.2531 -0.3089
vn -0.6004 -0.7744 -0.1995
vn -0.3472 -0.9308 -0.1139
vn -0.7264 -0.6852 -0.0531
vn -0.6919 -0.7136 -0.1098
vn -0.9562 -0.2419 -0.1649
vn -0.9705 -0.2292 -0.0747
vn -0.8781 0.1290 -0.4608
vn -0.8296 0.1656 0.5333
vn -0.6597 0.6385 0.3963
vn -0.6847 0.6421 -0.3447
vn -0.2254 0.2519 0.9411
vn -0.1822 0.8381 0.5141
vn -0.5746 0.2126 -0.7904
vn -0.3807 0.8335 -0.4005
vn -0.0956 0.8653 0.4921
vn -0.0516 0.3180 0.9467
vn -0.0024 0.3310 0.9436
vn -0.0668 0.8396 0.5391
vn -0.4027 0.8814 -0.2471
vn -0.1994 0.9782 0.0584
vn -0.7922 0.2213 -0.5687
vn -0.7606 0.2276 -0.6081
vn -0.4854 0.8082 -0.3335
vn -0.6079 0.6688 -0.4280
vn -0.7196 0.2278 -0.6560
vn -0.5481 0.7070 -0.4469
vn 0.0408 0.3209 0.9462
vn 0.1004 0.3066 0.9465
vn 0.0591 0.7791 0.6242
vn -0.0023 0.8055 0.5925
vn -0.1014 0.9784 0.1800
vn -0.0037 0.9648 0.2631
vn -0.2263 0.9681 -0.1073
vn -0.5224 0.7921 -0.3157
vn -0.2426 0.9658 -0.0919
vn -0.1013 0.9945 0.0260
vn -0.8296 0.2523 -0.4982
vn -0.6580 0.2590 -0.7071
vn -0.7212 0.6139 -0.3209
vn -0.8947 0.2265 -0.3849
vn -0.9017 0.2274 -0.3677
vn -0.6648 0.6917 -0.2820
vn -0.9121 0.2675 -0.3107
vn -0.5932 0.7740 -0.2215
vn -0.3490 0.9221 -0.1669
vn -0.7143 0.6977 -0.0539
vn -0.9656 0.2489 -0.0750
vn -0.9515 0.2590 -0.1660
vn -0.6814 0.7228 -0.1153
vn 0.1729 -0.2954 0.9396
vn 0.1185 -0.7721 0.6244
vn 0.1836 -0.7440 0.6424
vn 0.2557 -0.2637 0.9301
vn 0.0663 -0.9651 0.2534
vn 0.1299 -0.9509 0.2808
vn 0.0191 -0.9970 0.0754
vn -0.0476 -0.9987 0.0194
vn 0.0461 -0.9965 0.0698
vn 0.0918 -0.9882 0.1228
vn 0.2782 -0.7130 0.6436
vn 0.2762 -0.8727 0.4027
vn 0.4444 -0.6175 0.6490
vn 0.3700 -0.3144 0.8742
vn 0.3732 -0.8215 0.4312
vn 0.5751 -0.4175 0.7035
vn 0.5414 -0.2025 0.8160
vn 0.1576 -0.9717 0.1761
vn 0.1019 -0.9889 0.1083
vn 0.1663 -0.9735 0.1567
vn 0.3067 -0.9007 0.3078
vn 0.5131 -0.6810 0.5224
vn -0.2423 -0.9691 -0.0466
vn -0.0401 -0.9991 0.0134
vn 0.0019 -0.9992 0.0398
vn -0.1398 -0.9899 -0.0227
vn -0.0918 -0.9958 -0.0053
vn -0.0719 -0.9974 -0.0014
vn -0.3102 -0.9499 -0.0385
vn -0.3474 -0.9374 -0.0238
vn 0.0648 -0.9955 0.0696
vn 0.0429 -0.9984 0.0368
vn 0.0823 -0.9953 0.0518
vn 0.1126 -0.9888 0.0976
vn 0.0286 -0.9995 0.0143
vn 0.0193 -0.9998 0.0033
vn 0.0618 -0.9981 0.0076
vn 0.0680 -0.9974 0.0227
vn 0.4017 -0.8413 0.3618
vn 0.3343 -0.9021 0.2728
vn 0.5723 -0.6769 0.4628
vn 0.6623 -0.4511 0.5983
vn 0.4504 -0.8327 0.3222
vn 0.7283 -0.4441 0.5219
vn 0.7540 -0.2457 0.6092
vn 0.1916 -0.9715 0.1395
vn 0.1388 -0.9875 0.0752
vn 0.2477 -0.9625 0.1103
vn 0.3946 -0.8872 0.2390
vn 0.1116 -0.9932 0.0324
vn 0.1021 -0.9947 0.0117
vn 0.1928 -0.9811 0.0192
vn 0.2065 -0.9772 0.0489
vn 0.5392 -0.7988 0.2667
vn 0.4686 -0.8660 0.1748
vn 0.7124 -0.6594 0.2401
vn 0.7978 -0.4223 0.4303
vn 0.9370 -0.2767 0.2134
vn 0.8685 -0.2444 0.4313
vn 0.4087 -0.9084 0.0877
vn 0.4442 -0.8949 0.0418
vn 0.7215 -0.6869 0.0874
vn 0.7183 -0.6831 0.1319
vn 0.7207 -0.6927 0.0291
vn 0.9500 -0.3067 0.0587
vn 0.9623 -0.2476 0.1121
vn 0.6368 -0.6649 0.3904
vn 0.6671 -0.2569 0.6993
vn 0.8228 -0.2521 0.5093
vn 0.1203 0.7547 0.6450
vn 0.1738 0.2880 0.9417
vn 0.2571 0.2597 0.9308
vn 0.1865 0.7255 0.6625
vn 0.1339 0.9332 0.3335
vn 0.0681 0.9498 0.3053
vn 0.0196 0.9943 0.1044
vn 0.0962 0.9837 0.1519
vn 0.0495 0.9982 0.0344
vn -0.0472 0.9987 -0.0166
vn 0.2787 0.6937 0.6641
vn 0.3668 0.3079 0.8779
vn 0.4353 0.6004 0.6708
vn 0.2754 0.8510 0.4473
vn 0.5720 0.3849 0.7244
vn 0.3712 0.7956 0.4788
vn 0.5375 0.1941 0.8206
vn 0.1639 0.9648 0.2056
vn 0.3106 0.8855 0.3455
vn 0.1641 0.9785 0.1252
vn 0.1068 0.9914 0.0761
vn 0.5117 0.6385 0.5749
vn -0.0386 0.9990 -0.0206
vn -0.2360 0.9686 -0.0782
vn -0.1369 0.9873 -0.0805
vn 0.0037 0.9998 -0.0192
vn -0.0890 0.9960 -0.0078
vn -0.3366 0.9413 -0.0253
vn -0.3009 0.9525 -0.0474
vn -0.0697 0.9975 -0.0120
vn 0.0655 0.9978 0.0124
vn 0.1094 0.9932 0.0404
vn 0.0797 0.9966 0.0198
vn 0.0413 0.9991 0.0031
vn 0.0261 0.9997 0.0035
vn 0.0639 0.9979 0.0124
vn 0.0571 0.9984 0.0054
vn 0.0166 0.9999 0.0010
vn 0.7543 0.2424 0.6101
vn 0.8012 0.3205 0.5054
vn 0.5347 0.7948 0.2871
vn 0.5711 0.6944 0.4377
vn 0.4137 0.8028 0.4295
vn 0.6696 0.3282 0.6662
vn 0.2602 0.9503 0.1708
vn 0.1986 0.9762 0.0868
vn 0.4251 0.8812 0.2067
vn 0.2501 0.9639 0.0916
vn 0.1396 0.9890 0.0481
vn 0.1068 0.9940 0.0235
vn 0.1999 0.9789 0.0424
vn 0.1838 0.9828 0.0175
vn 0.0959 0.9953 0.0096
vn 0.5454 0.8006 0.2481
vn 0.8052 0.4149 0.4237
vn 0.7079 0.6675 0.2311
vn 0.4664 0.8695 0.1629
vn 0.8682 0.2544 0.4260
vn 0.9332 0.2918 0.2098
vn 0.4007 0.9124 0.0833
vn 0.7098 0.6926 0.1285
vn 0.7117 0.6971 0.0866
vn 0.4340 0.9000 0.0406
vn 0.9444 0.3237 0.0587
vn 0.7112 0.7024 0.0285
vn 0.9577 0.2656 0.1109
vn 0.6761 0.6400 0.3651
vn 0.6623 0.1863 0.7257
vn 0.0798 0.9966 0.0198
vn 0.1068 0.9914 0.0762
vn 0.8429 0.2045 0.4976
vn -0.1012 0.9945 0.0260
vn -0.1369 0.9873 -0.0804
vn -0.7375 -0.6754 -0.0000
vn -0.9746 -0.2242 -0.0000
vn -0.0987 -0.9951 -0.0000
vn -0.3594 -0.9332 0.0000
vn 0.0158 -0.9999 -0.0000
vn 0.0599 -0.9982 -0.0000
vn 0.0996 -0.9950 -0.0000
vn 0.1876 -0.9822 -0.0000
vn 0.3707 -0.9287 -0.0000
vn 0.7206 -0.6934 -0.0000
vn -0.7252 0.6885 -0.0000
vn -0.9696 0.2446 0.0000
vn -0.0959 0.9954 -0.0000
vn -0.3484 0.9374 0.0000
vn 0.0554 0.9985 0.0000
vn 0.0135 0.9999 0.0000
vn 0.1784 0.9840 -0.0000
vn 0.0933 0.9956 -0.0000
vn 0.7105 0.7037 0.0000
vn 0.3596 0.9331 0.0000
vn -0.8777 -0.1222 -0.4634
vn -0.0510 -0.3137 0.9482
vn 0.1014 -0.3138 0.9440
vn -0.6436 -0.2778 -0.7131
vn -0.9168 -0.2530 -0.3089
vn -0.2264 0.9681 -0.1073
vn -0.3490 0.9221 -0.1668
vn -0.9515 0.2591 -0.1658
vn 0.1728 -0.2954 0.9396
vn 0.1185 -0.7720 0.6244
vn 0.0664 -0.9651 0.2534
vn 0.1298 -0.9510 0.2808
vn 0.0191 -0.9970 0.0755
vn -0.0476 -0.9987 0.0193
vn 0.0918 -0.9882 0.1229
vn -0.0916 -0.9958 -0.0058
vn -0.3473 -0.9374 -0.0238
vn 0.0649 -0.9955 0.0696
vn 0.0428 -0.9984 0.0367
vn 0.0194 -0.9998 0.0033
vn 0.0619 -0.9981 0.0077
vn 0.0681 -0.9974 0.0228
vn 0.1022 -0.9947 0.0118
vn 0.1928 -0.9811 0.0191
vn 0.9370 -0.2766 0.2134
vn 0.9623 -0.2477 0.1122
vn 0.6368 -0.6649 0.3903
vn 0.1019 -0.9889 0.1084
vn 0.0196 0.9943 0.1043
vn 0.0496 0.9982 0.0343
vn -0.2361 0.9686 -0.0782
vn 0.0958 0.9954 0.0096
vn -0.2213 -0.9724 -0.0734
vn -0.0950 -0.9955 -0.0016
vn -0.3102 -0.9499 -0.0384
vn -0.0986 -0.9951 -0.0000
vn -0.3595 -0.9331 0.0000
vn 0.0997 -0.9950 -0.0000
vn 0.1877 -0.9822 0.0000
vn 0.3708 -0.9287 -0.0000
vn -0.0960 0.9954 -0.0000
vn 0.9701 0.2425 0.0000
vn 0.9701 0.2426 -0.0000
vn 0.9744 -0.2250 -0.0000
vn 0.9744 -0.2249 0.0000
vn -0.6626 -0.6367 -0.3944
vn -0.6843 -0.6387 0.3518
vn -0.8777 -0.1223 0.4634
vn -0.8308 -0.1587 -0.5334
vn -0.2260 -0.2480 -0.9420
vn -0.1807 -0.8400 -0.5115
vn -0.3693 -0.8330 0.4120
vn -0.5680 -0.2149 0.7944
vn -0.0004 -0.3290 -0.9443
vn -0.0598 -0.8473 -0.5278
vn -0.0898 -0.8692 -0.4862
vn -0.0509 -0.3137 -0.9482
vn -0.1849 -0.9825 -0.0216
vn -0.3800 -0.8851 0.2687
vn -0.7463 -0.2735 0.6068
vn -0.4608 -0.8141 0.3534
vn -0.5944 -0.6871 0.4178
vn -0.7856 -0.2628 0.5601
vn -0.5188 -0.7168 0.4659
vn -0.7039 -0.2645 0.6592
vn 0.0613 -0.7942 -0.6046
vn 0.0036 -0.8173 -0.5762
vn 0.0433 -0.3238 -0.9451
vn 0.1014 -0.3138 -0.9441
vn -0.0002 -0.9770 -0.2134
vn -0.0917 -0.9866 -0.1352
vn -0.2314 -0.9656 0.1182
vn -0.0949 -0.9955 0.0016
vn -0.2213 -0.9725 0.0733
vn -0.5200 -0.8034 0.2899
vn -0.8327 -0.2753 0.4804
vn -0.6436 -0.2778 0.7131
vn -0.9062 -0.2324 0.3531
vn -0.6671 -0.7052 0.2401
vn -0.7248 -0.6211 0.2983
vn -0.8995 -0.2170 0.3792
vn -0.6004 -0.7744 0.1995
vn -0.9168 -0.2530 0.3089
vn -0.3472 -0.9308 0.1139
vn -0.9562 -0.2419 0.1649
vn -0.6919 -0.7136 0.1098
vn -0.7264 -0.6852 0.0531
vn -0.9705 -0.2292 0.0747
vn -0.6597 0.6385 -0.3963
vn -0.8296 0.1656 -0.5333
vn -0.8781 0.1290 0.4608
vn -0.6847 0.6421 0.3447
vn -0.1820 0.8382 -0.5142
vn -0.2254 0.2519 -0.9411
vn -0.5746 0.2126 0.7904
vn -0.3807 0.8335 0.4005
vn -0.0024 0.3310 -0.9436
vn -0.0516 0.3180 -0.9467
vn -0.0956 0.8653 -0.4921
vn -0.0668 0.8396 -0.5391
vn -0.4027 0.8814 0.2471
vn -0.1994 0.9782 -0.0584
vn -0.4854 0.8082 0.3335
vn -0.7606 0.2276 0.6081
vn -0.7922 0.2213 0.5687
vn -0.6079 0.6688 0.4280
vn -0.5481 0.7070 0.4469
vn -0.7196 0.2278 0.6560
vn 0.0591 0.7790 -0.6242
vn 0.1004 0.3066 -0.9465
vn 0.0408 0.3209 -0.9462
vn -0.0023 0.8055 -0.5925
vn -0.1014 0.9784 -0.1800
vn -0.0037 0.9648 -0.2631
vn -0.2426 0.9658 0.0919
vn -0.5224 0.7921 0.3157
vn -0.2263 0.9681 0.1073
vn -0.1013 0.9945 -0.0260
vn -0.8296 0.2523 0.4982
vn -0.6580 0.2590 0.7071
vn -0.9017 0.2274 0.3676
vn -0.8947 0.2265 0.3849
vn -0.7212 0.6139 0.3209
vn -0.6648 0.6917 0.2820
vn -0.9121 0.2675 0.3107
vn -0.5932 0.7740 0.2215
vn -0.3490 0.9221 0.1669
vn -0.9515 0.2591 0.1659
vn -0.9656 0.2489 0.0750
vn -0.7143 0.6977 0.0539
vn -0.6814 0.7228 0.1153
vn 0.1836 -0.7440 -0.6424
vn 0.1185 -0.7720 -0.6244
vn 0.1729 -0.2954 -0.9396
vn 0.2557 -0.2637 -0.9301
vn 0.1299 -0.9509 -0.2808
vn 0.0664 -0.9651 -0.2534
vn 0.0461 -0.9965 -0.0698
vn -0.0476 -0.9987 -0.0194
vn 0.0191 -0.9970 -0.0754
vn 0.0918 -0.9882 -0.1228
vn 0.4444 -0.6175 -0.6490
vn 0.2762 -0.8727 -0.4027
vn 0.2782 -0.7130 -0.6436
vn 0.3700 -0.3144 -0.8742
vn 0.3732 -0.8215 -0.4312
vn 0.5751 -0.4175 -0.7035
vn 0.5414 -0.2025 -0.8160
vn 0.1663 -0.9735 -0.1567
vn 0.1019 -0.9889 -0.1083
vn 0.1576 -0.9717 -0.1761
vn 0.3067 -0.9007 -0.3078
vn 0.5131 -0.6810 -0.5224
vn 0.0019 -0.9992 -0.0398
vn -0.0401 -0.9991 -0.0134
vn -0.2423 -0.9691 0.0466
vn -0.1398 -0.9899 0.0227
vn -0.3102 -0.9499 0.0385
vn -0.0720 -0.9974 0.0014
vn -0.0918 -0.9958 0.0053
vn -0.3474 -0.9374 0.0238
vn 0.0823 -0.9953 -0.0518
vn 0.0429 -0.9984 -0.0368
vn 0.0648 -0.9955 -0.0696
vn 0.1126 -0.9888 -0.0976
vn 0.0620 -0.9980 -0.0078
vn 0.0194 -0.9998 -0.0033
vn 0.0286 -0.9995 -0.0143
vn 0.0680 -0.9974 -0.0227
vn 0.5723 -0.6769 -0.4628
vn 0.3343 -0.9021 -0.2728
vn 0.4017 -0.8413 -0.3618
vn 0.6623 -0.4511 -0.5983
vn 0.4504 -0.8327 -0.3222
vn 0.7283 -0.4441 -0.5219
vn 0.7540 -0.2457 -0.6092
vn 0.2477 -0.9625 -0.1103
vn 0.1388 -0.9875 -0.0752
vn 0.1916 -0.9715 -0.1395
vn 0.3946 -0.8872 -0.2390
vn 0.1928 -0.9811 -0.0191
vn 0.1021 -0.9947 -0.0117
vn 0.1116 -0.9932 -0.0324
vn 0.2065 -0.9772 -0.0489
vn 0.7124 -0.6594 -0.2401
vn 0.4686 -0.8660 -0.1748
vn 0.5392 -0.7988 -0.2667
vn 0.7978 -0.4223 -0.4303
vn 0.9370 -0.2766 -0.2134
vn 0.8685 -0.2444 -0.4313
vn 0.7215 -0.6869 -0.0874
vn 0.4442 -0.8949 -0.0418
vn 0.4087 -0.9084 -0.0877
vn 0.7183 -0.6831 -0.1319
vn 0.7206 -0.6928 -0.0292
vn 0.9500 -0.3067 -0.0588
vn 0.9623 -0.2477 -0.1122
vn 0.6368 -0.6649 -0.3904
vn 0.6671 -0.2569 -0.6993
vn 0.8228 -0.2521 -0.5093
vn 0.2571 0.2597 -0.9308
vn 0.1738 0.2880 -0.9417
vn 0.1202 0.7547 -0.6450
vn 0.1865 0.7255 -0.6624
vn 0.1339 0.9332 -0.3335
vn 0.0681 0.9498 -0.3053
vn 0.0495 0.9982 -0.0344
vn 0.0962 0.9837 -0.1519
vn 0.0196 0.9943 -0.1044
vn -0.0472 0.9987 0.0166
vn 0.4353 0.6004 -0.6708
vn 0.3668 0.3079 -0.8779
vn 0.2787 0.6937 -0.6641
vn 0.2754 0.8510 -0.4473
vn 0.3712 0.7956 -0.4788
vn 0.5719 0.3849 -0.7244
vn 0.5375 0.1941 -0.8206
vn 0.1641 0.9785 -0.1252
vn 0.3106 0.8855 -0.3455
vn 0.1639 0.9648 -0.2056
vn 0.1068 0.9914 -0.0761
vn 0.5117 0.6385 -0.5749
vn -0.1369 0.9873 0.0805
vn -0.2360 0.9686 0.0782
vn -0.0386 0.9990 0.0206
vn 0.0037 0.9998 0.0192
vn -0.3009 0.9525 0.0474
vn -0.3366 0.9413 0.0253
vn -0.0890 0.9960 0.0078
vn -0.0697 0.9975 0.0120
vn 0.0797 0.9966 -0.0198
vn 0.1094 0.9932 -0.0404
vn 0.0655 0.9978 -0.0124
vn 0.0413 0.9991 -0.0031
vn 0.0572 0.9983 -0.0055
vn 0.0639 0.9979 -0.0124
vn 0.0261 0.9997 -0.0035
vn 0.0166 0.9999 -0.0010
vn 0.5347 0.7948 -0.2871
vn 0.8012 0.3205 -0.5054
vn 0.7543 0.2424 -0.6101
vn 0.5711 0.6944 -0.4377
vn 0.6696 0.3282 -0.6662
vn 0.4137 0.8028 -0.4295
vn 0.2602 0.9503 -0.1708
vn 0.2501 0.9639 -0.0916
vn 0.4251 0.8812 -0.2067
vn 0.1986 0.9762 -0.0868
vn 0.1396 0.9890 -0.0481
vn 0.1838 0.9828 -0.0175
vn 0.1999 0.9789 -0.0424
vn 0.1068 0.9940 -0.0235
vn 0.0959 0.9953 -0.0096
vn 0.7079 0.6675 -0.2311
vn 0.8052 0.4149 -0.4237
vn 0.5454 0.8006 -0.2481
vn 0.4664 0.8695 -0.1629
vn 0.9332 0.2918 -0.2098
vn 0.8682 0.2544 -0.4260
vn 0.7117 0.6971 -0.0866
vn 0.7098 0.6925 -0.1285
vn 0.4007 0.9124 -0.0833
vn 0.4340 0.9000 -0.0406
vn 0.7112 0.7024 -0.0285
vn 0.9444 0.3237 -0.0587
vn 0.9577 0.2656 -0.1109
vn 0.6761 0.6400 -0.3651
vn 0.6623 0.1863 -0.7257
vn 0.0798 0.9966 -0.0198
vn 0.1068 0.9914 -0.0762
vn 0.8429 0.2044 -0.4976
vn -0.1012 0.9945 -0.0260
vn -0.1369 0.9873 0.0804
vn -0.0510 -0.3137 -0.9482
vn -0.0950 -0.9955 0.0016
vn -0.1822 0.8381 -0.5141
vn 0.0591 0.7791 -0.6242
vn 0.0411 0.3209 -0.9462
vn -0.2264 0.9681 0.1073
vn -0.9017 0.2274 0.3677
vn -0.3490 0.9221 0.1668
vn 0.1298 -0.9510 -0.2808
vn -0.0476 -0.9987 -0.0193
vn 0.0191 -0.9970 -0.0755
vn 0.0918 -0.9882 -0.1229
vn -0.0916 -0.9958 0.0060
vn 0.0649 -0.9955 -0.0696
vn 0.0619 -0.9981 -0.0077
vn 0.1022 -0.9947 -0.0118
vn 0.7207 -0.6927 -0.0291
vn 0.9500 -0.3067 -0.0587
vn 0.9623 -0.2478 -0.1122
vn 0.6368 -0.6649 -0.3903
vn 0.1019 -0.9889 -0.1084
vn 0.1865 0.7255 -0.6625
vn 0.0496 0.9982 -0.0343
vn 0.0196 0.9943 -0.1043
vn -0.0472 0.9988 0.0166
vn -0.2361 0.9686 0.0782
vn -0.3010 0.9525 0.0474
vn 0.1838 0.9828 -0.0173
vn 0.0958 0.9954 -0.0096
vn 0.7098 0.6926 -0.1285
vn 0.9443 0.3237 -0.0587
vn 0.8429 0.2045 -0.4976
vn -0.2213 -0.9724 0.0734
vn -0.3102 -0.9499 0.0384
vn -0.0916 -0.9958 0.0058
usemtl Material.004
s 1
f 1//1 2//2 3//3
f 1//1 3//3 4//4
f 3//3 5//5 6//6
f 4//4 3//3 6//6
f 7//7 8//8 2//2
f 7//7 2//2 1//1
f 2//2 8//8 5//5
f 2//2 5//5 3//3
f 9//9 10//10 11//11
f 12//12 9//9 11//11
f 13//13 14//14 10//10
f 13//13 10//10 9//9
f 15//15 16//16 17//17
f 18//18 15//15 17//17
f 17//17 16//16 19//19
f 17//17 19//19 20//20
f 21//21 22//22 23//23
f 21//21 23//23 24//24
f 25//25 26//26 23//23
f 22//22 25//25 23//23
f 27//27 28//28 29//29
f 30//30 27//27 29//29
f 10//10 22//22 21//21
f 11//11 10//10 21//21
f 14//14 25//25 22//22
f 10//10 14//14 22//22
f 31//31 30//30 15//15
f 31//31 15//15 18//18
f 30//30 29//29 16//16
f 15//15 30//30 16//16
f 19//19 13//13 32//32
f 20//20 19//19 32//32
f 16//16 14//14 13//13
f 19//19 16//16 13//13
f 29//29 28//28 26//26
f 29//29 26//26 25//25
f 29//29 25//25 14//14
f 16//16 29//29 14//14
f 33//33 34//34 35//35
f 36//36 33//33 35//35
f 37//37 38//38 33//33
f 37//37 33//33 36//36
f 38//38 39//39 34//34
f 33//33 38//38 34//34
f 40//40 41//41 42//42
f 43//43 40//40 42//42
f 41//41 38//38 37//37
f 42//42 41//41 37//37
f 5//5 9//9 12//12
f 6//6 5//5 12//12
f 32//32 13//13 8//8
f 32//32 8//8 7//7
f 8//8 13//13 9//9
f 8//8 9//9 5//5
f 34//34 30//30 31//31
f 35//35 34//34 31//31
f 39//39 27//27 30//30
f 34//34 39//39 30//30
f 44//44 45//45 46//46
f 47//47 44//44 46//46
f 45//45 48//48 49//49
f 46//46 45//45 49//49
f 50//50 44//44 47//47
f 51//51 50//50 47//47
f 47//47 46//46 49//49
f 51//51 47//47 49//49
f 52//52 53//53 54//54
f 52//52 54//54 55//55
f 56//56 52//52 55//55
f 57//57 56//56 55//55
f 58//58 59//59 60//60
f 61//61 58//58 60//60
f 59//59 62//62 63//63
f 60//60 59//59 63//63
f 64//64 65//65 66//66
f 67//67 64//64 66//66
f 68//68 67//67 66//66
f 68//68 66//66 69//69
f 70//70 71//71 72//72
f 70//70 72//72 73//73
f 55//55 54//54 64//64
f 55//55 64//64 67//67
f 57//57 55//55 67//67
f 57//57 67//67 68//68
f 71//71 74//74 58//58
f 71//71 58//58 61//61
f 71//71 61//61 60//60
f 71//71 60//60 72//72
f 62//62 75//75 56//56
f 63//63 62//62 56//56
f 60//60 63//63 56//56
f 60//60 56//56 57//57
f 72//72 68//68 69//69
f 73//73 72//72 69//69
f 72//72 60//60 57//57
f 72//72 57//57 68//68
f 76//76 77//77 78//78
f 76//76 78//78 79//79
f 80//80 77//77 76//76
f 81//81 80//80 76//76
f 81//81 76//76 79//79
f 81//81 79//79 82//82
f 83//83 84//84 85//85
f 83//83 85//85 86//86
f 85//85 80//80 81//81
f 86//86 85//85 81//81
f 49//49 48//48 53//53
f 49//49 53//53 52//52
f 75//75 50//50 51//51
f 56//56 75//75 51//51
f 51//51 49//49 52//52
f 56//56 51//51 52//52
f 79//79 78//78 74//74
f 79//79 74//74 71//71
f 82//82 79//79 71//71
f 82//82 71//71 70//70
f 87//87 88//88 89//89
f 87//87 89//89 90//90
f 88//88 91//91 92//92
f 88//88 92//92 89//89
f 93//93 94//94 95//95
f 93//93 95//95 96//96
f 97//97 98//98 99//99
f 100//100 97//97 99//99
f 99//99 98//98 101//101
f 99//99 101//101 102//102
f 100//100 99//99 102//102
f 100//100 102//102 103//103
f 104//104 105//105 106//106
f 104//104 106//106 107//107
f 90//90 89//89 97//97
f 90//90 97//97 100//100
f 89//89 92//92 98//98
f 89//89 98//98 97//97
f 96//96 95//95 105//105
f 96//96 105//105 104//104
f 91//91 93//93 96//96
f 91//91 96//96 92//92
f 101//101 107//107 108//108
f 102//102 101//101 108//108
f 98//98 104//104 107//107
f 98//98 107//107 101//101
f 92//92 96//96 104//104
f 92//92 104//104 98//98
f 109//109 110//110 111//111
f 109//109 111//111 112//112
f 113//113 114//114 115//115
f 116//116 113//113 115//115
f 117//117 118//118 119//119
f 117//117 119//119 120//120
f 121//121 122//122 123//123
f 124//124 121//121 123//123
f 111//111 110//110 118//118
f 111//111 118//118 117//117
f 113//113 122//122 121//121
f 113//113 121//121 114//114
f 114//114 110//110 109//109
f 115//115 114//114 109//109
f 118//118 121//121 124//124
f 119//119 118//118 124//124
f 110//110 114//114 121//121
f 110//110 121//121 118//118
f 125//125 126//126 127//127
f 128//128 125//125 127//127
f 127//127 126//126 129//129
f 127//127 129//129 130//130
f 128//128 127//127 130//130
f 128//128 130//130 131//131
f 132//132 133//133 134//134
f 135//135 132//132 134//134
f 136//136 137//137 138//138
f 139//139 136//136 138//138
f 140//140 141//141 142//142
f 143//143 140//140 142//142
f 143//143 142//142 144//144
f 145//145 143//143 144//144
f 146//146 147//147 148//148
f 149//149 146//146 148//148
f 148//148 147//147 150//150
f 148//148 150//150 151//151
f 149//149 148//148 151//151
f 152//152 149//149 151//151
f 153//153 135//135 140//140
f 153//153 140//140 143//143
f 135//135 134//134 141//141
f 140//140 135//135 141//141
f 139//139 138//138 147//147
f 146//146 139//139 147//147
f 133//133 136//136 139//139
f 134//134 133//133 139//139
f 141//141 146//146 149//149
f 142//142 141//141 149//149
f 142//142 149//149 152//152
f 144//144 142//142 152//152
f 134//134 139//139 146//146
f 141//141 134//134 146//146
f 108//108 107//107 125//125
f 108//108 125//125 128//128
f 107//107 106//106 126//126
f 107//107 126//126 125//125
f 102//102 108//108 128//128
f 102//102 128//128 154//154
f 120//120 119//119 133//133
f 132//132 120//120 133//133
f 124//124 123//123 137//137
f 136//136 124//124 137//137
f 119//119 124//124 136//136
f 133//133 119//119 136//136
f 112//112 111//111 95//95
f 94//94 112//112 95//95
f 105//105 117//117 120//120
f 105//105 120//120 106//106
f 95//95 111//111 117//117
f 95//95 117//117 105//105
f 129//129 135//135 153//153
f 130//130 129//129 153//153
f 126//126 132//132 135//135
f 129//129 126//126 135//135
f 130//130 153//153 143//143
f 155//155 130//130 143//143
f 106//106 120//120 132//132
f 106//106 132//132 126//126
f 156//156 157//157 158//158
f 156//156 158//158 159//159
f 156//156 159//159 160//160
f 161//161 156//156 160//160
f 162//162 163//163 164//164
f 165//165 162//162 164//164
f 166//166 167//167 168//168
f 166//166 168//168 169//169
f 168//168 170//170 171//171
f 169//169 168//168 171//171
f 167//167 172//172 170//170
f 168//168 167//167 170//170
f 173//173 174//174 175//175
f 176//176 173//173 175//175
f 159//159 158//158 167//167
f 159//159 167//167 166//166
f 159//159 166//166 169//169
f 160//160 159//159 169//169
f 177//163 173//173 176//176
f 178//164 177//163 176//176
f 161//161 160//160 177//163
f 179//162 161//161 177//163
f 171//171 170//170 180//177
f 171//171 180//177 174//174
f 169//169 171//171 174//174
f 173//173 169//169 174//174
f 160//160 169//169 173//173
f 177//163 160//160 173//173
f 181//178 182//179 183//180
f 181//178 183//180 184//181
f 185//182 186//183 187//184
f 185//182 187//184 188//185
f 189//186 190//187 191//188
f 189//186 191//188 192//189
f 193//190 194//191 195//192
f 193//190 195//192 196//193
f 189//186 192//189 181//178
f 184//181 189//186 181//178
f 196//193 185//182 188//185
f 196//193 188//185 193//190
f 188//185 187//184 182//179
f 188//185 182//179 181//178
f 192//189 191//188 194//191
f 192//189 194//191 193//190
f 192//189 193//190 188//185
f 181//178 192//189 188//185
f 197//194 198//195 199//196
f 200//197 197//194 199//196
f 201//198 202//199 197//194
f 201//198 197//194 200//197
f 201//198 200//197 199//196
f 201//198 199//196 203//200
f 204//201 205//202 206//203
f 204//201 206//203 207//204
f 208//205 209//206 210//207
f 208//205 210//207 211//208
f 212//209 213//210 214//211
f 212//209 214//211 215//212
f 213//210 216//213 217//214
f 213//210 217//214 214//211
f 218//215 219//216 220//217
f 218//215 220//217 221//218
f 220//217 222//219 223//220
f 221//218 220//217 223//220
f 219//216 224//221 222//219
f 219//216 222//219 220//217
f 225//222 213//210 212//209
f 205//202 225//222 212//209
f 205//202 212//209 215//212
f 205//202 215//212 206//203
f 218//215 221//218 210//207
f 209//206 218//215 210//207
f 207//204 206//203 209//206
f 207//204 209//206 208//205
f 215//212 214//211 219//216
f 215//212 219//216 218//215
f 214//211 217//214 224//221
f 214//211 224//221 219//216
f 206//203 215//212 218//215
f 206//203 218//215 209//206
f 180//177 202//199 201//198
f 174//174 180//177 201//198
f 174//174 201//198 203//200
f 175//175 174//174 203//200
f 170//170 226//223 202//199
f 170//170 202//199 180//177
f 227//187 204//201 207//204
f 227//187 207//204 228//224
f 194//191 229//205 230//208
f 194//191 230//208 195//192
f 191//188 231//204 229//205
f 191//188 229//205 194//191
f 184//181 183//180 165//165
f 164//164 184//181 165//165
f 176//176 175//175 227//187
f 176//176 227//187 232//186
f 164//164 233//225 189//186
f 164//164 189//186 184//181
f 199//196 198//195 225//222
f 199//196 225//222 205//202
f 203//200 199//196 205//202
f 203//200 205//202 204//201
f 198//195 234//226 213//210
f 225//222 198//195 213//210
f 175//175 203//200 204//201
f 175//175 204//201 227//187
f 24//24 23//23 88//88
f 24//24 88//88 87//87
f 23//23 26//26 91//91
f 23//23 91//91 88//88
f 27//27 94//94 93//93
f 27//27 93//93 28//28
f 26//26 28//28 93//93
f 26//26 93//93 91//91
f 109//109 112//112 39//39
f 38//38 109//109 39//39
f 116//116 115//115 41//41
f 40//40 116//116 41//41
f 115//115 109//109 38//38
f 41//41 115//115 38//38
f 112//112 94//94 27//27
f 39//39 112//112 27//27
f 65//65 157//157 156//156
f 66//66 65//65 156//156
f 66//66 156//156 161//161
f 69//69 66//66 161//161
f 165//165 235//70 236//227
f 165//165 236//227 162//162
f 69//69 161//161 179//162
f 73//73 69//69 179//162
f 237//179 81//81 82//82
f 237//179 82//82 238//228
f 239//183 83//83 86//86
f 239//183 86//86 240//184
f 240//184 86//86 81//81
f 240//184 81//81 237//179
f 238//228 82//82 70//70
f 238//228 70//70 241//165
f 242//229 40//40 43//43
f 243//230 242//229 43//43
f 244//231 113//113 116//116
f 245//232 244//231 116//116
f 122//122 246//233 247//234
f 123//123 122//122 247//234
f 246//233 122//122 113//113
f 244//231 246//233 113//113
f 137//137 248//235 249//236
f 138//138 137//137 249//236
f 147//147 250//237 251//238
f 150//150 147//147 251//238
f 138//138 249//236 250//237
f 147//147 138//138 250//237
f 123//123 247//234 248//235
f 137//137 123//123 248//235
f 252//239 253//240 84//84
f 252//239 84//84 83//83
f 254//241 255//242 186//183
f 254//241 186//183 185//182
f 196//193 195//192 256//243
f 196//193 256//243 257//244
f 257//244 254//241 185//182
f 257//244 185//182 196//193
f 211//208 210//207 258//245
f 211//208 258//245 259//246
f 221//218 223//220 260//247
f 221//218 260//247 261//248
f 210//207 221//218 261//248
f 210//207 261//248 258//245
f 195//192 230//208 262//246
f 195//192 262//246 256//243
f 44//44 1//1 4//4
f 44//44 4//4 45//45
f 4//4 6//6 48//48
f 45//45 4//4 48//48
f 50//50 7//7 1//1
f 50//50 1//1 44//44
f 12//12 11//11 54//54
f 53//53 12//12 54//54
f 18//18 17//17 59//59
f 58//58 18//18 59//59
f 59//59 17//17 20//20
f 59//59 20//20 62//62
f 64//64 21//21 24//24
f 64//64 24//24 65//65
f 20//20 32//32 75//75
f 62//62 20//20 75//75
f 11//11 21//21 64//64
f 54//54 11//11 64//64
f 74//74 31//31 18//18
f 74//74 18//18 58//58
f 36//36 35//35 78//78
f 77//77 36//36 78//78
f 80//80 37//37 36//36
f 80//80 36//36 77//77
f 43//43 42//42 85//85
f 84//84 43//43 85//85
f 42//42 37//37 80//80
f 85//85 42//42 80//80
f 35//35 31//31 74//74
f 78//78 35//35 74//74
f 6//6 12//12 53//53
f 48//48 6//6 53//53
f 75//75 32//32 7//7
f 75//75 7//7 50//50
f 157//157 87//87 90//90
f 157//157 90//90 158//158
f 103//103 102//102 170//170
f 172//172 103//103 170//170
f 167//167 100//100 103//103
f 167//167 103//103 172//172
f 90//90 100//100 167//167
f 158//158 90//90 167//167
f 131//131 130//130 198//195
f 197//194 131//131 198//195
f 202//199 128//128 131//131
f 202//199 131//131 197//194
f 154//154 128//128 202//199
f 226//223 154//154 202//199
f 198//195 130//130 155//155
f 198//195 155//155 234//226
f 145//145 144//144 217//214
f 216//213 145//145 217//214
f 213//210 143//143 145//145
f 213//210 145//145 216//213
f 152//152 151//151 222//219
f 224//221 152//152 222//219
f 144//144 152//152 224//221
f 217//214 144//144 224//221
f 155//155 143//143 213//210
f 234//226 155//155 213//210
f 170//170 102//102 154//154
f 170//170 154//154 226//223
f 243//230 43//43 84//84
f 253//240 243//230 84//84
f 65//65 24//24 87//87
f 65//65 87//87 157//157
f 245//232 116//116 40//40
f 242//229 245//232 40//40
f 263//242 252//239 83//83
f 263//242 83//83 239//183
f 264//249 265//2 266//3
f 264//249 266//3 267//4
f 266//3 268//5 269//6
f 267//4 266//3 269//6
f 270//7 271//8 265//2
f 270//7 265//2 264//249
f 265//2 271//8 268//5
f 265//2 268//5 266//3
f 272//9 273//10 274//11
f 275//250 272//9 274//11
f 276//13 277//14 273//10
f 276//13 273//10 272//9
f 278//15 279//16 280//17
f 281//18 278//15 280//17
f 280//17 279//16 282//19
f 280//17 282//19 283//20
f 284//21 285//22 286//23
f 284//21 286//23 287//251
f 288//25 289//26 286//23
f 285//22 288//25 286//23
f 290//27 291//28 292//29
f 293//30 290//27 292//29
f 273//10 285//22 284//21
f 274//11 273//10 284//21
f 277//14 288//25 285//22
f 273//10 277//14 285//22
f 294//31 293//30 278//15
f 294//31 278//15 281//18
f 293//30 292//29 279//16
f 278//15 293//30 279//16
f 282//19 276//13 295//252
f 283//20 282//19 295//252
f 279//16 277//14 276//13
f 282//19 279//16 276//13
f 292//29 291//28 289//26
f 292//29 289//26 288//25
f 292//29 288//25 277//14
f 279//16 292//29 277//14
f 296//33 297//34 298//35
f 299//36 296//33 298//35
f 300//253 301//38 296//33
f 300//253 296//33 299//36
f 301//38 302//39 297//34
f 296//33 301//38 297//34
f 303//40 304//41 305//42
f 306//43 303//40 305//42
f 304//41 301//38 300//253
f 305//42 304//41 300//253
f 268//5 272//9 275//250
f 269//6 268//5 275//250
f 295//252 276//13 271//8
f 295//252 271//8 270//7
f 271//8 276//13 272//9
f 271//8 272//9 268//5
f 297//34 293//30 294//31
f 298//35 297//34 294//31
f 302//39 290//27 293//30
f 297//34 302//39 293//30
f 307//44 308//45 309//46
f 310//47 307//44 309//46
f 308//45 311//48 312//49
f 309//46 308//45 312//49
f 313//50 307//44 310//47
f 314//51 313//50 310//47
f 310//47 309//46 312//49
f 314//51 310//47 312//49
f 315//52 316//53 317//54
f 315//52 317//54 318//55
f 319//56 315//52 318//55
f 320//57 319//56 318//55
f 321//58 322//59 323//60
f 324//61 321//58 323//60
f 322//59 325//62 326//63
f 323//60 322//59 326//63
f 327//64 328//65 329//66
f 330//67 327//64 329//66
f 331//68 330//67 329//66
f 331//68 329//66 332//69
f 333//254 334//71 335//72
f 333//254 335//72 336//73
f 318//55 317//54 327//64
f 318//55 327//64 330//67
f 320//57 318//55 330//67
f 320//57 330//67 331//68
f 334//71 337//74 321//58
f 334//71 321//58 324//61
f 334//71 324//61 323//60
f 334//71 323//60 335//72
f 325//62 338//75 319//56
f 326//63 325//62 319//56
f 323//60 326//63 319//56
f 323//60 319//56 320//57
f 335//72 331//68 332//69
f 336//73 335//72 332//69
f 335//72 323//60 320//57
f 335//72 320//57 331//68
f 339//76 340//77 341//78
f 339//76 341//78 342//79
f 343//80 340//77 339//76
f 344//81 343//80 339//76
f 344//81 339//76 342//79
f 344//81 342//79 345//255
f 346//83 347//84 348//256
f 346//83 348//256 349//86
f 348//256 343//80 344//81
f 349//86 348//256 344//81
f 312//49 311//48 316//53
f 312//49 316//53 315//52
f 338//75 313//50 314//51
f 319//56 338//75 314//51
f 314//51 312//49 315//52
f 319//56 314//51 315//52
f 342//79 341//78 337//74
f 342//79 337//74 334//71
f 345//255 342//79 334//71
f 345//255 334//71 333//254
f 350//257 351//258 352//89
f 350//257 352//89 353//90
f 351//258 354//259 355//260
f 351//258 355//260 352//89
f 356//261 357//262 358//95
f 356//261 358//95 359//263
f 360//97 361//98 362//99
f 363//100 360//97 362//99
f 362//99 361//98 364//101
f 362//99 364//101 365//102
f 363//100 362//99 365//102
f 363//100 365//102 366//103
f 367//104 368//105 369//106
f 367//104 369//106 370//107
f 353//90 352//89 360//97
f 353//90 360//97 363//100
f 352//89 355//260 361//98
f 352//89 361//98 360//97
f 371//263 372//95 368//105
f 371//263 368//105 367//104
f 354//259 373//261 371//263
f 354//259 371//263 355//260
f 364//101 370//107 374//108
f 365//102 364//101 374//108
f 361//98 367//104 370//107
f 361//98 370//107 364//101
f 355//260 371//263 367//104
f 355//260 367//104 361//98
f 375//109 376//110 377//111
f 375//109 377//111 378//112
f 379//264 380//114 381//115
f 382//265 379//264 381//115
f 383//266 384//267 385//119
f 383//266 385//119 386//120
f 387//121 388//268 389//269
f 390//270 387//121 389//269
f 377//111 376//110 384//267
f 377//111 384//267 383//266
f 379//264 388//268 387//121
f 379//264 387//121 380//114
f 380//114 376//110 375//109
f 381//115 380//114 375//109
f 384//267 387//121 390//270
f 385//119 384//267 390//270
f 376//110 380//114 387//121
f 376//110 387//121 384//267
f 391//125 392//126 393//127
f 394//128 391//125 393//127
f 393//127 392//126 395//129
f 393//127 395//129 396//130
f 394//128 393//127 396//130
f 394//128 396//130 397//131
f 398//132 399//133 400//134
f 401//135 398//132 400//134
f 402//136 403//271 404//272
f 405//139 402//136 404//272
f 406//140 407//141 408//142
f 409//143 406//140 408//142
f 409//143 408//142 410//273
f 411//145 409//143 410//273
f 412//146 413//147 414//148
f 415//149 412//146 414//148
f 414//148 413//147 416//150
f 414//148 416//150 417//151
f 415//149 414//148 417//151
f 418//274 415//149 417//151
f 419//275 401//135 406//140
f 419//275 406//140 409//143
f 401//135 400//134 407//141
f 406//140 401//135 407//141
f 405//139 404//272 413//147
f 412//146 405//139 413//147
f 399//133 402//136 405//139
f 400//134 399//133 405//139
f 407//141 412//146 415//149
f 408//142 407//141 415//149
f 408//142 415//149 418//274
f 410//273 408//142 418//274
f 400//134 405//139 412//146
f 407//141 400//134 412//146
f 374//108 370//107 391//125
f 374//108 391//125 394//128
f 370//107 369//106 392//126
f 370//107 392//126 391//125
f 365//102 374//108 394//128
f 365//102 394//128 420//154
f 421//120 422//119 399//133
f 398//132 421//120 399//133
f 390//270 389//269 423//137
f 424//136 390//270 423//137
f 422//119 425//270 402//136
f 399//133 422//119 402//136
f 378//112 377//111 358//95
f 357//262 378//112 358//95
f 368//105 426//266 421//120
f 368//105 421//120 369//106
f 358//95 377//111 383//266
f 358//95 383//266 427//276
f 395//129 401//135 419//275
f 396//130 395//129 419//275
f 392//126 398//132 401//135
f 395//129 392//126 401//135
f 396//130 419//275 409//143
f 428//155 396//130 409//143
f 369//106 421//120 398//132
f 369//106 398//132 392//126
f 429//156 430//157 431//158
f 429//156 431//158 432//159
f 429//156 432//159 433//160
f 434//161 429//156 433//160
f 435//277 436//163 437//278
f 438//165 435//277 437//278
f 439//166 440//167 441//168
f 439//166 441//168 442//169
f 441//168 443//170 444//171
f 442//169 441//168 444//171
f 440//167 445//172 443//170
f 441//168 440//167 443//170
f 446//173 447//174 448//175
f 449//225 446//173 448//175
f 432//159 431//158 440//167
f 432//159 440//167 439//166
f 432//159 439//166 442//169
f 433//160 432//159 442//169
f 436//163 446//173 449//225
f 437//278 436//163 449//225
f 434//161 433//160 436//163
f 435//277 434//161 436//163
f 444//171 443//170 450//177
f 444//171 450//177 447//174
f 442//169 444//171 447//174
f 446//173 442//169 447//174
f 433//160 442//169 446//173
f 436//163 433//160 446//173
f 451//178 452//279 453//228
f 451//178 453//228 454//181
f 455//182 456//183 457//184
f 455//182 457//184 458//185
f 459//186 460//187 461//188
f 459//186 461//188 462//189
f 463//190 464//191 465//192
f 463//190 465//192 466//193
f 459//186 462//189 451//178
f 454//181 459//186 451//178
f 466//193 455//182 458//185
f 466//193 458//185 463//190
f 458//185 457//184 452//279
f 458//185 452//279 451//178
f 462//189 461//188 464//191
f 462//189 464//191 463//190
f 462//189 463//190 458//185
f 451//178 462//189 458//185
f 467//194 468//195 469//196
f 470//197 467//194 469//196
f 471//198 472//199 467//194
f 471//198 467//194 470//197
f 471//198 470//197 469//196
f 471//198 469//196 473//200
f 474//201 475//202 476//203
f 474//201 476//203 477//204
f 478//205 479//206 480//207
f 478//205 480//207 481//280
f 482//209 483//210 484//211
f 482//209 484//211 485//212
f 483//210 486//213 487//214
f 483//210 487//214 484//211
f 488//215 489//216 490//217
f 488//215 490//217 491//218
f 490//217 492//219 493//220
f 491//218 490//217 493//220
f 489//216 494//221 492//219
f 489//216 492//219 490//217
f 495//222 483//210 482//209
f 475//202 495//222 482//209
f 475//202 482//209 485//212
f 475//202 485//212 476//203
f 488//215 491//218 480//207
f 479//206 488//215 480//207
f 477//204 476//203 479//206
f 477//204 479//206 478//205
f 485//212 484//211 489//216
f 485//212 489//216 488//215
f 484//211 487//214 494//221
f 484//211 494//221 489//216
f 476//203 485//212 488//215
f 476//203 488//215 479//206
f 450//177 472//199 471//198
f 447//174 450//177 471//198
f 447//174 471//198 473//200
f 448//175 447//174 473//200
f 443//170 496//223 472//199
f 443//170 472//199 450//177
f 460//187 474//201 477//204
f 460//187 477//204 461//188
f 464//191 478//205 481//280
f 464//191 481//280 465//192
f 461//188 477//204 478//205
f 461//188 478//205 464//191
f 454//181 453//228 438//165
f 437//278 454//181 438//165
f 449//225 448//175 460//187
f 449//225 460//187 459//186
f 437//278 449//225 459//186
f 437//278 459//186 454//181
f 469//196 468//195 495//222
f 469//196 495//222 475//202
f 473//200 469//196 475//202
f 473//200 475//202 474//201
f 468//195 497//226 483//210
f 495//222 468//195 483//210
f 448//175 473//200 474//201
f 448//175 474//201 460//187
f 287//251 286//23 351//258
f 287//251 351//258 350//257
f 286//23 289//26 354//259
f 286//23 354//259 351//258
f 498//281 357//262 356//261
f 498//281 356//261 499//282
f 289//26 291//28 373//261
f 289//26 373//261 354//259
f 500//109 501//112 302//39
f 301//38 500//109 302//39
f 502//116 503//283 304//41
f 303//40 502//116 304//41
f 503//283 500//109 301//38
f 304//41 503//283 301//38
f 501//112 504//94 290//27
f 302//39 501//112 290//27
f 328//65 430//157 429//156
f 329//66 328//65 429//156
f 329//66 429//156 434//161
f 332//69 329//66 434//161
f 438//165 333//254 336//73
f 438//165 336//73 435//277
f 332//69 434//161 435//277
f 336//73 332//69 435//277
f 452//279 344//81 345//255
f 452//279 345//255 453//228
f 456//183 346//83 349//86
f 456//183 349//86 457//184
f 457//184 349//86 344//81
f 457//184 344//81 452//279
f 453//228 345//255 333//254
f 453//228 333//254 438//165
f 505//229 303//40 306//43
f 506//230 505//229 306//43
f 507//284 508//264 502//116
f 509//285 507//284 502//116
f 388//268 510//233 511//234
f 389//269 388//268 511//234
f 510//233 388//268 379//264
f 512//284 510//233 379//264
f 403//271 513//286 514//287
f 404//272 403//271 514//287
f 413//147 515//288 516//238
f 416//150 413//147 516//238
f 404//272 514//287 515//288
f 413//147 404//272 515//288
f 389//269 511//234 517//286
f 423//137 389//269 517//286
f 518//239 519//240 347//84
f 518//239 347//84 346//83
f 520//289 521//242 456//183
f 520//289 456//183 455//182
f 466//193 465//192 522//243
f 466//193 522//243 523//244
f 523//244 520//289 455//182
f 523//244 455//182 466//193
f 481//280 480//207 524//245
f 481//280 524//245 525//246
f 491//218 493//220 526//247
f 491//218 526//247 527//248
f 480//207 491//218 527//248
f 480//207 527//248 524//245
f 465//192 481//280 525//246
f 465//192 525//246 522//243
f 307//44 264//249 267//4
f 307//44 267//4 308//45
f 267//4 269//6 311//48
f 308//45 267//4 311//48
f 313//50 270//7 264//249
f 313//50 264//249 307//44
f 275//250 274//11 317//54
f 316//53 275//250 317//54
f 281//18 280//17 322//59
f 321//58 281//18 322//59
f 322//59 280//17 283//20
f 322//59 283//20 325//62
f 327//64 284//21 287//251
f 327//64 287//251 328//65
f 283//20 295//252 338//75
f 325//62 283//20 338//75
f 274//11 284//21 327//64
f 317//54 274//11 327//64
f 337//74 294//31 281//18
f 337//74 281//18 321//58
f 299//36 298//35 341//78
f 340//77 299//36 341//78
f 343//80 300//253 299//36
f 343//80 299//36 340//77
f 306//43 305//42 348//256
f 347//84 306//43 348//256
f 305//42 300//253 343//80
f 348//256 305//42 343//80
f 298//35 294//31 337//74
f 341//78 298//35 337//74
f 269//6 275//250 316//53
f 311//48 269//6 316//53
f 338//75 295//252 270//7
f 338//75 270//7 313//50
f 430//157 350//257 353//90
f 430//157 353//90 431//158
f 366//103 365//102 443//170
f 445//172 366//103 443//170
f 440//167 363//100 366//103
f 440//167 366//103 445//172
f 353//90 363//100 440//167
f 431//158 353//90 440//167
f 397//131 396//130 468//195
f 467//194 397//131 468//195
f 472//199 394//128 397//131
f 472//199 397//131 467//194
f 420//154 394//128 472//199
f 496//223 420//154 472//199
f 468//195 396//130 428//155
f 468//195 428//155 497//226
f 411//145 410//273 487//214
f 486//213 411//145 487//214
f 483//210 409//143 411//145
f 483//210 411//145 486//213
f 418//274 417//151 492//219
f 494//221 418//274 492//219
f 410//273 418//274 494//221
f 487//214 410//273 494//221
f 428//155 409//143 483//210
f 497//226 428//155 483//210
f 443//170 365//102 420//154
f 443//170 420//154 496//223
f 506//230 306//43 347//84
f 519//240 506//230 347//84
f 328//65 287//251 350//257
f 328//65 350//257 430//157
f 509//285 502//116 303//40
f 505//229 509//285 303//40
f 521//242 518//239 346//83
f 521//242 346//83 456//183
f 222//219 528//290 260//247
f 223//220 222//219 260//247
f 492//219 529//291 526//247
f 493//220 492//219 526//247
f 150//150 251//238 530//292
f 151//151 150//150 530//292
f 222//219 151//151 530//292
f 222//219 530//292 528//290
f 492//219 417//151 531//293
f 492//219 531//293 529//291
f 416//150 516//238 531//293
f 417//151 416//150 531//293
f 532//294 533//295 534//296
f 535//297 532//294 534//296
f 536//298 537//299 532//294
f 536//298 532//294 535//297
f 533//295 538//300 539//301
f 534//296 533//295 539//301
f 537//299 538//300 533//295
f 532//294 537//299 533//295
f 540//302 541//303 542//304
f 540//302 542//304 543//305
f 541//303 544//306 545//307
f 542//304 541//303 545//307
f 546//308 547//309 548//310
f 546//308 548//310 549//311
f 550//312 547//309 546//308
f 551//313 550//312 546//308
f 552//314 553//315 554//316
f 555//317 552//314 554//316
f 552//314 556//318 557//319
f 552//314 557//319 553//315
f 558//320 559//321 560//322
f 558//320 560//322 561//323
f 554//316 553//315 541//303
f 554//316 541//303 540//302
f 553//315 557//319 544//306
f 553//315 544//306 541//303
f 548//310 561//323 562//324
f 549//311 548//310 562//324
f 547//309 558//320 561//323
f 547//309 561//323 548//310
f 563//325 545//307 550//312
f 563//325 550//312 551//313
f 545//307 544//306 547//309
f 545//307 547//309 550//312
f 556//318 559//321 558//320
f 557//319 556//318 558//320
f 544//306 557//319 558//320
f 544//306 558//320 547//309
f 564//326 565//327 566//328
f 564//326 566//328 567//329
f 566//328 568//330 569//331
f 567//329 566//328 569//331
f 565//327 570//332 568//330
f 565//327 568//330 566//328
f 571//333 572//334 573//335
f 571//333 573//335 574//336
f 569//331 568//330 572//334
f 569//331 572//334 571//333
f 543//305 542//304 537//299
f 543//305 537//299 536//298
f 538//300 545//307 563//325
f 539//301 538//300 563//325
f 542//304 545//307 538//300
f 537//299 542//304 538//300
f 562//324 561//323 565//327
f 562//324 565//327 564//326
f 561//323 560//322 570//332
f 561//323 570//332 565//327
f 575//337 576//338 577//339
f 575//337 577//339 578//340
f 579//341 580//342 576//338
f 579//341 576//338 575//337
f 578//340 577//339 581//343
f 578//340 581//343 582//344
f 579//341 575//337 578//340
f 579//341 578//340 582//344
f 583//345 584//346 585//347
f 586//348 583//345 585//347
f 586//348 585//347 587//349
f 586//348 587//349 588//350
f 589//351 590//352 591//353
f 589//351 591//353 592//354
f 593//355 594//356 590//352
f 593//355 590//352 589//351
f 595//357 596//358 597//359
f 595//357 597//359 598//360
f 595//357 598//360 599//361
f 600//362 595//357 599//361
f 601//363 602//364 603//365
f 604//366 601//363 603//365
f 597//359 583//345 586//348
f 598//360 597//359 586//348
f 598//360 586//348 588//350
f 599//361 598//360 588//350
f 591//353 605//367 602//364
f 592//354 591//353 602//364
f 589//351 592//354 602//364
f 601//363 589//351 602//364
f 587//349 606//368 594//356
f 587//349 594//356 593//355
f 587//349 593//355 589//351
f 588//350 587//349 589//351
f 600//362 599//361 601//363
f 600//362 601//363 604//366
f 588//350 589//351 601//363
f 599//361 588//350 601//363
f 607//369 608//370 609//371
f 610//372 607//369 609//371
f 609//371 608//370 611//373
f 609//371 611//373 612//374
f 610//372 609//371 612//374
f 613//375 610//372 612//374
f 614//376 615//377 616//378
f 617//379 614//376 616//378
f 612//374 611//373 614//376
f 612//374 614//376 617//379
f 584//346 580//342 579//341
f 585//347 584//346 579//341
f 582//344 581//343 606//368
f 582//344 606//368 587//349
f 585//347 579//341 582//344
f 585//347 582//344 587//349
f 605//367 607//369 610//372
f 602//364 605//367 610//372
f 602//364 610//372 613//375
f 603//365 602//364 613//375
f 618//380 619//381 620//382
f 621//383 618//380 620//382
f 622//384 623//385 619//381
f 618//380 622//384 619//381
f 624//386 625//387 626//388
f 627//389 624//386 626//388
f 628//390 629//391 630//392
f 628//390 630//392 631//393
f 632//394 629//391 628//390
f 633//395 632//394 628//390
f 633//395 628//390 631//393
f 634//396 633//395 631//393
f 635//397 636//398 637//399
f 638//400 635//397 637//399
f 630//392 618//380 621//383
f 631//393 630//392 621//383
f 629//391 622//384 618//380
f 630//392 629//391 618//380
f 636//398 624//386 627//389
f 637//399 636//398 627//389
f 627//389 626//388 623//385
f 622//384 627//389 623//385
f 639//401 638//400 632//394
f 639//401 632//394 633//395
f 638//400 637//399 629//391
f 632//394 638//400 629//391
f 637//399 627//389 622//384
f 629//391 637//399 622//384
f 640//402 641//403 642//404
f 643//405 640//402 642//404
f 644//406 645//407 646//408
f 644//406 646//408 647//409
f 648//410 649//411 650//412
f 651//413 648//410 650//412
f 652//414 653//415 654//416
f 652//414 654//416 655//417
f 649//411 641//403 640//402
f 650//412 649//411 640//402
f 654//416 653//415 646//408
f 645//407 654//416 646//408
f 642//404 641//403 645//407
f 642//404 645//407 644//406
f 655//417 654//416 649//411
f 655//417 649//411 648//410
f 654//416 645//407 641//403
f 649//411 654//416 641//403
f 656//418 657//419 658//420
f 656//418 658//420 659//421
f 660//422 657//419 656//418
f 661//423 660//422 656//418
f 661//423 656//418 659//421
f 662//424 661//423 659//421
f 663//425 664//426 665//427
f 663//425 665//427 666//428
f 667//429 668//430 669//431
f 667//429 669//431 670//432
f 671//433 672//434 673//435
f 671//433 673//435 674//436
f 675//437 671//433 674//436
f 675//437 674//436 676//438
f 677//439 678//440 679//441
f 677//439 679//441 680//442
f 681//443 678//440 677//439
f 682//444 681//443 677//439
f 682//444 677//439 680//442
f 682//444 680//442 683//445
f 673//435 666//428 684//446
f 674//436 673//435 684//446
f 672//434 663//425 666//428
f 672//434 666//428 673//435
f 678//440 667//429 670//432
f 678//440 670//432 679//441
f 670//432 669//431 664//426
f 670//432 664//426 663//425
f 680//442 679//441 672//434
f 680//442 672//434 671//433
f 683//445 680//442 671//433
f 683//445 671//433 675//437
f 679//441 670//432 663//425
f 679//441 663//425 672//434
f 658//420 638//400 639//401
f 659//421 658//420 639//401
f 657//419 635//397 638//400
f 658//420 657//419 638//400
f 659//421 639//401 633//395
f 685//447 659//421 633//395
f 664//426 648//410 651//413
f 664//426 651//413 665//427
f 668//430 652//414 655//417
f 668//430 655//417 669//431
f 669//431 655//417 648//410
f 669//431 648//410 664//426
f 624//386 640//402 643//405
f 624//386 643//405 625//387
f 651//413 650//412 636//398
f 635//397 651//413 636//398
f 650//412 640//402 624//386
f 636//398 650//412 624//386
f 684//446 666//428 660//422
f 684//446 660//422 661//423
f 666//428 665//427 657//419
f 666//428 657//419 660//422
f 674//436 684//446 661//423
f 674//436 661//423 686//448
f 665//427 651//413 635//397
f 657//419 665//427 635//397
f 687//449 688//450 689//451
f 690//452 687//449 689//451
f 691//453 690//452 689//451
f 691//453 689//451 692//454
f 693//455 694//456 695//457
f 693//455 695//457 696//458
f 697//459 698//460 699//461
f 700//462 697//459 699//461
f 701//463 702//464 697//459
f 701//463 697//459 700//462
f 702//464 703//465 698//460
f 702//464 698//460 697//459
f 704//466 705//467 706//468
f 704//466 706//468 707//469
f 698//460 687//449 690//452
f 699//461 698//460 690//452
f 700//462 699//461 690//452
f 700//462 690//452 691//453
f 707//469 706//468 708//456
f 707//469 708//456 709//455
f 708//456 691//453 692//454
f 708//456 692//454 710//457
f 711//470 702//464 701//463
f 705//467 711//470 701//463
f 705//467 701//463 700//462
f 705//467 700//462 706//468
f 706//468 700//462 691//453
f 706//468 691//453 708//456
f 712//471 713//472 714//473
f 715//474 712//471 714//473
f 716//475 717//476 718//477
f 719//478 716//475 718//477
f 720//479 721//480 722//481
f 723//482 720//479 722//481
f 724//483 725//484 726//485
f 727//486 724//483 726//485
f 714//473 723//482 722//481
f 714//473 722//481 715//474
f 719//478 718//477 727//486
f 726//485 719//478 727//486
f 713//472 716//475 719//478
f 714//473 713//472 719//478
f 725//484 720//479 723//482
f 726//485 725//484 723//482
f 719//478 726//485 723//482
f 719//478 723//482 714//473
f 728//487 729//488 730//489
f 728//487 730//489 731//490
f 730//489 732//491 733//492
f 731//490 730//489 733//492
f 728//487 731//490 733//492
f 734//493 728//487 733//492
f 735//494 736//495 737//496
f 738//497 735//494 737//496
f 739//498 740//499 741//500
f 742//501 739//498 741//500
f 743//502 744//503 745//504
f 746//505 743//502 745//504
f 747//506 748//507 744//503
f 743//502 747//506 744//503
f 749//508 750//509 751//510
f 752//511 749//508 751//510
f 753//512 754//513 749//508
f 753//512 749//508 752//511
f 754//513 755//514 750//509
f 749//508 754//513 750//509
f 745//504 744//503 756//515
f 745//504 756//515 736//495
f 746//505 745//504 736//495
f 735//494 746//505 736//495
f 739//498 752//511 751//510
f 739//498 751//510 740//499
f 740//499 735//494 738//497
f 741//500 740//499 738//497
f 750//509 743//502 746//505
f 751//510 750//509 746//505
f 755//514 747//506 743//502
f 750//509 755//514 743//502
f 751//510 746//505 735//494
f 740//499 751//510 735//494
f 733//492 732//491 711//470
f 733//492 711//470 705//467
f 734//493 733//492 705//467
f 734//493 705//467 704//466
f 732//491 757//516 702//464
f 711//470 732//491 702//464
f 738//497 737//496 758//480
f 759//517 738//497 758//480
f 760//501 761//500 725//484
f 724//483 760//501 725//484
f 761//500 762//497 720//479
f 725//484 761//500 720//479
f 696//458 712//471 715//474
f 696//458 715//474 693//455
f 758//480 704//466 707//469
f 763//481 758//480 707//469
f 722//481 764//518 693//455
f 715//474 722//481 693//455
f 756//515 729//488 728//487
f 736//495 756//515 728//487
f 736//495 728//487 734//493
f 737//496 736//495 734//493
f 744//503 765//519 729//488
f 744//503 729//488 756//515
f 737//496 734//493 704//466
f 758//480 737//496 704//466
f 619//381 552//314 555//317
f 620//382 619//381 555//317
f 623//385 556//318 552//314
f 619//381 623//385 552//314
f 626//388 625//387 560//322
f 559//321 626//388 560//322
f 626//388 559//321 556//318
f 623//385 626//388 556//318
f 570//332 643//405 642//404
f 570//332 642//404 568//330
f 572//334 644//406 647//409
f 572//334 647//409 573//335
f 568//330 642//404 644//406
f 568//330 644//406 572//334
f 560//322 625//387 643//405
f 560//322 643//405 570//332
f 689//451 688//450 596//358
f 689//451 596//358 595//357
f 692//454 689//451 595//357
f 692//454 595//357 600//362
f 766//520 767//365 696//458
f 695//457 766//520 696//458
f 710//457 692//454 600//362
f 710//457 600//362 604//366
f 613//375 612//374 768//472
f 769//521 613//375 768//472
f 617//379 616//378 770//476
f 771//475 617//379 770//476
f 612//374 617//379 771//475
f 768//472 612//374 771//475
f 603//365 613//375 769//521
f 772//458 603//365 769//521
f 574//336 573//335 242//229
f 574//336 242//229 243//230
f 647//409 646//408 244//231
f 647//409 244//231 245//232
f 247//234 246//233 653//415
f 247//234 653//415 652//414
f 646//408 653//415 246//233
f 646//408 246//233 244//231
f 249//236 248//235 668//430
f 249//236 668//430 667//429
f 251//238 250//237 678//440
f 251//238 678//440 681//443
f 250//237 249//236 667//429
f 250//237 667//429 678//440
f 248//235 247//234 652//414
f 248//235 652//414 668//430
f 615//377 253//240 252//239
f 616//378 615//377 252//239
f 717//476 255//242 254//241
f 718//477 717//476 254//241
f 256//243 724//483 727//486
f 257//244 256//243 727//486
f 718//477 254//241 257//244
f 727//486 718//477 257//244
f 258//245 739//498 742//501
f 259//246 258//245 742//501
f 260//247 753//512 752//511
f 261//248 260//247 752//511
f 261//248 752//511 739//498
f 258//245 261//248 739//498
f 262//246 760//501 724//483
f 256//243 262//246 724//483
f 535//297 534//296 577//339
f 576//338 535//297 577//339
f 580//342 536//298 535//297
f 580//342 535//297 576//338
f 534//296 539//301 581//343
f 577//339 534//296 581//343
f 583//345 540//302 543//305
f 583//345 543//305 584//346
f 590//352 546//308 549//311
f 590//352 549//311 591//353
f 551//313 546//308 590//352
f 594//356 551//313 590//352
f 555//317 554//316 597//359
f 596//358 555//317 597//359
f 606//368 563//325 551//313
f 606//368 551//313 594//356
f 597//359 554//316 540//302
f 597//359 540//302 583//345
f 549//311 562//324 605//367
f 591//353 549//311 605//367
f 607//369 564//326 567//329
f 607//369 567//329 608//370
f 567//329 569//331 611//373
f 608//370 567//329 611//373
f 614//376 571//333 574//336
f 614//376 574//336 615//377
f 611//373 569//331 571//333
f 611//373 571//333 614//376
f 605//367 562//324 564//326
f 605//367 564//326 607//369
f 584//346 543//305 536//298
f 584//346 536//298 580//342
f 539//301 563//325 606//368
f 581//343 539//301 606//368
f 621//383 620//382 688//450
f 687//449 621//383 688//450
f 702//464 633//395 634//396
f 702//464 634//396 703//465
f 634//396 631//393 698//460
f 703//465 634//396 698//460
f 698//460 631//393 621//383
f 698//460 621//383 687//449
f 729//488 661//423 662//424
f 729//488 662//424 730//489
f 662//424 659//421 732//491
f 730//489 662//424 732//491
f 732//491 659//421 685//447
f 732//491 685//447 757//516
f 686//448 661//423 729//488
f 765//519 686//448 729//488
f 747//506 675//437 676//438
f 747//506 676//438 748//507
f 676//438 674//436 744//503
f 748//507 676//438 744//503
f 754//513 682//444 683//445
f 754//513 683//445 755//514
f 755//514 683//445 675//437
f 755//514 675//437 747//506
f 744//503 674//436 686//448
f 744//503 686//448 765//519
f 685//447 633//395 702//464
f 757//516 685//447 702//464
f 615//377 574//336 243//230
f 615//377 243//230 253//240
f 620//382 555//317 596//358
f 688//450 620//382 596//358
f 573//335 647//409 245//232
f 573//335 245//232 242//229
f 616//378 252//239 263//242
f 770//476 616//378 263//242
f 773//294 774//295 775//296
f 776//297 773//294 775//296
f 777//298 778//299 773//294
f 777//298 773//294 776//297
f 774//295 779//300 780//301
f 775//296 774//295 780//301
f 778//299 779//300 774//295
f 773//294 778//299 774//295
f 781//302 782//303 783//304
f 781//302 783//304 784//522
f 782//303 785//306 786//307
f 783//304 782//303 786//307
f 787//308 788//309 789//310
f 787//308 789//310 790//311
f 791//312 788//309 787//308
f 792//313 791//312 787//308
f 793//314 794//315 795//316
f 796//317 793//314 795//316
f 793//314 797//318 798//319
f 793//314 798//319 794//315
f 799//320 800//523 801//322
f 799//320 801//322 802//323
f 795//316 794//315 782//303
f 795//316 782//303 781//302
f 794//315 798//319 785//306
f 794//315 785//306 782//303
f 789//310 802//323 803//324
f 790//311 789//310 803//324
f 788//309 799//320 802//323
f 788//309 802//323 789//310
f 804//325 786//307 791//312
f 804//325 791//312 792//313
f 786//307 785//306 788//309
f 786//307 788//309 791//312
f 797//318 800//523 799//320
f 798//319 797//318 799//320
f 785//306 798//319 799//320
f 785//306 799//320 788//309
f 805//326 806//327 807//328
f 805//326 807//328 808//329
f 807//328 809//330 810//331
f 808//329 807//328 810//331
f 806//327 811//332 809//330
f 806//327 809//330 807//328
f 812//333 813//334 814//335
f 812//333 814//335 815//336
f 810//331 809//330 813//334
f 810//331 813//334 812//333
f 784//522 783//304 778//299
f 784//522 778//299 777//298
f 779//300 786//307 804//325
f 780//301 779//300 804//325
f 783//304 786//307 779//300
f 778//299 783//304 779//300
f 803//324 802//323 806//327
f 803//324 806//327 805//326
f 802//323 801//322 811//332
f 802//323 811//332 806//327
f 816//337 817//338 818//339
f 816//337 818//339 819//340
f 820//524 821//342 817//338
f 820//524 817//338 816//337
f 819//340 818//339 822//343
f 819//340 822//343 823//344
f 820//524 816//337 819//340
f 820//524 819//340 823//344
f 824//345 825//346 826//347
f 827//348 824//345 826//347
f 827//348 826//347 828//349
f 827//348 828//349 829//350
f 830//351 831//352 832//353
f 830//351 832//353 833//354
f 834//355 835//356 831//352
f 834//355 831//352 830//351
f 836//525 837//358 838//526
f 836//525 838//526 839//360
f 836//525 839//360 840//361
f 841//362 836//525 840//361
f 842//363 843//364 844//527
f 845//366 842//363 844//527
f 838//526 824//345 827//348
f 839//360 838//526 827//348
f 839//360 827//348 829//350
f 840//361 839//360 829//350
f 832//353 846//367 843//364
f 833//354 832//353 843//364
f 830//351 833//354 843//364
f 842//363 830//351 843//364
f 828//349 847//368 835//356
f 828//349 835//356 834//355
f 828//349 834//355 830//351
f 829//350 828//349 830//351
f 841//362 840//361 842//363
f 841//362 842//363 845//366
f 829//350 830//351 842//363
f 840//361 829//350 842//363
f 848//528 849//370 850//371
f 851//372 848//528 850//371
f 850//371 849//370 852//373
f 850//371 852//373 853//374
f 851//372 850//371 853//374
f 854//529 851//372 853//374
f 855//376 856//377 857//378
f 858//379 855//376 857//378
f 853//374 852//373 855//376
f 853//374 855//376 858//379
f 825//346 821//342 820//524
f 826//347 825//346 820//524
f 823//344 822//343 847//368
f 823//344 847//368 828//349
f 826//347 820//524 823//344
f 826//347 823//344 828//349
f 846//367 848//528 851//372
f 843//364 846//367 851//372
f 843//364 851//372 854//529
f 844//527 843//364 854//529
f 859//380 860//381 861//382
f 862//383 859//380 861//382
f 863//530 864//385 860//381
f 859//380 863//530 860//381
f 865//386 866//531 867//532
f 868//533 865//386 867//532
f 869//390 870//391 871//392
f 869//390 871//392 872//393
f 873//394 870//391 869//390
f 874//395 873//394 869//390
f 874//395 869//390 872//393
f 875//396 874//395 872//393
f 876//397 877//398 878//399
f 879//400 876//397 878//399
f 871//392 859//380 862//383
f 872//393 871//392 862//383
f 870//391 863//530 859//380
f 871//392 870//391 859//380
f 877//398 880//386 881//533
f 878//399 877//398 881//533
f 881//533 882//532 864//385
f 863//530 881//533 864//385
f 883//401 879//400 873//394
f 883//401 873//394 874//395
f 879//400 878//399 870//391
f 873//394 879//400 870//391
f 878//399 881//533 863//530
f 870//391 878//399 863//530
f 884//402 885//403 886//404
f 887//405 884//402 886//404
f 888//406 889//407 890//534
f 888//406 890//534 891//409
f 892//410 893//411 894//535
f 895//413 892//410 894//535
f 896//536 897//415 898//416
f 896//536 898//416 899//417
f 893//411 885//403 884//402
f 894//535 893//411 884//402
f 898//416 897//415 890//534
f 889//407 898//416 890//534
f 886//404 885//403 889//407
f 886//404 889//407 888//406
f 899//417 898//416 893//411
f 899//417 893//411 892//410
f 898//416 889//407 885//403
f 893//411 898//416 885//403
f 900//418 901//419 902//420
f 900//418 902//420 903//421
f 904//422 901//419 900//418
f 905//423 904//422 900//418
f 905//423 900//418 903//421
f 906//424 905//423 903//421
f 907//425 908//426 909//427
f 907//425 909//427 910//428
f 911//429 912//537 913//431
f 911//429 913//431 914//432
f 915//433 916//434 917//435
f 915//433 917//435 918//436
f 919//437 915//433 918//436
f 919//437 918//436 920//438
f 921//439 922//440 923//441
f 921//439 923//441 924//442
f 925//538 922//440 921//439
f 926//539 925//538 921//439
f 926//539 921//439 924//442
f 926//539 924//442 927//540
f 917//435 910//428 928//541
f 918//436 917//435 928//541
f 916//434 907//425 910//428
f 916//434 910//428 917//435
f 922//440 911//429 914//432
f 922//440 914//432 923//441
f 914//432 913//431 908//426
f 914//432 908//426 907//425
f 924//442 923//441 916//434
f 924//442 916//434 915//433
f 927//540 924//442 915//433
f 927//540 915//433 919//437
f 923//441 914//432 907//425
f 923//441 907//425 916//434
f 902//420 879//400 883//401
f 903//421 902//420 883//401
f 901//419 876//397 879//400
f 902//420 901//419 879//400
f 903//421 883//401 874//395
f 929//447 903//421 874//395
f 908//426 930//410 931//413
f 908//426 931//413 909//427
f 932//430 896//536 899//417
f 932//430 899//417 933//431
f 933//431 899//417 892//410
f 933//431 892//410 934//426
f 865//386 884//402 887//405
f 865//386 887//405 866//531
f 931//413 935//535 877//398
f 876//397 931//413 877//398
f 894//535 884//402 865//386
f 936//542 894//535 865//386
f 928//541 910//428 904//422
f 928//541 904//422 905//423
f 910//428 909//427 901//419
f 910//428 901//419 904//422
f 918//436 928//541 905//423
f 918//436 905//423 937//448
f 909//427 931//413 876//397
f 901//419 909//427 876//397
f 938//449 939//450 940//451
f 941//543 938//449 940//451
f 942//453 941//543 940//451
f 942//453 940//451 943//454
f 944//544 945//456 946//545
f 944//544 946//545 947//546
f 948//459 949//460 950//461
f 951//462 948//459 950//461
f 952//463 953//464 948//459
f 952//463 948//459 951//462
f 953//464 954//465 949//460
f 953//464 949//460 948//459
f 955//466 956//467 957//468
f 955//466 957//468 958//518
f 949//460 938//449 941//543
f 950//461 949//460 941//543
f 951//462 950//461 941//543
f 951//462 941//543 942//453
f 958//518 957//468 945//456
f 958//518 945//456 944//544
f 945//456 942//453 943//454
f 945//456 943//454 946//545
f 959//470 953//464 952//463
f 956//467 959//470 952//463
f 956//467 952//463 951//462
f 956//467 951//462 957//468
f 957//468 951//462 942//453
f 957//468 942//453 945//456
f 960//521 961//547 962//473
f 963//474 960//521 962//473
f 964//548 965//476 966//477
f 967//478 964//548 966//477
f 968//479 969//480 970//481
f 971//482 968//479 970//481
f 972//483 973//484 974//485
f 975//486 972//483 974//485
f 962//473 971//482 970//481
f 962//473 970//481 963//474
f 967//478 966//477 975//486
f 974//485 967//478 975//486
f 961//547 964//548 967//478
f 962//473 961//547 967//478
f 973//484 968//479 971//482
f 974//485 973//484 971//482
f 967//478 974//485 971//482
f 967//478 971//482 962//473
f 976//487 977//488 978//489
f 976//487 978//489 979//490
f 978//489 980//491 981//492
f 979//490 978//489 981//492
f 976//487 979//490 981//492
f 982//493 976//487 981//492
f 983//494 984//495 985//496
f 986//497 983//494 985//496
f 987//549 988//499 989//500
f 990//550 987//549 989//500
f 991//502 992//503 993//504
f 994//505 991//502 993//504
f 995//506 996//507 992//503
f 991//502 995//506 992//503
f 997//508 998//551 999//510
f 1000//511 997//508 999//510
f 1001//512 1002//552 997//508
f 1001//512 997//508 1000//511
f 1002//552 1003//514 998//551
f 997//508 1002//552 998//551
f 993//504 992//503 1004//515
f 993//504 1004//515 984//495
f 994//505 993//504 984//495
f 983//494 994//505 984//495
f 987//549 1000//511 999//510
f 987//549 999//510 988//499
f 988//499 983//494 986//497
f 989//500 988//499 986//497
f 998//551 991//502 994//505
f 999//510 998//551 994//505
f 1003//514 995//506 991//502
f 998//551 1003//514 991//502
f 999//510 994//505 983//494
f 988//499 999//510 983//494
f 981//492 980//491 959//470
f 981//492 959//470 956//467
f 982//493 981//492 956//467
f 982//493 956//467 955//466
f 980//491 1005//516 953//464
f 959//470 980//491 953//464
f 986//497 985//496 969//480
f 968//479 986//497 969//480
f 990//550 989//500 973//484
f 972//483 990//550 973//484
f 989//500 986//497 968//479
f 973//484 989//500 968//479
f 947//546 960//521 963//474
f 947//546 963//474 944//544
f 969//480 955//466 958//518
f 970//481 969//480 958//518
f 970//481 958//518 944//544
f 963//474 970//481 944//544
f 1004//515 977//488 976//487
f 984//495 1004//515 976//487
f 984//495 976//487 982//493
f 985//496 984//495 982//493
f 992//503 1006//553 977//488
f 992//503 977//488 1004//515
f 985//496 982//493 955//466
f 969//480 985//496 955//466
f 860//381 793//314 796//317
f 861//382 860//381 796//317
f 864//385 797//318 793//314
f 860//381 864//385 793//314
f 867//532 866//531 1007//554
f 1008//523 867//532 1007//554
f 882//532 800//523 797//318
f 864//385 882//532 797//318
f 811//332 1009//405 1010//404
f 811//332 1010//404 809//330
f 813//334 1011//555 1012//409
f 813//334 1012//409 814//335
f 809//330 1010//404 1011//555
f 809//330 1011//555 813//334
f 801//322 1013//387 1009//405
f 801//322 1009//405 811//332
f 940//451 939//450 837//358
f 940//451 837//358 836//525
f 943//454 940//451 836//525
f 943//454 836//525 841//362
f 845//366 844//527 947//546
f 946//545 845//366 947//546
f 946//545 943//454 841//362
f 946//545 841//362 845//366
f 854//529 853//374 961//547
f 960//521 854//529 961//547
f 858//379 857//378 965//476
f 964//548 858//379 965//476
f 853//374 858//379 964//548
f 961//547 853//374 964//548
f 844//527 854//529 960//521
f 947//546 844//527 960//521
f 815//336 814//335 505//229
f 815//336 505//229 506//230
f 1012//409 1014//556 507//284
f 1012//409 507//284 509//285
f 511//234 510//233 897//415
f 511//234 897//415 896//536
f 890//534 897//415 510//233
f 890//534 510//233 512//284
f 514//287 513//286 912//537
f 514//287 912//537 911//429
f 516//238 515//288 922//440
f 516//238 922//440 925//538
f 515//288 514//287 911//429
f 515//288 911//429 922//440
f 517//286 511//234 896//536
f 517//286 896//536 932//430
f 856//377 519//240 518//239
f 857//378 856//377 518//239
f 965//476 521//242 520//289
f 966//477 965//476 520//289
f 522//243 972//483 975//486
f 523//244 522//243 975//486
f 966//477 520//289 523//244
f 975//486 966//477 523//244
f 524//245 987//549 990//550
f 525//246 524//245 990//550
f 526//247 1001//512 1000//511
f 527//248 526//247 1000//511
f 527//248 1000//511 987//549
f 524//245 527//248 987//549
f 525//246 990//550 972//483
f 522//243 525//246 972//483
f 776//297 775//296 818//339
f 817//338 776//297 818//339
f 821//342 777//298 776//297
f 821//342 776//297 817//338
f 775//296 780//301 822//343
f 818//339 775//296 822//343
f 824//345 781//302 784//522
f 824//345 784//522 825//346
f 831//352 787//308 790//311
f 831//352 790//311 832//353
f 792//313 787//308 831//352
f 835//356 792//313 831//352
f 796//317 795//316 838//526
f 837//358 796//317 838//526
f 847//368 804//325 792//313
f 847//368 792//313 835//356
f 838//526 795//316 781//302
f 838//526 781//302 824//345
f 790//311 803//324 846//367
f 832//353 790//311 846//367
f 848//528 805//326 808//329
f 848//528 808//329 849//370
f 808//329 810//331 852//373
f 849//370 808//329 852//373
f 855//376 812//333 815//336
f 855//376 815//336 856//377
f 852//373 810//331 812//333
f 852//373 812//333 855//376
f 846//367 803//324 805//326
f 846//367 805//326 848//528
f 825//346 784//522 777//298
f 825//346 777//298 821//342
f 780//301 804//325 847//368
f 822//343 780//301 847//368
f 862//383 861//382 939//450
f 938//449 862//383 939//450
f 953//464 874//395 875//396
f 953//464 875//396 954//465
f 875//396 872//393 949//460
f 954//465 875//396 949//460
f 949//460 872//393 862//383
f 949//460 862//383 938//449
f 977//488 905//423 906//424
f 977//488 906//424 978//489
f 906//424 903//421 980//491
f 978//489 906//424 980//491
f 980//491 903//421 929//447
f 980//491 929//447 1005//516
f 937//448 905//423 977//488
f 1006//553 937//448 977//488
f 995//506 919//437 920//438
f 995//506 920//438 996//507
f 920//438 918//436 992//503
f 996//507 920//438 992//503
f 1002//552 926//539 927//540
f 1002//552 927//540 1003//514
f 1003//514 927//540 919//437
f 1003//514 919//437 995//506
f 992//503 918//436 937//448
f 992//503 937//448 1006//553
f 929//447 874//395 953//464
f 1005//516 929//447 953//464
f 856//377 815//336 506//230
f 856//377 506//230 519//240
f 861//382 796//317 837//358
f 939//450 861//382 837//358
f 814//335 1012//409 509//285
f 814//335 509//285 505//229
f 857//378 518//239 521//242
f 965//476 857//378 521//242
f 260//247 528//290 754//513
f 260//247 754//513 753//512
f 526//247 529//291 1002//552
f 526//247 1002//552 1001//512
f 530//292 251//238 681//443
f 530//292 681//443 682//444
f 530//292 682//444 754//513
f 528//290 530//292 754//513
f 531//293 926//539 1002//552
f 529//291 531//293 1002//552
f 531//293 516//238 925//538
f 531//293 925//538 926//539
