# Blender v3.5.0 OBJ File: ''
# www.blender.org
mtllib Inside Brick.mtl
o Box023_Inside_Brick_0
v -5.261709 0.266680 -3.699921
v -5.261709 10.725006 -3.699919
v 5.254184 10.725006 -3.699919
v 5.254184 0.266680 -3.699920
v -5.261709 0.266680 6.979882
v 5.254184 0.266680 6.979882
v 5.254184 10.725006 6.979885
v -5.261709 10.725006 6.979884
v -5.261709 0.266680 -3.699921
v 5.254184 0.266680 -3.699920
v 5.254184 0.266680 6.979882
v -5.261709 0.266680 6.979882
v 5.254184 0.266680 -3.699920
v 5.254184 10.725006 -3.699919
v 5.254184 10.725006 6.979885
v 5.254184 0.266680 6.979882
v 5.254184 10.725006 -3.699919
v -5.261709 10.725006 -3.699919
v -5.261709 10.725006 6.979884
v 5.254184 10.725006 6.979885
v -5.261709 10.725006 -3.699919
v -5.261709 0.266680 -3.699921
v -5.261709 0.266680 6.979882
v -5.261709 10.725006 6.979884
vt 0.337202 0.650498
vt 0.666899 0.650498
vt 0.666899 0.317218
vt 0.337202 0.317218
vt 0.999000 0.650498
vt 0.999000 0.317218
vt 0.669303 0.317218
vt 0.669303 0.650498
vt 0.334281 0.315703
vt 0.001000 0.315703
vt 0.001000 0.654598
vt 0.334281 0.654598
vt 0.669303 0.999000
vt 0.999000 0.999000
vt 0.999000 0.660104
vt 0.669303 0.660104
vt 0.333101 0.999000
vt 0.666382 0.999000
vt 0.666382 0.660104
vt 0.333101 0.660104
vt 0.001000 0.999000
vt 0.330697 0.999000
vt 0.330697 0.660104
vt 0.001000 0.660104
vn 0.0000 0.0000 -1.0000
vn 0.0000 -0.0000 1.0000
vn 0.0000 -1.0000 0.0000
vn 1.0000 0.0000 0.0000
vn 0.0000 1.0000 0.0000
vn -1.0000 -0.0000 0.0000
usemtl Inside_Brick
s off
f 1/1/1 2/2/1 3/3/1
f 1/1/1 3/3/1 4/4/1
f 5/5/2 6/6/2 7/7/2
f 5/5/2 7/7/2 8/8/2
f 9/9/3 10/10/3 11/11/3
f 9/9/3 11/11/3 12/12/3
f 13/13/4 14/14/4 15/15/4
f 13/13/4 15/15/4 16/16/4
f 17/17/5 18/18/5 19/19/5
f 17/17/5 19/19/5 20/20/5
f 21/21/6 22/22/6 23/23/6
f 21/21/6 23/23/6 24/24/6
