# Blender 3.5.1
# www.blender.org
mtllib cortexlarm.mtl
o cortex
v 3.312139 4.516683 -1.922580
v 3.923879 4.710480 -1.990556
v 3.372592 4.426402 -2.118015
v 3.068054 4.571974 -2.279462
v 1.425792 4.789911 -2.040941
v 3.201732 4.801043 -2.139258
v 2.967762 4.349266 -2.105270
v 1.525792 4.589911 -2.240941
v 1.225792 4.389912 -2.040941
v 1.425792 4.389912 -2.240941
v 3.157846 4.690882 -1.846106
v 3.003300 4.457837 -1.888592
v 1.225792 4.689911 -1.940941
v 3.949416 4.809471 -2.088273
v 3.957699 4.508833 -2.185991
v 3.898342 4.611489 -1.892838
v 3.983236 4.607824 -2.283708
v 3.180611 4.389822 -2.160501
v 3.376894 4.630820 -2.313450
v 6.262144 5.974885 -2.979102
v 6.462144 6.474885 -2.379102
v 5.262145 5.674885 -2.379102
v 7.462144 6.174884 -3.179101
v 7.462144 6.574884 -2.379102
v 8.962144 6.074885 -2.979101
v 8.962144 6.474885 -2.379102
v 10.362143 5.874885 -2.479102
v 10.362143 5.874885 -2.379102
v 11.962142 5.774885 -2.379102
v 6.262144 5.974885 -1.779102
v 7.462144 6.174885 -1.579102
v 8.962144 6.074885 -1.779102
v 10.362143 5.874885 -2.279102
v 6.262144 5.274885 -1.779102
v 7.462144 5.274885 -1.579102
v 9.062143 5.374885 -1.779102
v 10.362143 5.674885 -2.279102
v 6.262144 4.974885 -2.379102
v 7.562144 4.774885 -2.379102
v 9.062143 4.974885 -2.379102
v 10.362143 5.674885 -2.379102
v 6.262144 5.274885 -2.979102
v 7.462144 5.274885 -3.179101
v 9.062143 5.374885 -2.979102
v 10.362143 5.674885 -2.479102
v 4.562145 6.874885 -2.379102
v 10.362143 6.274885 -2.379102
v 10.362143 6.074885 -2.879102
v 10.362143 5.474885 -2.879102
v 10.362143 5.274885 -2.379102
v 10.362143 5.474885 -1.879102
v 10.362143 6.074885 -1.879102
v 6.862144 5.174885 -1.579102
v 6.862144 5.174885 -1.379102
v 6.062144 4.874885 -1.879102
v 7.462144 5.074885 -2.879102
v 5.962144 4.874885 -2.779102
v 6.262144 4.774885 -1.879102
v 5.962144 4.674885 -2.479101
v 6.062144 4.874885 -2.179102
v 5.962144 4.574885 -2.779101
v 3.662145 4.574885 -2.479101
v 4.262145 4.774885 -2.079102
v 5.962144 4.574885 -2.579102
v 3.662145 4.274885 -1.479102
v 3.662145 5.174885 -2.479102
v 3.662145 4.074885 -2.079102
v 7.462144 3.874885 -2.279102
v 7.462144 3.874885 -2.879101
v 3.662145 4.974885 -1.479102
v 6.562144 4.974885 -2.079102
v 6.862144 5.074885 -1.479102
v 7.462144 4.374886 -1.879102
v 7.462144 5.074885 -1.979102
vn -0.0777 0.0219 -0.9967
vn 0.8681 0.4818 -0.1193
vn -0.0270 0.9555 -0.2936
vn 0.0464 -0.9135 -0.4041
vn -0.0304 -0.5053 -0.8624
vn 0.0464 -0.9135 -0.4042
vn 0.2704 -0.7678 0.5808
vn 0.1271 -0.9739 -0.1883
vn 0.0439 0.2988 0.9533
vn 0.2704 -0.7679 0.5808
vn 0.1252 -0.6943 0.7087
vn 0.5230 -0.2856 0.8031
vn -0.0777 0.0218 -0.9967
vn -0.0303 -0.5053 -0.8624
vn 0.8681 0.4818 -0.1192
vn 0.5229 -0.2856 0.8031
vn 0.0438 0.2988 0.9533
vn -0.0270 0.9555 -0.2937
vn 0.0465 -0.9135 -0.4042
vn 0.1271 -0.9739 -0.1882
vn 0.1604 -0.9566 -0.2433
vn 0.0379 -0.2757 -0.9605
vn 0.0067 0.6153 0.7883
vn 0.1441 -0.6252 0.7671
vn 0.1690 -0.9723 -0.1616
vn 0.1605 -0.9566 -0.2433
vn 0.0380 -0.2758 -0.9605
vn 0.0067 0.6153 0.7882
vn -0.0107 0.9999 -0.0076
vn -0.0271 0.9555 -0.2936
vn 0.1690 -0.9723 -0.1615
vn 0.1008 -0.9764 -0.1910
vn -0.0171 -0.2015 0.9793
vn 0.0066 0.6153 0.7882
vn -0.0108 0.9999 -0.0077
vn 0.0495 0.3330 -0.9416
vn 0.1007 -0.9764 -0.1910
vn -0.9511 -0.0101 -0.3088
vn -0.3000 0.7970 -0.5243
vn -0.3130 0.4584 -0.8318
vn -0.0359 0.9885 -0.1467
vn -0.0393 0.5242 -0.8507
vn -0.0358 0.9885 -0.1467
vn 0.2355 0.9719 -0.0000
vn 0.2142 0.6107 -0.7623
vn 0.4856 0.8742 -0.0000
vn 0.8160 0.3346 -0.4714
vn 1.0000 -0.0000 -0.0001
vn -0.9510 -0.0101 -0.3089
vn -0.3130 0.4584 0.8318
vn -0.3001 0.7969 -0.5243
vn -0.0393 0.5242 0.8507
vn -0.0359 0.9885 -0.1466
vn 0.2142 0.6107 0.7623
vn 0.8160 0.3346 0.4714
vn 1.0000 -0.0000 0.0001
vn -0.3787 -0.4867 0.7872
vn -0.0067 -0.4911 0.8711
vn 0.2988 -0.3464 0.8892
vn 0.2988 -0.3465 0.8892
vn 0.6788 -0.5396 0.4980
vn 1.0000 -0.0001 -0.0000
vn 0.8159 0.3346 0.4714
vn -0.9511 -0.0102 -0.3089
vn -0.8182 0.5097 -0.2660
vn -0.8181 0.5097 -0.2661
vn 0.9115 -0.4110 0.0131
vn -0.0068 -0.4911 0.8711
vn 0.3103 -0.9506 -0.0000
vn 0.3103 -0.9506 0.0001
vn 0.8036 -0.5951 -0.0000
vn 0.8036 -0.5952 -0.0000
vn 0.6788 -0.5396 0.4981
vn -0.9510 -0.0102 -0.3089
vn -0.3787 -0.4867 -0.7872
vn -0.0068 -0.4911 -0.8711
vn 0.9115 -0.4111 0.0131
vn -0.0067 -0.4911 -0.8711
vn 0.2988 -0.3465 -0.8892
vn 0.6788 -0.5396 -0.4980
vn 0.6788 -0.5396 -0.4981
vn 0.2988 -0.3464 -0.8892
vn 0.8159 0.3346 -0.4714
vn 1.0000 0.0001 -0.0000
vn -0.3001 0.7969 -0.5242
vn -0.0000 -0.0000 -1.0000
vn 1.0000 -0.0000 -0.0000
vn -0.3000 0.7970 -0.5242
vn 0.2142 0.6108 -0.7623
vn -0.0393 0.5241 -0.8507
vn -0.0393 0.5241 0.8507
vn 0.2142 0.6108 0.7623
vn -0.0358 0.9885 -0.1466
vn -0.8181 0.5098 -0.2660
vn 0.9115 -0.4111 0.0130
vn 0.6789 -0.5396 0.4980
vn 0.6789 -0.5396 -0.4980
vn 0.9115 -0.4110 0.0130
vn -0.8182 0.5098 -0.2660
vn -0.8437 0.3396 0.4157
vn 0.1641 -0.2105 0.9637
vn 0.3932 0.8824 -0.2583
vn -0.1708 0.6745 -0.7183
vn -0.8182 0.5097 -0.2661
vn 0.3070 0.6730 -0.6729
vn -0.2677 -0.7440 0.6122
vn -0.1928 -0.6003 0.7762
vn -0.3571 0.9175 0.1751
vn 0.3933 0.8824 -0.2583
vn -0.7559 -0.0586 -0.6520
vn -0.1709 0.6745 -0.7183
vn -0.1260 -0.5496 -0.8259
vn -0.1929 -0.6003 0.7762
vn 0.1642 -0.2105 0.9637
vn -0.2813 -0.6698 0.6872
vn 0.0592 -0.9274 0.3693
vn -0.6394 0.7609 -0.1103
vn -0.5708 -0.8205 -0.0316
vn -0.2814 -0.6698 0.6872
vn -0.9889 0.0880 0.1198
vn 0.2995 -0.9369 -0.1802
vn 0.2853 -0.8564 0.4303
vn -0.7559 -0.0587 -0.6520
vn -0.5707 -0.8205 -0.0317
vn -0.7560 -0.0587 -0.6520
vn 0.2995 -0.9369 -0.1803
vn -0.2677 -0.7441 0.6121
vn -0.4667 -0.6178 0.6328
vn 0.3932 0.8824 -0.2582
vn 0.7556 -0.6505 0.0771
vn 0.8112 0.5585 -0.1732
vn 0.0593 -0.9274 0.3693
vn 0.2725 0.8673 0.4167
vn 0.6412 -0.1900 0.7434
vn 0.6413 -0.1901 0.7434
vn 0.0593 -0.9274 0.3692
vn 0.2724 0.8672 0.4168
vn -0.6394 0.7609 -0.1104
vn -0.5707 -0.8205 -0.0316
vn -0.4668 -0.6178 0.6328
vn 0.6412 -0.1901 0.7434
vn 0.2725 0.8672 0.4168
vn -0.1259 -0.5496 -0.8259
vn -0.1709 0.6745 -0.7182
vn -0.3572 0.9175 0.1751
vn -0.2678 -0.7440 0.6122
vn 0.7556 -0.6505 0.0770
vn 0.8113 0.5585 -0.1731
vn -0.3571 0.9175 0.1752
vn 0.2852 -0.8564 0.4303
vt 0.305908 0.224969
vt 0.303946 0.224969
vt 0.303946 0.227822
vt 0.303946 0.227822
vt 0.305908 0.224969
vt 0.305908 0.224969
vt 0.303946 0.224969
vt 0.303946 0.227822
vt 0.303946 0.227822
vt 0.303946 0.224969
vt 0.303946 0.224969
vt 0.303946 0.227822
vt 0.305908 0.224969
vt 0.303946 0.224969
vt 0.303946 0.227822
vt 0.305908 0.224969
vt 0.303946 0.224969
vt 0.305908 0.224969
vt 0.303946 0.227822
vt 0.303946 0.224969
vt 0.305908 0.224969
vt 0.303946 0.224969
vt 0.305908 0.224969
vt 0.305908 0.224969
vt 0.303946 0.224969
vt 0.305908 0.224969
vt 0.303946 0.224969
vt 0.303946 0.227822
vt 0.303946 0.224969
vt 0.305908 0.224969
vt 0.303946 0.224969
vt 0.303946 0.224969
vt 0.303946 0.224969
vt 0.305908 0.224969
vt 0.305908 0.224969
vt 0.303946 0.224969
vt 0.305908 0.224969
vt 0.303946 0.224969
vt 0.303946 0.227822
vt 0.303946 0.227822
vt 0.305908 0.224969
vt 0.303946 0.224969
vt 0.303946 0.227822
vt 0.303946 0.224969
vt 0.305908 0.224969
vt 0.343415 0.173754
vt 0.745468 0.368184
vt 0.340909 0.173754
vt 0.290404 0.172805
vt 0.340909 0.172805
vt 0.343415 0.173754
vt 0.340909 0.172805
vt 1.045416 0.355434
vt 0.290404 0.173754
vt 0.340909 0.173754
vt 0.343415 0.173754
vt 0.560033 0.374160
vt 0.292910 0.173754
vt 0.340909 0.172805
vt 0.343415 0.173754
vt 0.340909 0.173754
vt 0.340909 0.173754
vt 0.343415 0.173754
vt 0.328240 0.359819
vt 0.340909 0.173754
vt 0.340909 0.172805
vt 0.343415 0.173754
vt 0.340909 0.173754
vt 0.343415 0.173754
vt 0.340909 0.172805
vt 0.619121 0.158286
vt 0.559127 0.130907
vt 0.116693 0.271379
vt 0.340909 0.172805
vt 0.343415 0.173754
vt 0.668810 0.157919
vt 0.340909 0.173754
vt 0.621627 0.159236
vt 0.556621 0.129958
vt 0.666304 0.157919
vt 0.340909 0.173754
vt 0.340909 0.173754
vt 0.340909 0.172805
vt 0.745468 0.368184
vt 0.340909 0.173754
vt 0.340909 0.172805
vt 0.560033 0.374160
vt 0.340909 0.172805
vt 0.340909 0.173754
vt 0.328240 0.359819
vt 0.340909 0.173754
vt 0.666304 0.156969
vt 0.343415 0.173754
vt 0.116693 0.271379
vt 0.619121 0.158286
vt 0.559127 0.130907
vt 0.745468 0.245083
vt 0.343415 0.173754
vt 0.560033 0.245083
vt 0.340909 0.173754
vt 0.343415 0.173754
vt 0.340909 0.173754
vt 0.312787 0.259425
vt 0.343415 0.173754
vt 0.340909 0.172805
vt 0.343415 0.173754
vt 0.116693 0.242695
vt 0.340909 0.173754
vt 0.556621 0.129958
vt 0.621627 0.159236
vt 0.340909 0.173754
vt 0.340909 0.172805
vt 0.343415 0.173754
vt 0.528409 0.139760
vt 0.528409 0.138810
vt 0.530915 0.139760
vt 0.340909 0.173754
vt 0.340909 0.172805
vt 0.343415 0.173754
vt 0.613636 0.165256
vt 0.616142 0.165256
vt 0.528409 0.138810
vt 0.340909 0.172805
vt 0.343415 0.173754
vt 0.340909 0.173754
vt 0.340909 0.172805
vt 0.340909 0.173754
vt 0.668810 0.157919
vt 0.619121 0.158286
vt 0.559127 0.130907
vt 0.340909 0.173754
vt 0.745468 0.245083
vt 0.340909 0.172805
vt 0.560033 0.245083
vt 0.340909 0.172805
vt 0.340909 0.173754
vt 0.340909 0.173754
vt 0.340909 0.172805
vt 0.312787 0.259425
vt 0.340909 0.172805
vt 0.666304 0.156969
vt 0.116693 0.242695
vt 0.343415 0.173754
vt 0.340909 0.173754
vt 0.556621 0.129958
vt 0.621627 0.159236
vt 0.292910 0.173754
vt 0.290404 0.173754
vt 0.621627 0.159236
vt 0.556621 0.129958
vt 0.619121 0.159236
vt 0.556621 0.130907
vt 0.619121 0.159236
vt 0.556621 0.130907
vt 0.556621 0.129958
vt 0.621627 0.159236
vt 0.556621 0.130907
vt 0.619121 0.159236
vt 0.619121 0.159236
vt 0.556621 0.130907
vt 0.556621 0.129958
vt 0.621627 0.159236
vt 0.556621 0.130907
vt 0.619121 0.159236
vt 0.619121 0.159236
vt 0.556621 0.130907
vt 0.528409 0.138810
vt 0.530915 0.139760
vt 0.528409 0.139760
vt 0.528409 0.139760
vt 0.530915 0.139760
vt 0.530915 0.139760
vt 0.528409 0.138810
vt 0.613636 0.164306
vt 0.530915 0.139760
vt 0.528409 0.139760
vt 0.530915 0.139760
vt 0.528409 0.139760
vt 0.528409 0.138810
vt 0.528409 0.138810
vt 0.530915 0.139760
vt 0.528409 0.139760
vt 0.528409 0.138810
vt 0.530915 0.139760
vt 0.528409 0.139760
vt 0.528409 0.138810
vt 0.530915 0.139760
vt 0.528409 0.139760
vt 0.530915 0.139760
vt 0.528409 0.139760
vt 0.528409 0.138810
vt 0.528409 0.138810
vt 0.620095 0.155841
vt 0.530915 0.139760
vt 0.528409 0.139760
vt 0.620095 0.156790
vt 0.622601 0.156790
vt 0.528409 0.139760
vt 0.528409 0.138810
vt 0.530915 0.139760
vt 0.528409 0.138810
vt 0.620095 0.156790
vt 0.530915 0.139760
vt 0.528409 0.139760
vt 0.620095 0.155841
vt 0.528409 0.138810
vt 0.530915 0.139760
vt 0.620095 0.156790
vt 0.620095 0.155841
vt 0.528409 0.139760
vt 0.620095 0.155841
vt 0.620095 0.156790
vt 0.528409 0.139760
vt 0.530915 0.139760
vt 0.528409 0.138810
vt 0.616142 0.165256
vt 0.528409 0.139760
vt 0.613636 0.165256
vt 0.530915 0.139760
vt 0.613636 0.164306
vt 0.616142 0.165256
vt 0.528409 0.139760
vt 0.528409 0.138810
vt 0.530915 0.139760
vt 0.528409 0.139760
vt 0.620095 0.155841
vt 0.530915 0.139760
vt 0.620095 0.156790
vt 0.528409 0.138810
vt 0.528409 0.138810
vt 0.530915 0.139760
vt 0.528409 0.139760
vt 0.528409 0.139760
vt 0.528409 0.138810
vt 0.613636 0.165256
vt 0.613636 0.164306
vt 0.528409 0.139760
vt 0.528409 0.138810
vt 0.613636 0.164306
vt 0.528409 0.139760
vt 0.530915 0.139760
vt 0.528409 0.138810
s 0
usemtl cortex
f 4/9/1 5/11/2 6/16/3
f 4/9/1 7/17/4 8/21/5
f 7/19/6 9/22/7 10/24/8
f 11/28/9 9/22/10 12/30/11
f 11/28/9 13/31/12 9/23/7
f 4/9/13 8/20/14 5/13/15
f 5/12/15 13/31/16 11/26/9
f 11/28/17 6/14/18 5/13/15
f 7/19/19 10/25/20 8/21/5
f 7/19/19 12/29/11 9/23/7
f 4/9/13 18/42/21 7/18/6
f 18/40/21 4/10/1 19/45/22
f 6/15/3 11/27/17 2/5/23
f 11/28/9 12/29/11 1/1/24
f 1/3/24 18/42/21 3/6/25
f 1/3/24 12/29/11 18/41/26
f 19/43/27 4/10/13 6/16/3
f 2/4/28 14/32/29 6/16/30
f 3/8/31 19/44/22 15/34/32
f 1/3/24 15/33/32 16/35/33
f 11/28/9 1/2/24 2/5/34
f 6/15/3 14/32/35 17/37/36
f 19/43/27 17/38/36 15/34/32
f 1/3/24 3/7/31 15/34/37
f 1/3/24 16/36/33 2/5/28
f 17/39/36 19/44/22 6/16/30
f 3/8/31 18/42/21 19/45/22
f 7/19/6 18/42/21 12/30/11
f 22/52/38 21/48/39 20/46/40
f 24/59/41 23/55/42 20/46/40
f 24/59/43 26/65/44 25/63/45
f 28/74/46 27/68/47 25/63/45
f 28/74/46 29/81/48 27/69/47
f 22/52/49 30/82/50 21/51/51
f 30/83/50 31/85/52 24/60/53
f 32/88/54 26/65/44 24/60/41
f 32/88/54 33/91/55 28/75/46
f 33/92/55 29/80/56 28/76/46
f 22/53/38 34/97/57 30/84/50
f 35/99/58 31/87/52 30/84/50
f 35/99/58 36/103/59 32/90/54
f 32/90/54 36/103/60 33/94/55
f 37/105/61 29/81/62 33/93/63
f 22/52/64 38/111/65 34/98/57
f 38/112/66 39/117/67 35/101/68
f 40/123/69 36/102/60 35/101/58
f 40/123/70 41/127/71 37/106/61
f 41/126/72 29/81/56 37/106/73
f 22/52/74 42/131/75 38/113/65
f 43/135/76 39/117/77 38/113/65
f 43/135/78 44/137/79 40/124/69
f 45/140/80 41/127/71 40/124/69
f 45/141/81 29/80/48 41/128/72
f 22/53/38 20/47/40 42/132/75
f 20/47/40 23/57/42 43/134/78
f 25/64/45 44/139/82 43/134/78
f 27/73/47 45/142/80 44/139/82
f 27/70/83 29/81/84 45/143/80
f 21/49/85 22/54/64 46/147/86
f 27/71/47 48/153/87 47/149/87
f 49/155/87 48/154/87 27/72/47
f 41/129/71 50/159/87 49/156/87
f 51/161/87 50/160/87 41/130/71
f 33/95/55 52/165/87 51/162/87
f 47/150/87 52/166/87 33/96/55
f 21/49/88 46/148/86 24/58/53
f 21/50/39 24/61/53 20/46/40
f 24/59/41 25/62/89 23/56/90
f 26/66/44 28/77/46 25/63/45
f 32/88/54 28/77/46 26/67/44
f 31/86/91 32/89/92 24/60/53
f 30/83/50 24/61/93 21/51/39
f 23/57/42 25/64/89 43/134/78
f 20/47/40 43/134/78 42/132/75
f 37/107/61 33/94/55 36/103/59
f 35/99/58 32/90/92 31/87/52
f 34/97/57 35/99/58 30/84/50
f 38/112/94 35/100/68 34/98/57
f 39/118/95 40/125/69 35/101/68
f 40/123/69 37/108/96 36/104/59
f 44/138/82 45/144/97 40/124/69
f 43/135/76 40/125/69 39/119/98
f 42/133/75 43/136/76 38/113/99
f 27/71/47 47/151/87 28/78/46
f 45/145/97 49/157/87 27/72/47
f 41/129/72 49/158/87 45/146/80
f 37/109/96 51/163/87 41/130/71
f 33/95/55 51/164/87 37/110/96
f 28/79/46 47/152/87 33/96/55
f 55/173/100 54/170/101 53/168/102
f 57/179/103 38/114/104 56/175/105
f 55/173/100 59/185/106 58/181/107
f 60/186/108 53/169/109 38/116/66
f 62/192/110 57/178/111 61/189/112
f 58/180/113 54/170/114 55/172/100
f 65/201/115 64/198/116 59/184/106
f 66/206/117 60/188/108 57/177/103
f 67/211/118 65/202/119 63/197/120
f 69/220/121 39/120/67 68/216/122
f 62/193/123 67/212/124 63/197/120
f 61/191/112 67/213/118 62/194/125
f 56/174/105 39/120/67 69/221/121
f 69/223/126 68/217/122 59/184/106
f 57/179/103 62/195/110 66/207/117
f 59/183/127 70/225/128 65/203/119
f 53/167/129 60/188/108 55/172/100
f 72/234/130 71/232/131 53/168/102
f 61/191/112 69/222/121 64/200/132
f 74/239/133 73/235/134 39/121/67
f 58/180/113 72/233/130 54/171/114
f 73/236/135 68/218/122 39/121/77
f 72/234/130 53/169/109 54/171/114
f 69/223/126 59/185/106 64/200/136
f 39/122/98 38/114/99 74/241/137
f 64/199/132 65/204/115 67/214/124
f 70/226/128 66/208/138 63/197/120
f 66/209/117 62/196/110 63/197/120
f 71/230/131 74/240/137 38/116/65
f 60/186/108 66/210/117 70/227/128
f 67/215/139 61/190/112 64/200/136
f 65/205/115 70/228/140 63/197/120
f 58/180/113 59/185/106 68/219/122
f 61/191/112 56/176/105 69/224/126
f 38/115/104 53/169/102 71/231/131
f 58/180/113 73/237/141 74/241/142
f 61/191/143 57/178/144 56/175/105
f 39/122/67 56/176/105 38/116/65
f 55/173/100 60/188/145 59/184/146
f 72/234/147 58/182/107 71/231/131
f 74/242/137 71/232/148 58/181/113
f 70/229/128 59/185/106 60/187/149
f 57/179/111 60/188/108 38/116/65
f 73/238/135 58/182/113 68/219/150
f 25/64/45 27/73/47 44/139/79
