# Blender v3.5.0 OBJ File: ''
# www.blender.org
mtllib Boden.mtl
o TEMPLE.009_d605deea_0
v -7.856837 7.439906 -85.885162
v 0.548797 7.439906 -86.298103
v 0.548797 25.595058 -86.298111
v -7.856837 25.595058 -85.885170
v -53.854729 7.439912 -66.832207
v -47.095112 7.439910 -71.845482
v -47.095112 25.595064 -71.845490
v -53.854729 25.595064 -66.832214
v 33.366493 7.439908 -79.770256
v 40.974258 7.439909 -76.172050
v 40.974258 25.595062 -76.172058
v 33.366493 25.595060 -79.770264
v 17.279116 7.439957 83.567657
v 8.954432 7.439958 84.802505
v 8.954432 25.595110 84.802498
v 17.279116 25.595110 83.567650
v -60.090401 7.439913 -61.180538
v -60.090401 25.595066 -61.180542
v 25.442671 7.439907 -82.605446
v 25.442671 25.595060 -82.605453
v 25.442671 7.439957 81.522789
v 25.442671 25.595110 81.522781
v -65.742081 7.439915 -54.944866
v -65.742081 25.595068 -54.944870
v 17.279116 7.439906 -84.650314
v 17.279116 25.595060 -84.650322
v 33.366493 7.439956 78.687599
v 33.366493 25.595108 78.687592
v -70.755348 7.439917 -48.185246
v -70.755348 25.595070 -48.185249
v 8.954432 7.439906 -85.885162
v 8.954432 25.595058 -85.885170
v 40.974258 7.439955 75.089394
v 40.974258 25.595108 75.089386
v -75.081924 7.439919 -40.966797
v -75.081924 25.595072 -40.966801
v 48.192707 7.439953 70.762825
v 48.192707 25.595106 70.762817
v -78.680130 7.439922 -33.359035
v -78.680130 25.595076 -33.359039
v 54.952320 7.439952 65.749550
v 54.952320 25.595104 65.749542
v -81.515320 7.439924 -25.435209
v -81.515320 25.595078 -25.435215
v 61.187996 7.439950 60.097874
v 61.187996 25.595104 60.097870
v -83.560181 7.439927 -17.271648
v -83.560181 25.595079 -17.271654
v 66.839668 7.439948 53.862202
v 66.839668 25.595102 53.862198
v -84.795029 7.439929 -8.946964
v -84.795029 25.595083 -8.946970
v 71.852936 7.439946 47.102581
v 71.852936 25.595098 47.102577
v -85.207970 7.439932 -0.541330
v -85.207970 25.595085 -0.541335
v 76.179512 7.439944 39.884132
v 76.179512 25.595097 39.884129
v -84.795029 7.439934 7.864303
v -84.795029 25.595087 7.864298
v 79.777718 7.439942 32.276371
v 79.777718 25.595095 32.276367
v -83.560181 7.439937 16.188990
v -83.560181 25.595091 16.188984
v 82.612907 7.439939 24.352549
v 82.612907 25.595093 24.352543
v -81.515320 7.439939 24.352549
v -81.515320 25.595093 24.352543
v 84.657776 7.439937 16.188990
v 84.657776 25.595091 16.188984
v -78.680130 7.439942 32.276371
v -78.680130 25.595095 32.276367
v 85.892624 7.439934 7.864303
v 85.892624 25.595087 7.864298
v -75.081924 7.439944 39.884132
v -75.081924 25.595097 39.884129
v 86.305557 7.439932 -0.541330
v 86.305557 25.595085 -0.541335
v -70.755348 7.439946 47.102581
v -70.755348 25.595098 47.102577
v 85.892624 7.439929 -8.946964
v 85.892624 25.595083 -8.946970
v -65.742081 7.439948 53.862202
v -65.742081 25.595102 53.862198
v 84.657776 7.439927 -17.271648
v 84.657776 25.595079 -17.271654
v -60.090401 7.439950 60.097874
v -60.090401 25.595104 60.097870
v 82.612907 7.439924 -25.435209
v 82.612907 25.595078 -25.435215
v -53.854729 7.439952 65.749550
v -53.854729 25.595104 65.749542
v 79.777718 7.439922 -33.359035
v 79.777718 25.595076 -33.359039
v -47.095112 7.439953 70.762825
v -47.095112 25.595106 70.762817
v 76.179512 7.439919 -40.966797
v 76.179512 25.595072 -40.966801
v -39.876667 7.439955 75.089394
v -39.876667 25.595108 75.089386
v 71.852936 7.439917 -48.185246
v 71.852936 25.595070 -48.185249
v -32.268902 7.439956 78.687599
v -32.268902 25.595108 78.687592
v -16.181515 7.439906 -84.650314
v -16.181515 25.595060 -84.650322
v 66.839668 7.439915 -54.944866
v 66.839668 25.595068 -54.944870
v -24.345079 7.439957 81.522789
v -24.345079 25.595110 81.522781
v -24.345079 7.439907 -82.605446
v -24.345079 25.595060 -82.605453
v 61.187996 7.439913 -61.180538
v 61.187996 25.595066 -61.180542
v -16.181515 7.439957 83.567657
v -16.181515 25.595110 83.567650
v -32.268902 7.439908 -79.770256
v -32.268902 25.595060 -79.770264
v 54.952320 7.439912 -66.832207
v 54.952320 25.595064 -66.832214
v -7.856837 7.439958 84.802505
v -7.856837 25.595110 84.802498
v -39.876667 7.439909 -76.172050
v -39.876667 25.595062 -76.172058
v 48.192707 7.439910 -71.845482
v 48.192707 25.595064 -71.845490
v 0.548797 7.439958 85.215446
v 0.548797 25.595112 85.215439
v -6.834118 43.298321 -75.501335
v -7.557288 35.717270 -82.843811
v 0.548797 35.717270 -83.242035
v 0.548797 43.298321 -75.864029
v -14.145927 43.298321 -74.416725
v -15.585306 35.717274 -81.652962
v -21.316223 43.298321 -72.620667
v -23.457947 35.717274 -79.680977
v -28.275951 43.298321 -70.130440
v -31.099396 35.717274 -76.946823
v -34.958073 43.298325 -66.970024
v -38.436043 35.717274 -73.476837
v -41.298244 43.298325 -63.169861
v -45.397251 35.717274 -69.304459
v -47.235416 43.298325 -58.766563
v -51.915977 35.717278 -64.469833
v -52.712387 43.298328 -53.802528
v -57.929432 35.717278 -59.019573
v -57.676426 43.298328 -48.325558
v -63.379704 35.717281 -53.006123
v -62.079723 43.298332 -42.388386
v -68.214317 35.717281 -46.487389
v -65.879875 43.298332 -36.048210
v -72.386703 35.717285 -39.526184
v -69.040283 43.298336 -29.366091
v -75.856682 35.717285 -32.189533
v -71.530518 43.298336 -22.406361
v -78.590828 35.717289 -24.548088
v -73.326584 43.298340 -15.236070
v -80.562820 35.717293 -16.675447
v -74.411194 43.298340 -7.924256
v -81.753670 35.717293 -8.647425
v -74.773880 43.298344 -0.541340
v -82.151901 35.717297 -0.541338
v -74.411194 43.298347 6.841574
v -81.753670 35.717300 7.564747
v -73.326584 43.298347 14.153389
v -80.562820 35.717300 15.592771
v -71.530518 43.298351 21.323681
v -78.590836 35.717304 23.465406
v -69.040283 43.298351 28.283407
v -75.856682 35.717304 31.106853
v -65.879875 43.298355 34.965530
v -72.386703 35.717308 38.443504
v -62.079723 43.298355 41.305706
v -68.214317 35.717312 45.404709
v -57.676422 43.298359 47.242874
v -63.379700 35.717312 51.923435
v -52.712387 43.298359 52.719849
v -57.929432 35.717316 57.936893
v -47.235416 43.298363 57.683887
v -51.915977 35.717316 63.387165
v -41.298244 43.298363 62.087185
v -45.397251 35.717316 68.221786
v -34.958073 43.298363 65.887337
v -38.436043 35.717319 72.394165
v -28.275951 43.298363 69.047752
v -31.099396 35.717319 75.864159
v -21.316223 43.298367 71.537979
v -23.457947 35.717319 78.598305
v -14.145927 43.298367 73.334038
v -15.585306 35.717319 80.570290
v -6.834118 43.298367 74.418648
v -7.557288 35.717319 81.761139
v 0.548797 43.298367 74.781342
v 0.548797 35.717323 82.159363
v 7.931711 43.298367 74.418648
v 8.654882 35.717319 81.761139
v 15.243525 43.298367 73.334038
v 16.682903 35.717319 80.570290
v 22.413816 43.298367 71.537979
v 24.555538 35.717319 78.598297
v 29.373543 43.298363 69.047752
v 32.196987 35.717319 75.864151
v 36.055664 43.298363 65.887337
v 39.533634 35.717319 72.394165
v 42.395836 43.298363 62.087181
v 46.494843 35.717316 68.221786
v 48.333008 43.298363 57.683884
v 53.013565 35.717316 63.387161
v 53.809975 43.298359 52.719849
v 59.027023 35.717316 57.936893
v 58.774010 43.298359 47.242874
v 64.477287 35.717312 51.923435
v 63.177307 43.298355 41.305706
v 69.311905 35.717312 45.404709
v 66.977470 43.298355 34.965530
v 73.484291 35.717308 38.443504
v 70.137878 43.298351 28.283407
v 76.954269 35.717304 31.106853
v 72.628113 43.298351 21.323681
v 79.688431 35.717304 23.465406
v 74.424171 43.298347 14.153389
v 81.660416 35.717300 15.592771
v 75.508781 43.298347 6.841574
v 82.851257 35.717300 7.564747
v 75.871475 43.298344 -0.541340
v 83.249489 35.717297 -0.541338
v 75.508781 43.298340 -7.924256
v 82.851257 35.717293 -8.647425
v 74.424171 43.298340 -15.236070
v 81.660416 35.717293 -16.675447
v 72.628113 43.298336 -22.406363
v 79.688431 35.717289 -24.548088
v 70.137878 43.298336 -29.366091
v 76.954269 35.717285 -32.189533
v 66.977470 43.298332 -36.048210
v 73.484291 35.717285 -39.526184
v 63.177307 43.298332 -42.388386
v 69.311905 35.717281 -46.487389
v 58.774010 43.298328 -48.325558
v 64.477287 35.717281 -53.006115
v 53.809975 43.298328 -53.802528
v 59.027023 35.717278 -59.019573
v 48.333008 43.298325 -58.766567
v 53.013573 35.717278 -64.469841
v 42.395836 43.298325 -63.169865
v 46.494843 35.717274 -69.304459
v 36.055664 43.298325 -66.970024
v 39.533634 35.717274 -73.476837
v 29.373543 43.298321 -70.130440
v 32.196987 35.717274 -76.946831
v 22.413816 43.298321 -72.620667
v 24.555538 35.717274 -79.680969
v 15.243525 43.298321 -74.416725
v 16.682903 35.717274 -81.652962
v 7.931711 43.298321 -75.501335
v 8.654882 35.717270 -82.843811
vt -2.230146 -0.103150
vt -2.457165 -0.103150
vt -2.457165 0.406638
vt -2.230146 0.406638
vt -0.868040 -0.103150
vt -1.095057 -0.103150
vt -1.095057 0.406638
vt -0.868040 0.406638
vt -3.365237 -0.103150
vt -3.592254 -0.103150
vt -3.592254 0.406638
vt -3.365237 0.406638
vt 5.261442 -0.103150
vt 5.034423 -0.103150
vt 5.034423 0.406638
vt 5.261442 0.406638
vt -0.641023 -0.103150
vt -0.641023 0.406638
vt -3.138219 -0.103150
vt -3.138219 0.406638
vt 5.488460 -0.103150
vt 5.488460 0.406638
vt -0.414007 -0.103150
vt -0.414007 0.406638
vt -2.911200 -0.103150
vt -2.911200 0.406638
vt 5.715477 -0.103150
vt 5.715477 0.406638
vt -0.186988 -0.103150
vt -0.186988 0.406638
vt -2.684183 -0.103150
vt -2.684183 0.406638
vt 5.942494 -0.103150
vt 5.942494 0.406638
vt 0.040029 -0.103150
vt 0.040029 0.406638
vt 6.169513 -0.103150
vt 6.169513 0.406638
vt 0.267047 -0.103150
vt 0.267047 0.406638
vt 6.396531 -0.103150
vt 6.396531 0.406638
vt 0.494066 -0.103150
vt 0.494066 0.406638
vt 6.623550 -0.103150
vt 6.623550 0.406638
vt 0.721084 -0.103150
vt 0.721084 0.406638
vt 6.850565 -0.103150
vt 6.850565 0.406638
vt 0.948101 -0.103150
vt 0.948101 0.406638
vt 7.077583 -0.103150
vt 7.077583 0.406638
vt 1.175120 -0.103150
vt 1.175120 0.406638
vt 7.304601 -0.103152
vt 7.304601 0.406638
vt 1.402137 -0.103150
vt 1.402137 0.406638
vt -6.997520 -0.103150
vt -7.224536 -0.103150
vt -7.224536 0.406638
vt -6.997520 0.406638
vt 1.629155 -0.103150
vt 1.629155 0.406638
vt -6.770502 -0.103150
vt -6.770502 0.406638
vt 1.856174 -0.103150
vt 1.856174 0.406638
vt -6.543485 -0.103150
vt -6.543485 0.406638
vt 2.083192 -0.103150
vt 2.083192 0.406638
vt -6.316466 -0.103150
vt -6.316466 0.406638
vt 2.310209 -0.103150
vt 2.310209 0.406638
vt -6.089449 -0.103150
vt -6.089449 0.406638
vt 2.537226 -0.103150
vt 2.537226 0.406638
vt -5.862433 -0.103150
vt -5.862433 0.406638
vt 2.764245 -0.103150
vt 2.764245 0.406638
vt -5.635414 -0.103150
vt -5.635414 0.406638
vt 2.991263 -0.103150
vt 2.991263 0.406638
vt -5.408397 -0.103150
vt -5.408397 0.406638
vt 3.218278 -0.103150
vt 3.218278 0.406638
vt -5.181378 -0.103150
vt -5.181378 0.406638
vt 3.445297 -0.103150
vt 3.445297 0.406638
vt -4.954362 -0.103150
vt -4.954362 0.406638
vt 3.672316 -0.103150
vt 3.672316 0.406638
vt -4.727343 -0.103150
vt -4.727343 0.406638
vt 3.899334 -0.103150
vt 3.899334 0.406638
vt -2.003129 -0.103150
vt -2.003129 0.406638
vt -4.500327 -0.103150
vt -4.500327 0.406638
vt 4.126352 -0.103150
vt 4.126352 0.406638
vt -1.776111 -0.103150
vt -1.776111 0.406638
vt -4.273308 -0.103150
vt -4.273308 0.406638
vt 4.353369 -0.103150
vt 4.353369 0.406638
vt -1.549092 -0.103150
vt -1.549092 0.406638
vt -4.046291 -0.103150
vt -4.046291 0.406638
vt 4.580386 -0.103150
vt 4.580386 0.406638
vt -1.322076 -0.103150
vt -1.322076 0.406638
vt -3.819273 -0.103150
vt -3.819273 0.406638
vt 4.807405 -0.103150
vt 4.807405 0.406638
vt -2.230147 1.000579
vt -2.230146 0.703536
vt -2.457165 0.703536
vt -2.457165 1.000579
vt -2.003130 1.000579
vt -2.003129 0.703536
vt -1.776111 1.000579
vt -1.776111 0.703536
vt -1.549093 1.000579
vt -1.549092 0.703536
vt -1.322076 1.000579
vt -1.322076 0.703536
vt -1.095057 1.000579
vt -1.095057 0.703536
vt -0.868040 1.000579
vt -0.868040 0.703536
vt -0.641023 1.000579
vt -0.641023 0.703536
vt -0.414006 1.000579
vt -0.414007 0.703536
vt -0.186988 1.000579
vt -0.186988 0.703536
vt 0.040029 1.000579
vt 0.040029 0.703536
vt 0.267047 1.000579
vt 0.267047 0.703536
vt 0.494066 1.000579
vt 0.494066 0.703536
vt 0.721084 1.000579
vt 0.721084 0.703536
vt 0.948101 1.000579
vt 0.948101 0.703536
vt 1.175120 1.000579
vt 1.175120 0.703536
vt 1.402137 1.000579
vt 1.402137 0.703536
vt 1.629155 1.000579
vt 1.629155 0.703536
vt 1.856174 1.000579
vt 1.856174 0.703536
vt 2.083192 1.000579
vt 2.083192 0.703536
vt 2.310209 1.000579
vt 2.310209 0.703536
vt 2.537226 1.000579
vt 2.537226 0.703536
vt 2.764244 1.000579
vt 2.764245 0.703536
vt 2.991263 1.000579
vt 2.991263 0.703536
vt 3.218278 1.000579
vt 3.218278 0.703536
vt 3.445297 1.000579
vt 3.445297 0.703536
vt 3.672316 1.000579
vt 3.672316 0.703536
vt 3.899334 1.000579
vt 3.899334 0.703536
vt 4.126352 1.000579
vt 4.126352 0.703536
vt 4.353369 1.000579
vt 4.353369 0.703536
vt 4.580386 1.000579
vt 4.580386 0.703536
vt 4.807405 1.000579
vt 4.807405 0.703536
vt 5.034423 1.000579
vt 5.034423 0.703536
vt 5.261442 1.000579
vt 5.261442 0.703536
vt 5.488460 1.000579
vt 5.488460 0.703536
vt 5.715477 1.000579
vt 5.715477 0.703536
vt 5.942494 1.000579
vt 5.942494 0.703536
vt 6.169513 1.000579
vt 6.169513 0.703536
vt 6.396531 1.000579
vt 6.396531 0.703536
vt 6.623550 1.000579
vt 6.623550 0.703536
vt 6.850565 1.000579
vt 6.850565 0.703536
vt 7.077583 1.000579
vt 7.077583 0.703536
vt 7.304601 1.000579
vt 7.304601 0.703536
vt -6.997520 1.000579
vt -6.997520 0.703536
vt -7.224536 0.703536
vt -7.224536 1.000580
vt -6.770502 1.000579
vt -6.770502 0.703536
vt -6.543485 1.000579
vt -6.543485 0.703536
vt -6.316466 1.000579
vt -6.316466 0.703536
vt -6.089449 1.000579
vt -6.089449 0.703536
vt -5.862433 1.000579
vt -5.862433 0.703536
vt -5.635414 1.000579
vt -5.635414 0.703536
vt -5.408397 1.000579
vt -5.408397 0.703536
vt -5.181378 1.000579
vt -5.181378 0.703536
vt -4.954362 1.000579
vt -4.954362 0.703536
vt -4.727343 1.000579
vt -4.727343 0.703536
vt -4.500327 1.000579
vt -4.500327 0.703536
vt -4.273308 1.000579
vt -4.273308 0.703536
vt -4.046291 1.000579
vt -4.046291 0.703536
vt -3.819273 1.000579
vt -3.819273 0.703536
vt -3.592255 1.000579
vt -3.592254 0.703536
vt -3.365237 1.000579
vt -3.365237 0.703536
vt -3.138219 1.000579
vt -3.138219 0.703536
vt -2.911201 1.000579
vt -2.911200 0.703536
vt -2.684184 1.000579
vt -2.684183 0.703536
vn 0.0980 0.0000 0.9952
vn 0.0000 0.0000 1.0000
vn -0.0000 -0.1454 0.9894
vn 0.0970 -0.1454 0.9846
vn 0.6344 0.0000 0.7730
vn 0.5556 0.0000 0.8315
vn 0.5497 -0.1454 0.8226
vn 0.6276 -0.1454 0.7648
vn -0.3827 0.0000 0.9239
vn -0.4714 0.0000 0.8819
vn -0.4664 -0.1454 0.8725
vn -0.3786 -0.1454 0.9141
vn -0.1951 -0.0000 -0.9808
vn -0.0980 -0.0000 -0.9952
vn -0.0970 -0.1454 -0.9846
vn -0.1930 -0.1454 -0.9704
vn 0.7071 0.0000 0.7071
vn 0.6996 -0.1454 0.6996
vn -0.2903 0.0000 0.9569
vn -0.2872 -0.1454 0.9468
vn -0.2903 -0.0000 -0.9569
vn -0.2872 -0.1454 -0.9468
vn 0.7730 0.0000 0.6344
vn 0.7648 -0.1454 0.6276
vn -0.1951 0.0000 0.9808
vn -0.1930 -0.1454 0.9704
vn -0.3827 -0.0000 -0.9239
vn -0.3786 -0.1454 -0.9141
vn 0.8315 0.0000 0.5556
vn 0.8226 -0.1454 0.5497
vn -0.0980 0.0000 0.9952
vn -0.0970 -0.1454 0.9846
vn -0.4714 -0.0000 -0.8819
vn -0.4664 -0.1454 -0.8725
vn 0.8819 0.0000 0.4714
vn 0.8725 -0.1454 0.4664
vn -0.5556 -0.0000 -0.8315
vn -0.5497 -0.1454 -0.8226
vn 0.9239 0.0000 0.3827
vn 0.9141 -0.1454 0.3786
vn -0.6344 -0.0000 -0.7730
vn -0.6276 -0.1454 -0.7648
vn 0.9569 0.0000 0.2903
vn 0.9468 -0.1454 0.2872
vn -0.7071 -0.0000 -0.7071
vn -0.6996 -0.1454 -0.6996
vn 0.9808 0.0000 0.1951
vn 0.9704 -0.1454 0.1930
vn -0.7730 -0.0000 -0.6344
vn -0.7648 -0.1454 -0.6276
vn 0.9952 0.0000 0.0980
vn 0.9846 -0.1454 0.0970
vn -0.8315 -0.0000 -0.5556
vn -0.8226 -0.1454 -0.5497
vn 1.0000 -0.0000 0.0000
vn 0.9894 -0.1454 -0.0000
vn -0.8966 -0.0000 -0.4429
vn -0.8779 -0.1533 -0.4536
vn 0.9952 -0.0000 -0.0980
vn 0.9846 -0.1454 -0.0970
vn -0.9239 -0.0000 -0.3827
vn -0.9141 -0.1454 -0.3786
vn 0.9808 -0.0000 -0.1951
vn 0.9704 -0.1454 -0.1930
vn -0.9569 -0.0000 -0.2903
vn -0.9468 -0.1454 -0.2872
vn 0.9569 -0.0000 -0.2903
vn 0.9468 -0.1454 -0.2872
vn -0.9808 -0.0000 -0.1951
vn -0.9704 -0.1454 -0.1930
vn 0.9239 -0.0000 -0.3827
vn 0.9141 -0.1454 -0.3786
vn -0.9952 -0.0000 -0.0980
vn -0.9846 -0.1454 -0.0970
vn 0.8819 0.0000 -0.4714
vn 0.8725 -0.1454 -0.4664
vn -1.0000 -0.0000 0.0000
vn -0.9894 -0.1454 0.0000
vn 0.8315 -0.0000 -0.5556
vn 0.8226 -0.1454 -0.5497
vn -0.9952 -0.0000 0.0980
vn -0.9846 -0.1454 0.0970
vn 0.7730 -0.0000 -0.6344
vn 0.7648 -0.1454 -0.6276
vn -0.9808 0.0000 0.1951
vn -0.9704 -0.1454 0.1930
vn 0.7071 -0.0000 -0.7071
vn 0.6996 -0.1454 -0.6996
vn -0.9569 0.0000 0.2903
vn -0.9468 -0.1454 0.2872
vn 0.6344 -0.0000 -0.7730
vn 0.6276 -0.1454 -0.7648
vn -0.9239 -0.0000 0.3827
vn -0.9141 -0.1454 0.3786
vn 0.5556 -0.0000 -0.8315
vn 0.5497 -0.1454 -0.8226
vn -0.8819 -0.0000 0.4714
vn -0.8725 -0.1454 0.4664
vn 0.4714 -0.0000 -0.8819
vn 0.4664 -0.1454 -0.8725
vn -0.8315 0.0000 0.5556
vn -0.8226 -0.1454 0.5497
vn 0.3827 -0.0000 -0.9239
vn 0.3786 -0.1454 -0.9141
vn 0.1951 0.0000 0.9808
vn 0.1930 -0.1454 0.9704
vn -0.7730 0.0000 0.6344
vn -0.7648 -0.1454 0.6276
vn 0.2903 -0.0000 -0.9569
vn 0.2872 -0.1454 -0.9468
vn 0.2903 0.0000 0.9569
vn 0.2872 -0.1454 0.9468
vn -0.7071 0.0000 0.7071
vn -0.6996 -0.1454 0.6996
vn 0.1951 -0.0000 -0.9808
vn 0.1930 -0.1454 -0.9704
vn 0.3827 0.0000 0.9239
vn 0.3786 -0.1454 0.9141
vn -0.6344 0.0000 0.7730
vn -0.6276 -0.1454 0.7648
vn 0.0980 -0.0000 -0.9952
vn 0.0970 -0.1454 -0.9846
vn 0.4714 0.0000 0.8819
vn 0.4664 -0.1454 0.8725
vn -0.5556 0.0000 0.8315
vn -0.5497 -0.1454 0.8226
vn 0.0000 -0.0000 -1.0000
vn 0.0000 -0.1454 -0.9894
vn 0.0702 -0.6974 0.7132
vn 0.0846 -0.5045 0.8593
vn 0.0000 -0.5045 0.8634
vn -0.0000 -0.6974 0.7166
vn 0.1398 -0.6974 0.7029
vn 0.1684 -0.5045 0.8468
vn 0.2080 -0.6974 0.6858
vn 0.2506 -0.5045 0.8262
vn 0.2742 -0.6974 0.6621
vn 0.3304 -0.5045 0.7977
vn 0.3378 -0.6974 0.6320
vn 0.4070 -0.5045 0.7615
vn 0.3981 -0.6974 0.5959
vn 0.4797 -0.5045 0.7179
vn 0.4546 -0.6974 0.5540
vn 0.5477 -0.5045 0.6674
vn 0.5067 -0.6974 0.5067
vn 0.6105 -0.5045 0.6105
vn 0.5540 -0.6974 0.4546
vn 0.6674 -0.5045 0.5477
vn 0.5959 -0.6974 0.3981
vn 0.7179 -0.5045 0.4797
vn 0.6320 -0.6974 0.3378
vn 0.7615 -0.5045 0.4070
vn 0.6621 -0.6974 0.2742
vn 0.7977 -0.5045 0.3304
vn 0.6858 -0.6974 0.2080
vn 0.8262 -0.5045 0.2506
vn 0.7029 -0.6974 0.1398
vn 0.8468 -0.5045 0.1684
vn 0.7132 -0.6974 0.0702
vn 0.8593 -0.5045 0.0846
vn 0.7166 -0.6974 0.0000
vn 0.8634 -0.5045 0.0000
vn 0.7132 -0.6974 -0.0702
vn 0.8593 -0.5045 -0.0846
vn 0.7029 -0.6974 -0.1398
vn 0.8468 -0.5045 -0.1684
vn 0.6858 -0.6974 -0.2080
vn 0.8262 -0.5045 -0.2506
vn 0.6621 -0.6974 -0.2742
vn 0.7977 -0.5045 -0.3304
vn 0.6320 -0.6974 -0.3378
vn 0.7615 -0.5045 -0.4070
vn 0.5959 -0.6974 -0.3981
vn 0.7179 -0.5045 -0.4797
vn 0.5540 -0.6974 -0.4546
vn 0.6674 -0.5045 -0.5477
vn 0.5067 -0.6974 -0.5067
vn 0.6105 -0.5045 -0.6105
vn 0.4546 -0.6974 -0.5540
vn 0.5477 -0.5045 -0.6674
vn 0.3981 -0.6974 -0.5959
vn 0.4797 -0.5045 -0.7179
vn 0.3378 -0.6974 -0.6320
vn 0.4070 -0.5045 -0.7615
vn 0.2742 -0.6974 -0.6621
vn 0.3304 -0.5045 -0.7977
vn 0.2080 -0.6974 -0.6858
vn 0.2506 -0.5045 -0.8262
vn 0.1398 -0.6974 -0.7029
vn 0.1684 -0.5045 -0.8468
vn 0.0702 -0.6974 -0.7132
vn 0.0846 -0.5045 -0.8593
vn 0.0000 -0.6974 -0.7166
vn 0.0000 -0.5045 -0.8634
vn -0.0702 -0.6974 -0.7132
vn -0.0846 -0.5045 -0.8593
vn -0.1398 -0.6974 -0.7029
vn -0.1684 -0.5045 -0.8468
vn -0.2080 -0.6974 -0.6858
vn -0.2506 -0.5045 -0.8262
vn -0.2742 -0.6974 -0.6621
vn -0.3304 -0.5045 -0.7977
vn -0.3378 -0.6974 -0.6320
vn -0.4070 -0.5045 -0.7615
vn -0.3981 -0.6974 -0.5959
vn -0.4797 -0.5045 -0.7179
vn -0.4546 -0.6974 -0.5540
vn -0.5477 -0.5045 -0.6674
vn -0.5067 -0.6974 -0.5067
vn -0.6105 -0.5045 -0.6105
vn -0.5540 -0.6974 -0.4546
vn -0.6674 -0.5045 -0.5477
vn -0.5959 -0.6974 -0.3981
vn -0.7179 -0.5045 -0.4797
vn -0.6244 -0.7119 -0.3215
vn -0.7705 -0.4861 -0.4124
vn -0.6621 -0.6974 -0.2742
vn -0.7977 -0.5045 -0.3304
vn -0.6858 -0.6974 -0.2080
vn -0.8262 -0.5045 -0.2506
vn -0.7029 -0.6974 -0.1398
vn -0.8468 -0.5045 -0.1684
vn -0.7132 -0.6974 -0.0702
vn -0.8593 -0.5045 -0.0846
vn -0.7166 -0.6974 -0.0000
vn -0.8634 -0.5045 0.0000
vn -0.7132 -0.6974 0.0702
vn -0.8593 -0.5045 0.0846
vn -0.7029 -0.6974 0.1398
vn -0.8468 -0.5045 0.1684
vn -0.6858 -0.6974 0.2080
vn -0.8262 -0.5045 0.2506
vn -0.6621 -0.6974 0.2742
vn -0.7977 -0.5045 0.3304
vn -0.6320 -0.6974 0.3378
vn -0.7615 -0.5045 0.4070
vn -0.5959 -0.6974 0.3981
vn -0.7179 -0.5045 0.4797
vn -0.5540 -0.6974 0.4546
vn -0.6674 -0.5045 0.5477
vn -0.5067 -0.6974 0.5067
vn -0.6105 -0.5045 0.6105
vn -0.4546 -0.6974 0.5540
vn -0.5477 -0.5045 0.6674
vn -0.3981 -0.6974 0.5959
vn -0.4797 -0.5045 0.7179
vn -0.3378 -0.6974 0.6320
vn -0.4070 -0.5045 0.7615
vn -0.2742 -0.6974 0.6621
vn -0.3304 -0.5045 0.7977
vn -0.2080 -0.6974 0.6858
vn -0.2506 -0.5045 0.8262
vn -0.1398 -0.6974 0.7029
vn -0.1684 -0.5045 0.8468
vn -0.0702 -0.6974 0.7132
vn -0.0846 -0.5045 0.8593
usemtl d605deea
s 1
f 1/1/1 2/2/2 3/3/3
f 1/1/1 3/3/3 4/4/4
f 5/5/5 6/6/6 7/7/7
f 5/5/5 7/7/7 8/8/8
f 9/9/9 10/10/10 11/11/11
f 9/9/9 11/11/11 12/12/12
f 13/13/13 14/14/14 15/15/15
f 13/13/13 15/15/15 16/16/16
f 17/17/17 5/5/5 8/8/8
f 17/17/17 8/8/8 18/18/18
f 19/19/19 9/9/9 12/12/12
f 19/19/19 12/12/12 20/20/20
f 21/21/21 13/13/13 16/16/16
f 21/21/21 16/16/16 22/22/22
f 23/23/23 17/17/17 18/18/18
f 23/23/23 18/18/18 24/24/24
f 25/25/25 19/19/19 20/20/20
f 25/25/25 20/20/20 26/26/26
f 27/27/27 21/21/21 22/22/22
f 27/27/27 22/22/22 28/28/28
f 29/29/29 23/23/23 24/24/24
f 29/29/29 24/24/24 30/30/30
f 31/31/31 25/25/25 26/26/26
f 31/31/31 26/26/26 32/32/32
f 33/33/33 27/27/27 28/28/28
f 33/33/33 28/28/28 34/34/34
f 35/35/35 29/29/29 30/30/30
f 35/35/35 30/30/30 36/36/36
f 37/37/37 33/33/33 34/34/34
f 37/37/37 34/34/34 38/38/38
f 39/39/39 35/35/35 36/36/36
f 39/39/39 36/36/36 40/40/40
f 41/41/41 37/37/37 38/38/38
f 41/41/41 38/38/38 42/42/42
f 43/43/43 39/39/39 40/40/40
f 43/43/43 40/40/40 44/44/44
f 45/45/45 41/41/41 42/42/42
f 45/45/45 42/42/42 46/46/46
f 47/47/47 43/43/43 44/44/44
f 47/47/47 44/44/44 48/48/48
f 49/49/49 45/45/45 46/46/46
f 49/49/49 46/46/46 50/50/50
f 51/51/51 47/47/47 48/48/48
f 51/51/51 48/48/48 52/52/52
f 53/53/53 49/49/49 50/50/50
f 53/53/53 50/50/50 54/54/54
f 55/55/55 51/51/51 52/52/52
f 55/55/55 52/52/52 56/56/56
f 57/57/57 53/53/53 54/54/54
f 57/57/57 54/54/54 58/58/58
f 59/59/59 55/55/55 56/56/56
f 59/59/59 56/56/56 60/60/60
f 61/61/61 57/62/57 58/63/58
f 61/61/61 58/63/58 62/64/62
f 63/65/63 59/59/59 60/60/60
f 63/65/63 60/60/60 64/66/64
f 65/67/65 61/61/61 62/64/62
f 65/67/65 62/64/62 66/68/66
f 67/69/67 63/65/63 64/66/64
f 67/69/67 64/66/64 68/70/68
f 69/71/69 65/67/65 66/68/66
f 69/71/69 66/68/66 70/72/70
f 71/73/71 67/69/67 68/70/68
f 71/73/71 68/70/68 72/74/72
f 73/75/73 69/71/69 70/72/70
f 73/75/73 70/72/70 74/76/74
f 75/77/75 71/73/71 72/74/72
f 75/77/75 72/74/72 76/78/76
f 77/79/77 73/75/73 74/76/74
f 77/79/77 74/76/74 78/80/78
f 79/81/79 75/77/75 76/78/76
f 79/81/79 76/78/76 80/82/80
f 81/83/81 77/79/77 78/80/78
f 81/83/81 78/80/78 82/84/82
f 83/85/83 79/81/79 80/82/80
f 83/85/83 80/82/80 84/86/84
f 85/87/85 81/83/81 82/84/82
f 85/87/85 82/84/82 86/88/86
f 87/89/87 83/85/83 84/86/84
f 87/89/87 84/86/84 88/90/88
f 89/91/89 85/87/85 86/88/86
f 89/91/89 86/88/86 90/92/90
f 91/93/91 87/89/87 88/90/88
f 91/93/91 88/90/88 92/94/92
f 93/95/93 89/91/89 90/92/90
f 93/95/93 90/92/90 94/96/94
f 95/97/95 91/93/91 92/94/92
f 95/97/95 92/94/92 96/98/96
f 97/99/97 93/95/93 94/96/94
f 97/99/97 94/96/94 98/100/98
f 99/101/99 95/97/95 96/98/96
f 99/101/99 96/98/96 100/102/100
f 2/2/2 31/31/31 32/32/32
f 2/2/2 32/32/32 3/3/3
f 101/103/101 97/99/97 98/100/98
f 101/103/101 98/100/98 102/104/102
f 103/105/103 99/101/99 100/102/100
f 103/105/103 100/102/100 104/106/104
f 105/107/105 1/1/1 4/4/4
f 105/107/105 4/4/4 106/108/106
f 107/109/107 101/103/101 102/104/102
f 107/109/107 102/104/102 108/110/108
f 109/111/109 103/105/103 104/106/104
f 109/111/109 104/106/104 110/112/110
f 111/113/111 105/107/105 106/108/106
f 111/113/111 106/108/106 112/114/112
f 113/115/113 107/109/107 108/110/108
f 113/115/113 108/110/108 114/116/114
f 115/117/115 109/111/109 110/112/110
f 115/117/115 110/112/110 116/118/116
f 117/119/117 111/113/111 112/114/112
f 117/119/117 112/114/112 118/120/118
f 119/121/119 113/115/113 114/116/114
f 119/121/119 114/116/114 120/122/120
f 121/123/121 115/117/115 116/118/116
f 121/123/121 116/118/116 122/124/122
f 123/125/123 117/119/117 118/120/118
f 123/125/123 118/120/118 124/126/124
f 125/127/125 119/121/119 120/122/120
f 125/127/125 120/122/120 126/128/126
f 127/129/127 121/123/121 122/124/122
f 127/129/127 122/124/122 128/130/128
f 6/6/6 123/125/123 124/126/124
f 6/6/6 124/126/124 7/7/7
f 10/10/10 125/127/125 126/128/126
f 10/10/10 126/128/126 11/11/11
f 14/14/14 127/129/127 128/130/128
f 14/14/14 128/130/128 15/15/15
f 129/131/129 130/132/130 131/133/131
f 129/131/129 131/133/131 132/134/132
f 130/132/130 4/4/4 3/3/3
f 130/132/130 3/3/3 131/133/131
f 133/135/133 134/136/134 130/132/130
f 133/135/133 130/132/130 129/131/129
f 134/136/134 106/108/106 4/4/4
f 134/136/134 4/4/4 130/132/130
f 135/137/135 136/138/136 134/136/134
f 135/137/135 134/136/134 133/135/133
f 136/138/136 112/114/112 106/108/106
f 136/138/136 106/108/106 134/136/134
f 137/139/137 138/140/138 136/138/136
f 137/139/137 136/138/136 135/137/135
f 138/140/138 118/120/118 112/114/112
f 138/140/138 112/114/112 136/138/136
f 139/141/139 140/142/140 138/140/138
f 139/141/139 138/140/138 137/139/137
f 140/142/140 124/126/124 118/120/118
f 140/142/140 118/120/118 138/140/138
f 141/143/141 142/144/142 140/142/140
f 141/143/141 140/142/140 139/141/139
f 142/144/142 7/7/7 124/126/124
f 142/144/142 124/126/124 140/142/140
f 143/145/143 144/146/144 142/144/142
f 143/145/143 142/144/142 141/143/141
f 144/146/144 8/8/8 7/7/7
f 144/146/144 7/7/7 142/144/142
f 145/147/145 146/148/146 144/146/144
f 145/147/145 144/146/144 143/145/143
f 146/148/146 18/18/18 8/8/8
f 146/148/146 8/8/8 144/146/144
f 147/149/147 148/150/148 146/148/146
f 147/149/147 146/148/146 145/147/145
f 148/150/148 24/24/24 18/18/18
f 148/150/148 18/18/18 146/148/146
f 149/151/149 150/152/150 148/150/148
f 149/151/149 148/150/148 147/149/147
f 150/152/150 30/30/30 24/24/24
f 150/152/150 24/24/24 148/150/148
f 151/153/151 152/154/152 150/152/150
f 151/153/151 150/152/150 149/151/149
f 152/154/152 36/36/36 30/30/30
f 152/154/152 30/30/30 150/152/150
f 153/155/153 154/156/154 152/154/152
f 153/155/153 152/154/152 151/153/151
f 154/156/154 40/40/40 36/36/36
f 154/156/154 36/36/36 152/154/152
f 155/157/155 156/158/156 154/156/154
f 155/157/155 154/156/154 153/155/153
f 156/158/156 44/44/44 40/40/40
f 156/158/156 40/40/40 154/156/154
f 157/159/157 158/160/158 156/158/156
f 157/159/157 156/158/156 155/157/155
f 158/160/158 48/48/48 44/44/44
f 158/160/158 44/44/44 156/158/156
f 159/161/159 160/162/160 158/160/158
f 159/161/159 158/160/158 157/159/157
f 160/162/160 52/52/52 48/48/48
f 160/162/160 48/48/48 158/160/158
f 161/163/161 162/164/162 160/162/160
f 161/163/161 160/162/160 159/161/159
f 162/164/162 56/56/56 52/52/52
f 162/164/162 52/52/52 160/162/160
f 163/165/163 164/166/164 162/164/162
f 163/165/163 162/164/162 161/163/161
f 164/166/164 60/60/60 56/56/56
f 164/166/164 56/56/56 162/164/162
f 165/167/165 166/168/166 164/166/164
f 165/167/165 164/166/164 163/165/163
f 166/168/166 64/66/64 60/60/60
f 166/168/166 60/60/60 164/166/164
f 167/169/167 168/170/168 166/168/166
f 167/169/167 166/168/166 165/167/165
f 168/170/168 68/70/68 64/66/64
f 168/170/168 64/66/64 166/168/166
f 169/171/169 170/172/170 168/170/168
f 169/171/169 168/170/168 167/169/167
f 170/172/170 72/74/72 68/70/68
f 170/172/170 68/70/68 168/170/168
f 171/173/171 172/174/172 170/172/170
f 171/173/171 170/172/170 169/171/169
f 172/174/172 76/78/76 72/74/72
f 172/174/172 72/74/72 170/172/170
f 173/175/173 174/176/174 172/174/172
f 173/175/173 172/174/172 171/173/171
f 174/176/174 80/82/80 76/78/76
f 174/176/174 76/78/76 172/174/172
f 175/177/175 176/178/176 174/176/174
f 175/177/175 174/176/174 173/175/173
f 176/178/176 84/86/84 80/82/80
f 176/178/176 80/82/80 174/176/174
f 177/179/177 178/180/178 176/178/176
f 177/179/177 176/178/176 175/177/175
f 178/180/178 88/90/88 84/86/84
f 178/180/178 84/86/84 176/178/176
f 179/181/179 180/182/180 178/180/178
f 179/181/179 178/180/178 177/179/177
f 180/182/180 92/94/92 88/90/88
f 180/182/180 88/90/88 178/180/178
f 181/183/181 182/184/182 180/182/180
f 181/183/181 180/182/180 179/181/179
f 182/184/182 96/98/96 92/94/92
f 182/184/182 92/94/92 180/182/180
f 183/185/183 184/186/184 182/184/182
f 183/185/183 182/184/182 181/183/181
f 184/186/184 100/102/100 96/98/96
f 184/186/184 96/98/96 182/184/182
f 185/187/185 186/188/186 184/186/184
f 185/187/185 184/186/184 183/185/183
f 186/188/186 104/106/104 100/102/100
f 186/188/186 100/102/100 184/186/184
f 187/189/187 188/190/188 186/188/186
f 187/189/187 186/188/186 185/187/185
f 188/190/188 110/112/110 104/106/104
f 188/190/188 104/106/104 186/188/186
f 189/191/189 190/192/190 188/190/188
f 189/191/189 188/190/188 187/189/187
f 190/192/190 116/118/116 110/112/110
f 190/192/190 110/112/110 188/190/188
f 191/193/191 192/194/192 190/192/190
f 191/193/191 190/192/190 189/191/189
f 192/194/192 122/124/122 116/118/116
f 192/194/192 116/118/116 190/192/190
f 193/195/193 194/196/194 192/194/192
f 193/195/193 192/194/192 191/193/191
f 194/196/194 128/130/128 122/124/122
f 194/196/194 122/124/122 192/194/192
f 195/197/195 196/198/196 194/196/194
f 195/197/195 194/196/194 193/195/193
f 196/198/196 15/15/15 128/130/128
f 196/198/196 128/130/128 194/196/194
f 197/199/197 198/200/198 196/198/196
f 197/199/197 196/198/196 195/197/195
f 198/200/198 16/16/16 15/15/15
f 198/200/198 15/15/15 196/198/196
f 199/201/199 200/202/200 198/200/198
f 199/201/199 198/200/198 197/199/197
f 200/202/200 22/22/22 16/16/16
f 200/202/200 16/16/16 198/200/198
f 201/203/201 202/204/202 200/202/200
f 201/203/201 200/202/200 199/201/199
f 202/204/202 28/28/28 22/22/22
f 202/204/202 22/22/22 200/202/200
f 203/205/203 204/206/204 202/204/202
f 203/205/203 202/204/202 201/203/201
f 204/206/204 34/34/34 28/28/28
f 204/206/204 28/28/28 202/204/202
f 205/207/205 206/208/206 204/206/204
f 205/207/205 204/206/204 203/205/203
f 206/208/206 38/38/38 34/34/34
f 206/208/206 34/34/34 204/206/204
f 207/209/207 208/210/208 206/208/206
f 207/209/207 206/208/206 205/207/205
f 208/210/208 42/42/42 38/38/38
f 208/210/208 38/38/38 206/208/206
f 209/211/209 210/212/210 208/210/208
f 209/211/209 208/210/208 207/209/207
f 210/212/210 46/46/46 42/42/42
f 210/212/210 42/42/42 208/210/208
f 211/213/211 212/214/212 210/212/210
f 211/213/211 210/212/210 209/211/209
f 212/214/212 50/50/50 46/46/46
f 212/214/212 46/46/46 210/212/210
f 213/215/213 214/216/214 212/214/212
f 213/215/213 212/214/212 211/213/211
f 214/216/214 54/54/54 50/50/50
f 214/216/214 50/50/50 212/214/212
f 215/217/215 216/218/216 214/216/214
f 215/217/215 214/216/214 213/215/213
f 216/218/216 58/58/58 54/54/54
f 216/218/216 54/54/54 214/216/214
f 217/219/217 218/220/218 216/221/216
f 217/219/217 216/221/216 215/222/215
f 218/220/218 62/64/62 58/63/58
f 218/220/218 58/63/58 216/221/216
f 219/223/219 220/224/220 218/220/218
f 219/223/219 218/220/218 217/219/217
f 220/224/220 66/68/66 62/64/62
f 220/224/220 62/64/62 218/220/218
f 221/225/221 222/226/222 220/224/220
f 221/225/221 220/224/220 219/223/219
f 222/226/222 70/72/70 66/68/66
f 222/226/222 66/68/66 220/224/220
f 223/227/223 224/228/224 222/226/222
f 223/227/223 222/226/222 221/225/221
f 224/228/224 74/76/74 70/72/70
f 224/228/224 70/72/70 222/226/222
f 225/229/225 226/230/226 224/228/224
f 225/229/225 224/228/224 223/227/223
f 226/230/226 78/80/78 74/76/74
f 226/230/226 74/76/74 224/228/224
f 227/231/227 228/232/228 226/230/226
f 227/231/227 226/230/226 225/229/225
f 228/232/228 82/84/82 78/80/78
f 228/232/228 78/80/78 226/230/226
f 229/233/229 230/234/230 228/232/228
f 229/233/229 228/232/228 227/231/227
f 230/234/230 86/88/86 82/84/82
f 230/234/230 82/84/82 228/232/228
f 231/235/231 232/236/232 230/234/230
f 231/235/231 230/234/230 229/233/229
f 232/236/232 90/92/90 86/88/86
f 232/236/232 86/88/86 230/234/230
f 233/237/233 234/238/234 232/236/232
f 233/237/233 232/236/232 231/235/231
f 234/238/234 94/96/94 90/92/90
f 234/238/234 90/92/90 232/236/232
f 235/239/235 236/240/236 234/238/234
f 235/239/235 234/238/234 233/237/233
f 236/240/236 98/100/98 94/96/94
f 236/240/236 94/96/94 234/238/234
f 237/241/237 238/242/238 236/240/236
f 237/241/237 236/240/236 235/239/235
f 238/242/238 102/104/102 98/100/98
f 238/242/238 98/100/98 236/240/236
f 239/243/239 240/244/240 238/242/238
f 239/243/239 238/242/238 237/241/237
f 240/244/240 108/110/108 102/104/102
f 240/244/240 102/104/102 238/242/238
f 241/245/241 242/246/242 240/244/240
f 241/245/241 240/244/240 239/243/239
f 242/246/242 114/116/114 108/110/108
f 242/246/242 108/110/108 240/244/240
f 243/247/243 244/248/244 242/246/242
f 243/247/243 242/246/242 241/245/241
f 244/248/244 120/122/120 114/116/114
f 244/248/244 114/116/114 242/246/242
f 245/249/245 246/250/246 244/248/244
f 245/249/245 244/248/244 243/247/243
f 246/250/246 126/128/126 120/122/120
f 246/250/246 120/122/120 244/248/244
f 247/251/247 248/252/248 246/250/246
f 247/251/247 246/250/246 245/249/245
f 248/252/248 11/11/11 126/128/126
f 248/252/248 126/128/126 246/250/246
f 249/253/249 250/254/250 248/252/248
f 249/253/249 248/252/248 247/251/247
f 250/254/250 12/12/12 11/11/11
f 250/254/250 11/11/11 248/252/248
f 251/255/251 252/256/252 250/254/250
f 251/255/251 250/254/250 249/253/249
f 252/256/252 20/20/20 12/12/12
f 252/256/252 12/12/12 250/254/250
f 253/257/253 254/258/254 252/256/252
f 253/257/253 252/256/252 251/255/251
f 254/258/254 26/26/26 20/20/20
f 254/258/254 20/20/20 252/256/252
f 255/259/255 256/260/256 254/258/254
f 255/259/255 254/258/254 253/257/253
f 256/260/256 32/32/32 26/26/26
f 256/260/256 26/26/26 254/258/254
f 132/134/132 131/133/131 256/260/256
f 132/134/132 256/260/256 255/259/255
f 131/133/131 3/3/3 32/32/32
f 131/133/131 32/32/32 256/260/256
