# Blender v3.5.0 OBJ File: ''
# www.blender.org
mtllib Dachsäulen.mtl
o TEMPLE.005_d605deea_0
v 17.262356 15.045855 -11.708976
v 14.762510 15.045854 -14.755048
v 14.762510 15.387649 -14.755048
v 17.262356 15.387650 -11.708976
v -7.143610 15.045864 18.029783
v -3.372758 15.045864 19.173658
v -3.372758 15.387659 19.173658
v -7.143610 15.387659 18.029783
v 0.548797 16.681282 -20.642561
v -3.372758 16.681282 -20.256321
v -3.372758 17.023077 -20.256321
v 0.548797 17.023077 -20.642561
v 11.716440 15.045854 -17.254892
v 11.716440 15.387649 -17.254892
v 0.548797 15.045864 19.559898
v 0.548797 15.387659 19.559898
v -7.143610 15.045853 -19.112446
v -10.618846 15.045854 -17.254892
v -10.618846 15.387649 -17.254892
v -7.143610 15.387648 -19.112446
v 8.241203 15.045853 -19.112446
v 8.241203 15.387648 -19.112446
v 4.470352 15.045864 19.173658
v 4.470352 15.387659 19.173658
v -13.664917 15.045854 -14.755048
v -13.664917 15.387649 -14.755048
v -7.143610 16.681282 -19.112448
v -10.618846 16.681282 -17.254894
v -10.618846 17.023077 -17.254894
v -7.143610 17.023077 -19.112448
v 8.241203 15.045864 18.029783
v 8.241203 15.387659 18.029783
v -16.164762 15.045855 -11.708976
v -16.164762 15.387650 -11.708976
v 0.548797 16.682997 -16.528477
v 3.667734 16.682997 -16.221291
v 3.667734 17.023077 -16.221291
v 0.548797 17.023077 -16.528477
v 8.241203 15.045864 18.029783
v 11.716440 15.045863 16.172232
v 11.716440 15.387658 16.172232
v 8.241203 15.387659 18.029783
v -18.022316 15.045856 -8.233740
v -18.022316 15.387650 -8.233740
v 0.548797 14.811701 -20.407274
v 0.548797 14.811700 -16.763762
v -2.616041 14.811700 -16.452049
v -3.326856 14.811701 -20.025555
v 14.762510 15.045862 13.672383
v 14.762510 15.387657 13.672383
v -19.166191 15.045857 -4.462887
v -19.166191 15.387652 -4.462887
v 17.262356 15.045861 10.626312
v 17.262356 15.387656 10.626312
v -19.552429 15.045858 -0.541332
v -19.552429 15.387653 -0.541332
v 19.119911 15.045860 7.151076
v 19.119911 15.387655 7.151076
v -19.166191 15.045859 3.380224
v -19.166191 15.387654 3.380224
v 20.263784 15.045859 3.380224
v 20.263784 15.387654 3.380224
v -18.022316 15.045860 7.151076
v -18.022316 15.387655 7.151076
v 20.650024 15.045858 -0.541332
v 20.650024 15.387653 -0.541332
v -16.164762 15.045861 10.626312
v -16.164762 15.387656 10.626312
v 20.263784 15.045857 -4.462887
v 20.263784 15.387652 -4.462887
v -13.664917 15.045862 13.672383
v -13.664917 15.387657 13.672383
v 19.119911 15.045856 -8.233740
v 19.119911 15.387650 -8.233740
v -10.618846 15.045863 16.172232
v -10.618846 15.387658 16.172232
v 17.066725 17.257231 -11.578259
v 14.596140 17.257231 -14.588675
v 12.019784 17.257229 -12.012322
v 14.037252 17.257229 -9.554031
v -7.053570 17.257240 17.812405
v -3.326856 17.257240 18.942890
v -2.616041 17.257236 15.369387
v -5.659257 17.257236 14.446239
v -3.326856 17.257229 -20.025557
v -7.053570 17.257229 -18.895069
v -5.659257 17.257229 -15.528903
v -2.616041 17.257227 -16.452051
v 11.585724 17.257229 -17.059261
v 9.561496 17.257229 -14.029790
v 0.548797 17.257240 19.324610
v 0.548797 17.257236 15.681098
v 4.424450 17.257229 -20.025557
v 0.548797 17.257229 -20.407276
v 0.548797 17.257227 -16.763763
v 3.713636 17.257227 -16.452051
v 8.151165 17.257229 -18.895069
v 6.756851 17.257229 -15.528903
v 4.424450 17.257240 18.942890
v 3.713636 17.257236 15.369387
v -10.488130 17.257229 -17.059261
v -13.498545 17.257231 -14.588675
v -10.922191 17.257229 -12.012322
v -8.463902 17.257229 -14.029790
v 8.151165 17.257240 17.812405
v 6.756851 17.257236 14.446239
v -15.969130 17.257231 -11.578259
v -12.939659 17.257229 -9.554031
v 8.151165 17.257240 17.812405
v 11.585724 17.257240 15.976598
v 9.561496 17.257236 12.947125
v 6.756851 17.257236 14.446239
v -17.804939 17.257233 -8.143700
v -14.438772 17.257231 -6.749387
v 14.596140 17.257238 13.506013
v 12.019784 17.257236 10.929657
v -18.935425 17.257233 -4.416986
v -15.361919 17.257231 -3.706171
v 17.066725 17.257238 10.495596
v 14.037252 17.257235 8.471368
v -19.317142 17.257235 -0.541332
v -15.673631 17.257233 -0.541332
v 18.902533 17.257236 7.061036
v 15.536366 17.257235 5.666722
v -18.935425 17.257236 3.334321
v -15.361919 17.257233 2.623506
v 20.033018 17.257236 3.334321
v 16.459515 17.257233 2.623506
v -17.804939 17.257236 7.061036
v -14.438772 17.257235 5.666722
v 20.414738 17.257235 -0.541332
v 16.771225 17.257233 -0.541332
v -15.969130 17.257238 10.495596
v -12.939659 17.257235 8.471368
v 20.033018 17.257233 -4.416986
v 16.459515 17.257231 -3.706171
v -13.498545 17.257238 13.506013
v -10.922191 17.257236 10.929657
v 18.902533 17.257233 -8.143700
v 15.536366 17.257231 -6.749387
v -10.488130 17.257240 15.976598
v -8.463902 17.257236 12.947125
v 3.667734 15.045852 -16.221289
v 6.666813 15.045852 -15.311528
v 6.666813 15.385930 -15.311528
v 3.667734 15.385930 -16.221289
v -14.221397 15.045855 -6.659348
v -12.744026 15.045854 -9.423314
v -12.744026 15.385932 -9.423314
v -14.221397 15.385933 -6.659348
v -18.935425 14.811707 3.334322
v -15.361919 14.811706 2.623507
v -14.438772 14.811707 5.666723
v -17.804939 14.811708 7.061037
v -15.131158 15.045856 -3.660269
v -15.131158 15.385934 -3.660269
v -12.939659 14.811707 8.471368
v -15.969130 14.811709 10.495596
v -5.569219 15.045852 -15.311528
v -2.570139 15.045852 -16.221289
v -2.570139 15.385930 -16.221289
v -5.569219 15.385930 -15.311528
v -15.438346 15.045856 -0.541332
v -15.438346 15.385935 -0.541332
v -10.922191 14.811707 10.929657
v -13.498545 14.811710 13.506013
v -15.131158 15.045857 2.577605
v -15.131158 15.385936 2.577605
v -8.463902 14.811708 12.947125
v -10.488130 14.811711 15.976598
v -14.221397 15.045858 5.576684
v -14.221397 15.385937 5.576684
v -5.659257 14.811709 14.446239
v -7.053570 14.811712 17.812407
v -12.744026 15.045859 8.340651
v -12.744026 15.385938 8.340651
v -2.616041 14.811709 15.369387
v -3.326856 14.811712 18.942892
v -10.755819 15.045859 10.763287
v -10.755819 15.385938 10.763287
v 0.548797 14.811709 15.681098
v 0.548797 14.811712 19.324612
v -8.333184 15.045860 12.751493
v -8.333184 15.385939 12.751493
v 3.713636 14.811709 15.369387
v 4.424450 14.811712 18.942892
v -5.569219 15.045861 14.228864
v -5.569219 15.385940 14.228864
v 6.756851 14.811709 14.446239
v 8.151165 14.811712 17.812407
v -2.570139 15.045861 15.138625
v -2.570139 15.385940 15.138625
v 8.151165 14.811712 17.812407
v 6.756851 14.811709 14.446239
v 9.561496 14.811708 12.947125
v 11.585724 14.811711 15.976598
v 0.548797 15.045861 15.445813
v 0.548797 15.385940 15.445813
v 12.019784 14.811707 10.929657
v 14.596140 14.811710 13.506013
v 3.667734 15.045861 15.138625
v 3.667734 15.385940 15.138625
v 14.037252 14.811707 8.471368
v 17.066725 14.811709 10.495596
v 6.666813 15.045861 14.228864
v 6.666813 15.385940 14.228864
v 15.536366 14.811707 5.666723
v 18.902533 14.811708 7.061037
v 9.430779 15.045860 12.751493
v 6.666813 15.045861 14.228864
v 6.666813 15.385940 14.228864
v 9.430779 15.385939 12.751493
v 16.459515 14.811706 2.623507
v 20.033018 14.811707 3.334322
v 11.853415 15.045859 10.763287
v 11.853415 15.385938 10.763287
v 16.771225 14.811705 -0.541332
v 20.414738 14.811707 -0.541332
v 13.841620 15.045859 8.340651
v 13.841620 15.385938 8.340651
v 16.459515 14.811704 -3.706171
v 20.033018 14.811706 -4.416985
v 15.318991 15.045858 5.576684
v 15.318991 15.385937 5.576684
v 15.536366 14.811703 -6.749386
v 18.902533 14.811704 -8.143700
v 16.228752 15.045857 2.577605
v 16.228752 15.385936 2.577605
v 14.037252 14.811702 -9.554031
v 17.066725 14.811703 -11.578259
v 4.424450 14.811701 -20.025555
v 3.713636 14.811700 -16.452049
v 16.535940 15.045856 -0.541332
v 16.535940 15.385935 -0.541332
v 12.019784 14.811701 -12.012322
v 14.596140 14.811702 -14.588675
v -5.659257 14.811700 -15.528903
v -7.053570 14.811701 -18.895067
v 16.228752 15.045856 -3.660269
v 16.228752 15.385934 -3.660269
v 9.561496 14.811701 -14.029790
v 11.585724 14.811702 -17.059259
v -8.463902 14.811701 -14.029790
v -10.488130 14.811702 -17.059259
v 15.318991 15.045855 -6.659348
v 15.318991 15.385933 -6.659348
v 6.756851 14.811700 -15.528903
v 8.151165 14.811701 -18.895067
v -10.922191 14.811701 -12.012322
v -13.498545 14.811702 -14.588675
v 13.841620 15.045854 -9.423314
v 13.841620 15.385932 -9.423314
v -12.939659 14.811702 -9.554031
v -15.969130 14.811703 -11.578259
v 11.853415 15.045853 -11.845949
v 11.853415 15.385931 -11.845949
v -3.372758 15.045853 -20.256319
v -3.372758 15.387648 -20.256319
v -14.438772 14.811703 -6.749386
v -17.804939 14.811704 -8.143700
v 9.430779 15.045853 -13.834157
v 9.430779 15.385931 -13.834157
v 0.548797 15.045852 -16.528475
v 0.548797 15.385930 -16.528475
v -15.361919 14.811704 -3.706171
v -18.935425 14.811706 -4.416985
v -10.755819 15.045853 -11.845949
v -8.333184 15.045853 -13.834157
v -8.333184 15.385931 -13.834157
v -10.755819 15.385931 -11.845949
v -15.673631 14.811705 -0.541332
v -19.317142 14.811707 -0.541332
v -8.603254 16.682999 -14.238345
v -11.099554 16.682999 -12.189685
v -11.099554 15.385931 -12.189685
v -8.603254 15.385930 -14.238345
v -3.372758 15.045853 -20.256319
v 0.548797 15.045852 -20.642559
v 0.548797 14.811701 -20.407274
v -3.326856 14.811701 -20.025555
v -7.143610 15.045853 -19.112446
v -7.053570 14.811701 -18.895067
v -10.618846 15.045854 -17.254892
v -10.488130 14.811702 -17.059259
v -13.664917 15.045854 -14.755048
v -13.498545 14.811702 -14.588675
v -16.164762 15.045855 -11.708976
v -15.969130 14.811703 -11.578259
v -18.022316 15.045856 -8.233740
v -17.804939 14.811704 -8.143700
v -19.166191 15.045857 -4.462887
v -18.935425 14.811706 -4.416985
v -19.552429 15.045858 -0.541332
v -19.317142 14.811707 -0.541332
v -19.166191 15.045859 3.380224
v -18.935425 14.811707 3.334322
v -18.022316 15.045860 7.151076
v -17.804939 14.811708 7.061037
v -16.164762 15.045861 10.626312
v -15.969130 14.811709 10.495596
v -13.664917 15.045862 13.672383
v -13.498545 14.811710 13.506013
v -10.618846 15.045863 16.172232
v -10.488130 14.811711 15.976598
v -7.143610 15.045864 18.029783
v -7.053570 14.811712 17.812407
v -3.372758 15.045864 19.173658
v -3.326856 14.811712 18.942892
v 0.548797 15.045864 19.559898
v 0.548797 14.811712 19.324612
v 4.470352 15.045864 19.173658
v 4.424450 14.811712 18.942892
v 8.241203 15.045864 18.029783
v 8.151165 14.811712 17.812407
v 11.716440 15.045863 16.172232
v 8.241203 15.045864 18.029783
v 8.151165 14.811712 17.812407
v 11.585724 14.811711 15.976598
v 14.762510 15.045862 13.672383
v 14.596140 14.811710 13.506013
v 17.262356 15.045861 10.626312
v 17.066725 14.811709 10.495596
v 19.119911 15.045860 7.151076
v 18.902533 14.811708 7.061037
v 20.263784 15.045859 3.380224
v 20.033018 14.811707 3.334322
v 20.650024 15.045858 -0.541332
v 20.414738 14.811707 -0.541332
v 20.263784 15.045857 -4.462887
v 20.033018 14.811706 -4.416985
v 19.119911 15.045856 -8.233740
v 18.902533 14.811704 -8.143700
v 17.262356 15.045855 -11.708976
v 17.066725 14.811703 -11.578259
v 14.762510 15.045854 -14.755048
v 14.596140 14.811702 -14.588675
v 11.716440 15.045854 -17.254892
v 11.585724 14.811702 -17.059259
v 8.241203 15.045853 -19.112446
v 8.151165 14.811701 -18.895067
v 4.470352 15.045853 -20.256319
v 4.424450 14.811701 -20.025555
v -2.616041 14.811700 -16.452049
v 0.548797 14.811700 -16.763762
v 0.548797 15.045852 -16.528475
v -2.570139 15.045852 -16.221289
v -5.659257 14.811700 -15.528903
v -5.569219 15.045852 -15.311528
v -8.463902 14.811701 -14.029790
v -8.333184 15.045853 -13.834157
v -10.922191 14.811701 -12.012322
v -10.755819 15.045853 -11.845949
v -12.939659 14.811702 -9.554031
v -12.744026 15.045854 -9.423314
v -14.438772 14.811703 -6.749386
v -14.221397 15.045855 -6.659348
v -15.361919 14.811704 -3.706171
v -15.131158 15.045856 -3.660269
v -15.673631 14.811705 -0.541332
v -15.438346 15.045856 -0.541332
v -15.361919 14.811706 2.623507
v -15.131158 15.045857 2.577605
v -14.438772 14.811707 5.666723
v -14.221397 15.045858 5.576684
v -12.939659 14.811707 8.471368
v -12.744026 15.045859 8.340651
v -10.922191 14.811707 10.929657
v -10.755819 15.045859 10.763287
v -8.463902 14.811708 12.947125
v -8.333184 15.045860 12.751493
v -5.659257 14.811709 14.446239
v -5.569219 15.045861 14.228864
v -2.616041 14.811709 15.369387
v -2.570139 15.045861 15.138625
v 0.548797 14.811709 15.681098
v 0.548797 15.045861 15.445813
v 3.713636 14.811709 15.369387
v 3.667734 15.045861 15.138625
v 6.756851 14.811709 14.446239
v 6.666813 15.045861 14.228864
v 9.561496 14.811708 12.947125
v 6.756851 14.811709 14.446239
v 6.666813 15.045861 14.228864
v 9.430779 15.045860 12.751493
v 12.019784 14.811707 10.929657
v 9.561496 14.811708 12.947125
v 9.430779 15.045860 12.751493
v 11.853415 15.045859 10.763287
v 14.037252 14.811707 8.471368
v 12.019784 14.811707 10.929657
v 11.853415 15.045859 10.763287
v 13.841620 15.045859 8.340651
v 15.536366 14.811707 5.666723
v 15.318991 15.045858 5.576684
v 16.459515 14.811706 2.623507
v 16.228752 15.045857 2.577605
v 16.771225 14.811705 -0.541332
v 16.535940 15.045856 -0.541332
v 16.459515 14.811704 -3.706171
v 16.228752 15.045856 -3.660269
v 15.536366 14.811703 -6.749386
v 15.318991 15.045855 -6.659348
v 14.037252 14.811702 -9.554031
v 13.841620 15.045854 -9.423314
v 12.019784 14.811701 -12.012322
v 11.853415 15.045853 -11.845949
v 9.561496 14.811701 -14.029790
v 9.430779 15.045853 -13.834157
v 6.756851 14.811700 -15.528903
v 6.666813 15.045852 -15.311528
v 3.713636 14.811700 -16.452049
v 3.667734 15.045852 -16.221289
v -3.326856 17.257229 -20.025557
v 0.548797 17.257229 -20.407276
v 0.548797 17.023077 -20.642561
v -3.372758 17.023077 -20.256321
v -7.053570 17.257229 -18.895069
v -7.143610 17.023077 -19.112448
v -10.488130 17.257229 -17.059261
v -10.618846 17.023077 -17.254894
v -13.498545 17.257231 -14.588675
v -13.664917 17.023079 -14.755048
v -15.969130 17.257231 -11.578259
v -16.164762 17.023079 -11.708976
v -17.804939 17.257233 -8.143700
v -18.022316 17.023081 -8.233740
v -18.935425 17.257233 -4.416986
v -19.166191 17.023081 -4.462888
v -19.317142 17.257235 -0.541332
v -19.552429 17.023083 -0.541332
v -18.935425 17.257236 3.334321
v -19.166191 17.023085 3.380223
v -17.804939 17.257236 7.061036
v -18.022316 17.023085 7.151075
v -15.969130 17.257238 10.495596
v -16.164762 17.023087 10.626312
v -13.498545 17.257238 13.506013
v -13.664917 17.023087 13.672383
v -10.488130 17.257240 15.976598
v -10.618846 17.023088 16.172230
v -7.053570 17.257240 17.812405
v -7.143610 17.023088 18.029781
v -3.326856 17.257240 18.942890
v -3.372758 17.023088 19.173656
v 0.548797 17.257240 19.324610
v 0.548797 17.023088 19.559896
v 4.424450 17.257240 18.942890
v 4.470352 17.023088 19.173656
v 8.151165 17.257240 17.812405
v 8.241203 17.023088 18.029781
v 11.585724 17.257240 15.976598
v 8.151165 17.257240 17.812405
v 8.241203 17.023088 18.029781
v 11.716440 17.023088 16.172230
v 14.596140 17.257238 13.506013
v 14.762510 17.023087 13.672383
v 17.066725 17.257238 10.495596
v 17.262356 17.023087 10.626312
v 18.902533 17.257236 7.061036
v 19.119911 17.023085 7.151075
v 20.033018 17.257236 3.334321
v 20.263784 17.023085 3.380223
v 20.414738 17.257235 -0.541332
v 20.650024 17.023083 -0.541332
v 20.033018 17.257233 -4.416986
v 20.263784 17.023081 -4.462888
v 18.902533 17.257233 -8.143700
v 19.119911 17.023081 -8.233740
v 17.066725 17.257231 -11.578259
v 17.262356 17.023079 -11.708976
v 14.596140 17.257231 -14.588675
v 14.762510 17.023079 -14.755048
v 11.585724 17.257229 -17.059261
v 11.716440 17.023077 -17.254894
v 8.151165 17.257229 -18.895069
v 8.241203 17.023077 -19.112448
v 4.424450 17.257229 -20.025557
v 4.470352 17.023077 -20.256321
v -2.570139 17.023077 -16.221291
v 0.548797 17.023077 -16.528477
v 0.548797 17.257227 -16.763763
v -2.616041 17.257227 -16.452051
v -5.569219 17.023079 -15.311528
v -5.659257 17.257229 -15.528903
v -8.333184 17.023079 -13.834157
v -8.463902 17.257229 -14.029790
v -10.755819 17.023079 -11.845949
v -10.922191 17.257229 -12.012322
v -12.744026 17.023081 -9.423314
v -12.939659 17.257229 -9.554031
v -14.221397 17.023081 -6.659349
v -14.438772 17.257231 -6.749387
v -15.131158 17.023081 -3.660270
v -15.361919 17.257231 -3.706171
v -15.438346 17.023083 -0.541332
v -15.673631 17.257233 -0.541332
v -15.131158 17.023083 2.577605
v -15.361919 17.257233 2.623506
v -14.221397 17.023085 5.576684
v -14.438772 17.257235 5.666722
v -12.744026 17.023085 8.340651
v -12.939659 17.257235 8.471368
v -10.755819 17.023087 10.763287
v -10.922191 17.257236 10.929657
v -8.333184 17.023087 12.751493
v -8.463902 17.257236 12.947125
v -5.569219 17.023087 14.228864
v -5.659257 17.257236 14.446239
v -2.570139 17.023087 15.138625
v -2.616041 17.257236 15.369387
v 0.548797 17.023087 15.445813
v 0.548797 17.257236 15.681098
v 3.667734 17.023087 15.138625
v 3.713636 17.257236 15.369387
v 6.666813 17.023087 14.228864
v 6.756851 17.257236 14.446239
v 9.430779 17.023087 12.751493
v 6.666813 17.023087 14.228864
v 6.756851 17.257236 14.446239
v 9.561496 17.257236 12.947125
v 11.853415 17.023087 10.763287
v 12.019784 17.257236 10.929657
v 13.841620 17.023085 8.340651
v 14.037252 17.257235 8.471368
v 15.318991 17.023085 5.576684
v 15.536366 17.257235 5.666722
v 16.228752 17.023083 2.577605
v 16.459515 17.257233 2.623506
v 16.535940 17.023083 -0.541332
v 16.771225 17.257233 -0.541332
v 16.228752 17.023081 -3.660270
v 16.459515 17.257231 -3.706171
v 15.318991 17.023081 -6.659349
v 15.536366 17.257231 -6.749387
v 13.841620 17.023081 -9.423314
v 14.037252 17.257229 -9.554031
v 11.853415 17.023079 -11.845949
v 12.019784 17.257229 -12.012322
v 9.430779 17.023079 -13.834157
v 9.561496 17.257229 -14.029790
v 6.666813 17.023079 -15.311528
v 6.756851 17.257229 -15.528903
v 3.667734 17.023077 -16.221291
v 3.713636 17.257227 -16.452051
v -10.755819 16.682999 -11.845949
v -8.333184 16.682999 -13.834157
v -8.333184 17.023079 -13.834157
v -10.755819 17.023079 -11.845949
v 6.666813 16.682999 -15.311528
v 9.430779 16.682999 -13.834157
v 9.430779 17.023079 -13.834157
v 6.666813 17.023079 -15.311528
v -5.569219 16.682999 -15.311528
v -5.569219 17.023079 -15.311528
v 11.853415 16.682999 -11.845949
v 11.853415 17.023079 -11.845949
v 13.841620 16.683001 -9.423314
v 13.841620 17.023081 -9.423314
v 15.318991 16.683001 -6.659349
v 15.318991 17.023081 -6.659349
v 16.228752 16.683001 -3.660269
v 16.228752 17.023081 -3.660270
v 16.535940 16.683002 -0.541332
v 16.535940 17.023083 -0.541332
v 16.228752 16.683002 2.577605
v 16.228752 17.023083 2.577605
v 15.318991 16.683004 5.576684
v 15.318991 17.023085 5.576684
v 13.841620 16.683004 8.340651
v 13.841620 17.023085 8.340651
v 11.853415 16.683006 10.763287
v 11.853415 17.023087 10.763287
v 9.430779 16.683006 12.751493
v 9.430779 17.023087 12.751493
v 6.666813 16.683006 14.228864
v 6.666813 17.023087 14.228864
v 6.666813 16.683006 14.228864
v 3.667734 16.683006 15.138625
v 3.667734 17.023087 15.138625
v 6.666813 17.023087 14.228864
v 0.548797 16.683006 15.445813
v 0.548797 17.023087 15.445813
v -2.570139 16.683006 15.138625
v -2.570139 17.023087 15.138625
v -5.569219 16.683006 14.228864
v -5.569219 17.023087 14.228864
v -8.333184 16.683006 12.751493
v -8.333184 17.023087 12.751493
v -10.755819 16.683006 10.763287
v -10.755819 17.023087 10.763287
v -12.744026 16.683004 8.340651
v -12.744026 17.023085 8.340651
v -14.221397 16.683004 5.576684
v -14.221397 17.023085 5.576684
v -15.131158 16.683002 2.577605
v -15.131158 17.023083 2.577605
v -15.438346 16.683002 -0.541332
v -15.438346 17.023083 -0.541332
v -15.131158 16.683001 -3.660269
v -15.131158 17.023081 -3.660270
v -14.221397 16.683001 -6.659349
v -14.221397 17.023081 -6.659349
v -2.570139 16.682997 -16.221291
v -2.570139 17.023077 -16.221291
v -12.744026 16.683001 -9.423314
v -12.744026 17.023081 -9.423314
v -5.569219 16.682999 -15.311528
v -8.333184 16.682999 -13.834157
v -8.603254 16.682999 -14.238345
v -5.755245 16.682997 -15.760638
v 16.228752 15.385936 2.577605
v 15.318991 15.385937 5.576684
v 15.768102 15.385937 5.762711
v 16.705524 15.385936 2.672441
v -8.333184 16.683006 12.751493
v -5.569219 16.683006 14.228864
v -5.755245 16.683006 14.677975
v -8.603254 16.683006 13.155682
v 15.318991 16.683004 5.576684
v 16.228752 16.683002 2.577605
v 16.705524 16.683002 2.672441
v 15.768102 16.683004 5.762711
v -5.569219 15.385930 -15.311528
v -2.570139 15.385930 -16.221289
v -2.664976 15.385930 -16.698061
v -5.755245 15.385930 -15.760638
v 6.666813 15.385930 -15.311528
v 9.430779 15.385931 -13.834157
v 9.700849 15.385930 -14.238345
v 6.852839 15.385930 -15.760638
v -2.570139 15.385940 15.138625
v -5.569219 15.385940 14.228864
v -5.755245 15.385940 14.677975
v -2.664976 15.385940 15.615397
v -2.570139 16.682997 -16.221291
v -2.664976 16.682997 -16.698063
v 16.535940 15.385935 -0.541332
v 17.022053 15.385935 -0.541332
v -2.570139 16.683006 15.138625
v -2.664976 16.683006 15.615397
v 9.430779 16.682999 -13.834157
v 6.666813 16.682999 -15.311528
v 6.852839 16.682997 -15.760638
v 9.700849 16.682999 -14.238345
v 16.535940 16.683002 -0.541332
v 17.022053 16.683002 -0.541332
v -15.131158 15.385934 -3.660269
v -14.221397 15.385933 -6.659348
v -14.670507 15.385933 -6.845375
v -15.607930 15.385934 -3.755105
v 0.548797 15.385940 15.445813
v 0.548797 15.385940 15.931927
v -14.221397 16.683001 -6.659349
v -15.131158 16.683001 -3.660269
v -15.607930 16.683001 -3.755105
v -14.670507 16.683001 -6.845376
v -10.755819 15.385931 -11.845949
v -8.333184 15.385931 -13.834157
v -8.603254 15.385930 -14.238345
v -11.099554 15.385931 -12.189685
v 16.228752 15.385934 -3.660269
v 16.705524 15.385934 -3.755105
v 0.548797 16.683006 15.445813
v 0.548797 16.683008 15.931927
v 16.228752 16.683001 -3.660269
v 16.705524 16.683001 -3.755105
v -15.438346 15.385935 -0.541332
v -15.924459 15.385935 -0.541332
v -10.755819 16.682999 -11.845949
v -11.099554 16.682999 -12.189685
v 3.667734 15.385940 15.138625
v 3.762570 15.385940 15.615397
v -15.438346 16.683002 -0.541332
v -15.924459 16.683002 -0.541332
v 15.318991 15.385933 -6.659348
v 15.768102 15.385933 -6.845375
v 3.667734 16.683006 15.138625
v 3.762570 16.683006 15.615397
v 15.318991 16.683001 -6.659349
v 15.768102 16.683001 -6.845376
v -15.131158 15.385936 2.577605
v -15.607930 15.385936 2.672441
v 6.666813 15.385940 14.228864
v 6.852839 15.385940 14.677975
v -15.131158 16.683002 2.577605
v -15.607930 16.683002 2.672441
v 13.841620 15.385932 -9.423314
v 14.245809 15.385932 -9.693384
v 6.666813 16.683006 14.228864
v 6.852839 16.683006 14.677975
v 13.841620 16.683001 -9.423314
v 14.245809 16.682999 -9.693384
v 9.700849 16.682999 -14.238345
v 6.852839 16.682997 -15.760638
v 6.852839 15.385930 -15.760638
v 9.700849 15.385930 -14.238345
v -5.755245 16.682997 -15.760638
v -5.755245 15.385930 -15.760638
v 12.197147 16.682999 -12.189685
v 12.197147 15.385931 -12.189685
v 3.762570 16.682997 -16.698063
v 0.548797 16.682997 -17.014591
v 0.548797 15.385930 -17.014589
v 3.762570 15.385930 -16.698061
v 14.245809 16.682999 -9.693384
v 14.245809 15.385932 -9.693384
v 15.768102 16.683001 -6.845376
v 15.768102 15.385933 -6.845375
v 16.705524 16.683001 -3.755105
v 16.705524 15.385934 -3.755105
v 17.022053 16.683002 -0.541332
v 17.022053 15.385935 -0.541332
v 16.705524 16.683002 2.672441
v 16.705524 15.385936 2.672441
v 15.768102 16.683004 5.762711
v 15.768102 15.385937 5.762711
v 14.245809 16.683004 8.610721
v 14.245809 15.385938 8.610721
v 12.197147 16.683006 11.107020
v 12.197147 15.385939 11.107020
v 9.700849 16.683006 13.155682
v 9.700849 15.385939 13.155682
v 6.852839 16.683006 14.677975
v 6.852839 15.385940 14.677975
v 3.762570 16.683006 15.615397
v 6.852839 16.683006 14.677975
v 6.852839 15.385940 14.677975
v 3.762570 15.385940 15.615397
v 0.548797 16.683008 15.931927
v 0.548797 15.385940 15.931927
v -2.664976 16.683006 15.615397
v -2.664976 15.385940 15.615397
v -5.755245 16.683006 14.677975
v -5.755245 15.385940 14.677975
v -8.603254 16.683006 13.155682
v -8.603254 15.385939 13.155682
v -11.099554 16.683006 11.107020
v -11.099554 15.385939 11.107020
v -13.148214 16.683004 8.610721
v -13.148214 15.385938 8.610721
v -14.670507 16.683004 5.762711
v -14.670507 15.385937 5.762711
v -15.607930 16.683002 2.672441
v -15.607930 15.385936 2.672441
v -15.924459 16.683002 -0.541332
v -15.924459 15.385935 -0.541332
v -15.607930 16.683001 -3.755105
v -15.607930 15.385934 -3.755105
v -14.670507 16.683001 -6.845376
v -14.670507 15.385933 -6.845375
v -2.664976 16.682997 -16.698063
v -2.664976 15.385930 -16.698061
v -13.148214 16.682999 -9.693384
v -13.148214 15.385932 -9.693384
v -12.744026 16.683001 -9.423314
v -13.148214 16.682999 -9.693384
v -8.333184 15.385939 12.751493
v -8.603254 15.385939 13.155682
v -12.744026 15.385932 -9.423314
v -13.148214 15.385932 -9.693384
v 13.841620 16.683004 8.340651
v 14.245809 16.683004 8.610721
v -10.755819 16.683006 10.763287
v -11.099554 16.683006 11.107020
v 13.841620 15.385938 8.340651
v 14.245809 15.385938 8.610721
v 11.853415 16.682999 -11.845949
v 12.197147 16.682999 -12.189685
v -10.755819 15.385938 10.763287
v -11.099554 15.385939 11.107020
v 11.853415 15.385931 -11.845949
v 12.197147 15.385931 -12.189685
v 3.667734 16.682997 -16.221291
v 3.762570 16.682997 -16.698063
v 11.853415 16.683006 10.763287
v 12.197147 16.683006 11.107020
v 3.667734 15.385930 -16.221289
v 3.762570 15.385930 -16.698061
v -12.744026 16.683004 8.340651
v -13.148214 16.683004 8.610721
v 11.853415 15.385938 10.763287
v 12.197147 15.385939 11.107020
v 0.548797 16.682997 -16.528477
v 0.548797 16.682997 -17.014591
v -12.744026 15.385938 8.340651
v -13.148214 15.385938 8.610721
v 0.548797 15.385930 -16.528475
v 0.548797 15.385930 -17.014589
v 9.430779 16.683006 12.751493
v 9.700849 16.683006 13.155682
v -14.221397 16.683004 5.576684
v -14.670507 16.683004 5.762711
v 9.430779 15.385939 12.751493
v 9.700849 15.385939 13.155682
v -14.221397 15.385937 5.576684
v -14.670507 15.385937 5.762711
v 6.666813 16.683006 14.228864
v 6.852839 16.683006 14.677975
v 6.666813 15.385940 14.228864
v 6.852839 15.385940 14.677975
v 4.470352 16.681282 -20.256321
v 4.470352 17.023077 -20.256321
v 4.470352 15.045853 -20.256319
v 4.470352 15.387648 -20.256319
v -7.143610 16.681293 18.029781
v -3.372758 16.681293 19.173656
v -3.372758 17.023088 19.173656
v -7.143610 17.023088 18.029781
v 17.262356 16.681284 -11.708976
v 14.762510 16.681284 -14.755048
v 14.762510 17.023079 -14.755048
v 17.262356 17.023079 -11.708976
v -10.618846 16.681293 16.172230
v -10.618846 17.023088 16.172230
v 19.119911 16.681286 -8.233740
v 19.119911 17.023081 -8.233740
v -13.664917 16.681292 13.672383
v -13.664917 17.023087 13.672383
v 20.263784 16.681286 -4.462888
v 20.263784 17.023081 -4.462888
v -16.164762 16.681292 10.626312
v -16.164762 17.023087 10.626312
v 20.650024 16.681288 -0.541332
v 20.650024 17.023083 -0.541332
v -18.022316 16.681290 7.151075
v -18.022316 17.023085 7.151075
v 20.263784 16.681290 3.380223
v 20.263784 17.023085 3.380223
v -19.166191 16.681290 3.380223
v -19.166191 17.023085 3.380223
v 19.119911 16.681290 7.151075
v 19.119911 17.023085 7.151075
v -19.552429 16.681288 -0.541332
v -19.552429 17.023083 -0.541332
v 17.262356 16.681292 10.626312
v 17.262356 17.023087 10.626312
v -19.166191 16.681286 -4.462888
v -19.166191 17.023081 -4.462888
v 14.762510 16.681292 13.672383
v 14.762510 17.023087 13.672383
v -18.022316 16.681286 -8.233740
v -18.022316 17.023081 -8.233740
v 11.716440 16.681293 16.172230
v 11.716440 17.023088 16.172230
v -16.164762 16.681284 -11.708976
v -16.164762 17.023079 -11.708976
v 8.241203 16.681293 18.029781
v 8.241203 17.023088 18.029781
v 8.241203 16.681282 -19.112448
v 8.241203 17.023077 -19.112448
v -13.664917 16.681284 -14.755048
v -13.664917 17.023079 -14.755048
v 4.470352 16.681293 19.173656
v 8.241203 16.681293 18.029781
v 8.241203 17.023088 18.029781
v 4.470352 17.023088 19.173656
v -3.320165 16.681282 -19.991922
v 0.548797 16.681282 -20.372980
v 0.548797 15.387648 -20.372978
v -3.320165 15.387648 -19.991920
v 0.548797 16.681293 19.559896
v 0.548797 17.023088 19.559896
v 11.716440 16.681282 -17.254894
v 11.716440 17.023077 -17.254894
v 0.548797 15.045852 -20.642559
v 0.548797 15.387647 -20.642559
v 20.263784 16.681290 3.380223
v 19.119911 16.681290 7.151075
v 18.870848 16.681290 7.047912
v 19.999384 16.681290 3.327631
v 8.241203 15.387659 18.029783
v 11.716440 15.387658 16.172232
v 11.566670 15.387658 15.948081
v 8.138041 15.387659 17.780722
v -19.166191 15.387654 3.380224
v -18.022316 15.387655 7.151076
v -17.773254 15.387655 7.047913
v -18.901791 15.387654 3.327631
v 11.716440 16.681282 -17.254894
v 14.762510 16.681284 -14.755048
v 14.571890 16.681284 -14.564425
v 11.566670 16.681282 -17.030746
v -7.143610 16.681293 18.029781
v -10.618846 16.681293 16.172230
v -10.469076 16.681293 15.948081
v -7.040446 16.681293 17.780720
v 11.716440 16.681293 16.172230
v 8.241203 16.681293 18.029781
v 8.138041 16.681293 17.780720
v 11.566670 16.681293 15.948081
v -3.372758 15.387659 19.173658
v 0.548797 15.387659 19.559898
v 0.548797 15.387659 19.290316
v -3.320165 15.387659 18.909258
v -18.022316 16.681290 7.151075
v -19.166191 16.681290 3.380223
v -18.901791 16.681290 3.327631
v -17.773254 16.681290 7.047912
v -16.164762 15.387650 -11.708976
v -18.022316 15.387650 -8.233740
v -17.773254 15.387650 -8.130576
v -15.940615 15.387650 -11.559206
v -3.372758 15.387648 -20.256319
v -7.143610 15.387648 -19.112446
v -7.040446 15.387648 -18.863384
v -3.320165 15.387648 -19.991920
v 20.263784 15.387654 3.380224
v 20.650024 15.387653 -0.541332
v 20.380444 15.387653 -0.541332
v 19.999384 15.387654 3.327631
v 0.548797 16.681293 19.559896
v -3.372758 16.681293 19.173656
v -3.320165 16.681293 18.909256
v 0.548797 16.681293 19.290314
v -7.143610 16.681282 -19.112448
v -3.372758 16.681282 -20.256321
v -3.320165 16.681282 -19.991922
v -7.040446 16.681282 -18.863386
v -18.022316 16.681286 -8.233740
v -16.164762 16.681284 -11.708976
v -15.940615 16.681284 -11.559206
v -17.773254 16.681286 -8.130576
v -10.618846 15.387649 -17.254892
v -10.469076 15.387649 -17.030745
v 20.650024 16.681288 -0.541332
v 20.380444 16.681288 -0.541332
v 14.762510 15.387657 13.672383
v 14.571890 15.387657 13.481763
v -10.618846 16.681282 -17.254894
v -10.469076 16.681282 -17.030746
v 0.548797 15.387647 -20.642559
v 0.548797 15.387648 -20.372978
v -16.164762 15.387656 10.626312
v -15.940615 15.387656 10.476542
v 11.716440 15.387649 -17.254892
v 8.241203 15.387648 -19.112446
v 8.138041 15.387648 -18.863384
v 11.566670 15.387649 -17.030745
v 14.762510 16.681292 13.672383
v 14.571890 16.681292 13.481763
v 0.548797 16.681282 -20.642561
v 0.548797 16.681282 -20.372980
v -16.164762 16.681292 10.626312
v -15.940615 16.681292 10.476542
v -19.166191 15.387652 -4.462887
v -18.901791 15.387652 -4.410294
v 8.241203 16.681282 -19.112448
v 8.138041 16.681282 -18.863386
v 20.263784 15.387652 -4.462887
v 19.999384 15.387652 -4.410294
v 4.470352 15.387659 19.173658
v 4.417759 15.387659 18.909258
v -19.166191 16.681286 -4.462888
v -18.901791 16.681286 -4.410295
v 20.263784 16.681286 -4.462888
v 19.999384 16.681286 -4.410295
v 17.262356 15.387656 10.626312
v 17.038208 15.387656 10.476542
v 4.470352 16.681293 19.173656
v 4.417759 16.681293 18.909256
v -7.040446 16.681282 -18.863386
v -7.040446 15.387648 -18.863384
v -7.040446 16.681293 17.780720
v -10.469076 16.681293 15.948081
v -10.469076 15.387658 15.948081
v -7.040446 15.387659 17.780722
v 17.038208 16.681284 -11.559206
v 18.870848 16.681286 -8.130576
v 18.870848 15.387650 -8.130576
v 17.038208 15.387650 -11.559206
v -13.474295 16.681292 13.481763
v -13.474295 15.387657 13.481763
v 19.999384 16.681286 -4.410295
v 19.999384 15.387652 -4.410294
v -15.940615 16.681292 10.476542
v -15.940615 15.387656 10.476542
v 20.380444 16.681288 -0.541332
v 20.380444 15.387653 -0.541332
v -17.773254 16.681290 7.047912
v -17.773254 15.387655 7.047913
v 19.999384 16.681290 3.327631
v 19.999384 15.387654 3.327631
v -18.901791 16.681290 3.327631
v -18.901791 15.387654 3.327631
v 18.870848 16.681290 7.047912
v 18.870848 15.387655 7.047913
v -19.282848 16.681288 -0.541332
v -19.282848 15.387653 -0.541332
v 17.038208 16.681292 10.476542
v 17.038208 15.387656 10.476542
v -18.901791 16.681286 -4.410295
v -18.901791 15.387652 -4.410294
v 14.571890 16.681292 13.481763
v 14.571890 15.387657 13.481763
v -17.773254 16.681286 -8.130576
v -17.773254 15.387650 -8.130576
v 11.566670 16.681293 15.948081
v 11.566670 15.387658 15.948081
v -15.940615 16.681284 -11.559206
v -15.940615 15.387650 -11.559206
v 8.138041 16.681293 17.780720
v 8.138041 15.387659 17.780722
v -13.474295 16.681284 -14.564425
v -13.474295 15.387649 -14.564425
v 8.138041 16.681293 17.780720
v 4.417759 16.681293 18.909256
v 4.417759 15.387659 18.909258
v 8.138041 15.387659 17.780722
v 4.417759 16.681282 -19.991922
v 8.138041 16.681282 -18.863386
v 8.138041 15.387648 -18.863384
v 4.417759 15.387648 -19.991920
v -10.469076 16.681282 -17.030746
v -10.469076 15.387649 -17.030745
v 0.548797 16.681293 19.290314
v 0.548797 15.387659 19.290316
v 11.566670 16.681282 -17.030746
v 11.566670 15.387649 -17.030745
v -3.320165 16.681293 18.909256
v -3.320165 15.387659 18.909258
v 14.571890 16.681284 -14.564425
v 14.571890 15.387649 -14.564425
v -10.618846 15.387658 16.172232
v -7.143610 15.387659 18.029783
v -7.040446 15.387659 17.780722
v -10.469076 15.387658 15.948081
v 14.762510 15.387649 -14.755048
v 14.571890 15.387649 -14.564425
v -13.664917 16.681284 -14.755048
v -13.474295 16.681284 -14.564425
v 4.470352 16.681282 -20.256321
v 4.417759 16.681282 -19.991922
v 19.119911 15.387655 7.151076
v 18.870848 15.387655 7.047913
v 17.262356 16.681284 -11.708976
v 19.119911 16.681286 -8.233740
v 18.870848 16.681286 -8.130576
v 17.038208 16.681284 -11.559206
v 4.470352 15.387648 -20.256319
v 4.417759 15.387648 -19.991920
v -13.664917 15.387649 -14.755048
v -13.474295 15.387649 -14.564425
v -19.552429 16.681288 -0.541332
v -19.282848 16.681288 -0.541332
v 8.241203 16.681293 18.029781
v 8.138041 16.681293 17.780720
v 19.119911 15.387650 -8.233740
v 17.262356 15.387650 -11.708976
v 17.038208 15.387650 -11.559206
v 18.870848 15.387650 -8.130576
v -19.552429 15.387653 -0.541332
v -19.282848 15.387653 -0.541332
v -13.664917 16.681292 13.672383
v -13.474295 16.681292 13.481763
v 8.241203 15.387659 18.029783
v 8.138041 15.387659 17.780722
v 17.262356 16.681292 10.626312
v 17.038208 16.681292 10.476542
v -13.664917 15.387657 13.672383
v -13.474295 15.387657 13.481763
vt 0.673180 0.871408
vt 0.673180 0.946058
vt 0.745653 0.946058
vt 0.745653 0.871408
vt 0.107310 0.934887
vt 0.187536 0.934887
vt 0.187536 0.852252
vt 0.107310 0.852252
vt 1.631605 0.934888
vt 1.711831 0.934888
vt 1.711831 0.852252
vt 1.631605 0.852252
vt 0.588666 0.934887
vt 0.668892 0.934888
vt 0.668892 0.852252
vt 0.588666 0.852252
vt 0.267762 0.934887
vt 0.267762 0.852252
vt 1.792057 0.934888
vt 1.792057 0.852252
vt 0.428214 0.934887
vt 0.508440 0.934887
vt 0.508440 0.852252
vt 0.428214 0.852252
vt 0.347988 0.934887
vt 0.347988 0.852252
vt 1.872283 0.934888
vt 1.872283 0.852252
vt 0.749118 0.934888
vt 0.829344 0.934888
vt 0.829344 0.852252
vt 0.749118 0.852252
vt 1.952509 0.934888
vt 1.952509 0.852252
vt 0.909570 0.934888
vt 0.909570 0.852252
vt -0.614724 0.934887
vt -0.534497 0.934887
vt -0.534497 0.852252
vt -0.614724 0.852252
vt 0.989796 0.934888
vt 0.989796 0.852252
vt -0.454272 0.934887
vt -0.454272 0.852252
vt 1.070022 0.934888
vt 1.070022 0.852252
vt -0.374046 0.934887
vt -0.374046 0.852252
vt 1.150249 0.934888
vt 1.150249 0.852252
vt -0.293820 0.934887
vt -0.293820 0.852252
vt 1.230474 0.934888
vt 1.230474 0.852252
vt -0.213594 0.934887
vt -0.213594 0.852252
vt 1.310701 0.934888
vt 1.310701 0.852252
vt -0.133367 0.934887
vt -0.133367 0.852252
vt 1.390927 0.934888
vt 1.390927 0.852252
vt -0.053142 0.934887
vt -0.053142 0.852252
vt 1.471153 0.934888
vt 1.471153 0.852252
vt 0.027084 0.934887
vt 0.027084 0.852252
vt 1.551379 0.934888
vt 1.551379 0.852252
vt 1.325442 0.871408
vt 1.325442 0.946058
vt 1.397916 0.946058
vt 1.397916 0.871408
vt 1.470390 0.946058
vt 1.470390 0.871408
vt 1.542864 0.946058
vt 1.542864 0.871408
vt 1.615337 0.946058
vt 1.615337 0.871408
vt 1.687811 0.946058
vt 1.687811 0.871408
vt 1.760285 0.946058
vt 1.760285 0.871408
vt 1.832758 0.946058
vt 1.832758 0.871408
vt 1.905232 0.946058
vt 1.905232 0.871408
vt 1.977706 0.946058
vt 1.977706 0.871408
vt -0.341453 0.871408
vt -0.341453 0.946058
vt -0.268979 0.946058
vt -0.268979 0.871408
vt -0.196505 0.946058
vt -0.196505 0.871408
vt -0.124032 0.946058
vt -0.124032 0.871408
vt -0.051558 0.946058
vt -0.051558 0.871408
vt 0.020916 0.946058
vt 0.020916 0.871408
vt 0.093389 0.946058
vt 0.093389 0.871408
vt 0.165863 0.946058
vt 0.165863 0.871408
vt 0.238337 0.946058
vt 0.238337 0.871408
vt 0.310811 0.946058
vt 0.310811 0.871408
vt 0.600706 0.871408
vt 0.600706 0.946058
vt 0.383284 0.946058
vt 0.383284 0.871408
vt 0.818127 0.946058
vt 0.818127 0.871408
vt 0.455758 0.946058
vt 0.455758 0.871408
vt 0.890600 0.946058
vt 0.890600 0.871408
vt 0.528232 0.946058
vt 0.528232 0.871408
vt 0.963074 0.946058
vt 0.963074 0.871408
vt 1.035548 0.946058
vt 1.035548 0.871408
vt 1.108022 0.946058
vt 1.108022 0.871408
vt 1.180495 0.946058
vt 1.180495 0.871408
vt 1.252969 0.946058
vt 1.252969 0.871408
vt 0.412681 0.879566
vt 0.476638 0.879566
vt 0.476638 0.869757
vt 0.412681 0.869757
vt 1.197246 0.965399
vt 1.261207 0.965399
vt 1.261207 0.955589
vt 1.197246 0.955589
vt 1.116207 0.879566
vt 1.180164 0.879566
vt 1.180164 0.869757
vt 1.116207 0.869757
vt -0.354802 0.879566
vt -0.290845 0.879566
vt -0.290845 0.869757
vt -0.354802 0.869757
vt 0.493684 0.965399
vt 0.557644 0.965399
vt 0.557644 0.955589
vt 0.493684 0.955589
vt 0.749524 0.965399
vt 0.813485 0.965399
vt 0.813485 0.955589
vt 0.749524 0.955589
vt -0.337800 0.965399
vt -0.273840 0.965399
vt -0.273840 0.955589
vt -0.337800 0.955589
vt 0.348724 0.879566
vt 0.348724 0.869757
vt 1.133286 0.965399
vt 1.133286 0.955589
vt 1.244121 0.879566
vt 1.244121 0.869757
vt 0.092896 0.879566
vt 0.156853 0.879566
vt 0.156853 0.869757
vt 0.092896 0.869757
vt -0.226888 0.879566
vt -0.226888 0.869757
vt 0.173882 0.965399
vt 0.237843 0.965399
vt 0.237843 0.955589
vt 0.173882 0.955589
vt -0.401760 0.965399
vt -0.401760 0.955589
vt 0.668509 0.879566
vt 0.732465 0.879566
vt 0.732465 0.869757
vt 0.668509 0.869757
vt 0.365763 0.965399
vt 0.429723 0.965399
vt 0.429723 0.955589
vt 0.365763 0.955589
vt 1.069326 0.965399
vt 1.069326 0.955589
vt 1.308078 0.879566
vt 1.308078 0.869757
vt -0.162932 0.879566
vt -0.162932 0.869757
vt 0.109922 0.965399
vt 0.109922 0.955589
vt 0.540595 0.879566
vt 0.540595 0.869757
vt -0.465720 0.965399
vt -0.465720 0.955589
vt 0.796422 0.879566
vt 0.796422 0.869757
vt 1.005366 0.965399
vt 1.005366 0.955589
vt 1.372035 0.879566
vt 1.372035 0.869757
vt -0.098975 0.879566
vt -0.098975 0.869757
vt 0.045962 0.965399
vt 0.045962 0.955589
vt -0.529681 0.965399
vt -0.529681 0.955589
vt 0.860379 0.879566
vt 0.860379 0.869757
vt 0.941406 0.965399
vt 0.941406 0.955589
vt 1.435992 0.879566
vt 1.435992 0.869757
vt -0.035018 0.879566
vt -0.035018 0.869757
vt 0.604552 0.879566
vt 0.604552 0.869757
vt -0.209879 0.965399
vt -0.209879 0.955589
vt 0.301803 0.965399
vt 0.301803 0.955589
vt -0.418759 0.879566
vt -0.418759 0.869757
vt 1.052250 0.879566
vt 1.052250 0.869757
vt 1.325167 0.965399
vt 1.325167 0.955589
vt 0.028939 0.879566
vt 0.028939 0.869757
vt -0.145919 0.965399
vt -0.145919 0.955589
vt 0.877445 0.965399
vt 0.877445 0.955589
vt 0.220810 0.879566
vt 0.220810 0.869757
vt -0.482716 0.879566
vt -0.482716 0.869757
vt 0.685564 0.965399
vt 0.685564 0.955589
vt 0.988293 0.879566
vt 0.988293 0.869757
vt 1.389127 0.965399
vt 1.389127 0.955589
vt 0.284767 0.879566
vt 0.284767 0.869757
vt -0.081959 0.965399
vt -0.081959 0.955589
vt 0.621604 0.965399
vt 0.621604 0.955589
vt -0.546673 0.879566
vt -0.546673 0.869757
vt 0.924336 0.879566
vt 0.924336 0.869757
vt 1.453087 0.965399
vt 1.453087 0.955589
vt -0.017999 0.965399
vt -0.017999 0.955589
vt -0.610630 0.879566
vt -0.610630 0.869757
vt 1.517048 0.965399
vt 1.517048 0.955589
vt 0.736116 1.089838
vt 0.736116 1.163869
vt 0.741213 1.163869
vt 0.741213 1.089838
vt -0.011632 0.931249
vt 0.019832 0.931249
vt 0.019832 0.929083
vt -0.011632 0.929083
vt 0.712032 0.931249
vt 0.743496 0.931249
vt 0.743496 0.929083
vt 0.712032 0.929083
vt 0.736116 0.645652
vt 0.736116 0.719683
vt 0.741213 0.719683
vt 0.741213 0.645652
vt 0.736116 -0.612877
vt 0.736116 -0.538846
vt 0.741212 -0.538846
vt 0.741212 -0.612877
vt 0.736116 1.385962
vt 0.736116 1.459994
vt 0.741213 1.459994
vt 0.741213 1.385962
vt 0.900814 0.931249
vt 0.932277 0.931249
vt 0.932277 0.929083
vt 0.900814 0.929083
vt 0.736116 -0.316752
vt 0.736116 -0.242721
vt 0.741212 -0.242721
vt 0.741212 -0.316752
vt 0.586177 0.931249
vt 0.617641 0.931249
vt 0.617641 0.929083
vt 0.586177 0.929083
vt 0.460323 0.931249
vt 0.491786 0.931249
vt 0.491786 0.929083
vt 0.460323 0.929083
vt 0.145686 0.931249
vt 0.177150 0.931249
vt 0.177150 0.929083
vt 0.145686 0.929083
vt 0.736116 -0.760939
vt 0.736116 -0.686908
vt 0.741212 -0.686908
vt 0.741213 -0.760939
vt 0.736116 0.275497
vt 0.736116 0.349528
vt 0.741213 0.349528
vt 0.741213 0.275497
vt 0.736116 -0.020628
vt 0.736116 0.053403
vt 0.741213 0.053403
vt 0.741213 -0.020628
vt 0.523250 0.931249
vt 0.523250 0.929083
vt 0.736116 1.015808
vt 0.741213 1.015808
vt 0.051296 0.931249
vt 0.051296 0.929083
vt 0.736116 0.201466
vt 0.741213 0.201466
vt 0.428859 0.931249
vt 0.428859 0.929083
vt 0.774959 0.931249
vt 0.774959 0.929083
vt 0.334468 0.931249
vt 0.365932 0.931249
vt 0.365932 0.929083
vt 0.334468 0.929083
vt 0.736116 1.311931
vt 0.741213 1.311931
vt 0.736116 0.423559
vt 0.741213 0.423559
vt 0.736116 -0.390783
vt 0.741212 -0.390783
vt 0.649105 0.931249
vt 0.649105 0.929083
vt 0.736116 0.571621
vt 0.741213 0.571621
vt 0.208614 0.931249
vt 0.208614 0.929083
vt 0.963741 0.931249
vt 0.963741 0.929083
vt 0.736116 -0.094659
vt 0.741213 -0.094659
vt 0.736116 0.941776
vt 0.741213 0.941776
vt 0.082759 0.931249
vt 0.082759 0.929083
vt 0.736116 -0.834970
vt 0.741212 -0.834970
vt 0.837886 0.931249
vt 0.869350 0.931249
vt 0.869350 0.929083
vt 0.837886 0.929083
vt 0.303005 0.931249
vt 0.303005 0.929083
vt 0.736116 0.127434
vt 0.741213 0.127434
vt 0.736116 0.497590
vt 0.741213 0.497590
vt 0.114223 0.931249
vt 0.114223 0.929083
vt 0.736116 0.793714
vt 0.736116 0.867745
vt 0.741213 0.867745
vt 0.741213 0.793714
vt 0.397395 0.931249
vt 0.397395 0.929083
vt 0.554714 0.931249
vt 0.554714 0.929083
vt 0.736116 -0.168690
vt 0.741212 -0.168690
vt 0.736116 -0.909001
vt 0.741212 -0.909001
vt 0.240077 0.931249
vt 0.271541 0.931249
vt 0.271541 0.929083
vt 0.240077 0.929083
vt 0.680568 0.931249
vt 0.680568 0.929083
vt 0.736116 -0.464814
vt 0.741212 -0.464814
vt 0.995205 0.931249
vt 0.995205 0.929083
vt 0.736116 1.237901
vt 0.741213 1.237901
vt 0.806423 0.931249
vt 0.806423 0.929083
vt 0.271541 0.933995
vt 0.303005 0.933995
vt 0.303005 0.931249
vt 0.271541 0.931249
vt 0.869350 0.933995
vt 0.900814 0.933995
vt 0.900814 0.931249
vt 0.869350 0.931249
vt 0.736116 0.423559
vt 0.736116 0.349528
vt 0.729654 0.349528
vt 0.729654 0.423559
vt 0.334468 0.933995
vt 0.334468 0.931249
vt 0.932277 0.933995
vt 0.932277 0.931249
vt 0.491786 0.933995
vt 0.523250 0.933995
vt 0.523250 0.931249
vt 0.491786 0.931249
vt 0.365932 0.933995
vt 0.365932 0.931249
vt 0.963741 0.933995
vt 0.963741 0.931249
vt 0.554714 0.933995
vt 0.554714 0.931249
vt 0.736116 0.275497
vt 0.736116 0.201466
vt 0.729654 0.201466
vt 0.729654 0.275497
vt 0.995205 0.933995
vt 0.995205 0.931249
vt 0.586177 0.933995
vt 0.586177 0.931249
vt 0.284767 0.879566
vt 0.220810 0.879566
vt 0.220810 0.886429
vt 0.284767 0.886429
vt -0.011632 0.933995
vt 0.019832 0.933995
vt 0.019832 0.931249
vt -0.011632 0.931249
vt 0.617641 0.933995
vt 0.617641 0.931249
vt 0.051296 0.933995
vt 0.051296 0.931249
vt 0.649105 0.933995
vt 0.649105 0.931249
vt 0.082759 0.933995
vt 0.082759 0.931249
vt 0.680568 0.933995
vt 0.680568 0.931249
vt 0.114223 0.933995
vt 0.114223 0.931249
vt 0.712032 0.933995
vt 0.712032 0.931249
vt 0.145686 0.933995
vt 0.145686 0.931249
vt 0.743496 0.933995
vt 0.743496 0.931249
vt 0.177150 0.933995
vt 0.177150 0.931249
vt 0.774959 0.933995
vt 0.774959 0.931249
vt 0.208614 0.933995
vt 0.208614 0.931249
vt 0.806423 0.933995
vt 0.806423 0.931249
vt 0.240077 0.933995
vt 0.240077 0.931249
vt 0.837886 0.933995
vt 0.837886 0.931249
vt 0.685564 0.972262
vt 0.749524 0.972262
vt 0.749524 0.965399
vt 0.685564 0.965399
vt 0.237843 0.972262
vt 0.301803 0.972262
vt 0.301803 0.965399
vt 0.237843 0.965399
vt 0.173882 0.972262
vt 0.173882 0.965399
vt 0.493684 0.972262
vt 0.557644 0.972262
vt 0.557644 0.965399
vt 0.493684 0.965399
vt 0.109922 0.972262
vt 0.109922 0.965399
vt 0.045962 0.972262
vt 0.045962 0.965399
vt -0.017999 0.972262
vt -0.017999 0.965399
vt -0.081959 0.972262
vt -0.081959 0.965399
vt -0.145919 0.972262
vt -0.145919 0.965399
vt -0.209879 0.972262
vt -0.209879 0.965399
vt -0.273840 0.972262
vt -0.273840 0.965399
vt -0.337800 0.972262
vt -0.337800 0.965399
vt -0.401760 0.972262
vt -0.401760 0.965399
vt -0.465720 0.972262
vt -0.465720 0.965399
vt -0.529681 0.972262
vt -0.529681 0.965399
vt 1.453087 0.972262
vt 1.517048 0.972262
vt 1.517048 0.965399
vt 1.453087 0.965399
vt 1.389127 0.972262
vt 1.389127 0.965399
vt 1.325167 0.972262
vt 1.325167 0.965399
vt 1.261207 0.972262
vt 1.261207 0.965399
vt 1.197246 0.972262
vt 1.197246 0.965399
vt 1.133286 0.972262
vt 1.133286 0.965399
vt 1.069326 0.972262
vt 1.069326 0.965399
vt 1.005366 0.972262
vt 1.005366 0.965399
vt 0.941406 0.972262
vt 0.941406 0.965399
vt 0.877445 0.972262
vt 0.877445 0.965399
vt 0.460323 0.933995
vt 0.460323 0.931249
vt 0.813485 0.972262
vt 0.813485 0.965399
vt 0.621604 0.972262
vt 0.621604 0.965399
vt 0.365763 0.972262
vt 0.429723 0.972262
vt 0.429723 0.965399
vt 0.365763 0.965399
vt 0.482640 0.022058
vt 0.417294 0.022058
vt 0.417294 0.048304
vt 0.482640 0.048304
vt 0.460323 0.933995
vt 0.428859 0.933995
vt 0.428859 0.936662
vt 0.460323 0.936662
vt 0.491786 0.933995
vt 0.491786 0.936662
vt 0.523250 0.933995
vt 0.523250 0.936662
vt 0.554714 0.933995
vt 0.554714 0.936662
vt 0.586177 0.933995
vt 0.586177 0.936662
vt 0.617641 0.933995
vt 0.617641 0.936662
vt 0.649105 0.933995
vt 0.649105 0.936662
vt 0.680568 0.933995
vt 0.680568 0.936662
vt 0.712032 0.933995
vt 0.712032 0.936662
vt 0.743496 0.933995
vt 0.743496 0.936662
vt 0.774959 0.933995
vt 0.774959 0.936662
vt 0.806423 0.933995
vt 0.806423 0.936662
vt 0.837886 0.933995
vt 0.837886 0.936662
vt 0.869350 0.933995
vt 0.869350 0.936662
vt 0.900814 0.933995
vt 0.900814 0.936662
vt 0.932277 0.933995
vt 0.932277 0.936662
vt 0.963741 0.933995
vt 0.963741 0.936662
vt 0.995205 0.933995
vt 0.995205 0.936662
vt 0.019832 0.933995
vt -0.011632 0.933995
vt -0.011632 0.936662
vt 0.019832 0.936662
vt 0.051296 0.933995
vt 0.051296 0.936662
vt 0.082759 0.933995
vt 0.082759 0.936662
vt 0.114223 0.933995
vt 0.114223 0.936662
vt 0.145686 0.933995
vt 0.145686 0.936662
vt 0.177150 0.933995
vt 0.177150 0.936662
vt 0.208614 0.933995
vt 0.208614 0.936662
vt 0.240077 0.933995
vt 0.240077 0.936662
vt 0.271541 0.933995
vt 0.271541 0.936662
vt 0.303005 0.933995
vt 0.303005 0.936662
vt 0.334468 0.933995
vt 0.334468 0.936662
vt 0.365932 0.933995
vt 0.365932 0.936662
vt 0.397395 0.933995
vt 0.397395 0.936662
vt 0.557644 0.978961
vt 0.621604 0.978961
vt 0.621604 0.972262
vt 0.557644 0.972262
vt 0.493684 0.978961
vt 0.493684 0.972262
vt 0.429723 0.978961
vt 0.429723 0.972262
vt 0.365763 0.978961
vt 0.365763 0.972262
vt 0.301803 0.978961
vt 0.301803 0.972262
vt 0.237843 0.978961
vt 0.237843 0.972262
vt 0.173882 0.978961
vt 0.173882 0.972262
vt 0.109922 0.978961
vt 0.109922 0.972262
vt 0.045962 0.978961
vt 0.045962 0.972262
vt -0.017999 0.978961
vt -0.017999 0.972262
vt -0.081959 0.978961
vt -0.081959 0.972262
vt -0.145919 0.978961
vt -0.145919 0.972262
vt -0.209879 0.978961
vt -0.209879 0.972262
vt -0.273840 0.978961
vt -0.273840 0.972262
vt -0.337800 0.978961
vt -0.337800 0.972262
vt -0.401760 0.978961
vt -0.401760 0.972262
vt -0.465720 0.978961
vt -0.465720 0.972262
vt -0.529681 0.978961
vt -0.529681 0.972262
vt 1.453087 0.978961
vt 1.517048 0.978961
vt 1.517048 0.972262
vt 1.453087 0.972262
vt 1.361856 -0.056029
vt 1.425816 -0.056029
vt 1.425816 -0.062728
vt 1.361856 -0.062728
vt 1.325167 0.978961
vt 1.389127 0.978961
vt 1.389127 0.972262
vt 1.325167 0.972262
vt 1.261207 0.978961
vt 1.261207 0.972262
vt 1.197246 0.978961
vt 1.197246 0.972262
vt 1.133286 0.978961
vt 1.133286 0.972262
vt 1.069326 0.978961
vt 1.069326 0.972262
vt 1.005366 0.978961
vt 1.005366 0.972262
vt 0.941406 0.978961
vt 0.941406 0.972262
vt 0.877445 0.978961
vt 0.877445 0.972262
vt 0.813485 0.978961
vt 0.813485 0.972262
vt 0.749524 0.978961
vt 0.749524 0.972262
vt 0.685564 0.978961
vt 0.685564 0.972262
vt 0.723378 0.349528
vt 0.723378 0.423559
vt 0.729654 0.423559
vt 0.729654 0.349528
vt 0.723378 0.275497
vt 0.729654 0.275497
vt 0.723378 0.201466
vt 0.729654 0.201466
vt 0.723378 0.127434
vt 0.729654 0.127434
vt 0.723378 0.053403
vt 0.729654 0.053403
vt 0.723378 -0.020628
vt 0.729654 -0.020628
vt 0.723378 -0.094659
vt 0.729654 -0.094659
vt 0.723378 -0.168690
vt 0.729654 -0.168690
vt 0.723378 -0.242721
vt 0.729654 -0.242721
vt 0.723378 -0.316752
vt 0.729654 -0.316752
vt 0.723378 -0.390783
vt 0.729654 -0.390783
vt 0.723378 -0.464814
vt 0.729654 -0.464814
vt 0.723378 -0.538846
vt 0.729654 -0.538846
vt 0.723378 -0.612877
vt 0.729654 -0.612877
vt 0.723378 -0.686908
vt 0.729654 -0.686908
vt 0.723378 -0.760939
vt 0.729654 -0.760939
vt 0.723378 -0.834970
vt 0.729654 -0.834970
vt 0.723378 -0.909001
vt 0.729654 -0.909001
vt 0.723378 1.385962
vt 0.723379 1.459994
vt 0.729654 1.459994
vt 0.729654 1.385962
vt 0.723379 1.311931
vt 0.729654 1.311931
vt 0.723379 1.237901
vt 0.729654 1.237901
vt 0.723379 1.163869
vt 0.729654 1.163869
vt 0.723379 1.089838
vt 0.729654 1.089838
vt 0.723379 1.015808
vt 0.729654 1.015808
vt 0.723379 0.941776
vt 0.729654 0.941776
vt 0.723379 0.867745
vt 0.729654 0.867745
vt 0.723379 0.793714
vt 0.729654 0.793714
vt 0.723379 0.719683
vt 0.729654 0.719683
vt 0.723378 0.645652
vt 0.729654 0.645652
vt 0.723378 0.571621
vt 0.729654 0.571621
vt 0.723378 0.497590
vt 0.729654 0.497590
vt 0.348724 0.886429
vt 0.284767 0.886429
vt 0.284767 0.893128
vt 0.348724 0.893128
vt 0.412681 0.886429
vt 0.412681 0.893128
vt 0.476638 0.886429
vt 0.476638 0.893128
vt 0.540595 0.886429
vt 0.540595 0.893128
vt 0.604552 0.886429
vt 0.604552 0.893128
vt 0.668509 0.886429
vt 0.668509 0.893128
vt 0.732465 0.886429
vt 0.732465 0.893128
vt 0.796422 0.886429
vt 0.796422 0.893128
vt 0.860379 0.886429
vt 0.860379 0.893128
vt 0.924336 0.886429
vt 0.924336 0.893128
vt 0.988293 0.886429
vt 0.988293 0.893128
vt 1.052250 0.886429
vt 1.052250 0.893128
vt 1.116207 0.886429
vt 1.116207 0.893128
vt 1.180164 0.886429
vt 1.180164 0.893128
vt 1.244121 0.886429
vt 1.244121 0.893128
vt 1.308078 0.886429
vt 1.308078 0.893128
vt 1.372035 0.886429
vt 1.372035 0.893128
vt 1.435992 0.886429
vt 1.435992 0.893128
vt -0.546673 0.886429
vt -0.610630 0.886429
vt -0.610630 0.893128
vt -0.546673 0.893128
vt -0.482716 0.886429
vt -0.482716 0.893128
vt -0.418759 0.886429
vt -0.418759 0.893128
vt -0.354802 0.886429
vt -0.354802 0.893128
vt -0.290845 0.886429
vt -0.290845 0.893128
vt -0.226888 0.886429
vt -0.226888 0.893128
vt -0.162932 0.886429
vt -0.162932 0.893128
vt -0.098975 0.886429
vt -0.098975 0.893128
vt -0.035018 0.886429
vt -0.035018 0.893128
vt 0.028939 0.886429
vt 0.028939 0.893128
vt 0.092896 0.886429
vt 0.092896 0.893128
vt 0.156853 0.886429
vt 0.156853 0.893128
vt 0.220810 0.886429
vt 0.220810 0.893128
vt 0.540595 0.879566
vt 0.476638 0.879566
vt 0.476638 0.886429
vt 0.540595 0.886429
vt 0.156853 0.879566
vt 0.092896 0.879566
vt 0.092896 0.886429
vt 0.156853 0.886429
vt 0.412681 0.879566
vt 0.412681 0.886429
vt 0.028939 0.879566
vt 0.028939 0.886429
vt -0.035018 0.879566
vt -0.035018 0.886429
vt -0.098975 0.879566
vt -0.098975 0.886429
vt -0.162932 0.879566
vt -0.162932 0.886429
vt -0.226888 0.879566
vt -0.226888 0.886429
vt -0.290845 0.879566
vt -0.290845 0.886429
vt -0.354802 0.879566
vt -0.354802 0.886429
vt -0.418759 0.879566
vt -0.418759 0.886429
vt -0.482716 0.879566
vt -0.482716 0.886429
vt -0.546673 0.879566
vt -0.546673 0.886429
vt -0.610630 0.879566
vt -0.610630 0.886429
vt 1.435992 0.879566
vt 1.372035 0.879566
vt 1.372035 0.886429
vt 1.435992 0.886429
vt 1.308078 0.879566
vt 1.308078 0.886429
vt 1.244121 0.879566
vt 1.244121 0.886429
vt 1.180164 0.879566
vt 1.180164 0.886429
vt 1.116207 0.879566
vt 1.116207 0.886429
vt 1.052250 0.879566
vt 1.052250 0.886429
vt 0.988293 0.879566
vt 0.988293 0.886429
vt 0.924336 0.879566
vt 0.924336 0.886429
vt 0.860379 0.879566
vt 0.860379 0.886429
vt 0.796422 0.879566
vt 0.796422 0.886429
vt 0.732465 0.879566
vt 0.732465 0.886429
vt 0.668509 0.879566
vt 0.668509 0.886429
vt 0.348724 0.879566
vt 0.348724 0.886429
vt 0.604552 0.879566
vt 0.604552 0.886429
vt 0.874716 0.022058
vt 0.809370 0.022058
vt 0.809370 0.048304
vt 0.874716 0.048304
vt 0.547986 0.022058
vt 0.547986 0.048304
vt 0.940062 0.022058
vt 0.940062 0.048304
vt 0.744024 0.022058
vt 0.678678 0.022058
vt 0.678678 0.048304
vt 0.744024 0.048304
vt 1.005408 0.022058
vt 1.005408 0.048304
vt 1.070754 0.022058
vt 1.070754 0.048304
vt 1.136100 0.022058
vt 1.136100 0.048304
vt 1.201446 0.022058
vt 1.201446 0.048304
vt 1.266792 0.022058
vt 1.266792 0.048304
vt 1.332138 0.022058
vt 1.332138 0.048304
vt 1.397484 0.022058
vt 1.397484 0.048304
vt 1.462830 0.022058
vt 1.462830 0.048304
vt 1.528176 0.022058
vt 1.528176 0.048304
vt 1.593522 0.022058
vt 1.593522 0.048304
vt -0.432204 0.022058
vt -0.497550 0.022058
vt -0.497550 0.048304
vt -0.432204 0.048304
vt -0.366859 0.022058
vt -0.366859 0.048304
vt -0.301512 0.022058
vt -0.301512 0.048304
vt -0.236166 0.022058
vt -0.236166 0.048304
vt -0.170820 0.022058
vt -0.170820 0.048304
vt -0.105474 0.022058
vt -0.105474 0.048304
vt -0.040128 0.022058
vt -0.040128 0.048304
vt 0.025218 0.022058
vt 0.025218 0.048304
vt 0.090564 0.022058
vt 0.090564 0.048304
vt 0.155910 0.022058
vt 0.155910 0.048304
vt 0.221256 0.022058
vt 0.221256 0.048304
vt 0.286602 0.022058
vt 0.286602 0.048304
vt 0.613332 0.022058
vt 0.613332 0.048304
vt 0.351948 0.022058
vt 0.351948 0.048304
vt 0.736116 0.497590
vt 0.729654 0.497590
vt 0.397395 0.933995
vt 0.397395 0.931249
vt 0.736116 -0.612877
vt 0.736116 -0.686908
vt 0.729654 -0.686908
vt 0.729654 -0.612877
vt 0.736116 0.793714
vt 0.736116 0.719683
vt 0.729654 0.719683
vt 0.729654 0.793714
vt 0.736116 -0.538846
vt 0.729654 -0.538846
vt 0.736116 0.867745
vt 0.729654 0.867745
vt 0.736116 -0.464814
vt 0.729654 -0.464814
vt 0.736116 0.941776
vt 0.729654 0.941776
vt 0.736116 -0.390783
vt 0.729654 -0.390783
vt 0.736116 1.015808
vt 0.729654 1.015808
vt 0.736116 -0.316752
vt 0.729654 -0.316752
vt 0.736116 1.089838
vt 0.729654 1.089838
vt 0.736116 -0.242721
vt 0.729654 -0.242721
vt 0.736116 1.163869
vt 0.729654 1.163869
vt 0.736116 -0.168690
vt 0.729654 -0.168690
vt 0.736116 1.237901
vt 0.729654 1.237901
vt 0.736116 -0.094659
vt 0.729654 -0.094659
vt 0.736116 1.311931
vt 0.729654 1.311931
vt 0.736116 -0.020628
vt 0.729654 -0.020628
vt 0.736116 1.385962
vt 0.729654 1.385962
vt 0.736116 0.053403
vt 0.729654 0.053403
vt 0.736116 1.459994
vt 0.729654 1.459994
vt 0.736116 0.571621
vt 0.729654 0.571621
vt 0.736116 0.127434
vt 0.729654 0.127434
vt 0.736116 -0.834970
vt 0.736116 -0.909001
vt 0.729654 -0.909001
vt 0.729654 -0.834970
vt 0.461727 0.932037
vt 0.349775 0.932037
vt 0.349775 0.969783
vt 0.461727 0.969783
vt 0.736116 -0.760939
vt 0.729654 -0.760939
vt 0.736116 0.645652
vt 0.729654 0.645652
vt 0.428859 0.933995
vt 0.428859 0.931249
vt 0.573678 0.932037
vt 0.573678 0.969783
vt 1.917091 0.932037
vt 1.805140 0.932037
vt 1.805140 0.969783
vt 1.917092 0.969783
vt -0.209980 0.932037
vt -0.321931 0.932037
vt -0.321931 0.969783
vt -0.209980 0.969783
vt 1.693189 0.932037
vt 1.693189 0.969783
vt -0.433883 0.932037
vt -0.433883 0.969783
vt 1.581238 0.932037
vt 1.581238 0.969783
vt -0.545834 0.932037
vt -0.545834 0.969783
vt 1.469287 0.932037
vt 1.469287 0.969783
vt -0.657785 0.932037
vt -0.657785 0.969783
vt 1.357336 0.932037
vt 1.357336 0.969783
vt -0.769736 0.932037
vt -0.769736 0.969783
vt 1.245384 0.932037
vt 1.245384 0.969783
vt -0.881687 0.932037
vt -0.881687 0.969783
vt 1.133434 0.932037
vt 1.133434 0.969783
vt -0.993639 0.932037
vt -0.993639 0.969783
vt 1.021482 0.932037
vt 1.021482 0.969783
vt -1.105590 0.932038
vt -1.105590 0.969783
vt 0.909531 0.932037
vt 0.909531 0.969783
vt -1.217541 0.932038
vt -1.217541 0.969783
vt 0.797580 0.932037
vt 0.797580 0.969783
vt 2.364897 0.932037
vt 2.252944 0.932037
vt 2.252944 0.969783
vt 2.364897 0.969783
vt 0.237824 0.932037
vt 0.125873 0.932037
vt 0.125873 0.969783
vt 0.237824 0.969783
vt 0.685629 0.932037
vt 0.685629 0.969783
vt 2.140994 0.932037
vt 2.140994 0.969783
vt 0.013922 0.932037
vt 0.013922 0.969783
vt 2.029043 0.932037
vt 2.029043 0.969783
vt -0.098029 0.932037
vt -0.098029 0.969783
vn -0.0000 -1.0000 0.0000
vn -0.0000 1.0000 0.0000
vn 0.8315 0.0000 -0.5556
vn 0.7071 0.0000 -0.7071
vn -0.3827 0.0000 0.9239
vn -0.1951 0.0000 0.9808
vn -0.0000 0.0000 -1.0000
vn -0.1951 0.0000 -0.9808
vn 0.5556 0.0000 -0.8315
vn 0.0000 0.0000 1.0000
vn -0.3827 0.0000 -0.9239
vn -0.5556 0.0000 -0.8315
vn 0.3827 0.0000 -0.9239
vn 0.1951 0.0000 0.9808
vn -0.7071 0.0000 -0.7071
vn 0.3827 0.0000 0.9239
vn -0.8315 0.0000 -0.5556
vn 0.5556 0.0000 0.8315
vn -0.9239 0.0000 -0.3827
vn 0.7071 0.0000 0.7071
vn -0.9808 -0.0000 -0.1951
vn 0.8315 0.0000 0.5556
vn -1.0000 -0.0000 0.0000
vn 0.9239 0.0000 0.3827
vn -0.9808 0.0000 0.1951
vn 0.9808 -0.0000 0.1951
vn -0.9239 0.0000 0.3827
vn 1.0000 0.0000 0.0000
vn -0.8315 0.0000 0.5556
vn 0.9808 0.0000 -0.1951
vn -0.7071 0.0000 0.7071
vn 0.9239 0.0000 -0.3827
vn -0.5556 0.0000 0.8315
vn 0.1951 0.0000 -0.9808
vn -0.1376 -0.7088 -0.6918
vn -0.0000 -0.7088 -0.7054
vn -0.2699 -0.7088 -0.6517
vn -0.3919 -0.7088 -0.5865
vn -0.4988 -0.7088 -0.4988
vn -0.5865 -0.7088 -0.3919
vn -0.6517 -0.7088 -0.2699
vn -0.6918 -0.7088 -0.1376
vn -0.7054 -0.7088 0.0000
vn -0.6918 -0.7088 0.1376
vn -0.6517 -0.7088 0.2699
vn -0.5865 -0.7088 0.3919
vn -0.4988 -0.7088 0.4988
vn -0.3919 -0.7088 0.5865
vn -0.2699 -0.7088 0.6517
vn -0.1376 -0.7088 0.6918
vn 0.0000 -0.7088 0.7054
vn 0.1376 -0.7088 0.6918
vn 0.2699 -0.7088 0.6517
vn 0.3919 -0.7088 0.5865
vn 0.4988 -0.7088 0.4988
vn 0.5865 -0.7088 0.3919
vn 0.6517 -0.7088 0.2699
vn 0.6918 -0.7088 0.1376
vn 0.7054 -0.7088 0.0000
vn 0.6918 -0.7088 -0.1376
vn 0.6517 -0.7088 -0.2699
vn 0.5865 -0.7088 -0.3919
vn 0.4988 -0.7088 -0.4988
vn 0.3919 -0.7088 -0.5865
vn 0.2699 -0.7088 -0.6517
vn 0.1376 -0.7088 -0.6918
vn -0.1376 0.7088 -0.6918
vn 0.0000 0.7088 -0.7054
vn -0.2699 0.7088 -0.6517
vn -0.3919 0.7088 -0.5865
vn -0.4988 0.7088 -0.4988
vn -0.5865 0.7088 -0.3919
vn -0.6517 0.7088 -0.2699
vn -0.6918 0.7088 -0.1376
vn -0.7054 0.7088 0.0000
vn -0.6918 0.7088 0.1376
vn -0.6517 0.7088 0.2699
vn -0.5865 0.7088 0.3919
vn -0.4988 0.7088 0.4988
vn -0.3919 0.7088 0.5865
vn -0.2699 0.7088 0.6517
vn -0.1376 0.7088 0.6918
vn -0.0000 0.7088 0.7054
vn 0.1376 0.7088 0.6918
vn 0.2699 0.7088 0.6517
vn 0.3919 0.7088 0.5865
vn 0.4988 0.7088 0.4988
vn 0.5865 0.7088 0.3919
vn 0.6517 0.7088 0.2699
vn 0.6918 0.7088 0.1376
vn 0.7054 0.7088 0.0000
vn 0.6918 0.7088 -0.1376
vn 0.6517 0.7088 -0.2699
vn 0.5865 0.7088 -0.3919
vn 0.4988 0.7088 -0.4988
vn 0.3919 0.7088 -0.5865
vn 0.2699 0.7088 -0.6517
vn 0.1376 0.7088 -0.6918
usemtl d605deea
s off
f 45/1/1 46/2/1 47/3/1
f 45/1/1 47/3/1 48/4/1
f 77/5/2 78/6/2 79/7/2
f 77/5/2 79/7/2 80/8/2
f 81/9/2 82/10/2 83/11/2
f 81/9/2 83/11/2 84/12/2
f 85/13/2 86/14/2 87/15/2
f 85/13/2 87/15/2 88/16/2
f 78/6/2 89/17/2 90/18/2
f 78/6/2 90/18/2 79/7/2
f 82/10/2 91/19/2 92/20/2
f 82/10/2 92/20/2 83/11/2
f 93/21/2 94/22/2 95/23/2
f 93/21/2 95/23/2 96/24/2
f 89/17/2 97/25/2 98/26/2
f 89/17/2 98/26/2 90/18/2
f 91/19/2 99/27/2 100/28/2
f 91/19/2 100/28/2 92/20/2
f 101/29/2 102/30/2 103/31/2
f 101/29/2 103/31/2 104/32/2
f 97/25/2 93/21/2 96/24/2
f 97/25/2 96/24/2 98/26/2
f 99/27/2 105/33/2 106/34/2
f 99/27/2 106/34/2 100/28/2
f 102/30/2 107/35/2 108/36/2
f 102/30/2 108/36/2 103/31/2
f 109/37/2 110/38/2 111/39/2
f 109/37/2 111/39/2 112/40/2
f 107/35/2 113/41/2 114/42/2
f 107/35/2 114/42/2 108/36/2
f 86/14/2 101/29/2 104/32/2
f 86/14/2 104/32/2 87/15/2
f 110/38/2 115/43/2 116/44/2
f 110/38/2 116/44/2 111/39/2
f 113/41/2 117/45/2 118/46/2
f 113/41/2 118/46/2 114/42/2
f 115/43/2 119/47/2 120/48/2
f 115/43/2 120/48/2 116/44/2
f 117/45/2 121/49/2 122/50/2
f 117/45/2 122/50/2 118/46/2
f 119/47/2 123/51/2 124/52/2
f 119/47/2 124/52/2 120/48/2
f 121/49/2 125/53/2 126/54/2
f 121/49/2 126/54/2 122/50/2
f 123/51/2 127/55/2 128/56/2
f 123/51/2 128/56/2 124/52/2
f 125/53/2 129/57/2 130/58/2
f 125/53/2 130/58/2 126/54/2
f 127/55/2 131/59/2 132/60/2
f 127/55/2 132/60/2 128/56/2
f 129/57/2 133/61/2 134/62/2
f 129/57/2 134/62/2 130/58/2
f 131/59/2 135/63/2 136/64/2
f 131/59/2 136/64/2 132/60/2
f 133/61/2 137/65/2 138/66/2
f 133/61/2 138/66/2 134/62/2
f 135/63/2 139/67/2 140/68/2
f 135/63/2 140/68/2 136/64/2
f 137/65/2 141/69/2 142/70/2
f 137/65/2 142/70/2 138/66/2
f 139/67/2 77/5/2 80/8/2
f 139/67/2 80/8/2 140/68/2
f 141/69/2 81/9/2 84/12/2
f 141/69/2 84/12/2 142/70/2
f 151/71/1 152/72/1 153/73/1
f 151/71/1 153/73/1 154/74/1
f 94/22/2 85/13/2 88/16/2
f 94/22/2 88/16/2 95/23/2
f 154/74/1 153/73/1 157/75/1
f 154/74/1 157/75/1 158/76/1
f 158/76/1 157/75/1 165/77/1
f 158/76/1 165/77/1 166/78/1
f 166/78/1 165/77/1 169/79/1
f 166/78/1 169/79/1 170/80/1
f 170/80/1 169/79/1 173/81/1
f 170/80/1 173/81/1 174/82/1
f 174/82/1 173/81/1 177/83/1
f 174/82/1 177/83/1 178/84/1
f 178/84/1 177/83/1 181/85/1
f 178/84/1 181/85/1 182/86/1
f 182/86/1 181/85/1 185/87/1
f 182/86/1 185/87/1 186/88/1
f 186/88/1 185/87/1 189/89/1
f 186/88/1 189/89/1 190/90/1
f 193/91/1 194/92/1 195/93/1
f 193/91/1 195/93/1 196/94/1
f 196/94/1 195/93/1 199/95/1
f 196/94/1 199/95/1 200/96/1
f 200/96/1 199/95/1 203/97/1
f 200/96/1 203/97/1 204/98/1
f 204/98/1 203/97/1 207/99/1
f 204/98/1 207/99/1 208/100/1
f 208/100/1 207/99/1 213/101/1
f 208/100/1 213/101/1 214/102/1
f 214/102/1 213/101/1 217/103/1
f 214/102/1 217/103/1 218/104/1
f 218/104/1 217/103/1 221/105/1
f 218/104/1 221/105/1 222/106/1
f 222/106/1 221/105/1 225/107/1
f 222/106/1 225/107/1 226/108/1
f 226/108/1 225/107/1 229/109/1
f 226/108/1 229/109/1 230/110/1
f 231/111/1 232/112/1 46/2/1
f 231/111/1 46/2/1 45/1/1
f 230/110/1 229/109/1 235/113/1
f 230/110/1 235/113/1 236/114/1
f 48/4/1 47/3/1 237/115/1
f 48/4/1 237/115/1 238/116/1
f 236/114/1 235/113/1 241/117/1
f 236/114/1 241/117/1 242/118/1
f 238/116/1 237/115/1 243/119/1
f 238/116/1 243/119/1 244/120/1
f 242/118/1 241/117/1 247/121/1
f 242/118/1 247/121/1 248/122/1
f 244/120/1 243/119/1 249/123/1
f 244/120/1 249/123/1 250/124/1
f 248/122/1 247/121/1 232/112/1
f 248/122/1 232/112/1 231/111/1
f 250/124/1 249/123/1 253/125/1
f 250/124/1 253/125/1 254/126/1
f 254/126/1 253/125/1 259/127/1
f 254/126/1 259/127/1 260/128/1
f 260/128/1 259/127/1 265/129/1
f 260/128/1 265/129/1 266/130/1
f 266/130/1 265/129/1 271/131/1
f 266/130/1 271/131/1 272/132/1
f 272/132/1 271/131/1 152/72/1
f 272/132/1 152/72/1 151/71/1
f 607/133/1 608/134/1 609/135/1
f 607/133/1 609/135/1 610/136/1
f 611/137/2 612/138/2 613/139/2
f 611/137/2 613/139/2 614/140/2
f 615/141/1 616/142/1 617/143/1
f 615/141/1 617/143/1 618/144/1
f 619/145/1 620/146/1 621/147/1
f 619/145/1 621/147/1 622/148/1
f 623/149/2 624/150/2 625/151/2
f 623/149/2 625/151/2 626/152/2
f 627/153/2 628/154/2 629/155/2
f 627/153/2 629/155/2 630/156/2
f 631/157/2 632/158/2 633/159/2
f 631/157/2 633/159/2 634/160/2
f 635/161/1 607/133/1 610/136/1
f 635/161/1 610/136/1 636/162/1
f 637/163/2 611/137/2 614/140/2
f 637/163/2 614/140/2 638/164/2
f 616/142/1 639/165/1 640/166/1
f 616/142/1 640/166/1 617/143/1
f 641/167/1 642/168/1 643/169/1
f 641/167/1 643/169/1 644/170/1
f 620/146/1 645/171/1 646/172/1
f 620/146/1 646/172/1 621/147/1
f 647/173/2 648/174/2 649/175/2
f 647/173/2 649/175/2 650/176/2
f 651/177/2 631/157/2 634/160/2
f 651/177/2 634/160/2 652/178/2
f 653/179/1 654/180/1 655/181/1
f 653/179/1 655/181/1 656/182/1
f 657/183/2 658/184/2 659/185/2
f 657/183/2 659/185/2 660/186/2
f 661/187/2 637/163/2 638/164/2
f 661/187/2 638/164/2 662/188/2
f 639/165/1 663/189/1 664/190/1
f 639/165/1 664/190/1 640/166/1
f 645/171/1 665/191/1 666/192/1
f 645/171/1 666/192/1 646/172/1
f 667/193/2 647/173/2 650/176/2
f 667/193/2 650/176/2 668/194/2
f 608/134/1 669/195/1 670/196/1
f 608/134/1 670/196/1 609/135/1
f 671/197/2 651/177/2 652/178/2
f 671/197/2 652/178/2 672/198/2
f 654/180/1 673/199/1 674/200/1
f 654/180/1 674/200/1 655/181/1
f 675/201/2 661/187/2 662/188/2
f 675/201/2 662/188/2 676/202/2
f 663/189/1 677/203/1 678/204/1
f 663/189/1 678/204/1 664/190/1
f 665/191/1 679/205/1 680/206/1
f 665/191/1 680/206/1 666/192/1
f 681/207/2 667/193/2 668/194/2
f 681/207/2 668/194/2 682/208/2
f 683/209/2 671/197/2 672/198/2
f 683/209/2 672/198/2 684/210/2
f 673/199/1 685/211/1 686/212/1
f 673/199/1 686/212/1 674/200/1
f 687/213/2 675/201/2 676/202/2
f 687/213/2 676/202/2 688/214/2
f 677/203/1 689/215/1 690/216/1
f 677/203/1 690/216/1 678/204/1
f 679/205/1 691/217/1 692/218/1
f 679/205/1 692/218/1 680/206/1
f 755/219/1 653/179/1 656/182/1
f 755/219/1 656/182/1 756/220/1
f 632/158/2 757/221/2 758/222/2
f 632/158/2 758/222/2 633/159/2
f 658/184/2 623/149/2 626/152/2
f 658/184/2 626/152/2 659/185/2
f 648/174/2 759/223/2 760/224/2
f 648/174/2 760/224/2 649/175/2
f 761/225/1 619/145/1 622/148/1
f 761/225/1 622/148/1 762/226/1
f 669/195/1 755/219/1 756/220/1
f 669/195/1 756/220/1 670/196/1
f 763/227/1 615/141/1 618/144/1
f 763/227/1 618/144/1 764/228/1
f 612/138/2 765/229/2 766/230/2
f 612/138/2 766/230/2 613/139/2
f 767/231/1 641/167/1 644/170/1
f 767/231/1 644/170/1 768/232/1
f 759/223/2 657/183/2 660/186/2
f 759/223/2 660/186/2 760/224/2
f 757/221/2 769/233/2 770/234/2
f 757/221/2 770/234/2 758/222/2
f 628/154/2 771/235/2 772/236/2
f 628/154/2 772/236/2 629/155/2
f 642/168/1 773/237/1 774/238/1
f 642/168/1 774/238/1 643/169/1
f 775/239/1 761/225/1 762/226/1
f 775/239/1 762/226/1 776/240/1
f 777/241/2 627/153/2 630/156/2
f 777/241/2 630/156/2 778/242/2
f 779/243/1 763/227/1 764/228/1
f 779/243/1 764/228/1 780/244/1
f 765/229/2 781/245/2 782/246/2
f 765/229/2 782/246/2 766/230/2
f 773/237/1 783/247/1 784/248/1
f 773/237/1 784/248/1 774/238/1
f 783/247/1 635/161/1 636/162/1
f 783/247/1 636/162/1 784/248/1
f 769/233/2 785/249/2 786/250/2
f 769/233/2 786/250/2 770/234/2
f 624/150/2 787/251/2 788/252/2
f 624/150/2 788/252/2 625/151/2
f 789/253/1 775/239/1 776/240/1
f 789/253/1 776/240/1 790/254/1
f 787/251/2 777/241/2 778/242/2
f 787/251/2 778/242/2 788/252/2
f 791/255/1 779/243/1 780/244/1
f 791/255/1 780/244/1 792/256/1
f 781/245/2 793/257/2 794/258/2
f 781/245/2 794/258/2 782/246/2
f 785/249/2 795/259/2 796/260/2
f 785/249/2 796/260/2 786/250/2
f 691/217/1 767/231/1 768/232/1
f 691/217/1 768/232/1 692/218/1
f 797/261/1 789/253/1 790/254/1
f 797/261/1 790/254/1 798/262/1
f 771/235/2 687/213/2 688/214/2
f 771/235/2 688/214/2 772/236/2
f 685/211/1 791/255/1 792/256/1
f 685/211/1 792/256/1 686/212/1
f 793/257/2 799/263/2 800/264/2
f 793/257/2 800/264/2 794/258/2
f 795/259/2 681/207/2 682/208/2
f 795/259/2 682/208/2 796/260/2
f 867/265/1 868/266/1 869/267/1
f 867/265/1 869/267/1 870/268/1
f 871/269/2 872/270/2 873/271/2
f 871/269/2 873/271/2 874/272/2
f 875/273/2 876/274/2 877/275/2
f 875/273/2 877/275/2 878/276/2
f 879/277/1 880/278/1 881/279/1
f 879/277/1 881/279/1 882/280/1
f 883/281/1 884/282/1 885/283/1
f 883/281/1 885/283/1 886/284/1
f 887/285/1 888/286/1 889/287/1
f 887/285/1 889/287/1 890/288/1
f 891/289/2 892/290/2 893/291/2
f 891/289/2 893/291/2 894/292/2
f 895/293/1 896/294/1 897/295/1
f 895/293/1 897/295/1 898/296/1
f 899/297/2 900/298/2 901/299/2
f 899/297/2 901/299/2 902/300/2
f 903/301/2 904/302/2 905/303/2
f 903/301/2 905/303/2 906/304/2
f 907/305/2 908/306/2 909/307/2
f 907/305/2 909/307/2 910/308/2
f 911/309/1 912/310/1 913/311/1
f 911/309/1 913/311/1 914/312/1
f 915/313/1 916/314/1 917/315/1
f 915/313/1 917/315/1 918/316/1
f 919/317/1 920/318/1 921/319/1
f 919/317/1 921/319/1 922/320/1
f 904/302/2 923/321/2 924/322/2
f 904/302/2 924/322/2 905/303/2
f 925/323/1 867/265/1 870/268/1
f 925/323/1 870/268/1 926/324/1
f 872/270/2 927/325/2 928/326/2
f 872/270/2 928/326/2 873/271/2
f 929/327/1 915/313/1 918/316/1
f 929/327/1 918/316/1 930/328/1
f 931/329/2 903/301/2 906/304/2
f 931/329/2 906/304/2 932/330/2
f 876/274/2 933/331/2 934/332/2
f 876/274/2 934/332/2 877/275/2
f 935/333/2 936/334/2 937/335/2
f 935/333/2 937/335/2 938/336/2
f 939/337/1 887/285/1 890/288/1
f 939/337/1 890/288/1 940/338/1
f 916/314/1 941/339/1 942/340/1
f 916/314/1 942/340/1 917/315/1
f 943/341/1 895/293/1 898/296/1
f 943/341/1 898/296/1 944/342/1
f 900/298/2 945/343/2 946/344/2
f 900/298/2 946/344/2 901/299/2
f 947/345/1 879/277/1 882/280/1
f 947/345/1 882/280/1 948/346/1
f 908/306/2 949/347/2 950/348/2
f 908/306/2 950/348/2 909/307/2
f 892/290/2 951/349/2 952/350/2
f 892/290/2 952/350/2 893/291/2
f 953/351/1 919/317/1 922/320/1
f 953/351/1 922/320/1 954/352/1
f 955/353/1 925/323/1 926/324/1
f 955/353/1 926/324/1 956/354/1
f 927/325/2 957/355/2 958/356/2
f 927/325/2 958/356/2 928/326/2
f 959/357/1 911/309/1 914/312/1
f 959/357/1 914/312/1 960/358/1
f 1023/359/2 1024/360/2 1025/361/2
f 1023/359/2 1025/361/2 1026/362/2
f 1027/363/2 935/333/2 938/336/2
f 1027/363/2 938/336/2 1028/364/2
f 920/318/1 1029/365/1 1030/366/1
f 920/318/1 1030/366/1 921/319/1
f 941/339/1 1031/367/1 1032/368/1
f 941/339/1 1032/368/1 942/340/1
f 1033/369/2 907/305/2 910/308/2
f 1033/369/2 910/308/2 1034/370/2
f 1035/371/1 1036/372/1 1037/373/1
f 1035/371/1 1037/373/1 1038/374/1
f 1039/375/2 931/329/2 932/330/2
f 1039/375/2 932/330/2 1040/376/2
f 1041/377/2 899/297/2 902/300/2
f 1041/377/2 902/300/2 1042/378/2
f 896/294/1 1043/379/1 1044/380/1
f 896/294/1 1044/380/1 897/295/1
f 912/310/1 883/281/1 886/284/1
f 912/310/1 886/284/1 913/311/1
f 1045/381/1 959/357/1 960/358/1
f 1045/381/1 960/358/1 1046/382/1
f 1047/383/2 1048/384/2 1049/385/2
f 1047/383/2 1049/385/2 1050/386/2
f 1024/360/2 891/289/2 894/292/2
f 1024/360/2 894/292/2 1025/361/2
f 1051/387/2 875/273/2 878/276/2
f 1051/387/2 878/276/2 1052/388/2
f 884/282/1 1053/389/1 1054/390/1
f 884/282/1 1054/390/1 885/283/1
f 880/278/1 1035/371/1 1038/374/1
f 880/278/1 1038/374/1 881/279/1
f 951/349/2 1055/391/2 1056/392/2
f 951/349/2 1056/392/2 952/350/2
f 868/266/1 1057/393/1 1058/394/1
f 868/266/1 1058/394/1 869/267/1
f 1048/384/2 1027/363/2 1028/364/2
f 1048/384/2 1028/364/2 1049/385/2
f 1059/395/2 1023/359/2 1026/362/2
f 1059/395/2 1026/362/2 1060/396/2
f 1031/367/1 947/345/1 948/346/1
f 1031/367/1 948/346/1 1032/368/1
f 957/355/2 1033/369/2 1034/370/2
f 957/355/2 1034/370/2 958/356/2
f 1036/372/1 955/353/1 956/354/1
f 1036/372/1 956/354/1 1037/373/1
f 1043/379/1 953/351/1 954/352/1
f 1043/379/1 954/352/1 1044/380/1
f 936/334/2 1039/375/2 1040/376/2
f 936/334/2 1040/376/2 937/335/2
f 949/347/2 1047/383/2 1050/386/2
f 949/347/2 1050/386/2 950/348/2
f 1029/365/1 929/327/1 930/328/1
f 1029/365/1 930/328/1 1030/366/1
f 945/343/2 1051/387/2 1052/388/2
f 945/343/2 1052/388/2 946/344/2
f 1053/389/1 943/341/1 944/342/1
f 1053/389/1 944/342/1 1054/390/1
f 1057/393/1 939/337/1 940/338/1
f 1057/393/1 940/338/1 1058/394/1
f 923/321/2 1041/377/2 1042/378/2
f 923/321/2 1042/378/2 924/322/2
f 933/331/2 1059/395/2 1060/396/2
f 933/331/2 1060/396/2 934/332/2
s 1
f 1/397/3 2/398/4 3/399/4
f 1/397/3 3/399/4 4/400/3
f 5/401/5 6/402/6 7/403/6
f 5/401/5 7/403/6 8/404/5
f 9/405/7 10/406/8 11/407/8
f 9/405/7 11/407/8 12/408/7
f 2/398/4 13/409/9 14/410/9
f 2/398/4 14/410/9 3/399/4
f 6/402/6 15/411/10 16/412/10
f 6/402/6 16/412/10 7/403/6
f 17/413/11 18/414/12 19/415/12
f 17/413/11 19/415/12 20/416/11
f 13/409/9 21/417/13 22/418/13
f 13/409/9 22/418/13 14/410/9
f 15/411/10 23/419/14 24/420/14
f 15/411/10 24/420/14 16/412/10
f 18/414/12 25/421/15 26/422/15
f 18/414/12 26/422/15 19/415/12
f 27/423/11 28/424/12 29/425/12
f 27/423/11 29/425/12 30/426/11
f 23/419/14 31/427/16 32/428/16
f 23/419/14 32/428/16 24/420/14
f 25/421/15 33/429/17 34/430/17
f 25/421/15 34/430/17 26/422/15
f 35/431/10 36/432/6 37/433/6
f 35/431/10 37/433/6 38/434/10
f 39/435/16 40/436/18 41/437/18
f 39/435/16 41/437/18 42/438/16
f 33/429/17 43/439/19 44/440/19
f 33/429/17 44/440/19 34/430/17
f 40/436/18 49/441/20 50/442/20
f 40/436/18 50/442/20 41/437/18
f 43/439/19 51/443/21 52/444/21
f 43/439/19 52/444/21 44/440/19
f 49/441/20 53/445/22 54/446/22
f 49/441/20 54/446/22 50/442/20
f 51/443/21 55/447/23 56/448/23
f 51/443/21 56/448/23 52/444/21
f 53/445/22 57/449/24 58/450/24
f 53/445/22 58/450/24 54/446/22
f 55/447/23 59/451/25 60/452/25
f 55/447/23 60/452/25 56/448/23
f 57/449/24 61/453/26 62/454/26
f 57/449/24 62/454/26 58/450/24
f 59/451/25 63/455/27 64/456/27
f 59/451/25 64/456/27 60/452/25
f 61/453/26 65/457/28 66/458/28
f 61/453/26 66/458/28 62/454/26
f 63/455/27 67/459/29 68/460/29
f 63/455/27 68/460/29 64/456/27
f 65/457/28 69/461/30 70/462/30
f 65/457/28 70/462/30 66/458/28
f 67/459/29 71/463/31 72/464/31
f 67/459/29 72/464/31 68/460/29
f 69/461/30 73/465/32 74/466/32
f 69/461/30 74/466/32 70/462/30
f 71/463/31 75/467/33 76/468/33
f 71/463/31 76/468/33 72/464/31
f 73/465/32 1/397/3 4/400/3
f 73/465/32 4/400/3 74/466/32
f 75/467/33 5/401/5 8/404/5
f 75/467/33 8/404/5 76/468/33
f 143/469/6 144/470/5 145/471/5
f 143/469/6 145/471/5 146/472/6
f 147/473/24 148/474/22 149/475/22
f 147/473/24 149/475/22 150/476/24
f 155/477/26 147/473/24 150/476/24
f 155/477/26 150/476/24 156/478/26
f 159/479/16 160/480/14 161/481/14
f 159/479/16 161/481/14 162/482/16
f 163/483/28 155/477/26 156/478/26
f 163/483/28 156/478/26 164/484/28
f 167/485/30 163/483/28 164/484/28
f 167/485/30 164/484/28 168/486/30
f 171/487/32 167/485/30 168/486/30
f 171/487/32 168/486/30 172/488/32
f 175/489/3 171/487/32 172/488/32
f 175/489/3 172/488/32 176/490/3
f 179/491/4 175/489/3 176/490/3
f 179/491/4 176/490/3 180/492/4
f 183/493/9 179/491/4 180/492/4
f 183/493/9 180/492/4 184/494/9
f 187/495/13 183/493/9 184/494/9
f 187/495/13 184/494/9 188/496/13
f 191/497/34 187/495/13 188/496/13
f 191/497/34 188/496/13 192/498/34
f 197/499/7 191/497/34 192/498/34
f 197/499/7 192/498/34 198/500/7
f 201/501/8 197/499/7 198/500/7
f 201/501/8 198/500/7 202/502/8
f 205/503/11 201/501/8 202/502/8
f 205/503/11 202/502/8 206/504/11
f 209/505/12 210/506/11 211/507/11
f 209/505/12 211/507/11 212/508/12
f 215/509/15 209/505/12 212/508/12
f 215/509/15 212/508/12 216/510/15
f 219/511/17 215/509/15 216/510/15
f 219/511/17 216/510/15 220/512/17
f 223/513/19 219/511/17 220/512/17
f 223/513/19 220/512/17 224/514/19
f 227/515/21 223/513/19 224/514/19
f 227/515/21 224/514/19 228/516/21
f 233/517/23 227/515/21 228/516/21
f 233/517/23 228/516/21 234/518/23
f 239/519/25 233/517/23 234/518/23
f 239/519/25 234/518/23 240/520/25
f 245/521/27 239/519/25 240/520/25
f 245/521/27 240/520/25 246/522/27
f 251/523/29 245/521/27 246/522/27
f 251/523/29 246/522/27 252/524/29
f 255/525/31 251/523/29 252/524/29
f 255/525/31 252/524/29 256/526/31
f 257/527/8 17/413/11 20/416/11
f 257/527/8 20/416/11 258/528/8
f 261/529/33 255/525/31 256/526/31
f 261/529/33 256/526/31 262/530/33
f 263/531/10 143/469/6 146/472/6
f 263/531/10 146/472/6 264/532/10
f 144/470/5 261/529/33 262/530/33
f 144/470/5 262/530/33 145/471/5
f 267/533/20 268/534/18 269/535/18
f 267/533/20 269/535/18 270/536/20
f 273/537/18 274/538/20 275/539/20
f 273/537/18 275/539/20 276/540/18
f 148/474/22 267/533/20 270/536/20
f 148/474/22 270/536/20 149/475/22
f 277/541/35 278/542/36 279/543/36
f 277/541/35 279/543/36 280/544/35
f 281/545/37 277/541/35 280/544/35
f 281/545/37 280/544/35 282/546/37
f 283/547/38 281/545/37 282/546/37
f 283/547/38 282/546/37 284/548/38
f 285/549/39 283/547/38 284/548/38
f 285/549/39 284/548/38 286/550/39
f 287/551/40 285/549/39 286/550/39
f 287/551/40 286/550/39 288/552/40
f 289/553/41 287/551/40 288/552/40
f 289/553/41 288/552/40 290/554/41
f 291/555/42 289/553/41 290/554/41
f 291/555/42 290/554/41 292/556/42
f 293/557/43 291/555/42 292/556/42
f 293/557/43 292/556/42 294/558/43
f 295/559/44 293/557/43 294/558/43
f 295/559/44 294/558/43 296/560/44
f 297/561/45 295/559/44 296/560/44
f 297/561/45 296/560/44 298/562/45
f 299/563/46 297/561/45 298/562/45
f 299/563/46 298/562/45 300/564/46
f 301/565/47 299/563/46 300/564/46
f 301/565/47 300/564/46 302/566/47
f 303/567/48 301/565/47 302/566/47
f 303/567/48 302/566/47 304/568/48
f 305/569/49 303/567/48 304/568/48
f 305/569/49 304/568/48 306/570/49
f 307/571/50 305/569/49 306/570/49
f 307/571/50 306/570/49 308/572/50
f 309/573/51 307/571/50 308/572/50
f 309/573/51 308/572/50 310/574/51
f 311/575/52 309/573/51 310/574/51
f 311/575/52 310/574/51 312/576/52
f 313/577/53 311/575/52 312/576/52
f 313/577/53 312/576/52 314/578/53
f 315/579/54 316/580/53 317/581/53
f 315/579/54 317/581/53 318/582/54
f 319/583/55 315/579/54 318/582/54
f 319/583/55 318/582/54 320/584/55
f 321/585/56 319/583/55 320/584/55
f 321/585/56 320/584/55 322/586/56
f 323/587/57 321/585/56 322/586/56
f 323/587/57 322/586/56 324/588/57
f 325/589/58 323/587/57 324/588/57
f 325/589/58 324/588/57 326/590/58
f 327/591/59 325/589/58 326/590/58
f 327/591/59 326/590/58 328/592/59
f 329/593/60 327/591/59 328/592/59
f 329/593/60 328/592/59 330/594/60
f 331/595/61 329/593/60 330/594/60
f 331/595/61 330/594/60 332/596/61
f 333/597/62 331/595/61 332/596/61
f 333/597/62 332/596/61 334/598/62
f 335/599/63 333/597/62 334/598/62
f 335/599/63 334/598/62 336/600/63
f 337/601/64 335/599/63 336/600/63
f 337/601/64 336/600/63 338/602/64
f 339/603/65 337/601/64 338/602/64
f 339/603/65 338/602/64 340/604/65
f 341/605/66 339/603/65 340/604/65
f 341/605/66 340/604/65 342/606/66
f 278/542/36 341/605/66 342/606/66
f 278/542/36 342/606/66 279/543/36
f 343/607/52 344/608/51 345/609/51
f 343/607/52 345/609/51 346/610/52
f 347/611/53 343/607/52 346/610/52
f 347/611/53 346/610/52 348/612/53
f 349/613/54 347/611/53 348/612/53
f 349/613/54 348/612/53 350/614/54
f 351/615/55 349/613/54 350/614/54
f 351/615/55 350/614/54 352/616/55
f 353/617/56 351/615/55 352/616/55
f 353/617/56 352/616/55 354/618/56
f 355/619/57 353/617/56 354/618/56
f 355/619/57 354/618/56 356/620/57
f 357/621/58 355/619/57 356/620/57
f 357/621/58 356/620/57 358/622/58
f 359/623/59 357/621/58 358/622/58
f 359/623/59 358/622/58 360/624/59
f 361/625/60 359/623/59 360/624/59
f 361/625/60 360/624/59 362/626/60
f 363/627/61 361/625/60 362/626/60
f 363/627/61 362/626/60 364/628/61
f 365/629/62 363/627/61 364/628/61
f 365/629/62 364/628/61 366/630/62
f 367/631/63 365/629/62 366/630/62
f 367/631/63 366/630/62 368/632/63
f 369/633/64 367/631/63 368/632/63
f 369/633/64 368/632/63 370/634/64
f 371/635/65 369/633/64 370/634/64
f 371/635/65 370/634/64 372/636/65
f 373/637/66 371/635/65 372/636/65
f 373/637/66 372/636/65 374/638/66
f 375/639/36 373/637/66 374/638/66
f 375/639/36 374/638/66 376/640/36
f 377/641/35 375/639/36 376/640/36
f 377/641/35 376/640/36 378/642/35
f 379/643/37 377/641/35 378/642/35
f 379/643/37 378/642/35 380/644/37
f 381/645/38 382/646/37 383/647/37
f 381/645/38 383/647/37 384/648/38
f 385/649/39 386/650/38 387/651/38
f 385/649/39 387/651/38 388/652/39
f 389/653/40 390/654/39 391/655/39
f 389/653/40 391/655/39 392/656/40
f 393/657/41 389/653/40 392/656/40
f 393/657/41 392/656/40 394/658/41
f 395/659/42 393/657/41 394/658/41
f 395/659/42 394/658/41 396/660/42
f 397/661/43 395/659/42 396/660/42
f 397/661/43 396/660/42 398/662/43
f 399/663/44 397/661/43 398/662/43
f 399/663/44 398/662/43 400/664/44
f 401/665/45 399/663/44 400/664/44
f 401/665/45 400/664/44 402/666/45
f 403/667/46 401/665/45 402/666/45
f 403/667/46 402/666/45 404/668/46
f 405/669/47 403/667/46 404/668/46
f 405/669/47 404/668/46 406/670/47
f 407/671/48 405/669/47 406/670/47
f 407/671/48 406/670/47 408/672/48
f 409/673/49 407/671/48 408/672/48
f 409/673/49 408/672/48 410/674/49
f 411/675/50 409/673/49 410/674/49
f 411/675/50 410/674/49 412/676/50
f 344/608/51 411/675/50 412/676/50
f 344/608/51 412/676/50 345/609/51
f 413/677/67 414/678/68 415/679/68
f 413/677/67 415/679/68 416/680/67
f 417/681/69 413/677/67 416/680/67
f 417/681/69 416/680/67 418/682/69
f 419/683/70 417/681/69 418/682/69
f 419/683/70 418/682/69 420/684/70
f 421/685/71 419/683/70 420/684/70
f 421/685/71 420/684/70 422/686/71
f 423/687/72 421/685/71 422/686/71
f 423/687/72 422/686/71 424/688/72
f 425/689/73 423/687/72 424/688/72
f 425/689/73 424/688/72 426/690/73
f 427/691/74 425/689/73 426/690/73
f 427/691/74 426/690/73 428/692/74
f 429/693/75 427/691/74 428/692/74
f 429/693/75 428/692/74 430/694/75
f 431/695/76 429/693/75 430/694/75
f 431/695/76 430/694/75 432/696/76
f 433/697/77 431/695/76 432/696/76
f 433/697/77 432/696/76 434/698/77
f 435/699/78 433/697/77 434/698/77
f 435/699/78 434/698/77 436/700/78
f 437/701/79 435/699/78 436/700/78
f 437/701/79 436/700/78 438/702/79
f 439/703/80 437/701/79 438/702/79
f 439/703/80 438/702/79 440/704/80
f 441/705/81 439/703/80 440/704/80
f 441/705/81 440/704/80 442/706/81
f 443/707/82 441/705/81 442/706/81
f 443/707/82 442/706/81 444/708/82
f 445/709/83 443/707/82 444/708/82
f 445/709/83 444/708/82 446/710/83
f 447/711/84 445/709/83 446/710/83
f 447/711/84 446/710/83 448/712/84
f 449/713/85 447/711/84 448/712/84
f 449/713/85 448/712/84 450/714/85
f 451/715/86 452/716/85 453/717/85
f 451/715/86 453/717/85 454/718/86
f 455/719/87 451/715/86 454/718/86
f 455/719/87 454/718/86 456/720/87
f 457/721/88 455/719/87 456/720/87
f 457/721/88 456/720/87 458/722/88
f 459/723/89 457/721/88 458/722/88
f 459/723/89 458/722/88 460/724/89
f 461/725/90 459/723/89 460/724/89
f 461/725/90 460/724/89 462/726/90
f 463/727/91 461/725/90 462/726/90
f 463/727/91 462/726/90 464/728/91
f 465/729/92 463/727/91 464/728/91
f 465/729/92 464/728/91 466/730/92
f 467/731/93 465/729/92 466/730/92
f 467/731/93 466/730/92 468/732/93
f 469/733/94 467/731/93 468/732/93
f 469/733/94 468/732/93 470/734/94
f 471/735/95 469/733/94 470/734/94
f 471/735/95 470/734/94 472/736/95
f 473/737/96 471/735/95 472/736/95
f 473/737/96 472/736/95 474/738/96
f 475/739/97 473/737/96 474/738/96
f 475/739/97 474/738/96 476/740/97
f 477/741/98 475/739/97 476/740/97
f 477/741/98 476/740/97 478/742/98
f 414/678/68 477/741/98 478/742/98
f 414/678/68 478/742/98 415/679/68
f 479/743/84 480/744/83 481/745/83
f 479/743/84 481/745/83 482/746/84
f 483/747/85 479/743/84 482/746/84
f 483/747/85 482/746/84 484/748/85
f 485/749/86 483/747/85 484/748/85
f 485/749/86 484/748/85 486/750/86
f 487/751/87 485/749/86 486/750/86
f 487/751/87 486/750/86 488/752/87
f 489/753/88 487/751/87 488/752/87
f 489/753/88 488/752/87 490/754/88
f 491/755/89 489/753/88 490/754/88
f 491/755/89 490/754/88 492/756/89
f 493/757/90 491/755/89 492/756/89
f 493/757/90 492/756/89 494/758/90
f 495/759/91 493/757/90 494/758/90
f 495/759/91 494/758/90 496/760/91
f 497/761/92 495/759/91 496/760/91
f 497/761/92 496/760/91 498/762/92
f 499/763/93 497/761/92 498/762/92
f 499/763/93 498/762/92 500/764/93
f 501/765/94 499/763/93 500/764/93
f 501/765/94 500/764/93 502/766/94
f 503/767/95 501/765/94 502/766/94
f 503/767/95 502/766/94 504/768/95
f 505/769/96 503/767/95 504/768/95
f 505/769/96 504/768/95 506/770/96
f 507/771/97 505/769/96 506/770/96
f 507/771/97 506/770/96 508/772/97
f 509/773/98 507/771/97 508/772/97
f 509/773/98 508/772/97 510/774/98
f 511/775/68 509/773/98 510/774/98
f 511/775/68 510/774/98 512/776/68
f 513/777/67 511/775/68 512/776/68
f 513/777/67 512/776/68 514/778/67
f 515/779/69 513/777/67 514/778/67
f 515/779/69 514/778/67 516/780/69
f 517/781/70 518/782/69 519/783/69
f 517/781/70 519/783/69 520/784/70
f 521/785/71 517/781/70 520/784/70
f 521/785/71 520/784/70 522/786/71
f 523/787/72 521/785/71 522/786/71
f 523/787/72 522/786/71 524/788/72
f 525/789/73 523/787/72 524/788/72
f 525/789/73 524/788/72 526/790/73
f 527/791/74 525/789/73 526/790/73
f 527/791/74 526/790/73 528/792/74
f 529/793/75 527/791/74 528/792/74
f 529/793/75 528/792/74 530/794/75
f 531/795/76 529/793/75 530/794/75
f 531/795/76 530/794/75 532/796/76
f 533/797/77 531/795/76 532/796/76
f 533/797/77 532/796/76 534/798/77
f 535/799/78 533/797/77 534/798/77
f 535/799/78 534/798/77 536/800/78
f 537/801/79 535/799/78 536/800/78
f 537/801/79 536/800/78 538/802/79
f 539/803/80 537/801/79 538/802/79
f 539/803/80 538/802/79 540/804/80
f 541/805/81 539/803/80 540/804/80
f 541/805/81 540/804/80 542/806/81
f 543/807/82 541/805/81 542/806/81
f 543/807/82 542/806/81 544/808/82
f 480/744/83 543/807/82 544/808/82
f 480/744/83 544/808/82 481/745/83
f 10/406/8 27/423/11 30/426/11
f 10/406/8 30/426/11 11/407/8
f 545/809/20 546/810/18 547/811/18
f 545/809/20 547/811/18 548/812/20
f 549/813/5 550/814/33 551/815/33
f 549/813/5 551/815/33 552/816/5
f 546/810/18 553/817/16 554/818/16
f 546/810/18 554/818/16 547/811/18
f 550/814/33 555/819/31 556/820/31
f 550/814/33 556/820/31 551/815/33
f 36/432/6 549/813/5 552/816/5
f 36/432/6 552/816/5 37/433/6
f 555/819/31 557/821/29 558/822/29
f 555/819/31 558/822/29 556/820/31
f 557/821/29 559/823/27 560/824/27
f 557/821/29 560/824/27 558/822/29
f 559/823/27 561/825/25 562/826/25
f 559/823/27 562/826/25 560/824/27
f 561/825/25 563/827/23 564/828/23
f 561/825/25 564/828/23 562/826/25
f 563/827/23 565/829/21 566/830/21
f 563/827/23 566/830/21 564/828/23
f 565/829/21 567/831/19 568/832/19
f 565/829/21 568/832/19 566/830/21
f 567/831/19 569/833/17 570/834/17
f 567/831/19 570/834/17 568/832/19
f 569/833/17 571/835/15 572/836/15
f 569/833/17 572/836/15 570/834/17
f 571/835/15 573/837/12 574/838/12
f 571/835/15 574/838/12 572/836/15
f 573/837/12 575/839/11 576/840/11
f 573/837/12 576/840/11 574/838/12
f 577/841/11 578/842/8 579/843/8
f 577/841/11 579/843/8 580/844/11
f 578/842/8 581/845/7 582/846/7
f 578/842/8 582/846/7 579/843/8
f 581/845/7 583/847/34 584/848/34
f 581/845/7 584/848/34 582/846/7
f 583/847/34 585/849/13 586/850/13
f 583/847/34 586/850/13 584/848/34
f 585/849/13 587/851/9 588/852/9
f 585/849/13 588/852/9 586/850/13
f 587/851/9 589/853/4 590/854/4
f 587/851/9 590/854/4 588/852/9
f 589/853/4 591/855/3 592/856/3
f 589/853/4 592/856/3 590/854/4
f 591/855/3 593/857/32 594/858/32
f 591/855/3 594/858/32 592/856/3
f 593/857/32 595/859/30 596/860/30
f 593/857/32 596/860/30 594/858/32
f 595/859/30 597/861/28 598/862/28
f 595/859/30 598/862/28 596/860/30
f 597/861/28 599/863/26 600/864/26
f 597/861/28 600/864/26 598/862/28
f 599/863/26 601/865/24 602/866/24
f 599/863/26 602/866/24 600/864/26
f 603/867/14 35/431/10 38/434/10
f 603/867/14 38/434/10 604/868/14
f 601/865/24 605/869/22 606/870/22
f 601/865/24 606/870/22 602/866/24
f 605/869/22 545/809/20 548/812/20
f 605/869/22 548/812/20 606/870/22
f 268/534/18 159/479/16 162/482/16
f 268/534/18 162/482/16 269/535/18
f 553/817/16 603/867/14 604/868/14
f 553/817/16 604/868/14 554/818/16
f 160/480/14 263/531/10 264/532/10
f 160/480/14 264/532/10 161/481/14
f 693/871/33 694/872/5 695/873/5
f 693/871/33 695/873/5 696/874/33
f 697/875/16 273/537/18 276/540/18
f 697/875/16 276/540/18 698/876/16
f 699/877/31 693/871/33 696/874/33
f 699/877/31 696/874/33 700/878/31
f 701/879/6 702/880/10 703/881/10
f 701/879/6 703/881/10 704/882/6
f 705/883/29 699/877/31 700/878/31
f 705/883/29 700/878/31 706/884/29
f 707/885/27 705/883/29 706/884/29
f 707/885/27 706/884/29 708/886/27
f 709/887/25 707/885/27 708/886/27
f 709/887/25 708/886/27 710/888/25
f 711/889/23 709/887/25 710/888/25
f 711/889/23 710/888/25 712/890/23
f 713/891/21 711/889/23 712/890/23
f 713/891/21 712/890/23 714/892/21
f 715/893/19 713/891/21 714/892/21
f 715/893/19 714/892/21 716/894/19
f 717/895/17 715/893/19 716/894/19
f 717/895/17 716/894/19 718/896/17
f 719/897/15 717/895/17 718/896/17
f 719/897/15 718/896/17 720/898/15
f 721/899/12 719/897/15 720/898/15
f 721/899/12 720/898/15 722/900/12
f 723/901/11 721/899/12 722/900/12
f 723/901/11 722/900/12 724/902/11
f 725/903/8 726/904/11 727/905/11
f 725/903/8 727/905/11 728/906/8
f 729/907/7 725/903/8 728/906/8
f 729/907/7 728/906/8 730/908/7
f 731/909/34 729/907/7 730/908/7
f 731/909/34 730/908/7 732/910/34
f 733/911/13 731/909/34 732/910/34
f 733/911/13 732/910/34 734/912/13
f 735/913/9 733/911/13 734/912/13
f 735/913/9 734/912/13 736/914/9
f 737/915/4 735/913/9 736/914/9
f 737/915/4 736/914/9 738/916/4
f 739/917/3 737/915/4 738/916/4
f 739/917/3 738/916/4 740/918/3
f 741/919/32 739/917/3 740/918/3
f 741/919/32 740/918/3 742/920/32
f 743/921/30 741/919/32 742/920/32
f 743/921/30 742/920/32 744/922/30
f 745/923/28 743/921/30 744/922/30
f 745/923/28 744/922/30 746/924/28
f 747/925/26 745/923/28 746/924/28
f 747/925/26 746/924/28 748/926/26
f 749/927/24 747/925/26 748/926/26
f 749/927/24 748/926/26 750/928/24
f 751/929/14 697/875/16 698/876/16
f 751/929/14 698/876/16 752/930/14
f 753/931/22 749/927/24 750/928/24
f 753/931/22 750/928/24 754/932/22
f 274/538/20 753/931/22 754/932/22
f 274/538/20 754/932/22 275/539/20
f 694/872/5 701/879/6 704/882/6
f 694/872/5 704/882/6 695/873/5
f 702/880/10 751/929/14 752/930/14
f 702/880/10 752/930/14 703/881/10
f 801/933/34 9/405/7 12/408/7
f 801/933/34 12/408/7 802/934/34
f 21/417/13 803/935/34 804/936/34
f 21/417/13 804/936/34 22/418/13
f 805/937/5 806/938/6 807/939/6
f 805/937/5 807/939/6 808/940/5
f 809/941/3 810/942/4 811/943/4
f 809/941/3 811/943/4 812/944/3
f 813/945/33 805/937/5 808/940/5
f 813/945/33 808/940/5 814/946/33
f 815/947/32 809/941/3 812/944/3
f 815/947/32 812/944/3 816/948/32
f 817/949/31 813/945/33 814/946/33
f 817/949/31 814/946/33 818/950/31
f 819/951/30 815/947/32 816/948/32
f 819/951/30 816/948/32 820/952/30
f 821/953/29 817/949/31 818/950/31
f 821/953/29 818/950/31 822/954/29
f 823/955/28 819/951/30 820/952/30
f 823/955/28 820/952/30 824/956/28
f 825/957/27 821/953/29 822/954/29
f 825/957/27 822/954/29 826/958/27
f 827/959/26 823/955/28 824/956/28
f 827/959/26 824/956/28 828/960/26
f 829/961/25 825/957/27 826/958/27
f 829/961/25 826/958/27 830/962/25
f 831/963/24 827/959/26 828/960/26
f 831/963/24 828/960/26 832/964/24
f 833/965/23 829/961/25 830/962/25
f 833/965/23 830/962/25 834/966/23
f 835/967/22 831/963/24 832/964/24
f 835/967/22 832/964/24 836/968/22
f 837/969/21 833/965/23 834/966/23
f 837/969/21 834/966/23 838/970/21
f 839/971/20 835/967/22 836/968/22
f 839/971/20 836/968/22 840/972/20
f 841/973/19 837/969/21 838/970/21
f 841/973/19 838/970/21 842/974/19
f 843/975/18 839/971/20 840/972/20
f 843/975/18 840/972/20 844/976/18
f 845/977/17 841/973/19 842/974/19
f 845/977/17 842/974/19 846/978/17
f 847/979/16 843/975/18 844/976/18
f 847/979/16 844/976/18 848/980/16
f 849/981/13 801/933/34 802/934/34
f 849/981/13 802/934/34 850/982/13
f 851/983/15 845/977/17 846/978/17
f 851/983/15 846/978/17 852/984/15
f 853/985/14 854/986/16 855/987/16
f 853/985/14 855/987/16 856/988/14
f 857/989/8 858/990/7 859/991/7
f 857/989/8 859/991/7 860/992/8
f 28/424/12 851/983/15 852/984/15
f 28/424/12 852/984/15 29/425/12
f 861/993/10 853/985/14 856/988/14
f 861/993/10 856/988/14 862/994/10
f 863/995/9 849/981/13 850/982/13
f 863/995/9 850/982/13 864/996/9
f 865/997/7 257/527/8 258/528/8
f 865/997/7 258/528/8 866/998/7
f 806/938/6 861/993/10 862/994/10
f 806/938/6 862/994/10 807/939/6
f 810/942/4 863/995/9 864/996/9
f 810/942/4 864/996/9 811/943/4
f 803/935/34 865/997/7 866/998/7
f 803/935/34 866/998/7 804/936/34
f 961/999/11 857/989/8 860/992/8
f 961/999/11 860/992/8 962/1000/11
f 963/1001/5 964/1002/33 965/1003/33
f 963/1001/5 965/1003/33 966/1004/5
f 967/1005/3 968/1006/32 969/1007/32
f 967/1005/3 969/1007/32 970/1008/3
f 964/1002/33 971/1009/31 972/1010/31
f 964/1002/33 972/1010/31 965/1003/33
f 968/1006/32 973/1011/30 974/1012/30
f 968/1006/32 974/1012/30 969/1007/32
f 971/1009/31 975/1013/29 976/1014/29
f 971/1009/31 976/1014/29 972/1010/31
f 973/1011/30 977/1015/28 978/1016/28
f 973/1011/30 978/1016/28 974/1012/30
f 975/1013/29 979/1017/27 980/1018/27
f 975/1013/29 980/1018/27 976/1014/29
f 977/1015/28 981/1019/26 982/1020/26
f 977/1015/28 982/1020/26 978/1016/28
f 979/1017/27 983/1021/25 984/1022/25
f 979/1017/27 984/1022/25 980/1018/27
f 981/1019/26 985/1023/24 986/1024/24
f 981/1019/26 986/1024/24 982/1020/26
f 983/1021/25 987/1025/23 988/1026/23
f 983/1021/25 988/1026/23 984/1022/25
f 985/1023/24 989/1027/22 990/1028/22
f 985/1023/24 990/1028/22 986/1024/24
f 987/1025/23 991/1029/21 992/1030/21
f 987/1025/23 992/1030/21 988/1026/23
f 989/1027/22 993/1031/20 994/1032/20
f 989/1027/22 994/1032/20 990/1028/22
f 991/1029/21 995/1033/19 996/1034/19
f 991/1029/21 996/1034/19 992/1030/21
f 993/1031/20 997/1035/18 998/1036/18
f 993/1031/20 998/1036/18 994/1032/20
f 995/1033/19 999/1037/17 1000/1038/17
f 995/1033/19 1000/1038/17 996/1034/19
f 997/1035/18 1001/1039/16 1002/1040/16
f 997/1035/18 1002/1040/16 998/1036/18
f 999/1037/17 1003/1041/15 1004/1042/15
f 999/1037/17 1004/1042/15 1000/1038/17
f 1005/1043/16 1006/1044/14 1007/1045/14
f 1005/1043/16 1007/1045/14 1008/1046/16
f 1009/1047/34 1010/1048/13 1011/1049/13
f 1009/1047/34 1011/1049/13 1012/1050/34
f 1003/1041/15 1013/1051/12 1014/1052/12
f 1003/1041/15 1014/1052/12 1004/1042/15
f 1006/1044/14 1015/1053/10 1016/1054/10
f 1006/1044/14 1016/1054/10 1007/1045/14
f 1010/1048/13 1017/1055/9 1018/1056/9
f 1010/1048/13 1018/1056/9 1011/1049/13
f 1013/1051/12 961/999/11 962/1000/11
f 1013/1051/12 962/1000/11 1014/1052/12
f 1015/1053/10 1019/1057/6 1020/1058/6
f 1015/1053/10 1020/1058/6 1016/1054/10
f 1017/1055/9 1021/1059/4 1022/1060/4
f 1017/1055/9 1022/1060/4 1018/1056/9
f 858/990/7 1009/1047/34 1012/1050/34
f 858/990/7 1012/1050/34 859/991/7
f 1019/1057/6 963/1001/5 966/1004/5
f 1019/1057/6 966/1004/5 1020/1058/6
f 1021/1059/4 967/1005/3 970/1008/3
f 1021/1059/4 970/1008/3 1022/1060/4
