# Blender v3.5.0 OBJ File: ''
# www.blender.org
mtllib Rand2.mtl
o TEMPLE.009_d605deea_0
v -7.856837 7.439906 -85.885162
v 0.548797 7.439906 -86.298103
v 0.548797 25.595058 -86.298111
v -7.856837 25.595058 -85.885170
v -53.854729 7.439912 -66.832207
v -47.095112 7.439910 -71.845482
v -47.095112 25.595064 -71.845490
v -53.854729 25.595064 -66.832214
v 33.366493 7.439908 -79.770256
v 40.974258 7.439909 -76.172050
v 40.974258 25.595062 -76.172058
v 33.366493 25.595060 -79.770264
v 17.279116 7.439957 83.567657
v 8.954432 7.439958 84.802505
v 8.954432 25.595110 84.802498
v 17.279116 25.595110 83.567650
v -60.090401 7.439913 -61.180538
v -60.090401 25.595066 -61.180542
v 25.442671 7.439907 -82.605446
v 25.442671 25.595060 -82.605453
v 25.442671 7.439957 81.522789
v 25.442671 25.595110 81.522781
v -65.742081 7.439915 -54.944866
v -65.742081 25.595068 -54.944870
v 17.279116 7.439906 -84.650314
v 17.279116 25.595060 -84.650322
v 33.366493 7.439956 78.687599
v 33.366493 25.595108 78.687592
v -70.755348 7.439917 -48.185246
v -70.755348 25.595070 -48.185249
v 8.954432 7.439906 -85.885162
v 8.954432 25.595058 -85.885170
v 40.974258 7.439955 75.089394
v 40.974258 25.595108 75.089386
v -75.081924 7.439919 -40.966797
v -75.081924 25.595072 -40.966801
v 48.192707 7.439953 70.762825
v 48.192707 25.595106 70.762817
v -78.680130 7.439922 -33.359035
v -78.680130 25.595076 -33.359039
v 54.952320 7.439952 65.749550
v 54.952320 25.595104 65.749542
v -81.515320 7.439924 -25.435209
v -81.515320 25.595078 -25.435215
v 61.187996 7.439950 60.097874
v 61.187996 25.595104 60.097870
v -83.560181 7.439927 -17.271648
v -83.560181 25.595079 -17.271654
v 66.839668 7.439948 53.862202
v 66.839668 25.595102 53.862198
v -84.795029 7.439929 -8.946964
v -84.795029 25.595083 -8.946970
v 71.852936 7.439946 47.102581
v 71.852936 25.595098 47.102577
v -85.207970 7.439932 -0.541330
v -85.207970 25.595085 -0.541335
v 76.179512 7.439944 39.884132
v 76.179512 25.595097 39.884129
v -84.795029 7.439934 7.864303
v -84.795029 25.595087 7.864298
v 79.777718 7.439942 32.276371
v 76.179512 7.439944 39.884132
v 76.179512 25.595097 39.884129
v 79.777718 25.595095 32.276367
v -83.560181 7.439937 16.188990
v -83.560181 25.595091 16.188984
v 82.612907 7.439939 24.352549
v 82.612907 25.595093 24.352543
v -81.515320 7.439939 24.352549
v -81.515320 25.595093 24.352543
v 84.657776 7.439937 16.188990
v 84.657776 25.595091 16.188984
v -78.680130 7.439942 32.276371
v -78.680130 25.595095 32.276367
v 85.892624 7.439934 7.864303
v 85.892624 25.595087 7.864298
v -75.081924 7.439944 39.884132
v -75.081924 25.595097 39.884129
v 86.305557 7.439932 -0.541330
v 86.305557 25.595085 -0.541335
v -70.755348 7.439946 47.102581
v -70.755348 25.595098 47.102577
v 85.892624 7.439929 -8.946964
v 85.892624 25.595083 -8.946970
v -65.742081 7.439948 53.862202
v -65.742081 25.595102 53.862198
v 84.657776 7.439927 -17.271648
v 84.657776 25.595079 -17.271654
v -60.090401 7.439950 60.097874
v -60.090401 25.595104 60.097870
v 82.612907 7.439924 -25.435209
v 82.612907 25.595078 -25.435215
v -53.854729 7.439952 65.749550
v -53.854729 25.595104 65.749542
v 79.777718 7.439922 -33.359035
v 79.777718 25.595076 -33.359039
v -47.095112 7.439953 70.762825
v -47.095112 25.595106 70.762817
v 76.179512 7.439919 -40.966797
v 76.179512 25.595072 -40.966801
v -39.876667 7.439955 75.089394
v -39.876667 25.595108 75.089386
v 71.852936 7.439917 -48.185246
v 71.852936 25.595070 -48.185249
v -32.268902 7.439956 78.687599
v -32.268902 25.595108 78.687592
v -16.181515 7.439906 -84.650314
v -16.181515 25.595060 -84.650322
v 66.839668 7.439915 -54.944866
v 66.839668 25.595068 -54.944870
v -24.345079 7.439957 81.522789
v -24.345079 25.595110 81.522781
v -24.345079 7.439907 -82.605446
v -24.345079 25.595060 -82.605453
v 61.187996 7.439913 -61.180538
v 61.187996 25.595066 -61.180542
v -16.181515 7.439957 83.567657
v -16.181515 25.595110 83.567650
v -32.268902 7.439908 -79.770256
v -32.268902 25.595060 -79.770264
v 54.952320 7.439912 -66.832207
v 54.952320 25.595064 -66.832214
v -7.856837 7.439958 84.802505
v -7.856837 25.595110 84.802498
v -39.876667 7.439909 -76.172050
v -39.876667 25.595062 -76.172058
v 48.192707 7.439910 -71.845482
v 48.192707 25.595064 -71.845490
v 0.548797 7.439958 85.215446
v 0.548797 25.595112 85.215439
v -6.834118 43.298321 -75.501335
v -7.557288 35.717270 -82.843811
v 0.548797 35.717270 -83.242035
v 0.548797 43.298321 -75.864029
v -14.145927 43.298321 -74.416725
v -15.585306 35.717274 -81.652962
v -21.316223 43.298321 -72.620667
v -23.457947 35.717274 -79.680977
v -28.275951 43.298321 -70.130440
v -31.099396 35.717274 -76.946823
v -34.958073 43.298325 -66.970024
v -38.436043 35.717274 -73.476837
v -41.298244 43.298325 -63.169861
v -45.397251 35.717274 -69.304459
v -47.235416 43.298325 -58.766563
v -51.915977 35.717278 -64.469833
v -52.712387 43.298328 -53.802528
v -57.929432 35.717278 -59.019573
v -57.676426 43.298328 -48.325558
v -63.379704 35.717281 -53.006123
v -62.079723 43.298332 -42.388386
v -68.214317 35.717281 -46.487389
v -65.879875 43.298332 -36.048210
v -72.386703 35.717285 -39.526184
v -69.040283 43.298336 -29.366091
v -75.856682 35.717285 -32.189533
v -71.530518 43.298336 -22.406361
v -78.590828 35.717289 -24.548088
v -73.326584 43.298340 -15.236070
v -80.562820 35.717293 -16.675447
v -74.411194 43.298340 -7.924256
v -81.753670 35.717293 -8.647425
v -74.773880 43.298344 -0.541340
v -82.151901 35.717297 -0.541338
v -74.411194 43.298347 6.841574
v -81.753670 35.717300 7.564747
v -73.326584 43.298347 14.153389
v -80.562820 35.717300 15.592771
v -71.530518 43.298351 21.323681
v -78.590836 35.717304 23.465406
v -69.040283 43.298351 28.283407
v -75.856682 35.717304 31.106853
v -65.879875 43.298355 34.965530
v -72.386703 35.717308 38.443504
v -62.079723 43.298355 41.305706
v -68.214317 35.717312 45.404709
v -57.676422 43.298359 47.242874
v -63.379700 35.717312 51.923435
v -52.712387 43.298359 52.719849
v -57.929432 35.717316 57.936893
v -47.235416 43.298363 57.683887
v -51.915977 35.717316 63.387165
v -41.298244 43.298363 62.087185
v -45.397251 35.717316 68.221786
v -34.958073 43.298363 65.887337
v -38.436043 35.717319 72.394165
v -28.275951 43.298363 69.047752
v -31.099396 35.717319 75.864159
v -21.316223 43.298367 71.537979
v -23.457947 35.717319 78.598305
v -14.145927 43.298367 73.334038
v -15.585306 35.717319 80.570290
v -6.834118 43.298367 74.418648
v -7.557288 35.717319 81.761139
v 0.548797 43.298367 74.781342
v 0.548797 35.717323 82.159363
v 7.931711 43.298367 74.418648
v 8.654882 35.717319 81.761139
v 15.243525 43.298367 73.334038
v 16.682903 35.717319 80.570290
v 22.413816 43.298367 71.537979
v 24.555538 35.717319 78.598297
v 29.373543 43.298363 69.047752
v 32.196987 35.717319 75.864151
v 36.055664 43.298363 65.887337
v 39.533634 35.717319 72.394165
v 42.395836 43.298363 62.087181
v 46.494843 35.717316 68.221786
v 48.333008 43.298363 57.683884
v 53.013565 35.717316 63.387161
v 53.809975 43.298359 52.719849
v 59.027023 35.717316 57.936893
v 58.774010 43.298359 47.242874
v 64.477287 35.717312 51.923435
v 63.177307 43.298355 41.305706
v 69.311905 35.717312 45.404709
v 66.977470 43.298355 34.965530
v 73.484291 35.717308 38.443504
v 70.137878 43.298351 28.283407
v 76.954269 35.717304 31.106853
v 73.484291 35.717308 38.443504
v 66.977470 43.298355 34.965530
v 72.628113 43.298351 21.323681
v 79.688431 35.717304 23.465406
v 74.424171 43.298347 14.153389
v 81.660416 35.717300 15.592771
v 75.508781 43.298347 6.841574
v 82.851257 35.717300 7.564747
v 75.871475 43.298344 -0.541340
v 83.249489 35.717297 -0.541338
v 75.508781 43.298340 -7.924256
v 82.851257 35.717293 -8.647425
v 74.424171 43.298340 -15.236070
v 81.660416 35.717293 -16.675447
v 72.628113 43.298336 -22.406363
v 79.688431 35.717289 -24.548088
v 70.137878 43.298336 -29.366091
v 76.954269 35.717285 -32.189533
v 66.977470 43.298332 -36.048210
v 73.484291 35.717285 -39.526184
v 63.177307 43.298332 -42.388386
v 69.311905 35.717281 -46.487389
v 58.774010 43.298328 -48.325558
v 64.477287 35.717281 -53.006115
v 53.809975 43.298328 -53.802528
v 59.027023 35.717278 -59.019573
v 48.333008 43.298325 -58.766567
v 53.013573 35.717278 -64.469841
v 42.395836 43.298325 -63.169865
v 46.494843 35.717274 -69.304459
v 36.055664 43.298325 -66.970024
v 39.533634 35.717274 -73.476837
v 29.373543 43.298321 -70.130440
v 32.196987 35.717274 -76.946831
v 22.413816 43.298321 -72.620667
v 24.555538 35.717274 -79.680969
v 15.243525 43.298321 -74.416725
v 16.682903 35.717274 -81.652962
v 7.931711 43.298321 -75.501335
v 8.654882 35.717270 -82.843811
v -31.055691 63.982567 20.576099
v -32.973381 63.982563 17.376631
v -29.742046 63.982563 15.649446
v -28.009212 63.982563 18.540506
v 38.559181 63.982559 -0.541346
v 38.376156 63.982559 3.184323
v 34.729828 63.982559 2.825191
v 34.895214 63.982559 -0.541346
v -34.568230 63.982563 14.004604
v -31.183163 63.982563 12.602465
v 37.828823 63.982563 6.874115
v 34.235260 63.982559 6.159310
v -35.824883 63.982563 10.492490
v -32.318680 63.982563 9.428895
v 36.922470 63.982563 10.492490
v 33.416267 63.982563 9.428895
v -36.731239 63.982563 6.874115
v -33.137669 63.982559 6.159310
v 35.665817 63.982563 14.004604
v 32.280746 63.982563 12.602465
v -37.278572 63.982559 3.184323
v -33.632244 63.982559 2.825191
v 34.070969 63.982563 17.376631
v 30.839630 63.982563 15.649446
v -37.461597 63.982559 -0.541346
v -33.797623 63.982559 -0.541346
v 34.070969 63.982563 17.376631
v 32.153278 63.982567 20.576099
v 29.106796 63.982563 18.540506
v 30.839630 63.982563 15.649446
v -37.278572 63.982559 -4.267017
v -33.632244 63.982559 -3.907885
v 29.931221 63.982567 23.572199
v 27.098930 63.982567 21.247797
v -36.731239 63.982555 -7.956807
v -33.137669 63.982555 -7.242001
v 27.426201 63.982567 26.336063
v 24.835379 63.982567 23.745245
v -35.824883 63.982555 -11.575180
v -32.318680 63.982555 -10.511586
v 24.662334 63.982567 28.841084
v 22.337936 63.982567 26.008795
v -34.568230 63.982555 -15.087296
v -31.183163 63.982555 -13.685156
v 21.666241 63.982567 31.063141
v 19.630648 63.982567 28.016661
v -32.973381 63.982555 -18.459322
v -29.742046 63.982555 -16.732138
v 18.466772 63.982571 32.980831
v 16.739588 63.982567 29.749493
v 0.548796 63.982548 -38.551743
v 4.274467 63.982548 -38.368713
v 3.915334 63.982548 -34.722389
v 0.548796 63.982548 -34.887772
v -31.055691 63.982552 -21.658792
v -28.009212 63.982552 -19.623198
v 15.094746 63.982571 34.575680
v 13.692604 63.982567 31.190609
v 7.964256 63.982548 -37.821384
v 7.249451 63.982548 -34.227814
v -28.833635 63.982552 -24.654894
v -26.001347 63.982552 -22.330490
v 11.582629 63.982571 35.832333
v 10.519034 63.982571 32.326130
v 11.582629 63.982548 -36.915028
v 10.519034 63.982548 -33.408825
v -26.328615 63.982552 -27.418758
v -23.737795 63.982552 -24.827940
v 7.964256 63.982571 36.738689
v 7.249451 63.982571 33.145119
v 15.094746 63.982548 -35.658375
v 13.692604 63.982548 -32.273304
v -23.564745 63.982552 -29.923779
v -21.240345 63.982552 -27.091490
v 4.274467 63.982571 37.286018
v 3.915334 63.982571 33.639694
v 18.466772 63.982548 -34.063526
v 16.739588 63.982552 -30.832188
v -20.568645 63.982548 -32.145836
v -18.533052 63.982552 -29.099356
v 0.548796 63.982571 37.469048
v 0.548796 63.982571 33.805077
v 21.666241 63.982548 -32.145836
v 19.630648 63.982552 -29.099356
v -17.369177 63.982548 -34.063526
v -15.641994 63.982552 -30.832188
v -3.176874 63.982571 37.286018
v -2.817742 63.982571 33.639694
v 24.662334 63.982552 -29.923779
v 22.337936 63.982552 -27.091490
v -13.997151 63.982548 -35.658375
v -12.595011 63.982548 -32.273304
v -6.866663 63.982571 36.738689
v -6.151857 63.982571 33.145119
v 27.426201 63.982552 -27.418758
v 24.835379 63.982552 -24.827940
v -10.485039 63.982548 -36.915028
v -9.421444 63.982548 -33.408825
v -10.485039 63.982571 35.832333
v -9.421444 63.982571 32.326130
v 29.931221 63.982552 -24.654894
v 27.098930 63.982552 -22.330490
v -6.866663 63.982548 -37.821384
v -6.151857 63.982548 -34.227814
v -13.997151 63.982571 34.575680
v -12.595011 63.982567 31.190609
v 32.153278 63.982552 -21.658792
v 29.106796 63.982552 -19.623198
v -3.176874 63.982548 -38.368713
v -2.817742 63.982548 -34.722389
v -17.369177 63.982571 32.980831
v -15.641994 63.982567 29.749493
v 34.070969 63.982555 -18.459322
v 30.839630 63.982555 -16.732138
v -20.568645 63.982567 31.063141
v -18.533052 63.982567 28.016661
v 35.665817 63.982555 -15.087296
v 32.280746 63.982555 -13.685156
v -23.564745 63.982567 28.841084
v -21.240345 63.982567 26.008795
v 36.922470 63.982555 -11.575180
v 33.416267 63.982555 -10.511586
v -26.328615 63.982567 26.336063
v -23.737795 63.982567 23.745245
v 37.828823 63.982555 -7.956807
v 34.235260 63.982555 -7.242001
v -28.833635 63.982567 23.572199
v -26.001347 63.982567 21.247797
v 38.376156 63.982559 -4.267017
v 34.729828 63.982559 -3.907885
v -10.932248 63.982548 13.448344
v -12.248192 63.982548 12.255644
v -6.503392 63.982544 6.510842
v -5.778199 63.982544 7.168118
v 17.867188 63.982544 -5.794824
v 18.298727 63.982544 -4.072027
v 10.330461 63.982540 -2.487041
v 10.092649 63.982540 -3.436442
v -13.440894 63.982548 10.939700
v -7.160668 63.982540 5.785650
v 18.559322 63.982544 -2.315229
v 10.474071 63.982540 -1.518901
v -14.498871 63.982548 9.513185
v -7.743700 63.982540 4.999523
v 18.646467 63.982544 -0.541346
v 10.522095 63.982540 -0.541346
v -15.411926 63.982548 7.989839
v -8.246868 63.982540 4.160035
v 18.559322 63.982544 1.232536
v 10.474071 63.982540 0.436208
v -16.171274 63.982548 6.384336
v -8.665332 63.982540 3.275272
v 18.298727 63.982544 2.989335
v 10.330461 63.982540 1.404348
v -16.769596 63.982544 4.712131
v -8.995058 63.982540 2.353750
v 17.867188 63.982544 4.712131
v 10.092649 63.982540 2.353750
v -17.201136 63.982544 2.989335
v -9.232870 63.982540 1.404348
v 17.268864 63.982548 6.384336
v 9.762923 63.982540 3.275272
v -17.461735 63.982544 1.232536
v -9.376481 63.982540 0.436208
v 16.509518 63.982548 7.989839
v 9.344460 63.982540 4.160035
v -17.548876 63.982544 -0.541346
v -9.424502 63.982540 -0.541346
v 16.509518 63.982548 7.989839
v 15.596462 63.982548 9.513185
v 8.841291 63.982540 4.999523
v 9.344460 63.982540 4.160035
v -17.461735 63.982544 -2.315229
v -9.376481 63.982540 -1.518901
v 14.538483 63.982548 10.939700
v 8.258260 63.982540 5.785650
v -17.201136 63.982544 -4.072027
v -9.232870 63.982540 -2.487041
v 13.345782 63.982548 12.255644
v 7.600984 63.982544 6.510842
v -16.769596 63.982544 -5.794824
v -8.995058 63.982540 -3.436442
v 12.029839 63.982548 13.448344
v 6.875791 63.982544 7.168118
v -16.171274 63.982540 -7.467028
v -8.665332 63.982540 -4.357964
v 10.603326 63.982548 14.506321
v 6.089665 63.982544 7.751150
v -15.411926 63.982540 -9.072531
v -8.246868 63.982540 -5.242727
v 9.079981 63.982548 15.419378
v 5.250177 63.982544 8.254321
v 0.548796 63.982540 -18.639021
v 2.322679 63.982540 -18.551876
v 1.526351 63.982536 -10.466622
v 0.548796 63.982536 -10.514647
v -14.498871 63.982540 -10.595876
v -7.743700 63.982540 -6.082216
v 7.474477 63.982548 16.178726
v 4.365414 63.982544 8.672782
v 4.079477 63.982540 -18.291277
v 2.494491 63.982536 -10.323010
v -13.440894 63.982540 -12.022392
v -7.160668 63.982536 -6.868342
v 5.802273 63.982548 16.777050
v 3.443892 63.982544 9.002509
v 5.802273 63.982540 -17.859739
v 3.443892 63.982536 -10.085198
v -12.248192 63.982540 -13.338336
v -6.503392 63.982536 -7.593535
v 4.079477 63.982548 17.208586
v 2.494491 63.982544 9.240320
v 7.474477 63.982540 -17.261415
v 4.365414 63.982536 -9.755473
v -10.932247 63.982540 -14.531036
v -5.778199 63.982536 -8.250812
v 2.322679 63.982548 17.469187
v 1.526351 63.982544 9.383931
v 9.079981 63.982540 -16.502071
v 5.250177 63.982536 -9.337011
v -9.505733 63.982540 -15.589012
v -4.992072 63.982536 -8.833842
v 0.548796 63.982548 17.556328
v 0.548796 63.982544 9.431954
v 10.603326 63.982540 -15.589012
v 6.089665 63.982536 -8.833842
v -7.982387 63.982540 -16.502071
v -4.152584 63.982536 -9.337011
v -1.225086 63.982548 17.469187
v -0.428758 63.982544 9.383931
v 12.029839 63.982540 -14.531036
v 6.875791 63.982536 -8.250812
v -6.376884 63.982540 -17.261415
v -3.267821 63.982536 -9.755473
v -2.981884 63.982548 17.208586
v -1.396898 63.982544 9.240320
v 13.345782 63.982540 -13.338336
v 7.600984 63.982536 -7.593535
v -4.704681 63.982540 -17.859739
v -2.346300 63.982536 -10.085198
v -4.704681 63.982548 16.777050
v -2.346300 63.982544 9.002509
v 14.538483 63.982540 -12.022392
v 8.258260 63.982536 -6.868342
v -2.981884 63.982540 -18.291277
v -1.396898 63.982536 -10.323010
v -6.376884 63.982548 16.178726
v -3.267821 63.982544 8.672782
v 15.596462 63.982540 -10.595876
v 8.841291 63.982540 -6.082216
v -1.225086 63.982540 -18.551876
v -0.428758 63.982536 -10.466622
v -7.982387 63.982548 15.419378
v -4.152584 63.982544 8.254321
v 16.509518 63.982540 -9.072531
v 9.344460 63.982540 -5.242727
v -9.505733 63.982548 14.506321
v -4.992072 63.982544 7.751150
v 17.268864 63.982540 -7.467028
v 9.762923 63.982540 -4.357964
v 24.774805 63.982548 -10.576091
v 25.641727 63.982548 -8.153205
v -14.019393 63.982559 21.261490
v -16.086298 63.982559 19.728571
v 23.674574 63.982548 -12.902334
v -11.812189 63.982559 22.584436
v -2.021414 63.982544 -26.637135
v 0.548796 63.982544 -26.763399
v 22.351631 63.982548 -15.109538
v -9.485948 63.982559 23.684668
v -4.566871 63.982544 -26.259548
v 20.818707 63.982548 -17.176441
v -7.063063 63.982559 24.551594
v -7.063063 63.982544 -25.634285
v 19.090580 63.982544 -19.083136
v -4.566871 63.982559 25.176853
v -9.485948 63.982544 -24.767361
v 17.183887 63.982544 -20.811262
v -2.021414 63.982559 25.554440
v -11.812189 63.982544 -23.667130
v 15.116987 63.982544 -22.344183
v 0.548796 63.982559 25.680704
v -14.019393 63.982544 -22.344183
v 12.909784 63.982544 -23.667130
v 3.119006 63.982559 25.554440
v -16.086296 63.982544 -20.811262
v 10.583540 63.982544 -24.767361
v 5.664464 63.982559 25.176853
v -17.992992 63.982544 -19.083136
v 8.160654 63.982544 -25.634285
v 8.160654 63.982559 24.551594
v -19.721119 63.982548 -17.176441
v 5.664464 63.982544 -26.259548
v 10.583540 63.982559 23.684668
v -21.254040 63.982548 -15.109538
v 3.119006 63.982544 -26.637135
v 12.909784 63.982559 22.584436
v -22.576986 63.982548 -12.902334
v 15.116987 63.982559 21.261490
v -23.677216 63.982548 -10.576091
v 17.183887 63.982559 19.728571
v -24.544140 63.982548 -8.153205
v 19.090580 63.982555 18.000444
v -25.169403 63.982552 -5.657014
v 20.818707 63.982555 16.093748
v -25.546986 63.982552 -3.111557
v 22.351631 63.982555 14.026846
v -25.673252 63.982552 -0.541346
v 23.674574 63.982555 11.819642
v -25.546986 63.982552 2.028863
v 24.774805 63.982555 9.493400
v 23.674574 63.982555 11.819642
v -25.169403 63.982552 4.574323
v 25.641727 63.982555 7.070512
v -24.544140 63.982555 7.070512
v 26.266991 63.982552 4.574323
v -23.677216 63.982555 9.493400
v 26.644573 63.982552 2.028863
v -22.576986 63.982555 11.819642
v 26.770840 63.982552 -0.541346
v -21.254040 63.982555 14.026846
v 26.644573 63.982552 -3.111557
v -19.721119 63.982555 16.093748
v 26.266991 63.982552 -5.657014
v -17.992992 63.982555 18.000444
vt -0.627549 0.535458
vt -0.548147 0.535457
vt -0.548147 0.453516
vt -0.627549 0.453516
vt 2.389725 0.535457
vt 2.469127 0.535457
vt 2.469127 0.453515
vt 2.389725 0.453515
vt -0.468745 0.535457
vt -0.468745 0.453516
vt 2.548529 0.535457
vt 2.548529 0.453515
vt -0.389344 0.535457
vt -0.389344 0.453516
vt 2.627932 0.535457
vt 2.627931 0.453515
vt -0.309942 0.535457
vt -0.309942 0.453516
vt 2.707334 0.535457
vt 2.707333 0.453515
vt -0.230540 0.535457
vt -0.230540 0.453516
vt 2.786736 0.535457
vt 2.786736 0.453515
vt -0.151138 0.535457
vt -0.151138 0.453516
vt -2.294984 0.535458
vt -2.215582 0.535458
vt -2.215583 0.453516
vt -2.294984 0.453516
vt -0.071736 0.535457
vt -0.071736 0.453516
vt -2.136181 0.535458
vt -2.136181 0.453516
vt 0.007666 0.535457
vt 0.007666 0.453516
vt -2.056779 0.535458
vt -2.056779 0.453516
vt 0.087068 0.535457
vt 0.087068 0.453516
vt -1.977378 0.535458
vt -1.977378 0.453516
vt 0.166470 0.535457
vt 0.166470 0.453516
vt -1.897976 0.535458
vt -1.897976 0.453516
vt 0.245872 0.535457
vt 0.245872 0.453516
vt -1.818574 0.535458
vt -1.818574 0.453516
vt 1.119293 0.535457
vt 1.198695 0.535457
vt 1.198695 0.453515
vt 1.119293 0.453515
vt 0.325274 0.535457
vt 0.325274 0.453516
vt -1.739173 0.535458
vt -1.739173 0.453516
vt 1.278097 0.535457
vt 1.278097 0.453515
vt 0.404676 0.535457
vt 0.404676 0.453515
vt -1.659771 0.535458
vt -1.659771 0.453516
vt 1.357499 0.535457
vt 1.357499 0.453515
vt 0.484077 0.535457
vt 0.484077 0.453515
vt -1.580369 0.535458
vt -1.580369 0.453516
vt 1.436901 0.535457
vt 1.436901 0.453515
vt 0.563479 0.535457
vt 0.563479 0.453515
vt -1.500968 0.535458
vt -1.500968 0.453516
vt 1.516303 0.535457
vt 1.516303 0.453515
vt 0.642881 0.535457
vt 0.642881 0.453515
vt -1.421566 0.535458
vt -1.421566 0.453516
vt 1.595705 0.535457
vt 1.595705 0.453515
vt 0.722283 0.535457
vt 0.722283 0.453515
vt -1.342164 0.535458
vt -1.342164 0.453516
vt 1.675107 0.535457
vt 1.675107 0.453515
vt 0.801685 0.535457
vt 0.801685 0.453515
vt -1.262763 0.535458
vt -1.262763 0.453516
vt 1.754509 0.535457
vt 1.754509 0.453515
vt 0.881087 0.535457
vt 0.881087 0.453515
vt -1.183361 0.535458
vt -1.183361 0.453516
vt 1.833911 0.535457
vt 1.833911 0.453515
vt 0.960489 0.535457
vt 0.960489 0.453515
vt -1.103959 0.535458
vt -1.103959 0.453516
vt 1.913313 0.535457
vt 1.913313 0.453515
vt 1.039891 0.535457
vt 1.039891 0.453515
vt -1.024557 0.535458
vt -1.024557 0.453516
vt 1.992715 0.535457
vt 1.992715 0.453515
vt -0.945156 0.535458
vt -0.945156 0.453516
vt 2.072117 0.535457
vt 2.072117 0.453515
vt -0.865754 0.535457
vt -0.865754 0.453516
vt 2.151519 0.535457
vt 2.151519 0.453515
vt -0.786352 0.535458
vt -0.786352 0.453516
vt 2.230921 0.535457
vt 2.230921 0.453515
vt -0.706951 0.535458
vt -0.706951 0.453516
vt 2.310323 0.535457
vt 2.310323 0.453515
vt 0.456489 0.066881
vt 0.416770 0.066881
vt 0.416770 0.248576
vt 0.456489 0.248576
vt -1.052842 0.066881
vt -1.092561 0.066881
vt -1.092561 0.248576
vt -1.052842 0.248576
vt 0.377051 0.066881
vt 0.377051 0.248576
vt -1.132281 0.066881
vt -1.132281 0.248576
vt 0.337332 0.066881
vt 0.337332 0.248576
vt -1.172000 0.066881
vt -1.172000 0.248576
vt 0.297612 0.066881
vt 0.297612 0.248576
vt -1.211719 0.066881
vt -1.211719 0.248576
vt 0.257893 0.066881
vt 0.257893 0.248576
vt -1.251438 0.066881
vt -1.251438 0.248576
vt 0.218174 0.066881
vt 0.218174 0.248576
vt -1.291157 0.066881
vt -1.291157 0.248576
vt 0.178454 0.066881
vt 0.178454 0.248576
vt -1.330877 0.066881
vt -1.330877 0.248576
vt 0.138735 0.066881
vt 0.138735 0.248576
vt -1.370596 0.066881
vt -1.370596 0.248576
vt 0.099016 0.066881
vt 0.099016 0.248576
vt 1.171438 0.066881
vt 1.131718 0.066881
vt 1.131718 0.248576
vt 1.171438 0.248576
vt 0.059296 0.066881
vt 0.059296 0.248576
vt 1.091998 0.066881
vt 1.091998 0.248576
vt 0.019577 0.066881
vt 0.019577 0.248576
vt 1.052279 0.066881
vt 1.052279 0.248576
vt -0.020142 0.066881
vt -0.020142 0.248576
vt 1.012560 0.066881
vt 1.012560 0.248576
vt -0.059862 0.066881
vt -0.059862 0.248576
vt 0.972840 0.066881
vt 0.972840 0.248576
vt -0.099581 0.066881
vt -0.099581 0.248576
vt 0.933121 0.066881
vt 0.933121 0.248576
vt -0.536492 0.066881
vt -0.576212 0.066881
vt -0.576212 0.248576
vt -0.536492 0.248576
vt -0.139300 0.066881
vt -0.139300 0.248576
vt 0.893402 0.066881
vt 0.893402 0.248576
vt -0.615931 0.066881
vt -0.615931 0.248576
vt -0.179020 0.066881
vt -0.179020 0.248576
vt 0.853683 0.066881
vt 0.853683 0.248576
vt -0.655650 0.066881
vt -0.655650 0.248576
vt -0.218739 0.066881
vt -0.218739 0.248576
vt 0.813963 0.066881
vt 0.813963 0.248576
vt -0.695369 0.066881
vt -0.695369 0.248576
vt -0.258458 0.066881
vt -0.258458 0.248576
vt 0.774244 0.066881
vt 0.774244 0.248576
vt -0.735089 0.066881
vt -0.735089 0.248576
vt -0.298177 0.066881
vt -0.298177 0.248576
vt 0.734524 0.066881
vt 0.734524 0.248576
vt -0.774808 0.066881
vt -0.774808 0.248576
vt -0.337896 0.066881
vt -0.337896 0.248576
vt 0.694805 0.066881
vt 0.694805 0.248576
vt -0.814527 0.066881
vt -0.814527 0.248576
vt -0.377615 0.066881
vt -0.377615 0.248576
vt 0.655086 0.066881
vt 0.655086 0.248576
vt -0.854246 0.066881
vt -0.854246 0.248576
vt -0.417335 0.066881
vt -0.417335 0.248576
vt 0.615366 0.066881
vt 0.615366 0.248576
vt -0.893965 0.066881
vt -0.893965 0.248576
vt -0.457054 0.066881
vt -0.457054 0.248576
vt 0.575647 0.066881
vt 0.575647 0.248576
vt -0.933685 0.066881
vt -0.933685 0.248576
vt -0.496773 0.066881
vt -0.496773 0.248576
vt 0.535928 0.066881
vt 0.535928 0.248576
vt -0.973404 0.066881
vt -0.973404 0.248576
vt 0.496208 0.066881
vt 0.496208 0.248576
vt -1.013123 0.066881
vt -1.013123 0.248576
vt -1.013123 -0.114814
vt -1.052842 -0.114814
vt 0.496208 -0.114814
vt 0.456489 -0.114814
vt -0.973404 -0.114814
vt 0.535928 -0.114814
vt -0.496773 -0.114814
vt -0.536492 -0.114814
vt -0.933685 -0.114814
vt 0.575647 -0.114814
vt -0.457054 -0.114814
vt -0.893965 -0.114814
vt 0.615366 -0.114814
vt -0.417335 -0.114814
vt -0.854246 -0.114814
vt 0.655086 -0.114814
vt -0.377615 -0.114814
vt -0.814527 -0.114814
vt 0.694805 -0.114814
vt -0.337896 -0.114814
vt -0.774808 -0.114814
vt 0.734524 -0.114814
vt -0.298177 -0.114814
vt -0.735089 -0.114814
vt 0.774244 -0.114814
vt -0.258458 -0.114814
vt -0.695369 -0.114814
vt 0.813963 -0.114814
vt -0.218739 -0.114814
vt -0.655650 -0.114814
vt 0.853683 -0.114814
vt -0.179020 -0.114814
vt -0.615931 -0.114814
vt 0.893402 -0.114814
vt -0.139300 -0.114814
vt -0.576212 -0.114814
vt 0.933121 -0.114814
vt -0.099581 -0.114814
vt 0.972840 -0.114814
vt -0.059862 -0.114814
vt 1.012560 -0.114814
vt -0.020142 -0.114814
vt 1.052279 -0.114814
vt 0.019577 -0.114814
vt 1.091999 -0.114814
vt 0.059296 -0.114814
vt 1.131718 -0.114814
vt 0.099016 -0.114814
vt 1.171438 -0.114814
vt 0.138735 -0.114814
vt -1.330877 -0.114814
vt -1.370596 -0.114814
vt 0.178454 -0.114814
vt -1.291157 -0.114814
vt 0.218174 -0.114814
vt -1.251438 -0.114814
vt 0.257893 -0.114814
vt -1.211719 -0.114814
vt 0.297612 -0.114814
vt -1.172000 -0.114814
vt 0.337332 -0.114814
vt -1.132281 -0.114814
vt 0.377051 -0.114814
vt -1.092561 -0.114814
vt 0.416770 -0.114814
vt -2.230146 -0.103150
vt -2.457165 -0.103150
vt -2.457165 0.406638
vt -2.230146 0.406638
vt -0.868040 -0.103150
vt -1.095057 -0.103150
vt -1.095057 0.406638
vt -0.868040 0.406638
vt -3.365237 -0.103150
vt -3.592254 -0.103150
vt -3.592254 0.406638
vt -3.365237 0.406638
vt 5.261442 -0.103150
vt 5.034423 -0.103150
vt 5.034423 0.406638
vt 5.261442 0.406638
vt -0.641023 -0.103150
vt -0.641023 0.406638
vt -3.138219 -0.103150
vt -3.138219 0.406638
vt 5.488460 -0.103150
vt 5.488460 0.406638
vt -0.414007 -0.103150
vt -0.414007 0.406638
vt -2.911200 -0.103150
vt -2.911200 0.406638
vt 5.715477 -0.103150
vt 5.715477 0.406638
vt -0.186988 -0.103150
vt -0.186988 0.406638
vt -2.684183 -0.103150
vt -2.684183 0.406638
vt 5.942494 -0.103150
vt 5.942494 0.406638
vt 0.040029 -0.103150
vt 0.040029 0.406638
vt 6.169513 -0.103150
vt 6.169513 0.406638
vt 0.267047 -0.103150
vt 0.267047 0.406638
vt 6.396531 -0.103150
vt 6.396531 0.406638
vt 0.494066 -0.103150
vt 0.494066 0.406638
vt 6.623550 -0.103150
vt 6.623550 0.406638
vt 0.721084 -0.103150
vt 0.721084 0.406638
vt 6.850565 -0.103150
vt 6.850565 0.406638
vt 0.948101 -0.103150
vt 0.948101 0.406638
vt 7.077583 -0.103150
vt 7.077583 0.406638
vt 1.175120 -0.103150
vt 1.175120 0.406638
vt 7.304601 -0.103152
vt 7.304601 0.406638
vt 1.402137 -0.103150
vt 1.402137 0.406638
vt -6.997520 -0.103150
vt -7.224536 -0.103150
vt -7.224536 0.406638
vt -6.997520 0.406638
vt 1.629155 -0.103150
vt 1.629155 0.406638
vt -6.770502 -0.103150
vt -6.770502 0.406638
vt 1.856174 -0.103150
vt 1.856174 0.406638
vt -6.543485 -0.103150
vt -6.543485 0.406638
vt 2.083192 -0.103150
vt 2.083192 0.406638
vt -6.316466 -0.103150
vt -6.316466 0.406638
vt 2.310209 -0.103150
vt 2.310209 0.406638
vt -6.089449 -0.103150
vt -6.089449 0.406638
vt 2.537226 -0.103150
vt 2.537226 0.406638
vt -5.862433 -0.103150
vt -5.862433 0.406638
vt 2.764245 -0.103150
vt 2.764245 0.406638
vt -5.635414 -0.103150
vt -5.635414 0.406638
vt 2.991263 -0.103150
vt 2.991263 0.406638
vt -5.408397 -0.103150
vt -5.408397 0.406638
vt 3.218278 -0.103150
vt 3.218278 0.406638
vt -5.181378 -0.103150
vt -5.181378 0.406638
vt 3.445297 -0.103150
vt 3.445297 0.406638
vt -4.954362 -0.103150
vt -4.954362 0.406638
vt 3.672316 -0.103150
vt 3.672316 0.406638
vt -4.727343 -0.103150
vt -4.727343 0.406638
vt 3.899334 -0.103150
vt 3.899334 0.406638
vt -2.003129 -0.103150
vt -2.003129 0.406638
vt -4.500327 -0.103150
vt -4.500327 0.406638
vt 4.126352 -0.103150
vt 4.126352 0.406638
vt -1.776111 -0.103150
vt -1.776111 0.406638
vt -4.273308 -0.103150
vt -4.273308 0.406638
vt 4.353369 -0.103150
vt 4.353369 0.406638
vt -1.549092 -0.103150
vt -1.549092 0.406638
vt -4.046291 -0.103150
vt -4.046291 0.406638
vt 4.580386 -0.103150
vt 4.580386 0.406638
vt -1.322076 -0.103150
vt -1.322076 0.406638
vt -3.819273 -0.103150
vt -3.819273 0.406638
vt 4.807405 -0.103150
vt 4.807405 0.406638
vt -2.230147 1.000579
vt -2.230146 0.703536
vt -2.457165 0.703536
vt -2.457165 1.000579
vt -2.003130 1.000579
vt -2.003129 0.703536
vt -1.776111 1.000579
vt -1.776111 0.703536
vt -1.549093 1.000579
vt -1.549092 0.703536
vt -1.322076 1.000579
vt -1.322076 0.703536
vt -1.095057 1.000579
vt -1.095057 0.703536
vt -0.868040 1.000579
vt -0.868040 0.703536
vt -0.641023 1.000579
vt -0.641023 0.703536
vt -0.414006 1.000579
vt -0.414007 0.703536
vt -0.186988 1.000579
vt -0.186988 0.703536
vt 0.040029 1.000579
vt 0.040029 0.703536
vt 0.267047 1.000579
vt 0.267047 0.703536
vt 0.494066 1.000579
vt 0.494066 0.703536
vt 0.721084 1.000579
vt 0.721084 0.703536
vt 0.948101 1.000579
vt 0.948101 0.703536
vt 1.175120 1.000579
vt 1.175120 0.703536
vt 1.402137 1.000579
vt 1.402137 0.703536
vt 1.629155 1.000579
vt 1.629155 0.703536
vt 1.856174 1.000579
vt 1.856174 0.703536
vt 2.083192 1.000579
vt 2.083192 0.703536
vt 2.310209 1.000579
vt 2.310209 0.703536
vt 2.537226 1.000579
vt 2.537226 0.703536
vt 2.764244 1.000579
vt 2.764245 0.703536
vt 2.991263 1.000579
vt 2.991263 0.703536
vt 3.218278 1.000579
vt 3.218278 0.703536
vt 3.445297 1.000579
vt 3.445297 0.703536
vt 3.672316 1.000579
vt 3.672316 0.703536
vt 3.899334 1.000579
vt 3.899334 0.703536
vt 4.126352 1.000579
vt 4.126352 0.703536
vt 4.353369 1.000579
vt 4.353369 0.703536
vt 4.580386 1.000579
vt 4.580386 0.703536
vt 4.807405 1.000579
vt 4.807405 0.703536
vt 5.034423 1.000579
vt 5.034423 0.703536
vt 5.261442 1.000579
vt 5.261442 0.703536
vt 5.488460 1.000579
vt 5.488460 0.703536
vt 5.715477 1.000579
vt 5.715477 0.703536
vt 5.942494 1.000579
vt 5.942494 0.703536
vt 6.169513 1.000579
vt 6.169513 0.703536
vt 6.396531 1.000579
vt 6.396531 0.703536
vt 6.623550 1.000579
vt 6.623550 0.703536
vt 6.850565 1.000579
vt 6.850565 0.703536
vt 7.077583 1.000579
vt 7.077583 0.703536
vt 7.304601 1.000579
vt 7.304601 0.703536
vt -6.997520 1.000579
vt -6.997520 0.703536
vt -7.224536 0.703536
vt -7.224536 1.000580
vt -6.770502 1.000579
vt -6.770502 0.703536
vt -6.543485 1.000579
vt -6.543485 0.703536
vt -6.316466 1.000579
vt -6.316466 0.703536
vt -6.089449 1.000579
vt -6.089449 0.703536
vt -5.862433 1.000579
vt -5.862433 0.703536
vt -5.635414 1.000579
vt -5.635414 0.703536
vt -5.408397 1.000579
vt -5.408397 0.703536
vt -5.181378 1.000579
vt -5.181378 0.703536
vt -4.954362 1.000579
vt -4.954362 0.703536
vt -4.727343 1.000579
vt -4.727343 0.703536
vt -4.500327 1.000579
vt -4.500327 0.703536
vt -4.273308 1.000579
vt -4.273308 0.703536
vt -4.046291 1.000579
vt -4.046291 0.703536
vt -3.819273 1.000579
vt -3.819273 0.703536
vt -3.592255 1.000579
vt -3.592254 0.703536
vt -3.365237 1.000579
vt -3.365237 0.703536
vt -3.138219 1.000579
vt -3.138219 0.703536
vt -2.911201 1.000579
vt -2.911200 0.703536
vt -2.684184 1.000579
vt -2.684183 0.703536
vn 0.0000 -1.0000 0.0000
vn 0.0980 0.0000 0.9952
vn 0.0000 0.0000 1.0000
vn -0.0000 -0.1454 0.9894
vn 0.0970 -0.1454 0.9846
vn 0.6344 0.0000 0.7730
vn 0.5556 0.0000 0.8315
vn 0.5497 -0.1454 0.8226
vn 0.6276 -0.1454 0.7648
vn -0.3827 0.0000 0.9239
vn -0.4714 0.0000 0.8819
vn -0.4664 -0.1454 0.8725
vn -0.3786 -0.1454 0.9141
vn -0.1951 -0.0000 -0.9808
vn -0.0980 -0.0000 -0.9952
vn -0.0970 -0.1454 -0.9846
vn -0.1930 -0.1454 -0.9704
vn 0.7071 0.0000 0.7071
vn 0.6996 -0.1454 0.6996
vn -0.2903 0.0000 0.9569
vn -0.2872 -0.1454 0.9468
vn -0.2903 -0.0000 -0.9569
vn -0.2872 -0.1454 -0.9468
vn 0.7730 0.0000 0.6344
vn 0.7648 -0.1454 0.6276
vn -0.1951 0.0000 0.9808
vn -0.1930 -0.1454 0.9704
vn -0.3827 -0.0000 -0.9239
vn -0.3786 -0.1454 -0.9141
vn 0.8315 0.0000 0.5556
vn 0.8226 -0.1454 0.5497
vn -0.0980 0.0000 0.9952
vn -0.0970 -0.1454 0.9846
vn -0.4714 -0.0000 -0.8819
vn -0.4664 -0.1454 -0.8725
vn 0.8819 0.0000 0.4714
vn 0.8725 -0.1454 0.4664
vn -0.5556 -0.0000 -0.8315
vn -0.5497 -0.1454 -0.8226
vn 0.9239 0.0000 0.3827
vn 0.9141 -0.1454 0.3786
vn -0.6344 -0.0000 -0.7730
vn -0.6276 -0.1454 -0.7648
vn 0.9569 0.0000 0.2903
vn 0.9468 -0.1454 0.2872
vn -0.7071 -0.0000 -0.7071
vn -0.6996 -0.1454 -0.6996
vn 0.9808 0.0000 0.1951
vn 0.9704 -0.1454 0.1930
vn -0.7730 -0.0000 -0.6344
vn -0.7648 -0.1454 -0.6276
vn 0.9952 0.0000 0.0980
vn 0.9846 -0.1454 0.0970
vn -0.8315 -0.0000 -0.5556
vn -0.8226 -0.1454 -0.5497
vn 1.0000 -0.0000 0.0000
vn 0.9894 -0.1454 -0.0000
vn -0.8819 -0.0000 -0.4714
vn -0.8725 -0.1454 -0.4664
vn 0.9952 -0.0000 -0.0980
vn 0.9846 -0.1454 -0.0970
vn -0.9239 -0.0000 -0.3827
vn -0.9141 -0.1454 -0.3786
vn 0.9808 -0.0000 -0.1951
vn 0.9704 -0.1454 -0.1930
vn -0.9569 -0.0000 -0.2903
vn -0.9468 -0.1454 -0.2872
vn 0.9569 -0.0000 -0.2903
vn 0.9468 -0.1454 -0.2872
vn -0.9808 -0.0000 -0.1951
vn -0.9704 -0.1454 -0.1930
vn 0.9239 -0.0000 -0.3827
vn 0.9141 -0.1454 -0.3786
vn -0.9952 -0.0000 -0.0980
vn -0.9846 -0.1454 -0.0970
vn 0.8819 0.0000 -0.4714
vn 0.8725 -0.1454 -0.4664
vn -1.0000 -0.0000 0.0000
vn -0.9894 -0.1454 0.0000
vn 0.8315 -0.0000 -0.5556
vn 0.8226 -0.1454 -0.5497
vn -0.9952 -0.0000 0.0980
vn -0.9846 -0.1454 0.0970
vn 0.7730 -0.0000 -0.6344
vn 0.7648 -0.1454 -0.6276
vn -0.9808 0.0000 0.1951
vn -0.9704 -0.1454 0.1930
vn 0.7071 -0.0000 -0.7071
vn 0.6996 -0.1454 -0.6996
vn -0.9569 0.0000 0.2903
vn -0.9468 -0.1454 0.2872
vn 0.6344 -0.0000 -0.7730
vn 0.6276 -0.1454 -0.7648
vn -0.9239 -0.0000 0.3827
vn -0.9141 -0.1454 0.3786
vn 0.5556 -0.0000 -0.8315
vn 0.5497 -0.1454 -0.8226
vn -0.8819 -0.0000 0.4714
vn -0.8725 -0.1454 0.4664
vn 0.4714 -0.0000 -0.8819
vn 0.4664 -0.1454 -0.8725
vn -0.8315 0.0000 0.5556
vn -0.8226 -0.1454 0.5497
vn 0.3827 -0.0000 -0.9239
vn 0.3786 -0.1454 -0.9141
vn 0.1951 0.0000 0.9808
vn 0.1930 -0.1454 0.9704
vn -0.7730 0.0000 0.6344
vn -0.7648 -0.1454 0.6276
vn 0.2903 -0.0000 -0.9569
vn 0.2872 -0.1454 -0.9468
vn 0.2903 0.0000 0.9569
vn 0.2872 -0.1454 0.9468
vn -0.7071 0.0000 0.7071
vn -0.6996 -0.1454 0.6996
vn 0.1951 -0.0000 -0.9808
vn 0.1930 -0.1454 -0.9704
vn 0.3827 0.0000 0.9239
vn 0.3786 -0.1454 0.9141
vn -0.6344 0.0000 0.7730
vn -0.6276 -0.1454 0.7648
vn 0.0980 -0.0000 -0.9952
vn 0.0970 -0.1454 -0.9846
vn 0.4714 0.0000 0.8819
vn 0.4664 -0.1454 0.8725
vn -0.5556 0.0000 0.8315
vn -0.5497 -0.1454 0.8226
vn 0.0000 -0.0000 -1.0000
vn 0.0000 -0.1454 -0.9894
vn 0.0702 -0.6974 0.7132
vn 0.0846 -0.5045 0.8593
vn 0.0000 -0.5045 0.8634
vn -0.0000 -0.6974 0.7166
vn 0.1398 -0.6974 0.7029
vn 0.1684 -0.5045 0.8468
vn 0.2080 -0.6974 0.6858
vn 0.2506 -0.5045 0.8262
vn 0.2742 -0.6974 0.6621
vn 0.3304 -0.5045 0.7977
vn 0.3378 -0.6974 0.6320
vn 0.4070 -0.5045 0.7615
vn 0.3981 -0.6974 0.5959
vn 0.4797 -0.5045 0.7179
vn 0.4546 -0.6974 0.5540
vn 0.5477 -0.5045 0.6674
vn 0.5067 -0.6974 0.5067
vn 0.6105 -0.5045 0.6105
vn 0.5540 -0.6974 0.4546
vn 0.6674 -0.5045 0.5477
vn 0.5959 -0.6974 0.3981
vn 0.7179 -0.5045 0.4797
vn 0.6320 -0.6974 0.3378
vn 0.7615 -0.5045 0.4070
vn 0.6621 -0.6974 0.2742
vn 0.7977 -0.5045 0.3304
vn 0.6858 -0.6974 0.2080
vn 0.8262 -0.5045 0.2506
vn 0.7029 -0.6974 0.1398
vn 0.8468 -0.5045 0.1684
vn 0.7132 -0.6974 0.0702
vn 0.8593 -0.5045 0.0846
vn 0.7166 -0.6974 0.0000
vn 0.8634 -0.5045 0.0000
vn 0.7132 -0.6974 -0.0702
vn 0.8593 -0.5045 -0.0846
vn 0.7029 -0.6974 -0.1398
vn 0.8468 -0.5045 -0.1684
vn 0.6858 -0.6974 -0.2080
vn 0.8262 -0.5045 -0.2506
vn 0.6621 -0.6974 -0.2742
vn 0.7977 -0.5045 -0.3304
vn 0.6320 -0.6974 -0.3378
vn 0.7615 -0.5045 -0.4070
vn 0.5959 -0.6974 -0.3981
vn 0.7179 -0.5045 -0.4797
vn 0.5540 -0.6974 -0.4546
vn 0.6674 -0.5045 -0.5477
vn 0.5067 -0.6974 -0.5067
vn 0.6105 -0.5045 -0.6105
vn 0.4546 -0.6974 -0.5540
vn 0.5477 -0.5045 -0.6674
vn 0.3981 -0.6974 -0.5959
vn 0.4797 -0.5045 -0.7179
vn 0.3378 -0.6974 -0.6320
vn 0.4070 -0.5045 -0.7615
vn 0.2742 -0.6974 -0.6621
vn 0.3304 -0.5045 -0.7977
vn 0.2080 -0.6974 -0.6858
vn 0.2506 -0.5045 -0.8262
vn 0.1398 -0.6974 -0.7029
vn 0.1684 -0.5045 -0.8468
vn 0.0702 -0.6974 -0.7132
vn 0.0846 -0.5045 -0.8593
vn 0.0000 -0.6974 -0.7166
vn 0.0000 -0.5045 -0.8634
vn -0.0702 -0.6974 -0.7132
vn -0.0846 -0.5045 -0.8593
vn -0.1398 -0.6974 -0.7029
vn -0.1684 -0.5045 -0.8468
vn -0.2080 -0.6974 -0.6858
vn -0.2506 -0.5045 -0.8262
vn -0.2742 -0.6974 -0.6621
vn -0.3304 -0.5045 -0.7977
vn -0.3378 -0.6974 -0.6320
vn -0.4070 -0.5045 -0.7615
vn -0.3981 -0.6974 -0.5959
vn -0.4797 -0.5045 -0.7179
vn -0.4546 -0.6974 -0.5540
vn -0.5477 -0.5045 -0.6674
vn -0.5067 -0.6974 -0.5067
vn -0.6105 -0.5045 -0.6105
vn -0.5540 -0.6974 -0.4546
vn -0.6674 -0.5045 -0.5477
vn -0.5959 -0.6974 -0.3981
vn -0.7179 -0.5045 -0.4797
vn -0.6320 -0.6974 -0.3378
vn -0.7615 -0.5045 -0.4070
vn -0.6621 -0.6974 -0.2742
vn -0.7977 -0.5045 -0.3304
vn -0.6858 -0.6974 -0.2080
vn -0.8262 -0.5045 -0.2506
vn -0.7029 -0.6974 -0.1398
vn -0.8468 -0.5045 -0.1684
vn -0.7132 -0.6974 -0.0702
vn -0.8593 -0.5045 -0.0846
vn -0.7166 -0.6974 -0.0000
vn -0.8634 -0.5045 0.0000
vn -0.7132 -0.6974 0.0702
vn -0.8593 -0.5045 0.0846
vn -0.7029 -0.6974 0.1398
vn -0.8468 -0.5045 0.1684
vn -0.6858 -0.6974 0.2080
vn -0.8262 -0.5045 0.2506
vn -0.6621 -0.6974 0.2742
vn -0.7977 -0.5045 0.3304
vn -0.6320 -0.6974 0.3378
vn -0.7615 -0.5045 0.4070
vn -0.5959 -0.6974 0.3981
vn -0.7179 -0.5045 0.4797
vn -0.5540 -0.6974 0.4546
vn -0.6674 -0.5045 0.5477
vn -0.5067 -0.6974 0.5067
vn -0.6105 -0.5045 0.6105
vn -0.4546 -0.6974 0.5540
vn -0.5477 -0.5045 0.6674
vn -0.3981 -0.6974 0.5959
vn -0.4797 -0.5045 0.7179
vn -0.3378 -0.6974 0.6320
vn -0.4070 -0.5045 0.7615
vn -0.2742 -0.6974 0.6621
vn -0.3304 -0.5045 0.7977
vn -0.2080 -0.6974 0.6858
vn -0.2506 -0.5045 0.8262
vn -0.1398 -0.6974 0.7029
vn -0.1684 -0.5045 0.8468
vn -0.0702 -0.6974 0.7132
vn -0.0846 -0.5045 0.8593
usemtl d605deea
s off
f 261/1/1 262/2/1 263/3/1
f 261/1/1 263/3/1 264/4/1
f 265/5/1 266/6/1 267/7/1
f 265/5/1 267/7/1 268/8/1
f 262/2/1 269/9/1 270/10/1
f 262/2/1 270/10/1 263/3/1
f 266/6/1 271/11/1 272/12/1
f 266/6/1 272/12/1 267/7/1
f 269/9/1 273/13/1 274/14/1
f 269/9/1 274/14/1 270/10/1
f 271/11/1 275/15/1 276/16/1
f 271/11/1 276/16/1 272/12/1
f 273/13/1 277/17/1 278/18/1
f 273/13/1 278/18/1 274/14/1
f 275/15/1 279/19/1 280/20/1
f 275/15/1 280/20/1 276/16/1
f 277/17/1 281/21/1 282/22/1
f 277/17/1 282/22/1 278/18/1
f 279/19/1 283/23/1 284/24/1
f 279/19/1 284/24/1 280/20/1
f 281/21/1 285/25/1 286/26/1
f 281/21/1 286/26/1 282/22/1
f 287/27/1 288/28/1 289/29/1
f 287/27/1 289/29/1 290/30/1
f 285/25/1 291/31/1 292/32/1
f 285/25/1 292/32/1 286/26/1
f 288/28/1 293/33/1 294/34/1
f 288/28/1 294/34/1 289/29/1
f 291/31/1 295/35/1 296/36/1
f 291/31/1 296/36/1 292/32/1
f 293/33/1 297/37/1 298/38/1
f 293/33/1 298/38/1 294/34/1
f 295/35/1 299/39/1 300/40/1
f 295/35/1 300/40/1 296/36/1
f 297/37/1 301/41/1 302/42/1
f 297/37/1 302/42/1 298/38/1
f 299/39/1 303/43/1 304/44/1
f 299/39/1 304/44/1 300/40/1
f 301/41/1 305/45/1 306/46/1
f 301/41/1 306/46/1 302/42/1
f 303/43/1 307/47/1 308/48/1
f 303/43/1 308/48/1 304/44/1
f 305/45/1 309/49/1 310/50/1
f 305/45/1 310/50/1 306/46/1
f 311/51/1 312/52/1 313/53/1
f 311/51/1 313/53/1 314/54/1
f 307/47/1 315/55/1 316/56/1
f 307/47/1 316/56/1 308/48/1
f 309/49/1 317/57/1 318/58/1
f 309/49/1 318/58/1 310/50/1
f 312/52/1 319/59/1 320/60/1
f 312/52/1 320/60/1 313/53/1
f 315/55/1 321/61/1 322/62/1
f 315/55/1 322/62/1 316/56/1
f 317/57/1 323/63/1 324/64/1
f 317/57/1 324/64/1 318/58/1
f 319/59/1 325/65/1 326/66/1
f 319/59/1 326/66/1 320/60/1
f 321/61/1 327/67/1 328/68/1
f 321/61/1 328/68/1 322/62/1
f 323/63/1 329/69/1 330/70/1
f 323/63/1 330/70/1 324/64/1
f 325/65/1 331/71/1 332/72/1
f 325/65/1 332/72/1 326/66/1
f 327/67/1 333/73/1 334/74/1
f 327/67/1 334/74/1 328/68/1
f 329/69/1 335/75/1 336/76/1
f 329/69/1 336/76/1 330/70/1
f 331/71/1 337/77/1 338/78/1
f 331/71/1 338/78/1 332/72/1
f 333/73/1 339/79/1 340/80/1
f 333/73/1 340/80/1 334/74/1
f 335/75/1 341/81/1 342/82/1
f 335/75/1 342/82/1 336/76/1
f 337/77/1 343/83/1 344/84/1
f 337/77/1 344/84/1 338/78/1
f 339/79/1 345/85/1 346/86/1
f 339/79/1 346/86/1 340/80/1
f 341/81/1 347/87/1 348/88/1
f 341/81/1 348/88/1 342/82/1
f 343/83/1 349/89/1 350/90/1
f 343/83/1 350/90/1 344/84/1
f 345/85/1 351/91/1 352/92/1
f 345/85/1 352/92/1 346/86/1
f 347/87/1 353/93/1 354/94/1
f 347/87/1 354/94/1 348/88/1
f 349/89/1 355/95/1 356/96/1
f 349/89/1 356/96/1 350/90/1
f 351/91/1 357/97/1 358/98/1
f 351/91/1 358/98/1 352/92/1
f 353/93/1 359/99/1 360/100/1
f 353/93/1 360/100/1 354/94/1
f 355/95/1 361/101/1 362/102/1
f 355/95/1 362/102/1 356/96/1
f 357/97/1 363/103/1 364/104/1
f 357/97/1 364/104/1 358/98/1
f 359/99/1 365/105/1 366/106/1
f 359/99/1 366/106/1 360/100/1
f 361/101/1 367/107/1 368/108/1
f 361/101/1 368/108/1 362/102/1
f 363/103/1 369/109/1 370/110/1
f 363/103/1 370/110/1 364/104/1
f 365/105/1 371/111/1 372/112/1
f 365/105/1 372/112/1 366/106/1
f 367/107/1 373/113/1 374/114/1
f 367/107/1 374/114/1 368/108/1
f 369/109/1 311/51/1 314/54/1
f 369/109/1 314/54/1 370/110/1
f 371/111/1 375/115/1 376/116/1
f 371/111/1 376/116/1 372/112/1
f 373/113/1 377/117/1 378/118/1
f 373/113/1 378/118/1 374/114/1
f 375/115/1 379/119/1 380/120/1
f 375/115/1 380/120/1 376/116/1
f 377/117/1 381/121/1 382/122/1
f 377/117/1 382/122/1 378/118/1
f 379/119/1 383/123/1 384/124/1
f 379/119/1 384/124/1 380/120/1
f 381/121/1 385/125/1 386/126/1
f 381/121/1 386/126/1 382/122/1
f 383/123/1 387/127/1 388/128/1
f 383/123/1 388/128/1 384/124/1
f 385/125/1 389/129/1 390/130/1
f 385/125/1 390/130/1 386/126/1
f 387/127/1 261/1/1 264/4/1
f 387/127/1 264/4/1 388/128/1
f 389/129/1 265/5/1 268/8/1
f 389/129/1 268/8/1 390/130/1
f 391/131/1 392/132/1 393/133/1
f 391/131/1 393/133/1 394/134/1
f 395/135/1 396/136/1 397/137/1
f 395/135/1 397/137/1 398/138/1
f 392/132/1 399/139/1 400/140/1
f 392/132/1 400/140/1 393/133/1
f 396/136/1 401/141/1 402/142/1
f 396/136/1 402/142/1 397/137/1
f 399/139/1 403/143/1 404/144/1
f 399/139/1 404/144/1 400/140/1
f 401/141/1 405/145/1 406/146/1
f 401/141/1 406/146/1 402/142/1
f 403/143/1 407/147/1 408/148/1
f 403/143/1 408/148/1 404/144/1
f 405/145/1 409/149/1 410/150/1
f 405/145/1 410/150/1 406/146/1
f 407/147/1 411/151/1 412/152/1
f 407/147/1 412/152/1 408/148/1
f 409/149/1 413/153/1 414/154/1
f 409/149/1 414/154/1 410/150/1
f 411/151/1 415/155/1 416/156/1
f 411/151/1 416/156/1 412/152/1
f 413/153/1 417/157/1 418/158/1
f 413/153/1 418/158/1 414/154/1
f 415/155/1 419/159/1 420/160/1
f 415/155/1 420/160/1 416/156/1
f 417/157/1 421/161/1 422/162/1
f 417/157/1 422/162/1 418/158/1
f 419/159/1 423/163/1 424/164/1
f 419/159/1 424/164/1 420/160/1
f 421/161/1 425/165/1 426/166/1
f 421/161/1 426/166/1 422/162/1
f 423/163/1 427/167/1 428/168/1
f 423/163/1 428/168/1 424/164/1
f 429/169/1 430/170/1 431/171/1
f 429/169/1 431/171/1 432/172/1
f 427/167/1 433/173/1 434/174/1
f 427/167/1 434/174/1 428/168/1
f 430/170/1 435/175/1 436/176/1
f 430/170/1 436/176/1 431/171/1
f 433/173/1 437/177/1 438/178/1
f 433/173/1 438/178/1 434/174/1
f 435/175/1 439/179/1 440/180/1
f 435/175/1 440/180/1 436/176/1
f 437/177/1 441/181/1 442/182/1
f 437/177/1 442/182/1 438/178/1
f 439/179/1 443/183/1 444/184/1
f 439/179/1 444/184/1 440/180/1
f 441/181/1 445/185/1 446/186/1
f 441/181/1 446/186/1 442/182/1
f 443/183/1 447/187/1 448/188/1
f 443/183/1 448/188/1 444/184/1
f 445/185/1 449/189/1 450/190/1
f 445/185/1 450/190/1 446/186/1
f 447/187/1 451/191/1 452/192/1
f 447/187/1 452/192/1 448/188/1
f 453/193/1 454/194/1 455/195/1
f 453/193/1 455/195/1 456/196/1
f 449/189/1 457/197/1 458/198/1
f 449/189/1 458/198/1 450/190/1
f 451/191/1 459/199/1 460/200/1
f 451/191/1 460/200/1 452/192/1
f 454/194/1 461/201/1 462/202/1
f 454/194/1 462/202/1 455/195/1
f 457/197/1 463/203/1 464/204/1
f 457/197/1 464/204/1 458/198/1
f 459/199/1 465/205/1 466/206/1
f 459/199/1 466/206/1 460/200/1
f 461/201/1 467/207/1 468/208/1
f 461/201/1 468/208/1 462/202/1
f 463/203/1 469/209/1 470/210/1
f 463/203/1 470/210/1 464/204/1
f 465/205/1 471/211/1 472/212/1
f 465/205/1 472/212/1 466/206/1
f 467/207/1 473/213/1 474/214/1
f 467/207/1 474/214/1 468/208/1
f 469/209/1 475/215/1 476/216/1
f 469/209/1 476/216/1 470/210/1
f 471/211/1 477/217/1 478/218/1
f 471/211/1 478/218/1 472/212/1
f 473/213/1 479/219/1 480/220/1
f 473/213/1 480/220/1 474/214/1
f 475/215/1 481/221/1 482/222/1
f 475/215/1 482/222/1 476/216/1
f 477/217/1 483/223/1 484/224/1
f 477/217/1 484/224/1 478/218/1
f 479/219/1 485/225/1 486/226/1
f 479/219/1 486/226/1 480/220/1
f 481/221/1 487/227/1 488/228/1
f 481/221/1 488/228/1 482/222/1
f 483/223/1 489/229/1 490/230/1
f 483/223/1 490/230/1 484/224/1
f 485/225/1 491/231/1 492/232/1
f 485/225/1 492/232/1 486/226/1
f 487/227/1 493/233/1 494/234/1
f 487/227/1 494/234/1 488/228/1
f 489/229/1 495/235/1 496/236/1
f 489/229/1 496/236/1 490/230/1
f 491/231/1 497/237/1 498/238/1
f 491/231/1 498/238/1 492/232/1
f 493/233/1 499/239/1 500/240/1
f 493/233/1 500/240/1 494/234/1
f 495/235/1 501/241/1 502/242/1
f 495/235/1 502/242/1 496/236/1
f 497/237/1 503/243/1 504/244/1
f 497/237/1 504/244/1 498/238/1
f 499/239/1 505/245/1 506/246/1
f 499/239/1 506/246/1 500/240/1
f 501/241/1 507/247/1 508/248/1
f 501/241/1 508/248/1 502/242/1
f 503/243/1 509/249/1 510/250/1
f 503/243/1 510/250/1 504/244/1
f 505/245/1 511/251/1 512/252/1
f 505/245/1 512/252/1 506/246/1
f 507/247/1 513/253/1 514/254/1
f 507/247/1 514/254/1 508/248/1
f 509/249/1 515/255/1 516/256/1
f 509/249/1 516/256/1 510/250/1
f 511/251/1 453/193/1 456/196/1
f 511/251/1 456/196/1 512/252/1
f 513/253/1 517/257/1 518/258/1
f 513/253/1 518/258/1 514/254/1
f 515/255/1 519/259/1 520/260/1
f 515/255/1 520/260/1 516/256/1
f 517/257/1 391/131/1 394/134/1
f 517/257/1 394/134/1 518/258/1
f 519/259/1 395/135/1 398/138/1
f 519/259/1 398/138/1 520/260/1
f 521/261/1 522/262/1 395/135/1
f 521/261/1 395/135/1 519/259/1
f 523/263/1 524/264/1 391/131/1
f 523/263/1 391/131/1 517/257/1
f 525/265/1 521/261/1 519/259/1
f 525/265/1 519/259/1 515/255/1
f 526/266/1 523/263/1 517/257/1
f 526/266/1 517/257/1 513/253/1
f 527/267/1 528/268/1 453/193/1
f 527/267/1 453/193/1 511/251/1
f 529/269/1 525/265/1 515/255/1
f 529/269/1 515/255/1 509/249/1
f 530/270/1 526/266/1 513/253/1
f 530/270/1 513/253/1 507/247/1
f 531/271/1 527/267/1 511/251/1
f 531/271/1 511/251/1 505/245/1
f 532/272/1 529/269/1 509/249/1
f 532/272/1 509/249/1 503/243/1
f 533/273/1 530/270/1 507/247/1
f 533/273/1 507/247/1 501/241/1
f 534/274/1 531/271/1 505/245/1
f 534/274/1 505/245/1 499/239/1
f 535/275/1 532/272/1 503/243/1
f 535/275/1 503/243/1 497/237/1
f 536/276/1 533/273/1 501/241/1
f 536/276/1 501/241/1 495/235/1
f 537/277/1 534/274/1 499/239/1
f 537/277/1 499/239/1 493/233/1
f 538/278/1 535/275/1 497/237/1
f 538/278/1 497/237/1 491/231/1
f 539/279/1 536/276/1 495/235/1
f 539/279/1 495/235/1 489/229/1
f 540/280/1 537/277/1 493/233/1
f 540/280/1 493/233/1 487/227/1
f 541/281/1 538/278/1 491/231/1
f 541/281/1 491/231/1 485/225/1
f 542/282/1 539/279/1 489/229/1
f 542/282/1 489/229/1 483/223/1
f 543/283/1 540/280/1 487/227/1
f 543/283/1 487/227/1 481/221/1
f 544/284/1 541/281/1 485/225/1
f 544/284/1 485/225/1 479/219/1
f 545/285/1 542/282/1 483/223/1
f 545/285/1 483/223/1 477/217/1
f 546/286/1 543/283/1 481/221/1
f 546/286/1 481/221/1 475/215/1
f 547/287/1 544/284/1 479/219/1
f 547/287/1 479/219/1 473/213/1
f 548/288/1 545/285/1 477/217/1
f 548/288/1 477/217/1 471/211/1
f 549/289/1 546/286/1 475/215/1
f 549/289/1 475/215/1 469/209/1
f 550/290/1 547/287/1 473/213/1
f 550/290/1 473/213/1 467/207/1
f 551/291/1 548/288/1 471/211/1
f 551/291/1 471/211/1 465/205/1
f 552/292/1 549/289/1 469/209/1
f 552/292/1 469/209/1 463/203/1
f 553/293/1 550/290/1 467/207/1
f 553/293/1 467/207/1 461/201/1
f 554/294/1 551/291/1 465/205/1
f 554/294/1 465/205/1 459/199/1
f 555/295/1 552/292/1 463/203/1
f 555/295/1 463/203/1 457/197/1
f 556/296/1 553/293/1 461/201/1
f 556/296/1 461/201/1 454/194/1
f 557/297/1 554/294/1 459/199/1
f 557/297/1 459/199/1 451/191/1
f 558/298/1 555/295/1 457/197/1
f 558/298/1 457/197/1 449/189/1
f 528/268/1 556/296/1 454/194/1
f 528/268/1 454/194/1 453/193/1
f 559/299/1 557/297/1 451/191/1
f 559/299/1 451/191/1 447/187/1
f 560/300/1 558/298/1 449/189/1
f 560/300/1 449/189/1 445/185/1
f 561/301/1 559/299/1 447/187/1
f 561/301/1 447/187/1 443/183/1
f 562/302/1 560/300/1 445/185/1
f 562/302/1 445/185/1 441/181/1
f 563/303/1 561/301/1 443/183/1
f 563/303/1 443/183/1 439/179/1
f 564/304/1 562/302/1 441/181/1
f 564/304/1 441/181/1 437/177/1
f 565/305/1 563/303/1 439/179/1
f 565/305/1 439/179/1 435/175/1
f 566/306/1 564/304/1 437/177/1
f 566/306/1 437/177/1 433/173/1
f 567/307/1 565/305/1 435/175/1
f 567/307/1 435/175/1 430/170/1
f 568/308/1 566/306/1 433/173/1
f 568/308/1 433/173/1 427/167/1
f 569/309/1 567/307/1 430/170/1
f 569/309/1 430/170/1 429/169/1
f 570/310/1 568/308/1 427/167/1
f 570/310/1 427/167/1 423/163/1
f 571/311/1 572/312/1 425/165/1
f 571/311/1 425/165/1 421/161/1
f 573/313/1 570/310/1 423/163/1
f 573/313/1 423/163/1 419/159/1
f 574/314/1 571/311/1 421/161/1
f 574/314/1 421/161/1 417/157/1
f 575/315/1 573/313/1 419/159/1
f 575/315/1 419/159/1 415/155/1
f 576/316/1 574/314/1 417/157/1
f 576/316/1 417/157/1 413/153/1
f 577/317/1 575/315/1 415/155/1
f 577/317/1 415/155/1 411/151/1
f 578/318/1 576/316/1 413/153/1
f 578/318/1 413/153/1 409/149/1
f 579/319/1 577/317/1 411/151/1
f 579/319/1 411/151/1 407/147/1
f 580/320/1 578/318/1 409/149/1
f 580/320/1 409/149/1 405/145/1
f 581/321/1 579/319/1 407/147/1
f 581/321/1 407/147/1 403/143/1
f 582/322/1 580/320/1 405/145/1
f 582/322/1 405/145/1 401/141/1
f 583/323/1 581/321/1 403/143/1
f 583/323/1 403/143/1 399/139/1
f 584/324/1 582/322/1 401/141/1
f 584/324/1 401/141/1 396/136/1
f 585/325/1 583/323/1 399/139/1
f 585/325/1 399/139/1 392/132/1
f 522/262/1 584/324/1 396/136/1
f 522/262/1 396/136/1 395/135/1
f 524/264/1 585/325/1 392/132/1
f 524/264/1 392/132/1 391/131/1
s 1
f 1/326/2 2/327/3 3/328/4
f 1/326/2 3/328/4 4/329/5
f 5/330/6 6/331/7 7/332/8
f 5/330/6 7/332/8 8/333/9
f 9/334/10 10/335/11 11/336/12
f 9/334/10 11/336/12 12/337/13
f 13/338/14 14/339/15 15/340/16
f 13/338/14 15/340/16 16/341/17
f 17/342/18 5/330/6 8/333/9
f 17/342/18 8/333/9 18/343/19
f 19/344/20 9/334/10 12/337/13
f 19/344/20 12/337/13 20/345/21
f 21/346/22 13/338/14 16/341/17
f 21/346/22 16/341/17 22/347/23
f 23/348/24 17/342/18 18/343/19
f 23/348/24 18/343/19 24/349/25
f 25/350/26 19/344/20 20/345/21
f 25/350/26 20/345/21 26/351/27
f 27/352/28 21/346/22 22/347/23
f 27/352/28 22/347/23 28/353/29
f 29/354/30 23/348/24 24/349/25
f 29/354/30 24/349/25 30/355/31
f 31/356/32 25/350/26 26/351/27
f 31/356/32 26/351/27 32/357/33
f 33/358/34 27/352/28 28/353/29
f 33/358/34 28/353/29 34/359/35
f 35/360/36 29/354/30 30/355/31
f 35/360/36 30/355/31 36/361/37
f 37/362/38 33/358/34 34/359/35
f 37/362/38 34/359/35 38/363/39
f 39/364/40 35/360/36 36/361/37
f 39/364/40 36/361/37 40/365/41
f 41/366/42 37/362/38 38/363/39
f 41/366/42 38/363/39 42/367/43
f 43/368/44 39/364/40 40/365/41
f 43/368/44 40/365/41 44/369/45
f 45/370/46 41/366/42 42/367/43
f 45/370/46 42/367/43 46/371/47
f 47/372/48 43/368/44 44/369/45
f 47/372/48 44/369/45 48/373/49
f 49/374/50 45/370/46 46/371/47
f 49/374/50 46/371/47 50/375/51
f 51/376/52 47/372/48 48/373/49
f 51/376/52 48/373/49 52/377/53
f 53/378/54 49/374/50 50/375/51
f 53/378/54 50/375/51 54/379/55
f 55/380/56 51/376/52 52/377/53
f 55/380/56 52/377/53 56/381/57
f 57/382/58 53/378/54 54/379/55
f 57/382/58 54/379/55 58/383/59
f 59/384/60 55/380/56 56/381/57
f 59/384/60 56/381/57 60/385/61
f 61/386/62 62/387/58 63/388/59
f 61/386/62 63/388/59 64/389/63
f 65/390/64 59/384/60 60/385/61
f 65/390/64 60/385/61 66/391/65
f 67/392/66 61/386/62 64/389/63
f 67/392/66 64/389/63 68/393/67
f 69/394/68 65/390/64 66/391/65
f 69/394/68 66/391/65 70/395/69
f 71/396/70 67/392/66 68/393/67
f 71/396/70 68/393/67 72/397/71
f 73/398/72 69/394/68 70/395/69
f 73/398/72 70/395/69 74/399/73
f 75/400/74 71/396/70 72/397/71
f 75/400/74 72/397/71 76/401/75
f 77/402/76 73/398/72 74/399/73
f 77/402/76 74/399/73 78/403/77
f 79/404/78 75/400/74 76/401/75
f 79/404/78 76/401/75 80/405/79
f 81/406/80 77/402/76 78/403/77
f 81/406/80 78/403/77 82/407/81
f 83/408/82 79/404/78 80/405/79
f 83/408/82 80/405/79 84/409/83
f 85/410/84 81/406/80 82/407/81
f 85/410/84 82/407/81 86/411/85
f 87/412/86 83/408/82 84/409/83
f 87/412/86 84/409/83 88/413/87
f 89/414/88 85/410/84 86/411/85
f 89/414/88 86/411/85 90/415/89
f 91/416/90 87/412/86 88/413/87
f 91/416/90 88/413/87 92/417/91
f 93/418/92 89/414/88 90/415/89
f 93/418/92 90/415/89 94/419/93
f 95/420/94 91/416/90 92/417/91
f 95/420/94 92/417/91 96/421/95
f 97/422/96 93/418/92 94/419/93
f 97/422/96 94/419/93 98/423/97
f 99/424/98 95/420/94 96/421/95
f 99/424/98 96/421/95 100/425/99
f 101/426/100 97/422/96 98/423/97
f 101/426/100 98/423/97 102/427/101
f 2/327/3 31/356/32 32/357/33
f 2/327/3 32/357/33 3/328/4
f 103/428/102 99/424/98 100/425/99
f 103/428/102 100/425/99 104/429/103
f 105/430/104 101/426/100 102/427/101
f 105/430/104 102/427/101 106/431/105
f 107/432/106 1/326/2 4/329/5
f 107/432/106 4/329/5 108/433/107
f 109/434/108 103/428/102 104/429/103
f 109/434/108 104/429/103 110/435/109
f 111/436/110 105/430/104 106/431/105
f 111/436/110 106/431/105 112/437/111
f 113/438/112 107/432/106 108/433/107
f 113/438/112 108/433/107 114/439/113
f 115/440/114 109/434/108 110/435/109
f 115/440/114 110/435/109 116/441/115
f 117/442/116 111/436/110 112/437/111
f 117/442/116 112/437/111 118/443/117
f 119/444/118 113/438/112 114/439/113
f 119/444/118 114/439/113 120/445/119
f 121/446/120 115/440/114 116/441/115
f 121/446/120 116/441/115 122/447/121
f 123/448/122 117/442/116 118/443/117
f 123/448/122 118/443/117 124/449/123
f 125/450/124 119/444/118 120/445/119
f 125/450/124 120/445/119 126/451/125
f 127/452/126 121/446/120 122/447/121
f 127/452/126 122/447/121 128/453/127
f 129/454/128 123/448/122 124/449/123
f 129/454/128 124/449/123 130/455/129
f 6/331/7 125/450/124 126/451/125
f 6/331/7 126/451/125 7/332/8
f 10/335/11 127/452/126 128/453/127
f 10/335/11 128/453/127 11/336/12
f 14/339/15 129/454/128 130/455/129
f 14/339/15 130/455/129 15/340/16
f 131/456/130 132/457/131 133/458/132
f 131/456/130 133/458/132 134/459/133
f 132/457/131 4/329/5 3/328/4
f 132/457/131 3/328/4 133/458/132
f 135/460/134 136/461/135 132/457/131
f 135/460/134 132/457/131 131/456/130
f 136/461/135 108/433/107 4/329/5
f 136/461/135 4/329/5 132/457/131
f 137/462/136 138/463/137 136/461/135
f 137/462/136 136/461/135 135/460/134
f 138/463/137 114/439/113 108/433/107
f 138/463/137 108/433/107 136/461/135
f 139/464/138 140/465/139 138/463/137
f 139/464/138 138/463/137 137/462/136
f 140/465/139 120/445/119 114/439/113
f 140/465/139 114/439/113 138/463/137
f 141/466/140 142/467/141 140/465/139
f 141/466/140 140/465/139 139/464/138
f 142/467/141 126/451/125 120/445/119
f 142/467/141 120/445/119 140/465/139
f 143/468/142 144/469/143 142/467/141
f 143/468/142 142/467/141 141/466/140
f 144/469/143 7/332/8 126/451/125
f 144/469/143 126/451/125 142/467/141
f 145/470/144 146/471/145 144/469/143
f 145/470/144 144/469/143 143/468/142
f 146/471/145 8/333/9 7/332/8
f 146/471/145 7/332/8 144/469/143
f 147/472/146 148/473/147 146/471/145
f 147/472/146 146/471/145 145/470/144
f 148/473/147 18/343/19 8/333/9
f 148/473/147 8/333/9 146/471/145
f 149/474/148 150/475/149 148/473/147
f 149/474/148 148/473/147 147/472/146
f 150/475/149 24/349/25 18/343/19
f 150/475/149 18/343/19 148/473/147
f 151/476/150 152/477/151 150/475/149
f 151/476/150 150/475/149 149/474/148
f 152/477/151 30/355/31 24/349/25
f 152/477/151 24/349/25 150/475/149
f 153/478/152 154/479/153 152/477/151
f 153/478/152 152/477/151 151/476/150
f 154/479/153 36/361/37 30/355/31
f 154/479/153 30/355/31 152/477/151
f 155/480/154 156/481/155 154/479/153
f 155/480/154 154/479/153 153/478/152
f 156/481/155 40/365/41 36/361/37
f 156/481/155 36/361/37 154/479/153
f 157/482/156 158/483/157 156/481/155
f 157/482/156 156/481/155 155/480/154
f 158/483/157 44/369/45 40/365/41
f 158/483/157 40/365/41 156/481/155
f 159/484/158 160/485/159 158/483/157
f 159/484/158 158/483/157 157/482/156
f 160/485/159 48/373/49 44/369/45
f 160/485/159 44/369/45 158/483/157
f 161/486/160 162/487/161 160/485/159
f 161/486/160 160/485/159 159/484/158
f 162/487/161 52/377/53 48/373/49
f 162/487/161 48/373/49 160/485/159
f 163/488/162 164/489/163 162/487/161
f 163/488/162 162/487/161 161/486/160
f 164/489/163 56/381/57 52/377/53
f 164/489/163 52/377/53 162/487/161
f 165/490/164 166/491/165 164/489/163
f 165/490/164 164/489/163 163/488/162
f 166/491/165 60/385/61 56/381/57
f 166/491/165 56/381/57 164/489/163
f 167/492/166 168/493/167 166/491/165
f 167/492/166 166/491/165 165/490/164
f 168/493/167 66/391/65 60/385/61
f 168/493/167 60/385/61 166/491/165
f 169/494/168 170/495/169 168/493/167
f 169/494/168 168/493/167 167/492/166
f 170/495/169 70/395/69 66/391/65
f 170/495/169 66/391/65 168/493/167
f 171/496/170 172/497/171 170/495/169
f 171/496/170 170/495/169 169/494/168
f 172/497/171 74/399/73 70/395/69
f 172/497/171 70/395/69 170/495/169
f 173/498/172 174/499/173 172/497/171
f 173/498/172 172/497/171 171/496/170
f 174/499/173 78/403/77 74/399/73
f 174/499/173 74/399/73 172/497/171
f 175/500/174 176/501/175 174/499/173
f 175/500/174 174/499/173 173/498/172
f 176/501/175 82/407/81 78/403/77
f 176/501/175 78/403/77 174/499/173
f 177/502/176 178/503/177 176/501/175
f 177/502/176 176/501/175 175/500/174
f 178/503/177 86/411/85 82/407/81
f 178/503/177 82/407/81 176/501/175
f 179/504/178 180/505/179 178/503/177
f 179/504/178 178/503/177 177/502/176
f 180/505/179 90/415/89 86/411/85
f 180/505/179 86/411/85 178/503/177
f 181/506/180 182/507/181 180/505/179
f 181/506/180 180/505/179 179/504/178
f 182/507/181 94/419/93 90/415/89
f 182/507/181 90/415/89 180/505/179
f 183/508/182 184/509/183 182/507/181
f 183/508/182 182/507/181 181/506/180
f 184/509/183 98/423/97 94/419/93
f 184/509/183 94/419/93 182/507/181
f 185/510/184 186/511/185 184/509/183
f 185/510/184 184/509/183 183/508/182
f 186/511/185 102/427/101 98/423/97
f 186/511/185 98/423/97 184/509/183
f 187/512/186 188/513/187 186/511/185
f 187/512/186 186/511/185 185/510/184
f 188/513/187 106/431/105 102/427/101
f 188/513/187 102/427/101 186/511/185
f 189/514/188 190/515/189 188/513/187
f 189/514/188 188/513/187 187/512/186
f 190/515/189 112/437/111 106/431/105
f 190/515/189 106/431/105 188/513/187
f 191/516/190 192/517/191 190/515/189
f 191/516/190 190/515/189 189/514/188
f 192/517/191 118/443/117 112/437/111
f 192/517/191 112/437/111 190/515/189
f 193/518/192 194/519/193 192/517/191
f 193/518/192 192/517/191 191/516/190
f 194/519/193 124/449/123 118/443/117
f 194/519/193 118/443/117 192/517/191
f 195/520/194 196/521/195 194/519/193
f 195/520/194 194/519/193 193/518/192
f 196/521/195 130/455/129 124/449/123
f 196/521/195 124/449/123 194/519/193
f 197/522/196 198/523/197 196/521/195
f 197/522/196 196/521/195 195/520/194
f 198/523/197 15/340/16 130/455/129
f 198/523/197 130/455/129 196/521/195
f 199/524/198 200/525/199 198/523/197
f 199/524/198 198/523/197 197/522/196
f 200/525/199 16/341/17 15/340/16
f 200/525/199 15/340/16 198/523/197
f 201/526/200 202/527/201 200/525/199
f 201/526/200 200/525/199 199/524/198
f 202/527/201 22/347/23 16/341/17
f 202/527/201 16/341/17 200/525/199
f 203/528/202 204/529/203 202/527/201
f 203/528/202 202/527/201 201/526/200
f 204/529/203 28/353/29 22/347/23
f 204/529/203 22/347/23 202/527/201
f 205/530/204 206/531/205 204/529/203
f 205/530/204 204/529/203 203/528/202
f 206/531/205 34/359/35 28/353/29
f 206/531/205 28/353/29 204/529/203
f 207/532/206 208/533/207 206/531/205
f 207/532/206 206/531/205 205/530/204
f 208/533/207 38/363/39 34/359/35
f 208/533/207 34/359/35 206/531/205
f 209/534/208 210/535/209 208/533/207
f 209/534/208 208/533/207 207/532/206
f 210/535/209 42/367/43 38/363/39
f 210/535/209 38/363/39 208/533/207
f 211/536/210 212/537/211 210/535/209
f 211/536/210 210/535/209 209/534/208
f 212/537/211 46/371/47 42/367/43
f 212/537/211 42/367/43 210/535/209
f 213/538/212 214/539/213 212/537/211
f 213/538/212 212/537/211 211/536/210
f 214/539/213 50/375/51 46/371/47
f 214/539/213 46/371/47 212/537/211
f 215/540/214 216/541/215 214/539/213
f 215/540/214 214/539/213 213/538/212
f 216/541/215 54/379/55 50/375/51
f 216/541/215 50/375/51 214/539/213
f 217/542/216 218/543/217 216/541/215
f 217/542/216 216/541/215 215/540/214
f 218/543/217 58/383/59 54/379/55
f 218/543/217 54/379/55 216/541/215
f 219/544/218 220/545/219 221/546/217
f 219/544/218 221/546/217 222/547/216
f 220/545/219 64/389/63 63/388/59
f 220/545/219 63/388/59 221/546/217
f 223/548/220 224/549/221 220/545/219
f 223/548/220 220/545/219 219/544/218
f 224/549/221 68/393/67 64/389/63
f 224/549/221 64/389/63 220/545/219
f 225/550/222 226/551/223 224/549/221
f 225/550/222 224/549/221 223/548/220
f 226/551/223 72/397/71 68/393/67
f 226/551/223 68/393/67 224/549/221
f 227/552/224 228/553/225 226/551/223
f 227/552/224 226/551/223 225/550/222
f 228/553/225 76/401/75 72/397/71
f 228/553/225 72/397/71 226/551/223
f 229/554/226 230/555/227 228/553/225
f 229/554/226 228/553/225 227/552/224
f 230/555/227 80/405/79 76/401/75
f 230/555/227 76/401/75 228/553/225
f 231/556/228 232/557/229 230/555/227
f 231/556/228 230/555/227 229/554/226
f 232/557/229 84/409/83 80/405/79
f 232/557/229 80/405/79 230/555/227
f 233/558/230 234/559/231 232/557/229
f 233/558/230 232/557/229 231/556/228
f 234/559/231 88/413/87 84/409/83
f 234/559/231 84/409/83 232/557/229
f 235/560/232 236/561/233 234/559/231
f 235/560/232 234/559/231 233/558/230
f 236/561/233 92/417/91 88/413/87
f 236/561/233 88/413/87 234/559/231
f 237/562/234 238/563/235 236/561/233
f 237/562/234 236/561/233 235/560/232
f 238/563/235 96/421/95 92/417/91
f 238/563/235 92/417/91 236/561/233
f 239/564/236 240/565/237 238/563/235
f 239/564/236 238/563/235 237/562/234
f 240/565/237 100/425/99 96/421/95
f 240/565/237 96/421/95 238/563/235
f 241/566/238 242/567/239 240/565/237
f 241/566/238 240/565/237 239/564/236
f 242/567/239 104/429/103 100/425/99
f 242/567/239 100/425/99 240/565/237
f 243/568/240 244/569/241 242/567/239
f 243/568/240 242/567/239 241/566/238
f 244/569/241 110/435/109 104/429/103
f 244/569/241 104/429/103 242/567/239
f 245/570/242 246/571/243 244/569/241
f 245/570/242 244/569/241 243/568/240
f 246/571/243 116/441/115 110/435/109
f 246/571/243 110/435/109 244/569/241
f 247/572/244 248/573/245 246/571/243
f 247/572/244 246/571/243 245/570/242
f 248/573/245 122/447/121 116/441/115
f 248/573/245 116/441/115 246/571/243
f 249/574/246 250/575/247 248/573/245
f 249/574/246 248/573/245 247/572/244
f 250/575/247 128/453/127 122/447/121
f 250/575/247 122/447/121 248/573/245
f 251/576/248 252/577/249 250/575/247
f 251/576/248 250/575/247 249/574/246
f 252/577/249 11/336/12 128/453/127
f 252/577/249 128/453/127 250/575/247
f 253/578/250 254/579/251 252/577/249
f 253/578/250 252/577/249 251/576/248
f 254/579/251 12/337/13 11/336/12
f 254/579/251 11/336/12 252/577/249
f 255/580/252 256/581/253 254/579/251
f 255/580/252 254/579/251 253/578/250
f 256/581/253 20/345/21 12/337/13
f 256/581/253 12/337/13 254/579/251
f 257/582/254 258/583/255 256/581/253
f 257/582/254 256/581/253 255/580/252
f 258/583/255 26/351/27 20/345/21
f 258/583/255 20/345/21 256/581/253
f 259/584/256 260/585/257 258/583/255
f 259/584/256 258/583/255 257/582/254
f 260/585/257 32/357/33 26/351/27
f 260/585/257 26/351/27 258/583/255
f 134/459/133 133/458/132 260/585/257
f 134/459/133 260/585/257 259/584/256
f 133/458/132 3/328/4 32/357/33
f 133/458/132 32/357/33 260/585/257
