# Blender v3.5.0 OBJ File: ''
# www.blender.org
mtllib Rand.mtl
o TEMPLE.003_27f3765_0
v 56.846203 -0.870703 -17.618959
v 50.032074 -6.372294 -15.551914
v 51.265091 -6.372293 -10.629424
v 58.249016 -0.870701 -12.018618
v 71.219170 -0.870702 -14.598540
v 69.501022 -0.870704 -21.457758
v -36.772972 -0.870684 44.935375
v -41.050743 -0.870685 41.058216
v -50.401703 -0.870682 50.409180
v -45.162346 -0.870681 55.157860
v 54.901215 -0.870704 -23.054842
v 67.118835 -0.870706 -28.115545
v -32.135754 -0.870683 48.374565
v -39.482754 -0.870679 59.370125
v 52.432789 -0.870706 -28.273903
v 64.095535 -0.870708 -34.507771
v -27.183775 -0.870682 51.342674
v -33.417641 -0.870678 63.005417
v -5.217614 -0.870715 -59.088692
v 0.548797 -0.870715 -59.371979
v 0.548797 -0.870719 -72.596222
v -6.513817 -0.870719 -72.249260
v 49.464684 -0.870707 -33.225880
v 60.460243 -0.870710 -40.572884
v -21.964716 -0.870681 53.811100
v -27.025417 -0.870677 66.028717
v -10.928491 -0.870715 -58.241554
v -13.508413 -0.870719 -71.211708
v 46.025494 -0.870709 -37.863098
v 56.247974 -0.870711 -46.252476
v -16.528833 -0.870680 55.756088
v -20.367630 -0.870677 68.410904
v -16.528833 -0.870714 -56.838745
v -20.367630 -0.870718 -69.493561
v 42.148335 -0.870710 -42.140873
v 51.499294 -0.870713 -51.491837
v -10.928491 -0.870680 57.158897
v -13.508413 -0.870676 70.129051
v -21.964716 -0.870714 -54.893757
v -27.025417 -0.870718 -67.111374
v 37.870564 -0.870711 -46.018032
v 46.259937 -0.870714 -56.240517
v -5.217614 -0.870680 58.006035
v -6.513817 -0.870676 71.166603
v -27.183775 -0.870713 -52.425331
v -33.417641 -0.870717 -64.088074
v 33.233345 -0.870712 -49.457222
v 40.580345 -0.870716 -60.452782
v 0.548797 -0.870680 58.289322
v 0.548797 -0.870676 71.513565
v -32.135754 -0.870712 -49.457222
v -39.482754 -0.870716 -60.452782
v 28.281366 -0.870713 -52.425331
v 34.515232 -0.870717 -64.088074
v 6.315208 -0.870680 58.006035
v 7.611411 -0.870676 71.166603
v -36.772972 -0.870711 -46.018032
v -45.162346 -0.870714 -56.240517
v 23.062309 -0.870714 -54.893757
v 28.123009 -0.870718 -67.111374
v 12.026085 -0.870680 57.158897
v 14.606010 -0.870676 70.129051
v -41.050743 -0.870710 -42.140873
v -50.401703 -0.870713 -51.491837
v 17.626427 -0.870714 -56.838745
v 21.465225 -0.870718 -69.493561
v 17.626427 -0.870680 55.756088
v 21.465225 -0.870677 68.410904
v -44.927902 -0.870709 -37.863098
v -55.150383 -0.870711 -46.252476
v 12.026085 -0.870715 -58.241554
v 14.606010 -0.870719 -71.211708
v 23.062309 -0.870681 53.811100
v 28.123009 -0.870677 66.028717
v -48.367092 -0.870707 -33.225880
v -59.362648 -0.870710 -40.572884
v 6.315208 -0.870715 -59.088692
v 7.611411 -0.870719 -72.249260
v 28.281366 -0.870682 51.342674
v 34.515232 -0.870678 63.005417
v -51.335197 -0.870706 -28.273903
v -62.997940 -0.870708 -34.507771
v 33.233345 -0.870683 48.374565
v 40.580345 -0.870679 59.370125
v -53.803627 -0.870704 -23.054842
v -66.021240 -0.870706 -28.115545
v 37.870564 -0.870684 44.935375
v 46.259937 -0.870681 55.157860
v -55.748611 -0.870703 -17.618959
v -68.403427 -0.870704 -21.457758
v 42.148335 -0.870685 41.058216
v 51.499294 -0.870682 50.409180
v -57.151421 -0.870701 -12.018618
v -70.121582 -0.870702 -14.598540
v 46.025494 -0.870686 36.780441
v 56.247974 -0.870684 45.169819
v -57.998558 -0.870699 -6.307739
v -71.159126 -0.870700 -7.603942
v 49.464684 -0.870688 32.143223
v 60.460243 -0.870685 39.490227
v -58.281845 -0.870697 -0.541327
v -71.506088 -0.870697 -0.541327
v 52.432789 -0.870689 27.191246
v 64.095535 -0.870687 33.425114
v -57.998558 -0.870696 5.225084
v -71.159126 -0.870695 6.521287
v 54.901215 -0.870691 21.972187
v 52.432789 -0.870689 27.191246
v 64.095535 -0.870687 33.425114
v 67.118835 -0.870689 27.032888
v -57.151421 -0.870694 10.935962
v -70.121582 -0.870693 13.515886
v 56.846203 -0.870692 16.536306
v 69.501022 -0.870691 20.375103
v -55.748611 -0.870692 16.536306
v -68.403427 -0.870691 20.375103
v 58.249016 -0.870694 10.935962
v 71.219170 -0.870693 13.515886
v -53.803627 -0.870691 21.972187
v -66.021240 -0.870689 27.032888
v 59.096153 -0.870696 5.225084
v 72.256721 -0.870695 6.521287
v -51.335197 -0.870689 27.191246
v -62.997940 -0.870687 33.425114
v 59.379440 -0.870697 -0.541327
v 72.603683 -0.870697 -0.541327
v -48.367092 -0.870688 32.143223
v -59.362648 -0.870685 39.490227
v 59.096153 -0.870699 -6.307739
v 72.256721 -0.870700 -7.603942
v -44.927902 -0.870686 36.780441
v -55.150383 -0.870684 45.169819
v 72.603683 -0.870697 -0.541327
v 72.256721 -0.870695 6.521287
v 85.892624 7.439934 7.864303
v 86.305557 7.439932 -0.541330
v -59.362648 -0.870685 39.490227
v -62.997940 -0.870687 33.425114
v -75.081924 7.439944 39.884132
v -70.755348 7.439946 47.102581
v 72.256721 -0.870700 -7.603942
v 85.892624 7.439929 -8.946964
v -55.150383 -0.870684 45.169819
v -65.742081 7.439948 53.862202
v 71.219170 -0.870702 -14.598540
v 84.657776 7.439927 -17.271648
v -50.401703 -0.870682 50.409180
v -60.090401 7.439950 60.097874
v 69.501022 -0.870704 -21.457758
v 82.612907 7.439924 -25.435209
v -45.162346 -0.870681 55.157860
v -53.854729 7.439952 65.749550
v 67.118835 -0.870706 -28.115545
v 79.777718 7.439922 -33.359035
v -39.482754 -0.870679 59.370125
v -47.095112 7.439953 70.762825
v 64.095535 -0.870708 -34.507771
v 76.179512 7.439919 -40.966797
v -33.417641 -0.870678 63.005417
v -39.876667 7.439955 75.089394
v -6.513817 -0.870719 -72.249260
v 0.548797 -0.870719 -72.596222
v 0.548797 7.439906 -86.298103
v -7.856837 7.439906 -85.885162
v 60.460243 -0.870710 -40.572884
v 71.852936 7.439917 -48.185246
v -27.025417 -0.870677 66.028717
v -32.268902 7.439956 78.687599
v -13.508413 -0.870719 -71.211708
v -16.181515 7.439906 -84.650314
v 56.247974 -0.870711 -46.252476
v 66.839668 7.439915 -54.944866
v -20.367630 -0.870677 68.410904
v -24.345079 7.439957 81.522789
v -20.367630 -0.870718 -69.493561
v -24.345079 7.439907 -82.605446
v 51.499294 -0.870713 -51.491837
v 61.187996 7.439913 -61.180538
v -13.508413 -0.870676 70.129051
v -16.181515 7.439957 83.567657
v -27.025417 -0.870718 -67.111374
v -32.268902 7.439908 -79.770256
v 46.259937 -0.870714 -56.240517
v 54.952320 7.439912 -66.832207
v -6.513817 -0.870676 71.166603
v -7.856837 7.439958 84.802505
v -33.417641 -0.870717 -64.088074
v -39.876667 7.439909 -76.172050
v 40.580345 -0.870716 -60.452782
v 48.192707 7.439910 -71.845482
v 0.548797 -0.870676 71.513565
v 0.548797 7.439958 85.215446
v -39.482754 -0.870716 -60.452782
v -47.095112 7.439910 -71.845482
v 34.515232 -0.870717 -64.088074
v 40.974258 7.439909 -76.172050
v 7.611411 -0.870676 71.166603
v 8.954432 7.439958 84.802505
v -45.162346 -0.870714 -56.240517
v -53.854729 7.439912 -66.832207
v 28.123009 -0.870718 -67.111374
v 33.366493 7.439908 -79.770256
v 14.606010 -0.870676 70.129051
v 17.279116 7.439957 83.567657
v -50.401703 -0.870713 -51.491837
v -60.090401 7.439913 -61.180538
v 21.465225 -0.870718 -69.493561
v 25.442671 7.439907 -82.605446
v 21.465225 -0.870677 68.410904
v 25.442671 7.439957 81.522789
v -55.150383 -0.870711 -46.252476
v -65.742081 7.439915 -54.944866
v 14.606010 -0.870719 -71.211708
v 17.279116 7.439906 -84.650314
v 28.123009 -0.870677 66.028717
v 33.366493 7.439956 78.687599
v -59.362648 -0.870710 -40.572884
v -70.755348 7.439917 -48.185246
v 7.611411 -0.870719 -72.249260
v 8.954432 7.439906 -85.885162
v 34.515232 -0.870678 63.005417
v 40.974258 7.439955 75.089394
v -62.997940 -0.870708 -34.507771
v -75.081924 7.439919 -40.966797
v 40.580345 -0.870679 59.370125
v 48.192707 7.439953 70.762825
v -66.021240 -0.870706 -28.115545
v -78.680130 7.439922 -33.359035
v 46.259937 -0.870681 55.157860
v 54.952320 7.439952 65.749550
v -68.403427 -0.870704 -21.457758
v -81.515320 7.439924 -25.435209
v 51.499294 -0.870682 50.409180
v 61.187996 7.439950 60.097874
v -70.121582 -0.870702 -14.598540
v -83.560181 7.439927 -17.271648
v 56.247974 -0.870684 45.169819
v 66.839668 7.439948 53.862202
v -71.159126 -0.870700 -7.603942
v -84.795029 7.439929 -8.946964
v 60.460243 -0.870685 39.490227
v 71.852936 7.439946 47.102581
v -71.506088 -0.870697 -0.541327
v -85.207970 7.439932 -0.541330
v 64.095535 -0.870687 33.425114
v 76.179512 7.439944 39.884132
v -71.159126 -0.870695 6.521287
v -84.795029 7.439934 7.864303
v 67.118835 -0.870689 27.032888
v 64.095535 -0.870687 33.425114
v 76.179512 7.439944 39.884132
v 79.777718 7.439942 32.276371
v -70.121582 -0.870693 13.515886
v -83.560181 7.439937 16.188990
v 69.501022 -0.870691 20.375103
v 82.612907 7.439939 24.352549
v -68.403427 -0.870691 20.375103
v -81.515320 7.439939 24.352549
v 71.219170 -0.870693 13.515886
v 84.657776 7.439937 16.188990
v -66.021240 -0.870689 27.032888
v -78.680130 7.439942 32.276371
v -26.163628 43.660198 -50.516769
v -21.136551 43.660198 -52.894398
v -13.997151 63.982548 -35.658375
v -17.369177 63.982548 -34.063526
v 32.031036 43.660198 -47.657845
v 36.497669 43.660198 -44.345169
v 24.662334 63.982552 -29.923779
v 21.666241 63.982548 -32.145836
v 0.548797 43.660229 56.125202
v -5.005496 43.660229 55.852337
v -3.176874 63.982571 37.286018
v 0.548796 63.982571 37.469048
v -30.933445 43.660198 -47.657845
v -20.568645 63.982548 -32.145836
v 27.261219 43.660198 -50.516769
v 18.466772 63.982548 -34.063526
v 6.103088 43.660229 55.852337
v 4.274467 63.982571 37.286018
v -35.400085 43.660198 -44.345165
v -23.564745 63.982552 -29.923779
v 22.234146 43.660198 -52.894398
v 15.094746 63.982548 -35.658375
v 11.603890 43.660229 55.036373
v 7.964256 63.982571 36.738689
v -39.520500 43.660202 -40.610638
v -26.328615 63.982552 -27.418758
v 16.998222 43.660198 -54.767841
v 11.582629 63.982548 -36.915028
v 16.998222 43.660229 53.685162
v 11.582629 63.982571 35.832333
v -43.255028 43.660202 -36.490219
v -28.833635 63.982552 -24.654894
v 11.603890 43.660198 -56.119053
v 7.964256 63.982548 -37.821384
v 22.234146 43.660229 51.811718
v 15.094746 63.982571 34.575680
v -46.567711 43.660202 -32.023586
v -31.055691 63.982552 -21.658792
v 6.103088 43.660194 -56.935017
v 4.274467 63.982548 -38.368713
v 27.261219 43.660229 49.434090
v 18.466772 63.982571 32.980831
v -49.426632 43.660206 -27.253771
v -32.973381 63.982555 -18.459322
v 32.031036 43.660229 46.575165
v 21.666241 63.982567 31.063141
v -51.804256 43.660206 -22.226690
v -34.568230 63.982555 -15.087296
v 36.497669 43.660225 43.262486
v 24.662334 63.982567 28.841084
v -53.677704 43.660210 -16.990768
v -35.824883 63.982555 -11.575180
v 40.618088 43.660225 39.527958
v 27.426201 63.982567 26.336063
v -55.028908 43.660210 -11.596435
v -36.731239 63.982555 -7.956807
v 44.352615 43.660225 35.407539
v 29.931221 63.982567 23.572199
v -55.844879 43.660213 -6.095634
v -37.278572 63.982559 -4.267017
v 47.665295 43.660221 30.940905
v 32.153278 63.982567 20.576099
v -56.117744 43.660213 -0.541340
v -37.461597 63.982559 -0.541346
v 50.524216 43.660221 26.171087
v 34.070969 63.982563 17.376631
v -55.844879 43.660213 5.012951
v -37.278572 63.982559 3.184323
v 52.901840 43.660221 21.144009
v 50.524216 43.660221 26.171087
v 34.070969 63.982563 17.376631
v 35.665817 63.982563 14.004604
v -55.028908 43.660217 10.513755
v -36.731239 63.982563 6.874115
v 54.775291 43.660217 15.908089
v 36.922470 63.982563 10.492490
v -53.677704 43.660217 15.908089
v -35.824883 63.982563 10.492490
v 56.126503 43.660217 10.513755
v 37.828823 63.982563 6.874115
v -51.804256 43.660221 21.144009
v -34.568230 63.982563 14.004604
v 56.942467 43.660213 5.012951
v 38.376156 63.982559 3.184323
v -49.426632 43.660221 26.171087
v -32.973381 63.982563 17.376631
v 57.215332 43.660213 -0.541340
v 38.559181 63.982559 -0.541346
v -46.567711 43.660221 30.940905
v -31.055691 63.982567 20.576099
v 56.942467 43.660213 -6.095634
v 38.376156 63.982559 -4.267017
v -43.255028 43.660225 35.407539
v -28.833635 63.982567 23.572199
v 56.126503 43.660210 -11.596435
v 37.828823 63.982555 -7.956807
v -39.520500 43.660225 39.527958
v -26.328615 63.982567 26.336063
v 54.775291 43.660210 -16.990768
v 36.922470 63.982555 -11.575180
v -35.400085 43.660225 43.262489
v -23.564745 63.982567 28.841084
v 52.901840 43.660206 -22.226690
v 35.665817 63.982555 -15.087296
v -30.933445 43.660229 46.575165
v -20.568645 63.982567 31.063141
v 50.524216 43.660206 -27.253771
v 34.070969 63.982555 -18.459322
v -26.163628 43.660229 49.434090
v -17.369177 63.982571 32.980831
v 47.665295 43.660202 -32.023586
v 32.153278 63.982552 -21.658792
v -21.136551 43.660229 51.811718
v -13.997151 63.982571 34.575680
v 0.548797 43.660194 -57.207882
v 0.548796 63.982548 -38.551743
v 44.352615 43.660202 -36.490219
v 29.931221 63.982552 -24.654894
v -15.900631 43.660229 53.685162
v -10.485039 63.982571 35.832333
v -15.900631 43.660198 -54.767841
v -10.506296 43.660198 -56.119053
v -6.866663 63.982548 -37.821384
v -10.485039 63.982548 -36.915028
v 40.618088 43.660202 -40.610638
v 27.426201 63.982552 -27.418758
v -10.506296 43.660229 55.036373
v -6.866663 63.982571 36.738689
v -5.005496 43.660194 -56.935017
v -3.176874 63.982548 -38.368713
v -6.834118 43.298321 -75.501335
v 0.548797 43.298321 -75.864029
v 0.548797 43.660194 -57.207882
v -5.005496 43.660194 -56.935017
v -14.145927 43.298321 -74.416725
v -10.506296 43.660198 -56.119053
v -6.834118 43.298367 74.418648
v -14.145927 43.298367 73.334038
v -10.506296 43.660229 55.036373
v -5.005496 43.660229 55.852337
v 48.333008 43.298325 -58.766567
v 53.809975 43.298328 -53.802528
v 40.618088 43.660202 -40.610638
v 36.497669 43.660198 -44.345169
v -28.275951 43.298321 -70.130440
v -21.316223 43.298321 -72.620667
v -15.900631 43.660198 -54.767841
v -21.136551 43.660198 -52.894398
v -21.316223 43.298367 71.537979
v -15.900631 43.660229 53.685162
v 58.774010 43.298328 -48.325558
v 44.352615 43.660202 -36.490219
v -28.275951 43.298363 69.047752
v -21.136551 43.660229 51.811718
v 63.177307 43.298332 -42.388386
v 47.665295 43.660202 -32.023586
v 7.931711 43.298321 -75.501335
v 6.103088 43.660194 -56.935017
v -34.958073 43.298363 65.887337
v -26.163628 43.660229 49.434090
v 66.977470 43.298332 -36.048210
v 50.524216 43.660206 -27.253771
v -41.298244 43.298363 62.087185
v -30.933445 43.660229 46.575165
v 70.137878 43.298336 -29.366091
v 52.901840 43.660206 -22.226690
v -47.235416 43.298363 57.683887
v -35.400085 43.660225 43.262489
v 72.628113 43.298336 -22.406363
v 54.775291 43.660210 -16.990768
v -52.712387 43.298359 52.719849
v -39.520500 43.660225 39.527958
v 74.424171 43.298340 -15.236070
v 56.126503 43.660210 -11.596435
v -57.676422 43.298359 47.242874
v -43.255028 43.660225 35.407539
v 75.508781 43.298340 -7.924256
v 56.942467 43.660213 -6.095634
v -62.079723 43.298355 41.305706
v -46.567711 43.660221 30.940905
v 75.871475 43.298344 -0.541340
v 57.215332 43.660213 -0.541340
v -65.879875 43.298355 34.965530
v -49.426632 43.660221 26.171087
v 75.508781 43.298347 6.841574
v 56.942467 43.660213 5.012951
v -69.040283 43.298351 28.283407
v -51.804256 43.660221 21.144009
v 74.424171 43.298347 14.153389
v 56.126503 43.660217 10.513755
v -71.530518 43.298351 21.323681
v -53.677704 43.660217 15.908089
v 72.628113 43.298351 21.323681
v 54.775291 43.660217 15.908089
v -73.326584 43.298347 14.153389
v -55.028908 43.660217 10.513755
v 70.137878 43.298351 28.283407
v 52.901840 43.660221 21.144009
v -74.411194 43.298347 6.841574
v -55.844879 43.660213 5.012951
v 66.977470 43.298355 34.965530
v 50.524216 43.660221 26.171087
v -74.773880 43.298344 -0.541340
v -56.117744 43.660213 -0.541340
v 66.977470 43.298355 34.965530
v 63.177307 43.298355 41.305706
v 47.665295 43.660221 30.940905
v 50.524216 43.660221 26.171087
v -74.411194 43.298340 -7.924256
v -55.844879 43.660213 -6.095634
v 58.774010 43.298359 47.242874
v 44.352615 43.660225 35.407539
v -73.326584 43.298340 -15.236070
v -55.028908 43.660210 -11.596435
v 53.809975 43.298359 52.719849
v 40.618088 43.660225 39.527958
v -71.530518 43.298336 -22.406361
v -53.677704 43.660210 -16.990768
v 48.333008 43.298363 57.683884
v 36.497669 43.660225 43.262486
v -69.040283 43.298336 -29.366091
v -51.804256 43.660206 -22.226690
v 42.395836 43.298363 62.087181
v 32.031036 43.660229 46.575165
v -65.879875 43.298332 -36.048210
v -49.426632 43.660206 -27.253771
v 36.055664 43.298363 65.887337
v 27.261219 43.660229 49.434090
v -62.079723 43.298332 -42.388386
v -46.567711 43.660202 -32.023586
v 29.373543 43.298363 69.047752
v 22.234146 43.660229 51.811718
v 15.243525 43.298321 -74.416725
v 11.603890 43.660198 -56.119053
v -57.676426 43.298328 -48.325558
v -43.255028 43.660202 -36.490219
v 22.413816 43.298367 71.537979
v 16.998222 43.660229 53.685162
v 22.413816 43.298321 -72.620667
v 16.998222 43.660198 -54.767841
v -52.712387 43.298328 -53.802528
v -39.520500 43.660202 -40.610638
v 15.243525 43.298367 73.334038
v 11.603890 43.660229 55.036373
v 29.373543 43.298321 -70.130440
v 22.234146 43.660198 -52.894398
v -47.235416 43.298325 -58.766563
v -35.400085 43.660198 -44.345165
v 7.931711 43.298367 74.418648
v 6.103088 43.660229 55.852337
v 36.055664 43.298325 -66.970024
v 27.261219 43.660198 -50.516769
v -41.298244 43.298325 -63.169861
v -30.933445 43.660198 -47.657845
v 0.548797 43.298367 74.781342
v 0.548797 43.660229 56.125202
v 42.395836 43.298325 -63.169865
v 32.031036 43.660198 -47.657845
v -34.958073 43.298325 -66.970024
v -26.163628 43.660198 -50.516769
v -32.255615 -6.372278 39.430962
v -36.015617 -6.372279 36.023090
v -39.423489 -6.372280 32.263088
v 52.009689 -6.372292 -5.609782
v -42.446404 -6.372281 28.187153
v 52.258682 -6.372290 -0.541325
v -45.055252 -6.372283 23.834549
v 52.009689 -6.372288 4.527131
v -47.224911 -6.372284 19.247196
v 51.265091 -6.372287 9.546775
v -48.934486 -6.372285 14.469264
v 50.032074 -6.372285 14.469264
v -50.167500 -6.372287 9.546775
v 48.322506 -6.372284 19.247196
v -50.912098 -6.372288 4.527131
v 46.152843 -6.372283 23.834549
v -51.161095 -6.372290 -0.541325
v 46.152843 -6.372283 23.834549
v 43.543999 -6.372281 28.187153
v -50.912098 -6.372292 -5.609782
v 40.521080 -6.372280 32.263088
v -50.167500 -6.372293 -10.629424
v 37.113205 -6.372279 36.023090
v -48.934486 -6.372294 -15.551914
v 33.353203 -6.372278 39.430962
v -47.224911 -6.372296 -20.329845
v 29.277271 -6.372277 42.453880
v -45.055252 -6.372297 -24.917204
v 24.924667 -6.372276 45.062729
v 0.548797 -6.372305 -52.251221
v 5.617253 -6.372305 -52.002224
v -42.446404 -6.372299 -29.269806
v 20.337315 -6.372275 47.232388
v 10.636896 -6.372305 -51.257626
v -39.423489 -6.372300 -33.345737
v 15.559384 -6.372275 48.941963
v 15.559384 -6.372305 -50.024612
v -36.015617 -6.372301 -37.105740
v 10.636896 -6.372274 50.174976
v 20.337315 -6.372304 -48.315037
v -32.255615 -6.372302 -40.513611
v 5.617253 -6.372274 50.919575
v 24.924667 -6.372303 -46.145378
v -28.179680 -6.372303 -43.536530
v 0.548797 -6.372274 51.168571
v 29.277271 -6.372303 -43.536530
v -23.827076 -6.372303 -46.145378
v -4.519659 -6.372274 50.919575
v 33.353203 -6.372302 -40.513611
v -19.239721 -6.372304 -48.315037
v -9.539301 -6.372274 50.174976
v 37.113205 -6.372301 -37.105740
v -14.461790 -6.372305 -50.024612
v -14.461790 -6.372275 48.941963
v 40.521080 -6.372300 -33.345737
v -9.539301 -6.372305 -51.257626
v -19.239721 -6.372275 47.232388
v 43.543999 -6.372299 -29.269806
v -4.519659 -6.372305 -52.002224
v -23.827076 -6.372276 45.062729
v 46.152843 -6.372297 -24.917204
v -28.179680 -6.372277 42.453880
v 48.322506 -6.372296 -20.329845
vt -2.431981 0.775070
vt 0.944942 -0.357543
vt 0.944942 -0.367714
vt -2.550754 0.775070
vt -2.550754 1.033710
vt -2.431981 1.033710
vt 2.081383 0.775070
vt 1.962610 0.775070
vt 1.962610 1.033710
vt 2.081383 1.033710
vt -2.313208 0.775070
vt -2.313208 1.033710
vt 2.200155 0.775070
vt 2.200155 1.033710
vt -2.194436 0.775070
vt -2.194436 1.033710
vt 2.318928 0.775070
vt 2.318928 1.033710
vt -0.769163 0.775070
vt -0.887936 0.775070
vt -0.887936 1.033710
vt -0.769163 1.033710
vt -2.075663 0.775070
vt -2.075663 1.033710
vt 2.437701 0.775070
vt 2.437701 1.033710
vt -0.650390 0.775070
vt -0.650390 1.033710
vt -1.956890 0.775070
vt -1.956890 1.033710
vt 2.556473 0.775070
vt 2.556474 1.033710
vt -0.531618 0.775070
vt -0.531618 1.033710
vt -1.838117 0.775070
vt -1.838117 1.033710
vt 2.675247 0.775070
vt 2.675247 1.033710
vt -0.412845 0.775070
vt -0.412845 1.033710
vt -1.719345 0.775070
vt -1.719345 1.033710
vt 2.794020 0.775070
vt 2.794020 1.033710
vt -0.294072 0.775070
vt -0.294072 1.033710
vt -1.600572 0.775070
vt -1.600572 1.033710
vt 2.912792 0.775070
vt 2.912792 1.033710
vt -0.175299 0.775070
vt -0.175299 1.033710
vt -1.481800 0.775070
vt -1.481800 1.033710
vt 3.031565 0.775070
vt 3.031564 1.033710
vt -0.056526 0.775070
vt -0.056526 1.033710
vt -1.363026 0.775070
vt -1.363026 1.033710
vt 3.150338 0.775070
vt 3.150337 1.033710
vt 0.062246 0.775070
vt 0.062246 1.033710
vt -1.244254 0.775070
vt -1.244254 1.033710
vt 3.269110 0.775070
vt 3.269111 1.033710
vt 0.181019 0.775070
vt 0.181019 1.033710
vt -1.125481 0.775070
vt -1.125481 1.033710
vt 3.387883 0.775070
vt 3.387882 1.033710
vt 0.299792 0.775070
vt 0.299792 1.033710
vt -1.006708 0.775070
vt -1.006708 1.033710
vt 3.506656 0.775070
vt 3.506656 1.033710
vt 0.418565 0.775070
vt 0.418565 1.033710
vt 3.625429 0.775070
vt 3.625429 1.033710
vt 0.537337 0.775070
vt 0.537337 1.033710
vt 3.744201 0.775070
vt 3.744201 1.033710
vt 0.656110 0.775070
vt 0.656110 1.033710
vt 3.862974 0.775070
vt 3.862974 1.033710
vt 0.774883 0.775070
vt 0.774883 1.033710
vt 3.981747 0.775070
vt 3.981747 1.033710
vt 0.893655 0.775070
vt 0.893655 1.033710
vt 4.100519 0.775070
vt 4.100520 1.033710
vt 1.012428 0.775070
vt 1.012428 1.033710
vt 4.219292 0.775070
vt 4.219292 1.033710
vt 1.131201 0.775070
vt 1.131201 1.033710
vt -3.263390 0.775070
vt -3.382163 0.775070
vt -3.382163 1.033710
vt -3.263391 1.033710
vt 1.249974 0.775070
vt 1.249974 1.033710
vt -3.144617 0.775070
vt -3.144618 1.033710
vt 1.368746 0.775070
vt 1.368746 1.033710
vt -3.025845 0.775070
vt -3.025845 1.033710
vt 1.487519 0.775070
vt 1.487519 1.033710
vt -2.907072 0.775070
vt -2.907072 1.033710
vt 1.606292 0.775070
vt 1.606292 1.033710
vt -2.788300 0.775070
vt -2.788299 1.033710
vt 1.725065 0.775070
vt 1.725065 1.033710
vt -2.669527 0.775070
vt -2.669527 1.033710
vt 1.843837 0.775070
vt 1.843837 1.033710
vt -3.466989 1.011505
vt -3.600374 1.011505
vt -3.600374 1.087764
vt -3.466989 1.087764
vt 1.601611 1.011505
vt 1.468228 1.011505
vt 1.468228 1.087764
vt 1.601611 1.087764
vt -3.333604 1.011505
vt -3.333604 1.087764
vt 1.734996 1.011505
vt 1.734996 1.087764
vt -3.200220 1.011505
vt -3.200220 1.087764
vt 1.868380 1.011505
vt 1.868380 1.087764
vt -3.066836 1.011505
vt -3.066836 1.087764
vt 2.001763 1.011505
vt 2.001763 1.087764
vt -2.933453 1.011505
vt -2.933453 1.087764
vt 2.135148 1.011505
vt 2.135148 1.087764
vt -2.800068 1.011505
vt -2.800068 1.087764
vt 2.268532 1.011505
vt 2.268532 1.087764
vt -1.199456 1.011505
vt -1.332841 1.011505
vt -1.332841 1.087764
vt -1.199456 1.087764
vt -2.666683 1.011505
vt -2.666683 1.087764
vt 2.401916 1.011505
vt 2.401916 1.087764
vt -1.066072 1.011505
vt -1.066072 1.087764
vt -2.533300 1.011505
vt -2.533300 1.087764
vt 2.535300 1.011505
vt 2.535300 1.087764
vt -0.932688 1.011505
vt -0.932688 1.087764
vt -2.399915 1.011505
vt -2.399915 1.087764
vt 2.668684 1.011505
vt 2.668684 1.087764
vt -0.799304 1.011505
vt -0.799304 1.087764
vt -2.266532 1.011505
vt -2.266532 1.087764
vt 2.802068 1.011505
vt 2.802068 1.087764
vt -0.665919 1.011505
vt -0.665919 1.087764
vt -2.133147 1.011505
vt -2.133147 1.087764
vt 2.935453 1.011505
vt 2.935453 1.087764
vt -0.532535 1.011505
vt -0.532535 1.087764
vt -1.999763 1.011505
vt -1.999763 1.087764
vt 3.068838 1.011505
vt 3.068838 1.087764
vt -0.399151 1.011505
vt -0.399151 1.087764
vt -1.866378 1.011505
vt -1.866378 1.087764
vt 3.202222 1.011505
vt 3.202222 1.087764
vt -0.265767 1.011505
vt -0.265767 1.087764
vt -1.732994 1.011505
vt -1.732994 1.087764
vt 3.335606 1.011505
vt 3.335606 1.087764
vt -0.132382 1.011505
vt -0.132382 1.087764
vt -1.599609 1.011505
vt -1.599609 1.087764
vt 3.468991 1.011505
vt 3.468991 1.087764
vt 0.001002 1.011505
vt 0.001002 1.087764
vt -1.466225 1.011505
vt -1.466225 1.087764
vt 3.602375 1.011505
vt 3.602375 1.087764
vt 0.134386 1.011505
vt 0.134386 1.087764
vt 3.735759 1.011505
vt 3.735759 1.087764
vt 0.267770 1.011505
vt 0.267770 1.087764
vt 3.869144 1.011505
vt 3.869144 1.087764
vt 0.401155 1.011505
vt 0.401155 1.087764
vt 4.002528 1.011505
vt 4.002528 1.087764
vt 0.534539 1.011505
vt 0.534539 1.087764
vt 4.135913 1.011505
vt 4.135913 1.087764
vt 0.667923 1.011505
vt 0.667923 1.087764
vt 4.269296 1.011505
vt 4.269296 1.087764
vt 0.801307 1.011505
vt 0.801307 1.087764
vt 4.402681 1.011505
vt 4.402681 1.087764
vt 0.934691 1.011505
vt 0.934691 1.087764
vt -4.000525 1.011505
vt -4.133909 1.011505
vt -4.133909 1.087764
vt -4.000525 1.087764
vt 1.068075 1.011505
vt 1.068075 1.087764
vt -3.867141 1.011505
vt -3.867141 1.087764
vt 1.201459 1.011505
vt 1.201459 1.087764
vt -3.733757 1.011505
vt -3.733757 1.087764
vt 1.334844 1.011505
vt 1.334844 1.087764
vt -1.565252 -0.167012
vt -1.652379 -0.167012
vt -1.652379 0.350378
vt -1.565252 0.350378
vt -2.523643 -0.167012
vt -2.610769 -0.167012
vt -2.610769 0.350378
vt -2.523643 0.350378
vt 0.787168 -0.167012
vt 0.700042 -0.167012
vt 0.700042 0.350378
vt 0.787168 0.350378
vt -1.478126 -0.167012
vt -1.478126 0.350378
vt -2.436516 -0.167012
vt -2.436516 0.350378
vt 0.874295 -0.167012
vt 0.874295 0.350378
vt -1.390999 -0.167012
vt -1.390999 0.350378
vt -2.349390 -0.167012
vt -2.349390 0.350378
vt 0.961422 -0.167012
vt 0.961422 0.350378
vt -1.303873 -0.167012
vt -1.303873 0.350378
vt -2.262264 -0.167012
vt -2.262264 0.350378
vt 1.048548 -0.167012
vt 1.048548 0.350378
vt -1.216746 -0.167012
vt -1.216746 0.350378
vt -2.175137 -0.167012
vt -2.175137 0.350378
vt 1.135675 -0.167012
vt 1.135675 0.350378
vt -1.129619 -0.167012
vt -1.129619 0.350378
vt -2.088011 -0.167012
vt -2.088011 0.350378
vt 1.222802 -0.167012
vt 1.222802 0.350378
vt -1.042493 -0.167012
vt -1.042493 0.350378
vt 1.309929 -0.167012
vt 1.309929 0.350378
vt -0.955366 -0.167012
vt -0.955366 0.350378
vt 1.397056 -0.167012
vt 1.397056 0.350378
vt -0.868240 -0.167012
vt -0.868240 0.350378
vt 1.484182 -0.167012
vt 1.484182 0.350378
vt -0.781113 -0.167012
vt -0.781113 0.350378
vt 1.571309 -0.167012
vt 1.571309 0.350378
vt -0.693986 -0.167012
vt -0.693986 0.350378
vt 1.658436 -0.167012
vt 1.658436 0.350378
vt -0.606860 -0.167012
vt -0.606860 0.350378
vt 1.745562 -0.167012
vt 1.745562 0.350378
vt -0.519733 -0.167012
vt -0.519733 0.350378
vt -3.743414 -0.167012
vt -3.830541 -0.167012
vt -3.830541 0.350378
vt -3.743414 0.350378
vt -0.432606 -0.167012
vt -0.432606 0.350378
vt -3.656287 -0.167012
vt -3.656287 0.350378
vt -0.345480 -0.167012
vt -0.345480 0.350378
vt -3.569161 -0.167012
vt -3.569161 0.350378
vt -0.258353 -0.167012
vt -0.258353 0.350378
vt -3.482034 -0.167012
vt -3.482034 0.350378
vt -0.171226 -0.167012
vt -0.171226 0.350378
vt -3.394908 -0.167012
vt -3.394908 0.350378
vt -0.084099 -0.167012
vt -0.084099 0.350378
vt -3.307781 -0.167012
vt -3.307781 0.350378
vt 0.003028 -0.167012
vt 0.003028 0.350378
vt -3.220654 -0.167012
vt -3.220654 0.350378
vt 0.090154 -0.167012
vt 0.090154 0.350378
vt -3.133528 -0.167012
vt -3.133528 0.350378
vt 0.177281 -0.167012
vt 0.177281 0.350378
vt -3.046401 -0.167012
vt -3.046401 0.350378
vt 0.264408 -0.167012
vt 0.264408 0.350378
vt -2.959275 -0.167012
vt -2.959275 0.350378
vt 0.351535 -0.167012
vt 0.351535 0.350378
vt -2.872148 -0.167012
vt -2.872148 0.350378
vt 0.438661 -0.167012
vt 0.438661 0.350378
vt -2.000884 -0.167012
vt -2.000884 0.350378
vt -2.785021 -0.167012
vt -2.785021 0.350378
vt 0.525788 -0.167012
vt 0.525788 0.350378
vt -1.739505 -0.167012
vt -1.826632 -0.167012
vt -1.826632 0.350378
vt -1.739505 0.350378
vt -2.697895 -0.167012
vt -2.697895 0.350378
vt 0.612915 -0.167012
vt 0.612915 0.350378
vt -1.913758 -0.167012
vt -1.913758 0.350378
vt 3.083675 1.381088
vt 3.203421 1.381088
vt 3.203421 1.036077
vt 3.083675 1.036077
vt 2.963928 1.381088
vt 2.963928 1.036077
vt -0.508723 1.381088
vt -0.388977 1.381088
vt -0.388977 1.036077
vt -0.508723 1.036077
vt 4.041649 1.381088
vt 4.161397 1.381088
vt 4.161397 1.036077
vt 4.041649 1.036077
vt 2.724434 1.381088
vt 2.844181 1.381088
vt 2.844181 1.036077
vt 2.724434 1.036077
vt -0.269230 1.381088
vt -0.269230 1.036077
vt 4.281143 1.381088
vt 4.281143 1.036077
vt -0.149484 1.381088
vt -0.149484 1.036077
vt 4.400890 1.381088
vt 4.400890 1.036077
vt 3.323168 1.381088
vt 3.323168 1.036077
vt -0.029737 1.381088
vt -0.029737 1.036077
vt 4.520637 1.381088
vt 4.520637 1.036077
vt 0.090009 1.381088
vt 0.090009 1.036077
vt 4.640384 1.381088
vt 4.640384 1.036077
vt 0.209756 1.381088
vt 0.209756 1.036077
vt 4.760131 1.381088
vt 4.760131 1.036077
vt 0.329502 1.381088
vt 0.329502 1.036077
vt 4.879878 1.381088
vt 4.879878 1.036077
vt 0.449249 1.381088
vt 0.449249 1.036077
vt 4.999625 1.381088
vt 4.999625 1.036077
vt 0.568995 1.381088
vt 0.568995 1.036077
vt 5.119372 1.381088
vt 5.119372 1.036077
vt 0.688742 1.381088
vt 0.688742 1.036077
vt 5.239119 1.381088
vt 5.239119 1.036077
vt 0.808488 1.381088
vt 0.808488 1.036077
vt 5.358866 1.381088
vt 5.358866 1.036077
vt 0.928235 1.381088
vt 0.928235 1.036077
vt 5.478613 1.381088
vt 5.478613 1.036077
vt 1.047981 1.381088
vt 1.047981 1.036077
vt 5.598360 1.381088
vt 5.598360 1.036077
vt 1.167728 1.381088
vt 1.167728 1.036077
vt 5.718107 1.381088
vt 5.718107 1.036077
vt 1.287475 1.381088
vt 1.287475 1.036077
vt -1.945680 1.381088
vt -1.825934 1.381088
vt -1.825934 1.036077
vt -1.945680 1.036077
vt 1.407221 1.381088
vt 1.407221 1.036077
vt -1.706187 1.381088
vt -1.706187 1.036077
vt 1.526968 1.381088
vt 1.526968 1.036077
vt -1.586441 1.381088
vt -1.586441 1.036077
vt 1.646714 1.381088
vt 1.646714 1.036077
vt -1.466695 1.381088
vt -1.466695 1.036077
vt 1.766461 1.381088
vt 1.766461 1.036077
vt -1.346949 1.381088
vt -1.346949 1.036077
vt 1.886208 1.381088
vt 1.886208 1.036077
vt -1.227202 1.381088
vt -1.227202 1.036077
vt 2.005955 1.381088
vt 2.005955 1.036077
vt -1.107455 1.381088
vt -1.107455 1.036077
vt 3.442915 1.381088
vt 3.442915 1.036077
vt 2.125701 1.381088
vt 2.125701 1.036077
vt -0.987709 1.381088
vt -0.987709 1.036077
vt 3.562662 1.381088
vt 3.562662 1.036077
vt 2.245448 1.381088
vt 2.245448 1.036077
vt -0.867962 1.381088
vt -0.867962 1.036077
vt 3.682409 1.381088
vt 3.682409 1.036077
vt 2.365194 1.381088
vt 2.365194 1.036077
vt -0.748216 1.381088
vt -0.748216 1.036077
vt 3.802155 1.381088
vt 3.802155 1.036077
vt 2.484941 1.381088
vt 2.484941 1.036077
vt -0.628469 1.381088
vt -0.628469 1.036077
vt 3.921903 1.381088
vt 3.921903 1.036077
vt 2.604688 1.381088
vt 2.604688 1.036077
vt 0.944942 0.028945
vt 0.944942 0.018774
vt 0.944942 0.008604
vt 0.944942 -0.377885
vt 0.944942 -0.001567
vt 0.944942 -0.388055
vt 0.944942 -0.011738
vt 0.944942 -0.398226
vt 0.944942 -0.021909
vt 0.944942 -0.408397
vt 0.944942 -0.032079
vt 0.944942 -0.418567
vt 0.944942 -0.042250
vt 0.944942 -0.428738
vt 0.944942 -0.052421
vt 0.944942 -0.438909
vt 0.944942 -0.062592
vt 0.944942 0.212018
vt 0.944942 0.201848
vt 0.944942 -0.072762
vt 0.944942 0.191677
vt 0.944942 -0.082933
vt 0.944942 0.181506
vt 0.944942 -0.093104
vt 0.944942 0.171335
vt 0.944942 -0.103275
vt 0.944942 0.161165
vt 0.944942 -0.113445
vt 0.944942 0.150994
vt 0.944942 -0.225323
vt 0.944942 -0.235494
vt 0.944942 -0.123616
vt 0.944942 0.140823
vt 0.944942 -0.245665
vt 0.944942 -0.133787
vt 0.944942 0.130652
vt 0.944942 -0.255836
vt 0.944942 -0.143958
vt 0.944942 0.120482
vt 0.944942 -0.266006
vt 0.944942 -0.154128
vt 0.944942 0.110311
vt 0.944942 -0.276177
vt 0.944942 -0.164299
vt 0.944942 0.100140
vt 0.944942 -0.286348
vt 0.944942 -0.174470
vt 0.944942 0.089969
vt 0.944942 -0.296519
vt 0.944942 -0.184641
vt 0.944942 0.079799
vt 0.944942 -0.306689
vt 0.944942 -0.194811
vt 0.944942 0.069628
vt 0.944942 -0.316860
vt 0.944942 -0.204982
vt 0.944942 0.059457
vt 0.944942 -0.327031
vt 0.944942 -0.215153
vt 0.944942 0.049286
vt 0.944942 -0.337202
vt 0.944942 0.039116
vt 0.944942 -0.347372
vn -0.3004 0.9495 0.0911
vn -0.5851 0.7913 0.1775
vn -0.5996 0.7913 0.1193
vn -0.3079 0.9495 0.0612
vn -0.2717 0.9609 0.0540
vn -0.2651 0.9609 0.0804
vn 0.1991 0.9495 -0.2427
vn 0.2220 0.9495 -0.2220
vn 0.1959 0.9609 -0.1959
vn 0.1757 0.9609 -0.2141
vn -0.2900 0.9495 0.1201
vn -0.2559 0.9609 0.1060
vn 0.1744 0.9495 -0.2610
vn 0.1539 0.9609 -0.2303
vn -0.2768 0.9495 0.1480
vn -0.2443 0.9609 0.1306
vn 0.1480 0.9495 -0.2768
vn 0.1306 0.9609 -0.2443
vn 0.0308 0.9495 0.3124
vn -0.0000 0.9495 0.3139
vn -0.0000 0.9609 0.2770
vn 0.0271 0.9609 0.2757
vn -0.2610 0.9495 0.1744
vn -0.2303 0.9609 0.1539
vn 0.1201 0.9495 -0.2900
vn 0.1060 0.9609 -0.2559
vn 0.0612 0.9495 0.3079
vn 0.0540 0.9609 0.2717
vn -0.2427 0.9495 0.1991
vn -0.2141 0.9609 0.1757
vn 0.0911 0.9495 -0.3004
vn 0.0804 0.9609 -0.2651
vn 0.0911 0.9495 0.3004
vn 0.0804 0.9609 0.2651
vn -0.2220 0.9495 0.2220
vn -0.1959 0.9609 0.1959
vn 0.0612 0.9495 -0.3079
vn 0.0541 0.9609 -0.2717
vn 0.1201 0.9495 0.2900
vn 0.1060 0.9609 0.2559
vn -0.1991 0.9495 0.2427
vn -0.1757 0.9609 0.2141
vn 0.0308 0.9495 -0.3124
vn 0.0272 0.9609 -0.2757
vn 0.1480 0.9495 0.2768
vn 0.1306 0.9609 0.2443
vn -0.1744 0.9495 0.2610
vn -0.1539 0.9609 0.2303
vn -0.0000 0.9495 -0.3139
vn 0.0000 0.9609 -0.2770
vn 0.1744 0.9495 0.2610
vn 0.1539 0.9609 0.2303
vn -0.1480 0.9495 0.2768
vn -0.1306 0.9609 0.2443
vn -0.0308 0.9495 -0.3124
vn -0.0271 0.9609 -0.2757
vn 0.1991 0.9495 0.2427
vn 0.1757 0.9609 0.2141
vn -0.1201 0.9495 0.2900
vn -0.1060 0.9609 0.2559
vn -0.0612 0.9495 -0.3079
vn -0.0540 0.9609 -0.2717
vn 0.2220 0.9495 0.2220
vn 0.1959 0.9609 0.1959
vn -0.0911 0.9495 0.3004
vn -0.0804 0.9609 0.2651
vn -0.0911 0.9495 -0.3004
vn -0.0804 0.9609 -0.2651
vn 0.2427 0.9495 0.1991
vn 0.2141 0.9609 0.1757
vn -0.0612 0.9495 0.3079
vn -0.0541 0.9609 0.2717
vn -0.1201 0.9495 -0.2900
vn -0.1060 0.9609 -0.2559
vn 0.2610 0.9495 0.1744
vn 0.2303 0.9609 0.1539
vn -0.0308 0.9495 0.3124
vn -0.0272 0.9609 0.2757
vn -0.1480 0.9495 -0.2768
vn -0.1306 0.9609 -0.2443
vn 0.2768 0.9495 0.1480
vn 0.2443 0.9609 0.1306
vn -0.1744 0.9495 -0.2610
vn -0.1539 0.9609 -0.2303
vn 0.2900 0.9495 0.1201
vn 0.2559 0.9609 0.1060
vn -0.1991 0.9495 -0.2427
vn -0.1757 0.9609 -0.2141
vn 0.3004 0.9495 0.0911
vn 0.2651 0.9609 0.0804
vn -0.2220 0.9495 -0.2220
vn -0.1959 0.9609 -0.1959
vn 0.3079 0.9495 0.0612
vn 0.2717 0.9609 0.0541
vn -0.2427 0.9495 -0.1991
vn -0.2141 0.9609 -0.1757
vn 0.3124 0.9495 0.0308
vn 0.2757 0.9609 0.0272
vn -0.2610 0.9495 -0.1744
vn -0.2303 0.9609 -0.1539
vn 0.3139 0.9495 -0.0000
vn 0.2770 0.9609 0.0000
vn -0.2768 0.9495 -0.1480
vn -0.2443 0.9609 -0.1306
vn 0.3124 0.9495 -0.0308
vn 0.2757 0.9609 -0.0271
vn -0.2900 0.9495 -0.1201
vn -0.2769 0.9495 -0.1480
vn -0.2559 0.9609 -0.1060
vn 0.3079 0.9495 -0.0612
vn 0.2717 0.9609 -0.0540
vn -0.3004 0.9495 -0.0911
vn -0.2651 0.9609 -0.0804
vn 0.3004 0.9495 -0.0911
vn 0.2651 0.9609 -0.0804
vn -0.3079 0.9495 -0.0612
vn -0.2717 0.9609 -0.0541
vn 0.2900 0.9495 -0.1201
vn 0.2559 0.9609 -0.1060
vn -0.3124 0.9495 -0.0308
vn -0.2757 0.9609 -0.0272
vn 0.2768 0.9495 -0.1480
vn 0.2443 0.9609 -0.1306
vn -0.3139 0.9495 -0.0000
vn -0.2770 0.9609 -0.0000
vn 0.2610 0.9495 -0.1744
vn 0.2303 0.9609 -0.1539
vn -0.3124 0.9495 0.0308
vn -0.2757 0.9609 0.0271
vn 0.2427 0.9495 -0.1991
vn 0.2141 0.9609 -0.1757
vn -0.2757 0.9609 -0.0271
vn -0.5161 0.8550 -0.0508
vn -0.5186 0.8550 -0.0000
vn 0.4574 0.8550 -0.2445
vn 0.4312 0.8550 -0.2881
vn -0.2757 0.9609 0.0272
vn -0.5161 0.8550 0.0508
vn 0.4009 0.8550 -0.3290
vn -0.2717 0.9609 0.0541
vn -0.5086 0.8550 0.1012
vn 0.3667 0.8550 -0.3667
vn -0.4963 0.8550 0.1505
vn 0.3290 0.8550 -0.4009
vn -0.4791 0.8550 0.1985
vn 0.2881 0.8550 -0.4312
vn -0.4574 0.8550 0.2445
vn 0.2445 0.8550 -0.4574
vn 0.0272 0.9609 0.2757
vn -0.0000 0.8550 0.5186
vn 0.0508 0.8550 0.5161
vn -0.4312 0.8550 0.2881
vn 0.1985 0.8550 -0.4791
vn 0.0541 0.9609 0.2717
vn 0.1012 0.8550 0.5086
vn -0.4009 0.8550 0.3290
vn 0.1505 0.8550 -0.4963
vn 0.1505 0.8550 0.4963
vn -0.3667 0.8550 0.3667
vn 0.0540 0.9609 -0.2717
vn 0.1012 0.8550 -0.5086
vn 0.1985 0.8550 0.4791
vn -0.3290 0.8550 0.4009
vn 0.0271 0.9609 -0.2757
vn 0.0508 0.8550 -0.5161
vn 0.2445 0.8550 0.4574
vn -0.2881 0.8550 0.4312
vn 0.0000 0.8550 -0.5186
vn 0.2881 0.8550 0.4312
vn -0.2445 0.8550 0.4574
vn -0.0272 0.9609 -0.2757
vn -0.0508 0.8550 -0.5161
vn 0.3290 0.8550 0.4009
vn -0.1985 0.8550 0.4791
vn -0.0541 0.9609 -0.2717
vn -0.1012 0.8550 -0.5086
vn 0.3667 0.8550 0.3667
vn -0.1505 0.8550 0.4963
vn -0.1505 0.8550 -0.4963
vn 0.4009 0.8550 0.3290
vn -0.0540 0.9609 0.2717
vn -0.1012 0.8550 0.5086
vn -0.1985 0.8550 -0.4791
vn 0.4312 0.8550 0.2881
vn -0.0271 0.9609 0.2757
vn -0.0508 0.8550 0.5161
vn -0.2445 0.8550 -0.4574
vn 0.4574 0.8550 0.2445
vn -0.2881 0.8550 -0.4312
vn 0.4791 0.8550 0.1985
vn -0.3290 0.8550 -0.4009
vn 0.4963 0.8550 0.1505
vn -0.3667 0.8550 -0.3667
vn 0.2717 0.9609 0.0540
vn 0.5086 0.8550 0.1012
vn -0.4009 0.8550 -0.3290
vn 0.5161 0.8550 0.0508
vn -0.4312 0.8550 -0.2881
vn 0.5186 0.8550 -0.0000
vn -0.4574 0.8550 -0.2445
vn 0.2757 0.9609 -0.0272
vn 0.5161 0.8550 -0.0508
vn -0.4791 0.8550 -0.1985
vn 0.5086 0.8550 -0.1012
vn -0.4963 0.8550 -0.1505
vn 0.4963 0.8550 -0.1505
vn -0.2717 0.9609 -0.0540
vn -0.5086 0.8550 -0.1012
vn 0.4791 0.8550 -0.1985
vn 0.1890 -0.9161 0.3536
vn 0.1534 -0.9161 0.3704
vn 0.2819 -0.6763 0.6806
vn 0.3473 -0.6763 0.6497
vn -0.2227 -0.9161 0.3333
vn -0.2543 -0.9161 0.3099
vn -0.4673 -0.6763 0.5694
vn -0.4093 -0.6763 0.6125
vn 0.0000 -0.9161 -0.4009
vn 0.0393 -0.9161 -0.3990
vn 0.0722 -0.6763 -0.7331
vn -0.0000 -0.6763 -0.7367
vn 0.2227 -0.9161 0.3333
vn 0.4093 -0.6763 0.6125
vn -0.1890 -0.9161 0.3536
vn -0.3473 -0.6763 0.6497
vn -0.0393 -0.9161 -0.3990
vn -0.0722 -0.6763 -0.7331
vn 0.2543 -0.9161 0.3099
vn 0.4673 -0.6763 0.5694
vn -0.1534 -0.9161 0.3704
vn -0.2819 -0.6763 0.6806
vn -0.0782 -0.9161 -0.3932
vn -0.1437 -0.6763 -0.7225
vn 0.2835 -0.9161 0.2835
vn 0.5209 -0.6763 0.5209
vn -0.1164 -0.9161 0.3836
vn -0.2138 -0.6763 0.7049
vn -0.1164 -0.9161 -0.3836
vn -0.2138 -0.6763 -0.7049
vn 0.3099 -0.9161 0.2543
vn 0.5694 -0.6763 0.4673
vn -0.0782 -0.9161 0.3932
vn -0.1437 -0.6763 0.7225
vn -0.1534 -0.9161 -0.3704
vn -0.2819 -0.6763 -0.6806
vn 0.3333 -0.9161 0.2227
vn 0.6125 -0.6763 0.4093
vn -0.0393 -0.9161 0.3990
vn -0.0722 -0.6763 0.7331
vn -0.1890 -0.9161 -0.3536
vn -0.3473 -0.6763 -0.6497
vn 0.3535 -0.9161 0.1890
vn 0.6497 -0.6763 0.3473
vn -0.2227 -0.9161 -0.3333
vn -0.4093 -0.6763 -0.6125
vn 0.3704 -0.9161 0.1534
vn 0.6806 -0.6763 0.2819
vn -0.2543 -0.9161 -0.3099
vn -0.4673 -0.6763 -0.5694
vn 0.3836 -0.9161 0.1164
vn 0.7049 -0.6763 0.2138
vn -0.2835 -0.9161 -0.2835
vn -0.5209 -0.6763 -0.5209
vn 0.3932 -0.9161 0.0782
vn 0.7225 -0.6763 0.1437
vn -0.3099 -0.9161 -0.2543
vn -0.5694 -0.6763 -0.4673
vn 0.3990 -0.9161 0.0393
vn 0.7331 -0.6763 0.0722
vn -0.3333 -0.9161 -0.2227
vn -0.6125 -0.6763 -0.4093
vn 0.4009 -0.9161 0.0000
vn 0.7367 -0.6763 -0.0000
vn -0.3535 -0.9161 -0.1890
vn -0.6497 -0.6763 -0.3472
vn 0.3990 -0.9161 -0.0393
vn 0.7331 -0.6763 -0.0722
vn -0.3704 -0.9161 -0.1534
vn -0.3536 -0.9161 -0.1890
vn -0.6497 -0.6763 -0.3473
vn -0.6806 -0.6763 -0.2819
vn 0.3932 -0.9161 -0.0782
vn 0.7225 -0.6763 -0.1437
vn -0.3836 -0.9161 -0.1164
vn -0.7049 -0.6763 -0.2138
vn 0.3836 -0.9161 -0.1164
vn 0.7049 -0.6763 -0.2138
vn -0.3932 -0.9161 -0.0782
vn -0.7225 -0.6763 -0.1437
vn 0.3704 -0.9161 -0.1534
vn 0.6806 -0.6763 -0.2819
vn -0.3990 -0.9161 -0.0393
vn -0.7331 -0.6763 -0.0722
vn 0.3536 -0.9161 -0.1890
vn 0.6497 -0.6763 -0.3473
vn -0.4009 -0.9161 -0.0000
vn -0.7367 -0.6763 0.0000
vn 0.3333 -0.9161 -0.2227
vn 0.6125 -0.6763 -0.4093
vn -0.3990 -0.9161 0.0393
vn -0.7331 -0.6763 0.0722
vn 0.3099 -0.9161 -0.2543
vn 0.5694 -0.6763 -0.4673
vn -0.3932 -0.9161 0.0782
vn -0.7225 -0.6763 0.1437
vn 0.2835 -0.9161 -0.2835
vn 0.5209 -0.6763 -0.5209
vn -0.3836 -0.9161 0.1164
vn -0.7049 -0.6763 0.2138
vn 0.2543 -0.9161 -0.3099
vn 0.4673 -0.6763 -0.5694
vn -0.3704 -0.9161 0.1534
vn -0.6806 -0.6763 0.2819
vn 0.2227 -0.9161 -0.3333
vn 0.4093 -0.6763 -0.6125
vn -0.3536 -0.9161 0.1890
vn -0.6497 -0.6763 0.3473
vn 0.1890 -0.9161 -0.3536
vn 0.3473 -0.6763 -0.6497
vn -0.3333 -0.9161 0.2227
vn -0.6125 -0.6763 0.4093
vn 0.1534 -0.9161 -0.3704
vn 0.2819 -0.6763 -0.6806
vn -0.0000 -0.9161 0.4009
vn 0.0000 -0.6763 0.7367
vn -0.3099 -0.9161 0.2543
vn -0.5694 -0.6763 0.4673
vn 0.1164 -0.9161 -0.3836
vn 0.2138 -0.6763 -0.7049
vn 0.1164 -0.9161 0.3836
vn 0.0782 -0.9161 0.3932
vn 0.1437 -0.6763 0.7225
vn 0.2138 -0.6763 0.7049
vn -0.2835 -0.9161 0.2835
vn -0.5209 -0.6763 0.5209
vn 0.0782 -0.9161 -0.3932
vn 0.1437 -0.6763 -0.7225
vn 0.0393 -0.9161 0.3990
vn 0.0722 -0.6763 0.7331
vn 0.0019 -0.9998 0.0193
vn 0.0000 -0.9998 0.0194
vn -0.0000 -0.9161 0.4008
vn 0.0393 -0.9161 0.3989
vn 0.0038 -0.9998 0.0190
vn 0.0019 -0.9998 -0.0193
vn 0.0038 -0.9998 -0.0190
vn 0.0782 -0.9161 -0.3931
vn 0.0393 -0.9161 -0.3989
vn -0.0123 -0.9998 0.0150
vn -0.0137 -0.9998 0.0137
vn -0.2835 -0.9161 0.2834
vn -0.2543 -0.9161 0.3098
vn 0.0074 -0.9998 0.0179
vn 0.0056 -0.9998 0.0186
vn 0.1163 -0.9161 0.3836
vn 0.1534 -0.9161 0.3703
vn 0.0056 -0.9998 -0.0186
vn -0.0150 -0.9998 0.0123
vn 0.0074 -0.9998 -0.0179
vn 0.1534 -0.9161 -0.3703
vn -0.0161 -0.9998 0.0108
vn -0.0019 -0.9998 0.0193
vn 0.0091 -0.9998 -0.0171
vn 0.1890 -0.9161 -0.3535
vn -0.0171 -0.9998 0.0091
vn -0.3535 -0.9161 0.1890
vn 0.0108 -0.9998 -0.0161
vn -0.0179 -0.9998 0.0074
vn 0.0123 -0.9998 -0.0150
vn 0.2543 -0.9161 -0.3098
vn -0.0186 -0.9998 0.0056
vn -0.3836 -0.9161 0.1163
vn 0.0137 -0.9998 -0.0137
vn 0.2835 -0.9161 -0.2834
vn -0.0190 -0.9998 0.0038
vn 0.0150 -0.9998 -0.0123
vn -0.0193 -0.9998 0.0019
vn -0.3989 -0.9161 0.0393
vn 0.0161 -0.9998 -0.0108
vn -0.0194 -0.9998 -0.0000
vn -0.4008 -0.9161 -0.0000
vn 0.0171 -0.9998 -0.0091
vn 0.3535 -0.9161 -0.1889
vn -0.0193 -0.9998 -0.0019
vn -0.3989 -0.9161 -0.0393
vn 0.0179 -0.9998 -0.0074
vn 0.3703 -0.9161 -0.1534
vn -0.0190 -0.9998 -0.0038
vn -0.3931 -0.9161 -0.0782
vn 0.0186 -0.9998 -0.0056
vn -0.0186 -0.9998 -0.0056
vn -0.3836 -0.9161 -0.1163
vn 0.0190 -0.9998 -0.0038
vn 0.3931 -0.9161 -0.0782
vn -0.0179 -0.9998 -0.0074
vn -0.3703 -0.9161 -0.1534
vn 0.0193 -0.9998 -0.0019
vn 0.3989 -0.9161 -0.0393
vn -0.0171 -0.9998 -0.0091
vn 0.0194 -0.9998 0.0000
vn 0.4008 -0.9161 0.0000
vn -0.0171 -0.9998 -0.0092
vn -0.0161 -0.9998 -0.0108
vn 0.0193 -0.9998 0.0019
vn 0.3989 -0.9161 0.0393
vn -0.0150 -0.9998 -0.0123
vn -0.3098 -0.9161 -0.2543
vn 0.0190 -0.9998 0.0038
vn -0.0137 -0.9998 -0.0137
vn -0.2834 -0.9161 -0.2835
vn 0.0186 -0.9998 0.0056
vn -0.0123 -0.9998 -0.0150
vn 0.0179 -0.9998 0.0074
vn 0.3703 -0.9161 0.1534
vn -0.0108 -0.9998 -0.0161
vn 0.0171 -0.9998 0.0091
vn -0.0091 -0.9998 -0.0171
vn -0.1889 -0.9161 -0.3535
vn 0.0161 -0.9998 0.0108
vn -0.0074 -0.9998 -0.0179
vn -0.1534 -0.9161 -0.3703
vn -0.0038 -0.9998 0.0190
vn -0.0782 -0.9161 0.3931
vn 0.0150 -0.9998 0.0123
vn 0.3098 -0.9161 0.2543
vn -0.0056 -0.9998 -0.0186
vn -0.1163 -0.9161 -0.3836
vn -0.0056 -0.9998 0.0186
vn 0.0137 -0.9998 0.0137
vn 0.2834 -0.9161 0.2835
vn -0.0038 -0.9998 -0.0190
vn -0.0782 -0.9161 -0.3931
vn -0.0074 -0.9998 0.0179
vn -0.1534 -0.9161 0.3703
vn 0.0123 -0.9998 0.0150
vn -0.0019 -0.9998 -0.0193
vn -0.0393 -0.9161 -0.3989
vn -0.0091 -0.9998 0.0171
vn -0.1890 -0.9161 0.3535
vn 0.0108 -0.9998 0.0161
vn 0.0000 -0.9998 -0.0194
vn -0.0108 -0.9998 0.0161
vn 0.0091 -0.9998 0.0171
vn 0.1889 -0.9161 0.3535
vn 0.3879 0.7913 -0.4726
vn 0.4323 0.7913 -0.4323
vn 0.4726 0.7913 -0.3879
vn -0.6084 0.7913 0.0599
vn 0.5084 0.7913 -0.3397
vn -0.6114 0.7913 -0.0000
vn 0.5392 0.7913 -0.2882
vn -0.6084 0.7913 -0.0599
vn 0.5649 0.7913 -0.2340
vn -0.5996 0.7913 -0.1193
vn 0.5851 0.7913 -0.1775
vn -0.5851 0.7913 -0.1775
vn 0.5996 0.7913 -0.1193
vn -0.5649 0.7913 -0.2340
vn 0.6084 0.7913 -0.0599
vn -0.5392 0.7913 -0.2882
vn 0.6114 0.7913 -0.0000
vn -0.5084 0.7913 -0.3397
vn 0.6084 0.7913 0.0599
vn -0.4726 0.7913 -0.3879
vn 0.5996 0.7913 0.1193
vn -0.4323 0.7913 -0.4323
vn 0.5851 0.7913 0.1775
vn -0.3879 0.7913 -0.4726
vn 0.5649 0.7913 0.2340
vn -0.3397 0.7913 -0.5084
vn 0.5392 0.7913 0.2882
vn -0.2882 0.7913 -0.5392
vn -0.0000 0.7913 0.6114
vn -0.0599 0.7913 0.6084
vn 0.5084 0.7913 0.3397
vn -0.2340 0.7913 -0.5649
vn -0.1193 0.7913 0.5996
vn 0.4726 0.7913 0.3879
vn -0.1775 0.7913 -0.5851
vn -0.1775 0.7913 0.5851
vn 0.4323 0.7913 0.4323
vn -0.1193 0.7913 -0.5996
vn -0.2340 0.7913 0.5649
vn 0.3879 0.7913 0.4726
vn -0.0599 0.7913 -0.6084
vn -0.2882 0.7913 0.5392
vn 0.3397 0.7913 0.5084
vn 0.0000 0.7913 -0.6114
vn -0.3397 0.7913 0.5084
vn 0.2882 0.7913 0.5392
vn 0.0599 0.7913 -0.6084
vn -0.3879 0.7913 0.4726
vn 0.2340 0.7913 0.5649
vn 0.1193 0.7913 -0.5996
vn -0.4323 0.7913 0.4323
vn 0.1775 0.7913 0.5851
vn 0.1775 0.7913 -0.5851
vn -0.4726 0.7913 0.3879
vn 0.1193 0.7913 0.5996
vn 0.2340 0.7913 -0.5649
vn -0.5084 0.7913 0.3397
vn 0.0599 0.7913 0.6084
vn 0.2882 0.7913 -0.5392
vn -0.5392 0.7913 0.2882
vn 0.3397 0.7913 -0.5084
vn -0.5649 0.7913 0.2340
usemtl 27f3765
s 1
f 1/1/1 2/2/2 3/3/3
f 1/1/1 3/3/3 4/4/4
f 1/1/1 4/4/4 5/5/5
f 1/1/1 5/5/5 6/6/6
f 7/7/7 8/8/8 9/9/9
f 7/7/7 9/9/9 10/10/10
f 11/11/11 1/1/1 6/6/6
f 11/11/11 6/6/6 12/12/12
f 13/13/13 7/7/7 10/10/10
f 13/13/13 10/10/10 14/14/14
f 15/15/15 11/11/11 12/12/12
f 15/15/15 12/12/12 16/16/16
f 17/17/17 13/13/13 14/14/14
f 17/17/17 14/14/14 18/18/18
f 19/19/19 20/20/20 21/21/21
f 19/19/19 21/21/21 22/22/22
f 23/23/23 15/15/15 16/16/16
f 23/23/23 16/16/16 24/24/24
f 25/25/25 17/17/17 18/18/18
f 25/25/25 18/18/18 26/26/26
f 27/27/27 19/19/19 22/22/22
f 27/27/27 22/22/22 28/28/28
f 29/29/29 23/23/23 24/24/24
f 29/29/29 24/24/24 30/30/30
f 31/31/31 25/25/25 26/26/26
f 31/31/31 26/26/26 32/32/32
f 33/33/33 27/27/27 28/28/28
f 33/33/33 28/28/28 34/34/34
f 35/35/35 29/29/29 30/30/30
f 35/35/35 30/30/30 36/36/36
f 37/37/37 31/31/31 32/32/32
f 37/37/37 32/32/32 38/38/38
f 39/39/39 33/33/33 34/34/34
f 39/39/39 34/34/34 40/40/40
f 41/41/41 35/35/35 36/36/36
f 41/41/41 36/36/36 42/42/42
f 43/43/43 37/37/37 38/38/38
f 43/43/43 38/38/38 44/44/44
f 45/45/45 39/39/39 40/40/40
f 45/45/45 40/40/40 46/46/46
f 47/47/47 41/41/41 42/42/42
f 47/47/47 42/42/42 48/48/48
f 49/49/49 43/43/43 44/44/44
f 49/49/49 44/44/44 50/50/50
f 51/51/51 45/45/45 46/46/46
f 51/51/51 46/46/46 52/52/52
f 53/53/53 47/47/47 48/48/48
f 53/53/53 48/48/48 54/54/54
f 55/55/55 49/49/49 50/50/50
f 55/55/55 50/50/50 56/56/56
f 57/57/57 51/51/51 52/52/52
f 57/57/57 52/52/52 58/58/58
f 59/59/59 53/53/53 54/54/54
f 59/59/59 54/54/54 60/60/60
f 61/61/61 55/55/55 56/56/56
f 61/61/61 56/56/56 62/62/62
f 63/63/63 57/57/57 58/58/58
f 63/63/63 58/58/58 64/64/64
f 65/65/65 59/59/59 60/60/60
f 65/65/65 60/60/60 66/66/66
f 67/67/67 61/61/61 62/62/62
f 67/67/67 62/62/62 68/68/68
f 69/69/69 63/63/63 64/64/64
f 69/69/69 64/64/64 70/70/70
f 71/71/71 65/65/65 66/66/66
f 71/71/71 66/66/66 72/72/72
f 73/73/73 67/67/67 68/68/68
f 73/73/73 68/68/68 74/74/74
f 75/75/75 69/69/69 70/70/70
f 75/75/75 70/70/70 76/76/76
f 77/77/77 71/71/71 72/72/72
f 77/77/77 72/72/72 78/78/78
f 79/79/79 73/73/73 74/74/74
f 79/79/79 74/74/74 80/80/80
f 81/81/81 75/75/75 76/76/76
f 81/81/81 76/76/76 82/82/82
f 20/20/20 77/77/77 78/78/78
f 20/20/20 78/78/78 21/21/21
f 83/83/83 79/79/79 80/80/80
f 83/83/83 80/80/80 84/84/84
f 85/85/85 81/81/81 82/82/82
f 85/85/85 82/82/82 86/86/86
f 87/87/87 83/83/83 84/84/84
f 87/87/87 84/84/84 88/88/88
f 89/89/89 85/85/85 86/86/86
f 89/89/89 86/86/86 90/90/90
f 91/91/91 87/87/87 88/88/88
f 91/91/91 88/88/88 92/92/92
f 93/93/93 89/89/89 90/90/90
f 93/93/93 90/90/90 94/94/94
f 95/95/95 91/91/91 92/92/92
f 95/95/95 92/92/92 96/96/96
f 97/97/97 93/93/93 94/94/94
f 97/97/97 94/94/94 98/98/98
f 99/99/99 95/95/95 96/96/96
f 99/99/99 96/96/96 100/100/100
f 101/101/101 97/97/97 98/98/98
f 101/101/101 98/98/98 102/102/102
f 103/103/103 99/99/99 100/100/100
f 103/103/103 100/100/100 104/104/104
f 105/105/105 101/101/101 102/102/102
f 105/105/105 102/102/102 106/106/106
f 107/107/107 108/108/108 109/109/104
f 107/107/107 109/109/104 110/110/109
f 111/111/110 105/105/105 106/106/106
f 111/111/110 106/106/106 112/112/111
f 113/113/112 107/107/107 110/110/109
f 113/113/112 110/110/109 114/114/113
f 115/115/114 111/111/110 112/112/111
f 115/115/114 112/112/111 116/116/115
f 117/117/116 113/113/112 114/114/113
f 117/117/116 114/114/113 118/118/117
f 119/119/118 115/115/114 116/116/115
f 119/119/118 116/116/115 120/120/119
f 121/121/120 117/117/116 118/118/117
f 121/121/120 118/118/117 122/122/121
f 123/123/122 119/119/118 120/120/119
f 123/123/122 120/120/119 124/124/123
f 125/125/124 121/121/120 122/122/121
f 125/125/124 122/122/121 126/126/125
f 127/127/126 123/123/122 124/124/123
f 127/127/126 124/124/123 128/128/127
f 129/129/128 125/125/124 126/126/125
f 129/129/128 126/126/125 130/130/129
f 131/131/130 127/127/126 128/128/127
f 131/131/130 128/128/127 132/132/131
f 4/4/4 129/129/128 130/130/129
f 4/4/4 130/130/129 5/5/5
f 8/8/8 131/131/130 132/132/131
f 8/8/8 132/132/131 9/9/9
f 133/133/125 134/134/132 135/135/133
f 133/133/125 135/135/133 136/136/134
f 137/137/127 138/138/123 139/139/135
f 137/137/127 139/139/135 140/140/136
f 141/141/137 133/133/125 136/136/134
f 141/141/137 136/136/134 142/142/138
f 143/143/131 137/137/127 140/140/136
f 143/143/131 140/140/136 144/144/139
f 145/145/140 141/141/137 142/142/138
f 145/145/140 142/142/138 146/146/141
f 147/147/9 143/143/131 144/144/139
f 147/147/9 144/144/139 148/148/142
f 149/149/6 145/145/140 146/146/141
f 149/149/6 146/146/141 150/150/143
f 151/151/10 147/147/9 148/148/142
f 151/151/10 148/148/142 152/152/144
f 153/153/12 149/149/6 150/150/143
f 153/153/12 150/150/143 154/154/145
f 155/155/14 151/151/10 152/152/144
f 155/155/14 152/152/144 156/156/146
f 157/157/16 153/153/12 154/154/145
f 157/157/16 154/154/145 158/158/147
f 159/159/18 155/155/14 156/156/146
f 159/159/18 156/156/146 160/160/148
f 161/161/149 162/162/21 163/163/150
f 161/161/149 163/163/150 164/164/151
f 165/165/24 157/157/16 158/158/147
f 165/165/24 158/158/147 166/166/152
f 167/167/26 159/159/18 160/160/148
f 167/167/26 160/160/148 168/168/153
f 169/169/154 161/161/149 164/164/151
f 169/169/154 164/164/151 170/170/155
f 171/171/30 165/165/24 166/166/152
f 171/171/30 166/166/152 172/172/156
f 173/173/32 167/167/26 168/168/153
f 173/173/32 168/168/153 174/174/157
f 175/175/34 169/169/154 170/170/155
f 175/175/34 170/170/155 176/176/158
f 177/177/36 171/171/30 172/172/156
f 177/177/36 172/172/156 178/178/159
f 179/179/160 173/173/32 174/174/157
f 179/179/160 174/174/157 180/180/161
f 181/181/40 175/175/34 176/176/158
f 181/181/40 176/176/158 182/182/162
f 183/183/42 177/177/36 178/178/159
f 183/183/42 178/178/159 184/184/163
f 185/185/164 179/179/160 180/180/161
f 185/185/164 180/180/161 186/186/165
f 187/187/46 181/181/40 182/182/162
f 187/187/46 182/182/162 188/188/166
f 189/189/48 183/183/42 184/184/163
f 189/189/48 184/184/163 190/190/167
f 191/191/50 185/185/164 186/186/165
f 191/191/50 186/186/165 192/192/168
f 193/193/52 187/187/46 188/188/166
f 193/193/52 188/188/166 194/194/169
f 195/195/54 189/189/48 190/190/167
f 195/195/54 190/190/167 196/196/170
f 197/197/171 191/191/50 192/192/168
f 197/197/171 192/192/168 198/198/172
f 199/199/58 193/193/52 194/194/169
f 199/199/58 194/194/169 200/200/173
f 201/201/60 195/195/54 196/196/170
f 201/201/60 196/196/170 202/202/174
f 203/203/175 197/197/171 198/198/172
f 203/203/175 198/198/172 204/204/176
f 205/205/64 199/199/58 200/200/173
f 205/205/64 200/200/173 206/206/177
f 207/207/66 201/201/60 202/202/174
f 207/207/66 202/202/174 208/208/178
f 209/209/68 203/203/175 204/204/176
f 209/209/68 204/204/176 210/210/179
f 211/211/70 205/205/64 206/206/177
f 211/211/70 206/206/177 212/212/180
f 213/213/181 207/207/66 208/208/178
f 213/213/181 208/208/178 214/214/182
f 215/215/74 209/209/68 210/210/179
f 215/215/74 210/210/179 216/216/183
f 217/217/76 211/211/70 212/212/180
f 217/217/76 212/212/180 218/218/184
f 219/219/185 213/213/181 214/214/182
f 219/219/185 214/214/182 220/220/186
f 221/221/80 215/215/74 216/216/183
f 221/221/80 216/216/183 222/222/187
f 223/223/82 217/217/76 218/218/184
f 223/223/82 218/218/184 224/224/188
f 162/162/21 219/219/185 220/220/186
f 162/162/21 220/220/186 163/163/150
f 225/225/84 221/221/80 222/222/187
f 225/225/84 222/222/187 226/226/189
f 227/227/86 223/223/82 224/224/188
f 227/227/86 224/224/188 228/228/190
f 229/229/88 225/225/84 226/226/189
f 229/229/88 226/226/189 230/230/191
f 231/231/90 227/227/86 228/228/190
f 231/231/90 228/228/190 232/232/192
f 233/233/92 229/229/88 230/230/191
f 233/233/92 230/230/191 234/234/193
f 235/235/194 231/231/90 232/232/192
f 235/235/194 232/232/192 236/236/195
f 237/237/96 233/233/92 234/234/193
f 237/237/96 234/234/193 238/238/196
f 239/239/98 235/235/194 236/236/195
f 239/239/98 236/236/195 240/240/197
f 241/241/100 237/237/96 238/238/196
f 241/241/100 238/238/196 242/242/198
f 243/243/102 239/239/98 240/240/197
f 243/243/102 240/240/197 244/244/199
f 245/245/104 241/241/100 242/242/198
f 245/245/104 242/242/198 246/246/200
f 247/247/201 243/243/102 244/244/199
f 247/247/201 244/244/199 248/248/202
f 249/249/109 250/250/104 251/251/200
f 249/249/109 251/251/200 252/252/203
f 253/253/111 247/247/201 248/248/202
f 253/253/111 248/248/202 254/254/204
f 255/255/113 249/249/109 252/252/203
f 255/255/113 252/252/203 256/256/205
f 257/257/115 253/253/111 254/254/204
f 257/257/115 254/254/204 258/258/206
f 259/259/207 255/255/113 256/256/205
f 259/259/207 256/256/205 260/260/208
f 261/261/119 257/257/115 258/258/206
f 261/261/119 258/258/206 262/262/209
f 134/134/132 259/259/207 260/260/208
f 134/134/132 260/260/208 135/135/133
f 138/138/123 261/261/119 262/262/209
f 138/138/123 262/262/209 139/139/135
f 263/263/210 264/264/211 265/265/212
f 263/263/210 265/265/212 266/266/213
f 267/267/214 268/268/215 269/269/216
f 267/267/214 269/269/216 270/270/217
f 271/271/218 272/272/219 273/273/220
f 271/271/218 273/273/220 274/274/221
f 275/275/222 263/263/210 266/266/213
f 275/275/222 266/266/213 276/276/223
f 277/277/224 267/267/214 270/270/217
f 277/277/224 270/270/217 278/278/225
f 279/279/226 271/271/218 274/274/221
f 279/279/226 274/274/221 280/280/227
f 281/281/228 275/275/222 276/276/223
f 281/281/228 276/276/223 282/282/229
f 283/283/230 277/277/224 278/278/225
f 283/283/230 278/278/225 284/284/231
f 285/285/232 279/279/226 280/280/227
f 285/285/232 280/280/227 286/286/233
f 287/287/234 281/281/228 282/282/229
f 287/287/234 282/282/229 288/288/235
f 289/289/236 283/283/230 284/284/231
f 289/289/236 284/284/231 290/290/237
f 291/291/238 285/285/232 286/286/233
f 291/291/238 286/286/233 292/292/239
f 293/293/240 287/287/234 288/288/235
f 293/293/240 288/288/235 294/294/241
f 295/295/242 289/289/236 290/290/237
f 295/295/242 290/290/237 296/296/243
f 297/297/244 291/291/238 292/292/239
f 297/297/244 292/292/239 298/298/245
f 299/299/246 293/293/240 294/294/241
f 299/299/246 294/294/241 300/300/247
f 301/301/248 295/295/242 296/296/243
f 301/301/248 296/296/243 302/302/249
f 303/303/250 297/297/244 298/298/245
f 303/303/250 298/298/245 304/304/251
f 305/305/252 299/299/246 300/300/247
f 305/305/252 300/300/247 306/306/253
f 307/307/254 303/303/250 304/304/251
f 307/307/254 304/304/251 308/308/255
f 309/309/256 305/305/252 306/306/253
f 309/309/256 306/306/253 310/310/257
f 311/311/258 307/307/254 308/308/255
f 311/311/258 308/308/255 312/312/259
f 313/313/260 309/309/256 310/310/257
f 313/313/260 310/310/257 314/314/261
f 315/315/262 311/311/258 312/312/259
f 315/315/262 312/312/259 316/316/263
f 317/317/264 313/313/260 314/314/261
f 317/317/264 314/314/261 318/318/265
f 319/319/266 315/315/262 316/316/263
f 319/319/266 316/316/263 320/320/267
f 321/321/268 317/317/264 318/318/265
f 321/321/268 318/318/265 322/322/269
f 323/323/270 319/319/266 320/320/267
f 323/323/270 320/320/267 324/324/271
f 325/325/272 321/321/268 322/322/269
f 325/325/272 322/322/269 326/326/273
f 327/327/274 323/323/270 324/324/271
f 327/327/274 324/324/271 328/328/275
f 329/329/276 325/325/272 326/326/273
f 329/329/276 326/326/273 330/330/277
f 331/331/278 332/332/279 333/333/280
f 331/331/278 333/333/280 334/334/281
f 335/335/282 329/329/276 330/330/277
f 335/335/282 330/330/277 336/336/283
f 337/337/284 331/331/278 334/334/281
f 337/337/284 334/334/281 338/338/285
f 339/339/286 335/335/282 336/336/283
f 339/339/286 336/336/283 340/340/287
f 341/341/288 337/337/284 338/338/285
f 341/341/288 338/338/285 342/342/289
f 343/343/290 339/339/286 340/340/287
f 343/343/290 340/340/287 344/344/291
f 345/345/292 341/341/288 342/342/289
f 345/345/292 342/342/289 346/346/293
f 347/347/294 343/343/290 344/344/291
f 347/347/294 344/344/291 348/348/295
f 349/349/296 345/345/292 346/346/293
f 349/349/296 346/346/293 350/350/297
f 351/351/298 347/347/294 348/348/295
f 351/351/298 348/348/295 352/352/299
f 353/353/300 349/349/296 350/350/297
f 353/353/300 350/350/297 354/354/301
f 355/355/302 351/351/298 352/352/299
f 355/355/302 352/352/299 356/356/303
f 357/357/304 353/353/300 354/354/301
f 357/357/304 354/354/301 358/358/305
f 359/359/306 355/355/302 356/356/303
f 359/359/306 356/356/303 360/360/307
f 361/361/308 357/357/304 358/358/305
f 361/361/308 358/358/305 362/362/309
f 363/363/310 359/359/306 360/360/307
f 363/363/310 360/360/307 364/364/311
f 365/365/312 361/361/308 362/362/309
f 365/365/312 362/362/309 366/366/313
f 367/367/314 363/363/310 364/364/311
f 367/367/314 364/364/311 368/368/315
f 369/369/316 365/365/312 366/366/313
f 369/369/316 366/366/313 370/370/317
f 371/371/318 367/367/314 368/368/315
f 371/371/318 368/368/315 372/372/319
f 373/373/320 369/369/316 370/370/317
f 373/373/320 370/370/317 374/374/321
f 375/375/322 371/371/318 372/372/319
f 375/375/322 372/372/319 376/376/323
f 377/377/324 301/301/248 302/302/249
f 377/377/324 302/302/249 378/378/325
f 379/379/326 373/373/320 374/374/321
f 379/379/326 374/374/321 380/380/327
f 381/381/328 375/375/322 376/376/323
f 381/381/328 376/376/323 382/382/329
f 383/383/330 384/384/331 385/385/332
f 383/383/330 385/385/332 386/386/333
f 387/387/334 379/379/326 380/380/327
f 387/387/334 380/380/327 388/388/335
f 389/389/336 381/381/328 382/382/329
f 389/389/336 382/382/329 390/390/337
f 264/264/211 383/383/330 386/386/333
f 264/264/211 386/386/333 265/265/212
f 268/268/215 387/387/334 388/388/335
f 268/268/215 388/388/335 269/269/216
f 272/272/219 389/389/336 390/390/337
f 272/272/219 390/390/337 273/273/220
f 384/384/331 391/391/338 392/392/339
f 384/384/331 392/392/339 385/385/332
f 391/391/338 377/377/324 378/378/325
f 391/391/338 378/378/325 392/392/339
f 393/393/340 394/394/341 395/395/342
f 393/393/340 395/395/342 396/396/343
f 397/397/344 393/393/340 396/396/343
f 397/397/344 396/396/343 398/398/331
f 399/399/345 400/400/346 401/401/347
f 399/399/345 401/401/347 402/402/348
f 403/403/349 404/404/350 405/405/351
f 403/403/349 405/405/351 406/406/352
f 407/407/353 408/408/354 409/409/355
f 407/407/353 409/409/355 410/410/356
f 400/400/346 411/411/357 412/412/328
f 400/400/346 412/412/328 401/401/347
f 404/404/350 413/413/358 414/414/326
f 404/404/350 414/414/326 405/405/351
f 408/408/354 397/397/344 398/398/331
f 408/408/354 398/398/331 409/409/355
f 411/411/357 415/415/359 416/416/360
f 411/411/357 416/416/360 412/412/328
f 413/413/358 417/417/361 418/418/320
f 413/413/358 418/418/320 414/414/326
f 394/394/341 419/419/362 420/420/248
f 394/394/341 420/420/248 395/395/342
f 415/415/359 421/421/363 422/422/364
f 415/415/359 422/422/364 416/416/360
f 417/417/361 423/423/365 424/424/366
f 417/417/361 424/424/366 418/418/320
f 421/421/363 425/425/367 426/426/314
f 421/421/363 426/426/314 422/422/364
f 423/423/365 427/427/368 428/428/312
f 423/423/365 428/428/312 424/424/366
f 425/425/367 429/429/369 430/430/370
f 425/425/367 430/430/370 426/426/314
f 427/427/368 431/431/371 432/432/372
f 427/427/368 432/432/372 428/428/312
f 429/429/369 433/433/373 434/434/374
f 429/429/369 434/434/374 430/430/370
f 431/431/371 435/435/375 436/436/304
f 431/431/371 436/436/304 432/432/372
f 433/433/373 437/437/376 438/438/302
f 433/433/373 438/438/302 434/434/374
f 435/435/375 439/439/377 440/440/378
f 435/435/375 440/440/378 436/436/304
f 437/437/376 441/441/379 442/442/298
f 437/437/376 442/442/298 438/438/302
f 439/439/377 443/443/380 444/444/381
f 439/439/377 444/444/381 440/440/378
f 441/441/379 445/445/382 446/446/383
f 441/441/379 446/446/383 442/442/298
f 443/443/380 447/447/384 448/448/385
f 443/443/380 448/448/385 444/444/381
f 445/445/382 449/449/386 450/450/387
f 445/445/382 450/450/387 446/446/383
f 447/447/384 451/451/388 452/452/389
f 447/447/384 452/452/389 448/448/385
f 449/449/386 453/453/390 454/454/286
f 449/449/386 454/454/286 450/450/387
f 451/451/388 455/455/391 456/456/392
f 451/451/388 456/456/392 452/452/389
f 453/453/390 457/457/393 458/458/394
f 453/453/390 458/458/394 454/454/286
f 455/455/391 459/459/395 460/460/396
f 455/455/391 460/460/396 456/456/392
f 457/457/393 461/461/397 462/462/398
f 457/457/393 462/462/398 458/458/394
f 459/459/395 463/463/399 464/464/274
f 459/459/395 464/464/274 460/460/396
f 461/461/397 465/465/400 466/466/401
f 461/461/397 466/466/401 462/462/398
f 467/467/402 468/468/403 469/469/270
f 467/467/402 469/469/270 470/470/279
f 465/465/400 471/471/404 472/472/405
f 465/465/400 472/472/405 466/466/401
f 468/468/403 473/473/406 474/474/407
f 468/468/403 474/474/407 469/469/270
f 471/471/404 475/475/408 476/476/264
f 471/471/404 476/476/264 472/472/405
f 473/473/406 477/477/409 478/478/410
f 473/473/406 478/478/410 474/474/407
f 475/475/408 479/479/411 480/480/260
f 475/475/408 480/480/260 476/476/264
f 477/477/409 481/481/412 482/482/258
f 477/477/409 482/482/258 478/478/410
f 479/479/411 483/483/413 484/484/414
f 479/479/411 484/484/414 480/480/260
f 481/481/412 485/485/415 486/486/254
f 481/481/412 486/486/254 482/482/258
f 483/483/413 487/487/416 488/488/252
f 483/483/413 488/488/252 484/484/414
f 485/485/415 489/489/417 490/490/418
f 485/485/415 490/490/418 486/486/254
f 487/487/416 491/491/419 492/492/246
f 487/487/416 492/492/246 488/488/252
f 489/489/417 493/493/420 494/494/421
f 489/489/417 494/494/421 490/490/418
f 419/419/362 495/495/422 496/496/423
f 419/419/362 496/496/423 420/420/248
f 491/491/419 497/497/424 498/498/425
f 491/491/419 498/498/425 492/492/246
f 493/493/420 499/499/426 500/500/427
f 493/493/420 500/500/427 494/494/421
f 495/495/422 501/501/428 502/502/236
f 495/495/422 502/502/236 496/496/423
f 497/497/424 503/503/429 504/504/430
f 497/497/424 504/504/430 498/498/425
f 499/499/426 505/505/431 506/506/432
f 499/499/426 506/506/432 500/500/427
f 501/501/428 507/507/433 508/508/434
f 501/501/428 508/508/434 502/502/236
f 503/503/429 509/509/435 510/510/228
f 503/503/429 510/510/228 504/504/430
f 505/505/431 511/511/436 512/512/437
f 505/505/431 512/512/437 506/506/432
f 507/507/433 513/513/438 514/514/439
f 507/507/433 514/514/439 508/508/434
f 509/509/435 515/515/440 516/516/222
f 509/509/435 516/516/222 510/510/228
f 511/511/436 517/517/441 518/518/218
f 511/511/436 518/518/218 512/512/437
f 513/513/438 519/519/442 520/520/214
f 513/513/438 520/520/214 514/514/439
f 515/515/440 521/521/443 522/522/444
f 515/515/440 522/522/444 516/516/222
f 517/517/441 399/399/345 402/402/348
f 517/517/441 402/402/348 518/518/218
f 519/519/442 403/403/349 406/406/352
f 519/519/442 406/406/352 520/520/214
f 521/521/443 407/407/353 410/410/356
f 521/521/443 410/410/356 522/522/444
f 7/7/7 523/523/445 524/524/446
f 7/7/7 524/524/446 8/8/8
f 524/524/446 525/525/447 131/131/130
f 524/524/446 131/131/130 8/8/8
f 129/129/128 4/4/4 3/3/3
f 129/129/128 3/3/3 526/526/448
f 131/131/130 525/525/447 527/527/449
f 131/131/130 527/527/449 127/127/126
f 129/129/128 526/526/448 528/528/450
f 129/129/128 528/528/450 125/125/124
f 127/127/126 527/527/449 529/529/451
f 127/127/126 529/529/451 123/123/122
f 125/125/124 528/528/450 530/530/452
f 125/125/124 530/530/452 121/121/120
f 123/123/122 529/529/451 531/531/453
f 123/123/122 531/531/453 119/119/118
f 121/121/120 530/530/452 532/532/454
f 121/121/120 532/532/454 117/117/116
f 119/119/118 531/531/453 533/533/455
f 119/119/118 533/533/455 115/115/114
f 117/117/116 532/532/454 534/534/456
f 117/117/116 534/534/456 113/113/112
f 115/115/114 533/533/455 535/535/457
f 115/115/114 535/535/457 111/111/110
f 113/113/112 534/534/456 536/536/458
f 113/113/112 536/536/458 107/107/107
f 111/111/110 535/535/457 537/537/459
f 111/111/110 537/537/459 105/105/105
f 107/107/107 536/536/458 538/538/460
f 107/107/107 538/538/460 108/108/108
f 105/105/105 537/537/459 539/539/461
f 105/105/105 539/539/461 101/101/101
f 103/103/103 540/540/460 541/541/462
f 103/103/103 541/541/462 99/99/99
f 101/101/101 539/539/461 542/542/463
f 101/101/101 542/542/463 97/97/97
f 99/99/99 541/541/462 543/543/464
f 99/99/99 543/543/464 95/95/95
f 97/97/97 542/542/463 544/544/465
f 97/97/97 544/544/465 93/93/93
f 95/95/95 543/543/464 545/545/466
f 95/95/95 545/545/466 91/91/91
f 93/93/93 544/544/465 546/546/467
f 93/93/93 546/546/467 89/89/89
f 91/91/91 545/545/466 547/547/468
f 91/91/91 547/547/468 87/87/87
f 89/89/89 546/546/467 548/548/469
f 89/89/89 548/548/469 85/85/85
f 87/87/87 547/547/468 549/549/470
f 87/87/87 549/549/470 83/83/83
f 85/85/85 548/548/469 550/550/471
f 85/85/85 550/550/471 81/81/81
f 83/83/83 549/549/470 551/551/472
f 83/83/83 551/551/472 79/79/79
f 552/552/473 553/553/474 77/77/77
f 552/552/473 77/77/77 20/20/20
f 81/81/81 550/550/471 554/554/475
f 81/81/81 554/554/475 75/75/75
f 79/79/79 551/551/472 555/555/476
f 79/79/79 555/555/476 73/73/73
f 77/77/77 553/553/474 556/556/477
f 77/77/77 556/556/477 71/71/71
f 75/75/75 554/554/475 557/557/478
f 75/75/75 557/557/478 69/69/69
f 73/73/73 555/555/476 558/558/479
f 73/73/73 558/558/479 67/67/67
f 71/71/71 556/556/477 559/559/480
f 71/71/71 559/559/480 65/65/65
f 69/69/69 557/557/478 560/560/481
f 69/69/69 560/560/481 63/63/63
f 67/67/67 558/558/479 561/561/482
f 67/67/67 561/561/482 61/61/61
f 65/65/65 559/559/480 562/562/483
f 65/65/65 562/562/483 59/59/59
f 63/63/63 560/560/481 563/563/484
f 63/63/63 563/563/484 57/57/57
f 61/61/61 561/561/482 564/564/485
f 61/61/61 564/564/485 55/55/55
f 59/59/59 562/562/483 565/565/486
f 59/59/59 565/565/486 53/53/53
f 57/57/57 563/563/484 566/566/487
f 57/57/57 566/566/487 51/51/51
f 55/55/55 564/564/485 567/567/488
f 55/55/55 567/567/488 49/49/49
f 53/53/53 565/565/486 568/568/489
f 53/53/53 568/568/489 47/47/47
f 51/51/51 566/566/487 569/569/490
f 51/51/51 569/569/490 45/45/45
f 49/49/49 567/567/488 570/570/491
f 49/49/49 570/570/491 43/43/43
f 47/47/47 568/568/489 571/571/492
f 47/47/47 571/571/492 41/41/41
f 45/45/45 569/569/490 572/572/493
f 45/45/45 572/572/493 39/39/39
f 43/43/43 570/570/491 573/573/494
f 43/43/43 573/573/494 37/37/37
f 41/41/41 571/571/492 574/574/495
f 41/41/41 574/574/495 35/35/35
f 39/39/39 572/572/493 575/575/496
f 39/39/39 575/575/496 33/33/33
f 37/37/37 573/573/494 576/576/497
f 37/37/37 576/576/497 31/31/31
f 35/35/35 574/574/495 577/577/498
f 35/35/35 577/577/498 29/29/29
f 33/33/33 575/575/496 578/578/499
f 33/33/33 578/578/499 27/27/27
f 31/31/31 576/576/497 579/579/500
f 31/31/31 579/579/500 25/25/25
f 29/29/29 577/577/498 580/580/501
f 29/29/29 580/580/501 23/23/23
f 27/27/27 578/578/499 581/581/502
f 27/27/27 581/581/502 19/19/19
f 25/25/25 579/579/500 582/582/503
f 25/25/25 582/582/503 17/17/17
f 23/23/23 580/580/501 583/583/504
f 23/23/23 583/583/504 15/15/15
f 17/17/17 582/582/503 584/584/505
f 17/17/17 584/584/505 13/13/13
f 15/15/15 583/583/504 585/585/506
f 15/15/15 585/585/506 11/11/11
f 13/13/13 584/584/505 523/523/445
f 13/13/13 523/523/445 7/7/7
f 11/11/11 585/585/506 2/2/2
f 11/11/11 2/2/2 1/1/1
f 19/19/19 581/581/502 552/552/473
f 19/19/19 552/552/473 20/20/20
