# Blender v3.5.0 OBJ File: ''
# www.blender.org
mtllib Säule Kaputt.mtl
o Object_2_Object_0.001
v -2.706146 -216.408447 -0.340180
v 4.877260 -0.000007 -24.519604
v 0.000000 -0.000007 -25.000004
v 0.000000 200.000031 -25.000031
v 4.877260 200.000031 -24.519730
v 9.567090 -0.000007 -23.097002
v 9.567090 200.000031 -23.097029
v 13.889300 -0.000006 -20.786701
v 13.889300 200.000031 -20.786829
v 17.677700 -0.000005 -17.677702
v 17.677700 200.000031 -17.677729
v 20.786699 -0.000004 -13.889302
v 20.786699 200.000031 -13.889329
v -2.706146 -116.408432 -0.340193
v 23.097000 -0.000003 -9.567091
v -10.828924 -208.941162 24.659588
v 18.559988 -208.941162 15.110391
v 23.097000 200.000031 -9.567147
v 24.519600 -0.000001 -4.877261
v 18.559988 -208.941162 -15.790753
v 24.519600 200.000031 -4.877317
v -28.992636 -208.941040 -0.340181
v 25.000000 -0.000000 -0.000002
v 25.000000 200.000031 -0.000061
v -10.828924 -208.941162 -25.339947
v 24.519600 0.000001 4.877251
v 24.519600 200.000031 4.877194
v 23.097000 0.000003 9.567080
v 23.097000 200.000031 9.567024
v 20.786699 0.000004 13.889302
v 20.786699 200.000031 13.889175
v 17.677700 0.000005 17.677702
v 17.677700 200.000031 17.677576
v 13.889300 0.000006 20.786701
v 13.889300 200.000031 20.786674
v 9.567080 0.000007 23.097002
v 9.567080 200.000031 23.096975
v 4.877250 0.000007 24.519604
v 4.877250 200.000031 24.519577
v -0.000008 0.000007 25.000004
v -0.000008 200.000031 24.999977
v -4.877270 0.000007 24.519604
v 23.580343 -123.875847 -0.340192
v -4.877270 200.000031 24.519577
v -9.567100 0.000007 23.097002
v -9.567100 200.000031 23.096975
v -13.889300 0.000006 20.786701
v -13.889300 200.000031 20.786674
v -17.677700 0.000005 17.677702
v -17.677700 200.000031 17.677576
v -20.786800 0.000004 13.889202
v -20.786800 200.000031 13.889175
v -23.097000 0.000003 9.567071
v -23.097000 200.000031 9.567015
v -24.519600 0.000001 4.877241
v -24.519600 200.000031 4.877174
v -25.000000 -0.000000 -0.000024
v -25.000000 200.000031 -0.000084
v -24.519600 -0.000001 -4.877281
v -24.519600 200.000031 -4.877347
v -23.097000 -0.000003 -9.567111
v -23.097000 200.000031 -9.567178
v -20.786699 -0.000004 -13.889302
v -20.786699 200.000031 -13.889329
v -17.677601 -0.000005 -17.677702
v -17.677601 200.000031 -17.677729
v -13.889200 -0.000006 -20.786802
v -13.889200 200.000031 -20.786829
v -9.567050 -0.000007 -23.097002
v -9.567050 200.000031 -23.097029
v -4.877220 200.000031 -24.519730
v -4.877220 -0.000007 -24.519604
v 27.022800 -225.000031 18.056133
v 27.022800 -201.145035 18.056129
v 22.981001 -201.145035 22.981030
v 22.981001 -225.000031 22.981033
v -18.056101 -225.000031 27.022835
v -22.981001 -225.000031 22.981033
v 35.063099 -250.000031 6.974555
v 35.063099 -226.145035 6.974542
v 33.028702 -226.145035 13.681032
v 33.028702 -250.000031 13.681035
v 12.437200 -225.000031 -30.025972
v 12.437200 -201.145035 -30.025976
v 18.056000 -201.145035 -27.022676
v 18.056000 -225.000031 -27.022673
v -32.500000 -225.000031 0.000038
v -31.875500 -225.000031 -6.340401
v 6.340410 -225.000031 31.875635
v 6.340430 -201.145035 31.875631
v -0.000012 -201.145035 32.500031
v -0.000027 -225.000031 32.500034
v 30.026100 -225.000031 -12.437171
v 30.026100 -201.145035 -12.437175
v 31.875500 -201.145035 -6.340374
v 31.875500 -225.000031 -6.340371
v -22.981001 -225.000031 -22.980972
v -18.056000 -225.000031 -27.022774
v -27.022800 -225.000031 18.056133
v 30.026100 -225.000031 12.437232
v 30.026100 -201.145035 12.437228
v 6.340420 -225.000031 -31.875473
v 6.340440 -201.145035 -31.875477
v -31.875500 -225.000031 6.340481
v 12.437200 -225.000031 30.026134
v 12.437200 -201.145035 30.026131
v 27.022800 -225.000031 -18.055971
v 27.022800 -201.145035 -18.055975
v -27.022800 -225.000031 -18.055971
v -12.437200 -225.000031 30.026134
v 31.875500 -225.000031 6.340501
v 31.875500 -201.145035 6.340498
v -0.000017 -225.000031 -32.499973
v -30.026100 -225.000031 12.437232
v 18.056000 -225.000031 27.022835
v 18.056000 -201.145035 27.022831
v 22.981001 -225.000031 -22.980871
v 22.981001 -201.145035 -22.980875
v -30.026100 -225.000031 -12.437171
v -6.340470 -225.000031 31.875635
v -6.340450 -201.145035 31.875631
v 32.500000 -225.000031 0.000067
v 32.500000 -201.145035 0.000059
v -12.437200 -225.000031 -30.026073
v -6.340400 -225.000031 -31.875473
v 6.974450 -250.000031 -35.062969
v 6.974460 -226.145035 -35.062973
v 13.680900 -226.145035 -33.028675
v 13.680900 -250.000031 -33.028568
v -19.861700 -250.000031 29.725138
v -19.861700 -226.145035 29.725134
v -25.279100 -226.145035 25.279135
v -25.279100 -250.000031 25.279139
v 30.746700 -200.000031 -6.115844
v 31.349100 -200.000031 0.000059
v 30.746700 -200.000031 6.115958
v 28.962799 -200.000031 11.996828
v 28.962799 -200.000031 -11.996675
v -13.240500 -225.000031 31.965435
v -19.222200 -225.000031 28.768135
v -29.725000 -250.000031 -19.861568
v -29.725000 -226.145035 -19.861572
v -25.279100 -226.145035 -25.279074
v -25.279100 -250.000031 -25.279070
v 29.725000 -250.000031 -19.861568
v 29.725000 -226.145035 -19.861572
v 33.028702 -226.145035 -13.680871
v 33.028702 -250.000031 -13.680868
v 13.680900 -250.000031 33.028740
v 13.680900 -226.145035 33.028736
v 6.974450 -226.145035 35.063133
v 6.974450 -250.000031 35.063137
v -35.063099 -250.000031 6.974524
v -35.063099 -226.145035 6.974522
v -35.750000 -226.145035 0.000036
v -35.750000 -250.000031 0.000043
v 29.725000 -226.145035 19.861732
v 29.725000 -250.000031 19.861736
v -13.681000 -250.000031 33.028740
v -13.681000 -226.145035 33.028736
v -19.861601 -226.145035 -29.724974
v -19.861601 -250.000031 -29.724970
v 35.063099 -226.145035 -6.974411
v 35.063000 -250.000031 -6.974408
v -0.000029 -226.145035 35.750034
v -0.000037 -250.000031 35.750038
v -35.063099 -226.145035 -6.974451
v -35.063099 -250.000031 -6.974438
v -0.000026 -250.000031 -35.749969
v -0.000018 -226.145035 -35.749973
v 25.279100 -226.145035 25.279135
v 25.278999 -250.000031 25.279139
v 6.749930 -225.000031 -33.934174
v 13.240500 -225.000031 -31.965273
v -29.725100 -226.145035 19.861732
v -29.725100 -250.000031 19.861736
v -13.680900 -226.145035 -33.028675
v -13.680900 -250.000031 -33.028671
v 35.750000 -226.145035 0.000068
v 35.750000 -250.000031 0.000075
v -6.974510 -226.145035 35.063133
v -6.974520 -250.000031 35.063137
v -33.028702 -226.145035 -13.680871
v -33.028702 -250.000031 -13.680868
v 19.861601 -250.000031 -29.724970
v 19.861601 -226.145035 -29.724974
v 25.279100 -226.145035 -25.278973
v 25.278999 -250.000031 -25.278969
v 19.861601 -226.145035 29.725134
v 19.861601 -250.000031 29.725138
v -33.028702 -226.145035 13.680932
v -33.028702 -250.000031 13.681035
v -6.974440 -226.145035 -35.062973
v -6.974450 -250.000031 -35.062969
v 28.768101 -225.000031 -19.222172
v 31.965401 -225.000031 -13.240472
v -24.465300 -225.000031 24.465334
v 33.934200 -225.000031 -6.749881
v -28.768101 -225.000031 19.222233
v 34.599098 -225.000031 0.000067
v -31.965401 -225.000031 13.240533
v 33.934200 -225.000031 6.750011
v -33.934299 -225.000031 6.749981
v 31.965401 -225.000031 13.240533
v -34.599098 -225.000031 0.000036
v 28.768101 -225.000031 19.222332
v -33.934299 -225.000031 -6.749911
v 24.465200 -225.000031 24.465334
v -31.965401 -225.000031 -13.240472
v 19.222200 -225.000031 28.768135
v -28.768101 -225.000031 -19.222172
v 13.240500 -225.000031 31.965435
v -24.465200 -225.000031 -24.465174
v 6.749920 -225.000031 33.934334
v -0.000017 -225.000031 -34.598972
v -19.222200 -225.000031 -28.768074
v -0.000028 -225.000031 34.599133
v 19.222200 -225.000031 -28.767973
v -13.240500 -225.000031 -31.965374
v -6.749980 -225.000031 33.934334
v 24.465200 -225.000031 -24.465174
v -6.749910 -225.000031 -33.934174
v 33.978100 215.693024 34.999973
v 17.500000 200.000031 34.999977
v 35.000000 200.000031 17.499975
v 35.000000 215.693024 33.977974
v 35.000000 215.693024 -33.978134
v 35.000000 200.000031 -17.500029
v 17.500000 200.000031 -35.000031
v 33.978100 215.693024 -35.000034
v -17.500000 250.000031 34.999969
v -17.500000 250.000031 17.499968
v -35.000000 250.000031 17.499968
v -35.000000 250.000031 33.588669
v -33.588699 250.000031 34.999969
v 17.500000 200.000031 17.499975
v -17.500000 200.000031 -35.000031
v -33.978100 215.693024 -35.000034
v -33.588699 216.667038 -35.000034
v -17.500000 216.667038 -35.000034
v -17.500000 233.333023 -35.000034
v -33.588699 233.333023 -35.000034
v -33.588699 250.000031 -35.000038
v -17.500000 250.000031 -35.000038
v -17.500000 250.000031 -0.000071
v -17.500000 250.000031 -17.500036
v -35.000000 250.000031 -17.500036
v -35.000000 250.000031 -0.000071
v 17.500000 200.000031 -17.500029
v 17.500000 200.000031 -0.000056
v 35.000000 200.000031 -0.000056
v 33.588699 233.333023 -35.000034
v 17.500000 233.333023 -35.000034
v 17.500000 250.000031 -35.000038
v 33.588699 250.000031 -35.000038
v 35.000000 233.333023 -0.000066
v 35.000000 233.333023 -17.500032
v 35.000000 250.000031 -17.500036
v 35.000000 250.000031 -0.000071
v 35.000000 233.333023 17.499971
v 35.000000 250.000031 17.499968
v -33.588699 233.333023 34.999973
v -17.500000 233.333023 34.999973
v -35.000000 233.333023 -0.000066
v -35.000000 233.333023 17.499971
v -35.000000 233.333023 -17.500032
v -35.000000 200.000031 17.499975
v -35.000000 200.000031 -0.000056
v -17.500000 200.000031 -0.000056
v -17.500000 200.000031 17.499975
v 0.000000 200.000031 -0.000056
v 0.000000 200.000031 17.499975
v -35.000000 200.000031 -17.500029
v -17.500000 200.000031 -17.500029
v 0.000000 200.000031 -17.500029
v -35.000000 215.693024 -33.978134
v -35.000000 216.667038 -17.500031
v -35.000000 216.667038 -33.588833
v 0.000000 200.000031 -35.000031
v 17.500000 250.000031 -0.000071
v 17.500000 250.000031 17.499968
v 0.000000 250.000031 -0.000071
v 0.000000 250.000031 17.499968
v 17.500000 250.000031 -17.500036
v 0.000000 250.000031 -17.500036
v 35.000000 233.333023 -33.588833
v 35.000000 250.000031 -33.588837
v 0.000000 250.000031 -35.000038
v 17.500000 233.333023 34.999973
v 33.588699 233.333023 34.999973
v 33.588699 250.000031 34.999969
v 17.500000 250.000031 34.999969
v 0.000000 250.000031 34.999969
v -17.500000 200.000031 34.999977
v 0.000000 200.000031 34.999977
v 35.000000 233.333023 33.588673
v 35.000000 250.000031 33.588669
v 0.000000 233.333023 34.999973
v -35.000000 233.333023 -33.588833
v -35.000000 250.000031 -33.588837
v 0.000000 233.333023 -35.000034
v 0.000000 216.667038 -35.000034
v 17.500000 216.667038 -35.000034
v 0.000000 216.667038 34.999973
v -17.500000 216.667038 34.999973
v 17.500000 216.667038 34.999973
v 33.588699 216.667038 34.999973
v -35.000000 216.667038 -0.000061
v -35.000000 216.667038 17.499973
v -35.000000 216.667038 33.588673
v -35.000000 233.333023 33.588673
v 35.000000 216.667038 -0.000061
v 35.000000 216.667038 17.499973
v 35.000000 216.667038 -17.500031
v 33.588699 216.667038 -35.000034
v 35.000000 216.667038 -33.588833
v -33.588699 216.667038 34.999973
v -35.000000 215.693024 33.977974
v 35.000000 216.667038 33.588673
v -33.978100 215.693024 34.999973
v 6.274660 -200.335037 31.544931
v 12.308200 -200.335037 29.714731
v 17.868700 -200.335037 26.742531
v 22.742599 -200.335037 22.742628
v 26.742500 -200.335037 17.868828
v 29.714600 -200.335037 12.308228
v 31.544901 -200.335037 6.274728
v 32.162899 -200.335037 0.000059
v 31.544901 -200.335037 -6.274614
v 29.714600 -200.335037 -12.308175
v 26.742500 -200.335037 -17.868675
v 22.742599 -200.335037 -22.742575
v 17.868799 -200.335037 -26.742376
v 12.308200 -200.335037 -29.714577
v 6.908700 -225.335037 -34.732372
v 13.551900 -225.335037 -32.717175
v 19.674299 -225.335037 -29.444674
v 25.040701 -225.335037 -25.040674
v 29.444700 -225.335037 -19.674271
v 32.717201 -225.335037 -13.551871
v 34.732399 -225.335037 -6.908651
v 35.412899 -225.335037 0.000067
v 34.732399 -225.335037 6.908781
v 32.717201 -225.335037 13.552032
v 29.444700 -225.335037 19.674433
v 25.040701 -225.335037 25.040735
v 19.674299 -225.335037 29.444834
v 13.551900 -225.335037 32.717335
v 6.908690 -225.335037 34.732533
v -0.000029 -225.335037 35.412933
v -6.908750 -225.335037 34.732533
v -13.552000 -225.335037 32.717335
v -19.674400 -225.335037 29.444834
v -25.040701 -225.335037 25.040735
v -29.444799 -225.335037 19.674433
v -32.717300 -225.335037 13.551932
v -34.732498 -225.335037 6.908751
v -35.412899 -225.335037 0.000036
v -34.732498 -225.335037 -6.908681
v -32.717300 -225.335037 -13.551871
v -29.444700 -225.335037 -19.674372
v -25.040701 -225.335037 -25.040674
v -19.674299 -225.335037 -29.444674
v -13.551900 -225.335037 -32.717175
v -6.908680 -225.335037 -34.732372
v -0.000017 -225.335037 -35.412872
v -22.754732 -202.241028 23.166725
v -20.935656 -202.694916 24.659618
v -18.056101 -202.230179 27.022831
v -22.981001 -202.184570 22.981030
v -4.877220 -125.709747 -24.519587
v -1.823899 -125.207458 -24.820335
v 0.000000 -124.907417 -24.999987
v -6.618623 -125.737061 -23.991352
v -9.567050 -125.783302 -23.096985
v -11.176224 -125.538284 -22.236877
v -13.889200 -125.125145 -20.786722
v -15.317224 -124.610786 -19.614759
v -17.358122 -123.875717 -17.939869
v -17.677601 -123.822830 -17.677685
v -18.867332 -123.467804 -16.228012
v -20.786699 -122.895035 -13.889224
v -23.097000 -123.568375 -9.567076
v -21.675365 -123.069191 -12.226676
v -20.945665 -122.812965 -13.591825
v -23.639303 -123.758797 -7.779284
v -23.972281 -123.875717 -6.681572
v -24.519600 -124.293831 -4.877245
v -25.000000 -124.660820 0.000013
v -24.701113 -124.432495 -3.034435
v -24.818703 -124.522324 1.840636
v -24.519600 -124.293831 4.877276
v -23.097000 -123.568375 9.567105
v -23.972281 -123.875717 6.681603
v -23.978159 -123.880211 6.662221
v -21.207697 -122.904976 13.101815
v -20.786800 -123.122276 13.889280
v -22.210543 -123.257111 11.225570
v -19.597216 -123.477272 15.338812
v -18.261959 -123.875717 16.965807
v -17.677700 -124.255020 17.677719
v -13.889300 -125.619537 20.786781
v -16.252661 -124.768280 18.847197
v -9.567100 -126.277664 23.097019
v -12.287136 -125.863510 21.643169
v -4.877270 -126.204155 24.519684
v -7.837737 -126.250542 23.621599
v -0.000008 -125.401764 25.000021
v -3.070413 -125.906914 24.697655
v 4.877250 -123.901413 24.519682
v 1.832917 -124.837898 24.819481
v 9.567080 -125.739174 23.097019
v 6.651543 -124.334442 23.981472
v 4.933540 -123.875717 24.502607
v 5.699487 -123.875717 24.270267
v 5.326865 -123.793198 24.383297
v 13.889300 -127.373070 20.786783
v 11.158934 -126.340919 22.246145
v 17.677700 -128.318359 17.677719
v 15.258528 -127.714729 19.663109
v 20.786699 -128.538712 13.889319
v 18.790766 -128.397247 16.321419
v 21.614307 -128.354950 12.340991
v 23.097000 -128.025757 9.567117
v 23.612112 -127.581604 7.868967
v 24.519600 -126.799118 4.877293
v 24.697100 -126.102982 3.075220
v 25.000000 -125.529396 0.000035
v 24.695469 -126.106071 3.091794
v 24.821453 -125.667244 -1.812665
v 24.644035 -126.003212 -3.613887
v 24.519600 -126.493576 -4.877224
v 24.966488 -125.392601 -0.340192
v 23.097000 -127.720222 -9.567048
v 23.999935 -126.941658 -6.590381
v 20.786699 -128.233154 -13.889221
v 22.264196 -127.905128 -11.125094
v 19.669853 -128.153992 -15.250128
v 17.677700 -128.012802 -17.677622
v 16.307642 -127.670929 -18.801977
v 13.889300 -127.067520 -20.786684
v 12.300170 -126.466805 -21.636103
v 9.567090 -125.433662 -23.096985
v 7.798592 -124.581558 -23.633436
v 6.333654 -123.875725 -24.077808
v 5.125605 -123.608177 -24.444254
v 4.877260 -123.660278 -24.519587
v 3.023348 -123.977341 -24.702192
v 3.353686 -123.875717 -24.669655
v -31.954708 -204.170685 -5.536213
v -32.466492 -205.139862 -0.340181
v -32.500000 -205.003082 0.000032
v -31.875500 -204.020676 -6.340404
v -18.425779 -202.936111 -26.719311
v -20.106485 -203.207367 -25.339979
v -22.980906 -202.490158 -22.980976
v -18.056000 -202.876434 -27.022778
v -26.893667 -201.907196 18.213478
v -27.022800 -201.898041 18.056129
v -32.403770 -204.820847 0.977028
v -31.875500 -203.820435 6.340469
v -23.206106 -202.474197 -22.706564
v -27.022703 -202.203659 -18.055975
v -17.793678 -202.259155 27.163095
v -12.552557 -202.837784 29.964472
v -12.437200 -202.774734 30.026131
v 0.229489 -201.145035 -32.477375
v -0.000002 -201.182785 -32.499977
v -31.666071 -203.846405 7.030874
v -31.531641 -203.863083 7.474038
v -30.026100 -202.564941 12.437229
v -27.159817 -202.234116 -17.799454
v -30.026100 -202.870468 -12.437174
v -12.048975 -202.664062 30.143902
v -6.720007 -201.145035 31.760489
v -6.522845 -201.858932 -31.820131
v -12.359201 -203.522461 -30.049738
v -12.437200 -203.496719 -30.026077
v -6.340391 -201.806915 -31.875477
v -30.169451 -202.994080 -11.964602
v -31.424896 -204.076569 -7.825874
v 30.264130 -200.000031 -6.019855
v 30.264130 -200.000031 -5.602270
v 30.264130 -200.000031 0.000059
v 30.264130 -200.000031 0.774886
v 30.264130 -200.000031 6.019969
v 30.264130 -200.000031 6.333671
v 30.264130 -200.000031 6.606983
v 28.305258 -200.000031 11.724466
v 28.126945 -200.000031 12.190302
v 26.279308 -200.000031 17.017189
v -12.977077 -203.437119 -29.737507
v 27.196819 -200.000031 -15.300589
v 28.530096 -200.000031 -11.817447
v 28.652073 -200.000031 -11.498788
v 30.264130 -200.000031 -7.287347
v -29.852198 -202.526337 12.762586
v 6.278398 -200.380951 -31.563618
v -6.562500 -201.114899 31.795227
v -6.334461 -201.071274 31.845514
v -1.832803 -200.908447 32.221054
v -0.238362 -200.850754 32.354080
v -0.000012 -200.794449 32.354126
v 6.202321 -200.182404 31.181253
v 4.884418 -200.260818 31.501549
v 3.636936 -200.335037 31.804724
v 1.808157 -200.566040 32.080997
v 12.135813 -200.149582 29.298487
v 9.182187 -200.165924 30.235706
v 17.453041 -200.027039 26.120377
v 15.226272 -200.184280 27.741693
v 14.217293 -200.255524 28.476332
v 22.237473 -200.041000 22.237589
v 17.865028 -200.028244 25.786030
v 26.100965 -200.017441 17.440126
v 25.184183 -200.220932 19.332804
v 24.972683 -200.267883 19.769430
v 26.175829 -200.010132 17.262583
v 26.252079 -200.092255 -17.541027
v 23.365978 -200.272202 -21.743502
v 22.513117 -200.201447 -22.513092
v 24.123508 -200.335037 -21.059931
v 25.158354 -200.335037 -19.798965
v 24.807045 -200.491913 -20.329453
v 19.688532 -200.193207 -24.805374
v 17.669390 -200.187302 -26.444012
v 12.406193 -200.328613 -29.644583
v 12.297064 -200.323059 -29.687687
v 12.532447 -200.335037 -29.594715
v 15.577541 -200.335037 -27.967079
v 14.360837 -200.542633 -28.714899
v 10.129301 -200.335037 -30.375557
v -0.010930 -201.186157 -32.498901
v -1.126744 -201.529404 -32.388996
vt 0.751147 0.986097
vt 0.759821 0.977422
vt 0.766637 0.967222
vt 0.771331 0.955889
vt 0.773725 0.943857
vt 0.773725 0.931590
vt 0.771331 0.919558
vt 0.766637 0.908224
vt 0.759821 0.898024
vt 0.751147 0.889350
vt 0.740947 0.882535
vt 0.729613 0.877840
vt 0.717582 0.875447
vt 0.705314 0.875447
vt 0.693282 0.877840
vt 0.681949 0.882535
vt 0.671749 0.889350
vt 0.663075 0.898024
vt 0.656259 0.908224
vt 0.651565 0.919558
vt 0.649171 0.931590
vt 0.649171 0.943857
vt 0.651565 0.955889
vt 0.656259 0.967223
vt 0.663075 0.977422
vt 0.671749 0.986097
vt 0.681949 0.992912
vt 0.693283 0.997607
vt 0.705314 1.000000
vt 0.717582 1.000000
vt 0.729613 0.997607
vt 0.740947 0.992912
vt 0.553531 0.801475
vt 0.552868 0.800667
vt 0.552750 0.802427
vt 0.541873 0.791550
vt 0.543972 0.789827
vt 0.542742 0.788328
vt 0.533327 0.778760
vt 0.534413 0.778179
vt 0.533915 0.777572
vt 0.529145 0.764031
vt 0.527440 0.764548
vt 0.533481 0.777044
vt 0.528750 0.762846
vt 0.524660 0.750572
vt 0.574205 0.814562
vt 0.566094 0.809940
vt 0.565541 0.810974
vt 0.565352 0.809517
vt 0.555544 0.803928
vt 0.517072 0.758813
vt 0.512044 0.757288
vt 0.505941 0.772022
vt 0.510575 0.774499
vt 0.348007 0.725184
vt 0.353236 0.725699
vt 0.356347 0.710058
vt 0.351319 0.708533
vt 0.520669 0.936921
vt 0.524091 0.919716
vt 0.524091 0.902173
vt 0.520669 0.884968
vt 0.513955 0.868761
vt 0.504209 0.854175
vt 0.491805 0.841770
vt 0.477219 0.832024
vt 0.461012 0.825311
vt 0.443807 0.821889
vt 0.426264 0.821889
vt 0.409059 0.825311
vt 0.392852 0.832024
vt 0.378266 0.841770
vt 0.365861 0.854175
vt 0.356115 0.868761
vt 0.349402 0.884968
vt 0.345980 0.902173
vt 0.345980 0.919716
vt 0.349402 0.936921
vt 0.356115 0.953128
vt 0.365861 0.967714
vt 0.378266 0.980118
vt 0.392852 0.989865
vt 0.409059 0.996578
vt 0.426264 1.000000
vt 0.443807 1.000000
vt 0.461012 0.996578
vt 0.477219 0.989864
vt 0.491805 0.980118
vt 0.504209 0.967714
vt 0.513955 0.953128
vt 0.379254 0.666726
vt 0.382587 0.670788
vt 0.395847 0.661928
vt 0.393370 0.657294
vt 0.497081 0.785282
vt 0.501143 0.788615
vt 0.410581 0.655825
vt 0.409055 0.650797
vt 0.485804 0.796558
vt 0.489138 0.800620
vt 0.426222 0.652713
vt 0.425707 0.647484
vt 0.472544 0.805419
vt 0.475021 0.810052
vt 0.442169 0.652713
vt 0.442684 0.647484
vt 0.457811 0.811521
vt 0.459336 0.816549
vt 0.457811 0.655825
vt 0.459336 0.650797
vt 0.442169 0.814633
vt 0.442684 0.819862
vt 0.472544 0.661928
vt 0.475021 0.657294
vt 0.426222 0.814633
vt 0.425707 0.819862
vt 0.485804 0.670788
vt 0.489138 0.666726
vt 0.410580 0.811521
vt 0.409055 0.816549
vt 0.497081 0.682064
vt 0.501143 0.678731
vt 0.395847 0.805418
vt 0.393370 0.810052
vt 0.505941 0.695324
vt 0.510575 0.692847
vt 0.382587 0.796558
vt 0.379254 0.800620
vt 0.512044 0.710058
vt 0.517072 0.708533
vt 0.348007 0.742162
vt 0.353236 0.741647
vt 0.371310 0.785282
vt 0.367249 0.788615
vt 0.515155 0.725699
vt 0.520384 0.725184
vt 0.362450 0.695324
vt 0.357816 0.692847
vt 0.362450 0.772022
vt 0.357816 0.774498
vt 0.515155 0.741647
vt 0.520384 0.742162
vt 0.371310 0.682064
vt 0.367249 0.678731
vt 0.356347 0.757288
vt 0.351319 0.758813
vt 0.345980 0.514043
vt 0.389784 0.514043
vt 0.389784 0.470239
vt 0.349512 0.470239
vt 0.345980 0.473771
vt 0.652612 0.601653
vt 0.652612 0.645457
vt 0.696416 0.601653
vt 0.346158 0.428414
vt 0.385332 0.469301
vt 0.387754 0.468409
vt 0.387672 0.429329
vt 0.429186 0.430244
vt 0.429268 0.469324
vt 0.470782 0.470239
vt 0.470700 0.431159
vt 0.433589 0.514043
vt 0.477393 0.514043
vt 0.477393 0.470239
vt 0.433589 0.470239
vt 0.521198 0.601653
vt 0.565003 0.645457
vt 0.565003 0.601653
vt 0.608807 0.601653
vt 0.608807 0.645457
vt 0.428925 0.306150
vt 0.429007 0.345230
vt 0.470521 0.346145
vt 0.470439 0.307065
vt 0.607306 0.914949
vt 0.607306 0.958754
vt 0.648914 0.958754
vt 0.648914 0.914949
vt 0.607306 0.871144
vt 0.648914 0.871144
vt 0.553761 0.301710
vt 0.553840 0.341888
vt 0.595370 0.342078
vt 0.595291 0.301901
vt 0.678040 0.401049
vt 0.678190 0.434850
vt 0.719324 0.439164
vt 0.719174 0.405364
vt 0.677889 0.367249
vt 0.719024 0.371564
vt 0.652612 0.470239
vt 0.608807 0.470239
vt 0.608807 0.514043
vt 0.652612 0.514043
vt 0.608807 0.557848
vt 0.652612 0.557848
vt 0.565003 0.470239
vt 0.565003 0.514043
vt 0.565003 0.557848
vt 0.634211 0.330856
vt 0.595620 0.358619
vt 0.636755 0.362934
vt 0.636616 0.331860
vt 0.521198 0.514043
vt 0.521198 0.557848
vt 0.389784 0.645457
vt 0.433589 0.645457
vt 0.433589 0.601653
vt 0.389784 0.601653
vt 0.433589 0.557848
vt 0.389784 0.557848
vt 0.477393 0.645457
vt 0.477393 0.601653
vt 0.477393 0.557848
vt 0.607306 0.999026
vt 0.648914 0.999026
vt 0.521198 0.601653
vt 0.521198 0.557848
vt 0.521198 0.514043
vt 0.554012 0.429291
vt 0.554090 0.469468
vt 0.595620 0.469659
vt 0.595541 0.429482
vt 0.345980 0.601653
vt 0.345980 0.557848
vt 0.696416 0.514043
vt 0.696416 0.557848
vt 0.607306 0.830872
vt 0.648914 0.830872
vt 0.553926 0.385589
vt 0.595455 0.385780
vt 0.677751 0.336174
vt 0.718886 0.340489
vt 0.429096 0.387737
vt 0.470610 0.388652
vt 0.345980 0.343399
vt 0.346069 0.385907
vt 0.387583 0.386822
vt 0.387494 0.344314
vt 0.470782 0.341506
vt 0.470867 0.385208
vt 0.512397 0.385399
vt 0.512311 0.341697
vt 0.470953 0.428910
vt 0.512482 0.429100
vt 0.512561 0.469278
vt 0.349512 0.645457
vt 0.345980 0.641925
vt 0.595770 0.392420
vt 0.636905 0.396735
vt 0.595920 0.426220
vt 0.637055 0.430535
vt 0.637193 0.461609
vt 0.678328 0.465924
vt 0.719463 0.470239
vt 0.524091 0.871144
vt 0.524091 0.914949
vt 0.565699 0.914949
vt 0.565699 0.871144
vt 0.524091 0.958754
vt 0.565699 0.958754
vt 0.387411 0.305235
vt 0.563269 1.000000
vt 0.565699 0.999026
vt 0.512232 0.301519
vt 0.634794 0.462109
vt 0.565699 0.830872
vt 0.510138 0.470239
vt 0.517666 0.645457
vt 0.521198 0.641925
vt 0.521198 0.473771
vt 0.517666 0.470239
vt 0.509805 0.300536
vt 0.563269 0.829898
vt 0.384985 0.304236
vt 0.554091 0.297944
vt 0.595620 0.298135
vt 0.719463 0.335546
vt 0.678328 0.331231
vt 0.470782 0.302788
vt 0.429268 0.301872
vt 0.649171 0.827340
vt 0.607564 0.827340
vt 0.000000 0.000000
vt 0.000000 0.000000
vt 0.000000 0.000000
vt 0.000000 0.000000
vt 0.000000 0.000000
vt 0.000000 0.000000
vt 0.000000 0.000000
vt 0.000000 0.000000
vt 0.000000 0.000000
vt 0.000000 0.000000
vt 0.000000 0.000000
vt 0.000000 0.000000
vt 0.000000 0.000000
vt 0.000000 0.000000
vt 0.000000 0.000000
vt 0.000000 0.000000
vt 0.000000 0.000000
vt 0.000000 0.000000
vt 0.000000 0.000000
vt 0.000000 0.000000
vt 0.000000 0.000000
vt 0.000000 0.000000
vt 0.000000 0.000000
vt 0.000000 0.000000
vt 0.000000 0.000000
vt 0.000000 0.000000
vt 0.000000 0.000000
vt 0.000000 0.000000
vt 0.000000 0.000000
vt 0.000000 0.000000
vt 0.000000 0.000000
vt 0.000000 0.000000
vt 0.000000 0.000000
vt 0.000000 0.000000
vt 0.000000 0.000000
vt 0.000000 0.000000
vt 0.000000 0.000000
vt 0.000000 0.000000
vt 0.000000 0.000000
vt 0.000000 0.000000
vt 0.000000 0.000000
vt 0.000000 0.000000
vt 0.000000 0.000000
vt 0.000000 0.000000
vt 0.000000 0.000000
vt 0.000000 0.000000
vt 0.000000 0.000000
vt 0.000000 0.000000
vt 0.000000 0.000000
vt 0.000000 0.000000
vt 0.000000 0.000000
vt 0.000000 0.000000
vt 0.000000 0.000000
vt 0.000000 0.000000
vt 0.000000 0.000000
vt 0.000000 0.000000
vt 0.000000 0.000000
vt 0.000000 0.000000
vt 0.000000 0.000000
vt 0.000000 0.000000
vt 0.000000 0.000000
vt 0.000000 0.000000
vt 0.000000 0.000000
vt 0.000000 0.000000
vt 0.000000 0.000000
vt 0.000000 0.000000
vt 0.000000 0.000000
vt 0.000000 0.000000
vt 0.000000 0.000000
vt 0.000000 0.000000
vt 0.000000 0.000000
vt 0.000000 0.000000
vt 0.000000 0.000000
vt 0.000000 0.000000
vt 0.000000 0.000000
vt 0.000000 0.000000
vt 0.000000 0.000000
vt 0.000000 0.000000
vt 0.000000 0.000000
vt 0.000000 0.000000
vt 0.000000 0.000000
vt 0.000000 0.000000
vt 0.000000 0.000000
vt 0.000000 0.000000
vt 0.000000 0.000000
vt 0.000000 0.000000
vt 0.000000 0.000000
vt 0.000000 0.000000
vt 0.000000 0.000000
vt 0.000000 0.000000
vt 0.000000 0.000000
vt 0.000000 0.000000
vt 0.000000 0.000000
vt 0.000000 0.000000
vt 0.000000 0.000000
vt 0.000000 0.000000
vt 0.000000 0.000000
vt 0.000000 0.000000
vt 0.000000 0.000000
vt 0.000000 0.000000
vt 0.000000 0.000000
vt 0.000000 0.000000
vt 0.000000 0.000000
vt 0.000000 0.000000
vt 0.000000 0.000000
vt 0.000000 0.000000
vt 0.000000 0.000000
vt 0.000000 0.000000
vt 0.000000 0.000000
vt 0.000000 0.000000
vt 0.000000 0.000000
vt 0.000000 0.000000
vt 0.000000 0.000000
vt 0.000000 0.000000
vt 0.000000 0.000000
vt 0.000000 0.000000
vt 0.000000 0.000000
vt 0.000000 0.000000
vt 0.000000 0.000000
vt 0.000000 0.000000
vt 0.000000 0.000000
vt 0.000000 0.000000
vt 0.000000 0.000000
vt 0.000000 0.000000
vt 0.000000 0.000000
vt 0.000000 0.000000
vt 0.000000 0.000000
vt 0.000000 0.000000
vt 0.000000 0.000000
vt 0.000000 0.000000
vt 0.000000 0.000000
vt 0.000000 0.000000
vt 0.000000 0.000000
vt 0.000000 0.000000
vt 0.000000 0.000000
vt 0.000000 0.000000
vt 0.000000 0.000000
vt 0.000000 0.000000
vt 0.000000 0.000000
vt 0.000000 0.000000
vt 0.000000 0.000000
vt 0.000000 0.000000
vt 0.000000 0.000000
vt 0.000000 0.000000
vt 0.000000 0.000000
vt 0.000000 0.000000
vt 0.000000 0.000000
vt 0.000000 0.000000
vt 0.000000 0.000000
vt 0.000000 0.000000
vt 0.000000 0.000000
vt 0.000000 0.000000
vt 0.000000 0.000000
vt 0.000000 0.000000
vt 0.000000 0.000000
vt 0.000000 0.000000
vt 0.000000 0.000000
vt 0.000000 0.000000
vt 0.000000 0.000000
vt 0.000000 0.000000
vt 0.000000 0.000000
vt 0.000000 0.000000
vt 0.000000 0.000000
vt 0.000000 0.000000
vt 0.000000 0.000000
vt 0.000000 0.000000
vt 0.000000 0.000000
vt 0.000000 0.000000
vt 0.000000 0.000000
vt 0.000000 0.000000
vt 0.000000 0.000000
vt 0.000000 0.000000
vt 0.000000 0.000000
vt 0.000000 0.000000
vt 0.000000 0.000000
vt 0.000000 0.000000
vt 0.221873 0.500155
vt 0.209738 0.500328
vt 0.209738 0.998615
vt 0.221873 0.998441
vt 0.234126 0.500213
vt 0.234126 0.998500
vt 0.246025 0.500501
vt 0.246025 0.998788
vt 0.257113 0.501008
vt 0.257113 0.999294
vt 0.266964 0.501713
vt 0.266964 1.000000
vt 0.335161 0.500361
vt 0.345980 0.499939
vt 0.345980 0.000648
vt 0.335161 0.001069
vt 0.323422 0.500621
vt 0.323422 0.001329
vt 0.311213 0.500708
vt 0.311213 0.001416
vt 0.299005 0.500621
vt 0.299005 0.001329
vt 0.287266 0.500361
vt 0.287266 0.001069
vt 0.276447 0.499939
vt 0.276447 0.000648
vt 0.266964 0.499372
vt 0.266964 0.000080
vt 0.094293 0.500415
vt 0.103218 0.499615
vt 0.103218 0.001258
vt 0.094293 0.002058
vt 0.083898 0.501034
vt 0.083898 0.002677
vt 0.072431 0.501449
vt 0.072431 0.003091
vt 0.060334 0.501642
vt 0.060334 0.003285
vt 0.048072 0.501608
vt 0.048072 0.003251
vt 0.036116 0.501347
vt 0.036116 0.002990
vt 0.024925 0.500870
vt 0.024925 0.002512
vt 0.014929 0.500194
vt 0.014929 0.001836
vt 0.006513 0.499346
vt 0.006513 0.000988
vt 0.000000 0.498358
vt 0.000000 0.000000
vt 0.180943 0.500657
vt 0.187663 0.499315
vt 0.187663 0.002990
vt 0.180943 0.004333
vt 0.172350 0.501802
vt 0.172350 0.005478
vt 0.162214 0.502705
vt 0.162214 0.006381
vt 0.150925 0.503333
vt 0.150925 0.007009
vt 0.138916 0.503661
vt 0.138916 0.007337
vt 0.126649 0.503676
vt 0.126649 0.007352
vt 0.114595 0.503378
vt 0.114595 0.007054
vt 0.103218 0.502778
vt 0.103218 0.006453
vt 0.198187 0.500727
vt 0.187663 0.501335
vt 0.187663 0.999622
vt 0.198187 0.999013
vt 0.406205 0.199536
vt 0.406854 0.187204
vt 0.346655 0.199964
vt 0.347304 0.187631
vt 0.754402 0.530606
vt 0.697010 0.543703
vt 0.753742 0.543012
vt 0.753005 0.535423
vt 0.754576 0.530007
vt 0.697730 0.530699
vt 0.198187 0.187529
vt 0.205418 0.188532
vt 0.209738 0.189130
vt 0.187663 0.187955
vt 0.194279 0.187687
vt 0.114595 0.813891
vt 0.107454 0.814539
vt 0.103218 0.814924
vt 0.126649 0.810957
vt 0.119139 0.812727
vt 0.125632 0.811063
vt 0.131343 0.810070
vt 0.138916 0.808640
vt 0.143535 0.808946
vt 0.150925 0.809983
vt 0.139742 0.808414
vt 0.157871 0.810359
vt 0.162214 0.811155
vt 0.155228 0.810216
vt 0.166044 0.811158
vt 0.172350 0.811163
vt 0.175593 0.810387
vt 0.180943 0.809107
vt 0.183501 0.807570
vt 0.183528 0.807553
vt 0.187663 0.805964
vt 0.005327 0.805419
vt 0.006513 0.806140
vt 0.002499 0.805867
vt 0.000000 0.806264
vt 0.013348 0.808707
vt 0.014929 0.809811
vt 0.009733 0.807349
vt 0.018689 0.811344
vt 0.024925 0.813887
vt 0.029073 0.814672
vt 0.036116 0.816004
vt 0.040525 0.816033
vt 0.048072 0.816082
vt 0.052615 0.815354
vt 0.060334 0.814117
vt 0.064880 0.812639
vt 0.072431 0.810185
vt 0.076769 0.811107
vt 0.083898 0.814349
vt 0.072569 0.810116
vt 0.073530 0.809875
vt 0.074441 0.810048
vt 0.087726 0.815621
vt 0.094293 0.817802
vt 0.097519 0.818364
vt 0.103218 0.819357
vt 0.270359 0.820114
vt 0.276447 0.820831
vt 0.266964 0.819714
vt 0.287266 0.819972
vt 0.280323 0.820523
vt 0.299005 0.817169
vt 0.291517 0.818957
vt 0.311213 0.814087
vt 0.303516 0.815464
vt 0.303474 0.815471
vt 0.315751 0.814399
vt 0.320260 0.815205
vt 0.323422 0.816407
vt 0.312065 0.813739
vt 0.327710 0.817430
vt 0.335161 0.819209
vt 0.339061 0.819519
vt 0.345980 0.820068
vt 0.257113 0.182072
vt 0.263425 0.182173
vt 0.266964 0.182229
vt 0.246025 0.183921
vt 0.253103 0.182741
vt 0.234126 0.187704
vt 0.241650 0.185312
vt 0.221873 0.192063
vt 0.229505 0.189805
vt 0.225678 0.191545
vt 0.222522 0.192196
vt 0.217260 0.191339
vt 0.218082 0.191581
vt 0.533858 0.251496
vt 0.474307 0.251924
vt 0.474057 0.268713
vt 0.533607 0.268285
vt 0.595620 0.236932
vt 0.655051 0.236648
vt 0.655352 0.221178
vt 0.595921 0.221462
vt 0.769520 0.325819
vt 0.771403 0.315088
vt 0.720311 0.324509
vt 0.769893 0.326542
vt 0.771695 0.313428
vt 0.719677 0.311295
vt 0.697010 0.605466
vt 0.756446 0.604741
vt 0.756002 0.589020
vt 0.696566 0.589744
vt 0.406205 0.275866
vt 0.405758 0.260608
vt 0.346655 0.276294
vt 0.346208 0.261036
vt 0.774946 0.258135
vt 0.775970 0.252825
vt 0.720311 0.265047
vt 0.776124 0.267336
vt 0.776195 0.251657
vt 0.721340 0.249407
vt 0.756205 0.519394
vt 0.756259 0.519044
vt 0.698699 0.519745
vt 0.405758 0.213604
vt 0.346208 0.214032
vt 0.595620 0.252860
vt 0.655051 0.252577
vt 0.770503 0.328290
vt 0.721340 0.335731
vt 0.773854 0.337885
vt 0.697730 0.620364
vt 0.757166 0.619640
vt 0.406854 0.289927
vt 0.347304 0.290354
vt 0.776128 0.268226
vt 0.719677 0.280982
vt 0.776200 0.283299
vt 0.753649 0.543693
vt 0.696566 0.558258
vt 0.751942 0.557583
vt 0.751794 0.557287
vt 0.405530 0.228867
vt 0.345980 0.229295
vt 0.655341 0.267780
vt 0.595921 0.268635
vt 0.655258 0.268351
vt 0.773947 0.338879
vt 0.722726 0.344531
vt 0.778353 0.346812
vt 0.774006 0.339517
vt 0.698699 0.633868
vt 0.758135 0.633144
vt 0.655942 0.206761
vt 0.656798 0.193950
vt 0.596510 0.207044
vt 0.597366 0.194234
vt 0.776115 0.284009
vt 0.719463 0.296598
vt 0.774333 0.298848
vt 0.755853 0.573080
vt 0.755862 0.572112
vt 0.752208 0.558570
vt 0.696416 0.573804
vt 0.405530 0.244739
vt 0.345980 0.245166
vt 0.650864 0.296896
vt 0.654189 0.283783
vt 0.597366 0.297326
vt 0.650939 0.297071
vt 0.654293 0.283373
vt 0.596510 0.283649
vt 0.747961 0.772976
vt 0.807392 0.772692
vt 0.807392 0.755171
vt 0.747961 0.755455
vt 0.699880 0.645457
vt 0.759317 0.644733
vt 0.771504 0.309841
vt 0.774043 0.299974
vt 0.683304 0.709959
vt 0.742740 0.709235
vt 0.743532 0.694931
vt 0.684096 0.695655
vt 0.776058 0.238271
vt 0.776043 0.236848
vt 0.722726 0.234661
vt 0.755807 0.511072
vt 0.699880 0.511263
vt 0.755779 0.510582
vt 0.719698 0.397909
vt 0.778846 0.400335
vt 0.779544 0.382807
vt 0.720395 0.380381
vt 0.532402 0.184331
vt 0.472851 0.184758
vt 0.473565 0.200225
vt 0.533116 0.199797
vt 0.684096 0.794287
vt 0.743532 0.793563
vt 0.742740 0.777174
vt 0.683304 0.777898
vt 0.721528 0.458133
vt 0.780676 0.460559
vt 0.779544 0.448214
vt 0.720396 0.445789
vt 0.473565 0.284188
vt 0.533116 0.283760
vt 0.682816 0.725970
vt 0.742252 0.725245
vt 0.780676 0.365602
vt 0.721528 0.363177
vt 0.474057 0.217009
vt 0.533607 0.216581
vt 0.742252 0.759880
vt 0.682816 0.760605
vt 0.778846 0.433679
vt 0.719698 0.431253
vt 0.748291 0.790328
vt 0.807723 0.790044
vt 0.472851 0.297754
vt 0.532402 0.297326
vt 0.744599 0.682882
vt 0.685162 0.683606
vt 0.782200 0.349382
vt 0.723052 0.346956
vt 0.474307 0.234465
vt 0.533858 0.234038
vt 0.742087 0.742346
vt 0.682651 0.743070
vt 0.778611 0.417512
vt 0.719463 0.415087
vt 0.748291 0.738438
vt 0.807723 0.738154
vt 0.808372 0.722295
vt 0.748940 0.722579
vt 0.686462 0.821889
vt 0.745898 0.821165
vt 0.744599 0.808416
vt 0.685162 0.809141
vt 0.745898 0.673551
vt 0.686462 0.674276
vt 0.749882 0.821889
vt 0.809313 0.821605
vt 0.808372 0.806560
vt 0.748940 0.806844
vt 0.809313 0.708203
vt 0.749882 0.708487
vt 0.723052 0.467813
vt 0.782200 0.470239
vt 0.696416 0.642899
vt 0.693858 0.645457
vt 0.385233 0.301138
vt 0.350225 0.290354
vt 0.634629 0.327276
vt 0.602772 0.297326
vt 0.512561 0.297754
vt 0.510043 0.297809
vt 0.637193 0.326917
vt 0.565956 0.827340
vt 0.563455 0.827340
vt 0.387754 0.300957
vt 0.696416 0.472797
vt 0.693858 0.470239
vt 0.657031 0.252528
vt 0.756044 0.573087
vt 0.755937 0.572511
vt 0.756571 0.584388
vt 0.756910 0.588984
vt 0.756759 0.588390
vt 0.540298 0.690696
vt 0.541016 0.691285
vt 0.543057 0.688572
vt 0.544989 0.686005
vt 0.758354 0.597954
vt 0.757628 0.593443
vt 0.758538 0.604495
vt 0.531530 0.703818
vt 0.532525 0.704349
vt 0.536751 0.697846
vt 0.759251 0.619239
vt 0.525490 0.718399
vt 0.527283 0.718942
vt 0.529017 0.712269
vt 0.529802 0.709246
vt 0.760211 0.632602
vt 0.522411 0.733878
vt 0.524191 0.734053
vt 0.527017 0.720243
vt 0.761379 0.644071
vt 0.522411 0.749660
vt 0.524334 0.749470
vt 0.523102 0.744353
vt 0.522817 0.743172
vt 0.408282 0.199990
vt 0.408924 0.187785
vt 0.525490 0.765139
vt 0.524471 0.749933
vt 0.407839 0.213912
vt 0.531530 0.779720
vt 0.407614 0.229017
vt 0.540298 0.792842
vt 0.407614 0.244724
vt 0.551458 0.804002
vt 0.407839 0.260429
vt 0.564580 0.812770
vt 0.408282 0.275529
vt 0.579161 0.818810
vt 0.579590 0.817397
vt 0.408924 0.289443
vt 0.591847 0.820946
vt 0.594640 0.821889
vt 0.594720 0.821081
vt 0.589296 0.820826
vt 0.585291 0.820029
vt 0.658544 0.199528
vt 0.658879 0.194507
vt 0.658032 0.207185
vt 0.658324 0.202808
vt 0.658055 0.200706
vt 0.603825 0.821031
vt 0.610422 0.821889
vt 0.610334 0.820995
vt 0.657448 0.221453
vt 0.625601 0.818830
vt 0.625902 0.818810
vt 0.625881 0.818740
vt 0.625278 0.818934
vt 0.616801 0.820620
vt 0.656720 0.231173
vt 0.657325 0.227761
vt 0.657150 0.236762
vt 0.657162 0.236145
vt 0.631167 0.816629
vt 0.657150 0.242455
vt 0.345980 0.724984
vt 0.349370 0.707941
vt 0.809491 0.772641
vt 0.809491 0.755285
vt 0.356020 0.691887
vt 0.809819 0.738429
vt 0.365674 0.677439
vt 0.810461 0.722719
vt 0.377961 0.665151
vt 0.811394 0.708760
vt 0.392410 0.655497
vt 0.470782 0.185242
vt 0.471489 0.200563
vt 0.408464 0.648847
vt 0.471976 0.217188
vt 0.425507 0.645457
vt 0.472224 0.234480
vt 0.442884 0.645457
vt 0.472224 0.251774
vt 0.459927 0.648847
vt 0.471976 0.268405
vt 0.475981 0.655497
vt 0.471489 0.283734
vt 0.490430 0.665151
vt 0.470782 0.297172
vt 0.502717 0.677439
vt 0.747961 0.820503
vt 0.746674 0.807875
vt 0.512371 0.691887
vt 0.745618 0.793161
vt 0.519021 0.707941
vt 0.744833 0.776927
vt 0.522411 0.724985
vt 0.744350 0.759797
vt 0.522411 0.742362
vt 0.744186 0.742428
vt 0.519021 0.759405
vt 0.744349 0.725488
vt 0.512371 0.775459
vt 0.744833 0.709629
vt 0.502717 0.789907
vt 0.745618 0.695459
vt 0.490430 0.802195
vt 0.746674 0.683524
vt 0.475981 0.811849
vt 0.747961 0.674282
vt 0.459927 0.818499
vt 0.784290 0.469576
vt 0.782781 0.459987
vt 0.442884 0.821889
vt 0.781659 0.447759
vt 0.425507 0.821889
vt 0.780968 0.433361
vt 0.408464 0.818499
vt 0.780735 0.417347
vt 0.392410 0.811849
vt 0.780968 0.400331
vt 0.377961 0.802195
vt 0.781659 0.382969
vt 0.365674 0.789907
vt 0.782781 0.365926
vt 0.356020 0.775459
vt 0.784290 0.349859
vt 0.349370 0.759404
vt 0.811394 0.821093
vt 0.810462 0.806190
vt 0.345980 0.742361
vt 0.809819 0.789830
vt 0.654499 0.271024
vt 0.655251 0.268377
vn 0.0000 1.0000 0.0000
vn 0.0000 1.0000 0.0001
vn 0.0000 -1.0000 -0.0000
vn 0.0000 -0.0000 -1.0000
vn 1.0000 0.0000 0.0000
vn 0.0000 0.0000 1.0000
vn -1.0000 -0.0000 0.0000
vn -0.7071 0.0000 0.7071
vn -0.7071 -0.0000 -0.7071
vn 0.7071 -0.0000 -0.7071
vn 0.7071 0.0000 0.7071
vn -0.1024 0.9435 -0.3151
vn -0.7002 0.6617 -0.2680
vn 0.2680 0.9435 -0.1947
vn 0.2680 0.9435 0.1947
vn -0.1024 0.9435 0.3151
vn -0.7240 -0.6617 0.1947
vn -0.2680 -0.9435 0.1947
vn -0.4911 -0.7947 0.3568
vn 0.1024 -0.9435 0.3151
vn 0.1876 -0.7947 0.5773
vn 0.3313 -0.9435 -0.0000
vn 0.6071 -0.7947 0.0000
vn 0.1024 -0.9435 -0.3151
vn 0.1876 -0.7947 -0.5773
vn -0.2680 -0.9435 -0.1947
vn -0.4911 -0.7947 -0.3568
vn -0.7240 -0.6617 -0.1947
vn -0.4713 0.6617 0.5831
vn -0.1876 0.7947 0.5773
vn 0.0385 0.6617 0.7488
vn 0.4089 0.6617 0.6284
vn 0.4911 0.7947 0.3568
vn 0.7240 0.6617 0.1947
vn 0.7240 0.6617 -0.1947
vn 0.4911 0.7947 -0.3568
vn 0.4089 0.6617 -0.6284
vn -0.7002 0.6617 0.2680
vn -0.6071 0.7947 0.0000
vn -0.3313 0.9435 0.0000
vn 0.0385 0.6617 -0.7488
vn -0.1876 0.7947 -0.5773
vn -0.4713 0.6617 -0.5831
vn 0.1951 -0.0000 -0.9808
vn 0.3827 -0.0000 -0.9239
vn 0.5556 -0.0000 -0.8315
vn 0.8125 -0.0000 -0.5830
vn 0.8486 0.0115 -0.5289
vn 0.9239 -0.0000 -0.3827
vn 0.9808 -0.0000 -0.1951
vn 0.9808 0.0000 0.1951
vn 0.9239 0.0000 0.3827
vn 0.8315 0.0000 0.5556
vn 0.7303 0.0000 0.6831
vn 0.6843 0.0115 0.7291
vn 0.5556 0.0000 0.8315
vn 0.3827 0.0000 0.9239
vn 0.1951 0.0000 0.9808
vn -0.1951 0.0000 0.9808
vn -0.3827 0.0000 0.9239
vn -0.5556 0.0000 0.8315
vn -0.8315 0.0000 0.5556
vn -0.9106 0.0000 0.4133
vn -0.9355 0.0115 0.3532
vn -0.9808 0.0000 0.1951
vn -0.9808 -0.0000 -0.1951
vn -0.9239 -0.0000 -0.3827
vn -0.8315 -0.0000 -0.5556
vn -0.5556 -0.0000 -0.8315
vn -0.4133 -0.0000 -0.9106
vn -0.3532 0.0115 -0.9355
vn -0.1951 -0.0000 -0.9808
vn 0.8157 0.1936 0.5451
vn 0.7047 0.1595 0.6914
vn 0.7250 -0.0218 0.6884
vn -0.6344 0.0000 0.7730
vn -0.5548 0.0000 0.8320
vn -0.7126 0.0000 0.7016
vn -0.2008 -0.0000 -0.9796
vn -0.0980 -0.0000 -0.9952
vn -0.0150 -0.0000 -0.9999
vn -0.3791 -0.0000 -0.9254
vn -0.2903 -0.0000 -0.9569
vn -0.5445 -0.0000 -0.8388
vn -0.4714 -0.0000 -0.8819
vn -0.7000 -0.0000 -0.7142
vn -0.6344 -0.0000 -0.7730
vn -0.7730 -0.0000 -0.6344
vn -0.8239 -0.0000 -0.5668
vn -0.8819 -0.0000 -0.4714
vn -0.9271 -0.0000 -0.3748
vn -0.9569 -0.0000 -0.2903
vn -0.9826 -0.0000 -0.1856
vn -0.9952 -0.0000 -0.0980
vn -0.9952 0.0000 0.0980
vn -0.9826 0.0000 0.1856
vn -0.9569 0.0000 0.2903
vn -0.9271 0.0000 0.3748
vn -0.8819 0.0000 0.4714
vn -0.8239 0.0000 0.5668
vn -0.7730 0.0000 0.6344
vn -0.6917 0.0000 0.7222
vn -0.5445 0.0000 0.8388
vn -0.4714 0.0000 0.8819
vn -0.3791 0.0000 0.9254
vn -0.2903 0.0000 0.9569
vn -0.2008 0.0000 0.9796
vn -0.0980 0.0000 0.9952
vn -0.0150 0.0000 0.9999
vn 0.0980 0.0000 0.9952
vn 0.1724 0.0000 0.9850
vn 0.2903 0.0000 0.9569
vn 0.4052 0.0000 0.9142
vn 0.4714 0.0000 0.8819
vn 0.5694 0.0000 0.8220
vn 0.6344 0.0000 0.7730
vn 0.7126 0.0000 0.7016
vn 0.7730 0.0000 0.6344
vn 0.8304 0.0000 0.5572
vn 0.9194 0.0000 0.3933
vn 0.8819 0.0000 0.4714
vn 0.9767 0.0000 0.2147
vn 0.9569 0.0000 0.2903
vn 0.9998 -0.0000 0.0189
vn 0.9952 0.0000 0.0980
vn 0.9952 -0.0000 -0.0980
vn 0.9767 -0.0000 -0.2147
vn 0.9569 -0.0000 -0.2903
vn 0.9194 -0.0000 -0.3933
vn 0.8819 -0.0000 -0.4714
vn 0.8304 -0.0000 -0.5572
vn 0.7126 -0.0000 -0.7016
vn 0.7730 -0.0000 -0.6344
vn 0.5694 -0.0000 -0.8220
vn 0.6344 -0.0000 -0.7730
vn 0.4052 -0.0000 -0.9142
vn 0.4714 -0.0000 -0.8819
vn 0.1845 -0.0000 -0.9828
vn 0.2903 -0.0000 -0.9569
vn 0.0980 -0.0000 -0.9952
vn 0.9622 0.1936 0.1914
vn 0.9064 0.1936 0.3754
vn 0.3755 0.1936 -0.9064
vn 0.5451 0.1936 -0.8157
vn -0.9998 0.0000 0.0189
vn -0.9798 0.0000 -0.2000
vn 0.1914 0.1936 0.9622
vn -0.0000 0.1936 0.9811
vn 0.9064 0.1936 -0.3754
vn 0.9622 0.1936 -0.1914
vn -0.7126 0.0000 -0.7016
vn -0.5548 -0.0000 -0.8320
vn -0.8304 0.0000 0.5572
vn 0.1914 0.1936 -0.9622
vn -0.9798 0.0000 0.2000
vn 0.3754 0.1936 0.9064
vn 0.8255 0.1939 -0.5300
vn 0.8008 -0.0435 -0.5974
vn -0.8304 0.0000 -0.5572
vn -0.3606 0.0000 0.9327
vn 0.0980 0.0166 -0.9950
vn 0.0151 -0.0000 -0.9999
vn -0.9239 0.0000 0.3827
vn -0.9194 -0.0000 0.3932
vn 0.5451 0.1936 0.8157
vn 0.6937 0.1936 -0.6937
vn -0.9194 0.0000 -0.3933
vn -0.1914 0.1936 0.9622
vn -0.2902 0.0250 0.9566
vn 0.9811 0.1936 -0.0000
vn -0.3827 -0.0000 -0.9239
vn -0.3951 -0.0000 -0.9186
vn -0.1845 -0.0000 -0.9828
vn 0.3754 0.1936 -0.9064
vn -0.5451 0.1936 0.8157
vn -0.6937 0.1936 0.6937
vn -0.8157 0.1936 -0.5451
vn -0.6937 0.1936 -0.6937
vn 0.8007 -0.0435 -0.5974
vn -0.9622 0.1936 0.1914
vn -0.9811 0.1936 -0.0000
vn -0.3754 0.1936 0.9064
vn -0.5451 0.1936 -0.8157
vn -0.9622 0.1936 -0.1914
vn -0.0000 0.1936 -0.9811
vn 0.7053 0.1598 0.6907
vn -0.8157 0.1936 0.5451
vn -0.3873 0.1598 -0.9080
vn -0.4064 -0.0218 -0.9134
vn -0.9064 0.1936 -0.3754
vn -0.9080 0.1597 0.3873
vn -0.9134 -0.0218 0.4064
vn -0.1914 0.1936 -0.9622
vn 0.4175 -0.2182 0.8821
vn 0.5677 -0.5961 0.5677
vn 0.7661 -0.0768 0.6381
vn 0.6908 -0.2139 -0.6907
vn 0.5677 -0.5961 -0.5677
vn 0.6907 -0.2138 -0.6908
vn -0.5677 -0.5961 -0.5677
vn -0.6907 -0.2138 -0.6908
vn -0.6908 -0.2138 -0.6908
vn -0.6908 -0.2138 0.6907
vn -0.7016 0.1246 0.7016
vn -0.7016 0.1246 -0.7016
vn 0.7016 0.1246 0.7016
vn 0.7016 0.1246 -0.7016
vn -0.5677 -0.5961 0.5677
vn 0.1844 0.3842 -0.9047
vn -0.1731 0.3842 0.9069
vn -0.2683 0.3829 0.8840
vn -0.0905 0.3827 0.9194
vn 0.0113 0.3842 0.9232
vn -0.0906 0.3827 0.9194
vn 0.1399 0.6968 0.7035
vn 0.0762 0.9247 0.3729
vn 0.0375 0.9241 0.3804
vn 0.0892 0.4143 0.9058
vn 0.0905 0.3826 0.9195
vn 0.2745 0.6967 0.6628
vn 0.1445 0.9247 0.3522
vn 0.1109 0.9241 0.3658
vn 0.3985 0.6967 0.5965
vn 0.2129 0.9247 0.3156
vn 0.1802 0.9241 0.3371
vn 0.5072 0.6967 0.5072
vn 0.2678 0.9247 0.2706
vn 0.2425 0.9241 0.2955
vn 0.5964 0.6967 0.3985
vn 0.3188 0.9247 0.2080
vn 0.2955 0.9241 0.2425
vn 0.6627 0.6967 0.2745
vn 0.3517 0.9247 0.1457
vn 0.3371 0.9241 0.1802
vn 0.3733 0.9247 0.0743
vn 0.7036 0.6967 0.1400
vn 0.3807 0.9247 0.0000
vn 0.6628 0.7488 0.0000
vn 0.3733 0.9247 -0.0743
vn 0.6501 0.7488 -0.1293
vn 0.6124 0.7488 -0.2536
vn 0.3517 0.9247 -0.1457
vn 0.5965 0.6967 -0.3985
vn 0.3188 0.9247 -0.2080
vn 0.3371 0.9241 -0.1802
vn 0.2954 0.9241 -0.2424
vn 0.5072 0.6967 -0.5073
vn 0.2678 0.9247 -0.2706
vn 0.7028 0.4166 -0.5767
vn 0.6956 0.4363 -0.5708
vn 0.7142 0.3826 -0.5861
vn 0.2425 0.9241 -0.2955
vn 0.3986 0.6967 -0.5965
vn 0.2129 0.9247 -0.3156
vn 0.1801 0.9240 -0.3373
vn 0.2745 0.6967 -0.6627
vn 0.1445 0.9247 -0.3521
vn 0.4303 0.4085 -0.8050
vn 0.4291 0.4140 -0.8028
vn 0.4355 0.3826 -0.8148
vn 0.2679 0.3855 -0.8830
vn 0.1400 0.6967 -0.7036
vn 0.0743 0.9247 -0.3733
vn 0.1457 0.9247 -0.3517
vn 0.2115 0.9247 -0.3165
vn 0.3985 0.6967 -0.5965
vn 0.2691 0.9247 -0.2691
vn 0.5072 0.6967 -0.5072
vn 0.3165 0.9247 -0.2115
vn 0.6627 0.6967 -0.2745
vn 0.7035 0.6967 -0.1399
vn 0.7174 0.6967 0.0000
vn 0.7035 0.6967 0.1399
vn 0.3165 0.9247 0.2115
vn 0.5965 0.6967 0.3985
vn 0.2692 0.9247 0.2692
vn 0.2115 0.9247 0.3165
vn 0.3985 0.6967 0.5964
vn 0.1457 0.9247 0.3517
vn 0.0743 0.9247 0.3733
vn 0.1399 0.6967 0.7036
vn -0.0000 0.9247 0.3807
vn 0.0000 0.6967 0.7174
vn -0.0743 0.9247 0.3733
vn -0.1399 0.6967 0.7036
vn -0.1457 0.9247 0.3517
vn -0.2745 0.6967 0.6627
vn -0.2115 0.9247 0.3165
vn -0.3985 0.6967 0.5964
vn -0.2692 0.9247 0.2692
vn -0.5072 0.6967 0.5072
vn -0.3165 0.9247 0.2115
vn -0.5964 0.6967 0.3985
vn -0.3517 0.9247 0.1457
vn -0.6628 0.6967 0.2745
vn -0.3733 0.9247 0.0743
vn -0.7036 0.6967 0.1399
vn -0.3807 0.9247 -0.0000
vn -0.7174 0.6967 -0.0000
vn -0.3733 0.9247 -0.0743
vn -0.7036 0.6967 -0.1399
vn -0.3517 0.9247 -0.1457
vn -0.6628 0.6967 -0.2745
vn -0.3165 0.9247 -0.2115
vn -0.5965 0.6967 -0.3986
vn -0.2691 0.9247 -0.2692
vn -0.5072 0.6967 -0.5072
vn -0.2115 0.9247 -0.3165
vn -0.3985 0.6967 -0.5965
vn -0.1457 0.9247 -0.3517
vn -0.2745 0.6967 -0.6627
vn -0.0743 0.9247 -0.3733
vn -0.1399 0.6967 -0.7036
vn -0.0000 0.9247 -0.3806
vn -0.0000 0.6967 -0.7173
usemtl Column1.001
s off
f 7/1/1 5/2/1 4/3/1
f 7/1/1 4/3/1 71/4/1
f 7/1/1 71/4/1 70/5/1
f 7/1/1 70/5/1 68/6/1
f 7/1/1 68/6/1 66/7/1
f 7/1/1 66/7/1 64/8/1
f 7/1/1 64/8/1 62/9/1
f 7/1/1 62/9/1 60/10/1
f 7/1/1 60/10/1 58/11/1
f 7/1/1 58/11/1 56/12/1
f 7/1/1 56/12/1 54/13/1
f 7/1/1 54/13/1 52/14/1
f 7/1/1 52/14/1 50/15/1
f 7/1/1 50/15/1 48/16/1
f 7/1/1 48/16/1 46/17/1
f 7/1/1 46/17/1 44/18/1
f 7/1/1 44/18/1 41/19/1
f 7/1/1 41/19/1 39/20/1
f 7/1/1 39/20/1 37/21/1
f 7/1/1 37/21/1 35/22/1
f 7/1/1 35/22/1 33/23/1
f 7/1/1 33/23/1 31/24/1
f 7/1/1 31/24/1 29/25/1
f 7/1/1 29/25/1 27/26/1
f 7/1/1 27/26/1 24/27/1
f 7/1/1 24/27/1 21/28/1
f 7/1/1 21/28/1 18/29/1
f 7/1/1 18/29/1 13/30/1
f 7/1/1 13/30/1 11/31/1
f 11/31/1 9/32/1 7/1/1
f 482/33/1 483/34/1 134/35/1
f 135/36/1 134/35/1 483/34/1 484/37/1
f 484/37/1 485/38/1 135/36/1
f 136/39/1 135/36/1 485/38/1 486/40/1
f 486/40/1 487/41/1 136/39/1
f 489/42/1 137/43/1 136/39/1 487/41/1 488/44/1
f 489/42/2 490/45/2 137/43/2
f 490/45/1 491/46/1 137/43/1
f 493/47/1 494/48/1 138/49/1
f 494/48/1 495/50/1 138/49/1
f 496/51/1 482/33/1 134/35/1 138/49/1 495/50/1
f 139/52/1 110/53/1 77/54/1
f 77/54/1 140/55/1 139/52/1
f 173/56/1 102/57/1 83/58/1
f 83/58/1 174/59/1 173/56/1
f 194/60/3 169/61/3 126/62/3
f 194/60/3 126/62/3 129/63/3
f 194/60/3 129/63/3 185/64/3
f 194/60/3 185/64/3 188/65/3
f 194/60/3 188/65/3 145/66/3
f 194/60/3 145/66/3 148/67/3
f 194/60/3 148/67/3 164/68/3
f 194/60/3 164/68/3 180/69/3
f 194/60/3 180/69/3 79/70/3
f 194/60/3 79/70/3 82/71/3
f 194/60/3 82/71/3 158/72/3
f 194/60/3 158/72/3 172/73/3
f 194/60/3 172/73/3 190/74/3
f 194/60/3 190/74/3 149/75/3
f 194/60/3 149/75/3 152/76/3
f 194/60/3 152/76/3 166/77/3
f 194/60/3 166/77/3 182/78/3
f 194/60/3 182/78/3 159/79/3
f 194/60/3 159/79/3 130/80/3
f 194/60/3 130/80/3 133/81/3
f 194/60/3 133/81/3 176/82/3
f 194/60/3 176/82/3 192/83/3
f 194/60/3 192/83/3 153/84/3
f 194/60/3 153/84/3 156/85/3
f 194/60/3 156/85/3 168/86/3
f 194/60/3 168/86/3 184/87/3
f 194/60/3 184/87/3 141/88/3
f 194/60/3 141/88/3 144/89/3
f 194/60/3 144/89/3 162/90/3
f 162/90/3 178/91/3 194/60/3
f 195/92/1 107/93/1 93/94/1
f 93/94/1 196/95/1 195/92/1
f 140/55/1 77/54/1 78/96/1
f 78/96/1 197/97/1 140/55/1
f 196/95/1 93/94/1 96/98/1
f 96/98/1 198/99/1 196/95/1
f 197/97/1 78/96/1 99/100/1
f 99/100/1 199/101/1 197/97/1
f 198/99/1 96/98/1 122/102/1
f 122/102/1 200/103/1 198/99/1
f 199/101/1 99/100/1 114/104/1
f 114/104/1 201/105/1 199/101/1
f 200/103/1 122/102/1 111/106/1
f 111/106/1 202/107/1 200/103/1
f 201/105/1 114/104/1 104/108/1
f 104/108/1 203/109/1 201/105/1
f 202/107/1 111/106/1 100/110/1
f 100/110/1 204/111/1 202/107/1
f 203/109/1 104/108/1 87/112/1
f 87/112/1 205/113/1 203/109/1
f 204/111/1 100/110/1 73/114/1
f 73/114/1 206/115/1 204/111/1
f 205/113/1 87/112/1 88/116/1
f 88/116/1 207/117/1 205/113/1
f 206/115/1 73/114/1 76/118/1
f 76/118/1 208/119/1 206/115/1
f 207/117/1 88/116/1 119/120/1
f 119/120/1 209/121/1 207/117/1
f 208/119/1 76/118/1 115/122/1
f 115/122/1 210/123/1 208/119/1
f 209/121/1 119/120/1 109/124/1
f 109/124/1 211/125/1 209/121/1
f 210/123/1 115/122/1 105/126/1
f 105/126/1 212/127/1 210/123/1
f 211/125/1 109/124/1 97/128/1
f 97/128/1 213/129/1 211/125/1
f 212/127/1 105/126/1 89/130/1
f 89/130/1 214/131/1 212/127/1
f 215/132/1 113/133/1 102/57/1
f 102/57/1 173/56/1 215/132/1
f 213/129/1 97/128/1 98/134/1
f 98/134/1 216/135/1 213/129/1
f 214/131/1 89/130/1 92/136/1
f 92/136/1 217/137/1 214/131/1
f 174/59/1 83/58/1 86/138/1
f 86/138/1 218/139/1 174/59/1
f 216/135/1 98/134/1 124/140/1
f 124/140/1 219/141/1 216/135/1
f 217/137/1 92/136/1 120/142/1
f 120/142/1 220/143/1 217/137/1
f 218/139/1 86/138/1 117/144/1
f 117/144/1 221/145/1 218/139/1
f 219/141/1 124/140/1 125/146/1
f 125/146/1 222/147/1 219/141/1
f 220/143/1 120/142/1 110/53/1
f 110/53/1 139/52/1 220/143/1
f 221/145/1 117/144/1 107/93/1
f 107/93/1 195/92/1 221/145/1
f 222/147/1 125/146/1 113/133/1
f 113/133/1 215/132/1 222/147/1
f 231/148/1 232/149/1 233/150/1
f 231/148/1 233/150/1 234/151/1
f 234/151/1 235/152/1 231/148/1
f 236/153/3 225/154/3 224/155/3
f 237/156/4 238/157/4 239/158/4
f 239/158/4 240/159/4 237/156/4
f 241/160/4 242/161/4 243/162/4
f 243/162/4 244/163/4 241/160/4
f 245/164/1 246/165/1 247/166/1
f 247/166/1 248/167/1 245/164/1
f 232/149/1 245/164/1 248/167/1
f 248/167/1 233/150/1 232/149/1
f 229/168/3 228/169/3 249/170/3
f 250/171/3 249/170/3 228/169/3
f 228/169/3 251/172/3 250/171/3
f 236/153/3 250/171/3 251/172/3
f 251/172/3 225/154/3 236/153/3
f 252/173/4 253/174/4 254/175/4
f 254/175/4 255/176/4 252/173/4
f 256/177/5 257/178/5 258/179/5
f 258/179/5 259/180/5 256/177/5
f 260/181/5 256/177/5 259/180/5
f 259/180/5 261/182/5 260/181/5
f 262/183/6 263/184/6 231/185/6
f 231/185/6 235/186/6 262/183/6
f 264/187/7 265/188/7 233/189/7
f 233/189/7 248/190/7 264/187/7
f 266/191/7 264/187/7 248/190/7
f 248/190/7 247/192/7 266/191/7
f 267/193/3 268/194/3 269/195/3
f 269/195/3 270/196/3 267/193/3
f 270/196/3 269/195/3 271/197/3
f 271/197/3 272/198/3 270/196/3
f 272/198/3 271/197/3 250/171/3
f 250/171/3 236/153/3 272/198/3
f 268/194/3 273/199/3 274/200/3
f 274/200/3 269/195/3 268/194/3
f 269/195/3 274/200/3 275/201/3
f 275/201/3 271/197/3 269/195/3
f 271/197/3 275/201/3 249/170/3
f 249/170/3 250/171/3 271/197/3
f 276/202/7 273/203/7 277/204/7
f 277/204/7 278/205/7 276/202/7
f 274/200/3 237/206/3 279/207/3
f 279/207/3 275/201/3 274/200/3
f 275/201/3 279/207/3 229/168/3
f 229/168/3 249/170/3 275/201/3
f 261/208/1 259/209/1 280/210/1
f 280/210/1 281/211/1 261/208/1
f 281/211/1 280/210/1 282/212/1
f 282/212/1 283/213/1 281/211/1
f 283/213/1 282/212/1 245/164/1
f 245/164/1 232/149/1 283/213/1
f 259/209/1 258/214/1 284/215/1
f 284/215/1 280/210/1 259/209/1
f 280/210/1 284/215/1 285/216/1
f 285/216/1 282/212/1 280/210/1
f 282/212/1 285/216/1 246/165/1
f 246/165/1 245/164/1 282/212/1
f 257/178/5 286/217/5 287/218/5
f 287/218/5 258/179/5 257/178/5
f 284/215/1 254/219/1 288/220/1
f 288/220/1 285/216/1 284/215/1
f 285/216/1 288/220/1 244/221/1
f 244/221/1 246/165/1 285/216/1
f 289/222/6 290/223/6 291/224/6
f 291/224/6 292/225/6 289/222/6
f 292/226/1 281/211/1 283/213/1
f 283/213/1 293/227/1 292/226/1
f 293/227/1 283/213/1 232/149/1
f 232/149/1 231/148/1 293/227/1
f 267/193/3 270/196/3 294/228/3
f 294/228/3 270/196/3 272/198/3
f 272/198/3 295/229/3 294/228/3
f 295/229/3 272/198/3 236/153/3
f 236/153/3 224/155/3 295/229/3
f 296/230/5 260/181/5 261/182/5
f 261/182/5 297/231/5 296/230/5
f 298/232/6 289/222/6 292/225/6
f 292/225/6 293/233/6 298/232/6
f 263/184/6 298/232/6 293/233/6
f 293/233/6 231/185/6 263/184/6
f 299/234/7 266/191/7 247/192/7
f 247/192/7 300/235/7 299/234/7
f 301/236/4 241/160/4 244/163/4
f 244/163/4 288/237/4 301/236/4
f 253/174/4 301/236/4 288/237/4
f 288/237/4 254/175/4 253/174/4
f 229/238/4 279/239/4 302/240/4
f 302/240/4 303/241/4 229/238/4
f 303/241/4 302/240/4 301/236/4
f 301/236/4 253/174/4 303/241/4
f 279/239/4 237/156/4 240/159/4
f 240/159/4 302/240/4 279/239/4
f 302/240/4 240/159/4 241/160/4
f 241/160/4 301/236/4 302/240/4
f 240/159/4 239/158/4 242/161/4
f 242/161/4 241/160/4 240/159/4
f 294/242/6 295/243/6 304/244/6
f 304/244/6 305/245/6 294/242/6
f 305/245/6 304/244/6 298/232/6
f 298/232/6 263/184/6 305/245/6
f 295/243/6 224/246/6 306/247/6
f 306/247/6 304/244/6 295/243/6
f 304/244/6 306/247/6 289/222/6
f 289/222/6 298/232/6 304/244/6
f 306/247/6 307/248/6 290/223/6
f 290/223/6 289/222/6 306/247/6
f 297/249/1 261/208/1 281/211/1
f 297/249/1 281/211/1 292/226/1
f 292/226/1 291/250/1 297/249/1
f 273/203/7 268/251/7 308/252/7
f 308/252/7 277/204/7 273/203/7
f 277/204/7 308/252/7 264/187/7
f 264/187/7 266/191/7 277/204/7
f 268/251/7 267/253/7 309/254/7
f 309/254/7 308/252/7 268/251/7
f 308/252/7 309/254/7 265/188/7
f 265/188/7 264/187/7 308/252/7
f 309/254/7 310/255/7 311/256/7
f 311/256/7 265/188/7 309/254/7
f 265/188/7 311/256/7 234/257/7
f 234/257/7 233/189/7 265/188/7
f 225/258/5 251/259/5 312/260/5
f 312/260/5 313/261/5 225/258/5
f 313/261/5 312/260/5 256/177/5
f 256/177/5 260/181/5 313/261/5
f 251/259/5 228/262/5 314/263/5
f 314/263/5 312/260/5 251/259/5
f 312/260/5 314/263/5 257/178/5
f 257/178/5 256/177/5 312/260/5
f 315/264/4 303/241/4 253/174/4
f 253/174/4 252/173/4 315/264/4
f 228/262/5 227/265/5 316/266/5
f 316/266/5 314/263/5 228/262/5
f 317/267/6 305/245/6 263/184/6
f 263/184/6 262/183/6 317/267/6
f 267/253/7 318/268/7 310/255/7
f 310/255/7 309/254/7 267/253/7
f 319/269/5 313/261/5 260/181/5
f 260/181/5 296/230/5 319/269/5
f 224/246/6 223/270/6 307/248/6
f 307/248/6 306/247/6 224/246/6
f 314/263/5 316/266/5 286/217/5
f 286/217/5 257/178/5 314/263/5
f 258/214/1 287/271/1 255/272/1
f 258/214/1 255/272/1 254/219/1
f 254/219/1 284/215/1 258/214/1
f 278/205/7 277/204/7 266/191/7
f 266/191/7 299/234/7 278/205/7
f 246/165/1 244/221/1 243/273/1
f 246/165/1 243/273/1 300/274/1
f 300/274/1 247/166/1 246/165/1
f 273/199/3 237/206/3 274/200/3
f 320/275/6 294/242/6 305/245/6
f 305/245/6 317/267/6 320/275/6
f 226/276/5 225/258/5 313/261/5
f 313/261/5 319/269/5 226/276/5
f 230/277/4 229/238/4 303/241/4
f 303/241/4 315/264/4 230/277/4
f 311/278/8 262/183/8 235/186/8
f 235/186/8 234/279/8 311/278/8
f 300/235/9 243/280/9 242/281/9
f 242/281/9 299/234/9 300/235/9
f 255/176/10 287/282/10 286/283/10
f 286/283/10 252/173/10 255/176/10
f 297/231/11 291/284/11 290/285/11
f 290/285/11 296/230/11 297/231/11
f 1/286/12 16/287/12 17/288/12
f 17/288/13 517/289/13 516/290/13 515/291/13 518/292/13 491/293/13 490/294/13 489/295/13 488/296/13
f 22/297/14 16/287/14 1/286/14
f 25/298/15 22/297/15 1/286/15
f 25/298/16 1/286/16 20/299/16
f 43/300/17 431/301/17 430/302/17 433/303/17
f 43/300/18 14/304/18 446/305/18 445/306/18
f 436/307/19 437/308/19 434/309/19 435/310/19 432/311/19 431/301/19 43/300/19 445/306/19 444/312/19 443/313/19 442/314/19 441/315/19 440/316/19 439/317/19 438/318/19
f 446/305/20 14/304/20 385/319/20 382/320/20 381/321/20 380/322/20 379/323/20 449/324/20 447/325/20
f 375/326/21 374/327/21 371/328/21 372/329/21 373/330/21 448/331/21 449/324/21 379/323/21 378/332/21 377/333/21 376/334/21
f 14/304/22 396/335/22 398/336/22 393/337/22 394/338/22 387/339/22 386/340/22 383/341/22 384/342/22 385/319/22
f 387/339/23 394/338/23 395/343/23 392/344/23 391/345/23 389/346/23 390/347/23 388/348/23
f 397/349/24 396/335/24 14/304/24 416/350/24 414/351/24 400/352/24 399/353/24
f 401/354/25 400/352/25 414/351/25 410/355/25 411/356/25 408/357/25 409/358/25 406/359/25 407/360/25 404/361/25 405/362/25 402/363/25 403/364/25
f 14/304/26 43/300/26 415/365/26 416/350/26
f 422/366/27 419/367/27 420/368/27 417/369/27 418/370/27 412/371/27 413/372/27 415/365/27 43/300/27 429/373/27 426/374/27 425/375/27 424/376/27 423/377/27 421/378/27
f 429/373/28 43/300/28 433/303/28 428/379/28 427/380/28
f 20/299/29 524/381/29 522/382/29 520/383/29 521/384/29 525/385/29 526/386/29 530/387/29 531/388/29
f 534/389/30 25/298/30 20/299/30 531/388/30 529/390/30 527/391/30 528/392/30 532/393/30 498/394/30 467/395/30 468/396/30 533/397/30
f 25/298/31 534/389/31 479/398/31 476/399/31 477/400/31
f 454/401/32 455/402/32 25/298/32 477/400/32 478/403/32 492/404/32 457/405/32
f 22/297/33 25/298/33 455/402/33 456/406/33 462/407/33 463/408/33 472/409/33 473/410/33 480/411/33 481/412/33
f 450/413/34 451/414/34 22/297/34 481/412/34 453/415/34
f 470/416/35 22/297/35 451/414/35 452/417/35 460/418/35 461/419/35 469/420/35
f 459/421/36 458/422/36 370/423/36 367/424/36 368/425/36 16/287/36 22/297/36 470/416/36 471/426/36 497/427/36
f 465/428/37 16/287/37 368/425/37 369/429/37 464/430/37
f 524/381/38 20/299/38 496/431/38 495/432/38 494/433/38 493/434/38 519/435/38 523/436/38
f 482/437/39 496/431/39 20/299/39 17/288/39 488/296/39 487/438/39 486/439/39 485/440/39 484/441/39 483/442/39
f 17/288/40 20/299/40 1/286/40
f 501/443/41 502/444/41 16/287/41 465/428/41 466/445/41 474/446/41 475/447/41 499/448/41 500/449/41
f 508/450/42 512/451/42 17/288/42 16/287/42 502/444/42 503/452/42 507/453/42 506/454/42 505/455/42 504/456/42 509/457/42
f 513/458/43 517/289/43 17/288/43 512/451/43 511/459/43 510/460/43 514/461/43
s 1
f 2/462/44 3/463/4 4/464/4
f 4/464/4 5/465/44 2/462/44
f 6/466/45 2/462/44 5/465/44
f 5/465/44 7/467/45 6/466/45
f 8/468/46 6/466/45 7/467/45
f 7/467/45 9/469/46 8/468/46
f 10/470/10 8/468/46 9/469/46
f 9/469/46 11/471/10 10/470/10
f 12/472/47 10/470/10 11/471/10
f 11/471/10 13/473/48 12/472/47
f 15/474/49 12/475/47 13/476/48
f 13/476/48 18/477/49 15/474/49
f 19/478/50 15/474/49 18/477/49
f 18/477/49 21/479/50 19/478/50
f 23/480/5 19/478/50 21/479/50
f 21/479/50 24/481/5 23/480/5
f 26/482/51 23/480/5 24/481/5
f 24/481/5 27/483/51 26/482/51
f 28/484/52 26/482/51 27/483/51
f 27/483/51 29/485/52 28/484/52
f 30/486/53 28/484/52 29/485/52
f 29/485/52 31/487/53 30/486/53
f 32/488/54 30/486/53 31/487/53
f 31/487/53 33/489/55 32/488/54
f 34/490/56 32/491/54 33/492/55
f 33/492/55 35/493/56 34/490/56
f 36/494/57 34/490/56 35/493/56
f 35/493/56 37/495/57 36/494/57
f 38/496/58 36/494/57 37/495/57
f 37/495/57 39/497/58 38/496/58
f 40/498/6 38/496/58 39/497/58
f 39/497/58 41/499/6 40/498/6
f 42/500/59 40/498/6 41/499/6
f 41/499/6 44/501/59 42/500/59
f 45/502/60 42/500/59 44/501/59
f 44/501/59 46/503/60 45/502/60
f 47/504/61 45/502/60 46/503/60
f 46/503/60 48/505/61 47/504/61
f 49/506/8 47/504/61 48/505/61
f 48/505/61 50/507/8 49/506/8
f 51/508/62 49/506/8 50/507/8
f 50/507/8 52/509/62 51/508/62
f 53/510/63 51/508/62 52/509/62
f 52/509/62 54/511/64 53/510/63
f 55/512/65 53/513/63 54/514/64
f 54/514/64 56/515/65 55/512/65
f 57/516/7 55/512/65 56/515/65
f 56/515/65 58/517/7 57/516/7
f 59/518/66 57/516/7 58/517/7
f 58/517/7 60/519/66 59/518/66
f 61/520/67 59/518/66 60/519/66
f 60/519/66 62/521/67 61/520/67
f 63/522/68 61/520/67 62/521/67
f 62/521/67 64/523/68 63/522/68
f 65/524/9 63/522/68 64/523/68
f 64/523/68 66/525/9 65/524/9
f 67/526/69 65/524/9 66/525/9
f 66/525/9 68/527/69 67/526/69
f 69/528/70 67/526/69 68/527/69
f 68/527/69 70/529/71 69/528/70
f 72/530/72 69/531/70 70/532/71
f 70/532/71 71/533/72 72/530/72
f 3/463/4 72/530/72 71/533/72
f 71/533/72 4/464/4 3/463/4
f 74/534/73 75/535/74 73/536/53
f 75/535/74 76/537/75 73/536/53
f 367/538/76 77/539/61 369/540/77 368/541/76
f 367/538/76 370/542/78 78/543/8 77/539/61
f 371/544/79 72/530/72 372/545/80
f 372/545/80 72/530/72 3/463/4 373/546/81
f 375/547/82 69/531/70 374/548/83
f 374/548/83 69/531/70 72/530/72 371/544/79
f 377/549/84 67/526/69 376/550/85
f 376/550/85 67/526/69 69/528/70 375/551/82
f 380/552/86 65/524/9 378/553/87 379/554/87
f 378/553/87 65/524/9 67/526/69 377/549/84
f 63/522/68 381/555/88 382/556/89
f 65/524/9 380/552/86 381/555/88 63/522/68
f 384/557/90 383/558/91 61/520/67
f 385/559/90 384/557/90 61/520/67 63/522/68 382/556/89
f 387/560/92 388/561/93 59/518/66 386/562/92
f 386/562/92 59/518/66 61/520/67 383/558/91
f 390/563/94 389/564/7 57/516/7
f 390/563/94 57/516/7 59/518/66 388/561/93
f 55/512/65 391/565/95 392/566/96
f 57/516/7 389/564/7 391/565/95 55/512/65
f 53/513/63 395/567/97 394/568/97 393/569/98
f 55/512/65 392/566/96 395/567/97 53/513/63
f 396/570/99 397/571/100 51/508/62 398/572/99
f 53/510/63 393/573/98 398/572/99 51/508/62
f 400/574/101 401/575/102 49/506/8 399/576/101
f 399/576/101 49/506/8 51/508/62 397/571/100
f 47/504/61 403/577/76 402/578/103
f 47/504/61 49/506/8 401/575/102 403/577/76
f 45/502/60 405/579/104 404/580/105
f 45/502/60 47/504/61 402/578/103 405/579/104
f 42/500/59 407/581/106 406/582/107
f 42/500/59 45/502/60 404/580/105 407/581/106
f 40/498/6 409/583/108 408/584/109
f 40/498/6 42/500/59 406/582/107 409/583/108
f 38/496/58 411/585/110 410/586/111
f 38/496/58 40/498/6 408/584/109 411/585/110
f 36/494/57 413/587/112 412/588/113
f 36/494/57 38/496/58 410/586/111 414/589/112 416/590/112 415/591/112 413/587/112
f 34/490/56 418/592/114 417/593/115
f 34/490/56 36/494/57 412/588/113 418/592/114
f 32/491/54 420/594/116 419/595/117
f 32/491/54 34/490/56 417/593/115 420/594/116
f 30/486/53 422/596/118 421/597/119
f 419/598/117 422/596/118 30/486/53 32/488/54
f 424/599/120 28/484/52 423/600/121
f 28/484/52 30/486/53 421/597/119 423/600/121
f 426/601/122 26/482/51 425/602/123
f 26/482/51 28/484/52 424/599/120 425/602/123
f 428/603/124 23/480/5 427/604/125
f 23/480/5 26/482/51 426/601/122 429/605/125 427/604/125
f 19/478/50 430/606/126 431/607/126 432/608/127
f 19/478/50 23/480/5 428/603/124 433/609/126 430/606/126
f 15/474/49 435/610/128 434/611/129
f 432/608/127 435/610/128 15/474/49 19/478/50
f 12/475/47 437/612/130 436/613/131
f 434/611/129 437/612/130 12/475/47 15/474/49
f 439/614/132 10/470/10 438/615/133
f 10/470/10 12/472/47 436/616/131 438/615/133
f 441/617/134 8/468/46 440/618/135
f 440/618/135 8/468/46 10/470/10 439/614/132
f 443/619/136 6/466/45 442/620/137
f 442/620/137 6/466/45 8/468/46 441/617/134
f 447/621/138 2/462/44 444/622/139 445/623/139 446/624/139
f 444/622/139 2/462/44 6/466/45 443/619/136
f 373/546/81 3/463/4 448/625/140
f 448/625/140 3/463/4 2/462/44 447/621/138 449/626/140
f 79/627/51 80/628/141 81/629/142
f 81/629/142 82/630/52 79/627/51
f 83/631/45 84/632/143 85/633/144
f 83/631/45 85/633/144 86/634/46
f 451/635/94 450/636/94 87/637/7 452/638/145
f 450/636/94 453/639/146 88/640/66 87/637/7
f 89/641/58 90/642/147 91/643/148
f 92/644/6 89/641/58 91/643/148
f 94/645/149 95/646/150 93/647/49
f 95/646/150 96/648/50 93/647/49
f 455/649/87 454/650/87 97/651/9 456/652/151
f 457/653/152 98/654/69 97/651/9 454/650/87
f 458/655/101 78/543/8 370/542/78
f 458/655/101 459/656/153 99/657/62 78/543/8
f 101/658/142 74/534/73 100/659/52
f 74/534/73 73/536/53 100/659/52
f 102/660/44 103/661/154 84/632/143
f 102/660/44 84/632/143 83/631/45
f 460/662/95 104/663/65 461/664/155
f 87/637/7 104/663/65 460/662/95 452/638/145
f 90/642/147 105/665/57 106/666/156
f 89/641/58 105/665/57 90/642/147
f 108/667/157 94/645/149 107/668/158
f 94/645/149 93/647/49 107/668/158
f 462/669/88 109/670/68 463/671/159
f 97/651/9 109/670/68 462/669/88 456/652/151
f 464/672/104 110/673/60 466/674/160 465/675/104
f 464/672/104 369/540/77 77/539/61 110/673/60
f 112/676/141 101/658/142 111/677/51
f 101/658/142 100/659/52 111/677/51
f 467/678/161 103/661/154 113/679/4 468/680/162
f 102/660/44 113/679/4 103/661/154
f 469/681/97 114/682/163 471/683/164 470/684/97
f 469/681/97 461/664/155 104/663/65 114/682/163
f 106/666/156 115/685/56 116/686/165
f 105/665/57 115/685/56 106/666/156
f 118/687/166 108/688/157 117/689/10
f 108/688/157 107/690/158 117/689/10
f 472/691/90 119/692/67 473/693/167
f 472/691/90 463/671/159 109/670/68 119/692/67
f 121/694/168 475/695/169 474/696/106 120/697/59
f 120/697/59 474/696/106 466/674/160 110/673/60
f 123/698/170 112/676/141 122/699/5
f 112/676/141 111/677/51 122/699/5
f 477/700/83 476/701/83 124/702/171 478/703/172
f 479/704/173 125/705/72 124/702/171 476/701/83
f 126/706/44 127/707/154 128/708/174
f 128/708/174 129/709/45 126/706/44
f 116/686/165 76/710/75 75/711/74
f 115/685/56 76/710/75 116/686/165
f 86/634/46 85/633/144 118/687/166
f 86/634/46 118/687/166 117/689/10
f 481/712/92 480/713/92 88/640/66 453/639/146
f 480/713/92 473/693/167 119/692/67 88/640/66
f 92/644/6 91/643/148 121/694/168
f 120/697/59 92/644/6 121/694/168
f 95/646/150 123/698/170 96/648/50
f 123/698/170 122/699/5 96/648/50
f 130/714/61 131/715/175 132/716/176
f 132/716/176 133/717/8 130/714/61
f 492/718/85 98/654/69 457/653/152
f 478/719/172 124/720/171 98/654/69 492/718/85
f 497/721/99 99/657/62 459/656/153
f 114/722/163 99/657/62 497/721/99 471/723/164
f 141/724/68 142/725/177 143/726/178
f 143/726/178 144/727/9 141/724/68
f 145/728/179 146/729/157 147/730/149
f 147/730/149 148/731/49 145/728/179
f 149/732/57 150/733/156 151/734/147
f 151/734/147 152/735/58 149/732/57
f 153/736/65 154/737/180 155/738/181
f 155/738/181 156/739/7 153/736/65
f 82/630/52 81/629/142 157/740/73
f 157/740/73 158/741/53 82/630/52
f 159/742/60 160/743/182 131/715/175
f 131/715/175 130/714/61 159/742/60
f 144/727/9 143/726/178 161/744/183
f 161/744/183 162/745/69 144/727/9
f 148/731/49 147/730/149 163/746/150
f 163/746/150 164/747/50 148/731/49
f 152/735/58 151/734/147 165/748/148
f 165/748/148 166/749/6 152/735/58
f 156/739/7 155/738/181 167/750/184
f 167/750/184 168/751/66 156/739/7
f 169/752/4 170/753/185 127/707/154
f 127/707/154 126/706/44 169/752/4
f 158/741/53 157/740/73 171/754/186
f 171/754/186 172/755/75 158/741/53
f 133/717/8 132/716/176 175/756/187
f 175/756/187 176/757/62 133/717/8
f 162/745/69 161/744/183 177/758/188
f 177/758/188 178/759/189 162/745/69
f 164/747/50 163/746/150 179/760/170
f 179/760/170 180/761/5 164/747/50
f 166/749/6 165/748/148 181/762/168
f 181/762/168 182/763/59 166/749/6
f 168/751/66 167/750/184 183/764/190
f 183/764/190 184/765/67 168/751/66
f 185/766/46 186/767/144 187/768/166
f 187/768/166 188/769/10 185/766/46
f 172/770/75 171/771/186 189/772/165
f 189/772/165 190/773/56 172/770/75
f 176/757/62 175/756/187 191/774/191
f 191/774/191 192/775/192 176/757/62
f 178/776/189 177/777/188 193/778/193
f 193/778/193 194/779/72 178/776/189
f 180/761/5 179/760/170 80/628/141
f 80/628/141 79/627/51 180/761/5
f 182/763/59 181/762/168 160/743/182
f 160/743/182 159/742/60 182/763/59
f 184/765/67 183/764/190 142/725/177
f 142/725/177 141/724/68 184/765/67
f 188/769/10 187/768/166 146/780/157
f 146/780/157 145/781/179 188/769/10
f 190/773/56 189/772/165 150/733/156
f 150/733/156 149/732/57 190/773/56
f 192/782/192 191/783/191 154/737/180
f 154/737/180 153/736/65 192/782/192
f 194/779/72 193/778/193 170/753/185
f 170/753/185 169/752/4 194/779/72
f 129/709/45 128/708/174 186/767/144
f 186/767/144 185/766/46 129/709/45
f 223/784/194 224/155/195 225/154/195
f 225/154/195 226/785/196 223/784/194
f 227/786/197 228/787/198 229/238/198
f 229/238/198 230/277/199 227/786/197
f 273/203/200 276/202/201 238/788/202
f 238/788/202 237/789/200 273/203/200
f 320/275/203 317/267/204 310/790/204
f 310/790/204 318/791/203 320/275/203
f 276/202/201 278/205/205 239/792/205
f 239/792/205 238/788/202 276/202/201
f 226/276/196 319/269/206 307/793/206
f 307/793/206 223/794/194 226/276/196
f 230/277/199 315/264/207 316/795/207
f 316/795/207 227/786/197 230/277/199
f 296/230/11 290/285/11 307/793/206
f 307/793/206 319/269/206 296/230/11
f 299/234/9 242/281/9 239/792/205
f 239/792/205 278/205/205 299/234/9
f 310/790/204 317/267/204 262/183/8
f 262/183/8 311/278/8 310/790/204
f 252/173/10 286/283/10 316/795/207
f 316/795/207 315/264/207 252/173/10
f 267/193/208 294/228/208 320/796/203
f 320/796/203 318/797/203 267/193/208
f 498/798/209 103/661/154 467/678/161
f 500/799/210 499/800/211 121/694/168
f 475/695/169 121/694/168 499/800/211
f 501/801/212 91/643/148 503/802/213 502/803/214
f 121/694/168 91/643/148 501/801/212 500/799/210
f 321/804/215 504/805/216 505/806/217
f 505/806/217 506/807/218 321/804/215
f 506/808/218 507/809/219 90/642/147 321/810/215
f 91/643/148 90/642/147 507/809/219 503/802/213
f 322/811/220 508/812/221 509/813/222
f 321/804/215 322/811/220 509/813/222 504/805/216
f 321/810/215 106/666/156 322/814/220
f 90/642/147 106/666/156 321/810/215
f 323/815/223 510/816/224 511/817/225
f 508/812/221 322/811/220 323/815/223 511/817/225 512/818/225
f 322/814/220 116/686/165 323/819/223
f 106/666/156 116/686/165 322/814/220
f 324/820/226 513/821/227 514/822/228
f 323/815/223 324/820/226 514/822/228 510/816/224
f 323/819/223 75/711/74 324/823/226
f 116/686/165 75/711/74 323/819/223
f 325/824/229 515/825/230 516/826/231
f 513/821/227 324/820/226 325/824/229 516/826/231 517/827/231
f 325/828/229 324/829/226 74/534/73
f 324/829/226 75/535/74 74/534/73
f 326/830/232 137/43/233 491/46/234 518/831/234
f 325/824/229 326/830/232 518/831/234 515/825/230
f 326/832/232 325/828/229 101/658/142
f 325/828/229 74/534/73 101/658/142
f 136/39/235 137/43/233 327/833/236
f 137/43/233 326/830/232 327/833/236
f 327/834/236 326/832/232 112/676/141
f 326/832/232 101/658/142 112/676/141
f 135/36/237 136/39/235 328/835/238
f 136/39/235 327/833/236 328/835/238
f 328/836/238 327/834/236 123/698/170
f 327/834/236 112/676/141 123/698/170
f 134/35/239 135/36/237 329/837/240
f 329/837/240 135/36/237 328/835/238
f 329/838/240 328/836/238 95/646/150
f 328/836/238 123/698/170 95/646/150
f 330/839/241 138/49/242 134/35/239
f 330/839/241 134/35/239 329/837/240
f 330/840/241 329/838/240 94/645/149
f 329/838/240 95/646/150 94/645/149
f 331/841/243 519/842/244 493/47/245 138/49/242
f 331/841/243 138/49/242 330/839/241
f 331/843/243 330/840/241 108/667/157
f 330/840/241 94/645/149 108/667/157
f 520/844/246 332/845/247 521/846/248
f 332/845/247 520/844/246 522/847/249
f 519/842/244 331/841/243 523/848/250
f 523/849/250 331/850/243 118/687/166 332/851/247 522/852/249 524/853/251
f 331/850/243 108/688/157 118/687/166
f 525/854/252 333/855/253 526/856/254
f 521/846/248 332/845/247 333/855/253 525/854/252
f 85/633/144 333/857/253 332/851/247
f 85/633/144 332/851/247 118/687/166
f 527/858/255 334/859/256 528/860/257
f 334/859/256 527/858/255 529/861/258
f 526/856/254 333/855/253 530/862/259
f 531/863/260 530/864/259 333/857/253 84/632/143 334/865/256 529/866/258
f 84/632/143 333/857/253 85/633/144
f 528/860/257 334/859/256 532/867/261
f 103/661/154 498/798/209 532/868/261 334/865/256
f 103/661/154 334/865/256 84/632/143
f 335/869/262 173/56/263 174/59/264
f 174/59/264 336/870/256 335/869/262
f 127/707/154 335/871/262 336/872/256
f 336/872/256 128/708/174 127/707/154
f 336/870/256 174/59/264 218/139/265
f 218/139/265 337/873/266 336/870/256
f 128/708/174 336/872/256 337/874/266
f 337/874/266 186/767/144 128/708/174
f 337/873/266 218/139/265 221/145/267
f 221/145/267 338/875/268 337/873/266
f 186/767/144 337/874/266 338/876/268
f 338/876/268 187/768/166 186/767/144
f 338/875/268 221/145/267 195/92/269
f 195/92/269 339/877/243 338/875/268
f 187/768/166 338/876/268 339/878/243
f 339/878/243 146/780/157 187/768/166
f 339/877/243 195/92/269 196/95/242
f 196/95/242 340/879/270 339/877/243
f 146/729/157 339/880/243 340/881/270
f 340/881/270 147/730/149 146/729/157
f 340/879/270 196/95/242 198/99/239
f 198/99/239 341/882/271 340/879/270
f 147/730/149 340/881/270 341/883/271
f 341/883/271 163/746/150 147/730/149
f 341/882/271 198/99/239 200/103/237
f 200/103/237 342/884/272 341/882/271
f 163/746/150 341/883/271 342/885/272
f 342/885/272 179/760/170 163/746/150
f 342/884/272 200/103/237 202/107/235
f 202/107/235 343/886/273 342/884/272
f 179/760/170 342/885/272 343/887/273
f 343/887/273 80/628/141 179/760/170
f 343/886/273 202/107/235 204/111/233
f 204/111/233 344/888/232 343/886/273
f 80/628/141 343/887/273 344/889/232
f 344/889/232 81/629/142 80/628/141
f 344/888/232 204/111/233 206/115/274
f 206/115/274 345/890/275 344/888/232
f 81/629/142 344/889/232 345/891/275
f 345/891/275 157/740/73 81/629/142
f 345/890/275 206/115/274 208/119/276
f 208/119/276 346/892/226 345/890/275
f 157/740/73 345/891/275 346/893/226
f 346/893/226 171/754/186 157/740/73
f 346/892/226 208/119/276 210/123/277
f 210/123/277 347/894/278 346/892/226
f 171/771/186 346/895/226 347/896/278
f 347/896/278 189/772/165 171/771/186
f 347/894/278 210/123/277 212/127/279
f 212/127/279 348/897/220 347/894/278
f 189/772/165 347/896/278 348/898/220
f 348/898/220 150/733/156 189/772/165
f 348/897/220 212/127/279 214/131/280
f 214/131/280 349/899/281 348/897/220
f 150/733/156 348/898/220 349/900/281
f 349/900/281 151/734/147 150/733/156
f 349/899/281 214/131/280 217/137/282
f 217/137/282 350/901/283 349/899/281
f 151/734/147 349/900/281 350/902/283
f 350/902/283 165/748/148 151/734/147
f 350/901/283 217/137/282 220/143/284
f 220/143/284 351/903/285 350/901/283
f 165/748/148 350/902/283 351/904/285
f 351/904/285 181/762/168 165/748/148
f 351/903/285 220/143/284 139/52/286
f 139/52/286 352/905/287 351/903/285
f 181/762/168 351/904/285 352/906/287
f 352/906/287 160/743/182 181/762/168
f 352/905/287 139/52/286 140/55/288
f 140/55/288 353/907/289 352/905/287
f 160/743/182 352/906/287 353/908/289
f 353/908/289 131/715/175 160/743/182
f 353/907/289 140/55/288 197/97/290
f 197/97/290 354/909/291 353/907/289
f 131/715/175 353/908/289 354/910/291
f 354/910/291 132/716/176 131/715/175
f 354/909/291 197/97/290 199/101/292
f 199/101/292 355/911/293 354/909/291
f 132/716/176 354/910/291 355/912/293
f 355/912/293 175/756/187 132/716/176
f 355/911/293 199/101/292 201/105/294
f 201/105/294 356/913/295 355/911/293
f 175/756/187 355/912/293 356/914/295
f 356/914/295 191/774/191 175/756/187
f 356/913/295 201/105/294 203/109/296
f 203/109/296 357/915/297 356/913/295
f 191/783/191 356/916/295 357/917/297
f 357/917/297 154/737/180 191/783/191
f 357/915/297 203/109/296 205/113/298
f 205/113/298 358/918/299 357/915/297
f 154/737/180 357/917/297 358/919/299
f 358/919/299 155/738/181 154/737/180
f 358/918/299 205/113/298 207/117/300
f 207/117/300 359/920/301 358/918/299
f 155/738/181 358/919/299 359/921/301
f 359/921/301 167/750/184 155/738/181
f 359/920/301 207/117/300 209/121/302
f 209/121/302 360/922/303 359/920/301
f 167/750/184 359/921/301 360/923/303
f 360/923/303 183/764/190 167/750/184
f 360/922/303 209/121/302 211/125/304
f 211/125/304 361/924/305 360/922/303
f 183/764/190 360/923/303 361/925/305
f 361/925/305 142/725/177 183/764/190
f 361/924/305 211/125/304 213/129/306
f 213/129/306 362/926/307 361/924/305
f 142/725/177 361/925/305 362/927/307
f 362/927/307 143/726/178 142/725/177
f 362/926/307 213/129/306 216/135/308
f 216/135/308 363/928/309 362/926/307
f 143/726/178 362/927/307 363/929/309
f 363/929/309 161/744/183 143/726/178
f 363/928/309 216/135/308 219/141/310
f 219/141/310 364/930/311 363/928/309
f 161/744/183 363/929/309 364/931/311
f 364/931/311 177/758/188 161/744/183
f 364/930/311 219/141/310 222/147/312
f 222/147/312 365/932/313 364/930/311
f 177/777/188 364/933/311 365/934/313
f 365/934/313 193/778/193 177/777/188
f 365/932/313 222/147/312 215/132/314
f 215/132/314 366/935/315 365/932/313
f 193/778/193 365/934/313 366/936/315
f 366/936/315 170/753/185 193/778/193
f 366/935/315 215/132/314 173/56/263
f 173/56/263 335/869/262 366/935/315
f 170/753/185 366/936/315 335/871/262
f 335/871/262 127/707/154 170/753/185
f 534/937/80 533/938/80 125/705/72 479/704/173
f 468/680/162 113/679/4 125/705/72 533/938/80
