# Blender v3.5.0 OBJ File: ''
# www.blender.org
mtllib Säule Kaputt 03.mtl
o Object_2_Object_0.001
v 4.877260 -0.000007 -24.519604
v 0.000000 -0.000007 -25.000004
v 0.000000 200.000031 -25.000031
v 4.877260 200.000031 -24.519730
v 9.567090 -0.000007 -23.097002
v 9.567090 200.000031 -23.097029
v 13.889300 -0.000006 -20.786701
v 13.889300 200.000031 -20.786829
v 17.677700 -0.000005 -17.677702
v 17.677700 200.000031 -17.677729
v 20.786699 -0.000004 -13.889302
v 20.786699 200.000031 -13.889329
v -2.706146 -116.408432 -0.340193
v 23.097000 -0.000003 -9.567091
v 23.097000 200.000031 -9.567147
v 24.519600 -0.000001 -4.877261
v 24.519600 200.000031 -4.877317
v 25.000000 -0.000000 -0.000002
v 25.000000 200.000031 -0.000061
v 24.519600 0.000001 4.877251
v 24.519600 200.000031 4.877194
v 23.097000 0.000003 9.567080
v 23.097000 200.000031 9.567024
v 20.786699 0.000004 13.889302
v 20.786699 200.000031 13.889175
v 17.677700 0.000005 17.677702
v 17.677700 200.000031 17.677576
v 13.889300 0.000006 20.786701
v 13.889300 200.000031 20.786674
v 9.567080 0.000007 23.097002
v 9.567080 200.000031 23.096975
v 4.877250 0.000007 24.519604
v 4.877250 200.000031 24.519577
v -0.000008 0.000007 25.000004
v -0.000008 200.000031 24.999977
v -4.877270 0.000007 24.519604
v 23.580343 -123.875847 -0.340192
v -4.877270 200.000031 24.519577
v -9.567100 0.000007 23.097002
v -9.567100 200.000031 23.096975
v -13.889300 0.000006 20.786701
v -13.889300 200.000031 20.786674
v -17.677700 0.000005 17.677702
v -17.677700 200.000031 17.677576
v -20.786800 0.000004 13.889202
v -20.786800 200.000031 13.889175
v -23.097000 0.000003 9.567071
v -23.097000 200.000031 9.567015
v -24.519600 0.000001 4.877241
v -24.519600 200.000031 4.877174
v -25.000000 -0.000000 -0.000024
v -25.000000 200.000031 -0.000084
v -24.519600 -0.000001 -4.877281
v -24.519600 200.000031 -4.877347
v -23.097000 -0.000003 -9.567111
v -23.097000 200.000031 -9.567178
v -20.786699 -0.000004 -13.889302
v -20.786699 200.000031 -13.889329
v -17.677601 -0.000005 -17.677702
v -17.677601 200.000031 -17.677729
v -13.889200 -0.000006 -20.786802
v -13.889200 200.000031 -20.786829
v -9.567050 -0.000007 -23.097002
v -9.567050 200.000031 -23.097029
v -4.877220 200.000031 -24.519730
v -4.877220 -0.000007 -24.519604
v 35.063099 -250.000031 6.974555
v 33.028702 -250.000031 13.681035
v 6.974450 -250.000031 -35.062969
v 13.680900 -250.000031 -33.028568
v -19.861700 -250.000031 29.725138
v -25.279100 -250.000031 25.279139
v -29.725000 -250.000031 -19.861568
v -25.279100 -250.000031 -25.279070
v 29.725000 -250.000031 -19.861568
v 33.028702 -250.000031 -13.680868
v 13.680900 -250.000031 33.028740
v 6.974450 -250.000031 35.063137
v -35.063099 -250.000031 6.974524
v -35.750000 -250.000031 0.000043
v 29.725000 -250.000031 19.861736
v -13.681000 -250.000031 33.028740
v -19.861601 -250.000031 -29.724970
v 35.063000 -250.000031 -6.974408
v -0.000037 -250.000031 35.750038
v -35.063099 -250.000031 -6.974438
v -0.000026 -250.000031 -35.749969
v 25.278999 -250.000031 25.279139
v -29.725100 -250.000031 19.861736
v -13.680900 -250.000031 -33.028671
v 35.750000 -250.000031 0.000075
v -6.974520 -250.000031 35.063137
v -33.028702 -250.000031 -13.680868
v 19.861601 -250.000031 -29.724970
v 25.278999 -250.000031 -25.278969
v 19.861601 -250.000031 29.725138
v -33.028702 -250.000031 13.681035
v -6.974450 -250.000031 -35.062969
v 33.978100 215.693024 34.999973
v 17.500000 200.000031 34.999977
v 35.000000 200.000031 17.499975
v 35.000000 215.693024 33.977974
v 35.000000 215.693024 -33.978134
v 35.000000 200.000031 -17.500029
v 17.500000 200.000031 -35.000031
v 33.978100 215.693024 -35.000034
v -17.500000 250.000031 34.999969
v -17.500000 250.000031 17.499968
v -35.000000 250.000031 17.499968
v -35.000000 250.000031 33.588669
v -33.588699 250.000031 34.999969
v 17.500000 200.000031 17.499975
v -17.500000 200.000031 -35.000031
v -33.978100 215.693024 -35.000034
v -33.588699 216.667038 -35.000034
v -17.500000 216.667038 -35.000034
v -17.500000 233.333023 -35.000034
v -33.588699 233.333023 -35.000034
v -33.588699 250.000031 -35.000038
v -17.500000 250.000031 -35.000038
v -17.500000 250.000031 -0.000071
v -17.500000 250.000031 -17.500036
v -35.000000 250.000031 -17.500036
v -35.000000 250.000031 -0.000071
v 17.500000 200.000031 -17.500029
v 17.500000 200.000031 -0.000056
v 35.000000 200.000031 -0.000056
v 33.588699 233.333023 -35.000034
v 17.500000 233.333023 -35.000034
v 17.500000 250.000031 -35.000038
v 33.588699 250.000031 -35.000038
v 35.000000 233.333023 -0.000066
v 35.000000 233.333023 -17.500032
v 35.000000 250.000031 -17.500036
v 35.000000 250.000031 -0.000071
v 35.000000 233.333023 17.499971
v 35.000000 250.000031 17.499968
v -33.588699 233.333023 34.999973
v -17.500000 233.333023 34.999973
v -35.000000 233.333023 -0.000066
v -35.000000 233.333023 17.499971
v -35.000000 233.333023 -17.500032
v -35.000000 200.000031 17.499975
v -35.000000 200.000031 -0.000056
v -17.500000 200.000031 -0.000056
v -17.500000 200.000031 17.499975
v 0.000000 200.000031 -0.000056
v 0.000000 200.000031 17.499975
v -35.000000 200.000031 -17.500029
v -17.500000 200.000031 -17.500029
v 0.000000 200.000031 -17.500029
v -35.000000 215.693024 -33.978134
v -35.000000 216.667038 -17.500031
v -35.000000 216.667038 -33.588833
v 0.000000 200.000031 -35.000031
v 17.500000 250.000031 -0.000071
v 17.500000 250.000031 17.499968
v 0.000000 250.000031 -0.000071
v 0.000000 250.000031 17.499968
v 17.500000 250.000031 -17.500036
v 0.000000 250.000031 -17.500036
v 35.000000 233.333023 -33.588833
v 35.000000 250.000031 -33.588837
v 0.000000 250.000031 -35.000038
v 17.500000 233.333023 34.999973
v 33.588699 233.333023 34.999973
v 33.588699 250.000031 34.999969
v 17.500000 250.000031 34.999969
v 0.000000 250.000031 34.999969
v -17.500000 200.000031 34.999977
v 0.000000 200.000031 34.999977
v 35.000000 233.333023 33.588673
v 35.000000 250.000031 33.588669
v 0.000000 233.333023 34.999973
v -35.000000 233.333023 -33.588833
v -35.000000 250.000031 -33.588837
v 0.000000 233.333023 -35.000034
v 0.000000 216.667038 -35.000034
v 17.500000 216.667038 -35.000034
v 0.000000 216.667038 34.999973
v -17.500000 216.667038 34.999973
v 17.500000 216.667038 34.999973
v 33.588699 216.667038 34.999973
v -35.000000 216.667038 -0.000061
v -35.000000 216.667038 17.499973
v -35.000000 216.667038 33.588673
v -35.000000 233.333023 33.588673
v 35.000000 216.667038 -0.000061
v 35.000000 216.667038 17.499973
v 35.000000 216.667038 -17.500031
v 33.588699 216.667038 -35.000034
v 35.000000 216.667038 -33.588833
v -33.588699 216.667038 34.999973
v -35.000000 215.693024 33.977974
v 35.000000 216.667038 33.588673
v -33.978100 215.693024 34.999973
v -4.877220 -125.709747 -24.519587
v -1.823899 -125.207458 -24.820335
v 0.000000 -124.907417 -24.999987
v -6.618623 -125.737061 -23.991352
v -9.567050 -125.783302 -23.096985
v -11.176224 -125.538284 -22.236877
v -13.889200 -125.125145 -20.786722
v -15.317224 -124.610786 -19.614759
v -17.358122 -123.875717 -17.939869
v -17.677601 -123.822830 -17.677685
v -18.867332 -123.467804 -16.228012
v -20.786699 -122.895035 -13.889224
v -23.097000 -123.568375 -9.567076
v -21.675365 -123.069191 -12.226676
v -20.945665 -122.812965 -13.591825
v -23.639303 -123.758797 -7.779284
v -23.972281 -123.875717 -6.681572
v -24.519600 -124.293831 -4.877245
v -25.000000 -124.660820 0.000013
v -24.701113 -124.432495 -3.034435
v -24.818703 -124.522324 1.840636
v -24.519600 -124.293831 4.877276
v -23.097000 -123.568375 9.567105
v -23.972281 -123.875717 6.681603
v -23.978159 -123.880211 6.662221
v -21.207697 -122.904976 13.101815
v -20.786800 -123.122276 13.889280
v -22.210543 -123.257111 11.225570
v -19.597216 -123.477272 15.338812
v -18.261959 -123.875717 16.965807
v -17.677700 -124.255020 17.677719
v -13.889300 -125.619537 20.786781
v -16.252661 -124.768280 18.847197
v -9.567100 -126.277664 23.097019
v -12.287136 -125.863510 21.643169
v -4.877270 -126.204155 24.519684
v -7.837737 -126.250542 23.621599
v -0.000008 -125.401764 25.000021
v -3.070413 -125.906914 24.697655
v 4.877250 -123.901413 24.519682
v 1.832917 -124.837898 24.819481
v 9.567080 -125.739174 23.097019
v 6.651543 -124.334442 23.981472
v 4.933540 -123.875717 24.502607
v 5.699487 -123.875717 24.270267
v 5.326865 -123.793198 24.383297
v 13.889300 -127.373070 20.786783
v 11.158934 -126.340919 22.246145
v 17.677700 -128.318359 17.677719
v 15.258528 -127.714729 19.663109
v 20.786699 -128.538712 13.889319
v 18.790766 -128.397247 16.321419
v 21.614307 -128.354950 12.340991
v 23.097000 -128.025757 9.567117
v 23.612112 -127.581604 7.868967
v 24.519600 -126.799118 4.877293
v 24.697100 -126.102982 3.075220
v 25.000000 -125.529396 0.000035
v 24.695469 -126.106071 3.091794
v 24.821453 -125.667244 -1.812665
v 24.644035 -126.003212 -3.613887
v 24.519600 -126.493576 -4.877224
v 24.966488 -125.392601 -0.340192
v 23.097000 -127.720222 -9.567048
v 23.999935 -126.941658 -6.590381
v 20.786699 -128.233154 -13.889221
v 22.264196 -127.905128 -11.125094
v 19.669853 -128.153992 -15.250128
v 17.677700 -128.012802 -17.677622
v 16.307642 -127.670929 -18.801977
v 13.889300 -127.067520 -20.786684
v 12.300170 -126.466805 -21.636103
v 9.567090 -125.433662 -23.096985
v 7.798592 -124.581558 -23.633436
v 6.333654 -123.875725 -24.077808
v 5.125605 -123.608177 -24.444254
v 4.877260 -123.660278 -24.519587
v 3.023348 -123.977341 -24.702192
v 3.353686 -123.875717 -24.669655
v 35.063099 -242.032181 6.974550
v 34.367142 -241.839340 9.268813
v 33.028702 -241.468460 13.681034
v 9.142058 -242.289795 -34.405460
v 6.974453 -242.323792 -35.062969
v 13.680900 -242.218643 -33.028603
v -21.733334 -241.758469 28.189106
v -19.861700 -241.456390 29.725136
v -25.279100 -242.330734 25.279137
v -28.282057 -242.257751 -21.619852
v -29.725000 -242.155487 -19.861570
v -25.279100 -242.330734 -25.279072
v -25.508295 -242.454330 -24.999790
v 29.725000 -242.460953 -19.861570
v 30.814419 -242.133682 -17.823442
v 33.028702 -241.468491 -13.680869
v 11.502873 -242.252747 33.689442
v 13.680900 -242.218597 33.028740
v 6.974450 -242.323730 35.063137
v -35.294029 -241.980164 4.629753
v -35.063099 -241.542786 6.974524
v -35.750000 -242.843750 0.000041
v 31.894348 -241.809219 15.803227
v 29.725000 -242.460907 19.861734
v -15.777793 -241.907257 31.907995
v -13.681000 -242.138748 33.028740
v -23.471140 -242.039001 -26.762783
v -19.861601 -241.456558 -29.724972
v 33.739491 -241.665451 -11.337731
v 35.063034 -242.032288 -6.974409
v 4.725810 -242.308945 35.284599
v 5.876980 -242.504272 35.171223
v -0.000034 -241.507080 35.750038
v -35.532051 -242.430969 -2.212928
v -35.750000 -242.843750 0.000033
v -35.063099 -241.542786 -6.974442
v 2.365689 -241.908524 -35.516941
v -0.000023 -241.507080 -35.749969
v 5.876880 -242.504349 -35.171082
v 28.833239 -242.964432 20.948360
v 28.383455 -242.801819 21.496429
v 25.279034 -241.679443 25.279137
v -26.701200 -242.369751 23.546322
v -25.508303 -242.454330 24.999855
v -29.725100 -242.155380 19.861734
v -17.709579 -241.694107 -30.875267
v -13.680900 -242.138809 -33.028671
v 35.227211 -242.533798 -5.307401
v 35.279163 -242.494110 -4.779904
v 35.750000 -242.134430 0.000072
v -2.445074 -241.637192 35.509232
v -6.974517 -241.878250 35.063137
v -34.349400 -241.631332 -9.327157
v -33.028702 -241.795181 -13.680869
v 21.759968 -241.640915 -28.167032
v 19.861601 -241.620102 -29.724972
v 25.279034 -241.679535 -25.278971
v 23.384705 -241.658676 26.833765
v 19.861601 -241.620010 29.725136
v -30.779066 -242.389435 17.889837
v -33.028702 -241.795166 13.681000
v -31.600140 -242.571762 16.353695
v -11.658440 -242.806107 -33.642151
v -10.996101 -243.024643 -33.843063
v -6.974447 -241.878372 -35.062969
v 35.528385 -242.303726 2.250239
v 35.227291 -242.533737 5.307407
v -9.088440 -242.480804 34.421883
v -10.996121 -243.024567 33.843193
v -31.971964 -242.369659 -15.657857
v -31.600111 -242.571808 -16.353537
v 26.731840 -242.204819 -23.508699
v 28.833174 -242.964523 -20.948250
v 17.818104 -242.112961 30.817390
v 15.948702 -242.563904 31.816591
v -33.735909 -241.707428 11.349678
v -4.562395 -241.749954 -35.300564
v 10.602042 -250.000031 -23.318716
v 19.666660 -250.000031 -20.373396
v 24.946102 -250.000031 -13.734312
v 23.631382 -250.000031 -17.168970
v 5.195324 -250.000031 -25.075497
v 25.453743 -250.000031 -8.449843
v 25.453743 -250.000031 -12.408116
v 1.962653 -250.000031 -26.125872
v 25.453743 -250.000031 -2.634795
v -0.222715 -250.000031 -26.835953
v 25.453743 -250.000031 4.450917
v 25.195498 -250.000031 13.082843
v -1.825269 -250.000031 -27.356663
v 25.453743 -250.000031 12.408183
v 21.754782 -250.000031 18.685772
v -3.071855 -250.000031 -27.761709
v 23.631382 -250.000031 17.169039
v -3.935157 -250.000031 -28.042219
v -4.063628 -250.000031 -28.035608
v 19.666660 -250.000031 20.373465
v 16.424391 -250.000031 21.426958
v -4.830753 -250.000031 -27.996134
v 10.723456 -250.000031 23.279335
v -5.561296 -250.000031 -27.958542
v 5.000403 -250.000031 25.138899
v -6.271133 -250.000031 -27.922014
v -0.857664 -250.000031 27.042332
v -3.935157 -250.000031 28.042288
v -6.974513 -250.000031 27.885889
v -6.974457 -250.000031 -27.885824
v -12.914829 -250.000031 25.249802
v -9.026206 -250.000031 27.780313
v -7.684949 -250.000031 -27.849264
v -17.713234 -250.000031 18.924152
v -13.298977 -250.000031 24.999819
v -8.416847 -250.000031 -27.811602
v -21.690670 -250.000031 13.449718
v -9.026206 -250.000031 -27.780245
v -9.222373 -250.000031 -27.652590
v -10.347116 -250.000031 -26.920666
v -25.116199 -250.000031 8.734912
v -27.885963 -250.000031 4.922685
v -28.040380 -250.000031 4.348554
v -11.849019 -250.000031 -25.943306
v -29.209946 -250.000031 0.000034
v -28.406267 -250.000031 -2.988096
v -13.298977 -250.000031 -24.999750
v -18.272268 -250.000031 -18.154644
v -27.885963 -250.000031 -4.922618
v 15.620488 -242.514008 -31.991856
v 15.948742 -242.563980 -31.816404
vt 0.751147 0.986097
vt 0.759821 0.977422
vt 0.766637 0.967222
vt 0.771331 0.955889
vt 0.773725 0.943857
vt 0.773725 0.931590
vt 0.771331 0.919558
vt 0.766637 0.908224
vt 0.759821 0.898024
vt 0.751147 0.889350
vt 0.740947 0.882535
vt 0.729613 0.877840
vt 0.717582 0.875447
vt 0.705314 0.875447
vt 0.693282 0.877840
vt 0.681949 0.882535
vt 0.671749 0.889350
vt 0.663075 0.898024
vt 0.656259 0.908224
vt 0.651565 0.919558
vt 0.649171 0.931590
vt 0.649171 0.943857
vt 0.651565 0.955889
vt 0.656259 0.967223
vt 0.663075 0.977422
vt 0.671749 0.986097
vt 0.681949 0.992912
vt 0.693283 0.997607
vt 0.705314 1.000000
vt 0.717582 1.000000
vt 0.729613 0.997607
vt 0.740947 0.992912
vt 0.524091 0.919716
vt 0.524091 0.902173
vt 0.520669 0.936921
vt 0.520669 0.884968
vt 0.513955 0.868761
vt 0.504209 0.854175
vt 0.491805 0.841770
vt 0.477219 0.832024
vt 0.461012 0.825311
vt 0.475369 0.852171
vt 0.483603 0.856289
vt 0.490612 0.866952
vt 0.495726 0.890255
vt 0.498775 0.904155
vt 0.472190 0.850582
vt 0.443807 0.821889
vt 0.462330 0.849611
vt 0.500599 0.912465
vt 0.426264 0.821889
vt 0.447844 0.848184
vt 0.501831 0.918083
vt 0.409059 0.825311
vt 0.430193 0.846445
vt 0.502735 0.922203
vt 0.392852 0.832024
vt 0.408627 0.844971
vt 0.410371 0.844493
vt 0.503439 0.925408
vt 0.378266 0.841770
vt 0.393826 0.852167
vt 0.398065 0.847864
vt 0.503926 0.927627
vt 0.503877 0.927946
vt 0.365861 0.854175
vt 0.385689 0.864773
vt 0.389109 0.856955
vt 0.503591 0.929847
vt 0.356115 0.868761
vt 0.379676 0.878520
vt 0.503318 0.931658
vt 0.349402 0.884968
vt 0.373640 0.892320
vt 0.503053 0.933417
vt 0.345980 0.902173
vt 0.367461 0.906446
vt 0.345980 0.919716
vt 0.363859 0.921476
vt 0.364215 0.913867
vt 0.502790 0.935160
vt 0.349402 0.936921
vt 0.368968 0.936921
vt 0.363618 0.926613
vt 0.502525 0.936921
vt 0.502251 0.938735
vt 0.356115 0.953128
vt 0.383548 0.950426
vt 0.369496 0.937939
vt 0.365861 0.967714
vt 0.396209 0.961677
vt 0.501658 0.940702
vt 0.502024 0.940245
vt 0.499558 0.943325
vt 0.378266 0.980118
vt 0.407114 0.971367
vt 0.496755 0.946826
vt 0.392852 0.989865
vt 0.417324 0.979728
vt 0.415931 0.979202
vt 0.494049 0.950207
vt 0.475777 0.960916
vt 0.409059 0.996578
vt 0.435510 0.982439
vt 0.427869 0.983708
vt 0.426264 1.000000
vt 0.440457 0.981618
vt 0.443807 1.000000
vt 0.461012 0.996578
vt 0.477219 0.989864
vt 0.491805 0.980118
vt 0.504209 0.967714
vt 0.513955 0.953128
vt 0.345980 0.514043
vt 0.389784 0.514043
vt 0.389784 0.470239
vt 0.349512 0.470239
vt 0.345980 0.473771
vt 0.652612 0.601653
vt 0.652612 0.645457
vt 0.696416 0.601653
vt 0.346158 0.428414
vt 0.385332 0.469301
vt 0.387754 0.468409
vt 0.387672 0.429329
vt 0.429186 0.430244
vt 0.429268 0.469324
vt 0.470782 0.470239
vt 0.470700 0.431159
vt 0.433589 0.514043
vt 0.477393 0.514043
vt 0.477393 0.470239
vt 0.433589 0.470239
vt 0.521198 0.601653
vt 0.565003 0.645457
vt 0.565003 0.601653
vt 0.608807 0.601653
vt 0.608807 0.645457
vt 0.428925 0.306150
vt 0.429007 0.345230
vt 0.470521 0.346145
vt 0.470439 0.307065
vt 0.607306 0.914949
vt 0.607306 0.958754
vt 0.648914 0.958754
vt 0.648914 0.914949
vt 0.607306 0.871144
vt 0.648914 0.871144
vt 0.553761 0.301710
vt 0.553840 0.341888
vt 0.595370 0.342078
vt 0.595291 0.301901
vt 0.678040 0.401049
vt 0.678190 0.434850
vt 0.719324 0.439164
vt 0.719174 0.405364
vt 0.677889 0.367249
vt 0.719024 0.371564
vt 0.652612 0.470239
vt 0.608807 0.470239
vt 0.608807 0.514043
vt 0.652612 0.514043
vt 0.608807 0.557848
vt 0.652612 0.557848
vt 0.565003 0.470239
vt 0.565003 0.514043
vt 0.565003 0.557848
vt 0.634211 0.330856
vt 0.595620 0.358619
vt 0.636755 0.362934
vt 0.636616 0.331860
vt 0.521198 0.514043
vt 0.521198 0.557848
vt 0.389784 0.645457
vt 0.433589 0.645457
vt 0.433589 0.601653
vt 0.389784 0.601653
vt 0.433589 0.557848
vt 0.389784 0.557848
vt 0.477393 0.645457
vt 0.477393 0.601653
vt 0.477393 0.557848
vt 0.607306 0.999026
vt 0.648914 0.999026
vt 0.521198 0.601653
vt 0.521198 0.557848
vt 0.521198 0.514043
vt 0.554012 0.429291
vt 0.554090 0.469468
vt 0.595620 0.469659
vt 0.595541 0.429482
vt 0.345980 0.601653
vt 0.345980 0.557848
vt 0.696416 0.514043
vt 0.696416 0.557848
vt 0.607306 0.830872
vt 0.648914 0.830872
vt 0.553926 0.385589
vt 0.595455 0.385780
vt 0.677751 0.336174
vt 0.718886 0.340489
vt 0.429096 0.387737
vt 0.470610 0.388652
vt 0.345980 0.343399
vt 0.346069 0.385907
vt 0.387583 0.386822
vt 0.387494 0.344314
vt 0.470782 0.341506
vt 0.470867 0.385208
vt 0.512397 0.385399
vt 0.512311 0.341697
vt 0.470953 0.428910
vt 0.512482 0.429100
vt 0.512561 0.469278
vt 0.349512 0.645457
vt 0.345980 0.641925
vt 0.595770 0.392420
vt 0.636905 0.396735
vt 0.595920 0.426220
vt 0.637055 0.430535
vt 0.637193 0.461609
vt 0.678328 0.465924
vt 0.719463 0.470239
vt 0.524091 0.871144
vt 0.524091 0.914949
vt 0.565699 0.914949
vt 0.565699 0.871144
vt 0.524091 0.958754
vt 0.565699 0.958754
vt 0.387411 0.305235
vt 0.563269 1.000000
vt 0.565699 0.999026
vt 0.512232 0.301519
vt 0.634794 0.462109
vt 0.565699 0.830872
vt 0.510138 0.470239
vt 0.517666 0.645457
vt 0.521198 0.641925
vt 0.521198 0.473771
vt 0.517666 0.470239
vt 0.509805 0.300536
vt 0.563269 0.829898
vt 0.384985 0.304236
vt 0.554091 0.297944
vt 0.595620 0.298135
vt 0.719463 0.335546
vt 0.678328 0.331231
vt 0.470782 0.302788
vt 0.429268 0.301872
vt 0.649171 0.827340
vt 0.607564 0.827340
vt 0.000000 0.000000
vt 0.000000 0.000000
vt 0.000000 0.000000
vt 0.000000 0.000000
vt 0.000000 0.000000
vt 0.000000 0.000000
vt 0.000000 0.000000
vt 0.000000 0.000000
vt 0.000000 0.000000
vt 0.000000 0.000000
vt 0.000000 0.000000
vt 0.000000 0.000000
vt 0.000000 0.000000
vt 0.000000 0.000000
vt 0.000000 0.000000
vt 0.000000 0.000000
vt 0.000000 0.000000
vt 0.000000 0.000000
vt 0.000000 0.000000
vt 0.000000 0.000000
vt 0.000000 0.000000
vt 0.000000 0.000000
vt 0.000000 0.000000
vt 0.000000 0.000000
vt 0.000000 0.000000
vt 0.000000 0.000000
vt 0.000000 0.000000
vt 0.000000 0.000000
vt 0.000000 0.000000
vt 0.000000 0.000000
vt 0.000000 0.000000
vt 0.000000 0.000000
vt 0.000000 0.000000
vt 0.000000 0.000000
vt 0.000000 0.000000
vt 0.000000 0.000000
vt 0.000000 0.000000
vt 0.000000 0.000000
vt 0.000000 0.000000
vt 0.000000 0.000000
vt 0.000000 0.000000
vt 0.000000 0.000000
vt 0.000000 0.000000
vt 0.000000 0.000000
vt 0.000000 0.000000
vt 0.000000 0.000000
vt 0.000000 0.000000
vt 0.000000 0.000000
vt 0.000000 0.000000
vt 0.000000 0.000000
vt 0.000000 0.000000
vt 0.000000 0.000000
vt 0.000000 0.000000
vt 0.000000 0.000000
vt 0.000000 0.000000
vt 0.000000 0.000000
vt 0.000000 0.000000
vt 0.000000 0.000000
vt 0.000000 0.000000
vt 0.000000 0.000000
vt 0.000000 0.000000
vt 0.000000 0.000000
vt 0.000000 0.000000
vt 0.000000 0.000000
vt 0.000000 0.000000
vt 0.000000 0.000000
vt 0.000000 0.000000
vt 0.000000 0.000000
vt 0.000000 0.000000
vt 0.000000 0.000000
vt 0.000000 0.000000
vt 0.000000 0.000000
vt 0.000000 0.000000
vt 0.000000 0.000000
vt 0.000000 0.000000
vt 0.000000 0.000000
vt 0.000000 0.000000
vt 0.000000 0.000000
vt 0.000000 0.000000
vt 0.000000 0.000000
vt 0.000000 0.000000
vt 0.000000 0.000000
vt 0.000000 0.000000
vt 0.000000 0.000000
vt 0.000000 0.000000
vt 0.000000 0.000000
vt 0.000000 0.000000
vt 0.000000 0.000000
vt 0.000000 0.000000
vt 0.000000 0.000000
vt 0.000000 0.000000
vt 0.000000 0.000000
vt 0.000000 0.000000
vt 0.000000 0.000000
vt 0.000000 0.000000
vt 0.000000 0.000000
vt 0.000000 0.000000
vt 0.000000 0.000000
vt 0.000000 0.000000
vt 0.000000 0.000000
vt 0.000000 0.000000
vt 0.000000 0.000000
vt 0.000000 0.000000
vt 0.000000 0.000000
vt 0.000000 0.000000
vt 0.000000 0.000000
vt 0.000000 0.000000
vt 0.000000 0.000000
vt 0.000000 0.000000
vt 0.000000 0.000000
vt 0.000000 0.000000
vt 0.000000 0.000000
vt 0.000000 0.000000
vt 0.000000 0.000000
vt 0.000000 0.000000
vt 0.000000 0.000000
vt 0.000000 0.000000
vt 0.000000 0.000000
vt 0.000000 0.000000
vt 0.000000 0.000000
vt 0.000000 0.000000
vt 0.000000 0.000000
vt 0.000000 0.000000
vt 0.000000 0.000000
vt 0.000000 0.000000
vt 0.000000 0.000000
vt 0.000000 0.000000
vt 0.000000 0.000000
vt 0.000000 0.000000
vt 0.000000 0.000000
vt 0.000000 0.000000
vt 0.000000 0.000000
vt 0.000000 0.000000
vt 0.000000 0.000000
vt 0.000000 0.000000
vt 0.000000 0.000000
vt 0.000000 0.000000
vt 0.000000 0.000000
vt 0.000000 0.000000
vt 0.000000 0.000000
vt 0.000000 0.000000
vt 0.000000 0.000000
vt 0.000000 0.000000
vt 0.000000 0.000000
vt 0.000000 0.000000
vt 0.000000 0.000000
vt 0.000000 0.000000
vt 0.000000 0.000000
vt 0.000000 0.000000
vt 0.000000 0.000000
vt 0.000000 0.000000
vt 0.000000 0.000000
vt 0.000000 0.000000
vt 0.000000 0.000000
vt 0.000000 0.000000
vt 0.000000 0.000000
vt 0.000000 0.000000
vt 0.000000 0.000000
vt 0.000000 0.000000
vt 0.000000 0.000000
vt 0.000000 0.000000
vt 0.000000 0.000000
vt 0.000000 0.000000
vt 0.000000 0.000000
vt 0.000000 0.000000
vt 0.000000 0.000000
vt 0.000000 0.000000
vt 0.000000 0.000000
vt 0.000000 0.000000
vt 0.000000 0.000000
vt 0.000000 0.000000
vt 0.000000 0.000000
vt 0.000000 0.000000
vt 0.000000 0.000000
vt 0.000000 0.000000
vt 0.000000 0.000000
vt 0.000000 0.000000
vt 0.000000 0.000000
vt 0.000000 0.000000
vt 0.000000 0.000000
vt 0.000000 0.000000
vt 0.000000 0.000000
vt 0.000000 0.000000
vt 0.000000 0.000000
vt 0.000000 0.000000
vt 0.000000 0.000000
vt 0.000000 0.000000
vt 0.000000 0.000000
vt 0.000000 0.000000
vt 0.000000 0.000000
vt 0.000000 0.000000
vt 0.000000 0.000000
vt 0.000000 0.000000
vt 0.000000 0.000000
vt 0.000000 0.000000
vt 0.000000 0.000000
vt 0.000000 0.000000
vt 0.000000 0.000000
vt 0.000000 0.000000
vt 0.000000 0.000000
vt 0.000000 0.000000
vt 0.000000 0.000000
vt 0.000000 0.000000
vt 0.000000 0.000000
vt 0.000000 0.000000
vt 0.000000 0.000000
vt 0.000000 0.000000
vt 0.000000 0.000000
vt 0.000000 0.000000
vt 0.221873 0.500155
vt 0.209738 0.500328
vt 0.209738 0.998615
vt 0.221873 0.998441
vt 0.234126 0.500213
vt 0.234126 0.998500
vt 0.246025 0.500501
vt 0.246025 0.998788
vt 0.257113 0.501008
vt 0.257113 0.999294
vt 0.266964 0.501713
vt 0.266964 1.000000
vt 0.335161 0.500361
vt 0.345980 0.499939
vt 0.345980 0.000648
vt 0.335161 0.001069
vt 0.323422 0.500621
vt 0.323422 0.001329
vt 0.311213 0.500708
vt 0.311213 0.001416
vt 0.299005 0.500621
vt 0.299005 0.001329
vt 0.287266 0.500361
vt 0.287266 0.001069
vt 0.276447 0.499939
vt 0.276447 0.000648
vt 0.266964 0.499372
vt 0.266964 0.000080
vt 0.094293 0.500415
vt 0.103218 0.499615
vt 0.103218 0.001258
vt 0.094293 0.002058
vt 0.083898 0.501034
vt 0.083898 0.002677
vt 0.072431 0.501449
vt 0.072431 0.003091
vt 0.060334 0.501642
vt 0.060334 0.003285
vt 0.048072 0.501608
vt 0.048072 0.003251
vt 0.036116 0.501347
vt 0.036116 0.002990
vt 0.024925 0.500870
vt 0.024925 0.002512
vt 0.014929 0.500194
vt 0.014929 0.001836
vt 0.006513 0.499346
vt 0.006513 0.000988
vt 0.000000 0.498358
vt 0.000000 0.000000
vt 0.180943 0.500657
vt 0.187663 0.499315
vt 0.187663 0.002990
vt 0.180943 0.004333
vt 0.172350 0.501802
vt 0.172350 0.005478
vt 0.162214 0.502705
vt 0.162214 0.006381
vt 0.150925 0.503333
vt 0.150925 0.007009
vt 0.138916 0.503661
vt 0.138916 0.007337
vt 0.126649 0.503676
vt 0.126649 0.007352
vt 0.114595 0.503378
vt 0.114595 0.007054
vt 0.103218 0.502778
vt 0.103218 0.006453
vt 0.198187 0.500727
vt 0.187663 0.501335
vt 0.187663 0.999622
vt 0.198187 0.999013
vt 0.198187 0.187529
vt 0.205418 0.188532
vt 0.209738 0.189130
vt 0.187663 0.187955
vt 0.194279 0.187687
vt 0.114595 0.813891
vt 0.107454 0.814539
vt 0.103218 0.814924
vt 0.126649 0.810957
vt 0.119139 0.812727
vt 0.125632 0.811063
vt 0.131343 0.810070
vt 0.138916 0.808640
vt 0.143535 0.808946
vt 0.150925 0.809983
vt 0.139742 0.808414
vt 0.157871 0.810359
vt 0.162214 0.811155
vt 0.155228 0.810216
vt 0.166044 0.811158
vt 0.172350 0.811163
vt 0.175593 0.810387
vt 0.180943 0.809107
vt 0.183501 0.807570
vt 0.183528 0.807553
vt 0.187663 0.805964
vt 0.005327 0.805419
vt 0.006513 0.806140
vt 0.002499 0.805867
vt 0.000000 0.806264
vt 0.013348 0.808707
vt 0.014929 0.809811
vt 0.009733 0.807349
vt 0.018689 0.811344
vt 0.024925 0.813887
vt 0.029073 0.814672
vt 0.036116 0.816004
vt 0.040525 0.816033
vt 0.048072 0.816082
vt 0.052615 0.815354
vt 0.060334 0.814117
vt 0.064880 0.812639
vt 0.072431 0.810185
vt 0.076769 0.811107
vt 0.083898 0.814349
vt 0.074441 0.810048
vt 0.072569 0.810116
vt 0.073530 0.809875
vt 0.087726 0.815621
vt 0.094293 0.817802
vt 0.097519 0.818364
vt 0.103218 0.819357
vt 0.270359 0.820114
vt 0.276447 0.820831
vt 0.266964 0.819714
vt 0.287266 0.819972
vt 0.280323 0.820523
vt 0.299005 0.817169
vt 0.291517 0.818957
vt 0.311213 0.814087
vt 0.303516 0.815464
vt 0.303474 0.815471
vt 0.315751 0.814399
vt 0.320260 0.815205
vt 0.323422 0.816407
vt 0.312065 0.813739
vt 0.327710 0.817430
vt 0.335161 0.819209
vt 0.339061 0.819519
vt 0.345980 0.820068
vt 0.257113 0.182072
vt 0.263425 0.182173
vt 0.266964 0.182229
vt 0.246025 0.183921
vt 0.253103 0.182741
vt 0.234126 0.187704
vt 0.241650 0.185312
vt 0.222522 0.192196
vt 0.221873 0.192063
vt 0.229505 0.189805
vt 0.225678 0.191545
vt 0.217260 0.191339
vt 0.218082 0.191581
vt 0.513967 0.251639
vt 0.513400 0.257386
vt 0.533858 0.251496
vt 0.533607 0.268285
vt 0.512309 0.268438
vt 0.747961 0.772976
vt 0.767085 0.772885
vt 0.767170 0.767221
vt 0.767347 0.755362
vt 0.747961 0.755455
vt 0.704591 0.709700
vt 0.704112 0.704767
vt 0.683304 0.709959
vt 0.703204 0.695422
vt 0.684096 0.695655
vt 0.739121 0.393008
vt 0.719698 0.397909
vt 0.739148 0.398707
vt 0.739069 0.382052
vt 0.739411 0.381161
vt 0.720395 0.380381
vt 0.513582 0.184466
vt 0.513000 0.189572
vt 0.532402 0.184331
vt 0.533116 0.199797
vt 0.511818 0.199950
vt 0.703484 0.794051
vt 0.703142 0.788729
vt 0.684096 0.794287
vt 0.702430 0.777665
vt 0.683304 0.777898
vt 0.741032 0.454798
vt 0.721528 0.458133
vt 0.742498 0.458993
vt 0.720396 0.445789
vt 0.738140 0.446516
vt 0.512991 0.273745
vt 0.514296 0.283895
vt 0.533116 0.283760
vt 0.702403 0.725731
vt 0.703145 0.720293
vt 0.682816 0.725970
vt 0.740512 0.375449
vt 0.742711 0.364046
vt 0.721528 0.363177
vt 0.512482 0.205811
vt 0.513717 0.216724
vt 0.533607 0.216581
vt 0.702309 0.772089
vt 0.701903 0.774949
vt 0.682816 0.760605
vt 0.703977 0.760347
vt 0.738140 0.446516
vt 0.738942 0.441947
vt 0.740668 0.432113
vt 0.719698 0.431253
vt 0.748291 0.790328
vt 0.769450 0.790227
vt 0.768338 0.784346
vt 0.766687 0.775617
vt 0.515409 0.286607
vt 0.514931 0.287983
vt 0.532402 0.297326
vt 0.511631 0.297475
vt 0.703449 0.691569
vt 0.702951 0.694805
vt 0.704708 0.683368
vt 0.685162 0.683606
vt 0.742653 0.358374
vt 0.742544 0.347755
vt 0.723052 0.346956
vt 0.515029 0.220887
vt 0.514948 0.222208
vt 0.533858 0.234038
vt 0.514223 0.234179
vt 0.703595 0.754204
vt 0.682651 0.743070
vt 0.702887 0.742823
vt 0.740366 0.426432
vt 0.719463 0.415087
vt 0.739807 0.415921
vt 0.769344 0.732781
vt 0.748291 0.738438
vt 0.769169 0.738338
vt 0.769670 0.722480
vt 0.748940 0.722579
vt 0.707193 0.821636
vt 0.706791 0.817178
vt 0.686462 0.821889
vt 0.706042 0.808886
vt 0.685162 0.809141
vt 0.704539 0.680398
vt 0.704408 0.678085
vt 0.706905 0.674027
vt 0.686462 0.674276
vt 0.767521 0.817266
vt 0.749882 0.821889
vt 0.769467 0.821795
vt 0.769174 0.806747
vt 0.748940 0.806844
vt 0.766883 0.815783
vt 0.514645 0.239809
vt 0.515219 0.247457
vt 0.701438 0.737451
vt 0.700130 0.732604
vt 0.738458 0.410368
vt 0.737983 0.408414
vt 0.768668 0.717881
vt 0.749882 0.708487
vt 0.767221 0.711230
vt 0.768664 0.708397
vt 0.704461 0.803990
vt 0.703015 0.799511
vt 0.743084 0.465291
vt 0.723052 0.467813
vt 0.743396 0.468647
vt 0.769270 0.801034
vt 0.766715 0.750026
vt 0.766608 0.749123
vt 0.696416 0.642899
vt 0.693858 0.645457
vt 0.385233 0.301138
vt 0.350225 0.290354
vt 0.634629 0.327276
vt 0.602772 0.297326
vt 0.512561 0.297754
vt 0.510043 0.297809
vt 0.637193 0.326917
vt 0.565956 0.827340
vt 0.563455 0.827340
vt 0.387754 0.300957
vt 0.696416 0.472797
vt 0.693858 0.470239
vn 0.0000 1.0000 0.0000
vn 0.0000 -1.0000 0.0000
vn 0.0000 -0.0000 -1.0000
vn 1.0000 0.0000 0.0000
vn 0.0000 0.0000 1.0000
vn -1.0000 -0.0000 0.0000
vn -0.7071 0.0000 0.7071
vn -0.7071 -0.0000 -0.7071
vn 0.7071 -0.0000 -0.7071
vn 0.7071 0.0000 0.7071
vn -0.7240 -0.6617 0.1947
vn -0.2680 -0.9435 0.1947
vn -0.4911 -0.7947 0.3568
vn 0.1024 -0.9435 0.3151
vn 0.1876 -0.7947 0.5773
vn 0.3313 -0.9435 -0.0000
vn 0.6071 -0.7947 0.0000
vn 0.1024 -0.9435 -0.3151
vn 0.1876 -0.7947 -0.5773
vn -0.2680 -0.9435 -0.1947
vn -0.4911 -0.7947 -0.3568
vn -0.7240 -0.6617 -0.1947
vn -0.7002 0.6617 -0.2680
vn -0.4713 0.6617 0.5831
vn -0.1876 0.7947 0.5773
vn 0.0385 0.6617 0.7488
vn 0.4089 0.6617 0.6284
vn 0.4911 0.7947 0.3568
vn 0.7240 0.6617 0.1947
vn 0.7240 0.6617 -0.1947
vn 0.4911 0.7947 -0.3568
vn 0.4089 0.6617 -0.6284
vn -0.7002 0.6617 0.2680
vn -0.6071 0.7947 0.0000
vn 0.0385 0.6617 -0.7488
vn -0.1876 0.7947 -0.5773
vn -0.4713 0.6617 -0.5831
vn 0.1951 -0.0000 -0.9808
vn 0.3827 -0.0000 -0.9239
vn 0.5556 -0.0000 -0.8315
vn 0.8125 -0.0000 -0.5830
vn 0.8486 0.0115 -0.5289
vn 0.9239 -0.0000 -0.3827
vn 0.9808 -0.0000 -0.1951
vn 0.9808 0.0000 0.1951
vn 0.9239 0.0000 0.3827
vn 0.8315 0.0000 0.5556
vn 0.7303 0.0000 0.6831
vn 0.6843 0.0115 0.7291
vn 0.5556 0.0000 0.8315
vn 0.3827 0.0000 0.9239
vn 0.1951 0.0000 0.9808
vn -0.1951 0.0000 0.9808
vn -0.3827 0.0000 0.9239
vn -0.5556 0.0000 0.8315
vn -0.8315 0.0000 0.5556
vn -0.9106 0.0000 0.4133
vn -0.9355 0.0115 0.3532
vn -0.9808 0.0000 0.1951
vn -0.9808 -0.0000 -0.1951
vn -0.9239 -0.0000 -0.3827
vn -0.8315 -0.0000 -0.5556
vn -0.5556 -0.0000 -0.8315
vn -0.4133 -0.0000 -0.9106
vn -0.3532 0.0115 -0.9355
vn -0.1951 -0.0000 -0.9808
vn -0.2008 -0.0000 -0.9796
vn -0.0980 -0.0000 -0.9952
vn -0.0150 -0.0000 -0.9999
vn -0.3791 -0.0000 -0.9254
vn -0.2903 -0.0000 -0.9569
vn -0.5445 -0.0000 -0.8388
vn -0.4714 -0.0000 -0.8819
vn -0.7000 -0.0000 -0.7142
vn -0.6344 -0.0000 -0.7730
vn -0.7730 -0.0000 -0.6344
vn -0.8239 -0.0000 -0.5668
vn -0.8819 -0.0000 -0.4714
vn -0.9271 -0.0000 -0.3748
vn -0.9569 -0.0000 -0.2903
vn -0.9826 -0.0000 -0.1856
vn -0.9952 -0.0000 -0.0980
vn -0.9952 0.0000 0.0980
vn -0.9826 0.0000 0.1856
vn -0.9569 0.0000 0.2903
vn -0.9271 0.0000 0.3748
vn -0.8819 0.0000 0.4714
vn -0.8239 0.0000 0.5668
vn -0.7730 0.0000 0.6344
vn -0.6917 0.0000 0.7222
vn -0.6344 0.0000 0.7730
vn -0.5445 0.0000 0.8388
vn -0.4714 0.0000 0.8819
vn -0.3791 0.0000 0.9254
vn -0.2903 0.0000 0.9569
vn -0.2008 0.0000 0.9796
vn -0.0980 0.0000 0.9952
vn -0.0150 0.0000 0.9999
vn 0.0980 0.0000 0.9952
vn 0.1724 0.0000 0.9850
vn 0.2903 0.0000 0.9569
vn 0.4052 0.0000 0.9142
vn 0.4714 0.0000 0.8819
vn 0.5694 0.0000 0.8220
vn 0.6344 0.0000 0.7730
vn 0.7126 0.0000 0.7016
vn 0.7730 0.0000 0.6344
vn 0.8304 0.0000 0.5572
vn 0.9194 0.0000 0.3933
vn 0.8819 0.0000 0.4714
vn 0.9767 0.0000 0.2147
vn 0.9569 0.0000 0.2903
vn 0.9998 -0.0000 0.0189
vn 0.9952 0.0000 0.0980
vn 0.9952 -0.0000 -0.0980
vn 0.9767 -0.0000 -0.2147
vn 0.9569 -0.0000 -0.2903
vn 0.9194 -0.0000 -0.3933
vn 0.8819 -0.0000 -0.4714
vn 0.8304 -0.0000 -0.5572
vn 0.7126 -0.0000 -0.7016
vn 0.7730 -0.0000 -0.6344
vn 0.5694 -0.0000 -0.8220
vn 0.6344 -0.0000 -0.7730
vn 0.4052 -0.0000 -0.9142
vn 0.4714 -0.0000 -0.8819
vn 0.2903 -0.0000 -0.9569
vn 0.1845 -0.0000 -0.9828
vn 0.0980 -0.0000 -0.9952
vn 0.9783 0.0000 0.2073
vn 0.9247 -0.0000 0.3808
vn 0.2008 -0.0000 -0.9796
vn 0.3791 -0.0000 -0.9254
vn -0.5548 0.0000 0.8320
vn -0.6963 0.0000 0.7178
vn -0.8304 0.0000 -0.5572
vn -0.6963 0.0000 -0.7178
vn 0.8404 -0.0000 -0.5420
vn 0.8315 -0.0000 -0.5556
vn 0.9247 -0.0000 -0.3808
vn 0.3791 0.0000 0.9254
vn 0.2008 0.0000 0.9796
vn -0.9798 -0.0000 0.2000
vn -1.0000 -0.0000 0.0054
vn 0.8404 0.0000 0.5420
vn -0.3951 0.0000 0.9186
vn -0.5548 -0.0000 -0.8320
vn 0.9783 -0.0000 -0.2073
vn -0.0039 0.0000 1.0000
vn -0.9798 -0.0000 -0.2000
vn -0.0039 -0.0000 -1.0000
vn 0.7015 -0.0000 0.7127
vn -0.8304 0.0000 0.5572
vn -0.3951 -0.0000 -0.9186
vn -0.3827 -0.0000 -0.9239
vn -0.1845 0.0000 0.9828
vn -0.9275 -0.0000 -0.3738
vn 0.5612 -0.0000 -0.8277
vn 0.7015 -0.0000 -0.7127
vn 0.5612 0.0000 0.8277
vn -0.9275 0.0000 0.3737
vn -0.9239 0.0000 0.3827
vn -0.1846 0.0000 -0.9828
vn 0.4175 -0.2182 0.8821
vn 0.5677 -0.5961 0.5677
vn 0.7661 -0.0768 0.6381
vn 0.6908 -0.2139 -0.6907
vn 0.5677 -0.5961 -0.5677
vn 0.6907 -0.2138 -0.6908
vn -0.5677 -0.5961 -0.5677
vn -0.6907 -0.2138 -0.6908
vn -0.6908 -0.2138 -0.6908
vn -0.6908 -0.2138 0.6907
vn -0.7016 0.1246 0.7016
vn -0.7016 0.1246 -0.7016
vn 0.7016 0.1246 0.7016
vn 0.7016 0.1246 -0.7016
vn -0.5677 -0.5961 0.5677
usemtl Column1.001
s off
f 6/1/1 4/2/1 3/3/1
f 6/1/1 3/3/1 65/4/1
f 6/1/1 65/4/1 64/5/1
f 6/1/1 64/5/1 62/6/1
f 6/1/1 62/6/1 60/7/1
f 6/1/1 60/7/1 58/8/1
f 6/1/1 58/8/1 56/9/1
f 6/1/1 56/9/1 54/10/1
f 6/1/1 54/10/1 52/11/1
f 6/1/1 52/11/1 50/12/1
f 6/1/1 50/12/1 48/13/1
f 6/1/1 48/13/1 46/14/1
f 6/1/1 46/14/1 44/15/1
f 6/1/1 44/15/1 42/16/1
f 6/1/1 42/16/1 40/17/1
f 6/1/1 40/17/1 38/18/1
f 6/1/1 38/18/1 35/19/1
f 6/1/1 35/19/1 33/20/1
f 6/1/1 33/20/1 31/21/1
f 6/1/1 31/21/1 29/22/1
f 6/1/1 29/22/1 27/23/1
f 6/1/1 27/23/1 25/24/1
f 6/1/1 25/24/1 23/25/1
f 6/1/1 23/25/1 21/26/1
f 6/1/1 21/26/1 19/27/1
f 6/1/1 19/27/1 17/28/1
f 6/1/1 17/28/1 15/29/1
f 6/1/1 15/29/1 12/30/1
f 6/1/1 12/30/1 10/31/1
f 10/31/1 8/32/1 6/1/1
f 87/33/2 69/34/2 98/35/2
f 69/34/2 70/36/2 98/35/2
f 70/36/2 94/37/2 98/35/2
f 94/37/2 95/38/2 98/35/2
f 95/38/2 75/39/2 98/35/2
f 75/39/2 76/40/2 98/35/2
f 98/35/2 76/40/2 84/41/2 355/42/2 356/43/2 354/44/2 353/45/2
f 98/35/2 353/45/2 357/46/2
f 359/47/2 355/42/2 84/41/2 91/48/2 358/49/2
f 98/35/2 357/46/2 360/50/2
f 358/49/2 91/48/2 67/51/2 361/52/2
f 98/35/2 360/50/2 362/53/2
f 361/52/2 67/51/2 68/54/2 363/55/2
f 98/35/2 362/53/2 365/56/2
f 363/55/2 68/54/2 81/57/2 364/58/2 366/59/2
f 98/35/2 365/56/2 368/60/2
f 364/58/2 81/57/2 88/61/2 367/62/2 369/63/2
f 98/35/2 368/60/2 370/64/2 371/65/2
f 88/61/2 96/66/2 373/67/2 372/68/2 367/62/2
f 98/35/2 371/65/2 374/69/2
f 96/66/2 77/70/2 375/71/2 373/67/2
f 98/35/2 374/69/2 376/72/2
f 77/70/2 78/73/2 377/74/2 375/71/2
f 98/35/2 376/72/2 378/75/2
f 78/73/2 85/76/2 379/77/2 377/74/2
f 85/76/2 92/78/2 381/79/2 380/80/2 379/77/2
f 98/35/2 378/75/2 382/81/2
f 92/78/2 82/82/2 383/83/2 384/84/2 381/79/2
f 382/81/2 385/85/2 98/35/2
f 385/85/2 388/86/2 98/35/2
f 71/87/2 386/88/2 387/89/2 383/83/2 82/82/2
f 71/87/2 72/90/2 389/91/2 386/88/2
f 391/92/2 98/35/2 388/86/2 390/93/2
f 391/92/2 392/94/2 98/35/2
f 89/95/2 393/96/2 389/91/2 72/90/2
f 392/94/2 396/97/2 98/35/2
f 97/98/2 395/99/2 394/100/2 393/96/2 89/95/2
f 399/101/2 400/102/2 98/35/2 396/97/2
f 79/103/2 398/104/2 397/105/2 395/99/2 97/98/2
f 80/106/2 98/35/2 400/102/2 401/107/2 398/104/2 79/103/2
f 86/108/2 98/35/2 80/106/2
f 93/109/2 98/35/2 86/108/2
f 73/110/2 98/35/2 93/109/2
f 74/111/2 98/35/2 73/110/2
f 83/112/2 98/35/2 74/111/2
f 90/113/2 98/35/2 83/112/2
f 107/114/1 108/115/1 109/116/1
f 107/114/1 109/116/1 110/117/1
f 110/117/1 111/118/1 107/114/1
f 112/119/2 101/120/2 100/121/2
f 113/122/3 114/123/3 115/124/3
f 115/124/3 116/125/3 113/122/3
f 117/126/3 118/127/3 119/128/3
f 119/128/3 120/129/3 117/126/3
f 121/130/1 122/131/1 123/132/1
f 123/132/1 124/133/1 121/130/1
f 108/115/1 121/130/1 124/133/1
f 124/133/1 109/116/1 108/115/1
f 105/134/2 104/135/2 125/136/2
f 126/137/2 125/136/2 104/135/2
f 104/135/2 127/138/2 126/137/2
f 112/119/2 126/137/2 127/138/2
f 127/138/2 101/120/2 112/119/2
f 128/139/3 129/140/3 130/141/3
f 130/141/3 131/142/3 128/139/3
f 132/143/4 133/144/4 134/145/4
f 134/145/4 135/146/4 132/143/4
f 136/147/4 132/143/4 135/146/4
f 135/146/4 137/148/4 136/147/4
f 138/149/5 139/150/5 107/151/5
f 107/151/5 111/152/5 138/149/5
f 140/153/6 141/154/6 109/155/6
f 109/155/6 124/156/6 140/153/6
f 142/157/6 140/153/6 124/156/6
f 124/156/6 123/158/6 142/157/6
f 143/159/2 144/160/2 145/161/2
f 145/161/2 146/162/2 143/159/2
f 146/162/2 145/161/2 147/163/2
f 147/163/2 148/164/2 146/162/2
f 148/164/2 147/163/2 126/137/2
f 126/137/2 112/119/2 148/164/2
f 144/160/2 149/165/2 150/166/2
f 150/166/2 145/161/2 144/160/2
f 145/161/2 150/166/2 151/167/2
f 151/167/2 147/163/2 145/161/2
f 147/163/2 151/167/2 125/136/2
f 125/136/2 126/137/2 147/163/2
f 152/168/6 149/169/6 153/170/6
f 153/170/6 154/171/6 152/168/6
f 150/166/2 113/172/2 155/173/2
f 155/173/2 151/167/2 150/166/2
f 151/167/2 155/173/2 105/134/2
f 105/134/2 125/136/2 151/167/2
f 137/174/1 135/175/1 156/176/1
f 156/176/1 157/177/1 137/174/1
f 157/177/1 156/176/1 158/178/1
f 158/178/1 159/179/1 157/177/1
f 159/179/1 158/178/1 121/130/1
f 121/130/1 108/115/1 159/179/1
f 135/175/1 134/180/1 160/181/1
f 160/181/1 156/176/1 135/175/1
f 156/176/1 160/181/1 161/182/1
f 161/182/1 158/178/1 156/176/1
f 158/178/1 161/182/1 122/131/1
f 122/131/1 121/130/1 158/178/1
f 133/144/4 162/183/4 163/184/4
f 163/184/4 134/145/4 133/144/4
f 160/181/1 130/185/1 164/186/1
f 164/186/1 161/182/1 160/181/1
f 161/182/1 164/186/1 120/187/1
f 120/187/1 122/131/1 161/182/1
f 165/188/5 166/189/5 167/190/5
f 167/190/5 168/191/5 165/188/5
f 168/192/1 157/177/1 159/179/1
f 159/179/1 169/193/1 168/192/1
f 169/193/1 159/179/1 108/115/1
f 108/115/1 107/114/1 169/193/1
f 143/159/2 146/162/2 170/194/2
f 170/194/2 146/162/2 148/164/2
f 148/164/2 171/195/2 170/194/2
f 171/195/2 148/164/2 112/119/2
f 112/119/2 100/121/2 171/195/2
f 172/196/4 136/147/4 137/148/4
f 137/148/4 173/197/4 172/196/4
f 174/198/5 165/188/5 168/191/5
f 168/191/5 169/199/5 174/198/5
f 139/150/5 174/198/5 169/199/5
f 169/199/5 107/151/5 139/150/5
f 175/200/6 142/157/6 123/158/6
f 123/158/6 176/201/6 175/200/6
f 177/202/3 117/126/3 120/129/3
f 120/129/3 164/203/3 177/202/3
f 129/140/3 177/202/3 164/203/3
f 164/203/3 130/141/3 129/140/3
f 105/204/3 155/205/3 178/206/3
f 178/206/3 179/207/3 105/204/3
f 179/207/3 178/206/3 177/202/3
f 177/202/3 129/140/3 179/207/3
f 155/205/3 113/122/3 116/125/3
f 116/125/3 178/206/3 155/205/3
f 178/206/3 116/125/3 117/126/3
f 117/126/3 177/202/3 178/206/3
f 116/125/3 115/124/3 118/127/3
f 118/127/3 117/126/3 116/125/3
f 170/208/5 171/209/5 180/210/5
f 180/210/5 181/211/5 170/208/5
f 181/211/5 180/210/5 174/198/5
f 174/198/5 139/150/5 181/211/5
f 171/209/5 100/212/5 182/213/5
f 182/213/5 180/210/5 171/209/5
f 180/210/5 182/213/5 165/188/5
f 165/188/5 174/198/5 180/210/5
f 182/213/5 183/214/5 166/189/5
f 166/189/5 165/188/5 182/213/5
f 173/215/1 137/174/1 157/177/1
f 173/215/1 157/177/1 168/192/1
f 168/192/1 167/216/1 173/215/1
f 149/169/6 144/217/6 184/218/6
f 184/218/6 153/170/6 149/169/6
f 153/170/6 184/218/6 140/153/6
f 140/153/6 142/157/6 153/170/6
f 144/217/6 143/219/6 185/220/6
f 185/220/6 184/218/6 144/217/6
f 184/218/6 185/220/6 141/154/6
f 141/154/6 140/153/6 184/218/6
f 185/220/6 186/221/6 187/222/6
f 187/222/6 141/154/6 185/220/6
f 141/154/6 187/222/6 110/223/6
f 110/223/6 109/155/6 141/154/6
f 101/224/4 127/225/4 188/226/4
f 188/226/4 189/227/4 101/224/4
f 189/227/4 188/226/4 132/143/4
f 132/143/4 136/147/4 189/227/4
f 127/225/4 104/228/4 190/229/4
f 190/229/4 188/226/4 127/225/4
f 188/226/4 190/229/4 133/144/4
f 133/144/4 132/143/4 188/226/4
f 191/230/3 179/207/3 129/140/3
f 129/140/3 128/139/3 191/230/3
f 104/228/4 103/231/4 192/232/4
f 192/232/4 190/229/4 104/228/4
f 193/233/5 181/211/5 139/150/5
f 139/150/5 138/149/5 193/233/5
f 143/219/6 194/234/6 186/221/6
f 186/221/6 185/220/6 143/219/6
f 195/235/4 189/227/4 136/147/4
f 136/147/4 172/196/4 195/235/4
f 100/212/5 99/236/5 183/214/5
f 183/214/5 182/213/5 100/212/5
f 190/229/4 192/232/4 162/183/4
f 162/183/4 133/144/4 190/229/4
f 134/180/1 163/237/1 131/238/1
f 134/180/1 131/238/1 130/185/1
f 130/185/1 160/181/1 134/180/1
f 154/171/6 153/170/6 142/157/6
f 142/157/6 175/200/6 154/171/6
f 122/131/1 120/187/1 119/239/1
f 122/131/1 119/239/1 176/240/1
f 176/240/1 123/132/1 122/131/1
f 149/165/2 113/172/2 150/166/2
f 196/241/5 170/208/5 181/211/5
f 181/211/5 193/233/5 196/241/5
f 102/242/4 101/224/4 189/227/4
f 189/227/4 195/235/4 102/242/4
f 106/243/3 105/204/3 179/207/3
f 179/207/3 191/230/3 106/243/3
f 187/244/7 138/149/7 111/152/7
f 111/152/7 110/245/7 187/244/7
f 176/201/8 119/246/8 118/247/8
f 118/247/8 175/200/8 176/201/8
f 131/142/9 163/248/9 162/249/9
f 162/249/9 128/139/9 131/142/9
f 173/197/10 167/250/10 166/251/10
f 166/251/10 172/196/10 173/197/10
f 37/252/11 257/253/11 256/254/11 259/255/11
f 37/252/12 13/256/12 272/257/12 271/258/12
f 262/259/13 263/260/13 260/261/13 261/262/13 258/263/13 257/253/13 37/252/13 271/258/13 270/264/13 269/265/13 268/266/13 267/267/13 266/268/13 265/269/13 264/270/13
f 275/271/14 273/272/14 272/257/14 13/256/14 211/273/14 208/274/14 207/275/14 206/276/14 205/277/14
f 201/278/15 200/279/15 197/280/15 198/281/15 199/282/15 274/283/15 275/271/15 205/277/15 204/284/15 203/285/15 202/286/15
f 13/256/16 222/287/16 224/288/16 219/289/16 220/290/16 213/291/16 212/292/16 209/293/16 210/294/16 211/273/16
f 213/291/17 220/290/17 221/295/17 218/296/17 217/297/17 215/298/17 216/299/17 214/300/17
f 222/287/18 13/256/18 242/301/18 240/302/18 226/303/18 225/304/18 223/305/18
f 240/302/19 236/306/19 237/307/19 234/308/19 235/309/19 232/310/19 233/311/19 230/312/19 231/313/19 228/314/19 229/315/19 227/316/19 226/303/19
f 13/256/20 37/252/20 241/317/20 242/301/20
f 249/318/21 247/319/21 248/320/21 245/321/21 246/322/21 243/323/21 244/324/21 238/325/21 239/326/21 241/317/21 37/252/21 255/327/21 252/328/21 251/329/21 250/330/21
f 253/331/22 255/327/22 37/252/22 259/255/22 254/332/22
f 299/333/23 298/334/23 278/335/23 277/336/23 276/337/23 342/338/23 366/339/23 364/340/23 369/341/23 315/342/23
f 348/343/24 347/344/24 332/345/24 330/346/24 331/347/24 403/348/24 354/349/24 356/350/24
f 402/351/25 281/352/25 279/353/25 280/354/25 314/355/25 370/356/25 368/357/25 365/358/25 362/359/25 360/360/25 357/361/25 353/362/25 354/349/25 403/348/25
f 312/363/26 313/364/26 352/365/26 340/366/26 339/367/26 390/368/26 388/369/26 385/370/26 382/371/26 378/372/26 376/373/26 374/374/26 371/375/26 370/356/26 314/355/26
f 302/376/27 287/377/27 288/378/27 399/379/27 396/380/27 392/381/27 391/382/27 390/368/27 339/367/27 338/383/27 322/384/27 321/385/27 303/386/27
f 400/387/28 399/379/28 288/378/28 285/388/28 286/389/28 346/390/28 401/391/28
f 401/391/29 346/390/29 345/392/29 329/393/29 328/394/29 311/395/29 309/396/29 310/397/29 397/398/29 398/399/29
f 310/397/30 297/400/30 295/401/30 296/402/30 351/403/30 336/404/30 337/405/30 394/406/30 395/407/30 397/398/30
f 394/406/31 337/405/31 335/408/31 320/409/31 318/410/31 319/411/31 387/412/31 386/413/31 389/414/31 393/415/31
f 319/411/32 284/416/32 282/417/32 283/418/32 300/419/32 301/420/32 344/421/32 384/422/32 383/423/32 387/412/32
f 323/424/33 305/425/33 304/426/33 291/427/33 290/428/33 289/429/33 348/343/33 356/350/33 355/430/33 359/431/33
f 363/432/34 366/339/34 342/338/34 341/433/34 325/434/34 324/435/34 323/424/34 359/431/34 358/436/34 361/437/34
f 344/421/35 343/438/35 327/439/35 326/440/35 308/441/35 306/442/35 307/443/35 380/444/35 381/445/35 384/422/35
f 379/446/36 380/444/36 307/443/36 294/447/36 292/448/36 293/449/36 350/450/36 372/451/36 373/452/36 375/453/36 377/454/36
f 350/450/37 349/455/37 334/456/37 333/457/37 317/458/37 316/459/37 315/342/37 369/341/37 367/460/37 372/451/37
s 1
f 1/461/38 2/462/3 3/463/3
f 3/463/3 4/464/38 1/461/38
f 5/465/39 1/461/38 4/464/38
f 4/464/38 6/466/39 5/465/39
f 7/467/40 5/465/39 6/466/39
f 6/466/39 8/468/40 7/467/40
f 9/469/9 7/467/40 8/468/40
f 8/468/40 10/470/9 9/469/9
f 11/471/41 9/469/9 10/470/9
f 10/470/9 12/472/42 11/471/41
f 14/473/43 11/474/41 12/475/42
f 12/475/42 15/476/43 14/473/43
f 16/477/44 14/473/43 15/476/43
f 15/476/43 17/478/44 16/477/44
f 18/479/4 16/477/44 17/478/44
f 17/478/44 19/480/4 18/479/4
f 20/481/45 18/479/4 19/480/4
f 19/480/4 21/482/45 20/481/45
f 22/483/46 20/481/45 21/482/45
f 21/482/45 23/484/46 22/483/46
f 24/485/47 22/483/46 23/484/46
f 23/484/46 25/486/47 24/485/47
f 26/487/48 24/485/47 25/486/47
f 25/486/47 27/488/49 26/487/48
f 28/489/50 26/490/48 27/491/49
f 27/491/49 29/492/50 28/489/50
f 30/493/51 28/489/50 29/492/50
f 29/492/50 31/494/51 30/493/51
f 32/495/52 30/493/51 31/494/51
f 31/494/51 33/496/52 32/495/52
f 34/497/5 32/495/52 33/496/52
f 33/496/52 35/498/5 34/497/5
f 36/499/53 34/497/5 35/498/5
f 35/498/5 38/500/53 36/499/53
f 39/501/54 36/499/53 38/500/53
f 38/500/53 40/502/54 39/501/54
f 41/503/55 39/501/54 40/502/54
f 40/502/54 42/504/55 41/503/55
f 43/505/7 41/503/55 42/504/55
f 42/504/55 44/506/7 43/505/7
f 45/507/56 43/505/7 44/506/7
f 44/506/7 46/508/56 45/507/56
f 47/509/57 45/507/56 46/508/56
f 46/508/56 48/510/58 47/509/57
f 49/511/59 47/512/57 48/513/58
f 48/513/58 50/514/59 49/511/59
f 51/515/6 49/511/59 50/514/59
f 50/514/59 52/516/6 51/515/6
f 53/517/60 51/515/6 52/516/6
f 52/516/6 54/518/60 53/517/60
f 55/519/61 53/517/60 54/518/60
f 54/518/60 56/520/61 55/519/61
f 57/521/62 55/519/61 56/520/61
f 56/520/61 58/522/62 57/521/62
f 59/523/8 57/521/62 58/522/62
f 58/522/62 60/524/8 59/523/8
f 61/525/63 59/523/8 60/524/8
f 60/524/8 62/526/63 61/525/63
f 63/527/64 61/525/63 62/526/63
f 62/526/63 64/528/65 63/527/64
f 66/529/66 63/530/64 64/531/65
f 64/531/65 65/532/66 66/529/66
f 2/462/3 66/529/66 65/532/66
f 65/532/66 3/463/3 2/462/3
f 197/533/67 66/529/66 198/534/68
f 198/534/68 66/529/66 2/462/3 199/535/69
f 201/536/70 63/530/64 200/537/71
f 200/537/71 63/530/64 66/529/66 197/533/67
f 203/538/72 61/525/63 202/539/73
f 202/539/73 61/525/63 63/527/64 201/540/70
f 206/541/74 59/523/8 204/542/75 205/543/75
f 204/542/75 59/523/8 61/525/63 203/538/72
f 57/521/62 207/544/76 208/545/77
f 59/523/8 206/541/74 207/544/76 57/521/62
f 210/546/78 209/547/79 55/519/61
f 211/548/78 210/546/78 55/519/61 57/521/62 208/545/77
f 213/549/80 214/550/81 53/517/60 212/551/80
f 212/551/80 53/517/60 55/519/61 209/547/79
f 216/552/82 215/553/6 51/515/6
f 216/552/82 51/515/6 53/517/60 214/550/81
f 49/511/59 217/554/83 218/555/84
f 51/515/6 215/553/6 217/554/83 49/511/59
f 47/512/57 221/556/85 220/557/85 219/558/86
f 49/511/59 218/555/84 221/556/85 47/512/57
f 222/559/87 223/560/88 45/507/56 224/561/87
f 47/509/57 219/562/86 224/561/87 45/507/56
f 226/563/89 227/564/90 43/505/7 225/565/89
f 225/565/89 43/505/7 45/507/56 223/560/88
f 41/503/55 229/566/91 228/567/92
f 41/503/55 43/505/7 227/564/90 229/566/91
f 39/501/54 231/568/93 230/569/94
f 39/501/54 41/503/55 228/567/92 231/568/93
f 36/499/53 233/570/95 232/571/96
f 36/499/53 39/501/54 230/569/94 233/570/95
f 34/497/5 235/572/97 234/573/98
f 34/497/5 36/499/53 232/571/96 235/572/97
f 32/495/52 237/574/99 236/575/100
f 32/495/52 34/497/5 234/573/98 237/574/99
f 30/493/51 239/576/101 238/577/102
f 241/578/101 239/576/101 30/493/51 32/495/52 236/575/100 240/579/101 242/580/101
f 28/489/50 244/581/103 243/582/104
f 28/489/50 30/493/51 238/577/102 244/581/103
f 26/490/48 246/583/105 245/584/106
f 26/490/48 28/489/50 243/582/104 246/583/105
f 24/485/47 248/585/107 247/586/108
f 245/587/106 248/585/107 24/485/47 26/487/48
f 250/588/109 22/483/46 249/589/110
f 22/483/46 24/485/47 247/586/108 249/589/110
f 252/590/111 20/481/45 251/591/112
f 20/481/45 22/483/46 250/588/109 251/591/112
f 254/592/113 18/479/4 253/593/114
f 255/594/114 253/593/114 18/479/4 20/481/45 252/590/111
f 16/477/44 256/595/115 257/596/115 258/597/116
f 259/598/115 256/595/115 16/477/44 18/479/4 254/592/113
f 14/473/43 261/599/117 260/600/118
f 258/597/116 261/599/117 14/473/43 16/477/44
f 11/474/41 263/601/119 262/602/120
f 260/600/118 263/601/119 11/474/41 14/473/43
f 265/603/121 9/469/9 264/604/122
f 9/469/9 11/471/41 262/605/120 264/604/122
f 267/606/123 7/467/40 266/607/124
f 266/607/124 7/467/40 9/469/9 265/603/121
f 269/608/125 5/465/39 268/609/126
f 268/609/126 5/465/39 7/467/40 267/606/123
f 272/610/127 273/611/128 1/461/38 270/612/127 271/613/127
f 270/612/127 1/461/38 5/465/39 269/608/125
f 199/535/69 2/462/3 274/614/129
f 275/615/129 274/614/129 2/462/3 1/461/38 273/611/128
f 276/616/130 277/617/112 67/618/45
f 68/619/46 67/618/45 277/617/112 278/620/131
f 69/621/38 280/622/132 279/623/127
f 281/624/133 70/625/39 69/621/38 279/623/127
f 283/626/134 282/627/91 71/628/55
f 282/627/91 284/629/135 72/630/7 71/628/55
f 285/631/76 73/632/62 286/633/136
f 288/634/76 287/635/137 74/636/8 73/632/62 285/631/76
f 289/637/138 290/638/119 75/639/139
f 76/640/43 75/639/139 290/638/119 291/641/140
f 293/642/141 292/643/101 77/644/51
f 292/643/101 294/645/142 78/646/52 77/644/51
f 295/647/83 79/648/59 296/649/143
f 80/650/6 79/648/59 295/647/83 297/651/144
f 278/620/131 298/652/110 68/619/46
f 299/653/145 81/654/47 68/619/46 298/652/110
f 301/655/146 300/656/93 82/657/54
f 300/656/93 283/626/134 71/628/55 82/657/54
f 302/658/75 74/636/8 287/635/137
f 303/659/147 83/660/63 74/636/8 302/658/75
f 291/641/140 304/661/117 76/640/43
f 305/662/148 84/663/44 76/640/43 304/661/117
f 306/664/99 78/646/52 294/645/142 307/665/99
f 85/666/5 78/646/52 306/664/99 308/667/149
f 310/668/82 309/669/82 80/650/6 297/651/144
f 309/669/82 311/670/150 86/671/60 80/650/6
f 87/672/3 313/673/151 312/674/129
f 280/622/132 69/621/38 87/672/3 312/674/129 314/675/129
f 315/676/107 316/677/107 81/654/47 299/653/145
f 88/678/10 81/654/47 316/677/107 317/679/152
f 318/680/89 72/630/7 284/629/135 319/681/89
f 318/680/89 320/682/153 89/683/56 72/630/7
f 321/684/73 83/660/63 303/659/147
f 322/685/154 90/686/155 83/660/63 321/684/73
f 323/687/115 324/688/115 84/663/44 305/662/148
f 91/689/4 84/663/44 324/688/115 325/690/4
f 308/667/149 326/691/97 85/666/5
f 92/692/53 85/666/5 326/691/97 327/693/156
f 328/694/80 86/671/60 311/670/150
f 93/695/61 86/671/60 328/694/80 329/696/157
f 330/697/124 94/698/40 331/699/158
f 332/700/159 95/701/9 94/698/40 330/697/124
f 317/702/152 333/703/105 88/704/10
f 333/703/105 334/705/160 96/706/50 88/704/10
f 335/707/87 89/683/56 320/682/153
f 337/708/87 336/709/161 97/710/162 89/683/56 335/707/87
f 338/711/71 90/712/155 322/713/154
f 340/714/163 98/715/66 90/712/155 338/711/71 339/716/71
f 325/690/4 341/717/114 91/689/4
f 67/618/45 91/689/4 341/717/114 342/718/114 276/616/130
f 327/693/156 343/719/95 92/692/53
f 82/657/54 92/692/53 343/719/95 344/720/95 301/655/146
f 345/721/78 93/695/61 329/696/157
f 346/722/78 286/633/136 73/632/62 93/695/61 345/721/78
f 332/700/159 347/723/122 95/701/9
f 75/724/139 95/701/9 347/723/122 348/725/122 289/726/138
f 334/705/160 349/727/103 96/706/50
f 77/644/51 96/706/50 349/727/103 350/728/103 293/642/141
f 351/729/85 97/730/162 336/731/161
f 351/729/85 296/649/143 79/648/59 97/730/162
f 98/715/66 340/714/163 352/732/68
f 313/673/151 87/672/3 98/715/66 352/732/68
f 402/733/126 70/625/39 281/624/133
f 331/699/158 94/698/40 70/625/39 402/733/126 403/734/126
f 99/735/164 100/121/165 101/120/165
f 101/120/165 102/736/166 99/735/164
f 103/737/167 104/738/168 105/204/168
f 105/204/168 106/243/169 103/737/167
f 149/169/170 152/168/171 114/739/172
f 114/739/172 113/740/170 149/169/170
f 196/241/173 193/233/174 186/741/174
f 186/741/174 194/742/173 196/241/173
f 152/168/171 154/171/175 115/743/175
f 115/743/175 114/739/172 152/168/171
f 102/242/166 195/235/176 183/744/176
f 183/744/176 99/745/164 102/242/166
f 106/243/169 191/230/177 192/746/177
f 192/746/177 103/737/167 106/243/169
f 172/196/10 166/251/10 183/744/176
f 183/744/176 195/235/176 172/196/10
f 175/200/8 118/247/8 115/743/175
f 115/743/175 154/171/175 175/200/8
f 186/741/174 193/233/174 138/149/7
f 138/149/7 187/244/7 186/741/174
f 128/139/9 162/249/9 192/746/177
f 192/746/177 191/230/177 128/139/9
f 143/159/178 170/194/178 196/747/173
f 196/747/173 194/748/173 143/159/178
