# Blender 4.1.1
# www.blender.org
mtllib bed.mtl
o Bed_room:ST_Bonnie_Woody_Jordan:bonnTrash_Cloth_PillowBlue
v 0.048326 0.035825 -0.121567
v -0.038546 0.035825 -0.121567
v 0.048326 0.035825 -0.250152
v 0.049013 0.036511 -0.250152
v 0.049013 0.036511 -0.121567
v -0.038546 0.035825 -0.250152
v -0.039232 0.036511 -0.121567
v -0.039232 0.036511 -0.250152
v -0.038546 0.036511 -0.250838
v -0.038546 0.048871 -0.250838
v 0.048326 0.036511 -0.250838
v 0.048326 0.035825 -0.250152
v 0.048326 0.048871 -0.250838
v -0.038546 0.035825 -0.250152
v 0.049013 0.048871 -0.250152
v -0.039232 0.036511 -0.250152
v 0.049013 0.036511 -0.250152
v -0.038546 0.049558 -0.250152
v -0.039232 0.048871 -0.250152
v 0.048326 0.049558 -0.250152
v 0.049013 0.048871 -0.250152
v 0.049013 0.048871 -0.121567
v 0.049013 0.036511 -0.250152
v 0.049013 0.036511 -0.121567
v -0.039232 0.036511 -0.121567
v -0.039232 0.048871 -0.121567
v -0.039232 0.036511 -0.250152
v -0.039232 0.048871 -0.250152
v -0.038546 0.049558 -0.250152
v -0.038546 0.049558 -0.121567
v 0.048326 0.049558 -0.250152
v -0.039232 0.048871 -0.250152
v 0.048326 0.049558 -0.121567
v -0.039232 0.048871 -0.121567
v 0.049013 0.048871 -0.121567
v -0.038546 0.048871 -0.120880
v 0.049013 0.048871 -0.250152
v 0.048326 0.048871 -0.120880
v -0.038546 0.048871 -0.120880
v -0.038546 0.036511 -0.120880
v 0.048326 0.048871 -0.120880
v -0.039232 0.048871 -0.121567
v 0.048326 0.036511 -0.120880
v -0.039232 0.036511 -0.121567
v 0.049013 0.036511 -0.121567
v -0.038546 0.035825 -0.121567
v 0.049013 0.048871 -0.121567
v 0.048326 0.035825 -0.121567
vn 0.3670 -0.8548 0.3670
vn -0.3670 -0.8548 0.3669
vn 0.3670 -0.8548 -0.3669
vn 0.8548 -0.3670 -0.3670
vn 0.8548 -0.3670 0.3670
vn -0.3670 -0.8548 -0.3670
vn -0.8548 -0.3670 0.3670
vn -0.8547 -0.3670 -0.3670
vn -0.3670 -0.3670 -0.8548
vn -0.3670 0.3670 -0.8548
vn 0.3670 -0.3670 -0.8548
vn 0.3670 -0.8547 -0.3670
vn 0.3670 0.3670 -0.8548
vn -0.3670 -0.8547 -0.3670
vn 0.8547 0.3670 -0.3670
vn -0.3670 0.8547 -0.3670
vn -0.8547 0.3670 -0.3670
vn 0.3670 0.8547 -0.3670
vn 0.8548 0.3670 0.3670
vn -0.8548 0.3670 0.3670
vn -0.3670 0.8548 -0.3670
vn -0.3670 0.8548 0.3670
vn 0.3670 0.8548 -0.3670
vn -0.8548 0.3670 -0.3670
vn 0.3670 0.8548 0.3670
vn 0.8547 0.3670 0.3670
vn -0.3670 0.3671 0.8547
vn 0.3670 0.3670 0.8547
vn -0.3670 0.3670 0.8548
vn -0.3670 -0.3670 0.8548
vn 0.3670 0.3670 0.8548
vn 0.3670 -0.3670 0.8548
vn -0.8547 -0.3670 0.3671
vn -0.3670 -0.8547 0.3670
vt 0.376945 0.751321
vt 0.623055 0.751321
vt 0.376945 0.998679
vt 0.375000 0.998679
vt 0.375000 0.751321
vt 0.623055 0.998679
vt 0.625000 0.751321
vt 0.625000 0.998679
vt 0.623055 0.012499
vt 0.623055 0.237501
vt 0.376945 0.012499
vt 0.376945 0.000000
vt 0.376945 0.237501
vt 0.623055 0.000000
vt 0.375000 0.237501
vt 0.625000 0.012499
vt 0.375000 0.012499
vt 0.623055 0.250000
vt 0.625000 0.237501
vt 0.376945 0.250000
vt 0.373679 0.237501
vt 0.126321 0.237501
vt 0.373679 0.012499
vt 0.126321 0.012499
vt 0.873679 0.012499
vt 0.873679 0.237501
vt 0.626321 0.012499
vt 0.626321 0.237501
vt 0.623055 0.251321
vt 0.623055 0.498679
vt 0.376945 0.251321
vt 0.625000 0.251321
vt 0.376945 0.498679
vt 0.625000 0.498679
vt 0.375000 0.498679
vt 0.623055 0.500000
vt 0.375000 0.251321
vt 0.376945 0.500000
vt 0.623055 0.512499
vt 0.623055 0.737501
vt 0.376945 0.512499
vt 0.625000 0.512499
vt 0.376945 0.737501
vt 0.625000 0.737501
vt 0.375000 0.737501
vt 0.623055 0.750000
vt 0.375000 0.512499
vt 0.376945 0.750000
s 1
g Bed_room:ST_Bonnie_Woody_Jordan:bonnTrash_Cloth_PillowBlue_room:ST_Bonnie_Woody_Jordan:bonnTrash_Cloth_PillowBlue
usemtl room:ST_Bonnie_Woody_Jordan:bonnTrash_Cloth_PillowBlue
f 1/1/1 2/2/2 3/3/3
f 3/3/3 4/4/4 1/1/1
f 1/1/1 4/4/4 5/5/5
f 3/3/3 2/2/2 6/6/6
f 7/7/7 6/6/6 2/2/2
f 8/8/8 6/6/6 7/7/7
f 9/9/9 10/10/10 11/11/11
f 11/11/11 12/12/12 9/9/9
f 11/11/11 10/10/10 13/13/13
f 9/9/9 12/12/12 14/14/14
f 15/15/15 11/11/11 13/13/13
f 9/9/9 16/16/8 10/10/10
f 14/14/14 16/16/8 9/9/9
f 17/17/4 12/12/12 11/11/11
f 17/17/4 11/11/11 15/15/15
f 18/18/16 13/13/13 10/10/10
f 10/10/10 16/16/8 19/19/17
f 19/19/17 18/18/16 10/10/10
f 20/20/18 15/15/15 13/13/13
f 20/20/18 13/13/13 18/18/16
f 21/21/15 22/22/19 23/23/4
f 23/23/4 22/22/19 24/24/5
f 25/25/7 26/26/20 27/27/8
f 27/27/8 26/26/20 28/28/17
f 29/29/21 30/30/22 31/31/23
f 29/29/21 32/32/24 30/30/22
f 31/31/23 30/30/22 33/33/25
f 30/30/22 32/32/24 34/34/20
f 35/35/26 31/31/23 33/33/25
f 36/36/27 33/33/25 30/30/22
f 34/34/20 36/36/27 30/30/22
f 37/37/15 31/31/23 35/35/26
f 38/38/28 33/33/25 36/36/27
f 38/38/28 35/35/26 33/33/25
f 39/39/29 40/40/30 41/41/31
f 39/39/29 42/42/20 40/40/30
f 41/41/31 40/40/30 43/43/32
f 40/40/30 42/42/20 44/44/33
f 45/45/5 41/41/31 43/43/32
f 46/46/34 43/43/32 40/40/30
f 44/44/33 46/46/34 40/40/30
f 47/47/26 41/41/31 45/45/5
f 48/48/1 43/43/32 46/46/34
f 48/48/1 45/45/5 43/43/32
