# Blender 4.1.1
# www.blender.org
mtllib Bridge3.mtl
o GUI_Map_RaisedHill_GUI_Map_RaisedHill5:GUI_Map_RaisedHill1
v -0.034241 0.001353 -0.003909
v -0.034623 0.001365 -0.003479
v -0.034027 0.001354 -0.003363
v -0.034278 0.001364 -0.002927
v -0.033767 0.001363 -0.002727
v -0.033687 0.001297 -0.002726
v -0.033980 0.001282 -0.003445
v -0.034824 0.001370 -0.003783
v -0.034709 0.001307 -0.003412
v -0.033858 0.001355 -0.002557
v -0.033974 0.001057 -0.003457
v -0.033700 0.001311 -0.002607
v -0.034185 0.001282 -0.003972
v -0.034329 0.001300 -0.002838
v -0.033672 0.000931 -0.002743
v -0.034346 0.001370 -0.004252
v -0.033787 0.001289 -0.002472
v -0.034177 0.001057 -0.003981
v -0.034947 0.001339 -0.003825
v -0.033442 0.000731 -0.002140
v -0.034326 0.001336 -0.004437
v -0.035129 0.000657 -0.003279
v -0.033364 0.000659 -0.002157
v -0.034865 0.001423 -0.003905
v -0.033650 0.000472 -0.002728
v -0.035260 0.000680 -0.003846
v -0.034384 0.001430 -0.004371
v -0.033961 0.000472 -0.003462
v -0.035443 0.001377 -0.004715
v -0.034933 0.001936 -0.004460
v -0.033330 0.000471 -0.002143
v -0.036030 0.000680 -0.004650
v -0.034569 0.001926 -0.004715
v -0.032945 0.000596 -0.001611
v -0.035409 0.000399 -0.003779
v -0.034963 0.001987 -0.004584
v -0.032884 0.000399 -0.001607
v -0.036375 0.000389 -0.004543
v -0.035022 0.001918 -0.004495
v -0.032932 0.000399 -0.001577
v -0.035202 0.001931 -0.005002
v -0.033085 0.000667 -0.001666
v -0.032846 0.000355 -0.001548
v -0.033375 0.000679 -0.002039
v -0.033309 0.000355 -0.001528
v -0.035700 0.001367 -0.005904
v -0.033347 0.000668 -0.001703
v -0.033311 0.000306 -0.001261
v -0.033311 0.000598 -0.001607
v -0.033448 0.000306 -0.001286
v -0.033616 0.000678 -0.001950
v -0.033445 0.000355 -0.001561
v -0.032675 0.000306 -0.001338
v -0.033430 0.000598 -0.001668
v -0.033830 0.000306 -0.001475
v -0.032672 0.000235 -0.001317
v -0.033732 0.000653 -0.001982
v -0.033832 0.000235 -0.001453
v -0.032631 0.000235 -0.001349
v -0.033801 0.000396 -0.001786
v -0.033443 0.000235 -0.001263
v -0.032637 0.000306 -0.001368
v -0.033491 0.000401 -0.001614
v -0.033832 0.000006 -0.001453
v -0.030073 0.000235 -0.003356
v -0.033358 0.000402 -0.001574
v -0.033443 0.000006 -0.001263
v -0.030073 0.000006 -0.003356
v -0.033311 0.000006 -0.001241
v -0.030084 0.000305 -0.003371
v -0.032979 0.000594 -0.001577
v -0.033311 0.000235 -0.001241
v -0.030281 0.000356 -0.003615
v -0.032672 0.000006 -0.001317
v -0.032813 0.000355 -0.001572
v -0.030338 0.000363 -0.003622
v -0.032637 0.000006 -0.001345
v -0.030314 0.000405 -0.003661
v -0.032840 0.000362 -0.001603
v -0.034720 0.001979 -0.006047
v -0.035356 0.001981 -0.005990
v -0.034628 0.001981 -0.005310
v -0.034775 0.001979 -0.006705
v -0.035112 0.001990 -0.005065
v -0.035409 0.001980 -0.006757
v -0.034561 0.001909 -0.005344
v -0.034603 0.001982 -0.004828
v -0.034777 0.001997 -0.007340
v -0.035454 0.001917 -0.005976
v -0.034649 0.001909 -0.006053
v -0.034704 0.001909 -0.006699
v -0.034551 0.001022 -0.005349
v -0.035299 0.001992 -0.007457
v -0.034637 0.001022 -0.006053
v -0.035503 0.001914 -0.006765
v -0.034624 0.000472 -0.006054
v -0.034691 0.001022 -0.006698
v -0.035698 0.001367 -0.006778
v -0.034538 0.000472 -0.005351
v -0.036137 0.000680 -0.005897
v -0.035667 0.001366 -0.007573
v -0.034678 0.000472 -0.006699
v -0.034359 0.000472 -0.004644
v -0.035369 0.001961 -0.007578
v -0.034681 0.001022 -0.007386
v -0.034372 0.001057 -0.004641
v -0.035692 0.000680 -0.007599
v -0.034637 0.000432 -0.006700
v -0.034165 0.000472 -0.003986
v -0.035596 0.001398 -0.008288
v -0.034584 0.000432 -0.006059
v -0.034126 0.000432 -0.004000
v -0.035758 0.000755 -0.008292
v -0.034633 0.000432 -0.007382
v -0.033924 0.000432 -0.003478
v -0.035763 0.000781 -0.008987
v -0.035869 0.000399 -0.007606
v -0.034674 0.000472 -0.007386
v -0.034319 0.000432 -0.004656
v -0.036012 0.000395 -0.008304
v -0.034654 0.000472 -0.007969
v -0.034498 0.000432 -0.005358
v -0.036043 0.000393 -0.009009
v -0.035876 0.000352 -0.007607
v -0.034640 0.001022 -0.008009
v -0.035675 0.000788 -0.009738
v -0.036027 0.000351 -0.008316
v -0.034548 0.000472 -0.008694
v -0.035593 0.001422 -0.009010
v -0.034612 0.000432 -0.007986
v -0.035486 0.001439 -0.009701
v -0.036049 0.000308 -0.007611
v -0.034561 0.001022 -0.008697
v -0.035566 0.000790 -0.010278
v -0.036184 0.000309 -0.008357
v -0.034645 0.001993 -0.008130
v -0.035892 0.000390 -0.010298
v -0.036057 0.000352 -0.009029
v -0.034703 0.001966 -0.007441
v -0.035955 0.000392 -0.009805
v -0.036223 0.000309 -0.009102
v -0.036202 0.000235 -0.008362
v -0.034629 0.002771 -0.008264
v -0.035963 0.000353 -0.009807
v -0.034550 0.002008 -0.008778
v -0.034771 0.002048 -0.007462
v -0.035904 0.000353 -0.010302
v -0.034697 0.002836 -0.008270
v -0.036091 0.000308 -0.010305
v -0.035784 0.000378 -0.010729
v -0.034535 0.002946 -0.008840
v -0.035284 0.002042 -0.007577
v -0.034414 0.001992 -0.009388
v -0.035216 0.002837 -0.008392
v -0.035432 0.000784 -0.010773
v -0.034415 0.001021 -0.009388
v -0.035281 0.002786 -0.008435
v -0.035433 0.000390 -0.011834
v -0.035141 0.000762 -0.011651
v -0.034244 0.001021 -0.010006
v -0.035347 0.002034 -0.008288
v -0.035258 0.001436 -0.010827
v -0.034231 0.000472 -0.010001
v -0.034950 0.001372 -0.011581
v -0.034402 0.000472 -0.009384
v -0.035062 0.002179 -0.010815
v -0.034040 0.000472 -0.010662
v -0.034712 0.002124 -0.011539
v -0.034192 0.000432 -0.009989
v -0.034436 0.001388 -0.012322
v -0.034508 0.003287 -0.011484
v -0.034363 0.000432 -0.009374
v -0.034980 0.000760 -0.012046
v -0.034058 0.002943 -0.012185
v -0.034508 0.000432 -0.008686
v -0.034599 0.000769 -0.012549
v -0.034304 0.002063 -0.012216
v -0.035230 0.000394 -0.012332
v -0.033780 0.002784 -0.012514
v -0.033966 0.003009 -0.012153
v -0.034862 0.000398 -0.012812
v -0.033835 0.001375 -0.012805
v -0.033699 0.002859 -0.012460
v -0.033593 0.001951 -0.012834
v -0.033598 0.003007 -0.011993
v -0.033523 0.001363 -0.013015
v -0.033874 0.003292 -0.011309
v -0.033987 0.000745 -0.012957
v -0.033413 0.002852 -0.012439
v -0.034423 0.003350 -0.011463
v -0.033649 0.002768 -0.012543
v -0.034105 0.003491 -0.010753
v -0.033370 0.002765 -0.012525
v -0.034774 0.003530 -0.010953
v -0.033474 0.000676 -0.013234
v -0.033483 0.001985 -0.012845
v -0.034138 0.000392 -0.013294
v -0.033182 0.001989 -0.012827
v -0.033480 0.000394 -0.013500
v -0.033393 0.001361 -0.013060
v -0.034895 0.003484 -0.010908
v -0.034121 0.000356 -0.013319
v -0.034835 0.003530 -0.010832
v -0.034861 0.000356 -0.012855
v -0.033034 0.001353 -0.013080
v -0.034149 0.003496 -0.010627
v -0.034992 0.000305 -0.013180
v -0.033341 0.000676 -0.013286
v -0.034324 0.003327 -0.010026
v -0.034267 0.000304 -0.013624
v -0.032827 0.000675 -0.013400
v -0.033459 0.000356 -0.013541
v -0.033333 0.000375 -0.013532
v -0.034063 0.003440 -0.010671
v -0.032736 0.000400 -0.013497
v -0.034255 0.003255 -0.010009
v -0.032986 0.001300 -0.013042
v -0.034051 0.001992 -0.010667
v -0.032796 0.000675 -0.013347
v -0.034243 0.001992 -0.010006
v -0.032824 0.000675 -0.013219
v -0.032627 0.000407 -0.013485
v -0.033805 0.003211 -0.011289
v -0.034426 0.003092 -0.009394
v -0.032816 0.000472 -0.013211
v -0.033793 0.001991 -0.011285
v -0.033187 0.000472 -0.012613
v -0.033532 0.002933 -0.011964
v -0.033220 0.001019 -0.012594
v -0.033521 0.001991 -0.011959
v -0.033510 0.000472 -0.011951
v -0.033522 0.001020 -0.011959
v -0.034600 0.003021 -0.008873
v -0.033152 0.000432 -0.012590
v -0.033300 0.001991 -0.012491
v -0.034492 0.003165 -0.009422
v -0.032784 0.000432 -0.013182
v -0.035222 0.003022 -0.009076
v -0.035211 0.002901 -0.008513
v -0.035153 0.003165 -0.009697
v -0.034681 0.002901 -0.008387
v -0.032570 0.000362 -0.013481
v -0.035294 0.002948 -0.009092
v -0.032573 0.000356 -0.013537
v -0.035012 0.003328 -0.010188
v -0.032687 0.000354 -0.013549
v -0.035365 0.002080 -0.009007
v -0.032474 0.000306 -0.013778
v -0.035397 0.002120 -0.009706
v -0.033330 0.000304 -0.013914
v -0.035232 0.003093 -0.009726
v -0.035260 0.002157 -0.010238
v -0.032469 0.000235 -0.013795
v -0.033331 0.000235 -0.013935
v -0.035093 0.003255 -0.010205
v -0.035408 0.001450 -0.010251
v -0.033466 0.000235 -0.013923
v -0.032477 0.000006 -0.013796
v -0.033331 0.000006 -0.013935
v -0.033466 0.000006 -0.013923
v -0.032359 0.000006 -0.013777
v -0.032359 0.000235 -0.013777
v -0.034276 0.000006 -0.013642
v -0.029867 0.000235 -0.011545
v -0.032370 0.000306 -0.013761
v -0.034276 0.000235 -0.013642
v -0.029867 0.000006 -0.011546
v -0.033469 0.000304 -0.013902
v -0.035000 0.000006 -0.013200
v -0.029878 0.000305 -0.011529
v -0.035000 0.000235 -0.013200
v -0.030093 0.000356 -0.011291
v -0.033320 0.000356 -0.013563
v -0.032570 0.000362 -0.013481
v -0.035438 0.000006 -0.012568
v -0.035438 0.000235 -0.012568
v -0.035662 0.000006 -0.012007
v -0.035424 0.000306 -0.012554
v -0.035662 0.000235 -0.012007
v -0.036017 0.000006 -0.010801
v -0.035237 0.000355 -0.012362
v -0.036017 0.000235 -0.010801
v -0.035645 0.000306 -0.011996
v -0.036109 0.000006 -0.010305
v -0.035438 0.000354 -0.011856
v -0.036109 0.000235 -0.010305
v -0.035999 0.000307 -0.010796
v -0.036160 0.000006 -0.009800
v -0.036160 0.000235 -0.009800
v -0.035796 0.000354 -0.010739
v -0.036240 0.000006 -0.009111
v -0.036240 0.000235 -0.009111
v -0.036202 0.000006 -0.008362
v -0.036142 0.000308 -0.009801
v -0.036067 0.000006 -0.007611
v -0.036067 0.000235 -0.007611
v -0.036467 0.000006 -0.006908
v -0.036467 0.000235 -0.006908
v -0.036684 0.000006 -0.005943
v -0.036449 0.000308 -0.006905
v -0.036684 0.000235 -0.005943
v -0.036271 0.000353 -0.006869
v -0.036727 0.000006 -0.005206
v -0.036666 0.000308 -0.005942
v -0.036484 0.000353 -0.005928
v -0.036727 0.000235 -0.005206
v -0.036598 0.000006 -0.004463
v -0.036509 0.000354 -0.005322
v -0.036264 0.000399 -0.006860
v -0.036598 0.000235 -0.004463
v -0.036709 0.000307 -0.005215
v -0.035656 0.000006 -0.003613
v -0.036498 0.000384 -0.005336
v -0.036379 0.000353 -0.004537
v -0.036580 0.000307 -0.004469
v -0.035656 0.000235 -0.003613
v -0.036476 0.000391 -0.005923
v -0.036106 0.000680 -0.005541
v -0.035639 0.000306 -0.003623
v -0.035408 0.000355 -0.003751
v -0.036082 0.000680 -0.006851
v -0.035297 0.000353 -0.003153
v -0.035436 0.000309 -0.003022
v -0.034612 0.000354 -0.002435
v -0.035450 0.000235 -0.003009
v -0.034606 0.000390 -0.002461
v -0.035450 0.000006 -0.003009
v -0.034737 0.000306 -0.002232
v -0.034044 0.000390 -0.002061
v -0.035290 0.000392 -0.003171
v -0.034747 0.000006 -0.002216
v -0.034479 0.000585 -0.002577
v -0.034747 0.000235 -0.002216
v -0.033919 0.000679 -0.002253
v -0.034102 0.000006 -0.001732
v -0.034051 0.000354 -0.002022
v -0.034102 0.000235 -0.001732
v -0.034099 0.000306 -0.001753
v -0.033849 0.001259 -0.002422
v -0.033803 0.000354 -0.001741
v -0.033646 0.000736 -0.002043
v -0.029185 0.000305 -0.010834
v -0.029405 0.000355 -0.010654
v -0.029120 0.000306 -0.010315
v -0.029100 0.000235 -0.010321
v -0.029345 0.000354 -0.010249
v -0.029171 0.000235 -0.010856
v -0.029246 0.000307 -0.009732
v -0.029472 0.000355 -0.010771
v -0.029171 0.000006 -0.010856
v -0.029460 0.000354 -0.009756
v -0.029248 0.000305 -0.010960
v -0.029100 0.000006 -0.010321
v -0.029367 0.000307 -0.009289
v -0.029517 0.000398 -0.010734
v -0.029232 0.000006 -0.010972
v -0.029557 0.000353 -0.009341
v -0.029454 0.000398 -0.010615
v -0.029232 0.000235 -0.010972
v -0.029402 0.000398 -0.010247
v -0.029724 0.001040 -0.010427
v -0.029803 0.000235 -0.011487
v -0.029513 0.000400 -0.009758
v -0.029799 0.000006 -0.011484
v -0.029626 0.000353 -0.008920
v -0.029755 0.001075 -0.009710
v -0.029867 0.000006 -0.011546
v -0.029438 0.000307 -0.008892
v -0.029608 0.000400 -0.009348
v -0.029867 0.000235 -0.011545
v -0.029468 0.000307 -0.008564
v -0.029821 0.000305 -0.011477
v -0.029349 0.000235 -0.009284
v -0.029840 0.001075 -0.009290
v -0.029419 0.000235 -0.008890
v -0.029678 0.000400 -0.008927
v -0.029349 0.000006 -0.009284
v -0.029907 0.001075 -0.008949
v -0.029878 0.000305 -0.011529
v -0.029227 0.000006 -0.009730
v -0.029717 0.000400 -0.008565
v -0.030024 0.000356 -0.011233
v -0.029227 0.000235 -0.009730
v -0.029960 0.001075 -0.008587
v -0.030093 0.000356 -0.011291
v -0.029756 0.000399 -0.008250
v -0.030064 0.000398 -0.011194
v -0.030066 0.001076 -0.008276
v -0.030127 0.000398 -0.011245
v -0.029963 0.001076 -0.007890
v -0.030223 0.001068 -0.010929
v -0.030492 0.001846 -0.008661
v -0.029791 0.001069 -0.010521
v -0.030549 0.001894 -0.008295
v -0.030382 0.001836 -0.010578
v -0.030499 0.001916 -0.008049
v -0.030093 0.001838 -0.010302
v -0.030361 0.001916 -0.007290
v -0.030627 0.002380 -0.008062
v -0.030449 0.001801 -0.010600
v -0.030061 0.001834 -0.010183
v -0.030298 0.001080 -0.010943
v -0.030427 0.001899 -0.010484
v -0.030782 0.002636 -0.007334
v -0.030473 0.001075 -0.010614
v -0.030145 0.001901 -0.010214
v -0.030650 0.001987 -0.008326
v -0.030668 0.001076 -0.010206
v -0.030600 0.001901 -0.010150
v -0.030634 0.001920 -0.008430
v -0.030493 0.000471 -0.010612
v -0.030248 0.001902 -0.009852
v -0.030680 0.000471 -0.010213
v -0.030779 0.001901 -0.009724
v -0.030157 0.001840 -0.009796
v -0.030596 0.001903 -0.008702
v -0.030309 0.000471 -0.010982
v -0.031098 0.001914 -0.008618
v -0.031021 0.001902 -0.008939
v -0.030478 0.001903 -0.009086
v -0.031119 0.001980 -0.008518
v -0.030900 0.001901 -0.009357
v -0.030374 0.001902 -0.009429
v -0.031144 0.002402 -0.008307
v -0.030380 0.001843 -0.009039
v -0.031221 0.002396 -0.008283
v -0.030706 0.002402 -0.008123
v -0.030280 0.001842 -0.009378
v -0.031157 0.002483 -0.008206
v -0.030730 0.002484 -0.008025
v -0.031181 0.001843 -0.008568
v -0.031281 0.001916 -0.008141
v -0.031276 0.002675 -0.007458
v -0.031329 0.001917 -0.007707
v -0.031353 0.002626 -0.007499
v -0.031330 0.001077 -0.007707
v -0.030871 0.002676 -0.007366
v -0.031282 0.001077 -0.008141
v -0.031286 0.002680 -0.007319
v -0.031194 0.001077 -0.008585
v -0.030885 0.002682 -0.007230
v -0.031085 0.001832 -0.008975
v -0.031284 0.002584 -0.006778
v -0.030853 0.002551 -0.006558
v -0.030962 0.001831 -0.009397
v -0.031221 0.002481 -0.006277
v -0.030839 0.001831 -0.009767
v -0.030788 0.002638 -0.007186
v -0.030937 0.002480 -0.006210
v -0.031098 0.001076 -0.008982
v -0.030769 0.002476 -0.006520
v -0.030974 0.001076 -0.009404
v -0.030427 0.001916 -0.006944
v -0.031208 0.000471 -0.008588
v -0.030851 0.001076 -0.009775
v -0.030645 0.001916 -0.006498
v -0.031111 0.000471 -0.008986
v -0.030987 0.000471 -0.009409
v -0.030215 0.001150 -0.006454
v -0.030047 0.001152 -0.006911
v -0.031306 0.000471 -0.008071
v -0.030863 0.000471 -0.009781
v -0.031344 0.000471 -0.007708
v -0.030656 0.001831 -0.010197
v -0.031372 0.001077 -0.007282
v -0.031387 0.000471 -0.007282
v -0.031386 0.000471 -0.006822
v -0.031372 0.001917 -0.007282
v -0.031372 0.001077 -0.006822
v -0.031357 0.002622 -0.007323
v -0.031349 0.001077 -0.006420
v -0.031372 0.001917 -0.006823
v -0.031363 0.000471 -0.006418
v -0.031358 0.002519 -0.006816
v -0.031274 0.000471 -0.005942
v -0.031348 0.001917 -0.006420
v -0.031260 0.001077 -0.005945
v -0.031253 0.001881 -0.005979
v -0.031182 0.001077 -0.005541
v -0.031292 0.002397 -0.006247
v -0.031195 0.000471 -0.005538
v -0.031169 0.001833 -0.005549
v -0.031067 0.000471 -0.005131
v -0.031181 0.001980 -0.005959
v -0.031211 0.002403 -0.006174
v -0.031054 0.001077 -0.005136
v -0.031155 0.001914 -0.005850
v -0.030913 0.001077 -0.004800
v -0.031038 0.001833 -0.005134
v -0.030942 0.002403 -0.006109
v -0.031106 0.001905 -0.005591
v -0.030902 0.001795 -0.004823
v -0.030840 0.001982 -0.005875
v -0.030942 0.000471 -0.004784
v -0.030874 0.001901 -0.004941
v -0.030848 0.002410 -0.006167
v -0.030754 0.001045 -0.004453
v -0.030959 0.001903 -0.005124
v -0.030770 0.000471 -0.004409
v -0.030677 0.001903 -0.005087
v -0.030547 0.000993 -0.004080
v -0.030812 0.001917 -0.005784
v -0.030637 0.001840 -0.005011
v -0.030732 0.001889 -0.005858
v -0.030647 0.001077 -0.004406
v -0.030834 0.001838 -0.004842
v -0.030695 0.001142 -0.004498
v -0.030364 0.001139 -0.004770
v -0.030353 0.001087 -0.005782
v -0.030329 0.001074 -0.004666
v -0.030586 0.001834 -0.005103
v -0.030349 0.001077 -0.005374
v -0.030096 0.000400 -0.005680
v -0.030157 0.001057 -0.006007
v -0.030147 0.000981 -0.005905
v -0.030115 0.001085 -0.006427
v -0.029990 0.000402 -0.005855
v -0.029701 0.000961 -0.006305
v -0.030047 0.000352 -0.005651
v -0.029792 0.001040 -0.006327
v -0.029947 0.001086 -0.006892
v -0.029551 0.000401 -0.006303
v -0.030079 0.000399 -0.005342
v -0.029469 0.000960 -0.006736
v -0.030024 0.000351 -0.005314
v -0.029550 0.001036 -0.006755
v -0.030157 0.001057 -0.006007
v -0.029895 0.000308 -0.005557
v -0.029523 0.001036 -0.007062
v -0.029701 0.000961 -0.006305
v -0.029792 0.001040 -0.006327
v -0.029840 0.001074 -0.007184
v -0.029791 0.000308 -0.005752
v -0.029872 0.000309 -0.005214
v -0.029339 0.000402 -0.006758
v -0.029983 0.000351 -0.004736
v -0.029441 0.000962 -0.007051
v -0.029915 0.001133 -0.007278
v -0.029830 0.000309 -0.004615
v -0.029302 0.000402 -0.007174
v -0.029958 0.000351 -0.004367
v -0.029478 0.001002 -0.007117
v -0.029803 0.000309 -0.004244
v -0.029550 0.001036 -0.006755
v -0.029324 0.000400 -0.007309
v -0.029937 0.000352 -0.004066
v -0.029811 0.000235 -0.004600
v -0.029523 0.001036 -0.007062
v -0.029386 0.000395 -0.007443
v -0.029854 0.000235 -0.005201
v -0.029766 0.000307 -0.003900
v -0.029478 0.001002 -0.007117
v -0.029854 0.000006 -0.005201
v -0.029784 0.000235 -0.004226
v -0.029985 0.000355 -0.003943
v -0.029798 0.000306 -0.003750
v -0.029879 0.000235 -0.005556
v -0.029811 0.000006 -0.004600
v -0.029748 0.000235 -0.003858
v -0.029784 0.000006 -0.004226
v -0.029748 0.000006 -0.003858
v -0.029879 0.000006 -0.005558
v -0.029783 0.000235 -0.003732
v -0.029777 0.000235 -0.005741
v -0.029783 0.000006 -0.003733
v -0.030019 0.000305 -0.003458
v -0.029763 0.000006 -0.005757
v -0.029322 0.000308 -0.006257
v -0.030187 0.000355 -0.003667
v -0.030005 0.000235 -0.003444
v -0.029499 0.000352 -0.006295
v -0.029296 0.000353 -0.006751
v -0.029947 0.000352 -0.005836
v -0.030012 0.000006 -0.003435
v -0.030215 0.000400 -0.003712
v -0.030023 0.000401 -0.003976
v -0.029104 0.000307 -0.006719
v -0.030165 0.000995 -0.004035
v -0.029302 0.000235 -0.006252
v -0.030340 0.000997 -0.003857
v -0.030314 0.000405 -0.003661
v -0.030386 0.001063 -0.003942
v -0.029086 0.000235 -0.006717
v -0.030426 0.000993 -0.003872
v -0.029086 0.000006 -0.006717
v -0.029040 0.000235 -0.007162
v -0.030562 0.000471 -0.004034
v -0.030210 0.001063 -0.004114
v -0.029058 0.000307 -0.007165
v -0.030281 0.000356 -0.003615
v -0.030494 0.001063 -0.004135
v -0.029040 0.000006 -0.007158
v -0.030266 0.001063 -0.004378
v -0.029256 0.000353 -0.007180
v -0.029056 0.000006 -0.007293
v -0.029076 0.000307 -0.007304
v -0.029056 0.000235 -0.007298
v -0.029273 0.000353 -0.007317
v -0.030184 0.000996 -0.004435
v -0.030130 0.000995 -0.004153
v -0.030258 0.001012 -0.004790
v -0.029326 0.000353 -0.007459
v -0.030037 0.000400 -0.004770
v -0.029143 0.000308 -0.007490
v -0.030010 0.000401 -0.004402
v -0.029192 0.000308 -0.007623
v -0.029377 0.000353 -0.007590
v -0.029237 0.000308 -0.007740
v -0.029125 0.000235 -0.007493
v -0.030293 0.001077 -0.004862
v -0.029432 0.000352 -0.007741
v -0.029494 0.000307 -0.008277
v -0.029125 0.000006 -0.007493
v -0.029475 0.000235 -0.008279
v -0.029173 0.000235 -0.007625
v -0.029217 0.000235 -0.007740
v -0.029475 0.000006 -0.008279
v -0.029449 0.000006 -0.008564
v -0.029217 0.000006 -0.007740
v -0.029173 0.000006 -0.007625
v -0.029449 0.000235 -0.008564
v -0.029419 0.000006 -0.008890
v -0.029664 0.000353 -0.008564
v -0.029700 0.000353 -0.008253
v -0.029499 0.000398 -0.007749
v -0.029437 0.000394 -0.007573
v -0.029889 0.001073 -0.007346
v -0.029762 0.001012 -0.007269
v -0.030147 0.000981 -0.005905
v -0.033613 0.000432 -0.002747
v -0.034512 0.001914 -0.004831
v -0.033782 0.000472 -0.011279
v -0.033794 0.001020 -0.011285
v -0.034052 0.001021 -0.010667
v -0.033475 0.000432 -0.011930
v -0.033746 0.000432 -0.011260
v -0.034002 0.000432 -0.010646
v -0.033314 0.002724 -0.012490
v -0.033155 0.001990 -0.012752
v -0.029984 0.000401 -0.004106
v -0.029302 0.000006 -0.006252
v -0.030084 0.000305 -0.003371
v -0.030073 0.000235 -0.003356
v -0.030073 0.000006 -0.003356
v -0.030596 0.000431 -0.004010
v -0.030562 0.000471 -0.004034
v -0.030807 0.000431 -0.004387
v -0.030314 0.000405 -0.003661
v -0.030338 0.000363 -0.003622
v -0.030770 0.000471 -0.004409
v -0.030979 0.000431 -0.004767
v -0.030942 0.000471 -0.004784
v -0.031105 0.000431 -0.005117
v -0.031067 0.000471 -0.005131
v -0.031234 0.000431 -0.005526
v -0.031195 0.000471 -0.005538
v -0.031314 0.000431 -0.005935
v -0.031274 0.000471 -0.005942
v -0.031363 0.000471 -0.006418
v -0.031404 0.000431 -0.006413
v -0.031427 0.000431 -0.006820
v -0.031386 0.000471 -0.006822
v -0.031427 0.000431 -0.007283
v -0.031387 0.000471 -0.007282
v -0.031385 0.000431 -0.007711
v -0.031344 0.000471 -0.007708
v -0.031347 0.000431 -0.008074
v -0.031306 0.000471 -0.008071
v -0.031248 0.000431 -0.008598
v -0.031208 0.000471 -0.008588
v -0.031111 0.000471 -0.008986
v -0.031150 0.000431 -0.008999
v -0.030987 0.000471 -0.009409
v -0.031025 0.000431 -0.009425
v -0.030863 0.000471 -0.009781
v -0.030900 0.000431 -0.009800
v -0.030680 0.000471 -0.010213
v -0.030715 0.000431 -0.010235
v -0.030493 0.000471 -0.010612
v -0.030527 0.000431 -0.010636
v -0.030309 0.000471 -0.010982
v -0.030342 0.000431 -0.011010
v -0.030127 0.000398 -0.011245
v -0.030150 0.000363 -0.011288
v -0.030127 0.000398 -0.011245
v -0.030150 0.000363 -0.011288
v -0.033613 0.000432 -0.002747
v -0.033650 0.000472 -0.002728
v -0.033293 0.000432 -0.002169
v -0.033330 0.000471 -0.002143
v -0.032884 0.000399 -0.001607
v -0.032840 0.000362 -0.001603
vn 0.0322 0.9993 0.0180
vn 0.0321 0.9993 0.0181
vn 0.0017 1.0000 -0.0017
vn 0.0018 1.0000 -0.0017
vn 0.8947 0.0578 -0.4428
vn 0.9236 0.0529 -0.3796
vn -0.8107 0.4822 0.3320
vn 0.9212 0.0267 -0.3881
vn 0.4508 0.6460 0.6160
vn 0.9579 0.0481 -0.2830
vn -0.5557 0.3458 0.7560
vn 0.8855 0.0563 -0.4611
vn 0.0322 0.9993 0.0181
vn 0.9590 0.0228 -0.2826
vn -0.7946 0.4556 0.4013
vn 0.9759 0.0757 -0.2048
vn 0.8856 0.0563 -0.4611
vn 0.4984 0.6429 0.5816
vn 0.4985 0.6429 0.5816
vn 0.9212 0.0268 -0.3881
vn -0.7878 0.6035 0.1230
vn 0.8855 0.0563 -0.4612
vn -0.7878 0.6035 0.1229
vn 0.7802 0.1646 -0.6035
vn -0.8868 0.4198 0.1931
vn 0.0170 0.9999 -0.0001
vn 0.7802 0.1647 -0.6034
vn -0.6647 0.7429 0.0792
vn -0.7946 0.4556 0.4012
vn -0.0362 0.0787 0.9962
vn 0.0024 0.9994 0.0334
vn 0.0168 0.9804 0.1962
vn -0.0385 0.9833 0.1777
vn -0.7879 0.6034 0.1229
vn 0.0024 0.9994 0.0335
vn -0.0384 0.9833 0.1777
vn -0.3676 0.2093 0.9061
vn -0.0848 0.9818 0.1701
vn 0.1189 -0.0000 0.9929
vn -0.6521 0.5402 0.5319
vn -0.7179 -0.0000 0.6961
vn 0.6171 0.0001 0.7869
vn -0.4380 -0.0000 0.8990
vn 0.1045 0.9858 0.1313
vn 0.6171 -0.0000 0.7869
vn 0.1044 0.9858 0.1314
vn 0.1190 0.0001 0.9929
vn 0.1044 0.9858 0.1313
vn 0.0685 0.9934 0.0923
vn -0.8399 0.0514 0.5403
vn 0.0686 0.9934 0.0923
vn 0.0020 1.0000 -0.0007
vn 0.0171 0.9999 -0.0002
vn -0.0064 0.9997 0.0217
vn -0.0065 0.9997 0.0217
vn 0.9759 0.0757 -0.2047
vn 0.0171 0.9999 -0.0001
vn -0.0064 0.9997 0.0218
vn -0.9271 0.3740 0.0251
vn 0.9964 0.0140 -0.0831
vn 0.9998 0.0196 0.0077
vn -0.0065 0.9997 0.0218
vn 0.9964 0.0139 -0.0831
vn -0.9271 0.3740 0.0250
vn 0.9963 0.0238 -0.0826
vn 0.9998 0.0186 0.0101
vn -0.9271 0.3739 0.0250
vn 0.9689 0.0233 -0.2465
vn -0.8414 0.5356 0.0716
vn -0.9909 0.1341 -0.0142
vn -0.9923 -0.0203 -0.1218
vn -0.8526 0.5080 0.1226
vn 0.0001 1.0000 -0.0001
vn 0.9590 0.0229 -0.2826
vn 0.0001 1.0000 -0.0000
vn -0.7512 0.6523 -0.1016
vn 0.9987 -0.0041 0.0506
vn -0.7512 0.6522 -0.1015
vn -0.2590 0.9645 0.0511
vn 0.9968 0.0213 0.0764
vn -0.7512 0.6522 -0.1016
vn -0.2590 0.9645 0.0512
vn 0.9782 0.0239 0.2061
vn -0.9642 0.2164 -0.1533
vn -0.9643 0.2160 -0.1530
vn -0.2591 0.9645 0.0511
vn 0.9774 0.0032 0.2113
vn -0.6643 0.7272 -0.1727
vn 0.9883 -0.0002 0.1523
vn -0.2427 0.9697 -0.0287
vn 0.9998 0.0198 0.0074
vn -0.7512 0.6523 -0.1015
vn -0.9987 -0.0000 0.0502
vn 0.9785 0.0052 0.2061
vn -0.1604 0.7139 0.6817
vn -0.2210 0.9741 -0.0478
vn -0.2209 0.9741 -0.0477
vn 0.9785 0.0053 0.2061
vn -0.1605 0.7139 0.6816
vn 0.9785 0.0052 0.2062
vn -0.1605 0.7138 0.6817
vn 0.9774 0.0032 0.2114
vn -0.6669 0.7073 -0.2346
vn -0.9353 0.2082 -0.2861
vn 0.9604 -0.0007 0.2786
vn -0.9923 -0.0202 -0.1218
vn -0.9640 0.1355 -0.2288
vn 0.9602 0.0239 0.2784
vn -0.9330 0.2361 -0.2718
vn 0.9601 0.0239 0.2785
vn -0.8622 0.1279 -0.4902
vn -0.5738 0.2069 -0.7924
vn -0.8622 0.1278 -0.4902
vn -0.9354 0.2081 -0.2860
vn -0.6160 0.2087 -0.7596
vn -0.5120 0.3242 -0.7955
vn -0.5738 0.2068 -0.7924
vn -0.6669 0.7072 -0.2346
vn 0.1009 0.9421 -0.3197
vn -0.3520 0.7305 -0.5852
vn 0.1010 0.9421 -0.3197
vn 0.1010 0.9421 -0.3196
vn -0.5521 0.1846 -0.8131
vn 0.1507 0.9546 -0.2570
vn -0.5119 0.3242 -0.7955
vn 0.1507 0.9546 -0.2571
vn 0.0565 0.3720 -0.9265
vn 0.0565 0.3719 -0.9265
vn 0.1506 0.9546 -0.2571
vn -0.5022 0.2520 -0.8272
vn -0.3519 0.7305 -0.5853
vn -0.2956 0.6863 -0.6645
vn -0.0009 0.3471 -0.9378
vn -0.9511 0.1399 -0.2755
vn -0.0789 0.9887 -0.1275
vn -0.0488 0.9610 0.2723
vn -0.0008 0.3472 -0.9378
vn -0.0487 0.9610 0.2724
vn -0.0921 0.4711 -0.8773
vn -0.0920 0.4711 -0.8773
vn -0.0488 0.9885 -0.1431
vn -0.0920 0.4712 -0.8772
vn 0.9599 0.0092 0.2802
vn -0.0920 0.4711 -0.8772
vn 0.9599 0.0093 0.2803
vn 0.8784 0.0190 0.4776
vn 0.9599 0.0092 0.2803
vn 0.9588 0.1863 0.2144
vn 0.8618 0.0799 0.5009
vn 0.8745 0.2084 0.4380
vn 0.9236 0.0094 0.3833
vn 0.9785 0.0053 0.2062
vn 0.8519 0.0405 0.5222
vn 0.9228 -0.0006 0.3853
vn 0.9245 0.0154 0.3808
vn 0.9003 0.0320 0.4341
vn 0.9126 0.0157 0.4085
vn -0.0625 0.9738 0.2189
vn 0.0001 1.0000 0.0001
vn 0.8740 0.0164 0.4857
vn -0.0835 0.9706 0.2257
vn 0.1287 0.9813 -0.1433
vn -0.0625 0.9737 0.2189
vn -0.0835 0.9706 0.2256
vn -0.0624 0.9738 0.2189
vn -0.9915 0.1230 0.0423
vn 0.1070 0.9872 -0.1186
vn -0.0488 0.9610 0.2724
vn 0.0170 0.9862 -0.1648
vn -0.9698 0.2434 -0.0138
vn 0.0170 0.9862 -0.1647
vn 0.1598 -0.0000 -0.9872
vn 0.1598 0.0001 -0.9872
vn -0.3274 -0.0000 -0.9449
vn 0.1598 -0.0000 -0.9871
vn -0.3275 -0.0000 -0.9449
vn 0.6703 -0.0000 -0.7421
vn 0.1069 0.9872 -0.1185
vn -0.3275 0.0001 -0.9449
vn -0.0488 0.9885 -0.1430
vn -0.8223 -0.0000 -0.5691
vn 0.1070 0.9872 -0.1185
vn -0.8223 -0.0000 -0.5690
vn -0.9286 -0.0000 -0.3710
vn -0.1811 0.9808 -0.0720
vn -0.9831 -0.0000 -0.1830
vn -0.1811 0.9808 -0.0721
vn -0.9831 -0.0000 -0.1831
vn -0.9950 -0.0000 -0.0996
vn -0.2210 0.9741 -0.0477
vn -0.9841 -0.0000 0.1779
vn -0.9840 -0.0000 0.1779
vn -0.8691 -0.0000 -0.4946
vn -0.9984 -0.0000 -0.0571
vn -0.2294 0.9651 -0.1262
vn -0.2294 0.9651 -0.1263
vn -0.9853 -0.0000 0.1708
vn -0.2338 0.9722 -0.0120
vn -0.2338 0.9722 -0.0119
vn -0.2096 0.9771 0.0355
vn -0.8144 0.3918 -0.4280
vn -0.2096 0.9772 0.0354
vn -0.6698 -0.0000 0.7425
vn -0.6647 0.7429 0.0791
vn -0.2096 0.9771 0.0354
vn -0.6699 -0.0000 0.7425
vn -0.6859 0.7277 0.0065
vn -0.2087 0.9765 0.0538
vn -0.2086 0.9765 0.0538
vn -0.9226 0.2926 -0.2515
vn -0.1164 0.9808 0.1564
vn -0.9463 -0.0000 0.3234
vn -0.4826 0.5724 0.6629
vn -0.1164 0.9808 0.1563
vn -0.6521 0.5403 0.5319
vn -0.8869 0.4198 0.1931
vn -0.6006 -0.0000 0.7995
vn -0.4826 0.5723 0.6630
vn -0.0848 0.9818 0.1702
vn 0.4507 0.6460 0.6161
vn 0.1982 0.9798 -0.0272
vn 0.1983 0.9798 -0.0273
vn 0.2147 0.9755 0.0485
vn 0.9776 -0.0000 0.2103
vn 0.2147 0.9755 0.0484
vn 0.8853 0.0008 -0.4650
vn 0.2147 0.9752 0.0545
vn 0.1081 0.9864 -0.1239
vn 0.8853 0.0009 -0.4650
vn 0.2147 0.9751 0.0545
vn 0.1080 0.9864 -0.1239
vn 0.9776 0.0001 0.2103
vn 0.2279 0.9729 0.0387
vn 0.5980 0.4333 -0.6743
vn 0.6703 0.0004 -0.7421
vn 0.9005 0.4165 -0.1249
vn 0.9005 0.4165 -0.1250
vn 0.9292 0.3106 0.2003
vn 0.2301 0.9729 0.0229
vn 0.8471 0.4889 0.2082
vn 0.2300 0.9729 0.0229
vn 0.9341 0.3149 0.1681
vn 0.9847 -0.0000 0.1744
vn 0.8307 0.5179 0.2044
vn 0.9360 0.3314 0.1186
vn 0.8148 0.5516 0.1785
vn 0.1058 0.9872 -0.1196
vn 0.9646 -0.0000 0.2636
vn 0.8346 0.4350 -0.3380
vn 0.5976 0.4332 -0.6747
vn 0.8416 0.4929 -0.2209
vn -0.8137 0.0522 -0.5790
vn 0.8148 0.5600 -0.1500
vn 0.5979 0.4332 -0.6744
vn 0.5980 0.4332 -0.6743
vn 0.9423 0.2551 -0.2169
vn 0.6210 0.4292 -0.6558
vn 0.8542 0.5016 -0.1369
vn 0.6211 0.4293 -0.6558
vn 0.8542 0.5016 -0.1368
vn 0.9064 0.4178 -0.0617
vn -0.8828 0.0372 -0.4683
vn 0.9038 0.4186 0.0889
vn -0.8137 0.0522 -0.5789
vn -0.0005 1.0000 -0.0040
vn 0.9065 0.4178 -0.0617
vn -0.8893 0.0369 -0.4559
vn 0.3413 0.4438 -0.8286
vn -0.9202 0.0182 -0.3911
vn 0.0142 0.9988 -0.0461
vn -0.8893 0.0369 -0.4558
vn -0.9199 0.0231 -0.3914
vn -0.0019 1.0000 -0.0015
vn 0.8471 0.4890 0.2082
vn 0.0142 0.9988 -0.0460
vn -0.8137 0.0521 -0.5789
vn -0.0022 1.0000 -0.0017
vn 0.3412 0.4437 -0.8287
vn -0.0018 1.0000 -0.0014
vn -0.9701 0.0519 -0.2370
vn 0.8306 0.5179 0.2044
vn 0.0789 0.9653 -0.2489
vn 0.0790 0.9653 -0.2489
vn -0.9701 0.0519 -0.2371
vn -0.9970 0.0026 -0.0769
vn -0.9950 0.0008 -0.1001
vn -0.9817 0.0201 -0.1892
vn -0.0314 0.9825 0.1838
vn -0.9817 0.0201 -0.1893
vn -0.0313 0.9825 0.1838
vn -0.9596 0.0182 -0.2809
vn -0.0333 0.9791 0.2006
vn -0.9488 0.0181 -0.3154
vn 0.8617 0.4923 0.1232
vn -0.9594 0.0231 -0.2810
vn 0.9465 0.2662 0.1824
vn -0.9594 0.0231 -0.2811
vn 0.8617 0.4922 0.1231
vn 0.8651 0.4751 0.1609
vn -0.9594 0.0230 -0.2810
vn 0.8651 0.4751 0.1608
vn 0.8566 0.4640 0.2258
vn -0.9485 0.0230 -0.3158
vn -0.9947 0.0231 -0.1000
vn -0.9950 0.0007 -0.1000
vn -0.9981 0.0232 0.0573
vn -0.9984 0.0008 0.0573
vn -0.9803 0.0087 0.1975
vn -0.9942 0.0481 0.0964
vn -0.9827 0.0232 0.1840
vn -0.9942 0.0482 0.0964
vn -0.9762 0.0366 0.2138
vn -0.9762 0.0367 0.2139
vn -0.9537 0.0187 0.3003
vn -0.9762 0.0367 0.2138
vn -0.9536 0.0232 0.3002
vn -0.9537 0.0188 0.3003
vn -0.2161 0.4314 0.8759
vn -0.0166 0.9991 0.0382
vn -0.9076 0.0276 0.4190
vn -0.2160 0.4314 0.8759
vn -0.9069 0.0562 0.4176
vn -0.0026 0.9999 0.0102
vn -0.9076 0.0277 0.4190
vn -0.0025 0.9999 0.0101
vn -0.8399 0.0514 0.5402
vn -0.0165 0.9991 0.0382
vn 0.5705 0.4547 0.6839
vn 0.0338 0.9989 0.0317
vn 0.5705 0.4547 0.6840
vn 0.7987 0.5559 0.2303
vn 0.0338 0.9989 0.0316
vn 0.9381 0.3306 -0.1037
vn 0.9394 0.3421 0.0200
vn 0.9394 0.3421 0.0201
vn 0.1135 0.9905 0.0780
vn 0.6783 0.2150 0.7027
vn 0.1136 0.9905 0.0779
vn 0.2833 0.9588 -0.0198
vn 0.1136 0.9905 0.0780
vn 0.1191 0.9929 0.0069
vn 0.9712 0.2223 0.0860
vn 0.1135 0.9905 0.0779
vn 0.1191 0.9929 0.0068
vn 0.6782 0.2149 0.7027
vn 0.9712 0.2223 0.0859
vn 0.1899 0.9650 0.1810
vn 0.2796 0.9599 -0.0199
vn 0.8542 0.5017 -0.1368
vn 0.2796 0.9599 -0.0200
vn 0.2788 0.9601 -0.0240
vn 0.5713 0.4547 -0.6833
vn 0.1190 0.9929 0.0068
vn 0.5713 0.4546 -0.6833
vn 0.9975 -0.0000 -0.0708
vn 0.9975 0.0001 -0.0707
vn 0.2787 0.9601 -0.0240
vn 0.5713 0.4546 -0.6834
vn 0.9975 -0.0000 -0.0707
vn 0.9951 0.0001 -0.0991
vn 0.1470 0.9829 0.1106
vn 0.1469 0.9830 0.1106
vn 0.8703 0.0051 0.4926
vn 0.9951 0.0001 -0.0990
vn 0.9951 -0.0000 -0.0991
vn 0.9951 -0.0005 -0.0990
vn 0.8702 0.0051 0.4926
vn 0.7934 -0.0013 0.6087
vn 0.1469 0.9829 0.1106
vn 0.8702 0.0044 0.4926
vn 0.1898 0.9650 0.1810
vn 0.7934 -0.0012 0.6087
vn 0.2270 0.9736 0.0224
vn 0.7403 0.2718 0.6149
vn 0.2269 0.9737 0.0224
vn 0.9063 -0.0000 0.4227
vn 0.7403 0.2717 0.6149
vn 0.0001 1.0000 -0.0002
vn 0.9947 -0.0000 0.1027
vn -0.8400 0.0514 0.5402
vn 0.9932 -0.0035 -0.1163
vn -0.0000 1.0000 -0.0002
vn 0.9932 -0.0022 -0.1163
vn 0.0339 0.9989 0.0316
vn 0.9441 -0.0053 -0.3295
vn 0.2270 0.9704 -0.0829
vn 0.9441 -0.0042 -0.3295
vn 0.2271 0.9703 -0.0829
vn 0.9595 0.2487 -0.1325
vn 0.9595 0.2487 -0.1326
vn 0.9315 0.3528 -0.0883
vn 0.2270 0.9704 -0.0828
vn 0.2225 0.9712 -0.0850
vn 0.2226 0.9712 -0.0850
vn 0.2145 0.9708 -0.1072
vn 0.9441 -0.0043 -0.3295
vn 0.9381 0.3305 -0.1036
vn 0.2145 0.9708 -0.1073
vn 0.9959 -0.0000 0.0908
vn 0.9393 -0.0008 -0.3432
vn 0.9342 -0.0000 -0.3568
vn 0.9959 0.0001 0.0908
vn 0.9392 -0.0009 -0.3432
vn 0.6782 0.2150 0.7027
vn 0.9225 0.0241 0.3852
vn 0.0002 1.0000 -0.0000
vn 0.9595 0.2488 -0.1325
vn 0.9063 -0.0000 0.4226
vn 0.0686 0.9934 0.0922
vn 0.0002 1.0000 -0.0001
vn -0.8400 0.0513 0.5402
vn 0.0685 0.9934 0.0922
vn -0.9536 0.0231 0.3002
vn -0.9827 0.0231 0.1839
vn -0.9981 0.0231 0.0574
vn 0.0002 1.0000 0.0001
vn -0.9594 0.0230 -0.2811
vn -0.9199 0.0230 -0.3914
vn -0.8893 0.0368 -0.4558
vn -0.8137 0.0521 -0.5790
vn 0.1288 0.9813 -0.1433
vn 0.1288 0.9813 -0.1434
vn 0.8855 0.0562 -0.4612
vn 0.8855 0.0562 -0.4611
vn 0.0684 0.9934 0.0923
vt 0.411995 0.137325
vt 0.391276 0.121160
vt 0.423991 0.119271
vt 0.410728 0.103148
vt 0.438597 0.098551
vt 0.438936 0.097768
vt 0.424607 0.121511
vt 0.379980 0.131068
vt 0.389348 0.119724
vt 0.434248 0.090864
vt 0.423863 0.121612
vt 0.440111 0.096192
vt 0.413455 0.138384
vt 0.409409 0.101682
vt 0.439760 0.098307
vt 0.406249 0.149498
vt 0.436246 0.089509
vt 0.413160 0.138738
vt 0.377002 0.133079
vt 0.454809 0.080028
vt 0.405383 0.153572
vt 0.367262 0.115380
vt 0.457426 0.078533
vt 0.379075 0.135120
vt 0.440930 0.097822
vt 0.360227 0.133760
vt 0.404743 0.152200
vt 0.424527 0.121769
vt 0.350414 0.161923
vt 0.374587 0.153229
vt 0.457838 0.078654
vt 0.318993 0.159810
vt 0.394910 0.163313
vt 0.478627 0.059668
vt 0.355789 0.131098
vt 0.374314 0.157114
vt 0.483421 0.056207
vt 0.304146 0.156423
vt 0.372083 0.154480
vt 0.484020 0.054324
vt 0.363010 0.171802
vt 0.471452 0.060945
vt 0.486309 0.051895
vt 0.456443 0.077714
vt 0.461103 0.060001
vt 0.336671 0.200433
vt 0.459162 0.063272
vt 0.459130 0.051570
vt 0.460897 0.061992
vt 0.457620 0.051836
vt 0.445744 0.073507
vt 0.458751 0.060246
vt 0.491137 0.047342
vt 0.457692 0.062586
vt 0.439119 0.056638
vt 0.491428 0.047011
vt 0.442433 0.073454
vt 0.439017 0.055929
vt 0.490279 0.048685
vt 0.440345 0.067021
vt 0.456822 0.050999
vt 0.489683 0.048659
vt 0.458632 0.061107
vt 0.505267 0.054256
vt 0.461121 0.061005
vt 0.457575 0.050688
vt 0.505448 0.053768
vt 0.458980 0.050938
vt 0.506666 0.054964
vt 0.478313 0.058856
vt 0.458981 0.050938
vt 0.507442 0.057062
vt 0.491519 0.046767
vt 0.488637 0.049874
vt 0.507122 0.057158
vt 0.490428 0.048185
vt 0.507348 0.057254
vt 0.488554 0.050088
vt 0.386969 0.205316
vt 0.352948 0.203397
vt 0.392554 0.181789
vt 0.384954 0.226973
vt 0.365426 0.172839
vt 0.349258 0.228251
vt 0.394326 0.182856
vt 0.393991 0.165666
vt 0.384940 0.247535
vt 0.349538 0.202992
vt 0.389673 0.205838
vt 0.386863 0.226785
vt 0.393649 0.183260
vt 0.355142 0.251053
vt 0.389292 0.206126
vt 0.346761 0.228363
vt 0.389990 0.206156
vt 0.386665 0.227064
vt 0.336798 0.228760
vt 0.394340 0.183327
vt 0.313301 0.200208
vt 0.338435 0.254516
vt 0.387366 0.227071
vt 0.403691 0.160326
vt 0.354595 0.254289
vt 0.387444 0.249340
vt 0.403000 0.160216
vt 0.337115 0.255350
vt 0.387424 0.227013
vt 0.413831 0.138887
vt 0.342605 0.277274
vt 0.390043 0.206145
vt 0.413904 0.138852
vt 0.334002 0.277479
vt 0.387856 0.249248
vt 0.424573 0.121780
vt 0.333489 0.300197
vt 0.330683 0.255245
vt 0.387839 0.249348
vt 0.403745 0.160320
vt 0.322834 0.278017
vt 0.389119 0.268227
vt 0.394426 0.183244
vt 0.321139 0.300788
vt 0.329253 0.255370
vt 0.389877 0.269488
vt 0.339845 0.326125
vt 0.321118 0.278140
vt 0.395054 0.291647
vt 0.341602 0.301400
vt 0.389211 0.268808
vt 0.348234 0.325032
vt 0.319851 0.255156
vt 0.394363 0.291733
vt 0.345784 0.341926
vt 0.312524 0.279313
vt 0.389660 0.273409
vt 0.329426 0.342539
vt 0.319479 0.301293
vt 0.386193 0.250632
vt 0.326219 0.326600
vt 0.310422 0.303468
vt 0.311553 0.279467
vt 0.390537 0.277756
vt 0.324484 0.326529
vt 0.394403 0.291741
vt 0.384588 0.250515
vt 0.327600 0.342626
vt 0.389600 0.277404
vt 0.317378 0.342445
vt 0.335205 0.356486
vt 0.395799 0.296367
vt 0.355757 0.254279
vt 0.402456 0.314047
vt 0.359646 0.281731
vt 0.351871 0.355710
vt 0.402417 0.314039
vt 0.359129 0.282443
vt 0.353993 0.392118
vt 0.368541 0.387572
vt 0.411820 0.333948
vt 0.358766 0.276380
vt 0.356659 0.356488
vt 0.412487 0.333803
vt 0.374011 0.382206
vt 0.403094 0.313916
vt 0.367545 0.357107
vt 0.422979 0.355075
vt 0.386041 0.381847
vt 0.412494 0.333705
vt 0.401387 0.408840
vt 0.400592 0.381535
vt 0.403126 0.313861
vt 0.374785 0.399936
vt 0.424605 0.403917
vt 0.395090 0.291585
vt 0.394006 0.416496
vt 0.405778 0.405102
vt 0.364316 0.408157
vt 0.448755 0.414406
vt 0.427808 0.403731
vt 0.383876 0.423944
vt 0.438749 0.424862
vt 0.450944 0.413788
vt 0.449556 0.425098
vt 0.449285 0.397442
vt 0.453926 0.431059
vt 0.434362 0.375304
vt 0.429826 0.428993
vt 0.458592 0.412387
vt 0.402548 0.380889
vt 0.452729 0.415456
vt 0.421950 0.357412
vt 0.461468 0.413920
vt 0.384245 0.364766
vt 0.456766 0.438054
vt 0.452452 0.425443
vt 0.423285 0.439015
vt 0.471462 0.422783
vt 0.457353 0.445989
vt 0.457401 0.431750
vt 0.379766 0.362563
vt 0.422627 0.440357
vt 0.381188 0.361465
vt 0.383029 0.425233
vt 0.477597 0.431967
vt 0.419501 0.354593
vt 0.375971 0.435747
vt 0.460247 0.439212
vt 0.410044 0.334114
vt 0.414759 0.450225
vt 0.490015 0.442153
vt 0.457533 0.447097
vt 0.461464 0.445497
vt 0.421761 0.355405
vt 0.493919 0.446298
vt 0.411729 0.333587
vt 0.480577 0.432306
vt 0.422374 0.355264
vt 0.490190 0.441736
vt 0.411860 0.333957
vt 0.486830 0.437838
vt 0.499014 0.445703
vt 0.436573 0.375555
vt 0.402597 0.313967
vt 0.487301 0.437561
vt 0.436415 0.375125
vt 0.469386 0.417770
vt 0.451014 0.396965
vt 0.467594 0.417175
vt 0.451247 0.396784
vt 0.451804 0.396533
vt 0.451207 0.396775
vt 0.395359 0.296841
vt 0.469515 0.417812
vt 0.463280 0.413901
vt 0.400858 0.314407
vt 0.487466 0.437554
vt 0.359740 0.303255
vt 0.360381 0.284481
vt 0.364575 0.323492
vt 0.389877 0.279842
vt 0.499359 0.445427
vt 0.357795 0.303904
vt 0.503346 0.448291
vt 0.371004 0.339602
vt 0.495898 0.447325
vt 0.356094 0.300600
vt 0.506709 0.454494
vt 0.350583 0.324771
vt 0.460985 0.458457
vt 0.361232 0.324122
vt 0.357349 0.340254
vt 0.507002 0.455048
vt 0.460924 0.459305
vt 0.368644 0.339471
vt 0.351161 0.340728
vt 0.457298 0.459084
vt 0.506550 0.455076
vt 0.460682 0.457942
vt 0.457299 0.459084
vt 0.512340 0.454309
vt 0.512303 0.454052
vt 0.414298 0.450801
vt 0.527041 0.451236
vt 0.511318 0.453795
vt 0.527115 0.451752
vt 0.457501 0.459311
vt 0.375556 0.436384
vt 0.528263 0.450886
vt 0.530218 0.449603
vt 0.461397 0.446772
vt 0.509182 0.451760
vt 0.352179 0.415844
vt 0.340227 0.397648
vt 0.352931 0.415385
vt 0.321303 0.358530
vt 0.362943 0.409212
vt 0.341102 0.397289
vt 0.316397 0.342451
vt 0.352199 0.392791
vt 0.322260 0.358363
vt 0.313729 0.326087
vt 0.333368 0.356627
vt 0.309479 0.303731
vt 0.314704 0.326112
vt 0.318878 0.255165
vt 0.297523 0.232351
vt 0.285936 0.201045
vt 0.298484 0.232233
vt 0.308024 0.231094
vt 0.283736 0.177158
vt 0.286905 0.201005
vt 0.296687 0.200586
vt 0.290689 0.153107
vt 0.295389 0.180955
vt 0.309599 0.231126
vt 0.284696 0.177471
vt 0.341184 0.125701
vt 0.297261 0.181982
vt 0.302379 0.155545
vt 0.291657 0.153309
vt 0.298529 0.200762
vt 0.314927 0.188661
vt 0.342094 0.126008
vt 0.354456 0.130194
vt 0.316237 0.231111
vt 0.360445 0.110818
vt 0.352986 0.106558
vt 0.397169 0.087668
vt 0.352284 0.106153
vt 0.397914 0.089035
vt 0.390497 0.081075
vt 0.427292 0.075993
vt 0.361591 0.111968
vt 0.389962 0.080537
vt 0.402038 0.092650
vt 0.432048 0.082150
vt 0.424521 0.064927
vt 0.427221 0.074346
vt 0.424708 0.065632
vt 0.435804 0.087608
vt 0.440528 0.065284
vt 0.443164 0.076085
vt 0.684979 0.358728
vt 0.672547 0.353250
vt 0.688379 0.341886
vt 0.689416 0.342080
vt 0.676316 0.339829
vt 0.685760 0.359419
vt 0.681454 0.323048
vt 0.671581 0.356025
vt 0.685779 0.359409
vt 0.669994 0.323913
vt 0.683770 0.361139
vt 0.674875 0.308746
vt 0.670475 0.356238
vt 0.685030 0.361704
vt 0.664709 0.310483
vt 0.671254 0.352578
vt 0.685064 0.361683
vt 0.674040 0.340180
vt 0.656649 0.346968
vt 0.654840 0.379610
vt 0.667933 0.324450
vt 0.655019 0.379504
vt 0.660926 0.296873
vt 0.654980 0.323746
vt 0.651470 0.381623
vt 0.671018 0.295908
vt 0.662733 0.311147
vt 0.651477 0.381619
vt 0.669333 0.285287
vt 0.653864 0.379321
vt 0.675837 0.308575
vt 0.650473 0.310146
vt 0.672000 0.295813
vt 0.658972 0.297490
vt 0.646844 0.299078
vt 0.650878 0.381104
vt 0.682464 0.322968
vt 0.656823 0.285825
vt 0.644553 0.371998
vt 0.644046 0.287351
vt 0.641164 0.373927
vt 0.654822 0.275866
vt 0.643308 0.371796
vt 0.638352 0.277272
vt 0.638426 0.372880
vt 0.643842 0.264774
vt 0.631115 0.363291
vt 0.615533 0.289745
vt 0.656258 0.349134
vt 0.611963 0.278469
vt 0.622163 0.351807
vt 0.615188 0.269942
vt 0.640222 0.342135
vt 0.622580 0.245322
vt 0.608296 0.270354
vt 0.620810 0.351902
vt 0.639275 0.338962
vt 0.629008 0.363314
vt 0.621865 0.348933
vt 0.599948 0.244725
vt 0.619549 0.352322
vt 0.638077 0.339943
vt 0.610207 0.278778
vt 0.609368 0.338906
vt 0.611184 0.338014
vt 0.611009 0.281814
vt 0.618459 0.352224
vt 0.631693 0.327728
vt 0.608714 0.339121
vt 0.602712 0.323644
vt 0.633894 0.326319
vt 0.613187 0.290310
vt 0.628086 0.364418
vt 0.584596 0.287684
vt 0.588640 0.298115
vt 0.619170 0.302580
vt 0.584201 0.284643
vt 0.596233 0.311776
vt 0.624380 0.314040
vt 0.581694 0.276724
vt 0.621893 0.302036
vt 0.580935 0.276046
vt 0.607186 0.272138
vt 0.627439 0.312900
vt 0.582854 0.274396
vt 0.606298 0.269157
vt 0.582631 0.284856
vt 0.577795 0.271395
vt 0.575133 0.249711
vt 0.575494 0.257275
vt 0.574373 0.248316
vt 0.575460 0.257267
vt 0.598128 0.246340
vt 0.577761 0.271386
vt 0.575281 0.246127
vt 0.582164 0.285848
vt 0.597379 0.243047
vt 0.587042 0.299013
vt 0.575022 0.227412
vt 0.599436 0.220960
vt 0.593532 0.312728
vt 0.578749 0.210327
vt 0.600014 0.324775
vt 0.599691 0.244356
vt 0.594211 0.208689
vt 0.587081 0.298810
vt 0.600691 0.220397
vt 0.593445 0.312622
vt 0.619049 0.234119
vt 0.581430 0.285932
vt 0.599823 0.324761
vt 0.607333 0.219667
vt 0.586362 0.298930
vt 0.592740 0.312769
vt 0.630757 0.218449
vt 0.639743 0.233189
vt 0.576517 0.269103
vt 0.599146 0.324949
vt 0.574710 0.257289
vt 0.609676 0.338787
vt 0.573433 0.243453
vt 0.572681 0.243443
vt 0.572980 0.228545
vt 0.573467 0.243461
vt 0.573732 0.228579
vt 0.574294 0.247792
vt 0.575219 0.215557
vt 0.573766 0.228587
vt 0.574473 0.215483
vt 0.574514 0.228383
vt 0.579530 0.200175
vt 0.575253 0.215565
vt 0.580270 0.200272
vt 0.580855 0.200816
vt 0.584729 0.187280
vt 0.578354 0.210019
vt 0.584007 0.187142
vt 0.585386 0.187542
vt 0.591113 0.174096
vt 0.581110 0.200868
vt 0.579185 0.208475
vt 0.591821 0.174262
vt 0.582961 0.197647
vt 0.599564 0.163537
vt 0.592642 0.174228
vt 0.594618 0.206339
vt 0.585347 0.188102
vt 0.600153 0.164289
vt 0.600534 0.198442
vt 0.598882 0.163332
vt 0.599239 0.167215
vt 0.595888 0.209064
vt 0.608743 0.151976
vt 0.593494 0.173597
vt 0.607443 0.151001
vt 0.609384 0.173324
vt 0.619610 0.140576
vt 0.601430 0.196271
vt 0.610543 0.172573
vt 0.602388 0.198513
vt 0.610614 0.149601
vt 0.600240 0.164374
vt 0.608934 0.152736
vt 0.625719 0.163671
vt 0.625942 0.198464
vt 0.627437 0.159815
vt 0.610502 0.174471
vt 0.623187 0.183268
vt 0.636620 0.194366
vt 0.631327 0.204237
vt 0.632120 0.200890
vt 0.633380 0.217834
vt 0.642645 0.198854
vt 0.655665 0.213369
vt 0.638865 0.193126
vt 0.650561 0.214179
vt 0.642518 0.233184
vt 0.666218 0.213369
vt 0.637699 0.182509
vt 0.672711 0.228649
vt 0.639150 0.182275
vt 0.667925 0.229353
vt 0.633699 0.202612
vt 0.647034 0.191000
vt 0.666686 0.238262
vt 0.654264 0.213545
vt 0.652216 0.212248
vt 0.648863 0.242367
vt 0.653095 0.195508
vt 0.648026 0.179192
vt 0.677408 0.228080
vt 0.642216 0.163680
vt 0.671163 0.237894
vt 0.646458 0.244942
vt 0.650427 0.159819
vt 0.678125 0.241885
vt 0.643600 0.151733
vt 0.667951 0.238779
vt 0.651918 0.147782
vt 0.672030 0.229217
vt 0.675821 0.245709
vt 0.645321 0.141996
vt 0.651429 0.159337
vt 0.670337 0.237421
vt 0.673001 0.250770
vt 0.649018 0.178794
vt 0.653945 0.136856
vt 0.670480 0.237232
vt 0.652931 0.147215
vt 0.643816 0.140394
vt 0.654589 0.133465
vt 0.647855 0.190840
vt 0.656351 0.134878
vt 0.656349 0.134903
vt 0.647846 0.190914
vt 0.655346 0.132899
vt 0.653840 0.195147
vt 0.655421 0.132720
vt 0.641079 0.122760
vt 0.654563 0.195682
vt 0.678206 0.211857
vt 0.633584 0.131018
vt 0.643410 0.123531
vt 0.668725 0.213092
vt 0.678583 0.228027
vt 0.643799 0.198547
vt 0.643030 0.123247
vt 0.632811 0.131761
vt 0.642723 0.140834
vt 0.689850 0.226854
vt 0.634538 0.141587
vt 0.679243 0.211718
vt 0.626208 0.134299
vt 0.630988 0.128592
vt 0.625693 0.135326
vt 0.690833 0.226757
vt 0.625292 0.133460
vt 0.691709 0.243130
vt 0.618620 0.140028
vt 0.634451 0.142390
vt 0.690869 0.242761
vt 0.630884 0.128684
vt 0.619341 0.141014
vt 0.692098 0.242495
vt 0.630977 0.151358
vt 0.679520 0.242727
vt 0.689723 0.246099
vt 0.688644 0.246470
vt 0.689728 0.246246
vt 0.677235 0.245721
vt 0.632022 0.152837
vt 0.635926 0.143704
vt 0.628049 0.164343
vt 0.675042 0.251973
vt 0.640010 0.164192
vt 0.685144 0.252533
vt 0.641404 0.152283
vt 0.683867 0.254694
vt 0.673643 0.254172
vt 0.681476 0.258496
vt 0.686152 0.252612
vt 0.626470 0.165547
vt 0.670518 0.259295
vt 0.667867 0.275987
vt 0.686138 0.252615
vt 0.668874 0.276055
vt 0.684792 0.254745
vt 0.682548 0.258492
vt 0.670334 0.285281
vt 0.684876 0.254744
vt 0.658804 0.285364
vt 0.656557 0.275546
vt 0.668710 0.259428
vt 0.671963 0.253995
vt 0.647849 0.246039
vt 0.650541 0.244942
vt 0.630859 0.201134
vt 0.440926 0.097934
vt 0.394575 0.166299
vt 0.437000 0.374908
vt 0.436375 0.375116
vt 0.422334 0.355255
vt 0.451688 0.396281
vt 0.436957 0.374767
vt 0.422943 0.354894
vt 0.462497 0.413859
vt 0.471443 0.422078
vt 0.643121 0.142777
vt 0.639135 0.121249
vt 0.639740 0.120731
vt 0.056966 0.536026
vt 0.057101 0.530447
vt 0.109599 0.536075
vt 0.006488 0.535795
vt 0.004076 0.541615
vt 0.109639 0.530447
vt 0.163352 0.536090
vt 0.163325 0.530447
vt 0.210217 0.536115
vt 0.210197 0.530447
vt 0.266124 0.536139
vt 0.266102 0.530447
vt 0.319699 0.536088
vt 0.319586 0.530448
vt 0.382197 0.530447
vt 0.382274 0.536151
vt 0.435733 0.536130
vt 0.435632 0.530447
vt 0.495361 0.536138
vt 0.495278 0.530447
vt 0.549994 0.536087
vt 0.549946 0.530447
vt 0.608782 0.536406
vt 0.608740 0.531085
vt 0.658616 0.536422
vt 0.658558 0.531075
vt 0.713813 0.531059
vt 0.713932 0.536477
vt 0.760972 0.531056
vt 0.761034 0.536458
vt 0.817469 0.530447
vt 0.817715 0.536182
vt 0.876005 0.530447
vt 0.876228 0.536128
vt 0.928655 0.530506
vt 0.929104 0.536347
vt 0.977672 0.530823
vt 0.978949 0.536794
vt 1.018511 0.533510
vt 1.021141 0.539278
vt 0.533077 0.447787
vt 0.527717 0.448122
vt 0.111272 0.991169
vt 0.111173 0.996787
vt 0.063739 0.991234
vt 0.063684 0.996787
vt 0.011463 0.991657
vt 0.010294 0.986006
s 1
g GUI_Map_RaisedHill_GUI_Map_RaisedHill5:GUI_Map_RaisedHill1_GUI_Map_RaisedHill5:GUI_Map_RaisedHill1
usemtl GUI_Map_RaisedHill5:GUI_Map_RaisedHill1
f 1/1/1 2/2/2 3/3/3
f 3/3/3 2/2/2 4/4/3
f 4/4/3 5/5/4 3/3/3
f 5/5/4 6/6/5 3/3/3
f 3/3/3 6/6/5 7/7/6
f 3/3/3 7/7/6 1/1/1
f 1/1/1 8/8/2 2/2/2
f 9/9/7 4/4/3 2/2/2
f 10/10/3 5/5/4 4/4/3
f 6/6/5 11/11/8 7/7/6
f 2/2/2 8/8/2 9/9/7
f 10/10/3 12/12/9 5/5/4
f 5/5/4 12/12/9 6/6/5
f 11/11/8 13/13/10 7/7/6
f 1/1/1 7/7/6 13/13/10
f 14/14/11 4/4/3 9/9/7
f 14/14/11 10/10/3 4/4/3
f 15/15/12 11/11/8 6/6/5
f 16/16/13 8/8/2 1/1/1
f 1/1/1 13/13/10 16/16/13
f 17/17/9 12/12/9 10/10/3
f 18/18/14 13/13/10 11/11/8
f 9/9/7 8/8/2 19/19/15
f 12/12/9 17/17/9 20/20/9
f 20/20/9 6/6/5 12/12/9
f 18/18/14 21/21/16 13/13/10
f 16/16/13 13/13/10 21/21/16
f 9/9/7 19/19/15 22/22/7
f 6/6/5 23/23/17 15/15/12
f 23/23/17 6/6/5 20/20/9
f 8/8/2 16/16/13 24/24/18
f 19/19/15 8/8/2 24/24/18
f 22/22/7 14/14/11 9/9/7
f 23/23/17 25/25/12 15/15/12
f 22/22/7 19/19/15 26/26/7
f 24/24/18 16/16/13 27/27/19
f 27/27/19 16/16/13 21/21/16
f 25/25/12 28/28/20 15/15/12
f 29/29/21 26/26/7 19/19/15
f 27/27/19 30/30/18 24/24/18
f 31/31/22 25/25/12 23/23/17
f 32/32/23 26/26/7 29/29/21
f 33/33/19 30/30/18 27/27/19
f 34/34/24 31/31/22 23/23/17
f 32/32/23 35/35/25 26/26/7
f 30/30/18 33/33/19 36/36/26
f 37/37/27 31/31/22 34/34/24
f 38/38/28 35/35/25 32/32/23
f 39/39/29 24/24/18 30/30/18
f 36/36/26 39/39/29 30/30/18
f 34/34/24 40/40/30 37/37/27
f 26/26/7 35/35/25 22/22/7
f 39/39/29 36/36/26 41/41/29
f 23/23/17 42/42/31 34/34/24
f 43/43/32 37/37/27 40/40/30
f 29/29/21 39/39/29 41/41/29
f 44/44/31 42/42/31 23/23/17
f 43/43/32 40/40/30 45/45/33
f 29/29/21 41/41/29 46/46/34
f 42/42/31 44/44/31 47/47/35
f 45/45/33 48/48/36 43/43/32
f 19/19/15 39/39/29 29/29/21
f 47/47/35 49/49/37 42/42/31
f 45/45/33 50/50/33 48/48/36
f 19/19/15 24/24/18 39/39/29
f 47/47/35 44/44/31 51/51/31
f 52/52/33 50/50/33 45/45/33
f 43/43/32 48/48/36 53/53/32
f 51/51/31 54/54/37 47/47/35
f 54/54/37 49/49/37 47/47/35
f 50/50/33 52/52/33 55/55/38
f 53/53/32 48/48/36 56/56/39
f 57/57/40 54/54/37 51/51/31
f 58/58/41 50/50/33 55/55/38
f 59/59/42 53/53/32 56/56/39
f 60/60/40 54/54/37 57/57/40
f 61/61/43 50/50/33 58/58/41
f 50/50/33 61/61/43 48/48/36
f 62/62/44 53/53/32 59/59/42
f 63/63/37 54/54/37 60/60/40
f 64/58/41 61/61/43 58/58/41
f 65/64/45 62/62/44 59/59/42
f 66/65/37 54/54/37 63/63/37
f 67/66/43 61/61/43 64/58/41
f 65/64/45 59/59/42 68/67/45
f 49/49/37 54/54/37 66/65/37
f 69/68/39 61/61/43 67/66/43
f 70/69/44 62/62/44 65/64/45
f 66/65/37 71/70/30 49/49/37
f 72/71/39 61/61/43 69/68/39
f 70/69/44 73/72/46 62/62/44
f 40/40/30 71/70/30 66/65/37
f 74/73/47 72/71/39 69/68/39
f 48/48/36 61/61/43 72/71/39
f 62/62/44 73/72/46 75/74/48
f 45/45/33 40/40/30 66/65/37
f 56/56/39 48/48/36 72/71/39
f 56/56/39 72/71/39 74/73/47
f 73/72/46 76/75/49 75/74/48
f 71/70/30 40/40/30 34/34/24
f 77/76/45 56/56/39 74/73/47
f 78/77/50 76/75/49 73/72/46
f 71/70/30 34/34/24 42/42/31
f 59/59/42 56/56/39 77/76/45
f 75/74/48 76/75/49 79/78/51
f 42/42/31 49/49/37 71/70/30
f 68/67/45 59/59/42 77/76/45
f 43/43/32 75/74/48 79/78/51
f 79/78/51 37/37/27 43/43/32
f 53/53/32 75/74/48 43/43/32
f 62/62/44 75/74/48 53/53/32
f 80/79/52 81/80/52 82/81/53
f 83/82/54 81/80/52 80/79/52
f 82/81/53 81/80/52 84/83/26
f 85/84/55 81/80/52 83/82/54
f 82/81/53 86/85/56 80/79/52
f 84/83/26 87/86/57 82/81/53
f 83/82/54 88/87/58 85/84/55
f 89/88/59 84/83/26 81/80/52
f 80/79/52 86/85/56 90/89/60
f 80/79/52 91/90/61 83/82/54
f 81/80/52 85/84/55 89/88/59
f 83/82/54 91/90/61 88/87/58
f 92/91/56 90/89/60 86/85/56
f 90/89/60 91/90/61 80/79/52
f 85/84/55 88/87/58 93/92/62
f 41/41/29 84/83/26 89/88/59
f 94/93/63 90/89/60 92/91/56
f 89/88/59 85/84/55 95/94/64
f 85/84/55 93/92/62 95/94/64
f 46/46/34 41/41/29 89/88/59
f 92/91/56 96/95/65 94/93/63
f 94/93/63 97/96/66 90/89/60
f 90/89/60 97/96/66 91/90/61
f 46/46/34 89/88/59 98/97/67
f 98/97/67 89/88/59 95/94/64
f 94/93/63 96/95/65 97/96/66
f 99/98/68 96/95/65 92/91/56
f 46/46/34 98/97/67 100/99/69
f 95/94/64 101/100/70 98/97/67
f 97/96/66 96/95/65 102/101/66
f 99/98/68 92/91/56 103/102/14
f 104/103/71 101/100/70 95/94/64
f 97/96/66 105/104/66 91/90/61
f 102/101/66 105/104/66 97/96/66
f 103/102/14 92/91/56 106/105/14
f 101/100/70 107/106/72 98/97/67
f 96/95/65 108/107/73 102/101/66
f 103/102/14 106/105/14 109/108/74
f 101/100/70 104/103/71 110/109/70
f 111/110/75 108/107/73 96/95/65
f 109/108/74 112/111/75 103/102/14
f 107/106/72 101/100/70 113/112/72
f 113/112/72 101/100/70 110/109/70
f 108/107/73 114/113/75 102/101/66
f 109/108/74 115/114/73 112/111/75
f 113/112/72 110/109/70 116/115/76
f 113/112/72 117/116/72 107/106/72
f 102/101/66 114/113/75 118/117/66
f 103/102/14 112/111/75 119/118/75
f 116/115/76 120/119/72 113/112/72
f 120/119/72 117/116/72 113/112/72
f 118/117/66 114/113/75 121/120/77
f 119/118/75 122/121/75 103/102/14
f 123/122/78 120/119/72 116/115/76
f 121/120/77 105/104/66 118/117/66
f 118/117/66 105/104/66 102/101/66
f 103/102/14 122/121/75 99/98/68
f 120/119/72 124/123/79 117/116/72
f 125/124/80 105/104/66 121/120/77
f 126/125/81 123/122/78 116/115/76
f 127/126/82 124/123/79 120/119/72
f 121/120/77 128/127/83 125/124/80
f 116/115/76 129/128/84 126/125/81
f 120/119/72 123/122/78 127/126/82
f 121/120/77 130/129/75 128/127/83
f 116/115/76 110/109/70 129/128/84
f 126/125/81 129/128/84 131/130/85
f 127/126/82 132/131/86 124/123/79
f 125/124/80 128/127/83 133/132/87
f 126/125/81 131/130/85 134/133/88
f 135/134/79 132/131/86 127/126/82
f 125/124/80 133/132/87 136/135/89
f 137/136/88 126/125/81 134/133/88
f 138/137/90 135/134/79 127/126/82
f 139/138/91 125/124/80 136/135/89
f 140/139/92 126/125/81 137/136/88
f 141/140/90 135/134/79 138/137/90
f 105/104/66 125/124/80 139/138/91
f 140/139/92 123/122/78 126/125/81
f 127/126/82 123/122/78 138/137/90
f 141/140/90 142/141/93 135/134/79
f 143/142/89 139/138/91 136/135/89
f 123/122/78 140/139/92 138/137/90
f 144/143/90 141/140/90 138/137/90
f 140/139/92 137/136/88 144/143/90
f 145/144/94 143/142/89 136/135/89
f 139/138/91 143/142/89 146/145/95
f 138/137/90 140/139/92 144/143/90
f 144/143/90 137/136/88 147/146/96
f 136/135/89 133/132/87 145/144/94
f 146/145/95 143/142/89 148/147/95
f 149/148/97 144/143/90 147/146/96
f 137/136/88 150/149/88 147/146/96
f 151/150/98 143/142/89 145/144/94
f 146/145/95 148/147/95 152/151/99
f 137/136/88 134/133/88 150/149/88
f 153/152/100 151/150/98 145/144/94
f 152/151/99 93/92/62 146/145/95
f 152/151/99 148/147/95 154/153/101
f 150/149/88 134/133/88 155/154/88
f 145/144/94 156/155/102 153/152/100
f 157/156/71 152/151/99 154/153/101
f 155/154/88 158/157/103 150/149/88
f 133/132/87 156/155/102 145/144/94
f 104/103/71 152/151/99 157/156/71
f 104/103/71 93/92/62 152/151/99
f 159/158/104 158/157/103 155/154/88
f 156/155/102 160/159/105 153/152/100
f 161/160/106 104/103/71 157/156/71
f 162/161/107 159/158/104 155/154/88
f 156/155/102 163/162/108 160/159/105
f 110/109/70 104/103/71 161/160/106
f 164/163/104 159/158/104 162/161/107
f 165/164/83 163/162/108 156/155/102
f 110/109/70 161/160/106 129/128/84
f 166/165/109 164/163/104 162/161/107
f 156/155/102 128/127/83 165/164/83
f 163/162/108 167/166/110 160/159/105
f 168/167/111 164/163/104 166/165/109
f 133/132/87 128/127/83 156/155/102
f 165/164/83 169/168/75 163/162/108
f 164/163/104 168/167/111 170/169/112
f 166/165/109 171/170/113 168/167/111
f 128/127/83 172/171/75 165/164/83
f 172/171/75 169/168/75 165/164/83
f 170/169/112 173/172/114 164/163/104
f 174/173/115 168/167/111 171/170/113
f 175/174/75 172/171/75 128/127/83
f 176/175/116 173/172/114 170/169/112
f 177/176/117 168/167/111 174/173/115
f 128/127/83 130/129/75 175/174/75
f 176/175/116 178/177/118 173/172/114
f 170/169/112 168/167/111 177/176/117
f 174/173/115 179/178/115 177/176/117
f 174/173/115 171/170/113 180/179/119
f 181/180/120 178/177/118 176/175/116
f 170/169/112 182/181/112 176/175/116
f 170/169/112 177/176/117 182/181/112
f 179/178/115 174/173/115 183/182/121
f 183/182/121 174/173/115 180/179/119
f 178/177/118 158/157/103 173/172/114
f 177/176/117 179/178/115 184/183/112
f 182/181/112 177/176/117 184/183/112
f 185/184/122 183/182/121 180/179/119
f 173/172/114 158/157/103 159/158/104
f 182/181/112 184/183/112 186/185/123
f 185/184/122 180/179/119 187/186/124
f 164/163/104 173/172/114 159/158/104
f 182/181/112 186/185/123 188/187/125
f 189/188/122 183/182/121 185/184/122
f 187/186/124 180/179/119 190/189/126
f 176/175/116 182/181/112 188/187/125
f 189/188/122 191/190/127 183/182/121
f 190/189/126 192/191/124 187/186/124
f 188/187/125 181/180/120 176/175/116
f 193/192/128 191/190/127 189/188/122
f 194/193/129 192/191/124 190/189/126
f 188/187/125 186/185/123 195/194/130
f 191/190/127 193/192/128 196/195/127
f 190/189/126 171/170/113 194/193/129
f 195/194/130 197/196/131 188/187/125
f 197/196/131 181/180/120 188/187/125
f 196/195/127 193/192/128 198/197/127
f 180/179/119 171/170/113 190/189/126
f 199/198/132 197/196/131 195/194/130
f 198/197/127 200/199/133 196/195/127
f 200/199/133 195/194/130 186/185/123
f 194/193/129 171/170/113 201/200/134
f 197/196/131 199/198/132 202/201/135
f 200/199/133 186/185/123 196/195/127
f 203/202/136 194/193/129 201/200/134
f 202/201/135 204/203/135 197/196/131
f 205/204/137 200/199/133 198/197/127
f 206/205/138 194/193/129 203/202/136
f 202/201/135 207/206/135 204/203/135
f 205/204/137 208/207/139 200/199/133
f 206/205/138 203/202/136 209/208/138
f 210/209/135 207/206/135 202/201/135
f 211/210/140 208/207/139 205/204/137
f 192/191/124 194/193/129 206/205/138
f 202/201/135 212/211/141 210/209/135
f 211/210/140 213/212/142 208/207/139
f 192/191/124 206/205/138 214/213/143
f 202/201/135 199/198/132 212/211/141
f 215/214/144 213/212/142 211/210/140
f 199/198/132 208/207/139 213/212/142
f 214/213/143 206/205/138 216/215/145
f 199/198/132 213/212/142 212/211/141
f 216/215/145 206/205/138 209/208/138
f 217/216/146 211/210/140 205/204/137
f 195/194/130 208/207/139 199/198/132
f 214/213/143 216/215/145 218/217/147
f 219/218/148 211/210/140 217/216/146
f 219/218/148 215/214/144 211/210/140
f 208/207/139 195/194/130 200/199/133
f 218/217/147 216/215/145 220/219/143
f 221/220/149 219/218/148 217/216/146
f 222/221/150 215/214/144 219/218/148
f 218/217/147 223/222/151 214/213/143
f 224/223/152 220/219/143 216/215/145
f 222/221/150 219/218/148 225/224/153
f 225/224/153 219/218/148 221/220/149
f 226/225/154 223/222/151 218/217/147
f 153/152/100 220/219/143 224/223/152
f 221/220/149 227/226/153 225/224/153
f 226/225/154 228/227/155 223/222/151
f 153/152/100 160/159/105 220/219/143
f 220/219/143 160/159/105 218/217/147
f 229/228/146 227/226/153 221/220/149
f 230/229/155 228/227/155 226/225/154
f 224/223/152 151/150/98 153/152/100
f 227/226/153 229/228/146 231/230/156
f 226/225/154 232/231/157 230/229/155
f 224/223/152 233/232/158 151/150/98
f 231/230/156 234/233/159 227/226/153
f 231/230/156 229/228/146 232/231/157
f 232/231/157 235/234/160 230/229/155
f 236/235/161 233/232/158 224/223/152
f 237/236/162 227/226/153 234/233/159
f 229/228/146 235/234/160 232/231/157
f 233/232/158 236/235/161 238/237/163
f 225/224/153 227/226/153 237/236/162
f 229/228/146 217/216/146 235/234/160
f 238/237/163 239/238/163 233/232/158
f 225/224/153 237/236/162 222/221/150
f 229/228/146 221/220/149 217/216/146
f 238/237/163 236/235/161 240/239/164
f 233/232/158 239/238/163 241/240/165
f 222/221/150 237/236/162 242/241/162
f 243/242/166 239/238/163 238/237/163
f 209/208/138 240/239/164 236/235/161
f 222/221/150 242/241/162 244/243/167
f 157/156/71 239/238/163 243/242/166
f 245/244/168 240/239/164 209/208/138
f 244/243/167 246/245/169 222/221/150
f 243/242/166 247/246/170 157/156/71
f 209/208/138 203/202/136 245/244/168
f 246/245/169 244/243/167 248/247/171
f 243/242/166 249/248/170 247/246/170
f 209/208/138 236/235/161 216/215/145
f 250/249/171 246/245/169 248/247/171
f 251/250/166 249/248/170 243/242/166
f 157/156/71 247/246/170 161/160/106
f 216/215/145 236/235/161 224/223/152
f 249/248/170 251/250/166 252/251/109
f 238/237/163 251/250/166 243/242/166
f 129/128/84 161/160/106 247/246/170
f 253/252/172 250/249/171 248/247/171
f 240/239/164 251/250/166 238/237/163
f 129/128/84 247/246/170 131/130/85
f 131/130/85 247/246/170 249/248/170
f 254/253/173 250/249/171 253/252/172
f 252/251/109 251/250/166 255/254/134
f 251/250/166 240/239/164 255/254/134
f 131/130/85 249/248/170 256/255/107
f 254/253/173 257/256/174 250/249/171
f 256/255/107 249/248/170 252/251/109
f 255/254/134 240/239/164 245/244/168
f 258/257/175 254/253/173 253/252/172
f 134/133/88 131/130/85 256/255/107
f 252/251/109 255/254/134 166/165/109
f 259/258/172 254/253/173 258/257/175
f 134/133/88 256/255/107 155/154/88
f 256/255/107 252/251/109 162/161/107
f 162/161/107 252/251/109 166/165/109
f 259/258/172 260/259/174 254/253/173
f 258/257/175 253/252/172 261/260/175
f 155/154/88 256/255/107 162/161/107
f 166/165/109 255/254/134 201/200/134
f 254/253/173 260/259/174 257/256/174
f 261/260/175 253/252/172 262/261/175
f 201/200/134 171/170/113 166/165/109
f 201/200/134 255/254/134 203/202/136
f 263/262/176 257/256/174 260/259/174
f 262/261/175 264/263/177 261/260/175
f 253/252/172 265/264/178 262/261/175
f 203/202/136 255/254/134 245/244/168
f 266/262/179 257/256/174 263/262/176
f 262/261/175 265/264/178 264/263/177
f 248/247/171 265/264/178 253/252/172
f 261/260/175 264/263/177 267/265/177
f 266/262/179 268/266/180 257/256/174
f 248/247/171 244/243/167 265/264/178
f 269/267/181 266/262/179 263/262/176
f 264/263/177 265/264/178 270/268/182
f 250/249/171 257/256/174 268/266/180
f 271/267/181 266/262/179 269/267/181
f 244/243/167 272/269/167 265/264/178
f 265/264/178 272/269/167 270/268/182
f 268/266/180 273/270/171 250/249/171
f 271/267/181 210/209/135 266/262/179
f 244/243/167 274/271/162 272/269/167
f 210/209/135 268/266/180 266/262/179
f 273/270/171 246/245/169 250/249/171
f 275/272/183 271/267/181 269/267/181
f 210/209/135 212/211/141 268/266/180
f 212/211/141 273/270/171 268/266/180
f 273/270/171 215/214/144 246/245/169
f 276/272/183 271/267/181 275/272/183
f 207/206/135 210/209/135 271/267/181
f 212/211/141 213/212/142 273/270/171
f 213/212/142 215/214/144 273/270/171
f 271/267/181 276/272/183 207/206/135
f 222/221/150 246/245/169 215/214/144
f 277/273/184 276/272/183 275/272/183
f 207/206/135 276/272/183 278/274/185
f 279/273/184 276/272/183 277/273/184
f 279/273/184 278/274/185 276/272/183
f 207/206/135 278/274/185 204/203/135
f 280/275/186 279/273/184 277/273/184
f 204/203/135 278/274/185 281/276/187
f 282/275/188 279/273/184 280/275/186
f 204/203/135 281/276/187 181/180/120
f 278/274/185 283/277/187 281/276/187
f 282/275/188 283/277/187 279/273/184
f 283/277/187 278/274/185 279/273/184
f 284/278/189 282/275/188 280/275/186
f 197/196/131 204/203/135 181/180/120
f 281/276/187 283/277/187 285/279/185
f 286/278/189 282/275/188 284/278/189
f 181/180/120 281/276/187 178/177/118
f 281/276/187 285/279/185 178/177/118
f 283/277/187 287/280/96 285/279/185
f 288/281/189 286/278/189 284/278/189
f 287/280/96 283/277/187 282/275/188
f 178/177/118 285/279/185 158/157/103
f 289/281/189 286/278/189 288/281/189
f 285/279/185 287/280/96 290/282/190
f 287/280/96 282/275/188 149/148/97
f 290/282/190 158/157/103 285/279/185
f 291/283/93 289/281/189 288/281/189
f 149/148/97 282/275/188 286/278/189
f 287/280/96 147/146/96 290/282/190
f 292/283/93 289/281/189 291/283/93
f 149/148/97 147/146/96 287/280/96
f 150/149/88 158/157/103 290/282/190
f 293/141/93 292/283/93 291/283/93
f 149/148/97 286/278/189 294/284/90
f 147/146/96 150/149/88 290/282/190
f 294/284/90 286/278/189 289/281/189
f 289/281/189 292/283/93 294/284/90
f 142/141/93 292/283/93 293/141/93
f 294/284/90 144/143/90 149/148/97
f 295/285/191 142/141/93 293/141/93
f 294/284/90 292/283/93 141/140/90
f 294/284/90 141/140/90 144/143/90
f 292/283/93 142/141/93 141/140/90
f 296/285/192 142/141/93 295/285/191
f 297/286/193 296/285/192 295/285/191
f 296/285/192 135/134/79 142/141/93
f 298/286/193 296/285/192 297/286/193
f 132/131/86 135/134/79 296/285/192
f 299/287/194 298/286/193 297/286/193
f 296/285/192 300/288/195 132/131/86
f 298/286/193 300/288/195 296/285/192
f 301/287/194 298/286/193 299/287/194
f 300/288/195 302/289/196 132/131/86
f 303/290/197 301/287/194 299/287/194
f 301/287/194 304/291/198 298/286/193
f 298/286/193 304/291/198 300/288/195
f 300/288/195 305/292/199 302/289/196
f 132/131/86 302/289/196 124/123/79
f 306/290/197 301/287/194 303/290/197
f 304/291/198 305/292/199 300/288/195
f 302/289/196 117/116/72 124/123/79
f 307/293/197 306/290/197 303/290/197
f 304/291/198 308/294/200 305/292/199
f 309/295/201 117/116/72 302/289/196
f 310/293/197 306/290/197 307/293/197
f 311/296/202 308/294/200 304/291/198
f 302/289/196 305/292/199 309/295/201
f 304/291/198 301/287/194 311/296/202
f 311/296/202 301/287/194 306/290/197
f 312/297/203 310/293/197 307/293/197
f 308/294/200 313/298/204 305/292/199
f 311/296/202 314/299/205 308/294/200
f 311/296/202 306/290/197 315/300/202
f 315/300/202 306/290/197 310/293/197
f 316/297/206 310/293/197 312/297/203
f 305/292/199 313/298/204 317/301/207
f 315/300/202 314/299/205 311/296/202
f 316/297/206 315/300/202 310/293/197
f 309/295/201 305/292/199 317/301/207
f 313/298/204 318/302/23 317/301/207
f 315/300/202 319/303/208 314/299/205
f 319/303/208 315/300/202 316/297/206
f 317/301/207 100/99/69 309/295/201
f 318/302/23 313/298/204 32/32/23
f 314/299/205 319/303/208 320/304/209
f 317/301/207 318/302/23 100/99/69
f 309/295/201 100/99/69 321/305/210
f 32/32/23 313/298/204 38/38/28
f 319/303/208 322/306/208 320/304/209
f 321/305/210 117/116/72 309/295/201
f 29/29/21 318/302/23 32/32/23
f 323/307/208 322/306/208 319/303/208
f 316/297/206 323/307/208 319/303/208
f 107/106/72 117/116/72 321/305/210
f 100/99/69 318/302/23 46/46/34
f 46/46/34 318/302/23 29/29/21
f 322/306/208 323/307/208 324/308/211
f 98/97/67 107/106/72 321/305/210
f 100/99/69 98/97/67 321/305/210
f 325/309/212 323/307/208 316/297/206
f 324/308/211 326/310/213 322/306/208
f 325/309/212 316/297/206 327/309/212
f 324/308/211 323/307/208 328/311/214
f 323/307/208 325/309/212 328/311/214
f 324/308/211 329/312/215 326/310/213
f 322/306/208 326/310/213 330/313/216
f 331/314/217 325/309/212 327/309/212
f 327/309/212 316/297/206 312/297/203
f 326/310/213 329/312/215 332/315/218
f 330/313/216 326/310/213 22/22/7
f 333/314/217 325/309/212 331/314/217
f 328/311/214 325/309/212 333/314/217
f 332/315/218 329/312/215 334/316/40
f 22/22/7 326/310/213 332/315/218
f 335/317/41 333/314/217 331/314/217
f 324/308/211 328/311/214 336/318/211
f 336/318/211 329/312/215 324/308/211
f 332/315/218 14/14/11 22/22/7
f 337/317/41 333/314/217 335/317/41
f 336/318/211 328/311/214 338/319/211
f 14/14/11 332/315/218 339/320/11
f 338/319/211 333/314/217 337/317/41
f 339/320/11 332/315/218 334/316/40
f 338/319/211 340/321/219 336/318/211
f 328/311/214 333/314/217 338/319/211
f 64/58/41 337/317/41 335/317/41
f 57/57/40 339/320/11 334/316/40
f 334/316/40 329/312/215 57/57/40
f 329/312/215 336/318/211 60/60/40
f 60/60/40 336/318/211 340/321/219
f 58/58/41 337/317/41 64/58/41
f 57/57/40 341/322/220 339/320/11
f 57/57/40 329/312/215 60/60/40
f 55/55/38 340/321/219 338/319/211
f 58/58/41 55/55/38 337/317/41
f 339/320/11 341/322/220 17/17/9
f 60/60/40 340/321/219 63/63/37
f 337/317/41 55/55/38 338/319/211
f 17/17/9 10/10/3 339/320/11
f 20/20/9 17/17/9 341/322/220
f 63/63/37 340/321/219 52/52/33
f 55/55/38 52/52/33 340/321/219
f 339/320/11 10/10/3 14/14/11
f 341/322/220 51/51/31 20/20/9
f 63/63/37 52/52/33 66/65/37
f 66/65/37 52/52/33 45/45/33
f 51/51/31 341/322/220 57/57/40
f 20/20/9 51/51/31 44/44/31
f 20/20/9 44/44/31 23/23/17
f 121/120/77 114/113/75 130/129/75
f 342/323/221 343/324/222 344/325/223
f 345/326/224 342/323/221 344/325/223
f 344/325/223 343/324/222 346/327/225
f 347/328/226 342/323/221 345/326/224
f 346/327/225 348/329/227 344/325/223
f 342/323/221 349/330/228 343/324/222
f 347/328/226 345/326/224 350/331/229
f 351/332/230 348/329/227 346/327/225
f 352/333/231 349/330/228 342/323/221
f 342/323/221 347/328/226 352/333/231
f 350/331/229 345/326/224 353/326/232
f 351/332/230 354/334/233 348/329/227
f 355/335/234 343/324/222 349/330/228
f 356/336/235 347/328/226 350/331/229
f 357/337/233 354/334/233 351/332/230
f 358/338/236 343/324/222 355/335/234
f 358/338/236 346/327/225 343/324/222
f 352/333/231 347/328/226 359/339/177
f 359/339/177 347/328/226 356/336/235
f 346/327/225 360/340/236 351/332/230
f 360/340/236 346/327/225 358/338/236
f 355/335/234 361/341/237 358/338/236
f 359/339/177 362/342/177 352/333/231
f 351/332/230 360/340/236 363/343/238
f 363/343/238 357/337/233 351/332/230
f 360/340/236 358/338/236 361/341/237
f 362/342/177 359/339/177 364/344/177
f 364/344/177 359/339/177 356/336/235
f 357/337/233 365/345/239 354/334/233
f 363/343/238 360/340/236 366/346/240
f 366/346/240 360/340/236 361/341/237
f 367/347/177 362/342/177 364/344/177
f 354/334/233 365/345/239 368/348/241
f 363/343/238 366/346/240 369/349/242
f 369/349/242 365/345/239 357/337/233
f 370/350/177 362/342/177 367/347/177
f 368/348/241 365/345/239 371/351/241
f 369/349/242 357/337/233 363/343/238
f 362/342/177 370/350/177 372/352/231
f 368/348/241 373/353/243 354/334/233
f 369/349/242 366/346/240 374/354/244
f 352/333/231 362/342/177 372/352/231
f 375/355/243 373/353/243 368/348/241
f 369/349/242 374/354/244 376/356/245
f 376/356/245 365/345/239 369/349/242
f 372/352/231 349/330/228 352/333/231
f 373/353/243 375/355/243 377/353/243
f 376/356/245 374/354/244 378/357/246
f 372/352/231 370/350/177 379/358/247
f 380/359/248 373/353/243 377/353/243
f 378/357/246 381/360/245 376/356/245
f 379/358/247 382/361/228 372/352/231
f 382/361/228 349/330/228 372/352/231
f 383/359/248 373/353/243 380/359/248
f 384/362/246 381/360/245 378/357/246
f 385/363/167 382/361/228 379/358/247
f 353/326/232 383/359/248 380/359/248
f 384/362/246 386/364/249 381/360/245
f 385/363/167 387/365/250 382/361/228
f 345/326/224 383/359/248 353/326/232
f 388/366/251 386/364/249 384/362/246
f 389/367/252 387/365/250 385/363/167
f 345/326/224 344/325/223 383/359/248
f 390/368/253 386/364/249 388/366/251
f 387/365/250 389/367/252 391/369/254
f 392/370/246 388/366/251 384/362/246
f 383/359/248 344/325/223 348/329/227
f 393/371/255 387/365/250 391/369/254
f 394/372/256 388/366/251 392/370/246
f 383/359/248 348/329/227 373/353/243
f 391/369/254 395/373/257 393/371/255
f 396/374/258 388/366/251 394/372/256
f 390/368/253 388/366/251 396/374/258
f 373/353/243 348/329/227 354/334/233
f 393/371/255 395/373/257 397/375/259
f 396/374/258 398/376/260 390/368/253
f 394/372/256 399/377/261 396/374/258
f 391/369/254 400/378/262 395/373/257
f 397/375/259 401/379/263 393/371/255
f 399/377/261 398/376/260 396/374/258
f 402/380/264 400/378/262 391/369/254
f 403/381/265 397/375/259 395/373/257
f 404/382/266 398/376/260 399/377/261
f 400/378/262 402/380/264 405/383/267
f 403/381/265 395/373/257 400/378/262
f 406/384/265 397/375/259 403/381/265
f 406/384/265 401/379/263 397/375/259
f 394/372/256 407/385/268 399/377/261
f 405/383/267 408/386/269 400/378/262
f 409/387/265 406/384/265 403/381/265
f 407/385/268 394/372/256 410/388/270
f 411/389/271 408/386/269 405/383/267
f 402/380/264 411/389/271 405/383/267
f 412/390/265 406/384/265 409/387/265
f 406/384/265 412/390/265 401/379/263
f 394/372/256 392/370/246 410/388/270
f 413/391/272 408/386/269 411/389/271
f 409/387/265 414/392/273 412/390/265
f 401/379/263 412/390/265 415/393/274
f 410/388/270 392/370/246 416/394/275
f 417/395/276 411/389/271 402/380/264
f 366/346/240 401/379/263 415/393/274
f 416/394/275 418/396/275 410/388/270
f 402/380/264 389/367/252 417/395/276
f 361/341/237 401/379/263 366/346/240
f 419/397/275 418/396/275 416/394/275
f 391/369/254 389/367/252 402/380/264
f 393/371/255 401/379/263 361/341/237
f 420/398/277 419/397/275 416/394/275
f 421/399/278 410/388/270 418/396/275
f 393/371/255 361/341/237 355/335/234
f 422/400/277 419/397/275 420/398/277
f 407/385/268 410/388/270 421/399/278
f 355/335/234 387/365/250 393/371/255
f 420/398/277 423/401/279 422/400/277
f 421/399/278 424/402/278 407/385/268
f 387/365/250 355/335/234 382/361/228
f 416/394/275 425/403/246 420/398/277
f 421/399/278 426/404/280 424/402/278
f 407/385/268 424/402/278 427/405/268
f 382/361/228 355/335/234 349/330/228
f 423/401/279 420/398/277 428/406/281
f 428/406/281 420/398/277 425/403/246
f 429/407/282 427/405/268 424/402/278
f 429/407/282 424/402/278 426/404/280
f 399/377/261 407/385/268 427/405/268
f 378/357/246 428/406/281 425/403/246
f 430/408/283 427/405/268 429/407/282
f 431/409/284 426/404/280 421/399/278
f 430/408/283 399/377/261 427/405/268
f 374/354/244 428/406/281 378/357/246
f 426/404/280 431/409/284 432/410/284
f 429/407/282 433/411/282 430/408/283
f 374/354/244 415/393/274 428/406/281
f 434/412/285 426/404/280 432/410/284
f 426/404/280 435/413/285 429/407/282
f 429/407/282 435/413/285 433/411/282
f 366/346/240 415/393/274 374/354/244
f 435/413/285 426/404/280 434/412/285
f 432/410/284 436/414/286 434/412/285
f 430/408/283 433/411/282 437/415/283
f 415/393/274 423/401/279 428/406/281
f 438/416/287 436/414/286 432/410/284
f 431/409/284 438/416/287 432/410/284
f 439/417/288 437/415/283 433/411/282
f 412/390/265 423/401/279 415/393/274
f 440/418/289 438/416/287 431/409/284
f 441/419/290 437/415/283 439/417/288
f 412/390/265 414/392/273 423/401/279
f 442/420/291 440/418/289 431/409/284
f 443/421/288 441/419/290 439/417/288
f 441/419/290 404/382/266 437/415/283
f 422/400/277 423/401/279 414/392/273
f 431/409/284 418/396/275 442/420/291
f 444/422/290 441/419/290 443/421/288
f 419/397/275 422/400/277 442/420/291
f 414/392/273 445/423/291 422/400/277
f 442/420/291 418/396/275 419/397/275
f 421/399/278 418/396/275 431/409/284
f 443/421/288 446/424/292 444/422/290
f 442/420/291 422/400/277 445/423/291
f 447/425/293 445/423/291 414/392/273
f 441/419/290 444/422/290 448/426/294
f 444/422/290 446/424/292 449/427/292
f 445/423/291 450/428/295 442/420/291
f 409/387/265 447/425/293 414/392/273
f 448/426/294 444/422/290 451/429/296
f 444/422/290 449/427/292 451/429/296
f 450/428/295 440/418/289 442/420/291
f 447/425/293 452/430/297 445/423/291
f 448/426/294 451/429/296 453/431/298
f 452/430/297 450/428/295 445/423/291
f 450/428/295 454/432/289 440/418/289
f 455/433/293 452/430/297 447/425/293
f 453/431/298 451/429/296 456/434/299
f 457/435/295 454/432/289 450/428/295
f 455/433/293 458/436/300 452/430/297
f 459/437/301 453/431/298 456/434/299
f 458/436/300 457/435/295 452/430/297
f 454/432/289 438/416/287 440/418/289
f 452/430/297 457/435/295 450/428/295
f 460/438/302 453/431/298 459/437/301
f 461/439/287 438/416/287 454/432/289
f 462/440/303 458/436/300 455/433/293
f 453/431/298 460/438/302 398/376/260
f 461/439/287 436/414/286 438/416/287
f 408/386/269 462/440/303 455/433/293
f 453/431/298 398/376/260 448/426/294
f 463/441/304 436/414/286 461/439/287
f 413/391/272 462/440/303 408/386/269
f 408/386/269 455/433/293 464/442/269
f 448/426/294 398/376/260 404/382/266
f 463/441/304 465/443/305 436/414/286
f 400/378/262 408/386/269 464/442/269
f 448/426/294 404/382/266 441/419/290
f 466/444/304 465/443/305 463/441/304
f 400/378/262 464/442/269 403/381/265
f 436/414/286 465/443/305 434/412/285
f 464/442/269 455/433/293 447/425/293
f 466/444/304 467/445/306 465/443/305
f 403/381/265 464/442/269 409/387/265
f 434/412/285 465/443/305 468/446/285
f 464/442/269 447/425/293 409/387/265
f 399/377/261 430/408/283 404/382/266
f 434/412/285 468/446/285 435/413/285
f 465/443/305 467/445/306 469/447/307
f 465/443/305 469/447/307 468/446/285
f 404/382/266 430/408/283 437/415/283
f 435/413/285 468/446/285 470/448/285
f 467/445/306 471/449/308 469/447/307
f 470/448/285 433/411/282 435/413/285
f 468/446/285 469/447/307 472/450/309
f 469/447/307 471/449/308 472/450/309
f 473/451/310 471/449/308 467/445/306
f 470/448/285 468/446/285 474/452/311
f 439/417/288 433/411/282 470/448/285
f 474/452/311 468/446/285 472/450/309
f 473/451/310 475/453/310 471/449/308
f 470/448/285 474/452/311 439/417/288
f 472/450/309 471/449/308 476/454/312
f 476/454/312 474/452/311 472/450/309
f 471/449/308 475/453/310 477/455/308
f 439/417/288 474/452/311 443/421/288
f 471/449/308 478/456/313 476/454/312
f 477/455/308 478/456/313 471/449/308
f 475/453/310 479/457/314 477/455/308
f 480/458/315 474/452/311 476/454/312
f 474/452/311 446/424/292 443/421/288
f 476/454/312 478/456/313 480/458/315
f 481/459/316 479/457/314 475/453/310
f 480/458/315 446/424/292 474/452/311
f 479/457/314 482/460/317 477/455/308
f 477/455/308 482/460/317 478/456/313
f 481/459/316 483/461/316 479/457/314
f 478/456/313 484/462/318 480/458/315
f 446/424/292 480/458/315 485/463/318
f 479/457/314 486/464/314 482/460/317
f 479/457/314 483/461/316 486/464/314
f 478/456/313 482/460/317 487/465/319
f 480/458/315 484/462/318 485/463/318
f 446/424/292 485/463/318 449/427/292
f 483/461/316 488/466/320 486/464/314
f 487/465/319 484/462/318 478/456/313
f 482/460/317 486/464/314 489/467/317
f 449/427/292 485/463/318 490/468/318
f 487/465/319 482/460/317 491/469/319
f 484/462/318 490/468/318 485/463/318
f 488/466/320 492/470/320 486/464/314
f 486/464/314 492/470/320 489/467/317
f 482/460/317 489/467/317 491/469/319
f 493/471/321 490/468/318 484/462/318
f 484/462/318 487/465/319 493/471/321
f 494/472/322 488/466/320 483/461/316
f 492/470/320 495/473/323 489/467/317
f 493/471/321 496/474/296 490/468/318
f 490/468/318 496/474/296 449/427/292
f 494/472/322 497/475/324 488/466/320
f 488/466/320 497/475/324 492/470/320
f 489/467/317 495/473/323 498/476/323
f 491/469/319 489/467/317 498/476/323
f 451/429/296 449/427/292 496/474/296
f 499/477/322 497/475/324 494/472/322
f 500/478/325 491/469/319 498/476/323
f 498/476/323 495/473/323 500/478/325
f 451/429/296 496/474/296 456/434/299
f 499/477/322 501/479/326 497/475/324
f 502/480/327 491/469/319 500/478/325
f 495/473/323 503/481/328 500/478/325
f 456/434/299 496/474/296 504/482/299
f 497/475/324 501/479/326 505/483/329
f 506/484/330 503/481/328 495/473/323
f 504/482/299 459/437/301 456/434/299
f 505/483/329 507/485/328 497/475/324
f 503/481/328 506/484/330 508/486/328
f 509/487/331 459/437/301 504/482/299
f 510/488/332 507/485/328 505/483/329
f 508/486/328 511/489/333 503/481/328
f 508/486/328 506/484/330 507/485/328
f 500/478/325 503/481/328 511/489/333
f 509/487/331 504/482/299 512/490/334
f 508/486/328 507/485/328 510/488/332
f 500/478/325 511/489/333 502/480/327
f 512/490/334 513/491/335 509/487/331
f 512/490/334 504/482/299 511/489/333
f 497/475/324 507/485/328 492/470/320
f 502/480/327 511/489/333 504/482/299
f 492/470/320 507/485/328 506/484/330
f 509/487/331 514/492/336 459/437/301
f 493/471/321 502/480/327 504/482/299
f 495/473/323 492/470/320 506/484/330
f 509/487/331 513/491/335 515/493/337
f 493/471/321 487/465/319 502/480/327
f 504/482/299 496/474/296 493/471/321
f 459/437/301 514/492/336 516/494/338
f 515/493/337 513/491/335 517/495/337
f 502/480/327 487/465/319 491/469/319
f 459/437/301 516/494/338 460/438/302
f 515/493/337 517/495/337 518/496/337
f 513/491/335 519/497/339 517/495/337
f 516/494/338 514/492/336 520/498/340
f 460/438/302 516/494/338 521/499/341
f 518/496/337 517/495/337 522/500/337
f 523/501/334 519/497/339 513/491/335
f 516/494/338 520/498/340 521/499/341
f 522/500/337 524/502/342 518/496/337
f 523/501/334 513/491/335 512/490/334
f 525/503/339 519/497/339 523/501/334
f 521/499/341 520/498/340 526/504/341
f 515/493/337 518/496/337 527/505/343
f 525/503/339 528/506/339 519/497/339
f 526/504/341 529/507/344 521/499/341
f 530/508/345 526/504/341 520/498/340
f 524/502/346 526/504/341 530/508/345
f 527/505/343 518/496/337 531/509/343
f 521/499/341 529/507/344 532/510/344
f 528/506/339 533/511/347 519/497/339
f 534/512/339 528/506/339 525/503/339
f 535/513/346 524/502/342 522/500/337
f 532/510/344 460/438/302 521/499/341
f 536/514/348 534/512/339 525/503/339
f 535/513/346 537/515/346 524/502/342
f 538/516/349 460/438/302 532/510/344
f 539/517/350 534/512/339 536/514/348
f 540/518/346 537/515/346 535/513/346
f 398/376/260 460/438/302 538/516/349
f 541/519/351 539/517/350 536/514/348
f 537/515/346 540/518/346 542/520/352
f 398/376/260 538/516/349 390/368/253
f 543/521/351 539/517/350 541/519/351
f 524/502/342 537/515/346 544/522/353
f 542/520/352 540/518/346 545/523/354
f 541/519/351 546/524/351 543/521/351
f 539/517/350 543/521/351 547/525/355
f 544/522/353 537/515/346 548/526/353
f 545/523/354 549/527/354 542/520/352
f 550/528/356 539/517/350 547/525/355
f 543/521/351 546/524/351 551/529/357
f 537/515/346 552/530/358 548/526/353
f 550/528/356 547/525/355 553/528/359
f 551/529/357 554/531/360 543/521/351
f 555/532/361 551/529/357 546/524/351
f 534/512/339 539/517/350 550/528/356
f 547/525/355 543/521/351 554/531/360
f 556/533/362 551/529/357 555/532/361
f 557/534/363 534/512/339 550/528/356
f 553/528/359 557/534/363 550/528/356
f 547/525/355 554/531/360 558/525/359
f 559/535/364 554/531/360 551/529/357
f 551/529/357 556/533/362 559/535/364
f 553/528/359 547/525/355 558/525/359
f 528/506/339 534/512/339 557/534/363
f 558/525/359 554/531/360 560/531/365
f 559/535/364 561/536/366 554/531/360
f 562/537/367 557/534/363 553/528/359
f 557/534/363 533/511/347 528/506/339
f 554/531/360 561/536/366 560/531/365
f 559/535/364 556/533/362 563/538/368
f 564/539/367 533/511/347 557/534/363
f 562/537/367 564/539/367 557/534/363
f 559/535/364 565/540/368 561/536/366
f 556/533/362 566/541/369 563/538/368
f 567/542/370 564/539/367 562/537/367
f 563/538/368 565/540/368 559/535/364
f 533/511/347 564/539/367 568/543/371
f 566/541/369 556/533/362 569/544/361
f 563/538/368 570/545/372 565/540/368
f 571/546/347 533/511/347 568/543/371
f 563/538/368 566/541/369 570/545/372
f 569/544/361 556/533/362 555/532/361
f 571/546/347 568/543/371 572/547/373
f 573/548/347 533/511/347 571/546/347
f 565/540/368 570/545/372 574/549/372
f 555/532/361 575/550/374 569/544/361
f 519/497/339 533/511/347 573/548/347
f 572/547/373 535/513/346 571/546/347
f 576/551/374 575/550/374 555/532/361
f 517/495/337 519/497/339 573/548/347
f 572/547/373 568/543/371 577/552/375
f 576/551/374 578/553/374 575/550/374
f 573/548/347 522/500/337 517/495/337
f 571/546/347 535/513/346 522/500/337
f 579/554/376 577/552/375 568/543/371
f 575/550/374 578/553/374 580/555/377
f 571/546/347 522/500/337 573/548/347
f 568/543/371 564/539/367 579/554/376
f 575/550/374 580/555/377 581/556/326
f 580/555/377 578/553/374 582/557/378
f 583/558/379 577/552/375 579/554/376
f 564/539/367 567/542/370 579/554/376
f 581/556/326 580/555/377 584/559/380
f 584/559/380 580/555/377 582/557/378
f 583/558/379 579/554/376 585/558/379
f 586/560/381 577/552/375 583/558/379
f 581/556/326 584/559/380 587/561/380
f 582/557/378 578/553/374 588/562/382
f 589/563/375 577/552/375 586/560/381
f 581/556/326 590/564/48 575/550/374
f 582/557/378 588/562/382 591/565/332
f 589/563/375 572/547/373 577/552/375
f 586/560/381 583/558/379 592/566/383
f 592/566/383 583/558/379 585/558/379
f 591/565/332 588/562/382 593/567/384
f 594/568/373 572/547/373 589/563/375
f 595/569/385 586/560/381 592/566/383
f 593/567/384 505/483/329 591/565/332
f 589/563/375 596/570/386 594/568/373
f 597/571/387 586/560/381 595/569/385
f 510/488/332 505/483/329 593/567/384
f 586/560/381 597/571/387 589/563/375
f 589/563/375 597/571/387 596/570/386
f 594/568/373 596/570/386 598/572/388
f 593/567/384 599/573/389 510/488/332
f 505/483/329 501/479/326 591/565/332
f 540/518/346 572/547/373 594/568/373
f 593/567/384 600/574/390 599/573/389
f 510/488/332 599/573/389 601/575/391
f 501/479/326 582/557/378 591/565/332
f 540/518/346 594/568/373 545/523/354
f 545/523/354 594/568/373 598/572/388
f 535/513/346 572/547/373 540/518/346
f 584/559/380 582/557/378 501/479/326
f 598/572/388 602/576/388 545/523/354
f 599/573/389 603/577/391 601/575/391
f 587/561/380 584/559/380 501/479/326
f 602/576/388 598/572/388 604/578/392
f 605/579/390 603/577/391 599/573/389
f 587/561/380 501/479/326 499/477/322
f 606/580/393 602/576/388 604/578/392
f 599/573/389 600/574/390 605/579/390
f 603/577/391 523/501/334 601/575/391
f 607/581/394 602/576/388 606/580/393
f 604/578/392 598/572/388 596/570/386
f 523/501/334 603/577/391 525/503/339
f 608/582/395 607/581/394 606/580/393
f 596/570/386 609/583/396 604/578/392
f 610/584/397 601/575/391 523/501/334
f 611/585/398 607/581/394 608/582/395
f 597/571/387 609/583/396 596/570/386
f 512/490/334 610/584/397 523/501/334
f 608/582/395 612/586/395 611/585/398
f 609/583/396 597/571/387 613/587/396
f 511/489/333 610/584/397 512/490/334
f 612/586/395 608/582/395 614/588/399
f 615/589/400 604/578/392 609/583/396
f 609/583/396 613/587/396 615/589/400
f 610/584/397 511/489/333 508/486/328
f 614/588/399 608/582/395 616/590/401
f 606/580/393 604/578/392 615/589/400
f 508/486/328 601/575/391 610/584/397
f 614/588/399 616/590/401 617/588/402
f 608/582/395 606/580/393 616/590/401
f 616/590/401 606/580/393 615/589/400
f 510/488/332 601/575/391 508/486/328
f 618/591/399 614/588/399 617/588/402
f 617/588/402 616/590/401 619/590/401
f 616/590/401 615/589/400 619/590/401
f 615/589/400 613/587/396 620/592/403
f 619/590/401 615/589/400 620/592/403
f 621/591/399 614/588/399 618/591/399
f 622/355/243 621/591/399 618/591/399
f 621/591/399 371/351/241 614/588/399
f 613/587/396 597/571/387 595/569/385
f 375/355/243 621/591/399 622/355/243
f 621/591/399 368/348/241 371/351/241
f 614/588/399 371/351/241 612/586/395
f 375/355/243 368/348/241 621/591/399
f 377/353/243 375/355/243 622/355/243
f 371/351/241 623/593/239 612/586/395
f 371/351/241 365/345/239 623/593/239
f 612/586/395 623/593/239 624/594/395
f 365/345/239 376/356/245 623/593/239
f 611/585/398 612/586/395 624/594/395
f 623/593/239 376/356/245 381/360/245
f 623/593/239 381/360/245 624/594/395
f 624/594/395 625/595/253 611/585/398
f 624/594/395 381/360/245 386/364/249
f 386/364/249 625/595/253 624/594/395
f 625/595/253 626/596/253 611/585/398
f 625/595/253 386/364/249 390/368/253
f 626/596/253 625/595/253 627/597/253
f 627/597/253 625/595/253 390/368/253
f 611/585/398 626/596/253 607/581/394
f 538/516/349 627/597/253 390/368/253
f 627/597/253 628/598/354 626/596/253
f 626/596/253 549/527/354 607/581/394
f 626/596/253 628/598/354 549/527/354
f 532/510/344 627/597/253 538/516/349
f 628/598/354 627/597/253 532/510/344
f 607/581/394 549/527/354 602/576/388
f 542/520/352 549/527/354 628/598/354
f 545/523/354 602/576/388 549/527/354
f 529/507/344 628/598/354 532/510/344
f 542/520/352 628/598/354 529/507/344
f 629/599/404 514/492/336 509/487/331
f 28/28/20 109/108/74 11/11/8
f 15/15/12 28/28/20 11/11/8
f 11/11/8 109/108/74 18/18/14
f 28/28/20 115/114/73 109/108/74
f 109/108/74 106/105/14 18/18/14
f 28/28/20 630/600/75 115/114/73
f 25/25/12 630/600/75 28/28/20
f 106/105/14 21/21/16 18/18/14
f 106/105/14 92/91/56 21/21/16
f 92/91/56 631/601/16 21/21/16
f 86/85/56 631/601/16 92/91/56
f 631/601/16 27/27/19 21/21/16
f 82/81/53 631/601/16 86/85/56
f 33/33/19 27/27/19 631/601/16
f 87/86/57 631/601/16 82/81/53
f 631/601/16 87/86/57 33/33/19
f 36/36/26 33/33/19 87/86/57
f 36/36/26 87/86/57 84/83/26
f 41/41/29 36/36/26 84/83/26
f 632/602/405 231/230/156 633/603/405
f 634/604/105 632/602/405 633/603/405
f 633/603/405 231/230/156 232/231/157
f 634/604/105 633/603/405 218/217/147
f 167/166/110 632/602/405 634/604/105
f 632/602/405 635/605/406 231/230/156
f 633/603/405 232/231/157 226/225/154
f 218/217/147 633/603/405 226/225/154
f 160/159/105 167/166/110 634/604/105
f 636/606/159 635/605/406 632/602/405
f 218/217/147 160/159/105 634/604/105
f 635/605/406 234/233/159 231/230/156
f 167/166/110 636/606/159 632/602/405
f 637/607/75 636/606/159 167/166/110
f 163/162/108 637/607/75 167/166/110
f 169/168/75 637/607/75 163/162/108
f 22/22/7 35/35/25 330/313/216
f 35/35/25 320/304/209 330/313/216
f 35/35/25 314/299/205 320/304/209
f 330/313/216 320/304/209 322/306/208
f 38/38/28 314/299/205 35/35/25
f 314/299/205 38/38/28 308/294/200
f 308/294/200 38/38/28 313/298/204
f 228/227/155 230/229/155 638/608/160
f 638/608/160 189/188/122 228/227/155
f 638/608/160 230/229/155 235/234/160
f 228/227/155 189/188/122 185/184/122
f 639/609/160 638/608/160 235/234/160
f 185/184/122 223/222/151 228/227/155
f 193/192/128 189/188/122 638/608/160
f 235/234/160 217/216/146 639/609/160
f 187/186/124 223/222/151 185/184/122
f 638/608/160 198/197/127 193/192/128
f 639/609/160 198/197/127 638/608/160
f 217/216/146 205/204/137 639/609/160
f 192/191/124 223/222/151 187/186/124
f 639/609/160 205/204/137 198/197/127
f 214/213/143 223/222/151 192/191/124
f 392/370/246 384/362/246 425/403/246
f 392/370/246 425/403/246 416/394/275
f 425/403/246 384/362/246 378/357/246
f 605/579/390 600/574/390 640/610/407
f 605/579/390 640/610/407 541/519/351
f 600/574/390 578/553/374 640/610/407
f 541/519/351 536/514/348 605/579/390
f 578/553/374 600/574/390 588/562/382
f 588/562/382 600/574/390 593/567/384
f 640/610/407 578/553/374 576/551/374
f 541/519/351 640/610/407 546/524/351
f 605/579/390 536/514/348 603/577/391
f 640/610/407 576/551/374 546/524/351
f 525/503/339 603/577/391 536/514/348
f 546/524/351 576/551/374 555/532/361
f 579/554/376 567/542/370 641/554/408
f 585/558/379 579/554/376 641/554/408
f 196/195/127 186/185/123 184/183/112
f 196/195/127 184/183/112 191/190/127
f 191/190/127 184/183/112 179/178/115
f 179/178/115 183/182/121 191/190/127
f 88/87/58 91/90/61 139/138/91
f 146/145/95 88/87/58 139/138/91
f 91/90/61 105/104/66 139/138/91
f 146/145/95 93/92/62 88/87/58
f 95/94/64 93/92/62 104/103/71
f 239/238/163 154/153/101 241/240/165
f 154/153/101 239/238/163 157/156/71
f 241/240/165 154/153/101 148/147/95
f 241/240/165 148/147/95 143/142/89
f 143/142/89 151/150/98 241/240/165
f 241/240/165 151/150/98 233/232/158
f 642/611/48 566/541/369 590/564/48
f 566/541/369 642/611/48 570/545/372
f 590/564/48 566/541/369 569/544/361
f 575/550/374 590/564/48 569/544/361
f 570/545/372 642/611/48 643/612/45
f 570/545/372 643/612/45 574/549/372
f 574/549/372 643/612/45 644/612/45
f 645/613/409 646/614/380 647/615/410
f 646/614/380 645/613/409 648/616/411
f 648/616/411 645/613/409 649/617/412
f 647/615/410 646/614/380 650/618/322
f 647/615/410 650/618/322 651/619/410
f 651/619/410 650/618/322 652/620/322
f 651/619/410 652/620/322 653/621/410
f 653/621/410 652/620/322 654/622/413
f 653/621/410 654/622/413 655/623/410
f 655/623/410 654/622/413 656/624/316
f 655/623/410 656/624/316 657/625/406
f 657/625/406 656/624/316 658/626/310
f 658/626/310 659/627/414 657/625/406
f 657/625/406 659/627/414 660/628/410
f 660/628/410 659/627/414 661/629/406
f 661/629/406 659/627/414 662/630/415
f 661/629/406 662/630/415 663/631/406
f 663/631/406 662/630/415 664/632/304
f 663/631/406 664/632/304 665/633/406
f 665/633/406 664/632/304 666/634/304
f 665/633/406 666/634/304 667/635/406
f 667/635/406 666/634/304 668/636/287
f 667/635/406 668/636/287 669/637/406
f 669/637/406 668/636/287 670/638/289
f 670/638/289 671/639/300 669/637/406
f 669/637/406 671/639/300 672/640/416
f 671/639/300 673/641/417 672/640/416
f 672/640/416 673/641/417 674/642/406
f 673/641/417 675/643/303 674/642/406
f 674/642/406 675/643/303 676/644/416
f 675/643/303 677/645/418 676/644/416
f 676/644/416 677/645/418 678/646/416
f 677/645/418 679/647/419 678/646/416
f 678/646/416 679/647/419 680/648/416
f 679/647/419 681/649/420 680/648/416
f 680/648/416 681/649/420 682/650/421
f 681/649/420 683/651/420 682/650/421
f 682/650/421 683/651/420 684/652/421
f 685/653/264 272/269/167 686/654/422
f 272/269/167 274/271/162 686/654/422
f 687/655/73 688/656/423 689/657/49
f 689/657/49 688/656/423 690/658/424
f 690/658/424 691/659/24 689/657/49
f 689/657/49 691/659/24 692/660/425
f 99/98/68 122/121/75 96/95/65
f 96/95/65 122/121/75 111/110/75
o GameBoardOrangePath_board2:board1:GUI_LeftGameBoard
v -0.033613 0.000432 -0.002747
v -0.030684 0.000431 -0.004167
v -0.030807 0.000431 -0.004387
v -0.033924 0.000432 -0.003478
v -0.030979 0.000431 -0.004767
v -0.034126 0.000432 -0.004000
v -0.031105 0.000431 -0.005117
v -0.034319 0.000432 -0.004656
v -0.031234 0.000431 -0.005526
v -0.030596 0.000431 -0.004010
v -0.031314 0.000431 -0.005935
v -0.033293 0.000432 -0.002169
v -0.034498 0.000432 -0.005358
v -0.032840 0.000362 -0.001603
v -0.030338 0.000363 -0.003622
v -0.031404 0.000431 -0.006413
v -0.034584 0.000432 -0.006059
v -0.034616 0.000432 -0.006450
v -0.031417 0.000431 -0.006641
v -0.031427 0.000431 -0.006820
v -0.034637 0.000432 -0.006700
v -0.034633 0.000432 -0.007382
v -0.031427 0.000431 -0.007283
v -0.034612 0.000432 -0.007986
v -0.031385 0.000431 -0.007711
v -0.031347 0.000431 -0.008074
v -0.034508 0.000432 -0.008686
v -0.031248 0.000431 -0.008598
v -0.034363 0.000432 -0.009374
v -0.031150 0.000431 -0.008999
v -0.034192 0.000432 -0.009989
v -0.031025 0.000431 -0.009425
v -0.034123 0.000432 -0.010228
v -0.034002 0.000432 -0.010646
v -0.030900 0.000431 -0.009800
v -0.033746 0.000432 -0.011260
v -0.030715 0.000431 -0.010235
v -0.033475 0.000432 -0.011930
v -0.030527 0.000431 -0.010636
v -0.033152 0.000432 -0.012590
v -0.030342 0.000431 -0.011010
v -0.032784 0.000432 -0.013182
v -0.030150 0.000363 -0.011288
v -0.032570 0.000362 -0.013481
vn 0.0002 1.0000 -0.0001
vn 0.0001 1.0000 -0.0001
vn 0.0002 1.0000 -0.0000
vn 0.0685 0.9934 0.0923
vn 0.0690 0.9934 0.0919
vn 0.0002 1.0000 0.0001
vn 0.1287 0.9813 -0.1433
vt 0.123052 0.535362
vt 0.199659 0.562305
vt 0.195156 0.567384
vt 0.114110 0.546823
vt 0.189685 0.574918
vt 0.107065 0.555382
vt 0.185546 0.581923
vt 0.101135 0.566022
vt 0.181310 0.589379
vt 0.202890 0.558660
vt 0.177970 0.595909
vt 0.130639 0.527631
vt 0.095467 0.577691
vt 0.141438 0.517414
vt 0.211619 0.548943
vt 0.175235 0.602223
vt 0.090383 0.588218
vt 0.088286 0.594662
vt 0.174268 0.606052
vt 0.173505 0.609073
vt 0.086951 0.598766
vt 0.084831 0.610133
vt 0.172998 0.615535
vt 0.084225 0.620410
vt 0.171563 0.623247
vt 0.171694 0.629480
vt 0.083788 0.631750
vt 0.171208 0.638446
vt 0.084174 0.644296
vt 0.171519 0.645220
vt 0.085882 0.655278
vt 0.172214 0.652121
vt 0.086720 0.659623
vt 0.088186 0.667222
vt 0.173856 0.659730
vt 0.091429 0.679712
vt 0.176125 0.667515
vt 0.096231 0.690925
vt 0.179124 0.674743
vt 0.101408 0.702667
vt 0.182956 0.681499
vt 0.106669 0.711107
vt 0.189392 0.691730
vt 0.111906 0.718165
s 1
g GameBoardOrangePath_board2:board1:GUI_LeftGameBoard_board2:board1:GUI_LeftGameBoard
usemtl board2:board1:GUI_LeftGameBoard
f 693/661/426 694/662/427 695/663/426
f 693/661/426 695/663/426 696/664/426
f 696/664/426 695/663/426 697/665/426
f 696/664/426 697/665/426 698/666/426
f 698/666/426 697/665/426 699/667/426
f 698/666/426 699/667/426 700/668/428
f 700/668/428 699/667/426 701/669/428
f 693/661/426 702/670/429 694/662/427
f 703/671/428 700/668/428 701/669/428
f 704/672/430 702/670/429 693/661/426
f 705/673/428 700/668/428 703/671/428
f 704/672/430 706/674/429 702/670/429
f 702/670/429 706/674/429 707/675/429
f 708/676/428 705/673/428 703/671/428
f 709/677/428 705/673/428 708/676/428
f 709/677/428 708/676/428 710/678/428
f 710/678/428 708/676/428 711/679/428
f 712/680/428 710/678/428 711/679/428
f 713/681/428 710/678/428 712/680/428
f 713/681/428 712/680/428 714/682/428
f 714/682/428 712/680/428 715/683/428
f 714/682/428 715/683/428 716/684/428
f 716/684/428 715/683/428 717/685/428
f 718/686/428 716/684/428 717/685/428
f 719/687/428 716/684/428 718/686/428
f 720/688/428 719/687/428 718/686/428
f 721/689/428 719/687/428 720/688/428
f 722/690/428 721/689/428 720/688/428
f 723/691/428 721/689/428 722/690/428
f 724/692/428 723/691/428 722/690/428
f 725/693/428 723/691/428 724/692/428
f 726/694/431 725/693/428 724/692/428
f 727/695/431 726/694/431 724/692/428
f 728/696/431 726/694/431 727/695/431
f 729/697/431 728/696/431 727/695/431
f 730/698/431 728/696/431 729/697/431
f 731/699/431 730/698/431 729/697/431
f 732/700/431 730/698/431 731/699/431
f 733/701/432 732/700/431 731/699/431
f 734/702/432 732/700/431 733/701/432
f 735/703/432 734/702/432 733/701/432
f 736/704/432 734/702/432 735/703/432
