# Blender 4.1.1
# www.blender.org
mtllib bridgeobj.mtl
o GUI_Map_BridgeBlue_GUI_Map_Bridge3
v 0.064125 0.002911 0.011644
v 0.063691 0.002911 0.011438
v 0.063396 0.002900 0.013181
v 0.062961 0.002900 0.012976
v 0.063602 0.002813 0.011396
v 0.064838 0.002899 0.010141
v 0.063566 0.002820 0.013161
v 0.064256 0.002813 0.011707
v 0.063633 0.002628 0.013019
v 0.064404 0.002899 0.009935
v 0.063483 0.002749 0.013335
v 0.064256 0.002640 0.011707
v 0.064330 0.002774 0.009862
v 0.063551 0.002556 0.013192
v 0.064876 0.002628 0.010400
v 0.064476 0.002828 0.009784
v 0.063163 0.001604 0.014010
v 0.063324 0.002829 0.013331
v 0.064935 0.002817 0.010276
v 0.064798 0.001685 0.008876
v 0.063050 0.001703 0.014247
v 0.064957 0.002555 0.010231
v 0.064923 0.001740 0.008843
v 0.062751 0.000602 0.014878
v 0.065016 0.002745 0.010106
v 0.065283 0.000642 0.007855
v 0.062575 0.000602 0.015249
v 0.065341 0.001604 0.009422
v 0.065409 0.000592 0.007819
v 0.062876 0.001740 0.014275
v 0.065447 0.001701 0.009199
v 0.065187 0.000573 0.007715
v 0.065749 0.000602 0.008561
v 0.065364 0.000513 0.007699
v 0.064910 0.002828 0.009991
v 0.065936 0.000602 0.008167
v 0.065846 0.000589 0.008018
v 0.065357 0.001740 0.009048
v 0.065971 0.000509 0.007974
v 0.065976 0.000506 0.008088
v 0.065750 0.000519 0.008564
v 0.062391 0.000589 0.015297
v 0.061961 0.000592 0.015082
v 0.062443 0.001740 0.014066
v 0.062526 0.000506 0.015354
v 0.061910 0.000641 0.014961
v 0.062436 0.000509 0.015421
v 0.062752 0.000519 0.014879
v 0.061741 0.000573 0.014976
v 0.062890 0.002829 0.013126
v 0.062391 0.001687 0.013947
v 0.061835 0.000513 0.015120
v 0.062859 0.002776 0.012961
v 0.063170 0.001100 0.012572
v 0.063579 0.001105 0.012795
v 0.062996 0.000662 0.012940
v 0.063764 0.001555 0.012404
v 0.063415 0.000645 0.013140
v 0.063350 0.001535 0.012194
v 0.063011 0.000683 0.012679
v 0.063011 0.000607 0.012909
v 0.063837 0.001627 0.012250
v 0.063167 0.001099 0.012347
v 0.063431 0.000607 0.013108
v 0.063422 0.001607 0.012044
v 0.063706 0.000607 0.011445
v 0.064126 0.000607 0.011645
v 0.063315 0.001515 0.012040
v 0.063614 0.000684 0.011402
v 0.064125 0.001639 0.011644
v 0.063614 0.001515 0.011402
v 0.063705 0.001617 0.011445
v 0.064006 0.001607 0.010813
v 0.064429 0.001630 0.011003
v 0.063935 0.001514 0.010733
v 0.064077 0.001534 0.010663
v 0.064502 0.001557 0.010850
v 0.064076 0.001099 0.010432
v 0.064252 0.001100 0.010293
v 0.064683 0.001106 0.010469
v 0.064231 0.000684 0.010109
v 0.064423 0.000663 0.009934
v 0.064843 0.000646 0.010133
v 0.064407 0.000607 0.009966
v 0.063706 0.000607 0.011445
v 0.064828 0.000607 0.010166
v 0.063614 0.000684 0.011402
v 0.064126 0.000607 0.011645
v 0.064256 0.001742 0.011707
v 0.064256 0.001908 0.011707
v 0.063940 0.001724 0.012373
v 0.064589 0.001727 0.011006
v 0.063886 0.001899 0.012486
v 0.063837 0.001627 0.012250
v 0.064639 0.001899 0.010900
v 0.063869 0.001636 0.012523
v 0.064125 0.001639 0.011644
v 0.064115 0.001970 0.011640
v 0.063764 0.001555 0.012404
v 0.064429 0.001630 0.011003
v 0.063740 0.001956 0.012430
v 0.063579 0.001105 0.012795
v 0.064660 0.001640 0.010857
v 0.063804 0.001827 0.012659
v 0.064502 0.001955 0.010826
v 0.064720 0.001826 0.010729
v 0.063665 0.001144 0.012951
v 0.063611 0.001956 0.012368
v 0.063415 0.000645 0.013140
v 0.064859 0.001146 0.010438
v 0.063634 0.001857 0.012654
v 0.063986 0.001970 0.011578
v 0.064960 0.001240 0.010224
v 0.063504 0.001857 0.012592
v 0.064607 0.001857 0.010603
v 0.064683 0.001106 0.010469
v 0.063255 0.001265 0.013117
v 0.064853 0.001265 0.010086
v 0.064843 0.000646 0.010133
v 0.063385 0.001265 0.013179
v 0.064478 0.001857 0.010542
v 0.065040 0.000645 0.010056
v 0.063561 0.001240 0.013172
v 0.064723 0.001265 0.010025
v 0.065025 0.000607 0.010087
v 0.064372 0.001955 0.010764
v 0.065185 0.000674 0.009750
v 0.064313 0.002047 0.010659
v 0.063480 0.000644 0.013342
v 0.065227 0.000602 0.009662
v 0.065065 0.000733 0.009640
v 0.063495 0.000607 0.013311
v 0.063897 0.002068 0.011536
v 0.065105 0.000631 0.009555
v 0.063431 0.000607 0.013108
v 0.064941 0.000718 0.009566
v 0.065475 0.000631 0.008776
v 0.063339 0.000692 0.013638
v 0.063490 0.002047 0.012393
v 0.065749 0.000602 0.008561
v 0.065549 0.000631 0.008619
v 0.063897 0.002494 0.011536
v 0.063290 0.000602 0.013742
v 0.063389 0.001934 0.012606
v 0.065419 0.000631 0.008558
v 0.063177 0.000750 0.013617
v 0.065176 0.001574 0.009404
v 0.063129 0.000631 0.013717
v 0.065341 0.001604 0.009422
v 0.062739 0.000631 0.014539
v 0.064808 0.002476 0.010180
v 0.065749 0.000602 0.008561
v 0.063040 0.000733 0.013570
v 0.064957 0.002555 0.010231
v 0.065047 0.001574 0.009343
v 0.063124 0.001304 0.013164
v 0.063000 0.000631 0.013656
v 0.065235 0.000729 0.008718
v 0.062609 0.000631 0.014478
v 0.063227 0.002401 0.012948
v 0.064679 0.002476 0.010119
v 0.062671 0.000631 0.014683
v 0.063339 0.002482 0.012712
v 0.064916 0.001535 0.009389
v 0.062549 0.000729 0.014376
v 0.064905 0.000729 0.009413
v 0.062893 0.000729 0.013652
v 0.064676 0.001305 0.009895
v 0.062871 0.001536 0.013699
v 0.063986 0.002592 0.011578
v 0.064564 0.002398 0.010130
v 0.064455 0.002482 0.010361
v 0.064414 0.001935 0.010446
v 0.063395 0.002575 0.012822
v 0.064574 0.002575 0.010339
v 0.063525 0.002575 0.012883
v 0.064115 0.002592 0.011640
v 0.064975 0.000631 0.009493
v 0.064256 0.002640 0.011707
v 0.063633 0.002628 0.013019
v 0.064703 0.002575 0.010401
v 0.065342 0.000631 0.008721
v 0.063419 0.002477 0.013107
v 0.064876 0.002628 0.010400
v 0.063551 0.002556 0.013192
v 0.063163 0.001604 0.014010
v 0.063289 0.002477 0.013046
v 0.063047 0.001574 0.013891
v 0.062751 0.000602 0.014878
v 0.062917 0.001574 0.013830
v 0.062541 0.000631 0.014622
v 0.062751 0.000602 0.014878
v 0.064828 0.000607 0.010166
v 0.062391 0.001687 0.013947
v 0.062859 0.002776 0.012961
v 0.062587 0.001421 0.013535
v 0.062229 0.001069 0.014289
v 0.061910 0.000641 0.014961
v 0.063125 0.001704 0.012402
v 0.063602 0.002813 0.011396
v 0.063602 0.001758 0.011396
v 0.064079 0.001704 0.010391
v 0.064330 0.002774 0.009862
v 0.064617 0.001421 0.009258
v 0.064798 0.001685 0.008876
v 0.064974 0.001071 0.008506
v 0.065283 0.000642 0.007855
v 0.063603 0.001099 0.011396
v 0.063167 0.001099 0.012347
v 0.063614 0.000684 0.011402
v 0.064076 0.001099 0.010432
v 0.063011 0.000683 0.012679
v 0.063315 0.001515 0.012040
v 0.064231 0.000684 0.010109
v 0.063614 0.001515 0.011402
v 0.063935 0.001514 0.010733
v 0.062773 0.000020 0.016195
v 0.062982 0.000020 0.015754
v 0.062731 0.000281 0.015939
v 0.062599 0.000288 0.015979
v 0.062911 0.000277 0.015544
v 0.062637 0.000020 0.016244
v 0.062557 0.000395 0.015807
v 0.063220 0.000020 0.015254
v 0.062244 0.000020 0.016058
v 0.062679 0.000394 0.015760
v 0.063139 0.000278 0.015063
v 0.062253 0.000286 0.015810
v 0.062679 0.000394 0.015760
v 0.063776 0.000020 0.014082
v 0.061608 0.000020 0.015756
v 0.062803 0.000398 0.015450
v 0.063675 0.000278 0.013935
v 0.062557 0.000395 0.015807
v 0.061642 0.000286 0.015519
v 0.062803 0.000398 0.015450
v 0.064785 0.000020 0.011957
v 0.060228 0.000020 0.015101
v 0.062300 0.000400 0.015665
v 0.062300 0.000400 0.015665
v 0.064645 0.000278 0.011891
v 0.060326 0.000286 0.014895
v 0.061695 0.000400 0.015377
v 0.063029 0.000401 0.014976
v 0.065620 0.000278 0.009838
v 0.059116 0.000286 0.014320
v 0.061695 0.000400 0.015377
v 0.063029 0.000401 0.014976
v 0.065798 0.000020 0.009822
v 0.058955 0.000020 0.014496
v 0.060390 0.000403 0.014759
v 0.066134 0.000278 0.008754
v 0.063561 0.000401 0.013856
v 0.059193 0.000400 0.014190
v 0.066333 0.000020 0.008696
v 0.065998 0.000401 0.008722
v 0.058505 0.000286 0.014030
v 0.063561 0.000401 0.013856
v 0.066366 0.000277 0.008265
v 0.058588 0.000400 0.013902
v 0.058319 0.000020 0.014194
v 0.064521 0.000401 0.011832
v 0.066225 0.000398 0.008240
v 0.059193 0.000400 0.014190
v 0.058155 0.000288 0.013869
v 0.066574 0.000020 0.008187
v 0.065998 0.000401 0.008722
v 0.058315 0.000395 0.013794
v 0.066562 0.000281 0.007868
v 0.057926 0.000020 0.014008
v 0.065486 0.000401 0.009799
v 0.058588 0.000400 0.013902
v 0.066389 0.000394 0.007943
v 0.057878 0.000020 0.013872
v 0.066225 0.000398 0.008240
v 0.066787 0.000020 0.007738
v 0.065486 0.000401 0.009799
v 0.058103 0.000281 0.013742
v 0.066510 0.000288 0.007741
v 0.058087 0.000020 0.013431
v 0.058315 0.000395 0.013794
v 0.066739 0.000020 0.007602
v 0.066351 0.000395 0.007817
v 0.058295 0.000277 0.013353
v 0.058275 0.000394 0.013669
v 0.066347 0.000020 0.007416
v 0.066389 0.000394 0.007943
v 0.058325 0.000020 0.012931
v 0.058275 0.000394 0.013669
v 0.066160 0.000286 0.007580
v 0.058524 0.000278 0.012872
v 0.058436 0.000398 0.013378
v 0.066351 0.000395 0.007817
v 0.065711 0.000020 0.007114
v 0.058881 0.000020 0.011758
v 0.058436 0.000398 0.013378
v 0.066077 0.000399 0.007708
v 0.065549 0.000286 0.007290
v 0.059059 0.000278 0.011744
v 0.058661 0.000401 0.012902
v 0.064331 0.000020 0.006459
v 0.059890 0.000020 0.009634
v 0.058661 0.000401 0.012902
v 0.064233 0.000286 0.006665
v 0.060029 0.000278 0.009700
v 0.059193 0.000401 0.011782
v 0.065473 0.000399 0.007421
v 0.063023 0.000286 0.006091
v 0.061004 0.000278 0.007647
v 0.059193 0.000401 0.011782
v 0.064168 0.000402 0.006801
v 0.063057 0.000020 0.005854
v 0.060903 0.000020 0.007498
v 0.062969 0.000399 0.006233
v 0.062412 0.000286 0.005801
v 0.060153 0.000401 0.009759
v 0.061518 0.000278 0.006563
v 0.061118 0.000401 0.007726
v 0.061438 0.000020 0.006373
v 0.062421 0.000020 0.005552
v 0.061630 0.000401 0.006648
v 0.061118 0.000401 0.007726
v 0.061750 0.000277 0.006074
v 0.062066 0.000288 0.005631
v 0.061859 0.000398 0.006168
v 0.061630 0.000401 0.006648
v 0.061679 0.000020 0.005863
v 0.062028 0.000020 0.005366
v 0.062107 0.000395 0.005802
v 0.062365 0.000399 0.005946
v 0.061934 0.000281 0.005671
v 0.061892 0.000020 0.005415
v 0.061986 0.000394 0.005852
v 0.061859 0.000398 0.006168
v 0.062107 0.000395 0.005802
v 0.061986 0.000394 0.005852
v 0.065750 0.000519 0.008564
v 0.065749 0.000602 0.008561
v 0.065229 0.000519 0.009661
v 0.065998 0.000401 0.008722
v 0.065227 0.000602 0.009662
v 0.066225 0.000398 0.008240
v 0.065486 0.000401 0.009799
v 0.065025 0.000607 0.010087
v 0.065976 0.000506 0.008088
v 0.064258 0.000518 0.011707
v 0.066389 0.000394 0.007943
v 0.064521 0.000401 0.011832
v 0.064256 0.000607 0.011707
v 0.065971 0.000509 0.007974
v 0.063561 0.000401 0.013856
v 0.064828 0.000607 0.010166
v 0.066351 0.000395 0.007817
v 0.063495 0.000607 0.013311
v 0.063291 0.000519 0.013744
v 0.064126 0.000607 0.011645
v 0.066077 0.000399 0.007708
v 0.063431 0.000607 0.013108
v 0.063029 0.000401 0.014976
v 0.065364 0.000513 0.007699
v 0.063290 0.000602 0.013742
v 0.062752 0.000519 0.014879
v 0.065473 0.000399 0.007421
v 0.062751 0.000602 0.014878
v 0.062803 0.000398 0.015450
v 0.064047 0.000522 0.007056
v 0.065549 0.000286 0.007290
v 0.066160 0.000286 0.007580
v 0.062526 0.000506 0.015354
v 0.064168 0.000402 0.006801
v 0.062679 0.000394 0.015760
v 0.062969 0.000399 0.006233
v 0.062436 0.000509 0.015421
v 0.062823 0.000513 0.006493
v 0.062557 0.000395 0.015807
v 0.062365 0.000399 0.005946
v 0.062300 0.000400 0.015665
v 0.063023 0.000286 0.006091
v 0.062225 0.000509 0.006196
v 0.061835 0.000513 0.015120
v 0.062412 0.000286 0.005801
v 0.062107 0.000395 0.005802
v 0.061695 0.000400 0.015377
v 0.061986 0.000394 0.005852
v 0.060512 0.000523 0.014504
v 0.062135 0.000506 0.006265
v 0.060390 0.000403 0.014759
v 0.061859 0.000398 0.006168
v 0.059193 0.000400 0.014190
v 0.061909 0.000519 0.006740
v 0.059304 0.000513 0.013919
v 0.061630 0.000401 0.006648
v 0.058588 0.000400 0.013902
v 0.061388 0.000519 0.007837
v 0.058690 0.000509 0.013643
v 0.061118 0.000401 0.007726
v 0.061911 0.000602 0.006739
v 0.058315 0.000395 0.013794
v 0.060416 0.000518 0.009884
v 0.061389 0.000602 0.007840
v 0.058275 0.000394 0.013669
v 0.060153 0.000401 0.009759
v 0.061187 0.000607 0.008266
v 0.058685 0.000506 0.013531
v 0.059193 0.000401 0.011782
v 0.060418 0.000607 0.009885
v 0.058436 0.000398 0.013378
v 0.059450 0.000519 0.011921
v 0.061250 0.000607 0.008468
v 0.058911 0.000519 0.013055
v 0.059656 0.000607 0.011489
v 0.058661 0.000401 0.012902
v 0.060548 0.000607 0.009946
v 0.059853 0.000607 0.011410
v 0.058913 0.000602 0.013056
v 0.059452 0.000602 0.011920
v 0.061835 0.000513 0.015120
v 0.061741 0.000573 0.014976
v 0.060512 0.000523 0.014504
v 0.060551 0.000570 0.014421
v 0.059304 0.000513 0.013919
v 0.059475 0.000573 0.013900
v 0.060551 0.000570 0.014421
v 0.064502 0.001557 0.010850
v 0.064005 0.000570 0.007144
v 0.065187 0.000573 0.007715
v 0.064047 0.000522 0.007056
v 0.065364 0.000513 0.007699
v 0.064005 0.000570 0.007144
v 0.062922 0.000573 0.006640
v 0.062823 0.000513 0.006493
v 0.060549 0.002911 0.009947
v 0.059820 0.002900 0.011483
v 0.060983 0.002911 0.010153
v 0.061263 0.002899 0.008444
v 0.060254 0.002900 0.011691
v 0.061697 0.002899 0.008650
v 0.059728 0.002820 0.011339
v 0.061072 0.002813 0.010195
v 0.061097 0.002817 0.008454
v 0.060418 0.002813 0.009885
v 0.060329 0.002776 0.011760
v 0.061800 0.002774 0.008661
v 0.059795 0.002628 0.011197
v 0.060182 0.002829 0.011841
v 0.061768 0.002828 0.008499
v 0.060418 0.002640 0.009885
v 0.059861 0.001687 0.012746
v 0.062268 0.001685 0.007675
v 0.061038 0.002628 0.008578
v 0.059736 0.001740 0.012781
v 0.062215 0.001740 0.007558
v 0.061118 0.002555 0.008409
v 0.059380 0.000641 0.013760
v 0.061334 0.002828 0.008294
v 0.062753 0.000642 0.006654
v 0.061178 0.002745 0.008284
v 0.059254 0.000592 0.013797
v 0.062701 0.000592 0.006534
v 0.061502 0.001604 0.007600
v 0.059475 0.000573 0.013900
v 0.061782 0.001740 0.007350
v 0.061608 0.001701 0.007377
v 0.059301 0.001740 0.012577
v 0.062271 0.000589 0.006320
v 0.059748 0.002829 0.011634
v 0.062098 0.000602 0.006345
v 0.061911 0.000602 0.006739
v 0.059212 0.001703 0.012425
v 0.061909 0.000519 0.006740
v 0.058736 0.000602 0.013427
v 0.059645 0.002749 0.011513
v 0.062135 0.000506 0.006265
v 0.058913 0.000602 0.013056
v 0.058815 0.000589 0.013600
v 0.059325 0.001604 0.012188
v 0.059713 0.002556 0.011370
v 0.062225 0.000509 0.006196
v 0.059304 0.000513 0.013919
v 0.058911 0.000519 0.013055
v 0.058685 0.000506 0.013531
v 0.058690 0.000509 0.013643
v 0.062823 0.000513 0.006493
v 0.062922 0.000573 0.006640
v 0.059839 0.000645 0.011442
v 0.060003 0.001105 0.011098
v 0.060259 0.000662 0.011641
v 0.060274 0.000607 0.011610
v 0.060434 0.001100 0.011273
v 0.059853 0.000607 0.011410
v 0.060452 0.000683 0.011464
v 0.060189 0.001555 0.010707
v 0.060548 0.000607 0.009946
v 0.060610 0.001099 0.011134
v 0.060613 0.001535 0.010895
v 0.060969 0.000607 0.010146
v 0.061060 0.000684 0.010189
v 0.060262 0.001627 0.010553
v 0.060755 0.001515 0.010825
v 0.060685 0.001607 0.010744
v 0.060549 0.001639 0.009947
v 0.061060 0.001515 0.010189
v 0.060969 0.001617 0.010146
v 0.061269 0.001607 0.009513
v 0.060854 0.001630 0.009306
v 0.061375 0.001514 0.009518
v 0.061340 0.001534 0.009363
v 0.060926 0.001557 0.009153
v 0.061520 0.001099 0.009218
v 0.061515 0.001100 0.008994
v 0.061107 0.001106 0.008771
v 0.061672 0.000684 0.008894
v 0.061686 0.000663 0.008635
v 0.061266 0.000646 0.008436
v 0.061671 0.000607 0.008667
v 0.060969 0.000607 0.010146
v 0.061250 0.000607 0.008468
v 0.061060 0.000684 0.010189
v 0.060548 0.000607 0.009946
v 0.060418 0.001742 0.009885
v 0.060101 0.001724 0.010551
v 0.060418 0.001908 0.009885
v 0.060750 0.001727 0.009184
v 0.060048 0.001899 0.010664
v 0.060801 0.001899 0.009078
v 0.060262 0.001627 0.010553
v 0.060030 0.001636 0.010701
v 0.060821 0.001640 0.009035
v 0.060559 0.001970 0.009952
v 0.060549 0.001639 0.009947
v 0.060854 0.001630 0.009306
v 0.059966 0.001827 0.010837
v 0.060926 0.001557 0.009153
v 0.060184 0.001956 0.010742
v 0.059827 0.001144 0.011129
v 0.061107 0.001106 0.008771
v 0.060945 0.001955 0.009138
v 0.059722 0.001240 0.011350
v 0.060882 0.001826 0.008907
v 0.061020 0.001146 0.008616
v 0.059642 0.000644 0.011520
v 0.061266 0.000646 0.008436
v 0.061051 0.001857 0.008915
v 0.059501 0.000692 0.011816
v 0.061122 0.001240 0.008402
v 0.061201 0.000645 0.008234
v 0.059656 0.000607 0.011489
v 0.061187 0.000607 0.008266
v 0.061296 0.001265 0.008398
v 0.059452 0.000602 0.011920
v 0.061250 0.000607 0.008468
v 0.061347 0.000674 0.007928
v 0.059828 0.001265 0.011491
v 0.059839 0.000645 0.011442
v 0.060077 0.001857 0.010966
v 0.059853 0.000607 0.011410
v 0.061389 0.000602 0.007840
v 0.059620 0.000750 0.011929
v 0.061508 0.000733 0.007952
v 0.059958 0.001265 0.011552
v 0.059743 0.000733 0.012005
v 0.060207 0.001857 0.011027
v 0.061549 0.000631 0.007867
v 0.060004 0.001304 0.011683
v 0.060313 0.001956 0.010803
v 0.061644 0.000718 0.008001
v 0.060269 0.001934 0.011125
v 0.061678 0.000631 0.007928
v 0.060107 0.002401 0.011467
v 0.060688 0.001970 0.010013
v 0.062045 0.000631 0.007156
v 0.059751 0.001536 0.012218
v 0.061785 0.000729 0.007932
v 0.059773 0.000729 0.012171
v 0.060219 0.002482 0.011231
v 0.061556 0.001305 0.008414
v 0.060370 0.002047 0.010912
v 0.061797 0.001535 0.007908
v 0.061426 0.001265 0.008460
v 0.059429 0.000729 0.012895
v 0.060777 0.002494 0.010055
v 0.061445 0.002398 0.008649
v 0.059992 0.002477 0.011481
v 0.060688 0.002592 0.010013
v 0.062115 0.000729 0.007237
v 0.060098 0.002575 0.011257
v 0.060777 0.002068 0.010055
v 0.061750 0.001574 0.007778
v 0.059969 0.002575 0.011195
v 0.061381 0.002476 0.008553
v 0.061193 0.002047 0.009178
v 0.060559 0.002592 0.009952
v 0.061252 0.002476 0.008492
v 0.061075 0.001955 0.009199
v 0.060418 0.002640 0.009885
v 0.061620 0.001574 0.007716
v 0.061335 0.002482 0.008880
v 0.059795 0.002628 0.011197
v 0.062122 0.000631 0.006993
v 0.061277 0.002575 0.008774
v 0.061147 0.002575 0.008713
v 0.061502 0.001604 0.007600
v 0.061294 0.001935 0.008965
v 0.061118 0.002555 0.008409
v 0.061038 0.002628 0.008578
v 0.061993 0.000631 0.006931
v 0.061911 0.000602 0.006739
v 0.061180 0.001857 0.008977
v 0.061918 0.000631 0.007088
v 0.061911 0.000602 0.006739
v 0.060595 0.001704 0.011201
v 0.060329 0.002776 0.011760
v 0.060057 0.001421 0.012335
v 0.061072 0.002813 0.010195
v 0.059861 0.001687 0.012746
v 0.061072 0.001758 0.010195
v 0.059699 0.001069 0.013088
v 0.059380 0.000641 0.013760
v 0.061549 0.001704 0.009190
v 0.061800 0.002774 0.008661
v 0.062087 0.001421 0.008057
v 0.062268 0.001685 0.007675
v 0.062444 0.001071 0.007305
v 0.062753 0.000642 0.006654
v 0.060452 0.000683 0.011464
v 0.060610 0.001099 0.011134
v 0.061060 0.000684 0.010189
v 0.061072 0.001099 0.010194
v 0.061520 0.001099 0.009218
v 0.060755 0.001515 0.010825
v 0.061672 0.000684 0.008894
v 0.061060 0.001515 0.010189
v 0.061375 0.001514 0.009518
v 0.060003 0.001105 0.011098
v 0.060189 0.001555 0.010707
v 0.059713 0.002556 0.011370
v 0.059862 0.002477 0.011419
v 0.059325 0.001604 0.012188
v 0.059490 0.001574 0.012203
v 0.059114 0.000631 0.012995
v 0.058913 0.000602 0.013056
v 0.059620 0.001574 0.012265
v 0.059244 0.000631 0.013056
v 0.059312 0.000631 0.012913
v 0.059183 0.000631 0.012851
v 0.059702 0.000631 0.012091
v 0.058913 0.000602 0.013056
v 0.059573 0.000631 0.012029
vn 0.0030 1.0000 -0.0062
vn 0.0029 1.0000 -0.0063
vn -0.0028 1.0000 0.0055
vn -0.9034 -0.0000 -0.4289
vn 0.9034 -0.0000 0.4288
vn 0.9034 -0.0000 0.4289
vn -0.9034 -0.0000 -0.4288
vn 0.3087 0.6921 -0.6525
vn -0.3111 0.6918 0.6517
vn 0.9029 0.0336 0.4286
vn 0.9028 0.0286 0.4291
vn 0.3026 0.6973 -0.6498
vn -0.3111 0.6917 0.6517
vn 0.2099 0.8657 -0.4544
vn 0.1646 0.9277 -0.3350
vn 0.9033 0.0285 0.4282
vn 0.3026 0.6973 -0.6497
vn 0.1464 0.9338 -0.3264
vn 0.2641 0.9641 -0.0291
vn 0.3379 0.9274 0.1603
vn -0.3156 0.6943 0.6468
vn -0.3112 0.6918 0.6516
vn 0.3161 0.9382 0.1407
vn -0.9034 0.0001 -0.4288
vn 0.1420 0.9638 0.2258
vn 0.3208 0.9321 0.1679
vn -0.2141 0.8727 0.4388
vn -0.3112 0.6917 0.6517
vn -0.1570 0.9263 0.3424
vn 0.3518 -0.6925 -0.6298
vn 0.3517 -0.6925 -0.6299
vn 0.3329 -0.6603 -0.6731
vn 0.3517 -0.6925 -0.6298
vn 0.3343 -0.6603 -0.6725
vn 0.9062 0.0141 0.4226
vn 0.0237 0.9997 0.0113
vn 0.0477 -0.9989 0.0046
vn 0.9073 -0.0213 0.4199
vn 0.0238 0.9997 0.0112
vn 0.0481 -0.9988 0.0048
vn 0.0240 0.9997 0.0109
vn 0.9073 -0.0213 0.4200
vn 0.9004 0.0141 0.4349
vn 0.0374 -0.9988 0.0325
vn 0.8991 -0.0210 0.4372
vn 0.8991 -0.0211 0.4372
vn -0.2659 -0.6837 0.6796
vn -0.2662 -0.6837 0.6795
vn -0.3131 -0.6508 0.6917
vn 0.0238 0.9997 0.0113
vn 0.9030 0.0141 0.4295
vn 0.9039 -0.0000 0.4277
vn 0.9034 -0.0001 0.4288
vn 0.0480 -0.9988 0.0048
vn 0.0073 0.9999 -0.0152
vn 0.0374 -0.9988 0.0324
vn -0.0072 0.9999 0.0152
vn 0.0073 0.9999 -0.0153
vn 0.3330 -0.6603 -0.6731
vn -0.3061 0.7004 0.6448
vn 0.3081 0.6956 -0.6490
vn -0.3124 0.6850 0.6581
vn 0.3144 0.6802 -0.6622
vn -0.3124 0.6850 0.6582
vn 0.9029 0.0332 0.4286
vn 0.0072 0.9999 -0.0152
vn 0.9034 0.0001 0.4289
vn 0.9034 -0.0004 0.4288
vn 0.9029 0.0337 0.4286
vn -0.0000 1.0000 -0.0000
vn -0.3155 -0.6774 0.6645
vn -0.3154 -0.6775 0.6644
vn -0.3154 -0.6775 0.6645
vn -0.3106 -0.6895 0.6543
vn 0.9034 0.0001 0.4288
vn 0.3140 -0.6808 -0.6617
vn -0.0053 -0.9999 0.0113
vn 0.0053 -0.9999 -0.0110
vn 0.0053 -0.9999 -0.0111
vn -0.0054 -0.9999 0.0113
vn -0.0000 1.0000 0.0001
vn 0.3092 -0.6929 -0.6513
vn 0.3141 -0.6809 -0.6616
vn 0.3141 -0.6808 -0.6617
vn 0.9073 -0.0214 0.4199
vn 0.9004 0.0141 0.4348
vn 0.9062 0.0140 0.4226
vn 0.2541 0.6564 0.7103
vn 0.7976 0.4695 0.3786
vn 0.2540 0.6564 0.7103
vn 0.7976 0.4696 0.3786
vn -0.3410 0.6063 0.7184
vn 0.1420 0.9638 0.2257
vn -0.1630 0.9316 0.3249
vn -0.1631 0.9316 0.3249
vn -0.3410 0.6064 0.7183
vn 0.3208 0.9321 0.1678
vn -0.3410 0.6064 0.7184
vn 0.3208 0.9322 0.1678
vn -0.1660 0.9263 0.3381
vn 0.3378 0.9274 0.1604
vn 0.3379 0.9274 0.1604
vn -0.1487 0.9316 0.3318
vn 0.3372 0.9278 0.1598
vn 0.3091 0.9382 0.1560
vn -0.1660 0.9264 0.3381
vn -0.7110 0.6564 0.2522
vn -0.2647 0.9638 0.0327
vn 0.7110 0.6565 -0.2520
vn 0.3371 0.9277 0.1602
vn 0.3090 0.9382 0.1561
vn 0.3370 0.9278 0.1602
vn 0.7110 0.6565 -0.2521
vn -0.7976 0.4695 -0.3786
vn 0.1464 0.9339 -0.3263
vn -0.3089 0.9382 -0.1559
vn 0.3409 0.6066 -0.7182
vn -0.3089 0.9382 -0.1560
vn -0.7976 0.4696 -0.3786
vn -0.3328 0.9322 -0.1425
vn -0.3329 0.9322 -0.1425
vn -0.7975 0.4696 -0.3788
vn -0.3379 0.9274 -0.1604
vn 0.1555 0.9277 -0.3393
vn 0.1555 0.9277 -0.3394
vn 0.3410 0.6066 -0.7182
vn -0.3370 0.9278 -0.1602
vn -0.3373 0.9277 -0.1598
vn 0.3410 0.6065 -0.7182
vn -0.3372 0.9278 -0.1598
vn -0.2542 0.6565 -0.7103
vn -0.3163 0.9382 -0.1408
vn -0.2542 0.6565 -0.7102
vn 0.1603 0.9338 -0.3198
vn -0.2542 0.6564 -0.7102
vn -0.1444 0.9641 -0.2230
vn -0.3163 0.9382 -0.1407
vn 0.3090 0.9382 0.1560
vn 0.9029 0.0333 0.4286
vn 0.2641 0.9641 -0.0290
vn 0.1464 0.9338 -0.3263
vn 0.3378 0.9275 0.1602
vn 0.3378 0.9275 0.1604
vn 0.1646 0.9277 -0.3349
vn 0.1647 0.9277 -0.3350
vn 0.1554 0.9277 -0.3393
vn 0.3409 0.6067 -0.7182
vn -0.1570 0.9264 0.3424
vn 0.1603 0.9339 -0.3197
vn -0.1486 0.9316 0.3317
vn -0.3372 0.9278 -0.1599
vn -0.9029 0.0337 -0.4286
vn -0.9029 0.0336 -0.4286
vn -0.9029 0.0333 -0.4286
vn -0.3377 0.9275 -0.1605
vn -0.9029 0.0332 -0.4286
vn -0.3378 0.9275 -0.1603
vn -0.0238 0.9997 -0.0113
vn -0.3329 0.9322 -0.1424
vn -0.3328 0.9322 -0.1424
vn -0.2046 0.8727 0.4433
vn 0.2193 0.8657 -0.4499
vn 0.2194 0.8657 -0.4499
vn 0.1554 0.9277 -0.3394
vn -0.0025 1.0000 0.0056
vn -0.3082 0.6918 0.6531
vn 0.3104 0.6921 -0.6517
vn -0.3082 0.6917 0.6531
vn 0.3104 0.6921 -0.6516
vn 0.3103 0.6921 -0.6517
vn -0.3016 0.6943 0.6534
vn 0.3121 0.6973 -0.6452
vn -0.3082 0.6918 0.6530
vn -0.9028 0.0286 -0.4291
vn -0.3379 0.9274 -0.1603
vn -0.9032 0.0286 -0.4282
vn -0.1444 0.9641 -0.2229
vn -0.3329 0.9321 -0.1424
vn 0.2194 0.8657 -0.4500
vn 0.3110 -0.6604 -0.6835
vn 0.2656 -0.6925 -0.6707
vn 0.3111 -0.6603 -0.6835
vn -0.0237 0.9997 -0.0113
vn -0.9003 0.0141 -0.4350
vn 0.2665 -0.6926 -0.6703
vn -0.8990 -0.0213 -0.4375
vn -0.9030 0.0141 -0.4294
vn -0.0341 -0.9988 -0.0342
vn -0.0488 -0.9988 -0.0085
vn -0.9072 -0.0211 -0.4202
vn -0.0489 -0.9988 -0.0085
vn -0.0489 -0.9988 -0.0084
vn -0.0505 -0.9987 -0.0093
vn -0.9072 -0.0211 -0.4203
vn -0.3585 -0.6837 0.6357
vn -0.3584 -0.6837 0.6357
vn -0.9062 0.0142 -0.4227
vn -0.3379 -0.6508 0.6799
vn -0.3373 -0.6508 0.6802
vn -0.0237 0.9997 -0.0112
vn -0.0240 0.9997 -0.0108
vn -0.0238 0.9997 -0.0112
vn -0.9061 0.0141 -0.4227
vn -0.9034 -0.0001 -0.4288
vn -0.3585 -0.6836 0.6357
vn 0.0072 0.9999 -0.0153
vn -0.9034 -0.0004 -0.4289
vn -0.3380 -0.6508 0.6799
vn 0.3081 0.6956 -0.6491
vn 0.3143 0.6802 -0.6622
vn -0.3125 0.6850 0.6581
vn 0.3110 -0.6603 -0.6836
vn 0.3143 0.6802 -0.6623
vn -0.0001 1.0000 -0.0000
vn 0.3143 0.6801 -0.6623
vn 0.3092 -0.6929 -0.6514
vn -0.0054 -0.9999 0.0112
vn 0.0052 -0.9999 -0.0111
vn -0.3155 -0.6775 0.6644
vn -0.3153 -0.6775 0.6645
vn -0.3154 -0.6774 0.6645
vn -0.9029 0.0336 -0.4285
vn -0.9004 0.0141 -0.4349
vn -0.8990 -0.0214 -0.4375
vn -0.9062 0.0141 -0.4227
vn 0.2656 -0.6925 -0.6708
vn 0.2657 -0.6925 -0.6708
vn 0.3142 -0.6808 -0.6617
vn -0.9029 0.0335 -0.4286
vn 0.3140 -0.6809 -0.6617
vn -0.9028 0.0337 -0.4287
vt 0.936174 0.653025
vt 0.975592 0.653045
vt 0.936174 0.787702
vt 0.975592 0.787681
vt 0.983644 0.653045
vt 0.936174 0.520275
vt 0.924743 0.787679
vt 0.924743 0.653008
vt 0.909200 0.787604
vt 0.975592 0.520247
vt 0.924743 0.803478
vt 0.909200 0.653008
vt 0.983552 0.512639
vt 0.909200 0.803488
vt 0.909200 0.520167
vt 0.975592 0.505071
vt 0.909200 0.890016
vt 0.936174 0.803476
vt 0.924743 0.520251
vt 0.983656 0.417099
vt 0.924743 0.890016
vt 0.909200 0.505065
vt 0.975592 0.417099
vt 0.909200 0.981971
vt 0.924743 0.505075
vt 0.983644 0.331670
vt 0.924743 0.981953
vt 0.909200 0.417099
vt 0.975594 0.323543
vt 0.936174 0.890016
vt 0.924743 0.417099
vt 0.991697 0.323543
vt 0.909200 0.323528
vt 0.983132 0.315623
vt 0.936174 0.505076
vt 0.924743 0.323555
vt 0.936174 0.323541
vt 0.936174 0.417099
vt 0.936174 0.315623
vt 0.924743 0.315623
vt 0.909200 0.315623
vt 0.936174 0.981975
vt 0.975594 0.981995
vt 0.975593 0.890016
vt 0.924743 0.991640
vt 0.983644 0.976996
vt 0.936174 0.991640
vt 0.909200 0.991640
vt 0.991697 0.981995
vt 0.975592 0.803482
vt 0.983663 0.890016
vt 0.983610 0.991640
vt 0.983568 0.795570
vt 0.847807 0.820528
vt 0.888051 0.823595
vt 0.847807 0.874599
vt 0.888051 0.773944
vt 0.888051 0.872782
vt 0.847807 0.761920
vt 0.832723 0.883054
vt 0.847807 0.879612
vt 0.888051 0.754424
vt 0.832723 0.804617
vt 0.888051 0.881367
vt 0.847807 0.753455
vt 0.847807 0.988356
vt 0.888051 0.988356
vt 0.832723 0.750683
vt 0.832723 0.988356
vt 0.888051 0.677477
vt 0.832723 0.677477
vt 0.847807 0.677477
vt 0.847807 0.597126
vt 0.888051 0.596028
vt 0.832723 0.600107
vt 0.847807 0.588912
vt 0.888051 0.576632
vt 0.832723 0.546874
vt 0.847807 0.531282
vt 0.888051 0.528183
vt 0.832723 0.468900
vt 0.847807 0.477236
vt 0.888051 0.480152
vt 0.847807 0.471363
vt 0.847807 0.360962
vt 0.888051 0.471351
vt 0.832723 0.360962
vt 0.888051 0.360962
vt 0.432324 0.135381
vt 0.432340 0.152579
vt 0.363681 0.138599
vt 0.506044 0.134792
vt 0.350156 0.156805
vt 0.371235 0.124821
vt 0.518766 0.152568
vt 0.346727 0.126981
vt 0.432323 0.120740
vt 0.432305 0.161966
vt 0.356084 0.115474
vt 0.498703 0.120938
vt 0.347138 0.164370
vt 0.316875 0.066976
vt 0.522932 0.125617
vt 0.331228 0.147517
vt 0.521324 0.160257
vt 0.537464 0.145635
vt 0.302068 0.074067
vt 0.344051 0.173972
vt 0.265096 0.003778
vt 0.559184 0.076887
vt 0.321827 0.151736
vt 0.432229 0.172703
vt 0.585754 0.087232
vt 0.313866 0.160038
vt 0.546296 0.149845
vt 0.544426 0.069769
vt 0.251795 0.095524
vt 0.599101 0.091278
vt 0.591983 0.004176
vt 0.261695 0.088048
vt 0.553919 0.157929
vt 0.619750 0.004176
vt 0.274618 0.084563
vt 0.609736 0.099123
vt 0.615705 -0.010403
vt 0.524319 0.170150
vt 0.667020 0.002799
vt 0.533711 0.180270
vt 0.237315 0.003778
vt 0.680963 -0.010403
vt 0.673085 0.014484
vt 0.241256 -0.010802
vt 0.432183 0.183346
vt 0.687902 0.003416
vt 0.268503 -0.010802
vt 0.682071 0.024148
vt 0.839839 0.004256
vt 0.191663 0.004621
vt 0.334122 0.184131
vt 0.876270 -0.010323
vt 0.859244 0.012547
vt 0.429517 0.257526
vt 0.175212 -0.010802
vt 0.305250 0.169244
vt 0.845230 0.017267
vt 0.186327 0.015450
vt 0.732842 0.153620
vt 0.169277 0.002410
vt 0.740859 0.158422
vt 0.020262 0.004376
vt 0.633064 0.264748
vt 0.880713 0.007410
vt 0.178442 0.024101
vt 0.638323 0.277099
vt 0.725064 0.146615
vt 0.238818 0.099787
vt 0.167765 0.015299
vt 0.822493 0.026273
vt 0.025232 0.013098
vt 0.243383 0.247535
vt 0.624392 0.255523
vt -0.025634 0.007893
vt 0.274340 0.253583
vt 0.714591 0.142766
vt 0.036439 0.029278
vt 0.696048 0.028321
vt 0.163552 0.026651
vt 0.623083 0.103794
vt 0.140791 0.138888
vt 0.429467 0.270067
vt 0.616448 0.245893
vt 0.589976 0.257683
vt 0.562078 0.167333
vt 0.264237 0.265593
vt 0.599582 0.269456
vt 0.261323 0.278683
vt 0.429488 0.282813
vt 0.690701 0.016709
vt 0.429504 0.293427
vt 0.250328 0.290327
vt 0.602518 0.282495
vt 0.831336 0.014202
vt 0.226647 0.266198
vt 0.613311 0.294154
vt 0.220986 0.278915
vt 0.095497 0.163526
vt 0.235251 0.256817
vt 0.105339 0.156985
vt -0.037354 0.014629
vt 0.115028 0.147742
vt -0.008454 0.012424
vt -0.031976 -0.006958
vt 0.588491 -0.010403
vt 0.663928 0.293480
vt 0.573957 0.383234
vt 0.626376 0.269955
vt 0.695121 0.240963
vt 0.756492 0.205661
vt 0.522866 0.289965
vt 0.431090 0.386289
vt 0.431090 0.297791
vt 0.339352 0.289973
vt 0.291066 0.383067
vt 0.235886 0.269979
vt 0.201044 0.293258
vt 0.167237 0.241072
vt 0.107802 0.205758
vt 0.919559 0.164393
vt 0.919552 0.272944
vt 0.876445 0.164474
vt 0.919559 0.053018
vt 0.876445 0.310951
vt 0.962654 0.237538
vt 0.876445 0.015862
vt 0.962654 0.164474
vt 0.962654 0.087570
vt 0.796697 0.986825
vt 0.755083 0.986825
vt 0.791960 0.977321
vt 0.801325 0.967620
vt 0.754953 0.977379
vt 0.811373 0.972383
vt 0.798791 0.966418
vt 0.716664 0.986825
vt 0.811373 0.934829
vt 0.791279 0.973947
vt 0.716664 0.977309
vt 0.801554 0.934735
vt 0.782357 0.974600
vt 0.610087 0.986825
vt 0.811373 0.878332
vt 0.758107 0.974557
vt 0.610087 0.977305
vt 0.798842 0.958058
vt 0.801490 0.878344
vt 0.754914 0.974551
vt 0.418773 0.986825
vt 0.811373 0.733824
vt 0.798986 0.934711
vt 0.798974 0.936664
vt 0.418773 0.977300
vt 0.801488 0.733907
vt 0.798913 0.879836
vt 0.719227 0.974475
vt 0.226530 0.977305
vt 0.801490 0.878345
vt 0.798911 0.878348
vt 0.716664 0.974470
vt 0.226530 0.986825
vt 0.798908 0.733929
vt 0.123326 0.977309
vt 0.611933 0.974464
vt 0.123326 0.986825
vt 0.123326 0.974470
vt 0.610087 0.974464
vt 0.085000 0.977378
vt 0.418764 0.974458
vt 0.085041 0.974550
vt 0.798913 0.879836
vt 0.801325 0.967620
vt 0.084860 0.986825
vt 0.120723 0.974475
vt 0.047320 0.977347
vt 0.226530 0.974464
vt 0.798974 0.936664
vt 0.057151 0.974624
vt 0.081883 0.974558
vt 0.042586 0.986825
vt 0.224643 0.974464
vt 0.037949 0.967640
vt 0.027880 0.972390
vt 0.040487 0.966442
vt 0.791279 0.973947
vt 0.027880 0.934828
vt 0.048067 0.974042
vt 0.037710 0.934735
vt 0.040433 0.958170
vt 0.027880 0.878332
vt 0.040293 0.936652
vt 0.037775 0.878344
vt 0.719227 0.974475
vt 0.027880 0.733824
vt 0.037781 0.733907
vt 0.418773 0.977300
vt 0.611933 0.974464
vt 0.040357 0.878348
vt 0.037775 0.878344
vt 0.226530 0.977305
vt 0.040364 0.733929
vt 0.418773 0.974458
vt 0.123326 0.977309
vt 0.224643 0.974464
vt 0.085000 0.977378
vt 0.037949 0.967640
vt 0.120723 0.974475
vt 0.047320 0.977347
vt 0.123326 0.941902
vt 0.123326 0.932497
vt 0.226530 0.941902
vt 0.123326 0.966720
vt 0.226530 0.932496
vt 0.085238 0.966704
vt 0.226530 0.966716
vt 0.266683 0.932495
vt 0.085861 0.941902
vt 0.418771 0.941902
vt 0.056397 0.967843
vt 0.418772 0.966704
vt 0.418771 0.932142
vt 0.077709 0.934090
vt 0.610087 0.966716
vt 0.279864 0.924203
vt 0.048307 0.959645
vt 0.569478 0.932489
vt 0.610087 0.941902
vt 0.418770 0.924439
vt 0.049354 0.934561
vt 0.556238 0.924199
vt 0.716664 0.966720
vt 0.077709 0.878921
vt 0.610087 0.932489
vt 0.716664 0.941902
vt 0.049153 0.878483
vt 0.716664 0.932487
vt 0.754748 0.966705
vt 0.077709 0.733839
vt 0.040355 0.880022
vt 0.040280 0.934711
vt 0.754223 0.941902
vt 0.049406 0.733907
vt 0.783038 0.967806
vt 0.049153 0.878483
vt 0.762235 0.934092
vt 0.790978 0.959510
vt 0.049354 0.934560
vt 0.789899 0.934558
vt 0.762235 0.878437
vt 0.048307 0.959645
vt 0.790164 0.878369
vt 0.056397 0.967843
vt 0.762235 0.733839
vt 0.790025 0.733907
vt 0.790164 0.878369
vt 0.123326 0.966720
vt 0.226530 0.966716
vt 0.716664 0.966720
vt 0.026966 0.966455
vt 0.011974 0.966366
vt 0.026966 0.499552
vt 0.011974 0.499552
vt 0.026966 0.032649
vt 0.011974 0.032737
vt 0.513678 0.113964
vt 0.026578 0.499552
vt 0.026578 0.966365
vt 0.011672 0.499552
vt 0.011672 0.966455
vt 0.026578 0.032738
vt 0.011672 0.032649
s 1
g GUI_Map_BridgeBlue_GUI_Map_Bridge3_GUI_Map_Bridge3
usemtl GUI_Map_Bridge3
f 1/1/1 2/2/2 3/3/3
f 3/3/3 2/2/2 4/4/3
f 5/5/4 4/4/3 2/2/2
f 6/6/1 2/2/2 1/1/1
f 3/3/3 7/7/5 1/1/1
f 1/1/1 7/7/5 8/8/6
f 9/9/5 8/8/6 7/7/5
f 2/2/2 10/10/2 5/5/4
f 10/10/2 2/2/2 6/6/1
f 7/7/5 3/3/3 11/11/5
f 12/12/5 8/8/6 9/9/5
f 5/5/4 10/10/2 13/13/7
f 9/9/5 7/7/5 14/14/5
f 14/14/5 7/7/5 11/11/5
f 12/12/5 15/15/5 8/8/6
f 13/13/7 10/10/2 16/16/8
f 11/11/5 17/17/5 14/14/5
f 11/11/5 3/3/3 18/18/9
f 8/8/6 15/15/5 19/19/5
f 13/13/7 16/16/8 20/20/7
f 21/21/5 17/17/5 11/11/5
f 11/11/5 18/18/9 21/21/5
f 22/22/5 19/19/5 15/15/5
f 20/20/7 16/16/8 23/23/8
f 21/21/5 24/24/10 17/17/5
f 25/25/5 19/19/5 22/22/5
f 20/20/7 23/23/8 26/26/7
f 27/27/11 24/24/10 21/21/5
f 28/28/5 25/25/5 22/22/5
f 25/25/5 6/6/1 19/19/5
f 26/26/7 23/23/8 29/29/12
f 21/21/5 30/30/13 27/27/11
f 31/31/5 25/25/5 28/28/5
f 32/32/14 26/26/7 29/29/12
f 21/21/5 18/18/9 30/30/13
f 33/33/10 31/31/5 28/28/5
f 34/34/15 32/32/14 29/29/12
f 31/31/5 35/35/8 25/25/5
f 35/35/8 6/6/1 25/25/5
f 36/36/16 31/31/5 33/33/10
f 29/29/12 37/37/17 34/34/15
f 38/38/8 35/35/8 31/31/5
f 35/35/8 10/10/2 6/6/1
f 37/37/17 38/38/8 36/36/16
f 37/37/17 29/29/12 38/38/8
f 34/34/15 37/37/17 39/39/18
f 36/36/16 38/38/8 31/31/5
f 16/16/8 10/10/2 35/35/8
f 38/38/8 29/29/12 23/23/8
f 39/39/18 37/37/17 40/40/19
f 35/35/8 23/23/8 16/16/8
f 40/40/19 37/37/17 36/36/16
f 38/38/8 23/23/8 35/35/8
f 41/41/20 36/36/16 33/33/10
f 1/1/1 19/19/5 6/6/1
f 40/40/19 36/36/16 41/41/20
f 8/8/6 19/19/5 1/1/1
f 42/42/21 30/30/13 43/43/21
f 27/27/11 30/30/13 42/42/21
f 43/43/21 30/30/13 44/44/22
f 42/42/21 45/45/23 27/27/11
f 44/44/22 46/46/24 43/43/21
f 30/30/13 18/18/9 44/44/22
f 47/47/25 45/45/23 42/42/21
f 48/48/26 27/27/11 45/45/23
f 46/46/24 49/49/27 43/43/21
f 44/44/22 18/18/9 50/50/28
f 24/24/10 27/27/11 48/48/26
f 51/51/7 46/46/24 44/44/22
f 52/52/29 42/42/21 43/43/21
f 50/50/28 51/51/7 44/44/22
f 49/49/27 52/52/29 43/43/21
f 47/47/25 42/42/21 52/52/29
f 50/50/28 18/18/9 4/4/3
f 53/53/7 51/51/7 50/50/28
f 53/53/7 50/50/28 4/4/3
f 4/4/3 18/18/9 3/3/3
f 53/53/7 4/4/3 5/5/4
f 54/54/30 55/55/31 56/56/32
f 55/55/31 54/54/30 57/57/33
f 56/56/32 55/55/31 58/58/34
f 57/57/33 54/54/30 59/59/30
f 60/60/35 54/54/30 56/56/32
f 58/58/34 61/61/36 56/56/32
f 61/61/36 60/60/35 56/56/32
f 57/57/33 59/59/30 62/62/37
f 63/63/38 54/54/30 60/60/35
f 64/64/39 61/61/36 58/58/34
f 63/63/38 59/59/30 54/54/30
f 62/62/37 59/59/30 65/65/40
f 61/61/36 66/66/41 60/60/35
f 64/64/39 67/67/36 61/61/36
f 68/68/42 59/59/30 63/63/38
f 65/65/40 59/59/30 68/68/42
f 61/61/36 67/67/36 66/66/41
f 60/60/35 66/66/41 69/69/43
f 65/65/40 70/70/44 62/62/37
f 71/71/45 65/65/40 68/68/42
f 72/72/44 70/70/44 65/65/40
f 72/72/44 65/65/40 71/71/45
f 72/72/44 73/73/44 70/70/44
f 71/71/45 73/73/44 72/72/44
f 70/70/44 73/73/44 74/74/44
f 75/75/46 73/73/44 71/71/45
f 73/73/44 76/76/47 74/74/44
f 76/76/47 73/73/44 75/75/46
f 74/74/44 76/76/47 77/77/48
f 78/78/46 76/76/47 75/75/46
f 76/76/47 79/79/47 77/77/48
f 79/79/47 76/76/47 78/78/46
f 77/77/48 79/79/47 80/80/47
f 81/81/43 79/79/47 78/78/46
f 82/82/49 80/80/47 79/79/47
f 82/82/49 79/79/47 81/81/43
f 83/83/49 80/80/47 82/82/49
f 82/82/49 81/81/43 84/84/39
f 82/82/49 84/84/39 83/83/49
f 84/84/39 81/81/43 85/85/50
f 83/83/49 84/84/39 86/86/36
f 85/85/50 81/81/43 87/87/51
f 86/86/36 84/84/39 88/88/36
f 88/88/36 84/84/39 85/85/50
f 89/89/52 90/90/5 91/91/5
f 89/89/52 92/92/53 90/90/5
f 91/91/5 90/90/5 93/93/6
f 91/91/5 94/94/54 89/89/52
f 90/90/5 92/92/53 95/95/53
f 91/91/5 93/93/6 96/96/5
f 89/89/52 94/94/54 97/97/44
f 90/90/5 98/98/55 93/93/6
f 95/95/53 98/98/55 90/90/5
f 94/94/54 91/91/5 99/99/31
f 99/99/31 91/91/5 96/96/5
f 97/97/44 100/100/56 89/89/52
f 89/89/52 100/100/56 92/92/53
f 93/93/6 98/98/55 101/101/57
f 99/99/31 96/96/5 102/102/31
f 103/103/5 95/95/53 92/92/53
f 96/96/5 93/93/6 104/104/5
f 93/93/6 101/101/57 104/104/5
f 105/105/58 98/98/55 95/95/53
f 106/106/5 95/95/53 103/103/5
f 104/104/5 107/107/5 96/96/5
f 102/102/31 96/96/5 107/107/5
f 106/106/5 105/105/58 95/95/53
f 101/101/57 98/98/55 108/108/57
f 102/102/31 107/107/5 109/109/59
f 110/110/5 106/106/5 103/103/5
f 104/104/5 101/101/57 111/111/60
f 108/108/57 98/98/55 112/112/58
f 98/98/55 105/105/58 112/112/58
f 113/113/5 106/106/5 110/110/5
f 111/111/60 101/101/57 114/114/60
f 114/114/60 101/101/57 108/108/57
f 115/115/61 105/105/58 106/106/5
f 113/113/5 115/115/61 106/106/5
f 110/110/5 103/103/5 116/116/47
f 117/117/62 111/111/60 114/114/60
f 118/118/63 115/115/61 113/113/5
f 119/119/49 110/110/5 116/116/47
f 120/120/64 111/111/60 117/117/62
f 115/115/61 118/118/63 121/121/61
f 122/122/6 110/110/5 119/119/49
f 122/122/6 113/113/5 110/110/5
f 123/123/5 111/111/60 120/120/64
f 121/121/61 118/118/63 124/124/63
f 122/122/6 119/119/49 125/125/65
f 104/104/5 111/111/60 123/123/5
f 126/126/66 115/115/61 121/121/61
f 125/125/65 127/127/5 122/122/6
f 127/127/5 118/118/63 113/113/5
f 123/123/5 107/107/5 104/104/5
f 126/126/66 121/121/61 128/128/67
f 127/127/5 113/113/5 122/122/6
f 107/107/5 123/123/5 129/129/68
f 105/105/58 115/115/61 126/126/66
f 130/130/69 127/127/5 125/125/65
f 109/109/59 107/107/5 129/129/68
f 112/112/58 105/105/58 126/126/66
f 130/130/69 131/131/63 127/127/5
f 132/132/10 109/109/59 129/129/68
f 112/112/58 126/126/66 133/133/5
f 134/134/70 131/131/63 130/130/69
f 135/135/36 109/109/59 132/132/10
f 112/112/58 133/133/5 108/108/57
f 131/131/63 134/134/70 136/136/63
f 130/130/69 137/137/70 134/134/70
f 138/138/68 132/132/10 129/129/68
f 108/108/57 133/133/5 139/139/5
f 140/140/10 137/137/70 130/130/69
f 129/129/68 123/123/5 138/138/68
f 108/108/57 139/139/5 114/114/60
f 140/140/10 141/141/71 137/137/70
f 133/133/5 142/142/5 139/139/5
f 143/143/69 132/132/10 138/138/68
f 114/114/60 139/139/5 144/144/5
f 141/141/71 145/145/72 137/137/70
f 138/138/68 146/146/64 143/143/69
f 114/114/60 144/144/5 117/117/62
f 141/141/71 147/147/73 145/145/72
f 138/138/68 120/120/64 146/146/64
f 143/143/69 146/146/64 148/148/70
f 120/120/64 117/117/62 146/146/64
f 147/147/73 141/141/71 149/149/5
f 123/123/5 120/120/64 138/138/68
f 148/148/70 150/150/70 143/143/69
f 149/149/5 151/151/74 147/147/73
f 149/149/5 141/141/71 152/152/10
f 146/146/64 117/117/62 153/153/64
f 146/146/64 153/153/64 148/148/70
f 154/154/6 151/151/74 149/149/5
f 147/147/73 151/151/74 155/155/73
f 117/117/62 156/156/75 153/153/64
f 148/148/70 157/157/70 150/150/70
f 145/145/72 147/147/73 155/155/73
f 117/117/62 144/144/5 156/156/75
f 148/148/70 153/153/64 157/157/70
f 155/155/73 158/158/6 145/145/72
f 150/150/70 157/157/70 159/159/70
f 144/144/5 160/160/5 156/156/75
f 155/155/73 151/151/74 161/161/74
f 150/150/70 159/159/70 162/162/76
f 160/160/5 144/144/5 163/163/5
f 161/161/74 164/164/5 155/155/73
f 164/164/5 158/158/6 155/155/73
f 157/157/70 165/165/5 159/159/70
f 163/163/5 144/144/5 139/139/5
f 164/164/5 166/166/5 158/158/6
f 167/167/5 165/165/5 157/157/70
f 139/139/5 142/142/5 163/163/5
f 168/168/5 166/166/5 164/164/5
f 165/165/5 167/167/5 169/169/5
f 153/153/64 167/167/5 157/157/70
f 142/142/5 170/170/77 163/163/5
f 164/164/5 171/171/5 168/168/5
f 153/153/64 156/156/75 167/167/5
f 169/169/5 167/167/5 156/156/75
f 142/142/5 172/172/5 170/170/77
f 168/168/5 171/171/5 173/173/5
f 156/156/75 160/160/5 169/169/5
f 142/142/5 128/128/67 172/172/5
f 173/173/5 124/124/63 168/168/5
f 171/171/5 172/172/5 173/173/5
f 163/163/5 174/174/78 160/160/5
f 173/173/5 172/172/5 128/128/67
f 163/163/5 170/170/77 174/174/78
f 124/124/63 136/136/63 168/168/5
f 128/128/67 121/121/61 173/173/5
f 170/170/77 172/172/5 175/175/77
f 121/121/61 124/124/63 173/173/5
f 172/172/5 171/171/5 175/175/77
f 168/168/5 136/136/63 166/166/5
f 170/170/77 176/176/79 174/174/78
f 124/124/63 131/131/63 136/136/63
f 175/175/77 177/177/77 170/170/77
f 166/166/5 136/136/63 178/178/70
f 177/177/77 176/176/79 170/170/77
f 118/118/63 131/131/63 124/124/63
f 178/178/70 158/158/6 166/166/5
f 179/179/53 176/176/79 177/177/77
f 131/131/63 118/118/63 127/127/5
f 136/136/63 134/134/70 178/178/70
f 180/180/5 176/176/79 179/179/53
f 177/177/77 181/181/80 179/179/53
f 181/181/80 177/177/77 175/175/77
f 182/182/81 158/158/6 178/178/70
f 134/134/70 182/182/81 178/178/70
f 180/180/5 183/183/82 176/176/79
f 179/179/53 181/181/80 184/184/6
f 137/137/70 182/182/81 134/134/70
f 185/185/5 183/183/82 180/180/5
f 176/176/79 183/183/82 174/174/78
f 181/181/80 151/151/74 184/184/6
f 137/137/70 145/145/72 182/182/81
f 145/145/72 158/158/6 182/182/81
f 186/186/5 183/183/82 185/185/5
f 184/184/6 151/151/74 154/154/6
f 151/151/74 181/181/80 161/161/74
f 174/174/78 183/183/82 187/187/82
f 188/188/83 183/183/82 186/186/5
f 183/183/82 188/188/83 187/187/82
f 161/161/74 181/181/80 175/175/77
f 160/160/5 174/174/78 187/187/82
f 186/186/5 162/162/76 188/188/83
f 175/175/77 171/171/5 161/161/74
f 160/160/5 187/187/82 169/169/5
f 189/189/69 162/162/76 186/186/5
f 187/187/82 188/188/83 190/190/83
f 171/171/5 164/164/5 161/161/74
f 169/169/5 187/187/82 190/190/83
f 188/188/83 162/162/76 190/190/83
f 169/169/5 190/190/83 165/165/5
f 190/190/83 162/162/76 191/191/84
f 165/165/5 190/190/83 191/191/84
f 162/162/76 159/159/70 191/191/84
f 159/159/70 165/165/5 191/191/84
f 192/192/69 150/150/70 162/162/76
f 143/143/69 150/150/70 192/192/69
f 125/125/65 119/119/49 193/193/39
f 194/194/7 195/195/7 196/196/7
f 197/197/24 194/194/7 196/196/7
f 197/197/24 198/198/24 194/194/7
f 196/196/7 195/195/7 199/199/7
f 195/195/7 200/200/7 199/199/7
f 199/199/7 200/200/7 201/201/7
f 201/201/7 200/200/7 202/202/7
f 202/202/7 200/200/7 203/203/7
f 203/203/7 204/204/7 202/202/7
f 205/205/7 204/204/7 203/203/7
f 206/206/4 204/204/7 205/205/7
f 206/206/4 205/205/7 207/207/4
f 208/208/46 209/209/85 210/210/86
f 208/208/46 210/210/86 211/211/46
f 210/210/86 209/209/85 212/212/87
f 209/209/85 208/208/46 213/213/85
f 211/211/46 210/210/86 214/214/86
f 213/213/85 208/208/46 215/215/46
f 216/216/46 208/208/46 211/211/46
f 215/215/46 208/208/46 216/216/46
f 217/217/88 218/218/89 219/219/88
f 219/219/88 220/220/90 217/217/88
f 219/219/88 218/218/89 221/221/91
f 217/217/88 220/220/90 222/222/90
f 220/220/90 219/219/88 223/223/25
f 224/224/89 221/221/91 218/218/89
f 222/222/90 220/220/90 225/225/92
f 223/223/25 219/219/88 226/226/23
f 227/227/91 221/221/91 224/224/89
f 225/225/92 220/220/90 228/228/92
f 221/221/91 229/229/23 219/219/88
f 230/230/91 227/227/91 224/224/89
f 225/225/92 228/228/92 231/231/92
f 232/232/23 229/229/23 221/221/91
f 233/233/91 227/227/91 230/230/91
f 234/234/93 228/228/92 220/220/90
f 231/231/92 228/228/92 235/235/92
f 221/221/91 227/227/91 236/236/23
f 230/230/91 237/237/91 233/233/91
f 231/231/92 235/235/92 238/238/92
f 239/239/94 235/235/92 228/228/92
f 240/240/95 228/228/92 234/234/93
f 233/233/91 237/237/91 241/241/91
f 238/238/92 235/235/92 242/242/96
f 243/243/29 235/235/92 239/239/94
f 236/236/23 227/227/91 244/244/97
f 241/241/91 237/237/91 245/245/91
f 242/242/96 246/246/98 238/238/92
f 235/235/92 247/247/29 242/242/96
f 227/227/91 233/233/91 248/248/99
f 245/245/91 237/237/91 249/249/91
f 238/238/92 246/246/98 250/231/92
f 242/242/96 247/247/29 251/250/100
f 249/249/91 252/251/91 245/245/91
f 248/248/99 233/233/91 253/252/101
f 251/250/100 254/247/100 242/242/96
f 242/242/96 254/247/100 246/246/98
f 255/253/91 252/251/91 249/249/91
f 252/251/91 256/254/102 245/245/91
f 246/246/98 257/228/92 250/231/92
f 233/233/91 241/241/91 258/255/101
f 255/253/91 259/256/91 252/251/91
f 246/246/98 260/239/103 257/228/92
f 250/231/92 257/228/92 261/225/92
f 258/255/101 241/241/91 262/257/104
f 259/256/91 263/258/105 252/251/91
f 264/259/106 260/239/103 246/246/98
f 257/228/92 265/260/107 261/225/92
f 266/261/89 259/256/91 255/253/91
f 252/251/91 263/258/105 267/262/102
f 257/228/92 268/234/108 265/260/107
f 266/261/89 269/263/109 259/256/91
f 261/225/92 265/260/107 270/222/107
f 241/241/91 271/264/110 262/257/104
f 272/265/103 268/234/108 257/228/92
f 273/266/19 259/256/91 269/263/109
f 245/245/91 271/264/110 241/241/91
f 270/222/107 265/260/107 274/217/107
f 275/267/111 259/256/91 273/266/19
f 276/268/109 269/263/109 266/261/89
f 245/245/91 256/254/102 277/269/112
f 274/217/107 265/260/107 278/219/107
f 276/268/109 279/270/113 269/263/109
f 274/217/107 278/219/107 280/218/114
f 281/223/108 278/219/107 265/260/107
f 282/271/113 279/270/113 276/268/109
f 279/270/113 283/272/115 269/263/109
f 280/218/114 278/219/107 284/221/114
f 285/273/116 278/219/107 281/223/108
f 282/271/113 286/274/117 279/270/113
f 269/263/109 283/272/115 287/275/19
f 284/221/114 288/224/114 280/218/114
f 289/229/118 284/221/114 278/219/107
f 279/270/113 286/274/117 290/276/117
f 291/227/119 288/224/114 284/221/114
f 292/232/118 284/221/114 289/229/118
f 290/276/117 293/277/18 279/270/113
f 286/274/117 294/278/117 290/276/117
f 291/227/119 295/230/119 288/224/114
f 284/221/114 296/236/118 291/227/119
f 297/279/18 293/277/18 290/276/117
f 290/276/117 294/278/117 298/280/117
f 299/233/119 295/230/119 291/227/119
f 291/227/119 296/236/118 300/281/120
f 294/278/117 301/282/117 298/280/117
f 295/230/119 299/233/119 302/237/119
f 291/227/119 303/248/121 299/233/119
f 298/280/117 301/282/117 304/283/117
f 302/237/119 299/233/119 305/284/122
f 299/233/119 303/248/121 306/285/123
f 304/283/117 307/286/15 298/280/117
f 301/282/117 308/287/117 304/283/117
f 305/284/122 309/288/119 302/237/119
f 299/233/119 310/255/123 305/284/122
f 311/289/124 307/286/15 304/283/117
f 312/278/117 308/287/117 301/282/117
f 302/237/119 309/288/119 313/249/119
f 311/289/124 304/283/117 314/286/125
f 312/278/117 315/276/126 308/287/117
f 305/284/122 310/255/123 316/290/127
f 317/291/114 313/249/119 309/288/119
f 314/286/125 304/283/117 308/287/117
f 309/288/119 305/284/122 318/264/128
f 318/264/128 305/284/122 316/290/127
f 319/253/119 313/249/119 317/291/114
f 320/274/129 315/276/126 312/278/117
f 317/291/114 309/288/119 321/254/123
f 321/254/123 309/288/119 322/292/130
f 317/291/114 323/293/119 319/253/119
f 320/274/129 324/294/131 315/276/126
f 323/293/119 317/291/114 325/258/132
f 325/258/132 317/291/114 326/295/123
f 319/253/119 323/293/119 327/261/114
f 328/271/133 324/294/131 320/274/129
f 329/277/134 315/276/126 324/294/131
f 330/279/134 315/276/126 329/277/134
f 323/293/119 331/296/133 327/261/114
f 328/271/133 332/268/135 324/294/131
f 327/261/114 331/296/133 332/268/135
f 324/294/131 332/268/135 331/296/133
f 323/293/119 333/266/136 331/296/133
f 334/267/137 333/266/136 323/293/119
f 331/296/133 335/272/134 324/294/131
f 336/275/136 335/272/134 331/296/133
f 337/297/102 338/298/10 339/299/112
f 339/299/112 340/300/20 337/297/102
f 339/299/112 338/298/10 341/301/10
f 340/300/20 342/302/138 337/297/102
f 343/303/112 340/300/20 339/299/112
f 344/304/139 339/299/112 341/301/10
f 337/297/102 342/302/138 345/305/140
f 346/306/104 343/303/112 339/299/112
f 344/304/139 346/306/104 339/299/112
f 345/305/140 342/302/138 347/307/19
f 348/308/104 343/303/112 346/306/104
f 349/309/65 346/306/104 344/304/139
f 347/307/19 350/310/141 345/305/140
f 348/308/104 346/306/104 351/311/142
f 344/304/139 352/312/50 349/309/65
f 353/313/141 350/310/141 347/307/19
f 349/309/65 354/314/69 346/306/104
f 351/311/142 346/306/104 355/315/143
f 349/309/65 352/312/50 356/316/50
f 353/313/141 357/317/18 350/310/141
f 346/306/104 354/314/69 355/315/143
f 354/314/69 349/309/65 358/318/50
f 358/318/50 349/309/65 356/316/50
f 351/311/142 355/315/143 359/319/99
f 357/317/18 360/320/144 350/310/141
f 355/315/143 354/314/69 361/321/10
f 359/319/99 355/315/143 362/322/26
f 363/323/145 360/320/144 357/317/18
f 361/321/10 364/324/10 355/315/143
f 355/315/143 364/324/10 362/322/26
f 359/319/99 362/322/26 365/325/23
f 360/320/144 363/323/145 366/326/146
f 363/323/145 357/317/18 367/327/117
f 367/327/117 357/317/18 368/328/117
f 365/325/23 362/322/26 369/329/23
f 366/326/146 363/323/145 370/330/124
f 371/331/23 365/325/23 369/329/23
f 370/330/124 372/332/146 366/326/146
f 373/333/25 371/331/23 369/329/23
f 366/326/146 372/332/146 374/320/146
f 375/334/25 371/331/23 373/333/25
f 372/332/146 376/335/134 374/320/146
f 373/333/25 377/336/94 375/334/25
f 372/332/146 378/327/147 376/335/134
f 374/320/146 376/335/134 379/310/134
f 380/337/148 377/336/94 373/333/25
f 376/335/134 378/327/147 381/328/126
f 376/335/134 382/338/149 379/310/134
f 383/339/148 377/336/94 380/337/148
f 382/338/149 384/340/136 379/310/134
f 385/341/106 383/339/148 380/337/148
f 379/310/134 384/340/136 386/305/136
f 387/342/106 383/339/148 385/341/106
f 386/305/136 384/340/136 388/302/132
f 387/342/106 385/341/106 389/343/106
f 388/302/132 390/297/123 386/305/136
f 389/343/106 385/341/106 391/337/106
f 392/344/123 390/297/123 388/302/132
f 389/343/106 391/337/106 393/336/150
f 392/344/123 394/299/151 390/297/123
f 393/336/150 391/337/106 395/333/108
f 396/345/151 394/299/151 392/344/123
f 390/297/123 394/299/151 397/298/152
f 395/333/108 398/334/108 393/336/150
f 394/299/151 396/345/151 399/306/127
f 397/298/152 394/299/151 400/301/153
f 398/334/108 395/333/108 401/331/118
f 399/306/127 396/345/151 402/308/127
f 403/304/154 400/301/153 394/299/151
f 394/299/151 399/306/127 403/304/154
f 401/331/118 395/333/108 404/329/116
f 402/308/127 405/311/155 399/306/127
f 403/304/154 399/306/127 406/309/156
f 407/325/118 401/331/118 404/329/116
f 399/306/127 405/311/155 408/315/157
f 403/304/154 406/309/156 409/312/158
f 410/322/159 407/325/118 404/329/116
f 408/315/157 411/314/152 399/306/127
f 405/311/155 412/346/160 408/315/157
f 399/306/127 411/314/152 406/309/156
f 408/315/157 412/346/160 410/322/159
f 412/346/160 407/325/118 410/322/159
f 409/312/158 406/309/156 413/316/158
f 414/318/158 406/309/156 411/314/152
f 410/322/159 415/324/152 408/315/157
f 413/316/158 406/309/156 414/318/158
f 408/315/157 416/321/152 411/314/152
f 408/315/157 415/324/152 416/321/152
f 133/133/5 128/128/67 142/142/5
f 133/133/5 126/126/66 128/128/67
f 417/347/29 418/348/27 419/349/106
f 419/349/106 418/348/27 420/350/161
f 421/351/106 419/349/106 422/352/161
f 422/352/161 419/349/106 423/350/27
f 100/100/56 424/353/47 92/92/53
f 92/92/53 424/353/47 103/103/5
f 116/116/47 103/103/5 424/353/47
f 425/354/162 426/355/14 427/356/125
f 427/356/125 426/355/14 428/357/145
f 429/354/14 427/356/124 430/358/163
f 430/358/163 427/356/124 431/359/164
f 432/1/1 433/3/165 434/2/1
f 434/2/1 435/6/1 432/1/1
f 434/2/1 433/3/165 436/4/165
f 437/10/1 435/6/1 434/2/1
f 432/1/1 438/7/7 433/3/165
f 434/2/1 436/4/165 439/5/5
f 434/2/1 439/5/5 437/10/1
f 440/19/4 432/1/1 435/6/1
f 441/8/7 438/7/7 432/1/1
f 439/5/5 436/4/165 442/53/5
f 437/10/1 439/5/5 443/13/5
f 441/8/7 432/1/1 440/19/4
f 441/8/7 444/9/7 438/7/7
f 442/53/5 436/4/165 445/50/166
f 443/13/5 446/16/167 437/10/1
f 447/12/7 444/9/7 441/8/7
f 442/53/5 445/50/166 448/51/5
f 449/20/6 446/16/167 443/13/5
f 441/8/7 450/15/7 447/12/7
f 440/19/4 450/15/7 441/8/7
f 448/51/5 445/50/166 451/44/168
f 452/23/169 446/16/167 449/20/6
f 450/15/7 440/19/4 453/22/7
f 448/51/5 451/44/168 454/46/6
f 452/23/169 455/35/170 446/16/167
f 456/26/75 452/23/169 449/20/6
f 453/22/7 440/19/4 457/25/7
f 454/46/6 451/44/168 458/43/171
f 459/29/172 452/23/169 456/26/75
f 453/22/7 457/25/7 460/28/7
f 454/46/6 458/43/171 461/49/161
f 459/29/172 462/38/167 452/23/169
f 462/38/167 455/35/170 452/23/169
f 460/28/7 457/25/7 463/31/7
f 451/44/168 464/30/168 458/43/171
f 462/38/167 463/31/7 455/35/170
f 465/37/172 462/38/167 459/29/172
f 455/35/170 463/31/7 457/25/7
f 451/44/168 466/18/173 464/30/168
f 465/37/172 467/36/174 462/38/167
f 457/25/7 435/6/1 455/35/170
f 462/38/167 467/36/174 463/31/7
f 445/50/166 466/18/173 451/44/168
f 440/19/4 435/6/1 457/25/7
f 435/6/1 437/10/1 455/35/170
f 460/28/7 463/31/7 468/33/153
f 468/33/153 463/31/7 467/36/174
f 464/30/168 466/18/173 469/21/7
f 455/35/170 437/10/1 446/16/167
f 467/36/174 470/41/175 468/33/153
f 471/27/176 464/30/168 469/21/7
f 469/21/7 466/18/173 472/11/7
f 473/40/177 470/41/175 467/36/174
f 471/27/176 469/21/7 474/24/152
f 475/42/171 464/30/168 471/27/176
f 469/21/7 472/11/7 476/17/7
f 467/36/174 465/37/172 473/40/177
f 474/24/152 469/21/7 476/17/7
f 458/43/171 464/30/168 475/42/171
f 476/17/7 472/11/7 477/14/7
f 473/40/177 465/37/172 478/39/134
f 475/42/171 479/52/100 458/43/171
f 480/48/178 471/27/176 474/24/152
f 438/7/7 477/14/7 472/11/7
f 481/45/118 475/42/171 471/27/176
f 461/49/161 458/43/171 479/52/100
f 481/45/118 471/27/176 480/48/178
f 444/9/7 477/14/7 438/7/7
f 482/47/108 475/42/171 481/45/118
f 482/47/108 479/52/100 475/42/171
f 438/7/7 472/11/7 433/3/165
f 478/39/134 465/37/172 483/34/124
f 433/3/165 472/11/7 466/18/173
f 483/34/124 465/37/172 459/29/172
f 466/18/173 436/4/165 433/3/165
f 445/50/166 436/4/165 466/18/173
f 483/34/124 459/29/172 484/32/179
f 484/32/179 459/29/172 456/26/75
f 485/58/180 486/55/181 487/56/182
f 488/61/183 485/58/180 487/56/182
f 487/56/182 486/55/181 489/54/181
f 490/64/158 485/58/180 488/61/183
f 487/56/182 489/54/181 491/60/184
f 488/61/183 487/56/182 491/60/184
f 486/55/181 492/57/185 489/54/181
f 490/64/158 488/61/183 493/67/183
f 491/60/184 489/54/181 494/63/186
f 489/54/181 492/57/185 495/59/181
f 489/54/181 495/59/181 494/63/186
f 488/61/183 491/60/184 496/66/158
f 493/67/183 488/61/183 496/66/158
f 496/66/158 491/60/184 497/69/187
f 492/57/185 498/62/188 495/59/181
f 494/63/186 495/59/181 499/68/186
f 495/59/181 498/62/188 500/65/188
f 500/65/188 499/68/186 495/59/181
f 501/70/189 500/65/188 498/62/188
f 500/65/188 502/71/190 499/68/186
f 503/72/191 500/65/188 501/70/189
f 503/72/191 502/71/190 500/65/188
f 501/70/189 504/73/192 503/72/191
f 503/72/191 504/73/192 502/71/190
f 505/74/193 504/73/192 501/70/189
f 502/71/190 504/73/192 506/75/194
f 505/74/193 507/76/195 504/73/192
f 507/76/195 506/75/194 504/73/192
f 508/77/196 507/76/195 505/74/193
f 507/76/195 509/78/190 506/75/194
f 508/77/196 510/79/195 507/76/195
f 510/79/195 509/78/190 507/76/195
f 511/80/195 510/79/195 508/77/196
f 510/79/195 512/81/197 509/78/190
f 511/80/195 513/82/198 510/79/195
f 513/82/198 512/81/197 510/79/195
f 514/83/199 513/82/198 511/80/195
f 513/82/198 515/84/200 512/81/197
f 514/83/199 515/84/200 513/82/198
f 516/85/201 512/81/197 515/84/200
f 517/86/202 515/84/200 514/83/199
f 518/87/203 512/81/197 516/85/201
f 517/86/202 519/88/183 515/84/200
f 515/84/200 519/88/183 516/85/201
f 520/89/7 521/91/7 522/90/7
f 522/90/7 523/92/7 520/89/7
f 522/90/7 521/91/7 524/93/204
f 525/95/7 523/92/7 522/90/7
f 520/89/7 526/94/188 521/91/7
f 521/91/7 527/96/7 524/93/204
f 523/92/7 525/95/7 528/103/7
f 522/90/7 524/93/204 529/98/66
f 530/97/189 526/94/188 520/89/7
f 531/100/189 520/89/7 523/92/7
f 522/90/7 529/98/66 525/95/7
f 524/93/204 527/96/7 532/104/7
f 530/97/189 520/89/7 531/100/189
f 531/100/189 523/92/7 533/353/205
f 533/353/205 523/92/7 528/103/7
f 529/98/66 524/93/204 534/101/57
f 524/93/204 532/104/7 534/101/57
f 535/107/4 532/104/7 527/96/7
f 528/103/7 536/116/196 533/353/205
f 525/95/7 529/98/66 537/105/206
f 538/123/7 532/104/7 535/107/4
f 528/103/7 525/95/7 539/106/7
f 540/110/7 536/116/196 528/103/7
f 525/95/7 537/105/206 539/106/7
f 541/129/207 538/123/7 535/107/4
f 528/103/7 539/106/7 540/110/7
f 540/110/7 542/119/208 536/116/196
f 539/106/7 537/105/206 543/115/209
f 544/138/207 538/123/7 541/129/207
f 540/110/7 539/106/7 545/113/4
f 546/122/7 542/119/208 540/110/7
f 539/106/7 543/115/209 545/113/4
f 547/132/153 544/138/207 541/129/207
f 540/110/7 545/113/4 546/122/7
f 548/125/156 542/119/208 546/122/7
f 545/113/4 543/115/209 549/118/210
f 550/143/152 544/138/207 547/132/153
f 551/193/158 542/119/208 548/125/156
f 545/113/4 549/118/210 552/127/7
f 552/127/7 548/125/156 546/122/7
f 538/123/7 544/138/207 553/120/211
f 554/109/212 547/132/153 541/129/207
f 546/122/7 545/113/4 552/127/7
f 555/111/60 538/123/7 553/120/211
f 556/135/183 547/132/153 554/109/212
f 541/129/207 535/107/4 554/109/212
f 557/130/153 548/125/156 552/127/7
f 553/120/211 544/138/207 558/146/62
f 532/104/7 538/123/7 555/111/60
f 552/127/7 559/131/213 557/130/153
f 553/120/211 560/117/211 555/111/60
f 558/146/62 560/117/211 553/120/211
f 534/101/57 532/104/7 555/111/60
f 552/127/7 549/118/210 559/131/213
f 561/153/62 560/117/211 558/146/62
f 555/111/60 562/114/60 534/101/57
f 557/130/153 559/131/213 563/134/70
f 560/117/211 561/153/62 564/156/7
f 555/111/60 560/117/211 562/114/60
f 534/101/57 562/114/60 565/108/57
f 559/131/213 566/136/213 563/134/70
f 567/144/7 560/117/211 564/156/7
f 534/101/57 565/108/57 529/98/66
f 562/114/60 560/117/211 567/144/7
f 563/134/70 566/136/213 568/178/214
f 564/156/7 569/160/204 567/144/7
f 529/98/66 565/108/57 570/112/206
f 568/178/214 571/182/70 563/134/70
f 572/169/7 569/160/204 564/156/7
f 529/98/66 570/112/206 537/105/206
f 573/166/4 568/178/214 566/136/213
f 564/156/7 574/167/7 572/169/7
f 575/163/7 567/144/7 569/160/204
f 573/166/4 566/136/213 576/168/24
f 564/156/7 561/153/62 574/167/7
f 577/139/7 567/144/7 575/163/7
f 576/168/24 578/164/7 573/166/4
f 576/168/24 566/136/213 579/124/215
f 572/169/7 574/167/7 580/165/7
f 575/163/7 581/142/7 577/139/7
f 578/164/7 576/168/24 582/171/7
f 569/160/204 572/169/7 583/187/216
f 581/142/7 575/163/7 584/170/217
f 573/166/4 578/164/7 585/158/7
f 575/163/7 569/160/204 586/174/218
f 586/174/218 569/160/204 583/187/216
f 577/139/7 581/142/7 587/133/7
f 584/170/217 575/163/7 586/174/218
f 588/155/72 585/158/7 578/164/7
f 587/133/7 565/108/57 577/139/7
f 589/176/218 584/170/217 586/174/218
f 588/155/72 578/164/7 590/161/74
f 587/133/7 581/142/7 591/128/7
f 592/177/80 584/170/217 589/176/218
f 593/151/74 588/155/72 590/161/74
f 591/128/7 594/126/66 587/133/7
f 589/176/218 595/179/204 592/177/80
f 596/147/219 588/155/72 593/151/74
f 591/128/7 581/142/7 597/172/7
f 584/170/217 597/172/7 581/142/7
f 598/180/204 595/179/204 589/176/218
f 596/147/219 599/145/220 588/155/72
f 592/177/80 600/175/80 584/170/217
f 600/175/80 597/172/7 584/170/217
f 595/179/204 601/181/80 592/177/80
f 593/151/74 602/149/7 596/147/219
f 601/181/80 600/175/80 592/177/80
f 597/172/7 603/173/7 591/128/7
f 604/154/7 602/149/7 593/151/74
f 605/184/7 601/181/80 595/179/204
f 582/171/7 603/173/7 597/172/7
f 604/154/7 593/151/74 605/184/7
f 600/175/80 582/171/7 597/172/7
f 605/184/7 593/151/74 601/181/80
f 602/149/7 606/141/221 596/147/219
f 601/181/80 590/161/74 600/175/80
f 590/161/74 582/171/7 600/175/80
f 582/171/7 576/168/24 603/173/7
f 593/151/74 590/161/74 601/181/80
f 607/152/222 606/141/221 602/149/7
f 590/161/74 578/164/7 582/171/7
f 576/168/24 579/124/215 603/173/7
f 606/141/221 599/145/220 596/147/219
f 603/173/7 579/124/215 608/121/61
f 609/137/70 599/145/220 606/141/221
f 603/173/7 608/121/61 591/128/7
f 549/118/210 608/121/61 579/124/215
f 610/140/222 609/137/70 606/141/221
f 571/182/70 599/145/220 609/137/70
f 591/128/7 608/121/61 594/126/66
f 549/118/210 579/124/215 559/131/213
f 599/145/220 571/182/70 585/158/7
f 563/134/70 571/182/70 609/137/70
f 543/115/209 594/126/66 608/121/61
f 543/115/209 608/121/61 549/118/210
f 559/131/213 579/124/215 566/136/213
f 571/182/70 568/178/214 585/158/7
f 537/105/206 594/126/66 543/115/209
f 609/137/70 557/130/153 563/134/70
f 599/145/220 585/158/7 588/155/72
f 585/158/7 568/178/214 573/166/4
f 537/105/206 570/112/206 594/126/66
f 610/140/222 557/130/153 609/137/70
f 587/133/7 594/126/66 570/112/206
f 570/112/206 565/108/57 587/133/7
f 565/108/57 562/114/60 577/139/7
f 577/139/7 562/114/60 567/144/7
f 611/199/5 612/195/5 613/196/5
f 612/195/5 611/199/5 614/200/5
f 613/196/5 612/195/5 615/194/5
f 614/200/5 611/199/5 616/201/5
f 617/197/6 613/196/5 615/194/5
f 617/197/6 615/194/5 618/198/6
f 616/201/5 619/202/5 614/200/5
f 614/200/5 619/202/5 620/203/5
f 621/204/5 620/203/5 619/202/5
f 622/205/5 620/203/5 621/204/5
f 623/206/75 622/205/5 621/204/5
f 623/206/75 624/207/75 622/205/5
f 625/212/223 626/209/224 627/210/225
f 627/210/225 626/209/224 628/208/190
f 629/211/190 627/210/225 628/208/190
f 626/209/224 630/213/186 628/208/190
f 631/214/225 627/210/225 629/211/190
f 628/208/190 630/213/186 632/215/190
f 628/208/190 633/216/190 629/211/190
f 632/215/190 633/216/190 628/208/190
f 554/109/212 535/107/4 634/102/226
f 535/107/4 527/96/7 634/102/226
f 634/102/226 527/96/7 635/99/227
f 527/96/7 521/91/7 635/99/227
f 635/99/227 521/91/7 526/94/188
f 636/185/4 637/183/216 638/186/7
f 636/185/4 598/180/204 637/183/216
f 638/186/7 637/183/216 639/188/76
f 637/183/216 598/180/204 589/176/218
f 640/162/228 638/186/7 639/188/76
f 637/183/216 583/187/216 639/188/76
f 589/176/218 586/174/218 637/183/216
f 637/183/216 586/174/218 583/187/216
f 641/189/229 638/186/7 640/162/228
f 639/188/76 583/187/216 642/190/230
f 639/188/76 642/190/230 640/162/228
f 583/187/216 572/169/7 642/190/230
f 640/162/228 642/190/230 643/191/84
f 572/169/7 580/165/7 642/190/230
f 642/190/230 580/165/7 643/191/84
f 643/191/84 644/159/70 640/162/228
f 644/159/70 643/191/84 580/165/7
f 640/162/228 644/159/70 645/150/70
f 644/159/70 580/165/7 646/157/70
f 644/159/70 646/157/70 645/150/70
f 647/192/231 640/162/228 645/150/70
f 646/157/70 580/165/7 574/167/7
f 647/192/231 645/150/70 550/143/152
f 645/150/70 646/157/70 648/148/214
f 550/143/152 645/150/70 648/148/214
f 561/153/62 646/157/70 574/167/7
f 646/157/70 561/153/62 648/148/214
f 558/146/62 550/143/152 648/148/214
f 648/148/214 561/153/62 558/146/62
f 544/138/207 550/143/152 558/146/62
