# Blender 4.1.1
# www.blender.org
mtllib Bridgebottom.mtl
o GUI_Map_BridgeBlue_GUI_Map_BridgeBlue1
v 0.062284 0.001740 0.010770
v 0.061811 0.001687 0.011767
v 0.063471 0.001738 0.011334
v 0.062757 0.001687 0.009774
v 0.062994 0.001684 0.012339
v 0.063947 0.001684 0.010329
v 0.061274 0.001394 0.012898
v 0.063297 0.001408 0.008636
v 0.064079 0.001704 0.010391
v 0.062460 0.001394 0.013462
v 0.064485 0.001401 0.009196
v 0.063602 0.001758 0.011396
v 0.063125 0.001704 0.012402
v 0.063660 0.001035 0.007871
v 0.064617 0.001421 0.009258
v 0.064846 0.001035 0.008436
v 0.060916 0.001039 0.013651
v 0.062587 0.001421 0.013535
v 0.064974 0.001071 0.008506
v 0.065187 0.000573 0.007715
v 0.062229 0.001069 0.014289
v 0.062097 0.001049 0.014227
v 0.065283 0.000642 0.007855
v 0.064005 0.000570 0.007144
v 0.061741 0.000573 0.014976
v 0.061910 0.000641 0.014961
v 0.060551 0.000570 0.014421
v 0.060726 0.001684 0.011262
v 0.061811 0.001687 0.011767
v 0.061203 0.001738 0.010258
v 0.061274 0.001394 0.012898
v 0.062284 0.001740 0.010770
v 0.060193 0.001394 0.012386
v 0.062757 0.001687 0.009774
v 0.060916 0.001039 0.013651
v 0.060595 0.001704 0.011201
v 0.061680 0.001684 0.009253
v 0.059831 0.001049 0.013151
v 0.061072 0.001758 0.010195
v 0.063297 0.001408 0.008636
v 0.059475 0.000573 0.013900
v 0.061549 0.001704 0.009190
v 0.062218 0.001401 0.008120
v 0.059699 0.001069 0.013088
v 0.060551 0.000570 0.014421
v 0.060057 0.001421 0.012335
v 0.062087 0.001421 0.008057
v 0.059380 0.000641 0.013760
v 0.063660 0.001035 0.007871
v 0.062444 0.001071 0.007305
v 0.062579 0.001035 0.007360
v 0.062922 0.000573 0.006640
v 0.062753 0.000642 0.006654
v 0.064005 0.000570 0.007144
vn 0.0450 0.9968 -0.0667
vn -0.0476 0.9906 0.1285
vn 0.0232 0.9968 -0.0771
vn 0.0695 0.9906 -0.1182
vn -0.0694 0.9906 0.1182
vn 0.0476 0.9906 -0.1285
vn -0.0724 0.9810 0.1798
vn 0.1784 0.9215 -0.3449
vn -0.9034 -0.0000 -0.4288
vn -0.0936 0.9810 0.1697
vn 0.1544 0.9215 -0.3563
vn 0.2194 0.8657 -0.4499
vn 0.2099 0.8657 -0.4544
vn -0.2046 0.8727 0.4433
vn -0.2141 0.8727 0.4388
vn 0.2193 0.8657 -0.4500
vn -0.2046 0.8727 0.4432
vn -0.0477 0.9906 0.1285
vn -0.0935 0.9810 0.1697
vn 0.0233 0.9968 -0.0770
vn -0.0723 0.9810 0.1798
vn 0.9034 -0.0000 0.4288
vn 0.0694 0.9906 -0.1182
vn 0.9034 -0.0000 0.4289
vn 0.9034 0.0001 0.4288
vt 0.344936 0.499552
vt 0.592242 0.499552
vt 0.345060 0.964971
vt 0.103481 0.499552
vt 0.592242 0.964961
vt 0.103481 0.964961
vt 0.848721 0.499552
vt -0.154015 0.499552
vt 0.103481 0.995494
vt 0.848721 0.964935
vt -0.154015 0.964934
vt 0.345184 0.995495
vt 0.592242 0.995495
vt -0.346333 0.499552
vt -0.154015 0.995494
vt -0.346333 0.964896
vt 1.037353 0.499552
vt 0.848721 0.995496
vt -0.346333 0.995494
vt -0.525978 0.964843
vt 1.037353 0.995496
vt 1.037353 0.964897
vt -0.524593 0.995498
vt -0.525978 0.499552
vt 1.221238 0.964844
vt 1.221933 0.995500
vt 1.221238 0.499552
vt 0.592242 0.034143
vt 0.345060 0.034133
vt 0.848721 0.034169
vt 0.592242 0.003609
vt 0.103481 0.034143
vt 1.037353 0.034207
vt 0.345184 0.003609
vt 1.221238 0.034260
vt 0.103481 0.003609
vt -0.154015 0.034170
vt 1.037353 0.003608
vt 0.848721 0.003608
vt -0.154015 0.003610
vt 1.221933 0.003604
vt -0.346333 0.003610
vt -0.346333 0.034208
vt -0.525978 0.034261
vt -0.524593 0.003606
s 1
g GUI_Map_BridgeBlue_GUI_Map_BridgeBlue1_GUI_Map_BridgeBlue1
usemtl GUI_Map_BridgeBlue1
f 1/1/1 2/2/2 3/3/3
f 1/1/1 3/3/3 4/4/4
f 3/3/3 2/2/2 5/5/5
f 4/4/4 3/3/3 6/6/6
f 2/2/2 7/7/7 5/5/5
f 6/6/6 8/8/8 4/4/4
f 3/3/3 9/9/9 6/6/6
f 5/5/5 7/7/7 10/10/10
f 11/11/11 8/8/8 6/6/6
f 12/12/9 9/9/9 3/3/3
f 13/13/9 3/3/3 5/5/5
f 10/10/10 13/13/9 5/5/5
f 11/11/11 14/14/12 8/8/8
f 12/12/9 3/3/3 13/13/9
f 15/15/9 6/6/6 9/9/9
f 11/11/11 6/6/6 15/15/9
f 16/16/13 14/14/12 11/11/11
f 7/7/7 17/17/14 10/10/10
f 18/18/9 13/13/9 10/10/10
f 19/19/9 11/11/11 15/15/9
f 16/16/13 11/11/11 19/19/9
f 20/20/13 14/14/12 16/16/13
f 18/18/9 10/10/10 21/21/9
f 10/10/10 17/17/14 22/22/15
f 23/23/9 16/16/13 19/19/9
f 20/20/13 16/16/13 23/23/9
f 24/24/16 14/14/12 20/20/13
f 21/21/9 10/10/10 22/22/15
f 22/22/15 17/17/14 25/25/15
f 21/21/9 22/22/15 26/26/9
f 26/26/9 22/22/15 25/25/15
f 25/25/15 17/17/14 27/27/17
f 28/28/18 29/2/5 30/29/1
f 29/2/5 28/28/18 31/7/19
f 30/29/1 29/2/5 32/1/20
f 31/7/19 28/28/18 33/30/21
f 34/4/6 30/29/1 32/1/20
f 33/30/21 35/17/15 31/7/19
f 30/29/1 36/31/22 28/28/18
f 28/28/18 36/31/22 33/30/21
f 37/32/23 30/29/1 34/4/6
f 38/33/14 35/17/15 33/30/21
f 39/34/22 36/31/22 30/29/1
f 40/8/11 37/32/23 34/4/6
f 38/33/14 41/35/14 35/17/15
f 30/29/1 42/36/22 39/34/22
f 43/37/8 37/32/23 40/8/11
f 33/30/21 44/38/22 38/33/14
f 37/32/23 42/36/22 30/29/1
f 35/17/15 41/35/14 45/27/15
f 33/30/21 36/31/22 46/39/24
f 46/39/24 44/38/22 33/30/21
f 42/36/22 37/32/23 47/40/22
f 47/40/22 37/32/23 43/37/8
f 38/33/14 48/41/22 41/35/14
f 44/38/22 48/41/22 38/33/14
f 49/14/13 43/37/8 40/8/11
f 47/40/22 43/37/8 50/42/25
f 51/43/12 43/37/8 49/14/13
f 50/42/25 43/37/8 51/43/12
f 51/43/12 49/14/13 52/44/12
f 51/43/12 53/45/22 50/42/25
f 52/44/12 53/45/22 51/43/12
f 52/44/12 49/14/13 54/24/13
