# Blender 4.1.1
# www.blender.org
mtllib high2.mtl
o roomShell2_room:GUI_BonnieRoom_WhiteCeiling
v -0.137117 0.182964 -0.257610
v -0.154072 0.182965 -0.257612
v -0.137117 0.182251 -0.257610
v -0.087818 0.182248 -0.257605
v -0.154072 0.182252 -0.257612
v -0.087818 0.182960 -0.257605
v -0.033915 0.182244 -0.257600
v -0.033915 0.182955 -0.257600
v 0.011955 0.182241 -0.257596
v 0.011955 0.182952 -0.257596
v 0.058601 0.182238 -0.257591
v 0.058601 0.182948 -0.257591
v 0.106208 0.182234 -0.257587
v 0.106208 0.182944 -0.257587
v -0.137117 0.181920 -0.258761
v -0.137117 0.182251 -0.257610
v -0.154072 0.181921 -0.258763
v -0.154072 0.181272 -0.259328
v -0.154072 0.182252 -0.257612
v -0.137117 0.181271 -0.259327
v -0.087818 0.182248 -0.257605
v -0.154072 0.180445 -0.259611
v -0.087818 0.181918 -0.258757
v -0.137117 0.180444 -0.259610
v -0.033915 0.182244 -0.257600
v -0.087818 0.181270 -0.259322
v -0.033915 0.181915 -0.258751
v -0.087818 0.180442 -0.259605
v 0.011955 0.182241 -0.257596
v -0.033915 0.181268 -0.259317
v 0.011955 0.181913 -0.258747
v -0.033915 0.180441 -0.259600
v 0.058601 0.182238 -0.257591
v 0.011955 0.181266 -0.259313
v 0.058601 0.181911 -0.258743
v 0.011955 0.180439 -0.259595
v 0.106208 0.182234 -0.257587
v 0.058601 0.181265 -0.259308
v 0.106208 0.181908 -0.258738
v 0.058601 0.180438 -0.259591
v 0.106208 0.181263 -0.259304
v 0.106208 0.180436 -0.259586
v -0.154072 0.180445 -0.259611
v -0.154072 0.180445 -0.260127
v -0.137117 0.180444 -0.259610
v -0.137117 0.180444 -0.260125
v -0.087818 0.180442 -0.259605
v -0.087818 0.180443 -0.260120
v -0.033915 0.180441 -0.259600
v -0.033915 0.180441 -0.260115
v 0.011955 0.180439 -0.259595
v 0.011955 0.180439 -0.260111
v 0.058601 0.180438 -0.259591
v 0.058601 0.180438 -0.260106
v 0.106208 0.180436 -0.259586
v 0.106208 0.180436 -0.260102
v -0.137117 0.172418 -0.260125
v -0.137117 0.180444 -0.260125
v -0.154072 0.172416 -0.260127
v -0.087818 0.180443 -0.260120
v -0.154072 0.180445 -0.260127
v -0.087818 0.172424 -0.260120
v -0.033915 0.180441 -0.260115
v -0.033915 0.172431 -0.260115
v 0.011955 0.180439 -0.260111
v 0.011955 0.172437 -0.260111
v 0.058601 0.180438 -0.260106
v 0.058601 0.172443 -0.260106
v 0.106208 0.180436 -0.260102
v 0.106208 0.172450 -0.260102
v -0.154072 0.172416 -0.260127
v -0.154072 0.172416 -0.261907
v -0.137117 0.172418 -0.260125
v -0.137117 0.172418 -0.261906
v -0.087818 0.172424 -0.260120
v -0.087818 0.172424 -0.261901
v -0.033915 0.172431 -0.260115
v -0.033915 0.172431 -0.261896
v 0.011955 0.172437 -0.260111
v 0.011955 0.172437 -0.261892
v 0.058601 0.172443 -0.260106
v 0.058601 0.172443 -0.261887
v 0.106208 0.172450 -0.260102
v 0.106208 0.172450 -0.261883
vn -0.0001 -0.0000 1.0000
vn -0.0006 -0.0000 1.0000
vn -0.0007 -0.0000 1.0000
vn -0.0001 -0.8435 0.5371
vn -0.0001 -0.9611 0.2762
vn -0.0001 -0.6551 0.7556
vn -0.0000 -0.3210 0.9471
vn 0.0002 -0.9620 0.2732
vn -0.0001 -0.4996 0.8663
vn -0.0001 -0.9613 0.2755
vn -0.0001 -0.8439 0.5365
vn -0.0001 -0.3236 0.9462
vn -0.0001 -0.9615 0.2747
vn -0.0001 -0.4998 0.8661
vn -0.0001 -0.8443 0.5358
vn -0.0001 -0.3235 0.9462
vn -0.0001 -0.9617 0.2740
vn -0.0001 -0.5001 0.8659
vn -0.0001 -0.8447 0.5352
vn -0.0001 -0.9619 0.2734
vn -0.0001 -0.5004 0.8658
vn -0.0001 -0.8450 0.5347
vn -0.0004 -0.9626 0.2708
vn -0.0001 -0.5007 0.8656
vn -0.0001 -0.6608 0.7506
vn -0.0004 -0.3235 0.9462
vn -0.0000 -1.0000 -0.0001
vn -0.0000 -1.0000 -0.0000
vn 0.0007 -1.0000 -0.0000
vn 0.0001 -1.0000 -0.0000
vt -1.273295 5.568756
vt -1.372731 5.568835
vt -1.273292 5.529015
vt -0.984171 5.528823
vt -1.372728 5.529080
vt -0.984172 5.568525
vt -0.668043 5.528614
vt -0.668043 5.568274
vt -0.399029 5.528435
vt -0.399028 5.568059
vt -0.125466 5.528255
vt -0.125465 5.567841
vt 0.153737 5.528069
vt 0.153740 5.567618
vt -1.273293 5.510567
vt -1.372728 5.510614
vt -1.372730 5.474409
vt -1.273294 5.474379
vt -1.372730 5.428295
vt -0.984171 5.510427
vt -1.273294 5.428265
vt -0.984173 5.474290
vt -0.668044 5.510275
vt -0.984172 5.428176
vt -0.668045 5.474194
vt -0.399029 5.510145
vt -0.668044 5.428079
vt -0.399030 5.474111
vt -0.125467 5.510014
vt -0.399029 5.427997
vt -0.125467 5.474028
vt 0.153736 5.509879
vt -0.125465 5.427913
vt 0.153736 5.473942
vt 0.153739 5.427828
vt -1.372730 5.428299
vt -1.273294 5.428269
vt -0.984172 5.428179
vt -0.668044 5.428082
vt -0.399030 5.427999
vt -0.125467 5.427915
vt 0.153736 5.427828
vt -1.273295 4.980799
vt -1.372730 4.980675
vt -0.984172 4.981158
vt -0.668044 4.981552
vt -0.399029 4.981886
vt -0.125466 4.982227
vt 0.153738 4.982574
s 1
g roomShell2_room:GUI_BonnieRoom_WhiteCeiling_room:GUI_BonnieRoom_WhiteCeiling
usemtl room:GUI_BonnieRoom_WhiteCeiling
f 1/1/1 2/2/2 3/3/1
f 4/4/1 1/1/1 3/3/1
f 3/3/1 2/2/2 5/5/2
f 6/6/1 1/1/1 4/4/1
f 7/7/1 6/6/1 4/4/1
f 8/8/1 6/6/1 7/7/1
f 9/9/1 8/8/1 7/7/1
f 10/10/1 8/8/1 9/9/1
f 11/11/1 10/10/1 9/9/1
f 12/12/1 10/10/1 11/11/1
f 13/13/2 12/12/1 11/11/1
f 14/14/3 12/12/1 13/13/2
f 15/15/4 16/3/5 17/16/6
f 18/17/7 15/15/4 17/16/6
f 17/16/6 16/3/5 19/5/8
f 20/18/9 15/15/4 18/17/7
f 15/15/4 21/4/10 16/3/5
f 18/17/7 22/19/7 20/18/9
f 20/18/9 23/20/11 15/15/4
f 23/20/11 21/4/10 15/15/4
f 20/18/9 22/19/7 24/21/12
f 23/20/11 25/7/13 21/4/10
f 20/18/9 24/21/12 26/22/14
f 26/22/14 23/20/11 20/18/9
f 27/23/15 25/7/13 23/20/11
f 26/22/14 27/23/15 23/20/11
f 26/22/14 24/21/12 28/24/16
f 27/23/15 29/9/17 25/7/13
f 26/22/14 28/24/16 30/25/18
f 30/25/18 27/23/15 26/22/14
f 31/26/19 29/9/17 27/23/15
f 30/25/18 31/26/19 27/23/15
f 30/25/18 28/24/16 32/27/16
f 31/26/19 33/11/20 29/9/17
f 30/25/18 32/27/16 34/28/21
f 34/28/21 31/26/19 30/25/18
f 35/29/22 33/11/20 31/26/19
f 34/28/21 35/29/22 31/26/19
f 34/28/21 32/27/16 36/30/16
f 35/29/22 37/13/23 33/11/20
f 34/28/21 36/30/16 38/31/24
f 38/31/24 35/29/22 34/28/21
f 39/32/25 37/13/23 35/29/22
f 38/31/24 39/32/25 35/29/22
f 38/31/24 36/30/16 40/33/16
f 41/34/12 39/32/25 38/31/24
f 38/31/24 40/33/16 41/34/12
f 41/34/12 40/33/16 42/35/26
f 43/19/27 44/36/27 45/21/28
f 45/21/28 44/36/27 46/37/28
f 45/21/28 46/37/28 47/24/28
f 47/24/28 46/37/28 48/38/28
f 47/24/28 48/38/28 49/27/27
f 49/27/27 48/38/28 50/39/27
f 49/27/27 50/39/27 51/30/27
f 51/30/27 50/39/27 52/40/27
f 51/30/27 52/40/27 53/33/28
f 53/33/28 52/40/27 54/41/28
f 53/33/28 54/41/28 55/35/27
f 55/35/27 54/41/28 56/42/27
f 57/43/1 58/37/1 59/44/2
f 57/43/1 60/38/1 58/37/1
f 59/44/2 58/37/1 61/36/3
f 62/45/1 60/38/1 57/43/1
f 62/45/1 63/39/1 60/38/1
f 64/46/1 63/39/1 62/45/1
f 64/46/1 65/40/1 63/39/1
f 66/47/1 65/40/1 64/46/1
f 66/47/1 67/41/1 65/40/1
f 68/48/1 67/41/1 66/47/1
f 68/48/1 69/42/2 67/41/1
f 70/49/3 69/42/2 68/48/1
f 71/44/29 72/44/29 73/43/30
f 73/43/30 72/44/29 74/43/30
f 73/43/30 74/43/30 75/45/30
f 75/45/30 74/43/30 76/45/30
f 75/45/30 76/45/30 77/46/30
f 77/46/30 76/45/30 78/46/30
f 77/46/30 78/46/30 79/47/30
f 79/47/30 78/46/30 80/47/30
f 79/47/30 80/47/30 81/48/30
f 81/48/30 80/47/30 82/48/30
f 81/48/30 82/48/30 83/49/29
f 83/49/29 82/48/30 84/49/29
