# Blender 4.1.1
# www.blender.org
mtllib MapBorder.mtl
o board2:Board_board2:board1:Board:pieces:LM_StitchedGameBoard
v 0.077056 0.000093 0.029512
v 0.077154 -0.000152 0.029539
v 0.077110 -0.000092 0.028674
v 0.077150 -0.000332 0.028686
v 0.077013 -0.000367 0.029349
v 0.076961 -0.000489 0.028693
v 0.076585 -0.000532 0.028962
v 0.077048 -0.000182 0.029650
v 0.076911 -0.000397 0.029456
v 0.076820 0.000113 0.029297
v 0.077130 -0.000398 0.028274
v 0.076719 0.000083 0.029403
v 0.076249 -0.000398 0.029642
v 0.077130 -0.000153 0.028274
v 0.076950 0.000063 0.029623
v 0.077130 -0.000164 0.027759
v 0.076209 -0.000136 0.029630
v 0.076920 -0.000037 0.027759
v 0.076193 -0.000019 0.029414
v 0.076270 -0.000533 0.029438
v 0.076920 -0.000026 0.028275
v 0.075730 -0.000434 0.029638
v 0.076303 -0.000046 0.028947
v 0.075730 -0.000562 0.029428
v 0.075730 -0.000042 0.029428
v 0.076883 0.000003 0.028669
v 0.075261 -0.000434 0.029638
v 0.075770 -0.000041 0.029119
v 0.075261 -0.000169 0.029638
v 0.075261 -0.000041 0.029159
v 0.076420 -0.000034 0.028831
v 0.075730 -0.000169 0.029638
v 0.075854 -0.000040 0.028470
v 0.076569 -0.000031 0.028309
v 0.075261 -0.000042 0.029428
v 0.075261 -0.000037 0.027759
v 0.076213 -0.000045 0.028852
v 0.075972 -0.000039 0.028367
v 0.076316 -0.000035 0.028723
v 0.076678 -0.000037 0.027759
v 0.066712 -0.000169 0.029638
v 0.075261 -0.000034 0.024680
v 0.066712 -0.000042 0.029428
v 0.066712 -0.000434 0.029638
v 0.076678 -0.000031 0.020830
v 0.056821 -0.000169 0.029638
v 0.056821 -0.000434 0.029638
v 0.066712 -0.000562 0.029428
v 0.056821 -0.000562 0.029428
v 0.056821 -0.000042 0.029428
v 0.054241 -0.000434 0.029638
v 0.076920 -0.000031 0.020830
v 0.075261 -0.000562 0.029428
v 0.054241 -0.000562 0.029428
v 0.054241 -0.000434 0.029638
v 0.077130 -0.000159 0.020830
v 0.054241 -0.000169 0.029638
v 0.053924 -0.000562 0.029428
v 0.076920 -0.000025 0.012643
v 0.053924 -0.000434 0.029638
v 0.053924 -0.000434 0.029638
v 0.077130 -0.000152 0.012643
v 0.076678 -0.000025 0.012643
v 0.053924 -0.000169 0.029638
v 0.052548 -0.000562 0.029428
v 0.075261 -0.000025 0.012643
v 0.052548 -0.000434 0.029638
v 0.076920 -0.000020 0.006185
v 0.075261 -0.000031 0.020830
v 0.048275 -0.000562 0.029428
v 0.077130 -0.000147 0.006186
v 0.075261 -0.000020 0.006185
v 0.076920 -0.000015 -0.000327
v 0.077130 -0.000451 0.012643
v 0.048275 -0.000434 0.029638
v 0.076678 -0.000020 0.006185
v 0.077130 -0.000142 -0.000326
v 0.052548 -0.000169 0.029638
v 0.076920 -0.000009 -0.007610
v 0.075261 -0.000015 -0.000327
v 0.076678 -0.000015 -0.000327
v 0.077130 -0.000456 0.006186
v 0.048275 -0.000169 0.029638
v 0.043537 -0.000434 0.029638
v 0.075261 -0.000009 -0.007610
v 0.052548 -0.000042 0.029428
v 0.077130 -0.000462 -0.000326
v 0.043537 -0.000562 0.029428
v 0.053924 -0.000042 0.029428
v 0.077130 -0.000136 -0.007609
v 0.053924 -0.000169 0.029638
v 0.076920 -0.000584 0.006185
v 0.054241 -0.000042 0.029428
v 0.076920 -0.000004 -0.014584
v 0.076920 -0.000579 0.012643
v 0.054241 -0.000169 0.029638
v 0.076678 -0.000009 -0.007610
v 0.077130 -0.000131 -0.014583
v 0.076920 -0.000572 0.020830
v 0.076920 0.000002 -0.022233
v 0.077130 -0.000445 0.020830
v 0.077130 -0.000467 -0.007609
v 0.077130 -0.000125 -0.022231
v 0.075261 -0.000004 -0.014584
v 0.077130 -0.000439 0.027759
v 0.077130 -0.000120 -0.028233
v 0.077130 -0.000473 -0.014583
v 0.077130 -0.000479 -0.022231
v 0.076920 0.000007 -0.028234
v 0.076678 0.000002 -0.022233
v 0.076920 -0.000025 -0.028692
v 0.076920 -0.000600 -0.014584
v 0.076920 -0.000526 0.028275
v 0.077130 -0.000152 -0.028691
v 0.076920 -0.000594 -0.007610
v 0.076920 -0.000567 0.027759
v 0.076983 -0.000087 -0.029248
v 0.076920 -0.000589 -0.000327
v 0.076678 0.000007 -0.028234
v 0.077164 -0.000224 -0.029242
v 0.076976 -0.000128 -0.029679
v 0.077130 -0.000518 -0.028691
v 0.076694 -0.000016 -0.028716
v 0.077130 -0.000483 -0.028233
v 0.077154 -0.000305 -0.029879
v 0.075261 0.000002 -0.022233
v 0.076678 -0.000004 -0.014584
v 0.076920 -0.000610 -0.028234
v 0.077045 -0.000290 -0.029987
v 0.076920 -0.000645 -0.028692
v 0.076973 -0.000651 -0.029966
v 0.077092 -0.000583 -0.029221
v 0.077082 -0.000667 -0.029857
v 0.076748 -0.000723 -0.029748
v 0.076861 -0.000695 -0.029212
v 0.076854 -0.000738 -0.029643
v 0.076313 -0.000515 -0.029963
v 0.075261 0.000007 -0.028234
v 0.076291 -0.000631 -0.029746
v 0.076678 0.000007 -0.028234
v 0.076385 -0.000154 -0.029985
v 0.075891 -0.000613 -0.029766
v 0.076871 -0.000113 -0.029784
v 0.075892 -0.000486 -0.029976
v 0.076414 -0.000044 -0.029782
v 0.075892 -0.000117 -0.029976
v 0.075262 -0.000486 -0.029976
v 0.076685 -0.000052 -0.029376
v 0.075262 -0.000117 -0.029976
v 0.076576 -0.000036 -0.029483
v 0.075262 -0.000613 -0.029766
v 0.075891 0.000010 -0.029766
v 0.066713 -0.000117 -0.029976
v 0.076580 -0.000042 -0.029273
v 0.075904 0.000009 -0.029567
v 0.075262 0.000010 -0.029766
v 0.066713 0.000010 -0.029766
v 0.066713 -0.000486 -0.029976
v 0.066713 0.000010 -0.029573
v 0.056822 -0.000117 -0.029976
v 0.066713 -0.000613 -0.029766
v 0.076466 -0.000029 -0.029383
v 0.075262 0.000010 -0.029573
v 0.056822 -0.000486 -0.029976
v 0.076074 0.000009 -0.028782
v 0.066712 0.000007 -0.028235
v 0.056821 0.000010 -0.029766
v 0.076694 -0.000016 -0.028716
v 0.075261 0.000007 -0.028234
v 0.056821 0.000010 -0.029573
v 0.076678 0.000007 -0.028234
v 0.056821 0.000007 -0.028235
v 0.051661 0.000010 -0.029573
v 0.075945 0.000008 -0.028910
v 0.075261 0.000007 -0.028234
v 0.051660 0.000007 -0.028235
v 0.075904 0.000009 -0.029567
v 0.075261 0.000007 -0.028234
v 0.051026 0.000007 -0.028235
v 0.051661 0.000010 -0.029766
v 0.051026 0.000010 -0.029573
v 0.051661 0.000010 -0.029766
v 0.051027 0.000010 -0.029766
v 0.051661 -0.000117 -0.029976
v 0.048275 0.000007 -0.028235
v 0.048275 0.000010 -0.029573
v 0.051027 0.000010 -0.029766
v 0.051661 -0.000117 -0.029976
v 0.038800 0.000007 -0.028236
v 0.048275 0.000010 -0.029766
v 0.051027 -0.000117 -0.029976
v 0.051661 -0.000486 -0.029976
v 0.038800 0.000010 -0.029573
v 0.051027 -0.000117 -0.029976
v 0.056821 -0.000613 -0.029766
v 0.038560 0.000002 -0.029573
v 0.051027 -0.000486 -0.029976
v 0.051661 -0.000486 -0.029976
v 0.038560 0.000000 -0.028236
v 0.048275 -0.000117 -0.029976
v 0.051661 -0.000613 -0.029766
v 0.038266 -0.000131 -0.029573
v 0.038800 0.000010 -0.029766
v 0.051027 -0.000486 -0.029976
v 0.038266 -0.000133 -0.028236
v 0.038800 -0.000117 -0.029976
v 0.038560 0.000003 -0.029766
v 0.038000 -0.000146 -0.029573
v 0.048275 -0.000486 -0.029976
v 0.038000 -0.000148 -0.028236
v 0.038560 -0.000088 -0.029976
v 0.037782 -0.000131 -0.029573
v 0.038266 -0.000131 -0.029766
v 0.038560 -0.000486 -0.029976
v 0.037782 -0.000133 -0.028236
v 0.038800 -0.000486 -0.029976
v 0.037495 0.000002 -0.029573
v 0.038266 -0.000219 -0.029976
v 0.048275 -0.000613 -0.029766
v 0.037495 0.000000 -0.028236
v 0.038266 -0.000545 -0.029976
v 0.051027 -0.000613 -0.029766
v 0.037303 0.000010 -0.029573
v 0.038000 -0.000237 -0.029976
v 0.037302 0.000007 -0.028234
v 0.038000 -0.000578 -0.029976
v 0.028753 0.000007 -0.028235
v 0.037782 -0.000543 -0.029976
v 0.038266 -0.000682 -0.029766
v 0.038000 -0.000146 -0.029766
v 0.028754 0.000010 -0.029573
v 0.038000 -0.000705 -0.029766
v 0.037782 -0.000226 -0.029976
v 0.026350 0.000010 -0.029573
v 0.037782 -0.000682 -0.029766
v 0.037782 -0.000131 -0.029766
v 0.022898 0.000007 -0.028235
v 0.026880 0.000010 -0.029766
v 0.037495 -0.000486 -0.029976
v 0.037495 -0.000117 -0.029976
v 0.025934 0.000010 -0.029573
v 0.028754 0.000010 -0.029766
v 0.026437 0.000010 -0.029766
v 0.037303 0.000010 -0.029766
v 0.037303 -0.000117 -0.029976
v 0.018862 0.000010 -0.029766
v 0.037303 0.000010 -0.029573
v 0.037495 0.000003 -0.029766
v 0.018862 0.000010 -0.029573
v 0.010316 0.000010 -0.029573
v 0.028754 -0.000117 -0.029976
v 0.010316 0.000010 -0.029766
v 0.027404 -0.000117 -0.029976
v 0.037303 -0.000486 -0.029976
v 0.018863 -0.000117 -0.029976
v 0.026437 0.000010 -0.029766
v 0.028754 -0.000486 -0.029976
v 0.037495 -0.000614 -0.029766
v 0.010316 -0.000117 -0.029976
v 0.037303 -0.000613 -0.029766
v 0.018863 -0.000486 -0.029976
v 0.028754 -0.000613 -0.029766
v 0.027040 -0.000117 -0.029976
v 0.003218 -0.000117 -0.029976
v 0.037782 -0.000682 -0.029766
v 0.010316 -0.000486 -0.029976
v 0.008679 0.000010 -0.029766
v 0.018862 -0.000613 -0.029766
v 0.027404 -0.000117 -0.029976
v 0.003217 0.000010 -0.029766
v 0.003218 -0.000117 -0.029976
v 0.000841 -0.000117 -0.029976
v 0.010316 -0.000613 -0.029766
v 0.008679 0.000010 -0.029766
v 0.008693 0.000010 -0.029573
v 0.000841 0.000010 -0.029766
v 0.000841 -0.000486 -0.029976
v 0.003216 0.000010 -0.029573
v 0.000841 -0.000613 -0.029766
v 0.003217 0.000010 -0.029766
v 0.010316 0.000007 -0.028235
v 0.000601 -0.000486 -0.029976
v 0.008690 0.000007 -0.028235
v 0.000601 -0.000088 -0.029976
v 0.003212 0.000007 -0.028236
v 0.000601 -0.000613 -0.029766
v 0.018862 0.000007 -0.028235
v 0.000841 0.000010 -0.029573
v 0.000307 -0.000219 -0.029976
v 0.022432 0.000007 -0.028235
v 0.000307 -0.000545 -0.029976
v 0.000307 -0.000682 -0.029766
v 0.000041 -0.000237 -0.029976
v 0.000601 0.000003 -0.029766
v 0.000041 -0.000578 -0.029976
v 0.000041 -0.000146 -0.029766
v 0.000041 -0.000705 -0.029766
v -0.000177 -0.000543 -0.029976
v 0.000307 -0.000131 -0.029766
v -0.000177 -0.000682 -0.029766
v 0.000601 0.000002 -0.029573
v -0.000177 -0.000226 -0.029976
v -0.000464 -0.000613 -0.029766
v 0.000307 -0.000131 -0.029573
v 0.000841 0.000007 -0.028236
v -0.000464 -0.000486 -0.029976
v 0.000601 0.000000 -0.028236
v -0.000657 -0.000486 -0.029976
v 0.000307 -0.000133 -0.028236
v -0.000464 -0.000088 -0.029976
v -0.000177 -0.000131 -0.029766
v -0.000657 -0.000117 -0.029976
v 0.000041 -0.000146 -0.029573
v 0.000041 -0.000148 -0.028236
v -0.000657 -0.000613 -0.029766
v -0.000464 0.000003 -0.029766
v -0.000177 -0.000131 -0.029573
v -0.009769 -0.000486 -0.029976
v -0.000657 0.000010 -0.029766
v -0.009769 -0.000117 -0.029976
v -0.000177 -0.000133 -0.028236
v -0.009769 0.000010 -0.029766
v -0.009769 -0.000613 -0.029766
v -0.000464 0.000002 -0.029573
v -0.000464 0.000000 -0.028236
v -0.019188 0.000010 -0.029766
v -0.000657 0.000010 -0.029573
v -0.019188 -0.000117 -0.029976
v -0.019188 -0.000486 -0.029976
v -0.000657 0.000007 -0.028236
v -0.028454 0.000010 -0.029766
v -0.019188 -0.000613 -0.029766
v -0.009769 0.000010 -0.029573
v -0.028453 -0.000117 -0.029976
v -0.009769 0.000007 -0.028235
v -0.037719 0.000010 -0.029766
v -0.028453 -0.000486 -0.029976
v -0.019188 0.000010 -0.029573
v -0.037719 -0.000117 -0.029976
v -0.028454 -0.000613 -0.029766
v -0.039145 0.000010 -0.029766
v -0.028454 0.000010 -0.029573
v -0.037719 -0.000486 -0.029976
v -0.039352 -0.000117 -0.029976
v -0.037719 -0.000613 -0.029766
v -0.039461 -0.000117 -0.029867
v -0.037719 0.000010 -0.029573
v -0.039145 -0.000613 -0.029766
v -0.039461 -0.000486 -0.029867
v -0.028454 0.000007 -0.028235
v -0.039352 -0.000486 -0.029976
v -0.039461 -0.000120 -0.028233
v -0.037719 0.000007 -0.028234
v -0.039251 0.000010 -0.029660
v -0.038962 0.000010 -0.029569
v -0.039251 -0.000613 -0.029660
v -0.039049 0.000009 -0.029472
v -0.039461 -0.000483 -0.028233
v -0.038986 0.000007 -0.028234
v -0.039251 0.000007 -0.028234
v -0.039251 -0.000611 -0.028234
v -0.038986 0.000003 -0.022182
v -0.039251 -0.000606 -0.022186
v -0.037719 0.000002 -0.022178
v -0.039461 -0.000479 -0.022184
v -0.039251 0.000003 -0.022183
v -0.038986 -0.000003 -0.014469
v -0.039251 -0.000600 -0.014478
v -0.039461 -0.000125 -0.022182
v -0.039461 -0.000473 -0.014474
v -0.037719 -0.000003 -0.014460
v -0.039251 -0.000003 -0.014471
v -0.039251 -0.000595 -0.007450
v -0.039251 -0.000009 -0.007439
v -0.039461 -0.000130 -0.014470
v -0.038986 -0.000009 -0.007436
v -0.039461 -0.000468 -0.007445
v -0.037719 -0.000009 -0.007422
v -0.039251 -0.000590 -0.000111
v -0.039251 -0.000014 -0.000096
v -0.038986 -0.000014 -0.000093
v -0.039461 -0.000136 -0.007438
v -0.039461 -0.000462 -0.000105
v -0.037719 -0.000014 -0.000074
v -0.039251 -0.000585 0.006451
v -0.039251 -0.000019 0.006470
v -0.038986 -0.000019 0.006474
v -0.039461 -0.000141 -0.000095
v -0.039461 -0.000457 0.006459
v -0.037719 -0.000019 0.006498
v -0.039251 -0.000580 0.012893
v -0.038986 -0.000024 0.012906
v -0.039461 -0.000146 0.006471
v -0.039461 -0.000452 0.012894
v -0.039251 -0.000024 0.012909
v -0.037719 -0.000024 0.012895
v -0.039461 -0.000446 0.020909
v -0.039461 -0.000151 0.012895
v -0.038986 -0.000030 0.020909
v -0.039251 -0.000574 0.020908
v -0.037719 -0.000030 0.020898
v -0.039461 -0.000444 0.024333
v -0.039461 -0.000157 0.020912
v -0.037719 -0.000032 0.024259
v -0.039251 -0.000030 0.020911
v -0.039251 -0.000571 0.024359
v -0.038986 -0.000032 0.024317
v -0.039461 -0.000441 0.027759
v -0.039251 -0.000032 0.024329
v -0.037719 -0.000035 0.027759
v -0.039251 -0.000569 0.027759
v -0.039461 -0.000160 0.024340
v -0.039251 -0.000567 0.028263
v -0.038986 -0.000035 0.027759
v -0.039461 -0.000162 0.027759
v -0.039466 -0.000355 0.028259
v -0.039251 -0.000035 0.027759
v -0.033176 -0.000035 0.027759
v -0.033206 -0.000041 0.029159
v -0.039461 -0.000085 0.028263
v -0.039251 -0.000021 0.028263
v -0.027020 -0.000041 0.029159
v -0.039355 -0.000391 0.028856
v -0.026996 -0.000036 0.027759
v -0.039111 -0.000452 0.029087
v -0.039005 -0.000022 0.028312
v -0.025479 -0.000041 0.029159
v -0.038308 -0.000566 0.028360
v -0.038502 -0.000022 0.028412
v -0.025278 -0.000036 0.027524
v -0.038272 -0.000564 0.028474
v -0.038890 0.000059 0.028877
v -0.017913 -0.000041 0.029159
v -0.039366 -0.000231 0.029341
v -0.017898 -0.000037 0.027524
v -0.038373 -0.000024 0.028558
v -0.039049 -0.000441 0.029195
v -0.017916 -0.000042 0.029428
v -0.037719 -0.000041 0.029159
v -0.039479 -0.000183 0.028815
v -0.017522 -0.000041 0.029159
v -0.039496 0.000031 0.029489
v -0.017501 -0.000037 0.027524
v -0.033212 -0.000042 0.029428
v -0.039401 -0.000001 0.029610
v -0.016546 -0.000041 0.029159
v -0.027025 -0.000042 0.029428
v -0.039370 0.000261 0.029451
v -0.016543 -0.000042 0.029428
v -0.027033 -0.000169 0.029638
v -0.039412 0.000067 0.028777
v -0.017528 -0.000042 0.029428
v -0.033222 -0.000169 0.029638
v -0.039120 0.000221 0.029266
v -0.010690 -0.000042 0.029428
v -0.037719 -0.000042 0.029428
v -0.039275 0.000230 0.029572
v -0.010682 -0.000041 0.029159
v -0.037719 -0.000169 0.029638
v -0.038923 -0.000204 0.029681
v -0.009144 -0.000042 0.029428
v -0.038208 -0.000155 0.029638
v -0.039276 -0.000261 0.029456
v -0.009146 -0.000169 0.029638
v -0.038208 -0.000420 0.029638
v -0.010712 -0.000169 0.029638
v -0.037719 -0.000434 0.029638
v -0.038205 -0.000028 0.029428
v -0.010705 -0.000434 0.029638
v -0.038205 -0.000562 0.029428
v -0.038729 0.000098 0.029418
v -0.016543 -0.000042 0.029428
v -0.037719 -0.000562 0.029428
v -0.038798 0.000026 0.029642
v -0.016541 -0.000169 0.029638
v -0.033209 -0.000434 0.029638
v -0.039029 0.000190 0.029382
v -0.017528 -0.000042 0.029428
v -0.017533 -0.000169 0.029638
v -0.027023 -0.000434 0.029638
v -0.038838 0.000080 0.029121
v -0.017922 -0.000169 0.029638
v -0.025542 -0.000169 0.029638
v -0.038968 0.000075 0.028970
v -0.025517 -0.000042 0.029428
v -0.038251 -0.000027 0.029188
v -0.039167 0.000081 0.028781
v -0.038740 0.000058 0.029003
v 0.038000 -0.000182 0.029159
v 0.038266 -0.000168 0.029159
v 0.038000 -0.000180 0.027759
v 0.037782 -0.000166 0.027759
v 0.038266 -0.000166 0.027759
v 0.037782 -0.000168 0.029159
v 0.038560 -0.000034 0.029159
v 0.037495 -0.000032 0.027759
v 0.038000 -0.000183 0.029428
v 0.038266 -0.000168 0.029428
v 0.038560 -0.000032 0.027759
v 0.037495 -0.000034 0.029159
v 0.038560 -0.000034 0.029428
v 0.037302 -0.000037 0.027759
v 0.038266 -0.000320 0.029638
v 0.037495 -0.000034 0.029428
v 0.038800 -0.000041 0.029159
v 0.038000 -0.000352 0.029638
v 0.037302 -0.000041 0.029159
v 0.038800 -0.000038 0.027759
v 0.038266 -0.000493 0.029638
v 0.037302 -0.000042 0.029428
v 0.034419 -0.000037 0.027759
v 0.041168 -0.000041 0.029159
v 0.038000 -0.000526 0.029638
v 0.031028 -0.000037 0.027759
v 0.041168 -0.000042 0.029428
v 0.038560 -0.000434 0.029638
v 0.031015 -0.000041 0.029159
v 0.038800 -0.000042 0.029428
v 0.038560 -0.000169 0.029638
v 0.030992 -0.000042 0.029428
v 0.038800 -0.000169 0.029638
v 0.037302 -0.000169 0.029638
v 0.038560 -0.000562 0.029428
v 0.030988 -0.000169 0.029638
v 0.038266 -0.000631 0.029428
v 0.037495 -0.000169 0.029638
v 0.031028 -0.000434 0.029638
v 0.037302 -0.000434 0.029638
v 0.028753 -0.000042 0.029428
v 0.038000 -0.000653 0.029428
v 0.031075 -0.000562 0.029428
v 0.028753 -0.000041 0.029159
v 0.037782 -0.000631 0.029428
v 0.037302 -0.000562 0.029428
v 0.022657 -0.000041 0.029159
v 0.037782 -0.000491 0.029638
v 0.028753 -0.000562 0.029428
v 0.022814 -0.000037 0.027759
v 0.037495 -0.000562 0.029428
v 0.028753 -0.000434 0.029638
v 0.028753 -0.000037 0.027759
v 0.037782 -0.000329 0.029638
v 0.018862 -0.000038 0.027759
v 0.018862 -0.000041 0.029159
v 0.022648 -0.000562 0.029428
v 0.028753 -0.000169 0.029638
v 0.037782 -0.000168 0.029428
v 0.014589 -0.000038 0.027759
v 0.022618 -0.000434 0.029638
v 0.014589 -0.000041 0.029159
v 0.018862 -0.000562 0.029428
v 0.010316 -0.000041 0.029159
v 0.018862 -0.000042 0.029428
v 0.018862 -0.000434 0.029638
v 0.037495 -0.000434 0.029638
v 0.014589 -0.000042 0.029428
v 0.022607 -0.000169 0.029638
v 0.014589 -0.000169 0.029638
v 0.014589 -0.000562 0.029428
v 0.018862 -0.000169 0.029638
v 0.010316 -0.000169 0.029638
v 0.022620 -0.000042 0.029428
v 0.014589 -0.000434 0.029638
v 0.010316 -0.000562 0.029428
v 0.010316 -0.000434 0.029638
v 0.005578 -0.000562 0.029428
v 0.005578 -0.000434 0.029638
v 0.007818 -0.000169 0.029638
v 0.003209 -0.000562 0.029428
v 0.007093 -0.000169 0.029638
v 0.003209 -0.000434 0.029638
v 0.005578 -0.000169 0.029638
v 0.002505 -0.000434 0.029638
v 0.010316 -0.000042 0.029428
v 0.007818 -0.000169 0.029638
v 0.003209 -0.000169 0.029638
v 0.000841 -0.000562 0.029428
v 0.002512 -0.000169 0.029638
v 0.005578 -0.000042 0.029428
v 0.000841 -0.000434 0.029638
v 0.007818 -0.000042 0.029428
v 0.007093 -0.000042 0.029428
v 0.003209 -0.000042 0.029428
v 0.000601 -0.000562 0.029428
v 0.007093 -0.000169 0.029638
v 0.002523 -0.000042 0.029428
v 0.000601 -0.000434 0.029638
v 0.003209 -0.000041 0.029159
v 0.007818 -0.000042 0.029428
v 0.007821 -0.000041 0.029159
v 0.000307 -0.000493 0.029638
v 0.002532 -0.000041 0.029159
v 0.007143 -0.000041 0.029159
v 0.000307 -0.000320 0.029638
v 0.003209 -0.000038 0.027759
v 0.008606 -0.000040 0.028554
v 0.000601 -0.000169 0.029638
v 0.005578 -0.000041 0.029159
v 0.000041 -0.000352 0.029638
v 0.005578 -0.000038 0.027759
v 0.008603 -0.000040 0.028846
v 0.000041 -0.000526 0.029638
v 0.000307 -0.000631 0.029428
v 0.009058 -0.000039 0.028392
v 0.007093 -0.000042 0.029428
v 0.000041 -0.000653 0.029428
v 0.008617 -0.000038 0.027759
v -0.000177 -0.000631 0.029428
v 0.009063 -0.000038 0.027759
v 0.008617 -0.000038 0.027759
v 0.005578 -0.000038 0.027353
v -0.000177 -0.000491 0.029638
v 0.010316 -0.000038 0.027940
v 0.003209 -0.000038 0.027362
v -0.000464 -0.000562 0.029428
v 0.010316 -0.000039 0.028161
v 0.002518 -0.000038 0.027759
v 0.010733 -0.000038 0.027759
v 0.000841 -0.000038 0.027362
v 0.005578 -0.000038 0.027362
v 0.010316 -0.000038 0.027759
v 0.000841 -0.000038 0.027759
v -0.000177 -0.000329 0.029638
v 0.011330 -0.000038 0.027759
v -0.000464 -0.000434 0.029638
v 0.000041 -0.000183 0.029428
v 0.010733 -0.000038 0.027759
v 0.010316 -0.000038 0.027353
v 0.009063 -0.000038 0.027759
v 0.011669 -0.000038 0.027353
v 0.011330 -0.000038 0.027759
v 0.000307 -0.000168 0.029428
v 0.009051 -0.000038 0.027353
v 0.014589 -0.000038 0.027353
v 0.000041 -0.000182 0.029159
v 0.000601 -0.000034 0.029428
v 0.008622 -0.000038 0.027353
v -0.000177 -0.000168 0.029159
v 0.000841 -0.000042 0.029428
v 0.000307 -0.000168 0.029159
v -0.000177 -0.000166 0.027759
v -0.000177 -0.000168 0.029428
v 0.000841 -0.000169 0.029638
v 0.000041 -0.000180 0.027759
v 0.000601 -0.000034 0.029159
v -0.000464 -0.000032 0.027759
v -0.000464 -0.000169 0.029638
v 0.000307 -0.000166 0.027759
v -0.000464 -0.000034 0.029159
v -0.000464 -0.000034 0.029428
v 0.000601 -0.000032 0.027759
v -0.000657 -0.000434 0.029638
v 0.000841 -0.000041 0.029159
v -0.000657 -0.000042 0.029428
v -0.000657 -0.000038 0.027759
v -0.000657 -0.000169 0.029638
v -0.000657 -0.000041 0.029159
v -0.008611 -0.000169 0.029638
v -0.008576 -0.000038 0.027759
v 0.002518 -0.000038 0.027759
v -0.009143 -0.000434 0.029638
v -0.008602 -0.000042 0.029428
v -0.008593 -0.000041 0.029159
v -0.009071 -0.000562 0.029428
v -0.008602 -0.000042 0.029428
v 0.002523 -0.000042 0.029428
v -0.000657 -0.000562 0.029428
v -0.010709 -0.000562 0.029428
v -0.009142 -0.000041 0.029159
v -0.017769 -0.000562 0.029428
v 0.002512 -0.000169 0.029638
v -0.009134 -0.000038 0.027759
v -0.017915 -0.000434 0.029638
v -0.025488 -0.000562 0.029428
v -0.017533 -0.000169 0.029638
v -0.025526 -0.000434 0.029638
v -0.016541 -0.000169 0.029638
v -0.010873 -0.000037 0.027524
v -0.026799 -0.000562 0.029428
v -0.016551 -0.000037 0.027524
v -0.032933 -0.000562 0.029428
v -0.008611 -0.000169 0.029638
v 0.038800 -0.000613 -0.029766
v 0.038560 -0.000613 -0.029766
v 0.038800 -0.000434 0.029638
v 0.041168 -0.000169 0.029638
v 0.038800 -0.000562 0.029428
v 0.041168 -0.000434 0.029638
v 0.043537 -0.000042 0.029428
v 0.041168 -0.000562 0.029428
v 0.043537 -0.000169 0.029638
v 0.048275 -0.000042 0.029428
v 0.043537 -0.000041 0.029159
v 0.041168 -0.000038 0.027759
v 0.043537 -0.000038 0.027759
v 0.038800 -0.000038 0.027362
v 0.048275 -0.000041 0.029159
v 0.041168 -0.000038 0.027362
v 0.052548 -0.000041 0.029159
v 0.048275 -0.000038 0.027759
v 0.043537 -0.000038 0.027362
v 0.053924 -0.000042 0.029428
v 0.052548 -0.000038 0.027759
v 0.043537 -0.000038 0.027353
v 0.053924 -0.000041 0.029159
v 0.048275 -0.000038 0.027353
v 0.054241 -0.000042 0.029428
v 0.052548 -0.000038 0.027353
v 0.054241 -0.000041 0.029159
v 0.053923 -0.000038 0.027759
v 0.056821 -0.000041 0.029159
v 0.054241 -0.000038 0.027759
v 0.056821 -0.000038 0.027759
v 0.066712 -0.000041 0.029159
v 0.066712 -0.000037 0.027759
v 0.072434 -0.000037 0.027759
v 0.072434 -0.000037 0.027759
v 0.076453 -0.000546 0.029079
v 0.075928 -0.000563 0.028577
v 0.076030 -0.000565 0.028461
v 0.076920 -0.000606 -0.022233
v 0.002505 -0.000434 0.029638
v -0.038975 -0.000354 0.029493
v 0.026880 0.000010 -0.029766
v 0.027040 -0.000117 -0.029976
v -0.019188 0.000007 -0.028235
v 0.028753 -0.000037 0.027759
v 0.028753 -0.000037 0.027343
v 0.022814 -0.000037 0.027759
v 0.031028 -0.000037 0.027759
v 0.026518 -0.000037 0.027343
v 0.022814 -0.000037 0.027343
v 0.031134 -0.000037 0.027343
v 0.034419 -0.000037 0.027759
v 0.034419 -0.000037 0.027343
vn 0.9619 0.2715 -0.0308
vn 0.9966 0.0815 -0.0131
vn 0.9966 0.0815 -0.0132
vn 0.2631 -0.9606 0.0901
vn 0.0740 -0.9969 0.0267
vn 0.0502 -0.9987 -0.0045
vn -0.0202 0.0713 0.9973
vn -0.1417 0.9727 -0.1838
vn -0.2511 0.9657 -0.0665
vn 0.0029 0.0231 0.9997
vn -0.0201 0.0713 0.9973
vn 1.0000 -0.0000 -0.0000
vn 0.0030 0.0231 0.9997
vn -0.0090 0.9998 -0.0169
vn -0.0194 0.9993 -0.0318
vn 0.0322 -0.9992 0.0226
vn -0.0481 0.9978 0.0466
vn 0.0323 -0.9992 0.0226
vn -0.0529 0.9980 -0.0333
vn -0.0001 0.0001 1.0000
vn -0.0000 0.0001 1.0000
vn 0.0002 1.0000 0.0026
vn -0.0530 0.9980 -0.0332
vn -0.0288 0.9992 0.0290
vn 0.0002 1.0000 0.0027
vn -0.0000 1.0000 0.0009
vn -0.0390 0.9990 -0.0206
vn -0.0091 0.9998 -0.0169
vn -0.0000 -0.0000 1.0000
vn -0.0001 1.0000 0.0008
vn -0.0000 1.0000 0.0030
vn -0.0000 -0.8549 0.5189
vn -0.0000 1.0000 0.0027
vn -0.0000 1.0000 0.0008
vn -0.0000 -1.0000 0.0026
vn -0.0000 -0.8548 0.5189
vn -0.0000 1.0000 0.0026
vn 1.0000 -0.0000 0.0005
vn -0.0000 0.8548 0.5189
vn 0.5184 -0.8551 0.0007
vn 0.5185 -0.8551 0.0007
vn 0.5187 -0.8550 0.0007
vn 0.0224 0.9980 -0.0586
vn 0.0952 0.9929 -0.0714
vn 0.5181 -0.8553 0.0007
vn 0.9951 -0.0988 0.0088
vn 0.5182 -0.8553 0.0007
vn 0.0170 -0.9996 0.0247
vn 0.0953 0.9929 -0.0714
vn 0.5183 -0.8552 0.0007
vn 0.0223 0.9980 -0.0586
vn 0.1962 0.9789 -0.0568
vn 0.9805 -0.1964 0.0105
vn 0.5179 -0.8554 0.0007
vn -0.0156 -0.0563 -0.9983
vn -0.0798 -0.9957 0.0466
vn 0.9951 -0.0988 0.0087
vn -0.1973 -0.9785 0.0594
vn 0.0026 -0.0296 -0.9996
vn -0.0182 -0.9997 0.0155
vn 0.0025 -0.0296 -0.9996
vn 0.1483 0.9834 -0.1048
vn 0.0026 -0.0297 -0.9996
vn 0.0820 0.9960 -0.0353
vn -0.0000 -0.0000 -1.0000
vn 0.1054 0.9942 0.0228
vn -0.0000 -1.0000 0.0019
vn 0.0001 1.0000 0.0021
vn -0.0000 1.0000 0.0021
vn -0.0000 1.0000 0.0020
vn -0.0000 0.0001 -1.0000
vn -0.0000 -0.8555 -0.5178
vn 0.0001 1.0000 0.0020
vn 0.0309 0.9993 -0.0211
vn 0.0292 0.9990 -0.0328
vn 0.0125 0.9999 -0.0109
vn 0.0334 0.9994 -0.0047
vn 0.0343 0.9994 -0.0000
vn -0.0029 1.0000 -0.0013
vn -0.0000 0.8555 -0.5178
vn -0.0305 0.9995 0.0018
vn -0.4138 0.9103 0.0014
vn -0.4139 0.9103 0.0014
vn -0.0547 0.9985 0.0015
vn -0.0547 0.9985 0.0014
vn -0.4139 0.9103 0.0013
vn 0.0669 0.9978 0.0015
vn 0.4217 0.9068 0.0014
vn 0.4217 0.9067 0.0014
vn 0.0381 0.9993 0.0017
vn 0.0358 0.9994 0.0018
vn 0.0181 0.9998 0.0019
vn -0.0004 0.0001 -1.0000
vn 0.2919 -0.9565 0.0017
vn -0.2178 -0.9760 0.0017
vn -0.0003 -0.0000 -1.0000
vn -0.2178 -0.9760 0.0018
vn -0.0000 1.0000 0.0019
vn 0.0005 -0.0000 -1.0000
vn 0.0005 0.0001 -1.0000
vn -0.0911 -0.8464 -0.5247
vn -0.1814 -0.8302 -0.5271
vn 0.0001 0.0001 -1.0000
vn -0.0000 -1.0000 0.0018
vn -0.2177 -0.9760 0.0017
vn 0.4217 0.9067 0.0013
vn 0.0379 0.9993 0.0018
vn -0.0001 0.0001 -1.0000
vn 0.0005 1.0000 0.0014
vn -1.0000 -0.0000 -0.0000
vn -1.0000 -0.0000 0.0001
vn 0.0003 1.0000 0.0017
vn -1.0000 -0.0000 0.0008
vn -0.0000 1.0000 0.0007
vn -0.5179 -0.8554 0.0008
vn -0.5180 -0.8554 0.0006
vn -0.5181 -0.8553 0.0006
vn -0.0000 1.0000 0.0028
vn -0.5182 -0.8553 0.0006
vn -0.5183 -0.8552 0.0006
vn -0.5184 -0.8551 0.0006
vn 0.0001 1.0000 0.0008
vn -0.5185 -0.8551 0.0006
vn -0.0000 1.0000 -0.0017
vn -0.5186 -0.8550 0.0006
vn -0.0000 1.0000 -0.0018
vn -0.5187 -0.8550 0.0006
vn -0.9999 0.0085 -0.0060
vn -0.0000 1.0000 0.0039
vn 0.0002 -1.0000 0.0042
vn -0.0922 -0.9839 0.1528
vn 0.0031 0.9997 -0.0256
vn -0.9905 0.1372 -0.0080
vn 0.0030 0.9997 -0.0256
vn 0.0001 1.0000 0.0033
vn -0.0000 1.0000 0.0038
vn -0.9905 0.1372 -0.0079
vn 0.0936 0.9808 -0.1712
vn -0.0000 1.0000 0.0035
vn 0.0002 1.0000 0.0033
vn -0.0923 -0.9839 0.1528
vn 0.0001 1.0000 0.0032
vn -0.0922 -0.9840 0.1528
vn 0.0972 0.9906 -0.0968
vn 0.0002 1.0000 0.0029
vn -0.0714 -0.9938 0.0849
vn -0.4647 -0.8441 0.2675
vn 0.0001 1.0000 0.0026
vn 0.1948 0.9792 -0.0573
vn -0.0714 -0.9938 0.0850
vn 0.0277 0.9996 0.0019
vn -0.9286 0.3595 -0.0915
vn 0.0001 1.0000 0.0025
vn -0.0000 1.0000 0.0037
vn -0.0614 0.1955 0.9788
vn -0.9287 0.3594 -0.0916
vn -0.0000 1.0000 0.0029
vn -0.0000 -0.0001 1.0000
vn 0.3509 0.9139 -0.2039
vn -0.0000 1.0000 0.0025
vn 0.0548 0.0627 0.9965
vn -0.0000 1.0000 0.0024
vn -0.4586 -0.8563 0.2376
vn -0.0024 -0.0000 1.0000
vn 0.0278 0.9996 0.0019
vn -0.0001 -0.0001 1.0000
vn -0.1648 -0.9823 0.0891
vn 0.2043 0.9758 -0.0780
vn -0.0000 -1.0000 0.0030
vn 0.0547 0.0627 0.9965
vn 0.3096 0.9359 -0.1684
vn 0.0669 0.9978 0.0014
vn 0.0670 0.9978 0.0015
vn 0.0303 0.9995 0.0018
vn -0.0354 0.9994 0.0016
vn -0.0547 0.9985 0.0016
vn 0.0286 0.9996 0.0018
vn 0.4217 0.9068 0.0019
vn -0.0355 0.9994 0.0018
vn 0.0001 -0.0000 1.0000
vn -0.0370 0.9993 0.0023
vn -0.0000 1.0000 0.0022
vn -0.0000 1.0000 0.0023
vn 0.0001 -0.0001 1.0000
vn 0.2919 -0.9565 0.0020
vn 0.1794 -0.9838 0.0020
vn -0.2178 -0.9760 0.0020
vn -0.2980 -0.9546 0.0020
vn -0.0000 -1.0000 0.0021
vn -0.0000 1.0000 -0.0000
vn -0.0354 0.9994 0.0015
vn 0.4217 0.9067 0.0017
vn -0.0376 0.9993 0.0018
vn -0.0377 0.9993 0.0018
vn -0.0001 1.0000 0.0023
vn 0.0323 -0.9992 0.0225
vn 0.0322 -0.9992 0.0225
vn 0.5180 -0.8554 0.0007
vn -0.1649 -0.9823 0.0891
vn 0.1113 0.0553 0.9922
vn 0.1114 0.0553 0.9922
vt 2.064959 -0.376276
vt 2.067604 -0.377072
vt 2.066405 -0.351511
vt 2.067478 -0.351873
vt 2.063807 -0.371479
vt 2.062402 -0.352075
vt 2.052290 -0.360041
vt 2.064745 -0.380357
vt 2.061075 -0.374617
vt 2.058619 -0.369916
vt 2.066938 -0.339711
vt 2.055889 -0.373054
vt 2.043254 -0.380115
vt 2.066938 -0.339712
vt 2.062102 -0.379561
vt 2.066938 -0.324503
vt 2.042201 -0.379759
vt 2.061294 -0.324503
vt 2.041762 -0.373392
vt 2.043828 -0.374090
vt 2.061294 -0.339743
vt 2.029306 -0.380005
vt 2.044713 -0.359597
vt 2.029311 -0.373802
vt 2.029311 -0.373802
vt 2.060317 -0.351371
vt 2.016721 -0.380005
vt 2.030389 -0.364675
vt 2.016721 -0.380004
vt 2.016711 -0.365842
vt 2.047853 -0.356155
vt 2.029306 -0.380004
vt 2.032651 -0.345495
vt 2.051877 -0.340747
vt 2.016713 -0.373802
vt 2.016698 -0.324503
vt 2.042312 -0.356791
vt 2.035813 -0.342459
vt 2.045058 -0.352975
vt 2.054802 -0.324503
vt 1.786932 -0.380004
vt 2.016698 -0.233552
vt 1.786927 -0.373802
vt 1.786932 -0.380005
vt 2.054802 -0.119812
vt 1.521065 -0.380004
vt 1.521065 -0.380005
vt 1.786927 -0.373802
vt 1.521062 -0.373802
vt 1.521062 -0.373802
vt 1.451710 -0.380004
vt 2.061294 -0.119812
vt 2.016713 -0.373802
vt 1.451707 -0.373802
vt 2.066938 -0.119817
vt 1.451710 -0.380004
vt 1.443182 -0.373802
vt 2.061294 0.122023
vt 1.443185 -0.380004
vt 2.066938 0.122012
vt 2.054802 0.122024
vt 1.443185 -0.380004
vt 1.406203 -0.373802
vt 2.016698 0.122024
vt 1.406206 -0.380004
vt 2.061294 0.312774
vt 2.016698 -0.119812
vt 1.291345 -0.373802
vt 2.066938 0.312757
vt 2.016698 0.312775
vt 2.061294 0.505136
vt 2.066937 0.122012
vt 1.291347 -0.380004
vt 2.054802 0.312774
vt 2.066938 0.505114
vt 1.406206 -0.380004
vt 2.061294 0.720252
vt 2.016698 0.505137
vt 2.054802 0.505136
vt 2.066937 0.312757
vt 1.164005 -0.380004
vt 2.016698 0.720253
vt 1.406203 -0.373802
vt 2.066937 0.505114
vt 1.164004 -0.373802
vt 1.443182 -0.373802
vt 2.066938 0.720224
vt 2.061293 0.312775
vt 1.451707 -0.373802
vt 2.061294 0.926266
vt 2.061293 0.122024
vt 2.054802 0.720252
vt 2.066938 0.926232
vt 2.061293 -0.119811
vt 2.061294 1.152197
vt 2.066938 -0.119817
vt 2.066938 0.720225
vt 2.066938 1.152158
vt 2.016698 0.926268
vt 2.066938 -0.324503
vt 2.066938 1.329433
vt 2.066938 0.926233
vt 2.066938 1.152159
vt 2.061294 1.329477
vt 2.054802 1.152198
vt 2.061294 1.342987
vt 2.061293 0.926267
vt 2.061294 -0.339743
vt 2.066938 1.342982
vt 2.061293 0.720253
vt 2.061294 -0.324502
vt 2.062994 1.359433
vt 2.061293 0.505137
vt 2.054802 1.329477
vt 2.067854 1.359249
vt 2.062822 1.372148
vt 2.066938 1.342983
vt 2.055223 1.343700
vt 2.066938 1.329433
vt 2.067597 1.378052
vt 2.016698 1.152200
vt 2.054802 0.926266
vt 2.061293 1.329478
vt 2.064676 1.381259
vt 2.061293 1.342988
vt 2.062724 1.380623
vt 2.065914 1.358619
vt 2.065647 1.377417
vt 2.056690 1.374190
vt 2.059709 1.358365
vt 2.059527 1.371077
vt 2.044982 1.380546
vt 2.016698 1.329479
vt 2.044395 1.374136
vt 2.046934 1.381182
vt 2.033656 1.374725
vt 2.059986 1.375262
vt 2.033661 1.380927
vt 2.047691 1.375208
vt 2.033661 1.380927
vt 2.016743 1.380927
vt 2.054986 1.363190
vt 2.016743 1.380927
vt 2.052064 1.366349
vt 2.016735 1.374725
vt 2.033656 1.374724
vt 1.786949 1.380927
vt 2.052152 1.360164
vt 2.033992 1.368847
vt 2.016735 1.374724
vt 1.786943 1.374724
vt 1.786949 1.380927
vt 1.786940 1.369017
vt 1.521076 1.380927
vt 1.786943 1.374725
vt 2.049103 1.363397
vt 2.016731 1.369016
vt 1.521076 1.380927
vt 2.038560 1.345656
vt 1.786915 1.329488
vt 1.521072 1.374724
vt 1.521070 1.369018
vt 1.521054 1.329499
vt 1.382358 1.369019
vt 2.035101 1.349440
vt 1.382346 1.329504
vt 1.365296 1.329505
vt 1.382360 1.374724
vt 1.365308 1.369019
vt 1.365309 1.374724
vt 1.382363 1.380927
vt 1.291340 1.329508
vt 1.291349 1.369020
vt 1.036663 1.329518
vt 1.291350 1.374724
vt 1.365312 1.380927
vt 1.382363 1.380927
vt 1.036663 1.369021
vt 1.521072 1.374725
vt 1.030232 1.369021
vt 1.365312 1.380927
vt 1.030232 1.329518
vt 1.291353 1.380927
vt 1.382360 1.374725
vt 1.022328 1.369021
vt 1.036663 1.374724
vt 1.022328 1.329518
vt 1.036663 1.380927
vt 1.030232 1.374724
vt 1.015167 1.369021
vt 1.291353 1.380927
vt 1.015167 1.329518
vt 1.030232 1.380927
vt 1.009317 1.369021
vt 1.022328 1.374725
vt 1.030232 1.380927
vt 1.009317 1.329518
vt 1.036663 1.380927
vt 1.001590 1.369021
vt 1.022328 1.380927
vt 1.291350 1.374725
vt 1.001590 1.329518
vt 1.022328 1.380927
vt 1.365309 1.374725
vt 0.996425 1.369016
vt 1.015167 1.380927
vt 0.996393 1.329479
vt 1.015167 1.380927
vt 0.766610 1.329488
vt 1.009317 1.380927
vt 1.022328 1.374725
vt 1.015167 1.374725
vt 0.766635 1.369017
vt 1.015167 1.374725
vt 1.009317 1.380927
vt 0.702013 1.369017
vt 1.009317 1.374725
vt 1.009317 1.374725
vt 0.609241 1.329495
vt 0.716262 1.374724
vt 1.001597 1.380924
vt 1.001597 1.380924
vt 0.690853 1.369017
vt 0.766638 1.374724
vt 0.704377 1.374724
vt 0.996430 1.374724
vt 0.996438 1.380927
vt 0.500767 1.374724
vt 1.001590 1.374724
vt 0.500765 1.369018
vt 0.271044 1.369020
vt 0.766644 1.380927
vt 0.271046 1.374724
vt 0.730356 1.380927
vt 0.996438 1.380927
vt 0.500771 1.380927
vt 0.766644 1.380927
vt 1.001590 1.374720
vt 0.271048 1.380927
vt 0.996430 1.374725
vt 0.500771 1.380927
vt 0.766638 1.374725
vt 0.720562 1.380927
vt 0.080269 1.380927
vt 0.271048 1.380927
vt 0.227044 1.374724
vt 0.500767 1.374725
vt 0.080225 1.374724
vt 0.016359 1.380927
vt 0.271046 1.374725
vt 0.227418 1.369020
vt 0.016359 1.374724
vt 0.016359 1.380927
vt 0.080210 1.369021
vt 0.016359 1.374725
vt 0.271036 1.329508
vt 0.009927 1.380927
vt 0.227340 1.329510
vt 0.009927 1.380927
vt 0.080107 1.329515
vt 0.009927 1.374725
vt 0.500749 1.329499
vt 0.016359 1.369021
vt 0.002023 1.380927
vt 0.596720 1.329495
vt 0.002023 1.380927
vt 0.002023 1.374725
vt -0.005138 1.380927
vt 0.009927 1.374724
vt -0.005138 1.380927
vt -0.005138 1.374725
vt -0.005138 1.374725
vt -0.010988 1.380927
vt 0.002023 1.374725
vt -0.010988 1.374725
vt 0.009927 1.369021
vt -0.010988 1.380927
vt -0.018715 1.374725
vt 0.002023 1.369021
vt 0.016358 1.329518
vt -0.018715 1.380927
vt 0.009927 1.329518
vt -0.023896 1.380927
vt 0.002023 1.329518
vt -0.018715 1.380927
vt -0.010988 1.374725
vt -0.023896 1.380927
vt -0.005138 1.369021
vt -0.005138 1.329518
vt -0.023896 1.374725
vt -0.018715 1.374724
vt -0.010988 1.369021
vt -0.268819 1.380927
vt -0.023896 1.374724
vt -0.268819 1.380927
vt -0.010988 1.329518
vt -0.268820 1.374724
vt -0.268820 1.374725
vt -0.018715 1.369021
vt -0.018715 1.329518
vt -0.521995 1.374724
vt -0.023896 1.369021
vt -0.521993 1.380927
vt -0.521993 1.380927
vt -0.023896 1.329518
vt -0.771045 1.374724
vt -0.521995 1.374725
vt -0.268820 1.369020
vt -0.771042 1.380927
vt -0.268821 1.329508
vt -1.020094 1.374724
vt -0.771042 1.380927
vt -0.521995 1.369018
vt -1.020090 1.380927
vt -0.771045 1.374725
vt -1.058434 1.374724
vt -0.771045 1.369017
vt -1.020090 1.380927
vt -1.063991 1.380927
vt -1.020094 1.374725
vt -1.066926 1.377703
vt -1.020095 1.369016
vt -1.058434 1.374725
vt -1.066926 1.377704
vt -0.771047 1.329488
vt -1.063991 1.380927
vt -1.066926 1.329431
vt -1.020097 1.329477
vt -1.061282 1.371595
vt -1.053490 1.368890
vt -1.061282 1.371596
vt -1.055836 1.366024
vt -1.066926 1.329432
vt -1.054160 1.329476
vt -1.061282 1.329475
vt -1.061282 1.329476
vt -1.054160 1.150706
vt -1.061282 1.150826
vt -1.020097 1.150587
vt -1.066926 1.150748
vt -1.061282 1.150731
vt -1.054160 0.922875
vt -1.061282 0.923146
vt -1.066926 1.150689
vt -1.066926 0.923025
vt -1.020097 0.922602
vt -1.061282 0.922932
vt -1.061282 0.715539
vt -1.061282 0.715215
vt -1.066926 0.922891
vt -1.054160 0.715129
vt -1.066926 0.715379
vt -1.020097 0.714715
vt -1.061282 0.498758
vt -1.061282 0.498321
vt -1.054160 0.498204
vt -1.066926 0.715177
vt -1.066926 0.498558
vt -1.020097 0.497643
vt -1.061282 0.304909
vt -1.061282 0.304369
vt -1.054160 0.304224
vt -1.066926 0.498285
vt -1.066926 0.304672
vt -1.020097 0.303533
vt -1.061282 0.114640
vt -1.054160 0.114230
vt -1.066926 0.304335
vt -1.066926 0.114592
vt -1.061282 0.114161
vt -1.020097 0.114559
vt -1.066926 -0.122170
vt -1.066926 0.114553
vt -1.054160 -0.122159
vt -1.061282 -0.122131
vt -1.020097 -0.121819
vt -1.066926 -0.223305
vt -1.066926 -0.122238
vt -1.020097 -0.221106
vt -1.061282 -0.122230
vt -1.061282 -0.224069
vt -1.054160 -0.222815
vt -1.066926 -0.324503
vt -1.061282 -0.223173
vt -1.020097 -0.324504
vt -1.061282 -0.324503
vt -1.066926 -0.223501
vt -1.061282 -0.339387
vt -1.054160 -0.324504
vt -1.066926 -0.324504
vt -1.067051 -0.339267
vt -1.061282 -0.324504
vt -0.897985 -0.324504
vt -0.898784 -0.365842
vt -1.066926 -0.339387
vt -1.061282 -0.339388
vt -0.732516 -0.365842
vt -1.064069 -0.356904
vt -0.731868 -0.324503
vt -1.057509 -0.363738
vt -1.054667 -0.340827
vt -0.691078 -0.365842
vt -1.035920 -0.342237
vt -1.041128 -0.343773
vt -0.685693 -0.317548
vt -1.034955 -0.345614
vt -1.051577 -0.357514
vt -0.487733 -0.365841
vt -1.064375 -0.371228
vt -0.487309 -0.317547
vt -1.037670 -0.348100
vt -1.055840 -0.366920
vt -0.487815 -0.373802
vt -1.020096 -0.365842
vt -1.067408 -0.355705
vt -0.477224 -0.365841
vt -1.067854 -0.375599
vt -0.476653 -0.317547
vt -0.898938 -0.373802
vt -1.065306 -0.379171
vt -0.450989 -0.365841
vt -0.732641 -0.373802
vt -1.064471 -0.374474
vt -0.450898 -0.373802
vt -0.732860 -0.380004
vt -1.065591 -0.354558
vt -0.477369 -0.373802
vt -0.899210 -0.380004
vt -1.057739 -0.369020
vt -0.293566 -0.373802
vt -1.020096 -0.373802
vt -1.061925 -0.378046
vt -0.293356 -0.365841
vt -1.020091 -0.380004
vt -1.052464 -0.381259
vt -0.252013 -0.373802
vt -1.033226 -0.380004
vt -1.061940 -0.374639
vt -0.252084 -0.380004
vt -1.033226 -0.380004
vt -0.294174 -0.380004
vt -1.020091 -0.380004
vt -1.033158 -0.373802
vt -0.293967 -0.380004
vt -1.033158 -0.373802
vt -1.047229 -0.373502
vt -1.020096 -0.373802
vt -1.049083 -0.380134
vt -0.450833 -0.380004
vt -0.898871 -0.380004
vt -1.055307 -0.372432
vt -0.477499 -0.380004
vt -0.732586 -0.380004
vt -1.050157 -0.364726
vt -0.487959 -0.380004
vt -0.692791 -0.380004
vt -1.053667 -0.360262
vt -0.692122 -0.373802
vt -1.034401 -0.366716
vt -1.058999 -0.354676
vt -1.047548 -0.361252
vt 1.015167 -0.365841
vt 1.022328 -0.365841
vt 1.015167 -0.324501
vt 1.009317 -0.324502
vt 1.022328 -0.324502
vt 1.009317 -0.365841
vt 1.030232 -0.365841
vt 1.001590 -0.324502
vt 1.015167 -0.373802
vt 1.022328 -0.373802
vt 1.030232 -0.324502
vt 1.001590 -0.365841
vt 1.030232 -0.373802
vt 0.996393 -0.324503
vt 1.022328 -0.380004
vt 1.001590 -0.373802
vt 1.036663 -0.365841
vt 1.015167 -0.380004
vt 0.996406 -0.365842
vt 1.036663 -0.324502
vt 1.022328 -0.380004
vt 0.996409 -0.373802
vt 0.918908 -0.324503
vt 1.100334 -0.365841
vt 1.015167 -0.380004
vt 0.827774 -0.324503
vt 1.100334 -0.373802
vt 1.030232 -0.380004
vt 0.827415 -0.365842
vt 1.036663 -0.373802
vt 1.030232 -0.380004
vt 0.826811 -0.373802
vt 1.036663 -0.380004
vt 0.996412 -0.380004
vt 1.030232 -0.373802
vt 0.826705 -0.380004
vt 1.022328 -0.373802
vt 1.001590 -0.380004
vt 0.827768 -0.380005
vt 0.996412 -0.380005
vt 0.766622 -0.373802
vt 1.015167 -0.373802
vt 0.829032 -0.373802
vt 0.766620 -0.365841
vt 1.009317 -0.373802
vt 0.996409 -0.373802
vt 0.602764 -0.365841
vt 1.009317 -0.380004
vt 0.766622 -0.373802
vt 0.606974 -0.324502
vt 1.001590 -0.373802
vt 0.766627 -0.380005
vt 0.766610 -0.324503
vt 1.009317 -0.380004
vt 0.500749 -0.324502
vt 0.500755 -0.365841
vt 0.602531 -0.373802
vt 0.766627 -0.380004
vt 1.009317 -0.373802
vt 0.385892 -0.324502
vt 0.601721 -0.380005
vt 0.385897 -0.365841
vt 0.500757 -0.373802
vt 0.271039 -0.365841
vt 0.500757 -0.373802
vt 0.500760 -0.380005
vt 1.001590 -0.380004
vt 0.385898 -0.373802
vt 0.601409 -0.380004
vt 0.385901 -0.380004
vt 0.385898 -0.373802
vt 0.500760 -0.380004
vt 0.271042 -0.380004
vt 0.601778 -0.373802
vt 0.271040 -0.373802
vt 0.143699 -0.373802
vt 0.143700 -0.380004
vt 0.203905 -0.380004
vt 0.080029 -0.373802
vt 0.184426 -0.380004
vt 0.080029 -0.380004
vt 0.061093 -0.380004
vt 0.271040 -0.373802
vt 0.016358 -0.373802
vt 0.061279 -0.380004
vt 0.143699 -0.373802
vt 0.016358 -0.380004
vt 0.203905 -0.373802
vt 0.184426 -0.373802
vt 0.080029 -0.373802
vt 0.009927 -0.373802
vt 0.061566 -0.373802
vt 0.009927 -0.380004
vt 0.080029 -0.365841
vt 0.203996 -0.365841
vt 0.002023 -0.380004
vt 0.061814 -0.365841
vt 0.185756 -0.365841
vt 0.002023 -0.380004
vt 0.080028 -0.324502
vt 0.225094 -0.347978
vt 0.009927 -0.380004
vt 0.143699 -0.365841
vt -0.005138 -0.380004
vt 0.143697 -0.324502
vt 0.224993 -0.356608
vt -0.005138 -0.380004
vt 0.002023 -0.373802
vt 0.237231 -0.343189
vt -0.005138 -0.373802
vt 0.225367 -0.324502
vt -0.010988 -0.373802
vt 0.237367 -0.324502
vt 0.143697 -0.312507
vt -0.010988 -0.380004
vt 0.271036 -0.329850
vt 0.080028 -0.312765
vt -0.018715 -0.373802
vt 0.271037 -0.336360
vt 0.061454 -0.324502
vt 0.282254 -0.324502
vt 0.016358 -0.312765
vt 0.143697 -0.312765
vt 0.271036 -0.324502
vt 0.016358 -0.324502
vt -0.010988 -0.380004
vt 0.298311 -0.324502
vt -0.018715 -0.380004
vt -0.005138 -0.373802
vt 0.271036 -0.312507
vt 0.307414 -0.312507
vt 0.002023 -0.373802
vt 0.237031 -0.312507
vt 0.385892 -0.312507
vt -0.005138 -0.365841
vt 0.009927 -0.373802
vt 0.225507 -0.312507
vt -0.010988 -0.365841
vt 0.016358 -0.373802
vt 0.002023 -0.365841
vt -0.010988 -0.324502
vt -0.010988 -0.373802
vt 0.016358 -0.380004
vt -0.005138 -0.324501
vt 0.009927 -0.365841
vt -0.018715 -0.324502
vt -0.018715 -0.380004
vt 0.002023 -0.324502
vt -0.018715 -0.365841
vt -0.018715 -0.373802
vt 0.009927 -0.324502
vt -0.023896 -0.380004
vt 0.016358 -0.365841
vt -0.023896 -0.373802
vt -0.023896 -0.324502
vt -0.023896 -0.380004
vt -0.023896 -0.365841
vt -0.237685 -0.380004
vt -0.236745 -0.324502
vt -0.251996 -0.380004
vt -0.237464 -0.373802
vt -0.237215 -0.365841
vt -0.250060 -0.373802
vt -0.023896 -0.373802
vt -0.294074 -0.373802
vt -0.251973 -0.365841
vt -0.483842 -0.373802
vt -0.251765 -0.324502
vt -0.487779 -0.380004
vt -0.691331 -0.373802
vt -0.692351 -0.380004
vt -0.298483 -0.317547
vt -0.726572 -0.373802
vt -0.451101 -0.317547
vt -0.891446 -0.373802
vt 1.036663 1.374725
vt 1.030232 1.374725
vt 1.036663 -0.380004
vt 1.100334 -0.380004
vt 1.036663 -0.373802
vt 1.164004 -0.373802
vt 1.100334 -0.373802
vt 1.291345 -0.373802
vt 1.164004 -0.365841
vt 1.100332 -0.324502
vt 1.164002 -0.324502
vt 0.738337 0.139044
vt 1.291344 -0.365841
vt 0.766613 0.139044
vt 1.406202 -0.365841
vt 1.291340 -0.324502
vt 0.794889 0.139044
vt 1.406197 -0.324502
vt 1.164002 -0.312507
vt 1.443181 -0.365841
vt 1.291340 -0.312507
vt 1.406197 -0.312507
vt 1.451706 -0.365841
vt 1.443175 -0.324502
vt 1.521060 -0.365841
vt 1.451700 -0.324502
vt 1.521054 -0.324502
vt 1.786925 -0.365841
vt 1.786915 -0.324503
vt 1.940726 -0.324503
vt 2.048744 -0.363486
vt 2.034649 -0.348670
vt 2.037385 -0.345241
vt 2.061293 1.152199
vt -1.053862 -0.375708
vt -0.521996 1.329498
vt 0.766610 -0.312220
vt 0.706532 -0.312219
vt 0.606974 -0.312219
vt 0.830605 -0.312220
vt 0.918908 -0.312220
s 1
g board2:Board_board2:board1:Board:pieces:LM_StitchedGameBoard_board2:board1:Board:pieces:LM_StitchedGameBoard
usemtl board2:board1:Board:pieces:LM_StitchedGameBoard
f 1/1/1 2/2/1 3/3/2
f 3/3/2 2/2/1 4/4/3
f 2/2/1 5/5/4 4/4/3
f 4/4/3 5/5/4 6/6/5
f 7/7/6 6/6/5 5/5/4
f 2/2/1 8/8/7 5/5/4
f 5/5/4 8/8/7 9/9/4
f 1/1/1 3/3/2 10/10/8
f 9/9/4 7/7/6 5/5/4
f 4/4/3 6/6/5 11/11/3
f 12/12/9 1/1/1 10/10/8
f 8/8/7 13/13/10 9/9/4
f 3/3/2 4/4/3 14/14/2
f 14/14/2 4/4/3 11/11/3
f 15/15/11 1/1/1 12/12/9
f 8/8/7 15/15/11 13/13/10
f 1/1/1 15/15/11 2/2/1
f 14/14/2 11/11/3 16/16/12
f 15/15/11 12/12/9 17/17/13
f 13/13/10 15/15/11 17/17/13
f 2/2/1 15/15/11 8/8/7
f 18/18/14 14/14/2 16/16/12
f 17/17/13 12/12/9 19/19/15
f 9/9/4 13/13/10 20/20/16
f 21/21/14 14/14/2 18/18/14
f 13/13/10 17/17/13 22/22/13
f 23/23/17 19/19/15 12/12/9
f 21/21/14 3/3/2 14/14/2
f 20/20/16 13/13/10 24/24/18
f 24/24/18 13/13/10 22/22/13
f 19/19/15 25/25/15 17/17/13
f 26/26/19 3/3/2 21/21/14
f 27/27/20 24/24/18 22/22/13
f 25/25/15 19/19/15 28/28/15
f 19/19/15 23/23/17 28/28/15
f 10/10/8 3/3/2 26/26/19
f 10/10/8 23/23/17 12/12/9
f 27/27/20 22/22/13 29/29/21
f 28/28/15 30/30/22 25/25/15
f 31/31/23 23/23/17 10/10/8
f 26/26/19 31/31/23 10/10/8
f 29/29/21 22/22/13 32/32/13
f 28/28/15 33/33/24 30/30/22
f 34/34/14 31/31/23 26/26/19
f 29/29/21 32/32/13 35/35/25
f 35/35/25 32/32/13 25/25/15
f 30/30/22 33/33/24 36/36/26
f 31/31/23 37/37/17 23/23/17
f 25/25/15 30/30/22 35/35/25
f 33/33/24 28/28/15 37/37/17
f 36/36/26 33/33/24 38/38/27
f 37/37/17 28/28/15 23/23/17
f 17/17/13 25/25/15 32/32/13
f 22/22/13 17/17/13 32/32/13
f 38/38/27 33/33/24 39/39/23
f 39/39/23 33/33/24 37/37/17
f 39/39/23 37/37/17 31/31/23
f 36/36/26 38/38/27 40/40/28
f 29/29/21 35/35/25 41/41/29
f 34/34/14 38/38/27 39/39/23
f 39/39/23 31/31/23 34/34/14
f 36/36/26 40/40/28 42/42/30
f 41/41/29 35/35/25 43/43/31
f 40/40/28 38/38/27 34/34/14
f 44/44/29 29/29/21 41/41/29
f 40/40/28 45/45/30 42/42/30
f 41/41/29 43/43/31 46/46/29
f 34/34/14 21/21/14 40/40/28
f 27/27/20 29/29/21 44/44/29
f 44/44/29 41/41/29 47/47/29
f 47/47/29 41/41/29 46/46/29
f 21/21/14 34/34/14 26/26/19
f 48/48/32 27/27/20 44/44/29
f 49/49/32 44/44/29 47/47/29
f 46/46/29 43/43/31 50/50/33
f 40/40/28 21/21/14 18/18/14
f 48/48/32 44/44/29 49/49/32
f 47/47/29 46/46/29 51/51/29
f 52/52/34 40/40/28 18/18/14
f 53/53/35 27/27/20 48/48/32
f 49/49/32 47/47/29 54/54/36
f 18/18/14 16/16/12 52/52/34
f 53/53/35 24/24/18 27/27/20
f 45/45/30 40/40/28 52/52/34
f 54/54/36 47/47/29 55/51/36
f 52/52/34 16/16/12 56/55/12
f 51/51/29 46/46/29 57/56/29
f 54/54/36 55/51/36 58/57/36
f 52/52/34 56/55/12 59/58/34
f 59/58/34 45/45/30 52/52/34
f 51/51/29 57/56/29 60/59/29
f 58/57/36 55/51/36 61/59/36
f 59/58/34 56/55/12 62/60/12
f 63/61/34 45/45/30 59/58/34
f 60/59/29 57/56/29 64/62/29
f 58/57/36 61/59/36 65/63/36
f 66/64/34 45/45/30 63/61/34
f 60/59/29 64/62/29 67/65/29
f 59/58/34 62/60/12 68/66/34
f 65/63/36 61/59/36 67/65/29
f 68/66/34 63/61/34 59/58/34
f 69/67/30 45/45/30 66/64/34
f 65/63/36 67/65/29 70/68/36
f 68/66/34 62/60/12 71/69/12
f 45/45/30 69/67/30 42/42/30
f 66/64/34 63/61/34 72/70/34
f 68/66/34 71/69/12 73/71/34
f 62/60/12 74/72/12 71/69/12
f 70/68/36 67/65/29 75/73/29
f 72/70/34 63/61/34 76/74/34
f 73/71/34 76/74/34 68/66/34
f 73/71/34 71/69/12 77/75/12
f 67/65/29 78/76/29 75/73/29
f 76/74/34 63/61/34 68/66/34
f 73/71/34 77/75/12 79/77/34
f 67/65/29 64/62/29 78/76/29
f 72/70/34 76/74/34 80/78/34
f 81/79/34 76/74/34 73/71/34
f 79/77/34 81/79/34 73/71/34
f 71/69/12 82/80/12 77/75/12
f 75/73/29 78/76/29 83/73/29
f 80/78/34 76/74/34 81/79/34
f 71/69/12 74/72/12 82/80/12
f 75/73/29 83/73/29 84/81/29
f 80/78/34 81/79/34 85/82/34
f 78/76/29 86/83/37 83/73/29
f 77/75/12 82/80/12 87/84/38
f 88/85/36 75/73/29 84/81/29
f 78/76/29 89/86/39 86/83/37
f 77/75/12 87/84/38 90/87/12
f 70/68/36 75/73/29 88/85/36
f 91/62/39 89/86/39 78/76/29
f 79/77/34 77/75/12 90/87/12
f 82/80/12 92/88/40 87/84/38
f 91/62/39 93/89/39 89/86/39
f 79/77/34 90/87/12 94/90/34
f 82/80/12 95/91/41 92/88/40
f 96/56/39 93/89/39 91/62/39
f 94/90/34 97/92/34 79/77/34
f 74/72/12 95/91/41 82/80/12
f 96/56/39 50/50/33 93/89/39
f 94/90/34 90/87/12 98/93/12
f 74/72/12 99/94/42 95/91/41
f 46/46/29 50/50/33 96/56/39
f 94/90/34 98/93/12 100/95/34
f 101/96/12 99/94/42 74/72/12
f 90/87/12 102/97/12 98/93/12
f 97/92/34 81/79/34 79/77/34
f 62/60/12 101/96/12 74/72/12
f 90/87/12 87/84/38 102/97/12
f 85/82/34 81/79/34 97/92/34
f 56/55/12 101/96/12 62/60/12
f 100/95/34 98/93/12 103/98/12
f 85/82/34 97/92/34 104/99/34
f 56/55/12 105/100/12 101/96/12
f 103/98/12 106/101/12 100/95/34
f 98/93/12 107/102/12 103/98/12
f 98/93/12 102/97/12 107/102/12
f 16/16/12 105/100/12 56/55/12
f 103/98/12 108/103/12 106/101/12
f 100/95/34 106/101/12 109/104/43
f 103/98/12 107/102/12 108/103/12
f 16/16/12 11/11/3 105/100/12
f 109/104/43 110/105/34 100/95/34
f 106/101/12 111/106/44 109/104/43
f 107/102/12 112/107/45 108/103/12
f 11/11/3 113/108/5 105/100/12
f 114/109/46 111/106/44 106/101/12
f 102/97/12 115/110/47 107/102/12
f 107/102/12 115/110/47 112/107/45
f 105/100/12 113/108/5 116/111/48
f 111/106/44 114/109/46 117/112/49
f 102/97/12 118/113/50 115/110/47
f 105/100/12 116/111/48 101/96/12
f 111/106/44 119/114/51 109/104/43
f 87/84/38 118/113/50 102/97/12
f 117/112/49 114/109/46 120/115/46
f 101/96/12 116/111/48 99/94/42
f 87/84/38 92/88/40 118/113/50
f 117/112/49 120/115/46 121/116/52
f 114/109/46 122/117/46 120/115/46
f 119/114/51 110/105/34 109/104/43
f 123/118/44 119/114/51 111/106/44
f 111/106/44 117/112/49 123/118/44
f 122/117/46 114/109/46 124/119/12
f 121/116/52 120/115/46 125/120/53
f 126/121/34 127/122/34 110/105/34
f 128/123/54 122/117/46 124/119/12
f 125/120/53 129/124/55 121/116/52
f 104/99/34 127/122/34 126/121/34
f 130/125/56 122/117/46 128/123/54
f 129/124/55 125/120/53 131/126/55
f 104/99/34 97/92/34 127/122/34
f 122/117/46 130/125/56 132/127/57
f 120/115/46 132/127/57 125/120/53
f 131/126/55 125/120/53 133/128/53
f 127/122/34 97/92/34 94/90/34
f 120/115/46 122/117/46 132/127/57
f 131/126/55 133/128/53 134/129/58
f 125/120/53 132/127/57 133/128/53
f 100/95/34 127/122/34 94/90/34
f 132/127/57 130/125/56 135/130/56
f 134/129/58 133/128/53 136/131/58
f 110/105/34 127/122/34 100/95/34
f 135/130/56 136/131/58 132/127/57
f 131/126/55 134/129/58 137/132/59
f 132/127/57 136/131/58 133/128/53
f 126/121/34 110/105/34 138/133/34
f 131/126/55 137/132/59 129/124/55
f 137/132/59 134/129/58 139/134/60
f 138/133/34 110/105/34 140/114/34
f 129/124/55 137/132/59 141/135/61
f 139/134/60 142/136/60 137/132/59
f 129/124/55 141/135/61 143/137/62
f 137/132/59 142/136/60 144/138/63
f 121/116/52 129/124/55 143/137/62
f 143/137/62 141/135/61 145/139/64
f 141/135/61 137/132/59 146/140/63
f 144/138/63 142/136/60 147/141/65
f 143/137/62 148/142/66 121/116/52
f 141/135/61 146/140/63 145/139/64
f 146/140/63 137/132/59 144/138/63
f 149/143/65 144/138/63 147/141/65
f 121/116/52 148/142/66 117/112/49
f 145/139/64 150/144/64 143/137/62
f 146/140/63 144/138/63 149/143/65
f 147/141/65 142/136/60 151/145/67
f 150/144/64 148/142/66 143/137/62
f 146/140/63 149/143/65 152/146/68
f 145/139/64 146/140/63 152/146/68
f 149/143/65 147/141/65 153/147/65
f 150/144/64 154/148/66 148/142/66
f 152/146/68 155/149/68 145/139/64
f 152/146/68 149/143/65 156/150/69
f 157/151/70 149/143/65 153/147/65
f 145/139/64 155/149/68 150/144/64
f 148/142/66 154/148/66 123/118/44
f 156/150/69 149/143/65 157/151/70
f 153/147/65 147/141/65 158/152/65
f 147/141/65 151/145/67 158/152/65
f 117/112/49 148/142/66 123/118/44
f 157/151/70 159/153/70 156/150/69
f 153/147/65 158/152/65 160/154/71
f 158/152/65 151/145/67 161/155/72
f 162/156/64 154/148/66 150/144/64
f 156/150/69 159/153/70 163/157/73
f 158/152/65 161/155/72 164/158/65
f 160/154/71 158/152/65 164/158/65
f 162/156/64 165/159/74 154/148/66
f 159/153/70 166/160/70 163/157/73
f 167/161/70 153/147/65 160/154/71
f 157/151/70 153/147/65 167/161/70
f 154/148/66 165/159/74 168/118/75
f 163/157/73 166/160/70 169/133/73
f 167/161/70 170/162/70 157/151/70
f 157/151/70 170/162/70 159/153/70
f 168/118/75 165/159/74 171/114/76
f 159/153/70 172/163/70 166/160/70
f 167/161/70 173/164/69 170/162/70
f 169/133/73 174/165/77 163/157/73
f 170/162/70 172/163/70 159/153/70
f 171/114/76 165/159/74 175/133/76
f 173/164/69 176/166/69 170/162/70
f 163/157/73 174/165/77 177/149/78
f 170/162/70 176/166/69 172/163/70
f 174/165/77 178/133/79 165/159/74
f 173/164/69 179/167/69 176/166/69
f 177/149/78 174/165/77 162/156/64
f 180/168/69 173/164/69 167/161/70
f 174/165/77 165/159/74 162/156/64
f 181/169/69 179/167/69 173/164/69
f 155/149/68 152/146/68 163/157/73
f 180/168/69 181/169/69 173/164/69
f 167/161/70 160/154/71 182/168/80
f 155/149/68 162/156/64 150/144/64
f 163/157/73 152/146/68 156/150/69
f 183/170/69 181/169/69 180/168/69
f 182/168/80 160/154/71 184/171/80
f 181/169/69 185/172/69 179/167/69
f 183/170/69 186/173/69 181/169/69
f 186/173/69 185/172/69 181/169/69
f 182/168/80 184/171/80 187/170/80
f 160/154/71 164/158/65 188/171/71
f 186/173/69 189/174/69 185/172/69
f 190/175/70 186/173/69 183/170/69
f 187/170/80 184/171/80 191/176/80
f 188/171/71 164/158/65 192/177/71
f 187/170/80 191/176/80 190/175/70
f 193/178/81 189/174/69 186/173/69
f 188/171/71 192/177/71 194/176/71
f 164/158/65 161/155/72 195/179/72
f 190/175/70 193/178/81 186/173/69
f 196/180/82 189/174/69 193/178/81
f 194/176/71 192/177/71 197/181/71
f 164/158/65 195/179/72 198/177/72
f 199/182/83 189/174/69 196/180/82
f 194/176/71 197/181/71 200/183/65
f 190/175/70 191/176/80 200/183/65
f 198/177/72 195/179/72 201/184/72
f 202/185/84 199/182/83 196/180/82
f 190/175/70 200/183/65 203/186/81
f 203/186/81 193/178/81 190/175/70
f 198/177/72 201/184/72 204/181/72
f 205/187/85 199/182/83 202/185/84
f 203/186/81 200/183/65 206/188/71
f 196/180/82 193/178/81 207/189/86
f 208/190/87 205/187/85 202/185/84
f 207/189/86 193/178/81 203/186/81
f 200/183/65 209/191/71 206/188/71
f 210/192/87 205/187/85 208/190/87
f 203/186/81 211/193/65 207/189/86
f 200/183/65 197/181/71 209/191/71
f 206/188/71 211/193/65 203/186/81
f 212/194/88 210/192/87 208/190/87
f 211/193/65 213/195/84 207/189/86
f 202/185/84 196/180/82 213/195/84
f 206/188/71 214/196/65 211/193/65
f 215/197/89 210/192/87 212/194/88
f 213/195/84 196/180/82 207/189/86
f 216/198/71 214/196/65 206/188/71
f 206/188/71 209/191/71 216/198/71
f 217/199/90 215/197/89 212/194/88
f 218/200/71 213/195/84 211/193/65
f 214/196/65 218/200/71 211/193/65
f 209/191/71 219/201/72 216/198/71
f 220/202/91 215/197/89 217/199/90
f 221/203/71 218/200/71 214/196/65
f 209/191/71 222/204/72 219/201/72
f 223/205/92 220/202/91 217/199/90
f 221/203/71 224/206/65 218/200/71
f 204/181/72 222/204/72 209/191/71
f 225/207/92 220/202/91 223/205/92
f 226/208/65 224/206/65 221/203/71
f 204/181/72 201/184/72 222/204/72
f 223/205/92 227/209/70 225/207/92
f 226/208/65 228/210/93 224/206/65
f 229/211/94 226/208/65 221/203/71
f 224/206/65 230/212/87 218/200/71
f 231/213/70 227/209/70 223/205/92
f 232/214/95 226/208/65 229/211/94
f 224/206/65 228/210/93 233/215/96
f 224/206/65 233/215/96 230/212/87
f 234/216/70 227/209/70 231/213/70
f 232/214/95 235/217/97 226/208/65
f 226/208/65 235/217/97 228/210/93
f 230/212/87 233/215/96 236/218/89
f 237/219/70 227/209/70 234/216/70
f 234/216/70 231/213/70 238/220/70
f 239/221/96 233/215/96 228/210/93
f 240/222/96 236/218/89 233/215/96
f 241/223/70 237/219/70 234/216/70
f 238/220/70 231/213/70 242/224/70
f 240/222/96 233/215/96 239/221/96
f 241/223/70 234/216/70 243/225/70
f 243/225/70 234/216/70 238/220/70
f 242/224/70 231/213/70 244/226/98
f 239/221/96 245/227/99 240/222/96
f 246/228/70 241/223/70 243/225/70
f 244/226/98 245/227/99 242/224/70
f 244/226/98 231/213/70 247/205/70
f 245/227/99 248/229/90 240/222/96
f 248/229/90 236/218/89 240/222/96
f 249/230/70 241/223/70 246/228/70
f 244/226/98 248/229/90 245/227/99
f 247/205/70 217/199/90 244/226/98
f 217/199/90 236/218/89 248/229/90
f 246/228/70 250/231/69 249/230/70
f 242/224/70 245/227/99 251/232/65
f 244/226/98 217/199/90 248/229/90
f 252/233/70 250/231/69 246/228/70
f 251/232/65 253/234/80 242/224/70
f 245/227/99 254/235/100 251/232/65
f 212/194/88 236/218/89 217/199/90
f 246/228/70 255/236/65 252/233/70
f 254/235/100 245/227/99 239/221/96
f 212/194/88 208/190/87 236/218/89
f 256/225/80 255/236/65 246/228/70
f 251/232/65 254/235/100 257/237/65
f 258/238/101 254/235/100 239/221/96
f 236/218/89 208/190/87 230/212/87
f 252/233/70 255/236/65 259/239/65
f 260/240/67 254/235/100 258/238/101
f 254/235/100 260/240/67 257/237/65
f 208/190/87 202/185/84 230/212/87
f 255/236/65 261/241/71 259/239/65
f 239/221/96 228/210/93 258/238/101
f 257/237/65 260/240/67 262/242/72
f 261/241/71 255/236/65 263/243/71
f 259/239/65 264/244/80 252/233/70
f 257/237/65 262/242/72 261/241/71
f 258/238/101 228/210/93 265/217/102
f 259/239/65 261/241/71 266/245/65
f 252/233/70 264/244/80 267/246/80
f 261/241/71 262/242/72 268/247/72
f 257/237/65 261/241/71 269/234/71
f 261/241/71 268/247/72 266/245/65
f 269/234/71 261/241/71 263/243/71
f 270/248/80 267/246/80 264/244/80
f 251/232/65 257/237/65 269/234/71
f 259/239/65 266/245/65 271/244/71
f 264/244/80 272/249/103 270/248/80
f 266/245/65 268/247/72 273/250/72
f 274/246/69 275/251/69 252/233/70
f 266/245/65 272/249/103 271/244/71
f 270/248/80 272/249/103 276/252/81
f 266/245/65 273/250/72 277/253/71
f 274/246/69 278/254/69 275/251/69
f 252/233/70 275/251/69 250/231/69
f 277/253/71 272/249/103 266/245/65
f 277/253/71 273/250/72 279/255/67
f 280/248/69 278/254/69 274/246/69
f 275/251/69 281/256/69 250/231/69
f 277/253/71 282/257/65 272/249/103
f 277/253/71 279/255/67 282/257/65
f 278/254/69 283/258/69 275/251/69
f 283/258/69 281/256/69 275/251/69
f 250/231/69 281/256/69 249/230/70
f 272/249/103 282/257/65 284/259/65
f 285/260/69 283/258/69 278/254/69
f 282/257/65 279/255/67 286/261/104
f 249/230/70 281/256/69 287/262/70
f 288/263/81 285/260/69 278/254/69
f 282/257/65 289/264/65 284/259/65
f 287/262/70 290/265/70 249/230/70
f 280/248/69 288/263/81 278/254/69
f 291/266/71 289/264/65 282/257/65
f 286/261/104 291/266/71 282/257/65
f 249/230/70 290/265/70 241/223/70
f 276/252/81 288/263/81 280/248/69
f 292/267/94 291/266/71 286/261/104
f 291/266/71 293/268/65 289/264/65
f 290/265/70 237/219/70 241/223/70
f 294/269/86 288/263/81 276/252/81
f 295/270/65 293/268/65 291/266/71
f 292/267/94 295/270/65 291/266/71
f 293/268/65 296/271/87 289/264/65
f 276/252/81 284/259/65 294/269/86
f 297/272/95 295/270/65 292/267/94
f 295/270/65 298/273/65 293/268/65
f 289/264/65 296/271/87 299/274/84
f 284/259/65 299/274/84 294/269/86
f 297/272/95 300/275/105 295/270/65
f 295/270/65 300/275/105 298/273/65
f 289/264/65 299/274/84 284/259/65
f 272/249/103 284/259/65 276/252/81
f 301/276/82 288/263/81 294/269/86
f 293/268/65 298/273/65 302/277/65
f 299/274/84 301/276/82 294/269/86
f 293/268/65 302/277/65 296/271/87
f 303/278/104 298/273/65 300/275/105
f 304/279/85 301/276/82 299/274/84
f 301/276/82 305/280/69 288/263/81
f 296/271/87 304/279/85 299/274/84
f 306/281/65 298/273/65 303/278/104
f 298/273/65 306/281/65 302/277/65
f 307/282/83 305/280/69 301/276/82
f 304/279/85 307/282/83 301/276/82
f 305/280/69 285/260/69 288/263/81
f 303/278/104 308/283/65 306/281/65
f 309/284/85 307/282/83 304/279/85
f 302/277/65 306/281/65 310/285/65
f 296/271/87 302/277/65 311/286/106
f 308/283/65 312/287/71 306/281/65
f 313/288/87 309/284/85 304/279/85
f 313/288/87 304/279/85 296/271/87
f 310/285/65 311/286/106 302/277/65
f 306/281/65 312/287/71 310/285/65
f 314/289/87 309/284/85 313/288/87
f 311/286/106 313/288/87 296/271/87
f 315/290/104 308/283/65 303/278/104
f 316/291/107 311/286/106 310/285/65
f 317/292/88 314/289/87 313/288/87
f 315/290/104 318/293/65 308/283/65
f 310/285/65 319/294/69 316/291/107
f 317/292/88 313/288/87 311/286/106
f 312/287/71 319/294/69 310/285/65
f 318/293/65 320/295/71 308/283/65
f 321/296/89 314/289/87 317/292/88
f 308/283/65 320/295/71 312/287/71
f 312/287/71 322/297/70 319/294/69
f 323/298/72 318/293/65 315/290/104
f 324/299/107 321/296/89 317/292/88
f 320/295/71 322/297/70 312/287/71
f 316/291/107 319/294/69 324/299/107
f 317/292/88 311/286/106 324/299/107
f 325/300/91 321/296/89 324/299/107
f 320/295/71 326/301/98 322/297/70
f 324/299/107 311/286/106 316/291/107
f 324/299/107 319/294/69 327/302/69
f 324/299/107 327/302/69 325/300/91
f 318/293/65 328/303/65 320/295/71
f 319/294/69 322/297/70 327/302/69
f 328/303/65 326/301/98 320/295/71
f 323/298/72 329/304/65 318/293/65
f 325/300/91 327/302/69 330/305/69
f 329/304/65 328/303/65 318/293/65
f 328/303/65 331/306/98 326/301/98
f 332/307/72 329/304/65 323/298/72
f 327/302/69 333/308/69 330/305/69
f 327/302/69 322/297/70 333/308/69
f 334/309/65 331/306/98 328/303/65
f 329/304/65 334/309/65 328/303/65
f 326/301/98 333/308/69 322/297/70
f 330/305/69 333/308/69 335/310/69
f 334/309/65 336/311/98 331/306/98
f 337/312/65 334/309/65 329/304/65
f 332/307/72 337/312/65 329/304/65
f 338/313/70 333/308/69 326/301/98
f 339/314/108 336/311/98 334/309/65
f 326/301/98 331/306/98 338/313/70
f 337/312/65 339/314/108 334/309/65
f 340/315/72 337/312/65 332/307/72
f 339/314/108 341/316/109 336/311/98
f 338/313/70 331/306/98 342/317/98
f 340/315/72 343/318/71 337/312/65
f 343/318/71 339/314/108 337/312/65
f 344/319/65 341/316/109 339/314/108
f 331/306/98 336/311/98 342/317/98
f 345/320/104 343/318/71 340/315/72
f 343/318/71 344/319/65 339/314/108
f 344/319/65 346/321/110 341/316/109
f 342/317/98 336/311/98 347/322/98
f 348/323/67 343/318/71 345/320/104
f 346/321/110 344/319/65 349/324/111
f 342/317/98 347/322/98 350/325/98
f 351/326/103 343/318/71 348/323/67
f 346/321/110 349/324/111 352/327/110
f 349/324/111 344/319/65 351/326/103
f 350/325/98 347/322/98 353/328/70
f 351/326/103 344/319/65 343/318/71
f 352/327/110 354/329/98 346/321/110
f 341/316/109 346/321/110 354/329/98
f 353/328/70 347/322/98 355/330/98
f 347/322/98 336/311/98 355/330/98
f 349/324/111 351/326/103 356/331/67
f 355/330/98 336/311/98 341/316/109
f 354/329/98 355/330/98 341/316/109
f 356/331/67 351/326/103 348/323/67
f 353/328/70 355/330/98 357/332/112
f 352/327/110 349/324/111 358/333/113
f 356/331/67 358/333/113 349/324/111
f 357/332/112 355/330/98 354/329/98
f 353/328/70 357/332/112 359/334/26
f 360/335/114 354/329/98 352/327/110
f 361/336/115 358/333/113 356/331/67
f 359/334/26 362/337/34 353/328/70
f 359/334/26 360/335/114 362/337/34
f 360/335/114 357/332/112 354/329/98
f 363/338/116 358/333/113 361/336/115
f 353/328/70 362/337/34 364/339/34
f 359/334/26 357/332/112 360/335/114
f 365/340/110 358/333/113 363/338/116
f 352/327/110 366/341/34 360/335/114
f 362/337/34 360/335/114 366/341/34
f 362/337/34 367/342/34 364/339/34
f 368/343/117 365/340/110 363/338/116
f 369/344/110 366/341/34 352/327/110
f 362/337/34 366/341/34 367/342/34
f 352/327/110 358/333/113 369/344/110
f 370/345/110 365/340/110 368/343/117
f 364/339/34 367/342/34 371/346/34
f 367/342/34 366/341/34 372/347/118
f 369/344/110 372/347/118 366/341/34
f 365/340/110 370/345/110 369/344/110
f 369/344/110 358/333/113 365/340/110
f 373/348/119 370/345/110 368/343/117
f 372/347/118 374/349/34 367/342/34
f 375/350/110 372/347/118 369/344/110
f 367/342/34 376/351/34 371/346/34
f 369/344/110 370/345/110 375/350/110
f 377/352/110 370/345/110 373/348/119
f 375/350/110 374/349/34 372/347/118
f 367/342/34 374/349/34 376/351/34
f 371/346/34 376/351/34 378/353/34
f 370/345/110 377/352/110 375/350/110
f 379/354/120 377/352/110 373/348/119
f 374/349/34 380/355/34 376/351/34
f 376/351/34 381/356/34 378/353/34
f 382/357/110 374/349/34 375/350/110
f 375/350/110 377/352/110 382/357/110
f 383/358/110 377/352/110 379/354/120
f 376/351/34 380/355/34 381/356/34
f 382/357/110 380/355/34 374/349/34
f 378/353/34 381/356/34 384/359/34
f 377/352/110 383/358/110 382/357/110
f 385/360/121 383/358/110 379/354/120
f 380/355/34 386/361/34 381/356/34
f 381/356/34 387/362/122 384/359/34
f 388/363/110 380/355/34 382/357/110
f 382/357/110 383/358/110 388/363/110
f 389/364/110 383/358/110 385/360/121
f 381/356/34 386/361/34 387/362/122
f 388/363/110 386/361/34 380/355/34
f 384/359/34 387/362/122 390/365/122
f 383/358/110 389/364/110 388/363/110
f 391/366/123 389/364/110 385/360/121
f 387/362/122 386/361/34 392/367/122
f 387/362/122 392/367/122 390/365/122
f 393/368/110 386/361/34 388/363/110
f 394/369/110 389/364/110 391/366/123
f 389/364/110 394/369/110 393/368/110
f 388/363/110 389/364/110 393/368/110
f 392/367/122 386/361/34 395/370/124
f 390/365/122 392/367/122 396/371/122
f 391/366/123 397/372/110 394/369/110
f 398/373/110 386/361/34 393/368/110
f 395/370/124 386/361/34 398/373/110
f 392/367/122 395/370/124 399/374/122
f 400/375/125 397/372/110 391/366/123
f 393/368/110 394/369/110 398/373/110
f 396/371/122 392/367/122 401/376/122
f 401/376/122 392/367/122 399/374/122
f 400/375/125 402/377/110 397/372/110
f 398/373/110 394/369/110 403/378/110
f 403/378/110 395/370/124 398/373/110
f 401/376/122 399/374/122 404/379/122
f 397/372/110 402/377/110 403/378/110
f 403/378/110 394/369/110 397/372/110
f 399/374/122 395/370/124 405/380/126
f 406/381/127 402/377/110 400/375/125
f 405/380/126 395/370/124 403/378/110
f 404/379/122 399/374/122 407/382/122
f 406/381/127 408/383/128 402/377/110
f 399/374/122 405/380/126 407/382/122
f 403/378/110 409/384/34 405/380/126
f 404/379/122 407/382/122 410/385/129
f 411/386/130 408/383/128 406/381/127
f 412/387/110 409/384/34 403/378/110
f 407/382/122 405/380/126 409/384/34
f 402/377/110 408/383/128 412/387/110
f 413/388/131 408/383/128 411/386/130
f 403/378/110 402/377/110 412/387/110
f 407/382/122 409/384/34 414/389/132
f 410/385/129 407/382/122 414/389/132
f 412/387/110 408/383/128 415/390/128
f 416/391/133 408/383/128 413/388/131
f 412/387/110 417/392/134 409/384/34
f 404/379/122 410/385/129 418/393/135
f 408/383/128 416/391/133 415/390/128
f 415/390/128 417/392/134 412/387/110
f 414/389/132 409/384/34 417/392/134
f 418/393/135 410/385/129 419/394/136
f 415/390/128 416/391/133 420/395/137
f 417/392/134 421/396/138 414/389/132
f 422/397/139 418/393/135 419/394/136
f 420/395/137 417/392/134 415/390/128
f 423/398/131 416/391/133 413/388/131
f 421/396/138 417/392/134 420/395/137
f 424/399/140 418/393/135 422/397/139
f 413/388/131 425/400/141 423/398/131
f 414/389/132 421/396/138 426/401/138
f 427/402/142 424/399/140 422/397/139
f 428/403/143 425/400/141 413/388/131
f 429/404/144 414/389/132 426/401/138
f 430/405/145 424/399/140 427/402/142
f 428/403/143 431/406/146 425/400/141
f 432/407/138 429/404/144 426/401/138
f 433/408/118 430/405/145 427/402/142
f 410/385/129 414/389/132 429/404/144
f 423/398/131 425/400/141 434/409/147
f 435/410/148 430/405/145 433/408/118
f 436/411/149 410/385/129 429/404/144
f 432/407/138 436/411/149 429/404/144
f 425/400/141 437/412/150 434/409/147
f 425/400/141 431/406/146 437/412/150
f 433/408/118 427/402/142 438/413/118
f 410/385/129 436/411/149 439/414/151
f 434/409/147 440/415/137 423/398/131
f 441/416/118 435/410/148 433/408/118
f 419/394/136 410/385/129 439/414/151
f 442/417/152 440/415/137 434/409/147
f 443/418/153 435/410/148 441/416/118
f 419/394/136 439/414/151 444/419/154
f 442/417/152 434/409/147 445/420/155
f 446/421/33 443/418/153 441/416/118
f 447/422/139 419/394/136 444/419/154
f 442/417/152 445/420/155 448/423/156
f 446/421/33 441/416/118 449/424/157
f 444/419/154 450/425/158 447/422/139
f 440/415/137 442/417/152 451/426/137
f 451/426/137 442/417/152 448/423/156
f 449/424/157 441/416/118 452/427/31
f 453/428/29 450/425/158 444/419/154
f 448/423/156 454/429/159 451/426/137
f 455/430/157 446/421/33 449/424/157
f 456/431/151 453/428/29 444/419/154
f 448/423/156 445/420/155 457/432/155
f 448/423/156 457/432/155 454/429/159
f 458/433/160 446/421/33 455/430/157
f 459/434/29 453/428/29 456/431/151
f 445/420/155 460/435/161 457/432/155
f 461/436/162 458/433/160 455/430/157
f 459/434/29 456/431/151 462/437/161
f 445/420/155 463/438/163 460/435/161
f 455/430/157 464/439/29 461/436/162
f 465/440/161 459/434/29 462/437/161
f 445/420/155 434/409/147 463/438/163
f 462/437/161 460/435/161 465/440/161
f 466/441/158 464/439/29 455/430/157
f 467/442/164 459/434/29 465/440/161
f 459/434/29 467/442/164 453/428/29
f 462/437/161 456/431/151 468/443/165
f 466/441/158 469/444/166 464/439/29
f 470/445/167 467/442/164 465/440/161
f 471/446/168 462/437/161 468/443/165
f 472/424/39 466/441/158 455/430/157
f 473/447/169 467/442/164 470/445/167
f 474/448/170 462/437/161 471/446/168
f 475/449/39 466/441/158 472/424/39
f 467/442/164 473/447/169 476/450/29
f 477/451/171 474/448/170 471/446/168
f 478/427/39 475/449/39 472/424/39
f 453/428/29 467/442/164 476/450/29
f 457/432/155 474/448/170 477/451/171
f 479/452/39 475/449/39 478/427/39
f 453/428/29 476/450/29 450/425/158
f 454/429/159 457/432/155 477/451/171
f 478/427/39 438/413/118 479/452/39
f 457/432/155 460/435/161 474/448/170
f 450/425/158 476/450/29 480/453/158
f 477/451/171 481/454/168 454/429/159
f 479/452/39 438/413/118 482/455/29
f 450/425/158 480/453/158 483/456/29
f 471/446/168 481/454/168 477/451/171
f 454/429/159 481/454/168 484/457/138
f 483/456/29 482/455/29 485/458/139
f 485/458/139 482/455/29 438/413/118
f 471/446/168 486/459/165 481/454/168
f 454/429/159 484/457/138 487/460/138
f 438/413/118 427/402/142 485/458/139
f 468/443/165 486/459/165 471/446/168
f 451/426/137 454/429/159 487/460/138
f 481/454/168 488/461/168 484/457/138
f 486/459/165 468/443/165 439/414/151
f 487/460/138 421/396/138 451/426/137
f 486/459/165 488/461/168 481/454/168
f 484/457/138 488/461/168 432/407/138
f 439/414/151 436/411/149 486/459/165
f 484/457/138 432/407/138 487/460/138
f 451/426/137 421/396/138 420/395/137
f 488/461/168 436/411/149 432/407/138
f 486/459/165 436/411/149 488/461/168
f 439/414/151 468/443/165 456/431/151
f 421/396/138 487/460/138 426/401/138
f 432/407/138 426/401/138 487/460/138
f 420/395/137 440/415/137 451/426/137
f 444/419/154 439/414/151 456/431/151
f 416/391/133 440/415/137 420/395/137
f 440/415/137 416/391/133 423/398/131
f 489/462/84 490/463/83 491/464/87
f 492/465/172 489/462/84 491/464/87
f 491/464/87 490/463/83 493/466/83
f 494/467/173 489/462/84 492/465/172
f 490/463/83 495/468/174 493/466/83
f 496/469/175 494/467/173 492/465/172
f 494/467/173 497/470/176 489/462/84
f 489/462/84 498/471/83 490/463/83
f 493/466/83 495/468/174 499/472/177
f 500/473/178 494/467/173 496/469/175
f 497/470/176 498/471/83 489/462/84
f 498/471/83 501/474/174 490/463/83
f 490/463/83 501/474/174 495/468/174
f 496/469/175 502/475/179 500/473/178
f 497/470/176 503/476/29 498/471/83
f 504/477/89 494/467/173 500/473/178
f 495/468/174 505/478/69 499/472/177
f 506/479/180 503/476/29 497/470/176
f 500/473/178 507/480/181 504/477/89
f 500/473/178 502/475/179 507/480/181
f 499/472/177 505/478/69 508/481/69
f 503/476/29 506/479/180 509/482/29
f 504/477/89 507/480/181 510/483/181
f 507/480/181 502/475/179 511/484/31
f 505/478/69 512/485/182 508/481/69
f 509/482/29 506/479/180 513/486/29
f 514/487/157 507/480/181 511/484/31
f 505/478/69 515/488/183 512/485/182
f 516/489/29 503/476/29 509/482/29
f 517/490/157 507/480/181 514/487/157
f 517/490/157 510/483/181 507/480/181
f 518/491/182 515/488/183 505/478/69
f 519/492/158 503/476/29 516/489/29
f 520/493/157 510/483/181 517/490/157
f 521/494/184 518/491/182 519/492/158
f 521/494/184 515/488/183 518/491/182
f 503/476/29 519/492/158 498/471/83
f 516/489/29 521/494/184 519/492/158
f 510/483/181 520/493/157 522/495/29
f 519/492/158 518/491/182 501/474/174
f 498/471/83 519/492/158 501/474/174
f 509/482/29 523/496/185 516/489/29
f 522/495/29 520/493/157 524/497/29
f 501/474/174 518/491/182 495/468/174
f 525/498/186 523/496/185 509/482/29
f 522/495/29 526/499/29 510/483/181
f 527/500/29 522/495/29 524/497/29
f 495/468/174 518/491/182 505/478/69
f 513/486/29 525/498/186 509/482/29
f 528/501/29 522/495/29 527/500/29
f 522/495/29 528/501/29 526/499/29
f 520/493/157 529/502/157 524/497/29
f 530/503/187 525/498/186 513/486/29
f 531/504/32 528/501/29 527/500/29
f 529/502/157 520/493/157 532/505/118
f 530/503/187 513/486/29 533/506/188
f 534/507/189 528/501/29 531/504/32
f 535/508/33 529/502/157 532/505/118
f 532/505/118 520/493/157 517/490/157
f 533/506/188 513/486/29 536/509/29
f 531/504/32 527/500/29 537/510/32
f 535/508/33 532/505/118 538/511/33
f 536/509/29 539/512/189 533/506/188
f 506/479/180 536/509/29 513/486/29
f 537/510/32 527/500/29 540/513/29
f 538/511/33 532/505/118 541/514/118
f 532/505/118 517/490/157 541/514/118
f 542/515/29 536/509/29 506/479/180
f 527/500/29 524/497/29 540/513/29
f 543/516/37 535/508/33 538/511/33
f 541/514/118 517/490/157 514/487/157
f 506/479/180 497/470/176 542/515/29
f 544/517/37 535/508/33 543/516/37
f 537/510/32 540/513/29 545/518/32
f 540/513/29 524/497/29 546/519/29
f 542/515/29 497/470/176 547/520/87
f 548/521/160 544/517/37 543/516/37
f 540/513/29 546/519/29 549/522/29
f 545/518/32 540/513/29 549/522/29
f 547/520/87 497/470/176 494/467/173
f 550/523/160 544/517/37 548/521/160
f 545/518/32 549/522/29 551/524/32
f 547/520/87 526/499/29 542/515/29
f 550/523/160 548/521/160 552/525/183
f 550/523/160 553/526/33 544/517/37
f 551/524/32 549/522/29 554/527/29
f 526/499/29 555/528/180 542/515/29
f 552/525/183 556/529/37 550/523/160
f 556/529/37 553/526/33 550/523/160
f 549/522/29 557/530/29 554/527/29
f 542/515/29 555/528/180 536/509/29
f 558/531/29 553/526/33 556/529/37
f 549/522/29 546/519/29 557/530/29
f 551/524/32 554/527/29 559/532/36
f 560/533/29 553/526/33 558/531/29
f 558/531/29 556/529/37 561/534/29
f 557/530/29 553/526/33 560/533/29
f 546/519/29 562/535/33 557/530/29
f 554/527/29 557/530/29 560/533/29
f 563/531/29 560/533/29 558/531/29
f 559/532/36 554/527/29 563/531/29
f 562/535/33 553/526/33 557/530/29
f 529/502/157 562/535/33 546/519/29
f 554/527/29 560/533/29 563/531/29
f 559/532/36 563/531/29 564/536/36
f 553/526/33 562/535/33 544/517/37
f 524/497/29 529/502/157 546/519/29
f 563/531/29 558/531/29 565/534/29
f 564/536/36 563/531/29 565/534/29
f 565/534/29 558/531/29 561/534/29
f 544/517/37 562/535/33 535/508/33
f 562/535/33 529/502/157 535/508/33
f 564/536/36 565/534/29 566/537/36
f 565/534/29 561/534/29 567/538/29
f 566/537/36 565/534/29 567/538/29
f 561/534/29 568/539/29 567/538/29
f 566/537/36 567/538/29 569/540/36
f 568/539/29 570/541/29 567/538/29
f 569/540/36 567/538/29 571/542/29
f 570/541/29 572/538/29 567/538/29
f 567/538/29 572/538/29 571/542/29
f 571/542/29 573/543/36 569/540/36
f 561/534/29 574/544/162 575/539/39
f 571/542/29 572/538/29 576/542/29
f 569/540/36 573/543/36 577/545/35
f 561/534/29 556/529/37 574/544/162
f 576/542/29 578/546/29 571/542/29
f 572/538/29 579/547/183 576/542/29
f 573/543/36 580/548/29 577/545/35
f 575/539/39 574/544/162 581/549/39
f 572/538/29 582/550/39 579/547/183
f 576/542/29 579/547/183 583/551/182
f 577/545/35 580/548/29 584/552/185
f 575/539/39 581/549/39 585/541/39
f 585/541/39 581/549/39 582/550/39
f 585/541/39 582/550/39 572/538/29
f 583/551/182 586/553/39 576/542/29
f 584/552/185 580/548/29 587/554/29
f 583/551/182 579/547/183 588/555/182
f 589/549/183 574/544/162 590/556/183
f 591/557/29 584/552/185 587/554/29
f 592/558/69 583/551/182 588/555/182
f 593/559/183 589/549/183 590/556/183
f 587/554/29 594/560/29 591/557/29
f 588/555/182 595/561/69 592/558/69
f 593/559/183 590/556/183 596/562/183
f 597/563/158 594/560/29 587/554/29
f 588/555/182 598/564/182 595/561/69
f 588/555/182 579/547/183 598/564/182
f 590/556/183 574/544/162 552/525/183
f 594/560/29 599/565/29 591/557/29
f 595/561/69 598/564/182 600/566/182
f 596/562/183 600/566/182 593/559/183
f 590/556/183 552/525/183 601/567/183
f 591/557/29 599/565/29 602/568/29
f 596/562/183 590/556/183 601/567/183
f 598/564/182 593/559/183 600/566/182
f 602/568/29 603/569/186 591/557/29
f 601/567/183 604/570/183 596/562/183
f 579/547/183 605/550/183 598/564/182
f 598/564/182 605/550/183 593/559/183
f 606/571/187 603/569/186 602/568/29
f 603/569/186 584/552/185 591/557/29
f 596/562/183 604/570/183 607/572/183
f 607/572/183 600/566/182 596/562/183
f 605/550/183 589/549/183 593/559/183
f 606/571/187 602/568/29 608/573/188
f 607/572/183 604/570/183 609/574/183
f 600/566/182 610/572/190 611/575/190
f 608/573/188 602/568/29 612/576/29
f 604/570/183 613/577/183 609/574/183
f 595/561/69 600/566/182 614/578/190
f 612/576/29 615/579/189 608/573/188
f 604/570/183 616/580/183 613/577/183
f 595/561/69 614/578/190 617/581/190
f 599/565/29 612/576/29 602/568/29
f 601/567/183 616/580/183 604/570/183
f 616/580/183 618/582/183 613/577/183
f 617/581/190 614/578/190 619/583/190
f 614/578/190 600/566/182 620/584/190
f 601/567/183 552/525/183 616/580/183
f 613/577/183 618/582/183 621/585/183
f 622/586/182 617/581/190 619/583/190
f 623/587/29 612/576/29 599/565/29
f 609/574/183 613/577/183 621/585/183
f 624/588/183 618/582/183 616/580/183
f 616/580/183 552/525/183 624/588/183
f 623/587/29 625/589/184 612/576/29
f 599/565/29 626/590/176 623/587/29
f 621/585/183 627/582/190 628/591/190
f 552/525/183 548/521/160 624/588/183
f 599/565/29 594/560/29 626/590/176
f 628/591/190 629/574/190 621/585/183
f 628/591/190 627/582/190 630/592/190
f 631/588/190 548/521/183 630/592/190
f 626/590/176 594/560/29 632/593/83
f 633/594/190 629/574/190 628/591/190
f 627/582/190 631/588/190 630/592/190
f 630/592/190 548/521/183 634/595/190
f 594/560/29 597/563/158 632/593/83
f 629/574/190 633/594/190 610/572/190
f 626/590/176 632/593/83 635/596/84
f 632/593/83 597/563/158 636/597/174
f 610/572/190 633/594/190 637/598/190
f 611/575/190 610/572/190 637/598/190
f 638/599/173 626/590/176 635/596/84
f 597/563/158 639/600/182 636/597/174
f 635/596/84 632/593/83 640/601/83
f 632/593/83 636/597/174 640/601/83
f 638/599/173 635/596/84 641/602/172
f 642/603/87 626/590/176 638/599/173
f 643/604/29 639/600/182 597/563/158
f 635/596/84 640/601/83 644/605/87
f 641/602/172 635/596/84 644/605/87
f 623/587/29 626/590/176 642/603/87
f 636/597/174 639/600/182 645/606/174
f 640/601/83 636/597/174 645/606/174
f 646/607/191 638/599/173 641/602/172
f 642/603/87 647/608/29 623/587/29
f 644/605/87 640/601/83 648/609/83
f 640/601/83 645/606/174 648/609/83
f 649/610/192 638/599/173 646/607/191
f 647/608/29 625/589/184 623/587/29
f 650/611/89 647/608/29 642/603/87
f 648/609/83 645/606/174 651/612/177
f 642/603/87 638/599/173 650/611/89
f 650/611/89 638/599/173 649/610/192
f 647/608/29 652/613/29 625/589/184
f 645/606/174 653/614/69 651/612/177
f 654/615/193 647/608/29 650/611/89
f 646/607/191 655/616/179 649/610/192
f 645/606/174 639/600/182 653/614/69
f 656/617/29 647/608/29 654/615/193
f 656/617/29 652/613/29 647/608/29
f 649/610/192 655/616/179 657/618/194
f 649/610/192 657/618/194 650/611/89
f 651/612/177 653/614/69 622/586/69
f 650/611/89 657/618/194 654/615/193
f 652/613/29 656/617/29 658/619/29
f 655/616/179 659/620/153 657/618/194
f 653/614/69 660/581/69 622/586/69
f 661/621/29 652/613/29 658/619/29
f 654/615/193 662/622/39 656/617/29
f 592/558/69 660/581/69 653/614/69
f 464/439/29 661/621/29 658/619/29
f 657/618/194 663/623/160 654/615/193
f 657/618/194 659/620/153 663/623/160
f 592/558/69 595/561/69 660/581/69
f 661/621/29 664/624/36 652/613/29
f 654/615/193 663/623/160 665/622/160
f 653/614/69 666/553/69 592/558/69
f 464/439/29 469/444/166 661/621/29
f 652/613/29 664/624/36 667/625/189
f 639/600/182 666/553/69 653/614/69
f 666/553/69 583/551/182 592/558/69
f 469/444/166 668/626/36 661/621/29
f 661/621/29 668/626/36 664/624/36
f 652/613/29 667/625/189 625/589/184
f 663/623/160 669/627/182 665/622/160
f 469/444/166 670/628/36 668/626/36
f 586/553/39 639/600/182 671/546/39
f 663/623/160 672/629/160 669/627/182
f 673/630/29 670/628/36 469/444/166
f 576/542/29 586/553/39 671/546/39
f 659/620/153 672/629/160 663/623/160
f 673/630/29 674/631/36 670/628/36
f 673/630/29 469/444/166 675/452/29
f 671/546/39 639/600/182 643/604/29
f 669/627/182 672/629/160 458/433/160
f 676/632/29 674/631/36 673/630/29
f 482/455/29 673/630/29 675/452/29
f 675/452/29 469/444/166 677/449/29
f 458/433/160 672/629/160 678/633/195
f 482/455/29 676/632/29 673/630/29
f 676/632/29 679/634/36 674/631/36
f 469/444/166 466/441/158 677/449/29
f 458/433/160 678/633/195 446/421/33
f 483/456/29 676/632/29 482/455/29
f 480/453/158 679/634/36 676/632/29
f 669/627/182 458/433/160 461/436/162
f 446/421/33 678/633/195 680/635/153
f 483/456/29 480/453/158 676/632/29
f 665/622/160 669/627/182 461/436/162
f 680/635/153 443/418/153 446/421/33
f 480/453/158 681/636/36 679/634/36
f 450/425/158 483/456/29 447/422/139
f 464/439/29 682/619/39 461/436/162
f 476/450/29 681/636/36 480/453/158
f 476/450/29 473/447/169 681/636/36
f 447/422/139 483/456/29 485/458/139
f 461/436/162 682/619/39 662/622/39
f 656/617/29 662/622/39 682/619/39
f 485/458/139 422/397/139 447/422/139
f 427/402/142 422/397/139 485/458/139
f 422/397/139 419/394/136 447/422/139
f 574/544/162 556/529/37 552/525/183
f 555/528/180 539/512/189 536/509/29
f 555/528/180 534/507/189 539/512/189
f 528/501/29 534/507/189 555/528/180
f 526/499/29 528/501/29 555/528/180
f 504/477/89 526/499/29 547/520/87
f 510/483/181 526/499/29 504/477/89
f 547/520/87 494/467/173 504/477/89
f 216/198/71 683/637/67 214/196/65
f 216/198/71 219/201/72 683/637/67
f 214/196/65 683/637/67 684/638/104
f 684/638/104 221/203/71 214/196/65
f 229/211/94 221/203/71 684/638/104
f 218/200/71 230/212/87 213/195/84
f 230/212/87 202/185/84 213/195/84
f 685/639/29 521/494/184 516/489/29
f 523/496/185 685/639/29 516/489/29
f 685/639/29 686/640/29 521/494/184
f 687/641/35 685/639/29 523/496/185
f 686/640/29 515/488/183 521/494/184
f 687/641/35 688/640/29 685/639/29
f 688/640/29 686/640/29 685/639/29
f 686/640/29 689/642/183 515/488/183
f 690/643/36 688/640/29 687/641/35
f 691/81/180 689/642/183 686/640/29
f 688/640/29 691/81/180 686/640/29
f 515/488/183 689/642/183 512/485/182
f 690/643/36 84/81/29 688/640/29
f 84/81/29 691/81/180 688/640/29
f 691/81/180 692/644/162 689/642/183
f 512/485/182 689/642/183 693/645/182
f 689/642/183 692/644/162 693/645/182
f 88/85/36 84/81/29 690/643/36
f 84/81/29 83/73/29 691/81/180
f 512/485/182 693/645/182 694/646/69
f 83/73/29 692/644/162 691/81/180
f 508/481/69 512/485/182 694/646/69
f 694/646/69 693/645/182 695/647/182
f 83/73/29 86/83/37 692/644/162
f 508/481/69 694/646/69 696/648/190
f 693/645/182 697/649/183 695/647/182
f 692/644/162 86/83/37 697/649/183
f 693/645/182 692/644/162 697/649/183
f 696/648/190 694/646/69 698/650/190
f 694/646/69 695/647/182 698/650/190
f 697/649/183 86/83/37 699/651/162
f 695/647/182 697/649/183 700/652/183
f 697/649/183 699/651/162 700/652/183
f 698/650/190 695/647/182 701/653/190
f 86/83/37 702/86/160 699/651/162
f 700/652/183 699/651/162 703/654/69
f 695/647/182 700/652/183 704/655/190
f 699/651/162 702/86/160 705/656/160
f 699/651/162 705/656/160 703/654/69
f 700/652/183 703/654/69 706/657/190
f 704/655/190 700/652/183 706/657/190
f 702/86/160 707/89/160 705/656/160
f 706/657/190 703/654/69 708/658/190
f 705/656/160 707/89/160 709/659/160
f 703/654/69 705/656/160 710/660/160
f 705/656/160 709/659/160 710/660/160
f 709/659/160 707/89/160 711/661/37
f 710/660/160 709/659/160 712/662/160
f 711/661/37 707/89/160 50/50/33
f 712/662/160 709/659/160 713/663/37
f 713/663/37 709/659/160 711/661/37
f 50/50/33 43/43/31 711/661/37
f 711/661/37 714/664/118 713/663/37
f 711/661/37 43/43/31 714/664/118
f 713/663/37 714/664/118 715/665/118
f 43/43/31 35/35/25 714/664/118
f 714/664/118 716/666/118 715/665/118
f 714/664/118 35/35/25 30/30/22
f 36/36/26 716/666/118 714/664/118
f 30/30/22 36/36/26 714/664/118
f 717/666/34 36/36/26 42/42/30
f 20/20/16 718/667/196 9/9/4
f 24/24/18 718/667/196 20/20/16
f 718/667/196 7/7/6 9/9/4
f 719/668/197 718/667/196 24/24/18
f 718/667/196 720/669/6 7/7/6
f 719/668/197 720/669/6 718/667/196
f 720/669/6 113/108/5 7/7/6
f 7/7/6 113/108/5 6/6/5
f 11/11/3 6/6/5 113/108/5
f 124/119/12 114/109/46 106/101/12
f 106/101/12 108/103/12 124/119/12
f 108/103/12 721/670/198 124/119/12
f 108/103/12 112/107/45 721/670/198
f 124/119/12 721/670/198 128/123/54
f 625/589/184 615/579/189 612/576/29
f 625/589/184 667/625/189 615/579/189
f 580/548/29 643/604/29 587/554/29
f 722/543/29 643/604/29 580/548/29
f 587/554/29 643/604/29 597/563/158
f 578/546/29 643/604/29 722/543/29
f 571/542/29 578/546/29 722/543/29
f 460/435/161 463/438/163 723/671/199
f 460/435/161 723/671/199 465/440/161
f 437/412/150 723/671/199 463/438/163
f 465/440/161 723/671/199 470/445/167
f 437/412/150 470/445/167 723/671/199
f 434/409/147 437/412/150 463/438/163
f 431/406/146 470/445/167 437/412/150
f 474/448/170 460/435/161 462/437/161
f 242/224/70 253/234/80 724/220/80
f 253/234/80 725/243/80 724/220/80
f 724/220/80 725/243/80 256/225/80
f 725/243/80 255/236/65 256/225/80
f 335/310/69 333/308/69 726/672/70
f 726/672/70 333/308/69 338/313/70
f 338/313/70 342/317/98 726/672/70
f 726/672/70 342/317/98 350/325/98
f 727/514/190 728/673/37 729/511/190
f 727/514/190 730/487/190 728/673/37
f 728/673/37 731/674/200 729/511/190
f 729/511/190 731/674/200 732/675/201
f 728/673/37 730/487/190 733/676/190
f 730/487/190 734/484/190 733/676/190
f 733/676/190 734/484/190 735/677/190
f 441/416/118 433/408/118 452/427/31
f 452/427/31 433/408/118 438/413/118
