# Blender 4.1.1
# www.blender.org
mtllib MapLeft.mtl
o board2:Board_board2:board1:GUI_LeftGameBoard
v -0.000177 -0.000149 0.020829
v 0.000041 -0.000163 0.020829
v 0.000041 -0.000163 0.020706
v -0.000177 -0.000152 0.027450
v 0.000041 -0.000167 0.027518
v -0.000464 -0.000015 0.020999
v -0.000177 -0.000153 0.027614
v -0.000464 -0.000019 0.027455
v 0.000041 -0.000167 0.027649
v -0.000177 -0.000149 0.020829
v -0.000177 -0.000148 0.020414
v -0.000657 -0.000015 0.021068
v -0.000177 -0.000153 0.027759
v -0.000464 -0.000015 0.020534
v 0.000041 -0.000163 0.020345
v -0.000657 -0.000020 0.027459
v -0.000464 -0.000019 0.027759
v 0.000041 -0.000167 0.027759
v -0.000177 -0.000145 0.014367
v -0.008572 -0.000017 0.024246
v -0.000464 -0.000019 0.027607
v -0.000464 -0.000011 0.014490
v 0.000041 -0.000159 0.014275
v -0.008576 -0.000019 0.027512
v -0.000657 -0.000020 0.027759
v -0.000177 -0.000145 0.013959
v -0.000657 -0.000020 0.027598
v -0.009171 -0.000017 0.024486
v 0.000041 -0.000159 0.013872
v -0.008576 -0.000019 0.027618
v -0.009177 -0.000016 0.023976
v -0.000177 -0.000144 0.012642
v -0.008555 -0.000016 0.023731
v 0.000041 -0.000159 0.012642
v -0.011837 -0.000017 0.025117
v -0.000177 -0.000140 0.006184
v -0.011649 -0.000017 0.025640
v -0.000464 -0.000007 0.006184
v -0.009136 -0.000019 0.027516
v -0.016537 0.000064 0.027468
v 0.000041 -0.000155 0.006184
v -0.000464 -0.000010 0.012642
v -0.017497 0.000078 0.027298
v -0.000177 -0.000137 -0.000053
v -0.000657 -0.000003 0.006184
v -0.017500 0.000078 0.027458
v -0.000464 -0.000003 0.000063
v -0.000657 0.000002 0.000120
v -0.016575 0.000083 0.027558
v -0.000657 -0.000008 0.012642
v -0.017501 0.000099 0.027547
v 0.000041 -0.000151 -0.000100
v -0.000464 -0.000011 0.014094
v -0.017502 0.000160 0.027667
v -0.000177 -0.000137 -0.000190
v -0.016574 0.000141 0.027680
v -0.000464 -0.000003 -0.000132
v -0.000657 -0.000009 0.014167
v -0.000464 -0.000003 0.000063
v -0.008784 -0.000007 0.012642
v -0.000657 0.000002 -0.000082
v -0.000464 -0.000011 0.014490
v -0.000657 0.000002 0.000120
v -0.008856 -0.000002 0.006185
v -0.000657 0.000002 -0.000328
v -0.000657 -0.000010 0.014572
v -0.008900 -0.000000 0.003307
v -0.000464 -0.000003 -0.000328
v -0.008907 0.000000 0.002694
v -0.000657 0.000007 -0.005912
v -0.008940 0.000003 -0.000328
v -0.008966 0.000005 -0.002659
v -0.009416 0.000000 0.002865
v -0.000464 0.000000 -0.005983
v -0.009452 0.000003 -0.000328
v -0.000177 -0.000136 -0.000328
v -0.009476 0.000005 -0.002448
v -0.000177 -0.000133 -0.006084
v 0.000041 -0.000151 -0.000246
v -0.009483 0.000005 -0.002993
v 0.000041 -0.000151 -0.000328
v -0.017039 0.000003 -0.000328
v 0.000041 -0.000148 -0.006169
v -0.008972 0.000005 -0.003190
v -0.017871 0.000003 0.000030
v -0.000177 -0.000133 -0.006604
v -0.009535 0.000009 -0.007610
v -0.017817 -0.000001 0.005692
v -0.000464 0.000001 -0.006475
v -0.009023 0.000009 -0.007610
v -0.009409 -0.000000 0.003504
v -0.000464 0.000001 -0.007611
v -0.000657 0.000007 -0.006401
v -0.017812 -0.000002 0.006185
v -0.000657 0.000008 -0.007611
v -0.000657 0.000007 -0.005912
v -0.000464 0.000000 -0.005983
v -0.000657 0.000014 -0.014585
v -0.009378 -0.000002 0.006185
v -0.009094 0.000014 -0.014585
v -0.000464 0.000005 -0.014585
v -0.009305 -0.000007 0.012642
v -0.000177 -0.000132 -0.007611
v -0.017688 -0.000007 0.012642
v -0.009093 0.000015 -0.015398
v -0.000177 -0.000128 -0.014585
v -0.009247 -0.000011 0.017760
v -0.000657 0.000017 -0.018806
v 0.000041 -0.000147 -0.007611
v -0.017719 -0.000008 0.013526
v -0.000464 0.000008 -0.018901
v 0.000041 -0.000147 -0.006696
v -0.014039 -0.000013 0.019714
v 0.000041 -0.000143 -0.014585
v -0.017593 -0.000013 0.020701
v -0.000177 -0.000126 -0.019035
v -0.018056 -0.000013 0.020830
v -0.009242 -0.000012 0.018208
v -0.016387 -0.000013 0.020830
v -0.018245 -0.000007 0.012642
v -0.000464 0.000008 -0.018901
v -0.000464 0.000008 -0.019455
v -0.013866 -0.000013 0.020004
v -0.000177 -0.000125 -0.019562
v -0.009212 -0.000014 0.020829
v -0.017584 -0.000013 0.020830
v -0.000464 0.000010 -0.022234
v -0.008689 -0.000014 0.020829
v -0.018056 -0.000013 0.020830
v -0.000657 0.000020 -0.022234
v -0.008709 -0.000012 0.017982
v -0.017629 -0.000007 0.021266
v -0.000657 0.000025 -0.028236
v -0.018042 -0.000005 0.021412
v -0.000464 0.000013 -0.028236
v -0.001183 -0.000014 0.020829
v -0.022752 -0.000013 0.020845
v -0.000657 0.000007 -0.028236
v -0.000657 -0.000014 0.020619
v -0.000177 -0.000124 -0.022234
v -0.009769 0.000007 -0.028235
v -0.000657 -0.000015 0.021068
v -0.000464 0.000000 -0.028236
v -0.000657 -0.000015 0.020829
v -0.000177 -0.000120 -0.028236
v -0.000657 -0.000014 0.020619
v -0.000464 -0.000015 0.020999
v 0.000041 -0.000138 -0.022234
v -0.000177 -0.000133 -0.028236
v -0.000464 -0.000015 0.020829
v 0.000041 -0.000135 -0.028236
v 0.000041 -0.000148 -0.028236
v -0.011837 -0.000017 0.025117
v -0.013375 -0.000014 0.020829
v -0.016387 -0.000013 0.020830
v -0.017629 -0.000007 0.021266
v -0.017497 0.000078 0.027298
v -0.033414 -0.000017 0.027575
v -0.033173 -0.000017 0.027759
v -0.026999 -0.000018 0.027674
v -0.035333 0.000059 0.027759
v -0.026994 -0.000018 0.027759
v -0.035538 0.000059 0.027601
v -0.027006 -0.000018 0.027570
v -0.036526 0.000157 0.027759
v -0.033582 -0.000017 0.027447
v -0.036787 0.000157 0.027557
v -0.027449 -0.000012 0.020861
v -0.037719 0.000379 0.027759
v -0.035791 0.000060 0.027405
v -0.037719 -0.000014 0.024282
v -0.037123 0.000158 0.027298
v -0.037719 -0.000012 0.020895
v -0.037719 0.000158 0.026836
v -0.037719 0.000061 0.025912
v -0.027982 -0.000006 0.012770
v -0.037719 -0.000006 0.012898
v -0.022752 -0.000013 0.020845
v -0.037719 -0.000001 0.006498
v -0.028057 -0.000001 0.006341
v -0.037719 0.000004 -0.000073
v -0.018394 -0.000002 0.006185
v -0.028132 0.000004 -0.000200
v -0.018544 0.000003 -0.000328
v -0.037719 0.000010 -0.007422
v -0.018712 0.000009 -0.007610
v -0.028216 0.000009 -0.007516
v -0.037719 0.000015 -0.014460
v -0.018815 0.000012 -0.012072
v -0.028296 0.000015 -0.014522
v -0.017878 0.000003 -0.000524
v -0.017874 0.000003 -0.000328
v -0.018873 0.000014 -0.014585
v -0.018201 0.000012 -0.011643
v -0.019050 0.000020 -0.022233
v -0.012561 0.000014 -0.014585
v -0.028384 0.000021 -0.022206
v -0.018074 0.000009 -0.007610
v -0.009701 0.000020 -0.022234
v -0.037719 0.000021 -0.022178
v -0.011250 0.000014 -0.014585
v -0.009769 0.000025 -0.028235
v -0.028454 0.000025 -0.028235
v -0.009614 0.000014 -0.014585
v -0.019188 0.000025 -0.028235
v -0.009621 0.000015 -0.015185
v -0.009628 0.000015 -0.015785
v -0.019188 0.000007 -0.028235
v -0.000657 0.000018 -0.019370
v -0.028454 0.000007 -0.028235
v -0.000657 0.000017 -0.018806
v -0.037719 0.000025 -0.028234
v 0.000041 -0.000180 0.027759
v 0.000041 -0.000167 0.027759
v -0.000177 -0.000166 0.027759
v -0.000177 -0.000153 0.027759
v -0.000464 -0.000032 0.027759
v -0.000464 -0.000019 0.027759
v -0.000657 -0.000020 0.027759
v -0.000657 -0.000038 0.027759
v -0.008576 -0.000019 0.027759
v -0.008576 -0.000038 0.027759
v -0.009134 -0.000019 0.027759
v -0.009134 -0.000038 0.027759
v -0.010883 -0.000000 0.027759
v -0.010888 0.000021 0.027759
v -0.016574 0.000110 0.027680
v -0.016574 0.000141 0.027680
v -0.010873 -0.000037 0.027524
v -0.010883 -0.000000 0.027759
v -0.028454 0.000007 -0.028235
v -0.037719 0.000007 -0.028234
v -0.028454 0.000025 -0.028235
v -0.037719 0.000025 -0.028234
v -0.037719 0.000002 -0.022178
v -0.037719 0.000021 -0.022178
v -0.037719 0.000015 -0.014460
v -0.037719 0.000025 -0.028234
v -0.037719 -0.000003 -0.014460
v -0.037719 0.000010 -0.007422
v -0.037719 -0.000009 -0.007422
v -0.037719 -0.000009 -0.007422
v -0.037719 0.000004 -0.000073
v -0.037719 -0.000014 -0.000074
v -0.037719 -0.000001 0.006498
v -0.037719 -0.000019 0.006498
v -0.037719 -0.000006 0.012898
v -0.037719 -0.000024 0.012895
v -0.037719 -0.000012 0.020895
v -0.037719 -0.000030 0.020898
v -0.037719 -0.000032 0.024259
v -0.037719 -0.000014 0.024282
v -0.037719 0.000047 0.025911
v -0.037719 0.000061 0.025912
v -0.037719 0.000140 0.026836
v -0.037719 0.000158 0.026836
v -0.037719 0.000359 0.027759
v -0.037719 0.000379 0.027759
v -0.035333 0.000042 0.027759
v -0.033176 -0.000035 0.027759
v -0.035333 0.000059 0.027759
v -0.036526 0.000141 0.027759
v -0.033173 -0.000017 0.027759
v -0.036526 0.000157 0.027759
v -0.026996 -0.000036 0.027759
v -0.037719 0.000359 0.027759
v -0.037719 0.000379 0.027759
v -0.026994 -0.000018 0.027759
v -0.025280 0.000012 0.027759
v -0.025281 0.000039 0.027759
v -0.017896 0.000136 0.027662
v -0.017896 0.000169 0.027662
v -0.017502 0.000160 0.027667
v -0.017502 0.000128 0.027667
v -0.016574 0.000141 0.027680
v -0.025278 -0.000036 0.027524
v -0.025280 0.000012 0.027759
v -0.016574 0.000110 0.027680
v -0.025278 -0.000036 0.027524
v -0.017898 -0.000037 0.027524
v -0.025280 0.000012 0.027759
v -0.017896 0.000136 0.027662
v -0.017502 0.000128 0.027667
v -0.017501 -0.000037 0.027524
v -0.008576 -0.000019 0.027759
v -0.009134 -0.000019 0.027759
v -0.009135 -0.000019 0.027619
v -0.010888 0.000021 0.027759
v -0.010937 -0.000009 0.027624
v -0.016574 0.000141 0.027680
v -0.016575 0.000083 0.027558
v -0.010971 -0.000019 0.027529
v -0.016537 0.000064 0.027468
v -0.017899 0.000105 0.027542
v -0.025238 0.000007 0.027642
v -0.017896 0.000169 0.027662
v -0.025208 -0.000006 0.027561
v -0.025281 0.000039 0.027759
v -0.017901 0.000084 0.027453
v -0.017501 0.000099 0.027547
v -0.026999 -0.000018 0.027674
v -0.022752 -0.000013 0.020845
v -0.017502 0.000160 0.027667
v -0.027006 -0.000018 0.027570
v -0.026994 -0.000018 0.027759
v -0.018042 -0.000005 0.021412
v -0.017500 0.000078 0.027458
v -0.027449 -0.000012 0.020861
v -0.017497 0.000078 0.027298
v -0.017629 -0.000007 0.021266
v -0.008693 -0.000011 0.017529
v -0.000657 -0.000010 0.014572
v -0.000464 -0.000015 0.020534
v -0.010873 -0.000037 0.027524
v -0.010883 -0.000000 0.027759
v -0.016551 -0.000037 0.027524
v -0.016574 0.000110 0.027680
v -0.017501 -0.000037 0.027524
v -0.017502 0.000128 0.027667
vn 0.1880 0.9822 0.0006
vn 0.0669 0.9978 0.0006
vn 0.2485 0.9686 0.0006
vn 0.2150 0.9766 0.0006
vn 0.2140 0.9768 0.0006
vn 0.3080 0.9514 0.0005
vn -0.0009 1.0000 0.0007
vn 0.2170 0.9762 0.0006
vn -0.0020 1.0000 0.0007
vn 0.2130 0.9771 0.0006
vn 0.0001 1.0000 0.0008
vn 0.2130 0.9770 0.0006
vn 0.2189 0.9757 0.0006
vn -0.0029 1.0000 0.0008
vn 0.0073 1.0000 -0.0018
vn 0.0075 1.0000 -0.0019
vn 0.2255 0.9743 0.0006
vn 0.0007 0.9999 -0.0125
vn 0.0164 0.9938 -0.1095
vn 0.2225 0.9749 0.0006
vn 0.0150 0.9999 -0.0046
vn 0.0097 1.0000 0.0007
vn 0.2272 0.9739 0.0006
vn 0.0115 0.9999 0.0007
vn 0.0202 0.9438 -0.3299
vn 0.0067 1.0000 0.0008
vn 0.2214 0.9752 0.0006
vn 0.0224 0.8969 -0.4417
vn 0.0224 0.8969 -0.4416
vn 0.2291 0.9734 0.0006
vn 0.0054 1.0000 0.0007
vn 0.2290 0.9734 0.0006
vn 0.0134 0.9999 0.0008
vn 0.2207 0.9753 0.0006
vn 0.0134 0.9999 0.0007
vn 0.0143 0.9999 0.0007
vn 0.0049 1.0000 0.0007
vn -0.0000 1.0000 0.0008
vn 0.2300 0.9732 0.0006
vn 0.0153 0.9999 0.0007
vn 0.2308 0.9730 0.0006
vn 0.2331 0.9725 0.0006
vn 0.2342 0.9722 0.0006
vn 0.0177 0.9998 0.0007
vn 0.0187 0.9998 0.0007
vn 0.0171 0.9999 0.0007
vn 0.2326 0.9726 0.0006
vn 0.0486 0.9988 0.0006
vn 0.4217 0.9068 0.0005
vn 0.0233 0.9997 0.0007
vn 0.2386 0.9711 0.0006
vn 0.2486 0.9686 0.0006
vn 0.0001 1.0000 -0.0070
vn 0.2400 0.9708 0.0006
vn 0.2409 0.9705 0.0006
vn 0.0566 0.9984 0.0007
vn 0.0001 1.0000 -0.0096
vn 0.0001 0.9999 -0.0147
vn -0.0000 1.0000 0.0009
vn 0.0566 0.9984 0.0008
vn -0.0000 0.9999 -0.0147
vn -0.0000 1.0000 0.0020
vn 0.0030 1.0000 0.0007
vn 0.0008 1.0000 0.0008
vn 0.0357 0.9994 0.0018
vn 0.0011 1.0000 0.0008
vn 0.4217 0.9068 0.0006
vn 0.0015 1.0000 0.0007
vn 0.2169 0.9762 0.0006
vn 0.4217 0.9067 0.0014
vn 0.0669 0.9978 0.0016
vn 0.0037 1.0000 -0.0041
vn 0.0020 1.0000 -0.0017
vn 0.0038 1.0000 -0.0042
vn 0.0076 0.9999 -0.0093
vn 0.0076 0.9999 -0.0092
vn 0.0178 0.9996 -0.0223
vn 0.0178 0.9996 -0.0222
vn 0.0584 0.9955 -0.0747
vn 0.0584 0.9955 -0.0746
vn 0.1299 0.9774 -0.1670
vn 0.0178 0.9996 -0.0224
vn 0.1776 0.9571 -0.2287
vn 0.0585 0.9955 -0.0749
vn 0.0179 0.9996 -0.0224
vn 0.0586 0.9955 -0.0750
vn -0.0000 1.0000 0.0007
vn 0.0256 0.9997 0.0007
vn 0.0247 0.9997 0.0007
vn 0.0669 0.9978 0.0015
vn -0.0000 -0.0002 1.0000
vn -0.0001 -0.0000 1.0000
vn -0.0355 0.9994 0.0018
vn -0.0000 -0.0000 1.0000
vn -0.0000 0.0001 1.0000
vn -0.0000 -0.0003 1.0000
vn -0.0000 1.0000 0.0028
vn -0.0069 -0.0010 1.0000
vn -0.0070 -0.0011 1.0000
vn -0.0140 -0.0017 0.9999
vn -0.0139 -0.0018 0.9999
vn -0.0211 -0.9877 0.1550
vn -0.0000 -0.0000 -1.0000
vn -1.0000 0.0002 -0.0000
vn -1.0000 -0.0000 -0.0000
vn 0.0001 1.0000 0.0007
vn -1.0000 0.0001 -0.0000
vn 0.0001 1.0000 0.0036
vn -0.0000 -0.0001 1.0000
vn -0.0000 1.0000 0.0036
vn 0.0067 0.0002 1.0000
vn 0.0066 0.0002 1.0000
vn -0.0003 -0.0000 1.0000
vn -0.0004 -0.0000 1.0000
vn -0.0139 -0.0001 0.9999
vn -0.0139 -0.0003 0.9999
vn 0.0275 -0.9791 0.2016
vn 0.0105 -0.8601 0.5100
vn 0.0001 1.0000 0.0028
vn 0.0106 -0.8601 0.5100
vn -0.0005 -0.7607 0.6491
vn -0.0116 -0.6392 0.7690
vn 0.0072 0.9985 -0.0552
vn 0.0043 0.9992 -0.0405
vn 0.0181 0.9754 -0.2196
vn 0.0141 0.9865 -0.1631
vn 0.0218 0.9452 -0.3256
vn 0.0192 0.9697 -0.2437
vn 0.0088 0.9985 -0.0542
vn 0.0161 0.9965 -0.0825
vn 0.0014 0.9483 -0.3173
vn -0.0177 0.9794 -0.2012
vn 0.0015 0.9066 -0.4220
vn -0.0090 0.9977 -0.0673
vn -0.0221 0.9621 -0.2718
vn 0.0030 0.9960 -0.0895
vn 0.0203 0.9376 -0.3471
vn -0.0177 0.9933 -0.1141
vn -0.0048 1.0000 -0.0047
vn 0.0225 0.8854 -0.4642
vn -0.0064 0.9994 -0.0334
vn -0.0245 0.9866 -0.1616
vn -0.0011 0.9999 -0.0117
vn 0.0165 0.9932 -0.1151
vn -0.0016 1.0000 -0.0005
vn 0.0056 0.9999 -0.0145
vn 0.0055 0.9999 -0.0145
vn 0.0031 1.0000 0.0007
vn 0.2189 0.9758 0.0006
vn -0.0139 -0.8820 0.4710
vn -0.0119 -0.8820 0.4710
vn -0.0119 -0.8820 0.4711
vt 0.994237 0.123758
vt 1.000000 0.123758
vt 1.000000 0.125963
vt 0.994237 0.005519
vt 1.000000 0.004314
vt 0.986623 0.120723
vt 0.994237 0.002589
vt 0.986623 0.005439
vt 1.000000 0.001960
vt 0.994237 0.131178
vt 0.981518 0.119490
vt 0.994237 0.000001
vt 0.986623 0.129038
vt 1.000000 0.132402
vt 0.981518 0.005355
vt 0.986623 0.000001
vt 1.000000 0.000001
vt 0.994237 0.239163
vt 0.771896 0.062745
vt 0.986623 0.002720
vt 0.986623 0.236973
vt 1.000000 0.240811
vt 0.771800 0.004416
vt 0.981518 0.000001
vt 0.994237 0.246447
vt 0.981518 0.002879
vt 0.756045 0.058454
vt 1.000000 0.248005
vt 0.771805 0.002525
vt 0.755892 0.067570
vt 0.994237 0.269972
vt 0.772343 0.071937
vt 1.000000 0.269972
vt 0.685440 0.047195
vt 0.994237 0.385300
vt 0.690411 0.037855
vt 0.986623 0.385300
vt 0.756955 0.004350
vt 0.560980 0.003797
vt 1.000000 0.385300
vt 0.986623 0.269972
vt 0.535533 0.006614
vt 0.994237 0.496684
vt 0.981518 0.385300
vt 0.535475 0.003744
vt 0.986623 0.494615
vt 0.981518 0.493601
vt 0.559968 0.002189
vt 0.981518 0.269972
vt 0.535445 0.002151
vt 1.000000 0.497536
vt 0.986623 0.244051
vt 0.535410 0.000001
vt 0.994237 0.499143
vt 0.559998 0.000001
vt 0.986623 0.498109
vt 0.981518 0.242732
vt 0.766279 0.269970
vt 0.981518 0.497217
vt 0.764385 0.385298
vt 0.981518 0.501602
vt 0.981518 0.235515
vt 0.763209 0.436685
vt 0.986623 0.501602
vt 0.763031 0.447633
vt 0.981518 0.601323
vt 0.762154 0.501599
vt 0.761477 0.543233
vt 0.749548 0.444574
vt 0.986623 0.602602
vt 0.748589 0.501599
vt 0.994237 0.501602
vt 0.747952 0.539467
vt 0.994237 0.604391
vt 1.000000 0.500142
vt 0.747788 0.549197
vt 1.000000 0.501602
vt 0.547670 0.501596
vt 1.000000 0.605925
vt 0.761323 0.552721
vt 0.525647 0.495207
vt 0.994237 0.613682
vt 0.746401 0.631658
vt 0.527077 0.394086
vt 0.986623 0.611379
vt 0.759966 0.631658
vt 0.749740 0.433174
vt 0.986623 0.631662
vt 0.981518 0.610063
vt 0.527202 0.385295
vt 0.981518 0.631662
vt 0.981518 0.756218
vt 0.750546 0.385297
vt 0.758073 0.756214
vt 0.986623 0.756218
vt 0.752486 0.269970
vt 0.994237 0.631662
vt 0.530492 0.269968
vt 0.758099 0.770736
vt 0.994237 0.756218
vt 0.754024 0.178570
vt 0.981518 0.831604
vt 1.000000 0.631662
vt 0.529657 0.254187
vt 0.986623 0.833285
vt 1.000000 0.615327
vt 0.627125 0.143676
vt 1.000000 0.756218
vt 0.532997 0.126051
vt 0.994237 0.835687
vt 0.520741 0.123756
vt 0.754158 0.170571
vt 0.564929 0.123756
vt 0.515738 0.269968
vt 0.986623 0.843189
vt 0.631697 0.138492
vt 0.994237 0.845094
vt 0.754946 0.123757
vt 0.533239 0.123756
vt 0.986623 0.892817
vt 0.768805 0.123757
vt 0.981518 0.892817
vt 0.768275 0.174603
vt 0.532061 0.115844
vt 0.981518 1.000000
vt 0.521102 0.113206
vt 0.986623 1.000000
vt 0.967591 0.123758
vt 0.396369 0.123478
vt 0.981518 0.127509
vt 0.994237 0.892817
vt 0.740203 0.999994
vt 0.981518 0.123758
vt 0.994237 1.000000
vt 1.000000 0.892817
vt 0.986623 0.123758
vt 1.000000 1.000000
vt 0.644694 0.123757
vt 0.114020 0.003286
vt 0.120389 0.000000
vt 0.283894 0.001520
vt 0.063191 0.000000
vt 0.284043 0.000000
vt 0.057774 0.002828
vt 0.283712 0.003380
vt 0.031596 0.000000
vt 0.109571 0.005581
vt 0.024678 0.003610
vt 0.271997 0.123199
vt 0.000000 0.000000
vt 0.051054 0.006335
vt 0.000000 0.062103
vt 0.015798 0.008245
vt 0.000000 0.122591
vt 0.000000 0.016490
vt 0.000000 0.032981
vt 0.257869 0.267689
vt 0.000000 0.265410
vt 0.000000 0.379694
vt 0.255896 0.382494
vt 0.000000 0.497052
vt 0.511792 0.385295
vt 0.253906 0.499324
vt 0.507813 0.501596
vt 0.000000 0.628293
vt 0.503363 0.631654
vt 0.251681 0.629973
vt 0.000000 0.753980
vt 0.500636 0.711339
vt 0.249550 0.755094
vt 0.525454 0.505095
vt 0.525557 0.501596
vt 0.499101 0.756209
vt 0.516906 0.703670
vt 0.494427 0.892806
vt 0.666272 0.756212
vt 0.247213 0.892312
vt 0.520259 0.631654
vt 0.742007 0.892811
vt 0.000000 0.891819
vt 0.700990 0.756212
vt 0.245380 0.999981
vt 0.744305 0.756213
vt 0.490759 0.999988
vt 0.744125 0.766928
vt 0.743944 0.777643
vt 0.981518 0.841665
vt 0.000000 0.999975
vt 1.000000 0.000002
vt 0.771810 0.000001
vt 0.771806 0.000001
vt 0.757028 0.000001
vt 0.757008 0.000001
vt 0.710713 0.000001
vt 0.710557 0.000001
vt 0.559996 0.000001
vt 0.710979 0.000001
vt 0.000000 0.891820
vt 0.000000 0.753983
vt 0.000000 0.628298
vt 0.000000 0.497059
vt 0.000000 0.379703
vt 0.000000 0.265451
vt 0.000000 0.122540
vt 0.000000 0.062513
vt 0.000000 0.033016
vt 0.000000 0.016496
vt 0.063203 0.000000
vt 0.120312 0.000000
vt 0.031598 0.000000
vt 0.283980 0.000000
vt 0.329432 0.000000
vt 0.329409 0.000000
vt 0.524967 0.000001
vt 0.524976 0.000001
vt 0.535406 0.000001
vt 0.329475 0.000000
vt 0.524935 0.000001
vt 0.535434 0.000001
vt 0.756986 0.002500
vt 0.709269 0.002421
vt 0.708374 0.004103
vt 0.524903 0.002134
vt 0.330545 0.002096
vt 0.331328 0.003538
vt 0.524848 0.003722
vt 0.768690 0.182707
vt 0.560609 0.000001
s 1
g board2:Board_board2:board1:GUI_LeftGameBoard_board2:board1:GUI_LeftGameBoard
usemtl board2:board1:GUI_LeftGameBoard
f 1/1/1 2/2/2 3/3/2
f 4/4/3 2/2/2 1/1/1
f 5/5/2 2/2/2 4/4/3
f 6/6/4 4/4/3 1/1/1
f 7/7/3 5/5/2 4/4/3
f 8/8/5 4/4/3 6/6/4
f 9/9/2 5/5/2 7/7/3
f 10/1/6 3/3/2 11/10/3
f 6/6/4 12/11/7 8/8/5
f 13/12/3 9/9/2 7/7/3
f 14/13/8 10/1/6 11/10/3
f 11/10/3 3/3/2 15/14/2
f 8/8/5 12/11/7 16/15/9
f 13/12/3 7/7/3 17/16/10
f 18/17/2 9/9/2 13/12/3
f 11/10/3 15/14/2 19/18/3
f 12/11/7 20/19/11 16/15/9
f 17/16/10 7/7/3 21/20/12
f 22/21/13 11/10/3 19/18/3
f 19/18/3 15/14/2 23/22/2
f 16/15/9 20/19/11 24/23/11
f 21/20/12 25/24/14 17/16/10
f 19/18/3 23/22/2 26/25/3
f 16/15/9 24/23/11 27/26/14
f 27/26/14 25/24/14 21/20/12
f 20/19/11 28/27/11 24/23/11
f 26/25/3 23/22/2 29/28/2
f 27/26/14 30/29/11 25/24/14
f 20/19/11 31/30/11 28/27/11
f 27/26/14 24/23/11 30/29/11
f 26/25/3 29/28/2 32/31/3
f 33/32/11 31/30/11 20/19/11
f 16/15/9 27/26/14 8/8/5
f 8/8/5 27/26/14 21/20/12
f 32/31/3 29/28/2 34/33/2
f 35/34/15 28/27/11 31/30/11
f 21/20/12 4/4/3 8/8/5
f 32/31/3 34/33/2 36/35/3
f 37/36/16 28/27/11 35/34/15
f 7/7/3 4/4/3 21/20/12
f 38/37/17 32/31/3 36/35/3
f 37/36/16 39/38/18 28/27/11
f 40/39/19 37/36/16 35/34/15
f 36/35/3 34/33/2 41/40/2
f 42/41/20 32/31/3 38/37/17
f 43/42/21 40/39/19 35/34/15
f 36/35/3 41/40/2 44/43/3
f 38/37/17 45/44/22 42/41/20
f 46/45/19 40/39/19 43/42/21
f 38/37/17 36/35/3 47/46/23
f 47/46/23 36/35/3 44/43/3
f 38/37/17 48/47/24 45/44/22
f 46/45/19 49/48/25 40/39/19
f 47/46/23 48/47/24 38/37/17
f 42/41/20 45/44/22 50/49/26
f 51/50/25 49/48/25 46/45/19
f 44/43/3 41/40/2 52/51/2
f 42/41/20 50/49/26 53/52/27
f 54/53/28 49/48/25 51/50/25
f 44/43/3 52/51/2 55/54/3
f 53/52/27 26/25/3 42/41/20
f 56/55/29 49/48/25 54/53/28
f 57/56/30 44/43/3 55/54/3
f 53/52/27 50/49/26 58/57/31
f 42/41/20 26/25/3 32/31/3
f 59/46/32 44/43/3 57/56/30
f 53/52/27 19/18/3 26/25/3
f 50/49/26 60/58/11 58/57/31
f 57/56/30 61/59/33 59/46/32
f 62/21/34 19/18/3 53/52/27
f 45/44/22 60/58/11 50/49/26
f 53/52/27 58/57/31 62/21/34
f 59/46/32 61/59/33 63/47/35
f 64/60/11 60/58/11 45/44/22
f 57/56/30 65/61/36 61/59/33
f 62/21/34 58/57/31 66/62/37
f 45/44/22 67/63/38 64/60/11
f 68/64/39 65/61/36 57/56/30
f 61/59/33 69/65/38 63/47/35
f 48/47/24 67/63/38 45/44/22
f 68/64/39 70/66/40 65/61/36
f 65/61/36 71/67/38 61/59/33
f 63/47/35 69/65/38 67/63/38
f 57/56/30 55/54/3 68/64/39
f 70/66/40 72/68/38 65/61/36
f 71/67/38 69/65/38 61/59/33
f 69/65/38 73/69/38 67/63/38
f 74/70/41 70/66/40 68/64/39
f 65/61/36 72/68/38 71/67/38
f 73/69/38 69/65/38 75/71/38
f 68/64/39 76/72/3 74/70/41
f 68/64/39 55/54/3 76/72/3
f 72/68/38 77/73/38 71/67/38
f 75/71/38 69/65/38 71/67/38
f 74/70/41 76/72/3 78/74/3
f 55/54/3 79/75/2 76/72/3
f 71/67/38 77/73/38 75/71/38
f 77/73/38 72/68/38 80/76/38
f 76/72/3 81/77/2 78/74/3
f 76/72/3 79/75/2 81/77/2
f 55/54/3 52/51/2 79/75/2
f 82/78/38 75/71/38 77/73/38
f 73/69/38 75/71/38 82/78/38
f 78/74/3 81/77/2 83/79/2
f 80/76/38 72/68/38 84/80/38
f 85/81/38 73/69/38 82/78/38
f 78/74/3 83/79/2 86/82/3
f 84/80/38 87/83/38 80/76/38
f 88/84/11 73/69/38 85/81/38
f 89/85/42 78/74/3 86/82/3
f 90/86/38 87/83/38 84/80/38
f 88/84/11 91/87/11 73/69/38
f 89/85/42 86/82/3 92/88/43
f 93/89/44 90/86/38 84/80/38
f 94/90/11 91/87/11 88/84/11
f 92/88/43 95/91/45 89/85/42
f 89/85/42 95/91/45 93/89/44
f 95/91/45 90/86/38 93/89/44
f 93/89/44 84/80/38 96/66/46
f 67/63/38 73/69/38 91/87/11
f 97/70/47 78/74/3 89/85/42
f 89/85/42 93/89/44 97/70/47
f 96/66/46 84/80/38 72/68/38
f 67/63/38 91/87/11 64/60/11
f 98/92/11 90/86/38 95/91/45
f 97/70/47 93/89/44 96/66/46
f 92/88/43 98/92/11 95/91/45
f 64/60/11 91/87/11 99/93/11
f 100/94/38 90/86/38 98/92/11
f 101/95/48 98/92/11 92/88/43
f 102/96/11 64/60/11 99/93/11
f 99/93/11 91/87/11 94/90/11
f 90/86/38 100/94/38 87/83/38
f 92/88/43 103/97/3 101/95/48
f 102/96/11 99/93/11 104/98/11
f 104/98/11 99/93/11 94/90/11
f 98/92/11 105/99/38 100/94/38
f 101/95/48 103/97/3 106/100/49
f 102/96/11 104/98/11 107/101/11
f 101/95/48 108/102/50 98/92/11
f 108/102/50 105/99/38 98/92/11
f 103/97/3 109/103/2 106/100/49
f 104/98/11 110/104/11 107/101/11
f 111/105/51 108/102/50 101/95/48
f 103/97/3 112/106/2 109/103/2
f 101/95/48 106/100/49 111/105/51
f 113/107/11 107/101/11 110/104/11
f 86/82/3 112/106/2 103/97/3
f 106/100/49 109/103/2 114/108/2
f 115/109/11 113/107/11 110/104/11
f 92/88/43 86/82/3 103/97/3
f 86/82/3 83/79/2 112/106/2
f 111/105/51 106/100/49 116/110/52
f 115/109/11 110/104/11 117/111/11
f 113/107/11 118/112/11 107/101/11
f 119/113/53 113/107/11 115/109/11
f 117/111/11 110/104/11 120/114/11
f 121/105/54 116/110/52 122/115/55
f 123/116/11 113/107/11 119/113/53
f 123/116/11 118/112/11 113/107/11
f 110/104/11 104/98/11 120/114/11
f 122/115/55 116/110/52 124/117/52
f 118/112/11 123/116/11 125/118/11
f 126/119/53 119/113/53 115/109/11
f 122/115/55 124/117/52 127/120/56
f 128/121/11 118/112/11 125/118/11
f 126/119/53 115/109/11 129/111/57
f 127/120/56 130/122/38 122/115/55
f 131/123/11 118/112/11 128/121/11
f 129/111/57 132/124/58 126/119/53
f 132/124/58 119/113/53 126/119/53
f 127/120/56 133/125/59 130/122/38
f 131/123/11 107/101/11 118/112/11
f 134/126/58 132/124/58 129/111/57
f 135/127/60 133/125/59 127/120/56
f 131/123/11 128/121/11 136/128/11
f 129/111/57 137/129/61 134/126/58
f 135/127/60 138/125/62 133/125/59
f 139/130/63 131/123/11 136/128/11
f 33/32/11 136/128/11 128/121/11
f 127/120/56 140/131/49 135/127/60
f 138/125/62 141/132/62 133/125/59
f 136/128/11 33/32/11 142/11/64
f 127/120/56 124/117/52 140/131/49
f 143/127/65 138/125/62 135/127/60
f 144/133/66 136/128/11 142/11/64
f 20/19/11 142/11/64 33/32/11
f 135/127/60 140/131/49 145/134/67
f 145/134/67 143/127/65 135/127/60
f 146/130/68 136/128/11 144/133/66
f 147/6/69 144/133/66 142/11/64
f 140/131/49 148/135/2 145/134/67
f 149/134/70 143/127/65 145/134/67
f 150/136/8 146/130/68 144/133/66
f 150/136/8 144/133/66 147/6/69
f 31/30/11 33/32/11 125/118/11
f 151/137/2 149/134/70 145/134/67
f 145/134/67 148/135/2 151/137/2
f 14/13/8 146/130/68 150/136/8
f 125/118/11 33/32/11 128/121/11
f 152/137/71 149/134/70 151/137/2
f 150/136/8 10/1/6 14/13/8
f 147/6/69 10/1/6 150/136/8
f 31/30/11 125/118/11 153/34/72
f 153/34/72 125/118/11 154/138/73
f 153/34/72 154/138/73 155/113/74
f 125/118/11 123/116/11 154/138/73
f 154/138/73 123/116/11 155/113/74
f 156/124/75 153/34/72 155/113/74
f 157/42/76 153/34/72 156/124/75
f 158/139/77 159/140/78 160/141/11
f 159/140/78 158/139/77 161/142/79
f 160/141/11 159/140/78 162/143/11
f 161/142/79 158/139/77 163/144/80
f 164/145/11 158/139/77 160/141/11
f 161/142/79 163/144/80 165/146/81
f 166/147/82 158/139/77 164/145/11
f 158/139/77 166/147/82 163/144/80
f 165/146/81 163/144/80 167/148/81
f 164/145/11 168/149/11 166/147/82
f 165/146/81 167/148/81 169/150/83
f 163/144/80 166/147/82 170/151/84
f 163/144/80 170/151/84 167/148/81
f 168/149/11 171/152/85 166/147/82
f 166/147/82 171/152/85 170/151/84
f 169/150/83 167/148/81 172/153/81
f 167/148/81 170/151/84 172/153/81
f 173/154/11 171/152/85 168/149/11
f 169/150/83 172/153/81 174/155/81
f 170/151/84 171/152/85 175/156/86
f 170/151/84 175/156/86 172/153/81
f 172/153/81 175/156/86 174/155/81
f 176/157/11 173/154/11 168/149/11
f 177/158/11 173/154/11 176/157/11
f 178/129/11 176/157/11 168/149/11
f 176/157/11 179/159/11 177/158/11
f 120/114/11 176/157/11 178/129/11
f 180/160/11 179/159/11 176/157/11
f 120/114/11 178/129/11 117/111/11
f 180/160/11 181/161/11 179/159/11
f 180/160/11 176/157/11 182/162/11
f 182/162/11 176/157/11 120/114/11
f 183/163/38 181/161/11 180/160/11
f 184/164/38 180/160/11 182/162/11
f 183/163/38 180/160/11 184/164/38
f 120/114/11 94/90/11 182/162/11
f 183/163/38 185/165/38 181/161/11
f 186/166/38 183/163/38 184/164/38
f 104/98/11 94/90/11 120/114/11
f 94/90/11 88/84/11 182/162/11
f 187/167/38 185/165/38 183/163/38
f 182/162/11 88/84/11 184/164/38
f 187/167/38 183/163/38 186/166/38
f 187/167/38 188/168/38 185/165/38
f 184/164/38 88/84/11 85/81/38
f 187/167/38 186/166/38 189/169/38
f 190/170/38 188/168/38 187/167/38
f 184/164/38 191/171/38 186/166/38
f 184/164/38 85/81/38 192/172/38
f 193/173/38 187/167/38 189/169/38
f 190/170/38 187/167/38 193/173/38
f 184/164/38 192/172/38 191/171/38
f 186/166/38 194/174/38 189/169/38
f 195/175/38 190/170/38 193/173/38
f 85/81/38 82/78/38 192/172/38
f 192/172/38 82/78/38 191/171/38
f 194/174/38 196/176/38 189/169/38
f 197/177/38 190/170/38 195/175/38
f 189/169/38 196/176/38 193/173/38
f 197/177/38 188/168/38 190/170/38
f 186/166/38 191/171/38 198/178/38
f 198/178/38 194/174/38 186/166/38
f 193/173/38 196/176/38 199/179/38
f 195/175/38 193/173/38 199/179/38
f 200/180/38 188/168/38 197/177/38
f 198/178/38 201/181/38 194/174/38
f 201/181/38 196/176/38 194/174/38
f 199/179/38 202/132/38 195/175/38
f 203/182/87 200/180/38 197/177/38
f 204/183/38 201/181/38 198/178/38
f 202/132/38 199/179/38 133/125/59
f 203/182/87 197/177/38 205/184/38
f 195/175/38 202/132/38 205/184/38
f 201/181/38 204/183/38 206/185/38
f 133/125/59 141/132/62 202/132/38
f 205/184/38 197/177/38 195/175/38
f 196/176/38 201/181/38 207/186/38
f 207/186/38 201/181/38 206/185/38
f 202/132/38 141/132/62 205/184/38
f 196/176/38 207/186/38 199/179/38
f 133/125/59 199/179/38 130/122/38
f 105/99/38 207/186/38 206/185/38
f 205/184/38 141/132/62 208/184/62
f 100/94/38 206/185/38 204/183/38
f 130/122/38 199/179/38 209/187/88
f 209/187/88 199/179/38 207/186/38
f 207/186/38 105/99/38 209/187/88
f 208/184/62 210/182/62 205/184/38
f 105/99/38 206/185/38 100/94/38
f 122/115/55 130/122/38 209/187/88
f 87/83/38 100/94/38 204/183/38
f 205/184/38 210/182/62 203/182/87
f 122/115/55 209/187/88 121/105/54
f 87/83/38 204/183/38 198/178/38
f 209/187/88 105/99/38 211/102/89
f 212/188/38 200/180/38 203/182/87
f 121/105/54 209/187/88 211/102/89
f 198/178/38 80/76/38 87/83/38
f 191/171/38 80/76/38 198/178/38
f 80/76/38 191/171/38 77/73/38
f 82/78/38 77/73/38 191/171/38
f 213/189/90 214/17/91 215/12/90
f 215/12/90 214/17/91 216/12/92
f 215/12/90 216/12/92 217/16/93
f 217/16/93 216/12/92 218/16/94
f 219/24/94 217/16/93 218/16/94
f 220/24/93 217/16/93 219/24/94
f 221/190/95 220/24/93 219/24/94
f 222/191/95 220/24/93 221/190/95
f 223/192/96 222/191/95 221/190/95
f 224/193/97 222/191/95 223/192/96
f 224/193/97 223/192/96 225/194/98
f 225/194/98 223/192/96 226/195/99
f 225/194/98 226/195/99 227/196/100
f 227/196/100 226/195/99 228/55/101
f 229/197/102 224/193/97 230/194/102
f 231/182/103 232/188/62 233/182/103
f 233/182/103 232/188/62 234/188/103
f 235/198/104 236/180/104 232/188/62
f 235/198/104 237/168/105 236/180/104
f 232/188/62 236/180/104 238/188/105
f 239/199/105 237/168/105 235/198/104
f 239/199/105 240/165/105 237/168/105
f 241/200/105 240/165/105 239/199/105
f 242/200/87 243/161/105 240/165/105
f 244/201/87 243/161/105 242/200/87
f 244/201/87 245/159/105 243/161/105
f 246/202/87 245/159/105 244/201/87
f 246/202/87 247/158/105 245/159/105
f 248/203/87 247/158/105 246/202/87
f 248/203/87 249/154/104 247/158/105
f 250/204/106 249/154/104 248/203/87
f 251/205/106 249/154/104 250/204/106
f 252/152/105 249/154/104 251/205/106
f 253/206/107 252/152/105 251/205/106
f 254/156/105 252/152/105 253/206/107
f 253/206/107 255/207/107 254/156/105
f 254/156/105 255/207/107 256/155/107
f 255/207/107 257/150/105 256/155/107
f 256/155/107 257/150/105 258/150/105
f 259/208/94 260/209/108 261/142/94
f 259/208/94 261/142/94 262/210/94
f 261/142/94 260/209/108 263/140/109
f 262/210/94 261/142/94 264/146/94
f 260/209/108 265/211/110 263/140/109
f 262/210/94 264/146/94 266/150/94
f 266/150/94 264/146/94 267/150/94
f 263/140/109 265/211/110 268/143/109
f 265/211/110 269/212/111 268/143/109
f 268/143/109 269/212/111 270/213/112
f 269/212/111 271/214/113 270/213/112
f 270/213/112 271/214/113 272/215/114
f 271/214/113 273/53/115 272/215/114
f 274/216/115 273/53/115 271/214/113
f 273/53/115 274/216/115 275/55/116
f 265/211/108 276/217/117 277/212/117
f 275/55/116 274/216/115 278/196/116
f 279/217/118 280/218/119 281/212/120
f 281/212/120 280/218/119 282/214/121
f 280/218/119 283/216/122 282/214/121
f 284/219/122 283/216/122 280/218/119
f 25/24/14 30/29/11 285/190/11
f 285/190/11 30/29/11 286/192/123
f 286/192/123 30/29/11 287/220/124
f 286/192/123 287/220/124 288/195/125
f 30/29/11 24/23/11 287/220/124
f 288/195/125 287/220/124 289/221/126
f 287/220/124 24/23/11 39/38/18
f 287/220/124 39/38/18 289/221/126
f 288/195/125 289/221/126 290/55/127
f 24/23/11 28/27/11 39/38/18
f 290/55/127 289/221/126 291/48/128
f 289/221/126 39/38/18 292/222/129
f 292/222/129 291/48/128 289/221/126
f 292/222/129 39/38/18 37/36/16
f 293/39/130 291/48/128 292/222/129
f 293/39/130 292/222/129 37/36/16
f 294/223/131 295/224/132 296/215/133
f 294/223/131 297/225/134 295/224/132
f 296/215/133 295/224/132 298/213/135
f 299/226/136 297/225/134 294/223/131
f 296/215/133 300/50/137 294/223/131
f 295/224/132 301/141/138 298/213/135
f 299/226/136 302/129/139 297/225/134
f 303/53/140 300/50/137 296/215/133
f 301/141/138 295/224/132 304/145/141
f 298/213/135 301/141/138 305/143/142
f 304/145/141 295/224/132 297/225/134
f 306/126/143 302/129/139 299/226/136
f 300/50/137 307/45/144 294/223/131
f 304/145/141 297/225/134 308/149/145
f 299/226/136 309/42/146 306/126/143
f 308/149/145 297/225/134 302/129/139
f 294/223/131 307/45/144 299/226/136
f 306/126/143 309/42/146 310/124/147
f 299/226/136 307/45/144 43/42/21
f 58/57/31 60/58/11 311/227/11
f 58/57/31 311/227/11 66/62/37
f 60/58/11 102/96/11 311/227/11
f 66/62/37 311/227/11 131/123/11
f 60/58/11 64/60/11 102/96/11
f 311/227/11 102/96/11 107/101/11
f 311/227/11 107/101/11 131/123/11
f 312/62/148 131/123/11 139/130/63
f 313/13/149 312/62/148 139/130/63
f 22/21/13 312/62/148 313/13/149
f 313/13/149 11/10/3 22/21/13
f 314/197/150 315/194/151 316/228/152
f 316/228/152 315/194/151 317/196/152
f 318/219/152 316/228/152 317/196/152
f 319/216/152 318/219/152 317/196/152
