# Blender 4.1.1
# www.blender.org
mtllib Mid.mtl
o roomShell_room:GUI__BonnieRoom_whitetile
v 0.103451 0.045871 -0.014890
v 0.103458 0.053537 -0.014873
v 0.103434 0.045868 -0.023168
v 0.104877 0.046230 -0.083208
v 0.103406 0.042656 -0.083116
v 0.103410 0.046229 -0.083162
v 0.103438 0.042304 -0.014925
v 0.104926 0.045878 -0.014855
v 0.103451 0.045871 -0.014890
v 0.103409 0.046224 -0.075623
v 0.103410 0.046229 -0.083162
v 0.100653 0.046228 -0.083116
v 0.103451 0.045871 -0.014890
v 0.103434 0.045868 -0.023168
v 0.100685 0.045863 -0.014925
v 0.103409 0.046224 -0.075623
v 0.103415 0.053837 -0.083201
v 0.103410 0.046229 -0.083162
v 0.103409 0.056806 -0.075623
v 0.103425 0.053779 -0.098945
v 0.103415 0.056826 -0.083208
v 0.103423 0.046156 -0.098922
v 0.103440 0.053699 -0.127520
v 0.103440 0.046055 -0.127520
v 0.103442 0.053684 -0.143324
v 0.103441 0.046035 -0.143321
v 0.103444 0.045984 -0.182985
v 0.103447 0.053648 -0.182996
v 0.103447 0.045941 -0.216252
v 0.103451 0.053617 -0.216270
v 0.103450 0.045901 -0.246832
v 0.103456 0.053589 -0.246855
v 0.103451 0.045881 -0.262846
v 0.103458 0.053575 -0.262873
v 0.103421 0.033785 -0.048006
v 0.103421 0.042484 -0.048006
v 0.103406 0.033785 -0.083116
v 0.103438 0.042304 -0.014925
v 0.103406 0.042656 -0.083116
v 0.103438 0.033785 -0.014925
v 0.100669 0.042484 -0.048006
v 0.100669 0.046050 -0.048006
v 0.100653 0.042656 -0.083116
v 0.100685 0.045863 -0.014925
v 0.100653 0.046228 -0.083116
v 0.100685 0.042304 -0.014925
v 0.114079 0.046224 -0.075623
v 0.114079 0.056806 -0.075623
v 0.103409 0.046224 -0.075623
v 0.103409 0.056806 -0.075623
v 0.114104 0.056739 -0.023168
v 0.114104 0.045868 -0.023168
v 0.103434 0.056739 -0.023168
v 0.103434 0.045868 -0.023168
v 0.104877 0.033785 -0.083208
v 0.104901 0.033785 -0.048005
v 0.103406 0.033785 -0.083116
v 0.103421 0.033785 -0.048006
v 0.103438 0.033785 -0.014925
v 0.104926 0.033785 -0.014855
v 0.103438 0.033785 -0.014925
v 0.104926 0.033785 -0.014855
v 0.103438 0.042304 -0.014925
v 0.104926 0.045878 -0.014855
v 0.114092 0.046050 -0.047995
v 0.114079 0.046224 -0.075623
v 0.103421 0.046050 -0.047995
v 0.103434 0.045868 -0.023168
v 0.103409 0.046224 -0.075623
v 0.114104 0.045868 -0.023168
v 0.103410 0.046229 -0.083162
v 0.103406 0.042656 -0.083116
v 0.100653 0.046228 -0.083116
v 0.100653 0.042656 -0.083116
v 0.100653 0.042656 -0.083116
v 0.103406 0.042656 -0.083116
v 0.100669 0.042484 -0.048006
v 0.103421 0.042484 -0.048006
v 0.100685 0.042304 -0.014925
v 0.103438 0.042304 -0.014925
v 0.103451 0.045871 -0.014890
v 0.100685 0.045863 -0.014925
v 0.103438 0.042304 -0.014925
v 0.100685 0.042304 -0.014925
v 0.100653 0.046228 -0.083116
v 0.100669 0.046050 -0.048006
v 0.103409 0.046224 -0.075623
v 0.103421 0.046050 -0.047995
v 0.104877 0.046230 -0.083208
v 0.104877 0.033785 -0.083208
v 0.103406 0.042656 -0.083116
v 0.103406 0.033785 -0.083116
v 0.103410 0.046229 -0.083162
v 0.103423 0.046156 -0.098922
v 0.104877 0.046230 -0.083208
v 0.104887 0.046157 -0.098949
v 0.103440 0.046055 -0.127520
v 0.104902 0.046055 -0.127520
v 0.104904 0.046035 -0.143321
v 0.103441 0.046035 -0.143321
v 0.104912 0.045982 -0.182985
v 0.103444 0.045984 -0.182985
v 0.104918 0.045939 -0.216252
v 0.103447 0.045941 -0.216252
v 0.104923 0.045898 -0.246831
v 0.103450 0.045901 -0.246832
v 0.104926 0.045877 -0.262846
v 0.103451 0.045881 -0.262846
v 0.102016 0.053772 -0.098949
v 0.103425 0.053779 -0.098945
v 0.102006 0.053824 -0.083208
v 0.103440 0.053699 -0.127520
v 0.103415 0.053837 -0.083201
v 0.102030 0.053699 -0.127520
v 0.103442 0.053684 -0.143324
v 0.102033 0.053684 -0.143327
v 0.103447 0.053648 -0.182996
v 0.102041 0.053646 -0.183008
v 0.103451 0.053617 -0.216270
v 0.102047 0.053615 -0.216288
v 0.103456 0.053589 -0.246855
v 0.102052 0.053586 -0.246879
v 0.103458 0.053575 -0.262873
v 0.102055 0.053570 -0.262900
v 0.101786 0.054728 -0.098949
v 0.102016 0.053772 -0.098949
v 0.101775 0.054780 -0.083208
v 0.102030 0.053699 -0.127520
v 0.102006 0.053824 -0.083208
v 0.101800 0.054654 -0.127520
v 0.102033 0.053684 -0.143327
v 0.101803 0.054639 -0.143327
v 0.102041 0.053646 -0.183008
v 0.100897 0.055732 -0.083208
v 0.101786 0.054728 -0.098949
v 0.100907 0.055679 -0.098949
v 0.101810 0.054602 -0.183008
v 0.100921 0.055606 -0.127520
v 0.102047 0.053615 -0.216288
v 0.101803 0.054639 -0.143327
v 0.099914 0.056090 -0.083208
v 0.100907 0.055679 -0.098949
v 0.101816 0.054570 -0.216288
v 0.100924 0.055591 -0.143327
v 0.099924 0.056037 -0.098949
v 0.102052 0.053586 -0.246879
v 0.101810 0.054602 -0.183008
v 0.101822 0.054541 -0.246879
v 0.100931 0.055553 -0.183008
v 0.099939 0.055964 -0.127520
v 0.102055 0.053570 -0.262900
v 0.101816 0.054570 -0.216288
v 0.100924 0.055591 -0.143327
v 0.101825 0.054526 -0.262900
v 0.100937 0.055522 -0.216288
v 0.099941 0.055949 -0.143327
v 0.100946 0.055478 -0.262900
v 0.100943 0.055493 -0.246879
v 0.101822 0.054541 -0.246879
v 0.100931 0.055553 -0.183008
v 0.099963 0.055836 -0.262900
v 0.099961 0.055851 -0.246879
v 0.099949 0.055912 -0.183008
v 0.100943 0.055493 -0.246879
v 0.100937 0.055522 -0.216288
v 0.099955 0.055880 -0.216288
v 0.099914 0.056826 -0.083208
v 0.099924 0.056782 -0.098949
v 0.099914 0.056090 -0.083208
v 0.099924 0.056037 -0.098949
v 0.099939 0.055964 -0.127520
v 0.099939 0.056719 -0.127520
v 0.099941 0.055949 -0.143327
v 0.099941 0.056707 -0.143327
v 0.099949 0.055912 -0.183008
v 0.099949 0.056675 -0.183008
v 0.099955 0.055880 -0.216288
v 0.099955 0.056648 -0.216288
v 0.099961 0.055851 -0.246879
v 0.099961 0.056624 -0.246879
v 0.099963 0.055836 -0.262900
v 0.099963 0.056611 -0.262900
v 0.103415 0.056826 -0.083208
v 0.103425 0.056782 -0.098949
v 0.099914 0.056826 -0.083208
v 0.106044 0.056782 -0.098949
v 0.099924 0.056782 -0.098949
v 0.106034 0.056826 -0.083208
v 0.103440 0.056719 -0.127520
v 0.099939 0.056719 -0.127520
v 0.106058 0.056719 -0.127520
v 0.099941 0.056707 -0.143327
v 0.103441 0.056714 -0.143321
v 0.103441 0.056714 -0.143321
v 0.106055 0.056714 -0.143321
v 0.103444 0.056699 -0.182985
v 0.103444 0.056699 -0.182985
v 0.099949 0.056675 -0.183008
v 0.106047 0.056699 -0.182985
v 0.103447 0.056687 -0.216252
v 0.103447 0.056687 -0.216252
v 0.099955 0.056648 -0.216288
v 0.106040 0.056687 -0.216252
v 0.103450 0.056676 -0.246832
v 0.103450 0.056676 -0.246832
v 0.099961 0.056624 -0.246879
v 0.106034 0.056676 -0.246832
v 0.103451 0.056670 -0.262846
v 0.099963 0.056611 -0.262900
v 0.106030 0.056670 -0.262846
v 0.103449 0.056717 0.047964
v 0.106041 0.056717 0.047964
v 0.103450 0.056698 0.009409
v 0.106046 0.056743 0.099550
v 0.106038 0.056698 0.009409
v 0.103448 0.056743 0.099550
v 0.103451 0.056670 -0.014890
v 0.106049 0.056758 0.128152
v 0.106033 0.056670 -0.014890
v 0.103447 0.056758 0.128152
v 0.099963 0.056611 -0.014855
v 0.103450 0.056698 0.009409
v 0.099965 0.056657 0.009433
v 0.103449 0.056717 0.047964
v 0.099967 0.056690 0.047979
v 0.099969 0.056758 0.128152
v 0.099968 0.056733 0.099556
v 0.103448 0.056743 0.099550
v 0.099949 0.055929 0.047979
v 0.099967 0.056690 0.047979
v 0.099955 0.055891 0.009433
v 0.099968 0.056733 0.099556
v 0.099965 0.056657 0.009433
v 0.099941 0.055981 0.099556
v 0.099963 0.055836 -0.014855
v 0.099963 0.056611 -0.014855
v 0.099969 0.056758 0.128152
v 0.099937 0.056009 0.128152
v 0.099955 0.055891 0.009433
v 0.100937 0.055533 0.009433
v 0.099949 0.055929 0.047979
v 0.100946 0.055478 -0.014855
v 0.100931 0.055571 0.047979
v 0.099963 0.055836 -0.014855
v 0.099941 0.055981 0.099556
v 0.100923 0.055623 0.099556
v 0.099937 0.056009 0.128152
v 0.100919 0.055651 0.128152
v 0.101825 0.054526 -0.014855
v 0.100937 0.055533 0.009433
v 0.101816 0.054581 0.009433
v 0.100931 0.055571 0.047979
v 0.101810 0.054619 0.047979
v 0.100923 0.055623 0.099556
v 0.101802 0.054671 0.099556
v 0.101798 0.054699 0.128152
v 0.102055 0.053571 -0.014855
v 0.101816 0.054581 0.009433
v 0.102048 0.053625 0.009433
v 0.101810 0.054619 0.047979
v 0.102043 0.053664 0.047979
v 0.101802 0.054671 0.099556
v 0.102037 0.053715 0.099556
v 0.102033 0.053744 0.128152
v 0.103454 0.053603 0.009421
v 0.103452 0.053648 0.047972
v 0.102048 0.053625 0.009433
v 0.102055 0.053571 -0.014855
v 0.103458 0.053537 -0.014873
v 0.102043 0.053664 0.047979
v 0.102037 0.053715 0.099556
v 0.103449 0.053710 0.099553
v 0.102033 0.053744 0.128152
v 0.103447 0.053744 0.128152
v 0.103452 0.053648 0.047972
v 0.103454 0.053603 0.009421
v 0.103458 0.046003 0.047964
v 0.103462 0.046077 0.099550
v 0.103455 0.045949 0.009409
v 0.103449 0.053710 0.099553
v 0.103458 0.053537 -0.014873
v 0.103451 0.045871 -0.014890
v 0.103464 0.046117 0.128152
v 0.103447 0.053744 0.128152
v 0.104919 0.046007 0.047980
v 0.103458 0.046003 0.047964
v 0.104922 0.045953 0.009433
v 0.103462 0.046077 0.099550
v 0.103455 0.045949 0.009409
v 0.104915 0.046078 0.099556
v 0.104926 0.045878 -0.014855
v 0.103451 0.045871 -0.014890
v 0.103464 0.046117 0.128152
v 0.104912 0.046117 0.128152
v 0.099963 0.055836 -0.014855
v 0.099963 0.056611 -0.014855
v 0.100946 0.055478 -0.014855
v 0.103451 0.056670 -0.014890
v 0.101825 0.054526 -0.014855
v 0.103458 0.053537 -0.014873
v 0.102055 0.053571 -0.014855
v 0.099914 0.056090 -0.083208
v 0.100897 0.055732 -0.083208
v 0.099914 0.056826 -0.083208
v 0.103415 0.056826 -0.083208
v 0.101775 0.054780 -0.083208
v 0.103415 0.053837 -0.083201
v 0.102006 0.053824 -0.083208
v 0.103451 0.056670 -0.014890
v 0.103434 0.056739 -0.023168
v 0.103458 0.053537 -0.014873
v 0.103434 0.045868 -0.023168
v 0.103421 0.046050 -0.047995
v 0.100669 0.046050 -0.048006
v 0.103434 0.045868 -0.023168
v 0.100685 0.045863 -0.014925
vn -1.0000 0.0009 0.0021
vn -0.0313 -0.0128 -0.9994
vn -0.0234 -0.0096 0.9997
vn -0.0003 1.0000 0.0007
vn -0.0025 1.0000 -0.0003
vn -1.0000 0.0006 -0.0001
vn -1.0000 0.0005 -0.0003
vn -1.0000 0.0005 -0.0004
vn -1.0000 0.0001 -0.0008
vn -1.0000 0.0003 -0.0006
vn -1.0000 0.0002 -0.0008
vn -1.0000 -0.0000 -0.0004
vn -1.0000 0.0001 -0.0001
vn -1.0000 0.0003 -0.0001
vn -1.0000 0.0004 -0.0001
vn -1.0000 0.0008 -0.0001
vn -1.0000 -0.0000 -0.0006
vn -1.0000 -0.0000 0.0005
vn -1.0000 -0.0000 0.0004
vn -0.0000 -0.0000 1.0000
vn -0.0000 -0.0000 -1.0000
vn 0.0001 -1.0000 -0.0000
vn -0.0464 -0.0000 0.9989
vn -0.0000 1.0000 0.0076
vn -0.0000 1.0000 0.0073
vn -0.0083 -0.0064 -0.9999
vn -0.0084 -0.0064 -0.9999
vn -0.0000 -1.0000 -0.0056
vn -0.0000 -1.0000 -0.0057
vn -0.0000 -1.0000 -0.0054
vn -0.0063 -0.0048 1.0000
vn -0.0062 -0.0048 1.0000
vn -0.0083 0.9999 0.0066
vn -0.0082 0.9999 0.0066
vn -0.0623 -0.0000 -0.9981
vn -0.0000 -1.0000 0.0035
vn 0.0004 -1.0000 0.0041
vn -0.0000 -1.0000 0.0041
vn -0.0006 -1.0000 0.0013
vn -0.0003 -1.0000 0.0013
vn -0.0009 -1.0000 0.0013
vn -0.0015 -1.0000 0.0013
vn -0.0020 -1.0000 0.0013
vn 0.0049 -1.0000 0.0031
vn -0.0000 -1.0000 0.0026
vn -0.0000 -1.0000 0.0029
vn 0.0003 -1.0000 0.0009
vn 0.0004 -1.0000 0.0009
vn 0.0012 -1.0000 0.0009
vn 0.0013 -1.0000 0.0009
vn 0.0020 -1.0000 0.0009
vn 0.0027 -1.0000 0.0009
vn -0.0000 -1.0000 0.0030
vn -0.9721 -0.2346 0.0001
vn -0.9721 -0.2346 0.0002
vn -0.9721 -0.2346 -0.0000
vn -0.9721 -0.2347 -0.0000
vn -0.7347 -0.6784 0.0018
vn -0.7347 -0.6784 0.0016
vn -0.9721 -0.2346 0.0016
vn -0.9721 -0.2347 0.0001
vn -0.7347 -0.6784 0.0009
vn -0.7347 -0.6784 0.0005
vn -0.3425 -0.9395 0.0021
vn -0.3425 -0.9395 0.0026
vn -0.7347 -0.6784 0.0026
vn -0.7347 -0.6784 0.0014
vn -0.3425 -0.9395 0.0023
vn -0.3425 -0.9395 0.0008
vn -0.7347 -0.6784 -0.0000
vn -0.3425 -0.9395 0.0005
vn -0.7347 -0.6784 0.0017
vn -0.3426 -0.9395 0.0008
vn -1.0000 -0.0000 -0.0003
vn -1.0000 -0.0000 -0.0002
vn -1.0000 -0.0000 -0.0005
vn -0.0000 1.0000 -0.0025
vn -0.0000 1.0000 -0.0023
vn -0.0000 1.0000 -0.0026
vn -0.0026 1.0000 -0.0006
vn -0.0000 1.0000 -0.0004
vn -0.0068 1.0000 -0.0006
vn -0.0071 1.0000 -0.0006
vn -0.0109 0.9999 -0.0006
vn -0.0144 0.9999 -0.0006
vn -0.0143 0.9999 -0.0006
vn -0.0000 1.0000 -0.0005
vn -0.0000 1.0000 -0.0008
vn 0.0018 1.0000 -0.0036
vn 0.0020 1.0000 -0.0039
vn -0.0118 0.9999 -0.0012
vn -0.0119 0.9999 -0.0011
vn -0.0074 1.0000 -0.0007
vn -0.0072 1.0000 -0.0007
vn 0.0019 1.0000 -0.0039
vn -0.0034 1.0000 -0.0007
vn -0.0032 1.0000 -0.0007
vn -0.9997 0.0238 -0.0001
vn -0.9997 0.0239 -0.0001
vn -0.9999 0.0124 -0.0001
vn -0.9994 0.0347 -0.0001
vn -0.9994 0.0346 -0.0001
vn -0.9998 0.0214 -0.0004
vn -0.9998 0.0213 -0.0004
vn -0.3426 -0.9395 0.0014
vn -0.3426 -0.9395 0.0009
vn -0.3445 -0.9388 0.0042
vn -0.3427 -0.9394 0.0009
vn -0.3445 -0.9388 0.0011
vn -0.7352 -0.6778 0.0025
vn -0.7347 -0.6784 0.0006
vn -0.7353 -0.6778 0.0026
vn -0.7352 -0.6778 0.0002
vn -0.9715 -0.2369 0.0004
vn -0.9717 -0.2361 0.0002
vn -0.9718 -0.2358 0.0001
vn -0.9714 -0.2374 0.0001
vn -0.9715 -0.2371 0.0001
vn -0.9711 -0.2386 0.0001
vn -0.7352 -0.6778 0.0026
vn -0.9715 -0.2370 0.0004
vn -0.0166 -0.9999 0.0018
vn -0.0104 -0.9999 0.0011
vn -0.0167 -0.9999 0.0018
vn -0.0023 -1.0000 0.0045
vn -0.0022 -1.0000 0.0045
vn -0.0044 -1.0000 0.0011
vn -0.0045 -1.0000 0.0011
vn -1.0000 -0.0008 -0.0000
vn -1.0000 -0.0001 -0.0000
vn -1.0000 -0.0011 -0.0000
vn -1.0000 -0.0016 -0.0000
vn -1.0000 -0.0000 -0.0000
vn -1.0000 -0.0017 -0.0000
vn -1.0000 -0.0011 -0.0002
vn -1.0000 -0.0012 -0.0002
vn 0.0023 -1.0000 0.0014
vn 0.0020 -1.0000 0.0014
vn 0.0033 -1.0000 0.0023
vn 0.0009 -1.0000 0.0014
vn -0.0030 -1.0000 0.0060
vn -1.0000 -0.0005 0.0027
vn -1.0000 -0.0007 0.0026
vn -1.0000 -0.0004 0.0027
vn 0.0090 0.9999 0.0066
vt 0.944217 -0.795114
vt 1.073348 -0.795616
vt 0.944573 -0.689658
vt 0.960224 0.000009
vt 0.893428 -0.000995
vt 0.953618 -0.000542
vt 0.884109 -0.794542
vt 0.950963 -0.795590
vt 0.953097 -0.096571
vt 0.941213 -0.001061
vt 0.931671 -0.794608
vt 1.081757 -0.000318
vt 1.131297 -0.096960
vt 1.081995 0.260445
vt 1.132089 -0.000346
vt 0.953618 0.260432
vt 1.082327 0.624459
vt 0.953618 0.624739
vt 1.082381 0.689100
vt 0.953570 0.689341
vt 0.953448 0.851510
vt 1.082518 0.851370
vt 0.953345 0.987523
vt 1.082633 0.987466
vt 0.953251 1.112546
vt 1.082738 1.112566
vt 0.953202 1.178022
vt 1.082793 1.178084
vt 0.742390 -0.387726
vt 0.888873 -0.388045
vt 0.744049 -0.000669
vt 0.740648 -0.794229
vt 0.876504 -0.387980
vt 0.936548 -0.388111
vt 0.881060 -0.000930
vt 0.871740 -0.794477
vt 1.001047 -0.096824
vt 1.179247 -0.097213
vt 1.175575 -0.690310
vt 0.992524 -0.689911
vt 1.127624 -0.690057
vt 0.750670 0.000466
vt 0.749044 -0.387770
vt 0.747337 -0.795146
vt 0.996868 -0.388574
vt 0.948918 -0.388322
vt 0.960209 0.260739
vt 0.960188 0.624705
vt 0.960140 0.689305
vt 0.960019 0.851471
vt 0.959918 0.987481
vt 0.959825 1.112501
vt 0.959776 1.177976
vt 1.075539 0.260527
vt 1.075212 -0.000202
vt 1.075995 0.624493
vt 1.076045 0.689174
vt 1.076170 0.851544
vt 1.076274 0.987725
vt 1.076371 1.112903
vt 1.076421 1.178460
vt 1.090594 0.260497
vt 1.090268 -0.000232
vt 1.091050 0.624462
vt 1.091100 0.689144
vt 1.102346 -0.000246
vt 1.102673 0.260483
vt 1.091225 0.851514
vt 1.103128 0.624449
vt 1.103963 -0.000236
vt 1.091330 0.987695
vt 1.103178 0.689130
vt 1.104289 0.260494
vt 1.091426 1.112873
vt 1.103303 0.851500
vt 1.104745 0.624459
vt 1.091477 1.178431
vt 1.103408 0.987681
vt 1.104795 0.689140
vt 1.103555 1.178416
vt 1.103505 1.112859
vt 1.105172 1.178427
vt 1.105121 1.112869
vt 1.104920 0.851510
vt 1.105025 0.987691
vt 1.116357 -0.000263
vt 1.116819 0.260466
vt 1.117464 0.624431
vt 1.117552 0.689112
vt 1.117774 0.851483
vt 1.117959 0.987663
vt 1.118131 1.112841
vt 1.118220 1.178398
vt 1.132551 0.260383
vt 1.144317 0.260321
vt 1.143856 -0.000408
vt 1.133196 0.624348
vt 1.144962 0.624286
vt 1.133393 0.688949
vt 1.145138 0.688887
vt 1.133887 0.851117
vt 1.145581 0.851056
vt 1.134301 0.987128
vt 1.145952 0.987067
vt 1.134683 1.112150
vt 1.146294 1.112089
vt 1.134882 1.177626
vt 1.146473 1.177565
vt 1.125651 -1.065326
vt 1.137220 -1.083244
vt 1.125824 -0.954109
vt 1.136970 -1.241903
vt 1.137406 -0.964666
vt 1.125419 -1.214138
vt 1.126071 -0.795510
vt 1.136832 -1.329870
vt 1.137673 -0.795571
vt 1.125290 -1.296644
vt 1.109405 -0.795866
vt 1.109549 -0.940292
vt 1.109649 -1.041572
vt 1.109859 -1.252221
vt 1.109784 -1.177087
vt 1.096763 -1.041471
vt 1.096595 -0.940222
vt 1.096988 -1.176946
vt 1.096356 -0.795837
vt 1.097112 -1.252058
vt 1.094960 -0.944200
vt 1.094739 -0.795847
vt 1.095114 -1.048234
vt 1.095321 -1.187432
vt 1.095436 -1.264608
vt 1.082661 -0.795834
vt 1.082866 -0.947680
vt 1.083010 -1.054163
vt 1.083202 -1.196638
vt 1.083309 -1.275632
vt 1.067606 -0.795804
vt 1.067813 -0.948499
vt 1.067959 -1.055577
vt 1.068154 -1.198850
vt 1.068262 -1.278285
vt 1.073724 -0.954127
vt 1.073988 -1.065283
vt 1.074341 -1.214012
vt 1.074537 -1.296473
vt 0.945281 -1.064646
vt 0.945868 -1.213301
vt 0.944842 -0.953545
vt 0.946193 -1.295721
vt 0.951855 -1.075144
vt 0.951488 -0.959912
vt 0.952347 -1.229327
vt 0.952620 -1.314811
s 1
g roomShell_room:GUI__BonnieRoom_whitetile_room:GUI__BonnieRoom_whitetile
usemtl room:GUI__BonnieRoom_whitetile
f 1/1/1 2/2/1 3/3/1
f 4/4/2 5/5/2 6/6/2
f 7/7/3 8/8/3 9/1/3
f 10/9/4 11/6/4 12/10/4
f 13/1/5 14/3/5 15/11/5
f 16/9/6 17/12/7 18/6/8
f 19/13/9 17/12/7 16/9/6
f 17/12/7 20/14/10 18/6/8
f 21/15/11 17/12/7 19/13/9
f 18/6/8 20/14/10 22/16/10
f 20/14/10 23/17/12 22/16/10
f 22/16/10 23/17/12 24/18/12
f 23/17/12 25/19/13 24/18/12
f 24/18/12 25/19/13 26/20/13
f 26/20/13 25/19/13 27/21/14
f 27/21/14 25/19/13 28/22/15
f 27/21/14 28/22/15 29/23/6
f 29/23/6 28/22/15 30/24/6
f 29/23/6 30/24/6 31/25/16
f 31/25/16 30/24/6 32/26/16
f 31/25/16 32/26/16 33/27/17
f 33/27/17 32/26/16 34/28/17
f 35/29/18 36/30/18 37/31/19
f 36/30/18 35/29/18 38/7/18
f 37/31/19 36/30/18 39/5/19
f 38/7/18 35/29/18 40/32/18
f 41/33/18 42/34/18 43/35/19
f 42/34/18 41/33/18 44/11/18
f 43/35/19 42/34/18 45/10/19
f 44/11/18 41/33/18 46/36/18
f 47/37/20 48/38/20 49/9/20
f 49/9/20 48/38/20 50/13/20
f 51/39/21 52/40/21 53/41/21
f 53/41/21 52/40/21 54/3/21
f 55/42/22 56/43/22 57/31/22
f 57/31/22 56/43/22 58/29/22
f 58/29/22 56/43/22 59/32/22
f 59/32/22 56/43/22 60/44/22
f 61/32/23 62/44/23 63/7/23
f 63/7/23 62/44/23 64/8/23
f 65/45/24 66/37/24 67/46/24
f 68/3/25 65/45/24 67/46/24
f 67/46/24 66/37/24 69/9/24
f 70/40/25 65/45/24 68/3/25
f 71/6/26 72/5/26 73/10/27
f 73/10/27 72/5/26 74/35/26
f 75/35/28 76/5/29 77/33/29
f 77/33/29 76/5/29 78/30/28
f 77/33/29 78/30/28 79/36/30
f 79/36/30 78/30/28 80/7/30
f 81/1/31 82/11/32 83/7/32
f 83/7/32 82/11/32 84/36/31
f 85/10/33 86/34/34 87/9/33
f 87/9/33 86/34/34 88/46/34
f 89/4/35 90/42/35 91/5/35
f 91/5/35 90/42/35 92/31/35
f 93/6/36 94/16/37 95/4/36
f 95/4/36 94/16/37 96/47/37
f 94/16/37 97/18/38 96/47/37
f 96/47/37 97/18/38 98/48/38
f 98/48/38 97/18/38 99/49/39
f 99/49/39 97/18/38 100/20/40
f 99/49/39 100/20/40 101/50/41
f 101/50/41 100/20/40 102/21/41
f 101/50/41 102/21/41 103/51/42
f 103/51/42 102/21/41 104/23/42
f 103/51/42 104/23/42 105/52/43
f 105/52/43 104/23/42 106/25/43
f 105/52/43 106/25/43 107/53/38
f 107/53/38 106/25/43 108/27/38
f 109/54/44 110/14/44 111/55/45
f 109/54/44 112/17/46 110/14/44
f 111/55/45 110/14/44 113/12/45
f 114/56/46 112/17/46 109/54/44
f 114/56/46 115/19/47 112/17/46
f 116/57/48 115/19/47 114/56/46
f 116/57/48 117/22/49 115/19/47
f 118/58/50 117/22/49 116/57/48
f 118/58/50 119/24/51 117/22/49
f 120/59/51 119/24/51 118/58/50
f 120/59/51 121/26/52 119/24/51
f 122/60/52 121/26/52 120/59/51
f 122/60/52 123/28/53 121/26/52
f 124/61/46 123/28/53 122/60/52
f 125/62/54 126/54/54 127/63/55
f 125/62/54 128/56/54 126/54/54
f 127/63/55 126/54/54 129/55/55
f 130/64/54 128/56/54 125/62/54
f 130/64/54 131/57/56 128/56/54
f 132/65/56 131/57/56 130/64/54
f 132/65/56 133/58/57 131/57/56
f 134/66/58 135/62/59 127/63/60
f 136/67/59 130/64/61 135/62/59
f 136/67/59 135/62/59 134/66/58
f 137/68/57 133/58/57 132/65/56
f 138/69/62 130/64/61 136/67/59
f 137/68/57 139/59/56 133/58/57
f 138/69/62 140/65/63 130/64/61
f 141/70/64 142/67/65 134/66/66
f 143/71/56 139/59/56 137/68/57
f 144/72/63 140/65/63 138/69/62
f 145/73/65 142/67/65 141/70/64
f 143/71/56 146/60/56 139/59/56
f 144/72/63 147/68/63 140/65/63
f 145/73/65 138/69/67 142/67/65
f 148/74/56 146/60/56 143/71/56
f 149/75/63 147/68/63 144/72/63
f 150/76/68 138/69/67 145/73/65
f 148/74/56 151/61/56 146/60/56
f 149/75/63 152/71/63 147/68/63
f 150/76/68 153/72/69 138/69/67
f 154/77/70 151/61/56 148/74/56
f 155/78/63 152/71/63 149/75/63
f 156/79/69 153/72/69 150/76/68
f 157/80/71 154/77/72 158/81/63
f 158/81/63 159/74/63 155/78/63
f 155/78/63 159/74/63 152/71/63
f 156/79/69 160/75/73 153/72/69
f 161/82/65 157/80/65 162/83/73
f 158/81/63 154/77/72 159/74/63
f 163/84/73 160/75/73 156/79/69
f 162/83/73 157/80/65 164/81/73
f 163/84/73 165/78/73 160/75/73
f 162/83/73 164/81/73 166/85/73
f 166/85/73 165/78/73 163/84/73
f 166/85/73 164/81/73 165/78/73
f 167/86/74 168/87/17 169/70/74
f 169/70/74 168/87/17 170/73/17
f 170/73/17 168/87/17 171/76/74
f 171/76/74 168/87/17 172/88/74
f 171/76/74 172/88/74 173/79/75
f 173/79/75 172/88/74 174/89/75
f 173/79/75 174/89/75 175/84/75
f 175/84/75 174/89/75 176/90/75
f 175/84/75 176/90/75 177/85/75
f 177/85/75 176/90/75 178/91/75
f 177/85/75 178/91/75 179/83/75
f 179/83/75 178/91/75 180/92/75
f 179/83/75 180/92/75 181/82/76
f 181/82/76 180/92/75 182/93/76
f 183/15/77 184/94/77 185/86/78
f 183/15/77 186/95/77 184/94/77
f 185/86/78 184/94/77 187/87/77
f 188/96/78 186/95/77 183/15/77
f 184/94/77 186/95/77 189/97/77
f 187/87/77 184/94/77 190/88/79
f 190/88/79 184/94/77 189/97/77
f 189/97/77 186/95/77 191/98/79
f 190/88/79 189/97/77 192/89/80
f 189/97/77 191/98/79 193/99/81
f 192/89/80 189/97/77 194/99/80
f 193/99/81 191/98/79 195/100/81
f 194/99/80 196/101/82 192/89/80
f 193/99/81 195/100/81 197/101/81
f 192/89/80 196/101/82 198/90/83
f 197/101/81 195/100/81 199/102/81
f 196/101/82 200/103/84 198/90/83
f 197/101/81 199/102/81 201/103/81
f 198/90/83 200/103/84 202/91/84
f 201/103/81 199/102/81 203/104/81
f 200/103/84 204/105/85 202/91/84
f 201/103/81 203/104/81 205/105/81
f 202/91/84 204/105/85 206/92/86
f 205/105/81 203/104/81 207/106/81
f 204/105/85 208/107/77 206/92/86
f 205/105/81 207/106/81 208/107/77
f 206/92/86 208/107/77 209/93/77
f 208/107/77 207/106/81 210/108/79
f 211/109/87 212/110/87 213/111/88
f 211/109/87 214/112/87 212/110/87
f 213/111/88 212/110/87 215/113/88
f 216/114/87 214/112/87 211/109/87
f 213/111/88 215/113/88 217/115/89
f 216/114/87 218/116/89 214/112/87
f 217/115/89 215/113/88 219/117/89
f 220/118/90 218/116/89 216/114/87
f 221/119/90 222/111/91 217/115/89
f 223/120/92 222/111/91 221/119/90
f 223/120/92 224/109/93 222/111/91
f 225/121/94 224/109/93 223/120/92
f 226/122/90 220/118/95 227/123/96
f 227/123/96 228/114/97 225/121/94
f 225/121/94 228/114/97 224/109/93
f 227/123/96 220/118/95 228/114/97
f 229/124/98 230/121/99 231/125/100
f 229/124/98 232/123/101 230/121/99
f 231/125/100 230/121/99 233/120/100
f 234/126/102 232/123/101 229/124/98
f 231/125/100 233/120/100 235/127/103
f 235/127/103 233/120/100 236/119/104
f 234/126/102 237/122/104 232/123/101
f 238/128/103 237/122/104 234/126/102
f 239/125/105 240/129/105 241/124/106
f 239/125/105 242/130/107 240/129/105
f 241/124/106 240/129/105 243/131/106
f 244/127/107 242/130/107 239/125/105
f 241/124/106 243/131/106 245/126/108
f 245/126/108 243/131/106 246/132/108
f 245/126/108 246/132/108 247/128/107
f 247/128/107 246/132/108 248/133/107
f 242/130/109 249/134/110 250/129/62
f 250/129/62 249/134/110 251/135/62
f 250/129/62 251/135/62 252/131/111
f 252/131/111 251/135/62 253/136/111
f 252/131/111 253/136/111 254/132/111
f 254/132/111 255/137/111 248/133/107
f 254/132/111 253/136/111 255/137/111
f 248/133/107 255/137/111 256/138/112
f 249/134/113 257/139/114 258/135/115
f 258/135/115 257/139/114 259/140/116
f 258/135/115 259/140/116 260/136/117
f 260/136/117 259/140/116 261/141/118
f 260/136/117 261/141/118 262/137/119
f 262/137/119 263/142/119 256/138/120
f 262/137/119 261/141/118 263/142/119
f 256/138/120 263/142/119 264/143/121
f 265/144/122 266/145/123 267/140/124
f 268/139/125 265/144/122 267/140/124
f 269/2/126 265/144/122 268/139/125
f 267/140/124 266/145/123 270/141/123
f 270/141/123 266/145/123 271/142/127
f 271/142/127 266/145/123 272/146/128
f 271/142/127 272/146/128 273/143/126
f 273/143/126 272/146/128 274/147/126
f 275/145/129 276/144/130 277/148/131
f 278/149/132 275/145/129 277/148/131
f 277/148/131 276/144/130 279/150/133
f 280/146/134 275/145/129 278/149/132
f 276/144/130 281/2/135 279/150/133
f 279/150/133 281/2/135 282/1/135
f 283/151/136 280/146/134 278/149/132
f 284/147/135 280/146/134 283/151/136
f 285/152/137 286/148/138 287/153/139
f 285/152/137 288/149/140 286/148/138
f 287/153/139 286/148/138 289/150/139
f 290/154/140 288/149/140 285/152/137
f 287/153/139 289/150/139 291/8/141
f 291/8/141 289/150/139 292/1/141
f 290/154/140 293/151/141 288/149/140
f 294/155/141 293/151/141 290/154/140
f 295/127/21 296/119/21 297/130/21
f 297/130/21 296/119/21 298/115/21
f 299/134/21 297/130/21 298/115/21
f 300/2/21 299/134/21 298/115/21
f 301/139/21 299/134/21 300/2/21
f 302/70/20 303/66/20 304/86/20
f 304/86/20 303/66/20 305/15/20
f 303/66/20 306/63/20 305/15/20
f 306/63/20 307/12/20 305/15/20
f 308/55/20 307/12/20 306/63/20
f 309/115/142 310/41/142 311/2/143
f 311/2/143 310/41/142 312/3/144
f 313/46/145 314/34/145 315/3/145
f 315/3/145 314/34/145 316/11/145
