# Blender 4.1.1
# www.blender.org
mtllib Mountain.mtl
o GUI_Map_Plateau:GUI_Map_Plateau_GUI_Map_Plateau:GUI_Map_be891ef
v 0.049018 0.005364 -0.001825
v 0.049070 0.005500 -0.002334
v 0.047677 0.005440 -0.002100
v 0.047400 0.005747 -0.002819
v 0.046326 0.005525 -0.002350
v 0.046541 0.005787 -0.002947
v 0.045728 0.005746 -0.003038
v 0.045513 0.005530 -0.002531
v 0.045531 0.005362 -0.002029
v 0.049472 0.005388 -0.002087
v 0.049074 0.005444 -0.002458
v 0.045639 0.005671 -0.003076
v 0.046154 0.005324 -0.001924
v 0.049486 0.005326 -0.002198
v 0.045425 0.005420 -0.002563
v 0.047793 0.005286 -0.001735
v 0.047417 0.005686 -0.002932
v 0.045758 0.005688 -0.003144
v 0.048942 0.005221 -0.001510
v 0.046555 0.005726 -0.003058
v 0.049221 0.005192 -0.001446
v 0.049443 0.005302 -0.001749
v 0.049309 0.005097 -0.001425
v 0.049535 0.005208 -0.001747
v 0.050100 0.001486 -0.001554
v 0.050339 0.000511 -0.001499
v 0.050152 0.001486 -0.002139
v 0.049949 0.000511 -0.000900
v 0.050428 0.000511 -0.002147
v 0.049759 0.001486 -0.001018
v 0.049936 0.002296 -0.001601
v 0.050018 0.000413 -0.000858
v 0.050360 0.000511 -0.002268
v 0.049950 0.002296 -0.002131
v 0.049640 0.002296 -0.001120
v 0.050423 0.000413 -0.001495
v 0.050080 0.001486 -0.002262
v 0.049627 0.001486 -0.000941
v 0.050523 0.000413 -0.002181
v 0.049787 0.003102 -0.001647
v 0.050454 0.000413 -0.002307
v 0.049510 0.002296 -0.001042
v 0.049793 0.003102 -0.002124
v 0.049265 0.001458 -0.002845
v 0.049553 0.000510 -0.002875
v 0.049509 0.003102 -0.001232
v 0.049660 0.003904 -0.001675
v 0.049878 0.002296 -0.002261
v 0.050360 0.000511 -0.002268
v 0.048307 0.000509 -0.003294
v 0.049661 0.003905 -0.002127
v 0.049631 0.000412 -0.002931
v 0.049392 0.003904 -0.001307
v 0.048197 0.001425 -0.003226
v 0.050454 0.000413 -0.002307
v 0.048339 0.000412 -0.003372
v 0.049609 0.004497 -0.001689
v 0.049878 0.002296 -0.002261
v 0.049603 0.004497 -0.002086
v 0.046282 0.000412 -0.003692
v 0.049157 0.002265 -0.002814
v 0.049529 0.004497 -0.002215
v 0.049535 0.005208 -0.001747
v 0.046281 0.000491 -0.003593
v 0.049560 0.005293 -0.002085
v 0.045290 0.000491 -0.003556
v 0.046328 0.001333 -0.003420
v 0.049586 0.003905 -0.002252
v 0.045263 0.000412 -0.003637
v 0.049718 0.003104 -0.002251
v 0.048082 0.002258 -0.003199
v 0.045429 0.001338 -0.003461
v 0.049060 0.003092 -0.002772
v 0.049718 0.003104 -0.002251
v 0.046376 0.002264 -0.003300
v 0.045553 0.002281 -0.003364
v 0.047946 0.003078 -0.003114
v 0.049718 0.003104 -0.002251
v 0.049017 0.003882 -0.002685
v 0.045631 0.003107 -0.003311
v 0.049586 0.003905 -0.002252
v 0.046389 0.003085 -0.003235
v 0.049950 0.002296 -0.002131
v 0.047784 0.003880 -0.003057
v 0.049034 0.004542 -0.002635
v 0.050152 0.001486 -0.002139
v 0.045694 0.003907 -0.003240
v 0.049529 0.004497 -0.002215
v 0.046403 0.003889 -0.003184
v 0.047650 0.004650 -0.003003
v 0.049486 0.005326 -0.002198
v 0.046466 0.004770 -0.003124
v 0.049074 0.005444 -0.002458
v 0.045733 0.004845 -0.003207
v 0.047417 0.005686 -0.002932
v 0.045758 0.005688 -0.003144
v 0.046555 0.005726 -0.003058
v 0.043844 0.001339 -0.003159
v 0.043697 0.000492 -0.003231
v 0.043713 0.001338 -0.002612
v 0.043961 0.002193 -0.003097
v 0.043485 0.000492 -0.002649
v 0.043812 0.000492 -0.003335
v 0.043847 0.002192 -0.002593
v 0.043692 0.001338 -0.002512
v 0.043952 0.001339 -0.003282
v 0.043761 0.000412 -0.003393
v 0.043826 0.002192 -0.002493
v 0.043642 0.000412 -0.003286
v 0.043888 0.002733 -0.002558
v 0.043456 0.000492 -0.002549
v 0.043413 0.000412 -0.002672
v 0.044007 0.002788 -0.003048
v 0.043864 0.002696 -0.002469
v 0.044064 0.002194 -0.003192
v 0.043381 0.000412 -0.002568
v 0.044113 0.002823 -0.003137
v 0.043881 0.002838 -0.002463
v 0.043874 0.002772 -0.002341
v 0.043523 0.001339 -0.001989
v 0.043269 0.000492 -0.001969
v 0.043709 0.001339 -0.001547
v 0.043669 0.002193 -0.001993
v 0.043472 0.000493 -0.001328
v 0.043849 0.002195 -0.001637
v 0.043664 0.002192 -0.002147
v 0.043273 0.000492 -0.002133
v 0.043903 0.000493 -0.001132
v 0.043903 0.002535 -0.001719
v 0.043527 0.001338 -0.002148
v 0.043960 0.001339 -0.001357
v 0.043734 0.002547 -0.002002
v 0.043527 0.001338 -0.002148
v 0.043994 0.002196 -0.001524
v 0.043664 0.002192 -0.002147
v 0.043191 0.000412 -0.002125
v 0.044020 0.002528 -0.001592
v 0.043721 0.002584 -0.002149
v 0.043186 0.000413 -0.001953
v 0.044127 0.002197 -0.001505
v 0.043767 0.002673 -0.002063
v 0.044152 0.002570 -0.001561
v 0.043918 0.002672 -0.001805
v 0.043391 0.000414 -0.001255
v 0.044070 0.002660 -0.001634
v 0.043918 0.002672 -0.001805
v 0.043899 0.000414 -0.001031
v 0.044999 0.001339 -0.003334
v 0.044899 0.000492 -0.003434
v 0.043952 0.001339 -0.003282
v 0.044064 0.002194 -0.003192
v 0.043812 0.000492 -0.003335
v 0.045045 0.002189 -0.003254
v 0.045001 0.000492 -0.003420
v 0.044872 0.000412 -0.003508
v 0.044890 0.002885 -0.003173
v 0.045126 0.002155 -0.003243
v 0.045103 0.001339 -0.003323
v 0.043761 0.000412 -0.003393
v 0.044113 0.002823 -0.003137
v 0.044974 0.000412 -0.003493
v 0.044170 0.003583 -0.003081
v 0.044723 0.003641 -0.003067
v 0.044155 0.003660 -0.002987
v 0.044720 0.003715 -0.002963
v 0.044468 0.002200 -0.001737
v 0.044699 0.002190 -0.001776
v 0.044420 0.002726 -0.001797
v 0.044341 0.002680 -0.001787
v 0.044602 0.002813 -0.001821
v 0.044366 0.002846 -0.001819
v 0.044364 0.002198 -0.001728
v 0.044785 0.002319 -0.001926
v 0.044254 0.002767 -0.001848
v 0.044379 0.001339 -0.001649
v 0.044487 0.001339 -0.001630
v 0.044703 0.002867 -0.001951
v 0.044547 0.003511 -0.001861
v 0.044755 0.001339 -0.001620
v 0.044117 0.003495 -0.002148
v 0.044806 0.002155 -0.001822
v 0.044806 0.002155 -0.001822
v 0.044663 0.003527 -0.001966
v 0.044100 0.002851 -0.002125
v 0.044891 0.002247 -0.001965
v 0.044848 0.001339 -0.001638
v 0.044254 0.002767 -0.001848
v 0.044574 0.003604 -0.001976
v 0.044065 0.002758 -0.002101
v 0.044172 0.003596 -0.002254
v 0.045073 0.002320 -0.003160
v 0.044936 0.002894 -0.003087
v 0.044981 0.002411 -0.002551
v 0.044890 0.002885 -0.003173
v 0.044874 0.002878 -0.002533
v 0.045045 0.002189 -0.003254
v 0.044703 0.002867 -0.001951
v 0.044812 0.003640 -0.002978
v 0.045134 0.002246 -0.003137
v 0.044723 0.003641 -0.003067
v 0.044785 0.002319 -0.001926
v 0.045126 0.002155 -0.003243
v 0.044891 0.002247 -0.001965
v 0.044663 0.003527 -0.001966
v 0.044772 0.003587 -0.002492
v 0.044720 0.003715 -0.002963
v 0.045026 0.002317 -0.002555
v 0.044679 0.003664 -0.002485
v 0.044679 0.003664 -0.002485
v 0.044574 0.003604 -0.001976
v 0.045134 0.002246 -0.003137
v 0.045134 0.002246 -0.003137
v 0.045237 0.002205 -0.003074
v 0.045252 0.002128 -0.003190
v 0.045078 0.002250 -0.002559
v 0.045365 0.002292 -0.003194
v 0.045126 0.002155 -0.003243
v 0.045016 0.002208 -0.002021
v 0.045129 0.002314 -0.002583
v 0.045430 0.002235 -0.003348
v 0.044891 0.002247 -0.001965
v 0.045121 0.002294 -0.001934
v 0.045432 0.002377 -0.003236
v 0.045553 0.002281 -0.003364
v 0.045172 0.002410 -0.002599
v 0.045172 0.002380 -0.001900
v 0.048611 0.002296 -0.000477
v 0.048475 0.003102 -0.000602
v 0.047840 0.002296 -0.000654
v 0.048696 0.001563 -0.000343
v 0.047860 0.003104 -0.000777
v 0.047822 0.001317 -0.000561
v 0.048614 0.003102 -0.000656
v 0.048388 0.003721 -0.000685
v 0.046069 0.002296 -0.001088
v 0.048590 0.001458 -0.000275
v 0.048388 0.003721 -0.000685
v 0.047853 0.003683 -0.000852
v 0.047739 0.001237 -0.000574
v 0.048533 0.003765 -0.000726
v 0.048746 0.002296 -0.000533
v 0.046150 0.003562 -0.001241
v 0.047895 0.001245 -0.000450
v 0.045858 0.001338 -0.001006
v 0.048406 0.003859 -0.000760
v 0.046101 0.003106 -0.001182
v 0.047497 0.000491 -0.000496
v 0.047849 0.003799 -0.000939
v 0.048533 0.003765 -0.000726
v 0.045742 0.000492 -0.000875
v 0.047849 0.003799 -0.000939
v 0.047795 0.001151 -0.000463
v 0.045975 0.002296 -0.001203
v 0.046139 0.003682 -0.001319
v 0.047580 0.000480 -0.000394
v 0.046009 0.003107 -0.001297
v 0.045763 0.001338 -0.001120
v 0.047789 0.001078 -0.000239
v 0.046060 0.003581 -0.001350
v 0.045643 0.000492 -0.000995
v 0.047582 0.000478 -0.000086
v 0.047885 0.001173 -0.000233
v 0.047463 0.000413 -0.000430
v 0.047895 0.001245 -0.000450
v 0.047550 0.000413 -0.000325
v 0.048508 0.001374 -0.000134
v 0.045593 0.000412 -0.000920
v 0.047554 0.000412 -0.000004
v 0.047869 0.001084 -0.000142
v 0.048590 0.001458 -0.000275
v 0.047670 0.000478 0.000006
v 0.048481 0.001282 -0.000050
v 0.045693 0.000413 -0.000794
v 0.048622 0.000492 0.000127
v 0.048508 0.001374 -0.000134
v 0.047643 0.000412 0.000091
v 0.048603 0.001307 -0.000107
v 0.048651 0.000412 0.000216
v 0.048754 0.000496 0.000073
v 0.048786 0.000412 0.000159
v 0.048729 0.001406 -0.000317
v 0.048905 0.000501 -0.000189
v 0.049037 0.000511 -0.000240
v 0.048754 0.000496 0.000073
v 0.048848 0.001486 -0.000379
v 0.048942 0.000413 -0.000111
v 0.048590 0.001458 -0.000275
v 0.048508 0.001374 -0.000134
v 0.048786 0.000412 0.000159
v 0.049079 0.000413 -0.000163
v 0.045512 0.003107 -0.003215
v 0.045432 0.002377 -0.003236
v 0.045269 0.003107 -0.002603
v 0.045577 0.003907 -0.003159
v 0.045172 0.002410 -0.002599
v 0.045342 0.003907 -0.002585
v 0.045631 0.003107 -0.003311
v 0.045297 0.003107 -0.001901
v 0.045384 0.004721 -0.002572
v 0.045553 0.002281 -0.003364
v 0.045172 0.002380 -0.001900
v 0.045616 0.004828 -0.003133
v 0.045377 0.003907 -0.001942
v 0.045694 0.003907 -0.003240
v 0.045425 0.005420 -0.002563
v 0.045429 0.004620 -0.001997
v 0.045365 0.002292 -0.003194
v 0.045639 0.005671 -0.003076
v 0.045129 0.002314 -0.002583
v 0.045733 0.004845 -0.003207
v 0.045444 0.005282 -0.002055
v 0.045758 0.005688 -0.003144
v 0.045513 0.005530 -0.002531
v 0.045531 0.005362 -0.002029
v 0.045872 0.003107 -0.001692
v 0.045384 0.003107 -0.001798
v 0.045839 0.002296 -0.001618
v 0.045929 0.003807 -0.001721
v 0.045213 0.002282 -0.001787
v 0.045465 0.003907 -0.001839
v 0.045968 0.003107 -0.001589
v 0.045631 0.001338 -0.001567
v 0.045377 0.003907 -0.001942
v 0.046025 0.003695 -0.001625
v 0.045189 0.001338 -0.001692
v 0.045935 0.002296 -0.001509
v 0.046005 0.003887 -0.001706
v 0.045504 0.000492 -0.001429
v 0.045172 0.002380 -0.001900
v 0.046106 0.003800 -0.001609
v 0.045729 0.001338 -0.001461
v 0.045151 0.000491 -0.001545
v 0.045297 0.003107 -0.001901
v 0.045520 0.004606 -0.001899
v 0.045610 0.000492 -0.001332
v 0.045056 0.000491 -0.001590
v 0.046118 0.004498 -0.001789
v 0.045467 0.000412 -0.001348
v 0.045048 0.000412 -0.001467
v 0.045089 0.001338 -0.001728
v 0.046136 0.005215 -0.001856
v 0.045144 0.000412 -0.001420
v 0.045574 0.000412 -0.001249
v 0.045530 0.005254 -0.001958
v 0.047880 0.004054 -0.001376
v 0.046154 0.005324 -0.001924
v 0.045429 0.004620 -0.001997
v 0.047979 0.004497 -0.001486
v 0.046106 0.003800 -0.001609
v 0.047793 0.005286 -0.001735
v 0.047838 0.005176 -0.001648
v 0.045531 0.005362 -0.002029
v 0.045444 0.005282 -0.002055
v 0.048917 0.005110 -0.001435
v 0.048942 0.005221 -0.001510
v 0.048890 0.004497 -0.001340
v 0.049175 0.005088 -0.001378
v 0.048784 0.004176 -0.001204
v 0.049221 0.005192 -0.001446
v 0.049214 0.004497 -0.001296
v 0.049309 0.005097 -0.001425
v 0.048662 0.004077 -0.001158
v 0.048866 0.004095 -0.001199
v 0.049350 0.004497 -0.001353
v 0.047883 0.003956 -0.001290
v 0.049257 0.003905 -0.001234
v 0.049392 0.003904 -0.001307
v 0.049065 0.003102 -0.001156
v 0.049375 0.003102 -0.001156
v 0.048792 0.003997 -0.001144
v 0.047849 0.003799 -0.000939
v 0.048406 0.003859 -0.000760
v 0.049509 0.003102 -0.001232
v 0.048926 0.003102 -0.001085
v 0.046139 0.003682 -0.001319
v 0.049510 0.002296 -0.001042
v 0.048662 0.004077 -0.001158
v 0.049236 0.002296 -0.001036
v 0.046106 0.003800 -0.001609
v 0.048533 0.003765 -0.000726
v 0.046025 0.003695 -0.001625
v 0.049640 0.002296 -0.001120
v 0.049383 0.001486 -0.000929
v 0.048792 0.003997 -0.001144
v 0.046060 0.003581 -0.001350
v 0.049250 0.001486 -0.000853
v 0.048784 0.004176 -0.001204
v 0.049627 0.001486 -0.000941
v 0.049101 0.002296 -0.000961
v 0.048866 0.004095 -0.001199
v 0.049608 0.000511 -0.000809
v 0.049472 0.000511 -0.000737
v 0.049814 0.000511 -0.000826
v 0.049250 0.001486 -0.000853
v 0.049759 0.001486 -0.001018
v 0.049527 0.000413 -0.000687
v 0.049037 0.000511 -0.000240
v 0.049949 0.000511 -0.000900
v 0.049666 0.000413 -0.000763
v 0.048848 0.001486 -0.000379
v 0.049079 0.000413 -0.000163
v 0.049880 0.000413 -0.000781
v 0.048746 0.002296 -0.000533
v 0.050018 0.000413 -0.000858
v 0.048696 0.001563 -0.000343
v 0.049101 0.002296 -0.000961
v 0.048611 0.002296 -0.000477
v 0.048614 0.003102 -0.000656
v 0.048926 0.003102 -0.001085
v 0.048533 0.003765 -0.000726
v 0.048792 0.003997 -0.001144
v 0.049236 0.002296 -0.001036
v 0.043995 0.002847 -0.002280
v 0.044020 0.003495 -0.002299
v 0.043881 0.002838 -0.002463
v 0.043874 0.002772 -0.002341
v 0.043979 0.003514 -0.002506
v 0.043972 0.002764 -0.002234
v 0.043888 0.002733 -0.002558
v 0.044093 0.003597 -0.002356
v 0.044117 0.003495 -0.002148
v 0.044100 0.002851 -0.002125
v 0.044063 0.003566 -0.003003
v 0.044071 0.003606 -0.002501
v 0.044065 0.002758 -0.002101
v 0.044007 0.002788 -0.003048
v 0.044172 0.003596 -0.002254
v 0.044071 0.003606 -0.002501
v 0.044117 0.003495 -0.002148
v 0.044113 0.002823 -0.003137
v 0.044155 0.003660 -0.002987
v 0.044170 0.003583 -0.003081
v 0.045203 0.001338 -0.003271
v 0.045331 0.001338 -0.003431
v 0.045085 0.000491 -0.003395
v 0.045252 0.002128 -0.003190
v 0.045195 0.000491 -0.003527
v 0.045430 0.002235 -0.003348
v 0.045103 0.001339 -0.003323
v 0.045290 0.000491 -0.003556
v 0.045429 0.001338 -0.003461
v 0.045001 0.000492 -0.003420
v 0.045126 0.002155 -0.003243
v 0.045553 0.002281 -0.003364
v 0.045064 0.000412 -0.003470
v 0.045263 0.000412 -0.003637
v 0.044974 0.000412 -0.003493
v 0.045167 0.000412 -0.003605
v 0.044956 0.001338 -0.001800
v 0.044967 0.000491 -0.001672
v 0.045089 0.001338 -0.001728
v 0.044994 0.002128 -0.001913
v 0.045056 0.000491 -0.001590
v 0.044806 0.002155 -0.001822
v 0.045138 0.002230 -0.001818
v 0.044848 0.001339 -0.001638
v 0.044965 0.000412 -0.001554
v 0.045189 0.001338 -0.001692
v 0.044918 0.000492 -0.001489
v 0.044994 0.002128 -0.001913
v 0.044891 0.002247 -0.001965
v 0.045213 0.002282 -0.001787
v 0.045048 0.000412 -0.001467
v 0.045016 0.002208 -0.002021
v 0.044918 0.000412 -0.001406
v 0.045121 0.002294 -0.001934
v 0.045138 0.002230 -0.001818
v 0.045213 0.002282 -0.001787
v 0.044379 0.001339 -0.001649
v 0.044101 0.001339 -0.001344
v 0.044436 0.000492 -0.001429
v 0.044127 0.002197 -0.001505
v 0.044057 0.000493 -0.001137
v 0.044364 0.002198 -0.001728
v 0.044444 0.000413 -0.001347
v 0.043994 0.002196 -0.001524
v 0.044152 0.002570 -0.001561
v 0.043960 0.001339 -0.001357
v 0.044057 0.000414 -0.001040
v 0.044341 0.002680 -0.001787
v 0.043903 0.000493 -0.001132
v 0.043899 0.000414 -0.001031
v 0.044070 0.002660 -0.001634
v 0.044254 0.002767 -0.001848
v 0.049309 0.005097 -0.001425
v 0.049350 0.004497 -0.001353
v 0.049443 0.005302 -0.001749
v 0.049472 0.005388 -0.002087
v 0.049486 0.005326 -0.002198
v 0.043527 0.001338 -0.002148
v 0.043664 0.002192 -0.002147
v 0.043692 0.001338 -0.002512
v 0.043456 0.000492 -0.002549
v 0.043826 0.002192 -0.002493
v 0.043273 0.000492 -0.002133
v 0.043721 0.002584 -0.002149
v 0.043381 0.000412 -0.002568
v 0.043191 0.000412 -0.002125
v 0.043864 0.002696 -0.002469
v 0.043874 0.002772 -0.002341
v 0.043767 0.002673 -0.002063
v 0.045975 0.002296 -0.001203
v 0.046009 0.003107 -0.001297
v 0.045935 0.002296 -0.001509
v 0.045729 0.001338 -0.001461
v 0.045968 0.003107 -0.001589
v 0.045763 0.001338 -0.001120
v 0.045839 0.002296 -0.001618
v 0.046060 0.003581 -0.001350
v 0.046025 0.003695 -0.001625
v 0.045610 0.000492 -0.001332
v 0.045631 0.001338 -0.001567
v 0.045643 0.000492 -0.000995
v 0.045574 0.000412 -0.001249
v 0.045593 0.000412 -0.000920
v 0.044720 0.003715 -0.002963
v 0.044155 0.003660 -0.002987
v 0.044679 0.003664 -0.002485
v 0.044071 0.003606 -0.002501
v 0.044093 0.003597 -0.002356
v 0.044172 0.003596 -0.002254
v 0.044574 0.003604 -0.001976
v 0.044070 0.002660 -0.001634
v 0.044254 0.002767 -0.001848
v 0.043918 0.002672 -0.001805
v 0.044065 0.002758 -0.002101
v 0.044065 0.002758 -0.002101
v 0.043767 0.002673 -0.002063
v 0.043972 0.002764 -0.002234
v 0.043874 0.002772 -0.002341
v 0.044379 0.001339 -0.001649
v 0.044436 0.000492 -0.001429
v 0.044487 0.001339 -0.001630
v 0.044558 0.000492 -0.001491
v 0.044755 0.001339 -0.001620
v 0.044557 0.000412 -0.001343
v 0.044833 0.000492 -0.001500
v 0.044444 0.000413 -0.001347
v 0.044848 0.001339 -0.001638
v 0.044823 0.000412 -0.001361
v 0.044918 0.000492 -0.001489
v 0.044918 0.000412 -0.001406
v 0.047895 0.001245 -0.000450
v 0.047822 0.001317 -0.000561
v 0.048729 0.001406 -0.000317
v 0.048848 0.001486 -0.000379
v 0.042841 0.000311 -0.002603
v 0.042632 0.000037 -0.002656
v 0.042735 0.000312 -0.002252
v 0.042986 0.000037 -0.003172
v 0.042511 0.000037 -0.002260
v 0.043177 0.000313 -0.003056
v 0.042751 0.000315 -0.001646
v 0.043597 0.000315 -0.003600
v 0.042874 0.000379 -0.002226
v 0.042516 0.000037 -0.001576
v 0.043438 0.000037 -0.003792
v 0.042864 0.000379 -0.001855
v 0.042969 0.000379 -0.002551
v 0.042675 0.000037 -0.001233
v 0.043587 0.000379 -0.003406
v 0.042874 0.000379 -0.002226
v 0.043126 0.000379 -0.002712
v 0.042901 0.000315 -0.001347
v 0.043126 0.000379 -0.002712
v 0.042982 0.000379 -0.001467
v 0.042864 0.000379 -0.001855
v 0.051206 0.000037 -0.001424
v 0.050983 0.000313 -0.001420
v 0.050817 0.000037 -0.000376
v 0.050790 0.000317 -0.002299
v 0.050627 0.000312 -0.000488
v 0.051017 0.000037 -0.002427
v 0.049850 0.000325 0.000260
v 0.050700 0.000379 -0.002165
v 0.049981 0.000046 0.000479
v 0.050840 0.000379 -0.001426
v 0.050840 0.000379 -0.001426
v 0.049874 0.000387 0.000065
v 0.050508 0.000381 -0.000563
v 0.050508 0.000381 -0.000563
v 0.044905 0.000308 -0.000730
v 0.044089 0.000308 -0.000731
v 0.044790 0.000037 -0.000566
v 0.045999 0.000037 -0.000093
v 0.043937 0.000037 -0.000557
v 0.046065 0.000311 -0.000293
v 0.043459 0.000314 -0.000843
v 0.044949 0.000379 -0.000856
v 0.043265 0.000037 -0.000673
v 0.044145 0.000379 -0.000860
v 0.046116 0.000379 -0.000420
v 0.042901 0.000315 -0.001347
v 0.043524 0.000379 -0.000969
v 0.042675 0.000037 -0.001233
v 0.043524 0.000379 -0.000969
v 0.042982 0.000379 -0.001467
v 0.045507 0.000318 -0.004113
v 0.045513 0.000037 -0.004388
v 0.044736 0.000319 -0.004079
v 0.047707 0.000320 -0.003943
v 0.044654 0.000037 -0.004350
v 0.047784 0.000037 -0.004237
v 0.045491 0.000379 -0.003968
v 0.044137 0.000317 -0.003862
v 0.044736 0.000379 -0.003931
v 0.044016 0.000037 -0.004097
v 0.044736 0.000379 -0.003931
v 0.043597 0.000315 -0.003600
v 0.044141 0.000379 -0.003708
v 0.043438 0.000037 -0.003792
v 0.044141 0.000379 -0.003708
v 0.043587 0.000379 -0.003406
v 0.049595 0.000321 -0.003391
v 0.050081 0.000320 -0.003098
v 0.049763 0.000037 -0.003646
v 0.049210 0.000037 -0.003907
v 0.050274 0.000037 -0.003321
v 0.049067 0.000321 -0.003631
v 0.050790 0.000317 -0.002299
v 0.048597 0.000037 -0.004093
v 0.049543 0.000379 -0.003252
v 0.051017 0.000037 -0.002427
v 0.048481 0.000321 -0.003805
v 0.050020 0.000378 -0.002955
v 0.050020 0.000378 -0.002955
v 0.050700 0.000379 -0.002165
v 0.047784 0.000037 -0.004237
v 0.049026 0.000379 -0.003488
v 0.047707 0.000320 -0.003943
v 0.048432 0.000379 -0.003664
v 0.048803 0.000320 0.000651
v 0.048877 0.000037 0.000942
v 0.049308 0.000276 0.000498
v 0.048573 0.000037 0.000971
v 0.049398 -0.000009 0.000775
v 0.048517 0.000318 0.000678
v 0.049981 0.000046 0.000479
v 0.047191 0.000037 0.000628
v 0.048806 0.000379 0.000500
v 0.049850 0.000325 0.000260
v 0.047209 0.000316 0.000364
v 0.049311 0.000337 0.000341
v 0.048516 0.000379 0.000530
v 0.049311 0.000337 0.000341
v 0.045999 0.000037 -0.000093
v 0.048806 0.000379 0.000500
v 0.049874 0.000387 0.000065
v 0.046065 0.000311 -0.000293
v 0.047238 0.000379 0.000222
v 0.046116 0.000379 -0.000420
v 0.044949 0.000379 -0.000856
v 0.046116 0.000379 -0.000420
v 0.045491 0.000379 -0.003968
v 0.044736 0.000379 -0.003931
v 0.047654 0.000379 -0.003800
v 0.044145 0.000379 -0.000860
v 0.045507 0.000318 -0.004113
v 0.048432 0.000379 -0.003664
v 0.044141 0.000379 -0.003708
v 0.047707 0.000320 -0.003943
v 0.047238 0.000379 0.000222
v 0.043524 0.000379 -0.000969
v 0.048481 0.000321 -0.003805
v 0.049026 0.000379 -0.003488
v 0.043587 0.000379 -0.003406
v 0.048516 0.000379 0.000530
v 0.042982 0.000379 -0.001467
v 0.049543 0.000379 -0.003252
v 0.047209 0.000316 0.000364
v 0.043126 0.000379 -0.002712
v 0.049595 0.000321 -0.003391
v 0.049067 0.000321 -0.003631
v 0.048517 0.000318 0.000678
v 0.042864 0.000379 -0.001855
v 0.048806 0.000379 0.000500
v 0.042874 0.000379 -0.002226
v 0.042969 0.000379 -0.002551
v 0.049311 0.000337 0.000341
v 0.050020 0.000378 -0.002955
v 0.050700 0.000379 -0.002165
v 0.049874 0.000387 0.000065
v 0.050508 0.000381 -0.000563
v 0.050840 0.000379 -0.001426
vn 0.0264 0.9514 0.3068
vn 0.0618 0.9767 0.2055
vn -0.0075 0.9526 0.3041
vn 0.0153 0.9776 0.2097
vn -0.0056 0.9552 0.2961
vn -0.0144 0.9740 0.2262
vn -0.0233 0.9603 0.2781
vn -0.0232 0.9603 0.2781
vn 0.4457 0.0428 -0.8942
vn -0.9262 0.0426 -0.3746
vn -0.0056 0.9551 0.2961
vn 0.4457 0.0427 -0.8941
vn -0.9973 0.0373 0.0638
vn 0.3121 0.0578 -0.9483
vn 0.1012 0.0570 -0.9932
vn 0.2387 0.0531 -0.9696
vn 0.0265 0.9514 0.3068
vn 0.7836 0.1371 0.6060
vn 0.8263 0.2223 0.5176
vn 0.8121 0.2600 0.5224
vn 0.9661 0.2517 0.0566
vn 0.8123 0.2601 0.5220
vn 0.9505 0.2908 0.1091
vn 0.8262 0.2223 0.5176
vn -0.0924 0.9926 0.0785
vn 0.4062 0.1342 -0.9039
vn 0.9661 0.2517 0.0567
vn -0.0923 0.9926 0.0786
vn 0.4096 0.1019 -0.9066
vn 0.0900 0.1563 0.9836
vn -0.0924 0.9926 0.0786
vn 0.8292 0.1705 0.5323
vn 0.0900 0.1562 0.9836
vn 0.9941 0.1086 0.0075
vn 0.3206 0.0775 -0.9440
vn 0.4096 0.1019 -0.9065
vn 0.4062 0.1343 -0.9038
vn 0.8186 0.1088 0.5639
vn 0.4096 0.1018 -0.9066
vn 0.4063 0.1343 -0.9038
vn 0.2731 0.1390 -0.9519
vn 0.9981 0.0622 -0.0047
vn 0.8186 0.1088 0.5640
vn 0.3206 0.0775 -0.9441
vn 0.8080 0.0657 0.5854
vn 0.9981 0.0621 -0.0046
vn 0.4280 0.0669 -0.9013
vn 0.7836 0.1372 0.6060
vn 0.0024 0.1464 -0.9892
vn 0.9967 0.0756 0.0306
vn 0.0025 0.1464 -0.9892
vn 0.4166 0.0611 -0.9071
vn 0.4166 0.0611 -0.9070
vn 0.0652 0.1056 -0.9923
vn 0.3104 0.0738 -0.9477
vn 0.0976 0.0618 -0.9933
vn 0.2412 0.0725 -0.9678
vn 0.9662 0.2517 0.0567
vn 0.3036 0.0470 -0.9516
vn 0.1062 0.0626 -0.9924
vn 0.2451 0.0582 -0.9677
vn 0.4457 0.0427 -0.8942
vn 0.2451 0.0582 -0.9678
vn 0.2388 0.0531 -0.9696
vn -0.9662 0.1250 -0.2256
vn -0.9302 0.2339 -0.2827
vn -0.9662 0.1249 -0.2255
vn -0.9662 0.1250 -0.2255
vn -0.9303 0.2339 -0.2827
vn -0.0944 0.0991 -0.9906
vn -0.8800 0.2664 -0.3933
vn -0.0791 0.1036 -0.9915
vn -0.9110 0.1062 -0.3984
vn -0.9671 0.0004 -0.2545
vn -0.8799 0.2664 -0.3933
vn -0.9111 0.1062 -0.3984
vn -0.0646 0.1496 -0.9866
vn -0.9705 0.1264 -0.2055
vn -0.3262 0.9262 0.1889
vn -0.8983 0.1510 0.4126
vn -0.8960 0.3060 0.3217
vn -0.4804 0.2851 0.8294
vn -0.6671 0.1524 0.7292
vn -0.4803 0.2852 0.8294
vn -0.7029 0.2727 0.6569
vn -0.8564 0.2095 0.4720
vn -0.6670 0.1524 0.7293
vn -0.7028 0.2727 0.6570
vn 0.7289 0.1112 0.6755
vn -0.3261 0.9263 0.1889
vn 0.7289 0.1114 0.6755
vn -0.3056 0.9317 0.1961
vn -0.2363 0.9422 0.2374
vn -0.0944 0.0992 -0.9906
vn -0.0792 0.1036 -0.9915
vn -0.0945 0.0992 -0.9906
vn 0.2973 0.0832 -0.9511
vn 0.3875 0.0794 -0.9184
vn -0.0180 0.1066 -0.9941
vn -0.0179 0.1066 -0.9941
vn -0.0985 0.9907 0.0939
vn -0.0984 0.9907 0.0939
vn 0.1392 0.1052 0.9847
vn 0.0217 0.0778 0.9967
vn 0.7289 0.1113 0.6755
vn 0.0217 0.0777 0.9967
vn 0.9341 0.1839 0.3061
vn 0.7317 0.0789 0.6771
vn 0.0662 0.1688 0.9834
vn 0.9341 0.1840 0.3061
vn 0.0663 0.1688 0.9834
vn -0.5288 0.0180 0.8486
vn 0.5535 0.1527 0.8188
vn 0.5534 0.1526 0.8188
vn 0.9632 0.1031 0.2482
vn -0.5287 0.0180 0.8486
vn 0.5463 0.8188 0.1764
vn 0.7556 0.1073 0.6462
vn -0.0970 0.9906 0.0961
vn 0.9752 0.2208 -0.0169
vn 0.9962 0.0852 -0.0164
vn 0.9938 0.1054 0.0361
vn 0.5773 0.8159 -0.0324
vn -0.0180 0.1065 -0.9941
vn 0.3876 0.0794 -0.9184
vn 0.5464 0.8187 0.1765
vn 0.9632 0.1031 0.2483
vn 0.9632 0.1032 0.2482
vn 0.5463 0.8188 0.1765
vn -0.0970 0.9906 0.0962
vn 0.5774 0.8159 -0.0324
vn 0.5773 0.8159 -0.0325
vn 0.5463 0.8187 0.1765
vn -0.6877 0.7020 -0.1853
vn -0.6968 0.7172 -0.0040
vn -0.6580 0.0798 -0.7488
vn -0.6968 0.7173 -0.0040
vn -0.9252 0.2016 -0.3214
vn -0.9815 0.1899 0.0240
vn -0.2451 0.1190 0.9622
vn -0.2867 0.0781 0.9548
vn -0.2674 0.1182 0.9563
vn -0.2493 0.1140 0.9617
vn 0.7693 0.1422 0.6229
vn -0.2868 0.0781 0.9548
vn -0.2675 0.1182 0.9563
vn -0.2299 0.9118 0.3403
vn 0.7113 0.3022 0.6346
vn -0.2675 0.1183 0.9563
vn -0.1659 0.9107 0.3783
vn -0.2494 0.1140 0.9617
vn -0.2458 0.1593 0.9561
vn -0.1708 0.9043 0.3912
vn -0.2458 0.1592 0.9561
vn -0.9715 0.2359 0.0249
vn -0.9883 0.1041 0.1119
vn -0.9714 0.2359 0.0249
vn -0.9822 0.1150 0.1486
vn -0.9849 0.1430 0.0979
vn -0.9849 0.1429 0.0979
vn -0.2299 0.9118 0.3402
vn -0.1492 0.2022 0.9679
vn -0.1491 0.2021 0.9679
vn -0.2298 0.9118 0.3403
vn 0.8207 0.2147 0.5295
vn -0.0923 0.9926 0.0785
vn 0.8207 0.2148 0.5295
vn 0.7405 0.2093 0.6387
vn 0.7113 0.3023 0.6346
vn -0.9267 0.0745 -0.3684
vn -0.9252 0.2016 -0.3215
vn -0.9962 0.0736 0.0471
vn -0.9246 0.0621 -0.3757
vn -0.9815 0.1899 0.0239
vn -0.9958 0.0656 0.0639
vn -0.9973 0.0374 0.0638
vn -0.9815 0.1898 0.0240
vn -0.9246 0.0621 -0.3758
vn -0.9958 0.0656 0.0640
vn 0.1063 0.0626 -0.9924
vn -0.9973 0.0374 0.0639
vn -0.9262 0.0427 -0.3746
vn -0.6968 0.7172 -0.0039
vn -0.0232 0.9603 0.2780
vn -0.2259 0.0639 0.9721
vn -0.2258 0.0639 0.9721
vn -0.2629 0.1028 0.9593
vn -0.2035 0.1354 0.9697
vn -0.2630 0.1028 0.9593
vn -0.9883 0.1041 0.1118
vn -0.2661 0.1725 0.9484
vn -0.1707 0.9044 0.3911
vn -0.5683 0.1259 0.8132
vn -0.5047 0.1387 0.8521
vn -0.1072 0.1447 0.9837
vn -0.1623 0.0971 0.9820
vn -0.1598 0.2178 0.9628
vn -0.0056 0.9552 0.2960
vn -0.1072 0.1446 0.9837
vn -0.0075 0.9526 0.3040
vn -0.1608 0.2149 0.9633
vn 0.0350 0.1865 0.9818
vn 0.0350 0.1866 0.9818
vn 0.8080 0.0657 0.5855
vn 0.0944 0.0682 0.9932
vn 0.0945 0.0682 0.9932
vn 0.7692 0.1422 0.6229
vn 0.7693 0.1421 0.6229
vn -0.9822 0.1150 0.1487
vn 0.0901 0.1563 0.9836
vn 0.7112 0.3022 0.6347
vn 0.1122 0.1386 0.9840
vn 0.8120 0.2600 0.5225
vn -0.2452 0.1190 0.9621
vn -0.9712 0.1390 0.1935
vn -0.3261 0.9262 0.1890
vn -0.9705 0.1264 -0.2056
vn -0.3261 0.9263 0.1890
vn -0.0969 0.9906 0.0961
vn -0.9704 0.1264 -0.2056
vn -0.0646 0.1497 -0.9866
vn -0.0179 0.1065 -0.9942
vn -0.6579 0.0798 -0.7488
vn 0.2974 0.0831 -0.9511
vn -0.7035 0.1625 -0.6919
vn 0.2974 0.0832 -0.9511
vn 0.0651 0.1056 -0.9923
vn 0.7556 0.1072 0.6462
vn -0.5047 0.1386 0.8521
vn 0.5535 0.1526 0.8188
vn 0.5464 0.8188 0.1765
vn 0.7317 0.0790 0.6771
vn 0.7257 0.1242 0.6767
vn 0.7258 0.1241 0.6767
vn -0.6671 0.1524 0.7293
vn -0.2363 0.9423 0.2373
vn 0.0617 0.9767 0.2055
vn -0.9849 0.1430 0.0980
vn -0.9822 0.1151 0.1487
vn -0.0984 0.9907 0.0938
vn 0.0663 0.1689 0.9834
vn 0.7555 0.1072 0.6463
vn -0.6467 0.6095 -0.4586
vn -0.7695 0.6386 0.0114
vn -0.7695 0.6385 0.0114
vn -0.6740 0.6641 0.3236
vn -0.6140 0.6420 -0.4591
vn -0.0000 1.0000 -0.0000
vn -0.6741 0.6640 0.3236
vn -0.6141 0.6420 -0.4591
vn -0.5082 0.6636 0.5489
vn -0.5082 0.6637 0.5489
vn 0.7488 0.6453 -0.1509
vn 0.7503 0.6436 -0.1512
vn 0.5461 0.6394 0.5412
vn 0.5460 0.6395 0.5412
vn 0.2566 0.6929 0.6739
vn 0.0088 1.0000 0.0003
vn 0.2566 0.6928 0.6739
vn 0.0089 1.0000 0.0003
vn 0.0088 1.0000 0.0002
vn -0.2887 0.5949 0.7502
vn -0.1373 0.5859 0.7987
vn -0.2887 0.5948 0.7502
vn -0.1373 0.5859 0.7986
vn -0.1374 0.5859 0.7986
vn 0.0499 0.7126 -0.6997
vn 0.0499 0.7126 -0.6998
vn -0.2560 0.6957 -0.6711
vn 0.1192 0.7303 -0.6726
vn -0.2560 0.6957 -0.6712
vn -0.3358 0.6721 -0.6600
vn -0.3358 0.6720 -0.6600
vn -0.6140 0.6420 -0.4592
vn 0.2868 0.7327 -0.6172
vn 0.5454 0.6969 -0.4657
vn 0.1947 0.7348 -0.6498
vn 0.5455 0.6968 -0.4657
vn 0.1948 0.7343 -0.6502
vn 0.7503 0.6436 -0.1513
vn -0.0395 0.9992 -0.0050
vn 0.0089 1.0000 0.0002
vn 0.1194 0.7302 -0.6727
vn 0.1193 0.7302 -0.6727
vn -0.0000 1.0000 -0.0001
vn 0.0626 0.7241 0.6868
vn 0.0626 0.7241 0.6869
vn -0.1729 0.6885 0.7043
vn -0.1729 0.6885 0.7044
vn 0.2565 0.6929 0.6738
vn -0.0396 0.9992 -0.0050
vn -0.0000 1.0000 0.0001
vn 0.1192 0.7304 -0.6726
vt 0.310007 0.983010
vt 0.102788 0.985600
vt 0.312648 0.750916
vt 0.072360 0.752543
vt 0.314191 0.441917
vt 0.066005 0.441249
vt 0.093342 0.298409
vt 0.314115 0.292994
vt 0.525380 0.302320
vt 0.107129 0.985545
vt 0.052384 0.986230
vt 0.093262 0.280815
vt 0.533049 0.441938
vt 0.054411 0.986204
vt 0.314106 0.275909
vt 0.512762 0.750097
vt 0.027407 0.753454
vt 0.052849 0.302858
vt 0.479180 0.980895
vt 0.026363 0.441463
vt 0.487882 0.980786
vt 0.313575 0.982965
vt 0.496775 0.980675
vt 0.319471 0.982891
vt 0.315424 1.000000
vt 0.048343 1.000000
vt 0.568618 1.000000
vt 0.051780 1.000000
vt 0.575686 1.000000
vt 0.567608 1.000000
vt 0.020435 1.000000
vt 0.061592 1.000000
vt 0.572248 1.000000
vt 0.008613 1.000000
vt 0.606343 1.000000
vt 0.052271 1.000000
vt 0.021994 1.000000
vt 0.611059 1.000000
vt 0.058737 1.000000
vt 0.000000 1.000000
vt 0.547366 1.000000
vt 0.024730 1.000000
vt 0.015072 1.000000
vt 0.000000 0.750000
vt 0.069930 1.000000
vt 0.543242 1.000000
vt 0.015994 1.000000
vt 0.018528 1.000000
vt 0.067040 0.999941
vt 0.000000 0.437500
vt 0.013376 0.999929
vt 0.306009 0.985651
vt 0.115946 0.988377
vt 0.000000 0.282401
vt 0.024715 1.000000
vt 0.000000 0.282147
vt 0.016364 1.000000
vt 0.000000 0.284176
vt 0.012886 1.000000
vt 0.000000 0.282850
vt 0.020620 1.000000
vt 0.000000 0.293096
vt 0.021638 1.000000
vt 0.020806 1.000000
vt 0.009627 1.000000
vt 0.000000 0.295797
vt 0.023098 1.000000
vt 0.023567 0.989079
vt 0.021099 0.988989
vt 0.000000 0.295823
vt 0.009509 0.751781
vt 0.020765 0.307834
vt 0.012865 0.441193
vt 0.116967 0.000000
vt 0.115914 0.000000
vt 0.277272 0.000000
vt 0.124172 0.000000
vt 0.279750 0.000000
vt 0.095320 0.000000
vt 0.281687 0.000000
vt 0.301235 0.000000
vt 0.092662 0.000000
vt 0.095700 0.000000
vt 0.307657 0.000000
vt 0.115763 0.000000
vt 0.306256 0.000136
vt 0.302824 0.000000
vt 0.280104 0.000000
vt 0.127437 0.000020
vt 0.332033 0.000131
vt 0.098163 0.000000
vt 0.303051 0.000000
vt 0.096985 0.000000
vt 0.334129 0.000154
vt 0.335901 0.000152
vt 0.436867 0.000000
vt 0.438753 0.000000
vt 0.630847 0.000000
vt 0.445509 0.000002
vt 0.405901 0.000002
vt 0.411371 0.000000
vt 0.630847 0.067193
vt 0.622569 0.001109
vt 0.403275 0.000000
vt 0.630847 0.059804
vt 0.484722 0.000639
vt 0.401061 0.000000
vt 0.630847 0.047719
vt 0.408939 0.000021
vt 0.412843 0.000000
vt 0.628840 0.035258
vt 0.453166 0.000505
vt 0.439023 0.000000
vt 0.630827 0.067477
vt 0.477035 0.000653
vt 0.630221 0.054790
vt 0.589019 0.001187
vt 0.627347 0.036728
vt 0.620851 0.001339
vt 0.630847 0.068249
vt 0.009789 0.148069
vt 0.010144 0.158674
vt 0.069746 0.019519
vt 0.069150 0.030301
vt 0.068745 0.023374
vt 0.008528 0.214760
vt 0.006764 0.166372
vt 0.010195 0.160189
vt 0.012282 0.213540
vt 0.006384 0.220626
vt 0.006107 0.155979
vt 0.068601 0.023924
vt 0.067606 0.036743
vt 0.006873 0.167825
vt 0.087887 0.044962
vt 0.050805 0.203188
vt 0.092262 0.045001
vt 0.054989 0.204094
vt 0.630847 0.194247
vt 0.630847 0.228176
vt 0.630847 0.156958
vt 0.630847 0.151615
vt 0.630847 0.210948
vt 0.630010 0.145081
vt 0.630847 0.180046
vt 0.630847 0.238502
vt 0.630847 0.136110
vt 0.630847 0.174253
vt 0.630847 0.187308
vt 0.630847 0.232369
vt 0.626047 0.192685
vt 0.630847 0.209566
vt 0.605662 0.038714
vt 0.630847 0.234617
vt 0.630847 0.232914
vt 0.630847 0.224156
vt 0.627775 0.033141
vt 0.630847 0.239111
vt 0.630847 0.216002
vt 0.630847 0.100429
vt 0.626262 0.193131
vt 0.630847 0.038987
vt 0.605400 0.056659
vt 0.054895 0.250000
vt 0.064947 0.250000
vt 0.315424 0.250000
vt 0.027717 0.250000
vt 0.016102 0.250000
vt 0.548542 0.250000
vt 0.127816 0.242596
vt 0.053930 0.250000
vt 0.089774 0.242539
vt 0.552219 0.250000
vt 0.028517 0.250000
vt 0.536814 0.250000
vt 0.547295 0.249165
vt 0.335576 0.246099
vt 0.130810 0.242133
vt 0.347094 0.245771
vt 0.335178 0.245569
vt 0.547979 0.249155
vt 0.067793 0.250000
vt 0.050569 0.250000
vt 0.052653 0.250000
vt 0.011846 0.250000
vt 0.054875 0.250000
vt 0.012916 0.250000
vt 0.576660 0.253001
vt 0.317388 0.250065
vt 0.010703 0.250000
vt 0.571018 0.250945
vt 0.585648 0.256314
vt 0.055721 0.250000
vt 0.023538 0.250000
vt 0.324083 0.250169
vt 0.580398 0.257356
vt 0.630847 0.949349
vt 0.630847 0.944512
vt 0.630847 0.750000
vt 0.630847 0.957381
vt 0.630847 0.971753
vt 0.630847 0.926607
vt 0.630847 0.552015
vt 0.630847 0.934263
vt 0.630847 0.918994
vt 0.630847 0.747783
vt 0.630847 0.734380
vt 0.630847 0.961698
vt 0.630847 0.970779
vt 0.630847 0.566674
vt 0.630847 0.774308
vt 0.630847 0.549556
vt 0.630847 0.927031
vt 0.630847 0.553650
vt 0.630847 0.732497
vt 0.630847 0.747454
vt 0.630847 0.945744
vt 0.630847 0.549505
vt 0.630847 0.745416
vt 0.630847 0.535466
vt 0.630847 0.574602
vt 0.630847 0.536748
vt 0.630847 0.533253
vt 0.630847 0.549831
vt 0.630847 0.534616
vt 0.630847 0.771084
vt 0.630847 0.732228
vt 0.630847 0.939991
vt 0.630847 0.534813
vt 0.630847 0.765347
vt 0.630847 0.939990
vt 0.630847 0.765060
vt 0.630847 0.937682
vt 0.630847 0.549498
vt 0.630847 0.947669
vt 0.630847 0.944527
vt 0.630847 0.765019
vt 0.630847 0.958635
vt 0.630847 0.949096
vt 0.630847 0.961907
vt 0.630847 0.962383
vt 0.630847 0.958629
vt 0.630847 0.963429
vt 0.630847 0.980381
vt 0.630847 0.963430
vt 0.630847 0.972730
vt 0.630847 0.964115
vt 0.630847 0.958231
vt 0.630847 0.980925
vt 0.049978 0.250000
vt 0.058439 0.250000
vt 0.052962 0.250000
vt 0.318468 0.250101
vt 0.016287 0.250000
vt 0.567674 0.250000
vt 0.008822 0.250000
vt 0.589662 0.257603
vt 0.046886 0.250020
vt 0.562868 0.250000
vt 0.017610 0.250000
vt 0.317533 0.263860
vt 0.557377 0.250000
vt 0.092983 0.250014
vt 0.077964 0.263027
vt 0.318697 0.250108
vt 0.009589 0.250023
vt 0.532983 0.264039
vt 0.039057 0.262635
vt 0.324632 0.265241
vt 0.536992 0.265417
vt 0.630847 0.401588
vt 0.630847 0.279346
vt 0.630376 0.412220
vt 0.630847 0.429919
vt 0.627356 0.272483
vt 0.630847 0.286662
vt 0.630847 0.423866
vt 0.630847 0.408134
vt 0.630847 0.263209
vt 0.630847 0.448969
vt 0.630847 0.284742
vt 0.630847 0.432169
vt 0.630847 0.451075
vt 0.630847 0.407018
vt 0.627274 0.259919
vt 0.630847 0.452336
vt 0.630847 0.427411
vt 0.630848 0.295220
vt 0.630847 0.257113
vt 0.630725 0.278880
vt 0.630847 0.427558
vt 0.630847 0.279695
vt 0.630847 0.437500
vt 0.630848 0.406859
vt 0.630848 0.280814
vt 0.630847 0.271868
vt 0.615149 0.441820
vt 0.630848 0.296716
vt 0.630847 0.427579
vt 0.607297 0.302070
vt 0.630847 0.750023
vt 0.613522 0.442994
vt 0.630708 0.256636
vt 0.630847 0.480796
vt 0.614149 0.750669
vt 0.615774 0.750604
vt 0.605502 0.300271
vt 0.607299 0.280207
vt 0.599682 0.982498
vt 0.596197 0.980541
vt 0.630847 1.000000
vt 0.600129 0.982748
vt 0.630847 0.985072
vt 0.596675 0.980809
vt 0.630602 0.999862
vt 0.599060 0.982148
vt 0.630847 0.951050
vt 0.630847 0.986997
vt 0.630538 0.999826
vt 0.630847 0.749609
vt 0.630847 0.996985
vt 0.630847 0.999428
vt 0.630847 0.999844
vt 0.630847 0.986689
vt 0.630847 0.749048
vt 0.630847 0.913754
vt 0.630847 0.999272
vt 0.630847 0.604919
vt 0.623120 0.999765
vt 0.630847 0.922071
vt 0.628682 0.999161
vt 0.630847 0.594226
vt 0.630847 0.943721
vt 0.630847 0.581545
vt 0.621061 1.000000
vt 0.630847 0.943719
vt 0.630847 0.591583
vt 0.630847 0.941337
vt 0.630847 0.998935
vt 0.630847 0.999574
vt 0.630847 0.998362
vt 0.630847 0.999907
vt 0.630847 0.997834
vt 0.630847 0.998437
vt 0.630847 0.991204
vt 0.630847 0.999407
vt 0.630847 0.988560
vt 0.630847 0.991541
vt 0.630847 0.999894
vt 0.630847 0.985707
vt 0.630847 0.987131
vt 0.630847 0.997100
vt 0.630847 0.983881
vt 0.630847 0.983660
vt 0.630847 0.997243
vt 0.630847 0.985110
vt 0.630847 0.991178
vt 0.630847 0.998927
vt 0.590862 0.005007
vt 0.562318 0.006542
vt 0.445216 0.000749
vt 0.525004 0.002544
vt 0.379085 0.004298
vt 0.601528 0.004997
vt 0.411262 0.000237
vt 0.536300 0.006513
vt 0.601466 0.007021
vt 0.626252 0.006064
vt 0.177609 0.007299
vt 0.383538 0.004918
vt 0.629863 0.005974
vt 0.159374 0.000034
vt 0.575263 0.006919
vt 0.360013 0.004962
vt 0.593784 0.006991
vt 0.120682 0.000079
vt 0.174139 0.008335
vt 0.145927 0.008055
vt 0.000000 0.221159
vt 0.000000 0.245975
vt 0.000000 0.217289
vt 0.000000 0.247415
vt 0.000000 0.234894
vt 0.000000 0.254716
vt 0.000000 0.197678
vt 0.000000 0.237956
vt 0.000000 0.250254
vt 0.000000 0.200415
vt 0.000000 0.240588
vt 0.000000 0.255934
vt 0.000000 0.216736
vt 0.000000 0.236200
vt 0.000000 0.200806
vt 0.000000 0.233311
vt 0.630847 0.218208
vt 0.630847 0.218960
vt 0.630847 0.240057
vt 0.630847 0.248550
vt 0.630847 0.230414
vt 0.630254 0.243553
vt 0.630847 0.253844
vt 0.630847 0.195436
vt 0.630847 0.219068
vt 0.630847 0.246011
vt 0.630847 0.206687
vt 0.627623 0.250298
vt 0.623614 0.252498
vt 0.630847 0.254913
vt 0.630847 0.229037
vt 0.607870 0.253922
vt 0.630847 0.208294
vt 0.594365 0.256571
vt 0.625004 0.257012
vt 0.615484 0.258320
vt 0.630847 0.140980
vt 0.630847 0.110464
vt 0.630847 0.138214
vt 0.630840 0.106888
vt 0.630847 0.109627
vt 0.630836 0.143165
vt 0.630847 0.137819
vt 0.630842 0.090323
vt 0.630330 0.099941
vt 0.630847 0.098272
vt 0.630847 0.109508
vt 0.630597 0.124203
vt 0.630847 0.100203
vt 0.630847 0.100467
vt 0.630295 0.094221
vt 0.630533 0.115820
vt 0.506096 0.983943
vt 0.538455 1.000000
vt 0.297910 0.984145
vt 0.111121 0.986824
vt 0.058442 0.989277
vt 0.366157 0.000000
vt 0.367516 0.000000
vt 0.341345 0.000000
vt 0.341398 0.000000
vt 0.343258 0.000000
vt 0.372543 0.000000
vt 0.399016 0.000395
vt 0.341406 0.000000
vt 0.373455 0.000000
vt 0.375287 0.000284
vt 0.391602 0.000375
vt 0.408540 0.000454
vt 0.630847 0.495075
vt 0.630847 0.495691
vt 0.630847 0.473958
vt 0.630847 0.473525
vt 0.630847 0.473994
vt 0.630847 0.493204
vt 0.630847 0.467200
vt 0.630847 0.502165
vt 0.630847 0.488872
vt 0.630847 0.473518
vt 0.630847 0.467094
vt 0.630847 0.491293
vt 0.630847 0.473517
vt 0.630847 0.491020
vt 0.143083 0.199483
vt 0.176110 0.049582
vt 0.344141 0.216753
vt 0.363819 0.038898
vt 0.493834 0.051614
vt 0.529085 0.083236
vt 0.538169 0.206633
vt 0.630027 0.043196
vt 0.630336 0.058893
vt 0.629846 0.001005
vt 0.630221 0.016563
vt 0.630127 0.000724
vt 0.507158 0.000453
vt 0.598504 0.000593
vt 0.515834 0.000388
vt 0.630847 0.159646
vt 0.630847 0.154824
vt 0.630847 0.162185
vt 0.630847 0.161882
vt 0.630847 0.166484
vt 0.630847 0.161839
vt 0.630847 0.178702
vt 0.630847 0.154135
vt 0.630847 0.167706
vt 0.630847 0.180448
vt 0.630847 0.181842
vt 0.630847 0.183861
vt 0.630847 0.747247
vt 0.630847 0.956469
vt 0.479850 0.193066
vt 0.479866 0.000000
vt 0.520174 0.193535
vt 0.436833 0.000000
vt 0.520134 0.000000
vt 0.436728 0.194077
vt 0.557066 0.194485
vt 0.398839 0.188390
vt 0.519878 0.238515
vt 0.556949 0.000000
vt 0.398839 0.000000
vt 0.543063 0.239799
vt 0.480257 0.240671
vt 0.586703 0.000000
vt 0.409431 0.233958
vt 0.521392 0.240308
vt 0.463080 0.240675
vt 0.586703 0.187984
vt 0.436703 0.240675
vt 0.580809 0.232966
vt 0.557093 0.239469
vt 0.479866 0.750000
vt 0.479866 0.563533
vt 0.520134 0.750000
vt 0.399146 0.576097
vt 0.520134 0.563657
vt 0.399146 0.750000
vt 0.587075 0.576591
vt 0.405110 0.553017
vt 0.587075 0.750000
vt 0.480267 0.520954
vt 0.478295 0.519013
vt 0.579364 0.535152
vt 0.519633 0.518651
vt 0.520513 0.519960
vt 0.706986 0.190436
vt 0.681448 0.191065
vt 0.706873 0.000000
vt 0.749412 0.000000
vt 0.681455 0.000000
vt 0.749412 0.185508
vt 0.661404 0.195069
vt 0.706979 0.239846
vt 0.661384 0.000000
vt 0.681447 0.240675
vt 0.749412 0.231349
vt 0.644733 0.186878
vt 0.661409 0.240367
vt 0.644659 0.000000
vt 0.660456 0.239773
vt 0.644750 0.229988
vt 0.293148 0.190183
vt 0.293126 0.000000
vt 0.318502 0.197780
vt 0.250588 0.176328
vt 0.318545 0.000000
vt 0.250588 0.000000
vt 0.293624 0.231513
vt 0.341446 0.196989
vt 0.318493 0.240162
vt 0.341484 0.000000
vt 0.319958 0.240195
vt 0.361204 0.188390
vt 0.341438 0.240675
vt 0.361282 0.000000
vt 0.343412 0.239743
vt 0.361186 0.231349
vt 0.208951 0.176463
vt 0.178827 0.176016
vt 0.208951 0.000000
vt 0.210421 0.000000
vt 0.178827 0.000000
vt 0.210421 0.176801
vt 0.138201 0.173903
vt 0.217542 0.000000
vt 0.207415 0.212699
vt 0.138201 0.000000
vt 0.217542 0.176712
vt 0.178827 0.212699
vt 0.176990 0.212699
vt 0.138201 0.212699
vt 0.249498 0.000000
vt 0.210421 0.212699
vt 0.249498 0.176328
vt 0.217506 0.212699
vt 0.791049 0.191680
vt 0.791049 0.000000
vt 0.821173 0.175893
vt 0.789579 0.000000
vt 0.821173 0.000000
vt 0.789583 0.190379
vt 0.856405 0.000000
vt 0.782458 0.000000
vt 0.793335 0.229934
vt 0.856405 0.173409
vt 0.782481 0.188439
vt 0.821173 0.212699
vt 0.789686 0.231322
vt 0.827989 0.212699
vt 0.750502 0.000000
vt 0.791049 0.231349
vt 0.856405 0.212699
vt 0.750609 0.184847
vt 0.782423 0.230721
vt 0.750636 0.230525
vt 0.614906 0.331874
vt 0.615472 0.374983
vt 0.383140 0.331873
vt 0.385450 0.306996
vt 0.390160 0.374982
vt 0.614963 0.306302
vt 0.376835 0.331873
vt 0.383886 0.407361
vt 0.394090 0.285173
vt 0.384981 0.375045
vt 0.615447 0.407352
vt 0.606458 0.286226
vt 0.379016 0.407361
vt 0.382712 0.414562
vt 0.420043 0.267577
vt 0.615327 0.414561
vt 0.582551 0.268530
vt 0.381675 0.416111
vt 0.620317 0.407471
vt 0.467492 0.256113
vt 0.376206 0.416101
vt 0.377629 0.414623
vt 0.620231 0.414561
vt 0.541103 0.256347
vt 0.616883 0.416538
vt 0.512815 0.253399
vt 0.482401 0.256160
vt 0.615629 0.446196
vt 0.384186 0.445979
vt 0.414565 0.484084
vt 0.580258 0.483108
vt 0.519667 0.496174
vt 0.473764 0.496412
s 1
g GUI_Map_Plateau:GUI_Map_Plateau_GUI_Map_Plateau:GUI_Map_be891ef_GUI_Map_Plateau:GUI_Map_Plateau1
usemtl GUI_Map_Plateau:GUI_Map_Plateau1
f 1/1/1 2/2/2 3/3/3
f 3/3/3 2/2/2 4/4/4
f 3/3/3 4/4/4 5/5/5
f 5/5/5 4/4/4 6/6/4
f 6/6/4 7/7/6 5/5/5
f 5/5/5 7/7/6 8/8/7
f 8/8/7 9/9/8 5/5/5
f 1/1/1 10/10/2 2/2/2
f 2/2/2 11/11/9 4/4/4
f 7/7/6 12/12/10 8/8/7
f 5/5/5 9/9/8 13/13/11
f 13/13/11 3/3/3 5/5/5
f 11/11/9 2/2/2 14/14/12
f 14/14/12 2/2/2 10/10/2
f 8/8/7 12/12/10 15/15/13
f 16/16/3 3/3/3 13/13/11
f 16/16/3 1/1/1 3/3/3
f 4/4/4 11/11/9 17/17/14
f 18/18/15 12/12/10 7/7/6
f 19/19/1 1/1/1 16/16/3
f 17/17/14 20/20/16 4/4/4
f 7/7/6 6/6/4 18/18/15
f 19/19/1 21/21/17 1/1/1
f 4/4/4 20/20/16 6/6/4
f 18/18/15 6/6/4 20/20/16
f 1/1/1 21/21/17 22/22/17
f 22/22/17 10/10/2 1/1/1
f 23/23/18 22/22/17 21/21/17
f 24/24/18 22/22/17 23/23/18
f 25/25/19 26/25/20 27/26/21
f 25/25/19 28/27/22 26/25/20
f 27/26/21 26/25/20 29/28/23
f 30/29/24 28/27/22 25/25/19
f 25/25/19 27/26/21 31/25/19
f 31/25/19 30/29/24 25/25/19
f 32/30/25 26/25/20 28/27/22
f 33/31/26 27/26/21 29/28/23
f 31/25/19 27/26/21 34/32/27
f 35/33/24 30/29/24 31/25/19
f 36/25/28 26/25/20 32/30/25
f 36/25/28 29/28/23 26/25/20
f 37/34/29 27/26/21 33/31/26
f 30/29/24 35/33/24 38/35/30
f 39/36/31 29/28/23 36/25/28
f 34/32/27 40/25/32 31/25/19
f 29/28/23 41/37/31 33/31/26
f 31/25/19 40/25/32 35/33/24
f 39/36/31 41/37/31 29/28/23
f 38/35/30 35/33/24 42/38/33
f 43/39/34 40/25/32 34/32/27
f 44/40/35 37/34/36 45/40/37
f 35/33/24 40/25/32 46/41/32
f 43/39/34 47/25/38 40/25/32
f 34/32/27 48/42/39 43/39/34
f 45/40/37 37/34/36 49/43/40
f 40/25/32 47/25/38 46/41/32
f 50/44/41 44/40/35 45/40/37
f 51/45/42 47/25/38 43/39/34
f 49/43/40 52/40/28 45/40/37
f 46/41/32 47/25/38 53/46/43
f 54/44/44 44/40/35 50/44/41
f 55/47/28 52/40/28 49/43/40
f 52/40/28 56/44/28 45/40/37
f 47/25/38 57/25/45 53/46/43
f 45/40/37 56/44/28 50/44/41
f 44/40/35 58/48/36 37/34/36
f 51/45/42 59/49/46 47/25/38
f 47/25/38 59/49/46 57/25/45
f 56/44/28 60/50/31 50/44/41
f 61/40/35 58/48/36 44/40/35
f 51/45/42 62/51/47 59/49/46
f 59/49/46 63/52/48 57/25/45
f 50/44/41 60/50/31 64/50/49
f 44/40/35 54/44/44 61/40/35
f 65/53/50 63/52/48 59/49/46
f 62/51/47 65/53/50 59/49/46
f 64/50/49 60/50/31 66/54/49
f 54/44/44 50/44/41 67/50/51
f 68/55/47 62/51/47 51/45/42
f 67/50/51 50/44/41 64/50/49
f 66/54/49 60/50/31 69/56/28
f 51/45/42 70/57/52 68/55/47
f 54/44/44 67/50/51 71/44/44
f 61/40/35 54/44/44 71/44/44
f 72/58/49 64/50/49 66/54/49
f 43/39/34 70/57/52 51/45/42
f 67/50/51 64/50/49 72/58/49
f 61/40/35 71/44/44 73/40/53
f 43/39/34 48/42/39 74/59/52
f 71/44/44 67/50/51 75/50/54
f 72/58/49 76/60/54 67/50/51
f 73/40/53 71/44/44 77/44/55
f 73/40/53 78/61/53 61/40/35
f 71/44/44 75/50/54 77/44/55
f 67/50/51 76/60/54 75/50/54
f 73/40/53 77/44/55 79/40/47
f 61/40/35 78/61/53 58/48/36
f 80/62/56 75/50/54 76/60/54
f 79/40/47 81/63/47 73/40/53
f 77/44/55 75/50/54 82/50/57
f 73/40/53 81/63/47 78/61/53
f 82/50/57 75/50/54 80/62/56
f 83/64/58 37/34/36 58/48/36
f 77/44/55 82/50/57 84/44/59
f 79/40/47 77/44/55 84/44/59
f 79/40/47 85/40/47 81/63/47
f 86/65/27 37/34/36 83/64/58
f 87/66/60 82/50/57 80/62/56
f 79/40/47 84/44/59 85/40/47
f 81/63/47 85/40/47 88/67/47
f 89/50/61 82/50/57 87/66/60
f 84/44/59 82/50/57 89/50/61
f 85/40/47 84/44/59 90/44/59
f 84/44/59 89/50/61 90/44/59
f 85/40/47 91/68/62 88/67/47
f 89/50/61 87/66/60 92/50/63
f 90/44/59 89/50/61 92/50/63
f 85/40/47 90/44/59 93/69/62
f 93/69/62 91/68/62 85/40/47
f 92/50/63 87/66/60 94/70/60
f 92/50/63 95/71/14 90/44/59
f 93/69/62 90/44/59 95/71/14
f 94/70/60 96/72/15 92/50/63
f 97/73/64 95/71/14 92/50/63
f 92/50/63 96/72/15 97/73/64
f 98/74/65 99/75/66 100/76/67
f 98/74/65 100/76/67 101/77/68
f 100/76/67 99/75/66 102/78/69
f 98/74/65 103/79/70 99/75/66
f 101/77/68 100/76/67 104/80/67
f 100/76/67 102/78/69 105/81/71
f 106/82/72 103/79/70 98/74/65
f 107/83/28 99/75/66 103/79/70
f 98/74/65 101/77/68 106/82/72
f 105/81/71 108/84/73 100/76/67
f 100/76/67 108/84/73 104/80/67
f 109/85/28 99/75/66 107/83/28
f 110/86/74 101/77/68 104/80/67
f 105/81/71 102/78/69 111/87/75
f 109/85/28 112/88/28 99/75/66
f 113/89/74 101/77/68 110/86/74
f 108/84/73 114/90/76 104/80/67
f 112/88/28 111/87/75 102/78/69
f 99/75/66 112/88/28 102/78/69
f 106/82/72 101/77/68 115/91/72
f 104/80/67 114/90/76 110/86/74
f 101/77/68 113/89/74 115/91/72
f 116/92/28 111/87/75 112/88/28
f 115/91/72 113/89/74 117/93/77
f 114/90/76 118/94/78 110/86/74
f 119/95/79 118/94/78 114/90/76
f 120/96/80 121/97/81 122/98/82
f 122/98/82 123/99/80 120/96/80
f 122/98/82 121/97/81 124/98/82
f 125/98/83 123/99/80 122/98/82
f 123/99/80 126/100/73 120/96/80
f 120/96/80 127/101/71 121/97/81
f 128/102/84 122/98/82 124/98/82
f 129/103/85 123/99/80 125/98/83
f 120/96/80 126/100/73 130/104/71
f 131/105/82 122/98/82 128/102/84
f 132/106/86 123/99/80 129/103/85
f 133/107/71 127/101/71 120/96/80
f 131/105/82 134/108/87 122/98/82
f 122/98/82 134/108/87 125/98/83
f 132/106/86 135/109/73 123/99/80
f 136/110/28 121/97/81 127/101/71
f 125/98/83 137/111/88 129/103/85
f 134/108/87 137/111/88 125/98/83
f 138/112/73 135/109/73 132/106/86
f 139/113/28 121/97/81 136/110/28
f 140/114/89 137/111/88 134/108/87
f 132/106/86 141/115/90 138/112/73
f 139/113/28 124/98/82 121/97/81
f 142/116/91 137/111/88 140/114/89
f 141/115/90 132/106/86 143/117/92
f 143/117/92 132/106/86 129/103/85
f 144/98/28 124/98/82 139/113/28
f 137/111/88 145/118/93 129/103/85
f 137/111/88 142/116/91 145/118/93
f 129/103/85 145/118/93 146/119/92
f 147/120/25 124/98/82 144/98/28
f 128/102/84 124/98/82 147/120/25
f 148/121/72 149/122/94 150/123/72
f 151/124/95 148/121/72 150/123/72
f 150/123/72 149/122/94 152/125/96
f 153/126/72 148/121/72 151/124/95
f 148/121/72 154/127/97 149/122/94
f 155/128/28 152/125/96 149/122/94
f 151/124/95 156/129/77 153/126/72
f 153/126/72 157/130/98 148/121/72
f 158/131/98 154/127/97 148/121/72
f 159/132/28 152/125/96 155/128/28
f 160/133/77 156/129/77 151/124/95
f 148/121/72 157/130/98 158/131/98
f 161/134/28 149/122/94 154/127/97
f 155/128/28 149/122/94 161/134/28
f 160/133/77 162/135/99 156/129/77
f 156/129/77 162/135/99 163/136/100
f 164/137/101 163/136/100 162/135/99
f 165/138/102 163/136/100 164/137/101
f 166/139/103 167/140/103 168/141/104
f 169/142/105 166/139/103 168/141/104
f 168/141/104 167/140/103 170/143/106
f 168/141/104 171/144/106 169/142/105
f 168/141/104 170/143/106 171/144/106
f 172/145/89 166/139/103 169/142/105
f 167/140/103 173/146/107 170/143/106
f 169/142/105 171/144/106 174/147/93
f 175/148/108 166/139/103 172/145/89
f 176/149/109 167/140/103 166/139/103
f 170/143/106 173/146/107 177/150/110
f 171/144/106 170/143/106 178/151/106
f 176/149/109 166/139/103 175/148/108
f 179/152/111 167/140/103 176/149/109
f 170/143/106 177/150/110 178/151/106
f 178/151/106 180/153/112 171/144/106
f 167/140/103 181/154/113 173/146/107
f 167/140/103 179/152/111 182/155/114
f 178/151/106 177/150/110 183/156/115
f 171/144/106 180/153/112 184/157/116
f 173/146/107 181/154/113 185/158/117
f 182/155/114 179/152/111 186/159/118
f 184/157/116 187/160/93 171/144/106
f 188/161/119 180/153/112 178/151/106
f 178/151/106 183/156/115 188/161/119
f 189/162/92 187/160/93 184/157/116
f 190/163/119 180/153/112 188/161/119
f 191/164/120 192/165/121 193/166/110
f 191/164/120 194/167/77 192/165/121
f 193/166/110 192/165/121 195/166/107
f 196/168/95 194/167/77 191/164/120
f 197/169/107 193/166/110 195/166/107
f 192/165/121 198/170/122 195/166/107
f 199/171/123 196/168/95 191/164/120
f 194/167/77 200/172/124 192/165/121
f 201/173/110 193/166/110 197/169/107
f 192/165/121 200/172/124 198/170/122
f 202/174/125 196/168/95 199/171/123
f 203/175/126 193/166/110 201/173/110
f 197/169/107 195/166/107 204/176/127
f 195/166/107 198/170/122 205/177/128
f 200/172/124 206/178/102 198/170/122
f 207/166/129 193/166/110 203/175/126
f 204/176/127 195/166/107 205/177/128
f 198/170/122 206/178/102 205/177/128
f 193/166/110 207/166/129 191/164/120
f 205/177/128 208/179/119 204/176/127
f 205/177/128 206/178/102 209/180/119
f 204/176/127 208/179/119 210/181/130
f 191/164/120 207/166/129 211/182/131
f 212/183/132 207/166/126 213/184/123
f 213/184/123 214/185/125 212/183/132
f 213/184/123 207/166/126 215/166/133
f 216/186/134 214/185/125 213/184/123
f 212/183/132 214/185/125 217/187/98
f 215/166/133 207/166/126 218/188/126
f 213/184/123 219/189/135 216/186/134
f 215/166/133 219/189/135 213/184/123
f 218/188/126 219/189/135 215/166/133
f 220/190/136 214/185/125 216/186/134
f 218/188/126 207/166/126 221/191/129
f 222/192/137 219/189/135 218/188/126
f 223/193/138 220/190/136 216/186/134
f 224/194/54 220/190/136 223/193/138
f 219/189/135 222/192/137 225/195/139
f 225/195/139 222/192/137 226/196/139
f 227/197/140 228/198/141 229/199/142
f 229/199/142 230/200/140 227/197/140
f 229/199/142 228/198/141 231/199/143
f 232/199/142 230/200/140 229/199/142
f 228/198/141 227/197/140 233/201/144
f 228/198/141 234/202/145 231/199/143
f 229/199/142 235/203/146 232/199/142
f 232/199/142 236/204/147 230/200/140
f 233/201/144 237/205/145 228/198/141
f 231/199/143 234/202/145 238/206/143
f 235/203/146 239/207/142 232/199/142
f 240/208/144 237/205/145 233/201/144
f 233/201/144 227/197/140 241/209/148
f 238/206/143 242/210/143 231/199/143
f 243/211/147 236/204/147 232/199/142
f 244/212/149 239/207/142 235/203/146
f 245/213/150 238/206/143 234/202/145
f 231/199/143 242/210/143 246/214/151
f 239/207/142 244/212/149 247/215/152
f 248/216/153 238/206/143 245/213/150
f 249/217/144 245/213/150 234/202/145
f 231/199/143 246/214/151 229/199/142
f 229/199/142 246/214/151 235/203/146
f 247/215/152 244/212/149 250/218/154
f 238/206/143 251/219/153 242/210/143
f 239/207/142 247/215/152 252/199/155
f 246/214/151 253/220/156 235/203/146
f 235/203/146 253/220/156 244/212/149
f 242/210/143 251/219/153 254/221/153
f 252/199/155 247/215/152 255/199/157
f 242/210/143 256/222/158 246/214/151
f 256/222/158 253/220/156 246/214/151
f 244/212/149 253/220/156 257/223/159
f 252/199/155 255/199/157 258/199/155
f 259/224/158 256/222/158 242/210/143
f 254/221/153 259/224/158 242/210/143
f 257/223/159 260/225/160 244/212/149
f 258/199/155 255/199/157 261/199/155
f 262/226/147 252/199/155 258/199/155
f 247/215/152 263/227/25 255/199/157
f 244/212/149 260/225/160 250/218/154
f 264/226/161 252/199/155 262/226/147
f 250/218/154 263/227/25 247/215/152
f 255/199/157 263/227/25 265/199/28
f 265/199/28 261/199/155 255/199/157
f 262/226/147 266/228/147 264/226/161
f 267/229/28 250/218/154 260/225/160
f 268/199/28 261/199/155 265/199/28
f 258/199/155 269/230/162 262/226/147
f 264/226/161 266/228/147 270/231/147
f 261/199/155 268/199/28 271/232/163
f 269/230/162 258/199/155 271/232/163
f 272/233/163 262/226/147 269/230/162
f 273/234/28 250/218/154 267/229/28
f 271/232/163 258/199/155 261/199/155
f 272/233/163 269/230/162 274/235/163
f 273/234/28 263/227/25 250/218/154
f 274/235/163 269/230/162 271/232/163
f 275/236/164 262/226/147 272/233/163
f 271/232/163 268/199/28 276/237/31
f 276/237/31 274/235/163 271/232/163
f 275/236/164 272/233/163 277/238/165
f 278/239/31 274/235/163 276/237/31
f 277/238/165 272/233/163 279/240/165
f 279/240/165 272/233/163 274/235/163
f 280/241/166 274/235/163 278/239/31
f 279/240/165 274/235/163 280/241/166
f 281/242/165 277/238/167 282/243/167
f 283/244/168 281/242/165 282/243/167
f 282/243/167 277/238/167 284/245/167
f 285/246/169 281/242/165 283/244/168
f 282/243/167 284/245/167 286/247/31
f 286/247/31 283/244/168 282/243/167
f 281/242/165 287/248/147 277/238/167
f 277/238/167 287/248/147 288/248/161
f 286/247/31 284/245/167 289/247/31
f 290/249/25 283/244/168 286/247/31
f 291/250/170 292/251/171 293/166/172
f 293/166/172 294/252/173 291/250/170
f 293/166/172 292/251/171 295/253/174
f 296/166/175 294/252/173 293/166/172
f 297/254/56 292/251/171 291/250/170
f 291/250/170 294/252/173 297/254/56
f 295/253/174 298/255/172 293/166/172
f 299/166/176 294/252/173 296/166/175
f 300/256/54 292/251/171 297/254/56
f 301/257/177 298/255/172 295/253/174
f 302/258/178 294/252/173 299/166/176
f 293/166/172 303/259/179 296/166/175
f 297/254/56 294/252/173 304/260/180
f 298/255/172 303/259/179 293/166/172
f 294/252/173 302/258/178 304/260/180
f 305/261/176 302/258/178 299/166/176
f 303/259/179 306/262/181 296/166/175
f 307/263/134 295/253/174 292/251/171
f 308/264/182 302/258/178 305/261/176
f 296/166/175 306/262/181 299/166/176
f 309/265/183 295/253/174 307/263/134
f 308/264/182 310/266/180 302/258/178
f 304/260/180 302/258/178 310/266/180
f 306/262/181 311/267/181 299/166/176
f 299/166/176 311/267/181 305/261/176
f 312/268/15 310/266/180 308/264/182
f 305/261/176 311/267/181 313/269/184
f 313/269/184 311/267/181 314/270/8
f 315/271/185 316/272/186 317/273/187
f 318/274/188 316/272/186 315/271/185
f 317/273/187 316/272/186 319/275/189
f 320/276/188 316/272/186 318/274/188
f 317/273/187 321/277/158 315/271/185
f 319/275/189 322/278/187 317/273/187
f 323/279/179 316/272/186 320/276/188
f 315/271/185 324/280/158 318/274/188
f 321/277/158 324/280/158 315/271/185
f 325/281/187 322/278/187 319/275/189
f 326/282/190 321/277/158 317/273/187
f 324/280/158 327/283/188 318/274/188
f 322/278/187 325/281/187 328/284/191
f 319/275/189 316/272/186 329/285/139
f 330/286/192 327/283/188 324/280/158
f 322/278/187 328/284/191 331/287/160
f 328/284/191 325/281/187 332/288/191
f 329/285/139 316/272/186 333/289/172
f 318/274/188 327/283/188 334/290/188
f 331/287/160 328/284/191 335/291/160
f 325/281/187 336/292/193 332/288/191
f 334/290/188 320/276/188 318/274/188
f 334/290/188 327/283/188 337/293/188
f 338/294/166 335/291/160 328/284/191
f 339/295/28 332/288/191 336/292/193
f 340/296/194 336/292/193 325/281/187
f 341/297/195 334/290/188 337/293/188
f 338/294/166 328/284/191 342/298/28
f 342/298/28 332/288/191 339/295/28
f 343/299/28 335/291/160 338/294/166
f 344/300/196 334/290/188 341/297/195
f 342/298/28 328/284/191 332/288/191
f 345/301/197 337/293/188 327/283/188
f 341/297/195 346/302/198 344/300/196
f 344/300/196 347/303/176 334/290/188
f 348/199/199 337/293/188 345/301/197
f 327/283/188 349/304/153 345/301/197
f 341/297/195 350/305/200 346/302/198
f 323/279/179 334/290/188 347/303/176
f 341/297/195 337/293/188 351/306/199
f 351/306/199 337/293/188 348/199/199
f 351/306/199 350/305/200 341/297/195
f 344/300/196 346/302/198 352/307/184
f 353/308/176 347/303/176 344/300/196
f 348/199/199 354/309/201 351/306/199
f 350/305/200 351/306/199 355/310/1
f 352/307/184 353/308/176 344/300/196
f 320/276/188 334/290/188 323/279/179
f 355/310/1 351/306/199 354/309/201
f 356/311/202 354/309/201 348/199/199
f 354/309/201 357/312/201 355/310/1
f 356/311/202 357/312/201 354/309/201
f 348/199/199 358/313/203 356/311/202
f 355/310/1 357/312/201 359/314/1
f 333/289/172 316/272/186 323/279/179
f 345/301/197 358/313/203 348/199/199
f 360/315/202 357/312/201 356/311/202
f 361/316/18 359/314/1 357/312/201
f 345/301/197 362/317/150 358/313/203
f 360/315/202 356/311/202 363/318/202
f 361/316/18 357/312/201 364/319/204
f 365/320/153 362/317/150 345/301/197
f 364/319/204 357/312/201 360/315/202
f 363/318/202 356/311/202 358/313/203
f 345/301/197 349/304/153 365/320/153
f 366/321/202 364/319/204 360/315/202
f 360/315/202 363/318/202 366/321/202
f 367/311/43 364/319/204 366/321/202
f 363/318/202 368/322/205 366/321/202
f 369/323/206 367/311/43 366/321/202
f 366/321/202 368/322/205 369/323/206
f 370/324/207 368/322/205 363/318/202
f 371/325/153 372/326/150 365/320/153
f 373/311/32 367/311/43 369/323/206
f 374/327/207 368/322/205 370/324/207
f 365/320/153 375/328/153 371/325/153
f 376/329/30 373/311/32 369/323/206
f 365/320/153 372/326/150 377/330/150
f 368/322/205 378/331/30 369/323/206
f 379/332/153 375/328/153 365/320/153
f 369/323/206 378/331/30 376/329/30
f 372/326/150 380/333/208 377/330/150
f 379/332/153 381/334/209 375/328/153
f 382/335/24 373/311/32 376/329/30
f 378/331/30 383/311/210 376/329/30
f 377/330/150 380/333/208 384/336/144
f 375/328/153 381/334/209 385/337/209
f 383/311/210 378/331/30 386/311/148
f 384/336/144 387/338/202 377/330/150
f 376/329/30 383/311/210 388/311/30
f 386/311/148 378/331/30 389/339/211
f 390/336/202 387/338/202 384/336/144
f 383/311/210 391/340/212 388/311/30
f 383/311/210 392/341/168 391/340/212
f 388/311/30 391/340/212 393/342/212
f 394/343/148 392/341/168 383/311/210
f 388/311/30 393/342/212 395/311/24
f 396/344/31 391/340/212 392/341/168
f 394/343/148 397/345/168 392/341/168
f 397/345/168 396/344/31 392/341/168
f 395/311/24 393/342/212 398/311/213
f 399/346/31 391/340/212 396/344/31
f 400/347/148 397/345/168 394/343/148
f 399/346/31 393/342/212 391/340/212
f 401/348/31 396/344/31 397/345/168
f 402/349/166 398/311/213 393/342/212
f 400/347/148 394/343/148 403/350/148
f 402/349/166 393/342/212 399/346/31
f 404/311/31 398/311/213 402/349/166
f 403/350/148 405/351/214 400/347/148
f 403/350/148 394/343/148 406/352/148
f 407/353/214 405/351/214 403/350/148
f 406/352/148 408/354/144 403/350/148
f 409/355/207 408/354/144 406/352/148
f 409/355/207 410/356/144 408/354/144
f 406/352/148 368/322/205 409/355/207
f 411/357/144 410/356/144 409/355/207
f 412/358/30 368/322/205 406/352/148
f 413/359/215 414/360/215 415/361/78
f 415/361/78 416/362/216 413/359/215
f 415/361/78 414/360/215 417/363/217
f 413/359/215 416/362/216 418/364/218
f 417/363/217 419/365/74 415/361/78
f 420/366/219 417/363/217 414/360/215
f 414/360/215 413/359/215 421/367/116
f 413/359/215 418/364/218 422/368/112
f 423/369/220 419/365/74 417/363/217
f 424/370/119 417/363/217 420/366/219
f 421/367/116 413/359/215 422/368/112
f 422/368/112 418/364/218 425/371/92
f 426/372/74 419/365/74 423/369/220
f 414/360/215 427/373/119 420/366/219
f 428/374/219 423/369/220 417/363/217
f 429/375/112 427/373/119 414/360/215
f 426/372/74 423/369/220 430/376/221
f 431/377/102 423/369/220 428/374/219
f 430/376/221 423/369/220 432/378/222
f 432/378/222 423/369/220 431/377/102
f 433/379/125 434/380/223 435/381/224
f 436/382/125 434/380/223 433/379/125
f 435/381/224 434/380/223 437/383/225
f 438/384/223 434/380/223 436/382/125
f 433/379/125 435/381/224 439/385/125
f 433/379/125 439/385/125 436/382/125
f 434/380/223 440/386/49 437/383/225
f 434/380/223 438/384/223 441/387/49
f 439/385/125 435/381/224 442/388/226
f 436/382/125 439/385/125 443/389/125
f 441/387/49 440/386/49 434/380/223
f 441/387/49 438/384/223 444/390/227
f 435/381/224 445/391/31 442/388/226
f 437/383/225 445/391/31 435/381/224
f 446/392/28 437/383/225 440/386/49
f 442/388/226 445/391/31 447/393/28
f 448/394/31 437/383/225 446/392/28
f 448/394/31 445/391/31 437/383/225
f 449/395/228 450/396/228 451/397/229
f 449/395/228 451/397/229 452/398/230
f 451/397/229 450/396/228 453/399/193
f 454/400/114 449/395/228 452/398/230
f 452/398/230 451/397/229 455/401/229
f 449/395/228 456/402/228 450/396/228
f 456/402/228 449/395/228 454/400/114
f 450/396/228 457/403/25 453/399/193
f 458/404/187 455/401/229 451/397/229
f 450/396/228 456/402/228 459/405/228
f 454/400/230 460/406/114 461/407/231
f 459/405/228 457/403/25 450/396/228
f 462/408/189 455/401/229 458/404/187
f 453/399/193 457/403/25 463/409/28
f 461/407/231 460/406/114 464/410/126
f 465/411/28 457/403/25 459/405/228
f 460/406/114 466/412/137 464/410/126
f 467/413/229 466/412/137 460/406/114
f 467/413/229 468/414/187 466/412/137
f 466/412/137 468/414/187 301/257/139
f 469/415/108 470/416/232 471/417/233
f 469/415/108 472/418/89 470/416/232
f 471/417/233 470/416/232 473/419/234
f 474/420/89 472/418/89 469/415/108
f 473/419/234 475/421/31 471/417/233
f 472/418/89 476/422/235 470/416/232
f 474/420/89 477/423/105 472/418/89
f 470/416/232 478/424/84 473/419/234
f 479/425/31 475/421/31 473/419/234
f 470/416/232 476/422/235 478/424/84
f 480/426/105 477/423/105 474/420/89
f 481/427/82 479/425/31 473/419/234
f 473/419/234 478/424/84 481/427/82
f 482/428/28 479/425/31 481/427/82
f 480/426/105 483/429/236 477/423/105
f 484/430/93 483/429/236 480/426/105
f 63/52/48 485/431/18 57/25/45
f 57/25/45 485/431/18 486/432/204
f 53/46/43 57/25/45 486/432/204
f 65/53/50 487/433/1 63/52/48
f 488/434/237 487/433/1 65/53/50
f 65/53/50 489/435/62 488/434/237
f 489/435/62 65/53/50 62/51/47
f 490/436/75 491/437/73 492/438/71
f 492/438/71 493/439/75 490/436/75
f 492/438/71 491/437/73 494/440/73
f 490/436/75 493/439/75 495/441/75
f 491/437/73 496/442/73 494/440/73
f 497/443/28 495/441/75 493/439/75
f 498/444/28 495/441/75 497/443/28
f 494/440/73 496/442/73 499/445/73
f 496/442/73 500/446/90 499/445/73
f 501/447/218 500/446/90 496/442/73
f 502/448/156 503/449/158 504/450/156
f 505/451/238 502/448/156 504/450/156
f 504/450/156 503/449/158 506/452/158
f 507/453/160 502/448/156 505/451/238
f 508/454/187 505/451/238 504/450/156
f 503/449/158 509/455/239 506/452/158
f 506/452/158 509/455/239 510/456/209
f 505/451/238 511/457/159 507/453/160
f 512/458/187 505/451/238 508/454/187
f 507/453/160 511/457/159 513/459/159
f 514/460/28 513/459/159 511/457/159
f 515/461/28 513/459/159 514/460/28
f 516/462/240 517/463/102 518/464/219
f 518/464/219 517/463/102 519/465/119
f 519/465/119 520/466/119 518/464/219
f 520/466/119 521/467/119 518/464/219
f 518/464/219 521/467/119 522/468/119
f 523/469/93 524/470/93 525/471/92
f 525/471/92 524/470/93 526/472/92
f 525/471/92 527/473/92 528/474/90
f 528/474/90 527/473/92 529/475/218
f 528/474/90 529/475/218 530/476/218
f 531/477/108 532/478/234 533/479/109
f 533/479/109 532/478/234 534/480/109
f 533/479/109 534/480/109 535/481/109
f 532/478/234 536/482/28 534/480/109
f 535/481/109 534/480/109 537/483/241
f 538/484/28 536/482/28 532/478/234
f 535/481/109 537/483/241 539/485/118
f 537/483/241 534/480/109 540/486/28
f 540/486/28 534/480/109 536/482/28
f 539/485/118 537/483/241 541/487/242
f 542/488/31 537/483/241 540/486/28
f 541/487/242 537/483/241 542/488/31
f 543/199/161 544/489/142 252/199/155
f 252/199/155 544/489/142 239/207/142
f 236/204/147 545/490/165 230/200/140
f 230/200/140 545/490/165 546/248/148
f 547/491/243 548/492/243 549/493/244
f 548/492/243 547/491/243 550/494/243
f 549/493/244 548/492/243 551/495/245
f 550/494/243 547/491/243 552/496/243
f 551/495/245 553/497/246 549/493/244
f 554/498/247 550/494/243 552/496/243
f 549/493/244 555/499/248 547/491/243
f 556/500/249 553/497/246 551/495/245
f 557/501/250 550/494/243 554/498/247
f 558/502/248 549/493/244 553/497/246
f 547/491/243 555/499/248 559/503/248
f 556/500/249 560/504/251 553/497/246
f 554/498/247 552/496/243 561/505/248
f 562/506/248 549/493/244 558/502/248
f 559/503/248 563/507/248 547/491/243
f 553/497/246 560/504/251 564/508/252
f 547/491/243 563/507/248 552/496/243
f 561/505/248 552/496/243 565/509/248
f 566/510/248 553/497/246 564/508/252
f 567/511/248 553/497/246 566/510/248
f 568/512/253 569/513/254 570/514/255
f 569/513/254 568/512/253 571/515/254
f 570/514/255 569/513/254 572/516/256
f 571/515/254 568/512/253 573/517/254
f 574/518/257 570/514/255 572/516/256
f 571/515/254 575/519/258 569/513/254
f 576/520/259 570/514/255 574/518/257
f 569/513/254 577/521/260 572/516/256
f 569/513/254 575/519/258 578/522/261
f 574/518/257 572/516/256 579/523/258
f 572/516/256 577/521/260 580/524/260
f 579/523/258 572/516/256 581/525/260
f 582/526/262 583/527/263 584/528/264
f 585/529/264 582/526/262 584/528/264
f 584/528/264 583/527/263 586/530/263
f 587/531/262 582/526/262 585/529/264
f 588/532/265 586/530/263 583/527/263
f 582/526/262 587/531/262 589/533/248
f 590/534/266 586/530/263 588/532/265
f 582/526/262 591/535/248 583/527/263
f 589/533/248 591/535/248 582/526/262
f 589/533/248 587/531/262 592/536/248
f 593/537/252 590/534/266 588/532/265
f 591/535/248 594/538/248 583/527/263
f 583/527/263 594/538/248 588/532/265
f 595/539/251 590/534/266 593/537/252
f 596/540/248 593/537/252 588/532/265
f 597/541/248 593/537/252 596/540/248
f 598/542/267 599/543/268 600/544/269
f 598/542/267 601/545/270 599/543/268
f 600/544/269 599/543/268 602/546/271
f 599/543/268 601/545/270 603/547/270
f 600/544/269 604/548/248 598/542/267
f 602/546/271 605/549/272 600/544/269
f 606/550/248 604/548/248 600/544/269
f 607/551/273 605/549/272 602/546/271
f 605/549/272 608/552/248 600/544/269
f 607/551/273 609/553/247 605/549/272
f 610/554/248 608/552/248 605/549/272
f 611/555/274 609/553/247 607/551/273
f 605/549/272 609/553/247 612/556/248
f 612/556/248 609/553/247 613/557/248
f 614/558/275 615/559/276 616/560/275
f 617/561/277 614/558/275 616/560/275
f 616/560/275 615/559/276 618/562/278
f 619/563/279 614/558/275 617/561/277
f 620/564/254 618/562/278 615/559/276
f 621/565/279 619/563/279 617/561/277
f 614/558/275 622/566/248 615/559/276
f 623/567/280 618/562/278 620/564/254
f 624/568/279 619/563/279 621/565/279
f 615/559/276 622/566/248 625/569/281
f 615/559/276 626/570/281 620/564/254
f 620/564/254 626/570/281 627/571/282
f 628/572/283 624/568/279 621/565/279
f 624/568/279 629/573/248 619/563/279
f 630/574/284 624/568/279 628/572/283
f 631/575/285 629/573/248 624/568/279
f 632/576/286 633/577/287 634/578/257
f 632/576/286 635/579/288 633/577/287
f 634/578/257 633/577/287 636/580/257
f 637/581/288 635/579/288 632/576/286
f 636/580/257 638/582/257 634/578/257
f 635/579/288 637/581/288 639/583/289
f 634/578/257 640/584/248 632/576/286
f 634/578/257 638/582/257 641/585/290
f 639/583/289 637/581/288 642/586/288
f 643/587/291 640/584/248 634/578/257
f 632/576/286 644/588/248 637/581/288
f 634/578/257 641/585/290 645/589/281
f 642/586/288 646/590/262 639/583/289
f 647/591/292 644/588/248 632/576/286
f 645/589/281 641/585/290 648/592/260
f 649/593/262 646/590/262 642/586/288
f 650/594/248 649/593/262 642/586/288
f 651/595/248 649/593/262 650/594/248
f 652/596/248 653/597/248 654/598/248
f 654/598/248 655/599/248 652/596/248
f 654/598/248 653/597/248 656/600/248
f 652/596/248 655/599/248 657/601/248
f 656/600/248 658/602/267 654/598/248
f 653/597/248 659/603/248 656/600/248
f 660/604/248 657/601/248 655/599/248
f 661/605/293 658/602/267 656/600/248
f 656/600/248 659/603/248 661/605/293
f 662/606/248 659/603/248 653/597/248
f 663/607/248 657/601/248 660/604/248
f 661/605/293 659/603/248 664/608/279
f 659/603/248 662/606/248 665/609/248
f 666/610/248 663/607/248 660/604/248
f 665/609/248 662/606/248 667/611/248
f 668/612/248 663/607/248 666/610/248
f 665/609/248 667/611/248 669/613/248
f 662/606/248 670/614/288 667/611/248
f 671/615/248 668/612/248 666/610/248
f 669/613/248 672/616/275 665/609/248
f 665/609/248 672/616/275 673/617/279
f 667/611/248 670/614/288 674/618/288
f 675/619/248 668/612/248 671/615/248
f 669/613/248 667/611/248 676/620/248
f 671/615/248 677/621/248 675/619/248
f 678/622/248 677/621/248 671/615/248
f 676/620/248 679/623/281 669/613/248
f 669/613/248 679/623/281 680/624/281
f 680/624/281 679/623/281 681/625/260
f 681/625/260 679/623/281 682/626/261
f 682/626/261 683/627/260 681/625/260
f 681/625/260 683/627/260 684/628/260
