# Blender 4.1.1
# www.blender.org
mtllib pic.mtl
o pictureFrame3_room:ST_Bonnie_Woody_Jordan:bonnTrash_pla_1db6534
v 0.106990 0.111430 -0.142280
v 0.106990 0.111430 -0.119126
v 0.103612 0.111430 -0.142280
v 0.103612 0.111430 -0.119126
v 0.103612 0.130815 -0.142280
v 0.103612 0.130815 -0.119126
v 0.106990 0.130815 -0.142280
v 0.106990 0.130815 -0.119126
v 0.106990 0.111430 -0.119126
v 0.106990 0.130815 -0.119126
v 0.103612 0.111430 -0.119126
v 0.103612 0.130815 -0.119126
v 0.106990 0.130815 -0.142280
v 0.106990 0.111430 -0.142280
v 0.103612 0.130815 -0.142280
v 0.103612 0.111430 -0.142280
v 0.103612 0.111430 -0.119126
v 0.103616 0.112205 -0.119914
v 0.103612 0.111430 -0.142280
v 0.103616 0.112205 -0.141505
v 0.103644 0.113333 -0.121183
v 0.103644 0.113333 -0.140258
v 0.103895 0.113979 -0.121910
v 0.103895 0.113979 -0.139544
v 0.104601 0.114414 -0.139062
v 0.104601 0.114414 -0.122400
v 0.103612 0.111430 -0.119126
v 0.103612 0.130815 -0.119126
v 0.103616 0.112205 -0.119914
v 0.103616 0.130039 -0.119914
v 0.103644 0.113333 -0.121183
v 0.103644 0.128908 -0.121183
v 0.103895 0.113979 -0.121910
v 0.103895 0.128260 -0.121910
v 0.104601 0.114414 -0.122400
v 0.104601 0.127824 -0.122400
v 0.103612 0.130815 -0.119126
v 0.103612 0.130815 -0.142280
v 0.103616 0.130039 -0.119914
v 0.103616 0.130039 -0.141505
v 0.103644 0.128908 -0.121183
v 0.103644 0.128908 -0.140258
v 0.103895 0.128260 -0.121910
v 0.103895 0.128260 -0.139544
v 0.104601 0.127824 -0.122400
v 0.104601 0.127824 -0.139062
v 0.103612 0.130815 -0.142280
v 0.103612 0.111430 -0.142280
v 0.103616 0.130039 -0.141505
v 0.103616 0.112205 -0.141505
v 0.103644 0.128908 -0.140258
v 0.103644 0.113333 -0.140258
v 0.103895 0.128260 -0.139544
v 0.103895 0.113979 -0.139544
v 0.104601 0.127824 -0.139062
v 0.104601 0.114414 -0.139062
v 0.104614 0.115292 -0.138417
v 0.104614 0.115292 -0.123056
v 0.105181 0.115292 -0.138417
v 0.105181 0.115292 -0.123056
v 0.104614 0.115292 -0.123056
v 0.104614 0.126945 -0.123056
v 0.105181 0.115292 -0.123056
v 0.105181 0.126945 -0.123056
v 0.104614 0.126945 -0.123056
v 0.104614 0.126945 -0.138417
v 0.105181 0.126945 -0.123056
v 0.105181 0.126945 -0.138417
v 0.104614 0.126945 -0.138417
v 0.104614 0.115292 -0.138417
v 0.105181 0.126945 -0.138417
v 0.105181 0.115292 -0.138417
v 0.104614 0.115292 -0.138417
v 0.104614 0.126945 -0.138417
v 0.104601 0.114414 -0.139062
v 0.104601 0.127824 -0.139062
v 0.104614 0.126945 -0.138417
v 0.104614 0.126945 -0.123056
v 0.104601 0.127824 -0.139062
v 0.104601 0.127824 -0.122400
v 0.104614 0.126945 -0.123056
v 0.104614 0.115292 -0.123056
v 0.104601 0.127824 -0.122400
v 0.104601 0.114414 -0.122400
v 0.104614 0.115292 -0.138417
v 0.104601 0.114414 -0.139062
v 0.104614 0.115292 -0.123056
v 0.104601 0.114414 -0.122400
vn -0.0000 -1.0000 -0.0000
vn -0.0000 1.0000 -0.0000
vn -0.0000 -0.0000 1.0000
vn -0.0000 -0.0000 -1.0000
vn -1.0000 0.0051 -0.0000
vn -0.9999 0.0147 -0.0000
vn -0.9805 0.1964 -0.0000
vn -0.7682 0.6402 -0.0000
vn -0.5248 0.8512 -0.0000
vn -1.0000 -0.0000 -0.0050
vn -0.9999 -0.0000 -0.0133
vn -0.9843 -0.0000 -0.1764
vn -0.7968 -0.0000 -0.6043
vn -0.5698 -0.0000 -0.8218
vn -1.0000 -0.0051 -0.0000
vn -0.9999 -0.0146 -0.0000
vn -0.9999 -0.0147 -0.0000
vn -0.9806 -0.1960 -0.0000
vn -0.7688 -0.6395 -0.0000
vn -0.5256 -0.8507 -0.0000
vn -1.0000 -0.0000 0.0051
vn -0.9999 -0.0000 0.0135
vn -0.9838 -0.0000 0.1792
vn -0.7927 -0.0000 0.6096
vn -0.5632 -0.0000 0.8263
vn -0.9998 -0.0000 0.0200
vn -0.9998 -0.0000 -0.0197
vt 0.874583 0.917152
vt 0.874583 0.534069
vt 0.930470 0.917152
vt 0.930470 0.534069
vt 0.930855 0.534069
vt 0.930855 0.917152
vt 0.874968 0.534069
vt 0.874968 0.917152
vt 0.875283 0.854790
vt 0.875283 0.534069
vt 0.931170 0.854790
vt 0.931170 0.534069
vt 0.874544 0.854790
vt 0.874544 0.534069
vt 0.930431 0.854790
vt 0.930431 0.534069
vt 0.264130 0.866020
vt 0.235069 0.845500
vt 0.202720 0.191247
vt 0.177805 0.216286
vt 0.192430 0.812099
vt 0.141839 0.256207
vt 0.168006 0.792973
vt 0.121237 0.279081
vt 0.107352 0.294512
vt 0.151545 0.780098
vt 0.203321 0.201253
vt 0.267571 0.908583
vt 0.181809 0.231708
vt 0.240917 0.882441
vt 0.146794 0.276391
vt 0.198416 0.844709
vt 0.126743 0.301987
vt 0.174077 0.823093
vt 0.113246 0.319237
vt 0.157690 0.808528
vt 0.201126 0.179496
vt 0.263636 0.874920
vt 0.175399 0.205678
vt 0.233688 0.854149
vt 0.138261 0.247430
vt 0.189758 0.820336
vt 0.116987 0.271341
vt 0.164593 0.800960
vt 0.102650 0.287439
vt 0.147634 0.787887
vt 0.198019 0.159195
vt 0.269188 0.892970
vt 0.176313 0.190965
vt 0.241788 0.866027
vt 0.140944 0.237594
vt 0.198126 0.827157
vt 0.120676 0.264304
vt 0.173108 0.804892
vt 0.107001 0.282304
vt 0.156232 0.789887
vt 0.078526 0.316087
vt 0.119268 0.763757
vt 0.078526 0.316103
vt 0.119268 0.763773
vt 0.096113 0.353064
vt 0.134736 0.778271
vt 0.096129 0.353065
vt 0.134752 0.778272
vt 0.072881 0.309980
vt 0.114352 0.771351
vt 0.072881 0.309963
vt 0.114353 0.771334
vt 0.089792 0.317562
vt 0.132575 0.758666
vt 0.089774 0.317562
vt 0.132557 0.758666
s 1
g pictureFrame3_room:ST_Bonnie_Woody_Jordan:bonnTrash_pla_1db6534_room:ST_Bonnie_Woody_Jordan:bonnTrash_plastic_DiningRoomChair_V
usemtl room:ST_Bonnie_Woody_Jordan:bonnTrash_plastic_DiningRoomChair_V
f 1/1/1 2/2/1 3/3/1
f 3/3/1 2/2/1 4/4/1
f 5/5/2 6/6/2 7/7/2
f 7/7/2 6/6/2 8/8/2
f 9/9/3 10/10/3 11/11/3
f 11/11/3 10/10/3 12/12/3
f 13/13/4 14/14/4 15/15/4
f 15/15/4 14/14/4 16/16/4
f 17/17/5 18/18/6 19/19/5
f 19/19/5 18/18/6 20/20/6
f 18/18/6 21/21/7 20/20/6
f 20/20/6 21/21/7 22/22/7
f 21/21/7 23/23/8 22/22/7
f 22/22/7 23/23/8 24/24/8
f 24/24/8 23/23/8 25/25/9
f 25/25/9 23/23/8 26/26/9
f 27/27/10 28/28/10 29/29/11
f 29/29/11 28/28/10 30/30/11
f 29/29/11 30/30/11 31/31/12
f 31/31/12 30/30/11 32/32/12
f 31/31/12 32/32/12 33/33/13
f 33/33/13 32/32/12 34/34/13
f 33/33/13 34/34/13 35/35/14
f 35/35/14 34/34/13 36/36/14
f 37/37/15 38/38/15 39/39/16
f 39/39/16 38/38/15 40/40/17
f 39/39/16 40/40/17 41/41/18
f 41/41/18 40/40/17 42/42/18
f 41/41/18 42/42/18 43/43/19
f 43/43/19 42/42/18 44/44/19
f 43/43/19 44/44/19 45/45/20
f 45/45/20 44/44/19 46/46/20
f 47/47/21 48/48/21 49/49/22
f 49/49/22 48/48/21 50/50/22
f 49/49/22 50/50/22 51/51/23
f 51/51/23 50/50/22 52/52/23
f 51/51/23 52/52/23 53/53/24
f 53/53/24 52/52/23 54/54/24
f 53/53/24 54/54/24 55/55/25
f 55/55/25 54/54/24 56/56/25
f 57/57/2 58/58/2 59/59/2
f 59/59/2 58/58/2 60/60/2
f 61/61/4 62/62/4 63/63/4
f 63/63/4 62/62/4 64/64/4
f 65/65/1 66/66/1 67/67/1
f 67/67/1 66/66/1 68/68/1
f 69/69/3 70/70/3 71/71/3
f 71/71/3 70/70/3 72/72/3
f 73/70/26 74/69/26 75/56/26
f 75/56/26 74/69/26 76/55/26
f 77/66/17 78/65/17 79/46/17
f 79/46/17 78/65/17 80/45/17
f 81/62/27 82/61/27 83/36/27
f 83/36/27 82/61/27 84/35/27
f 85/57/6 86/25/6 87/58/6
f 87/58/6 86/25/6 88/26/6
