# Blender 4.1.1
# www.blender.org
mtllib RockCliff.mtl
o GUI_Map_Cliffside2:GUI_Map_Cliffside_GUI_Map_Cliffside2_05bbf8d
v 0.029981 0.000408 -0.022337
v 0.029474 0.000407 -0.022418
v 0.029914 0.000303 -0.022127
v 0.029318 0.000290 -0.022217
v 0.029893 0.000202 -0.022064
v 0.030725 0.000219 -0.021956
v 0.030728 0.000001 -0.021944
v 0.029891 0.000001 -0.022058
v 0.029264 0.000186 -0.022162
v 0.030736 0.000318 -0.022022
v 0.030853 0.000219 -0.021909
v 0.030774 0.000409 -0.022214
v 0.029380 0.000409 -0.022478
v 0.030869 0.000320 -0.021976
v 0.030905 0.000407 -0.022157
v 0.029215 0.000286 -0.022270
v 0.031658 0.000311 -0.021453
v 0.028927 0.000410 -0.022861
v 0.031750 0.000404 -0.021566
v 0.029174 0.000186 -0.022219
v 0.028719 0.000299 -0.022700
v 0.031619 0.000203 -0.021406
v 0.032093 0.000310 -0.021122
v 0.028708 0.000409 -0.023250
v 0.030856 0.000001 -0.021897
v 0.032201 0.000404 -0.021225
v 0.028926 0.000458 -0.022913
v 0.032432 0.000309 -0.020797
v 0.031779 0.000457 -0.021579
v 0.028446 0.000286 -0.023174
v 0.031614 0.000001 -0.021401
v 0.032048 0.000203 -0.021079
v 0.028666 0.000202 -0.022659
v 0.028432 0.000285 -0.023308
v 0.032384 0.000203 -0.020758
v 0.032044 0.000001 -0.021074
v 0.028695 0.000409 -0.023375
v 0.032378 0.000001 -0.020754
v 0.032883 0.000324 -0.020120
v 0.028688 0.000410 -0.023511
v 0.028369 0.000186 -0.023289
v 0.032986 0.000406 -0.020226
v 0.032837 0.000220 -0.020074
v 0.028398 0.000289 -0.023587
v 0.032555 0.000405 -0.020893
v 0.028324 0.000192 -0.023650
v 0.032994 0.000328 -0.020128
v 0.028365 0.000001 -0.023291
v 0.032242 0.000461 -0.021223
v 0.033089 0.000406 -0.020227
v 0.028377 0.000001 -0.023159
v 0.032602 0.000461 -0.020883
v 0.033172 0.000329 -0.020021
v 0.028312 0.000001 -0.023713
v 0.028382 0.000186 -0.023157
v 0.033260 0.000413 -0.020132
v 0.033137 0.000221 -0.019966
v 0.028309 0.000194 -0.024158
v 0.028660 0.000001 -0.022655
v 0.033353 0.000441 -0.020081
v 0.028361 0.000287 -0.024119
v 0.033271 0.000330 -0.019926
v 0.032938 0.000221 -0.020081
v 0.028425 0.000300 -0.024752
v 0.032933 0.000001 -0.020070
v 0.028664 0.000409 -0.024691
v 0.028360 0.000202 -0.024769
v 0.033135 0.000001 -0.019956
v 0.028299 0.000001 -0.024215
v 0.028895 0.000409 -0.025336
v 0.033225 0.000219 -0.019878
v 0.028690 0.000301 -0.025466
v 0.033223 0.000001 -0.019867
v 0.029306 0.000411 -0.025912
v 0.028353 0.000001 -0.024771
v 0.033374 0.000204 -0.019434
v 0.028690 0.000454 -0.024727
v 0.029063 0.000301 -0.026084
v 0.033426 0.000318 -0.019456
v 0.028912 0.000456 -0.025343
v 0.029733 0.000302 -0.026523
v 0.033368 0.000001 -0.019431
v 0.033520 0.000400 -0.019496
v 0.029860 0.000409 -0.026321
v 0.033780 0.000204 -0.018415
v 0.033842 0.000396 -0.018555
v 0.030639 0.000301 -0.026743
v 0.033777 0.000001 -0.018410
v 0.033804 0.000327 -0.018483
v 0.030723 0.000409 -0.026516
v 0.033873 0.000001 -0.018350
v 0.031317 0.000312 -0.026833
v 0.029325 0.000457 -0.025920
v 0.033876 0.000204 -0.018355
v 0.031331 0.000411 -0.026580
v 0.033908 0.000323 -0.018408
v 0.031402 0.000309 -0.026798
v 0.029877 0.000459 -0.026325
v 0.029877 0.000459 -0.026325
v 0.033947 0.000398 -0.018489
v 0.031397 0.000215 -0.026867
v 0.030757 0.000463 -0.026524
v 0.034654 0.000321 -0.018464
v 0.031811 0.000289 -0.026825
v 0.031311 0.000218 -0.026902
v 0.034687 0.000207 -0.018411
v 0.031391 0.000001 -0.026877
v 0.034606 0.000400 -0.018555
v 0.031836 0.000189 -0.026889
v 0.034748 0.000328 -0.018559
v 0.034690 0.000001 -0.018406
v 0.031843 0.000001 -0.026893
v 0.034701 0.000397 -0.018641
v 0.034780 0.000001 -0.018478
v 0.031974 0.000186 -0.026867
v 0.035091 0.000314 -0.019785
v 0.034776 0.000207 -0.018483
v 0.031981 0.000001 -0.026870
v 0.034967 0.000402 -0.019801
v 0.035157 0.000001 -0.019776
v 0.032753 0.000202 -0.026647
v 0.035337 0.000404 -0.020730
v 0.035151 0.000204 -0.019777
v 0.032755 0.000001 -0.026654
v 0.035486 0.000310 -0.020703
v 0.035547 0.000203 -0.020692
v 0.033600 0.000001 -0.026185
v 0.035428 0.000404 -0.021338
v 0.033596 0.000202 -0.026179
v 0.035554 0.000001 -0.020691
v 0.035605 0.000294 -0.021330
v 0.034086 0.000202 -0.025720
v 0.032732 0.000298 -0.026583
v 0.035599 0.000295 -0.021470
v 0.034285 0.000001 -0.025544
v 0.033562 0.000300 -0.026121
v 0.035667 0.000187 -0.021326
v 0.034280 0.000202 -0.025539
v 0.035663 0.000186 -0.021463
v 0.035671 0.000001 -0.021322
v 0.034772 0.000001 -0.024754
v 0.034229 0.000302 -0.025497
v 0.035667 0.000001 -0.021459
v 0.034766 0.000202 -0.024750
v 0.033433 0.000409 -0.025906
v 0.035470 0.000001 -0.022272
v 0.035127 0.000001 -0.023463
v 0.032645 0.000410 -0.026321
v 0.035463 0.000203 -0.022273
v 0.035121 0.000203 -0.023461
v 0.031951 0.000285 -0.026805
v 0.034709 0.000304 -0.024718
v 0.035397 0.000312 -0.022285
v 0.031863 0.000409 -0.026540
v 0.034054 0.000409 -0.025348
v 0.035424 0.000404 -0.021480
v 0.035063 0.000309 -0.023438
v 0.035250 0.000403 -0.022310
v 0.034530 0.000407 -0.024615
v 0.031726 0.000409 -0.026565
v 0.034916 0.000405 -0.023380
v 0.034905 0.000463 -0.023383
v 0.031417 0.000411 -0.026541
v 0.034514 0.000462 -0.024618
v 0.035421 0.000464 -0.021478
v 0.035238 0.000463 -0.022323
v 0.028728 0.000459 -0.023265
v 0.034038 0.000461 -0.025347
v 0.033423 0.000461 -0.025901
v 0.032634 0.000461 -0.026316
v 0.029380 0.000462 -0.022517
v 0.029523 0.000816 -0.022618
v 0.028926 0.000458 -0.022913
v 0.029476 0.000463 -0.022459
v 0.029072 0.000857 -0.023215
v 0.029602 0.000809 -0.022555
v 0.028927 0.000410 -0.022861
v 0.028728 0.000459 -0.023265
v 0.029993 0.000461 -0.022360
v 0.029205 0.000859 -0.023258
v 0.029380 0.000409 -0.022478
v 0.030253 0.000789 -0.022502
v 0.029584 0.000836 -0.022703
v 0.030766 0.000455 -0.022251
v 0.029474 0.000407 -0.022418
v 0.029981 0.000408 -0.022337
v 0.030795 0.000781 -0.022576
v 0.029696 0.000845 -0.022949
v 0.029678 0.000831 -0.022640
v 0.030774 0.000409 -0.022214
v 0.029274 0.000864 -0.023435
v 0.030899 0.000456 -0.022199
v 0.029163 0.000817 -0.023406
v 0.029791 0.000841 -0.022887
v 0.030905 0.000407 -0.022157
v 0.029114 0.000807 -0.023327
v 0.030340 0.000811 -0.022600
v 0.030918 0.000855 -0.022632
v 0.030465 0.000831 -0.022941
v 0.031961 0.000963 -0.021956
v 0.028715 0.000452 -0.023507
v 0.030701 0.000793 -0.022681
v 0.031779 0.000457 -0.021579
v 0.028700 0.000451 -0.023654
v 0.032242 0.000461 -0.021223
v 0.029279 0.000899 -0.023526
v 0.030543 0.000887 -0.022936
v 0.032538 0.001143 -0.021507
v 0.028644 0.000455 -0.024095
v 0.031045 0.001460 -0.023085
v 0.032508 0.001394 -0.021871
v 0.029332 0.001153 -0.024044
v 0.031420 0.001433 -0.022804
v 0.032820 0.001075 -0.021129
v 0.028690 0.000454 -0.024727
v 0.032108 0.001392 -0.022234
v 0.032602 0.000461 -0.020883
v 0.029487 0.001125 -0.025122
v 0.031157 0.001502 -0.023162
v 0.033067 0.001051 -0.020741
v 0.028912 0.000456 -0.025343
v 0.031044 0.001501 -0.023153
v 0.033026 0.000460 -0.020280
v 0.029325 0.000457 -0.025920
v 0.031153 0.001761 -0.023437
v 0.033133 0.000459 -0.020291
v 0.029821 0.001106 -0.025637
v 0.031459 0.001514 -0.023536
v 0.033144 0.001045 -0.020786
v 0.029877 0.000459 -0.026325
v 0.031791 0.001476 -0.023221
v 0.033296 0.000462 -0.020161
v 0.033138 0.001060 -0.020850
v 0.030362 0.001102 -0.026041
v 0.031512 0.001459 -0.022872
v 0.030757 0.000463 -0.026524
v 0.032391 0.001435 -0.022609
v 0.032889 0.001084 -0.021208
v 0.031397 0.001110 -0.026348
v 0.032172 0.001419 -0.022328
v 0.032653 0.001161 -0.021543
v 0.031328 0.000464 -0.026582
v 0.032776 0.001385 -0.022232
v 0.033054 0.001118 -0.021418
v 0.030441 0.001131 -0.025934
v 0.032569 0.001379 -0.021986
v 0.032859 0.001170 -0.021791
v 0.029939 0.001125 -0.025593
v 0.032816 0.001375 -0.022096
v 0.032613 0.001179 -0.021655
v 0.031428 0.001116 -0.026251
v 0.032633 0.001371 -0.021879
v 0.031437 0.001043 -0.026260
v 0.032819 0.001186 -0.021901
v 0.032947 0.001230 -0.021866
v 0.033116 0.001158 -0.021499
v 0.031533 0.001143 -0.026121
v 0.032907 0.001457 -0.022229
v 0.030559 0.001139 -0.025788
v 0.030664 0.001239 -0.025738
v 0.032448 0.001504 -0.022687
v 0.030409 0.001156 -0.025664
v 0.033139 0.002345 -0.022467
v 0.031660 0.001215 -0.026057
v 0.030543 0.001237 -0.025664
v 0.031710 0.001179 -0.026063
v 0.030663 0.001501 -0.025623
v 0.032438 0.001501 -0.025763
v 0.030005 0.001501 -0.024878
v 0.029738 0.001160 -0.024979
v 0.032634 0.000461 -0.026316
v 0.030422 0.002273 -0.024630
v 0.029832 0.001231 -0.024928
v 0.031843 0.000459 -0.026535
v 0.030972 0.002267 -0.025476
v 0.031614 0.001076 -0.026186
v 0.030558 0.002337 -0.024639
v 0.030033 0.001501 -0.024446
v 0.030243 0.001810 -0.024553
v 0.031075 0.002333 -0.025458
v 0.030782 0.001501 -0.025693
v 0.029830 0.001236 -0.024318
v 0.031704 0.000461 -0.026560
v 0.031082 0.002263 -0.025544
v 0.030088 0.001501 -0.024334
v 0.031705 0.001501 -0.025915
v 0.029886 0.001232 -0.024199
v 0.030333 0.001852 -0.024457
v 0.031413 0.000462 -0.026539
v 0.031707 0.002272 -0.025622
v 0.030469 0.001501 -0.024073
v 0.030767 0.001860 -0.024180
v 0.031331 0.000411 -0.026580
v 0.030484 0.002275 -0.024563
v 0.032284 0.002307 -0.025418
v 0.031031 0.002274 -0.024304
v 0.032949 0.002240 -0.025051
v 0.030723 0.000409 -0.026516
v 0.033161 0.001501 -0.025425
v 0.032091 0.002347 -0.025397
v 0.033423 0.000461 -0.025901
v 0.032199 0.002379 -0.025381
v 0.034038 0.000461 -0.025347
v 0.032263 0.002941 -0.025063
v 0.031092 0.002338 -0.024385
v 0.033646 0.001501 -0.024938
v 0.032169 0.002940 -0.025088
v 0.032192 0.003004 -0.024946
v 0.033666 0.002426 -0.024024
v 0.031673 0.002338 -0.025529
v 0.031658 0.002928 -0.024001
v 0.032694 0.002943 -0.024724
v 0.031579 0.002344 -0.024134
v 0.031491 0.002343 -0.024179
v 0.031652 0.002930 -0.023933
v 0.033460 0.002933 -0.024062
v 0.031458 0.002278 -0.024088
v 0.031520 0.002318 -0.024004
v 0.033386 0.003002 -0.024018
v 0.031473 0.002274 -0.023893
v 0.032639 0.003003 -0.024633
v 0.031354 0.001895 -0.023972
v 0.031396 0.001897 -0.023875
v 0.032123 0.003002 -0.023665
v 0.031725 0.002997 -0.023944
v 0.031307 0.001823 -0.023872
v 0.032591 0.003002 -0.023307
v 0.032081 0.002934 -0.023591
v 0.031377 0.001892 -0.023823
v 0.032545 0.002934 -0.023235
v 0.031677 0.002929 -0.023871
v 0.031992 0.002240 -0.023475
v 0.032655 0.002936 -0.023239
v 0.031502 0.002245 -0.023783
v 0.032704 0.002529 -0.023090
v 0.031542 0.001573 -0.023581
v 0.032640 0.002429 -0.023032
v 0.033462 0.002935 -0.023968
v 0.031405 0.001849 -0.023718
v 0.033601 0.002528 -0.023937
v 0.031323 0.001774 -0.023657
v 0.031849 0.001546 -0.023293
v 0.033652 0.002438 -0.023992
v 0.031237 0.001812 -0.023730
v 0.030824 0.001809 -0.024066
v 0.031079 0.001802 -0.023524
v 0.030611 0.001799 -0.023793
v 0.031033 0.001798 -0.023414
v 0.030698 0.001795 -0.024066
v 0.032759 0.002459 -0.023015
v 0.033213 0.002410 -0.022526
v 0.030511 0.001785 -0.023819
v 0.034117 0.002411 -0.023224
v 0.030358 0.001501 -0.023646
v 0.030529 0.001788 -0.023718
v 0.033663 0.002458 -0.023875
v 0.030326 0.001204 -0.023258
v 0.030485 0.001501 -0.023962
v 0.030139 0.001243 -0.023557
v 0.030368 0.001164 -0.023181
v 0.030344 0.001501 -0.023756
v 0.030191 0.001171 -0.023227
v 0.030238 0.001170 -0.023164
v 0.030255 0.001239 -0.023849
v 0.030392 0.000886 -0.022966
v 0.030020 0.001192 -0.023584
v 0.030147 0.001250 -0.023683
v 0.029938 0.001181 -0.023165
v 0.029967 0.001141 -0.023087
v 0.030153 0.001178 -0.023876
v 0.029860 0.000904 -0.022916
v 0.029650 0.001170 -0.023614
v 0.029788 0.001172 -0.024135
v 0.029885 0.001154 -0.023115
v 0.029420 0.001168 -0.024034
v 0.029766 0.000903 -0.022960
v 0.029541 0.001164 -0.023561
v 0.029448 0.001163 -0.024175
v 0.029730 0.001172 -0.024263
v 0.029318 0.000916 -0.023481
v 0.029591 0.001130 -0.025087
v 0.030234 0.001227 -0.023960
v 0.033876 0.000455 -0.018578
v 0.034009 0.000680 -0.018828
v 0.033566 0.000457 -0.019483
v 0.034114 0.000671 -0.018760
v 0.033827 0.000822 -0.019664
v 0.034004 0.000454 -0.018509
v 0.033385 0.000498 -0.020107
v 0.034119 0.000735 -0.018877
v 0.033842 0.000396 -0.018555
v 0.034612 0.000454 -0.018574
v 0.033764 0.001431 -0.020447
v 0.033520 0.000400 -0.019496
v 0.033947 0.000398 -0.018489
v 0.033352 0.001187 -0.020922
v 0.033910 0.000916 -0.019739
v 0.034489 0.000674 -0.018813
v 0.033288 0.001106 -0.020904
v 0.033542 0.001578 -0.021285
v 0.034702 0.000459 -0.018672
v 0.034476 0.000737 -0.018931
v 0.034557 0.000861 -0.019626
v 0.033353 0.000441 -0.020081
v 0.033269 0.001117 -0.020968
v 0.033930 0.000861 -0.019617
v 0.033260 0.000413 -0.020132
v 0.034580 0.000670 -0.018904
v 0.034651 0.000828 -0.019707
v 0.034948 0.000460 -0.019763
v 0.033260 0.000413 -0.020132
v 0.035326 0.000462 -0.020707
v 0.033379 0.001682 -0.021905
v 0.033089 0.000406 -0.020227
v 0.034967 0.000402 -0.019801
v 0.033638 0.001642 -0.021351
v 0.034783 0.001427 -0.020558
v 0.034701 0.000397 -0.018641
v 0.033499 0.001719 -0.021883
v 0.035426 0.000463 -0.021335
v 0.035337 0.000404 -0.020730
v 0.034573 0.000914 -0.019751
v 0.033486 0.001797 -0.021977
v 0.035077 0.001558 -0.021638
v 0.034673 0.001449 -0.020484
v 0.035009 0.001635 -0.021707
v 0.035428 0.000404 -0.021338
v 0.033869 0.001461 -0.020421
v 0.034637 0.001715 -0.022515
v 0.035421 0.000464 -0.021478
v 0.033849 0.001515 -0.020544
v 0.034588 0.001786 -0.022596
v 0.035424 0.000404 -0.021480
v 0.033523 0.002304 -0.022174
v 0.035065 0.001570 -0.021776
v 0.034675 0.001681 -0.022638
v 0.033930 0.000861 -0.019617
v 0.034697 0.001499 -0.020612
v 0.034431 0.002307 -0.022741
v 0.034557 0.000861 -0.019626
v 0.033827 0.000822 -0.019664
v 0.034451 0.002305 -0.022842
v 0.034651 0.000828 -0.019707
v 0.034462 0.001501 -0.023491
v 0.034374 0.002376 -0.022819
v 0.034905 0.000463 -0.023383
v 0.035238 0.000463 -0.022323
v 0.033479 0.002378 -0.022250
v 0.033412 0.002310 -0.022187
v 0.034916 0.000405 -0.023380
v 0.034514 0.000462 -0.024618
v 0.035250 0.000403 -0.022310
v 0.034040 0.001501 -0.024441
v 0.034193 0.002346 -0.023283
v 0.033601 0.002528 -0.023937
v 0.032704 0.002529 -0.023090
v 0.033652 0.002438 -0.023992
v 0.032640 0.002429 -0.023032
v 0.034054 0.000409 -0.025348
v 0.034530 0.000407 -0.024615
v 0.032645 0.000410 -0.026321
v 0.031863 0.000409 -0.026540
v 0.031726 0.000409 -0.026565
v 0.031417 0.000411 -0.026541
v 0.031417 0.000411 -0.026541
v 0.028623 0.000409 -0.024082
v 0.028644 0.000455 -0.024095
v 0.028667 0.000408 -0.023705
v 0.028690 0.000454 -0.024727
v 0.028700 0.000451 -0.023654
v 0.033385 0.000498 -0.020107
v 0.033566 0.000457 -0.019483
v 0.031306 0.000001 -0.026912
v 0.030616 0.000202 -0.026805
v 0.030614 0.000001 -0.026811
v 0.029687 0.000202 -0.026574
v 0.029682 0.000001 -0.026579
v 0.029020 0.000202 -0.026135
v 0.029016 0.000001 -0.026140
v 0.028634 0.000202 -0.025501
v 0.028628 0.000001 -0.025505
v 0.029171 0.000001 -0.022217
v 0.029261 0.000001 -0.022159
v 0.032834 0.000001 -0.020064
v 0.028718 0.000454 -0.023391
v 0.028688 0.000410 -0.023511
v 0.028695 0.000409 -0.023375
v 0.028708 0.000409 -0.023250
v 0.028667 0.000408 -0.023705
v 0.028695 0.000409 -0.023375
v 0.032555 0.000405 -0.020893
v 0.032986 0.000406 -0.020226
v 0.032986 0.000406 -0.020226
v 0.033089 0.000406 -0.020227
v 0.031750 0.000404 -0.021566
v 0.030905 0.000407 -0.022157
v 0.033842 0.000396 -0.018555
v 0.034606 0.000400 -0.018555
v 0.034701 0.000397 -0.018641
v 0.029993 0.000461 -0.022360
v 0.029476 0.000463 -0.022459
vn -0.0684 0.9035 0.4230
vn -0.0798 0.8936 0.4416
vn -0.0685 0.9035 0.4230
vn -0.0798 0.8936 0.4417
vn -0.1319 0.0429 0.9903
vn -0.1570 0.0262 0.9872
vn -0.5474 0.0352 0.8361
vn -0.0685 0.9036 0.4229
vn -0.2577 0.9127 0.3171
vn -0.2750 0.8683 0.4128
vn -0.2750 0.8683 0.4127
vn -0.2578 0.9127 0.3171
vn -0.6523 0.0286 0.7574
vn -0.6053 0.0328 0.7953
vn -0.3626 0.8494 0.3834
vn -0.3588 0.9139 0.1896
vn -0.5474 0.0351 0.8362
vn -0.3625 0.8494 0.3834
vn -0.7160 0.5684 0.4052
vn -0.4307 0.8603 0.2727
vn -0.4505 0.6488 0.6133
vn -0.6053 0.0327 0.7953
vn -0.6908 0.0329 0.7223
vn -0.8703 0.0266 0.4918
vn -0.4035 0.9135 0.0517
vn -0.8337 0.0364 0.5510
vn -0.4035 0.9135 0.0516
vn -0.3942 0.9186 0.0266
vn -0.9922 0.0203 0.1230
vn -0.8338 0.0363 0.5509
vn -0.3942 0.9186 0.0265
vn -0.4307 0.8603 0.2728
vn -0.9984 0.0492 0.0284
vn -0.2674 0.8617 0.4313
vn -0.9922 0.0202 0.1230
vn -0.6134 0.4819 0.6257
vn -0.8703 0.0265 0.4917
vn -0.7324 0.4541 0.5074
vn -0.2675 0.8617 0.4313
vn -0.9984 0.0491 0.0284
vn -0.8704 0.0265 0.4917
vn -0.2675 0.8617 0.4312
vn -0.4958 0.0480 0.8671
vn -0.9984 0.0492 0.0283
vn -0.8703 0.0265 0.4918
vn -0.5985 0.7700 0.2211
vn -0.4136 0.9101 -0.0247
vn -0.4958 0.0479 0.8671
vn -0.4136 0.9101 -0.0246
vn -0.9943 0.0574 -0.0895
vn -0.3853 0.9120 -0.1407
vn -0.9482 0.0279 0.3164
vn -0.9482 0.0278 0.3164
vn -0.2193 0.9222 -0.3185
vn -0.9282 0.0263 0.3713
vn -0.6870 0.7207 -0.0930
vn -0.2194 0.9222 -0.3184
vn -0.6130 0.6624 -0.4306
vn -0.9281 0.0263 0.3713
vn -0.6401 0.7323 0.2325
vn -0.0559 0.9210 -0.3854
vn -0.9281 0.0262 0.3713
vn 0.0686 0.0269 0.9973
vn -0.0559 0.9210 -0.3855
vn -0.4628 0.6267 -0.6270
vn 0.0686 0.0229 0.9974
vn 0.0578 0.7440 0.6657
vn 0.0003 0.9197 -0.3926
vn -0.4627 0.6267 -0.6270
vn -0.0422 0.0334 -0.9986
vn -0.2246 0.4956 -0.8390
vn 0.0579 0.7440 0.6657
vn 0.0002 0.9197 -0.3926
vn -0.1412 0.0430 -0.9890
vn -0.0423 0.0349 -0.9985
vn 0.0579 0.7440 0.6656
vn -0.0423 0.0334 -0.9985
vn 0.6186 0.7702 0.1554
vn 0.0687 0.0229 0.9974
vn -0.0423 0.0333 -0.9985
vn 0.9600 0.0266 0.2787
vn 0.2694 0.0300 -0.9625
vn 0.9600 0.0266 0.2786
vn 0.2694 0.0299 -0.9626
vn 0.2695 0.0300 -0.9625
vn 0.5234 0.8485 0.0778
vn 0.2695 0.0299 -0.9625
vn 0.9825 0.0303 0.1835
vn 0.4855 0.0351 -0.8736
vn 0.4855 0.0349 -0.8736
vn 0.9825 0.0302 0.1836
vn 0.6506 0.3048 -0.6956
vn 0.0985 0.9198 -0.3799
vn 0.5325 0.8388 -0.1133
vn 0.8507 0.0343 -0.5245
vn 0.1856 0.9207 -0.3432
vn 0.9826 0.0302 0.1835
vn 0.8507 0.0344 -0.5245
vn 0.9711 0.0262 -0.2374
vn 0.8507 0.0346 -0.5245
vn 0.3682 0.8999 -0.2336
vn 0.9711 0.0261 -0.2374
vn 0.1855 0.9207 -0.3432
vn 0.9605 0.0326 -0.2764
vn 0.9605 0.0327 -0.2764
vn 0.3682 0.8999 -0.2335
vn 0.5159 0.8424 -0.1555
vn 0.3682 0.9000 -0.2335
vn 0.8937 0.3445 -0.2874
vn 0.7283 0.4495 -0.5172
vn 0.9140 0.2848 -0.2890
vn 0.8937 0.3445 -0.2873
vn 0.7283 0.4494 -0.5173
vn 0.3917 0.4762 -0.7873
vn 0.1752 0.5199 -0.8361
vn -0.6103 0.5430 0.5768
vn -0.6103 0.5431 0.5767
vn -0.7160 0.5685 0.4053
vn -0.1121 0.3877 0.9149
vn -0.7160 0.5685 0.4052
vn -0.0145 0.5855 0.8105
vn 0.0061 0.9993 0.0358
vn -0.0145 0.5856 0.8105
vn -0.0146 0.5856 0.8105
vn -0.0798 0.8937 0.4416
vn -0.0684 0.9036 0.4229
vn 0.0228 0.9978 0.0624
vn -0.0685 0.9036 0.4230
vn -0.5291 0.8484 0.0153
vn 0.0229 0.9978 0.0624
vn -0.4856 0.8384 -0.2475
vn 0.0686 0.9940 0.0857
vn -0.4835 0.5973 0.6398
vn 0.0687 0.9939 0.0857
vn -0.7550 0.6558 0.0021
vn 0.0686 0.9940 0.0858
vn -0.6730 0.7136 0.1945
vn -0.3504 0.4734 0.8082
vn -0.5751 0.6269 0.5256
vn -0.5752 0.6268 0.5256
vn -0.4836 0.5974 0.6398
vn -0.7324 0.4541 0.5073
vn -0.6870 0.7207 -0.0929
vn -0.7324 0.4542 0.5073
vn -0.6130 0.6625 -0.4306
vn 0.6304 0.5717 0.5251
vn -0.4503 0.6861 0.5715
vn -0.1720 0.6986 0.6946
vn -0.1720 0.6986 0.6945
vn 0.0484 0.9958 0.0780
vn -0.1631 0.9788 0.1240
vn -0.2246 0.4955 -0.8391
vn 0.0442 0.9961 0.0770
vn -0.1630 0.9788 0.1240
vn 0.0442 0.9961 0.0769
vn 0.0605 0.9880 0.1421
vn -0.0949 0.3483 -0.9326
vn 0.0441 0.9961 0.0770
vn -0.1631 0.9788 0.1241
vn -0.0530 0.9938 -0.0975
vn 0.0604 0.9880 0.1421
vn 0.6233 0.5681 0.5374
vn 0.6232 0.5681 0.5375
vn 0.3733 0.6110 -0.6981
vn 0.3733 0.6109 -0.6981
vn -0.6376 0.6453 0.4209
vn -0.6204 0.6325 0.4637
vn -0.2464 0.3778 -0.8925
vn -0.6322 0.3491 0.6917
vn -0.6431 0.3470 0.6826
vn 0.1850 0.4136 -0.8915
vn -0.6529 0.4611 -0.6009
vn -0.6529 0.4610 -0.6009
vn -0.7907 0.5266 -0.3123
vn -0.0902 0.9953 -0.0360
vn 0.1753 0.5199 -0.8361
vn -0.7906 0.5267 -0.3123
vn 0.1752 0.5198 -0.8361
vn -0.7029 0.4685 -0.5352
vn -0.0040 1.0000 -0.0047
vn -0.8658 0.4991 -0.0350
vn -0.8658 0.4992 -0.0351
vn 0.0663 0.4809 -0.8743
vn -0.1822 0.3054 -0.9346
vn -0.4234 0.6011 0.6779
vn 0.1849 0.4136 -0.8915
vn -0.4233 0.6011 0.6778
vn -0.4187 0.4458 0.7912
vn -0.1823 0.3054 -0.9346
vn -0.4233 0.6011 0.6779
vn -0.0558 0.9210 -0.3855
vn -0.3826 0.4291 0.8182
vn 0.4964 0.4739 -0.7274
vn 0.4964 0.4738 -0.7273
vn 0.4191 0.4625 -0.7813
vn -0.0154 0.9999 -0.0064
vn -0.8839 0.1956 -0.4248
vn 0.7283 0.4495 -0.5173
vn -0.0039 1.0000 -0.0047
vn -0.0058 1.0000 0.0013
vn 0.6574 0.5223 -0.5431
vn -0.0039 1.0000 -0.0048
vn -0.8839 0.1957 -0.4248
vn 0.4964 0.4739 -0.7273
vn -0.8839 0.1956 -0.4249
vn -0.0154 0.9999 -0.0063
vn -0.9260 0.2341 -0.2963
vn 0.6663 0.4037 -0.6269
vn -0.3900 0.3962 0.8312
vn -0.9259 0.2342 -0.2963
vn 0.0003 1.0000 0.0009
vn -0.9260 0.2342 -0.2963
vn -0.9306 0.1747 -0.3217
vn 0.0002 1.0000 0.0010
vn -0.4209 0.8841 0.2029
vn -0.6009 0.2121 0.7706
vn -0.6009 0.2121 0.7707
vn -0.5358 0.2232 0.8143
vn 0.6473 0.3033 0.6993
vn -0.5358 0.2231 0.8143
vn -0.6345 0.3159 0.7054
vn 0.6474 0.3032 0.6993
vn -0.4953 0.2227 0.8397
vn 0.6474 0.3032 0.6992
vn -0.6322 0.3492 0.6917
vn 0.7692 0.6309 -0.1020
vn -0.0239 0.9994 0.0245
vn -0.0240 0.9994 0.0245
vn -0.4747 0.5307 0.7022
vn -0.5279 0.8479 -0.0485
vn 0.0429 0.9979 0.0492
vn 0.0450 0.9970 0.0630
vn -0.5406 0.8297 -0.1389
vn 0.0451 0.9970 0.0630
vn -0.4515 0.6840 0.5730
vn -0.4746 0.5308 0.7022
vn 0.0429 0.9979 0.0491
vn -0.7982 0.5438 -0.2592
vn -0.4503 0.6860 0.5714
vn -0.8241 0.5144 -0.2371
vn -0.0159 0.9996 0.0225
vn 0.1291 0.5932 0.7946
vn -0.6593 0.7266 -0.1933
vn 0.1291 0.5932 0.7947
vn -0.6435 0.7388 -0.2003
vn -0.0159 0.9996 0.0226
vn -0.0077 0.9995 -0.0320
vn 0.1290 0.5932 0.7947
vn -0.0077 0.9995 -0.0319
vn -0.5890 0.6367 0.4977
vn -0.0076 0.9995 -0.0320
vn -0.5890 0.6366 0.4977
vn -0.5891 0.6367 0.4977
vn -0.0901 0.9953 -0.0360
vn -0.0902 0.9953 -0.0359
vn -0.5891 0.6367 0.4976
vn -0.7084 0.6580 0.2553
vn -0.7628 0.5266 0.3752
vn 0.0750 0.7622 0.6430
vn -0.7628 0.5267 0.3752
vn 0.0750 0.7621 0.6431
vn 0.0101 0.9853 0.1706
vn -0.6402 0.7322 0.2324
vn 0.0751 0.7621 0.6431
vn -0.5986 0.7700 0.2211
vn -0.7418 0.6066 0.2858
vn 0.0387 0.7937 0.6070
vn 0.0751 0.7622 0.6430
vn -0.7418 0.6067 0.2858
vn 0.7708 0.6111 0.1802
vn 0.0100 0.9853 0.1706
vn -0.2675 0.8616 0.4313
vn 0.8855 0.4007 0.2351
vn -0.6376 0.6452 0.4209
vn 0.6186 0.7702 0.1555
vn 0.0368 0.9897 0.1387
vn 0.0434 0.9941 0.0998
vn 0.0388 0.7937 0.6070
vn 0.4817 0.3253 0.8137
vn 0.0368 0.9896 0.1387
vn 0.0435 0.9941 0.0997
vn 0.4816 0.3253 0.8137
vn 0.9140 0.2849 -0.2890
vn 0.8937 0.3446 -0.2873
vn 0.8860 0.2984 -0.3550
vn 0.8937 0.3446 -0.2874
vn 0.5158 0.8425 -0.1555
vn 0.8859 0.2984 -0.3551
vn 0.6473 0.3032 0.6993
vn -0.6010 0.2121 0.7706
vn 0.3681 0.9000 -0.2335
vn 0.3681 0.9000 -0.2336
vn 0.0984 0.9198 -0.3799
vn 0.0984 0.9198 -0.3798
vn -0.4266 0.9030 0.0504
vn -0.6731 0.7135 0.1945
vn -0.1412 0.0448 -0.9890
vn -0.2413 0.0330 -0.9699
vn -0.5498 0.0345 -0.8346
vn -0.5498 0.0339 -0.8346
vn -0.5499 0.0345 -0.8346
vn -0.8531 0.0338 -0.5207
vn -0.1570 0.0262 0.9873
vn -0.8338 0.0364 0.5509
vn -0.7877 0.6125 -0.0663
vn -0.4034 0.9136 0.0516
vn -0.3587 0.9140 0.1896
vn -0.3942 0.9187 0.0266
vn -0.4307 0.8603 0.2726
vn -0.2750 0.8684 0.4127
vn -0.6401 0.7323 0.2324
vn -0.0146 0.5855 0.8105
vn -0.1120 0.3877 0.9149
vt 0.266660 0.473271
vt 0.218596 0.483114
vt 0.262138 0.450591
vt 0.204809 0.459110
vt 0.259108 0.439232
vt 0.335646 0.426732
vt 0.330101 0.407255
vt 0.255934 0.419809
vt 0.197701 0.448035
vt 0.338831 0.438678
vt 0.348183 0.419739
vt 0.344022 0.461942
vt 0.205055 0.489336
vt 0.353085 0.431546
vt 0.358388 0.452006
vt 0.191306 0.463385
vt 0.436380 0.368831
vt 0.154467 0.527188
vt 0.449913 0.383137
vt 0.184914 0.452870
vt 0.131439 0.506976
vt 0.426786 0.358445
vt 0.484443 0.324748
vt 0.128579 0.567607
vt 0.336732 0.401107
vt 0.499667 0.339019
vt 0.156978 0.531145
vt 0.526584 0.284566
vt 0.453055 0.386460
vt 0.100748 0.553380
vt 0.412107 0.341218
vt 0.473770 0.314278
vt 0.126538 0.496083
vt 0.094395 0.567930
vt 0.516040 0.273915
vt 0.456769 0.296567
vt 0.122367 0.582470
vt 0.498900 0.255880
vt 0.594274 0.221258
vt 0.120729 0.590149
vt 0.081426 0.562580
vt 0.605327 0.236628
vt 0.586020 0.210325
vt 0.087186 0.600611
vt 0.541909 0.299553
vt 0.072003 0.606587
vt 0.607946 0.214205
vt 0.059025 0.555115
vt 0.503131 0.342267
vt 0.618755 0.228154
vt 0.068415 0.536122
vt 0.545045 0.303028
vt 0.628148 0.207468
vt 0.047082 0.611460
vt 0.088171 0.547587
vt 0.637514 0.223042
vt 0.621109 0.194240
vt 0.069348 0.667538
vt 0.110760 0.479857
vt 0.649831 0.219740
vt 0.081576 0.662609
vt 0.642460 0.198763
vt 0.598852 0.203226
vt 0.093945 0.733806
vt 0.586258 0.180826
vt 0.121123 0.725037
vt 0.081782 0.738054
vt 0.609750 0.172171
vt 0.046127 0.676138
vt 0.152322 0.790573
vt 0.634241 0.186378
vt 0.129880 0.803571
vt 0.621183 0.167923
vt 0.232314 0.865048
vt 0.060334 0.746075
vt 0.666654 0.146108
vt 0.126168 0.725910
vt 0.215602 0.885282
vt 0.676156 0.155027
vt 0.155705 0.788613
vt 0.228757 0.892128
vt 0.651441 0.131715
vt 0.686019 0.164166
vt 0.245884 0.873450
vt 0.743845 0.066059
vt 0.749855 0.088715
vt 0.350226 0.933120
vt 0.732402 0.049545
vt 0.747671 0.078972
vt 0.358940 0.911877
vt 0.751569 0.042665
vt 0.418800 0.933056
vt 0.234442 0.862471
vt 0.753215 0.063056
vt 0.423568 0.915457
vt 0.756458 0.075163
vt 0.433497 0.936680
vt 0.249620 0.871224
vt 0.248536 0.870557
vt 0.759721 0.085336
vt 0.429929 0.949899
vt 0.360276 0.908621
vt 0.827328 0.085593
vt 0.476825 0.944914
vt 0.414300 0.945252
vt 0.833428 0.074906
vt 0.422833 0.975779
vt 0.821114 0.095972
vt 0.478763 0.959134
vt 0.834703 0.092641
vt 0.841062 0.055485
vt 0.479172 0.983574
vt 0.829979 0.102768
vt 0.858230 0.067732
vt 0.496203 0.958172
vt 0.892737 0.207572
vt 0.841815 0.080320
vt 0.501053 0.979927
vt 0.877444 0.211692
vt 0.925501 0.193919
vt 0.587375 0.932806
vt 0.916217 0.310614
vt 0.905434 0.203162
vt 0.592062 0.954222
vt 0.932390 0.308277
vt 0.944046 0.305998
vt 0.700623 0.904402
vt 0.921239 0.372069
vt 0.691357 0.884902
vt 0.963908 0.300627
vt 0.938106 0.373219
vt 0.752133 0.836351
vt 0.585190 0.920669
vt 0.934541 0.386586
vt 0.789685 0.833103
vt 0.686546 0.873510
vt 0.949227 0.373817
vt 0.776101 0.817204
vt 0.944944 0.387089
vt 0.968325 0.374170
vt 0.856866 0.745880
vt 0.768348 0.808095
vt 0.961882 0.390540
vt 0.837684 0.733273
vt 0.676449 0.847084
vt 0.946532 0.480183
vt 0.931381 0.613581
vt 0.580319 0.890239
vt 0.927471 0.473175
vt 0.911264 0.606627
vt 0.493261 0.944927
vt 0.828037 0.726431
vt 0.915253 0.471554
vt 0.485424 0.912927
vt 0.752171 0.788925
vt 0.919023 0.385451
vt 0.899870 0.602027
vt 0.898576 0.472098
vt 0.810344 0.712522
vt 0.469327 0.915999
vt 0.884218 0.595039
vt 0.880293 0.594352
vt 0.439371 0.916267
vt 0.807269 0.710104
vt 0.915950 0.385741
vt 0.894493 0.472231
vt 0.132320 0.568607
vt 0.749621 0.785904
vt 0.674973 0.843220
vt 0.579664 0.886149
vt 0.209106 0.495481
vt 0.229880 0.520335
vt 0.159753 0.533365
vt 0.222582 0.489631
vt 0.184842 0.574170
vt 0.239459 0.515162
vt 0.157698 0.530024
vt 0.136412 0.569887
vt 0.270426 0.479681
vt 0.195351 0.579257
vt 0.206933 0.492881
vt 0.297710 0.503664
vt 0.236363 0.529274
vt 0.345785 0.469237
vt 0.219377 0.487416
vt 0.268540 0.476872
vt 0.354600 0.502058
vt 0.246847 0.543706
vt 0.247643 0.523772
vt 0.344379 0.466741
vt 0.201231 0.588614
vt 0.360235 0.459879
vt 0.187351 0.592983
vt 0.259631 0.537140
vt 0.358238 0.457138
vt 0.183947 0.584630
vt 0.307591 0.512842
vt 0.369966 0.507206
vt 0.323069 0.532673
vt 0.496364 0.450909
vt 0.129369 0.589080
vt 0.346189 0.513687
vt 0.455625 0.390283
vt 0.129685 0.603025
vt 0.506164 0.345316
vt 0.200272 0.606038
vt 0.331637 0.539324
vt 0.564512 0.403981
vt 0.121083 0.657482
vt 0.400748 0.565437
vt 0.567610 0.447439
vt 0.210825 0.659755
vt 0.443121 0.537451
vt 0.598188 0.357270
vt 0.129193 0.725446
vt 0.526331 0.489522
vt 0.548183 0.305837
vt 0.223657 0.765271
vt 0.414618 0.571873
vt 0.627924 0.317385
vt 0.158682 0.787591
vt 0.401727 0.573446
vt 0.609048 0.244530
vt 0.236987 0.861143
vt 0.413293 0.601354
vt 0.622636 0.236122
vt 0.289086 0.833976
vt 0.446726 0.591383
vt 0.639855 0.313167
vt 0.251261 0.869108
vt 0.479117 0.564021
vt 0.640192 0.230905
vt 0.635958 0.326386
vt 0.302681 0.841761
vt 0.453360 0.542718
vt 0.364552 0.906564
vt 0.553458 0.515718
vt 0.607508 0.366686
vt 0.437983 0.871242
vt 0.535270 0.499693
vt 0.580302 0.402348
vt 0.425039 0.910530
vt 0.594510 0.471853
vt 0.623947 0.385077
vt 0.328846 0.840647
vt 0.573620 0.456875
vt 0.607888 0.427463
vt 0.302319 0.829467
vt 0.599685 0.458038
vt 0.579480 0.422272
vt 0.441465 0.864755
vt 0.579853 0.445557
vt 0.447357 0.870368
vt 0.602227 0.438536
vt 0.613494 0.433096
vt 0.633445 0.395827
vt 0.453322 0.857165
vt 0.608961 0.469205
vt 0.338677 0.840598
vt 0.351621 0.835271
vt 0.558394 0.520715
vt 0.321695 0.829433
vt 0.652788 0.519650
vt 0.468212 0.852118
vt 0.337505 0.828614
vt 0.473939 0.854399
vt 0.358567 0.816913
vt 0.555843 0.831598
vt 0.295556 0.744179
vt 0.253255 0.753474
vt 0.578878 0.884348
vt 0.358756 0.726374
vt 0.265605 0.749162
vt 0.483926 0.906286
vt 0.416770 0.777184
vt 0.461998 0.864141
vt 0.368284 0.728070
vt 0.290228 0.703215
vt 0.314532 0.716535
vt 0.425566 0.775673
vt 0.370917 0.822704
vt 0.260620 0.686160
vt 0.467937 0.909355
vt 0.425960 0.781249
vt 0.293043 0.692364
vt 0.475717 0.833761
vt 0.263999 0.675869
vt 0.321614 0.708114
vt 0.440652 0.910719
vt 0.480077 0.794203
vt 0.327822 0.661656
vt 0.369825 0.670021
vt 0.424269 0.912868
vt 0.362427 0.722107
vt 0.534849 0.781103
vt 0.405828 0.695318
vt 0.618216 0.757380
vt 0.361735 0.908718
vt 0.644090 0.796355
vt 0.516072 0.778314
vt 0.673936 0.841647
vt 0.528467 0.775092
vt 0.748078 0.784564
vt 0.551120 0.739030
vt 0.410769 0.702840
vt 0.703224 0.745612
vt 0.544287 0.741144
vt 0.547288 0.733241
vt 0.687843 0.664682
vt 0.477410 0.788367
vt 0.511877 0.662390
vt 0.587841 0.727675
vt 0.465997 0.680512
vt 0.456992 0.684153
vt 0.491565 0.658821
vt 0.644935 0.670025
vt 0.454485 0.672034
vt 0.465548 0.664880
vt 0.638429 0.668993
vt 0.468092 0.651792
vt 0.580825 0.718014
vt 0.432281 0.644804
vt 0.439489 0.636946
vt 0.546957 0.629600
vt 0.518616 0.658128
vt 0.428969 0.635284
vt 0.577127 0.608241
vt 0.543474 0.624079
vt 0.441804 0.632030
vt 0.575770 0.602644
vt 0.515125 0.655052
vt 0.516953 0.601265
vt 0.582138 0.603165
vt 0.473184 0.640653
vt 0.595417 0.572291
vt 0.453171 0.594258
vt 0.589250 0.564593
vt 0.645293 0.665780
vt 0.445942 0.620028
vt 0.678997 0.656889
vt 0.433839 0.613909
vt 0.484827 0.569397
vt 0.686681 0.661497
vt 0.422657 0.623830
vt 0.377124 0.658652
vt 0.406846 0.610303
vt 0.361102 0.637025
vt 0.402627 0.601891
vt 0.361772 0.659698
vt 0.603443 0.563392
vt 0.659798 0.525673
vt 0.350799 0.638544
vt 0.751420 0.595743
vt 0.329304 0.622771
vt 0.353514 0.631653
vt 0.689891 0.650612
vt 0.317228 0.586650
vt 0.330290 0.652437
vt 0.297836 0.612758
vt 0.322529 0.573670
vt 0.326570 0.632345
vt 0.302019 0.585294
vt 0.308337 0.573365
vt 0.301315 0.641493
vt 0.317405 0.543839
vt 0.283130 0.615766
vt 0.296883 0.625072
vt 0.279513 0.578473
vt 0.281313 0.569839
vt 0.290938 0.643232
vt 0.267594 0.547906
vt 0.245649 0.619343
vt 0.253074 0.668813
vt 0.271009 0.573711
vt 0.219865 0.659110
vt 0.254288 0.553214
vt 0.234820 0.614255
vt 0.220601 0.672590
vt 0.247504 0.679168
vt 0.205486 0.601924
vt 0.236957 0.762255
vt 0.297844 0.650121
vt 0.752110 0.096600
vt 0.762174 0.124945
vt 0.692075 0.169866
vt 0.772015 0.120573
vt 0.728213 0.202610
vt 0.762192 0.092684
vt 0.652955 0.227866
vt 0.771152 0.131906
vt 0.750787 0.092874
vt 0.817503 0.102509
vt 0.718781 0.292504
vt 0.689038 0.166964
vt 0.760906 0.089030
vt 0.661808 0.334743
vt 0.737732 0.212898
vt 0.804717 0.127778
vt 0.648321 0.315248
vt 0.698903 0.379443
vt 0.825907 0.110870
vt 0.802532 0.138979
vt 0.810614 0.205861
vt 0.649414 0.224994
vt 0.646008 0.331152
vt 0.741084 0.200445
vt 0.639801 0.226846
vt 0.812686 0.135248
vt 0.822201 0.212968
vt 0.869104 0.212811
vt 0.638155 0.227311
vt 0.909812 0.310991
vt 0.678184 0.445155
vt 0.621707 0.231965
vt 0.873401 0.212781
vt 0.710410 0.386871
vt 0.837213 0.306982
vt 0.828003 0.107004
vt 0.693385 0.440663
vt 0.916534 0.373162
vt 0.912559 0.311143
vt 0.812488 0.218659
vt 0.692355 0.452265
vt 0.874579 0.410788
vt 0.826563 0.299785
vt 0.870061 0.417922
vt 0.917929 0.372307
vt 0.729824 0.291056
vt 0.827467 0.498534
vt 0.914647 0.386286
vt 0.727630 0.302666
vt 0.819578 0.507918
vt 0.915955 0.385227
vt 0.692154 0.495607
vt 0.877532 0.416345
vt 0.829933 0.511275
vt 0.739832 0.206757
vt 0.829310 0.311968
vt 0.789893 0.534989
vt 0.811125 0.212715
vt 0.738366 0.206640
vt 0.791751 0.540491
vt 0.811409 0.212441
vt 0.802807 0.594695
vt 0.786820 0.541291
vt 0.878070 0.593562
vt 0.892551 0.473406
vt 0.687902 0.503447
vt 0.683831 0.497442
vt 0.880818 0.593521
vt 0.805372 0.709549
vt 0.751366 0.693758
vt 0.758719 0.600159
vt 0.683361 0.654318
vt 0.598963 0.567601
vt 0.684472 0.655445
vt 0.597546 0.567339
vt 0.749622 0.785822
vt 0.807203 0.710190
vt 0.484519 0.908714
vt 0.468279 0.911957
vt 0.440301 0.913303
vt 0.438112 0.913248
vt 0.112957 0.658022
vt 0.117308 0.657386
vt 0.120133 0.610240
vt 0.125145 0.723739
vt 0.124708 0.608568
vt 0.652514 0.223079
vt 0.688810 0.167120
vt 0.404008 0.966779
vt 0.346833 0.944129
vt 0.341689 0.963517
vt 0.222191 0.902360
vt 0.214484 0.921480
vt 0.208074 0.895235
vt 0.194098 0.912992
vt 0.120502 0.811256
vt 0.104413 0.825214
vt 0.174671 0.435130
vt 0.192373 0.429110
vt 0.570340 0.189974
vt 0.130470 0.584460
vt 0.125094 0.589218
vt 0.126732 0.583085
vt 0.132333 0.569526
vt 0.125575 0.602850
vt 0.126169 0.584447
vt 0.545346 0.302844
vt 0.607180 0.241026
vt 0.607943 0.240265
vt 0.618209 0.234075
vt 0.452591 0.386806
vt 0.359494 0.456274
vt 0.752081 0.092383
vt 0.819202 0.099287
vt 0.827038 0.106158
vt 0.267409 0.477029
vt 0.220726 0.486823
s 1
g GUI_Map_Cliffside2:GUI_Map_Cliffside_GUI_Map_Cliffside2_05bbf8d_GUI_Map_Cliffside2:GUI_Map_Cliffside1
usemtl GUI_Map_Cliffside2:GUI_Map_Cliffside1
f 1/1/1 2/2/2 3/3/3
f 3/3/3 2/2/2 4/4/4
f 3/3/3 4/4/4 5/5/5
f 6/6/5 3/3/3 5/5/5
f 6/6/5 5/5/5 7/7/5
f 7/7/5 5/5/5 8/8/5
f 5/5/5 9/9/6 8/8/5
f 10/10/3 1/1/1 3/3/3
f 5/5/5 4/4/4 9/9/6
f 10/10/3 3/3/3 6/6/5
f 6/6/5 7/7/5 11/11/7
f 12/12/8 1/1/1 10/10/3
f 13/13/9 4/4/4 2/2/2
f 11/11/7 14/14/10 6/6/5
f 10/10/3 15/15/11 12/12/8
f 16/16/9 4/4/4 13/13/9
f 16/16/9 9/9/6 4/4/4
f 14/14/10 15/15/11 10/10/3
f 6/6/5 14/14/10 10/10/3
f 11/11/7 17/17/10 14/14/10
f 18/18/12 16/16/9 13/13/9
f 15/15/11 14/14/10 19/19/11
f 20/20/13 9/9/6 16/16/9
f 19/19/11 14/14/10 17/17/10
f 21/21/12 16/16/9 18/18/12
f 22/22/14 17/17/10 11/11/7
f 21/21/12 20/20/13 16/16/9
f 23/23/15 19/19/11 17/17/10
f 18/18/12 24/24/16 21/21/12
f 11/11/7 25/25/17 22/22/14
f 26/26/18 19/19/11 23/23/15
f 18/18/12 27/27/19 24/24/16
f 11/11/7 7/7/5 25/25/17
f 28/28/20 26/26/18 23/23/15
f 19/19/11 26/26/18 29/29/21
f 21/21/12 24/24/16 30/30/16
f 22/22/14 25/25/17 31/31/22
f 17/17/10 32/32/23 23/23/15
f 30/30/16 33/33/24 21/21/12
f 22/22/14 32/32/23 17/17/10
f 30/30/16 24/24/16 34/34/25
f 28/28/20 23/23/15 35/35/26
f 32/32/23 22/22/14 36/36/23
f 36/36/23 22/22/14 31/31/22
f 34/34/25 24/24/16 37/37/27
f 35/35/26 23/23/15 32/32/23
f 38/38/26 32/32/23 36/36/23
f 28/28/20 35/35/26 39/39/20
f 37/37/27 40/40/28 34/34/25
f 35/35/26 32/32/23 38/38/26
f 41/41/29 30/30/16 34/34/25
f 42/42/20 28/28/20 39/39/20
f 38/38/26 43/43/30 35/35/26
f 44/44/31 41/41/29 34/34/25
f 34/34/25 40/40/28 44/44/31
f 45/45/32 28/28/20 42/42/20
f 39/39/20 35/35/26 43/43/30
f 46/46/33 41/41/29 44/44/31
f 45/45/32 26/26/18 28/28/20
f 47/47/34 42/42/20 39/39/20
f 41/41/29 46/46/33 48/48/35
f 45/45/32 49/49/36 26/26/18
f 50/50/34 42/42/20 47/47/34
f 51/51/37 41/41/29 48/48/35
f 52/52/38 49/49/36 45/45/32
f 29/29/21 26/26/18 49/49/36
f 53/53/39 50/50/34 47/47/34
f 48/48/35 46/46/33 54/54/40
f 55/55/41 41/41/29 51/51/37
f 56/56/42 50/50/34 53/53/39
f 53/53/39 47/47/34 57/57/43
f 46/46/33 58/58/44 54/54/40
f 59/59/45 55/55/41 51/51/37
f 53/53/39 60/60/46 56/56/42
f 58/58/44 46/46/33 61/61/28
f 33/33/24 55/55/41 59/59/45
f 62/62/46 60/60/46 53/53/39
f 57/57/43 62/62/46 53/53/39
f 61/61/28 46/46/33 44/44/31
f 55/55/41 33/33/24 30/30/16
f 57/57/43 47/47/34 63/63/43
f 64/64/47 58/58/44 61/61/28
f 55/55/41 30/30/16 41/41/29
f 65/65/48 57/57/43 63/63/43
f 64/64/47 61/61/28 66/66/49
f 67/67/50 58/58/44 64/64/47
f 47/47/34 39/39/20 63/63/43
f 68/68/48 57/57/43 65/65/48
f 58/58/44 67/67/50 69/69/40
f 70/70/51 64/64/47 66/66/49
f 57/57/43 68/68/48 71/71/52
f 54/54/40 58/58/44 69/69/40
f 72/72/51 64/64/47 70/70/51
f 72/72/51 67/67/50 64/64/47
f 71/71/52 68/68/48 73/73/53
f 71/71/52 62/62/46 57/57/43
f 70/70/51 74/74/54 72/72/51
f 69/69/40 67/67/50 75/75/50
f 71/71/52 73/73/53 76/76/55
f 77/77/56 70/70/51 66/66/49
f 72/72/51 74/74/54 78/78/57
f 76/76/55 79/79/46 71/71/52
f 71/71/52 79/79/46 62/62/46
f 80/80/58 70/70/51 77/77/56
f 70/70/51 80/80/58 74/74/54
f 74/74/54 81/81/57 78/78/57
f 76/76/55 73/73/53 82/82/55
f 83/83/46 62/62/46 79/79/46
f 84/84/57 81/81/57 74/74/54
f 82/82/55 85/85/59 76/76/55
f 79/79/46 86/86/60 83/83/46
f 81/81/57 84/84/57 87/87/61
f 88/88/62 85/85/59 82/82/55
f 89/89/60 86/86/60 79/79/46
f 85/85/59 89/89/60 76/76/55
f 87/87/61 84/84/57 90/90/61
f 88/88/62 91/91/63 85/85/59
f 76/76/55 89/89/60 79/79/46
f 90/90/61 92/92/64 87/87/61
f 74/74/54 93/93/65 84/84/57
f 85/85/59 91/91/63 94/94/66
f 95/95/61 92/92/64 90/90/61
f 74/74/54 80/80/58 93/93/65
f 94/94/66 96/96/67 85/85/59
f 85/85/59 96/96/67 89/89/60
f 95/95/61 97/97/68 92/92/64
f 98/98/65 90/90/61 84/84/57
f 84/84/57 93/93/65 99/99/69
f 100/100/67 89/89/60 96/96/67
f 101/101/70 92/92/64 97/97/68
f 102/102/71 90/90/61 98/98/65
f 103/103/72 100/100/67 96/96/67
f 97/97/68 104/104/73 101/101/70
f 105/105/74 92/92/64 101/101/70
f 86/86/60 89/89/60 100/100/67
f 103/103/72 96/96/67 106/106/66
f 101/101/70 107/107/75 105/105/74
f 92/92/64 105/105/74 87/87/61
f 108/108/76 100/100/67 103/103/72
f 106/106/66 96/96/67 94/94/66
f 101/101/70 109/109/77 107/107/75
f 101/101/70 104/104/73 109/109/77
f 110/110/78 108/108/76 103/103/72
f 106/106/66 94/94/66 111/111/79
f 107/107/75 109/109/77 112/112/80
f 113/113/78 108/108/76 110/110/78
f 114/114/81 106/106/66 111/111/79
f 111/111/79 94/94/66 91/91/63
f 109/109/77 115/115/82 112/112/80
f 116/116/78 113/113/78 110/110/78
f 117/117/83 106/106/66 114/114/81
f 106/106/66 117/117/83 103/103/72
f 112/112/80 115/115/82 118/118/84
f 119/119/78 113/113/78 116/116/78
f 103/103/72 117/117/83 110/110/78
f 120/120/83 117/117/83 114/114/81
f 115/115/82 121/121/85 118/118/84
f 116/116/78 122/122/86 119/119/78
f 123/123/83 117/117/83 120/120/83
f 117/117/83 123/123/83 110/110/78
f 118/118/84 121/121/85 124/124/87
f 110/110/78 123/123/83 116/116/78
f 125/125/86 122/122/86 116/116/78
f 123/123/83 120/120/83 126/126/88
f 121/121/85 127/127/89 124/124/87
f 126/126/88 125/125/86 123/123/83
f 125/125/86 128/128/86 122/122/86
f 123/123/83 125/125/86 116/116/78
f 129/129/90 127/127/89 121/121/85
f 126/126/88 120/120/83 130/130/91
f 131/131/86 128/128/86 125/125/86
f 129/129/90 132/132/92 127/127/89
f 126/126/88 131/131/86 125/125/86
f 133/133/93 129/129/90 121/121/85
f 131/131/86 134/134/94 128/128/86
f 132/132/92 135/135/95 127/127/89
f 136/136/96 129/129/90 133/133/93
f 137/137/97 131/131/86 126/126/88
f 129/129/90 136/136/96 132/132/92
f 130/130/91 137/137/97 126/126/88
f 138/138/98 135/135/95 132/132/92
f 137/137/97 139/139/99 131/131/86
f 131/131/86 139/139/99 134/134/94
f 140/140/97 137/137/97 130/130/91
f 138/138/98 141/141/100 135/135/95
f 138/138/98 132/132/92 142/142/101
f 142/142/101 132/132/92 136/136/96
f 143/143/102 137/137/97 140/140/97
f 139/139/99 137/137/97 143/143/102
f 144/144/98 141/141/100 138/138/98
f 142/142/101 144/144/98 138/138/98
f 136/136/96 145/145/103 142/142/101
f 146/146/104 139/139/99 143/143/102
f 144/144/98 147/147/104 141/141/100
f 136/136/96 148/148/93 145/145/103
f 149/149/105 139/139/99 146/146/104
f 150/150/105 147/147/104 144/144/98
f 133/133/93 148/148/93 136/136/96
f 150/150/105 149/149/105 147/147/104
f 149/149/105 134/134/94 139/139/99
f 147/147/104 149/149/105 146/146/104
f 133/133/93 151/151/93 148/148/93
f 144/144/98 152/152/106 150/150/105
f 152/152/106 144/144/98 142/142/101
f 150/150/105 153/153/107 149/149/105
f 153/153/107 134/134/94 149/149/105
f 148/148/93 151/151/93 154/154/93
f 142/142/101 155/155/101 152/152/106
f 153/153/107 156/156/94 134/134/94
f 150/150/105 152/152/106 157/157/107
f 151/151/93 104/104/73 154/154/93
f 157/157/107 153/153/107 150/150/105
f 158/158/107 156/156/94 153/153/107
f 152/152/106 159/159/108 157/157/107
f 152/152/106 155/155/101 159/159/108
f 154/154/93 104/104/73 160/160/68
f 153/153/107 157/157/107 158/158/107
f 128/128/86 134/134/94 156/156/94
f 157/157/107 159/159/108 161/161/107
f 97/97/68 160/160/68 104/104/73
f 158/158/107 157/157/107 161/161/107
f 151/151/93 109/109/77 104/104/73
f 159/159/108 162/162/109 161/161/107
f 163/163/73 160/160/68 97/97/68
f 115/115/82 109/109/77 151/151/93
f 164/164/110 162/162/109 159/159/108
f 163/163/73 97/97/68 95/95/61
f 151/151/93 133/133/93 115/115/82
f 158/158/107 165/165/111 156/156/94
f 115/115/82 133/133/93 121/121/85
f 166/166/112 165/165/111 158/158/107
f 24/24/16 27/27/19 167/167/19
f 142/142/101 145/145/103 155/155/101
f 145/145/103 168/168/113 155/155/101
f 169/169/114 168/168/113 145/145/103
f 145/145/103 148/148/93 169/169/114
f 169/169/114 148/148/93 170/170/115
f 171/171/116 172/172/117 173/173/118
f 174/174/119 172/172/117 171/171/116
f 173/173/118 172/172/117 175/175/19
f 176/176/119 172/172/117 174/174/119
f 173/173/118 177/177/9 171/171/116
f 175/175/19 178/178/120 173/173/118
f 179/179/121 176/176/119 174/174/119
f 172/172/117 180/180/122 175/175/19
f 171/171/116 177/177/9 181/181/9
f 182/182/123 176/176/119 179/179/121
f 171/171/116 181/181/9 174/174/119
f 183/183/122 180/180/122 172/172/117
f 179/179/121 184/184/124 182/182/123
f 172/172/117 176/176/119 183/183/122
f 174/174/119 181/181/9 185/185/125
f 179/179/121 186/186/126 184/184/124
f 182/182/123 184/184/124 187/187/124
f 188/188/122 180/180/122 183/183/122
f 176/176/119 182/182/123 189/189/127
f 184/184/124 186/186/126 190/190/128
f 191/191/122 180/180/122 188/188/122
f 183/183/122 176/176/119 189/189/127
f 192/192/21 187/187/124 184/184/124
f 184/184/124 190/190/128 192/192/21
f 191/191/122 193/193/129 180/180/122
f 188/188/122 183/183/122 194/194/130
f 194/194/130 183/183/122 189/189/127
f 192/192/21 190/190/128 195/195/10
f 180/180/122 193/193/129 196/196/131
f 197/197/132 194/194/130 189/189/127
f 198/198/133 187/187/124 192/192/21
f 196/196/131 175/175/19 180/180/122
f 199/199/134 194/194/130 197/197/132
f 198/198/133 192/192/21 200/200/133
f 201/201/135 196/196/131 193/193/129
f 197/197/132 202/202/136 199/199/134
f 187/187/124 198/198/133 202/202/136
f 200/200/133 192/192/21 203/203/21
f 193/193/129 204/204/137 201/201/135
f 202/202/136 197/197/132 187/187/124
f 203/203/21 205/205/36 200/200/133
f 206/206/137 204/204/137 193/193/129
f 199/199/134 202/202/136 207/207/138
f 207/207/138 202/202/136 198/198/133
f 200/200/133 205/205/36 208/208/139
f 206/206/137 209/209/137 204/204/137
f 198/198/133 210/210/138 207/207/138
f 208/208/139 211/211/140 200/200/133
f 212/212/137 209/209/137 206/206/137
f 198/198/133 200/200/133 213/213/141
f 213/213/141 210/210/138 198/198/133
f 208/208/139 205/205/36 214/214/142
f 212/212/137 215/215/143 209/209/137
f 213/213/141 200/200/133 216/216/133
f 200/200/133 211/211/140 216/216/133
f 214/214/142 205/205/36 217/217/144
f 218/218/145 215/215/143 212/212/137
f 210/210/138 213/213/141 219/219/146
f 217/217/144 220/220/144 214/214/142
f 221/221/58 215/215/143 218/218/145
f 219/219/146 222/222/147 210/210/138
f 223/223/142 220/220/144 217/217/144
f 218/218/145 224/224/65 221/221/58
f 219/219/146 225/225/146 222/222/147
f 226/226/148 220/220/144 223/223/142
f 227/227/69 224/224/65 218/218/145
f 228/228/146 225/225/146 219/219/146
f 229/229/149 220/220/144 226/226/148
f 224/224/65 227/227/69 230/230/69
f 228/228/146 219/219/146 231/231/150
f 226/226/148 232/232/149 229/229/149
f 220/220/144 229/229/149 233/233/151
f 230/230/69 227/227/69 234/234/69
f 231/231/150 219/219/146 235/235/150
f 220/220/144 233/233/151 214/214/142
f 230/230/69 234/234/69 236/236/152
f 231/231/150 235/235/150 237/237/153
f 219/219/146 213/213/141 235/235/150
f 214/214/142 233/233/151 238/238/154
f 236/236/152 234/234/69 239/239/152
f 237/237/153 235/235/150 240/240/155
f 241/241/156 214/214/142 238/238/154
f 239/239/152 242/242/157 236/236/152
f 240/240/155 243/243/158 237/237/153
f 244/244/159 241/241/156 238/238/154
f 234/234/69 245/245/160 239/239/152
f 246/246/155 243/243/158 240/240/155
f 247/247/161 241/241/156 244/244/159
f 245/245/160 234/234/69 248/248/160
f 246/246/155 249/249/162 243/243/158
f 241/241/156 247/247/161 250/250/163
f 239/239/152 245/245/160 251/251/164
f 252/252/163 249/249/162 246/246/155
f 241/241/156 250/250/163 208/208/139
f 253/253/165 239/239/152 251/251/164
f 250/250/163 254/254/163 252/252/163
f 252/252/163 254/254/163 249/249/162
f 250/250/163 247/247/161 254/254/163
f 250/250/163 211/211/140 208/208/139
f 211/211/140 252/252/163 246/246/155
f 208/208/139 214/214/142 241/241/156
f 247/247/161 255/255/166 254/254/163
f 252/252/163 211/211/140 250/250/163
f 254/254/163 255/255/166 249/249/162
f 211/211/140 246/246/155 216/216/133
f 247/247/161 256/256/166 255/255/166
f 257/257/164 253/253/165 251/251/164
f 249/249/162 255/255/166 258/258/167
f 216/216/133 246/246/155 240/240/155
f 257/257/164 251/251/164 259/259/160
f 249/249/162 258/258/167 243/243/158
f 235/235/150 216/216/133 240/240/155
f 259/259/160 260/260/168 257/257/164
f 259/259/160 251/251/164 245/245/160
f 261/261/169 243/243/158 258/258/167
f 213/213/141 216/216/133 235/235/150
f 245/245/160 262/262/160 259/259/160
f 263/263/170 261/261/169 258/258/167
f 237/237/153 243/243/158 261/261/169
f 257/257/164 260/260/168 264/264/171
f 260/260/168 259/259/160 265/265/172
f 265/265/172 259/259/160 262/262/160
f 237/237/153 261/261/169 231/231/150
f 266/266/171 257/257/164 264/264/171
f 265/265/172 267/267/173 260/260/168
f 248/248/160 262/262/160 245/245/160
f 266/266/171 264/264/171 268/268/171
f 267/267/173 265/265/172 269/269/174
f 262/262/160 248/248/160 270/270/175
f 271/271/176 266/266/171 268/268/171
f 272/272/177 267/267/173 269/269/174
f 265/265/172 262/262/160 273/273/172
f 273/273/172 262/262/160 270/270/175
f 274/274/178 266/266/171 271/271/176
f 275/275/179 267/267/173 272/272/177
f 269/269/174 265/265/172 273/273/172
f 266/266/171 274/274/178 276/276/164
f 272/272/177 277/277/180 275/275/179
f 273/273/172 278/278/181 269/269/174
f 276/276/164 257/257/164 266/266/171
f 279/279/174 272/272/177 269/269/174
f 275/275/179 277/277/180 280/280/180
f 278/278/181 279/279/174 269/269/174
f 276/276/164 253/253/165 257/257/164
f 275/275/179 281/281/168 267/267/173
f 282/282/182 278/278/181 273/273/172
f 283/283/183 253/253/165 276/276/164
f 284/284/184 281/281/168 275/275/179
f 280/280/180 284/284/184 275/275/179
f 285/285/185 279/279/174 278/278/181
f 282/282/182 285/285/185 278/278/181
f 276/276/164 274/274/178 283/283/183
f 281/281/168 284/284/184 286/286/186
f 287/287/187 285/285/185 282/282/182
f 288/288/188 279/279/174 285/285/185
f 289/289/183 253/253/165 283/283/183
f 286/286/186 284/284/184 290/290/189
f 291/291/190 288/288/188 285/285/185
f 289/289/183 242/242/157 253/253/165
f 286/286/186 290/290/189 268/268/171
f 292/292/188 288/288/188 291/291/190
f 242/242/157 289/289/183 293/293/191
f 268/268/171 264/264/171 286/286/186
f 292/292/188 294/294/192 288/288/188
f 253/253/165 242/242/157 239/239/152
f 268/268/171 290/290/189 295/295/193
f 296/296/192 294/294/192 292/292/188
f 272/272/177 288/288/188 294/294/192
f 293/293/191 236/236/152 242/242/157
f 297/297/194 268/268/171 295/295/193
f 279/279/174 288/288/188 272/272/177
f 298/298/64 236/236/152 293/293/191
f 299/299/195 268/268/171 297/297/194
f 295/295/193 290/290/189 300/300/196
f 294/294/192 277/277/180 272/272/177
f 301/301/114 268/268/171 299/299/195
f 302/302/197 295/295/193 300/300/196
f 296/296/192 277/277/180 294/294/192
f 301/301/114 299/299/195 303/303/198
f 295/295/193 302/302/197 304/304/193
f 295/295/193 304/304/193 297/297/194
f 305/305/199 277/277/180 296/296/192
f 303/303/198 299/299/195 306/306/198
f 304/304/193 302/302/197 307/307/197
f 306/306/198 299/299/195 297/297/194
f 305/305/199 280/280/180 277/277/180
f 308/308/200 304/304/193 307/307/197
f 309/309/201 306/306/198 297/297/194
f 310/310/202 280/280/180 305/305/199
f 307/307/197 311/311/203 308/308/200
f 312/312/204 309/309/201 297/297/194
f 308/308/200 312/312/204 304/304/193
f 280/280/180 310/310/202 284/284/184
f 311/311/203 307/307/197 313/313/205
f 297/297/194 304/304/193 312/312/204
f 313/313/205 307/307/197 302/302/197
f 305/305/199 314/314/206 310/310/202
f 313/313/205 315/315/207 311/311/203
f 316/316/208 309/309/201 312/312/204
f 314/314/206 305/305/199 317/317/209
f 314/314/206 317/317/209 313/313/205
f 318/318/210 315/315/207 313/313/205
f 312/312/204 319/319/211 316/316/208
f 317/317/209 305/305/199 296/296/192
f 313/313/205 317/317/209 318/318/210
f 320/320/212 315/315/207 318/318/210
f 321/321/211 319/319/211 312/312/204
f 296/296/192 322/322/209 317/317/209
f 318/318/210 323/323/213 320/320/212
f 324/324/214 319/319/211 321/321/211
f 292/292/188 322/322/209 296/296/192
f 318/318/210 317/317/209 323/323/213
f 321/321/211 325/325/200 324/324/214
f 326/326/215 322/322/209 292/292/188
f 327/327/214 319/319/211 324/324/214
f 323/323/213 317/317/209 322/322/209
f 308/308/200 325/325/200 321/321/211
f 322/322/209 326/326/215 323/323/213
f 321/321/211 312/312/204 308/308/200
f 328/328/216 327/327/214 324/324/214
f 308/308/200 311/311/203 325/325/200
f 323/323/213 326/326/215 329/329/213
f 330/330/217 327/327/214 328/328/216
f 328/328/216 324/324/214 331/331/218
f 331/331/218 324/324/214 325/325/200
f 320/320/212 323/323/213 329/329/213
f 332/332/217 330/330/217 328/328/216
f 328/328/216 331/331/218 332/332/217
f 327/327/214 330/330/217 333/333/219
f 329/329/213 334/334/220 320/320/212
f 311/311/203 315/315/207 325/325/200
f 332/332/217 331/331/218 334/334/220
f 333/333/219 330/330/217 335/335/219
f 334/334/220 331/331/218 320/320/212
f 320/320/212 331/331/218 315/315/207
f 325/325/200 315/315/207 331/331/218
f 334/334/220 336/336/221 332/332/217
f 337/337/217 330/330/217 332/332/217
f 335/335/219 330/330/217 337/337/217
f 335/335/219 338/338/222 333/333/219
f 339/339/223 334/334/220 329/329/213
f 339/339/223 336/336/221 334/334/220
f 332/332/217 261/261/169 337/337/217
f 340/340/224 338/338/222 335/335/219
f 339/339/223 341/341/146 336/336/221
f 342/342/225 261/261/169 332/332/217
f 340/340/224 343/343/226 338/338/222
f 341/341/146 339/339/223 344/344/227
f 332/332/217 336/336/221 342/342/225
f 344/344/227 339/339/223 329/329/213
f 316/316/208 338/338/222 343/343/226
f 336/336/221 341/341/146 228/228/146
f 329/329/213 326/326/215 344/344/227
f 338/338/222 316/316/208 319/319/211
f 342/342/225 336/336/221 231/231/150
f 231/231/150 336/336/221 228/228/146
f 231/231/150 261/261/169 342/342/225
f 344/344/227 326/326/215 345/345/228
f 319/319/211 333/333/219 338/338/222
f 341/341/146 225/225/146 228/228/146
f 345/345/228 346/346/227 344/344/227
f 327/327/214 333/333/219 319/319/211
f 344/344/227 346/346/227 341/341/146
f 341/341/146 346/346/227 225/225/146
f 345/345/228 326/326/215 292/292/188
f 337/337/217 261/261/169 263/263/170
f 347/347/228 346/346/227 345/345/228
f 348/348/229 225/225/146 346/346/227
f 345/345/228 292/292/188 349/349/230
f 263/263/170 350/350/231 337/337/217
f 347/347/228 348/348/229 346/346/227
f 345/345/228 349/349/230 347/347/228
f 292/292/188 291/291/190 349/349/230
f 351/351/232 350/350/231 263/263/170
f 222/222/147 225/225/146 348/348/229
f 347/347/228 349/349/230 352/352/233
f 353/353/234 350/350/231 351/351/232
f 222/222/147 348/348/229 354/354/235
f 355/355/236 348/348/229 347/347/228
f 355/355/236 347/347/228 352/352/233
f 356/356/237 350/350/231 353/353/234
f 354/354/235 357/357/147 222/222/147
f 354/354/235 348/348/229 355/355/236
f 358/358/238 352/352/233 349/349/230
f 349/349/230 291/291/190 358/358/238
f 359/359/239 357/357/147 354/354/235
f 360/360/138 222/222/147 357/357/147
f 361/361/240 352/352/233 358/358/238
f 354/354/235 355/355/236 361/361/240
f 357/357/147 359/359/239 362/362/241
f 210/210/138 222/222/147 360/360/138
f 361/361/240 355/355/236 352/352/233
f 360/360/138 357/357/147 363/363/242
f 363/363/242 357/357/147 362/362/241
f 360/360/138 207/207/138 210/210/138
f 358/358/238 364/364/243 361/361/240
f 363/363/242 365/365/244 360/360/138
f 362/362/241 359/359/239 366/366/241
f 360/360/138 365/365/244 207/207/138
f 361/361/240 364/364/243 367/367/245
f 362/362/241 366/366/241 368/368/246
f 359/359/239 367/367/245 366/366/241
f 369/369/242 365/365/244 363/363/242
f 370/370/247 367/367/245 364/364/243
f 369/369/242 362/362/241 368/368/246
f 366/366/241 367/367/245 370/370/247
f 371/371/248 365/365/244 369/369/242
f 363/363/242 362/362/241 369/369/242
f 368/368/246 366/366/241 372/372/241
f 370/370/247 373/373/249 366/366/241
f 194/194/130 365/365/244 371/371/248
f 369/369/242 374/374/250 371/371/248
f 368/368/246 372/372/241 374/374/250
f 366/366/241 373/373/249 375/375/251
f 199/199/134 365/365/244 194/194/130
f 374/374/250 369/369/242 368/368/246
f 375/375/251 372/372/241 366/366/241
f 207/207/138 365/365/244 199/199/134
f 371/371/248 374/374/250 376/376/252
f 376/376/252 194/194/130 371/371/248
f 375/375/251 377/377/253 372/372/241
f 373/373/249 378/378/254 375/375/251
f 377/377/253 376/376/252 374/374/250
f 188/188/122 194/194/130 376/376/252
f 374/374/250 372/372/241 377/377/253
f 379/379/255 378/378/254 373/373/249
f 376/376/252 380/380/256 188/188/122
f 212/212/137 377/377/253 375/375/251
f 378/378/254 379/379/255 381/381/254
f 380/380/256 376/376/252 377/377/253
f 188/188/122 380/380/256 191/191/122
f 375/375/251 378/378/254 212/212/137
f 381/381/254 379/379/255 270/270/175
f 380/380/256 377/377/253 206/206/137
f 206/206/137 191/191/122 380/380/256
f 212/212/137 378/378/254 218/218/145
f 218/218/145 378/378/254 381/381/254
f 270/270/175 248/248/160 381/381/254
f 377/377/253 212/212/137 206/206/137
f 193/193/129 191/191/122 206/206/137
f 381/381/254 227/227/69 218/218/145
f 248/248/160 227/227/69 381/381/254
f 379/379/255 282/282/182 270/270/175
f 248/248/160 234/234/69 227/227/69
f 282/282/182 379/379/255 287/287/187
f 270/270/175 282/282/182 273/273/172
f 287/287/187 379/379/255 373/373/249
f 373/373/249 370/370/247 287/287/187
f 287/287/187 370/370/247 382/382/185
f 287/287/187 382/382/185 285/285/185
f 370/370/247 364/364/243 382/382/185
f 285/285/185 382/382/185 291/291/190
f 358/358/238 382/382/185 364/364/243
f 291/291/190 382/382/185 358/358/238
f 383/383/257 384/384/257 385/385/258
f 384/384/257 383/383/257 386/386/259
f 385/385/258 384/384/257 387/387/260
f 386/386/259 383/383/257 388/388/261
f 385/385/258 387/387/260 389/389/258
f 390/390/262 384/384/257 386/386/259
f 385/385/258 391/391/263 383/383/257
f 388/388/261 392/392/264 386/386/259
f 389/389/258 387/387/260 393/393/260
f 394/394/265 391/391/263 385/385/258
f 383/383/257 395/395/67 388/388/261
f 389/389/258 393/393/260 396/396/266
f 397/397/267 393/393/260 387/387/260
f 386/386/259 392/392/264 398/398/268
f 398/398/268 390/390/262 386/386/259
f 396/396/266 399/399/149 389/389/258
f 396/396/266 393/393/260 400/400/269
f 392/392/264 401/401/270 398/398/268
f 402/402/262 390/390/262 398/398/268
f 389/389/258 399/399/149 232/232/149
f 396/396/266 400/400/269 256/256/166
f 403/403/262 390/390/262 402/402/262
f 232/232/149 404/404/46 389/389/258
f 256/256/166 405/405/151 396/396/266
f 399/399/149 396/396/266 405/405/151
f 406/406/271 390/390/262 403/403/262
f 407/407/39 404/404/46 232/232/149
f 229/229/149 232/232/149 399/399/149
f 244/244/159 405/405/151 256/256/166
f 408/408/270 403/403/262 402/402/262
f 399/399/149 233/233/151 229/229/149
f 238/238/154 405/405/151 244/244/159
f 409/409/270 403/403/262 408/408/270
f 405/405/151 233/233/151 399/399/149
f 408/408/270 402/402/262 398/398/268
f 233/233/151 405/405/151 238/238/154
f 409/409/270 408/408/270 410/410/270
f 244/244/159 256/256/166 247/247/161
f 398/398/268 401/401/270 408/408/270
f 226/226/148 411/411/272 232/232/149
f 410/410/270 408/408/270 401/401/270
f 410/410/270 412/412/273 409/409/270
f 256/256/166 400/400/269 413/413/274
f 414/414/39 411/411/272 226/226/148
f 415/415/275 412/412/273 410/410/270
f 413/413/274 255/255/166 256/256/166
f 416/416/276 413/413/274 400/400/269
f 409/409/270 412/412/273 417/417/273
f 415/415/275 410/410/270 418/418/78
f 418/418/78 410/410/270 401/401/270
f 419/419/277 413/413/274 416/416/276
f 412/412/273 420/420/273 417/417/273
f 421/421/86 412/412/273 415/415/275
f 417/417/273 422/422/278 409/409/270
f 413/413/274 419/419/277 423/423/279
f 412/412/273 421/421/86 420/420/273
f 417/417/273 420/420/273 424/424/273
f 425/425/267 422/422/278 417/417/273
f 426/426/280 419/419/277 416/416/276
f 420/420/273 421/421/86 427/427/86
f 428/428/267 422/422/278 425/425/267
f 429/429/281 419/419/277 426/426/280
f 429/429/281 423/423/279 419/419/277
f 430/430/111 424/424/273 420/420/273
f 427/427/86 430/430/111 420/420/273
f 428/428/267 425/425/267 431/431/280
f 432/432/279 423/423/279 429/429/281
f 433/433/94 430/430/111 427/427/86
f 397/397/267 422/422/278 428/428/267
f 432/432/279 434/434/282 423/423/279
f 435/435/283 429/429/281 426/426/280
f 435/435/283 424/424/273 430/430/111
f 428/428/267 393/393/260 397/397/267
f 428/428/267 431/431/280 393/393/260
f 436/436/284 429/429/281 435/435/283
f 424/424/273 435/435/283 426/426/280
f 432/432/279 429/429/281 436/436/284
f 437/437/271 422/422/278 397/397/267
f 426/426/280 438/438/280 424/424/273
f 439/439/279 434/434/282 432/432/279
f 440/440/262 422/422/278 437/437/271
f 441/441/258 437/437/271 397/397/267
f 424/424/273 438/438/280 417/417/273
f 436/436/284 442/442/285 432/432/279
f 432/432/279 442/442/285 439/439/279
f 443/443/270 422/422/278 440/440/262
f 416/416/276 438/438/280 426/426/280
f 444/444/286 442/442/285 436/436/284
f 439/439/279 442/442/285 445/445/234
f 438/438/280 425/425/267 417/417/273
f 431/431/280 438/438/280 416/416/276
f 436/436/284 446/446/286 444/444/286
f 445/445/234 434/434/282 439/439/279
f 431/431/280 425/425/267 438/438/280
f 447/447/109 446/446/286 436/436/284
f 448/448/234 434/434/282 445/445/234
f 416/416/276 400/400/269 431/431/280
f 436/436/284 435/435/283 447/447/109
f 353/353/234 448/448/234 445/445/234
f 434/434/282 448/448/234 449/449/170
f 431/431/280 400/400/269 393/393/260
f 447/447/109 435/435/283 430/430/111
f 449/449/170 423/423/279 434/434/282
f 351/351/232 448/448/234 353/353/234
f 446/446/286 447/447/109 450/450/287
f 413/413/274 423/423/279 449/449/170
f 263/263/170 448/448/234 351/351/232
f 446/446/286 451/451/110 444/444/286
f 263/263/170 413/413/274 449/449/170
f 450/450/287 447/447/109 452/166/287
f 449/449/170 448/448/234 263/263/170
f 444/444/286 451/451/110 453/452/198
f 258/258/167 413/413/274 263/263/170
f 454/453/288 343/343/226 353/353/234
f 454/453/288 444/444/286 309/309/201
f 309/309/201 444/444/286 453/452/198
f 413/413/274 258/258/167 255/255/166
f 309/309/201 343/343/226 454/453/288
f 343/343/226 356/356/237 353/353/234
f 453/452/198 306/306/198 309/309/201
f 454/453/288 442/442/285 444/444/286
f 309/309/201 316/316/208 343/343/226
f 353/353/234 445/445/234 454/453/288
f 453/452/198 303/303/198 306/306/198
f 454/453/288 445/445/234 442/442/285
f 455/454/289 456/455/222 356/356/237
f 451/451/110 303/303/198 453/452/198
f 457/456/226 455/454/289 356/356/237
f 356/356/237 456/455/222 350/350/231
f 458/457/290 350/350/231 456/455/222
f 451/451/110 459/458/291 303/303/198
f 460/459/292 459/458/291 451/451/110
f 271/271/176 268/268/171 301/301/114
f 461/170/293 462/460/294 271/271/176
f 271/271/176 462/460/294 274/274/178
f 463/461/68 274/274/178 462/460/294
f 283/283/183 274/274/178 463/461/68
f 464/462/73 283/283/183 463/461/68
f 289/289/183 283/283/183 464/462/73
f 293/293/191 289/289/183 465/463/68
f 260/260/168 281/281/168 264/264/171
f 260/260/168 267/267/173 281/281/168
f 264/264/171 281/281/168 286/286/186
f 66/66/49 61/61/28 466/464/295
f 466/464/295 467/465/296 66/66/49
f 61/61/28 468/466/28 466/464/295
f 466/464/295 468/466/28 467/465/296
f 66/66/49 467/465/296 469/467/56
f 61/61/28 44/44/31 468/466/28
f 467/465/296 468/466/28 470/468/296
f 468/466/28 44/44/31 40/40/28
f 310/310/202 314/314/206 300/300/196
f 300/300/196 290/290/189 310/310/202
f 284/284/184 310/310/202 290/290/189
f 314/314/206 313/313/205 300/300/196
f 300/300/196 313/313/205 302/302/197
f 60/60/46 62/62/46 83/83/46
f 83/83/46 471/469/258 60/60/46
f 472/470/258 471/469/258 83/83/46
f 105/105/74 473/471/297 474/472/298
f 105/105/74 107/107/75 473/471/297
f 474/472/298 473/471/297 475/473/298
f 87/87/61 105/105/74 474/472/298
f 475/473/298 476/474/299 474/472/298
f 474/472/298 81/81/57 87/87/61
f 476/474/299 81/81/57 474/472/298
f 477/475/300 476/474/299 475/473/298
f 476/474/299 78/78/57 81/81/57
f 476/474/299 477/475/300 478/476/299
f 478/476/299 78/78/57 476/474/299
f 478/476/299 477/475/300 479/477/301
f 478/476/299 480/478/302 78/78/57
f 481/479/302 478/476/299 479/477/301
f 480/478/302 478/476/299 481/479/302
f 78/78/57 480/478/302 72/72/51
f 75/75/50 480/478/302 481/479/302
f 480/478/302 67/67/50 72/72/51
f 67/67/50 480/478/302 75/75/50
f 482/480/13 20/20/13 59/59/45
f 483/481/303 20/20/13 482/480/13
f 59/59/45 20/20/13 33/33/24
f 9/9/6 20/20/13 483/481/303
f 33/33/24 20/20/13 21/21/12
f 8/8/5 9/9/6 483/481/303
f 484/482/304 43/43/30 38/38/26
f 65/65/48 43/43/30 484/482/304
f 63/63/43 43/43/30 65/65/48
f 63/63/43 39/39/20 43/43/30
f 485/483/305 196/196/131 201/201/135
f 178/178/120 196/196/131 485/483/305
f 201/201/135 486/484/28 485/483/305
f 175/175/19 196/196/131 178/178/120
f 204/204/137 486/484/28 201/201/135
f 487/485/306 178/178/120 485/483/305
f 488/486/307 178/178/120 487/485/306
f 489/487/308 486/484/28 204/204/137
f 485/483/305 486/484/28 490/488/306
f 361/361/240 367/367/245 354/354/235
f 354/354/235 367/367/245 359/359/239
f 189/189/127 182/182/123 197/197/132
f 187/187/124 197/197/132 182/182/123
f 491/489/20 492/490/20 217/217/144
f 217/217/144 492/490/20 223/223/142
f 493/491/309 494/492/34 223/223/142
f 223/223/142 494/492/34 226/226/148
f 495/493/310 203/203/21 496/494/11
f 496/494/11 203/203/21 192/192/21
f 497/495/311 395/395/67 383/383/257
f 498/496/67 388/388/261 395/395/67
f 392/392/264 388/388/261 498/496/67
f 499/497/78 392/392/264 498/496/67
f 401/401/270 392/392/264 499/497/78
f 500/498/312 501/499/313 1/1/1
f 1/1/1 501/499/313 2/2/2
f 387/387/260 384/384/257 406/406/271
f 406/406/271 384/384/257 390/390/262
