# Blender 4.1.1
# www.blender.org
mtllib rod.mtl
o Curtins_room:elements:bonnTrash_BonnieRoom_goldtile
v 0.104034 0.102399 -0.084753
v 0.104034 0.102261 -0.084421
v 0.104227 0.102706 -0.084753
v 0.104227 0.102478 -0.085302
v 0.104227 0.102478 -0.084204
v 0.104034 0.102261 -0.085085
v 0.104034 0.101929 -0.084283
v 0.104227 0.101929 -0.085529
v 0.104227 0.101929 -0.083976
v 0.104034 0.101929 -0.085223
v 0.104034 0.101597 -0.084421
v 0.104227 0.101380 -0.084204
v 0.104227 0.101380 -0.085302
v 0.104034 0.101597 -0.085085
v 0.104227 0.101153 -0.084753
v 0.104034 0.101459 -0.084753
v 0.104227 0.101380 -0.084204
v 0.104034 0.101597 -0.084421
v 0.104227 0.102706 -0.084753
v 0.104227 0.102478 -0.084204
v 0.105165 0.102706 -0.084753
v 0.105165 0.102478 -0.085302
v 0.105165 0.102478 -0.084204
v 0.104227 0.102478 -0.085302
v 0.104227 0.101929 -0.083976
v 0.105165 0.101929 -0.085529
v 0.105165 0.101929 -0.083976
v 0.104227 0.101929 -0.085529
v 0.104227 0.101380 -0.084204
v 0.105165 0.101380 -0.084204
v 0.105165 0.101380 -0.085302
v 0.104227 0.101380 -0.085302
v 0.105165 0.101153 -0.084753
v 0.104227 0.101153 -0.084753
v 0.105165 0.101380 -0.084204
v 0.104227 0.101380 -0.084204
v 0.099369 0.102261 -0.085085
v 0.099369 0.102399 -0.084753
v 0.104034 0.102261 -0.085085
v 0.104034 0.101929 -0.085223
v 0.104034 0.102399 -0.084753
v 0.099369 0.101929 -0.085223
v 0.099369 0.102261 -0.084421
v 0.104034 0.101597 -0.085085
v 0.104034 0.102261 -0.084421
v 0.099369 0.101597 -0.085085
v 0.099369 0.101929 -0.084283
v 0.104034 0.101459 -0.084753
v 0.104034 0.101929 -0.084283
v 0.099369 0.101459 -0.084753
v 0.099369 0.101597 -0.084421
v 0.104034 0.101597 -0.084421
v 0.104034 0.101597 -0.084421
v 0.099369 0.101597 -0.084421
v 0.099048 0.102234 -0.089305
v 0.099353 0.102361 -0.089305
v 0.099353 0.101929 -0.089305
v 0.098921 0.101929 -0.089305
v 0.099658 0.102234 -0.089305
v 0.099048 0.101624 -0.089305
v 0.099353 0.102951 -0.088971
v 0.099785 0.101929 -0.089305
v 0.099353 0.101497 -0.089305
v 0.098331 0.101929 -0.088971
v 0.100075 0.102651 -0.088971
v 0.099658 0.101624 -0.089305
v 0.098631 0.102651 -0.088971
v 0.098631 0.101207 -0.088971
v 0.099353 0.100907 -0.088971
v 0.100075 0.101207 -0.088971
v 0.100375 0.101929 -0.088971
v 0.100705 0.101929 -0.088953
v 0.100309 0.100973 -0.088953
v 0.100309 0.102885 -0.088953
v 0.100075 0.101207 -0.088971
v 0.099353 0.102951 -0.088971
v 0.099353 0.100577 -0.088953
v 0.099353 0.103281 -0.088953
v 0.099353 0.100907 -0.088971
v 0.098631 0.102651 -0.088971
v 0.098397 0.100973 -0.088953
v 0.098397 0.102885 -0.088953
v 0.098631 0.101207 -0.088971
v 0.098331 0.101929 -0.088971
v 0.098001 0.101929 -0.088953
v 0.099021 0.102261 -0.085613
v 0.099353 0.102399 -0.085613
v 0.098631 0.102651 -0.085956
v 0.098331 0.101929 -0.085956
v 0.099353 0.102951 -0.085956
v 0.098883 0.101929 -0.085613
v 0.099685 0.102261 -0.085613
v 0.098631 0.101207 -0.085956
v 0.100075 0.102651 -0.085956
v 0.099021 0.101597 -0.085613
v 0.099823 0.101929 -0.085613
v 0.099353 0.100907 -0.085956
v 0.100375 0.101929 -0.085956
v 0.099353 0.101459 -0.085613
v 0.099685 0.101597 -0.085613
v 0.100075 0.101207 -0.085956
v 0.097815 0.100391 -0.086949
v 0.097179 0.101929 -0.086949
v 0.097815 0.100391 -0.087977
v 0.099353 0.099755 -0.087977
v 0.097179 0.101929 -0.087977
v 0.099353 0.099755 -0.086949
v 0.097815 0.103467 -0.086949
v 0.100891 0.100391 -0.087977
v 0.097815 0.103467 -0.087977
v 0.100891 0.100391 -0.086949
v 0.099353 0.104104 -0.086949
v 0.101528 0.101929 -0.087977
v 0.099353 0.104104 -0.087977
v 0.101528 0.101929 -0.086949
v 0.100891 0.103467 -0.086949
v 0.100891 0.103467 -0.087977
v 0.098631 0.101207 -0.085956
v 0.098331 0.101929 -0.085956
v 0.098397 0.100973 -0.085974
v 0.099353 0.100577 -0.085974
v 0.098001 0.101929 -0.085974
v 0.099353 0.100907 -0.085956
v 0.098631 0.102651 -0.085956
v 0.100309 0.100973 -0.085974
v 0.098397 0.102885 -0.085974
v 0.100075 0.101207 -0.085956
v 0.099353 0.102951 -0.085956
v 0.100705 0.101929 -0.085974
v 0.099353 0.103281 -0.085974
v 0.100375 0.101929 -0.085956
v 0.100075 0.102651 -0.085956
v 0.100309 0.102885 -0.085974
v 0.098397 0.100973 -0.085974
v 0.098001 0.101929 -0.085974
v 0.098397 0.100973 -0.086327
v 0.099353 0.100577 -0.086327
v 0.098001 0.101929 -0.086327
v 0.099353 0.100577 -0.085974
v 0.098397 0.102885 -0.085974
v 0.100309 0.100973 -0.086327
v 0.098397 0.102885 -0.086327
v 0.100309 0.100973 -0.085974
v 0.099353 0.103281 -0.085974
v 0.100705 0.101929 -0.086327
v 0.099353 0.103281 -0.086327
v 0.100705 0.101929 -0.085974
v 0.100309 0.102885 -0.085974
v 0.100309 0.102885 -0.086327
v 0.098001 0.101929 -0.088953
v 0.098397 0.100973 -0.088953
v 0.098001 0.101929 -0.088599
v 0.098397 0.102885 -0.088599
v 0.098397 0.100973 -0.088599
v 0.098397 0.102885 -0.088953
v 0.099353 0.100577 -0.088953
v 0.099353 0.103281 -0.088599
v 0.099353 0.100577 -0.088599
v 0.099353 0.103281 -0.088953
v 0.100309 0.100973 -0.088953
v 0.100309 0.102885 -0.088599
v 0.100309 0.100973 -0.088599
v 0.100309 0.102885 -0.088953
v 0.100705 0.101929 -0.088953
v 0.100705 0.101929 -0.088599
v 0.098397 0.100973 -0.086327
v 0.098001 0.101929 -0.086327
v 0.098125 0.100701 -0.086366
v 0.099353 0.100192 -0.086366
v 0.097616 0.101929 -0.086366
v 0.099353 0.100577 -0.086327
v 0.098397 0.102885 -0.086327
v 0.100581 0.100701 -0.086366
v 0.098125 0.103157 -0.086366
v 0.100309 0.100973 -0.086327
v 0.099353 0.103281 -0.086327
v 0.101090 0.101929 -0.086366
v 0.099353 0.103666 -0.086366
v 0.100705 0.101929 -0.086327
v 0.100309 0.102885 -0.086327
v 0.100581 0.103157 -0.086366
v 0.098001 0.101929 -0.088599
v 0.098397 0.100973 -0.088599
v 0.097616 0.101929 -0.088561
v 0.098125 0.103157 -0.088561
v 0.098125 0.100701 -0.088561
v 0.098397 0.102885 -0.088599
v 0.099353 0.100577 -0.088599
v 0.099353 0.103666 -0.088561
v 0.099353 0.100192 -0.088561
v 0.099353 0.103281 -0.088599
v 0.100309 0.100973 -0.088599
v 0.100581 0.103157 -0.088561
v 0.100581 0.100701 -0.088561
v 0.100309 0.102885 -0.088599
v 0.100705 0.101929 -0.088599
v 0.101090 0.101929 -0.088561
v 0.098125 0.100701 -0.086366
v 0.097616 0.101929 -0.086366
v 0.098125 0.100701 -0.086879
v 0.099353 0.100192 -0.086879
v 0.097616 0.101929 -0.086879
v 0.099353 0.100192 -0.086366
v 0.098125 0.103157 -0.086366
v 0.100581 0.100701 -0.086879
v 0.098125 0.103157 -0.086879
v 0.100581 0.100701 -0.086366
v 0.099353 0.103666 -0.086366
v 0.101090 0.101929 -0.086879
v 0.099353 0.103666 -0.086879
v 0.101090 0.101929 -0.086366
v 0.100581 0.103157 -0.086366
v 0.100581 0.103157 -0.086879
v 0.097616 0.101929 -0.088561
v 0.098125 0.100701 -0.088561
v 0.097616 0.101929 -0.088047
v 0.098125 0.103157 -0.088047
v 0.098125 0.100701 -0.088047
v 0.098125 0.103157 -0.088561
v 0.099353 0.100192 -0.088561
v 0.099353 0.103666 -0.088047
v 0.099353 0.100192 -0.088047
v 0.099353 0.103666 -0.088561
v 0.100581 0.100701 -0.088561
v 0.100581 0.103157 -0.088047
v 0.100581 0.100701 -0.088047
v 0.100581 0.103157 -0.088561
v 0.101090 0.101929 -0.088561
v 0.101090 0.101929 -0.088047
v 0.098125 0.100701 -0.086879
v 0.097616 0.101929 -0.086879
v 0.097815 0.100391 -0.086949
v 0.099353 0.099755 -0.086949
v 0.097179 0.101929 -0.086949
v 0.099353 0.100192 -0.086879
v 0.098125 0.103157 -0.086879
v 0.100891 0.100391 -0.086949
v 0.097815 0.103467 -0.086949
v 0.100581 0.100701 -0.086879
v 0.099353 0.103666 -0.086879
v 0.101528 0.101929 -0.086949
v 0.099353 0.104104 -0.086949
v 0.101090 0.101929 -0.086879
v 0.100581 0.103157 -0.086879
v 0.100891 0.103467 -0.086949
v 0.097616 0.101929 -0.088047
v 0.098125 0.100701 -0.088047
v 0.097179 0.101929 -0.087977
v 0.097815 0.103467 -0.087977
v 0.097815 0.100391 -0.087977
v 0.098125 0.103157 -0.088047
v 0.099353 0.100192 -0.088047
v 0.099353 0.104104 -0.087977
v 0.099353 0.099755 -0.087977
v 0.099353 0.103666 -0.088047
v 0.100581 0.100701 -0.088047
v 0.100891 0.103467 -0.087977
v 0.100891 0.100391 -0.087977
v 0.100581 0.103157 -0.088047
v 0.101090 0.101929 -0.088047
v 0.101528 0.101929 -0.087977
v 0.099021 0.101597 -0.085613
v 0.099353 0.101459 -0.085613
v 0.099021 0.101597 -0.011477
v 0.099353 0.101459 -0.011477
v 0.099685 0.101597 -0.085613
v 0.099685 0.101597 -0.011477
v 0.099823 0.101929 -0.085613
v 0.099823 0.101929 -0.011477
v 0.099685 0.102261 -0.085613
v 0.099685 0.102261 -0.011477
v 0.099353 0.102399 -0.085613
v 0.099353 0.102399 -0.011477
v 0.099021 0.102261 -0.085613
v 0.099021 0.102261 -0.011477
v 0.098883 0.101929 -0.085613
v 0.098883 0.101929 -0.011477
v 0.099021 0.101597 -0.085613
v 0.099021 0.101597 -0.011477
v 0.099048 0.101624 -0.007788
v 0.099353 0.101497 -0.007788
v 0.099353 0.101929 -0.007788
v 0.098921 0.101929 -0.007788
v 0.099658 0.101624 -0.007788
v 0.099048 0.102234 -0.007788
v 0.099353 0.100908 -0.008122
v 0.099785 0.101929 -0.007788
v 0.099353 0.102361 -0.007788
v 0.098331 0.101929 -0.008122
v 0.100075 0.101207 -0.008122
v 0.099658 0.102234 -0.007788
v 0.098631 0.101207 -0.008122
v 0.098631 0.102651 -0.008122
v 0.099353 0.102951 -0.008122
v 0.100075 0.102651 -0.008122
v 0.100375 0.101929 -0.008122
v 0.099021 0.101597 -0.011477
v 0.099353 0.101459 -0.011477
v 0.098631 0.101207 -0.011138
v 0.098331 0.101929 -0.011138
v 0.099353 0.100908 -0.011138
v 0.098883 0.101929 -0.011477
v 0.099685 0.101597 -0.011477
v 0.098631 0.102651 -0.011138
v 0.100075 0.101207 -0.011138
v 0.099021 0.102261 -0.011477
v 0.099823 0.101929 -0.011477
v 0.100375 0.101929 -0.011138
v 0.099353 0.102951 -0.011138
v 0.099353 0.102399 -0.011477
v 0.100075 0.102651 -0.011138
v 0.099685 0.102261 -0.011477
v 0.100375 0.101929 -0.011138
v 0.099823 0.101929 -0.011477
v 0.100705 0.101929 -0.011119
v 0.100309 0.100973 -0.011119
v 0.100309 0.102885 -0.011119
v 0.100075 0.101207 -0.011138
v 0.099353 0.102951 -0.011138
v 0.099353 0.100577 -0.011119
v 0.099353 0.103281 -0.011119
v 0.099353 0.100908 -0.011138
v 0.098631 0.102651 -0.011138
v 0.098397 0.100973 -0.011119
v 0.098397 0.102885 -0.011119
v 0.098631 0.101207 -0.011138
v 0.098331 0.101929 -0.011138
v 0.098001 0.101929 -0.011119
v 0.097815 0.103467 -0.010144
v 0.097179 0.101929 -0.010144
v 0.097815 0.103467 -0.009116
v 0.099353 0.104104 -0.009116
v 0.097179 0.101929 -0.009116
v 0.099353 0.104104 -0.010144
v 0.097815 0.100391 -0.010144
v 0.100891 0.103467 -0.009116
v 0.097815 0.100391 -0.009116
v 0.100891 0.103467 -0.010144
v 0.099353 0.099755 -0.010144
v 0.101528 0.101929 -0.009116
v 0.099353 0.099755 -0.009116
v 0.101528 0.101929 -0.010144
v 0.100891 0.100391 -0.010144
v 0.100891 0.100391 -0.009116
v 0.098331 0.101929 -0.008122
v 0.098631 0.102651 -0.008122
v 0.098001 0.101929 -0.008141
v 0.098397 0.100973 -0.008141
v 0.098397 0.102885 -0.008141
v 0.098631 0.101207 -0.008122
v 0.099353 0.102951 -0.008122
v 0.099353 0.100577 -0.008141
v 0.099353 0.103281 -0.008141
v 0.099353 0.100908 -0.008122
v 0.100075 0.102651 -0.008122
v 0.100309 0.100973 -0.008141
v 0.100309 0.102885 -0.008141
v 0.100075 0.101207 -0.008122
v 0.100375 0.101929 -0.008122
v 0.100705 0.101929 -0.008141
v 0.098397 0.102885 -0.011119
v 0.098001 0.101929 -0.011119
v 0.098397 0.102885 -0.010766
v 0.099353 0.103281 -0.010766
v 0.098001 0.101929 -0.010766
v 0.099353 0.103281 -0.011119
v 0.098397 0.100973 -0.011119
v 0.100309 0.102885 -0.010766
v 0.098397 0.100973 -0.010766
v 0.100309 0.102885 -0.011119
v 0.099353 0.100577 -0.011119
v 0.100705 0.101929 -0.010766
v 0.099353 0.100577 -0.010766
v 0.100705 0.101929 -0.011119
v 0.100309 0.100973 -0.011119
v 0.100309 0.100973 -0.010766
v 0.098001 0.101929 -0.008141
v 0.098397 0.102885 -0.008141
v 0.098001 0.101929 -0.008494
v 0.098397 0.100973 -0.008494
v 0.098397 0.102885 -0.008494
v 0.098397 0.100973 -0.008141
v 0.099353 0.103281 -0.008141
v 0.099353 0.100577 -0.008494
v 0.099353 0.103281 -0.008494
v 0.099353 0.100577 -0.008141
v 0.100309 0.102885 -0.008141
v 0.100309 0.100973 -0.008494
v 0.100309 0.102885 -0.008494
v 0.100309 0.100973 -0.008141
v 0.100705 0.101929 -0.008141
v 0.100705 0.101929 -0.008494
v 0.098397 0.102885 -0.010766
v 0.098001 0.101929 -0.010766
v 0.098125 0.103157 -0.010728
v 0.099353 0.103666 -0.010728
v 0.097616 0.101929 -0.010728
v 0.099353 0.103281 -0.010766
v 0.098397 0.100973 -0.010766
v 0.100581 0.103157 -0.010728
v 0.098125 0.100701 -0.010728
v 0.100309 0.102885 -0.010766
v 0.099353 0.100577 -0.010766
v 0.101090 0.101929 -0.010728
v 0.100705 0.101929 -0.010766
v 0.099353 0.100192 -0.010728
v 0.100309 0.100973 -0.010766
v 0.100581 0.100701 -0.010728
v 0.100705 0.101929 -0.010766
v 0.101090 0.101929 -0.010728
v 0.098001 0.101929 -0.008494
v 0.098397 0.102885 -0.008494
v 0.097616 0.101929 -0.008532
v 0.098125 0.100701 -0.008532
v 0.098125 0.103157 -0.008532
v 0.098397 0.100973 -0.008494
v 0.099353 0.103281 -0.008494
v 0.099353 0.100192 -0.008532
v 0.099353 0.103666 -0.008532
v 0.099353 0.100577 -0.008494
v 0.100309 0.102885 -0.008494
v 0.100581 0.100701 -0.008532
v 0.100581 0.103157 -0.008532
v 0.100309 0.100973 -0.008494
v 0.100705 0.101929 -0.008494
v 0.101090 0.101929 -0.008532
v 0.098125 0.103157 -0.010728
v 0.097616 0.101929 -0.010728
v 0.098125 0.103157 -0.010214
v 0.099353 0.103666 -0.010214
v 0.097616 0.101929 -0.010214
v 0.099353 0.103666 -0.010728
v 0.098125 0.100701 -0.010728
v 0.100581 0.103157 -0.010214
v 0.098125 0.100701 -0.010214
v 0.100581 0.103157 -0.010728
v 0.099353 0.100192 -0.010728
v 0.101090 0.101929 -0.010214
v 0.099353 0.100192 -0.010214
v 0.101090 0.101929 -0.010728
v 0.100581 0.100701 -0.010728
v 0.100581 0.100701 -0.010214
v 0.097616 0.101929 -0.008532
v 0.098125 0.103157 -0.008532
v 0.097616 0.101929 -0.009046
v 0.098125 0.100701 -0.009046
v 0.098125 0.103157 -0.009046
v 0.098125 0.100701 -0.008532
v 0.099353 0.103666 -0.008532
v 0.099353 0.100192 -0.009046
v 0.099353 0.103666 -0.009046
v 0.099353 0.100192 -0.008532
v 0.100581 0.103157 -0.008532
v 0.100581 0.100701 -0.009046
v 0.100581 0.103157 -0.009046
v 0.100581 0.100701 -0.008532
v 0.101090 0.101929 -0.008532
v 0.101090 0.101929 -0.009046
v 0.098125 0.103157 -0.010214
v 0.097616 0.101929 -0.010214
v 0.097815 0.103467 -0.010144
v 0.099353 0.104104 -0.010144
v 0.097179 0.101929 -0.010144
v 0.099353 0.103666 -0.010214
v 0.098125 0.100701 -0.010214
v 0.100891 0.103467 -0.010144
v 0.097815 0.100391 -0.010144
v 0.100581 0.103157 -0.010214
v 0.099353 0.100192 -0.010214
v 0.101528 0.101929 -0.010144
v 0.099353 0.099755 -0.010144
v 0.101090 0.101929 -0.010214
v 0.100581 0.100701 -0.010214
v 0.100891 0.100391 -0.010144
v 0.097616 0.101929 -0.009046
v 0.098125 0.103157 -0.009046
v 0.097179 0.101929 -0.009116
v 0.097815 0.100391 -0.009116
v 0.097815 0.103467 -0.009116
v 0.098125 0.100701 -0.009046
v 0.099353 0.103666 -0.009046
v 0.099353 0.099755 -0.009116
v 0.099353 0.104104 -0.009116
v 0.099353 0.100192 -0.009046
v 0.100581 0.103157 -0.009046
v 0.100891 0.100391 -0.009116
v 0.100891 0.103467 -0.009116
v 0.100581 0.100701 -0.009046
v 0.101090 0.101929 -0.009046
v 0.101528 0.101929 -0.009116
v 0.104034 0.102399 -0.012374
v 0.104034 0.102261 -0.012041
v 0.104227 0.102706 -0.012374
v 0.104227 0.102478 -0.012923
v 0.104227 0.102478 -0.011824
v 0.104034 0.102261 -0.012706
v 0.104034 0.101929 -0.011904
v 0.104227 0.101929 -0.013150
v 0.104227 0.101929 -0.011597
v 0.104034 0.101929 -0.012844
v 0.104034 0.101597 -0.012041
v 0.104227 0.101380 -0.011824
v 0.104227 0.101380 -0.012923
v 0.104034 0.101597 -0.012706
v 0.104227 0.101153 -0.012374
v 0.104034 0.101459 -0.012374
v 0.104227 0.101380 -0.011824
v 0.104034 0.101597 -0.012041
v 0.104227 0.102706 -0.012374
v 0.104227 0.102478 -0.011824
v 0.105165 0.102706 -0.012374
v 0.105165 0.102478 -0.012923
v 0.105165 0.102478 -0.011824
v 0.104227 0.102478 -0.012923
v 0.104227 0.101929 -0.011597
v 0.105165 0.101929 -0.013150
v 0.105165 0.101929 -0.011597
v 0.104227 0.101929 -0.013150
v 0.104227 0.101380 -0.011824
v 0.105165 0.101380 -0.011824
v 0.105165 0.101380 -0.012923
v 0.104227 0.101380 -0.012923
v 0.105165 0.101153 -0.012374
v 0.104227 0.101153 -0.012374
v 0.105165 0.101380 -0.011824
v 0.104227 0.101380 -0.011824
v 0.099369 0.102261 -0.012706
v 0.099369 0.102399 -0.012374
v 0.104034 0.102261 -0.012706
v 0.104034 0.101929 -0.012844
v 0.104034 0.102399 -0.012374
v 0.099369 0.101929 -0.012844
v 0.099369 0.102261 -0.012041
v 0.104034 0.101597 -0.012706
v 0.104034 0.102261 -0.012041
v 0.099369 0.101597 -0.012706
v 0.099369 0.101929 -0.011904
v 0.104034 0.101459 -0.012374
v 0.104034 0.101929 -0.011904
v 0.099369 0.101459 -0.012374
v 0.099369 0.101597 -0.012041
v 0.104034 0.101597 -0.012041
v 0.104034 0.101597 -0.012041
v 0.099369 0.101597 -0.012041
vn -0.8458 0.5334 -0.0000
vn -0.8458 0.3772 0.3772
vn -0.8458 0.3772 -0.3772
vn -0.8458 -0.0000 0.5334
vn -0.8458 -0.0000 -0.5334
vn -0.8458 -0.3772 0.3772
vn -0.8458 -0.3771 0.3772
vn -0.8458 -0.3772 -0.3772
vn -0.8458 -0.5334 -0.0000
vn -0.8458 -0.5335 -0.0000
vn -0.0000 1.0000 -0.0000
vn -0.0000 0.7071 0.7071
vn -0.0000 0.7071 -0.7071
vn -0.0000 -0.0000 1.0000
vn -0.0000 -0.0000 -1.0000
vn -0.0000 -0.7071 0.7072
vn -0.0000 -0.7071 0.7071
vn -0.0000 -0.7071 -0.7071
vn -0.0000 -1.0000 -0.0000
vn -0.1786 0.1786 -0.9676
vn -0.0000 0.2525 -0.9676
vn -0.2525 -0.0000 -0.9676
vn 0.1786 0.1786 -0.9676
vn -0.1786 -0.1786 -0.9676
vn -0.0000 0.4934 -0.8698
vn 0.2525 -0.0000 -0.9676
vn -0.0000 -0.2525 -0.9676
vn -0.4934 -0.0000 -0.8698
vn 0.1975 0.1975 -0.9602
vn 0.1786 -0.1786 -0.9676
vn -0.3489 0.3489 -0.8698
vn -0.3489 -0.3489 -0.8698
vn -0.0000 -0.4934 -0.8698
vn 0.3489 -0.3489 -0.8698
vn 0.2792 -0.0000 -0.9602
vn 0.0548 -0.0000 -0.9985
vn 0.0388 -0.0388 -0.9985
vn 0.0388 0.0388 -0.9985
vn -0.0000 0.0548 -0.9985
vn -0.0000 -0.0548 -0.9985
vn -0.0388 0.0388 -0.9985
vn -0.0388 -0.0388 -0.9985
vn -0.0548 -0.0000 -0.9985
vn -0.3729 0.3729 0.8497
vn -0.0000 0.5273 0.8497
vn -0.5273 -0.0000 0.8497
vn 0.3729 0.3729 0.8497
vn -0.3729 -0.3728 0.8497
vn 0.3729 0.3728 0.8497
vn -0.3728 -0.3729 0.8497
vn 0.5273 -0.0000 0.8497
vn -0.0000 -0.5273 0.8497
vn 0.3729 -0.3728 0.8497
vn 0.3728 -0.3728 0.8497
vn -0.7071 -0.7071 -0.0000
vn -1.0000 -0.0000 -0.0000
vn -0.7071 0.7071 -0.0000
vn 0.7071 -0.7071 -0.0000
vn 1.0000 -0.0000 -0.0000
vn 0.7071 0.7071 -0.0000
vn -0.0388 -0.0389 0.9985
vn -0.0549 -0.0000 0.9985
vn -0.0000 -0.0549 0.9985
vn -0.0389 0.0388 0.9985
vn 0.0388 -0.0389 0.9985
vn -0.0389 0.0389 0.9985
vn 0.0389 -0.0389 0.9985
vn -0.0000 0.0549 0.9985
vn 0.0550 -0.0000 0.9985
vn 0.0388 0.0389 0.9985
vn -0.0701 -0.0701 0.9951
vn -0.0992 -0.0000 0.9951
vn -0.0000 -0.0992 0.9951
vn -0.0701 0.0702 0.9951
vn 0.0701 -0.0701 0.9951
vn -0.0000 0.0992 0.9951
vn 0.0992 -0.0000 0.9951
vn 0.0701 0.0701 0.9951
vn 0.0701 0.0702 0.9951
vn -0.0992 -0.0000 -0.9951
vn -0.0702 -0.0702 -0.9951
vn -0.0702 0.0701 -0.9951
vn -0.0000 -0.0992 -0.9951
vn -0.0000 0.0992 -0.9951
vn 0.0702 -0.0702 -0.9951
vn 0.0701 0.0701 -0.9951
vn 0.0992 -0.0000 -0.9951
vn -0.1118 -0.1118 0.9874
vn -0.1581 -0.0000 0.9874
vn -0.0000 -0.1581 0.9874
vn -0.1118 0.1118 0.9874
vn 0.1118 -0.1118 0.9874
vn -0.0000 0.1581 0.9874
vn 0.1581 -0.0000 0.9874
vn 0.1118 0.1118 0.9874
vn -0.1581 -0.0000 -0.9874
vn -0.1118 -0.1118 -0.9874
vn -0.1118 0.1118 -0.9874
vn -0.0000 -0.1581 -0.9874
vn -0.0000 0.1581 -0.9874
vn 0.1118 -0.1118 -0.9874
vn 0.1117 0.1118 -0.9874
vn 0.1118 0.1118 -0.9874
vn 0.1581 -0.0000 -0.9874
vn -0.1786 -0.1786 0.9676
vn -0.0000 -0.2525 0.9676
vn -0.2525 -0.0000 0.9676
vn 0.1786 -0.1786 0.9676
vn -0.1786 0.1786 0.9676
vn -0.0000 -0.4934 0.8698
vn 0.2525 -0.0000 0.9676
vn -0.0000 0.2525 0.9676
vn -0.4934 -0.0000 0.8698
vn 0.3489 -0.3489 0.8698
vn 0.1786 0.1786 0.9676
vn -0.3489 -0.3489 0.8698
vn -0.3489 0.3489 0.8698
vn -0.0000 0.4934 0.8698
vn 0.3489 0.3489 0.8698
vn 0.4934 -0.0000 0.8698
vn -0.3708 -0.3708 -0.8515
vn -0.0000 -0.5244 -0.8515
vn -0.5244 -0.0000 -0.8515
vn -0.0000 -0.5243 -0.8515
vn 0.3708 -0.3708 -0.8515
vn -0.3708 0.3708 -0.8515
vn 0.5124 -0.2122 -0.8321
vn -0.0000 0.5243 -0.8515
vn 0.2093 0.2093 -0.9552
vn 0.3708 0.3708 -0.8515
vn 0.2143 0.0731 -0.9740
vn 0.5124 0.2122 -0.8321
vn 0.0549 -0.0000 -0.9985
vn 0.0389 -0.0388 -0.9985
vn -0.0000 0.0549 -0.9985
vn -0.0000 -0.0549 -0.9985
vn -0.0389 -0.0389 -0.9985
vn -0.0389 -0.0388 -0.9985
vn -0.0549 -0.0000 -0.9985
vn -0.0548 -0.0000 0.9985
vn -0.0388 0.0388 0.9985
vn -0.0388 -0.0388 0.9985
vn -0.0000 0.0548 0.9985
vn -0.0000 -0.0548 0.9985
vn 0.0387 0.0388 0.9985
vn 0.0388 -0.0388 0.9985
vn 0.0548 -0.0000 0.9985
vn -0.0701 0.0701 -0.9951
vn -0.0701 -0.0701 -0.9951
vn 0.0991 0.0410 -0.9942
vn 0.0702 -0.0701 -0.9951
vn 0.0991 -0.0410 -0.9942
vn -0.0701 0.0701 0.9951
vn -0.0702 -0.0702 0.9951
vn 0.0702 0.0702 0.9951
vn 0.0702 -0.0702 0.9951
vn -0.8459 -0.3772 0.3772
vt 0.531250 0.485808
vt 0.562500 0.485808
vt 0.531250 0.488278
vt 0.500000 0.488278
vt 0.562500 0.488278
vt 0.500000 0.485808
vt 0.593750 0.485808
vt 0.468750 0.488278
vt 0.593750 0.488278
vt 0.468750 0.485808
vt 0.625000 0.485808
vt 0.625000 0.488278
vt 0.437500 0.488278
vt 0.437500 0.485808
vt 0.406250 0.488278
vt 0.406250 0.485808
vt 0.375000 0.488278
vt 0.375000 0.485808
vt 0.531250 0.491985
vt 0.500000 0.491985
vt 0.562500 0.491985
vt 0.468750 0.491985
vt 0.593750 0.491985
vt 0.625000 0.491985
vt 0.437500 0.491985
vt 0.406250 0.491985
vt 0.375000 0.491985
vt 0.500000 0.455725
vt 0.531250 0.455725
vt 0.468750 0.455725
vt 0.562500 0.455725
vt 0.437500 0.455725
vt 0.593750 0.455725
vt 0.406250 0.455725
vt 0.625000 0.455725
vt 0.375000 0.455725
vt 0.610485 0.954235
vt 0.500000 1.000000
vt 0.500000 0.837500
vt 0.656250 0.843750
vt 0.389515 0.954235
vt 0.610485 0.733265
vt 0.343750 0.843750
vt 0.500000 0.687500
vt 0.389515 0.733265
vt 0.656250 0.843750
vt 0.389515 0.954235
vt 0.343750 0.843750
vt 0.389515 0.733265
vt 0.375000 0.312500
vt 0.406250 0.312500
vt 0.375000 0.688440
vt 0.406250 0.688440
vt 0.437500 0.312500
vt 0.437500 0.688440
vt 0.468750 0.312500
vt 0.468750 0.688440
vt 0.500000 0.312500
vt 0.500000 0.688440
vt 0.531250 0.312500
vt 0.531250 0.688440
vt 0.562500 0.312500
vt 0.562500 0.688440
vt 0.593750 0.312500
vt 0.593750 0.688440
vt 0.625000 0.312500
vt 0.625000 0.688440
s 1
g Curtins_room:elements:bonnTrash_BonnieRoom_goldtile_room:elements:bonnTrash_BonnieRoom_goldtile
usemtl room:elements:bonnTrash_BonnieRoom_goldtile
f 1/1/1 2/2/2 3/3/1
f 4/4/3 1/1/1 3/3/1
f 3/3/1 2/2/2 5/5/2
f 6/6/3 1/1/1 4/4/3
f 2/2/2 7/7/4 5/5/2
f 8/8/5 6/6/3 4/4/3
f 5/5/2 7/7/4 9/9/4
f 10/10/5 6/6/3 8/8/5
f 7/7/4 11/11/6 9/9/4
f 9/9/4 11/11/6 12/12/7
f 13/13/8 10/10/5 8/8/5
f 14/14/8 10/10/5 13/13/8
f 15/15/9 14/14/8 13/13/8
f 16/16/10 14/14/8 15/15/9
f 17/17/6 16/16/10 15/15/9
f 18/18/6 16/16/10 17/17/6
f 19/3/11 20/5/12 21/19/11
f 22/20/13 19/3/11 21/19/11
f 21/19/11 20/5/12 23/21/12
f 24/4/13 19/3/11 22/20/13
f 20/5/12 25/9/14 23/21/12
f 26/22/15 24/4/13 22/20/13
f 23/21/12 25/9/14 27/23/14
f 28/8/15 24/4/13 26/22/15
f 25/9/14 29/12/16 27/23/14
f 27/23/14 29/12/16 30/24/17
f 31/25/18 28/8/15 26/22/15
f 32/13/18 28/8/15 31/25/18
f 33/26/19 32/13/18 31/25/18
f 34/15/19 32/13/18 33/26/19
f 35/27/17 34/15/19 33/26/19
f 36/17/17 34/15/19 35/27/17
f 37/28/13 38/29/11 39/6/13
f 40/10/15 37/28/13 39/6/13
f 39/6/13 38/29/11 41/1/11
f 42/30/15 37/28/13 40/10/15
f 38/29/11 43/31/12 41/1/11
f 44/14/18 42/30/15 40/10/15
f 41/1/11 43/31/12 45/2/12
f 46/32/18 42/30/15 44/14/18
f 43/31/12 47/33/14 45/2/12
f 48/16/19 46/32/18 44/14/18
f 45/2/12 47/33/14 49/7/14
f 50/34/19 46/32/18 48/16/19
f 47/33/14 51/35/17 49/7/14
f 49/7/14 51/35/17 52/11/17
f 53/18/17 50/34/19 48/16/19
f 54/36/17 50/34/19 53/18/17
f 55/37/20 56/38/21 57/39/15
f 58/40/22 55/37/20 57/39/15
f 56/38/21 59/41/23 57/39/15
f 60/42/24 58/40/22 57/39/15
f 55/37/20 61/38/25 56/38/21
f 59/41/23 62/43/26 57/39/15
f 63/44/27 60/42/24 57/39/15
f 60/42/24 64/40/28 58/40/22
f 61/38/25 65/41/29 56/38/21
f 56/38/21 65/41/29 59/41/23
f 66/45/30 63/44/27 57/39/15
f 62/43/26 66/45/30 57/39/15
f 64/40/28 67/37/31 58/40/22
f 67/37/31 61/38/25 55/37/20
f 63/44/27 68/42/32 60/42/24
f 66/45/30 69/44/33 63/44/27
f 58/40/22 67/37/31 55/37/20
f 68/42/32 64/40/28 60/42/24
f 70/45/34 69/44/33 66/45/30
f 69/44/33 68/42/32 63/44/27
f 62/43/26 70/45/34 66/45/30
f 65/41/29 71/43/35 59/41/23
f 71/43/35 70/45/34 62/43/26
f 59/41/23 71/43/35 62/43/26
f 71/43/35 65/41/29 72/43/36
f 73/45/37 71/43/35 72/43/36
f 72/43/36 65/41/29 74/41/38
f 75/45/37 71/43/35 73/45/37
f 65/41/29 76/38/39 74/41/38
f 77/44/40 75/45/37 73/45/37
f 74/41/38 76/38/39 78/38/39
f 79/44/40 75/45/37 77/44/40
f 76/38/39 80/37/41 78/38/39
f 81/42/42 79/44/40 77/44/40
f 78/38/39 80/37/41 82/37/41
f 83/42/42 79/44/40 81/42/42
f 80/37/41 84/40/43 82/37/41
f 84/40/43 83/42/42 85/40/43
f 85/40/43 83/42/42 81/42/42
f 82/37/41 84/40/43 85/40/43
f 86/37/44 87/38/45 88/37/44
f 89/46/46 86/37/44 88/37/44
f 88/37/44 87/38/45 90/38/45
f 91/40/46 86/37/44 89/46/46
f 87/38/45 92/41/47 90/38/45
f 93/42/48 91/40/46 89/46/46
f 90/38/45 92/41/47 94/47/49
f 95/42/50 91/40/46 93/42/48
f 92/41/47 96/43/51 94/47/49
f 97/44/52 95/42/50 93/42/48
f 94/47/49 96/43/51 98/48/51
f 99/44/52 95/42/50 97/44/52
f 96/43/51 100/45/53 98/48/51
f 100/45/53 99/44/52 101/49/54
f 101/49/54 99/44/52 97/44/52
f 98/48/51 100/45/53 101/49/54
f 102/42/55 103/46/56 104/42/55
f 105/44/19 102/42/55 104/42/55
f 104/42/55 103/46/56 106/40/56
f 107/44/19 102/42/55 105/44/19
f 103/46/56 108/37/57 106/40/56
f 109/45/58 107/44/19 105/44/19
f 106/40/56 108/37/57 110/37/57
f 111/49/58 107/44/19 109/45/58
f 108/37/57 112/38/11 110/37/57
f 113/43/59 111/49/58 109/45/58
f 110/37/57 112/38/11 114/38/11
f 115/48/59 111/49/58 113/43/59
f 112/38/11 116/47/60 114/38/11
f 116/47/60 115/48/59 117/41/60
f 117/41/60 115/48/59 113/43/59
f 114/38/11 116/47/60 117/41/60
f 118/42/61 119/46/62 120/42/61
f 121/44/63 118/42/61 120/42/61
f 120/42/61 119/46/62 122/46/62
f 123/44/63 118/42/61 121/44/63
f 119/46/62 124/37/64 122/46/62
f 125/49/65 123/44/63 121/44/63
f 122/46/62 124/37/64 126/37/66
f 127/49/67 123/44/63 125/49/65
f 124/37/64 128/38/68 126/37/66
f 129/48/69 127/49/67 125/49/65
f 126/37/66 128/38/68 130/38/68
f 131/48/69 127/49/67 129/48/69
f 128/38/68 132/47/70 130/38/68
f 132/47/70 131/48/69 133/47/70
f 133/47/70 131/48/69 129/48/69
f 130/38/68 132/47/70 133/47/70
f 134/42/55 135/46/56 136/42/55
f 137/44/19 134/42/55 136/42/55
f 136/42/55 135/46/56 138/46/56
f 139/44/19 134/42/55 137/44/19
f 135/46/56 140/37/57 138/46/56
f 141/49/58 139/44/19 137/44/19
f 138/46/56 140/37/57 142/37/57
f 143/49/58 139/44/19 141/49/58
f 140/37/57 144/38/11 142/37/57
f 145/48/59 143/49/58 141/49/58
f 142/37/57 144/38/11 146/38/11
f 147/48/59 143/49/58 145/48/59
f 144/38/11 148/47/60 146/38/11
f 148/47/60 147/48/59 149/47/60
f 149/47/60 147/48/59 145/48/59
f 146/38/11 148/47/60 149/47/60
f 150/40/56 151/42/55 152/40/56
f 153/37/57 150/40/56 152/40/56
f 152/40/56 151/42/55 154/42/55
f 155/37/57 150/40/56 153/37/57
f 151/42/55 156/44/19 154/42/55
f 157/38/11 155/37/57 153/37/57
f 154/42/55 156/44/19 158/44/19
f 159/38/11 155/37/57 157/38/11
f 156/44/19 160/45/58 158/44/19
f 161/41/60 159/38/11 157/38/11
f 158/44/19 160/45/58 162/45/58
f 163/41/60 159/38/11 161/41/60
f 160/45/58 164/43/59 162/45/58
f 164/43/59 163/41/60 165/43/59
f 165/43/59 163/41/60 161/41/60
f 162/45/58 164/43/59 165/43/59
f 166/42/71 167/46/72 168/42/71
f 169/44/73 166/42/71 168/42/71
f 168/42/71 167/46/72 170/46/72
f 171/44/73 166/42/71 169/44/73
f 167/46/72 172/37/74 170/46/72
f 173/49/75 171/44/73 169/44/73
f 170/46/72 172/37/74 174/37/74
f 175/49/75 171/44/73 173/49/75
f 172/37/74 176/38/76 174/37/74
f 177/48/77 175/49/75 173/49/75
f 174/37/74 176/38/76 178/38/76
f 179/48/77 175/49/75 177/48/77
f 176/38/76 180/47/78 178/38/76
f 180/47/78 179/48/77 181/47/79
f 181/47/79 179/48/77 177/48/77
f 178/38/76 180/47/78 181/47/79
f 182/40/80 183/42/81 184/40/80
f 185/37/82 182/40/80 184/40/80
f 184/40/80 183/42/81 186/42/81
f 187/37/82 182/40/80 185/37/82
f 183/42/81 188/44/83 186/42/81
f 189/38/84 187/37/82 185/37/82
f 186/42/81 188/44/83 190/44/83
f 191/38/84 187/37/82 189/38/84
f 188/44/83 192/45/85 190/44/83
f 193/41/86 191/38/84 189/38/84
f 190/44/83 192/45/85 194/45/85
f 195/41/86 191/38/84 193/41/86
f 192/45/85 196/43/87 194/45/85
f 196/43/87 195/41/86 197/43/87
f 197/43/87 195/41/86 193/41/86
f 194/45/85 196/43/87 197/43/87
f 198/42/55 199/46/56 200/42/55
f 201/44/19 198/42/55 200/42/55
f 200/42/55 199/46/56 202/46/56
f 203/44/19 198/42/55 201/44/19
f 199/46/56 204/37/57 202/46/56
f 205/49/58 203/44/19 201/44/19
f 202/46/56 204/37/57 206/37/57
f 207/49/58 203/44/19 205/49/58
f 204/37/57 208/38/11 206/37/57
f 209/48/59 207/49/58 205/49/58
f 206/37/57 208/38/11 210/38/11
f 211/48/59 207/49/58 209/48/59
f 208/38/11 212/47/60 210/38/11
f 212/47/60 211/48/59 213/47/60
f 213/47/60 211/48/59 209/48/59
f 210/38/11 212/47/60 213/47/60
f 214/40/56 215/42/55 216/40/56
f 217/37/57 214/40/56 216/40/56
f 216/40/56 215/42/55 218/42/55
f 219/37/57 214/40/56 217/37/57
f 215/42/55 220/44/19 218/42/55
f 221/38/11 219/37/57 217/37/57
f 218/42/55 220/44/19 222/44/19
f 223/38/11 219/37/57 221/38/11
f 220/44/19 224/45/58 222/44/19
f 225/41/60 223/38/11 221/38/11
f 222/44/19 224/45/58 226/45/58
f 227/41/60 223/38/11 225/41/60
f 224/45/58 228/43/59 226/45/58
f 228/43/59 227/41/60 229/43/59
f 229/43/59 227/41/60 225/41/60
f 226/45/58 228/43/59 229/43/59
f 230/42/88 231/46/89 232/42/88
f 233/44/90 230/42/88 232/42/88
f 232/42/88 231/46/89 234/46/89
f 235/44/90 230/42/88 233/44/90
f 231/46/89 236/37/91 234/46/89
f 237/49/92 235/44/90 233/44/90
f 234/46/89 236/37/91 238/37/91
f 239/49/92 235/44/90 237/49/92
f 236/37/91 240/38/93 238/37/91
f 241/48/94 239/49/92 237/49/92
f 238/37/91 240/38/93 242/38/93
f 243/48/94 239/49/92 241/48/94
f 240/38/93 244/47/95 242/38/93
f 244/47/95 243/48/94 245/47/95
f 245/47/95 243/48/94 241/48/94
f 242/38/93 244/47/95 245/47/95
f 246/40/96 247/42/97 248/40/96
f 249/37/98 246/40/96 248/40/96
f 248/40/96 247/42/97 250/42/97
f 251/37/98 246/40/96 249/37/98
f 247/42/97 252/44/99 250/42/97
f 253/38/100 251/37/98 249/37/98
f 250/42/97 252/44/99 254/44/99
f 255/38/100 251/37/98 253/38/100
f 252/44/99 256/45/101 254/44/99
f 257/41/102 255/38/100 253/38/100
f 254/44/99 256/45/101 258/45/101
f 259/41/103 255/38/100 257/41/102
f 256/45/101 260/43/104 258/45/101
f 260/43/104 259/41/103 261/43/104
f 261/43/104 259/41/103 257/41/102
f 258/45/101 260/43/104 261/43/104
f 262/50/55 263/51/19 264/52/55
f 264/52/55 263/51/19 265/53/19
f 263/51/19 266/54/58 265/53/19
f 265/53/19 266/54/58 267/55/58
f 266/54/58 268/56/59 267/55/58
f 267/55/58 268/56/59 269/57/59
f 268/56/59 270/58/60 269/57/59
f 269/57/59 270/58/60 271/59/60
f 270/58/60 272/60/11 271/59/60
f 271/59/60 272/60/11 273/61/11
f 272/60/11 274/62/57 273/61/11
f 273/61/11 274/62/57 275/63/57
f 274/62/57 276/64/56 275/63/57
f 275/63/57 276/64/56 277/65/56
f 276/64/56 278/66/55 277/65/56
f 277/65/56 278/66/55 279/67/55
f 280/37/105 281/38/106 282/39/14
f 283/40/107 280/37/105 282/39/14
f 281/38/106 284/41/108 282/39/14
f 285/42/109 283/40/107 282/39/14
f 280/37/105 286/38/110 281/38/106
f 284/41/108 287/43/111 282/39/14
f 288/44/112 285/42/109 282/39/14
f 285/42/109 289/40/113 283/40/107
f 286/38/110 290/41/114 281/38/106
f 281/38/106 290/41/114 284/41/108
f 291/45/115 288/44/112 282/39/14
f 287/43/111 291/45/115 282/39/14
f 289/40/113 292/37/116 283/40/107
f 292/37/116 286/38/110 280/37/105
f 288/44/112 293/42/117 285/42/109
f 291/45/115 294/44/118 288/44/112
f 283/40/107 292/37/116 280/37/105
f 293/42/117 289/40/113 285/42/109
f 295/45/119 294/44/118 291/45/115
f 294/44/118 293/42/117 288/44/112
f 287/43/111 295/45/119 291/45/115
f 290/41/114 296/43/120 284/41/108
f 296/43/120 295/45/119 287/43/111
f 284/41/108 296/43/120 287/43/111
f 297/37/121 298/38/122 299/37/121
f 300/46/123 297/37/121 299/37/121
f 299/37/121 298/38/122 301/38/124
f 302/40/123 297/37/121 300/46/123
f 298/38/122 303/41/125 301/38/124
f 304/42/126 302/40/123 300/46/123
f 301/38/124 303/41/125 305/47/125
f 306/42/126 302/40/123 304/42/126
f 303/41/125 307/43/127 305/47/125
f 305/47/125 307/43/127 308/48/127
f 309/44/128 306/42/126 304/42/126
f 310/44/128 306/42/126 309/44/128
f 311/49/129 310/44/128 309/44/128
f 312/45/130 310/44/128 311/49/129
f 313/48/131 312/45/130 311/49/129
f 314/43/132 312/45/130 313/48/131
f 313/48/131 311/49/129 315/48/133
f 316/47/134 313/48/131 315/48/133
f 315/48/133 311/49/129 317/49/38
f 318/47/134 313/48/131 316/47/134
f 311/49/129 319/44/135 317/49/38
f 320/38/136 318/47/134 316/47/134
f 317/49/38 319/44/135 321/44/135
f 322/38/136 318/47/134 320/38/136
f 319/44/135 323/42/41 321/44/135
f 324/37/137 322/38/136 320/38/136
f 321/44/135 323/42/41 325/42/41
f 326/37/138 322/38/136 324/37/137
f 323/42/41 327/46/139 325/42/41
f 327/46/139 326/37/138 328/46/139
f 328/46/139 326/37/138 324/37/137
f 325/42/41 327/46/139 328/46/139
f 329/42/57 330/46/56 331/42/57
f 332/44/11 329/42/57 331/42/57
f 331/42/57 330/46/56 333/40/56
f 334/44/11 329/42/57 332/44/11
f 330/46/56 335/37/55 333/40/56
f 336/45/60 334/44/11 332/44/11
f 333/40/56 335/37/55 337/37/55
f 338/49/60 334/44/11 336/45/60
f 335/37/55 339/38/19 337/37/55
f 340/43/59 338/49/60 336/45/60
f 337/37/55 339/38/19 341/38/19
f 342/48/59 338/49/60 340/43/59
f 339/38/19 343/47/58 341/38/19
f 343/47/58 342/48/59 344/41/58
f 344/41/58 342/48/59 340/43/59
f 341/38/19 343/47/58 344/41/58
f 345/40/140 346/42/141 347/40/140
f 348/37/142 345/40/140 347/40/140
f 347/40/140 346/42/141 349/42/141
f 350/37/142 345/40/140 348/37/142
f 346/42/141 351/44/143 349/42/141
f 352/38/144 350/37/142 348/37/142
f 349/42/141 351/44/143 353/44/143
f 354/38/144 350/37/142 352/38/144
f 351/44/143 355/45/145 353/44/143
f 356/41/146 354/38/144 352/38/144
f 353/44/143 355/45/145 357/45/145
f 358/41/146 354/38/144 356/41/146
f 355/45/145 359/43/147 357/45/145
f 359/43/147 358/41/146 360/43/147
f 360/43/147 358/41/146 356/41/146
f 357/45/145 359/43/147 360/43/147
f 361/42/57 362/46/56 363/42/57
f 364/44/11 361/42/57 363/42/57
f 363/42/57 362/46/56 365/46/56
f 366/44/11 361/42/57 364/44/11
f 362/46/56 367/37/55 365/46/56
f 368/49/60 366/44/11 364/44/11
f 365/46/56 367/37/55 369/37/55
f 370/49/60 366/44/11 368/49/60
f 367/37/55 371/38/19 369/37/55
f 372/48/59 370/49/60 368/49/60
f 369/37/55 371/38/19 373/38/19
f 374/48/59 370/49/60 372/48/59
f 371/38/19 375/47/58 373/38/19
f 375/47/58 374/48/59 376/47/58
f 376/47/58 374/48/59 372/48/59
f 373/38/19 375/47/58 376/47/58
f 377/40/56 378/42/57 379/40/56
f 380/37/55 377/40/56 379/40/56
f 379/40/56 378/42/57 381/42/57
f 382/37/55 377/40/56 380/37/55
f 378/42/57 383/44/11 381/42/57
f 384/38/19 382/37/55 380/37/55
f 381/42/57 383/44/11 385/44/11
f 386/38/19 382/37/55 384/38/19
f 383/44/11 387/45/60 385/44/11
f 388/41/58 386/38/19 384/38/19
f 385/44/11 387/45/60 389/45/60
f 390/41/58 386/38/19 388/41/58
f 387/45/60 391/43/59 389/45/60
f 391/43/59 390/41/58 392/43/59
f 392/43/59 390/41/58 388/41/58
f 389/45/60 391/43/59 392/43/59
f 393/42/148 394/46/80 395/42/148
f 396/44/84 393/42/148 395/42/148
f 395/42/148 394/46/80 397/46/80
f 398/44/84 393/42/148 396/44/84
f 394/46/80 399/37/149 397/46/80
f 400/49/86 398/44/84 396/44/84
f 397/46/80 399/37/149 401/37/81
f 402/49/86 398/44/84 400/49/86
f 399/37/149 403/38/83 401/37/81
f 404/48/150 402/49/86 400/49/86
f 405/48/150 402/49/86 404/48/150
f 401/37/81 403/38/83 406/38/83
f 403/38/83 407/47/151 406/38/83
f 406/38/83 407/47/151 408/47/151
f 407/47/151 409/48/152 408/47/151
f 408/47/151 409/48/152 410/48/152
f 411/40/72 412/42/153 413/40/72
f 414/37/154 411/40/72 413/40/72
f 413/40/72 412/42/153 415/42/153
f 416/37/154 411/40/72 414/37/154
f 412/42/153 417/44/76 415/42/153
f 418/38/73 416/37/154 414/37/154
f 415/42/153 417/44/76 419/44/76
f 420/38/73 416/37/154 418/38/73
f 417/44/76 421/45/155 419/44/76
f 422/41/156 420/38/73 418/38/73
f 419/44/76 421/45/155 423/45/155
f 424/41/156 420/38/73 422/41/156
f 421/45/155 425/43/77 423/45/155
f 425/43/77 424/41/156 426/43/77
f 426/43/77 424/41/156 422/41/156
f 423/45/155 425/43/77 426/43/77
f 427/42/57 428/46/56 429/42/57
f 430/44/11 427/42/57 429/42/57
f 429/42/57 428/46/56 431/46/56
f 432/44/11 427/42/57 430/44/11
f 428/46/56 433/37/55 431/46/56
f 434/49/60 432/44/11 430/44/11
f 431/46/56 433/37/55 435/37/55
f 436/49/60 432/44/11 434/49/60
f 433/37/55 437/38/19 435/37/55
f 438/48/59 436/49/60 434/49/60
f 435/37/55 437/38/19 439/38/19
f 440/48/59 436/49/60 438/48/59
f 437/38/19 441/47/58 439/38/19
f 441/47/58 440/48/59 442/47/58
f 442/47/58 440/48/59 438/48/59
f 439/38/19 441/47/58 442/47/58
f 443/40/56 444/42/57 445/40/56
f 446/37/55 443/40/56 445/40/56
f 445/40/56 444/42/57 447/42/57
f 448/37/55 443/40/56 446/37/55
f 444/42/57 449/44/11 447/42/57
f 450/38/19 448/37/55 446/37/55
f 447/42/57 449/44/11 451/44/11
f 452/38/19 448/37/55 450/38/19
f 449/44/11 453/45/60 451/44/11
f 454/41/58 452/38/19 450/38/19
f 451/44/11 453/45/60 455/45/60
f 456/41/58 452/38/19 454/41/58
f 453/45/60 457/43/59 455/45/60
f 457/43/59 456/41/58 458/43/59
f 458/43/59 456/41/58 454/41/58
f 455/45/60 457/43/59 458/43/59
f 459/42/98 460/46/96 461/42/98
f 462/44/100 459/42/98 461/42/98
f 461/42/98 460/46/96 463/46/96
f 464/44/100 459/42/98 462/44/100
f 460/46/96 465/37/97 463/46/96
f 466/49/103 464/44/100 462/44/100
f 463/46/96 465/37/97 467/37/97
f 468/49/103 464/44/100 466/49/103
f 465/37/97 469/38/99 467/37/97
f 470/48/104 468/49/103 466/49/103
f 467/37/97 469/38/99 471/38/99
f 472/48/104 468/49/103 470/48/104
f 469/38/99 473/47/101 471/38/99
f 473/47/101 472/48/104 474/47/101
f 474/47/101 472/48/104 470/48/104
f 471/38/99 473/47/101 474/47/101
f 475/40/89 476/42/91 477/40/89
f 478/37/88 475/40/89 477/40/89
f 477/40/89 476/42/91 479/42/91
f 480/37/88 475/40/89 478/37/88
f 476/42/91 481/44/93 479/42/91
f 482/38/90 480/37/88 478/37/88
f 479/42/91 481/44/93 483/44/93
f 484/38/90 480/37/88 482/38/90
f 481/44/93 485/45/95 483/44/93
f 486/41/92 484/38/90 482/38/90
f 483/44/93 485/45/95 487/45/95
f 488/41/92 484/38/90 486/41/92
f 485/45/95 489/43/94 487/45/95
f 489/43/94 488/41/92 490/43/94
f 490/43/94 488/41/92 486/41/92
f 487/45/95 489/43/94 490/43/94
f 491/1/1 492/2/2 493/3/1
f 494/4/3 491/1/1 493/3/1
f 493/3/1 492/2/2 495/5/2
f 496/6/3 491/1/1 494/4/3
f 492/2/2 497/7/4 495/5/2
f 498/8/5 496/6/3 494/4/3
f 495/5/2 497/7/4 499/9/4
f 500/10/5 496/6/3 498/8/5
f 497/7/4 501/11/157 499/9/4
f 499/9/4 501/11/157 502/12/6
f 503/13/8 500/10/5 498/8/5
f 504/14/8 500/10/5 503/13/8
f 505/15/9 504/14/8 503/13/8
f 506/16/10 504/14/8 505/15/9
f 507/17/6 506/16/10 505/15/9
f 508/18/6 506/16/10 507/17/6
f 509/3/11 510/5/12 511/19/11
f 512/20/13 509/3/11 511/19/11
f 511/19/11 510/5/12 513/21/12
f 514/4/13 509/3/11 512/20/13
f 510/5/12 515/9/14 513/21/12
f 516/22/15 514/4/13 512/20/13
f 513/21/12 515/9/14 517/23/14
f 518/8/15 514/4/13 516/22/15
f 515/9/14 519/12/17 517/23/14
f 517/23/14 519/12/17 520/24/17
f 521/25/18 518/8/15 516/22/15
f 522/13/18 518/8/15 521/25/18
f 523/26/19 522/13/18 521/25/18
f 524/15/19 522/13/18 523/26/19
f 525/27/17 524/15/19 523/26/19
f 526/17/17 524/15/19 525/27/17
f 527/28/13 528/29/11 529/6/13
f 530/10/15 527/28/13 529/6/13
f 529/6/13 528/29/11 531/1/11
f 532/30/15 527/28/13 530/10/15
f 528/29/11 533/31/12 531/1/11
f 534/14/18 532/30/15 530/10/15
f 531/1/11 533/31/12 535/2/12
f 536/32/18 532/30/15 534/14/18
f 533/31/12 537/33/14 535/2/12
f 538/16/19 536/32/18 534/14/18
f 535/2/12 537/33/14 539/7/14
f 540/34/19 536/32/18 538/16/19
f 537/33/14 541/35/17 539/7/14
f 539/7/14 541/35/17 542/11/16
f 543/18/17 540/34/19 538/16/19
f 544/36/17 540/34/19 543/18/17
