# Blender 4.1.1
# www.blender.org
mtllib Rug.mtl
o ST_AH_OvalRug1_GUI_Rug
v -0.031667 0.001515 -0.066762
v -0.028449 0.001468 -0.076086
v -0.031601 0.001468 -0.074079
v 0.050463 0.001468 -0.069755
v 0.052003 0.001583 -0.071559
v 0.051970 0.001608 -0.072486
v 0.050463 0.001468 -0.069755
v 0.051970 0.001608 -0.072486
v 0.047308 0.001512 -0.072822
v 0.031354 0.001289 -0.041400
v 0.039785 0.001588 -0.042908
v 0.031333 0.001540 -0.041525
v 0.022081 0.001313 -0.040856
v 0.039740 0.001839 -0.043028
v 0.031302 0.001616 -0.041706
v 0.022085 0.001061 -0.040729
v 0.047748 0.001602 -0.045612
v 0.039675 0.001915 -0.043204
v 0.011541 0.001313 -0.040776
v 0.047815 0.001351 -0.045499
v 0.031265 0.001663 -0.041918
v 0.011539 0.001061 -0.040648
v 0.047651 0.001678 -0.045777
v 0.039600 0.001962 -0.043408
v 0.000354 0.001587 -0.040862
v 0.055165 0.001446 -0.049201
v 0.011545 0.001388 -0.040961
v 0.047538 0.001725 -0.045969
v 0.055038 0.001522 -0.049351
v 0.000357 0.001839 -0.040990
v 0.046395 0.001750 -0.047911
v 0.054890 0.001569 -0.049527
v 0.000360 0.001914 -0.041175
v 0.038799 0.001987 -0.045573
v 0.061468 0.001435 -0.054003
v -0.010828 0.001657 -0.041204
v 0.038491 0.001468 -0.061348
v 0.059660 0.001460 -0.055562
v -0.010830 0.001405 -0.041077
v 0.053324 0.001594 -0.051386
v 0.061647 0.001388 -0.053849
v -0.021357 0.001521 -0.041688
v 0.067119 0.001435 -0.059280
v -0.021365 0.001269 -0.041562
v 0.042916 0.001468 -0.063736
v 0.067324 0.001388 -0.059150
v -0.030602 0.001318 -0.042587
v 0.047155 0.001468 -0.066344
v 0.061801 0.001312 -0.053717
v -0.030576 0.001570 -0.042710
v 0.064940 0.001460 -0.060650
v 0.067501 0.001312 -0.059039
v -0.038969 0.001543 -0.044416
v 0.069396 0.001842 -0.066255
v 0.067622 0.001061 -0.058963
v -0.038920 0.001795 -0.044534
v 0.053180 0.001466 -0.066602
v -0.030538 0.001645 -0.042891
v 0.053309 0.001467 -0.067965
v 0.047742 0.001468 -0.066950
v -0.038848 0.001871 -0.044707
v 0.055252 0.001194 -0.049098
v -0.030494 0.001693 -0.043100
v -0.046720 0.001760 -0.047584
v 0.052038 0.001467 -0.068007
v 0.061906 0.001061 -0.053626
v -0.046823 0.001684 -0.047423
v 0.048747 0.001468 -0.067986
v -0.054097 0.001312 -0.051293
v 0.051706 0.001467 -0.068416
v 0.053309 0.001467 -0.067965
v -0.053965 0.001388 -0.051439
v -0.046894 0.001432 -0.047313
v 0.051929 0.001468 -0.068833
v -0.053810 0.001435 -0.051608
v 0.050463 0.001468 -0.069755
v 0.050463 0.001468 -0.069755
v -0.046600 0.001807 -0.047772
v -0.054188 0.001061 -0.051193
v 0.052003 0.001583 -0.071559
v -0.045383 0.001832 -0.049669
v -0.060555 0.001312 -0.056060
v -0.038765 0.001918 -0.044909
v -0.060664 0.001061 -0.055973
v -0.060396 0.001388 -0.056186
v -0.066047 0.001129 -0.061596
v -0.052174 0.001460 -0.053406
v -0.058346 0.001460 -0.057822
v -0.037882 0.001943 -0.047042
v -0.065867 0.001205 -0.061701
v -0.060212 0.001435 -0.056333
v -0.036970 0.001468 -0.062793
v -0.065656 0.001252 -0.061822
v -0.032014 0.001599 -0.061213
v -0.041300 0.001468 -0.065349
v -0.045436 0.001468 -0.068117
v -0.026954 0.001598 -0.059887
v -0.063426 0.001277 -0.063108
v -0.030047 0.001717 -0.045221
v -0.069999 0.001435 -0.067946
v -0.021185 0.001669 -0.044411
v -0.067665 0.001460 -0.068880
v -0.020192 0.001378 -0.059557
v -0.048612 0.001468 -0.071652
v -0.073144 0.001876 -0.074549
v -0.051523 0.001468 -0.075340
v -0.070539 0.001900 -0.075198
v -0.021331 0.001644 -0.042087
v -0.070229 0.001388 -0.067854
v -0.021345 0.001597 -0.041872
v -0.010774 0.001804 -0.043998
v -0.010481 0.001744 -0.059304
v -0.070428 0.001312 -0.067774
v -0.010824 0.001732 -0.041390
v 0.000410 0.001986 -0.043783
v -0.010820 0.001780 -0.041606
v 0.000703 0.001836 -0.059089
v -0.070563 0.001061 -0.067720
v 0.011594 0.001460 -0.043569
v -0.073390 0.001828 -0.074488
v 0.000364 0.001961 -0.041392
v 0.011888 0.001468 -0.058875
v 0.021601 0.001468 -0.058756
v -0.075256 0.002100 -0.081445
v 0.011549 0.001435 -0.041178
v 0.022013 0.001460 -0.043584
v -0.075002 0.002147 -0.081473
v 0.028371 0.001554 -0.058827
v -0.072429 0.002172 -0.081761
v 0.022076 0.001388 -0.041041
v 0.030900 0.001688 -0.044053
v 0.022070 0.001435 -0.041256
v -0.054635 0.001630 -0.083753
v -0.072815 0.001729 -0.088493
v -0.075540 0.001704 -0.088545
v -0.053233 0.001629 -0.079508
v -0.054712 0.001468 -0.088146
v -0.054467 0.001468 -0.092533
v -0.072172 0.001460 -0.095204
v -0.075797 0.001657 -0.088550
v -0.070032 0.001317 -0.101690
v -0.074984 0.001388 -0.095629
v -0.075474 0.002024 -0.081420
v -0.072610 0.001292 -0.102438
v -0.052903 0.001468 -0.096721
v -0.074731 0.001435 -0.095591
v -0.076018 0.001581 -0.088554
v -0.051035 0.001468 -0.100821
v -0.073601 0.001753 -0.074436
v -0.066918 0.001238 -0.107894
v -0.075202 0.001312 -0.095662
v -0.062462 0.001305 -0.113499
v -0.075624 0.001772 -0.081404
v -0.064640 0.001280 -0.114870
v -0.076169 0.001329 -0.088557
v -0.047985 0.001468 -0.104394
v -0.073745 0.001501 -0.074400
v -0.075351 0.001061 -0.095684
v -0.044676 0.001468 -0.107805
v -0.069214 0.001213 -0.108916
v -0.073062 0.001169 -0.102569
v -0.057182 0.001460 -0.118587
v -0.073205 0.000917 -0.102611
v -0.072853 0.001245 -0.102509
v -0.050845 0.001610 -0.122763
v -0.069636 0.001090 -0.109104
v -0.052412 0.001585 -0.124622
v -0.069770 0.000839 -0.109164
v -0.058990 0.001435 -0.120146
v -0.069441 0.001166 -0.109017
v -0.059169 0.001388 -0.120300
v -0.064846 0.001233 -0.114999
v -0.052560 0.001538 -0.124798
v -0.065023 0.001158 -0.115110
v -0.045173 0.001874 -0.128372
v -0.065144 0.000906 -0.115186
v -0.059322 0.001312 -0.120432
v -0.045060 0.001922 -0.128180
v -0.059427 0.001061 -0.120523
v -0.037121 0.001721 -0.130741
v -0.043917 0.001946 -0.126238
v -0.045270 0.001798 -0.128537
v -0.052774 0.001210 -0.125051
v -0.052687 0.001462 -0.124948
v -0.037197 0.001674 -0.130945
v -0.036321 0.001746 -0.128576
v -0.045336 0.001547 -0.128650
v -0.036013 0.001736 -0.112802
v -0.028823 0.001388 -0.132443
v -0.028787 0.001435 -0.132231
v -0.037262 0.001598 -0.131121
v -0.040437 0.001536 -0.110413
v -0.028854 0.001312 -0.132625
v -0.037306 0.001347 -0.131241
v -0.031000 0.001671 -0.114190
v -0.019598 0.001388 -0.133108
v -0.025892 0.001468 -0.115322
v -0.019592 0.001435 -0.132893
v -0.028876 0.001061 -0.132749
v -0.028422 0.001460 -0.130096
v -0.019535 0.001460 -0.130565
v -0.019606 0.001061 -0.133420
v -0.019603 0.001313 -0.133293
v -0.019122 0.001468 -0.115393
v -0.009063 0.001313 -0.133373
v -0.009071 0.001435 -0.132971
v -0.009116 0.001460 -0.130580
v -0.009060 0.001061 -0.133501
v -0.009066 0.001388 -0.133188
v 0.002124 0.001061 -0.133287
v -0.009409 0.001468 -0.115274
v 0.002118 0.001388 -0.132974
v 0.002122 0.001313 -0.133159
v 0.002068 0.001460 -0.130366
v 0.002114 0.001435 -0.132757
v 0.001775 0.001468 -0.115060
v 0.013309 0.001352 -0.133072
v 0.012959 0.001468 -0.114845
v 0.013306 0.001604 -0.132945
v 0.013303 0.001680 -0.132759
v 0.013252 0.001752 -0.130151
v 0.023835 0.001491 -0.132461
v 0.022670 0.001468 -0.114592
v 0.023844 0.001239 -0.132588
v 0.013298 0.001727 -0.132543
v 0.023663 0.001638 -0.129738
v 0.033054 0.001312 -0.131439
v 0.023809 0.001613 -0.132062
v 0.033080 0.001061 -0.131562
v 0.023823 0.001566 -0.132277
v 0.029432 0.001468 -0.114262
v 0.041447 0.001455 -0.129733
v 0.032525 0.001460 -0.128928
v 0.041398 0.001706 -0.129615
v 0.033016 0.001388 -0.131259
v 0.040360 0.001854 -0.127107
v 0.049372 0.001747 -0.126836
v 0.032972 0.001435 -0.131049
v 0.034493 0.001468 -0.112936
v 0.049301 0.001999 -0.126726
v 0.039449 0.001603 -0.111357
v 0.041327 0.001782 -0.129442
v 0.056576 0.001612 -0.122856
v 0.047862 0.002147 -0.124480
v 0.041243 0.001829 -0.129240
v 0.056666 0.001360 -0.122956
v 0.049198 0.002075 -0.126565
v 0.056443 0.001688 -0.122710
v 0.049078 0.002122 -0.126377
v 0.063033 0.001312 -0.118089
v 0.054652 0.001760 -0.120743
v 0.062875 0.001388 -0.117963
v 0.056288 0.001735 -0.122541
v 0.043779 0.001539 -0.108800
v 0.068345 0.001388 -0.112448
v 0.047915 0.001468 -0.106032
v 0.068134 0.001435 -0.112327
v 0.060824 0.001460 -0.116327
v 0.068526 0.001312 -0.112553
v 0.065905 0.001460 -0.111041
v 0.062690 0.001435 -0.117816
v 0.072477 0.001616 -0.106203
v 0.070143 0.001640 -0.105269
v 0.051090 0.001468 -0.102497
v 0.072707 0.001568 -0.106295
v 0.068649 0.001061 -0.112624
v 0.075622 0.001954 -0.099600
v 0.075868 0.001907 -0.099661
v 0.054001 0.001468 -0.098809
v 0.063142 0.001061 -0.118176
v 0.073017 0.001979 -0.098951
v 0.076079 0.001831 -0.099713
v 0.055711 0.001545 -0.094641
v 0.073041 0.001241 -0.106429
v 0.072906 0.001492 -0.106375
v 0.074907 0.001786 -0.092388
v 0.057113 0.001621 -0.090396
v 0.077480 0.001762 -0.092676
v 0.076224 0.001579 -0.099749
v 0.075293 0.001460 -0.085656
v 0.078018 0.001435 -0.085604
v 0.077734 0.001714 -0.092704
v 0.077953 0.001638 -0.092729
v 0.078102 0.001387 -0.092745
v 0.057190 0.001468 -0.086003
v 0.074650 0.001460 -0.078945
v 0.078275 0.001388 -0.085599
v 0.078496 0.001312 -0.085595
v 0.056945 0.001468 -0.081616
v 0.078647 0.001061 -0.085592
v 0.072510 0.001710 -0.072459
v 0.077209 0.001435 -0.078559
v 0.077680 0.001312 -0.078488
v 0.055382 0.001544 -0.077428
v 0.077829 0.001061 -0.078465
v 0.075088 0.001685 -0.071711
v 0.053513 0.001695 -0.073328
v 0.075683 0.001311 -0.071538
v 0.075331 0.001638 -0.071640
v 0.075540 0.001562 -0.071580
v 0.077462 0.001388 -0.078520
v 0.072248 0.001442 -0.064985
v 0.071919 0.001770 -0.065132
v 0.071692 0.001817 -0.065233
v 0.072114 0.001694 -0.065045
v 0.053149 0.001668 -0.072902
v 0.078698 0.000485 -0.085591
v 0.078647 0.001061 -0.085592
v 0.077878 0.000485 -0.078458
v 0.078579 -0.000099 -0.085594
v 0.077829 0.001061 -0.078465
v 0.077762 -0.000099 -0.078475
v 0.078152 0.000811 -0.092751
v 0.075731 0.000735 -0.071524
v 0.075618 0.000151 -0.071557
v 0.078035 0.000228 -0.092738
v 0.075683 0.001311 -0.071538
v 0.078102 0.001387 -0.092745
v 0.076158 0.000420 -0.099733
v 0.072292 0.000867 -0.064966
v 0.072188 0.000283 -0.065012
v 0.076272 0.001004 -0.099761
v 0.072248 0.001442 -0.064985
v 0.076224 0.001579 -0.099749
v 0.073087 0.000665 -0.106447
v 0.067622 0.001061 -0.058963
v 0.067662 0.000485 -0.058938
v 0.073041 0.001241 -0.106429
v 0.072980 0.000082 -0.106404
v 0.067567 -0.000099 -0.058997
v 0.068649 0.001061 -0.112624
v 0.068691 0.000485 -0.112648
v 0.061941 0.000485 -0.053596
v 0.068593 -0.000099 -0.112592
v 0.061906 0.001061 -0.053626
v 0.061858 -0.000099 -0.053667
v 0.063178 0.000485 -0.118205
v 0.055281 0.000619 -0.049063
v 0.055213 0.000035 -0.049144
v 0.063142 0.001061 -0.118176
v 0.063093 -0.000099 -0.118137
v 0.055252 0.001194 -0.049098
v 0.056697 0.000785 -0.122989
v 0.056625 0.000201 -0.122911
v 0.047785 0.000192 -0.045550
v 0.047837 0.000775 -0.045461
v 0.056666 0.001360 -0.122956
v 0.047815 0.001351 -0.045499
v 0.049340 0.000588 -0.126787
v 0.049396 0.001172 -0.126873
v 0.039765 0.000428 -0.042962
v 0.039799 0.001012 -0.042868
v 0.049372 0.001747 -0.126836
v 0.039785 0.001588 -0.042908
v 0.041464 0.000879 -0.129773
v 0.041447 0.001455 -0.129733
v 0.031361 0.000713 -0.041359
v 0.031354 0.001289 -0.041400
v 0.041425 0.000295 -0.129679
v 0.031344 0.000130 -0.041456
v 0.033080 0.001061 -0.131562
v 0.033089 0.000485 -0.131604
v 0.022085 0.001061 -0.040729
v 0.022086 0.000485 -0.040687
v 0.033069 -0.000099 -0.131507
v 0.022083 -0.000099 -0.040787
v 0.023846 0.000663 -0.132630
v 0.023840 0.000079 -0.132530
v 0.011538 0.000485 -0.040606
v 0.023844 0.001239 -0.132588
v 0.011539 0.001061 -0.040648
v 0.011540 -0.000099 -0.040706
v 0.013307 0.000193 -0.133014
v 0.013310 0.000777 -0.133115
v 0.000353 0.001011 -0.040820
v 0.000355 0.000427 -0.040920
v 0.013309 0.001352 -0.133072
v 0.000354 0.001587 -0.040862
v 0.002125 0.000485 -0.133329
v 0.002124 0.001061 -0.133287
v -0.010831 0.000829 -0.041034
v -0.010830 0.001405 -0.041077
v 0.002123 -0.000099 -0.133229
v -0.010829 0.000245 -0.041135
v -0.009060 0.000485 -0.133543
v -0.021365 0.001269 -0.041562
v -0.021368 0.000693 -0.041519
v -0.009060 0.001061 -0.133501
v -0.009062 -0.000099 -0.133443
v -0.021362 0.000110 -0.041619
v -0.019606 0.001061 -0.133420
v -0.019605 -0.000099 -0.133362
v -0.030611 0.000742 -0.042545
v -0.030590 0.000159 -0.042642
v -0.019608 0.000485 -0.133462
v -0.030602 0.001318 -0.042587
v -0.028883 0.000485 -0.132790
v -0.038985 0.000967 -0.044376
v -0.038947 0.000384 -0.044470
v -0.028876 0.001061 -0.132749
v -0.028866 -0.000099 -0.132693
v -0.038969 0.001543 -0.044416
v -0.037321 0.000771 -0.131281
v -0.037286 0.000187 -0.131187
v -0.046918 0.000857 -0.047276
v -0.046894 0.001432 -0.047313
v -0.037306 0.001347 -0.131241
v -0.046862 0.000273 -0.047363
v -0.045306 0.000388 -0.128599
v -0.045359 0.000971 -0.128688
v -0.054188 0.001061 -0.051193
v -0.054218 0.000485 -0.051160
v -0.045336 0.001547 -0.128650
v -0.054147 -0.000099 -0.051239
v -0.052803 0.000635 -0.125086
v -0.052774 0.001210 -0.125051
v -0.060700 0.000485 -0.055944
v -0.052734 0.000051 -0.125005
v -0.060664 0.001061 -0.055973
v -0.060614 -0.000099 -0.056012
v -0.059462 0.000485 -0.120553
v -0.059427 0.001061 -0.120523
v -0.066171 0.000877 -0.061525
v -0.066213 0.000302 -0.061501
v -0.059380 -0.000099 -0.120482
v -0.066115 -0.000282 -0.061557
v -0.065144 0.000906 -0.115186
v -0.065184 0.000330 -0.115211
v -0.070608 0.000485 -0.067702
v -0.070502 -0.000099 -0.067745
v -0.065089 -0.000254 -0.115152
v -0.070563 0.001061 -0.067720
v -0.069770 0.000839 -0.109164
v -0.069814 0.000263 -0.109183
v -0.073680 0.000342 -0.074416
v -0.073794 0.000925 -0.074388
v -0.069709 -0.000320 -0.109137
v -0.073745 0.001501 -0.074400
v -0.073253 0.000341 -0.102625
v -0.073140 -0.000242 -0.102592
v -0.075557 0.000613 -0.081411
v -0.075674 0.001197 -0.081398
v -0.073205 0.000917 -0.102611
v -0.075624 0.001772 -0.081404
v -0.075283 -0.000099 -0.095674
v -0.075400 0.000485 -0.095691
v -0.076219 0.000754 -0.088558
v -0.076169 0.001329 -0.088557
v -0.075351 0.001061 -0.095684
v -0.076100 0.000170 -0.088556
v 0.012180 0.001468 -0.074130
v 0.012381 0.001468 -0.084616
v 0.000995 0.001468 -0.074345
v 0.020894 0.001468 -0.084422
v 0.001196 0.001468 -0.084830
v 0.021179 0.001468 -0.073939
v -0.010189 0.001468 -0.074559
v 0.024067 0.001468 -0.084270
v -0.009988 0.001468 -0.085044
v 0.025808 0.001468 -0.073793
v -0.018503 0.001468 -0.085177
v 0.028133 0.001468 -0.074412
v -0.019189 0.001468 -0.074712
v 0.024531 0.001468 -0.084435
v -0.021680 0.001468 -0.085146
v 0.025032 0.001468 -0.084483
v -0.023821 0.001468 -0.074743
v 0.030484 0.001468 -0.074957
v -0.026120 0.001468 -0.075451
v 0.032459 0.001468 -0.076143
v -0.022136 0.001468 -0.085329
v 0.025407 0.001468 -0.084746
v -0.022635 0.001468 -0.085396
v 0.025857 0.001468 -0.084908
v -0.028449 0.001468 -0.076086
v 0.034487 0.001468 -0.077266
v -0.030377 0.001468 -0.077346
v 0.035919 0.001468 -0.078903
v -0.023000 0.001468 -0.085673
v 0.026108 0.001468 -0.085243
v -0.023444 0.001468 -0.085852
v 0.026463 0.001468 -0.085503
v -0.032360 0.001468 -0.078546
v 0.037425 0.001468 -0.080493
v -0.033729 0.001468 -0.080236
v 0.038174 0.001468 -0.082420
v -0.023681 0.001468 -0.086196
v 0.026564 0.001468 -0.085877
v -0.024026 0.001468 -0.086470
v 0.026791 0.001468 -0.086210
v -0.035173 0.001468 -0.081883
v 0.039011 0.001468 -0.084322
v -0.035847 0.001468 -0.083838
v 0.039003 0.001468 -0.086351
v -0.024113 0.001468 -0.086847
v 0.026853 0.001468 -0.086584
v -0.024327 0.001468 -0.087189
v 0.026805 0.001468 -0.086960
v -0.036610 0.001468 -0.085770
v 0.039088 0.001468 -0.088379
v -0.036525 0.001468 -0.087798
v 0.038325 0.001468 -0.090311
v -0.024368 0.001468 -0.087565
v 0.026591 0.001468 -0.087302
v -0.024312 0.001468 -0.087939
v 0.026504 0.001468 -0.087679
v -0.036532 0.001468 -0.089827
v 0.037651 0.001468 -0.092266
v -0.035696 0.001468 -0.091729
v 0.036207 0.001468 -0.093913
v -0.024086 0.001468 -0.088272
v 0.026159 0.001468 -0.087953
v -0.023985 0.001468 -0.088646
v 0.025922 0.001468 -0.088297
v -0.034947 0.001468 -0.093656
v 0.034838 0.001468 -0.095603
v -0.033441 0.001468 -0.095246
v 0.032855 0.001468 -0.096803
v -0.023629 0.001468 -0.088906
v 0.025478 0.001468 -0.088476
v -0.023379 0.001468 -0.089241
v 0.025114 0.001468 -0.088753
v -0.032009 0.001468 -0.096883
v 0.030927 0.001468 -0.098063
v -0.029981 0.001468 -0.098006
v 0.028598 0.001468 -0.098698
v -0.022929 0.001468 -0.089403
v 0.024615 0.001468 -0.088820
v -0.022554 0.001468 -0.089666
v 0.024158 0.001468 -0.089003
v -0.028006 0.001468 -0.099192
v 0.026299 0.001468 -0.099406
v -0.025655 0.001468 -0.099737
v 0.021667 0.001468 -0.099437
v -0.022052 0.001468 -0.089714
v 0.020982 0.001468 -0.088972
v -0.021589 0.001468 -0.089879
v 0.012667 0.001468 -0.099590
v -0.023330 0.001468 -0.100356
v 0.012467 0.001468 -0.089105
v -0.018701 0.001468 -0.100210
v 0.001282 0.001468 -0.089319
v -0.018416 0.001468 -0.089727
v 0.001483 0.001468 -0.099804
v -0.009702 0.001468 -0.100019
v -0.009902 0.001468 -0.089533
v 0.057113 0.001621 -0.090396
v 0.039088 0.001468 -0.088379
v 0.057190 0.001468 -0.086003
v 0.055711 0.001545 -0.094641
v 0.039003 0.001468 -0.086351
v 0.038325 0.001468 -0.090311
v 0.039011 0.001468 -0.084322
v 0.037651 0.001468 -0.092266
v 0.056945 0.001468 -0.081616
v 0.054001 0.001468 -0.098809
v 0.055382 0.001544 -0.077428
v 0.051090 0.001468 -0.102497
v 0.038174 0.001468 -0.082420
v 0.036207 0.001468 -0.093913
v 0.052910 0.001668 -0.074104
v 0.034838 0.001468 -0.095603
v 0.037425 0.001468 -0.080493
v 0.047915 0.001468 -0.106032
v 0.043779 0.001539 -0.108800
v 0.052910 0.001668 -0.074104
v 0.053513 0.001695 -0.073328
v 0.032855 0.001468 -0.096803
v 0.052910 0.001668 -0.074104
v 0.046002 0.001525 -0.073973
v 0.030927 0.001468 -0.098063
v 0.035919 0.001468 -0.078903
v 0.052910 0.001668 -0.074104
v 0.053149 0.001668 -0.072902
v 0.039449 0.001603 -0.111357
v 0.034493 0.001468 -0.112936
v 0.028598 0.001468 -0.098698
v 0.046001 0.001468 -0.072562
v 0.046002 0.001525 -0.073973
v 0.026299 0.001468 -0.099406
v 0.034487 0.001468 -0.077266
v 0.047308 0.001512 -0.072822
v 0.029432 0.001468 -0.114262
v 0.046181 0.001468 -0.067184
v 0.047066 0.001468 -0.071892
v 0.022670 0.001468 -0.114592
v 0.032459 0.001468 -0.076143
v 0.050463 0.001468 -0.069755
v 0.047523 0.001468 -0.068075
v 0.021667 0.001468 -0.099437
v 0.042916 0.001468 -0.063736
v 0.012959 0.001468 -0.114845
v 0.030484 0.001468 -0.074957
v 0.047155 0.001468 -0.066344
v 0.047742 0.001468 -0.066950
v 0.012667 0.001468 -0.099590
v 0.038491 0.001468 -0.061348
v 0.001775 0.001468 -0.115060
v 0.033478 0.001723 -0.059959
v 0.048747 0.001468 -0.067986
v 0.050463 0.001468 -0.069755
v 0.001483 0.001468 -0.099804
v 0.028133 0.001468 -0.074412
v -0.009702 0.001468 -0.100019
v 0.025808 0.001468 -0.073793
v -0.009409 0.001468 -0.115274
v 0.028371 0.001554 -0.058827
v -0.018701 0.001468 -0.100210
v 0.021601 0.001468 -0.058756
v -0.019122 0.001468 -0.115393
v 0.021179 0.001468 -0.073939
v -0.023330 0.001468 -0.100356
v 0.011888 0.001468 -0.058875
v -0.025892 0.001468 -0.115322
v 0.012180 0.001468 -0.074130
v -0.031000 0.001671 -0.114190
v 0.000995 0.001468 -0.074345
v -0.025655 0.001468 -0.099737
v 0.000703 0.001836 -0.059089
v -0.028006 0.001468 -0.099192
v -0.010189 0.001468 -0.074559
v -0.036013 0.001736 -0.112802
v -0.010481 0.001744 -0.059304
v -0.040437 0.001536 -0.110413
v -0.019189 0.001468 -0.074712
v -0.029981 0.001468 -0.098006
v -0.020192 0.001378 -0.059557
v -0.032009 0.001468 -0.096883
v -0.023821 0.001468 -0.074743
v -0.044676 0.001468 -0.107805
v -0.026954 0.001598 -0.059887
v -0.047985 0.001468 -0.104394
v -0.032014 0.001599 -0.061213
v -0.033441 0.001468 -0.095246
v -0.026120 0.001468 -0.075451
v -0.034947 0.001468 -0.093656
v -0.031667 0.001515 -0.066762
v -0.051035 0.001468 -0.100821
v -0.028449 0.001468 -0.076086
v -0.052903 0.001468 -0.096721
v -0.035696 0.001468 -0.091729
v -0.031667 0.001515 -0.066762
v -0.036970 0.001468 -0.062793
v -0.036532 0.001468 -0.089827
v -0.030377 0.001468 -0.077346
v -0.031601 0.001468 -0.074079
v -0.034324 0.001468 -0.066921
v -0.054467 0.001468 -0.092533
v -0.033549 0.001468 -0.073863
v -0.038955 0.001468 -0.067202
v -0.054712 0.001468 -0.088146
v -0.032360 0.001468 -0.078546
v -0.041300 0.001468 -0.065349
v -0.036525 0.001468 -0.087798
v -0.038898 0.001468 -0.073332
v -0.045436 0.001468 -0.068117
v -0.036610 0.001468 -0.085770
v -0.033729 0.001468 -0.080236
v -0.048612 0.001468 -0.071652
v -0.054635 0.001630 -0.083753
v -0.035173 0.001468 -0.081883
v -0.053233 0.001629 -0.079508
v -0.051523 0.001468 -0.075340
v -0.035847 0.001468 -0.083838
v 0.020894 0.001468 -0.084422
v 0.020865 0.001468 -0.086699
v 0.012381 0.001468 -0.084616
v 0.023819 0.001468 -0.086642
v 0.012424 0.001468 -0.086860
v 0.024067 0.001468 -0.084270
v 0.001196 0.001468 -0.084830
v 0.012467 0.001468 -0.089105
v 0.024531 0.001468 -0.084435
v 0.001239 0.001468 -0.087075
v 0.020982 0.001468 -0.088972
v 0.024030 0.001468 -0.086638
v 0.001282 0.001468 -0.089319
v 0.024158 0.001468 -0.089003
v 0.024221 0.001468 -0.086634
v -0.009945 0.001468 -0.087289
v 0.024615 0.001468 -0.088820
v -0.009988 0.001468 -0.085044
v -0.009902 0.001468 -0.089533
v 0.025114 0.001468 -0.088753
v -0.018386 0.001468 -0.087450
v 0.025032 0.001468 -0.084483
v 0.025478 0.001468 -0.088476
v -0.018503 0.001468 -0.085177
v -0.018416 0.001468 -0.089727
v 0.025407 0.001468 -0.084746
v 0.024411 0.001468 -0.086631
v -0.021341 0.001468 -0.087507
v 0.024564 0.001468 -0.086628
v -0.021680 0.001468 -0.085146
v -0.021589 0.001468 -0.089879
v 0.025922 0.001468 -0.088297
v -0.022136 0.001468 -0.085329
v -0.022052 0.001468 -0.089714
v 0.025857 0.001468 -0.084908
v 0.026159 0.001468 -0.087953
v -0.021552 0.001468 -0.087511
v 0.026108 0.001468 -0.085243
v 0.024714 0.001468 -0.086625
v -0.021743 0.001468 -0.087515
v 0.024815 0.001468 -0.086623
v -0.022635 0.001468 -0.085396
v -0.022554 0.001468 -0.089666
v 0.026504 0.001468 -0.087679
v -0.023000 0.001468 -0.085673
v -0.022929 0.001468 -0.089403
v 0.026463 0.001468 -0.085503
v 0.024911 0.001468 -0.086621
v -0.021933 0.001468 -0.087518
v 0.026591 0.001468 -0.087302
v -0.022086 0.001468 -0.087521
v 0.026564 0.001468 -0.085877
v 0.024955 0.001468 -0.086620
v -0.023444 0.001468 -0.085852
v -0.023379 0.001468 -0.089241
v 0.026805 0.001468 -0.086960
v -0.023681 0.001468 -0.086196
v -0.023629 0.001468 -0.088906
v 0.026791 0.001468 -0.086210
v 0.026853 0.001468 -0.086584
v -0.022236 0.001468 -0.087524
v -0.022337 0.001468 -0.087526
v -0.024026 0.001468 -0.086470
v -0.023985 0.001468 -0.088646
v -0.022433 0.001468 -0.087528
v -0.024113 0.001468 -0.086847
v -0.024086 0.001468 -0.088272
v -0.022476 0.001468 -0.087529
v -0.024327 0.001468 -0.087189
v -0.024312 0.001468 -0.087939
v -0.024368 0.001468 -0.087565
v 0.039765 0.000428 -0.042962
v 0.031344 0.000130 -0.041456
v 0.039659 0.000152 -0.043246
v 0.047785 0.000192 -0.045550
v 0.031294 -0.000146 -0.041749
v 0.047628 -0.000084 -0.045816
v 0.022083 -0.000099 -0.040787
v 0.055213 0.000035 -0.049144
v 0.038814 0.000060 -0.045533
v 0.022075 -0.000375 -0.041087
v 0.055007 -0.000241 -0.049388
v 0.030907 -0.000239 -0.044011
v 0.011546 -0.000375 -0.041008
v 0.061858 -0.000099 -0.053667
v 0.022014 -0.000467 -0.043541
v 0.011540 -0.000099 -0.040706
v 0.061611 -0.000374 -0.053881
v 0.011594 -0.000468 -0.043527
v 0.046418 -0.000177 -0.047873
v 0.059696 -0.000467 -0.055531
v 0.000409 -0.000468 -0.043741
v 0.067567 -0.000099 -0.058997
v 0.053353 -0.000334 -0.051351
v 0.000361 0.000151 -0.041222
v 0.067281 -0.000375 -0.059177
v -0.010824 -0.000031 -0.041436
v 0.000355 0.000427 -0.040920
v 0.071873 0.000007 -0.065152
v 0.064980 -0.000467 -0.060624
v -0.010775 -0.000468 -0.043955
v -0.010829 0.000245 -0.041135
v 0.069441 -0.000086 -0.066235
v -0.021342 -0.000167 -0.041918
v 0.072188 0.000283 -0.065012
v 0.075280 -0.000125 -0.071655
v -0.021187 -0.000606 -0.044369
v -0.021362 0.000110 -0.041619
v 0.072558 -0.000217 -0.072445
v -0.030056 -0.000210 -0.045179
v 0.075618 0.000151 -0.071557
v 0.077411 -0.000374 -0.078528
v -0.030529 -0.000117 -0.042933
v 0.077762 -0.000099 -0.078475
v 0.074700 -0.000467 -0.078937
v -0.038831 0.000108 -0.044749
v -0.030590 0.000159 -0.042642
v 0.078221 -0.000375 -0.085600
v -0.037898 0.000015 -0.047002
v 0.078579 -0.000099 -0.085594
v -0.038947 0.000384 -0.044470
v -0.045407 -0.000096 -0.049632
v 0.075344 -0.000467 -0.085655
v 0.077682 -0.000048 -0.092699
v -0.046862 0.000273 -0.047363
v -0.046695 -0.000003 -0.047622
v 0.074958 -0.000141 -0.092394
v 0.078035 0.000228 -0.092738
v -0.053932 -0.000375 -0.051474
v 0.075816 0.000144 -0.099648
v -0.054147 -0.000099 -0.051239
v -0.052204 -0.000467 -0.053372
v 0.073066 0.000051 -0.098963
v 0.076158 0.000420 -0.099733
v -0.060359 -0.000374 -0.056216
v -0.058382 -0.000467 -0.057792
v 0.072661 -0.000194 -0.106276
v 0.072980 0.000082 -0.106404
v -0.060614 -0.000099 -0.056012
v 0.070189 -0.000287 -0.105287
v -0.065823 -0.000558 -0.061726
v -0.066115 -0.000282 -0.061557
v 0.068593 -0.000099 -0.112592
v 0.068301 -0.000375 -0.112423
v -0.063468 -0.000651 -0.063084
v 0.065946 -0.000467 -0.111065
v -0.070182 -0.000374 -0.067873
v -0.067711 -0.000467 -0.068862
v 0.062837 -0.000374 -0.117933
v 0.060861 -0.000467 -0.116357
v -0.070502 -0.000099 -0.067745
v 0.063093 -0.000099 -0.118137
v -0.070588 -0.000027 -0.075186
v -0.073338 0.000065 -0.074501
v 0.054682 -0.000168 -0.120777
v 0.056411 -0.000075 -0.122675
v -0.073680 0.000342 -0.074416
v 0.056625 0.000201 -0.122911
v -0.072480 0.000245 -0.081755
v -0.075204 0.000338 -0.081451
v 0.047886 0.000219 -0.124517
v 0.049174 0.000312 -0.126527
v -0.075557 0.000613 -0.081411
v 0.049340 0.000588 -0.126787
v -0.075743 -0.000106 -0.088549
v -0.076100 0.000170 -0.088556
v 0.041309 0.000019 -0.129400
v 0.041425 0.000295 -0.129679
v -0.072866 -0.000199 -0.088494
v 0.040377 -0.000073 -0.127147
v -0.075283 -0.000099 -0.095674
v -0.074933 -0.000374 -0.095621
v 0.033069 -0.000099 -0.131507
v 0.033007 -0.000374 -0.131216
v -0.072222 -0.000467 -0.095212
v 0.032534 -0.000467 -0.128970
v -0.073140 -0.000242 -0.102592
v -0.072802 -0.000518 -0.102494
v 0.023820 -0.000197 -0.132231
v 0.023666 -0.000290 -0.129780
v -0.070080 -0.000611 -0.101704
v 0.023840 0.000079 -0.132530
v -0.069709 -0.000320 -0.109137
v -0.066963 -0.000689 -0.107914
v 0.013253 -0.000176 -0.130194
v 0.013302 -0.000084 -0.132713
v -0.069395 -0.000596 -0.108997
v 0.013307 0.000193 -0.133014
v -0.064803 -0.000530 -0.114972
v 0.002117 -0.000375 -0.132927
v 0.002123 -0.000099 -0.133229
v -0.065089 -0.000254 -0.115152
v -0.062502 -0.000622 -0.113525
v 0.002069 -0.000468 -0.130408
v -0.059132 -0.000374 -0.120268
v -0.057218 -0.000467 -0.118618
v -0.009068 -0.000375 -0.133141
v -0.059380 -0.000099 -0.120482
v -0.009062 -0.000099 -0.133443
v -0.009115 -0.000468 -0.130622
v -0.052529 -0.000225 -0.124761
v -0.019605 -0.000099 -0.133362
v -0.019597 -0.000375 -0.133063
v -0.052734 0.000051 -0.125005
v -0.050875 -0.000318 -0.122798
v -0.019536 -0.000467 -0.130608
v -0.045150 0.000112 -0.128333
v -0.043940 0.000019 -0.126276
v -0.028866 -0.000099 -0.132693
v -0.028816 -0.000374 -0.132400
v -0.045306 0.000388 -0.128599
v -0.028429 -0.000467 -0.130138
v -0.037181 -0.000089 -0.130903
v -0.037286 0.000187 -0.131187
v -0.036336 -0.000181 -0.128616
v 0.033478 0.001723 -0.059959
v -0.066171 0.000877 -0.061525
v 0.053149 0.001668 -0.072902
v 0.052003 0.001583 -0.071559
v 0.052910 0.001668 -0.074104
v 0.051970 0.001608 -0.072486
v 0.053149 0.001668 -0.072902
v 0.052003 0.001583 -0.071559
v 0.046002 0.001525 -0.073973
v 0.047308 0.001512 -0.072822
v 0.052910 0.001668 -0.074104
v 0.051970 0.001608 -0.072486
v -0.034029 0.001475 -0.072806
v -0.035283 0.001492 -0.070047
v -0.032925 0.001477 -0.072628
v -0.037925 0.001475 -0.072447
v -0.033155 0.001506 -0.068113
v -0.033549 0.001468 -0.073863
v -0.031667 0.001515 -0.066762
v -0.038898 0.001468 -0.073332
v -0.031601 0.001468 -0.074079
v -0.037925 0.001475 -0.072447
v -0.037648 0.001477 -0.068214
v -0.035283 0.001492 -0.070047
v -0.038898 0.001468 -0.073332
v -0.038955 0.001468 -0.067202
v -0.034697 0.001478 -0.068138
v -0.035283 0.001492 -0.070047
v -0.037648 0.001477 -0.068214
v -0.034324 0.001468 -0.066921
v -0.038955 0.001468 -0.067202
v -0.034697 0.001478 -0.068138
v -0.033155 0.001506 -0.068113
v -0.035283 0.001492 -0.070047
v -0.034324 0.001468 -0.066921
v -0.031667 0.001515 -0.066762
vn -0.0215 0.9995 -0.0231
vn -0.1123 0.9903 0.0819
vn -0.1676 0.9784 0.1209
vn -0.2060 0.9737 0.0972
vn -0.1176 0.9841 0.1331
vn 0.1746 0.0787 0.9815
vn 0.3445 0.0774 0.9356
vn 0.1174 0.3724 0.9206
vn 0.0379 0.3750 0.9262
vn 0.3162 0.3684 0.8743
vn 0.0374 0.6688 0.7425
vn 0.0614 0.0796 0.9949
vn 0.5080 0.3568 0.7840
vn 0.2470 0.6672 0.7027
vn 0.0460 0.3757 0.9256
vn 0.5129 0.0755 0.8551
vn -0.0469 0.8766 0.4790
vn 0.0101 0.0801 0.9967
vn 0.4482 0.6463 0.6176
vn 0.1476 0.8827 0.4461
vn -0.0127 0.0802 0.9967
vn 0.6253 0.3488 0.6981
vn 0.0820 0.6731 0.7350
vn 0.3376 0.8618 0.3785
vn 0.5348 0.6379 0.5541
vn 0.0121 0.3765 0.9263
vn 0.1075 0.9930 -0.0489
vn 0.3805 0.8594 0.3415
vn 0.0395 0.6756 0.7362
vn -0.0142 0.9998 -0.0168
vn 0.4105 0.8567 0.3122
vn -0.0641 0.3763 0.9243
vn 0.0789 0.9947 -0.0658
vn 0.0328 0.9995 -0.0042
vn -0.0445 0.0801 0.9958
vn 0.0631 0.9975 -0.0307
vn 0.6033 0.6292 0.4900
vn -0.1044 0.3748 0.9212
vn 0.3863 0.8549 0.3462
vn -0.1059 0.0796 0.9912
vn 0.0100 0.9997 -0.0209
vn 0.6262 0.6234 0.4681
vn -0.2175 0.0787 0.9729
vn 0.0078 0.9999 -0.0092
vn 0.7201 0.3406 0.6045
vn -0.1789 0.3721 0.9108
vn -0.0475 0.9947 0.0917
vn 0.7795 0.3340 0.5300
vn -0.3790 0.0774 0.9222
vn -0.0376 0.9981 0.0493
vn 0.8407 0.0694 0.5370
vn -0.3442 0.3682 0.8637
vn 0.0018 1.0000 0.0013
vn -0.1136 0.6692 0.7344
vn -0.0701 0.9945 0.0774
vn 0.0008 1.0000 0.0006
vn -0.2644 0.6663 0.6972
vn 0.6472 0.0734 0.7588
vn -0.0349 0.8801 0.4736
vn -0.4844 0.6464 0.5896
vn 0.0018 1.0000 0.0012
vn 0.7571 0.0713 0.6494
vn -0.5450 0.3569 0.7587
vn -0.6575 0.3472 0.6686
vn -0.0642 0.9952 0.0737
vn -0.5675 0.6338 0.5255
vn -0.5469 0.0755 0.8338
vn -0.4118 0.8537 0.3186
vn -0.1123 0.9903 0.0818
vn 0.0009 1.0000 0.0006
vn -0.3687 0.8609 0.3506
vn -0.6770 0.0733 0.7323
vn -0.1098 0.9918 -0.0658
vn -0.7454 0.3410 0.5728
vn -0.1523 0.8816 0.4466
vn -0.7820 0.0713 0.6191
vn -0.6260 0.6304 0.4590
vn -0.8170 0.3325 0.4712
vn -0.0861 0.9957 -0.0344
vn -0.0526 0.9985 -0.0119
vn 0.0239 0.9996 -0.0154
vn -0.6801 0.6193 0.3922
vn -0.4272 0.8580 0.2852
vn -0.0606 0.9960 -0.0652
vn -0.4543 0.8514 0.2620
vn -0.0161 0.9985 -0.0529
vn -0.0234 0.9994 -0.0244
vn -0.0173 0.9998 -0.0074
vn 0.0767 0.9968 -0.0244
vn -0.0373 0.9991 0.0215
vn 0.0850 0.9963 0.0090
vn -0.4238 0.8478 0.3187
vn -0.0202 0.9998 -0.0021
vn 0.0504 0.9891 0.1383
vn -0.0086 0.9996 -0.0262
vn -0.0140 0.9999 0.0081
vn -0.4619 0.8435 0.2741
vn 0.0482 0.9959 0.0769
vn 0.0746 0.9861 0.1484
vn -0.0662 0.8829 0.4648
vn -0.6894 0.6152 0.3825
vn -0.0906 0.6730 0.7341
vn -0.0857 0.9963 -0.0003
vn -0.0775 0.9961 -0.0428
vn -0.8563 0.3275 0.3994
vn -0.0792 0.6750 0.7336
vn 0.0749 0.9971 0.0095
vn -0.0845 0.8829 0.4619
vn 0.0523 0.9979 -0.0387
vn -0.9222 0.0678 0.3807
vn 0.1116 0.9936 0.0169
vn -0.7357 0.6091 0.2963
vn 0.0611 0.8832 0.4650
vn 0.0729 0.9973 -0.0129
vn -0.0356 0.9994 -0.0036
vn -0.7935 0.6054 0.0629
vn 0.1069 0.8792 0.4642
vn -0.0572 0.9982 0.0193
vn -0.5313 0.8469 0.0226
vn -0.1136 0.9934 -0.0124
vn 0.0406 0.9978 -0.0531
vn 0.0064 0.6733 0.7394
vn -0.1460 0.9890 0.0236
vn -0.0257 0.8826 0.4695
vn 0.0741 0.9956 -0.0578
vn 0.0121 0.9871 -0.1595
vn -0.5346 0.8298 -0.1600
vn 0.0901 0.9932 0.0741
vn 0.0405 0.9950 -0.0916
vn 0.0094 0.9994 -0.0333
vn -0.0048 0.9960 -0.0888
vn -0.7942 0.5954 -0.1211
vn -0.0242 0.9981 -0.0561
vn -0.7786 0.6011 -0.1802
vn -0.9433 0.3189 0.0919
vn -0.4972 0.8455 -0.1946
vn -0.0119 0.9997 -0.0225
vn -0.5166 0.8398 -0.1670
vn -0.9460 0.3155 -0.0741
vn -0.0249 0.9996 -0.0122
vn -0.9027 0.3226 0.2847
vn -0.0469 0.9986 -0.0236
vn -0.9321 0.3179 -0.1738
vn -0.0703 0.9974 0.0138
vn -0.9919 0.0658 0.1082
vn -0.4725 0.8487 -0.2375
vn -0.9974 0.0655 -0.0306
vn -0.0298 0.9995 0.0038
vn -0.9652 0.0666 0.2527
vn -0.9856 0.0658 -0.1556
vn -0.0367 0.9990 0.0261
vn -0.4833 0.8479 -0.2180
vn -0.9042 0.3215 -0.2811
vn -0.0797 0.9963 0.0310
vn -0.9572 0.0666 -0.2816
vn -0.7532 0.6068 -0.2541
vn -0.1291 0.9899 0.0583
vn -0.8632 0.3261 -0.3855
vn -0.4202 0.8505 -0.3162
vn -0.9113 0.0677 -0.4060
vn -0.4386 0.8527 -0.2836
vn -0.7219 0.6118 -0.3234
vn -0.6227 0.6267 -0.4685
vn -0.6843 0.6177 -0.3876
vn -0.5620 0.6323 -0.5333
vn -0.8087 0.3320 -0.4856
vn -0.4047 0.6555 -0.6376
vn -0.8466 0.0693 -0.5277
vn -0.7303 0.3398 -0.5926
vn -0.2750 0.8747 -0.3992
vn -0.7593 0.0712 -0.6469
vn -0.0407 0.8774 -0.4780
vn -0.0381 0.9990 0.0236
vn -0.4851 0.3598 -0.7970
vn -0.6503 0.0733 -0.7562
vn -0.6397 0.3469 -0.6859
vn -0.1673 0.6658 -0.7271
vn 0.1376 0.9896 -0.0418
vn -0.5081 0.0756 -0.8580
vn -0.0183 0.9980 0.0612
vn -0.0825 0.6685 -0.7391
vn -0.0129 0.8792 -0.4763
vn -0.2725 0.3685 -0.8888
vn -0.0826 0.9941 0.0706
vn -0.1422 0.3718 -0.9173
vn -0.3355 0.0775 -0.9389
vn 0.1232 0.9924 0.0039
vn -0.0492 0.6738 -0.7373
vn 0.0813 0.9967 -0.0069
vn -0.0310 0.8839 -0.4666
vn -0.1798 0.0787 -0.9806
vn 0.0857 0.9957 -0.0341
vn -0.0012 0.9998 -0.0201
vn -0.0663 0.0796 -0.9946
vn -0.0617 0.3752 -0.9249
vn -0.0000 1.0000 -0.0010
vn -0.0003 0.3767 -0.9263
vn -0.0001 0.8852 -0.4652
vn -0.0000 0.9998 -0.0194
vn -0.0004 0.0801 -0.9968
vn -0.0002 0.6762 -0.7368
vn 0.0137 0.0802 -0.9967
vn -0.0315 0.6759 -0.7363
vn -0.0077 0.3768 -0.9263
vn -0.0503 0.9987 -0.0118
vn -0.0507 0.8839 -0.4650
vn -0.0170 0.9998 0.0072
vn 0.0353 0.0801 -0.9962
vn -0.0102 0.9997 0.0211
vn 0.0213 0.3767 -0.9261
vn 0.0018 0.6763 -0.7366
vn -0.0292 0.9996 0.0024
vn 0.1258 0.3746 -0.9186
vn 0.0209 0.9996 0.0197
vn 0.1105 0.0796 -0.9907
vn -0.0170 0.8851 -0.4651
vn 0.0619 0.9981 0.0036
vn 0.1836 0.3710 -0.9103
vn 0.1173 0.8810 -0.4584
vn 0.2185 0.0786 -0.9727
vn 0.1291 0.6721 -0.7291
vn -0.0263 0.9996 0.0090
vn 0.3669 0.0775 -0.9270
vn -0.0557 0.9982 -0.0210
vn 0.2857 0.3686 -0.8846
vn 0.1225 0.6670 -0.7349
vn -0.1808 0.9830 -0.0319
vn 0.5399 0.0756 -0.8384
vn 0.0470 0.8779 -0.4766
vn -0.1122 0.9936 0.0107
vn 0.5116 0.3602 -0.7801
vn -0.0463 0.9974 0.0559
vn 0.1568 0.6651 -0.7301
vn 0.6792 0.3455 -0.6475
vn -0.0088 0.9990 0.0446
vn 0.0081 0.8728 -0.4881
vn 0.6817 0.0733 -0.7280
vn 0.4216 0.6572 -0.6248
vn 0.6069 0.6276 -0.4876
vn 0.2795 0.8767 -0.3915
vn 0.7524 0.3391 -0.5648
vn 0.1411 0.9851 0.0983
vn 0.6408 0.6248 -0.4461
vn 0.4676 0.8418 -0.2697
vn 0.0549 0.9953 0.0804
vn 0.6624 0.6229 -0.4163
vn 0.0296 0.9990 0.0324
vn 0.4263 0.8556 -0.2937
vn 0.0743 0.9966 0.0360
vn 0.8085 0.3338 -0.4847
vn -0.0079 0.9991 -0.0416
vn 0.4515 0.8503 -0.2703
vn 0.4348 0.8497 -0.2984
vn -0.0605 0.9928 -0.1033
vn -0.0134 0.9999 -0.0102
vn 0.6971 0.6156 -0.3677
vn 0.8625 0.0694 -0.5012
vn 0.5018 0.8505 -0.1577
vn 0.7629 0.6104 -0.2131
vn -0.0561 0.9975 -0.0438
vn 0.7834 0.0712 -0.6174
vn -0.0432 0.9985 -0.0335
vn 0.9156 0.3225 -0.2403
vn -0.0713 0.9970 -0.0291
vn 0.9229 0.0679 -0.3790
vn 0.8600 0.3275 -0.3913
vn 0.0121 0.9934 0.1144
vn -0.0356 0.9973 0.0641
vn 0.5479 0.8351 0.0495
vn 0.9676 0.0666 -0.2435
vn 0.0249 0.9965 0.0804
vn 0.5430 0.8360 0.0795
vn 0.8012 0.5983 -0.0115
vn 0.9462 0.3170 -0.0645
vn 0.9925 0.0658 -0.1026
vn -0.0060 0.9982 0.0593
vn 0.0363 0.9979 -0.0538
vn 0.7997 0.5970 0.0639
vn 0.9478 0.3158 0.0438
vn 0.0035 0.9993 -0.0373
vn 0.9976 0.0655 0.0244
vn 0.0431 0.9950 -0.0903
vn 0.5465 0.8370 0.0286
vn 0.9406 0.3168 0.1219
vn 0.0041 0.9958 -0.0914
vn 0.9873 0.0658 0.1448
vn 0.5399 0.8387 0.0710
vn -0.1097 0.9939 -0.0074
vn 0.9600 0.0665 0.2719
vn 0.7807 0.6024 0.1660
vn 0.9180 0.3201 0.2341
vn 0.7971 0.5982 0.0824
vn 0.9096 0.0679 0.4098
vn 0.7007 0.6186 0.3554
vn 0.4469 0.8560 0.2600
vn 0.8541 0.3282 0.4034
vn -0.2199 0.9708 0.0954
vn 0.9998 -0.0112 0.0178
vn 0.9886 -0.0112 0.1499
vn 0.9906 -0.1362 0.0079
vn 0.9873 0.0658 0.1449
vn 0.9782 -0.1368 0.1562
vn 0.9936 -0.0112 -0.1127
vn 0.9600 -0.0114 0.2797
vn 0.9474 -0.1383 0.2887
vn 0.9823 -0.1366 -0.1278
vn 0.9926 0.0658 -0.1026
vn 0.9623 -0.1378 -0.2344
vn 0.9137 -0.0115 0.4061
vn 0.9081 -0.1402 0.3946
vn 0.9704 -0.0113 -0.2413
vn 0.9096 0.0679 0.4099
vn 0.9289 -0.0116 -0.3701
vn 0.8470 -0.0118 0.5314
vn 0.9229 0.0678 -0.3791
vn 0.9260 -0.1402 -0.3505
vn 0.8453 -0.1437 0.5147
vn 0.8625 0.0694 -0.5013
vn 0.8665 -0.0118 -0.4991
vn 0.7570 -0.0122 0.6533
vn 0.8606 -0.1438 -0.4885
vn 0.7455 -0.1481 0.6499
vn 0.7811 -0.0122 -0.6243
vn 0.6436 -0.0125 0.7653
vn 0.6274 -0.1526 0.7636
vn 0.7834 0.0712 -0.6175
vn 0.7656 -0.1484 -0.6260
vn 0.6714 -0.0125 -0.7410
vn 0.6433 -0.1529 -0.7501
vn 0.4854 -0.1569 0.8601
vn 0.5057 -0.0129 0.8626
vn 0.6816 0.0732 -0.7280
vn 0.5129 0.0754 0.8552
vn 0.5295 -0.1562 -0.8338
vn 0.5393 -0.0129 -0.8420
vn 0.3451 -0.1598 0.9249
vn 0.3470 -0.0132 0.9378
vn 0.5398 0.0756 -0.8384
vn 0.3849 -0.0132 -0.9229
vn 0.3669 0.0771 -0.9271
vn 0.1889 -0.0134 0.9819
vn 0.4071 -0.1594 -0.8994
vn 0.2086 -0.1624 0.9644
vn 0.2252 -0.0134 -0.9742
vn 0.0613 0.0796 0.9949
vn 0.0674 -0.0136 0.9976
vn 0.2321 -0.1628 -0.9590
vn 0.0760 -0.1646 0.9834
vn 0.1037 -0.0136 -0.9945
vn 0.0905 -0.1647 -0.9822
vn -0.0013 -0.0137 0.9999
vn 0.1105 0.0795 -0.9907
vn 0.0101 0.0800 0.9967
vn -0.0198 -0.1657 0.9860
vn 0.0446 -0.1657 -0.9852
vn 0.0392 -0.0137 -0.9991
vn -0.0202 -0.0137 0.9997
vn -0.0321 -0.1659 0.9856
vn 0.0354 0.0801 -0.9962
vn -0.0127 0.0801 0.9967
vn 0.0201 -0.0138 -0.9997
vn -0.0376 -0.0137 0.9992
vn -0.0446 0.0800 0.9958
vn 0.0301 -0.1659 -0.9857
vn -0.0256 -0.1657 0.9858
vn -0.0004 -0.0137 -0.9999
vn -0.1059 0.0795 0.9912
vn -0.1044 -0.0136 0.9944
vn -0.0004 0.0800 -0.9968
vn -0.0003 -0.1657 -0.9862
vn -0.0999 -0.1647 0.9813
vn -0.0664 0.0796 -0.9946
vn -0.0656 -0.1646 -0.9842
vn -0.2254 -0.0134 0.9742
vn -0.2341 -0.1626 0.9585
vn -0.0666 -0.0136 -0.9977
vn -0.1880 -0.0134 -0.9821
vn -0.3828 -0.0132 0.9237
vn -0.3825 -0.1599 0.9100
vn -0.1798 0.0786 -0.9806
vn -0.1979 -0.1627 -0.9666
vn -0.3486 -0.0132 -0.9372
vn -0.3637 -0.1596 -0.9177
vn -0.5381 -0.0129 0.8428
vn -0.5468 0.0754 0.8338
vn -0.3355 0.0774 -0.9389
vn -0.5146 -0.1568 0.8430
vn -0.4955 -0.1563 -0.8544
vn -0.5065 -0.0129 -0.8621
vn -0.6770 0.0733 0.7324
vn -0.6722 -0.0125 0.7403
vn -0.5081 0.0755 -0.8580
vn -0.6535 -0.1528 0.7413
vn -0.6431 -0.0125 -0.7657
vn -0.6502 0.0733 -0.7562
vn -0.7814 -0.0122 0.6240
vn -0.6209 -0.1528 -0.7689
vn -0.7820 0.0713 0.6192
vn -0.7686 -0.1480 0.6224
vn -0.7566 -0.0122 -0.6537
vn -0.7592 0.0712 -0.6469
vn -0.8641 0.0693 0.4985
vn -0.8662 -0.0119 0.4996
vn -0.7409 -0.1482 -0.6550
vn -0.8572 -0.1441 0.4944
vn -0.8460 -0.0118 -0.5330
vn -0.9290 -0.0116 0.3698
vn -0.9273 -0.1402 0.3470
vn -0.8331 -0.1442 -0.5340
vn -0.9222 0.0678 0.3808
vn -0.9113 0.0677 -0.4061
vn -0.9135 -0.0116 -0.4068
vn -0.9668 -0.1376 0.2153
vn -0.9708 -0.0113 0.2397
vn -0.9046 -0.1407 -0.4024
vn -0.9605 -0.0113 -0.2780
vn -0.9533 -0.1380 -0.2685
vn -0.9839 -0.1363 0.1160
vn -0.9937 -0.0112 0.1117
vn -0.9919 0.0659 0.1082
vn -0.9815 -0.1365 -0.1339
vn -0.9889 -0.0112 -0.1481
vn -0.9998 -0.0112 -0.0172
vn -0.9974 0.0655 -0.0307
vn -0.9907 -0.1361 0.0051
vn 0.0215 0.9997 -0.0103
vn -0.0000 1.0000 -0.0000
vn 0.0165 0.9994 -0.0292
vn -0.0096 1.0000 -0.0019
vn -0.0301 0.9992 -0.0251
vn -0.0407 0.9991 -0.0066
vn 0.0057 0.9997 -0.0247
vn -0.0001 1.0000 -0.0049
vn 0.0279 0.9996 -0.0060
vn 0.0367 0.9991 -0.0199
vn -0.0081 0.9998 -0.0170
vn -0.0110 0.9999 -0.0097
vn -0.0410 0.9985 0.0359
vn -0.0194 0.9997 -0.0117
vn 0.0002 0.9995 -0.0320
vn 0.0153 0.9997 0.0193
vn 0.0006 0.9999 -0.0108
vn 0.0264 0.9995 0.0169
vn -0.0038 0.9998 0.0211
vn 0.0152 0.9996 -0.0248
vn -0.0145 0.9998 0.0126
vn 0.0041 0.9997 -0.0224
vn -0.0179 0.9997 -0.0177
vn -0.0073 0.9999 -0.0092
vn 0.0074 0.9999 0.0082
vn 0.0120 0.9998 0.0179
vn -0.0074 0.9999 0.0076
vn -0.0176 0.9998 0.0059
vn -0.0293 0.9991 0.0297
vn -0.0223 0.9997 -0.0038
vn -0.0067 0.9995 0.0321
vn 0.0503 0.9987 0.0099
vn 0.0351 0.9994 -0.0002
vn -0.0357 0.9973 0.0641
vn 0.0006 0.9999 -0.0109
vn -0.0015 0.9964 -0.0844
vn 0.0073 0.9999 0.0082
vn -0.0195 0.9997 -0.0117
vn 0.0297 0.9990 0.0324
vn 0.0549 0.9953 0.0803
vn 0.0089 0.9919 -0.1271
vn -0.1096 0.9939 -0.0074
vn -0.0761 0.9964 0.0378
vn -0.2960 0.9544 0.0398
vn -0.2199 0.9709 0.0954
vn -0.0464 0.9974 0.0559
vn -0.0644 0.9954 0.0707
vn -0.1273 0.9820 0.1398
vn -0.0643 0.9954 0.0707
vn -0.0045 0.9983 -0.0578
vn -0.1136 0.9935 -0.0124
vn 0.0814 0.9967 -0.0069
vn 0.1233 0.9924 0.0039
vn -0.0073 0.9999 0.0076
vn -0.0080 0.9998 -0.0170
vn -0.0439 0.9983 -0.0386
vn -0.0118 0.9997 -0.0225
vn -0.1028 0.9933 -0.0529
vn -0.0607 0.9960 -0.0652
vn -0.0517 0.9983 -0.0266
vn 0.2803 -0.6298 0.7244
vn 0.4855 -0.1568 0.8601
vn 0.2397 -0.6340 0.7353
vn 0.3299 -0.6293 0.7037
vn 0.0759 -0.1645 0.9834
vn 0.6274 -0.1525 0.7636
vn 0.0712 -0.9877 0.1394
vn 0.0916 -0.6437 0.7598
vn 0.4664 -0.6182 0.6327
vn 0.1772 -0.9773 0.1159
vn -0.0502 -0.6061 0.7938
vn 0.7455 -0.1480 0.6498
vn 0.0720 -0.9889 0.1302
vn -0.0199 -0.1656 0.9860
vn 0.5876 -0.6060 0.5362
vn -0.0605 -0.9527 0.2979
vn -0.0345 -0.9853 0.1671
vn 0.0857 -0.9888 0.1225
vn -0.0452 -0.8489 0.5266
vn 0.8453 -0.1436 0.5146
vn 0.0241 -0.9874 0.1563
vn -0.0458 -0.5457 0.8367
vn 0.7146 -0.5883 0.3784
vn 0.0014 -0.5339 0.8455
vn -0.0321 -0.1658 0.9856
vn 0.7610 -0.5764 0.2975
vn 0.1959 -0.9806 0.0037
vn 0.0255 -0.8241 0.5658
vn -0.0256 -0.1657 0.9859
vn 0.1941 -0.9809 0.0156
vn -0.0905 -0.5657 0.8196
vn 0.9081 -0.1401 0.3945
vn 0.7664 -0.5775 0.2815
vn -0.0669 -0.8906 0.4499
vn -0.0999 -0.1646 0.9813
vn 0.1237 -0.9828 0.1374
vn -0.1721 -0.9568 0.2344
vn 0.9474 -0.1382 0.2887
vn 0.8033 -0.5742 0.1581
vn -0.2409 -0.6083 0.7563
vn 0.9782 -0.1367 0.1562
vn 0.1464 -0.9855 0.0861
vn -0.3167 -0.6307 0.7085
vn -0.2340 -0.1626 0.9585
vn 0.8199 -0.5717 -0.0315
vn -0.0901 -0.9876 0.1285
vn 0.9907 -0.1362 0.0079
vn -0.3825 -0.1598 0.9100
vn 0.0479 -0.9817 0.1843
vn 0.1617 -0.9837 -0.0790
vn 0.8039 -0.5712 -0.1659
vn -0.5146 -0.1567 0.8430
vn -0.3431 -0.6273 0.6992
vn 0.1462 -0.9782 -0.1476
vn 0.9824 -0.1366 -0.1277
vn -0.4775 -0.6208 0.6217
vn 0.8013 -0.5714 -0.1775
vn -0.6536 -0.1528 0.7413
vn -0.0056 -0.9868 0.1621
vn 0.1850 -0.9827 -0.0078
vn -0.6032 -0.6045 0.5203
vn -0.0852 -0.9875 0.1325
vn 0.7842 -0.5765 -0.2294
vn 0.2145 -0.9750 0.0583
vn -0.6964 -0.5947 0.4017
vn -0.8572 -0.1440 0.4944
vn 0.7127 -0.5909 -0.3780
vn -0.1309 -0.9885 0.0755
vn 0.1656 -0.9854 -0.0399
vn -0.7895 -0.5750 0.2147
vn -0.2252 -0.9708 -0.0823
vn 0.5877 -0.6087 -0.5330
vn 0.0522 -0.9878 -0.1469
vn -0.9274 -0.1401 0.3469
vn 0.7656 -0.1483 -0.6260
vn -0.2237 -0.9661 -0.1286
vn -0.8187 -0.5660 0.0968
vn -0.0666 -0.9749 -0.2124
vn 0.4321 -0.6203 -0.6546
vn 0.6434 -0.1529 -0.7501
vn -0.1758 -0.9824 0.0629
vn -0.8154 -0.5671 0.1160
vn 0.0613 -0.9873 -0.1463
vn 0.4084 -0.6214 -0.6687
vn -0.9839 -0.1362 0.1160
vn 0.5295 -0.1561 -0.8338
vn -0.8185 -0.5679 0.0869
vn -0.9907 -0.1360 0.0051
vn 0.4139 -0.6208 -0.6658
vn 0.4071 -0.1593 -0.8994
vn -0.1650 -0.9708 0.1739
vn 0.2480 -0.9659 -0.0745
vn -0.8192 -0.5700 -0.0631
vn 0.2153 -0.6407 -0.7370
vn -0.1830 -0.9800 0.0775
vn 0.0978 -0.9885 -0.1152
vn -0.7944 -0.5747 -0.1963
vn 0.0293 -0.6442 -0.7643
vn -0.0644 -0.9882 -0.1393
vn -0.1792 -0.9838 0.0071
vn 0.0906 -0.1646 -0.9822
vn -0.9046 -0.1406 -0.4024
vn -0.1472 -0.9871 -0.0623
vn 0.0437 -0.9906 -0.1295
vn 0.0548 -0.6461 -0.7613
vn -0.7421 -0.5842 -0.3286
vn 0.0446 -0.1656 -0.9852
vn -0.6603 -0.5957 -0.4572
vn 0.0582 -0.6465 -0.7607
vn 0.0301 -0.1658 -0.9857
vn -0.8332 -0.1441 -0.5339
vn -0.0924 -0.9874 -0.1283
vn 0.0692 -0.9894 -0.1275
vn -0.5673 -0.6069 -0.5566
vn -0.0504 -0.9868 -0.1542
vn -0.0001 -0.6469 -0.7626
vn -0.7410 -0.1482 -0.6550
vn 0.0002 -0.9915 -0.1300
vn -0.4368 -0.6204 -0.6514
vn -0.0655 -0.1646 -0.9842
vn -0.0503 -0.6444 -0.7630
vn -0.6209 -0.1528 -0.7688
vn 0.0268 -0.9831 -0.1811
vn -0.0080 -0.9909 -0.1343
vn -0.3750 -0.6230 -0.6864
vn -0.0427 -0.9877 -0.1505
vn -0.1979 -0.1626 -0.9666
vn -0.1978 -0.6388 -0.7435
vn -0.4956 -0.1563 -0.8544
vn -0.1110 -0.9864 -0.1214
vn -0.3542 -0.6258 -0.6949
vn -0.1898 -0.9768 -0.0990
vn -0.8642 0.0694 0.4984
vn -0.1775 0.9788 0.1021
vn -0.2252 0.9725 0.0596
vn -0.2252 0.9725 0.0597
vn -0.1775 0.9788 0.1022
vn -0.1075 0.9888 0.1031
vn -0.0039 0.9997 -0.0231
vn -0.0035 0.9997 -0.0230
vn -0.0036 0.9997 -0.0229
vn -0.0333 0.9994 -0.0004
vn -0.0022 0.9996 0.0272
vn -0.0946 0.9944 0.0461
vt 1.841288 0.359632
vt 2.501339 0.144432
vt 2.282717 0.075453
vt 1.482710 -0.453820
vt 1.482710 -0.575496
vt 1.518765 -0.610824
vt 1.745863 -0.456112
vt -0.068954 1.563034
vt -0.068947 1.180315
vt -0.055398 1.563042
vt -0.055365 1.956995
vt -0.055370 1.181554
vt -0.040288 1.563038
vt -0.068962 1.945753
vt -0.055394 0.802545
vt -0.040269 1.181553
vt -0.055355 2.373433
vt -0.068947 0.802544
vt -0.022267 1.563041
vt -0.068966 2.373440
vt -0.040287 0.802545
vt -0.022219 1.181554
vt -0.068970 2.801126
vt -0.055370 0.423917
vt -0.040254 2.373437
vt -0.022267 0.802545
vt -0.040269 0.423917
vt -0.055357 2.801126
vt 0.123932 0.774250
vt -0.022219 0.423917
vt -0.041744 2.801126
vt 0.130850 1.144140
vt -0.022268 0.043574
vt 1.159482 0.552404
vt 0.123932 0.032756
vt 0.130850 0.402183
vt -0.040288 0.043574
vt -0.022220 -0.338844
vt 1.159482 0.233490
vt -0.040270 -0.338844
vt 1.159482 -0.052068
vt -0.055394 0.043574
vt 0.130850 -0.336764
vt -0.055370 -0.338844
vt 0.123932 -0.704558
vt -0.068947 -0.337626
vt -0.055370 1.181554
vt 0.903474 -0.265864
vt 0.957247 -0.337456
vt 1.159482 -0.102750
vt -0.068947 0.424774
vt -0.022267 1.563041
vt -0.040287 0.802544
vt 1.014883 -0.298908
vt -0.068947 0.043574
vt -0.055394 0.802544
vt 1.159482 -0.189508
vt 1.047327 -0.308531
vt 1.055336 -0.337539
vt 1.159482 -0.337626
vt 1.159482 -0.447126
vt -0.022219 1.181554
vt -0.055370 -0.338844
vt 0.123932 0.032756
vt 1.159482 0.871318
vt 1.159482 1.173110
vt 0.123932 1.518927
vt -0.022268 -0.723698
vt 0.134310 1.903206
vt 1.159482 1.474901
vt -0.022219 -1.104318
vt 1.159482 -0.554486
vt 0.130850 -1.065274
vt -0.022195 1.956995
vt -0.040287 -0.723698
vt -0.040262 1.956996
vt 0.137768 2.320103
vt 1.159482 1.946729
vt -0.055394 -0.723698
vt 0.116700 2.801126
vt -0.022171 2.373434
vt 1.159482 2.418557
vt -0.068947 -0.723698
vt -0.040267 -1.104318
vt -0.022172 2.801126
vt -0.040280 -1.474032
vt -0.022171 2.373434
vt 0.134310 1.903206
vt -0.022268 -1.474031
vt 0.123932 -1.421603
vt -0.040262 1.956996
vt 0.123932 1.518927
vt -0.022195 1.956996
vt 1.159482 -1.010536
vt 0.116700 -1.838292
vt -0.022172 -1.838293
vt 1.159482 -0.771346
vt 1.159482 -1.249727
vt 0.123932 -1.421603
vt -0.041745 -1.838293
vt -0.040280 -1.474032
vt -0.055364 -1.474032
vt -0.022219 -1.104318
vt -0.022268 -1.474031
vt -0.055285 -1.838293
vt -0.055362 -1.104318
vt -0.055364 -1.474031
vt -0.068887 -1.474031
vt -0.068826 -1.838292
vt -0.068947 -1.109770
vt -0.055362 -1.104318
vt -0.040267 -1.104318
vt -0.055394 -0.723698
vt -0.040287 -0.723698
vt 1.159482 -0.528591
vt 0.243690 -1.838292
vt 0.175220 -1.838292
vt 0.243638 -1.474031
vt 0.312159 -1.838292
vt 0.175168 -1.474031
vt 0.312107 -1.474031
vt 0.243599 -1.104317
vt 0.312055 -1.109770
vt 0.175116 -1.109770
vt 0.243586 -0.723698
vt 0.312055 -0.723698
vt 0.175116 -0.723698
vt 0.243586 -0.723698
vt 0.175116 -0.337626
vt 0.243586 -0.338844
vt 0.312055 -0.337626
vt 0.243586 0.043574
vt 0.175116 0.043574
vt 0.312055 0.043574
vt 0.243586 0.423917
vt 0.312056 0.424774
vt 0.175116 0.424774
vt 0.312055 0.802544
vt 0.243586 0.802544
vt 0.175116 0.802544
vt 0.312055 1.180315
vt 0.243584 1.181555
vt 0.175116 1.180315
vt 0.243584 1.181555
vt 0.243579 1.563045
vt 0.175110 1.563034
vt 0.312049 1.563034
vt 0.175103 1.945753
vt 0.243574 1.956995
vt 0.312043 1.945753
vt 0.243569 2.373430
vt 0.175099 2.373440
vt 0.312039 2.373440
vt 0.243566 2.801126
vt 0.312036 2.801126
vt 0.175096 2.801126
vt 2.160417 2.567293
vt 2.846310 2.567292
vt 2.160417 3.208222
vt 2.846310 1.926363
vt 2.846310 3.208221
vt 2.160417 1.926364
vt 2.846310 1.677079
vt 2.160417 1.677081
vt 2.160417 1.562075
vt 2.846310 1.562074
vt 2.846310 1.441443
vt 2.160417 1.441444
vt 2.160417 1.320813
vt 2.846310 1.320813
vt 2.846310 1.201055
vt 2.160417 1.201054
vt 2.160417 1.081296
vt 2.846310 1.081297
vt 2.846310 0.969297
vt 2.160417 0.969296
vt 2.160417 0.857297
vt 2.846310 0.857297
vt 2.846310 0.730167
vt 2.160417 0.730167
vt 2.160417 0.603037
vt 2.846310 0.603037
vt 1.482710 -1.173908
vt 2.501339 -0.735679
vt 1.482710 -1.412048
vt 1.482710 -0.935768
vt 2.501339 -0.880335
vt 2.501339 -0.591022
vt 2.501338 -0.433933
vt 1.482710 -0.694794
vt 2.501338 -0.276843
vt 1.533064 -0.706645
vt 2.501338 -0.143627
vt 1.482710 -0.207045
vt 1.482710 0.039730
vt 2.501339 -0.010412
vt 1.850218 -0.452601
vt 1.482710 -0.666020
vt 1.482710 0.286292
vt 1.482710 0.532854
vt 2.501339 0.299277
vt 1.795203 -0.399527
vt 2.501339 0.439615
vt 1.482710 0.796313
vt 1.560997 -0.202171
vt 1.720619 -0.412486
vt 1.482710 1.173392
vt 1.539917 -0.284624
vt 2.501339 0.693575
vt 1.482710 1.658639
vt 1.482710 -0.250844
vt 2.501339 1.227424
vt 1.482710 2.143887
vt 1.482710 -0.325819
vt 2.501339 1.761274
vt 2.501339 1.226811
vt 2.501339 0.692348
vt 2.501339 0.438803
vt 2.501339 0.298878
vt 2.501339 0.144233
vt 1.799029 0.242240
vt 2.205562 0.004148
vt 1.661774 0.056773
vt 1.992024 -0.175336
vt 0.674967 1.057298
vt 0.582786 1.054101
vt 0.674967 0.319780
vt 0.582786 1.240712
vt 0.582787 0.319780
vt 0.672711 1.241312
vt 0.674967 -0.417737
vt 0.490606 0.319780
vt 0.670455 1.269082
vt 0.582787 -0.417737
vt 0.490606 1.057298
vt 0.582786 1.267823
vt 0.490606 -0.417737
vt 0.492862 1.241312
vt 0.582786 1.292417
vt 0.495117 1.269082
vt 0.501664 1.294133
vt 0.663908 1.294133
vt 0.508211 1.319184
vt 0.657362 1.319184
vt 0.582786 1.316820
vt 0.582786 1.240712
vt 0.582786 1.336493
vt 0.518407 1.339065
vt 0.647165 1.339065
vt 0.528604 1.358946
vt 0.636968 1.358946
vt 0.582786 1.355789
vt 0.582786 1.368769
vt 0.541453 1.371711
vt 0.624120 1.371711
vt 0.582786 1.381102
vt 0.582786 1.316820
vt 0.554301 1.384476
vt 0.582786 1.336493
vt 0.611271 1.384476
vt 0.582786 1.394473
vt 0.568544 1.393739
vt 0.597028 1.393739
vt 0.582786 1.403003
vt 0.582786 1.355788
vt 0.582786 1.368769
vt 0.582786 1.381102
vt 0.582786 1.394473
vt -0.035910 1.181556
vt -0.036050 1.563049
vt -0.036046 0.802545
vt 0.127427 1.144140
vt -0.035848 1.956995
vt -0.035909 0.423917
vt 0.120487 1.518929
vt -0.035782 2.373427
vt 0.130896 1.903206
vt -0.036046 0.043574
vt 0.134366 2.320101
vt 0.120487 0.774251
vt 0.120487 0.032756
vt 0.127428 0.402183
vt -0.035785 2.801126
vt -0.035909 -0.338844
vt -0.036046 -0.723698
vt 0.127427 -0.336764
vt 0.120487 -0.704558
vt -0.035902 -1.104317
vt 0.127429 -1.065274
vt 0.120487 1.518929
vt -0.036015 -1.474031
vt 0.120495 -1.421603
vt -0.035712 -1.838292
vt 0.120487 0.032756
vt -0.036046 -0.723698
vt 0.127427 -0.336764
vt -0.035782 2.373427
vt 2.125528 0.028526
vt 1.916656 0.092148
vt 2.151010 0.081460
vt 1.971727 -0.103300
vt 1.872298 0.249576
vt 1.752465 0.069360
vt 1.844827 0.183802
s 1
g ST_AH_OvalRug1_GUI_Rug_GUI_Rug
usemtl GUI_Rug
f 1/1/1 2/2/1 3/3/1
f 4/4/2 5/5/3 6/6/4
f 7/4/5 8/6/5 9/7/5
f 10/8/6 11/9/7 12/10/8
f 13/11/9 10/8/6 12/10/8
f 12/10/8 11/9/7 14/12/10
f 12/10/8 15/13/11 13/11/9
f 12/10/8 14/12/10 15/13/11
f 16/14/12 10/8/6 13/11/9
f 14/12/10 11/9/7 17/15/13
f 15/13/11 14/12/10 18/16/14
f 19/17/15 16/14/12 13/11/9
f 17/15/13 11/9/7 20/18/16
f 21/19/17 15/13/11 18/16/14
f 22/20/18 16/14/12 19/17/15
f 17/15/13 23/21/19 14/12/10
f 24/22/20 21/19/17 18/16/14
f 19/17/15 25/23/21 22/20/18
f 17/15/13 26/24/22 23/21/19
f 23/21/19 18/16/14 14/12/10
f 20/18/16 26/24/22 17/15/13
f 19/17/15 13/11/9 27/25/23
f 28/26/24 18/16/14 23/21/19
f 24/22/20 18/16/14 28/26/24
f 29/27/25 23/21/19 26/24/22
f 30/28/26 19/17/15 27/25/23
f 30/28/26 25/23/21 19/17/15
f 31/29/27 24/22/20 28/26/24
f 28/26/24 23/21/19 32/30/28
f 32/30/28 23/21/19 29/27/25
f 33/31/29 30/28/26 27/25/23
f 32/30/28 31/29/27 28/26/24
f 34/32/30 24/22/20 31/29/27
f 32/30/28 29/27/25 35/33/31
f 36/17/32 25/23/21 30/28/26
f 31/29/27 37/34/33 34/32/30
f 38/35/34 32/30/28 35/33/31
f 39/20/35 25/23/21 36/17/32
f 31/29/27 40/36/36 37/34/33
f 40/36/36 32/30/28 38/35/34
f 35/33/31 29/27/25 41/37/37
f 42/11/38 39/20/35 36/17/32
f 40/36/36 31/29/27 32/30/28
f 35/33/31 41/37/37 43/38/39
f 43/38/39 38/35/34 35/33/31
f 44/14/40 39/20/35 42/11/38
f 37/34/33 40/36/36 45/39/41
f 43/38/39 41/37/37 46/40/42
f 44/14/40 42/11/38 47/8/43
f 38/35/34 48/41/44 40/36/36
f 40/36/36 48/41/44 45/39/41
f 46/40/42 41/37/37 49/42/45
f 47/8/43 42/11/38 50/10/46
f 51/43/47 38/35/34 43/38/39
f 52/44/48 46/40/42 49/42/45
f 50/10/46 53/9/49 47/8/43
f 51/43/47 43/38/39 54/45/50
f 49/42/45 55/46/51 52/44/48
f 56/47/52 53/9/49 50/10/46
f 51/43/47 57/48/53 38/35/34
f 41/37/37 29/27/25 49/42/45
f 50/10/46 58/13/54 56/47/52
f 59/49/55 57/48/53 51/43/47
f 38/35/34 57/48/53 60/50/56
f 26/24/22 49/42/45 29/27/25
f 61/16/57 56/47/52 58/13/54
f 48/41/44 38/35/34 60/50/56
f 26/24/22 62/51/58 49/42/45
f 63/52/59 61/16/57 58/13/54
f 61/16/57 64/53/60 56/47/52
f 57/48/53 65/54/61 60/50/56
f 49/42/45 62/51/58 66/55/62
f 62/51/58 26/24/22 20/18/16
f 67/56/63 56/47/52 64/53/60
f 60/50/56 65/54/61 68/57/56
f 66/55/62 55/46/51 49/42/45
f 67/56/63 64/53/60 69/24/64
f 67/56/63 53/9/49 56/47/52
f 65/54/61 70/58/61 68/57/56
f 71/49/65 65/54/61 57/48/53
f 64/53/60 72/27/66 69/24/64
f 73/18/67 53/9/49 67/56/63
f 74/59/65 65/54/61 71/49/65
f 74/59/65 70/58/61 65/54/61
f 75/30/68 72/27/66 64/53/60
f 69/24/64 73/18/67 67/56/63
f 76/60/69 70/58/61 74/59/65
f 70/58/61 77/60/70 68/57/56
f 78/26/71 75/30/68 64/53/60
f 79/51/72 73/18/67 69/24/64
f 76/60/69 74/59/65 80/61/3
f 81/29/73 75/30/68 78/26/71
f 82/42/74 79/51/72 69/24/64
f 69/24/64 72/27/66 82/42/74
f 78/26/71 64/53/60 61/16/57
f 83/62/75 81/29/73 78/26/71
f 84/55/76 79/51/72 82/42/74
f 75/30/68 85/37/77 72/27/66
f 83/62/75 78/26/71 61/16/57
f 86/63/78 84/55/76 82/42/74
f 87/36/79 75/30/68 81/29/73
f 72/27/66 85/37/77 82/42/74
f 83/62/75 61/16/57 63/52/59
f 87/36/79 88/64/80 75/30/68
f 89/32/81 81/29/73 83/62/75
f 86/63/78 82/42/74 90/40/82
f 85/37/77 90/40/82 82/42/74
f 75/30/68 88/64/80 91/33/83
f 81/29/73 89/32/81 92/34/84
f 91/33/83 85/37/77 75/30/68
f 81/29/73 92/34/84 87/36/79
f 93/38/85 90/40/82 85/37/77
f 88/64/80 93/38/85 91/33/83
f 92/34/84 89/32/81 94/65/86
f 87/36/79 92/34/84 95/39/87
f 91/33/83 93/38/85 85/37/77
f 88/64/80 87/36/79 96/41/88
f 89/32/81 97/66/89 94/65/86
f 96/41/88 87/36/79 95/39/87
f 98/43/90 93/38/85 88/64/80
f 99/67/91 97/66/89 89/32/81
f 88/64/80 96/41/88 98/43/90
f 93/38/85 100/68/92 90/40/82
f 99/67/91 101/69/93 97/66/89
f 89/32/81 83/62/75 99/67/91
f 98/43/90 102/45/94 93/38/85
f 93/38/85 102/45/94 100/68/92
f 97/66/89 101/69/93 103/70/95
f 99/67/91 83/62/75 63/52/59
f 98/43/90 96/41/88 104/60/96
f 102/45/94 105/71/97 100/68/92
f 63/52/59 101/69/93 99/67/91
f 102/45/94 98/43/90 106/72/98
f 106/72/98 98/43/90 104/60/96
f 107/73/99 105/71/97 102/45/94
f 108/74/100 101/69/93 63/52/59
f 102/45/94 106/72/98 107/73/99
f 100/68/92 105/71/97 109/75/101
f 108/74/100 63/52/59 110/76/102
f 111/77/103 103/70/95 101/69/93
f 100/68/92 109/75/101 90/40/82
f 101/69/93 108/74/100 111/77/103
f 63/52/59 58/13/54 110/76/102
f 112/78/104 103/70/95 111/77/103
f 90/40/82 109/75/101 113/79/105
f 108/74/100 110/76/102 114/25/106
f 111/77/103 115/80/107 112/78/104
f 86/63/78 90/40/82 113/79/105
f 116/81/108 108/74/100 114/25/106
f 116/81/108 115/80/107 111/77/103
f 112/78/104 115/80/107 117/82/109
f 118/83/110 86/63/78 113/79/105
f 111/77/103 108/74/100 116/81/108
f 116/81/108 114/25/106 33/31/29
f 119/77/111 117/82/109 115/80/107
f 109/75/101 120/84/112 113/79/105
f 121/85/113 116/81/108 33/31/29
f 115/80/107 121/85/113 119/77/111
f 122/78/114 117/82/109 119/77/111
f 105/71/97 120/84/112 109/75/101
f 121/85/113 115/80/107 116/81/108
f 119/77/111 123/70/115 122/78/114
f 105/71/97 124/86/116 120/84/112
f 121/85/113 33/31/29 125/87/117
f 119/77/111 121/85/113 125/87/117
f 126/88/118 123/70/115 119/77/111
f 127/89/119 124/86/116 105/71/97
f 125/87/117 33/31/29 27/25/23
f 126/88/118 128/66/120 123/70/115
f 105/71/97 129/90/121 127/89/119
f 125/87/117 27/25/23 130/91/122
f 131/92/123 128/66/120 126/88/118
f 107/73/99 129/90/121 105/71/97
f 132/93/124 125/87/117 130/91/122
f 126/88/118 119/77/111 132/93/124
f 131/92/123 34/32/30 128/66/120
f 129/90/121 107/73/99 133/94/125
f 132/93/124 119/77/111 125/87/117
f 34/32/30 131/92/123 24/22/20
f 129/90/121 133/94/125 134/95/126
f 132/93/124 130/91/122 21/19/17
f 131/92/123 126/88/118 21/19/17
f 24/22/20 131/92/123 21/19/17
f 134/95/126 135/96/127 129/90/121
f 21/19/17 126/88/118 132/93/124
f 21/19/17 130/91/122 15/13/11
f 133/94/125 107/73/99 136/97/128
f 129/90/121 135/96/127 127/89/119
f 134/95/126 133/94/125 137/98/129
f 130/91/122 13/11/9 15/13/11
f 107/73/99 106/72/98 136/97/128
f 138/94/130 134/95/126 137/98/129
f 27/25/23 13/11/9 130/91/122
f 127/89/119 135/96/127 124/86/116
f 139/99/131 134/95/126 138/94/130
f 134/95/126 139/99/131 135/96/127
f 135/96/127 140/100/132 124/86/116
f 139/99/131 138/94/130 141/73/133
f 135/96/127 142/101/134 140/100/132
f 124/86/116 140/100/132 143/102/135
f 141/73/133 144/103/136 139/99/131
f 141/73/133 138/94/130 145/97/137
f 146/104/138 142/101/134 135/96/127
f 147/105/139 143/102/135 140/100/132
f 139/99/131 144/103/136 146/104/138
f 148/72/140 141/73/133 145/97/137
f 135/96/127 139/99/131 146/104/138
f 143/102/135 149/106/141 124/86/116
f 150/45/142 141/73/133 148/72/140
f 141/73/133 150/45/142 144/103/136
f 147/105/139 140/100/132 151/107/143
f 140/100/132 142/101/134 151/107/143
f 120/84/112 124/86/116 149/106/141
f 150/45/142 148/72/140 152/43/144
f 147/105/139 153/108/145 143/102/135
f 149/106/141 113/79/105 120/84/112
f 152/43/144 154/38/146 150/45/142
f 155/109/147 153/108/145 147/105/139
f 153/108/145 149/106/141 143/102/135
f 151/107/143 155/109/147 147/105/139
f 152/43/144 148/72/140 156/60/148
f 157/110/149 149/106/141 153/108/145
f 149/106/141 157/110/149 113/79/105
f 158/108/150 155/109/147 151/107/143
f 159/41/151 152/43/144 156/60/148
f 150/45/142 154/38/146 160/68/152
f 161/111/153 158/108/150 151/107/143
f 162/35/154 152/43/144 159/41/151
f 144/103/136 150/45/142 160/68/152
f 152/43/144 162/35/154 154/38/146
f 163/110/155 158/108/150 161/111/153
f 144/103/136 160/68/152 164/112/156
f 162/35/154 159/41/151 165/36/157
f 166/113/158 163/110/155 161/111/153
f 144/103/136 164/112/156 146/104/138
f 165/36/157 167/30/159 162/35/154
f 161/111/153 164/112/156 166/113/158
f 168/83/160 163/110/155 166/113/158
f 146/104/138 164/112/156 142/101/134
f 162/35/154 167/30/159 169/33/161
f 142/101/134 164/112/156 161/111/153
f 154/38/146 162/35/154 169/33/161
f 164/112/156 170/114/162 166/113/158
f 160/68/152 154/38/146 170/114/162
f 151/107/143 142/101/134 161/111/153
f 169/33/161 167/30/159 171/37/163
f 160/68/152 170/114/162 164/112/156
f 169/33/161 171/37/163 154/38/146
f 170/114/162 172/40/164 166/113/158
f 167/30/159 173/27/165 171/37/163
f 154/38/146 171/37/163 172/40/164
f 154/38/146 172/40/164 170/114/162
f 174/44/166 166/113/158 172/40/164
f 172/40/164 171/37/163 174/44/166
f 167/30/159 175/21/167 173/27/165
f 174/44/166 176/46/168 166/113/158
f 171/37/163 173/27/165 177/42/169
f 177/42/169 174/44/166 171/37/163
f 178/26/170 175/21/167 167/30/159
f 176/46/168 174/44/166 179/55/171
f 166/113/158 176/46/168 168/83/160
f 179/55/171 174/44/166 177/42/169
f 178/26/170 180/22/172 175/21/167
f 167/30/159 181/29/173 178/26/170
f 173/27/165 175/21/167 182/15/174
f 177/42/169 183/51/175 179/55/171
f 181/29/173 180/22/172 178/26/170
f 184/24/176 173/27/165 182/15/174
f 184/24/176 177/42/169 173/27/165
f 184/24/176 183/51/175 177/42/169
f 180/22/172 185/16/177 175/21/167
f 186/32/178 180/22/172 181/29/173
f 175/21/167 185/16/177 182/15/174
f 183/51/175 184/24/176 187/18/179
f 181/29/173 188/34/180 186/32/178
f 180/22/172 189/13/181 185/16/177
f 187/18/179 184/24/176 182/15/174
f 181/29/173 165/36/157 188/34/180
f 190/19/182 189/13/181 180/22/172
f 191/12/183 187/18/179 182/15/174
f 191/12/183 182/15/174 185/16/177
f 188/34/180 165/36/157 192/39/184
f 189/13/181 193/10/185 185/16/177
f 194/9/186 187/18/179 191/12/183
f 186/32/178 188/34/180 195/65/187
f 190/19/182 196/91/188 189/13/181
f 193/10/185 194/9/186 191/12/183
f 191/12/183 185/16/177 193/10/185
f 197/66/189 186/32/178 195/65/187
f 198/93/190 196/91/188 190/19/182
f 199/8/191 194/9/186 193/10/185
f 200/92/192 186/32/178 197/66/189
f 190/19/182 201/88/193 198/93/190
f 193/10/185 202/14/194 199/8/191
f 200/92/192 197/66/189 201/88/193
f 186/32/178 200/92/192 180/22/172
f 180/22/172 200/92/192 190/19/182
f 193/10/185 189/13/181 203/11/195
f 203/11/195 202/14/194 193/10/185
f 200/92/192 201/88/193 190/19/182
f 196/91/188 203/11/195 189/13/181
f 201/88/193 197/66/189 204/70/196
f 205/17/197 202/14/194 203/11/195
f 198/93/190 206/87/198 196/91/188
f 201/88/193 204/70/196 207/77/199
f 208/20/200 202/14/194 205/17/197
f 201/88/193 207/77/199 198/93/190
f 198/93/190 207/77/199 206/87/198
f 206/87/198 209/25/201 196/91/188
f 205/17/197 203/11/195 209/25/201
f 205/17/197 210/23/202 208/20/200
f 207/77/199 204/70/196 211/78/196
f 209/25/201 203/11/195 196/91/188
f 212/31/203 205/17/197 209/25/201
f 213/28/204 210/23/202 205/17/197
f 207/77/199 211/78/196 214/80/205
f 207/77/199 214/80/205 206/87/198
f 213/28/204 205/17/197 212/31/203
f 206/87/198 215/85/206 209/25/201
f 214/80/205 211/78/196 216/82/207
f 210/23/202 213/28/204 217/20/208
f 206/87/198 214/80/205 215/85/206
f 215/85/206 212/31/203 209/25/201
f 218/78/209 214/80/205 216/82/207
f 217/20/208 213/28/204 219/17/210
f 215/85/206 220/25/211 212/31/203
f 221/77/212 214/80/205 218/78/209
f 222/11/213 217/20/208 219/17/210
f 219/17/210 213/28/204 212/31/203
f 220/25/211 219/17/210 212/31/203
f 218/78/209 223/70/214 221/77/212
f 224/14/215 217/20/208 222/11/213
f 225/81/216 220/25/211 215/85/206
f 215/85/206 214/80/205 225/81/216
f 221/77/212 223/70/214 226/69/217
f 227/10/218 224/14/215 222/11/213
f 225/81/216 228/74/219 220/25/211
f 225/81/216 214/80/205 221/77/212
f 226/69/217 228/74/219 221/77/212
f 229/8/220 224/14/215 227/10/218
f 228/74/219 230/76/221 220/25/211
f 221/77/212 228/74/219 225/81/216
f 231/66/222 226/69/217 223/70/214
f 227/10/218 232/9/223 229/8/220
f 230/76/221 219/17/210 220/25/211
f 222/11/213 219/17/210 230/76/221
f 233/67/224 226/69/217 231/66/222
f 234/47/225 232/9/223 227/10/218
f 227/10/218 222/11/213 235/13/226
f 235/13/226 222/11/213 230/76/221
f 233/67/224 231/66/222 236/32/227
f 227/10/218 235/13/226 234/47/225
f 232/9/223 234/47/225 237/18/228
f 238/52/229 235/13/226 230/76/221
f 238/52/229 226/69/217 233/67/224
f 236/32/227 231/66/222 239/65/230
f 237/18/228 234/47/225 240/56/231
f 228/74/219 238/52/229 230/76/221
f 228/74/219 226/69/217 238/52/229
f 241/34/232 236/32/227 239/65/230
f 242/16/233 234/47/225 235/13/226
f 234/47/225 242/16/233 240/56/231
f 243/24/234 237/18/228 240/56/231
f 244/29/235 236/32/227 241/34/232
f 238/52/229 245/62/236 235/13/226
f 245/62/236 242/16/233 235/13/226
f 246/51/237 237/18/228 243/24/234
f 236/32/227 244/29/235 245/62/236
f 233/67/224 245/62/236 238/52/229
f 245/62/236 247/53/238 242/16/233
f 242/16/233 247/53/238 240/56/231
f 243/24/234 240/56/231 248/27/239
f 236/32/227 245/62/236 233/67/224
f 245/62/236 244/29/235 249/26/240
f 247/53/238 248/27/239 240/56/231
f 243/24/234 248/27/239 250/42/241
f 250/42/241 246/51/237 243/24/234
f 249/26/240 247/53/238 245/62/236
f 244/29/235 241/34/232 251/36/242
f 248/27/239 252/37/243 250/42/241
f 244/29/235 253/30/244 249/26/240
f 249/26/240 253/30/244 247/53/238
f 251/36/242 241/34/232 254/39/245
f 253/30/244 252/37/243 248/27/239
f 251/36/242 253/30/244 244/29/235
f 252/37/243 255/40/246 250/42/241
f 253/30/244 248/27/239 247/53/238
f 256/41/247 251/36/242 254/39/245
f 257/38/248 255/40/246 252/37/243
f 251/36/242 258/64/249 253/30/244
f 259/63/250 250/42/241 255/40/246
f 258/64/249 251/36/242 256/41/247
f 260/43/251 257/38/248 258/64/249
f 253/30/244 258/64/249 261/33/252
f 261/33/252 257/38/248 252/37/243
f 257/38/248 262/68/253 255/40/246
f 258/64/249 256/41/247 260/43/251
f 261/33/252 252/37/243 253/30/244
f 258/64/249 257/38/248 261/33/252
f 257/38/248 263/45/254 262/68/253
f 260/43/251 256/41/247 264/60/255
f 262/68/253 265/75/256 255/40/246
f 255/40/246 265/75/256 259/63/250
f 260/43/251 263/45/254 257/38/248
f 259/63/250 266/46/257 250/42/241
f 263/45/254 267/71/258 262/68/253
f 262/68/253 268/84/259 265/75/256
f 263/45/254 260/43/251 269/72/260
f 269/72/260 260/43/251 264/60/255
f 250/42/241 266/46/257 270/55/261
f 267/71/258 268/84/259 262/68/253
f 263/45/254 269/72/260 271/73/262
f 270/55/261 246/51/237 250/42/241
f 271/73/262 267/71/258 263/45/254
f 265/75/256 268/84/259 272/106/263
f 271/73/262 269/72/260 273/97/264
f 266/46/257 259/63/250 274/83/265
f 275/79/266 265/75/256 272/106/263
f 271/73/262 276/99/267 267/71/258
f 277/94/268 271/73/262 273/97/264
f 274/83/265 259/63/250 275/79/266
f 275/79/266 259/63/250 265/75/256
f 276/99/267 271/73/262 277/94/268
f 267/71/258 276/99/267 278/89/269
f 267/71/258 278/89/269 268/84/259
f 272/106/263 279/110/270 275/79/266
f 275/79/266 279/110/270 274/83/265
f 276/99/267 277/94/268 280/95/271
f 276/99/267 281/96/272 278/89/269
f 268/84/259 282/86/273 272/106/263
f 283/102/274 279/110/270 272/106/263
f 280/95/271 281/96/272 276/99/267
f 278/89/269 281/96/272 282/86/273
f 278/89/269 282/86/273 268/84/259
f 283/102/274 272/106/263 282/86/273
f 284/108/275 279/110/270 283/102/274
f 280/95/271 277/94/268 285/98/276
f 280/95/271 286/99/277 281/96/272
f 281/96/272 287/100/278 282/86/273
f 288/105/279 284/108/275 283/102/274
f 289/94/280 280/95/271 285/98/276
f 286/99/277 280/95/271 289/94/280
f 282/86/273 287/100/278 288/105/279
f 290/109/281 284/108/275 288/105/279
f 283/102/274 282/86/273 288/105/279
f 286/99/277 289/94/280 291/73/282
f 281/96/272 292/104/283 287/100/278
f 293/107/284 290/109/281 288/105/279
f 281/96/272 286/99/277 292/104/283
f 291/73/282 289/94/280 294/97/285
f 288/105/279 287/100/278 293/107/284
f 295/108/286 290/109/281 293/107/284
f 286/99/277 296/103/287 292/104/283
f 291/73/282 296/103/287 286/99/277
f 297/72/288 291/73/282 294/97/285
f 293/107/284 298/110/289 295/108/286
f 296/103/287 299/112/290 292/104/283
f 54/45/50 291/73/282 297/72/288
f 300/111/291 293/107/284 299/112/290
f 300/111/291 298/110/289 293/107/284
f 291/73/282 54/45/50 296/103/287
f 292/104/283 299/112/290 301/101/292
f 292/104/283 301/101/292 287/100/278
f 298/110/289 300/111/291 302/83/293
f 301/101/292 299/112/290 293/107/284
f 296/103/287 303/114/294 299/112/290
f 287/100/278 301/101/292 293/107/284
f 296/103/287 54/45/50 304/68/295
f 302/83/293 300/111/291 305/113/296
f 300/111/291 299/112/290 305/113/296
f 304/68/295 303/114/294 296/103/287
f 54/45/50 297/72/288 51/43/47
f 52/44/48 302/83/293 305/113/296
f 299/112/290 303/114/294 305/113/296
f 54/45/50 43/38/39 304/68/295
f 297/72/288 306/115/297 51/43/47
f 55/46/51 302/83/293 52/44/48
f 304/68/295 43/38/39 303/114/294
f 52/44/48 305/113/296 46/40/42
f 306/115/297 59/49/55 51/43/47
f 43/38/39 46/40/42 303/114/294
f 303/114/294 46/40/42 305/113/296
f 307/116/298 308/117/281 309/118/299
f 309/118/299 310/119/300 307/116/298
f 309/118/299 308/117/281 311/120/301
f 312/121/302 310/119/300 309/118/299
f 313/118/303 308/117/281 307/116/298
f 311/120/301 314/122/304 309/118/299
f 309/118/299 315/123/305 312/121/302
f 310/119/300 316/121/306 307/116/298
f 307/116/298 316/121/306 313/118/303
f 317/124/289 314/122/304 311/120/301
f 314/122/304 315/123/305 309/118/299
f 318/120/307 308/117/281 313/118/303
f 316/121/306 319/123/308 313/118/303
f 314/122/304 317/124/289 320/125/309
f 315/123/305 314/122/304 321/126/310
f 322/122/311 318/120/307 313/118/303
f 313/118/303 319/123/308 322/122/311
f 320/125/309 317/124/289 323/127/312
f 321/126/310 314/122/304 320/125/309
f 324/124/270 318/120/307 322/122/311
f 322/122/311 319/123/308 325/128/313
f 323/127/312 326/129/51 320/125/309
f 327/130/314 321/126/310 320/125/309
f 324/124/270 322/122/311 328/127/315
f 328/127/315 322/122/311 325/128/313
f 325/128/313 319/123/308 329/126/316
f 320/125/309 326/129/51 327/130/314
f 330/131/317 321/126/310 327/130/314
f 325/128/313 331/129/318 328/127/315
f 329/126/316 332/130/319 325/128/313
f 327/130/314 326/129/51 333/132/320
f 333/132/320 330/131/317 327/130/314
f 332/130/319 331/129/318 325/128/313
f 334/131/321 332/130/319 329/126/316
f 333/132/320 326/129/51 335/133/62
f 336/134/322 330/131/317 333/132/320
f 337/132/323 331/129/318 332/130/319
f 332/130/319 334/131/321 337/132/323
f 335/133/62 338/135/324 333/132/320
f 333/132/320 339/136/325 336/134/322
f 340/133/326 331/129/318 337/132/323
f 337/132/323 334/131/321 341/134/327
f 338/135/324 339/136/325 333/132/320
f 342/137/58 338/135/324 335/133/62
f 343/135/328 340/133/326 337/132/323
f 341/134/327 344/136/329 337/132/323
f 339/136/325 338/135/324 345/138/330
f 338/135/324 342/137/58 346/139/331
f 337/132/323 344/136/329 343/135/328
f 347/137/332 340/133/326 343/135/328
f 345/138/330 338/135/324 346/139/331
f 346/139/331 342/137/58 348/140/333
f 344/136/329 349/138/334 343/135/328
f 350/139/335 347/137/332 343/135/328
f 346/139/331 351/141/336 345/138/330
f 348/140/333 352/142/337 346/139/331
f 343/135/328 349/138/334 350/139/335
f 353/140/338 347/137/332 350/139/335
f 352/142/337 351/141/336 346/139/331
f 354/143/7 352/142/337 348/140/333
f 349/138/334 355/144/339 350/139/335
f 350/139/335 356/143/340 353/140/338
f 357/145/341 351/141/336 352/142/337
f 354/143/7 358/146/6 352/142/337
f 355/144/339 356/143/340 350/139/335
f 359/141/342 355/144/339 349/138/334
f 352/142/337 358/146/6 357/145/341
f 360/147/343 351/141/336 357/145/341
f 356/143/340 355/144/339 361/146/220
f 355/144/339 359/141/342 362/145/344
f 358/146/6 363/148/345 357/145/341
f 364/149/346 360/147/343 357/145/341
f 361/146/220 355/144/339 362/145/344
f 362/145/344 359/141/342 365/147/347
f 357/145/341 363/148/345 364/149/346
f 366/150/348 360/147/343 364/149/346
f 367/149/349 361/146/220 362/145/344
f 365/147/347 368/150/350 362/145/344
f 364/149/346 363/148/345 369/151/351
f 369/151/351 366/150/348 364/149/346
f 362/145/344 368/150/350 367/149/349
f 370/148/352 361/146/220 367/149/349
f 369/151/351 363/148/345 371/152/353
f 372/153/354 366/150/348 369/151/351
f 368/150/350 373/153/355 367/149/349
f 374/151/356 370/148/352 367/149/349
f 371/152/353 375/154/357 369/151/351
f 369/151/351 376/155/358 372/153/354
f 367/149/349 373/153/355 374/151/356
f 377/152/359 370/148/352 374/151/356
f 375/154/357 376/155/358 369/151/351
f 378/156/360 375/154/357 371/152/353
f 373/153/355 379/154/361 374/151/356
f 374/151/356 380/156/202 377/152/359
f 381/151/362 376/155/358 375/154/357
f 378/156/360 382/152/363 375/154/357
f 379/154/361 380/156/202 374/151/356
f 383/155/364 379/154/361 373/153/355
f 375/154/357 382/152/363 381/151/362
f 384/153/365 376/155/358 381/151/362
f 385/151/366 380/156/202 379/154/361
f 379/154/361 383/155/364 385/151/366
f 382/152/363 386/148/367 381/151/362
f 387/149/368 384/153/365 381/151/362
f 388/152/369 380/156/202 385/151/366
f 385/151/366 383/155/364 389/153/370
f 381/151/362 386/148/367 387/149/368
f 390/150/371 384/153/365 387/149/368
f 385/151/366 391/148/372 388/152/369
f 389/153/370 392/150/373 385/151/366
f 387/149/368 386/148/367 393/145/374
f 390/150/371 387/149/368 394/147/375
f 395/149/376 391/148/372 385/151/366
f 385/151/366 392/150/373 395/149/376
f 393/145/374 386/148/367 396/146/43
f 394/147/375 387/149/368 393/145/374
f 397/145/377 391/148/372 395/149/376
f 395/149/376 392/150/373 397/145/377
f 396/146/43 398/144/378 393/145/374
f 393/145/374 399/141/379 394/147/375
f 400/146/380 391/148/372 397/145/377
f 397/145/377 392/150/373 401/147/381
f 398/144/378 399/141/379 393/145/374
f 402/143/49 398/144/378 396/146/43
f 403/142/382 400/146/380 397/145/377
f 401/147/381 404/141/383 397/145/377
f 405/139/384 399/141/379 398/144/378
f 402/143/49 406/140/385 398/144/378
f 397/145/377 404/141/383 403/142/382
f 407/143/386 400/146/380 403/142/382
f 398/144/378 406/140/385 405/139/384
f 408/138/387 399/141/379 405/139/384
f 404/141/383 409/138/388 403/142/382
f 410/139/389 407/143/386 403/142/382
f 406/140/385 411/137/390 405/139/384
f 412/135/391 408/138/387 405/139/384
f 403/142/382 409/138/388 410/139/389
f 413/140/392 407/143/386 410/139/389
f 405/139/384 411/137/390 412/135/391
f 414/136/393 408/138/387 412/135/391
f 409/138/388 415/135/394 410/139/389
f 410/139/389 416/137/395 413/140/392
f 412/135/391 411/137/390 417/132/396
f 417/132/396 414/136/393 412/135/391
f 418/136/397 415/135/394 409/138/388
f 415/135/394 416/137/395 410/139/389
f 417/132/396 411/137/390 419/133/398
f 420/134/399 414/136/393 417/132/396
f 415/135/394 418/136/397 421/132/400
f 416/137/395 415/135/394 422/133/401
f 419/133/398 423/129/402 417/132/396
f 424/130/403 420/134/399 417/132/396
f 422/133/401 415/135/394 421/132/400
f 421/132/400 418/136/397 425/134/404
f 417/132/396 423/129/402 424/130/403
f 426/131/405 420/134/399 424/130/403
f 421/132/400 427/129/168 422/133/401
f 425/134/404 428/130/406 421/132/400
f 424/130/403 423/129/402 429/128/407
f 426/131/405 424/130/403 430/126/408
f 428/130/406 427/129/168 421/132/400
f 431/131/409 428/130/406 425/134/404
f 430/126/408 424/130/403 429/128/407
f 429/128/407 423/129/402 432/127/410
f 427/129/168 428/130/406 433/127/411
f 428/130/406 431/131/409 434/125/412
f 429/128/407 435/123/413 430/126/408
f 432/127/410 436/122/414 429/128/407
f 433/127/411 428/130/406 434/125/412
f 434/125/412 431/131/409 437/126/415
f 436/122/414 435/123/413 429/128/407
f 438/124/149 436/122/414 432/127/410
f 439/122/416 433/127/411 434/125/412
f 437/126/415 440/123/417 434/125/412
f 435/123/413 436/122/414 441/121/418
f 436/122/414 438/124/149 442/118/419
f 434/125/412 440/123/417 439/122/416
f 443/124/155 433/127/411 439/122/416
f 441/121/418 436/122/414 442/118/419
f 442/118/419 438/124/149 444/120/420
f 440/123/417 445/121/421 439/122/416
f 446/118/422 443/124/155 439/122/416
f 447/116/423 441/121/418 442/118/419
f 444/120/420 448/117/424 442/118/419
f 439/122/416 445/121/421 446/118/422
f 449/120/150 443/124/155 446/118/422
f 448/117/424 449/120/150 447/116/423
f 450/119/425 441/121/418 447/116/423
f 442/118/419 448/117/424 447/116/423
f 445/121/421 450/119/425 446/118/422
f 447/116/423 449/120/150 446/118/422
f 446/118/422 450/119/425 447/116/423
f 451/157/426 452/158/427 453/159/428
f 451/157/426 454/160/427 452/158/427
f 453/159/428 452/158/427 455/161/427
f 456/162/429 454/160/427 451/157/426
f 455/161/427 457/157/430 453/159/428
f 456/162/429 458/163/427 454/160/427
f 459/158/427 457/157/430 455/161/427
f 460/164/431 458/163/427 456/162/429
f 459/158/427 461/160/427 457/157/430
f 460/164/431 462/165/432 458/163/427
f 457/157/430 461/160/427 463/162/433
f 458/163/427 462/165/432 464/166/427
f 465/163/427 463/162/433 461/160/427
f 462/165/432 466/167/427 464/166/427
f 467/164/434 463/162/433 465/163/427
f 468/168/435 466/167/427 462/165/432
f 465/163/427 469/165/436 467/164/434
f 468/168/435 470/169/427 466/167/427
f 471/166/427 469/165/436 465/163/427
f 466/167/427 470/169/427 472/170/427
f 473/167/427 469/165/436 471/166/427
f 470/169/427 474/171/427 472/170/427
f 475/168/437 469/165/436 473/167/427
f 476/172/427 474/171/427 470/169/427
f 473/167/427 477/169/427 475/168/437
f 476/172/427 478/173/438 474/171/427
f 479/170/427 477/169/427 473/167/427
f 474/171/427 478/173/438 480/174/427
f 481/171/427 477/169/427 479/170/427
f 478/173/438 482/175/427 480/174/427
f 483/172/427 477/169/427 481/171/427
f 484/176/439 482/175/427 478/173/438
f 481/171/427 485/173/427 483/172/427
f 484/176/439 486/177/440 482/175/427
f 487/174/427 485/173/427 481/171/427
f 482/175/427 486/177/440 488/178/427
f 489/175/427 485/173/427 487/174/427
f 486/177/440 490/179/427 488/178/427
f 491/176/441 485/173/427 489/175/427
f 492/180/442 490/179/427 486/177/440
f 489/175/427 493/177/443 491/176/441
f 492/180/442 494/181/444 490/179/427
f 495/178/427 493/177/443 489/175/427
f 490/179/427 494/181/444 496/182/427
f 497/179/427 493/177/443 495/178/427
f 496/182/427 494/181/444 498/179/427
f 499/180/445 493/177/443 497/179/427
f 498/179/427 494/181/444 500/180/446
f 497/179/427 501/181/447 499/180/445
f 500/180/446 502/177/448 498/179/427
f 503/182/427 501/181/447 497/179/427
f 498/179/427 502/177/448 504/178/427
f 505/179/427 501/181/447 503/182/427
f 504/178/427 502/177/448 506/175/427
f 507/180/427 501/181/447 505/179/427
f 506/175/427 502/177/448 508/176/449
f 507/180/427 505/179/427 509/177/427
f 508/176/449 510/173/427 506/175/427
f 509/177/427 505/179/427 511/178/427
f 506/175/427 510/173/427 512/174/427
f 513/175/427 509/177/427 511/178/427
f 512/174/427 510/173/427 514/171/427
f 515/176/427 509/177/427 513/175/427
f 514/171/427 510/173/427 516/172/450
f 515/176/427 513/175/427 517/173/427
f 516/172/450 518/169/451 514/171/427
f 517/173/427 513/175/427 519/174/427
f 514/171/427 518/169/451 520/170/427
f 521/171/427 517/173/427 519/174/427
f 520/170/427 518/169/451 522/167/427
f 523/172/452 517/173/427 521/171/427
f 522/167/427 518/169/451 524/168/453
f 523/172/452 521/171/427 525/169/454
f 524/168/453 526/165/455 522/167/427
f 525/169/454 521/171/427 527/170/427
f 522/167/427 526/165/455 528/166/427
f 529/167/427 525/169/454 527/170/427
f 528/166/427 526/165/455 530/163/427
f 531/168/456 525/169/454 529/167/427
f 530/163/427 526/165/455 532/164/427
f 531/168/456 529/167/427 533/165/457
f 532/164/427 534/162/427 530/163/427
f 533/165/457 529/167/427 535/166/427
f 530/163/427 534/162/427 536/160/427
f 537/163/427 533/165/457 535/166/427
f 538/157/427 536/160/427 534/162/427
f 539/164/458 533/165/457 537/163/427
f 540/158/427 536/160/427 538/157/427
f 539/164/458 537/163/427 541/162/427
f 540/158/427 538/157/427 542/161/427
f 541/162/427 537/163/427 543/160/427
f 542/161/427 538/157/427 544/159/427
f 541/162/427 543/160/427 545/157/427
f 544/159/427 546/158/427 542/161/427
f 545/157/427 543/160/427 546/158/427
f 545/157/427 546/158/427 544/159/427
f 547/183/459 548/184/446 549/185/276
f 547/183/459 550/186/264 548/184/446
f 549/185/276 548/184/446 551/187/444
f 548/184/446 550/186/264 552/188/448
f 553/184/460 549/185/276 551/187/444
f 550/186/264 554/189/449 552/188/448
f 555/183/280 549/185/276 553/184/460
f 556/190/260 554/189/449 550/186/264
f 555/183/280 553/184/460 557/186/285
f 556/190/260 558/4/255 554/189/449
f 557/186/285 553/184/460 559/188/440
f 554/189/449 558/4/255 560/191/427
f 557/186/285 559/188/440 561/192/461
f 558/4/255 562/193/462 560/191/427
f 561/192/461 559/188/440 563/189/463
f 564/194/464 562/193/462 558/4/255
f 564/194/464 565/195/465 562/193/462
f 557/186/285 566/192/466 567/190/467
f 562/193/462 565/195/465 568/196/451
f 569/192/468 563/189/439 570/197/468
f 565/195/465 571/2/453 568/196/451
f 570/197/468 563/189/439 572/191/438
f 567/190/288 573/192/469 574/198/470
f 575/199/471 571/2/453 565/195/465
f 575/199/471 576/200/230 571/2/453
f 571/2/453 576/200/230 577/201/455
f 572/191/438 578/202/472 579/197/473
f 576/200/230 580/203/427 577/201/455
f 581/193/427 578/202/472 572/191/438
f 579/197/473 578/202/472 582/7/473
f 583/204/222 580/203/427 576/200/230
f 584/205/427 578/202/472 581/193/427
f 582/7/473 578/202/472 585/206/474
f 583/204/222 586/207/214 580/203/427
f 587/196/427 584/205/427 581/193/427
f 588/4/472 582/7/473 585/206/474
f 584/205/427 589/208/427 578/202/472
f 580/203/427 586/207/214 590/209/427
f 589/208/427 588/4/472 585/206/474
f 591/195/41 584/205/427 587/196/427
f 578/202/472 589/208/427 585/206/474
f 592/210/209 590/209/427 586/207/214
f 593/2/435 591/195/41 587/196/427
f 594/194/44 584/205/427 591/195/41
f 595/211/70 589/208/427 584/205/427
f 596/212/427 590/209/427 592/210/209
f 597/199/33 591/195/41 593/2/435
f 584/205/427 594/194/44 595/211/70
f 592/210/209 598/213/207 596/212/427
f 597/199/33 593/2/435 599/200/475
f 600/214/70 589/208/427 595/211/70
f 600/214/70 601/4/70 589/208/427
f 596/212/427 598/213/207 602/215/427
f 599/200/475 593/2/435 603/201/432
f 598/213/207 604/216/427 602/215/427
f 605/203/431 599/200/475 603/201/432
f 606/210/196 604/216/427 598/213/207
f 607/204/476 599/200/475 605/203/431
f 606/210/196 608/217/427 604/216/427
f 607/204/476 605/203/431 609/207/115
f 610/207/196 608/217/427 606/210/196
f 609/207/115 605/203/431 611/209/429
f 610/207/196 612/218/458 608/217/427
f 609/207/115 611/209/429 613/210/114
f 614/204/477 612/218/458 610/207/196
f 613/210/114 611/209/429 615/212/426
f 614/204/477 616/200/478 612/218/458
f 615/212/426 617/215/428 613/210/114
f 612/218/458 616/200/478 618/219/457
f 613/210/114 617/215/428 619/213/109
f 616/200/478 620/220/456 618/219/457
f 621/212/430 619/213/109 617/215/428
f 622/199/180 620/220/456 616/200/478
f 623/210/104 619/213/109 621/212/430
f 622/199/180 624/195/184 620/220/456
f 621/212/430 625/209/433 623/210/104
f 620/220/456 624/195/184 626/196/454
f 623/210/104 625/209/433 627/207/95
f 624/195/184 628/193/479 626/196/454
f 629/203/434 627/207/95 625/209/433
f 630/194/151 628/193/479 624/195/184
f 631/204/89 627/207/95 629/203/434
f 630/194/151 632/4/148 628/193/479
f 631/204/89 629/203/434 633/200/86
f 628/193/479 632/4/148 634/191/427
f 633/200/86 629/203/434 635/201/480
f 632/4/148 636/189/427 634/191/427
f 633/200/86 635/201/480 637/1/481
f 638/190/140 636/189/427 632/4/148
f 637/1/481 635/201/480 639/2/437
f 638/190/140 640/186/482 636/189/427
f 636/189/427 640/186/482 641/188/427
f 633/200/86 642/1/483 643/199/484
f 640/186/482 644/184/427 641/188/427
f 645/196/427 646/3/427 639/2/437
f 643/199/484 642/1/483 647/221/485
f 648/183/130 644/184/427 640/186/482
f 649/222/427 646/3/427 645/196/427
f 647/221/485 650/223/427 643/199/484
f 648/183/130 651/185/129 644/184/427
f 652/193/427 649/222/427 645/196/427
f 643/199/484 650/223/427 653/195/87
f 644/184/427 651/185/129 654/187/447
f 655/224/427 649/222/427 652/193/427
f 655/224/427 656/194/88 650/223/427
f 650/223/427 656/194/88 653/195/87
f 651/185/129 657/184/445 654/187/447
f 658/191/427 655/224/427 652/193/427
f 656/194/88 655/224/427 659/4/96
f 659/4/96 655/224/427 658/191/427
f 660/183/125 657/184/445 651/185/129
f 661/189/441 659/4/96 658/191/427
f 660/183/125 662/186/128 657/184/445
f 663/190/98 659/4/96 661/189/441
f 663/190/98 661/189/441 662/186/128
f 657/184/445 662/186/128 664/188/443
f 662/186/128 661/189/441 664/188/443
f 665/225/427 666/226/427 667/227/427
f 666/226/427 665/225/427 668/228/427
f 667/227/427 666/226/427 669/229/427
f 668/228/427 665/225/427 670/230/427
f 669/229/427 671/231/427 667/227/427
f 666/226/427 672/232/427 669/229/427
f 670/230/427 673/233/427 668/228/427
f 674/234/427 671/231/427 669/229/427
f 675/235/427 672/232/427 666/226/427
f 668/228/427 675/235/427 666/226/427
f 668/228/427 673/233/427 676/236/427
f 669/229/427 677/237/427 674/234/427
f 672/232/427 677/237/427 669/229/427
f 678/238/427 675/235/427 668/228/427
f 676/236/427 673/233/427 679/239/427
f 680/229/427 671/231/427 674/234/427
f 674/234/427 677/237/427 680/229/427
f 668/228/427 681/240/427 678/238/427
f 679/239/427 681/240/427 676/236/427
f 682/227/427 671/231/427 680/229/427
f 680/229/427 677/237/427 683/232/427
f 676/236/427 681/240/427 668/228/427
f 684/241/427 681/240/427 679/239/427
f 685/226/427 682/227/427 680/229/427
f 683/232/427 685/226/427 680/229/427
f 679/239/427 673/233/427 686/242/427
f 679/239/427 687/243/427 684/241/427
f 688/225/427 682/227/427 685/226/427
f 689/235/427 685/226/427 683/232/427
f 686/242/427 690/244/427 679/239/427
f 691/245/427 687/243/427 679/239/427
f 692/246/427 688/225/427 685/226/427
f 685/226/427 689/235/427 692/246/427
f 679/239/427 690/244/427 691/245/427
f 693/247/427 687/243/427 691/245/427
f 694/230/427 688/225/427 692/246/427
f 692/246/427 689/235/427 695/238/427
f 691/245/427 690/244/427 693/247/427
f 696/248/427 687/243/427 693/247/427
f 692/246/427 697/233/427 694/230/427
f 695/238/427 698/240/427 692/246/427
f 693/247/427 690/244/427 699/249/427
f 693/247/427 700/250/427 696/248/427
f 701/236/427 697/233/427 692/246/427
f 692/246/427 698/240/427 701/236/427
f 699/249/427 702/251/427 693/247/427
f 703/252/427 700/250/427 693/247/427
f 704/239/427 697/233/427 701/236/427
f 701/236/427 698/240/427 704/239/427
f 693/247/427 702/251/427 703/252/427
f 705/253/427 700/250/427 703/252/427
f 706/242/427 697/233/427 704/239/427
f 704/239/427 698/240/427 707/241/427
f 703/252/427 702/251/427 705/253/427
f 708/254/427 700/250/427 705/253/427
f 704/239/427 709/244/427 706/242/427
f 707/241/427 710/243/427 704/239/427
f 705/253/427 702/251/427 711/255/427
f 705/253/427 712/256/427 708/254/427
f 713/257/427 709/244/427 704/239/427
f 704/239/427 710/243/427 713/257/427
f 705/253/427 711/255/427 712/256/427
f 712/256/427 714/258/427 708/254/427
f 715/259/427 709/244/427 713/257/427
f 713/257/427 710/243/427 715/259/427
f 711/255/427 716/260/427 712/256/427
f 712/256/427 717/261/427 714/258/427
f 718/249/427 709/244/427 715/259/427
f 715/259/427 710/243/427 719/248/427
f 712/256/427 716/260/427 717/261/427
f 720/262/427 714/258/427 717/261/427
f 715/259/427 721/251/427 718/249/427
f 719/248/427 722/250/427 715/259/427
f 716/260/427 723/263/427 717/261/427
f 724/264/427 720/262/427 717/261/427
f 725/265/427 721/251/427 715/259/427
f 715/259/427 722/250/427 725/265/427
f 723/263/427 724/264/427 717/261/427
f 726/266/427 721/251/427 725/265/427
f 725/265/427 722/250/427 726/266/427
f 727/255/427 721/251/427 726/266/427
f 726/266/427 722/250/427 728/254/427
f 726/266/427 729/267/427 727/255/427
f 726/266/427 728/254/427 729/267/427
f 729/267/427 730/260/427 727/255/427
f 728/254/427 731/258/427 729/267/427
f 729/267/427 732/268/427 730/260/427
f 729/267/427 731/258/427 732/268/427
f 733/263/427 730/260/427 732/268/427
f 731/258/427 734/262/427 732/268/427
f 735/264/427 733/263/427 732/268/427
f 734/262/427 735/264/427 732/268/427
f 736/9/336 737/8/343 738/269/486
f 736/9/336 738/269/486 739/18/487
f 738/269/486 737/8/343 740/270/488
f 739/18/487 738/269/486 741/271/489
f 737/8/343 742/14/490 740/270/488
f 741/271/489 743/51/491 739/18/487
f 740/270/488 744/272/492 738/269/486
f 738/269/486 744/272/492 741/271/489
f 740/270/488 742/14/490 745/273/493
f 746/274/494 743/51/491 741/271/489
f 747/275/495 744/272/492 740/270/488
f 745/273/493 742/14/490 748/276/496
f 743/51/491 746/274/494 749/55/497
f 740/270/488 750/277/498 747/275/495
f 745/273/493 750/277/498 740/270/488
f 748/276/496 742/14/490 751/20/499
f 749/55/497 746/274/494 752/278/500
f 750/277/498 745/273/493 753/279/501
f 753/279/501 745/273/493 748/276/496
f 741/271/489 744/272/492 754/280/502
f 754/280/502 746/274/494 741/271/489
f 746/274/494 755/281/503 752/278/500
f 748/276/496 756/80/504 753/279/501
f 752/278/500 757/46/505 749/55/497
f 758/282/506 746/274/494 754/280/502
f 758/282/506 755/281/503 746/274/494
f 759/283/507 756/80/504 748/276/496
f 751/20/499 759/283/507 748/276/496
f 760/284/508 757/46/505 752/278/500
f 755/281/503 760/284/508 752/278/500
f 761/276/509 756/80/504 759/283/507
f 762/23/510 759/283/507 751/20/499
f 763/285/511 757/46/505 760/284/508
f 764/286/512 760/284/508 755/281/503
f 765/279/513 756/80/504 761/276/509
f 762/23/510 766/20/514 759/283/507
f 764/286/512 767/287/515 760/284/508
f 760/284/508 767/287/515 763/285/511
f 768/273/516 765/279/513 761/276/509
f 759/283/507 766/20/514 761/276/509
f 769/83/517 757/46/505 763/285/511
f 767/287/515 770/288/518 763/285/511
f 771/277/519 765/279/513 768/273/516
f 766/20/514 772/14/520 761/276/509
f 773/289/521 770/288/518 767/287/515
f 771/277/519 768/273/516 774/290/522
f 770/288/518 775/110/523 763/285/511
f 761/276/509 772/14/520 768/273/516
f 763/285/511 775/110/523 769/83/517
f 770/288/518 773/289/521 776/291/524
f 774/290/522 768/273/516 777/270/525
f 768/273/516 772/14/520 777/270/525
f 775/110/523 770/288/518 778/108/526
f 776/291/524 773/289/521 779/292/527
f 780/269/528 774/290/522 777/270/525
f 777/270/525 772/14/520 781/8/529
f 778/108/526 770/288/518 776/291/524
f 779/292/527 782/293/530 776/291/524
f 781/8/529 780/269/528 777/270/525
f 783/272/531 774/290/522 780/269/528
f 776/291/524 784/109/532 778/108/526
f 782/293/530 784/109/532 776/291/524
f 785/9/533 780/269/528 781/8/529
f 783/272/531 780/269/528 786/280/534
f 787/95/535 782/293/530 779/292/527
f 788/291/536 784/109/532 782/293/530
f 785/9/533 789/18/537 780/269/528
f 786/280/534 780/269/528 790/271/538
f 787/95/535 791/292/539 782/293/530
f 782/293/530 791/292/539 788/291/536
f 792/108/540 784/109/532 788/291/536
f 780/269/528 789/18/537 790/271/538
f 793/274/541 786/280/534 790/271/538
f 791/292/539 794/288/542 788/291/536
f 794/288/542 792/108/540 788/291/536
f 789/18/537 795/51/543 790/271/538
f 790/271/538 795/51/543 793/274/541
f 796/282/544 786/280/534 793/274/541
f 797/289/545 794/288/542 791/292/539
f 798/110/308 792/108/540 794/288/542
f 793/274/541 795/51/543 799/278/546
f 796/282/544 793/274/541 800/294/547
f 794/288/542 797/289/545 801/295/548
f 798/110/308 794/288/542 802/83/316
f 800/294/547 793/274/541 799/278/546
f 799/278/546 795/51/543 803/55/399
f 802/83/316 794/288/542 801/295/548
f 801/295/548 797/289/545 804/287/549
f 805/284/550 800/294/547 799/278/546
f 803/55/399 806/46/551 799/278/546
f 801/295/548 807/46/321 802/83/316
f 804/287/549 808/284/552 801/295/548
f 799/278/546 806/46/551 805/284/550
f 809/296/553 800/294/547 805/284/550
f 808/284/552 807/46/321 801/295/548
f 810/296/554 808/284/552 804/287/549
f 805/284/550 806/46/551 811/295/555
f 809/296/553 805/284/550 812/287/556
f 813/278/557 807/46/321 808/284/552
f 810/296/554 814/294/558 808/284/552
f 812/287/556 805/284/550 811/295/555
f 811/295/555 806/46/551 815/83/559
f 808/284/552 814/294/558 813/278/557
f 816/55/560 807/46/321 813/278/557
f 811/295/555 817/289/561 812/287/556
f 815/83/559 818/288/562 811/295/555
f 814/294/558 819/282/563 813/278/557
f 820/274/564 816/55/560 813/278/557
f 818/288/562 817/289/561 811/295/555
f 821/110/413 818/288/562 815/83/559
f 813/278/557 819/282/563 820/274/564
f 822/51/565 816/55/560 820/274/564
f 817/289/561 818/288/562 823/292/566
f 818/288/562 821/110/413 824/291/567
f 819/282/563 825/280/568 820/274/564
f 826/271/569 822/51/565 820/274/564
f 823/292/566 818/288/562 824/291/567
f 824/291/567 821/110/413 827/108/570
f 820/274/564 825/280/568 826/271/569
f 828/18/571 822/51/565 826/271/569
f 829/293/572 823/292/566 824/291/567
f 827/108/570 830/109/573 824/291/567
f 825/280/568 831/269/574 826/271/569
f 826/271/569 832/9/575 828/18/571
f 824/291/567 830/109/573 829/293/572
f 833/95/576 823/292/566 829/293/572
f 831/269/574 832/9/575 826/271/569
f 834/272/577 831/269/574 825/280/568
f 830/109/573 835/108/421 829/293/572
f 836/291/578 833/95/576 829/293/572
f 832/9/575 831/269/574 837/8/347
f 831/269/574 834/272/577 838/270/579
f 829/293/572 835/108/421 836/291/578
f 839/292/580 833/95/576 836/291/578
f 837/8/347 831/269/574 838/270/579
f 838/270/579 834/272/577 840/290/581
f 835/108/421 841/110/417 836/291/578
f 842/288/582 839/292/580 836/291/578
f 843/273/583 837/8/347 838/270/579
f 840/290/581 844/277/584 838/270/579
f 836/291/578 841/110/417 842/288/582
f 845/289/585 839/292/580 842/288/582
f 838/270/579 844/277/584 843/273/583
f 846/14/586 837/8/347 843/273/583
f 841/110/417 847/83/587 842/288/582
f 845/289/585 842/288/582 848/287/588
f 844/277/584 849/279/589 843/273/583
f 850/297/590 846/14/586 843/273/583
f 842/288/582 847/83/587 851/285/591
f 848/287/588 842/288/582 851/285/591
f 843/273/583 849/279/589 850/297/590
f 852/20/592 846/14/586 850/297/590
f 847/83/587 853/284/593 851/285/591
f 853/284/593 848/287/588 851/285/591
f 849/279/589 854/283/594 850/297/590
f 850/297/590 855/23/595 852/20/592
f 856/46/596 853/284/593 847/83/587
f 857/286/597 848/287/588 853/284/593
f 854/283/594 855/23/595 850/297/590
f 858/80/598 854/283/594 849/279/589
f 853/284/593 856/46/596 859/278/599
f 857/286/597 853/284/593 860/281/600
f 861/276/601 855/23/595 854/283/594
f 854/283/594 858/80/598 861/276/601
f 859/278/599 856/46/596 862/55/602
f 860/281/600 853/284/593 859/278/599
f 863/20/370 855/23/595 861/276/601
f 861/276/601 858/80/598 864/279/603
f 862/55/602 865/274/604 859/278/599
f 865/274/604 860/281/600 859/278/599
f 861/276/601 866/14/605 863/20/370
f 864/279/603 867/273/606 861/276/601
f 868/51/607 865/274/604 862/55/602
f 869/282/608 860/281/600 865/274/604
f 867/273/606 866/14/605 861/276/601
f 870/277/609 867/273/606 864/279/603
f 865/274/604 868/51/607 871/271/610
f 869/282/608 865/274/604 872/280/611
f 866/14/605 867/273/606 873/8/612
f 867/273/606 870/277/609 874/270/613
f 872/280/611 865/274/604 871/271/610
f 871/271/610 868/51/607 875/18/614
f 873/8/612 867/273/606 874/270/613
f 874/270/613 870/277/609 876/275/615
f 877/269/616 872/280/611 871/271/610
f 875/18/614 878/9/383 871/271/610
f 878/9/383 873/8/612 877/269/616
f 877/269/616 873/8/612 874/270/613
f 871/271/610 878/9/383 877/269/616
f 876/275/615 879/272/617 874/270/613
f 879/272/617 872/280/611 877/269/616
f 874/270/613 879/272/617 877/269/616
f 34/32/30 37/34/33 880/65/475
f 128/66/120 34/32/30 880/65/475
f 42/11/38 110/76/102 50/10/46
f 42/11/38 36/17/32 110/76/102
f 58/13/54 50/10/46 110/76/102
f 110/76/102 36/17/32 114/25/106
f 36/17/32 30/28/26 114/25/106
f 114/25/106 30/28/26 33/31/29
f 881/46/618 84/55/76 86/63/78
f 881/46/618 86/63/78 118/83/110
f 113/79/105 157/110/149 118/83/110
f 165/36/157 159/41/151 192/39/184
f 165/36/157 181/29/173 167/30/159
f 882/115/619 883/61/619 71/49/65
f 71/49/65 883/61/619 74/59/65
f 884/192/620 885/6/621 886/198/619
f 886/198/619 885/6/621 887/5/622
f 888/197/623 889/7/623 890/192/623
f 890/192/623 889/7/623 891/6/623
f 892/298/624 893/299/624 894/300/624
f 895/301/625 893/299/624 892/298/624
f 894/300/624 893/299/624 896/302/626
f 897/222/624 895/301/625 892/298/624
f 892/298/624 894/300/624 897/222/624
f 898/1/626 894/300/624 896/302/626
f 899/224/625 895/301/625 897/222/624
f 900/3/626 894/300/624 898/1/626
f 897/222/624 894/300/624 900/3/626
f 901/301/627 902/303/627 903/299/627
f 904/224/627 902/303/627 901/301/627
f 905/223/627 902/303/627 904/224/627
f 906/304/628 907/299/628 908/303/628
f 906/304/628 908/303/628 909/221/628
f 909/221/628 908/303/628 910/223/628
f 911/304/629 912/302/629 913/299/629
f 914/221/629 912/302/629 911/304/629
f 915/1/629 912/302/629 914/221/629
