# Blender 4.1.1
# www.blender.org
mtllib shelf.mtl
o shelf_room:GUI_wood_SwitchTable
v 0.097804 0.083363 -0.155270
v 0.097703 0.083363 -0.155169
v 0.094881 0.083338 -0.158459
v 0.097804 0.083363 -0.153498
v 0.094881 0.083338 -0.153461
v 0.097703 0.083363 -0.153598
v 0.094881 0.083338 -0.103488
v 0.097703 0.083402 -0.106636
v 0.097804 0.083402 -0.106535
v 0.097804 0.083402 -0.108307
v 0.097703 0.083402 -0.108207
v 0.094881 0.083338 -0.108342
v 0.093310 0.085705 -0.159973
v 0.106663 0.085705 -0.159973
v 0.093930 0.084450 -0.159545
v 0.093418 0.084448 -0.159176
v 0.106663 0.084451 -0.159706
v 0.092923 0.085725 -0.159651
v 0.094736 0.083586 -0.158931
v 0.106663 0.085954 -0.159844
v 0.094383 0.083566 -0.158577
v 0.093029 0.085954 -0.159844
v 0.106663 0.083586 -0.158931
v 0.094881 0.083338 -0.158459
v 0.106663 0.083338 -0.158459
v 0.092923 0.085725 -0.130440
v 0.092923 0.085725 -0.153470
v 0.093193 0.084447 -0.130497
v 0.093193 0.084447 -0.108348
v 0.093193 0.084447 -0.153469
v 0.092923 0.085725 -0.108368
v 0.094383 0.083566 -0.130536
v 0.094383 0.083567 -0.108334
v 0.094383 0.083566 -0.153469
v 0.094881 0.083338 -0.130543
v 0.094881 0.083338 -0.153461
v 0.097721 0.083338 -0.130543
v 0.094383 0.083566 -0.130536
v 0.097804 0.083363 -0.153498
v 0.094383 0.083566 -0.153469
v 0.094881 0.083338 -0.130543
v 0.094881 0.083338 -0.108342
v 0.097721 0.083338 -0.130543
v 0.094383 0.083567 -0.108334
v 0.097804 0.083402 -0.108307
v 0.093029 0.085954 -0.153470
v 0.093029 0.085954 -0.130425
v 0.106663 0.085954 -0.153470
v 0.092923 0.085725 -0.130440
v 0.106663 0.085954 -0.130425
v 0.092923 0.085725 -0.153470
v 0.106663 0.085954 -0.159844
v 0.093029 0.085954 -0.108374
v 0.093029 0.085954 -0.159844
v 0.106663 0.085954 -0.107029
v 0.092923 0.085725 -0.108368
v 0.092923 0.085725 -0.159651
v 0.092923 0.085725 -0.153470
v 0.093029 0.085954 -0.101914
v 0.092923 0.085725 -0.102131
v 0.106663 0.085954 -0.101914
v 0.092923 0.085725 -0.108368
v 0.093299 0.085714 -0.101796
v 0.106663 0.085714 -0.101796
v 0.093299 0.085714 -0.101796
v 0.093859 0.084449 -0.102223
v 0.106663 0.085714 -0.101796
v 0.093486 0.084448 -0.102580
v 0.106663 0.084449 -0.101945
v 0.092923 0.085725 -0.102131
v 0.094383 0.083566 -0.103360
v 0.094739 0.083578 -0.103004
v 0.106663 0.083578 -0.103004
v 0.094881 0.083338 -0.103488
v 0.106663 0.083338 -0.103488
v 0.106713 0.081765 -0.108307
v 0.098347 0.081765 -0.108307
v 0.106688 0.083370 -0.108324
v 0.100437 0.079434 -0.108307
v 0.097804 0.083402 -0.108307
v 0.106713 0.079434 -0.108307
v 0.100279 0.079434 -0.108207
v 0.098234 0.081765 -0.108207
v 0.097703 0.083402 -0.108207
v 0.103231 0.078307 -0.108307
v 0.103027 0.078307 -0.108207
v 0.106713 0.078307 -0.108307
v 0.104014 0.077590 -0.108207
v 0.104153 0.077590 -0.108307
v 0.106713 0.077590 -0.108307
v 0.104416 0.076856 -0.108207
v 0.104518 0.076856 -0.108307
v 0.106713 0.076856 -0.108307
v 0.104416 0.074669 -0.108207
v 0.104517 0.074669 -0.108307
v 0.106713 0.074669 -0.108307
v 0.104551 0.074360 -0.108207
v 0.104680 0.074360 -0.108307
v 0.106713 0.074360 -0.108307
v 0.104935 0.074025 -0.108207
v 0.104973 0.074126 -0.108307
v 0.106713 0.074126 -0.108307
v 0.097804 0.083402 -0.106535
v 0.098347 0.081765 -0.106535
v 0.106713 0.083402 -0.106535
v 0.098234 0.081765 -0.106636
v 0.097703 0.083402 -0.106636
v 0.106713 0.081765 -0.106535
v 0.100437 0.079434 -0.106535
v 0.106713 0.079434 -0.106535
v 0.103231 0.078307 -0.106535
v 0.106713 0.078307 -0.106535
v 0.104153 0.077590 -0.106535
v 0.106713 0.077590 -0.106535
v 0.104518 0.076856 -0.106535
v 0.106713 0.076856 -0.106535
v 0.106713 0.074669 -0.106535
v 0.104517 0.074669 -0.106535
v 0.104680 0.074360 -0.106535
v 0.106713 0.074360 -0.106535
v 0.104973 0.074126 -0.106535
v 0.106713 0.074126 -0.106535
v 0.106713 0.074025 -0.106636
v 0.104935 0.074025 -0.106636
v 0.106713 0.074025 -0.108207
v 0.104973 0.074126 -0.106535
v 0.106713 0.074126 -0.106535
v 0.104935 0.074025 -0.108207
v 0.104973 0.074126 -0.108307
v 0.106713 0.074126 -0.108307
v 0.097703 0.083402 -0.108207
v 0.098234 0.081765 -0.108207
v 0.097703 0.083402 -0.106636
v 0.098234 0.081765 -0.106636
v 0.100279 0.079434 -0.108207
v 0.100279 0.079434 -0.106636
v 0.098347 0.081765 -0.106535
v 0.103027 0.078307 -0.108207
v 0.100437 0.079434 -0.106535
v 0.103027 0.078307 -0.106636
v 0.100437 0.079434 -0.106535
v 0.104014 0.077590 -0.108207
v 0.103231 0.078307 -0.106535
v 0.104014 0.077590 -0.106636
v 0.103231 0.078307 -0.106535
v 0.104416 0.076856 -0.108207
v 0.104153 0.077590 -0.106535
v 0.104416 0.076856 -0.106636
v 0.104153 0.077590 -0.106535
v 0.104416 0.074669 -0.108207
v 0.104518 0.076856 -0.106535
v 0.104416 0.074669 -0.106636
v 0.104517 0.074669 -0.106535
v 0.104551 0.074360 -0.108207
v 0.104551 0.074360 -0.106636
v 0.104680 0.074360 -0.106535
v 0.104935 0.074025 -0.108207
v 0.104935 0.074025 -0.106636
v 0.104680 0.074360 -0.106535
v 0.104973 0.074126 -0.106535
v 0.106713 0.081765 -0.155270
v 0.098347 0.081765 -0.155270
v 0.106688 0.083351 -0.155278
v 0.100437 0.079434 -0.155270
v 0.097804 0.083363 -0.155270
v 0.106713 0.079434 -0.155270
v 0.100279 0.079434 -0.155169
v 0.098234 0.081765 -0.155169
v 0.097703 0.083363 -0.155169
v 0.103231 0.078307 -0.155270
v 0.103027 0.078307 -0.155169
v 0.106713 0.078307 -0.155270
v 0.104014 0.077590 -0.155169
v 0.104153 0.077590 -0.155270
v 0.106713 0.077590 -0.155270
v 0.104416 0.076856 -0.155169
v 0.104518 0.076856 -0.155270
v 0.106713 0.076856 -0.155270
v 0.104416 0.074669 -0.155169
v 0.104517 0.074669 -0.155270
v 0.106713 0.074669 -0.155270
v 0.104551 0.074360 -0.155169
v 0.104680 0.074360 -0.155270
v 0.106713 0.074360 -0.155270
v 0.104935 0.074025 -0.155169
v 0.104973 0.074126 -0.155270
v 0.106713 0.074126 -0.155270
v 0.097804 0.083363 -0.153498
v 0.098347 0.081765 -0.153498
v 0.106688 0.083351 -0.153479
v 0.098234 0.081765 -0.153598
v 0.097703 0.083363 -0.153598
v 0.106713 0.081765 -0.153498
v 0.100437 0.079434 -0.153498
v 0.106713 0.079434 -0.153498
v 0.103231 0.078307 -0.153498
v 0.106713 0.078307 -0.153498
v 0.104153 0.077590 -0.153498
v 0.106713 0.077590 -0.153498
v 0.104518 0.076856 -0.153498
v 0.106713 0.076856 -0.153498
v 0.106713 0.074669 -0.153498
v 0.104517 0.074669 -0.153498
v 0.104680 0.074360 -0.153498
v 0.106713 0.074360 -0.153498
v 0.104973 0.074126 -0.153498
v 0.106713 0.074126 -0.153498
v 0.106713 0.074025 -0.153598
v 0.104935 0.074025 -0.153598
v 0.106713 0.074025 -0.155169
v 0.104973 0.074126 -0.153498
v 0.106713 0.074126 -0.153498
v 0.104935 0.074025 -0.155169
v 0.104973 0.074126 -0.155270
v 0.106713 0.074126 -0.155270
v 0.097703 0.083363 -0.155169
v 0.098234 0.081765 -0.155169
v 0.097703 0.083363 -0.153598
v 0.098234 0.081765 -0.153598
v 0.100279 0.079434 -0.155169
v 0.100279 0.079434 -0.153598
v 0.098347 0.081765 -0.153498
v 0.103027 0.078307 -0.155169
v 0.100437 0.079434 -0.153498
v 0.103027 0.078307 -0.153598
v 0.100437 0.079434 -0.153498
v 0.104014 0.077590 -0.155169
v 0.103231 0.078307 -0.153498
v 0.104014 0.077590 -0.153598
v 0.103231 0.078307 -0.153498
v 0.104416 0.076856 -0.155169
v 0.104153 0.077590 -0.153498
v 0.104416 0.076856 -0.153598
v 0.104153 0.077590 -0.153498
v 0.104416 0.074669 -0.155169
v 0.104518 0.076856 -0.153498
v 0.104416 0.074669 -0.153598
v 0.104517 0.074669 -0.153498
v 0.104551 0.074360 -0.155169
v 0.104551 0.074360 -0.153598
v 0.104680 0.074360 -0.153498
v 0.104935 0.074025 -0.155169
v 0.104935 0.074025 -0.153598
v 0.104680 0.074360 -0.153498
v 0.104973 0.074126 -0.153498
v 0.094881 0.083338 -0.103488
v 0.097804 0.083402 -0.106535
v 0.106663 0.083338 -0.103488
v 0.106713 0.083402 -0.106535
v 0.094383 0.083566 -0.103360
v 0.094383 0.083567 -0.108334
v 0.094881 0.083338 -0.108342
v 0.097703 0.083402 -0.106636
v 0.097703 0.083402 -0.108207
v 0.093486 0.084448 -0.102580
v 0.093193 0.084447 -0.108348
v 0.094383 0.083566 -0.103360
v 0.092923 0.085725 -0.108368
v 0.094383 0.083567 -0.108334
v 0.092923 0.085725 -0.102131
v 0.093193 0.084447 -0.153469
v 0.092923 0.085725 -0.153470
v 0.093418 0.084448 -0.159176
v 0.094383 0.083566 -0.158577
v 0.092923 0.085725 -0.159651
v 0.094383 0.083566 -0.153469
v 0.094881 0.083338 -0.153461
v 0.094383 0.083566 -0.153469
v 0.094881 0.083338 -0.158459
v 0.097703 0.083363 -0.155169
v 0.097703 0.083363 -0.153598
v 0.094383 0.083566 -0.158577
v 0.106663 0.083338 -0.158459
v 0.097804 0.083363 -0.155270
v 0.106688 0.083351 -0.155278
v 0.097721 0.083338 -0.130543
v 0.097804 0.083363 -0.153498
v 0.106663 0.083338 -0.130543
v 0.106688 0.083351 -0.153479
v 0.106688 0.083370 -0.108324
v 0.097804 0.083402 -0.108307
v 0.106663 0.083338 -0.130543
v 0.097721 0.083338 -0.130543
vn 0.0042 -1.0000 0.0042
vn 0.0087 -0.9999 -0.0088
vn 0.0107 -0.9999 -0.0108
vn 0.0216 -0.9995 0.0217
vn -0.3302 -0.1746 -0.9276
vn -0.0032 0.1035 -0.9946
vn -0.2538 -0.5697 -0.7817
vn -0.6952 -0.6347 -0.3373
vn -0.0056 -0.4575 -0.8892
vn -0.8861 -0.1990 -0.4187
vn -0.1875 -0.8156 -0.5474
vn -0.0000 0.8546 -0.5192
vn -0.4572 -0.8595 -0.2286
vn -0.5632 0.5747 -0.5937
vn -0.0026 -0.7723 -0.6352
vn -0.1511 -0.9735 -0.1717
vn -0.0003 -0.9715 -0.2369
vn -0.9938 0.1109 -0.0000
vn -0.8414 -0.5404 -0.0000
vn -0.8415 -0.5403 -0.0000
vn -0.5089 -0.8608 -0.0000
vn -0.2114 -0.9774 -0.0003
vn -0.2115 -0.9774 -0.0003
vn 0.0045 -1.0000 -0.0006
vn -0.5088 -0.8609 -0.0000
vn 0.0044 -1.0000 -0.0006
vn -0.2082 -0.9781 0.0007
vn 0.0111 -0.9999 0.0014
vn -0.5089 -0.8609 -0.0000
vn -0.5397 0.8418 -0.0000
vn -0.5397 0.8419 -0.0000
vn -0.0000 1.0000 -0.0000
vn -0.9938 0.1110 -0.0000
vn -0.5631 0.5747 -0.5938
vn -0.9976 0.0684 -0.0097
vn -0.5759 0.5598 0.5958
vn -0.8940 -0.2163 0.3923
vn -0.0000 0.8485 0.5293
vn -0.9984 0.0561 0.0124
vn -0.3534 -0.1818 0.9176
vn -0.0055 0.1144 0.9934
vn -0.2788 -0.6085 0.7430
vn -0.7047 -0.6420 0.3021
vn -0.0095 -0.4975 0.8674
vn -0.8940 -0.2164 0.3923
vn -0.4593 -0.8644 0.2047
vn -0.1891 -0.8506 0.4907
vn -0.0039 -0.8207 0.5714
vn -0.1483 -0.9759 0.1601
vn -0.0000 -0.9759 0.2183
vn -0.0005 -0.0028 -1.0000
vn -0.3247 -0.1878 -0.9270
vn -0.0010 -0.0055 -1.0000
vn -0.2334 -0.3434 -0.9097
vn -0.3623 -0.1216 -0.9241
vn -0.0000 -0.0000 -1.0000
vn -0.5373 -0.7689 -0.3465
vn -0.7992 -0.4563 -0.3913
vn -0.8777 -0.2860 -0.3845
vn -0.2026 -0.3672 -0.9078
vn -0.4560 -0.8213 -0.3428
vn -0.6916 -0.6009 -0.4008
vn -0.2777 -0.2368 -0.9310
vn -0.8888 -0.2222 -0.4008
vn -0.3553 -0.0859 -0.9308
vn -0.8982 -0.1938 -0.3946
vn -0.3610 -0.0818 -0.9290
vn -0.7369 -0.5565 -0.3838
vn -0.3001 -0.2361 -0.9242
vn -0.3217 -0.8612 -0.3935
vn -0.1729 -0.4638 -0.8689
vn -0.0000 -0.3826 -0.9239
vn -0.3619 -0.1187 0.9246
vn -0.3245 -0.1864 0.9273
vn -0.0000 -0.0000 1.0000
vn -0.7992 -0.4563 0.3912
vn -0.8777 -0.2860 0.3845
vn -0.2334 -0.3434 0.9097
vn -0.2026 -0.3672 0.9078
vn -0.2776 -0.2367 0.9311
vn -0.3552 -0.0858 0.9308
vn -0.3611 -0.0818 0.9289
vn -0.3001 -0.2361 0.9242
vn -0.1729 -0.4638 0.8689
vn -0.0000 -0.3827 0.9239
vn -0.0000 -0.9239 0.3827
vn -0.3217 -0.8612 0.3935
vn -0.0000 -0.9239 -0.3827
vn -0.1729 -0.4639 0.8689
vn -0.0000 -0.3827 -0.9239
vn -0.8777 -0.2860 -0.3844
vn -0.7992 -0.4563 -0.3912
vn -0.5374 -0.7689 -0.3464
vn -0.5374 -0.7689 0.3465
vn -0.4560 -0.8213 -0.3427
vn -0.4560 -0.8214 0.3427
vn -0.6916 -0.6009 -0.4007
vn -0.6916 -0.6009 0.4007
vn -0.2027 -0.3672 0.9078
vn -0.8888 -0.2223 -0.4007
vn -0.2777 -0.2368 0.9310
vn -0.8888 -0.2223 0.4007
vn -0.8982 -0.1938 -0.3945
vn -0.3553 -0.0859 0.9308
vn -0.8982 -0.1938 0.3946
vn -0.7369 -0.5565 0.3837
vn -0.3002 -0.2361 0.9242
vn -0.3218 -0.8612 0.3935
vn -0.0003 -0.0014 -1.0000
vn -0.3244 -0.1885 -0.9270
vn -0.0005 -0.0027 -1.0000
vn -0.3618 -0.1229 -0.9241
vn -0.7978 -0.4591 -0.3908
vn -0.8759 -0.2922 -0.3840
vn -0.2777 -0.2367 -0.9311
vn -0.8982 -0.1937 -0.3946
vn -0.3611 -0.0818 -0.9289
vn -0.3001 -0.2361 -0.9243
vn -0.3619 -0.1246 0.9238
vn -0.3244 -0.1893 0.9268
vn -0.0011 -0.0060 1.0000
vn -0.7978 -0.4591 0.3908
vn -0.8759 -0.2922 0.3840
vn -0.0005 -0.0030 1.0000
vn -0.2026 -0.3671 0.9078
vn -0.3610 -0.0818 0.9290
vn -0.1728 -0.4638 -0.8689
vn -0.8759 -0.2922 -0.3839
vn -0.7978 -0.4592 -0.3907
vn -0.8759 -0.2922 0.3839
vn -0.7978 -0.4592 0.3907
vn -0.3245 -0.1893 0.9268
vn -0.4560 -0.8214 -0.3427
vn -0.4560 -0.8213 0.3427
vn -0.2334 -0.3433 0.9097
vn -0.2776 -0.2368 0.9311
vn -0.3553 -0.0858 0.9308
vn -0.1483 -0.9759 0.1600
vn -0.0000 -0.9998 -0.0210
vn -0.0000 -0.9759 0.2182
vn -0.4593 -0.8644 0.2046
vn -0.5340 -0.8455 0.0088
vn -0.2025 -0.9793 -0.0000
vn 0.0227 -0.9997 -0.0000
vn -0.7047 -0.6420 0.3020
vn -0.8271 -0.5617 0.0211
vn -0.4594 -0.8643 0.2046
vn -0.9984 0.0560 0.0124
vn -0.5340 -0.8454 0.0088
vn -0.8303 -0.5571 -0.0163
vn -0.9976 0.0683 -0.0097
vn -0.6953 -0.6347 -0.3372
vn -0.4573 -0.8595 -0.2285
vn -0.5283 -0.8490 -0.0066
vn -0.2092 -0.9779 -0.0000
vn -0.5282 -0.8491 -0.0066
vn -0.1511 -0.9735 -0.1716
vn 0.0092 -1.0000 -0.0000
vn -0.4572 -0.8595 -0.2285
vn -0.1510 -0.9735 -0.1716
vn -0.0003 -0.9716 -0.2368
vn -0.0006 -1.0000 0.0063
vn -0.0006 -1.0000 0.0064
vn -0.0009 -1.0000 -0.0008
vn -0.0006 -1.0000 -0.0009
vn -0.0008 -1.0000 -0.0008
vn -0.0018 -1.0000 0.0022
vn -0.0017 -1.0000 0.0022
vn -0.0019 -1.0000 0.0021
vt 0.561547 0.984931
vt 0.564839 0.984931
vt 0.618889 0.998643
vt 0.563384 0.975333
vt 0.618889 0.975334
vt 0.565189 0.976130
vt 0.618889 0.751357
vt 0.564805 0.763927
vt 0.561547 0.763927
vt 0.563080 0.773193
vt 0.564627 0.772491
vt 0.618889 0.773193
vt 0.618666 0.226237
vt 0.375000 0.226237
vt 0.618666 0.106358
vt 0.625000 0.098854
vt 0.375000 0.106358
vt 0.625000 0.220392
vt 0.618666 0.023762
vt 0.375000 0.243002
vt 0.625000 0.015116
vt 0.620909 0.243002
vt 0.375000 0.023762
vt 0.621082 0.003918
vt 0.375000 0.000000
vt 0.751967 0.228136
vt 0.649813 0.228136
vt 0.751967 0.106008
vt 0.851723 0.106008
vt 0.649813 0.106008
vt 0.851723 0.228136
vt 0.751967 0.021863
vt 0.851723 0.021863
vt 0.649813 0.021863
vt 0.618889 0.873063
vt 0.561547 0.873063
vt 0.624609 0.873034
vt 0.624927 0.975773
vt 0.624298 0.772706
vt 0.619831 0.274596
vt 0.619831 0.376938
vt 0.375000 0.274596
vt 0.621632 0.376873
vt 0.375000 0.376938
vt 0.621632 0.275255
vt 0.375000 0.251270
vt 0.619831 0.476878
vt 0.619831 0.251270
vt 0.375000 0.476878
vt 0.621632 0.476106
vt 0.621632 0.252094
vt 0.619831 0.498729
vt 0.621632 0.497803
vt 0.375000 0.498729
vt 0.615199 0.499232
vt 0.375000 0.499232
vt 0.618736 0.522963
vt 0.618736 0.643789
vt 0.375000 0.522963
vt 0.625000 0.651792
vt 0.375000 0.643790
vt 0.625000 0.530307
vt 0.625000 0.735493
vt 0.618736 0.727037
vt 0.375000 0.727037
vt 0.621156 0.746156
vt 0.375000 0.750000
vt 0.375000 0.192619
vt 0.621575 0.192619
vt 0.375000 0.250000
vt 0.618884 0.131888
vt 0.622131 0.250000
vt 0.375000 0.131888
vt 0.625000 0.131888
vt 0.625000 0.192619
vt 0.625000 0.250000
vt 0.611214 0.095393
vt 0.625000 0.095393
vt 0.375000 0.095393
vt 0.625000 0.076702
vt 0.612147 0.076703
vt 0.375000 0.076702
vt 0.625000 0.057569
vt 0.613948 0.057569
vt 0.375000 0.057569
vt 0.625000 0.011404
vt 0.614066 0.011404
vt 0.375000 0.011404
vt 0.625000 0.006396
vt 0.610114 0.006396
vt 0.375000 0.006396
vt 0.625000 0.000000
vt 0.607343 0.001919
vt 0.375000 0.001919
vt 0.622131 0.500000
vt 0.621574 0.557381
vt 0.375000 0.500000
vt 0.625000 0.557381
vt 0.625000 0.500000
vt 0.375000 0.557381
vt 0.618886 0.618112
vt 0.375000 0.618112
vt 0.611215 0.654607
vt 0.375000 0.654607
vt 0.612148 0.673298
vt 0.375000 0.673298
vt 0.613950 0.692431
vt 0.375000 0.692431
vt 0.375000 0.738596
vt 0.614066 0.738596
vt 0.610114 0.743604
vt 0.375000 0.743604
vt 0.607342 0.748081
vt 0.375000 0.748081
vt 0.375000 0.764142
vt 0.625000 0.764142
vt 0.375000 0.985859
vt 0.619725 0.750001
vt 0.375000 0.750001
vt 0.625000 0.985859
vt 0.619726 1.000000
vt 0.375000 1.000000
vt 0.639141 0.250000
vt 0.639142 0.192619
vt 0.860859 0.250000
vt 0.860859 0.192619
vt 0.639141 0.131888
vt 0.860859 0.131888
vt 0.875000 0.190841
vt 0.639143 0.095393
vt 0.875000 0.131888
vt 0.860859 0.095393
vt 0.875000 0.130110
vt 0.639143 0.076702
vt 0.875000 0.095393
vt 0.860859 0.076702
vt 0.875000 0.092556
vt 0.639141 0.057569
vt 0.875000 0.076702
vt 0.860859 0.057569
vt 0.875000 0.074670
vt 0.639145 0.011404
vt 0.875000 0.057569
vt 0.860859 0.011404
vt 0.875000 0.011404
vt 0.639147 0.006396
vt 0.860859 0.006397
vt 0.875000 0.006396
vt 0.639141 0.000000
vt 0.860859 0.000000
vt 0.875000 0.004977
vt 0.875000 0.000235
vt 0.375000 0.751357
vt 0.375000 0.763927
vt 0.624230 0.750770
vt 0.873534 0.106008
vt 0.873534 0.021863
vt 0.873534 0.228136
vt 0.626530 0.106008
vt 0.626530 0.021863
vt 0.626530 0.228136
vt 0.625000 0.999189
vt 0.375000 0.998643
vt 0.375000 0.984931
vt 0.375000 0.873063
vt 0.375000 0.975333
vt 0.375000 0.773193
s 1
g shelf_room:GUI_wood_SwitchTable_room:GUI_wood_SwitchTable
usemtl room:GUI_wood_SwitchTable
f 1/1/1 2/2/1 3/3/1
f 4/4/2 5/5/2 6/6/2
f 7/7/3 8/8/3 9/9/3
f 10/10/4 11/11/4 12/12/4
f 13/13/5 14/14/6 15/15/7
f 15/15/7 16/16/8 13/13/5
f 15/15/7 14/14/6 17/17/9
f 13/13/5 16/16/8 18/18/10
f 15/15/7 17/17/9 19/19/11
f 13/13/5 20/20/12 14/14/6
f 15/15/7 21/21/13 16/16/8
f 18/18/10 22/22/14 13/13/5
f 19/19/11 21/21/13 15/15/7
f 22/22/14 20/20/12 13/13/5
f 19/19/11 17/17/9 23/23/15
f 24/24/16 21/21/13 19/19/11
f 19/19/11 23/23/15 24/24/16
f 24/24/16 23/23/15 25/25/17
f 26/26/18 27/27/18 28/28/19
f 29/29/19 26/26/18 28/28/19
f 28/28/19 27/27/18 30/30/20
f 31/31/18 26/26/18 29/29/19
f 28/28/19 30/30/20 32/32/21
f 29/29/19 28/28/19 33/33/21
f 33/33/21 28/28/19 32/32/21
f 32/32/21 30/30/20 34/34/21
f 35/35/22 36/5/23 37/36/24
f 38/37/25 36/5/23 35/35/22
f 37/36/24 36/5/23 39/4/26
f 40/38/25 36/5/23 38/37/25
f 41/35/27 42/12/27 38/37/25
f 43/36/28 42/12/27 41/35/27
f 38/37/25 42/12/27 44/39/29
f 45/10/28 42/12/27 43/36/28
f 46/40/30 47/41/31 48/42/32
f 46/40/30 49/43/33 47/41/31
f 48/42/32 47/41/31 50/44/32
f 51/45/33 49/43/33 46/40/30
f 52/46/12 46/40/30 48/42/32
f 47/41/31 53/47/30 50/44/32
f 47/41/31 49/43/33 53/47/30
f 54/48/34 46/40/30 52/46/12
f 50/44/32 53/47/30 55/49/32
f 53/47/30 49/43/33 56/50/33
f 57/51/10 46/40/30 54/48/34
f 58/45/35 46/40/30 57/51/10
f 59/52/36 55/49/32 53/47/30
f 59/52/36 53/47/30 60/53/37
f 61/54/38 55/49/32 59/52/36
f 60/53/37 53/47/30 62/50/39
f 59/52/36 63/55/40 61/54/38
f 60/53/37 63/55/40 59/52/36
f 61/54/38 63/55/40 64/56/41
f 65/57/40 66/58/42 67/59/41
f 65/57/40 68/60/43 66/58/42
f 67/59/41 66/58/42 69/61/44
f 70/62/45 68/60/43 65/57/40
f 68/60/43 71/63/46 66/58/42
f 66/58/42 72/64/47 69/61/44
f 66/58/42 71/63/46 72/64/47
f 69/61/44 72/64/47 73/65/48
f 71/63/46 74/66/49 72/64/47
f 72/64/47 74/66/49 73/65/48
f 73/65/48 74/66/49 75/67/50
f 76/68/51 77/69/52 78/70/53
f 76/68/51 79/71/54 77/69/52
f 78/70/53 77/69/52 80/72/55
f 81/73/56 79/71/54 76/68/51
f 79/71/54 82/74/57 77/69/52
f 77/69/52 83/75/58 80/72/55
f 77/69/52 82/74/57 83/75/58
f 80/72/55 83/75/58 84/76/59
f 81/73/56 85/77/60 79/71/54
f 82/74/57 79/71/54 86/78/61
f 86/78/61 79/71/54 85/77/60
f 87/79/56 85/77/60 81/73/56
f 85/77/60 88/80/62 86/78/61
f 87/79/56 89/81/63 85/77/60
f 89/81/63 88/80/62 85/77/60
f 90/82/56 89/81/63 87/79/56
f 89/81/63 91/83/64 88/80/62
f 90/82/56 92/84/65 89/81/63
f 92/84/65 91/83/64 89/81/63
f 93/85/56 92/84/65 90/82/56
f 91/83/64 92/84/65 94/86/66
f 93/85/56 95/87/67 92/84/65
f 94/86/66 92/84/65 95/87/67
f 96/88/56 95/87/67 93/85/56
f 95/87/67 97/89/68 94/86/66
f 96/88/56 98/90/69 95/87/67
f 98/90/69 97/89/68 95/87/67
f 99/91/56 98/90/69 96/88/56
f 98/90/69 100/92/70 97/89/68
f 99/91/56 101/93/71 98/90/69
f 101/93/71 100/92/70 98/90/69
f 102/94/72 101/93/71 99/91/56
f 103/95/73 104/96/74 105/97/75
f 103/95/73 106/98/76 104/96/74
f 107/99/77 106/98/76 103/95/73
f 105/97/75 104/96/74 108/100/75
f 104/96/74 109/101/78 108/100/75
f 108/100/75 109/101/78 110/102/75
f 109/101/78 111/103/79 110/102/75
f 110/102/75 111/103/79 112/104/75
f 111/103/79 113/105/80 112/104/75
f 112/104/75 113/105/80 114/106/75
f 113/105/80 115/107/81 114/106/75
f 114/106/75 115/107/81 116/108/75
f 116/108/75 115/107/81 117/109/75
f 117/109/75 115/107/81 118/110/82
f 118/110/82 119/111/83 117/109/75
f 117/109/75 119/111/83 120/112/75
f 119/111/83 121/113/84 120/112/75
f 120/112/75 121/113/84 122/114/85
f 123/115/86 124/116/87 125/117/88
f 123/115/86 126/118/89 124/116/87
f 127/119/85 126/118/89 123/115/86
f 125/117/88 124/116/87 128/120/70
f 129/121/71 125/117/88 128/120/70
f 130/122/90 125/117/88 129/121/71
f 131/123/91 132/124/92 133/125/77
f 133/125/77 132/124/92 134/126/76
f 132/124/92 135/127/93 134/126/76
f 134/126/76 135/127/93 136/128/94
f 134/126/76 136/128/94 137/129/74
f 135/127/93 138/130/95 136/128/94
f 137/129/74 136/128/94 139/131/78
f 136/128/94 138/130/95 140/132/96
f 136/128/94 140/132/96 141/133/78
f 138/130/95 142/134/97 140/132/96
f 141/133/78 140/132/96 143/135/79
f 140/132/96 142/134/97 144/136/98
f 140/132/96 144/136/98 145/137/99
f 142/134/97 146/138/100 144/136/98
f 145/137/99 144/136/98 147/139/101
f 144/136/98 146/138/100 148/140/102
f 148/140/102 149/141/101 144/136/98
f 146/138/100 150/142/103 148/140/102
f 151/143/104 149/141/101 148/140/102
f 148/140/102 150/142/103 152/144/105
f 151/143/104 148/140/102 153/145/82
f 153/145/82 148/140/102 152/144/105
f 150/142/103 154/146/68 152/144/105
f 152/144/105 155/147/106 153/145/82
f 152/144/105 154/146/68 155/147/106
f 153/145/82 155/147/106 156/148/107
f 154/146/68 157/149/70 155/147/106
f 155/147/106 157/149/70 158/150/108
f 158/150/108 159/151/83 155/147/106
f 160/152/89 159/151/83 158/150/108
f 161/68/109 162/69/110 163/70/111
f 161/68/109 164/71/54 162/69/110
f 163/70/111 162/69/110 165/72/112
f 166/73/56 164/71/54 161/68/109
f 164/71/54 167/74/57 162/69/110
f 162/69/110 168/75/113 165/72/112
f 162/69/110 167/74/57 168/75/113
f 165/72/112 168/75/113 169/76/114
f 166/73/56 170/77/60 164/71/54
f 167/74/57 164/71/54 171/78/61
f 171/78/61 164/71/54 170/77/60
f 172/79/56 170/77/60 166/73/56
f 170/77/60 173/80/62 171/78/61
f 172/79/56 174/81/115 170/77/60
f 174/81/115 173/80/62 170/77/60
f 175/82/56 174/81/115 172/79/56
f 174/81/115 176/83/64 173/80/62
f 175/82/56 177/84/65 174/81/115
f 177/84/65 176/83/64 174/81/115
f 178/85/56 177/84/65 175/82/56
f 176/83/64 177/84/65 179/86/116
f 178/85/56 180/87/117 177/84/65
f 179/86/116 177/84/65 180/87/117
f 181/88/56 180/87/117 178/85/56
f 180/87/117 182/89/68 179/86/116
f 181/88/56 183/90/118 180/87/117
f 183/90/118 182/89/68 180/87/117
f 184/91/56 183/90/118 181/88/56
f 183/90/118 185/92/70 182/89/68
f 184/91/56 186/93/71 183/90/118
f 186/93/71 185/92/70 183/90/118
f 187/94/72 186/93/71 184/91/56
f 188/95/119 189/96/120 190/97/121
f 188/95/119 191/98/122 189/96/120
f 192/99/123 191/98/122 188/95/119
f 190/97/121 189/96/120 193/100/124
f 189/96/120 194/101/78 193/100/124
f 193/100/124 194/101/78 195/102/75
f 194/101/78 196/103/125 195/102/75
f 195/102/75 196/103/125 197/104/75
f 196/103/125 198/105/80 197/104/75
f 197/104/75 198/105/80 199/106/75
f 198/105/80 200/107/81 199/106/75
f 199/106/75 200/107/81 201/108/75
f 201/108/75 200/107/81 202/109/75
f 202/109/75 200/107/81 203/110/126
f 203/110/126 204/111/83 202/109/75
f 202/109/75 204/111/83 205/112/75
f 204/111/83 206/113/84 205/112/75
f 205/112/75 206/113/84 207/114/85
f 208/115/86 209/116/87 210/117/88
f 208/115/86 211/118/89 209/116/87
f 212/119/85 211/118/89 208/115/86
f 210/117/88 209/116/87 213/120/70
f 214/121/127 210/117/88 213/120/70
f 215/122/90 210/117/88 214/121/127
f 216/123/128 217/124/129 218/125/130
f 218/125/130 217/124/129 219/126/131
f 217/124/129 220/127/57 219/126/131
f 219/126/131 220/127/57 221/128/94
f 219/126/131 221/128/94 222/129/132
f 220/127/57 223/130/133 221/128/94
f 222/129/132 221/128/94 224/131/78
f 221/128/94 223/130/133 225/132/134
f 221/128/94 225/132/134 226/133/135
f 223/130/133 227/134/97 225/132/134
f 226/133/135 225/132/134 228/135/79
f 225/132/134 227/134/97 229/136/98
f 225/132/134 229/136/98 230/137/99
f 227/134/97 231/138/100 229/136/98
f 230/137/99 229/136/98 232/139/136
f 229/136/98 231/138/100 233/140/102
f 233/140/102 234/141/101 229/136/98
f 231/138/100 235/142/116 233/140/102
f 236/143/137 234/141/101 233/140/102
f 233/140/102 235/142/116 237/144/105
f 236/143/137 233/140/102 238/145/82
f 238/145/82 233/140/102 237/144/105
f 235/142/116 239/146/68 237/144/105
f 237/144/105 240/147/106 238/145/82
f 237/144/105 239/146/68 240/147/106
f 238/145/82 240/147/106 241/148/83
f 239/146/68 242/149/70 240/147/106
f 240/147/106 242/149/70 243/150/108
f 243/150/108 244/151/83 240/147/106
f 245/152/84 244/151/83 243/150/108
f 246/7/138 247/9/139 248/153/140
f 248/153/140 247/9/139 249/154/139
f 250/155/141 251/39/142 246/7/138
f 246/7/138 251/39/142 252/12/143
f 246/7/138 252/12/143 253/8/144
f 253/8/144 252/12/143 254/11/144
f 255/156/145 256/29/146 257/157/147
f 255/156/145 258/31/148 256/29/146
f 257/157/147 256/29/146 259/33/149
f 260/158/45 258/31/148 255/156/145
f 261/30/150 262/27/151 263/159/152
f 264/160/153 261/30/150 263/159/152
f 263/159/152 262/27/151 265/161/10
f 266/34/154 261/30/150 264/160/153
f 267/5/155 268/38/156 269/3/157
f 270/2/158 267/5/155 269/3/157
f 271/6/158 267/5/155 270/2/158
f 269/3/157 268/38/156 272/162/159
f 269/3/160 273/163/161 274/1/162
f 274/1/162 273/163/161 275/164/163
f 276/36/164 277/4/165 278/165/166
f 278/165/166 277/4/165 279/166/166
f 280/167/167 281/10/168 282/165/169
f 282/165/169 281/10/168 283/36/167
