# Blender 3.2.0
# www.blender.org
mtllib Shootingallery.mtl
o GUI_ShootingGallery_GUI_Map_ShootingGallery
v 0.051459 0.006575 0.013514
v 0.050435 0.006664 0.013025
v 0.051002 0.006664 0.013834
v 0.050892 0.006575 0.012705
v 0.051871 0.006319 0.013226
v 0.051304 0.006319 0.012416
v 0.052198 0.005920 0.012997
v 0.051631 0.005920 0.012187
v 0.052408 0.005417 0.012850
v 0.051841 0.005417 0.012040
v 0.052480 0.004859 0.012799
v 0.051913 0.004859 0.011990
v 0.050435 0.006664 0.013025
v 0.049978 0.006575 0.013345
v 0.051002 0.006664 0.013834
v 0.050545 0.006575 0.014154
v 0.049566 0.006319 0.013633
v 0.050133 0.006319 0.014442
v 0.049240 0.005920 0.013862
v 0.049806 0.005920 0.014671
v 0.049030 0.005417 0.014009
v 0.049596 0.005417 0.014818
v 0.048957 0.004859 0.014060
v 0.049524 0.004859 0.014869
v 0.048957 0.004859 0.014060
v 0.049030 0.004302 0.014009
v 0.049524 0.004859 0.014869
v 0.049596 0.004302 0.014818
v 0.049240 0.003799 0.013862
v 0.049806 0.003799 0.014671
v 0.049566 0.003400 0.013633
v 0.050133 0.003400 0.014442
v 0.049978 0.003143 0.013345
v 0.050545 0.003143 0.014154
v 0.050435 0.003055 0.013025
v 0.051002 0.003055 0.013834
v 0.050435 0.003055 0.013025
v 0.050892 0.003143 0.012705
v 0.051002 0.003055 0.013834
v 0.051459 0.003143 0.013514
v 0.051304 0.003400 0.012416
v 0.051871 0.003400 0.013226
v 0.051631 0.003799 0.012187
v 0.052198 0.003799 0.012997
v 0.051841 0.004302 0.012040
v 0.052408 0.004302 0.012850
v 0.051913 0.004859 0.011990
v 0.052480 0.004859 0.012799
v 0.050434 0.003989 0.013023
v 0.051147 0.004859 0.012524
v 0.049721 0.004859 0.013522
v 0.050434 0.005729 0.013023
v 0.048635 0.006185 0.014283
v 0.049348 0.007055 0.013783
v 0.047973 0.006185 0.013338
v 0.048686 0.007055 0.012839
v 0.049772 0.003989 0.012078
v 0.049772 0.005729 0.012078
v 0.050485 0.004859 0.011579
v 0.049060 0.004859 0.012577
v 0.048686 0.007055 0.012839
v 0.047973 0.006185 0.013338
v 0.050858 0.002663 0.011318
v 0.051571 0.003533 0.010818
v 0.051520 0.002663 0.012262
v 0.052233 0.003533 0.011763
v 0.052233 0.006185 0.011763
v 0.051571 0.006185 0.010818
v 0.051520 0.007055 0.012262
v 0.050858 0.007055 0.011318
v 0.048686 0.002663 0.012839
v 0.049348 0.002663 0.013783
v 0.047973 0.003533 0.013338
v 0.048635 0.003533 0.014283
v 0.049721 0.004859 0.013522
v 0.050434 0.005729 0.013023
v 0.048635 0.006185 0.014283
v 0.049348 0.007055 0.013783
v 0.050434 0.005729 0.013023
v 0.049772 0.005729 0.012078
v 0.049348 0.007055 0.013783
v 0.048686 0.007055 0.012839
v 0.049060 0.004859 0.012577
v 0.049721 0.004859 0.013522
v 0.047973 0.006185 0.013338
v 0.048635 0.006185 0.014283
v 0.049772 0.003989 0.012078
v 0.050485 0.004859 0.011579
v 0.050858 0.002663 0.011318
v 0.051571 0.003533 0.010818
v 0.050485 0.004859 0.011579
v 0.051147 0.004859 0.012524
v 0.051571 0.003533 0.010818
v 0.052233 0.003533 0.011763
v 0.051147 0.004859 0.012524
v 0.050434 0.003989 0.013023
v 0.052233 0.003533 0.011763
v 0.051520 0.002663 0.012262
v 0.050434 0.003989 0.013023
v 0.049772 0.003989 0.012078
v 0.051520 0.002663 0.012262
v 0.050858 0.002663 0.011318
v 0.051147 0.004859 0.012524
v 0.050485 0.004859 0.011579
v 0.052233 0.006185 0.011763
v 0.051571 0.006185 0.010818
v 0.050485 0.004859 0.011579
v 0.049772 0.005729 0.012078
v 0.051571 0.006185 0.010818
v 0.050858 0.007055 0.011318
v 0.049772 0.005729 0.012078
v 0.050434 0.005729 0.013023
v 0.050858 0.007055 0.011318
v 0.051520 0.007055 0.012262
v 0.050434 0.005729 0.013023
v 0.051147 0.004859 0.012524
v 0.051520 0.007055 0.012262
v 0.052233 0.006185 0.011763
v 0.049772 0.003989 0.012078
v 0.050434 0.003989 0.013023
v 0.048686 0.002663 0.012839
v 0.049348 0.002663 0.013783
v 0.050434 0.003989 0.013023
v 0.049721 0.004859 0.013522
v 0.049348 0.002663 0.013783
v 0.048635 0.003533 0.014283
v 0.049721 0.004859 0.013522
v 0.049060 0.004859 0.012577
v 0.048635 0.003533 0.014283
v 0.047973 0.003533 0.013338
v 0.049060 0.004859 0.012577
v 0.049772 0.003989 0.012078
v 0.047973 0.003533 0.013338
v 0.048686 0.002663 0.012839
v 0.051631 0.005920 0.012187
v 0.051841 0.005417 0.012040
v 0.050435 0.004859 0.013025
v 0.051304 0.006319 0.012416
v 0.051913 0.004859 0.011990
v 0.050892 0.006575 0.012705
v 0.051841 0.004302 0.012040
v 0.050435 0.006664 0.013025
v 0.051631 0.003799 0.012187
v 0.049978 0.006575 0.013345
v 0.051304 0.003400 0.012416
v 0.049566 0.006319 0.013633
v 0.050892 0.003143 0.012705
v 0.049240 0.005920 0.013862
v 0.050435 0.003055 0.013025
v 0.049030 0.005417 0.014009
v 0.049978 0.003143 0.013345
v 0.048957 0.004859 0.014060
v 0.049566 0.003400 0.013633
v 0.049030 0.004302 0.014009
v 0.049240 0.003799 0.013862
v 0.052408 0.005417 0.012850
v 0.052198 0.005920 0.012997
v 0.051002 0.004859 0.013834
v 0.052480 0.004859 0.012799
v 0.051871 0.006319 0.013226
v 0.052408 0.004302 0.012850
v 0.051459 0.006575 0.013514
v 0.052198 0.003799 0.012997
v 0.051002 0.006664 0.013834
v 0.051871 0.003400 0.013226
v 0.050545 0.006575 0.014154
v 0.051459 0.003143 0.013514
v 0.050133 0.006319 0.014442
v 0.051002 0.003055 0.013834
v 0.049806 0.005920 0.014671
v 0.050545 0.003143 0.014154
v 0.049596 0.005417 0.014818
v 0.050133 0.003400 0.014442
v 0.049524 0.004859 0.014869
v 0.049806 0.003799 0.014671
v 0.049596 0.004302 0.014818
v 0.049962 -0.000000 0.010807
v 0.049391 -0.000000 0.010982
v 0.049974 0.000269 0.010892
v 0.050544 0.000269 0.010902
v 0.050558 -0.000000 0.010818
v 0.051083 0.000269 0.011087
v 0.051123 -0.000000 0.011012
v 0.051538 0.000269 0.011430
v 0.051599 -0.000000 0.011371
v 0.051865 0.000269 0.011897
v 0.051942 -0.000000 0.011860
v 0.052032 0.000269 0.012442
v 0.052116 -0.000000 0.012431
v 0.052022 0.000269 0.013012
v 0.052106 -0.000000 0.013027
v 0.051836 0.000269 0.013552
v 0.051911 -0.000000 0.013592
v 0.051493 0.000269 0.014007
v 0.051552 -0.000000 0.014068
v 0.051026 0.000269 0.014334
v 0.051063 -0.000000 0.014411
v 0.050481 0.000269 0.014500
v 0.050493 -0.000000 0.014585
v 0.049911 0.000269 0.014491
v 0.049896 -0.000000 0.014575
v 0.049372 0.000269 0.014305
v 0.049332 -0.000000 0.014380
v 0.048917 0.000269 0.013962
v 0.048855 -0.000000 0.014021
v 0.048590 0.000269 0.013495
v 0.048513 -0.000000 0.013532
v 0.048423 0.000269 0.012950
v 0.048338 -0.000000 0.012962
v 0.048433 0.000269 0.012380
v 0.048349 -0.000000 0.012365
v 0.048618 0.000269 0.011841
v 0.048543 -0.000000 0.011801
v 0.048961 0.000269 0.011385
v 0.048902 -0.000000 0.011324
v 0.049428 0.000269 0.011058
v 0.050105 0.000506 0.011825
v 0.049842 0.000506 0.011906
v 0.049617 0.000506 0.012064
v 0.049451 0.000506 0.012283
v 0.049361 0.000506 0.012543
v 0.049357 0.000506 0.012818
v 0.049437 0.000506 0.013081
v 0.049595 0.000506 0.013307
v 0.049814 0.000506 0.013472
v 0.050075 0.000506 0.013562
v 0.050350 0.000506 0.013567
v 0.050613 0.000506 0.013486
v 0.050838 0.000506 0.013329
v 0.051004 0.000506 0.013109
v 0.051093 0.000506 0.012849
v 0.051098 0.000506 0.012574
v 0.051017 0.000506 0.012311
v 0.050860 0.000506 0.012085
v 0.050640 0.000506 0.011920
v 0.050380 0.000506 0.011830
v 0.050904 0.000838 0.012601
v 0.050842 0.000838 0.012396
v 0.050904 0.004062 0.012601
v 0.050842 0.004062 0.012396
v 0.050901 0.004062 0.012815
v 0.050901 0.000838 0.012815
v 0.050831 0.004062 0.013017
v 0.050831 0.000838 0.013017
v 0.050702 0.004062 0.013188
v 0.050702 0.000838 0.013188
v 0.050527 0.004062 0.013311
v 0.050527 0.000838 0.013311
v 0.050322 0.004062 0.013373
v 0.050322 0.000838 0.013373
v 0.050109 0.004062 0.013369
v 0.050109 0.000838 0.013369
v 0.049906 0.004062 0.013300
v 0.049906 0.000838 0.013300
v 0.049735 0.004062 0.013171
v 0.049735 0.000838 0.013171
v 0.049613 0.004062 0.012996
v 0.049613 0.000838 0.012996
v 0.049550 0.004062 0.012791
v 0.049550 0.000838 0.012791
v 0.049554 0.004062 0.012577
v 0.049554 0.000838 0.012577
v 0.049624 0.004062 0.012375
v 0.049624 0.000838 0.012375
v 0.049752 0.004062 0.012204
v 0.049752 0.000838 0.012204
v 0.049928 0.004062 0.012082
v 0.049928 0.000838 0.012082
v 0.050132 0.004062 0.012019
v 0.050132 0.000838 0.012019
v 0.050346 0.004062 0.012023
v 0.050346 0.000838 0.012023
v 0.050548 0.004062 0.012092
v 0.050548 0.000838 0.012092
v 0.050719 0.004062 0.012221
v 0.050719 0.000838 0.012221
v 0.050860 0.000506 0.012085
v 0.050640 0.000506 0.011920
v 0.050380 0.000506 0.011830
v 0.050105 0.000506 0.011825
v 0.049842 0.000506 0.011906
v 0.049617 0.000506 0.012064
v 0.049451 0.000506 0.012283
v 0.049361 0.000506 0.012543
v 0.049357 0.000506 0.012818
v 0.049437 0.000506 0.013081
v 0.049595 0.000506 0.013307
v 0.049814 0.000506 0.013472
v 0.050075 0.000506 0.013562
v 0.050350 0.000506 0.013567
v 0.050613 0.000506 0.013486
v 0.050838 0.000506 0.013329
v 0.051004 0.000506 0.013109
v 0.051093 0.000506 0.012849
v 0.051098 0.000506 0.012574
v 0.051017 0.000506 0.012311
vn 0.2117 0.9660 -0.1482
vn 0.1281 0.9877 -0.0897
vn 0.2939 0.9334 -0.2058
vn 0.4459 0.8389 -0.3122
vn 0.5158 0.7769 -0.3611
vn 0.6364 0.6296 -0.4456
vn 0.6872 0.5443 -0.4812
vn 0.7646 0.3587 -0.5354
vn 0.7913 0.2584 -0.5541
vn 0.8091 0.1564 -0.5665
vn 0.8091 0.1565 -0.5665
vn -0.1281 0.9877 0.0897
vn -0.2117 0.9660 0.1482
vn -0.2939 0.9334 0.2058
vn -0.4459 0.8389 0.3122
vn -0.5158 0.7769 0.3611
vn -0.6364 0.6296 0.4456
vn -0.6872 0.5443 0.4812
vn -0.7646 0.3587 0.5354
vn -0.7913 0.2584 0.5541
vn -0.8091 0.1564 0.5665
vn -0.8091 -0.1564 0.5665
vn -0.7913 -0.2584 0.5541
vn -0.7646 -0.3587 0.5354
vn -0.6872 -0.5443 0.4812
vn -0.6364 -0.6296 0.4456
vn -0.5158 -0.7769 0.3611
vn -0.4459 -0.8389 0.3122
vn -0.2939 -0.9334 0.2058
vn -0.2117 -0.9660 0.1482
vn -0.1281 -0.9877 0.0897
vn 0.1281 -0.9877 -0.0897
vn 0.2117 -0.9660 -0.1482
vn 0.2939 -0.9334 -0.2058
vn 0.4459 -0.8389 -0.3122
vn 0.5158 -0.7769 -0.3611
vn 0.6364 -0.6296 -0.4456
vn 0.6872 -0.5443 -0.4812
vn 0.7646 -0.3587 -0.5354
vn 0.7913 -0.2584 -0.5541
vn 0.8091 -0.1564 -0.5665
vn 0.5736 -0.0000 0.8192
vn -0.5792 0.7071 0.4056
vn -0.5736 -0.0000 -0.8192
vn 0.5792 -0.7071 -0.4056
vn 0.5792 0.7071 -0.4056
vn -0.5792 -0.7071 0.4056
vn -0.0827 0.3022 -0.9496
vn -0.3721 0.3022 -0.8776
vn -0.1161 0.7301 -0.6734
vn 0.0977 0.7301 -0.6763
vn 0.2148 0.3022 -0.9287
vn 0.3019 0.7301 -0.6130
vn 0.4912 0.3022 -0.8169
vn 0.4766 0.7301 -0.4897
vn 0.7196 0.3022 -0.6251
vn 0.6046 0.7301 -0.3185
vn 0.8776 0.3022 -0.3721
vn 0.6734 0.7301 -0.1161
vn 0.9496 0.3022 -0.0827
vn 0.6763 0.7301 0.0977
vn 0.9287 0.3022 0.2148
vn 0.6130 0.7301 0.3019
vn 0.8169 0.3022 0.4912
vn 0.4897 0.7301 0.4766
vn 0.6251 0.3022 0.7196
vn 0.3185 0.7301 0.6046
vn 0.3721 0.3022 0.8776
vn 0.1161 0.7301 0.6734
vn 0.0827 0.3022 0.9496
vn -0.0977 0.7301 0.6763
vn -0.2148 0.3022 0.9287
vn -0.3019 0.7301 0.6130
vn -0.4912 0.3022 0.8169
vn -0.4766 0.7301 0.4897
vn -0.7196 0.3022 0.6251
vn -0.6046 0.7301 0.3185
vn -0.8776 0.3022 0.3721
vn -0.6734 0.7301 0.1161
vn -0.9496 0.3022 0.0827
vn -0.6763 0.7301 -0.0977
vn -0.9287 0.3022 -0.2148
vn -0.6130 0.7301 -0.3019
vn -0.8169 0.3022 -0.4913
vn -0.4897 0.7301 -0.4766
vn -0.6251 0.3022 -0.7196
vn -0.3185 0.7301 -0.6046
vn -0.0468 0.9696 -0.2400
vn -0.1186 0.9696 -0.2138
vn -0.1789 0.9696 -0.1667
vn -0.2216 0.9696 -0.1032
vn -0.2427 0.9696 -0.0297
vn -0.2400 0.9696 0.0468
vn -0.2138 0.9696 0.1186
vn -0.1667 0.9696 0.1789
vn -0.1032 0.9696 0.2216
vn -0.0297 0.9696 0.2427
vn 0.0468 0.9696 0.2400
vn 0.1186 0.9696 0.2138
vn 0.1789 0.9696 0.1667
vn 0.2216 0.9696 0.1032
vn 0.2427 0.9696 0.0297
vn 0.2400 0.9696 -0.0468
vn 0.2138 0.9696 -0.1186
vn 0.1667 0.9696 -0.1789
vn 0.1032 0.9696 -0.2216
vn 0.0297 0.9696 -0.2427
vn 0.9557 0.2637 -0.1306
vn 0.8686 0.2637 -0.4195
vn 0.9816 -0.0000 -0.1912
vn 0.8744 -0.0000 -0.4851
vn 0.9926 -0.0000 0.1215
vn 0.9493 0.2637 0.1712
vn 0.9065 -0.0000 0.4223
vn 0.8499 0.2637 0.4561
vn 0.7316 -0.0000 0.6817
vn 0.6674 0.2637 0.6964
vn 0.4851 -0.0000 0.8744
vn 0.4195 0.2637 0.8686
vn 0.1912 -0.0000 0.9816
vn 0.1306 0.2637 0.9557
vn -0.1215 -0.0000 0.9926
vn -0.1711 0.2637 0.9493
vn -0.4223 -0.0000 0.9065
vn -0.4561 0.2637 0.8499
vn -0.6817 -0.0000 0.7316
vn -0.6964 0.2637 0.6674
vn -0.8744 -0.0000 0.4851
vn -0.8686 0.2637 0.4195
vn -0.9816 -0.0000 0.1912
vn -0.9557 0.2637 0.1306
vn -0.9926 -0.0000 -0.1215
vn -0.9493 0.2637 -0.1712
vn -0.9065 -0.0000 -0.4223
vn -0.8500 0.2637 -0.4561
vn -0.7316 -0.0000 -0.6817
vn -0.6674 0.2637 -0.6965
vn -0.4851 -0.0000 -0.8744
vn -0.4195 0.2637 -0.8686
vn -0.1912 -0.0000 -0.9816
vn -0.1306 0.2637 -0.9557
vn 0.1215 -0.0000 -0.9926
vn 0.1712 0.2637 -0.9493
vn 0.4223 -0.0000 -0.9065
vn 0.4561 0.2637 -0.8499
vn 0.6817 -0.0000 -0.7316
vn 0.6964 0.2637 -0.6674
vn 0.6505 0.5074 -0.5651
vn 0.4441 0.5074 -0.7384
vn 0.1942 0.5074 -0.8395
vn -0.0748 0.5074 -0.8584
vn -0.3364 0.5074 -0.7933
vn -0.5651 0.5074 -0.6505
vn -0.7384 0.5074 -0.4441
vn -0.8395 0.5074 -0.1942
vn -0.8584 0.5074 0.0748
vn -0.7933 0.5074 0.3364
vn -0.6505 0.5074 0.5651
vn -0.4441 0.5074 0.7384
vn -0.1941 0.5074 0.8395
vn 0.0748 0.5074 0.8584
vn 0.3364 0.5074 0.7933
vn 0.5651 0.5074 0.6505
vn 0.7384 0.5074 0.4441
vn 0.8395 0.5074 0.1942
vn 0.8584 0.5074 -0.0748
vn 0.7933 0.5074 -0.3364
vt 0.109345 0.541121
vt 0.095344 0.533109
vt 0.109345 0.533109
vt 0.095344 0.541121
vt 0.109345 0.549134
vt 0.171530 0.547370
vt 0.095344 0.549134
vt 0.162563 0.547370
vt 0.171530 0.552484
vt 0.162563 0.552484
vt 0.171530 0.557598
vt 0.162563 0.557598
vt 0.171530 0.562729
vt 0.162563 0.562729
vt 0.157209 0.567173
vt 0.157209 0.554084
vt 0.180160 0.567173
vt 0.180160 0.554084
vt 0.157209 0.540949
vt 0.180160 0.540949
vt 0.157209 0.527860
vt 0.095344 0.549023
vt 0.180160 0.527860
vt 0.109345 0.549023
vt 0.095344 0.541011
vt 0.109345 0.541011
vt 0.095344 0.532998
vt 0.109345 0.532998
vt 0.157209 0.566765
vt 0.157209 0.553631
vt 0.180160 0.566765
vt 0.180160 0.553631
vt 0.176360 0.534920
vt 0.157209 0.540542
vt 0.162359 0.526936
vt 0.162385 0.564123
vt 0.176360 0.526936
vt 0.185336 0.564123
vt 0.178434 0.553770
vt 0.162385 0.550989
vt 0.155483 0.540636
vt 0.109924 0.495605
vt 0.178434 0.540636
vt 0.233643 0.495605
vt 0.109924 0.424805
vt 0.233643 0.424805
vt 0.109924 0.354492
vt 0.233643 0.354492
vt 0.109924 0.713379
vt 0.109924 0.642578
vt 0.233643 0.713379
vt 0.233643 0.642578
vt 0.109924 0.571777
vt 0.233643 0.571777
vt 0.191338 0.621833
vt 0.109924 0.501221
vt 0.112103 0.576645
vt 0.162563 0.547529
vt 0.163994 0.580551
vt 0.171530 0.547529
vt 0.109345 0.549382
vt 0.162563 0.542416
vt 0.095344 0.541397
vt 0.109345 0.541397
vt 0.095344 0.533385
vt 0.109345 0.533385
vt 0.219360 0.756714
vt 0.429199 0.756714
vt 0.219360 0.966583
vt 0.429199 0.966583
vt 0.532227 0.967407
vt 0.532227 0.757446
vt 0.729004 0.967407
vt 0.729004 0.757446
vt 0.736816 0.968796
vt 0.526855 0.758911
vt 0.736816 0.758911
vt 0.526855 0.968796
vt 0.206909 0.758911
vt 0.206909 0.968796
vt 0.727051 0.758667
vt 0.727051 0.968567
vt 0.530273 0.758667
vt 0.530273 0.968567
vt 0.533203 0.756714
vt 0.730469 0.756714
vt 0.533203 0.966583
vt 0.730469 0.966583
vt 0.729492 0.966583
vt 0.532715 0.966583
vt 0.729492 0.756714
vt 0.532715 0.756714
vt 0.212402 0.967407
vt 0.212402 0.757446
vt 0.532227 0.967407
vt 0.532227 0.757446
vt 0.217529 0.963440
vt 0.217529 0.766724
vt 0.537109 0.963440
vt 0.537109 0.766724
vt 0.217529 0.967072
vt 0.217529 0.770264
vt 0.537109 0.967072
vt 0.537109 0.770264
vt 0.533203 0.758911
vt 0.533203 0.968796
vt 0.213623 0.758911
vt 0.213623 0.968796
vt 0.209473 0.964722
vt 0.209473 0.767944
vt 0.529297 0.964722
vt 0.529297 0.767944
vt 0.210449 0.968567
vt 0.210449 0.758667
vt 0.530273 0.968567
vt 0.530273 0.758667
vt 0.209473 0.964722
vt 0.209473 0.767944
vt 0.529297 0.964722
vt 0.529297 0.767944
vt 0.209473 0.964722
vt 0.209473 0.767944
vt 0.529297 0.964722
vt 0.529297 0.767944
vt 0.210693 0.967529
vt 0.210693 0.757568
vt 0.530762 0.967529
vt 0.530273 0.757568
vt 0.209473 0.964722
vt 0.209473 0.767944
vt 0.529297 0.964722
vt 0.529297 0.767944
vt 0.213623 0.966583
vt 0.213623 0.756714
vt 0.533203 0.966583
vt 0.533203 0.756714
vt 0.209473 0.964722
vt 0.209473 0.767944
vt 0.529297 0.964722
vt 0.529297 0.767944
vt 0.212891 0.966583
vt 0.212891 0.756714
vt 0.532715 0.966583
vt 0.532715 0.756714
vt 0.209473 0.964722
vt 0.209473 0.767944
vt 0.529297 0.964722
vt 0.529297 0.767944
vt 0.214355 0.971176
vt 0.214355 0.761230
vt 0.534180 0.971176
vt 0.534180 0.761230
vt 0.333984 0.582031
vt 0.283691 0.482910
vt 0.629028 0.375000
vt 0.412842 0.661133
vt 0.266357 0.372559
vt 0.511719 0.711914
vt 0.283936 0.262695
vt 0.622070 0.729492
vt 0.334717 0.163574
vt 0.731934 0.712158
vt 0.413818 0.084473
vt 0.831543 0.661865
vt 0.513184 0.034180
vt 0.910645 0.583008
vt 0.623047 0.017090
vt 0.967896 0.485352
vt 0.733398 0.034668
vt 0.979004 0.374023
vt 0.832520 0.085449
vt 0.961426 0.263672
vt 0.911133 0.164551
vt 0.974991 0.486327
vt 0.974731 0.480591
vt 0.923234 0.589588
vt 0.629879 0.372468
vt 0.635376 0.371704
vt 0.978516 0.371582
vt 0.841538 0.671791
vt 0.960449 0.261719
vt 0.738530 0.724818
vt 0.909668 0.162598
vt 0.623852 0.743592
vt 0.830566 0.083984
vt 0.509681 0.725832
vt 0.730957 0.033691
vt 0.406165 0.673821
vt 0.620605 0.017090
vt 0.323962 0.592125
vt 0.510742 0.034668
vt 0.278486 0.488668
vt 0.283936 0.484863
vt 0.411865 0.085938
vt 0.266113 0.374512
vt 0.333252 0.165039
vt 0.283203 0.264648
vt 0.181396 0.014160
vt 0.217773 0.031738
vt 0.175903 0.031250
vt 0.141357 0.025879
vt 0.141357 0.007812
vt 0.106934 0.031738
vt 0.101379 0.014160
vt 0.075745 0.047363
vt 0.065247 0.032715
vt 0.050903 0.071777
vt 0.036407 0.061035
vt 0.034760 0.102539
vt 0.017624 0.096680
vt 0.028900 0.137207
vt 0.010948 0.137207
vt 0.034607 0.171387
vt 0.017426 0.177246
vt 0.050690 0.202637
vt 0.036072 0.213379
vt 0.075500 0.227539
vt 0.064880 0.242188
vt 0.106750 0.243164
vt 0.101196 0.260742
vt 0.141357 0.249023
vt 0.141357 0.267090
vt 0.176147 0.243652
vt 0.181519 0.260742
vt 0.207642 0.228027
vt 0.218140 0.242676
vt 0.232910 0.203125
vt 0.247559 0.214355
vt 0.249390 0.171875
vt 0.266846 0.177734
vt 0.255371 0.137207
vt 0.273682 0.137207
vt 0.249268 0.102051
vt 0.266602 0.096191
vt 0.232666 0.071289
vt 0.247192 0.060059
vt 0.207397 0.046875
vt 0.155396 0.096191
vt 0.167969 0.102051
vt 0.177979 0.111816
vt 0.184448 0.123535
vt 0.186646 0.137207
vt 0.184326 0.150391
vt 0.177856 0.162598
vt 0.167847 0.172363
vt 0.155273 0.178711
vt 0.141357 0.180664
vt 0.127686 0.178711
vt 0.115295 0.172363
vt 0.105408 0.162598
vt 0.098999 0.150391
vt 0.096802 0.137207
vt 0.098999 0.123535
vt 0.105347 0.111816
vt 0.115173 0.102051
vt 0.127563 0.096191
vt 0.141357 0.094238
vt 0.148804 0.051270
vt 0.161377 0.051270
vt 0.148804 0.226074
vt 0.161377 0.226074
vt 0.136108 0.226074
vt 0.136108 0.051270
vt 0.123474 0.226074
vt 0.123474 0.051270
vt 0.110840 0.226074
vt 0.110840 0.051270
vt 0.098206 0.226074
vt 0.098206 0.051270
vt 0.085571 0.226074
vt 0.085571 0.051270
vt 0.072327 0.226074
vt 0.072327 0.051270
vt 0.085571 0.226074
vt 0.085571 0.051270
vt 0.098206 0.226074
vt 0.098206 0.051270
vt 0.110840 0.226074
vt 0.110840 0.051270
vt 0.123474 0.226074
vt 0.123474 0.051270
vt 0.136108 0.226074
vt 0.136108 0.051270
vt 0.148804 0.226074
vt 0.148804 0.051270
vt 0.161377 0.226074
vt 0.161377 0.051270
vt 0.174072 0.226074
vt 0.174072 0.051270
vt 0.186646 0.226074
vt 0.186646 0.051270
vt 0.199341 0.226074
vt 0.199341 0.051270
vt 0.186646 0.226074
vt 0.186646 0.051270
vt 0.174072 0.226074
vt 0.174072 0.051270
vt 0.175415 0.031250
vt 0.189087 0.031250
vt 0.203247 0.031250
vt 0.189087 0.031250
vt 0.175415 0.031250
vt 0.162476 0.031250
vt 0.149902 0.031250
vt 0.137207 0.031250
vt 0.124390 0.031250
vt 0.111511 0.031250
vt 0.098328 0.031250
vt 0.084656 0.031250
vt 0.069641 0.031250
vt 0.084656 0.031250
vt 0.098328 0.031250
vt 0.111511 0.031250
vt 0.124390 0.031250
vt 0.137207 0.031250
vt 0.149902 0.031250
vt 0.162476 0.031250
s 1
usemtl Material.003
f 1/1/1 2/2/2 3/3/2
f 2/2/2 1/1/1 4/4/3
f 4/4/3 1/1/1 5/5/4
f 4/4/3 5/5/4 6/7/5
f 6/8/5 5/6/4 7/9/6
f 6/8/5 7/9/6 8/10/7
f 8/10/7 7/9/6 9/11/8
f 8/10/7 9/11/8 10/12/9
f 10/12/9 9/11/8 11/13/10
f 10/12/9 11/13/10 12/14/11
f 13/15/12 14/16/13 15/17/12
f 15/17/12 14/16/13 16/18/14
f 14/16/13 17/19/15 16/18/14
f 16/18/14 17/19/15 18/20/16
f 17/19/15 19/21/17 18/20/16
f 18/20/16 19/21/17 20/23/18
f 19/22/17 21/25/19 20/24/18
f 20/24/18 21/25/19 22/26/20
f 21/25/19 23/27/21 22/26/20
f 22/26/20 23/27/21 24/28/21
f 25/29/22 26/30/23 27/31/22
f 27/31/22 26/30/23 28/32/24
f 26/30/23 29/34/25 28/32/24
f 28/33/24 29/35/25 30/37/26
f 29/36/25 31/40/27 30/38/26
f 30/39/26 31/41/27 32/43/28
f 31/42/27 33/45/29 32/44/28
f 32/44/28 33/45/29 34/46/30
f 33/45/29 35/47/31 34/46/30
f 34/46/30 35/47/31 36/48/31
f 37/49/32 38/50/33 39/51/32
f 39/51/32 38/50/33 40/52/34
f 38/50/33 41/53/35 40/52/34
f 40/52/34 41/53/35 42/54/36
f 41/53/35 43/56/37 42/54/36
f 42/55/36 43/57/37 44/59/38
f 43/58/37 45/62/39 44/60/38
f 44/61/38 45/63/39 46/64/40
f 45/63/39 47/65/41 46/64/40
f 46/64/40 47/65/41 48/66/41
f 49/67/42 50/68/42 51/69/42
f 51/69/42 50/68/42 52/70/42
f 53/71/43 54/72/43 55/73/43
f 55/73/43 54/72/43 56/74/43
f 57/75/44 58/76/44 59/77/44
f 58/76/44 57/75/44 60/78/44
f 58/76/44 60/78/44 61/79/44
f 61/79/44 60/78/44 62/80/44
f 63/81/45 64/82/45 65/83/45
f 65/83/45 64/82/45 66/84/45
f 67/85/46 68/86/46 69/87/46
f 69/87/46 68/86/46 70/88/46
f 71/89/47 72/90/47 73/91/47
f 73/91/47 72/90/47 74/92/47
f 75/93/42 76/94/42 77/95/42
f 77/95/42 76/94/42 78/96/42
f 79/97/46 80/98/46 81/99/46
f 81/99/46 80/98/46 82/100/46
f 83/101/47 84/102/47 85/103/47
f 85/103/47 84/102/47 86/104/47
f 87/105/44 88/106/44 89/107/44
f 89/107/44 88/106/44 90/108/44
f 91/109/46 92/110/46 93/111/46
f 93/111/46 92/110/46 94/112/46
f 95/113/42 96/114/42 97/115/42
f 97/115/42 96/114/42 98/116/42
f 99/117/47 100/118/47 101/119/47
f 101/119/47 100/118/47 102/120/47
f 103/121/45 104/122/45 105/123/45
f 105/123/45 104/122/45 106/124/45
f 107/125/44 108/126/44 109/127/44
f 109/127/44 108/126/44 110/128/44
f 111/129/43 112/130/43 113/131/43
f 113/131/43 112/130/43 114/132/43
f 115/133/42 116/134/42 117/135/42
f 117/135/42 116/134/42 118/136/42
f 119/137/45 120/138/45 121/139/45
f 121/139/45 120/138/45 122/140/45
f 123/141/42 124/142/42 125/143/42
f 125/143/42 124/142/42 126/144/42
f 127/145/43 128/146/43 129/147/43
f 129/147/43 128/146/43 130/148/43
f 131/149/44 132/150/44 133/151/44
f 133/151/44 132/150/44 134/152/44
f 135/153/44 136/154/44 137/155/44
f 135/153/44 137/155/44 138/156/44
f 136/154/44 139/157/44 137/155/44
f 138/156/44 137/155/44 140/158/44
f 139/157/44 141/159/44 137/155/44
f 140/158/44 137/155/44 142/160/44
f 141/159/44 143/161/44 137/155/44
f 142/160/44 137/155/44 144/162/44
f 143/161/44 145/163/44 137/155/44
f 144/162/44 137/155/44 146/164/44
f 145/163/44 147/165/44 137/155/44
f 146/164/44 137/155/44 148/166/44
f 147/165/44 149/167/44 137/155/44
f 148/166/44 137/155/44 150/168/44
f 149/167/44 151/169/44 137/155/44
f 150/168/44 137/155/44 152/170/44
f 151/169/44 153/171/44 137/155/44
f 152/170/44 137/155/44 154/172/44
f 153/171/44 155/173/44 137/155/44
f 154/172/44 137/155/44 155/173/44
f 156/174/42 157/176/42 158/177/42
f 156/175/42 158/178/42 159/179/42
f 157/176/42 160/180/42 158/177/42
f 159/179/42 158/178/42 161/181/42
f 160/180/42 162/182/42 158/177/42
f 161/181/42 158/178/42 163/183/42
f 162/182/42 164/184/42 158/177/42
f 163/183/42 158/178/42 165/185/42
f 164/184/42 166/186/42 158/177/42
f 165/185/42 158/178/42 167/187/42
f 166/186/42 168/188/42 158/177/42
f 167/187/42 158/178/42 169/189/42
f 168/188/42 170/190/42 158/177/42
f 169/189/42 158/178/42 171/191/42
f 170/190/42 172/192/42 158/177/42
f 171/191/42 158/178/42 173/194/42
f 172/193/42 174/195/42 158/178/42
f 173/194/42 158/178/42 175/196/42
f 174/195/42 176/197/42 158/178/42
f 175/196/42 158/178/42 176/197/42
f 177/198/48 178/199/49 179/200/50
f 177/198/48 179/200/50 180/201/51
f 177/198/48 180/201/51 181/202/52
f 181/202/52 180/201/51 182/203/53
f 181/202/52 182/203/53 183/204/54
f 183/204/54 182/203/53 184/205/55
f 183/204/54 184/205/55 185/206/56
f 185/206/56 184/205/55 186/207/57
f 185/206/56 186/207/57 187/208/58
f 187/208/58 186/207/57 188/209/59
f 187/208/58 188/209/59 189/210/60
f 189/210/60 188/209/59 190/211/61
f 189/210/60 190/211/61 191/212/62
f 191/212/62 190/211/61 192/213/63
f 191/212/62 192/213/63 193/214/64
f 193/214/64 192/213/63 194/215/65
f 193/214/64 194/215/65 195/216/66
f 195/216/66 194/215/65 196/217/67
f 195/216/66 196/217/67 197/218/68
f 197/218/68 196/217/67 198/219/69
f 197/218/68 198/219/69 199/220/70
f 199/220/70 198/219/69 200/221/71
f 199/220/70 200/221/71 201/222/72
f 201/222/72 200/221/71 202/223/73
f 201/222/72 202/223/73 203/224/74
f 203/224/74 202/223/73 204/225/75
f 203/224/74 204/225/75 205/226/76
f 205/226/76 204/225/75 206/227/77
f 205/226/76 206/227/77 207/228/78
f 207/228/78 206/227/77 208/229/79
f 207/228/78 208/229/79 209/230/80
f 209/230/80 208/229/79 210/231/81
f 209/230/80 210/231/81 211/232/82
f 211/232/82 210/231/81 212/233/83
f 211/232/82 212/233/83 213/234/84
f 213/234/84 212/233/83 214/235/85
f 213/234/84 214/235/85 215/236/86
f 215/236/86 214/235/85 216/237/87
f 215/236/86 216/237/87 178/199/49
f 178/199/49 216/237/87 179/200/50
f 179/200/50 216/237/87 217/238/88
f 217/238/88 216/237/87 218/239/89
f 216/237/87 214/235/85 218/239/89
f 218/239/89 214/235/85 219/240/90
f 214/235/85 212/233/83 219/240/90
f 219/240/90 212/233/83 220/241/91
f 212/233/83 210/231/81 220/241/91
f 220/241/91 210/231/81 221/242/92
f 210/231/81 208/229/79 221/242/92
f 221/242/92 208/229/79 222/243/93
f 208/229/79 206/227/77 222/243/93
f 222/243/93 206/227/77 223/244/94
f 206/227/77 204/225/75 223/244/94
f 223/244/94 204/225/75 224/245/95
f 204/225/75 202/223/73 224/245/95
f 224/245/95 202/223/73 225/246/96
f 202/223/73 200/221/71 225/246/96
f 225/246/96 200/221/71 226/247/97
f 200/221/71 198/219/69 226/247/97
f 226/247/97 198/219/69 227/248/98
f 198/219/69 196/217/67 227/248/98
f 227/248/98 196/217/67 228/249/99
f 196/217/67 194/215/65 228/249/99
f 228/249/99 194/215/65 229/250/100
f 194/215/65 192/213/63 229/250/100
f 229/250/100 192/213/63 230/251/101
f 192/213/63 190/211/61 230/251/101
f 230/251/101 190/211/61 231/252/102
f 190/211/61 188/209/59 231/252/102
f 231/252/102 188/209/59 232/253/103
f 188/209/59 186/207/57 232/253/103
f 232/253/103 186/207/57 233/254/104
f 186/207/57 184/205/55 233/254/104
f 233/254/104 184/205/55 234/255/105
f 184/205/55 182/203/53 234/255/105
f 234/255/105 182/203/53 235/256/106
f 182/203/53 180/201/51 235/256/106
f 235/256/106 180/201/51 236/257/107
f 180/201/51 179/200/50 236/257/107
f 236/257/107 179/200/50 217/238/88
f 237/258/108 238/259/109 239/260/110
f 239/260/110 238/259/109 240/261/111
f 237/258/108 239/260/110 241/262/112
f 237/258/108 241/262/112 242/263/113
f 242/263/113 241/262/112 243/264/114
f 242/263/113 243/264/114 244/265/115
f 244/265/115 243/264/114 245/266/116
f 244/265/115 245/266/116 246/267/117
f 246/267/117 245/266/116 247/268/118
f 246/267/117 247/268/118 248/269/119
f 248/269/119 247/268/118 249/270/120
f 248/269/119 249/270/120 250/271/121
f 250/271/121 249/270/120 251/272/122
f 250/271/121 251/272/122 252/273/123
f 252/273/123 251/272/122 253/274/124
f 252/273/123 253/274/124 254/275/125
f 254/275/125 253/274/124 255/276/126
f 254/275/125 255/276/126 256/277/127
f 256/277/127 255/276/126 257/278/128
f 256/277/127 257/278/128 258/279/129
f 258/279/129 257/278/128 259/280/130
f 258/279/129 259/280/130 260/281/131
f 260/281/131 259/280/130 261/282/132
f 260/281/131 261/282/132 262/283/133
f 262/283/133 261/282/132 263/284/134
f 262/283/133 263/284/134 264/285/135
f 264/285/135 263/284/134 265/286/136
f 264/285/135 265/286/136 266/287/137
f 266/287/137 265/286/136 267/288/138
f 266/287/137 267/288/138 268/289/139
f 268/289/139 267/288/138 269/290/140
f 268/289/139 269/290/140 270/291/141
f 270/291/141 269/290/140 271/292/142
f 270/291/141 271/292/142 272/293/143
f 272/293/143 271/292/142 273/294/144
f 272/293/143 273/294/144 274/295/145
f 274/295/145 273/294/144 275/296/146
f 274/295/145 275/296/146 276/297/147
f 276/297/147 275/296/146 240/261/111
f 276/297/147 240/261/111 238/259/109
f 276/297/147 238/259/109 277/298/148
f 276/297/147 277/298/148 278/299/149
f 276/297/147 278/299/149 274/295/145
f 278/299/149 279/300/150 274/295/145
f 274/295/145 279/300/150 272/293/143
f 279/300/150 280/301/151 272/293/143
f 272/293/143 280/301/151 270/291/141
f 280/301/151 281/302/152 270/291/141
f 270/291/141 281/302/152 268/289/139
f 281/302/152 282/303/153 268/289/139
f 268/289/139 282/303/153 266/287/137
f 282/303/153 283/304/154 266/287/137
f 266/287/137 283/304/154 264/285/135
f 283/304/154 284/305/155 264/285/135
f 264/285/135 284/305/155 262/283/133
f 284/305/155 285/306/156 262/283/133
f 262/283/133 285/306/156 260/281/131
f 285/306/156 286/307/157 260/281/131
f 260/281/131 286/307/157 258/279/129
f 286/307/157 287/308/158 258/279/129
f 258/279/129 287/308/158 256/277/127
f 287/308/158 288/309/159 256/277/127
f 256/277/127 288/309/159 254/275/125
f 288/309/159 289/310/160 254/275/125
f 254/275/125 289/310/160 252/273/123
f 289/310/160 290/311/161 252/273/123
f 252/273/123 290/311/161 250/271/121
f 290/311/161 291/312/162 250/271/121
f 250/271/121 291/312/162 248/269/119
f 291/312/162 292/313/163 248/269/119
f 248/269/119 292/313/163 246/267/117
f 292/313/163 293/314/164 246/267/117
f 246/267/117 293/314/164 244/265/115
f 293/314/164 294/315/165 244/265/115
f 244/265/115 294/315/165 242/263/113
f 294/315/165 295/316/166 242/263/113
f 242/263/113 295/316/166 237/258/108
f 295/316/166 296/317/167 237/258/108
f 237/258/108 296/317/167 238/259/109
f 296/317/167 277/298/148 238/259/109
