# Blender 4.1.1
# www.blender.org
mtllib staticpic.mtl
o pictureFrame4_room:ST_Bonnie_Woody_Jordan:bonnTrash_pla_5bf4ffa
v 0.093670 0.088840 -0.129196
v 0.100424 0.088840 -0.113882
v 0.092404 0.089645 -0.128638
v 0.099158 0.089645 -0.113324
v 0.098168 0.100471 -0.131180
v 0.104921 0.100471 -0.115866
v 0.099434 0.099665 -0.131738
v 0.106187 0.099665 -0.116424
v 0.100424 0.088840 -0.113882
v 0.106187 0.099665 -0.116424
v 0.099158 0.089645 -0.113324
v 0.104921 0.100471 -0.115866
v 0.099434 0.099665 -0.131738
v 0.093670 0.088840 -0.129196
v 0.098168 0.100471 -0.131180
v 0.092404 0.089645 -0.128638
v 0.099158 0.089645 -0.113324
v 0.099160 0.090076 -0.113948
v 0.092404 0.089645 -0.128638
v 0.092862 0.090076 -0.128228
v 0.099139 0.090697 -0.114941
v 0.093576 0.090697 -0.127557
v 0.099248 0.090976 -0.115563
v 0.094105 0.090976 -0.127226
v 0.094735 0.090990 -0.127124
v 0.099596 0.090990 -0.116103
v 0.099158 0.089645 -0.113324
v 0.104921 0.100471 -0.115866
v 0.099160 0.090076 -0.113948
v 0.104463 0.100036 -0.116286
v 0.099139 0.090697 -0.114941
v 0.103770 0.099395 -0.116983
v 0.099248 0.090976 -0.115563
v 0.103494 0.098952 -0.117436
v 0.099596 0.090990 -0.116103
v 0.103583 0.098479 -0.117862
v 0.104921 0.100471 -0.115866
v 0.098168 0.100471 -0.131180
v 0.104463 0.100036 -0.116286
v 0.098165 0.100036 -0.130566
v 0.103770 0.099395 -0.116983
v 0.098207 0.099395 -0.129600
v 0.103494 0.098952 -0.117436
v 0.098351 0.098952 -0.129099
v 0.103583 0.098479 -0.117862
v 0.098723 0.098479 -0.128882
v 0.098168 0.100471 -0.131180
v 0.092404 0.089645 -0.128638
v 0.098165 0.100036 -0.130566
v 0.092862 0.090076 -0.128228
v 0.098207 0.099395 -0.129600
v 0.093576 0.090697 -0.127557
v 0.098351 0.098952 -0.129099
v 0.094105 0.090976 -0.127226
v 0.098723 0.098479 -0.128882
v 0.094735 0.090990 -0.127124
v 0.095191 0.091476 -0.126815
v 0.099672 0.091476 -0.116655
v 0.095481 0.091292 -0.126943
v 0.099961 0.091292 -0.116783
v 0.099672 0.091476 -0.116655
v 0.103136 0.097984 -0.118183
v 0.099961 0.091292 -0.116783
v 0.103426 0.097799 -0.118311
v 0.103136 0.097984 -0.118183
v 0.098656 0.097984 -0.128343
v 0.103426 0.097799 -0.118311
v 0.098945 0.097799 -0.128471
v 0.098656 0.097984 -0.128343
v 0.095191 0.091476 -0.126815
v 0.098945 0.097799 -0.128471
v 0.095481 0.091292 -0.126943
v 0.095191 0.091476 -0.126815
v 0.098656 0.097984 -0.128343
v 0.094735 0.090990 -0.127124
v 0.098723 0.098479 -0.128882
v 0.098656 0.097984 -0.128343
v 0.103136 0.097984 -0.118183
v 0.098723 0.098479 -0.128882
v 0.103583 0.098479 -0.117862
v 0.103136 0.097984 -0.118183
v 0.099672 0.091476 -0.116655
v 0.103583 0.098479 -0.117862
v 0.099596 0.090990 -0.116103
v 0.095191 0.091476 -0.126815
v 0.094735 0.090990 -0.127124
v 0.099672 0.091476 -0.116655
v 0.099596 0.090990 -0.116103
vn -0.4602 -0.8643 0.2029
vn 0.4602 0.8643 -0.2029
vn 0.4035 -0.0000 0.9150
vn -0.4035 -0.0000 -0.9150
vn -0.7897 0.5050 0.3483
vn -0.7876 0.5090 0.3473
vn -0.7426 0.5843 0.3275
vn -0.7426 0.5842 0.3275
vn -0.5470 0.8016 0.2412
vn -0.3432 0.9270 0.1514
vn -0.3432 0.9270 0.1513
vn -0.7915 0.5029 0.3473
vn -0.7925 0.5029 0.3449
vn -0.8128 0.5021 0.2954
vn -0.8128 0.5021 0.2953
vn -0.8678 0.4862 0.1029
vn -0.8870 0.4574 -0.0632
vn -0.7920 0.5008 0.3492
vn -0.7941 0.4968 0.3502
vn -0.8316 0.4171 0.3667
vn -0.9079 0.1244 0.4004
vn -0.9071 -0.1309 0.4000
vn -0.7902 0.5029 0.3502
vn -0.7891 0.5029 0.3527
vn -0.7658 0.5021 0.4019
vn -0.6589 0.4857 0.5744
vn -0.5470 0.4561 0.7020
vn -0.5470 0.4560 0.7020
vn 0.4602 0.8643 -0.2030
vn -0.7883 0.5029 0.3545
vn -0.7882 0.5029 0.3546
vn -0.7934 0.5029 0.3430
vn -0.7933 0.5029 0.3430
vt 0.874583 0.917152
vt 0.874583 0.534069
vt 0.930470 0.917152
vt 0.930470 0.534069
vt 0.930855 0.534069
vt 0.930855 0.917152
vt 0.874968 0.534069
vt 0.874968 0.917152
vt 0.875283 0.854790
vt 0.875283 0.534069
vt 0.931170 0.854790
vt 0.931170 0.534069
vt 0.874544 0.854790
vt 0.874544 0.534069
vt 0.930431 0.854790
vt 0.930431 0.534069
vt 0.264130 0.866020
vt 0.235069 0.845500
vt 0.202720 0.191247
vt 0.177805 0.216286
vt 0.192430 0.812099
vt 0.141839 0.256207
vt 0.168006 0.792973
vt 0.121237 0.279081
vt 0.107352 0.294512
vt 0.151545 0.780098
vt 0.203321 0.201253
vt 0.267571 0.908583
vt 0.181809 0.231708
vt 0.240917 0.882441
vt 0.146794 0.276391
vt 0.198416 0.844709
vt 0.126743 0.301987
vt 0.174077 0.823093
vt 0.113246 0.319237
vt 0.157690 0.808528
vt 0.201126 0.179496
vt 0.263636 0.874920
vt 0.175399 0.205678
vt 0.233688 0.854149
vt 0.138261 0.247430
vt 0.189758 0.820336
vt 0.116987 0.271341
vt 0.164593 0.800960
vt 0.102650 0.287439
vt 0.147634 0.787887
vt 0.198019 0.159195
vt 0.269188 0.892970
vt 0.176313 0.190965
vt 0.241788 0.866027
vt 0.140944 0.237594
vt 0.198126 0.827157
vt 0.120676 0.264304
vt 0.173108 0.804892
vt 0.107001 0.282304
vt 0.156232 0.789887
vt 0.078526 0.316087
vt 0.119268 0.763757
vt 0.078526 0.316103
vt 0.119268 0.763773
vt 0.096113 0.353064
vt 0.134736 0.778271
vt 0.096129 0.353065
vt 0.134752 0.778272
vt 0.072881 0.309980
vt 0.114352 0.771351
vt 0.072881 0.309963
vt 0.114353 0.771334
vt 0.089792 0.317562
vt 0.132575 0.758666
vt 0.089774 0.317562
vt 0.132557 0.758666
s 1
g pictureFrame4_room:ST_Bonnie_Woody_Jordan:bonnTrash_pla_5bf4ffa_room:ST_Bonnie_Woody_Jordan:bonnTrash_plastic_DiningRoomChair_V
usemtl room:ST_Bonnie_Woody_Jordan:bonnTrash_plastic_DiningRoomChair_V
f 1/1/1 2/2/1 3/3/1
f 3/3/1 2/2/1 4/4/1
f 5/5/2 6/6/2 7/7/2
f 7/7/2 6/6/2 8/8/2
f 9/9/3 10/10/3 11/11/3
f 11/11/3 10/10/3 12/12/3
f 13/13/4 14/14/4 15/15/4
f 15/15/4 14/14/4 16/16/4
f 17/17/5 18/18/6 19/19/5
f 19/19/5 18/18/6 20/20/6
f 18/18/6 21/21/7 20/20/6
f 20/20/6 21/21/7 22/22/8
f 21/21/7 23/23/9 22/22/8
f 22/22/8 23/23/9 24/24/9
f 24/24/9 23/23/9 25/25/10
f 25/25/10 23/23/9 26/26/11
f 27/27/12 28/28/12 29/29/13
f 29/29/13 28/28/12 30/30/13
f 29/29/13 30/30/13 31/31/14
f 31/31/14 30/30/13 32/32/15
f 31/31/14 32/32/15 33/33/16
f 33/33/16 32/32/15 34/34/16
f 33/33/16 34/34/16 35/35/17
f 35/35/17 34/34/16 36/36/17
f 37/37/18 38/38/18 39/39/19
f 39/39/19 38/38/18 40/40/19
f 39/39/19 40/40/19 41/41/20
f 41/41/20 40/40/19 42/42/20
f 41/41/20 42/42/20 43/43/21
f 43/43/21 42/42/20 44/44/21
f 43/43/21 44/44/21 45/45/22
f 45/45/22 44/44/21 46/46/22
f 47/47/23 48/48/23 49/49/24
f 49/49/24 48/48/23 50/50/24
f 49/49/24 50/50/24 51/51/25
f 51/51/25 50/50/24 52/52/25
f 51/51/25 52/52/25 53/53/26
f 53/53/26 52/52/25 54/54/26
f 53/53/26 54/54/26 55/55/27
f 55/55/27 54/54/26 56/56/28
f 57/57/29 58/58/2 59/59/29
f 59/59/29 58/58/2 60/60/2
f 61/61/4 62/62/4 63/63/4
f 63/63/4 62/62/4 64/64/4
f 65/65/1 66/66/1 67/67/1
f 67/67/1 66/66/1 68/68/1
f 69/69/3 70/70/3 71/71/3
f 71/71/3 70/70/3 72/72/3
f 73/70/30 74/69/31 75/56/31
f 75/56/31 74/69/31 76/55/31
f 77/66/19 78/65/19 79/46/19
f 79/46/19 78/65/19 80/45/19
f 81/62/32 82/61/32 83/36/33
f 83/36/33 82/61/32 84/35/33
f 85/57/6 86/25/6 87/58/6
f 87/58/6 86/25/6 88/26/6
