# Blender 4.1.1
# www.blender.org
mtllib Stepstool.mtl
o ST_BT_SmallStepLadder_room:ST_Bonnie_Woody_Jordan:bonnT_148f59d
v 0.069934 0.039568 -0.248960
v 0.069934 0.043038 -0.248960
v 0.089310 0.039568 -0.225106
v 0.089310 0.043038 -0.225106
v 0.103419 0.039757 -0.233976
v 0.103449 0.043038 -0.233833
v 0.089530 0.039757 -0.222821
v 0.089547 0.043038 -0.222756
v 0.101236 0.039568 -0.234793
v 0.103419 0.039757 -0.233976
v 0.089310 0.039568 -0.225106
v 0.089530 0.039757 -0.222821
v 0.101236 0.043038 -0.234793
v 0.101236 0.039568 -0.234793
v 0.089310 0.043038 -0.225106
v 0.089310 0.039568 -0.225106
v 0.081737 0.039757 -0.260989
v 0.067814 0.039757 -0.249637
v 0.081868 0.043038 -0.260832
v 0.067723 0.043038 -0.249663
v 0.081861 0.039568 -0.258648
v 0.081861 0.043038 -0.258648
v 0.069934 0.039568 -0.248960
v 0.069934 0.043038 -0.248960
v 0.101236 0.039568 -0.234793
v 0.101236 0.043038 -0.234793
v 0.081861 0.039568 -0.258648
v 0.081861 0.043038 -0.258648
v 0.103449 0.043038 -0.233833
v 0.103419 0.039757 -0.233976
v 0.081868 0.043038 -0.260832
v 0.081737 0.039757 -0.260989
v 0.089530 0.039757 -0.222821
v 0.067814 0.039757 -0.249637
v 0.089310 0.039568 -0.225106
v 0.069934 0.039568 -0.248960
v 0.081737 0.039757 -0.260989
v 0.081861 0.039568 -0.258648
v 0.067814 0.039757 -0.249637
v 0.069934 0.039568 -0.248960
v 0.089547 0.043038 -0.222756
v 0.067723 0.043038 -0.249663
v 0.089530 0.039757 -0.222821
v 0.067814 0.039757 -0.249637
v 0.103419 0.039757 -0.233976
v 0.101236 0.039568 -0.234793
v 0.081737 0.039757 -0.260989
v 0.081861 0.039568 -0.258648
v 0.070699 -0.000458 -0.212938
v 0.089549 0.043028 -0.227939
v 0.077368 -0.000457 -0.218429
v 0.092987 0.043028 -0.230818
v 0.072772 -0.000458 -0.210386
v 0.079514 -0.000457 -0.215787
v 0.090852 0.043028 -0.226335
v 0.094374 0.043028 -0.229110
v 0.079514 -0.000457 -0.215787
v 0.077368 -0.000457 -0.218429
v 0.094374 0.043028 -0.229110
v 0.092987 0.043028 -0.230818
v 0.089549 0.043028 -0.227939
v 0.070699 -0.000458 -0.212938
v 0.090852 0.043028 -0.226335
v 0.072772 -0.000458 -0.210386
v 0.072772 -0.000458 -0.210386
v 0.070699 -0.000458 -0.212938
v 0.079514 -0.000457 -0.215787
v 0.077368 -0.000457 -0.218429
v 0.095269 -0.000455 -0.232929
v 0.096039 0.043028 -0.233231
v 0.099609 -0.000455 -0.236476
v 0.099802 0.043028 -0.236314
v 0.101731 -0.000455 -0.233863
v 0.099609 -0.000455 -0.236476
v 0.101151 0.043028 -0.234653
v 0.099802 0.043028 -0.236314
v 0.096039 0.043028 -0.233231
v 0.095269 -0.000455 -0.232929
v 0.097362 0.043028 -0.231602
v 0.097369 -0.000455 -0.230343
v 0.097369 -0.000455 -0.230343
v 0.101731 -0.000455 -0.233863
v 0.097362 0.043028 -0.231602
v 0.101151 0.043028 -0.234653
v 0.101731 -0.000455 -0.233863
v 0.097369 -0.000455 -0.230343
v 0.099609 -0.000455 -0.236476
v 0.095269 -0.000455 -0.232929
v 0.063865 0.021537 -0.240970
v 0.081612 0.021537 -0.255422
v 0.063865 0.016123 -0.240970
v 0.081627 0.016142 -0.255440
v 0.081390 0.016123 -0.253616
v 0.081390 0.021537 -0.253616
v 0.064593 0.016123 -0.240065
v 0.064593 0.021537 -0.240065
v 0.063865 0.021537 -0.240970
v 0.063865 0.016123 -0.240970
v 0.064593 0.021537 -0.240065
v 0.064593 0.016123 -0.240065
v 0.098107 0.016123 -0.235115
v 0.096293 0.016123 -0.235267
v 0.081627 0.016142 -0.255440
v 0.081390 0.016123 -0.253616
v 0.064593 0.021537 -0.240065
v 0.081390 0.021537 -0.253616
v 0.063865 0.021537 -0.240970
v 0.081612 0.021537 -0.255422
v 0.098107 0.021537 -0.235115
v 0.096293 0.021537 -0.235267
v 0.080306 0.021537 -0.220704
v 0.079592 0.021537 -0.221593
v 0.079592 0.016123 -0.221593
v 0.079592 0.021537 -0.221593
v 0.096293 0.016123 -0.235267
v 0.096293 0.021537 -0.235267
v 0.080306 0.021537 -0.220704
v 0.080306 0.016123 -0.220704
v 0.098107 0.021537 -0.235115
v 0.098107 0.016123 -0.235115
v 0.098107 0.021537 -0.235115
v 0.098107 0.016123 -0.235115
v 0.081612 0.021537 -0.255422
v 0.081627 0.016142 -0.255440
v 0.079592 0.021537 -0.221593
v 0.079592 0.016123 -0.221593
v 0.080306 0.021537 -0.220704
v 0.080306 0.016123 -0.220704
v 0.096293 0.021537 -0.235267
v 0.081390 0.021537 -0.253616
v 0.096293 0.016123 -0.235267
v 0.081390 0.016123 -0.253616
v 0.098107 0.016123 -0.235115
v 0.080306 0.016123 -0.220704
v 0.096293 0.016123 -0.235267
v 0.079592 0.016123 -0.221593
v 0.081627 0.016142 -0.255440
v 0.081390 0.016123 -0.253616
v 0.063865 0.016123 -0.240970
v 0.064593 0.016123 -0.240065
v 0.054258 -0.000458 -0.233179
v 0.061019 -0.000457 -0.238557
v 0.072807 0.043028 -0.248550
v 0.076344 0.043028 -0.251308
v 0.051915 -0.000458 -0.236064
v 0.071533 0.043028 -0.250119
v 0.058565 -0.000457 -0.241579
v 0.074957 0.043028 -0.253016
v 0.061019 -0.000457 -0.238557
v 0.054258 -0.000458 -0.233179
v 0.058565 -0.000457 -0.241579
v 0.051915 -0.000458 -0.236064
v 0.058565 -0.000457 -0.241579
v 0.074957 0.043028 -0.253016
v 0.061019 -0.000457 -0.238557
v 0.076344 0.043028 -0.251308
v 0.072807 0.043028 -0.248550
v 0.071533 0.043028 -0.250119
v 0.054258 -0.000458 -0.233179
v 0.051915 -0.000458 -0.236064
v 0.078859 -0.000455 -0.253131
v 0.083224 -0.000455 -0.256649
v 0.079318 0.043028 -0.253818
v 0.083106 0.043028 -0.256869
v 0.076485 -0.000455 -0.256054
v 0.078010 0.043028 -0.255428
v 0.080823 -0.000455 -0.259604
v 0.081772 0.043028 -0.258511
v 0.080823 -0.000455 -0.259604
v 0.081772 0.043028 -0.258511
v 0.083224 -0.000455 -0.256649
v 0.083106 0.043028 -0.256869
v 0.079318 0.043028 -0.253818
v 0.078010 0.043028 -0.255428
v 0.078859 -0.000455 -0.253131
v 0.076485 -0.000455 -0.256054
v 0.080823 -0.000455 -0.259604
v 0.083224 -0.000455 -0.256649
v 0.076485 -0.000455 -0.256054
v 0.078859 -0.000455 -0.253131
v 0.074302 0.047060 -0.240103
v 0.081926 0.047060 -0.230806
v 0.081757 0.047411 -0.246145
v 0.066677 0.047060 -0.249400
v 0.089418 0.047411 -0.236742
v 0.074096 0.047411 -0.255548
v 0.089550 0.047060 -0.221509
v 0.097079 0.047411 -0.227339
v 0.097079 0.047411 -0.227339
v 0.089550 0.047060 -0.221509
v 0.097079 0.043029 -0.227339
v 0.089553 0.043081 -0.221511
v 0.074096 0.047411 -0.255548
v 0.074096 0.043029 -0.255548
v 0.066677 0.047060 -0.249400
v 0.066681 0.043081 -0.249403
v 0.081757 0.043029 -0.246145
v 0.081757 0.047411 -0.246145
v 0.089418 0.043029 -0.236742
v 0.074096 0.047411 -0.255548
v 0.074096 0.043029 -0.255548
v 0.089418 0.047411 -0.236742
v 0.097079 0.043029 -0.227339
v 0.097079 0.047411 -0.227339
v 0.081929 0.043081 -0.230809
v 0.081926 0.047060 -0.230806
v 0.074305 0.043081 -0.240106
v 0.089550 0.047060 -0.221509
v 0.089553 0.043081 -0.221511
v 0.074302 0.047060 -0.240103
v 0.066681 0.043081 -0.249403
v 0.066677 0.047060 -0.249400
v 0.089418 0.043029 -0.236742
v 0.081929 0.043081 -0.230809
v 0.081757 0.043029 -0.246145
v 0.089553 0.043081 -0.221511
v 0.097079 0.043029 -0.227339
v 0.074305 0.043081 -0.240106
v 0.066681 0.043081 -0.249403
v 0.074096 0.043029 -0.255548
v 0.089609 0.047411 -0.236897
v 0.096955 0.047060 -0.243013
v 0.081976 0.047411 -0.246323
v 0.104492 0.047060 -0.233645
v 0.097375 0.047411 -0.227579
v 0.089418 0.047060 -0.252381
v 0.074573 0.047411 -0.255935
v 0.081882 0.047060 -0.261750
v 0.104488 0.043081 -0.233642
v 0.104492 0.047060 -0.233645
v 0.097375 0.043029 -0.227579
v 0.097375 0.047411 -0.227579
v 0.074573 0.047411 -0.255935
v 0.081882 0.047060 -0.261750
v 0.074573 0.043029 -0.255935
v 0.081878 0.043081 -0.261747
v 0.081976 0.043029 -0.246323
v 0.089609 0.043029 -0.236897
v 0.081976 0.047411 -0.246323
v 0.074573 0.047411 -0.255935
v 0.074573 0.043029 -0.255935
v 0.089609 0.047411 -0.236897
v 0.097375 0.043029 -0.227579
v 0.097375 0.047411 -0.227579
v 0.096952 0.043081 -0.243011
v 0.089415 0.043081 -0.252379
v 0.096955 0.047060 -0.243013
v 0.104492 0.047060 -0.233645
v 0.104488 0.043081 -0.233642
v 0.089418 0.047060 -0.252381
v 0.081878 0.043081 -0.261747
v 0.081882 0.047060 -0.261750
v 0.089415 0.043081 -0.252379
v 0.096952 0.043081 -0.243011
v 0.081976 0.043029 -0.246323
v 0.074573 0.043029 -0.255935
v 0.081878 0.043081 -0.261747
v 0.089609 0.043029 -0.236897
v 0.104488 0.043081 -0.233642
v 0.097375 0.043029 -0.227579
v 0.062447 0.013551 -0.228526
v 0.067932 0.013551 -0.221863
v 0.069901 0.013758 -0.234570
v 0.064281 0.014001 -0.241460
v 0.056846 0.013793 -0.235333
v 0.075404 0.013758 -0.227824
v 0.073437 0.013793 -0.215175
v 0.080926 0.014001 -0.221054
v 0.080926 0.014001 -0.221054
v 0.073437 0.013793 -0.215175
v 0.080926 0.011409 -0.221054
v 0.073440 0.011440 -0.215178
v 0.064281 0.014001 -0.241460
v 0.064281 0.011409 -0.241460
v 0.056846 0.013793 -0.235333
v 0.056849 0.011440 -0.235336
v 0.069901 0.011409 -0.234570
v 0.069901 0.013758 -0.234570
v 0.075404 0.011409 -0.227824
v 0.064281 0.011409 -0.241460
v 0.075404 0.013758 -0.227824
v 0.064281 0.014001 -0.241460
v 0.080926 0.011409 -0.221054
v 0.080926 0.014001 -0.221054
v 0.067935 0.011440 -0.221865
v 0.067932 0.013551 -0.221863
v 0.062450 0.011440 -0.228529
v 0.073440 0.011440 -0.215178
v 0.062447 0.013551 -0.228526
v 0.073437 0.013793 -0.215175
v 0.056849 0.011440 -0.235336
v 0.056846 0.013793 -0.235333
v 0.075404 0.011409 -0.227824
v 0.067935 0.011440 -0.221865
v 0.069901 0.011409 -0.234570
v 0.073440 0.011440 -0.215178
v 0.080926 0.011409 -0.221054
v 0.062450 0.011440 -0.228529
v 0.064281 0.011409 -0.241460
v 0.056849 0.011440 -0.235336
v 0.075411 0.028753 -0.238871
v 0.068044 0.028545 -0.232780
v 0.080885 0.028753 -0.232102
v 0.062503 0.028823 -0.239691
v 0.069793 0.029030 -0.245817
v 0.073441 0.028545 -0.226046
v 0.078839 0.028823 -0.219312
v 0.086360 0.029030 -0.225333
v 0.062507 0.026469 -0.239694
v 0.062503 0.028823 -0.239691
v 0.069793 0.026438 -0.245817
v 0.069793 0.029030 -0.245817
v 0.086360 0.029030 -0.225333
v 0.078839 0.028823 -0.219312
v 0.086360 0.026438 -0.225333
v 0.078842 0.026469 -0.219314
v 0.080885 0.026438 -0.232102
v 0.075411 0.026438 -0.238871
v 0.080885 0.028753 -0.232102
v 0.086360 0.026438 -0.225333
v 0.075411 0.028753 -0.238871
v 0.086360 0.029030 -0.225333
v 0.069793 0.026438 -0.245817
v 0.069793 0.029030 -0.245817
v 0.068047 0.026469 -0.232783
v 0.073445 0.026469 -0.226049
v 0.068044 0.028545 -0.232780
v 0.062507 0.026469 -0.239694
v 0.073441 0.028545 -0.226046
v 0.062503 0.028823 -0.239691
v 0.078842 0.026469 -0.219314
v 0.078839 0.028823 -0.219312
v 0.073445 0.026469 -0.226049
v 0.068047 0.026469 -0.232783
v 0.080885 0.026438 -0.232102
v 0.086360 0.026438 -0.225333
v 0.078842 0.026469 -0.219314
v 0.075411 0.026438 -0.238871
v 0.062507 0.026469 -0.239694
v 0.069793 0.026438 -0.245817
vn 0.7762 -0.0000 -0.6305
vn 0.6244 -0.0292 0.7806
vn 0.6244 -0.0292 0.7805
vn 0.0602 -0.9954 0.0745
vn 0.0601 -0.9954 0.0745
vn -0.6305 -0.0000 -0.7762
vn -0.6257 0.0194 -0.7798
vn -0.6257 0.0193 -0.7798
vn 0.6305 -0.0000 0.7762
vn -0.7762 -0.0000 0.6305
vn 0.7805 0.0095 -0.6251
vn -0.1165 -0.9887 0.0945
vn -0.1164 -0.9887 0.0944
vn -0.0631 -0.9950 -0.0776
vn -0.0631 -0.9950 -0.0775
vn -0.0630 -0.9950 -0.0775
vn -0.7768 -0.0125 0.6296
vn 0.1135 -0.9893 -0.0916
vn -0.6378 0.0102 -0.7701
vn -0.6378 0.0103 -0.7701
vn 0.6228 0.0273 0.7819
vn 0.7056 -0.4167 -0.5731
vn -0.6790 0.4846 0.5515
vn 0.0001 -1.0000 -0.0001
vn 0.0001 -1.0000 -0.0000
vn -0.6333 0.0058 -0.7739
vn -0.6332 0.0058 -0.7739
vn 0.7762 -0.0011 -0.6305
vn -0.7761 0.0181 0.6304
vn 0.6279 0.0226 0.7780
vn 0.6278 0.0226 0.7781
vn 0.6271 0.0225 0.7786
vn 0.6274 0.0226 0.7783
vn -0.0000 -1.0000 -0.0000
vn -0.6315 -0.0000 -0.7754
vn -0.6316 0.0007 -0.7753
vn -0.6315 0.0001 -0.7754
vn -0.6316 0.0008 -0.7753
vn 0.6279 -0.0000 0.7783
vn -0.7793 -0.0000 0.6266
vn 0.0053 -1.0000 -0.0048
vn -0.0000 1.0000 -0.0000
vn -0.6335 -0.0000 -0.7737
vn 0.6292 -0.0000 0.7772
vn 0.7765 0.0021 -0.6301
vn 0.7765 0.0020 -0.6301
vn -0.7794 -0.0000 0.6265
vn -0.7795 -0.0000 0.6265
vn -0.0044 -1.0000 -0.0061
vn 0.6199 0.0123 0.7846
vn 0.6199 0.0122 0.7846
vn -0.6404 0.0403 -0.7670
vn 0.6273 0.0057 0.7787
vn 0.6276 0.0057 0.7786
vn 0.6275 0.0057 0.7786
vn 0.6271 0.0056 0.7789
vn -0.6332 0.0333 -0.7732
vn -0.6335 0.0333 -0.7731
vn -0.6330 0.0333 -0.7734
vn -0.6331 0.0333 -0.7733
vn -0.0282 0.9993 0.0231
vn -0.0283 0.9993 0.0232
vn -0.0282 0.9993 0.0230
vn -0.0284 0.9993 0.0232
vn -0.0285 0.9993 0.0232
vn 0.6122 -0.0000 0.7907
vn -0.6381 -0.0000 -0.7700
vn 0.7753 -0.0000 -0.6316
vn -0.7732 -0.0010 0.6341
vn -0.0042 -1.0000 0.0035
vn -0.0042 -1.0000 0.0034
vn -0.0043 -1.0000 0.0035
vn 0.0285 0.9993 -0.0232
vn 0.0285 0.9993 -0.0230
vn 0.0284 0.9993 -0.0230
vn 0.0287 0.9993 -0.0235
vn 0.0291 0.9993 -0.0230
vn 0.0291 0.9993 -0.0228
vn 0.6487 -0.0000 0.7610
vn -0.6226 -0.0000 -0.7826
vn -0.7772 -0.0000 0.6293
vn -0.7923 -0.0000 0.6102
vn -0.7682 -0.0000 0.6402
vn 0.7792 -0.0010 -0.6268
vn 0.0043 -1.0000 -0.0034
vn 0.0044 -1.0000 -0.0035
vn 0.0043 -1.0000 -0.0035
vn 0.0043 -1.0000 -0.0036
vn -0.0167 0.9998 0.0137
vn 0.0007 0.9994 0.0349
vn 0.0009 0.9994 0.0349
vn -0.0341 0.9994 -0.0081
vn -0.0340 0.9994 -0.0081
vn 0.6174 -0.0000 0.7866
vn 0.6174 -0.0000 0.7867
vn -0.6359 -0.0000 -0.7718
vn 0.7749 -0.0000 -0.6321
vn -0.7721 -0.0020 0.6355
vn -0.7721 -0.0018 0.6355
vn -0.7721 -0.0019 0.6355
vn -0.7722 -0.0018 0.6354
vn -0.0025 -1.0000 0.0021
vn -0.0025 -1.0000 0.0020
vn -0.0167 0.9998 0.0135
vn -0.0168 0.9998 0.0136
vn -0.0268 0.9996 0.0011
vn 0.0030 0.9993 0.0375
vn 0.0030 0.9993 0.0374
vn -0.0270 0.9996 0.0010
vn -0.0368 0.9993 -0.0113
vn -0.0369 0.9993 -0.0114
vn -0.6434 -0.0000 -0.7656
vn 0.6250 -0.0000 0.7806
vn 0.7775 -0.0000 -0.6288
vn 0.7775 -0.0000 -0.6289
vn -0.7803 -0.0020 0.6255
vn -0.7803 -0.0020 0.6254
vn -0.7802 -0.0018 0.6255
vn -0.7803 -0.0018 0.6254
vt 0.931042 -0.417417
vt 0.817607 -0.425786
vt 0.931042 -1.096515
vt 0.817607 -1.088553
vt 0.640775 -2.002249
vt 0.760469 -2.001297
vt 0.640775 -1.637469
vt 0.760469 -1.637326
vt 0.769265 -1.694000
vt 0.809399 -1.688919
vt 0.769265 -1.332679
vt 0.809399 -1.334826
vt 0.817607 -1.448935
vt 0.931042 -1.457835
vt 0.640775 -0.583481
vt 0.640775 -1.003039
vt 0.760469 -0.584268
vt 0.760469 -1.001915
vt 0.931042 -0.085388
vt 0.817607 -0.098702
vt 0.931042 -2.100626
vt 0.817607 -2.088982
vt 0.760469 -2.684659
vt 0.640775 -2.690578
vt 0.809399 -0.645030
vt 0.769265 -0.653581
vt 0.809399 -0.280839
vt 0.769265 -0.321553
vt 0.809399 -2.387936
vt 0.769265 -2.336791
vt 0.760798 0.020611
vt 0.760798 0.950120
vt 0.640316 0.097527
vt 0.640316 0.992253
vt 0.817607 0.025532
vt 0.931042 0.109764
vt 0.817607 1.047624
vt 0.931042 1.093061
vt 0.937834 0.007873
vt 0.998043 0.009463
vt 0.938070 1.045744
vt 0.997655 1.050706
vt 0.769265 0.998315
vt 0.769265 -0.083449
vt 0.809399 0.997785
vt 0.809399 -0.081035
vt 0.731131 0.558208
vt 0.663842 0.558206
vt 0.732010 0.383875
vt 0.662959 0.383878
vt 0.759765 -0.003327
vt 0.759765 0.864849
vt 0.641146 -0.006676
vt 0.641146 0.861943
vt 0.769576 0.029179
vt 0.808991 0.030878
vt 0.769576 0.898417
vt 0.808991 0.899497
vt 0.937834 0.984854
vt 0.937834 0.116464
vt 0.998043 0.983309
vt 0.998043 0.114012
vt 0.818227 0.086220
vt 0.931074 0.086645
vt 0.818227 0.955517
vt 0.931074 0.955883
vt 0.906370 0.428965
vt 0.906097 0.542210
vt 0.838166 0.428978
vt 0.838438 0.542210
vt 0.818135 2.011784
vt 0.818135 1.561420
vt 0.931042 2.011784
vt 0.931042 1.561659
vt 0.640068 1.561911
vt 0.760207 1.562299
vt 0.640068 2.011784
vt 0.760207 2.011784
vt 0.818135 2.038130
vt 0.931042 2.038130
vt 0.938176 1.050259
vt 0.997655 1.050259
vt 0.938176 1.562172
vt 0.997655 1.563713
vt 0.768627 2.011784
vt 0.768627 1.562299
vt 0.809130 2.011784
vt 0.809130 1.561420
vt 0.809130 1.050259
vt 0.768627 1.050259
vt 0.809130 0.591247
vt 0.768627 0.591247
vt 0.640068 0.591247
vt 0.760207 0.591247
vt 0.640068 1.050259
vt 0.760207 1.050259
vt 0.818135 0.591247
vt 0.931042 0.591247
vt 0.818135 1.050259
vt 0.931042 1.050259
vt 0.818135 0.566900
vt 0.931042 0.566900
vt 0.938176 0.591247
vt 0.997655 0.591247
vt 0.938176 2.011784
vt 0.997655 2.011784
vt 0.640068 0.180187
vt 0.760208 0.260761
vt 0.640068 1.112039
vt 0.760207 1.153277
vt 0.930918 0.076194
vt 0.930918 1.008082
vt 0.818135 0.159853
vt 0.818135 1.050907
vt 0.913784 0.394888
vt 0.910250 0.560414
vt 0.834775 0.394890
vt 0.838280 0.560404
vt 0.809130 0.149242
vt 0.809130 1.038621
vt 0.768628 0.142388
vt 0.768627 1.034904
vt 0.997655 1.072831
vt 0.938176 1.072790
vt 0.998043 0.140979
vt 0.937834 0.140901
vt 0.640775 0.086008
vt 0.760469 0.085171
vt 0.640775 0.956784
vt 0.760469 0.956058
vt 0.760469 0.089737
vt 0.760469 0.960288
vt 0.640775 0.086439
vt 0.640775 0.957424
vt 0.998043 -0.202751
vt 0.998043 0.668234
vt 0.937835 -0.202529
vt 0.937835 0.668357
vt 0.809399 0.665520
vt 0.769265 0.662173
vt 0.809399 -0.202300
vt 0.769265 -0.208377
vt 0.831484 0.428949
vt 0.908809 0.428978
vt 0.831682 0.542306
vt 0.908603 0.542289
vt 0.102291 0.630223
vt 0.102291 0.357526
vt 0.308202 0.630223
vt 0.102291 0.900503
vt 0.308202 0.357526
vt 0.308202 0.900503
vt 0.102291 0.093378
vt 0.308202 0.093378
vt 0.308730 0.079888
vt 0.108533 0.079888
vt 0.308730 0.011815
vt 0.108533 0.011815
vt 0.303455 0.917654
vt 0.303455 0.988923
vt 0.105423 0.917654
vt 0.105423 0.988923
vt 0.401393 0.630223
vt 0.322995 0.630223
vt 0.401393 0.357526
vt 0.322995 0.898896
vt 0.401393 0.898896
vt 0.322995 0.357526
vt 0.401393 0.095852
vt 0.322995 0.095852
vt 0.010295 0.357526
vt 0.087658 0.357526
vt 0.010295 0.630223
vt 0.087658 0.093378
vt 0.010295 0.093378
vt 0.087658 0.630223
vt 0.010295 0.901371
vt 0.087658 0.901371
vt 0.413893 0.357526
vt 0.619209 0.357526
vt 0.413893 0.630223
vt 0.619209 0.093378
vt 0.413893 0.093378
vt 0.619209 0.630223
vt 0.619209 0.901371
vt 0.413893 0.901371
vt 0.617227 0.355368
vt 0.414647 0.355368
vt 0.617227 0.629534
vt 0.414647 0.089797
vt 0.617227 0.089797
vt 0.414647 0.629534
vt 0.617227 0.901270
vt 0.414647 0.901270
s 1
g ST_BT_SmallStepLadder_room:ST_Bonnie_Woody_Jordan:bonnT_148f59d_room:ST_Bonnie_Woody_Jordan:bonnTrash_wood_SmallStepLadder
usemtl room:ST_Bonnie_Woody_Jordan:bonnTrash_wood_SmallStepLadder
f 1/1/1 2/2/1 3/3/1
f 3/3/1 2/2/1 4/4/1
f 5/5/2 6/6/2 7/7/2
f 7/7/2 6/6/2 8/8/3
f 9/9/4 10/10/5 11/11/5
f 11/11/5 10/10/5 12/12/5
f 13/13/6 14/14/6 15/4/6
f 15/4/6 14/14/6 16/3/6
f 17/15/7 18/16/8 19/17/7
f 19/17/7 18/16/8 20/18/8
f 21/19/9 22/20/9 23/1/9
f 23/1/9 22/20/9 24/2/9
f 25/14/10 26/13/10 27/21/10
f 27/21/10 26/13/10 28/22/10
f 29/6/11 30/5/11 31/23/11
f 31/23/11 30/5/11 32/24/11
f 33/12/12 34/25/13 35/11/12
f 35/11/12 34/25/13 36/26/13
f 37/27/14 38/28/15 39/25/15
f 39/25/15 38/28/15 40/26/16
f 41/8/17 42/18/17 43/7/17
f 43/7/17 42/18/17 44/16/17
f 45/10/18 46/9/18 47/29/18
f 47/29/18 46/9/18 48/30/18
f 49/31/19 50/32/20 51/33/19
f 51/33/19 50/32/20 52/34/20
f 53/35/21 54/36/21 55/37/21
f 55/37/21 54/36/21 56/38/21
f 57/39/22 58/40/22 59/41/22
f 59/41/22 58/40/22 60/42/22
f 61/43/23 62/44/23 63/45/23
f 63/45/23 62/44/23 64/46/23
f 65/47/24 66/48/24 67/49/24
f 67/49/24 66/48/24 68/50/25
f 69/51/26 70/52/26 71/53/27
f 71/53/27 70/52/26 72/54/27
f 73/55/28 74/56/28 75/57/28
f 75/57/28 74/56/28 76/58/28
f 77/59/29 78/60/29 79/61/29
f 79/61/29 78/60/29 80/62/29
f 81/63/30 82/64/31 83/65/32
f 83/65/32 82/64/31 84/66/33
f 85/67/34 86/68/34 87/69/34
f 87/69/34 86/68/34 88/70/34
f 89/71/35 90/72/36 91/73/37
f 91/73/37 90/72/36 92/74/38
f 93/75/39 94/76/39 95/77/39
f 95/77/39 94/76/39 96/78/39
f 97/71/40 98/73/40 99/79/40
f 99/79/40 98/73/40 100/80/40
f 101/81/41 102/82/41 103/83/41
f 103/83/41 102/82/41 104/84/41
f 105/85/42 106/86/42 107/87/42
f 107/87/42 106/86/42 108/88/42
f 106/86/42 109/89/42 108/88/42
f 110/90/42 109/89/42 106/86/42
f 110/90/42 111/91/42 109/89/42
f 112/92/42 111/91/42 110/90/42
f 113/93/43 114/94/43 115/95/43
f 115/95/43 114/94/43 116/96/43
f 117/97/44 118/98/44 119/99/44
f 119/99/44 118/98/44 120/100/44
f 121/99/45 122/100/46 123/72/46
f 123/72/46 122/100/46 124/74/46
f 125/101/47 126/102/48 127/97/47
f 127/97/47 126/102/48 128/98/48
f 129/96/10 130/76/10 131/95/10
f 131/95/10 130/76/10 132/75/10
f 133/81/34 134/103/34 135/82/34
f 135/82/34 134/103/34 136/104/34
f 137/83/49 138/84/49 139/105/49
f 139/105/49 138/84/49 140/106/49
f 141/107/50 142/108/50 143/109/51
f 143/109/51 142/108/50 144/110/51
f 145/111/52 146/112/52 147/113/52
f 147/113/52 146/112/52 148/114/52
f 149/115/24 150/116/24 151/117/24
f 151/117/24 150/116/24 152/118/24
f 153/119/22 154/120/22 155/121/22
f 155/121/22 154/120/22 156/122/22
f 157/123/23 158/124/23 159/125/23
f 159/125/23 158/124/23 160/126/23
f 161/127/53 162/128/54 163/129/55
f 163/129/55 162/128/54 164/130/56
f 165/131/57 166/132/58 167/133/59
f 167/133/59 166/132/58 168/134/60
f 169/135/28 170/136/28 171/137/28
f 171/137/28 170/136/28 172/138/28
f 173/139/29 174/140/29 175/141/29
f 175/141/29 174/140/29 176/142/29
f 177/143/34 178/144/34 179/145/34
f 179/145/34 178/144/34 180/146/34
f 181/147/61 182/148/62 183/149/61
f 181/147/61 183/149/61 184/150/63
f 183/149/61 182/148/62 185/151/64
f 184/150/63 183/149/61 186/152/63
f 182/148/62 187/153/64 185/151/64
f 185/151/64 187/153/64 188/154/65
f 189/155/66 190/156/66 191/157/66
f 191/157/66 190/156/66 192/158/66
f 193/159/67 194/160/67 195/161/67
f 195/161/67 194/160/67 196/162/67
f 197/163/68 198/164/68 199/165/68
f 198/164/68 197/163/68 200/166/68
f 200/166/68 197/163/68 201/167/68
f 199/165/68 198/164/68 202/168/68
f 199/165/68 202/168/68 203/169/68
f 203/169/68 202/168/68 204/170/68
f 205/171/69 206/172/69 207/173/69
f 206/172/69 205/171/69 208/174/69
f 208/174/69 205/171/69 209/175/69
f 207/173/69 206/172/69 210/176/69
f 207/173/69 210/176/69 211/177/69
f 211/177/69 210/176/69 212/178/69
f 213/179/70 214/180/70 215/181/71
f 214/180/70 213/179/70 216/182/70
f 216/182/70 213/179/70 217/183/72
f 215/181/71 214/180/70 218/184/70
f 218/184/70 219/185/71 215/181/71
f 215/181/71 219/185/71 220/186/71
f 221/187/73 222/188/74 223/189/75
f 221/187/73 224/190/76 222/188/74
f 225/191/76 224/190/76 221/187/73
f 223/189/75 222/188/74 226/192/75
f 226/192/75 227/193/77 223/189/75
f 228/194/78 227/193/77 226/192/75
f 229/158/79 230/156/79 231/157/79
f 231/157/79 230/156/79 232/155/79
f 233/159/80 234/161/80 235/160/80
f 235/160/80 234/161/80 236/162/80
f 237/163/81 238/165/81 239/164/81
f 239/164/81 240/166/82 237/163/81
f 237/163/81 240/166/82 241/167/82
f 239/164/81 238/165/81 242/168/81
f 238/165/81 243/169/83 242/168/81
f 242/168/81 243/169/83 244/170/83
f 245/171/84 246/173/84 247/172/84
f 247/172/84 248/174/84 245/171/84
f 245/171/84 248/174/84 249/175/84
f 247/172/84 246/173/84 250/176/84
f 246/173/84 251/177/84 250/176/84
f 250/176/84 251/177/84 252/178/84
f 253/184/85 254/180/85 255/181/85
f 255/181/85 256/186/85 253/184/85
f 253/184/85 256/186/85 257/185/86
f 255/181/85 254/180/85 258/179/87
f 259/182/87 258/179/87 254/180/85
f 260/183/88 258/179/87 259/182/87
f 261/192/89 262/188/89 263/189/89
f 263/189/89 264/193/90 261/192/89
f 261/192/89 264/193/90 265/194/91
f 263/189/89 262/188/89 266/187/89
f 262/188/89 267/190/92 266/187/89
f 266/187/89 267/190/92 268/191/93
f 269/155/94 270/156/95 271/157/94
f 271/157/94 270/156/95 272/158/95
f 273/159/96 274/160/96 275/161/96
f 275/161/96 274/160/96 276/162/96
f 277/163/97 278/164/97 279/165/97
f 277/163/97 280/167/97 278/164/97
f 279/165/97 278/164/97 281/168/97
f 278/164/97 280/167/97 282/166/97
f 279/165/97 281/168/97 283/169/97
f 283/169/97 281/168/97 284/170/97
f 285/171/98 286/172/98 287/173/98
f 285/171/98 288/175/99 286/172/98
f 287/173/98 286/172/98 289/176/100
f 286/172/98 288/175/99 290/174/99
f 287/173/98 289/176/100 291/177/101
f 291/177/101 289/176/100 292/178/101
f 293/179/102 294/180/102 295/181/103
f 294/180/102 293/179/102 296/182/102
f 296/182/102 293/179/102 297/183/102
f 295/181/103 294/180/102 298/184/103
f 295/181/103 298/184/103 299/186/103
f 299/186/103 298/184/103 300/185/103
f 301/187/104 302/188/105 303/189/106
f 301/187/104 304/190/107 302/188/105
f 305/191/108 304/190/107 301/187/104
f 303/189/106 302/188/105 306/192/109
f 306/192/109 307/194/110 303/189/106
f 303/189/106 307/194/110 308/193/111
f 309/158/112 310/156/112 311/157/112
f 311/157/112 310/156/112 312/155/112
f 313/159/113 314/161/113 315/160/113
f 315/160/113 314/161/113 316/162/113
f 317/163/114 318/165/115 319/164/114
f 319/164/114 320/167/114 317/163/114
f 319/164/114 318/165/115 321/168/115
f 322/166/114 320/167/114 319/164/114
f 318/165/115 323/169/115 321/168/115
f 321/168/115 323/169/115 324/170/115
f 325/171/116 326/173/117 327/172/116
f 327/172/116 328/175/118 325/171/116
f 327/172/116 326/173/117 329/176/117
f 330/174/118 328/175/118 327/172/116
f 326/173/117 331/177/119 329/176/117
f 329/176/117 331/177/119 332/178/119
f 333/184/103 334/180/103 335/181/103
f 335/181/103 336/186/103 333/184/103
f 333/184/103 336/186/103 337/185/103
f 335/181/103 334/180/103 338/179/103
f 339/182/103 338/179/103 334/180/103
f 340/183/103 338/179/103 339/182/103
