# Blender 4.1.1
# www.blender.org
mtllib Sub.mtl
o GUI_Map_Submarine_GUI_Map_Submarine_GUI_Map_Submarine1
v -0.016275 0.002521 0.003522
v -0.016275 0.002521 0.002765
v -0.016331 0.002521 0.003342
v -0.016331 0.002521 0.002945
v -0.016350 0.002521 0.003144
v -0.016186 0.002521 0.002620
v -0.016186 0.002521 0.003667
v -0.016074 0.002521 0.002526
v -0.016074 0.002521 0.003761
v -0.015949 0.002521 0.002494
v -0.015949 0.002521 0.003794
v -0.015824 0.002521 0.003761
v -0.015824 0.002521 0.002526
v -0.015712 0.002521 0.003667
v -0.015712 0.002521 0.002620
v -0.015623 0.002521 0.003522
v -0.015623 0.002521 0.002765
v -0.015567 0.002521 0.003342
v -0.015567 0.002521 0.002945
v -0.015548 0.002521 0.003144
v -0.015949 0.002299 0.003807
v -0.015949 0.002521 0.003794
v -0.016077 0.002299 0.003774
v -0.015821 0.002299 0.003774
v -0.016074 0.002521 0.003761
v -0.015824 0.002521 0.003761
v -0.016192 0.002299 0.003680
v -0.015706 0.002299 0.003680
v -0.016186 0.002521 0.003667
v -0.015712 0.002521 0.003667
v -0.016284 0.002299 0.003533
v -0.015614 0.002299 0.003533
v -0.016275 0.002521 0.003522
v -0.015623 0.002521 0.003522
v -0.016343 0.002299 0.003349
v -0.015555 0.002299 0.003349
v -0.016331 0.002521 0.003342
v -0.015567 0.002521 0.003342
v -0.016363 0.002299 0.003144
v -0.015535 0.002299 0.003144
v -0.016350 0.002521 0.003144
v -0.015548 0.002521 0.003144
v -0.016331 0.002521 0.002945
v -0.015567 0.002521 0.002945
v -0.016343 0.002299 0.002939
v -0.015555 0.002299 0.002939
v -0.016275 0.002521 0.002765
v -0.015623 0.002521 0.002765
v -0.016284 0.002299 0.002754
v -0.015614 0.002299 0.002754
v -0.016186 0.002521 0.002620
v -0.015712 0.002521 0.002620
v -0.016192 0.002299 0.002607
v -0.015706 0.002299 0.002607
v -0.016074 0.002521 0.002526
v -0.015824 0.002521 0.002526
v -0.016077 0.002299 0.002513
v -0.015821 0.002299 0.002513
v -0.015949 0.002521 0.002494
v -0.015949 0.002299 0.002480
v -0.015949 0.002291 0.003925
v -0.015949 0.002299 0.003807
v -0.016100 0.002292 0.003886
v -0.015798 0.002292 0.003886
v -0.016077 0.002299 0.003774
v -0.015821 0.002299 0.003774
v -0.016235 0.002292 0.003773
v -0.015663 0.002292 0.003773
v -0.016192 0.002299 0.003680
v -0.015706 0.002299 0.003680
v -0.016341 0.002292 0.003599
v -0.015557 0.002292 0.003599
v -0.016284 0.002299 0.003533
v -0.015614 0.002299 0.003533
v -0.016408 0.002292 0.003383
v -0.015490 0.002292 0.003383
v -0.016343 0.002299 0.003349
v -0.015555 0.002299 0.003349
v -0.016432 0.002291 0.003144
v -0.015466 0.002291 0.003144
v -0.016363 0.002299 0.003144
v -0.015535 0.002299 0.003144
v -0.016343 0.002299 0.002939
v -0.015555 0.002299 0.002939
v -0.016408 0.002292 0.002905
v -0.015490 0.002292 0.002905
v -0.016284 0.002299 0.002754
v -0.015614 0.002299 0.002754
v -0.016341 0.002292 0.002688
v -0.015557 0.002292 0.002688
v -0.016192 0.002299 0.002607
v -0.015706 0.002299 0.002607
v -0.016235 0.002292 0.002514
v -0.015663 0.002292 0.002514
v -0.016077 0.002299 0.002513
v -0.015821 0.002299 0.002513
v -0.016100 0.002292 0.002401
v -0.015798 0.002292 0.002401
v -0.015949 0.002299 0.002480
v -0.015949 0.002291 0.002362
v -0.015949 0.001133 0.004002
v -0.015949 0.001188 0.003939
v -0.016115 0.001133 0.003960
v -0.015783 0.001133 0.003960
v -0.016102 0.001188 0.003900
v -0.015796 0.001188 0.003900
v -0.016264 0.001133 0.003838
v -0.015634 0.001133 0.003838
v -0.016241 0.001188 0.003787
v -0.015657 0.001188 0.003787
v -0.016383 0.001133 0.003648
v -0.015515 0.001133 0.003648
v -0.016351 0.001188 0.003611
v -0.015547 0.001188 0.003611
v -0.016459 0.001133 0.003409
v -0.015439 0.001133 0.003409
v -0.016421 0.001188 0.003389
v -0.015477 0.001188 0.003389
v -0.016485 0.001133 0.003144
v -0.015413 0.001133 0.003144
v -0.016445 0.001188 0.003144
v -0.015453 0.001188 0.003144
v -0.016421 0.001188 0.002898
v -0.015477 0.001188 0.002898
v -0.016459 0.001133 0.002878
v -0.015439 0.001133 0.002878
v -0.016351 0.001188 0.002676
v -0.015547 0.001188 0.002676
v -0.016383 0.001133 0.002639
v -0.015515 0.001133 0.002639
v -0.016241 0.001188 0.002501
v -0.015657 0.001188 0.002501
v -0.016264 0.001133 0.002449
v -0.015634 0.001133 0.002449
v -0.016102 0.001188 0.002387
v -0.015796 0.001188 0.002387
v -0.016115 0.001133 0.002327
v -0.015783 0.001133 0.002327
v -0.015949 0.001188 0.002349
v -0.015949 0.001133 0.002285
v -0.015557 0.002292 0.003599
v -0.015663 0.002292 0.003773
v -0.015547 0.001188 0.003611
v -0.015477 0.001188 0.003389
v -0.015657 0.001188 0.003787
v -0.015490 0.002292 0.003383
v -0.015798 0.002292 0.003886
v -0.015453 0.001188 0.003144
v -0.015796 0.001188 0.003900
v -0.015466 0.002291 0.003144
v -0.015949 0.002291 0.003925
v -0.015490 0.002292 0.002905
v -0.015949 0.001188 0.003939
v -0.015477 0.001188 0.002898
v -0.016102 0.001188 0.003900
v -0.015557 0.002292 0.002688
v -0.016100 0.002292 0.003886
v -0.015547 0.001188 0.002676
v -0.016241 0.001188 0.003787
v -0.015663 0.002292 0.002514
v -0.016235 0.002292 0.003773
v -0.015657 0.001188 0.002501
v -0.016351 0.001188 0.003611
v -0.015798 0.002292 0.002401
v -0.016341 0.002292 0.003599
v -0.015796 0.001188 0.002387
v -0.016421 0.001188 0.003389
v -0.015949 0.002291 0.002362
v -0.016408 0.002292 0.003383
v -0.015949 0.001188 0.002349
v -0.016445 0.001188 0.003144
v -0.016102 0.001188 0.002387
v -0.016432 0.002291 0.003144
v -0.016100 0.002292 0.002401
v -0.016408 0.002292 0.002905
v -0.016241 0.001188 0.002501
v -0.016421 0.001188 0.002898
v -0.016235 0.002292 0.002514
v -0.016341 0.002292 0.002688
v -0.016351 0.001188 0.002676
v -0.015699 0.001319 0.005004
v -0.015717 0.001319 0.005137
v -0.015696 0.001173 0.005004
v -0.015717 0.001319 0.004872
v -0.015715 0.001173 0.005138
v -0.015715 0.001173 0.004870
v -0.015771 0.001319 0.005251
v -0.015770 0.001173 0.005252
v -0.015853 0.001319 0.005329
v -0.015853 0.001173 0.005329
v -0.015951 0.001319 0.005356
v -0.015951 0.001173 0.005356
v -0.016049 0.001319 0.005329
v -0.016049 0.001173 0.005329
v -0.016132 0.001173 0.005252
v -0.016131 0.001319 0.005251
v -0.016187 0.001173 0.005138
v -0.016185 0.001319 0.005137
v -0.016206 0.001173 0.005004
v -0.016204 0.001319 0.005004
v -0.016185 0.001319 0.004872
v -0.016187 0.001173 0.004870
v -0.016131 0.001319 0.004758
v -0.016132 0.001173 0.004756
v -0.016049 0.001319 0.004680
v -0.016049 0.001173 0.004680
v -0.015951 0.001319 0.004653
v -0.015951 0.001173 0.004653
v -0.015853 0.001319 0.004680
v -0.015853 0.001173 0.004680
v -0.015770 0.001173 0.004756
v -0.015771 0.001319 0.004758
v -0.015715 0.001173 0.004870
v -0.015717 0.001319 0.004872
v -0.015771 0.001319 0.004758
v -0.015771 0.001319 0.005251
v -0.015717 0.001319 0.004872
v -0.015853 0.001319 0.005329
v -0.015717 0.001319 0.005137
v -0.015699 0.001319 0.005004
v -0.015853 0.001319 0.004680
v -0.015951 0.001319 0.005356
v -0.015951 0.001319 0.004653
v -0.016049 0.001319 0.004680
v -0.016049 0.001319 0.005329
v -0.016131 0.001319 0.005251
v -0.016131 0.001319 0.004758
v -0.016185 0.001319 0.005137
v -0.016185 0.001319 0.004872
v -0.016204 0.001319 0.005004
v -0.015696 0.001173 0.005004
v -0.015715 0.001173 0.005138
v -0.015661 0.001131 0.005004
v -0.015715 0.001173 0.004870
v -0.015683 0.001131 0.005157
v -0.015683 0.001131 0.004852
v -0.015770 0.001173 0.005252
v -0.015746 0.001131 0.005286
v -0.015853 0.001173 0.005329
v -0.015840 0.001131 0.005372
v -0.015951 0.001173 0.005356
v -0.015951 0.001131 0.005402
v -0.016062 0.001131 0.005372
v -0.016049 0.001173 0.005329
v -0.016156 0.001131 0.005286
v -0.016132 0.001173 0.005252
v -0.016219 0.001131 0.005157
v -0.016187 0.001173 0.005138
v -0.016241 0.001131 0.005004
v -0.016206 0.001173 0.005004
v -0.016187 0.001173 0.004870
v -0.016219 0.001131 0.004852
v -0.016132 0.001173 0.004756
v -0.016156 0.001131 0.004723
v -0.016049 0.001173 0.004680
v -0.016062 0.001131 0.004637
v -0.015951 0.001173 0.004653
v -0.015951 0.001131 0.004606
v -0.015840 0.001131 0.004637
v -0.015853 0.001173 0.004680
v -0.015746 0.001131 0.004723
v -0.015770 0.001173 0.004756
v -0.015683 0.001131 0.004852
v -0.015715 0.001173 0.004870
v -0.015027 0.000833 0.002291
v -0.015158 0.000855 0.002291
v -0.015027 0.000833 0.004314
v -0.015174 0.000855 0.000906
v -0.015158 0.000855 0.004337
v -0.015040 0.000834 0.000747
v -0.015158 0.000855 0.006174
v -0.015939 0.000832 0.000733
v -0.015027 0.000833 0.006222
v -0.015939 0.000855 0.000893
v -0.015185 0.000855 0.006668
v -0.016703 0.000855 0.000906
v -0.015058 0.000833 0.006735
v -0.016838 0.000834 0.000747
v -0.015251 0.000844 0.007101
v -0.016851 0.000833 0.002291
v -0.015136 0.000822 0.007192
v -0.016719 0.000855 0.002291
v -0.015332 0.000836 0.007493
v -0.016851 0.000833 0.004314
v -0.015227 0.000815 0.007585
v -0.016719 0.000855 0.004337
v -0.015426 0.000829 0.007850
v -0.016719 0.000855 0.006174
v -0.015340 0.000808 0.007965
v -0.016850 0.000833 0.006222
v -0.015538 0.000824 0.008183
v -0.016692 0.000855 0.006668
v -0.015471 0.000803 0.008311
v -0.016819 0.000833 0.006735
v -0.015669 0.000816 0.008498
v -0.016627 0.000844 0.007101
v -0.015624 0.000795 0.008639
v -0.016741 0.000822 0.007192
v -0.015802 0.000808 0.008775
v -0.016546 0.000836 0.007493
v -0.015780 0.000788 0.008927
v -0.016650 0.000815 0.007585
v -0.015939 0.000800 0.008996
v -0.016452 0.000829 0.007850
v -0.015939 0.000779 0.009172
v -0.016538 0.000808 0.007965
v -0.016098 0.000788 0.008927
v -0.016339 0.000824 0.008183
v -0.016075 0.000808 0.008775
v -0.016406 0.000803 0.008311
v -0.016253 0.000795 0.008639
v -0.016209 0.000816 0.008498
v -0.014951 0.000290 0.000740
v -0.014978 0.000562 0.000740
v -0.014940 0.000290 0.002291
v -0.014955 0.000000 0.000740
v -0.014966 0.000562 0.002291
v -0.014943 0.000000 0.002291
v -0.015040 0.000834 0.000747
v -0.014943 0.000000 0.004313
v -0.015027 0.000833 0.002291
v -0.014940 0.000290 0.004313
v -0.014966 0.000562 0.004313
v -0.015027 0.000833 0.004314
v -0.014951 0.000290 0.000740
v -0.015939 0.000290 0.000728
v -0.014978 0.000562 0.000740
v -0.014955 0.000000 0.000740
v -0.015939 0.000565 0.000728
v -0.015939 0.000000 0.000728
v -0.015040 0.000834 0.000747
v -0.016900 0.000562 0.000740
v -0.016922 0.000000 0.000740
v -0.015939 0.000832 0.000733
v -0.016926 0.000290 0.000740
v -0.016838 0.000834 0.000747
v -0.015217 0.000980 0.000904
v -0.015939 0.000980 0.000893
v -0.015286 0.001127 0.000916
v -0.015939 0.000855 0.000893
v -0.015939 0.001126 0.000904
v -0.015174 0.000855 0.000906
v -0.016591 0.001127 0.000916
v -0.016660 0.000980 0.000904
v -0.016703 0.000855 0.000906
v -0.015217 0.000980 0.000904
v -0.015286 0.001127 0.000916
v -0.015204 0.000980 0.002291
v -0.015174 0.000855 0.000906
v -0.015273 0.001127 0.002291
v -0.015158 0.000855 0.002291
v -0.015204 0.000980 0.004337
v -0.015158 0.000855 0.004337
v -0.015262 0.001121 0.004337
v -0.015707 0.001120 0.008410
v -0.015939 0.001131 0.008407
v -0.015822 0.001120 0.008637
v -0.015939 0.001131 0.008108
v -0.015939 0.001131 0.008612
v -0.015593 0.001120 0.008110
v -0.015939 0.001120 0.008822
v -0.016055 0.001120 0.008637
v -0.015939 0.001131 0.007792
v -0.016170 0.001120 0.008410
v -0.015495 0.001120 0.007794
v -0.016284 0.001120 0.008110
v -0.015939 0.001131 0.007497
v -0.016382 0.001120 0.007794
v -0.015419 0.001120 0.007493
v -0.016459 0.001120 0.007493
v -0.015939 0.001131 0.007104
v -0.015343 0.001120 0.007104
v -0.016534 0.001120 0.007104
v -0.015939 0.001133 0.006668
v -0.015286 0.001120 0.006668
v -0.016592 0.001120 0.006668
v -0.015939 0.001133 0.006174
v -0.015262 0.001121 0.006174
v -0.016615 0.001121 0.006174
v -0.015262 0.001121 0.004337
v -0.016615 0.001121 0.004337
v -0.015939 0.001133 0.004337
v -0.015273 0.001127 0.002291
v -0.016604 0.001127 0.002291
v -0.015939 0.001133 0.002291
v -0.015286 0.001127 0.000916
v -0.016591 0.001127 0.000916
v -0.015939 0.001126 0.000904
v -0.015593 0.000290 0.008741
v -0.015764 0.000291 0.009075
v -0.015595 0.000000 0.008775
v -0.015769 0.000563 0.009014
v -0.015765 0.000000 0.009123
v -0.015602 0.000563 0.008699
v -0.015428 0.000000 0.008400
v -0.015939 0.000557 0.009266
v -0.015939 0.000293 0.009339
v -0.015780 0.000788 0.008927
v -0.015426 0.000290 0.008381
v -0.015939 0.000000 0.009397
v -0.015624 0.000795 0.008639
v -0.015284 0.000000 0.008004
v -0.015939 0.000779 0.009172
v -0.015539 0.000476 0.008583
v -0.015282 0.000290 0.007999
v -0.015546 0.000628 0.008558
v -0.015508 0.000419 0.008528
v -0.015159 0.000000 0.007588
v -0.015553 0.000553 0.008597
v -0.015155 0.000290 0.007586
v -0.015459 0.000384 0.008433
v -0.015520 0.000684 0.008483
v -0.015176 0.000563 0.007588
v -0.015412 0.000384 0.008322
v -0.015471 0.000803 0.008311
v -0.015084 0.000563 0.007206
v -0.015370 0.000419 0.008202
v -0.015476 0.000719 0.008376
v -0.015061 0.000290 0.007205
v -0.015345 0.000474 0.008125
v -0.015429 0.000719 0.008262
v -0.015063 0.000000 0.007196
v -0.015299 0.000563 0.007988
v -0.015383 0.000684 0.008158
v -0.014999 0.000562 0.006738
v -0.015340 0.000808 0.007965
v -0.015337 0.000553 0.008088
v -0.014974 0.000290 0.006738
v -0.015352 0.000627 0.008099
v -0.014966 0.000562 0.006224
v -0.014977 0.000000 0.006738
v -0.015136 0.000822 0.007192
v -0.014940 0.000290 0.006224
v -0.015227 0.000815 0.007585
v -0.015058 0.000833 0.006735
v -0.015027 0.000833 0.006222
v -0.014940 0.000290 0.004313
v -0.014966 0.000562 0.004313
v -0.014943 0.000000 0.006224
v -0.015027 0.000833 0.004314
v -0.014943 0.000000 0.004313
v -0.015802 0.000808 0.008775
v -0.015669 0.000816 0.008498
v -0.015810 0.000980 0.008718
v -0.015939 0.000980 0.008918
v -0.015685 0.000980 0.008453
v -0.015939 0.001120 0.008822
v -0.015939 0.000800 0.008996
v -0.015538 0.000824 0.008183
v -0.015822 0.001120 0.008637
v -0.015561 0.000980 0.008146
v -0.015707 0.001120 0.008410
v -0.015426 0.000829 0.007850
v -0.015593 0.001120 0.008110
v -0.015456 0.000980 0.007822
v -0.015332 0.000836 0.007493
v -0.015495 0.001120 0.007794
v -0.015369 0.000980 0.007491
v -0.015291 0.000980 0.007105
v -0.015419 0.001120 0.007493
v -0.015251 0.000844 0.007101
v -0.015343 0.001120 0.007104
v -0.015229 0.000980 0.006668
v -0.015286 0.001120 0.006668
v -0.015185 0.000855 0.006668
v -0.015262 0.001121 0.006174
v -0.015204 0.000980 0.006174
v -0.015158 0.000855 0.006174
v -0.015262 0.001121 0.004337
v -0.015204 0.000980 0.004337
v -0.015158 0.000855 0.004337
v -0.014943 0.000000 0.002291
v -0.015939 0.000000 0.002291
v -0.014955 0.000000 0.000740
v -0.015939 0.000000 0.004313
v -0.015939 0.000000 0.000728
v -0.014943 0.000000 0.004313
v -0.016922 0.000000 0.000740
v -0.015939 0.000000 0.006224
v -0.016934 0.000000 0.002291
v -0.014943 0.000000 0.006224
v -0.016934 0.000000 0.004313
v -0.014977 0.000000 0.006738
v -0.016934 0.000000 0.006224
v -0.015939 0.000000 0.006738
v -0.016900 0.000000 0.006738
v -0.015063 0.000000 0.007196
v -0.016814 0.000000 0.007196
v -0.015939 0.000000 0.007195
v -0.015159 0.000000 0.007588
v -0.016719 0.000000 0.007588
v -0.015939 0.000000 0.007589
v -0.015284 0.000000 0.008004
v -0.016593 0.000000 0.008004
v -0.015939 0.000000 0.008004
v -0.015428 0.000000 0.008400
v -0.016450 0.000000 0.008400
v -0.015939 0.000000 0.008400
v -0.015595 0.000000 0.008775
v -0.016283 0.000000 0.008775
v -0.015939 0.000000 0.008775
v -0.015765 0.000000 0.009123
v -0.016113 0.000000 0.009123
v -0.015939 0.000000 0.009129
v -0.015939 0.000000 0.009397
v -0.015483 0.000391 0.008420
v -0.015437 0.000392 0.008313
v -0.015497 0.000706 0.008364
v -0.015539 0.000675 0.008464
v -0.015452 0.000706 0.008255
v -0.015527 0.000423 0.008508
v -0.015398 0.000423 0.008203
v -0.015566 0.000619 0.008540
v -0.015410 0.000675 0.008157
v -0.015560 0.000479 0.008564
v -0.015573 0.000549 0.008578
v -0.015372 0.000479 0.008122
v -0.015378 0.000618 0.008098
v -0.015364 0.000549 0.008087
v -0.015437 0.000392 0.008313
v -0.015483 0.000391 0.008420
v -0.015412 0.000384 0.008322
v -0.015398 0.000423 0.008203
v -0.015459 0.000384 0.008433
v -0.015370 0.000419 0.008202
v -0.015527 0.000423 0.008508
v -0.015372 0.000479 0.008122
v -0.015508 0.000419 0.008528
v -0.015345 0.000474 0.008125
v -0.015560 0.000479 0.008564
v -0.015364 0.000549 0.008087
v -0.015337 0.000553 0.008088
v -0.015539 0.000476 0.008583
v -0.015573 0.000549 0.008578
v -0.015553 0.000553 0.008597
v -0.015452 0.000706 0.008255
v -0.015429 0.000719 0.008262
v -0.015497 0.000706 0.008364
v -0.015410 0.000675 0.008157
v -0.015476 0.000719 0.008376
v -0.015383 0.000684 0.008158
v -0.015539 0.000675 0.008464
v -0.015378 0.000618 0.008098
v -0.015520 0.000684 0.008483
v -0.015352 0.000627 0.008099
v -0.015566 0.000619 0.008540
v -0.015337 0.000553 0.008088
v -0.015364 0.000549 0.008087
v -0.015546 0.000628 0.008558
v -0.015573 0.000549 0.008578
v -0.015553 0.000553 0.008597
v -0.016926 0.000290 0.000740
v -0.016938 0.000290 0.002291
v -0.016900 0.000562 0.000740
v -0.016922 0.000000 0.000740
v -0.016912 0.000562 0.002291
v -0.016934 0.000000 0.002291
v -0.016838 0.000834 0.000747
v -0.016934 0.000000 0.004313
v -0.016851 0.000833 0.002291
v -0.016938 0.000290 0.004313
v -0.016912 0.000562 0.004313
v -0.016851 0.000833 0.004314
v -0.016660 0.000980 0.000904
v -0.016673 0.000980 0.002291
v -0.016591 0.001127 0.000916
v -0.016703 0.000855 0.000906
v -0.016604 0.001127 0.002291
v -0.016719 0.000855 0.002291
v -0.016673 0.000980 0.004337
v -0.016719 0.000855 0.004337
v -0.016615 0.001121 0.004337
v -0.016113 0.000000 0.009123
v -0.016113 0.000291 0.009075
v -0.016283 0.000000 0.008775
v -0.015939 0.000293 0.009339
v -0.016284 0.000290 0.008741
v -0.015939 0.000000 0.009397
v -0.016450 0.000000 0.008400
v -0.016109 0.000563 0.009014
v -0.015939 0.000557 0.009266
v -0.016452 0.000290 0.008381
v -0.016275 0.000563 0.008699
v -0.015939 0.000779 0.009172
v -0.016593 0.000000 0.008004
v -0.016338 0.000476 0.008583
v -0.016098 0.000788 0.008927
v -0.016595 0.000290 0.007999
v -0.016370 0.000419 0.008528
v -0.016253 0.000795 0.008639
v -0.016719 0.000000 0.007588
v -0.016324 0.000553 0.008597
v -0.016508 0.000419 0.008202
v -0.016331 0.000628 0.008558
v -0.016723 0.000290 0.007586
v -0.016466 0.000384 0.008322
v -0.016817 0.000290 0.007205
v -0.016701 0.000563 0.007588
v -0.016357 0.000684 0.008483
v -0.016418 0.000384 0.008433
v -0.016578 0.000563 0.007988
v -0.016794 0.000563 0.007206
v -0.016538 0.000808 0.007965
v -0.016532 0.000474 0.008125
v -0.016814 0.000000 0.007196
v -0.016741 0.000822 0.007192
v -0.016541 0.000553 0.008088
v -0.016878 0.000562 0.006738
v -0.016526 0.000627 0.008099
v -0.016650 0.000815 0.007585
v -0.016904 0.000290 0.006738
v -0.016494 0.000684 0.008158
v -0.016912 0.000562 0.006224
v -0.016819 0.000833 0.006735
v -0.016900 0.000000 0.006738
v -0.016406 0.000803 0.008311
v -0.016850 0.000833 0.006222
v -0.016934 0.000000 0.006224
v -0.016449 0.000719 0.008262
v -0.016912 0.000562 0.004313
v -0.016938 0.000290 0.006224
v -0.016402 0.000719 0.008376
v -0.016851 0.000833 0.004314
v -0.016938 0.000290 0.004313
v -0.016934 0.000000 0.004313
v -0.016075 0.000808 0.008775
v -0.016067 0.000980 0.008718
v -0.016209 0.000816 0.008498
v -0.015939 0.000980 0.008918
v -0.016193 0.000980 0.008453
v -0.015939 0.000800 0.008996
v -0.016339 0.000824 0.008183
v -0.016055 0.001120 0.008637
v -0.015939 0.001120 0.008822
v -0.016316 0.000980 0.008146
v -0.016170 0.001120 0.008410
v -0.016452 0.000829 0.007850
v -0.016284 0.001120 0.008110
v -0.016422 0.000980 0.007822
v -0.016546 0.000836 0.007493
v -0.016382 0.001120 0.007794
v -0.016508 0.000980 0.007491
v -0.016586 0.000980 0.007105
v -0.016459 0.001120 0.007493
v -0.016534 0.001120 0.007104
v -0.016627 0.000844 0.007101
v -0.016592 0.001120 0.006668
v -0.016648 0.000980 0.006668
v -0.016692 0.000855 0.006668
v -0.016615 0.001121 0.006174
v -0.016673 0.000980 0.006174
v -0.016719 0.000855 0.006174
v -0.016615 0.001121 0.004337
v -0.016673 0.000980 0.004337
v -0.016719 0.000855 0.004337
v -0.016425 0.000706 0.008255
v -0.016440 0.000392 0.008313
v -0.016380 0.000706 0.008364
v -0.016479 0.000423 0.008203
v -0.016394 0.000391 0.008420
v -0.016468 0.000675 0.008157
v -0.016339 0.000675 0.008464
v -0.016505 0.000479 0.008122
v -0.016350 0.000423 0.008508
v -0.016499 0.000618 0.008098
v -0.016513 0.000549 0.008087
v -0.016312 0.000619 0.008540
v -0.016318 0.000479 0.008564
v -0.016304 0.000549 0.008578
v -0.016440 0.000392 0.008313
v -0.016466 0.000384 0.008322
v -0.016394 0.000391 0.008420
v -0.016479 0.000423 0.008203
v -0.016418 0.000384 0.008433
v -0.016508 0.000419 0.008202
v -0.016350 0.000423 0.008508
v -0.016505 0.000479 0.008122
v -0.016370 0.000419 0.008528
v -0.016532 0.000474 0.008125
v -0.016318 0.000479 0.008564
v -0.016513 0.000549 0.008087
v -0.016541 0.000553 0.008088
v -0.016338 0.000476 0.008583
v -0.016304 0.000549 0.008578
v -0.016324 0.000553 0.008597
v -0.016402 0.000719 0.008376
v -0.016449 0.000719 0.008262
v -0.016380 0.000706 0.008364
v -0.016339 0.000675 0.008464
v -0.016425 0.000706 0.008255
v -0.016357 0.000684 0.008483
v -0.016468 0.000675 0.008157
v -0.016312 0.000619 0.008540
v -0.016494 0.000684 0.008158
v -0.016331 0.000628 0.008558
v -0.016499 0.000618 0.008098
v -0.016304 0.000549 0.008578
v -0.016324 0.000553 0.008597
v -0.016526 0.000627 0.008099
v -0.016541 0.000553 0.008088
v -0.016513 0.000549 0.008087
v -0.015699 0.001319 0.006402
v -0.015717 0.001319 0.006535
v -0.015696 0.001173 0.006402
v -0.015717 0.001319 0.006269
v -0.015715 0.001173 0.006536
v -0.015715 0.001173 0.006268
v -0.015771 0.001319 0.006649
v -0.015770 0.001173 0.006650
v -0.015853 0.001319 0.006726
v -0.015853 0.001173 0.006726
v -0.015951 0.001319 0.006754
v -0.015951 0.001173 0.006753
v -0.016049 0.001319 0.006726
v -0.016049 0.001173 0.006726
v -0.016132 0.001173 0.006650
v -0.016131 0.001319 0.006649
v -0.016187 0.001173 0.006536
v -0.016185 0.001319 0.006535
v -0.016206 0.001173 0.006402
v -0.016204 0.001319 0.006402
v -0.016185 0.001319 0.006269
v -0.016187 0.001173 0.006268
v -0.016131 0.001319 0.006155
v -0.016132 0.001173 0.006154
v -0.016049 0.001319 0.006078
v -0.016049 0.001173 0.006078
v -0.015951 0.001319 0.006050
v -0.015951 0.001173 0.006051
v -0.015853 0.001319 0.006078
v -0.015853 0.001173 0.006078
v -0.015770 0.001173 0.006154
v -0.015771 0.001319 0.006155
v -0.015715 0.001173 0.006268
v -0.015717 0.001319 0.006269
v -0.015771 0.001319 0.006155
v -0.015771 0.001319 0.006649
v -0.015717 0.001319 0.006269
v -0.015853 0.001319 0.006726
v -0.015717 0.001319 0.006535
v -0.015699 0.001319 0.006402
v -0.015853 0.001319 0.006078
v -0.015951 0.001319 0.006754
v -0.015951 0.001319 0.006050
v -0.016049 0.001319 0.006078
v -0.016049 0.001319 0.006726
v -0.016131 0.001319 0.006649
v -0.016131 0.001319 0.006155
v -0.016185 0.001319 0.006535
v -0.016185 0.001319 0.006269
v -0.016204 0.001319 0.006402
v -0.015696 0.001173 0.006402
v -0.015715 0.001173 0.006536
v -0.015661 0.001131 0.006402
v -0.015715 0.001173 0.006268
v -0.015683 0.001131 0.006554
v -0.015683 0.001131 0.006250
v -0.015770 0.001173 0.006650
v -0.015746 0.001131 0.006683
v -0.015853 0.001173 0.006726
v -0.015840 0.001131 0.006770
v -0.015951 0.001173 0.006753
v -0.015951 0.001131 0.006800
v -0.016062 0.001131 0.006770
v -0.016049 0.001173 0.006726
v -0.016156 0.001131 0.006683
v -0.016132 0.001173 0.006650
v -0.016219 0.001131 0.006554
v -0.016187 0.001173 0.006536
v -0.016241 0.001131 0.006402
v -0.016206 0.001173 0.006402
v -0.016187 0.001173 0.006268
v -0.016219 0.001131 0.006250
v -0.016132 0.001173 0.006154
v -0.016156 0.001131 0.006121
v -0.016049 0.001173 0.006078
v -0.016062 0.001131 0.006034
v -0.015951 0.001173 0.006051
v -0.015951 0.001131 0.006004
v -0.015840 0.001131 0.006034
v -0.015853 0.001173 0.006078
v -0.015746 0.001131 0.006121
v -0.015770 0.001173 0.006154
v -0.015683 0.001131 0.006250
v -0.015715 0.001173 0.006268
v -0.015699 0.001319 0.001622
v -0.015717 0.001319 0.001755
v -0.015696 0.001173 0.001622
v -0.015717 0.001319 0.001489
v -0.015715 0.001173 0.001756
v -0.015715 0.001173 0.001488
v -0.015771 0.001319 0.001868
v -0.015770 0.001173 0.001870
v -0.015853 0.001319 0.001946
v -0.015853 0.001173 0.001946
v -0.015951 0.001319 0.001973
v -0.015951 0.001173 0.001973
v -0.016049 0.001319 0.001946
v -0.016049 0.001173 0.001946
v -0.016132 0.001173 0.001870
v -0.016131 0.001319 0.001868
v -0.016187 0.001173 0.001756
v -0.016185 0.001319 0.001755
v -0.016206 0.001173 0.001622
v -0.016204 0.001319 0.001622
v -0.016185 0.001319 0.001489
v -0.016187 0.001173 0.001488
v -0.016131 0.001319 0.001375
v -0.016132 0.001173 0.001374
v -0.016049 0.001319 0.001298
v -0.016049 0.001173 0.001297
v -0.015951 0.001319 0.001270
v -0.015951 0.001173 0.001270
v -0.015853 0.001319 0.001298
v -0.015853 0.001173 0.001297
v -0.015770 0.001173 0.001374
v -0.015771 0.001319 0.001375
v -0.015715 0.001173 0.001488
v -0.015717 0.001319 0.001489
v -0.015771 0.001319 0.001375
v -0.015771 0.001319 0.001868
v -0.015717 0.001319 0.001489
v -0.015853 0.001319 0.001946
v -0.015717 0.001319 0.001755
v -0.015699 0.001319 0.001622
v -0.015853 0.001319 0.001298
v -0.015951 0.001319 0.001973
v -0.015951 0.001319 0.001270
v -0.016049 0.001319 0.001298
v -0.016049 0.001319 0.001946
v -0.016131 0.001319 0.001868
v -0.016131 0.001319 0.001375
v -0.016185 0.001319 0.001755
v -0.016185 0.001319 0.001489
v -0.016204 0.001319 0.001622
v -0.015696 0.001173 0.001622
v -0.015715 0.001173 0.001756
v -0.015661 0.001131 0.001622
v -0.015715 0.001173 0.001488
v -0.015683 0.001131 0.001774
v -0.015683 0.001131 0.001469
v -0.015770 0.001173 0.001870
v -0.015746 0.001131 0.001903
v -0.015853 0.001173 0.001946
v -0.015840 0.001131 0.001989
v -0.015951 0.001173 0.001973
v -0.015951 0.001131 0.002020
v -0.016062 0.001131 0.001989
v -0.016049 0.001173 0.001946
v -0.016156 0.001131 0.001903
v -0.016132 0.001173 0.001870
v -0.016219 0.001131 0.001774
v -0.016187 0.001173 0.001756
v -0.016241 0.001131 0.001622
v -0.016206 0.001173 0.001622
v -0.016187 0.001173 0.001488
v -0.016219 0.001131 0.001469
v -0.016132 0.001173 0.001374
v -0.016156 0.001131 0.001340
v -0.016049 0.001173 0.001297
v -0.016062 0.001131 0.001254
v -0.015951 0.001173 0.001270
v -0.015951 0.001131 0.001224
v -0.015840 0.001131 0.001254
v -0.015853 0.001173 0.001297
v -0.015746 0.001131 0.001340
v -0.015770 0.001173 0.001374
v -0.015683 0.001131 0.001469
v -0.015715 0.001173 0.001488
vn -0.0001 1.0000 -0.0000
vn -0.0014 1.0000 -0.0000
vn -0.0019 1.0000 -0.0000
vn -0.0025 1.0000 -0.0000
vn 0.0005 1.0000 -0.0000
vn -0.0000 1.0000 -0.0000
vn -0.0005 1.0000 -0.0000
vn -0.0002 1.0000 -0.0000
vn 0.0001 1.0000 -0.0000
vn 0.0017 1.0000 -0.0000
vn 0.0025 1.0000 -0.0000
vn -0.0000 0.0613 0.9981
vn -0.4534 0.0606 0.8892
vn 0.4535 0.0606 0.8892
vn -0.4535 0.0606 0.8892
vn -0.7528 0.0595 0.6555
vn 0.7528 0.0595 0.6555
vn -0.7529 0.0595 0.6555
vn 0.7529 0.0595 0.6555
vn -0.9077 0.0589 0.4154
vn 0.9077 0.0589 0.4154
vn -0.9078 0.0589 0.4153
vn 0.9078 0.0589 0.4153
vn -0.9781 0.0585 0.1998
vn 0.9781 0.0585 0.1998
vn -0.9781 0.0585 0.1997
vn 0.9781 0.0585 0.1997
vn -0.9983 0.0583 -0.0000
vn 0.9983 0.0583 -0.0000
vn -0.9983 0.0584 -0.0000
vn 0.9983 0.0584 -0.0000
vn -0.9781 0.0585 -0.1997
vn 0.9781 0.0585 -0.1998
vn -0.9781 0.0585 -0.1998
vn -0.9078 0.0589 -0.4153
vn 0.9078 0.0589 -0.4153
vn -0.7529 0.0595 -0.6555
vn 0.7529 0.0595 -0.6555
vn -0.4535 0.0607 -0.8892
vn 0.4535 0.0606 -0.8892
vn -0.4534 0.0606 -0.8892
vn 0.4534 0.0606 -0.8892
vn -0.0000 0.0614 -0.9981
vn -0.0000 0.9977 0.0677
vn -0.0338 0.9973 0.0646
vn 0.0339 0.9973 0.0646
vn -0.0339 0.9973 0.0646
vn -0.0652 0.9963 0.0554
vn 0.0652 0.9963 0.0554
vn -0.0652 0.9963 0.0553
vn -0.0913 0.9950 0.0408
vn 0.0913 0.9950 0.0408
vn -0.0913 0.9950 0.0407
vn 0.0913 0.9950 0.0407
vn -0.1092 0.9938 0.0217
vn 0.1092 0.9938 0.0217
vn 0.1093 0.9938 0.0217
vn -0.1157 0.9933 -0.0000
vn 0.1161 0.9932 -0.0000
vn -0.1156 0.9933 -0.0000
vn 0.1157 0.9933 -0.0000
vn -0.1092 0.9938 -0.0217
vn 0.1092 0.9938 -0.0217
vn -0.0913 0.9950 -0.0407
vn 0.0913 0.9950 -0.0407
vn -0.0913 0.9950 -0.0408
vn 0.0913 0.9950 -0.0408
vn -0.0652 0.9963 -0.0554
vn 0.0652 0.9963 -0.0554
vn 0.0651 0.9963 -0.0554
vn -0.0339 0.9973 -0.0646
vn 0.0338 0.9973 -0.0646
vn -0.0338 0.9973 -0.0646
vn -0.0000 0.9977 -0.0677
vn -0.0000 0.7503 0.6611
vn -0.3127 0.7278 0.6103
vn 0.3127 0.7279 0.6103
vn -0.3127 0.7279 0.6103
vn -0.5551 0.6768 0.4835
vn 0.5551 0.6768 0.4835
vn -0.7088 0.6259 0.3252
vn 0.7088 0.6259 0.3252
vn -0.7895 0.5921 0.1619
vn 0.7895 0.5921 0.1618
vn -0.7895 0.5921 0.1618
vn -0.8142 0.5806 -0.0000
vn 0.8142 0.5806 -0.0000
vn -0.7895 0.5921 -0.1618
vn 0.7895 0.5921 -0.1618
vn -0.7088 0.6259 -0.3252
vn 0.7088 0.6259 -0.3252
vn -0.5551 0.6768 -0.4835
vn 0.5551 0.6768 -0.4835
vn -0.3127 0.7279 -0.6103
vn 0.3127 0.7279 -0.6103
vn -0.3126 0.7279 -0.6103
vn 0.3127 0.7278 -0.6103
vn -0.0000 0.7503 -0.6611
vn 0.9092 0.0123 0.4162
vn 0.7540 0.0124 0.6568
vn 0.9797 0.0122 0.2003
vn 0.7539 0.0124 0.6568
vn 0.9797 0.0122 0.2001
vn 0.4540 0.0126 0.8909
vn 0.9999 0.0124 -0.0000
vn 0.9999 0.0120 -0.0000
vn -0.0000 0.0127 0.9999
vn 0.9797 0.0122 -0.2001
vn -0.0000 0.0128 0.9999
vn 0.9797 0.0122 -0.2003
vn -0.4540 0.0126 0.8909
vn 0.9092 0.0123 -0.4162
vn 0.9092 0.0123 -0.4163
vn -0.7539 0.0124 0.6568
vn 0.7539 0.0124 -0.6568
vn -0.7540 0.0124 0.6568
vn -0.9092 0.0123 0.4162
vn 0.4540 0.0126 -0.8909
vn -0.9797 0.0122 0.2002
vn -0.0000 0.0132 -0.9999
vn -0.0000 0.0123 -0.9999
vn -0.9999 0.0120 -0.0000
vn -0.4540 0.0126 -0.8909
vn -0.9999 0.0123 -0.0000
vn -0.9797 0.0122 -0.2002
vn -0.7539 0.0124 -0.6568
vn -0.9797 0.0122 -0.2003
vn -0.9092 0.0123 -0.4162
vn -0.9092 0.0123 -0.4163
vn 0.9999 0.0166 -0.0000
vn 0.9569 0.0148 0.2902
vn 0.9999 0.0165 -0.0000
vn 0.9569 0.0148 -0.2902
vn 0.9568 0.0147 0.2903
vn 0.9569 0.0148 -0.2901
vn 0.8062 0.0097 0.5916
vn 0.8061 0.0096 0.5916
vn 0.4897 0.0028 0.8719
vn 0.4896 0.0027 0.8719
vn -0.0000 -0.0007 1.0000
vn -0.0000 -0.0008 1.0000
vn -0.4896 0.0028 0.8719
vn -0.4896 0.0027 0.8719
vn -0.8061 0.0096 0.5916
vn -0.8062 0.0096 0.5916
vn -0.9568 0.0148 0.2902
vn -0.9569 0.0148 0.2902
vn -0.9999 0.0165 -0.0000
vn -0.9999 0.0166 -0.0000
vn -0.9569 0.0148 -0.2902
vn -0.9568 0.0148 -0.2902
vn -0.8062 0.0096 -0.5916
vn -0.8062 0.0097 -0.5916
vn -0.4897 0.0028 -0.8719
vn -0.4896 0.0027 -0.8719
vn -0.0000 -0.0008 -1.0000
vn 0.4896 0.0027 -0.8719
vn 0.8061 0.0096 -0.5916
vn 0.8062 0.0097 -0.5916
vn 0.9568 0.0148 -0.2902
vn 0.0020 1.0000 -0.0000
vn -0.0006 1.0000 -0.0000
vn 0.0030 1.0000 -0.0000
vn 0.0006 1.0000 -0.0000
vn -0.0020 1.0000 -0.0000
vn -0.0030 1.0000 -0.0000
vn 0.7701 0.6379 -0.0000
vn 0.7266 0.6504 0.2214
vn 0.7699 0.6382 -0.0000
vn 0.7266 0.6504 -0.2214
vn 0.7266 0.6504 -0.2213
vn 0.5870 0.6844 0.4324
vn 0.3372 0.7249 0.6007
vn -0.0000 0.7440 0.6681
vn -0.0000 0.7440 0.6682
vn -0.3372 0.7249 0.6007
vn -0.5870 0.6844 0.4324
vn -0.7266 0.6504 0.2214
vn -0.7699 0.6382 -0.0000
vn -0.7701 0.6380 -0.0000
vn -0.7266 0.6504 -0.2214
vn -0.5870 0.6844 -0.4324
vn -0.3372 0.7249 -0.6007
vn -0.0000 0.7437 -0.6685
vn -0.0000 0.7439 -0.6682
vn 0.3372 0.7249 -0.6007
vn 0.5870 0.6844 -0.4324
vn 0.1597 0.9872 -0.0007
vn 0.1627 0.9867 -0.0000
vn 0.0796 0.9944 -0.0688
vn 0.1628 0.9867 -0.0000
vn 0.1624 0.9867 0.0045
vn -0.0000 0.9908 -0.1355
vn 0.1623 0.9867 0.0047
vn -0.0000 0.9908 -0.1354
vn 0.1538 0.9877 0.0286
vn -0.0796 0.9944 -0.0688
vn 0.1537 0.9877 0.0287
vn 0.1489 0.9876 0.0499
vn -0.1597 0.9872 -0.0007
vn 0.1489 0.9876 0.0497
vn -0.1596 0.9872 -0.0007
vn 0.1536 0.9865 0.0573
vn -0.1627 0.9867 -0.0000
vn 0.1536 0.9865 0.0574
vn -0.1628 0.9867 -0.0000
vn 0.1576 0.9852 0.0677
vn -0.1624 0.9867 0.0046
vn 0.1555 0.9845 0.0816
vn -0.1538 0.9877 0.0286
vn -0.1538 0.9877 0.0287
vn 0.1500 0.9839 0.0969
vn -0.1489 0.9876 0.0498
vn 0.1499 0.9839 0.0970
vn -0.1489 0.9876 0.0497
vn 0.1363 0.9847 0.1088
vn -0.1536 0.9865 0.0573
vn -0.1536 0.9865 0.0575
vn -0.0000 0.9933 0.1154
vn -0.1576 0.9852 0.0676
vn -0.7416 0.6179 0.2612
vn -0.1363 0.9847 0.1088
vn -0.1555 0.9845 0.0816
vn -0.7075 0.6367 0.3067
vn -0.6922 0.6246 0.3616
vn -0.1499 0.9839 0.0969
vn 0.9991 0.0418 -0.0075
vn 0.9873 0.1587 -0.0076
vn 0.9991 0.0413 -0.0038
vn 0.9999 -0.0129 -0.0075
vn 0.9874 0.1580 -0.0038
vn 0.9999 -0.0129 -0.0037
vn 0.9753 0.2207 -0.0078
vn 0.9999 -0.0129 -0.0000
vn 0.9755 0.2198 -0.0039
vn 0.9991 0.0413 -0.0000
vn 0.9875 0.1579 0.0001
vn 0.9756 0.2197 0.0002
vn 0.0117 0.0003 -0.9999
vn -0.0000 0.0001 -1.0000
vn 0.0125 0.0120 -0.9999
vn 0.0117 -0.0001 -0.9999
vn -0.0000 0.0119 -0.9999
vn -0.0000 -0.0000 -1.0000
vn 0.0132 0.0235 -0.9996
vn -0.0125 0.0120 -0.9999
vn -0.0117 -0.0001 -0.9999
vn -0.0000 0.0235 -0.9997
vn -0.0117 0.0003 -0.9999
vn -0.0132 0.0235 -0.9996
vn 0.0163 0.0389 -0.9991
vn -0.0000 0.0388 -0.9992
vn 0.0164 0.0833 -0.9964
vn -0.0000 -0.0057 -1.0000
vn -0.0000 0.0833 -0.9965
vn 0.0162 -0.0057 -0.9999
vn -0.0164 0.0833 -0.9964
vn -0.0163 0.0389 -0.9991
vn -0.0162 -0.0057 -0.9999
vn 0.9249 0.3800 -0.0092
vn 0.9043 0.4268 -0.0087
vn 0.9262 0.3770 -0.0050
vn 0.9431 0.3324 -0.0098
vn 0.9093 0.4161 -0.0052
vn 0.9414 0.3372 -0.0049
vn 0.9296 0.3685 -0.0004
vn 0.9397 0.3420 -0.0000
vn 0.9188 0.3947 -0.0009
vn 0.0484 0.9988 0.0115
vn -0.0000 0.9999 0.0114
vn 0.0701 0.9970 0.0333
vn -0.0000 1.0000 0.0056
vn -0.0000 0.9994 0.0334
vn 0.0319 0.9995 0.0056
vn -0.0000 0.9987 0.0509
vn -0.0701 0.9970 0.0333
vn -0.0000 1.0000 0.0035
vn -0.0483 0.9988 0.0115
vn 0.0245 0.9997 0.0035
vn -0.0319 0.9995 0.0056
vn -0.0000 1.0000 0.0023
vn -0.0245 0.9997 0.0035
vn 0.0206 0.9998 0.0024
vn -0.0206 0.9998 0.0024
vn -0.0000 1.0000 0.0024
vn 0.0186 0.9998 0.0024
vn -0.0186 0.9998 0.0025
vn -0.0000 1.0000 0.0015
vn 0.0184 0.9998 0.0015
vn -0.0184 0.9998 0.0015
vn -0.0000 1.0000 0.0002
vn 0.0179 0.9998 0.0005
vn -0.0181 0.9998 0.0002
vn 0.0157 0.9999 0.0008
vn -0.0157 0.9999 0.0008
vn -0.0000 1.0000 0.0012
vn 0.0088 1.0000 -0.0003
vn -0.0088 1.0000 -0.0003
vn -0.0000 1.0000 -0.0006
vn 0.0040 1.0000 -0.0023
vn -0.0039 1.0000 -0.0023
vn -0.0000 1.0000 -0.0023
vn 0.8985 0.0782 0.4319
vn 0.8597 0.1029 0.5003
vn 0.9015 0.0469 0.4302
vn 0.8452 0.1768 0.5044
vn 0.8654 0.0788 0.4948
vn 0.8879 0.1385 0.4386
vn 0.9247 0.0207 0.3802
vn 0.8150 0.1923 0.5466
vn 0.8287 0.1210 0.5464
vn 0.8348 0.2259 0.5021
vn 0.9205 0.0651 0.3853
vn 0.8351 0.0974 0.5414
vn 0.8699 0.2190 0.4420
vn 0.9477 -0.0002 0.3190
vn 0.8063 0.2396 0.5409
vn 0.9017 0.0911 0.4228
vn 0.9435 0.0458 0.3281
vn 0.8872 0.1637 0.4315
vn 0.9026 0.0938 0.4202
vn 0.9641 -0.0111 0.2652
vn 0.8997 0.1097 0.4225
vn 0.9636 0.0325 0.2654
vn 0.9081 0.1015 0.4063
vn 0.8740 0.2227 0.4318
vn 0.9557 0.1356 0.2614
vn 0.9233 0.0955 0.3720
vn 0.8938 0.2411 0.3781
vn 0.9682 0.1436 0.2047
vn 0.9321 0.0777 0.3538
vn 0.8850 0.2445 0.3963
vn 0.9771 0.0344 0.2099
vn 0.9314 0.0738 0.3563
vn 0.9038 0.2365 0.3567
vn 0.9774 -0.0137 0.2108
vn 0.9361 0.1209 0.3303
vn 0.9189 0.2091 0.3345
vn 0.9811 0.1518 0.1199
vn 0.9262 0.2023 0.3181
vn 0.9280 0.1018 0.3584
vn 0.9915 0.0387 0.1239
vn 0.9258 0.1573 0.3439
vn 0.9871 0.1569 0.0316
vn 0.9921 -0.0130 0.1249
vn 0.9582 0.2042 0.2002
vn 0.9986 0.0412 0.0331
vn 0.9467 0.1946 0.2567
vn 0.9702 0.2126 0.1166
vn 0.9753 0.2186 0.0306
vn 0.9875 0.1578 -0.0000
vn 0.9994 -0.0129 0.0331
vn 0.9756 0.2197 0.0001
vn 0.8556 0.2049 0.4753
vn 0.8950 0.1985 0.3994
vn 0.8424 0.2644 0.4696
vn 0.8089 0.2854 0.5140
vn 0.8874 0.2412 0.3929
vn 0.7898 0.3517 0.5025
vn 0.8241 0.2177 0.5230
vn 0.9151 0.2160 0.3405
vn 0.8259 0.3228 0.4622
vn 0.9098 0.2512 0.3304
vn 0.8780 0.2834 0.3856
vn 0.9316 0.2336 0.2785
vn 0.9033 0.2860 0.3199
vn 0.9240 0.2698 0.2711
vn 0.9419 0.2520 0.2219
vn 0.9150 0.3057 0.2634
vn 0.9330 0.2876 0.2162
vn 0.9354 0.3143 0.1621
vn 0.9228 0.3229 0.2102
vn 0.9440 0.2833 0.1689
vn 0.9257 0.3450 0.1550
vn 0.9344 0.3444 0.0912
vn 0.9257 0.3682 0.0863
vn 0.9424 0.3203 0.0960
vn 0.9241 0.3814 0.0226
vn 0.9325 0.3605 0.0236
vn 0.9403 0.3394 0.0246
vn 0.9188 0.3948 -0.0009
vn -0.0000 -1.0000 -0.0000
vn 0.9095 0.1129 0.4001
vn 0.9208 0.1110 0.3739
vn 0.9059 0.1113 0.4085
vn 0.9209 0.1110 0.3738
vn 0.9059 0.1114 0.4086
vn 0.9224 0.1094 0.3703
vn 0.9166 0.1061 0.3854
vn 0.9224 0.1094 0.3704
vn 0.9244 0.1026 0.3673
vn 0.9071 0.1122 0.4057
vn 0.9071 0.1122 0.4056
vn 0.8947 0.1150 0.4316
vn 0.1985 0.9561 0.2156
vn 0.3004 0.9534 -0.0265
vn 0.1175 0.8785 0.4630
vn 0.1175 0.8785 0.4631
vn 0.4489 0.8415 -0.3007
vn 0.0062 0.6422 0.7665
vn 0.4489 0.8414 -0.3008
vn 0.6212 0.5131 -0.5923
vn -0.0462 0.1533 0.9871
vn -0.0462 0.1534 0.9871
vn 0.7144 -0.0709 -0.6961
vn 0.3861 -0.8714 0.3026
vn 0.4884 -0.8700 0.0668
vn 0.2652 -0.7657 0.5860
vn 0.4884 -0.8701 0.0668
vn 0.5914 -0.7869 -0.1759
vn 0.0951 -0.4220 0.9016
vn 0.6830 -0.5634 -0.4648
vn 0.7144 -0.0710 -0.6961
vn -0.9991 0.0418 -0.0075
vn -0.9991 0.0413 -0.0038
vn -0.9873 0.1588 -0.0076
vn -0.9999 -0.0129 -0.0075
vn -0.9875 0.1578 -0.0039
vn -0.9999 -0.0129 -0.0037
vn -0.9753 0.2206 -0.0078
vn -0.9999 -0.0129 -0.0000
vn -0.9755 0.2199 -0.0039
vn -0.9991 0.0413 -0.0000
vn -0.9875 0.1579 0.0001
vn -0.9756 0.2194 -0.0000
vn -0.9249 0.3800 -0.0092
vn -0.9262 0.3770 -0.0050
vn -0.9043 0.4268 -0.0087
vn -0.9431 0.3324 -0.0098
vn -0.9093 0.4161 -0.0052
vn -0.9414 0.3372 -0.0049
vn -0.9296 0.3686 -0.0004
vn -0.9397 0.3420 -0.0000
vn -0.9188 0.3948 -0.0009
vn -0.8654 0.0788 0.4948
vn -0.8597 0.1029 0.5003
vn -0.9015 0.0468 0.4302
vn -0.8288 0.1210 0.5464
vn -0.8985 0.0782 0.4319
vn -0.8351 0.0974 0.5414
vn -0.9247 0.0207 0.3802
vn -0.8452 0.1767 0.5043
vn -0.8150 0.1923 0.5466
vn -0.9205 0.0651 0.3853
vn -0.8879 0.1385 0.4386
vn -0.8063 0.2396 0.5409
vn -0.9477 -0.0001 0.3190
vn -0.9017 0.0911 0.4228
vn -0.8348 0.2259 0.5021
vn -0.9435 0.0458 0.3281
vn -0.9026 0.0938 0.4202
vn -0.9641 -0.0111 0.2652
vn -0.8997 0.1097 0.4225
vn -0.9321 0.0778 0.3538
vn -0.8872 0.1637 0.4315
vn -0.9636 0.0326 0.2654
vn -0.9233 0.0955 0.3720
vn -0.9771 0.0344 0.2099
vn -0.9557 0.1356 0.2614
vn -0.8740 0.2227 0.4318
vn -0.9081 0.1015 0.4063
vn -0.9361 0.1209 0.3303
vn -0.9682 0.1436 0.2047
vn -0.7415 0.6180 0.2612
vn -0.9314 0.0736 0.3564
vn -0.9774 -0.0137 0.2109
vn -0.9582 0.2042 0.2002
vn -0.9280 0.1019 0.3584
vn -0.9811 0.1517 0.1198
vn -0.9258 0.1573 0.3439
vn -0.9467 0.1946 0.2567
vn -0.9915 0.0387 0.1239
vn -0.9189 0.2091 0.3345
vn -0.9871 0.1569 0.0317
vn -0.9702 0.2126 0.1166
vn -0.9921 -0.0128 0.1250
vn -0.9754 0.2185 0.0306
vn -0.9994 -0.0128 0.0331
vn -0.9038 0.2365 0.3567
vn -0.9875 0.1578 -0.0000
vn -0.9986 0.0409 0.0329
vn -0.8850 0.2445 0.3963
vn -0.9756 0.2197 0.0001
vn -0.8556 0.2049 0.4753
vn -0.8424 0.2643 0.4696
vn -0.8950 0.1985 0.3994
vn -0.8089 0.2854 0.5140
vn -0.8874 0.2412 0.3929
vn -0.8241 0.2177 0.5230
vn -0.9151 0.2160 0.3405
vn -0.8259 0.3228 0.4622
vn -0.7898 0.3516 0.5025
vn -0.9098 0.2512 0.3304
vn -0.8780 0.2834 0.3856
vn -0.9316 0.2336 0.2785
vn -0.9033 0.2860 0.3199
vn -0.9239 0.2699 0.2711
vn -0.9419 0.2520 0.2220
vn -0.9150 0.3057 0.2634
vn -0.9330 0.2877 0.2163
vn -0.9354 0.3144 0.1621
vn -0.9228 0.3229 0.2102
vn -0.9257 0.3450 0.1550
vn -0.9440 0.2833 0.1689
vn -0.9257 0.3683 0.0863
vn -0.9344 0.3444 0.0912
vn -0.9424 0.3203 0.0960
vn -0.9241 0.3814 0.0226
vn -0.9324 0.3605 0.0236
vn -0.9403 0.3394 0.0246
vn -0.9296 0.3685 -0.0004
vn -0.9208 0.1110 0.3738
vn -0.9208 0.1110 0.3739
vn -0.9095 0.1129 0.4001
vn -0.9224 0.1094 0.3703
vn -0.9059 0.1114 0.4086
vn -0.9071 0.1122 0.4056
vn -0.8947 0.1150 0.4316
vn -0.9166 0.1061 0.3854
vn -0.9244 0.1026 0.3673
vn -0.1985 0.9561 0.2156
vn -0.3004 0.9534 -0.0265
vn -0.1175 0.8785 0.4630
vn -0.1175 0.8785 0.4631
vn -0.4489 0.8414 -0.3008
vn -0.0062 0.6422 0.7665
vn -0.6212 0.5131 -0.5923
vn 0.0462 0.1533 0.9871
vn 0.0462 0.1534 0.9871
vn -0.7144 -0.0709 -0.6961
vn -0.7144 -0.0710 -0.6961
vn -0.4884 -0.8701 0.0668
vn -0.3860 -0.8715 0.3026
vn -0.4884 -0.8700 0.0668
vn -0.5914 -0.7869 -0.1759
vn -0.5915 -0.7869 -0.1759
vn -0.2653 -0.7656 0.5860
vn -0.6830 -0.5634 -0.4648
vn -0.2652 -0.7657 0.5860
vn -0.0951 -0.4220 0.9016
vn -0.9568 0.0147 0.2903
vn -0.9999 0.0167 -0.0000
vn -0.8061 0.0096 -0.5916
vn -0.4896 0.0028 -0.8719
vn -0.0000 -0.0007 -1.0000
vn 0.4896 0.0027 -0.8720
vn 0.4897 0.0028 -0.8719
vn 0.8062 0.0096 -0.5916
vn 0.0019 1.0000 -0.0000
vn 0.7702 0.6378 -0.0000
vn -0.0000 0.7440 -0.6681
vn -0.0000 0.7440 -0.6682
vn 0.9999 0.0167 -0.0000
vn 0.8062 0.0096 0.5916
vn -0.8062 0.0097 0.5916
vn -0.9568 0.0147 -0.2903
vn 0.4896 0.0028 -0.8719
vn 0.8061 0.0096 -0.5917
vn -0.7702 0.6378 -0.0000
vn -0.7701 0.6379 -0.0000
vt 0.250938 0.649813
vt 0.121738 0.650624
vt 0.220080 0.640569
vt 0.152479 0.640994
vt 0.186259 0.637556
vt 0.096932 0.665698
vt 0.275931 0.664575
vt 0.080699 0.684928
vt 0.292403 0.683599
vt 0.075099 0.706440
vt 0.298272 0.705038
vt 0.318406 0.551019
vt 0.318406 0.583296
vt 0.295443 0.551019
vt 0.295443 0.583296
vt 0.269615 0.551019
vt 0.269615 0.583296
vt 0.239770 0.551019
vt 0.239770 0.583296
vt 0.206301 0.551019
vt 0.206301 0.583296
vt 0.170802 0.551019
vt 0.170802 0.583296
vt 0.135398 0.583296
vt 0.135398 0.551019
vt 0.102119 0.583296
vt 0.102119 0.551019
vt 0.072599 0.583296
vt 0.072599 0.551019
vt 0.047101 0.583296
vt 0.047101 0.551019
vt 0.024510 0.583296
vt 0.024510 0.551019
vt 0.332786 0.694778
vt 0.311797 0.696001
vt 0.323428 0.666331
vt 0.304036 0.671456
vt 0.299990 0.641845
vt 0.284389 0.650066
vt 0.265325 0.623708
vt 0.254773 0.633948
vt 0.223082 0.613485
vt 0.218098 0.624700
vt 0.177283 0.611953
vt 0.177985 0.623228
vt 0.138392 0.629646
vt 0.132074 0.619149
vt 0.103201 0.643275
vt 0.091526 0.634421
vt 0.075826 0.662747
vt 0.059453 0.656465
vt 0.058896 0.686151
vt 0.039193 0.683321
vt 0.054016 0.711226
vt 0.033216 0.712386
vt 0.946210 0.227276
vt 0.946169 0.237048
vt 0.916819 0.227293
vt 0.916775 0.237051
vt 0.883649 0.227312
vt 0.883589 0.237073
vt 0.845142 0.227334
vt 0.845084 0.237095
vt 0.845084 0.237095
vt 0.801952 0.227359
vt 0.801919 0.237120
vt 0.756106 0.227385
vt 0.756111 0.237146
vt 0.710303 0.237173
vt 0.710259 0.227412
vt 0.667138 0.237199
vt 0.667138 0.237199
vt 0.667069 0.227437
vt 0.628633 0.237221
vt 0.628633 0.237221
vt 0.628560 0.227460
vt 0.595446 0.237238
vt 0.595446 0.237238
vt 0.595390 0.227480
vt 0.566051 0.237270
vt 0.565998 0.227497
vt 0.843911 0.437189
vt 0.882347 0.437156
vt 0.801259 0.437209
vt 0.915864 0.437077
vt 0.756231 0.437230
vt 0.945318 0.437371
vt 0.711204 0.437261
vt 0.668552 0.437293
vt 0.630115 0.437304
vt 0.596598 0.437265
vt 0.567145 0.437594
vt 0.339039 0.445911
vt 0.314973 0.446027
vt 0.339216 0.421826
vt 0.362891 0.446028
vt 0.314652 0.421850
vt 0.363732 0.421852
vt 0.292102 0.446157
vt 0.291635 0.421877
vt 0.271389 0.446195
vt 0.271090 0.421887
vt 0.252576 0.446200
vt 0.252541 0.421889
vt 0.233762 0.446246
vt 0.233992 0.421904
vt 0.213441 0.421920
vt 0.213033 0.446283
vt 0.190404 0.421927
vt 0.190087 0.446262
vt 0.165785 0.421940
vt 0.165801 0.446250
vt 0.141513 0.446295
vt 0.141164 0.421971
vt 0.118566 0.446333
vt 0.118125 0.422002
vt 0.097859 0.446296
vt 0.097577 0.422016
vt 0.079106 0.446247
vt 0.079037 0.422026
vt 0.060417 0.446270
vt 0.060512 0.422054
vt 0.040007 0.422104
vt 0.039913 0.446378
vt 0.017037 0.422203
vt 0.017279 0.446691
vt 0.195478 0.259048
vt 0.076316 0.258034
vt 0.168012 0.245944
vt 0.057209 0.277592
vt 0.104016 0.245395
vt 0.136054 0.241214
vt 0.214247 0.278919
vt 0.050210 0.301235
vt 0.220846 0.302667
vt 0.213849 0.326303
vt 0.056812 0.324991
vt 0.075588 0.344866
vt 0.194750 0.345856
vt 0.103070 0.357966
vt 0.167060 0.358495
vt 0.135029 0.362685
vt 0.339267 0.414891
vt 0.314559 0.414889
vt 0.363974 0.414891
vt 0.291501 0.414887
vt 0.271004 0.414888
vt 0.252531 0.414890
vt 0.234057 0.414896
vt 0.213558 0.414905
vt 0.190495 0.414920
vt 0.165780 0.414941
vt 0.141064 0.414968
vt 0.117999 0.414997
vt 0.097495 0.415025
vt 0.079017 0.415052
vt 0.060539 0.415081
vt 0.040034 0.415115
vt 0.016967 0.415153
vt 0.174180 0.116518
vt 0.174178 0.129966
vt 0.374867 0.116535
vt 0.036700 0.131543
vt 0.377198 0.129966
vt 0.020894 0.117815
vt 0.559470 0.129966
vt 0.019980 0.207228
vt 0.564261 0.116553
vt 0.035726 0.207580
vt 0.608467 0.132614
vt 0.615175 0.119642
vt 0.651509 0.139154
vt 0.660525 0.127415
vt 0.690400 0.147194
vt 0.699540 0.136489
vt 0.725914 0.156548
vt 0.737283 0.147678
vt 0.759028 0.167718
vt 0.771742 0.160751
vt 0.790332 0.180737
vt 0.804317 0.175979
vt 0.805886 0.189650
vt 0.829932 0.191454
vt 0.827813 0.203225
vt 0.844447 0.202898
vt 0.372312 0.518456
vt 0.372222 0.565298
vt 0.629999 0.518433
vt 0.371824 0.468928
vt 0.629999 0.565166
vt 0.629999 0.468919
vt 0.371698 0.614049
vt 0.976157 0.468919
vt 0.629999 0.613806
vt 0.976157 0.518433
vt 0.976157 0.565166
vt 0.976157 0.613806
vt 0.482046 0.410413
vt 0.482679 0.243475
vt 0.436057 0.405611
vt 0.531184 0.410123
vt 0.435631 0.243474
vt 0.532346 0.243475
vt 0.390355 0.394793
vt 0.391936 0.243471
vt 0.305697 0.355982
vt 0.305792 0.245156
vt 0.274071 0.344823
vt 0.336014 0.245157
vt 0.277754 0.245154
vt 0.332572 0.362962
vt 0.393374 0.659925
vt 0.392728 0.692031
vt 0.621845 0.662212
vt 0.393202 0.631944
vt 0.621845 0.691853
vt 0.621845 0.630995
vt 0.972192 0.662220
vt 0.972189 0.630994
vt 0.972193 0.691872
vt 0.778354 0.184409
vt 0.778224 0.207044
vt 0.800760 0.195682
vt 0.748777 0.207041
vt 0.798492 0.207048
vt 0.748927 0.173199
vt 0.818850 0.207108
vt 0.717616 0.207038
vt 0.717742 0.163508
vt 0.688527 0.207036
vt 0.688167 0.155897
vt 0.635729 0.207034
vt 0.635784 0.148402
vt 0.594694 0.207032
vt 0.594709 0.142671
vt 0.547001 0.207031
vt 0.547008 0.140360
vt 0.370270 0.140367
vt 0.370294 0.207032
vt 0.173457 0.141557
vt 0.173458 0.207032
vt 0.040531 0.143083
vt 0.039474 0.207032
vt 0.859785 0.773350
vt 0.924072 0.773350
vt 0.867630 0.723837
vt 0.912597 0.820084
vt 0.934134 0.723837
vt 0.851635 0.820084
vt 0.797060 0.723837
vt 0.962972 0.820084
vt 0.976563 0.773350
vt 0.899747 0.879404
vt 0.791712 0.773350
vt 0.988237 0.723837
vt 0.843227 0.876287
vt 0.724488 0.723837
vt 0.946060 0.883688
vt 0.829830 0.805136
vt 0.721953 0.773350
vt 0.825147 0.833607
vt 0.819524 0.795482
vt 0.649636 0.723837
vt 0.832426 0.818240
vt 0.648196 0.773350
vt 0.801463 0.789416
vt 0.811262 0.845097
vt 0.648204 0.820084
vt 0.780798 0.789417
vt 0.780982 0.873306
vt 0.581701 0.820084
vt 0.758951 0.795413
vt 0.791138 0.850933
vt 0.581510 0.773350
vt 0.744817 0.804899
vt 0.770143 0.850324
vt 0.579982 0.723837
vt 0.719513 0.820084
vt 0.750968 0.843647
vt 0.501533 0.820084
vt 0.717157 0.870892
vt 0.737910 0.818257
vt 0.501533 0.773350
vt 0.740088 0.832428
vt 0.413566 0.820084
vt 0.501533 0.723837
vt 0.581114 0.867269
vt 0.413566 0.773350
vt 0.648340 0.868872
vt 0.501533 0.867269
vt 0.413566 0.867269
vt 0.086248 0.773350
vt 0.086248 0.820084
vt 0.413566 0.723837
vt 0.086248 0.867269
vt 0.086248 0.723837
vt 0.883719 0.908839
vt 0.833593 0.908839
vt 0.875999 0.940885
vt 0.910843 0.946152
vt 0.827932 0.937158
vt 0.897552 0.983865
vt 0.921634 0.908839
vt 0.777909 0.908839
vt 0.865565 0.978366
vt 0.773568 0.935761
vt 0.822832 0.971937
vt 0.720416 0.908839
vt 0.769784 0.966542
vt 0.717356 0.934302
vt 0.659904 0.908839
vt 0.714816 0.961229
vt 0.661150 0.933282
vt 0.596289 0.932200
vt 0.662972 0.957642
vt 0.594374 0.908839
vt 0.597736 0.954085
vt 0.522865 0.931120
vt 0.523808 0.955428
vt 0.522290 0.908839
vt 0.438090 0.956336
vt 0.437918 0.931617
vt 0.437758 0.908839
vt 0.123222 0.956372
vt 0.123220 0.931667
vt 0.123220 0.908839
vt 0.162088 0.011142
vt 0.162088 0.106787
vt 0.012993 0.012254
vt 0.356358 0.106787
vt 0.011882 0.106787
vt 0.356358 0.011142
vt 0.540054 0.106787
vt 0.540054 0.011142
vt 0.589422 0.014405
vt 0.589422 0.106786
vt 0.633449 0.022640
vt 0.633391 0.106784
vt 0.671083 0.031834
vt 0.671211 0.106781
vt 0.711073 0.043902
vt 0.711073 0.106777
vt 0.749203 0.057669
vt 0.749203 0.106773
vt 0.785236 0.073714
vt 0.785236 0.106769
vt 0.818637 0.090065
vt 0.819212 0.106764
vt 0.844967 0.106759
vt 0.865457 0.145260
vt 0.865457 0.103584
vt 0.986539 0.123753
vt 0.974548 0.162136
vt 0.986539 0.081059
vt 0.877448 0.179044
vt 0.877448 0.061200
vt 0.952942 0.191467
vt 0.974548 0.043663
vt 0.899055 0.200653
vt 0.925998 0.205809
vt 0.899055 0.030461
vt 0.952942 0.021051
vt 0.925998 0.017152
vt 0.789696 0.142915
vt 0.776002 0.141863
vt 0.790292 0.139643
vt 0.802322 0.145753
vt 0.776084 0.137935
vt 0.803956 0.142891
vt 0.762364 0.142300
vt 0.812218 0.149139
vt 0.761152 0.138448
vt 0.813425 0.146282
vt 0.751747 0.144053
vt 0.819197 0.152751
vt 0.821051 0.150463
vt 0.750779 0.140372
vt 0.743522 0.147077
vt 0.741862 0.143882
vt 0.775360 0.142859
vt 0.775462 0.139386
vt 0.788978 0.144111
vt 0.763148 0.142932
vt 0.789574 0.140895
vt 0.762316 0.139717
vt 0.800543 0.146717
vt 0.754151 0.144227
vt 0.802012 0.143855
vt 0.753373 0.141173
vt 0.810045 0.150032
vt 0.746271 0.143938
vt 0.747424 0.146693
vt 0.811281 0.147188
vt 0.817068 0.153725
vt 0.818794 0.151316
s 1
g GUI_Map_Submarine_GUI_Map_Submarine_GUI_Map_Submarine1_GUI_Map_Submarine_GUI_Map_Submarine1
usemtl GUI_Map_Submarine_GUI_Map_Submarine1
f 1/1/1 2/2/1 3/3/2
f 3/3/2 2/2/1 4/4/3
f 3/3/2 4/4/3 5/5/4
f 1/1/1 6/6/5 2/2/1
f 7/7/5 6/6/5 1/1/1
f 7/7/5 8/8/5 6/6/5
f 9/9/5 8/8/5 7/7/5
f 9/9/5 10/10/6 8/8/5
f 11/11/6 10/10/6 9/9/5
f 11/11/6 12/9/7 10/10/6
f 10/10/6 12/9/7 13/8/7
f 12/9/7 14/7/8 13/8/7
f 13/8/7 14/7/8 15/6/8
f 14/7/8 16/1/9 15/6/8
f 15/6/8 16/1/9 17/2/9
f 16/1/9 18/3/10 17/2/9
f 17/2/9 18/3/10 19/4/10
f 18/3/10 20/5/11 19/4/10
f 21/12/12 22/13/12 23/14/13
f 24/14/14 22/13/12 21/12/12
f 23/14/13 22/13/12 25/15/15
f 26/15/14 22/13/12 24/14/14
f 23/14/13 25/15/15 27/16/16
f 28/16/17 26/15/14 24/14/14
f 27/16/16 25/15/15 29/17/18
f 30/17/19 26/15/14 28/16/17
f 27/16/16 29/17/18 31/18/20
f 32/18/21 30/17/19 28/16/17
f 31/18/20 29/17/18 33/19/22
f 34/19/23 30/17/19 32/18/21
f 31/18/20 33/19/22 35/20/24
f 36/20/25 34/19/23 32/18/21
f 35/20/24 33/19/22 37/21/26
f 38/21/27 34/19/23 36/20/25
f 35/20/24 37/21/26 39/22/28
f 40/22/29 38/21/27 36/20/25
f 39/22/28 37/21/26 41/23/30
f 42/23/31 38/21/27 40/22/29
f 43/24/32 39/22/28 41/23/30
f 40/22/29 44/24/33 42/23/31
f 45/25/34 39/22/28 43/24/32
f 46/25/33 44/24/33 40/22/29
f 47/26/35 45/25/34 43/24/32
f 46/25/33 48/26/36 44/24/33
f 49/27/35 45/25/34 47/26/35
f 50/27/36 48/26/36 46/25/33
f 51/28/37 49/27/35 47/26/35
f 50/27/36 52/28/38 48/26/36
f 53/29/37 49/27/35 51/28/37
f 54/29/38 52/28/38 50/27/36
f 55/30/39 53/29/37 51/28/37
f 54/29/38 56/30/40 52/28/38
f 57/31/41 53/29/37 55/30/39
f 58/31/42 56/30/40 54/29/38
f 59/32/43 57/31/41 55/30/39
f 58/31/42 59/32/43 56/30/40
f 60/33/43 57/31/41 59/32/43
f 60/33/43 59/32/43 58/31/42
f 61/34/44 62/35/44 63/36/45
f 64/36/46 62/35/44 61/34/44
f 63/36/45 62/35/44 65/37/47
f 66/37/46 62/35/44 64/36/46
f 63/36/45 65/37/47 67/38/48
f 68/38/49 66/37/46 64/36/46
f 67/38/48 65/37/47 69/39/50
f 70/39/49 66/37/46 68/38/49
f 67/38/48 69/39/50 71/40/51
f 72/40/52 70/39/49 68/38/49
f 71/40/51 69/39/50 73/41/53
f 74/41/54 70/39/49 72/40/52
f 71/40/51 73/41/53 75/42/55
f 76/42/56 74/41/54 72/40/52
f 75/42/55 73/41/53 77/43/55
f 78/43/57 74/41/54 76/42/56
f 75/42/55 77/43/55 79/44/58
f 80/44/59 78/43/57 76/42/56
f 79/44/58 77/43/55 81/45/60
f 82/45/61 78/43/57 80/44/59
f 83/46/62 79/44/58 81/45/60
f 80/44/59 84/46/63 82/45/61
f 85/47/62 79/44/58 83/46/62
f 86/47/63 84/46/63 80/44/59
f 87/48/64 85/47/62 83/46/62
f 86/47/63 88/48/65 84/46/63
f 89/49/66 85/47/62 87/48/64
f 90/49/67 88/48/65 86/47/63
f 91/50/68 89/49/66 87/48/64
f 90/49/67 92/50/69 88/48/65
f 93/51/68 89/49/66 91/50/68
f 94/51/70 92/50/69 90/49/67
f 95/52/71 93/51/68 91/50/68
f 94/51/70 96/52/72 92/50/69
f 97/53/73 93/51/68 95/52/71
f 98/53/72 96/52/72 94/51/70
f 99/54/74 97/53/73 95/52/71
f 98/53/72 99/54/74 96/52/72
f 100/55/74 97/53/73 99/54/74
f 100/55/74 99/54/74 98/53/72
f 101/56/75 102/57/75 103/58/76
f 104/58/77 102/57/75 101/56/75
f 103/58/76 102/57/75 105/59/78
f 106/59/77 102/57/75 104/58/77
f 103/58/76 105/59/78 107/60/79
f 108/60/80 106/59/77 104/58/77
f 107/60/79 105/59/78 109/61/79
f 110/61/80 106/59/77 108/60/80
f 107/60/79 109/61/79 111/62/81
f 112/62/82 110/61/80 108/60/80
f 111/62/81 109/61/79 113/63/81
f 114/64/82 110/61/80 112/62/82
f 111/62/81 113/63/81 115/65/83
f 116/65/84 114/64/82 112/62/82
f 115/65/83 113/63/81 117/66/85
f 118/66/84 114/64/82 116/65/84
f 115/65/83 117/66/85 119/67/86
f 120/67/87 118/66/84 116/65/84
f 119/67/86 117/66/85 121/68/86
f 122/68/87 118/66/84 120/67/87
f 123/69/88 119/67/86 121/68/86
f 120/67/87 124/69/89 122/68/87
f 125/70/88 119/67/86 123/69/88
f 126/70/89 124/69/89 120/67/87
f 127/71/90 125/70/88 123/69/88
f 126/70/89 128/72/91 124/69/89
f 129/73/90 125/70/88 127/71/90
f 130/73/91 128/72/91 126/70/89
f 131/74/92 129/73/90 127/71/90
f 130/73/91 132/75/93 128/72/91
f 133/76/92 129/73/90 131/74/92
f 134/76/93 132/75/93 130/73/91
f 135/77/94 133/76/92 131/74/92
f 134/76/93 136/78/95 132/75/93
f 137/79/96 133/76/92 135/77/94
f 138/79/97 136/78/95 134/76/93
f 139/80/98 137/79/96 135/77/94
f 138/79/97 139/80/98 136/78/95
f 140/81/98 137/79/96 139/80/98
f 140/81/98 139/80/98 138/79/97
f 141/82/99 142/83/100 143/64/99
f 143/64/99 144/66/101 141/82/99
f 143/64/99 142/83/100 145/61/102
f 141/82/99 144/66/101 146/84/103
f 147/85/104 145/61/102 142/83/100
f 144/66/101 148/68/105 146/84/103
f 149/59/104 145/61/102 147/85/104
f 146/84/103 148/68/105 150/86/106
f 151/87/107 149/59/104 147/85/104
f 148/68/105 152/88/108 150/86/106
f 153/57/109 149/59/104 151/87/107
f 154/69/110 152/88/108 148/68/105
f 153/57/109 151/87/107 155/59/111
f 154/69/110 156/89/112 152/88/108
f 155/59/111 151/87/107 157/85/111
f 158/72/113 156/89/112 154/69/110
f 155/59/111 157/85/111 159/61/114
f 158/72/113 160/90/115 156/89/112
f 159/61/114 157/85/111 161/83/116
f 162/75/115 160/90/115 158/72/113
f 159/61/114 161/83/116 163/63/117
f 162/75/115 164/91/118 160/90/115
f 163/63/117 161/83/116 165/82/117
f 166/78/118 164/91/118 162/75/115
f 163/63/117 165/82/117 167/66/119
f 166/78/118 168/92/120 164/91/118
f 167/66/119 165/82/117 169/84/119
f 170/80/121 168/92/120 166/78/118
f 167/66/119 169/84/119 171/68/122
f 170/80/121 172/77/123 168/92/120
f 171/68/122 169/84/119 173/86/124
f 168/92/120 172/77/123 174/91/123
f 175/88/125 171/68/122 173/86/124
f 172/77/123 176/74/126 174/91/123
f 177/69/127 171/68/122 175/88/125
f 174/91/123 176/74/126 178/90/126
f 179/89/128 177/69/127 175/88/125
f 176/74/126 180/71/129 178/90/126
f 180/71/129 177/69/127 179/89/128
f 178/90/126 180/71/129 179/89/128
f 181/93/130 182/94/131 183/95/132
f 181/93/130 183/95/132 184/96/133
f 183/95/132 182/94/131 185/97/134
f 184/96/133 183/95/132 186/98/135
f 182/94/131 187/99/136 185/97/134
f 185/97/134 187/99/136 188/100/137
f 187/99/136 189/101/138 188/100/137
f 188/100/137 189/101/138 190/102/139
f 189/101/138 191/103/140 190/102/139
f 190/102/139 191/103/140 192/104/141
f 191/103/140 193/105/142 192/104/141
f 192/104/141 193/105/142 194/106/143
f 193/105/142 195/107/144 194/106/143
f 196/108/145 195/107/144 193/105/142
f 196/108/145 197/109/146 195/107/144
f 198/110/147 197/109/146 196/108/145
f 198/110/147 199/111/148 197/109/146
f 200/112/149 199/111/148 198/110/147
f 200/112/149 201/113/150 199/111/148
f 199/111/148 201/113/150 202/114/151
f 201/113/150 203/115/152 202/114/151
f 202/114/151 203/115/152 204/116/153
f 203/115/152 205/117/154 204/116/153
f 204/116/153 205/117/154 206/118/155
f 205/117/154 207/119/156 206/118/155
f 206/118/155 207/119/156 208/120/156
f 207/119/156 209/121/157 208/120/156
f 208/120/156 209/121/157 210/122/157
f 209/121/157 211/123/158 210/122/157
f 212/124/159 211/123/158 209/121/157
f 212/124/159 213/125/133 211/123/158
f 214/126/160 213/125/133 212/124/159
f 215/127/9 216/128/9 217/129/161
f 215/127/9 218/130/162 216/128/9
f 217/129/161 216/128/9 219/131/161
f 217/129/161 219/131/161 220/132/163
f 221/133/162 218/130/162 215/127/9
f 221/133/162 222/134/6 218/130/162
f 223/135/6 222/134/6 221/133/162
f 223/135/6 224/136/164 222/134/6
f 222/134/6 224/136/164 225/137/164
f 225/137/164 224/136/164 226/138/1
f 226/138/1 224/136/164 227/139/1
f 226/138/1 227/139/1 228/140/165
f 228/140/165 227/139/1 229/141/165
f 228/140/165 229/141/165 230/142/166
f 231/95/167 232/97/168 233/143/169
f 231/95/167 233/143/169 234/98/170
f 233/143/169 232/97/168 235/144/168
f 234/98/170 233/143/169 236/145/171
f 232/97/168 237/100/172 235/144/168
f 235/144/168 237/100/172 238/146/172
f 237/100/172 239/102/173 238/146/172
f 238/146/172 239/102/173 240/147/173
f 239/102/173 241/104/174 240/147/173
f 240/147/173 241/104/174 242/148/175
f 241/104/174 243/149/176 242/148/175
f 244/106/176 243/149/176 241/104/174
f 244/106/176 245/150/177 243/149/176
f 246/107/177 245/150/177 244/106/176
f 246/107/177 247/151/178 245/150/177
f 248/109/178 247/151/178 246/107/177
f 248/109/178 249/152/179 247/151/178
f 250/111/180 249/152/179 248/109/178
f 250/111/180 251/114/181 249/152/179
f 249/152/179 251/114/181 252/153/181
f 251/114/181 253/116/182 252/153/181
f 252/153/181 253/116/182 254/154/182
f 253/116/182 255/118/183 254/154/182
f 254/154/182 255/118/183 256/155/183
f 255/118/183 257/120/184 256/155/183
f 256/155/183 257/120/184 258/156/185
f 257/120/184 259/157/186 258/156/185
f 260/122/186 259/157/186 257/120/184
f 260/122/186 261/158/187 259/157/186
f 262/123/187 261/158/187 260/122/186
f 262/123/187 263/159/170 261/158/187
f 264/125/170 263/159/170 262/123/187
f 265/160/188 266/161/188 267/162/189
f 265/160/188 268/163/190 266/161/188
f 267/162/189 266/161/188 269/164/191
f 270/165/190 268/163/190 265/160/188
f 271/166/192 267/162/189 269/164/191
f 270/165/190 272/167/193 268/163/190
f 273/168/194 267/162/189 271/166/192
f 268/163/190 272/167/193 274/169/195
f 275/170/196 273/168/194 271/166/192
f 274/169/195 272/167/193 276/163/197
f 277/171/198 273/168/194 275/170/196
f 276/163/197 272/167/193 278/165/197
f 279/172/199 277/171/198 275/170/196
f 280/160/200 276/163/197 278/165/197
f 281/173/201 277/171/198 279/172/199
f 282/161/202 276/163/197 280/160/200
f 283/174/203 281/173/201 279/172/199
f 284/162/204 282/161/202 280/160/200
f 285/175/205 281/173/201 283/174/203
f 286/164/206 282/161/202 284/162/204
f 287/176/207 285/175/205 283/174/203
f 284/162/204 288/166/208 286/164/206
f 289/177/207 285/175/205 287/176/207
f 290/168/208 288/166/208 284/162/204
f 291/178/209 289/177/207 287/176/207
f 290/168/208 292/170/210 288/166/208
f 293/179/209 289/177/207 291/178/209
f 294/171/211 292/170/210 290/168/208
f 295/180/212 293/179/209 291/178/209
f 294/171/211 296/172/213 292/170/210
f 297/181/214 293/179/209 295/180/212
f 298/173/215 296/172/213 294/171/211
f 299/182/216 297/181/214 295/180/212
f 298/173/215 300/174/217 296/172/213
f 301/183/216 297/181/214 299/182/216
f 302/175/218 300/174/217 298/173/215
f 299/182/216 303/184/219 301/183/216
f 302/175/218 304/176/220 300/174/217
f 301/183/216 303/184/219 305/185/219
f 306/177/221 304/176/220 302/175/218
f 303/184/219 307/183/222 305/185/219
f 306/177/221 308/178/223 304/176/220
f 309/182/222 307/183/222 303/184/219
f 310/179/224 308/178/223 306/177/221
f 307/183/222 309/182/222 311/181/225
f 311/181/225 312/180/226 310/179/224
f 310/179/224 312/180/226 308/178/223
f 311/181/225 309/182/222 312/180/226
f 313/186/227 314/187/228 315/188/229
f 315/188/229 316/189/230 313/186/227
f 315/188/229 314/187/228 317/190/231
f 318/191/232 316/189/230 315/188/229
f 314/187/228 319/192/233 317/190/231
f 318/191/232 315/188/229 320/193/234
f 317/190/231 319/192/233 321/194/235
f 315/188/229 317/190/231 322/195/236
f 320/193/234 315/188/229 322/195/236
f 317/190/231 321/194/235 323/196/237
f 322/195/236 317/190/231 323/196/237
f 323/196/237 321/194/235 324/197/238
f 325/198/239 326/199/240 327/200/241
f 325/198/239 328/201/242 326/199/240
f 327/200/241 326/199/240 329/202/243
f 326/199/240 328/201/242 330/203/244
f 327/200/241 329/202/243 331/204/245
f 329/202/243 326/199/240 332/200/246
f 333/201/247 326/199/240 330/203/244
f 331/204/245 329/202/243 334/205/248
f 332/200/246 326/199/240 335/198/249
f 335/198/249 326/199/240 333/201/247
f 334/205/248 329/202/243 336/204/250
f 336/204/250 329/202/243 332/200/246
f 337/206/251 338/207/252 339/208/253
f 337/206/251 340/209/254 338/207/252
f 339/208/253 338/207/252 341/210/255
f 342/211/256 340/209/254 337/206/251
f 341/210/255 338/207/252 343/208/257
f 338/207/252 340/209/254 344/206/258
f 343/208/257 338/207/252 344/206/258
f 344/206/258 340/209/254 345/211/259
f 346/212/260 347/213/261 348/214/262
f 346/212/260 348/214/262 349/215/263
f 348/214/262 347/213/261 350/216/264
f 349/215/263 348/214/262 351/217/265
f 348/214/262 350/216/264 352/218/266
f 351/217/265 348/214/262 353/219/267
f 353/219/267 348/214/262 352/218/266
f 352/218/266 350/216/264 354/220/268
f 355/221/269 356/222/270 357/223/271
f 356/222/270 355/221/269 358/224/272
f 357/223/271 356/222/270 359/225/273
f 358/224/272 355/221/269 360/226/274
f 357/223/271 359/225/273 361/227/275
f 359/225/273 356/222/270 362/223/276
f 362/223/276 361/227/275 359/225/273
f 360/226/274 363/228/277 358/224/272
f 362/223/276 356/222/270 364/221/278
f 356/222/270 358/224/272 364/221/278
f 365/229/279 363/228/277 360/226/274
f 358/224/272 363/228/277 366/226/280
f 364/221/278 358/224/272 366/226/280
f 365/229/279 367/230/281 363/228/277
f 366/226/280 363/228/277 368/229/282
f 363/228/277 367/230/281 368/229/282
f 369/231/283 367/230/281 365/229/279
f 368/229/282 367/230/281 370/231/284
f 369/231/283 371/232/285 367/230/281
f 367/230/281 371/232/285 370/231/284
f 372/233/286 371/232/285 369/231/283
f 370/231/284 371/232/285 373/233/287
f 372/233/286 374/234/288 371/232/285
f 371/232/285 374/234/288 373/233/287
f 375/235/289 374/234/288 372/233/286
f 373/233/287 374/234/288 376/235/290
f 375/235/289 377/236/291 374/234/288
f 374/234/288 377/236/291 376/235/290
f 378/237/292 377/236/291 375/235/289
f 376/235/290 377/236/291 379/237/293
f 378/237/292 380/238/294 377/236/291
f 379/237/293 377/236/291 381/238/295
f 377/236/291 380/238/294 382/239/296
f 381/238/295 377/236/291 382/239/296
f 380/238/294 383/240/297 382/239/296
f 381/238/295 382/239/296 384/240/298
f 382/239/296 383/240/297 385/241/299
f 384/240/298 382/239/296 385/241/299
f 383/240/297 386/242/300 385/241/299
f 384/240/298 385/241/299 387/242/301
f 385/241/299 386/242/300 388/243/302
f 387/242/301 385/241/299 388/243/302
f 389/244/303 390/245/304 391/246/305
f 390/245/304 389/244/303 392/247/306
f 391/246/305 390/245/304 393/248/307
f 392/247/306 389/244/303 394/249/308
f 395/250/309 389/244/303 391/246/305
f 396/251/310 390/245/304 392/247/306
f 390/245/304 397/252/311 393/248/307
f 392/247/306 394/249/308 398/253/312
f 399/254/313 389/244/303 395/250/309
f 397/252/311 390/245/304 396/251/310
f 393/248/307 397/252/311 400/255/314
f 398/253/312 394/249/308 401/256/315
f 402/257/316 399/254/313 395/250/309
f 396/251/310 392/247/306 403/258/317
f 403/258/317 392/247/306 398/253/312
f 394/249/308 389/244/303 404/259/318
f 405/260/319 399/254/313 402/257/316
f 394/249/308 406/261/320 401/256/315
f 389/244/303 407/262/321 404/259/318
f 402/257/316 408/263/322 405/260/319
f 399/254/313 407/262/321 389/244/303
f 394/249/308 409/264/323 406/261/320
f 394/249/308 404/259/318 409/264/323
f 405/260/319 408/263/322 410/265/324
f 411/266/325 407/262/321 399/254/313
f 401/256/315 406/261/320 412/267/326
f 410/265/324 413/268/327 405/260/319
f 399/254/313 414/269/328 411/266/325
f 401/256/315 412/267/326 415/270/329
f 413/268/327 410/265/324 416/271/330
f 405/260/319 417/272/331 399/254/313
f 399/254/313 417/272/331 414/269/328
f 415/270/329 412/267/326 418/273/332
f 416/271/330 410/265/324 419/274/333
f 408/263/322 419/274/333 410/265/324
f 405/260/319 420/275/334 417/272/331
f 421/276/335 415/270/329 418/273/332
f 422/277/336 419/274/333 408/263/322
f 405/260/319 413/268/327 423/278/337
f 423/278/337 420/275/334 405/260/319
f 421/276/335 424/279/338 415/270/329
f 416/271/330 419/274/333 425/280/339
f 413/268/327 426/281/340 423/278/337
f 423/278/337 427/282/341 420/275/334
f 415/270/329 424/279/338 426/281/340
f 425/280/339 419/274/333 428/283/342
f 422/277/336 428/283/342 419/274/333
f 423/278/337 429/284/343 427/282/341
f 426/281/340 424/279/338 429/284/343
f 425/280/339 428/283/342 430/285/344
f 431/286/345 428/283/342 422/277/336
f 423/278/337 426/281/340 429/284/343
f 432/287/346 413/268/327 416/271/330
f 425/280/339 432/287/346 416/271/330
f 430/285/344 428/283/342 433/288/347
f 434/289/348 426/281/340 413/268/327
f 435/290/349 432/287/346 425/280/339
f 430/285/344 436/291/350 425/280/339
f 437/292/236 430/285/344 433/288/347
f 434/289/348 413/268/327 432/287/346
f 425/280/339 436/291/350 435/290/349
f 438/293/351 430/285/344 437/292/236
f 439/294/352 437/292/236 433/288/347
f 433/288/347 428/283/342 439/294/352
f 438/293/351 436/291/350 430/285/344
f 440/295/353 436/291/350 438/293/351
f 441/296/234 437/292/236 439/294/352
f 439/294/352 428/283/342 431/286/345
f 442/297/354 443/298/355 444/299/356
f 445/300/357 442/297/354 444/299/356
f 444/299/356 443/298/355 446/301/358
f 444/299/356 447/302/359 445/300/357
f 448/303/360 442/297/354 445/300/357
f 449/304/361 446/301/358 443/298/355
f 444/299/356 446/301/358 450/305/362
f 450/305/362 447/302/359 444/299/356
f 451/306/363 446/301/358 449/304/361
f 450/305/362 446/301/358 452/307/364
f 446/301/358 451/306/363 452/307/364
f 453/308/365 451/306/363 449/304/361
f 452/307/364 451/306/363 454/309/366
f 455/310/367 451/306/363 453/308/365
f 451/306/363 455/310/367 454/309/366
f 456/311/368 455/310/367 453/308/365
f 454/309/366 455/310/367 457/312/369
f 458/313/370 455/310/367 456/311/368
f 455/310/367 458/313/370 457/312/369
f 456/311/368 459/314/371 458/313/370
f 457/312/369 458/313/370 460/315/372
f 461/316/373 459/314/371 456/311/368
f 459/314/371 462/317/374 458/313/370
f 458/313/370 462/317/374 460/315/372
f 459/314/371 461/316/373 463/318/375
f 462/317/374 459/314/371 464/319/376
f 464/319/376 459/314/371 463/318/375
f 463/318/375 461/316/373 465/320/377
f 463/318/375 466/321/378 464/319/376
f 465/320/377 467/322/379 463/318/375
f 467/322/379 466/321/378 463/318/375
f 468/323/380 467/322/379 465/320/377
f 467/322/379 469/324/381 466/321/378
f 468/323/380 470/325/266 467/322/379
f 470/325/266 469/324/381 467/322/379
f 471/326/267 470/325/266 468/323/380
f 472/327/382 473/328/382 474/329/382
f 472/327/382 475/330/382 473/328/382
f 474/329/382 473/328/382 476/331/382
f 477/332/382 475/330/382 472/327/382
f 473/328/382 478/329/382 476/331/382
f 477/332/382 479/333/382 475/330/382
f 480/327/382 478/329/382 473/328/382
f 475/330/382 480/327/382 473/328/382
f 481/334/382 479/333/382 477/332/382
f 479/333/382 482/332/382 475/330/382
f 482/332/382 480/327/382 475/330/382
f 483/335/382 479/333/382 481/334/382
f 484/334/382 482/332/382 479/333/382
f 485/336/382 479/333/382 483/335/382
f 479/333/382 486/335/382 484/334/382
f 485/336/382 486/335/382 479/333/382
f 487/337/382 485/336/382 483/335/382
f 485/336/382 488/337/382 486/335/382
f 489/338/382 485/336/382 487/337/382
f 489/338/382 488/337/382 485/336/382
f 490/339/382 489/338/382 487/337/382
f 488/337/382 489/338/382 491/339/382
f 492/340/382 489/338/382 490/339/382
f 491/339/382 489/338/382 492/340/382
f 493/341/382 492/340/382 490/339/382
f 492/340/382 494/341/382 491/339/382
f 495/342/382 492/340/382 493/341/382
f 495/342/382 494/341/382 492/340/382
f 496/343/382 495/342/382 493/341/382
f 495/342/382 497/343/382 494/341/382
f 498/344/382 495/342/382 496/343/382
f 498/344/382 497/343/382 495/342/382
f 499/345/382 498/344/382 496/343/382
f 498/344/382 500/345/382 497/343/382
f 501/346/382 498/344/382 499/345/382
f 501/346/382 500/345/382 498/344/382
f 502/347/382 501/346/382 499/345/382
f 501/346/382 503/347/382 500/345/382
f 504/348/382 501/346/382 502/347/382
f 504/348/382 503/347/382 501/346/382
f 505/349/382 504/348/382 502/347/382
f 505/349/382 503/347/382 504/348/382
f 506/350/383 507/351/384 508/352/383
f 508/352/383 509/353/385 506/350/383
f 508/352/383 507/351/384 510/354/386
f 506/350/383 509/353/385 511/355/387
f 512/356/388 510/354/386 507/351/384
f 509/353/385 513/357/389 511/355/387
f 514/358/390 510/354/386 512/356/388
f 511/355/387 513/357/389 515/359/389
f 513/357/389 516/360/391 515/359/389
f 512/356/388 517/361/392 514/358/390
f 514/358/390 517/361/392 518/362/393
f 517/361/392 519/363/394 518/362/393
f 520/364/395 521/365/396 522/366/395
f 520/364/395 522/366/395 523/367/397
f 522/366/395 521/365/396 524/368/396
f 523/367/397 522/366/395 525/369/398
f 521/365/396 526/370/399 524/368/396
f 523/367/397 525/369/398 527/371/400
f 524/368/396 526/370/399 528/372/401
f 527/371/400 525/369/398 529/373/400
f 526/370/399 530/374/402 528/372/401
f 527/371/400 529/373/400 531/375/403
f 531/375/403 529/373/400 532/376/404
f 528/372/401 530/374/402 533/377/402
f 530/374/402 534/378/405 533/377/402
f 533/377/402 534/378/405 535/379/405
f 536/380/406 537/381/406 538/382/407
f 536/380/406 539/383/408 537/381/406
f 538/382/407 537/381/406 540/384/409
f 537/381/406 539/383/408 541/385/408
f 538/382/407 540/384/409 542/386/410
f 539/383/408 543/387/411 541/385/408
f 542/386/410 540/384/409 544/388/410
f 541/385/408 543/387/411 545/389/411
f 542/386/410 544/388/410 546/390/412
f 543/387/411 547/391/403 545/389/411
f 548/392/403 547/391/403 543/387/411
f 546/390/412 544/388/410 549/393/412
f 546/390/412 549/393/412 550/394/413
f 550/394/413 549/393/412 551/395/413
f 552/186/414 553/188/415 554/187/416
f 555/189/417 553/188/415 552/186/414
f 554/187/416 553/188/415 556/190/418
f 557/191/419 553/188/415 555/189/417
f 554/187/416 556/190/418 558/192/420
f 557/191/419 559/193/421 553/188/415
f 558/192/420 556/190/418 560/194/422
f 553/188/415 559/193/421 561/195/423
f 553/188/415 561/195/423 556/190/418
f 556/190/418 562/196/424 560/194/422
f 556/190/418 561/195/423 562/196/424
f 560/194/422 562/196/424 563/197/425
f 564/212/426 565/214/427 566/213/428
f 567/215/429 565/214/427 564/212/426
f 566/213/428 565/214/427 568/216/430
f 569/217/431 565/214/427 567/215/429
f 565/214/427 570/218/432 568/216/430
f 569/217/431 571/219/433 565/214/427
f 565/214/427 571/219/433 570/218/432
f 568/216/430 570/218/432 572/220/434
f 573/248/435 574/245/436 575/246/437
f 573/248/435 576/252/438 574/245/436
f 575/246/437 574/245/436 577/244/439
f 578/255/440 576/252/438 573/248/435
f 575/246/437 577/244/439 579/250/441
f 574/245/436 580/247/442 577/244/439
f 581/251/443 574/245/436 576/252/438
f 580/247/442 574/245/436 581/251/443
f 579/250/441 577/244/439 582/254/444
f 577/244/439 580/247/442 583/249/445
f 581/251/443 584/258/446 580/247/442
f 579/250/441 582/254/444 585/257/447
f 583/249/445 586/259/448 577/244/439
f 580/247/442 584/258/446 587/253/449
f 580/247/442 587/253/449 583/249/445
f 585/257/447 582/254/444 588/260/450
f 586/259/448 589/262/451 577/244/439
f 577/244/439 589/262/451 582/254/444
f 583/249/445 587/253/449 590/256/225
f 588/260/450 591/263/452 585/257/447
f 583/249/445 592/264/453 586/259/448
f 582/254/444 593/272/454 588/260/450
f 583/249/445 590/256/225 594/261/455
f 595/265/456 591/263/452 588/260/450
f 583/249/445 594/261/455 592/264/453
f 596/269/457 593/272/454 582/254/444
f 597/274/458 591/263/452 595/265/456
f 588/260/450 598/268/459 595/265/456
f 594/261/455 590/256/225 599/267/460
f 582/254/444 600/266/461 596/269/457
f 601/278/462 598/268/459 588/260/450
f 598/268/459 602/271/463 595/265/456
f 595/265/456 602/271/463 597/274/458
f 582/254/444 589/262/451 600/266/461
f 601/278/462 603/281/464 598/268/459
f 601/278/462 588/260/450 604/275/465
f 605/277/466 591/263/452 597/274/458
f 598/268/459 606/287/467 602/271/463
f 601/278/462 604/275/465 607/282/468
f 604/275/465 588/260/450 593/272/454
f 602/271/463 608/280/469 597/274/458
f 602/271/463 606/287/467 608/280/469
f 601/278/462 609/284/470 603/281/464
f 601/278/462 607/282/468 609/284/470
f 610/289/471 606/287/467 598/268/459
f 597/274/458 608/280/469 611/283/472
f 598/268/459 603/281/464 610/289/471
f 611/283/472 605/277/466 597/274/458
f 609/284/470 612/279/473 603/281/464
f 608/280/469 613/285/474 611/283/472
f 608/280/469 606/287/467 614/290/475
f 615/286/476 605/277/466 611/283/472
f 603/281/464 612/279/473 616/270/224
f 613/285/474 608/280/469 617/291/477
f 617/291/477 608/280/469 614/290/475
f 615/286/476 611/283/472 618/294/478
f 616/270/224 612/279/473 619/276/479
f 613/285/474 617/291/477 620/293/480
f 611/283/472 613/285/474 621/288/481
f 618/294/478 611/283/472 621/288/481
f 619/276/479 622/273/482 616/270/224
f 620/293/480 617/291/477 623/295/483
f 624/292/423 618/294/478 621/288/481
f 620/293/480 624/292/423 613/285/474
f 622/273/482 599/267/460 616/270/224
f 613/285/474 624/292/423 621/288/481
f 625/296/421 618/294/478 624/292/423
f 616/270/224 599/267/460 590/256/225
f 626/297/484 627/299/485 628/298/486
f 627/299/485 626/297/484 629/300/487
f 628/298/486 627/299/485 630/301/488
f 629/300/487 626/297/484 631/303/489
f 628/298/486 630/301/488 632/304/490
f 627/299/485 633/305/491 630/301/488
f 634/302/492 627/299/485 629/300/487
f 633/305/491 627/299/485 634/302/492
f 632/304/490 630/301/488 635/306/493
f 630/301/488 633/305/491 636/307/494
f 630/301/488 636/307/494 635/306/493
f 632/304/490 635/306/493 637/308/495
f 635/306/493 636/307/494 638/309/496
f 637/308/495 635/306/493 639/310/497
f 635/306/493 638/309/496 639/310/497
f 637/308/495 639/310/497 640/311/498
f 639/310/497 638/309/496 641/312/499
f 640/311/498 639/310/497 642/313/500
f 639/310/497 641/312/499 642/313/500
f 643/314/501 640/311/498 642/313/500
f 642/313/500 641/312/499 644/315/502
f 642/313/500 645/317/503 643/314/501
f 644/315/502 645/317/503 642/313/500
f 646/316/504 640/311/498 643/314/501
f 647/319/505 643/314/501 645/317/503
f 643/314/501 648/318/506 646/316/504
f 648/318/506 643/314/501 647/319/505
f 646/316/504 648/318/506 649/320/507
f 650/321/508 648/318/506 647/319/505
f 651/322/509 649/320/507 648/318/506
f 651/322/509 648/318/506 650/321/508
f 652/323/510 649/320/507 651/322/509
f 653/324/434 651/322/509 650/321/508
f 654/325/511 652/323/510 651/322/509
f 654/325/511 651/322/509 653/324/434
f 655/326/433 652/323/510 654/325/511
f 656/354/512 657/351/513 658/352/514
f 656/354/512 659/356/515 657/351/513
f 658/352/514 657/351/513 660/350/514
f 661/358/515 659/356/515 656/354/512
f 658/352/514 660/350/514 662/353/516
f 659/356/515 661/358/515 663/361/517
f 662/353/516 660/350/514 664/355/516
f 663/361/517 661/358/515 665/362/517
f 663/361/517 665/362/517 666/363/518
f 662/353/516 664/355/516 667/357/519
f 667/357/519 664/355/516 668/359/519
f 667/357/519 668/359/519 669/360/520
f 670/364/521 671/366/521 672/365/522
f 673/367/523 671/366/521 670/364/521
f 672/365/522 671/366/521 674/368/522
f 675/369/524 671/366/521 673/367/523
f 672/365/522 674/368/522 676/370/525
f 677/371/526 675/369/524 673/367/523
f 676/370/525 674/368/522 678/372/525
f 679/373/526 675/369/524 677/371/526
f 676/370/525 678/372/525 680/374/527
f 681/375/528 679/373/526 677/371/526
f 682/376/529 679/373/526 681/375/528
f 680/374/527 678/372/525 683/377/527
f 680/374/527 683/377/527 684/378/530
f 684/378/530 683/377/527 685/379/531
f 686/384/532 687/381/533 688/382/534
f 689/386/535 686/384/532 688/382/534
f 688/382/534 687/381/533 690/380/533
f 691/388/536 686/384/532 689/386/535
f 690/380/533 687/381/533 692/383/537
f 693/390/538 691/388/536 689/386/535
f 692/383/537 687/381/533 694/385/539
f 695/393/538 691/388/536 693/390/538
f 692/383/537 694/385/539 696/387/540
f 697/394/531 695/393/538 693/390/538
f 698/395/531 695/393/538 697/394/531
f 696/387/540 694/385/539 699/389/540
f 699/389/540 700/391/528 696/387/540
f 696/387/540 700/391/528 701/392/528
f 702/93/132 703/94/131 704/95/132
f 702/93/132 704/95/132 705/96/135
f 704/95/132 703/94/131 706/97/134
f 705/96/135 704/95/132 707/98/135
f 703/94/131 708/99/136 706/97/134
f 706/97/134 708/99/136 709/100/137
f 708/99/136 710/101/138 709/100/137
f 709/100/137 710/101/138 711/102/139
f 710/101/138 712/103/141 711/102/139
f 711/102/139 712/103/141 713/104/141
f 712/103/141 714/105/143 713/104/141
f 713/104/141 714/105/143 715/106/143
f 714/105/143 716/107/144 715/106/143
f 717/108/145 716/107/144 714/105/143
f 717/108/145 718/109/541 716/107/144
f 719/110/147 718/109/541 717/108/145
f 719/110/147 720/111/148 718/109/541
f 721/112/542 720/111/148 719/110/147
f 721/112/542 722/113/150 720/111/148
f 720/111/148 722/113/150 723/114/151
f 722/113/150 724/115/153 723/114/151
f 723/114/151 724/115/153 725/116/543
f 724/115/153 726/117/155 725/116/543
f 725/116/543 726/117/155 727/118/544
f 726/117/155 728/119/156 727/118/544
f 727/118/544 728/119/156 729/120/545
f 728/119/156 730/121/546 729/120/545
f 729/120/545 730/121/546 731/122/547
f 730/121/546 732/123/158 731/122/547
f 733/124/548 732/123/158 730/121/546
f 733/124/548 734/125/133 732/123/158
f 735/126/160 734/125/133 733/124/548
f 736/127/9 737/128/9 738/129/161
f 736/127/9 739/130/162 737/128/9
f 738/129/161 737/128/9 740/131/549
f 738/129/161 740/131/549 741/132/163
f 742/133/162 739/130/162 736/127/9
f 742/133/162 743/134/6 739/130/162
f 744/135/6 743/134/6 742/133/162
f 744/135/6 745/136/164 743/134/6
f 743/134/6 745/136/164 746/137/164
f 746/137/164 745/136/164 747/138/1
f 747/138/1 745/136/164 748/139/1
f 747/138/1 748/139/1 749/140/165
f 749/140/165 748/139/1 750/141/165
f 749/140/165 750/141/165 751/142/166
f 752/95/550 753/97/168 754/143/167
f 752/95/550 754/143/167 755/98/170
f 754/143/167 753/97/168 756/144/168
f 755/98/170 754/143/167 757/145/171
f 753/97/168 758/100/172 756/144/168
f 756/144/168 758/100/172 759/146/172
f 758/100/172 760/102/173 759/146/172
f 759/146/172 760/102/173 761/147/173
f 760/102/173 762/104/174 761/147/173
f 761/147/173 762/104/174 763/148/175
f 762/104/174 764/149/176 763/148/175
f 765/106/176 764/149/176 762/104/174
f 765/106/176 766/150/177 764/149/176
f 767/107/177 766/150/177 765/106/176
f 767/107/177 768/151/178 766/150/177
f 769/109/178 768/151/178 767/107/177
f 769/109/178 770/152/179 768/151/178
f 771/111/180 770/152/179 769/109/178
f 771/111/180 772/114/181 770/152/179
f 770/152/179 772/114/181 773/153/181
f 772/114/181 774/116/182 773/153/181
f 773/153/181 774/116/182 775/154/182
f 774/116/182 776/118/183 775/154/182
f 775/154/182 776/118/183 777/155/183
f 776/118/183 778/120/551 777/155/183
f 777/155/183 778/120/551 779/156/552
f 778/120/551 780/157/186 779/156/552
f 781/122/186 780/157/186 778/120/551
f 781/122/186 782/158/187 780/157/186
f 783/123/187 782/158/187 781/122/186
f 783/123/187 784/159/170 782/158/187
f 785/125/170 784/159/170 783/123/187
f 786/93/553 787/94/131 788/95/132
f 786/93/553 788/95/132 789/96/133
f 788/95/132 787/94/131 790/97/134
f 789/96/133 788/95/132 791/98/135
f 787/94/131 792/99/554 790/97/134
f 790/97/134 792/99/554 793/100/137
f 792/99/554 794/101/138 793/100/137
f 793/100/137 794/101/138 795/102/139
f 794/101/138 796/103/140 795/102/139
f 795/102/139 796/103/140 797/104/141
f 796/103/140 798/105/142 797/104/141
f 797/104/141 798/105/142 799/106/143
f 798/105/142 800/107/144 799/106/143
f 801/108/555 800/107/144 798/105/142
f 801/108/555 802/109/541 800/107/144
f 803/110/147 802/109/541 801/108/555
f 803/110/147 804/111/148 802/109/541
f 805/112/542 804/111/148 803/110/147
f 805/112/542 806/113/150 804/111/148
f 804/111/148 806/113/150 807/114/556
f 806/113/150 808/115/153 807/114/556
f 807/114/556 808/115/153 809/116/543
f 808/115/153 810/117/154 809/116/543
f 809/116/543 810/117/154 811/118/155
f 810/117/154 812/119/156 811/118/155
f 811/118/155 812/119/156 813/120/156
f 812/119/156 814/121/557 813/120/156
f 813/120/156 814/121/557 815/122/547
f 814/121/557 816/123/558 815/122/547
f 817/124/159 816/123/558 814/121/557
f 817/124/159 818/125/133 816/123/558
f 819/126/160 818/125/133 817/124/159
f 820/127/9 821/128/9 822/129/161
f 820/127/9 823/130/162 821/128/9
f 822/129/161 821/128/9 824/131/549
f 822/129/161 824/131/549 825/132/163
f 826/133/162 823/130/162 820/127/9
f 826/133/162 827/134/6 823/130/162
f 828/135/6 827/134/6 826/133/162
f 828/135/6 829/136/164 827/134/6
f 827/134/6 829/136/164 830/137/164
f 830/137/164 829/136/164 831/138/1
f 831/138/1 829/136/164 832/139/1
f 831/138/1 832/139/1 833/140/165
f 833/140/165 832/139/1 834/141/165
f 833/140/165 834/141/165 835/142/166
f 836/95/167 837/97/168 838/143/169
f 836/95/167 838/143/169 839/98/170
f 838/143/169 837/97/168 840/144/168
f 839/98/170 838/143/169 841/145/171
f 837/97/168 842/100/172 840/144/168
f 840/144/168 842/100/172 843/146/172
f 842/100/172 844/102/173 843/146/172
f 843/146/172 844/102/173 845/147/173
f 844/102/173 846/104/174 845/147/173
f 845/147/173 846/104/174 847/148/175
f 846/104/174 848/149/176 847/148/175
f 849/106/176 848/149/176 846/104/174
f 849/106/176 850/150/177 848/149/176
f 851/107/177 850/150/177 849/106/176
f 851/107/177 852/151/178 850/150/177
f 853/109/178 852/151/178 851/107/177
f 853/109/178 854/152/559 852/151/178
f 855/111/560 854/152/559 853/109/178
f 855/111/560 856/114/181 854/152/559
f 854/152/559 856/114/181 857/153/181
f 856/114/181 858/116/182 857/153/181
f 857/153/181 858/116/182 859/154/182
f 858/116/182 860/118/183 859/154/182
f 859/154/182 860/118/183 861/155/183
f 860/118/183 862/120/551 861/155/183
f 861/155/183 862/120/551 863/156/552
f 862/120/551 864/157/186 863/156/552
f 865/122/186 864/157/186 862/120/551
f 865/122/186 866/158/187 864/157/186
f 867/123/187 866/158/187 865/122/186
f 867/123/187 868/159/170 866/158/187
f 869/125/170 868/159/170 867/123/187
