# Blender 4.1.1
# www.blender.org
mtllib Wallsobj.mtl
o Walls_room:pieces:White
v -0.153166 0.088900 0.123068
v -0.153158 0.129905 0.123133
v -0.135827 0.088900 0.123068
v -0.135823 0.129905 0.123133
v -0.086832 0.088900 0.123068
v -0.086841 0.129905 0.123133
v -0.033734 0.088900 0.123068
v -0.033756 0.129905 0.123133
v 0.012013 0.129905 0.123133
v -0.135831 0.042246 0.122993
v -0.135819 0.169843 0.123198
v -0.033778 0.169843 0.123198
v -0.153176 0.042246 0.122993
v -0.086849 0.169843 0.123198
v 0.011980 0.169843 0.123198
v -0.086822 0.042246 0.122993
v 0.012047 0.088900 0.123068
v -0.033708 0.042246 0.122993
v 0.058365 0.169843 0.123198
v -0.033785 0.182760 0.123218
v 0.058410 0.129905 0.123133
v -0.086852 0.182760 0.123218
v 0.012086 0.042246 0.122993
v 0.058456 0.088900 0.123068
v 0.091224 0.169843 0.123198
v 0.091278 0.129905 0.123133
v 0.091207 0.182760 0.123218
v -0.135817 0.182760 0.123218
v 0.106538 0.169843 0.123198
v 0.058351 0.182760 0.123218
v -0.153150 0.169843 0.123198
v 0.106595 0.129905 0.123133
v 0.106519 0.182760 0.123218
v -0.153147 0.182760 0.123218
v 0.091332 0.088900 0.123068
v 0.058509 0.042246 0.122993
v 0.106653 0.088900 0.123068
v 0.011969 0.182760 0.123218
v 0.091395 0.042246 0.122993
v 0.012114 0.009193 0.122940
v 0.106720 0.042246 0.122993
v 0.058546 0.009193 0.122940
v 0.091439 0.009193 0.122940
v -0.033690 0.009193 0.122940
v 0.106768 0.009193 0.122940
v 0.058557 -0.000565 0.122924
v 0.091452 -0.000565 0.122924
v 0.012122 -0.000565 0.122924
v -0.086815 0.009193 0.122940
v 0.106781 -0.000565 0.122924
v -0.033685 -0.000565 0.122924
v -0.086813 -0.000565 0.122924
v -0.135834 0.009193 0.122940
v -0.135835 -0.000565 0.122924
v -0.153183 0.009193 0.122940
v -0.153185 -0.000565 0.122924
v -0.153147 0.182760 0.123218
v -0.153147 0.182760 0.108596
v -0.135817 0.182760 0.123218
v -0.135817 0.182760 0.108596
v -0.086852 0.182760 0.123218
v -0.135817 0.182760 0.008992
v -0.086852 0.182760 0.108596
v -0.153147 0.182760 0.008992
v -0.033785 0.182760 0.123218
v -0.086852 0.182760 0.008992
v -0.135817 0.182760 -0.026516
v -0.033785 0.182760 0.108596
v -0.033785 0.182760 0.008992
v -0.086852 0.182760 -0.026516
v -0.153147 0.182760 -0.026516
v 0.011969 0.182760 0.008992
v -0.033785 0.182760 -0.026516
v -0.135817 0.182760 -0.062949
v 0.011969 0.182760 0.108596
v 0.011969 0.182760 -0.026516
v -0.086852 0.182760 -0.061903
v 0.011969 0.182760 0.123218
v -0.033785 0.182760 -0.060770
v 0.058351 0.182760 -0.026516
v 0.058351 0.182760 0.123218
v 0.011969 0.182760 -0.059793
v 0.058351 0.182760 0.008992
v 0.058351 0.182760 0.108596
v 0.058351 0.182760 -0.058897
v 0.011969 0.182760 -0.099466
v 0.091207 0.182760 -0.026516
v 0.058351 0.182760 -0.098818
v 0.091207 0.182760 0.123218
v 0.091207 0.182760 0.008992
v 0.091207 0.182760 -0.098668
v 0.091207 0.182760 0.108596
v 0.091207 0.182760 -0.058689
v 0.106519 0.182760 0.123218
v 0.091207 0.182760 -0.142578
v 0.106519 0.182760 -0.026516
v 0.106519 0.182760 -0.098598
v 0.106519 0.182760 0.108596
v 0.106519 0.182760 -0.058592
v 0.106519 0.182760 -0.142537
v 0.106519 0.182760 0.008992
v 0.058351 0.182760 -0.142664
v 0.106519 0.182760 -0.183196
v 0.091207 0.182760 -0.183225
v 0.011969 0.182760 -0.143039
v 0.106519 0.182760 -0.245306
v 0.058351 0.182760 -0.183287
v -0.033785 0.182760 -0.100172
v 0.091207 0.182760 -0.245318
v -0.033785 0.182760 -0.143448
v 0.106519 0.182760 -0.262073
v 0.058351 0.182760 -0.245342
v -0.086852 0.182760 -0.100991
v 0.091207 0.182760 -0.262073
v 0.011969 0.182760 -0.183555
v 0.058351 0.182760 -0.262073
v -0.086852 0.182760 -0.143922
v 0.011969 0.182760 -0.245446
v -0.135817 0.182760 -0.101747
v -0.033785 0.182760 -0.183847
v 0.011969 0.182760 -0.262073
v -0.153147 0.182760 -0.063319
v -0.033785 0.182760 -0.245559
v -0.135817 0.182760 -0.144359
v -0.033785 0.182760 -0.262073
v -0.086852 0.182760 -0.184186
v -0.153147 0.182760 -0.102014
v -0.086852 0.182760 -0.245691
v -0.086852 0.182760 -0.262073
v -0.153147 0.182760 -0.144514
v -0.135817 0.182760 -0.184498
v -0.135817 0.182760 -0.245813
v -0.153147 0.182760 -0.184609
v -0.135817 0.182760 -0.262073
v -0.153147 0.182760 -0.245856
v -0.153147 0.182760 -0.262073
v -0.153166 0.088900 0.108450
v -0.153158 0.129905 0.108514
v -0.153166 0.088900 0.123068
v -0.153176 0.042246 0.122993
v -0.153158 0.129905 0.123133
v -0.153176 0.042246 0.108377
v -0.153158 0.129905 0.008916
v -0.153150 0.169843 0.108576
v -0.153166 0.088900 0.008858
v -0.153183 0.009193 0.122940
v -0.153150 0.169843 0.008973
v -0.153158 0.129905 -0.026585
v -0.153183 0.009193 0.108326
v -0.153150 0.169843 0.123198
v -0.153166 0.088900 -0.026639
v -0.153185 -0.000565 0.122924
v -0.153176 0.042246 0.008791
v -0.153147 0.182760 0.108596
v -0.153147 0.182760 0.123218
v -0.153176 0.042246 -0.026700
v -0.153185 -0.000565 0.108311
v -0.153147 0.182760 0.008992
v -0.153166 0.088900 -0.068682
v -0.153183 0.009193 0.008744
v -0.153147 0.182760 -0.026516
v -0.153158 0.129905 -0.066339
v -0.153150 0.169843 -0.026533
v -0.153158 0.129905 -0.104208
v -0.153185 -0.000565 0.008730
v -0.153166 0.088900 -0.105909
v -0.153183 0.009193 -0.026743
v -0.153176 0.042246 -0.071500
v -0.153150 0.169843 -0.064057
v -0.153176 0.042246 -0.107955
v -0.153147 0.182760 -0.063319
v -0.153150 0.169843 -0.102550
v -0.153166 0.088900 -0.146796
v -0.153147 0.182760 -0.102014
v -0.153176 0.042246 -0.147994
v -0.153158 0.129905 -0.145799
v -0.153183 0.009193 -0.109319
v -0.153147 0.182760 -0.144514
v -0.153158 0.129905 -0.185537
v -0.153183 0.009193 -0.148793
v -0.153150 0.169843 -0.144828
v -0.153150 0.169843 -0.184836
v -0.153166 0.088900 -0.186258
v -0.153147 0.182760 -0.184609
v -0.153176 0.042246 -0.187123
v -0.153158 0.129905 -0.246240
v -0.153147 0.182760 -0.245856
v -0.153185 -0.000565 -0.109722
v -0.153166 0.088900 -0.246538
v -0.153150 0.169843 -0.245949
v -0.153185 -0.000565 -0.073933
v -0.153176 0.042246 -0.246894
v -0.153185 -0.000565 -0.149029
v -0.153166 0.088900 -0.262140
v -0.153183 0.009193 -0.187700
v -0.153150 0.169843 -0.262082
v -0.153158 0.129905 -0.262111
v -0.153147 0.182760 -0.262073
v -0.153183 0.009193 -0.247133
v -0.153176 0.042246 -0.262173
v -0.153185 -0.000565 -0.187871
v -0.153183 0.009193 -0.262197
v -0.153185 -0.000565 -0.247204
v -0.153185 -0.000565 -0.262203
v -0.153185 -0.000565 -0.026756
v -0.153183 0.009193 -0.073378
vn -0.0000 0.0016 -1.0000
vn -0.0000 -1.0000 -0.0000
vn 1.0000 -0.0002 -0.0000
vt 0.375000 0.122003
vt 0.375000 0.177922
vt 0.391684 0.122003
vt 0.391684 0.177922
vt 0.438827 0.122003
vt 0.438827 0.177922
vt 0.489919 0.122003
vt 0.489919 0.177922
vt 0.533970 0.177922
vt 0.391684 0.058382
vt 0.391684 0.232385
vt 0.489919 0.232385
vt 0.375000 0.058382
vt 0.438827 0.232385
vt 0.533970 0.232385
vt 0.438827 0.058382
vt 0.533970 0.122003
vt 0.489919 0.058382
vt 0.578624 0.232385
vt 0.489919 0.250000
vt 0.578624 0.177922
vt 0.438827 0.250000
vt 0.533970 0.058382
vt 0.578624 0.122003
vt 0.610258 0.232385
vt 0.610258 0.177922
vt 0.610258 0.250000
vt 0.391684 0.250000
vt 0.625000 0.232385
vt 0.578624 0.250000
vt 0.375000 0.232385
vt 0.625000 0.177922
vt 0.625000 0.250000
vt 0.375000 0.250000
vt 0.610258 0.122003
vt 0.578624 0.058382
vt 0.625000 0.122003
vt 0.533970 0.250000
vt 0.610258 0.058382
vt 0.533970 0.013307
vt 0.625000 0.058382
vt 0.578624 0.013307
vt 0.610258 0.013307
vt 0.489919 0.013307
vt 0.625000 0.013307
vt 0.578624 0.000000
vt 0.610258 0.000000
vt 0.533970 0.000000
vt 0.438827 0.013307
vt 0.625000 0.000000
vt 0.489919 0.000000
vt 0.438827 0.000000
vt 0.391684 0.013307
vt 0.391684 0.000000
vt 0.375000 0.013307
vt 0.375000 0.000000
vt 0.375000 0.263805
vt 0.391684 0.263805
vt 0.391684 0.299957
vt 0.438827 0.263805
vt 0.375000 0.299957
vt 0.438827 0.299957
vt 0.391684 0.333480
vt 0.489919 0.263805
vt 0.489919 0.299957
vt 0.438827 0.333480
vt 0.375000 0.333480
vt 0.533970 0.299957
vt 0.489919 0.333480
vt 0.391684 0.367877
vt 0.533970 0.263805
vt 0.533970 0.333480
vt 0.438827 0.366890
vt 0.489919 0.365820
vt 0.578624 0.333480
vt 0.533970 0.364897
vt 0.578624 0.299957
vt 0.578624 0.263805
vt 0.578624 0.364051
vt 0.533970 0.402353
vt 0.610258 0.333480
vt 0.578624 0.401742
vt 0.610258 0.299957
vt 0.610258 0.401600
vt 0.610258 0.263805
vt 0.610258 0.363855
vt 0.610258 0.443056
vt 0.625000 0.333480
vt 0.625000 0.401534
vt 0.625000 0.263805
vt 0.625000 0.363764
vt 0.625000 0.443017
vt 0.625000 0.299957
vt 0.578624 0.443138
vt 0.625000 0.459299
vt 0.610258 0.459326
vt 0.533970 0.443491
vt 0.625000 0.484170
vt 0.578624 0.459385
vt 0.489919 0.403020
vt 0.610258 0.484181
vt 0.489919 0.443877
vt 0.625000 0.500000
vt 0.578624 0.484204
vt 0.438827 0.403793
vt 0.610258 0.500000
vt 0.533970 0.459638
vt 0.578624 0.500000
vt 0.438827 0.444325
vt 0.533970 0.484302
vt 0.391684 0.404507
vt 0.489919 0.459913
vt 0.533970 0.500000
vt 0.375000 0.368226
vt 0.489919 0.484409
vt 0.391684 0.444738
vt 0.489919 0.500000
vt 0.438827 0.460233
vt 0.375000 0.404759
vt 0.438827 0.484533
vt 0.438827 0.500000
vt 0.375000 0.444884
vt 0.391684 0.460528
vt 0.391684 0.484648
vt 0.375000 0.460632
vt 0.391684 0.500000
vt 0.375000 0.484689
vt 0.375000 0.500000
vt 0.361195 0.122003
vt 0.361195 0.177922
vt 0.361195 0.058382
vt 0.325043 0.177922
vt 0.361195 0.232385
vt 0.325043 0.122003
vt 0.325043 0.232385
vt 0.291519 0.177922
vt 0.361195 0.013307
vt 0.291519 0.122003
vt 0.325043 0.058382
vt 0.361195 0.250000
vt 0.291519 0.058382
vt 0.361195 0.000000
vt 0.325043 0.250000
vt 0.251813 0.122003
vt 0.325043 0.013307
vt 0.291519 0.250000
vt 0.253980 0.177922
vt 0.291519 0.232385
vt 0.218222 0.177922
vt 0.325043 0.000000
vt 0.216656 0.122003
vt 0.291519 0.013307
vt 0.249203 0.058382
vt 0.256091 0.232385
vt 0.214769 0.058382
vt 0.256774 0.250000
vt 0.219747 0.232385
vt 0.178041 0.122003
vt 0.220241 0.250000
vt 0.176950 0.058382
vt 0.178948 0.177922
vt 0.213513 0.013307
vt 0.180116 0.250000
vt 0.163533 0.177922
vt 0.176222 0.013307
vt 0.179830 0.232385
vt 0.164164 0.232385
vt 0.162886 0.122003
vt 0.164368 0.250000
vt 0.162106 0.058382
vt 0.139987 0.177922
vt 0.140311 0.250000
vt 0.213142 0.000000
vt 0.139735 0.122003
vt 0.140232 0.232385
vt 0.246951 0.000000
vt 0.139432 0.058382
vt 0.176008 0.000000
vt 0.125000 0.122003
vt 0.161587 0.013307
vt 0.125000 0.232385
vt 0.125000 0.177922
vt 0.125000 0.250000
vt 0.139230 0.013307
vt 0.125000 0.058382
vt 0.161433 0.000000
vt 0.125000 0.013307
vt 0.139170 0.000000
vt 0.125000 0.000000
vt 0.291519 0.000000
vt 0.247465 0.013307
s 1
g Walls_room:pieces:White_room:pieces:White
usemtl room:pieces:White
f 1/1/1 2/2/1 3/3/1
f 3/3/1 2/2/1 4/4/1
f 3/3/1 4/4/1 5/5/1
f 5/5/1 4/4/1 6/6/1
f 5/5/1 6/6/1 7/7/1
f 7/7/1 6/6/1 8/8/1
f 8/8/1 9/9/1 7/7/1
f 10/10/1 1/1/1 3/3/1
f 4/4/1 2/2/1 11/11/1
f 8/8/1 6/6/1 12/12/1
f 13/13/1 1/1/1 10/10/1
f 6/6/1 4/4/1 14/14/1
f 14/14/1 4/4/1 11/11/1
f 9/9/1 8/8/1 15/15/1
f 12/12/1 6/6/1 14/14/1
f 10/10/1 3/3/1 16/16/1
f 16/16/1 3/3/1 5/5/1
f 15/15/1 8/8/1 12/12/1
f 7/7/1 9/9/1 17/17/1
f 16/16/1 5/5/1 18/18/1
f 19/19/1 9/9/1 15/15/1
f 12/12/1 14/14/1 20/20/1
f 7/7/1 17/17/1 18/18/1
f 18/18/1 5/5/1 7/7/1
f 9/9/1 21/21/1 17/17/1
f 21/21/1 9/9/1 19/19/1
f 20/20/1 14/14/1 22/22/1
f 18/18/1 17/17/1 23/23/1
f 17/17/1 21/21/1 24/24/1
f 25/25/1 21/21/1 19/19/1
f 14/14/1 11/11/1 22/22/1
f 17/17/1 24/24/1 23/23/1
f 26/26/1 21/21/1 25/25/1
f 25/25/1 19/19/1 27/27/1
f 22/22/1 11/11/1 28/28/1
f 26/26/1 24/24/1 21/21/1
f 29/29/1 26/26/1 25/25/1
f 27/27/1 19/19/1 30/30/1
f 11/11/1 31/31/1 28/28/1
f 32/32/1 26/26/1 29/29/1
f 33/33/1 25/25/1 27/27/1
f 11/11/1 2/2/1 31/31/1
f 28/28/1 31/31/1 34/34/1
f 29/29/1 25/25/1 33/33/1
f 35/35/1 24/24/1 26/26/1
f 32/32/1 35/35/1 26/26/1
f 19/19/1 15/15/1 30/30/1
f 35/35/1 36/36/1 24/24/1
f 37/37/1 35/35/1 32/32/1
f 30/30/1 15/15/1 38/38/1
f 23/23/1 24/24/1 36/36/1
f 37/37/1 39/39/1 35/35/1
f 39/39/1 36/36/1 35/35/1
f 15/15/1 12/12/1 38/38/1
f 36/36/1 40/40/1 23/23/1
f 41/41/1 39/39/1 37/37/1
f 38/38/1 12/12/1 20/20/1
f 42/42/1 40/40/1 36/36/1
f 41/41/1 43/43/1 39/39/1
f 40/40/1 44/44/1 23/23/1
f 43/43/1 42/42/1 39/39/1
f 39/39/1 42/42/1 36/36/1
f 45/45/1 43/43/1 41/41/1
f 46/46/1 40/40/1 42/42/1
f 23/23/1 44/44/1 18/18/1
f 43/43/1 45/45/1 47/47/1
f 42/42/1 43/43/1 46/46/1
f 48/48/1 40/40/1 46/46/1
f 48/48/1 44/44/1 40/40/1
f 44/44/1 49/49/1 18/18/1
f 46/46/1 43/43/1 47/47/1
f 47/47/1 45/45/1 50/50/1
f 51/51/1 44/44/1 48/48/1
f 51/51/1 49/49/1 44/44/1
f 18/18/1 49/49/1 16/16/1
f 52/52/1 49/49/1 51/51/1
f 49/49/1 53/53/1 16/16/1
f 52/52/1 53/53/1 49/49/1
f 16/16/1 53/53/1 10/10/1
f 54/54/1 53/53/1 52/52/1
f 53/53/1 55/55/1 10/10/1
f 54/54/1 55/55/1 53/53/1
f 10/10/1 55/55/1 13/13/1
f 56/56/1 55/55/1 54/54/1
f 57/34/2 58/57/2 59/28/2
f 59/28/2 58/57/2 60/58/2
f 59/28/2 60/58/2 61/22/2
f 60/58/2 58/57/2 62/59/2
f 61/22/2 60/58/2 63/60/2
f 62/59/2 58/57/2 64/61/2
f 61/22/2 63/60/2 65/20/2
f 63/60/2 60/58/2 66/62/2
f 66/62/2 60/58/2 62/59/2
f 62/59/2 64/61/2 67/63/2
f 65/20/2 63/60/2 68/64/2
f 69/65/2 63/60/2 66/62/2
f 68/64/2 63/60/2 69/65/2
f 66/62/2 62/59/2 70/66/2
f 67/63/2 64/61/2 71/67/2
f 72/68/2 68/64/2 69/65/2
f 69/65/2 66/62/2 73/69/2
f 73/69/2 66/62/2 70/66/2
f 70/66/2 62/59/2 67/63/2
f 67/63/2 71/67/2 74/70/2
f 75/71/2 68/64/2 72/68/2
f 76/72/2 69/65/2 73/69/2
f 70/66/2 67/63/2 77/73/2
f 77/73/2 67/63/2 74/70/2
f 65/20/2 68/64/2 78/38/2
f 72/68/2 69/65/2 76/72/2
f 78/38/2 68/64/2 75/71/2
f 79/74/2 70/66/2 77/73/2
f 73/69/2 70/66/2 79/74/2
f 80/75/2 72/68/2 76/72/2
f 78/38/2 75/71/2 81/30/2
f 76/72/2 73/69/2 82/76/2
f 82/76/2 73/69/2 79/74/2
f 83/77/2 72/68/2 80/75/2
f 83/77/2 75/71/2 72/68/2
f 81/30/2 75/71/2 84/78/2
f 85/79/2 76/72/2 82/76/2
f 80/75/2 76/72/2 85/79/2
f 84/78/2 75/71/2 83/77/2
f 82/76/2 79/74/2 86/80/2
f 87/81/2 83/77/2 80/75/2
f 85/79/2 82/76/2 88/82/2
f 81/30/2 84/78/2 89/27/2
f 88/82/2 82/76/2 86/80/2
f 90/83/2 83/77/2 87/81/2
f 91/84/2 85/79/2 88/82/2
f 90/83/2 84/78/2 83/77/2
f 89/27/2 84/78/2 92/85/2
f 87/81/2 80/75/2 93/86/2
f 93/86/2 85/79/2 91/84/2
f 92/85/2 84/78/2 90/83/2
f 89/27/2 92/85/2 94/33/2
f 93/86/2 80/75/2 85/79/2
f 91/84/2 88/82/2 95/87/2
f 96/88/2 90/83/2 87/81/2
f 97/89/2 93/86/2 91/84/2
f 94/33/2 92/85/2 98/90/2
f 96/88/2 87/81/2 99/91/2
f 99/91/2 93/86/2 97/89/2
f 97/89/2 91/84/2 100/92/2
f 100/92/2 91/84/2 95/87/2
f 98/90/2 92/85/2 101/93/2
f 99/91/2 87/81/2 93/86/2
f 101/93/2 90/83/2 96/88/2
f 95/87/2 88/82/2 102/94/2
f 101/93/2 92/85/2 90/83/2
f 100/92/2 95/87/2 103/95/2
f 88/82/2 86/80/2 102/94/2
f 103/95/2 95/87/2 104/96/2
f 95/87/2 102/94/2 104/96/2
f 102/94/2 86/80/2 105/97/2
f 103/95/2 104/96/2 106/98/2
f 104/96/2 102/94/2 107/99/2
f 102/94/2 105/97/2 107/99/2
f 86/80/2 108/100/2 105/97/2
f 106/98/2 104/96/2 109/101/2
f 104/96/2 107/99/2 109/101/2
f 86/80/2 79/74/2 108/100/2
f 105/97/2 108/100/2 110/102/2
f 106/98/2 109/101/2 111/103/2
f 109/101/2 107/99/2 112/104/2
f 79/74/2 77/73/2 108/100/2
f 108/100/2 113/105/2 110/102/2
f 111/103/2 109/101/2 114/106/2
f 109/101/2 112/104/2 114/106/2
f 107/99/2 115/107/2 112/104/2
f 108/100/2 77/73/2 113/105/2
f 105/97/2 110/102/2 115/107/2
f 114/106/2 112/104/2 116/108/2
f 107/99/2 105/97/2 115/107/2
f 77/73/2 74/70/2 113/105/2
f 110/102/2 113/105/2 117/109/2
f 112/104/2 118/110/2 116/108/2
f 112/104/2 115/107/2 118/110/2
f 113/105/2 74/70/2 119/111/2
f 115/107/2 110/102/2 120/112/2
f 113/105/2 119/111/2 117/109/2
f 116/108/2 118/110/2 121/113/2
f 115/107/2 120/112/2 118/110/2
f 110/102/2 117/109/2 120/112/2
f 74/70/2 122/114/2 119/111/2
f 118/110/2 123/115/2 121/113/2
f 118/110/2 120/112/2 123/115/2
f 117/109/2 119/111/2 124/116/2
f 74/70/2 71/67/2 122/114/2
f 121/113/2 123/115/2 125/117/2
f 120/112/2 117/109/2 126/118/2
f 117/109/2 124/116/2 126/118/2
f 119/111/2 122/114/2 127/119/2
f 120/112/2 126/118/2 123/115/2
f 123/115/2 128/120/2 125/117/2
f 119/111/2 127/119/2 124/116/2
f 123/115/2 126/118/2 128/120/2
f 125/117/2 128/120/2 129/121/2
f 124/116/2 127/119/2 130/122/2
f 126/118/2 131/123/2 128/120/2
f 126/118/2 124/116/2 131/123/2
f 124/116/2 130/122/2 131/123/2
f 128/120/2 132/124/2 129/121/2
f 128/120/2 131/123/2 132/124/2
f 131/123/2 130/122/2 133/125/2
f 131/123/2 133/125/2 132/124/2
f 129/121/2 132/124/2 134/126/2
f 132/124/2 133/125/2 135/127/2
f 132/124/2 135/127/2 134/126/2
f 134/126/2 135/127/2 136/128/2
f 137/129/3 138/130/3 139/1/3
f 140/13/3 137/129/3 139/1/3
f 139/1/3 138/130/3 141/2/3
f 142/131/3 137/129/3 140/13/3
f 137/129/3 143/132/3 138/130/3
f 138/130/3 144/133/3 141/2/3
f 142/131/3 145/134/3 137/129/3
f 145/134/3 143/132/3 137/129/3
f 146/55/3 142/131/3 140/13/3
f 143/132/3 147/135/3 138/130/3
f 138/130/3 147/135/3 144/133/3
f 145/134/3 148/136/3 143/132/3
f 149/137/3 142/131/3 146/55/3
f 141/2/3 144/133/3 150/31/3
f 151/138/3 148/136/3 145/134/3
f 152/56/3 149/137/3 146/55/3
f 153/139/3 145/134/3 142/131/3
f 144/133/3 154/140/3 150/31/3
f 153/139/3 151/138/3 145/134/3
f 149/137/3 153/139/3 142/131/3
f 144/133/3 147/135/3 154/140/3
f 150/31/3 154/140/3 155/34/3
f 156/141/3 151/138/3 153/139/3
f 157/142/3 149/137/3 152/56/3
f 154/140/3 147/135/3 158/143/3
f 156/141/3 159/144/3 151/138/3
f 157/142/3 160/145/3 149/137/3
f 160/145/3 156/141/3 153/139/3
f 147/135/3 161/146/3 158/143/3
f 159/144/3 162/147/3 151/138/3
f 160/145/3 153/139/3 149/137/3
f 163/148/3 161/146/3 147/135/3
f 159/144/3 164/149/3 162/147/3
f 165/150/3 160/145/3 157/142/3
f 143/132/3 163/148/3 147/135/3
f 166/151/3 164/149/3 159/144/3
f 165/150/3 167/152/3 160/145/3
f 148/136/3 163/148/3 143/132/3
f 151/138/3 162/147/3 148/136/3
f 168/153/3 166/151/3 159/144/3
f 167/152/3 156/141/3 160/145/3
f 148/136/3 169/154/3 163/148/3
f 168/153/3 159/144/3 156/141/3
f 162/147/3 169/154/3 148/136/3
f 167/152/3 168/153/3 156/141/3
f 170/155/3 166/151/3 168/153/3
f 169/154/3 171/156/3 163/148/3
f 164/149/3 172/157/3 162/147/3
f 170/155/3 173/158/3 166/151/3
f 162/147/3 172/157/3 169/154/3
f 169/154/3 174/159/3 171/156/3
f 163/148/3 171/156/3 161/146/3
f 175/160/3 173/158/3 170/155/3
f 172/157/3 174/159/3 169/154/3
f 173/158/3 176/161/3 166/151/3
f 166/151/3 176/161/3 164/149/3
f 177/162/3 175/160/3 170/155/3
f 172/157/3 178/163/3 174/159/3
f 173/158/3 179/164/3 176/161/3
f 180/165/3 175/160/3 177/162/3
f 164/149/3 181/166/3 172/157/3
f 181/166/3 178/163/3 172/157/3
f 179/164/3 182/167/3 176/161/3
f 175/160/3 183/168/3 173/158/3
f 176/161/3 181/166/3 164/149/3
f 181/166/3 184/169/3 178/163/3
f 182/167/3 184/169/3 181/166/3
f 183/168/3 179/164/3 173/158/3
f 176/161/3 182/167/3 181/166/3
f 185/170/3 183/168/3 175/160/3
f 180/165/3 185/170/3 175/160/3
f 183/168/3 186/171/3 179/164/3
f 182/167/3 187/172/3 184/169/3
f 188/173/3 180/165/3 177/162/3
f 185/170/3 189/174/3 183/168/3
f 189/174/3 186/171/3 183/168/3
f 190/175/3 187/172/3 182/167/3
f 186/171/3 190/175/3 179/164/3
f 188/173/3 177/162/3 191/176/3
f 192/177/3 189/174/3 185/170/3
f 179/164/3 190/175/3 182/167/3
f 193/178/3 180/165/3 188/173/3
f 192/177/3 194/179/3 189/174/3
f 195/180/3 192/177/3 185/170/3
f 186/171/3 196/181/3 190/175/3
f 195/180/3 185/170/3 180/165/3
f 193/178/3 195/180/3 180/165/3
f 194/179/3 197/182/3 189/174/3
f 197/182/3 196/181/3 186/171/3
f 196/181/3 198/183/3 190/175/3
f 199/184/3 192/177/3 195/180/3
f 189/174/3 197/182/3 186/171/3
f 200/185/3 194/179/3 192/177/3
f 190/175/3 198/183/3 187/172/3
f 199/184/3 200/185/3 192/177/3
f 201/186/3 199/184/3 195/180/3
f 201/186/3 195/180/3 193/178/3
f 202/187/3 200/185/3 199/184/3
f 203/188/3 199/184/3 201/186/3
f 203/188/3 202/187/3 199/184/3
f 204/189/3 202/187/3 203/188/3
f 205/190/3 167/152/3 165/150/3
f 205/190/3 206/191/3 167/152/3
f 191/176/3 206/191/3 205/190/3
f 206/191/3 168/153/3 167/152/3
f 191/176/3 177/162/3 206/191/3
f 206/191/3 170/155/3 168/153/3
f 177/162/3 170/155/3 206/191/3
