# Blender 4.1.1
# www.blender.org
mtllib Window.mtl
o Curtins_room:GUI_BonnieRoom_WhiteCeiling
v 0.112003 0.093239 -0.024276
v 0.112003 0.095780 -0.021796
v 0.112003 0.073534 -0.024276
v 0.111998 0.095789 -0.042356
v 0.112003 0.070982 -0.021796
v 0.111998 0.093247 -0.041626
v 0.111998 0.070994 -0.042356
v 0.111997 0.093248 -0.043086
v 0.111998 0.073544 -0.041626
v 0.111992 0.095799 -0.059756
v 0.111997 0.073546 -0.043086
v 0.111992 0.093257 -0.059097
v 0.111992 0.071006 -0.059756
v 0.111991 0.093258 -0.060414
v 0.111992 0.073556 -0.059097
v 0.111986 0.093267 -0.073963
v 0.111991 0.073558 -0.060414
v 0.111985 0.095809 -0.076674
v 0.111986 0.073569 -0.073963
v 0.111985 0.071019 -0.076674
v 0.108861 0.093267 -0.073963
v 0.108860 0.095809 -0.076674
v 0.108861 0.073569 -0.073963
v 0.108867 0.095799 -0.059756
v 0.108860 0.071019 -0.076674
v 0.108866 0.093258 -0.060414
v 0.108867 0.071006 -0.059756
v 0.108867 0.093257 -0.059097
v 0.108866 0.073558 -0.060414
v 0.108872 0.093248 -0.043086
v 0.108867 0.073556 -0.059097
v 0.108873 0.095789 -0.042356
v 0.108872 0.073546 -0.043086
v 0.108873 0.093247 -0.041626
v 0.108873 0.070994 -0.042356
v 0.108878 0.093239 -0.024276
v 0.108873 0.073544 -0.041626
v 0.108879 0.095780 -0.021796
v 0.108878 0.073534 -0.024276
v 0.108879 0.070982 -0.021796
v 0.112003 0.070982 -0.021796
v 0.112003 0.095780 -0.021796
v 0.108879 0.070982 -0.021796
v 0.108879 0.095780 -0.021796
v 0.111992 0.095799 -0.059756
v 0.111985 0.095809 -0.076674
v 0.108867 0.095799 -0.059756
v 0.108860 0.095809 -0.076674
v 0.111985 0.095809 -0.076674
v 0.111985 0.071019 -0.076674
v 0.108860 0.095809 -0.076674
v 0.108860 0.071019 -0.076674
v 0.108866 0.073558 -0.060414
v 0.108866 0.093258 -0.060414
v 0.111991 0.073558 -0.060414
v 0.111991 0.093258 -0.060414
v 0.108873 0.070994 -0.042356
v 0.108867 0.071006 -0.059756
v 0.111998 0.070994 -0.042356
v 0.111992 0.071006 -0.059756
v 0.111992 0.073556 -0.059097
v 0.108867 0.073556 -0.059097
v 0.111997 0.073546 -0.043086
v 0.108872 0.073546 -0.043086
v 0.108872 0.093248 -0.043086
v 0.108867 0.093257 -0.059097
v 0.111997 0.093248 -0.043086
v 0.111992 0.093257 -0.059097
v 0.108867 0.093257 -0.059097
v 0.108867 0.073556 -0.059097
v 0.111992 0.093257 -0.059097
v 0.111992 0.073556 -0.059097
v 0.108867 0.095799 -0.059756
v 0.108873 0.095789 -0.042356
v 0.111992 0.095799 -0.059756
v 0.111998 0.095789 -0.042356
v 0.108872 0.073546 -0.043086
v 0.108872 0.093248 -0.043086
v 0.111997 0.073546 -0.043086
v 0.111997 0.093248 -0.043086
v 0.108873 0.073544 -0.041626
v 0.108878 0.073534 -0.024276
v 0.111998 0.073544 -0.041626
v 0.112003 0.073534 -0.024276
v 0.108878 0.093239 -0.024276
v 0.108873 0.093247 -0.041626
v 0.112003 0.093239 -0.024276
v 0.111998 0.093247 -0.041626
v 0.108873 0.093247 -0.041626
v 0.108873 0.073544 -0.041626
v 0.111998 0.093247 -0.041626
v 0.111998 0.073544 -0.041626
v 0.112003 0.095780 -0.021796
v 0.111998 0.095789 -0.042356
v 0.108879 0.095780 -0.021796
v 0.108873 0.095789 -0.042356
v 0.111985 0.071019 -0.076674
v 0.111992 0.071006 -0.059756
v 0.108860 0.071019 -0.076674
v 0.108867 0.071006 -0.059756
v 0.111986 0.073569 -0.073963
v 0.108861 0.073569 -0.073963
v 0.111991 0.073558 -0.060414
v 0.108866 0.073558 -0.060414
v 0.108866 0.093258 -0.060414
v 0.108861 0.093267 -0.073963
v 0.111991 0.093258 -0.060414
v 0.111986 0.093267 -0.073963
v 0.108861 0.093267 -0.073963
v 0.108861 0.073569 -0.073963
v 0.111986 0.093267 -0.073963
v 0.111986 0.073569 -0.073963
v 0.111998 0.070994 -0.042356
v 0.112003 0.070982 -0.021796
v 0.108873 0.070994 -0.042356
v 0.108879 0.070982 -0.021796
v 0.112003 0.073534 -0.024276
v 0.108878 0.073534 -0.024276
v 0.112003 0.093239 -0.024276
v 0.108878 0.093239 -0.024276
v 0.106289 0.073570 -0.076741
v 0.106289 0.071018 -0.074029
v 0.106307 0.073533 -0.021863
v 0.106289 0.047840 -0.074029
v 0.106306 0.070983 -0.024343
v 0.106289 0.045092 -0.076741
v 0.106306 0.047809 -0.024343
v 0.106307 0.045068 -0.021863
v 0.108786 0.045068 -0.021863
v 0.108786 0.073533 -0.021863
v 0.106307 0.045068 -0.021863
v 0.106307 0.073533 -0.021863
v 0.108786 0.073533 -0.021863
v 0.108785 0.073570 -0.076741
v 0.106307 0.073533 -0.021863
v 0.106289 0.073570 -0.076741
v 0.108810 0.070983 -0.024343
v 0.106306 0.070983 -0.024343
v 0.108810 0.071018 -0.074029
v 0.106289 0.071018 -0.074029
v 0.106289 0.071018 -0.074029
v 0.106289 0.047840 -0.074029
v 0.108810 0.071018 -0.074029
v 0.108810 0.047840 -0.074029
v 0.108785 0.045092 -0.076741
v 0.108786 0.045068 -0.021863
v 0.106289 0.045092 -0.076741
v 0.106307 0.045068 -0.021863
v 0.106306 0.047809 -0.024343
v 0.106306 0.070983 -0.024343
v 0.108810 0.047809 -0.024343
v 0.108810 0.070983 -0.024343
v 0.106289 0.047840 -0.074029
v 0.106306 0.047809 -0.024343
v 0.108810 0.047840 -0.074029
v 0.108810 0.047809 -0.024343
v 0.108785 0.073570 -0.076741
v 0.108785 0.045092 -0.076741
v 0.106289 0.073570 -0.076741
v 0.106289 0.045092 -0.076741
v 0.108810 0.070983 -0.024343
v 0.108810 0.071018 -0.074029
v 0.108786 0.073533 -0.021863
v 0.108785 0.073570 -0.076741
v 0.108810 0.071018 -0.074029
v 0.108810 0.047840 -0.074029
v 0.108785 0.073570 -0.076741
v 0.108785 0.045092 -0.076741
v 0.108810 0.070983 -0.024343
v 0.108786 0.073533 -0.021863
v 0.108810 0.047809 -0.024343
v 0.108786 0.045068 -0.021863
v 0.108810 0.047809 -0.024343
v 0.108786 0.045068 -0.021863
v 0.108810 0.047840 -0.074029
v 0.108785 0.045092 -0.076741
vn 1.0000 -0.0000 -0.0003
vn 1.0000 -0.0000 -0.0004
vn 1.0000 -0.0001 -0.0003
vn 1.0000 0.0001 -0.0003
vn -1.0000 0.0001 0.0003
vn -1.0000 -0.0001 0.0003
vn -1.0000 -0.0000 0.0004
vn -1.0000 -0.0000 0.0003
vn -0.0000 -0.0000 1.0000
vn -0.0000 1.0000 0.0006
vn -0.0000 -0.0000 -1.0000
vn -0.0000 -1.0000 -0.0007
vn -0.0000 1.0000 0.0007
vn -0.0000 -1.0000 -0.0005
vn -0.0000 1.0000 0.0005
vn -0.0000 -1.0000 -0.0008
vn -0.0000 1.0000 0.0008
vn -0.0000 -1.0000 -0.0006
vn -0.0000 -1.0000 -0.0004
vn 1.0000 0.0098 -0.0000
vn 1.0000 -0.0000 -0.0092
vn 0.9999 -0.0000 0.0100
vn 1.0000 -0.0091 -0.0000
vn 1.0000 -0.0090 -0.0000
vt 0.616834 0.815009
vt 0.611231 0.833094
vt 0.616834 0.681333
vt 0.674948 0.833094
vt 0.611231 0.663179
vt 0.672034 0.815009
vt 0.674948 0.663179
vt 0.677861 0.815009
vt 0.672034 0.681333
vt 0.734477 0.833094
vt 0.677861 0.681333
vt 0.731247 0.815009
vt 0.734477 0.663179
vt 0.737707 0.815009
vt 0.731247 0.681333
vt 0.787925 0.815009
vt 0.737707 0.681333
vt 0.793953 0.833094
vt 0.787925 0.681333
vt 0.793953 0.663179
vt 1.000000 1.000000
vt 0.000000 1.000000
vt 1.000000 0.000000
vt 0.000000 0.000000
vt 0.611231 0.681333
vt 0.616834 0.663179
vt 0.793953 0.681333
vt 0.616834 0.409720
vt 0.787925 0.663179
vt 0.611231 0.390144
vt 0.787925 0.409720
vt 0.793953 0.390144
s 1
g Curtins_room:GUI_BonnieRoom_WhiteCeiling_room:GUI_BonnieRoom_WhiteCeiling
usemtl room:GUI_BonnieRoom_WhiteCeiling
f 1/1/1 2/2/1 3/3/1
f 2/2/1 1/1/1 4/4/1
f 3/3/1 2/2/1 5/5/1
f 4/4/1 1/1/1 6/6/2
f 5/5/1 7/7/1 3/3/1
f 8/8/2 4/4/1 6/6/2
f 3/3/1 7/7/1 9/9/2
f 9/9/2 8/8/2 6/6/2
f 8/8/2 10/10/2 4/4/1
f 7/7/1 11/11/2 9/9/2
f 11/11/2 8/8/2 9/9/2
f 12/12/2 10/10/2 8/8/2
f 13/13/2 11/11/2 7/7/1
f 14/14/2 10/10/2 12/12/2
f 15/15/2 11/11/2 13/13/2
f 15/15/2 14/14/2 12/12/2
f 14/14/2 16/16/3 10/10/2
f 13/13/2 17/17/2 15/15/2
f 17/17/2 14/14/2 15/15/2
f 10/10/2 16/16/3 18/18/3
f 17/17/2 13/13/2 19/19/4
f 18/18/3 16/16/3 20/20/4
f 19/19/4 13/13/2 20/20/4
f 20/20/4 16/16/3 19/19/4
f 21/1/5 22/2/5 23/3/6
f 22/2/5 21/1/5 24/4/7
f 23/3/6 22/2/5 25/5/6
f 24/4/7 21/1/5 26/6/7
f 25/5/6 27/7/7 23/3/6
f 28/8/7 24/4/7 26/6/7
f 23/3/6 27/7/7 29/9/7
f 29/9/7 28/8/7 26/6/7
f 30/12/7 24/4/7 28/8/7
f 27/7/7 31/11/7 29/9/7
f 31/11/7 28/8/7 29/9/7
f 32/10/8 24/4/7 30/12/7
f 27/7/7 33/15/7 31/11/7
f 34/14/7 32/10/8 30/12/7
f 33/15/7 34/14/7 30/12/7
f 35/13/8 33/15/7 27/7/7
f 34/14/7 36/16/8 32/10/8
f 35/13/8 37/17/7 33/15/7
f 37/17/7 34/14/7 33/15/7
f 32/10/8 36/16/8 38/18/8
f 37/17/7 35/13/8 39/19/8
f 36/16/8 39/19/8 38/18/8
f 39/19/8 35/13/8 40/20/8
f 38/18/8 39/19/8 40/20/8
f 41/21/9 42/22/9 43/23/9
f 43/23/9 42/22/9 44/24/9
f 45/21/10 46/22/10 47/23/10
f 47/23/10 46/22/10 48/24/10
f 49/21/11 50/22/11 51/23/11
f 51/23/11 50/22/11 52/24/11
f 53/24/11 54/23/11 55/22/11
f 55/22/11 54/23/11 56/21/11
f 57/24/12 58/23/12 59/22/12
f 59/22/12 58/23/12 60/21/12
f 61/22/13 62/24/13 63/21/13
f 63/21/13 62/24/13 64/23/13
f 65/24/14 66/23/14 67/22/14
f 67/22/14 66/23/14 68/21/14
f 69/24/9 70/23/9 71/22/9
f 71/22/9 70/23/9 72/21/9
f 73/24/15 74/23/15 75/22/15
f 75/22/15 74/23/15 76/21/15
f 77/24/11 78/23/11 79/22/11
f 79/22/11 78/23/11 80/21/11
f 81/24/10 82/23/10 83/22/10
f 83/22/10 82/23/10 84/21/10
f 85/24/14 86/23/14 87/22/14
f 87/22/14 86/23/14 88/21/14
f 89/24/9 90/23/9 91/22/9
f 91/22/9 90/23/9 92/21/9
f 93/21/15 94/22/15 95/23/15
f 95/23/15 94/22/15 96/24/15
f 97/21/16 98/22/16 99/23/16
f 99/23/16 98/22/16 100/24/16
f 101/22/17 102/24/17 103/21/17
f 103/21/17 102/24/17 104/23/17
f 105/24/12 106/23/12 107/22/12
f 107/22/12 106/23/12 108/21/12
f 109/24/9 110/23/9 111/22/9
f 111/22/9 110/23/9 112/21/9
f 113/21/18 114/22/18 115/23/18
f 115/23/18 114/22/18 116/24/18
f 117/22/11 118/24/11 119/21/11
f 119/21/11 118/24/11 120/23/11
f 121/25/5 122/26/5 123/27/8
f 122/26/5 121/25/5 124/28/6
f 123/27/8 122/26/5 125/29/6
f 124/28/6 121/25/5 126/30/6
f 125/29/6 127/31/8 123/27/8
f 127/31/8 124/28/6 128/32/8
f 128/32/8 124/28/6 126/30/6
f 123/27/8 127/31/8 128/32/8
f 129/21/9 130/22/9 131/23/9
f 131/23/9 130/22/9 132/24/9
f 133/21/13 134/22/13 135/23/13
f 135/23/13 134/22/13 136/24/13
f 137/22/12 138/24/12 139/21/12
f 139/21/12 138/24/12 140/23/12
f 141/24/9 142/23/9 143/22/9
f 143/22/9 142/23/9 144/21/9
f 145/21/19 146/22/19 147/23/19
f 147/23/19 146/22/19 148/24/19
f 149/24/11 150/23/11 151/22/11
f 151/22/11 150/23/11 152/21/11
f 153/24/10 154/23/10 155/22/10
f 155/22/10 154/23/10 156/21/10
f 157/21/11 158/22/11 159/23/11
f 159/23/11 158/22/11 160/24/11
f 161/24/20 162/23/20 163/22/20
f 163/22/20 162/23/20 164/21/20
f 165/24/21 166/23/21 167/22/21
f 167/22/21 166/23/21 168/21/21
f 169/23/22 170/21/22 171/24/22
f 171/24/22 170/21/22 172/22/22
f 173/23/23 174/21/23 175/24/24
f 175/24/24 174/21/23 176/22/24
