# Blender 4.1.1
# www.blender.org
mtllib Colosseum Gates.mtl
o arenacage83
v 15.990801 0.169102 -24.819544
v 15.990801 0.979906 -24.819544
v 15.946017 0.169102 -24.881914
v 15.946017 0.979906 -24.881914
v 15.977219 0.169102 -24.904316
v 15.977219 0.979906 -24.904316
v 16.022001 0.169102 -24.841946
v 16.022001 0.979906 -24.841946
v 15.968410 -0.000002 -24.850727
v 15.999610 -0.000002 -24.873133
v 16.182405 0.169102 -24.552687
v 16.182405 0.979906 -24.552687
v 16.137623 0.169102 -24.615059
v 16.137623 0.979906 -24.615059
v 16.168823 0.169102 -24.637461
v 16.168823 0.979906 -24.637461
v 16.213606 0.169102 -24.575090
v 16.213606 0.979906 -24.575090
v 16.160015 -0.000002 -24.583872
v 16.191217 -0.000002 -24.606274
v 16.374012 0.169102 -24.285831
v 16.374012 0.979906 -24.285831
v 16.329227 0.169102 -24.348202
v 16.329227 0.979906 -24.348202
v 16.360430 0.169102 -24.370605
v 16.360430 0.979906 -24.370605
v 16.405212 0.169102 -24.308235
v 16.405212 0.979906 -24.308235
v 16.351622 -0.000002 -24.317017
v 16.382822 -0.000002 -24.339420
v 16.585375 0.169102 -23.991457
v 16.585375 0.979906 -23.991457
v 16.540592 0.169102 -24.053829
v 16.540592 0.979906 -24.053829
v 16.571795 0.169102 -24.076233
v 16.571795 0.979906 -24.076233
v 16.616577 0.169102 -24.013863
v 16.616577 0.979906 -24.013863
v 16.562984 -0.000002 -24.022644
v 16.594185 -0.000002 -24.045046
v 16.828587 0.169102 -23.652731
v 16.828587 0.979906 -23.652731
v 16.783804 0.169102 -23.715101
v 16.783804 0.979906 -23.715101
v 16.815004 0.169102 -23.737505
v 16.815004 0.979906 -23.737505
v 16.859787 0.169102 -23.675135
v 16.859787 0.979906 -23.675135
v 16.806194 -0.000002 -23.683916
v 16.837397 -0.000002 -23.706318
v 17.045927 0.169102 -23.350031
v 17.045927 0.979906 -23.350031
v 17.001144 0.169102 -23.412401
v 17.001144 0.979906 -23.412401
v 17.032347 0.169102 -23.434807
v 17.032347 0.979906 -23.434807
v 17.077129 0.169102 -23.372433
v 17.077129 0.979906 -23.372433
v 17.023537 -0.000002 -23.381218
v 17.054737 -0.000002 -23.403620
v 17.237534 0.169102 -23.083176
v 17.237534 0.979906 -23.083176
v 17.192749 0.169102 -23.145546
v 17.192749 0.979906 -23.145546
v 17.223951 0.169102 -23.167948
v 17.223951 0.979906 -23.167948
v 17.268736 0.169102 -23.105577
v 17.268736 0.979906 -23.105577
v 17.215143 -0.000002 -23.114359
v 17.246342 -0.000002 -23.136765
v 17.429138 0.169102 -22.816320
v 17.429138 0.979906 -22.816320
v 17.384356 0.169102 -22.878691
v 17.384356 0.979906 -22.878691
v 17.415558 0.169102 -22.901093
v 17.415558 0.979906 -22.901093
v 17.460340 0.169102 -22.838722
v 17.460340 0.979906 -22.838722
v 17.406748 -0.000002 -22.847504
v 17.437948 -0.000002 -22.869907
v 15.768635 0.940262 -25.015129
v 17.493088 0.940263 -22.613424
v 15.768635 1.030849 -25.015129
v 17.493088 1.030849 -22.613424
v 15.822576 1.030849 -25.053858
v 17.547028 1.030849 -22.652153
v 15.822576 0.940262 -25.053858
v 17.547028 0.940263 -22.652153
v 15.768635 0.529613 -25.015129
v 17.493088 0.529614 -22.613424
v 15.768635 0.620200 -25.015129
v 17.493088 0.620200 -22.613424
v 15.822576 0.620200 -25.053858
v 17.547028 0.620200 -22.652153
v 15.822576 0.529613 -25.053858
v 17.547028 0.529614 -22.652153
v 15.768635 0.118965 -25.015129
v 17.493088 0.118965 -22.613424
v 15.768635 0.209551 -25.015129
v 17.493088 0.209551 -22.613424
v 15.822576 0.209551 -25.053858
v 17.547028 0.209551 -22.652153
v 15.822576 0.118965 -25.053858
v 17.547028 0.118965 -22.652153
v 18.225222 0.169106 21.521269
v 18.225222 0.979910 21.521269
v 18.265722 0.169106 21.456036
v 18.265722 0.979910 21.456036
v 18.298355 0.169106 21.476295
v 18.298355 0.979910 21.476295
v 18.257854 0.169106 21.541531
v 18.257854 0.979910 21.541531
v 18.245472 0.000002 21.488651
v 18.278107 0.000002 21.508913
v 18.051937 0.169106 21.800365
v 18.051937 0.979910 21.800365
v 18.092438 0.169106 21.735136
v 18.092438 0.979910 21.735136
v 18.125071 0.169106 21.755398
v 18.125071 0.979910 21.755398
v 18.084568 0.169106 21.820627
v 18.084568 0.979910 21.820627
v 18.072186 0.000002 21.767754
v 18.104818 0.000002 21.788015
v 17.878651 0.169106 22.079468
v 17.878651 0.979910 22.079468
v 17.919153 0.169106 22.014233
v 17.919153 0.979910 22.014233
v 17.951784 0.169106 22.034494
v 17.951784 0.979910 22.034494
v 17.911283 0.169106 22.099728
v 17.911283 0.979910 22.099728
v 17.898899 0.000002 22.046850
v 17.931534 0.000002 22.067112
v 17.687494 0.169106 22.387348
v 17.687494 0.979910 22.387348
v 17.727997 0.169106 22.322119
v 17.727997 0.979910 22.322119
v 17.760630 0.169106 22.342375
v 17.760630 0.979910 22.342375
v 17.720129 0.169106 22.407610
v 17.720129 0.979910 22.407610
v 17.707747 0.000002 22.354731
v 17.740377 0.000002 22.374992
v 17.467541 0.169106 22.741615
v 17.467541 0.979910 22.741615
v 17.508039 0.169106 22.676386
v 17.508039 0.979910 22.676386
v 17.540672 0.169106 22.696648
v 17.540672 0.979910 22.696648
v 17.500172 0.169106 22.761877
v 17.500172 0.979910 22.761877
v 17.487789 0.000002 22.709003
v 17.520422 0.000002 22.729259
v 17.270977 0.169106 23.058203
v 17.270977 0.979910 23.058203
v 17.311478 0.169106 22.992973
v 17.311478 0.979910 22.992973
v 17.344112 0.169106 23.013235
v 17.344112 0.979910 23.013235
v 17.303610 0.169106 23.078465
v 17.303610 0.979910 23.078465
v 17.291229 0.000002 23.025591
v 17.323860 0.000002 23.045851
v 17.097691 0.169106 23.337305
v 17.097691 0.979910 23.337305
v 17.138193 0.169106 23.272070
v 17.138193 0.979910 23.272070
v 17.170824 0.169106 23.292332
v 17.170824 0.979910 23.292332
v 17.130323 0.169106 23.357565
v 17.130323 0.979910 23.357565
v 17.117941 0.000002 23.304688
v 17.150576 0.000002 23.324947
v 16.924406 0.169106 23.616405
v 16.924406 0.979910 23.616405
v 16.964907 0.169106 23.551172
v 16.964907 0.979910 23.551172
v 16.997540 0.169106 23.571432
v 16.997540 0.979910 23.571432
v 16.957039 0.169106 23.636667
v 16.957039 0.979910 23.636667
v 16.944654 0.000002 23.583788
v 16.977287 0.000002 23.604050
v 18.320969 0.940266 21.241192
v 16.761395 0.940266 23.753090
v 18.320969 1.030853 21.241192
v 16.761395 1.030853 23.753090
v 18.377382 1.030853 21.276218
v 16.817808 1.030853 23.788116
v 18.377382 0.940266 21.276218
v 16.817808 0.940266 23.788116
v 18.320969 0.529617 21.241192
v 16.761395 0.529617 23.753090
v 18.320969 0.620203 21.241192
v 16.761395 0.620204 23.753090
v 18.377382 0.620203 21.276218
v 16.817808 0.620204 23.788116
v 18.377382 0.529617 21.276218
v 16.817808 0.529617 23.788116
v 18.320969 0.118968 21.241192
v 16.761395 0.118968 23.753090
v 18.320969 0.209554 21.241192
v 16.761395 0.209555 23.753090
v 18.377382 0.209554 21.276218
v 16.817808 0.209555 23.788116
v 18.377382 0.118968 21.276218
v 16.817808 0.118968 23.788116
v 18.175871 1.169909 21.163300
v 16.616293 1.169909 23.675200
v 18.175871 1.260495 21.163300
v 16.616293 1.260495 23.675200
v 18.208708 1.260495 21.183689
v 16.649134 1.260495 23.695587
v 18.208708 1.169909 21.183689
v 16.649134 1.169909 23.695587
v 17.563341 1.154750 22.322460
v 17.563341 1.721842 22.322460
v 17.603842 1.154750 22.257227
v 17.603842 1.721842 22.257227
v 17.636475 1.154750 22.277487
v 17.636475 1.721842 22.277487
v 17.595974 1.154750 22.342722
v 17.595974 1.721842 22.342722
v 17.583590 1.047068 22.289843
v 17.616222 1.047068 22.310104
v 17.752790 1.154750 22.017328
v 17.752790 1.688610 22.017328
v 17.800571 1.154750 21.940365
v 17.800571 1.688610 21.940365
v 17.833204 1.154750 21.960627
v 17.833204 1.688610 21.960627
v 17.785423 1.154750 22.037590
v 17.785423 1.688610 22.037590
v 17.776680 1.047068 21.978848
v 17.809315 1.047068 21.999109
v 17.926073 1.154750 21.738228
v 17.926073 1.622148 21.738228
v 17.973858 1.154750 21.661268
v 17.973858 1.622148 21.661268
v 18.006491 1.154750 21.681530
v 18.006491 1.622148 21.681530
v 17.958710 1.154750 21.758488
v 17.958710 1.622148 21.758488
v 17.949966 1.047068 21.699745
v 17.982599 1.047068 21.720007
v 18.099363 1.154750 21.459131
v 18.099363 1.535921 21.459131
v 18.147146 1.154750 21.382168
v 18.147146 1.535921 21.382168
v 18.179777 1.154750 21.402430
v 18.179777 1.535921 21.402430
v 18.131996 1.154750 21.479387
v 18.131996 1.535921 21.479387
v 18.123251 1.047068 21.420649
v 18.155886 1.047068 21.440910
v 16.847498 1.154750 23.475420
v 16.847498 1.535921 23.475420
v 16.799715 1.154750 23.552378
v 16.799715 1.535921 23.552378
v 16.832348 1.154750 23.572639
v 16.832348 1.535921 23.572639
v 16.880131 1.154750 23.495680
v 16.880131 1.535921 23.495680
v 16.823608 1.047068 23.513895
v 16.856241 1.047068 23.534157
v 17.020782 1.154750 23.196318
v 17.020782 1.622148 23.196318
v 16.973001 1.154750 23.273275
v 16.973001 1.622148 23.273275
v 17.005634 1.154750 23.293537
v 17.005634 1.622148 23.293537
v 17.053417 1.154750 23.216579
v 17.053417 1.622148 23.216579
v 16.996893 1.047068 23.234798
v 17.029528 1.047068 23.255060
v 17.194069 1.154750 22.917215
v 17.194069 1.688610 22.917215
v 17.146288 1.154750 22.994179
v 17.146288 1.688610 22.994179
v 17.178923 1.154750 23.014441
v 17.178923 1.688610 23.014441
v 17.226704 1.154750 22.937477
v 17.226704 1.688610 22.937477
v 17.170179 1.047068 22.955698
v 17.202812 1.047068 22.975960
v 17.383522 1.154750 22.612085
v 17.383522 1.721842 22.612085
v 17.343019 1.154750 22.677315
v 17.343019 1.721842 22.677315
v 17.375652 1.154750 22.697575
v 17.375652 1.721842 22.697575
v 17.416155 1.154750 22.632345
v 17.416155 1.721842 22.632345
v 17.363270 1.047068 22.644701
v 17.395903 1.047068 22.664957
v 15.641171 1.169905 -24.910852
v 17.365623 1.169906 -22.509148
v 15.641171 1.260492 -24.910852
v 17.365623 1.260492 -22.509148
v 15.672570 1.260492 -24.933395
v 17.397022 1.260492 -22.531691
v 15.672570 1.169905 -24.933395
v 17.397022 1.169906 -22.531691
v 16.477936 1.154746 -23.901560
v 16.477936 1.721838 -23.901560
v 16.433153 1.154746 -23.963930
v 16.433153 1.721838 -23.963930
v 16.464355 1.154746 -23.986332
v 16.464355 1.721838 -23.986332
v 16.509138 1.154746 -23.923962
v 16.509138 1.721838 -23.923962
v 16.455547 1.047065 -23.932743
v 16.486746 1.047065 -23.955147
v 16.268459 1.154746 -24.193308
v 16.268459 1.688607 -24.193308
v 16.215626 1.154746 -24.266890
v 16.215626 1.688607 -24.266890
v 16.246826 1.154746 -24.289291
v 16.246826 1.688607 -24.289291
v 16.299660 1.154746 -24.215710
v 16.299660 1.688607 -24.215710
v 16.242043 1.047065 -24.230097
v 16.273243 1.047065 -24.252502
v 16.076855 1.154746 -24.460161
v 16.076855 1.622144 -24.460161
v 16.024019 1.154746 -24.533745
v 16.024019 1.622144 -24.533745
v 16.055220 1.154746 -24.556149
v 16.055220 1.622144 -24.556149
v 16.108055 1.154746 -24.482565
v 16.108055 1.622144 -24.482565
v 16.050436 1.047065 -24.496952
v 16.081638 1.047065 -24.519356
v 15.885249 1.154746 -24.727018
v 15.885249 1.535917 -24.727018
v 15.832415 1.154746 -24.800602
v 15.832415 1.535917 -24.800602
v 15.863615 1.154746 -24.823006
v 15.863615 1.535917 -24.823006
v 15.916449 1.154746 -24.749420
v 15.916449 1.535917 -24.749420
v 15.858831 1.047065 -24.763807
v 15.890033 1.047065 -24.786213
v 17.269457 1.154746 -22.799181
v 17.269457 1.535918 -22.799181
v 17.322292 1.154746 -22.725597
v 17.322292 1.535918 -22.725597
v 17.353493 1.154746 -22.747999
v 17.353493 1.535918 -22.747999
v 17.300659 1.154746 -22.821585
v 17.300659 1.535918 -22.821585
v 17.295874 1.047065 -22.762392
v 17.327074 1.047065 -22.784794
v 17.077852 1.154746 -23.066036
v 17.077852 1.622144 -23.066036
v 17.130686 1.154746 -22.992453
v 17.130686 1.622144 -22.992453
v 17.161886 1.154746 -23.014856
v 17.161886 1.622144 -23.014856
v 17.109053 1.154746 -23.088440
v 17.109053 1.622144 -23.088440
v 17.104269 1.047065 -23.029245
v 17.135469 1.047065 -23.051649
v 16.886246 1.154746 -23.332893
v 16.886246 1.688607 -23.332893
v 16.939081 1.154746 -23.259308
v 16.939081 1.688607 -23.259308
v 16.970282 1.154746 -23.281713
v 16.970282 1.688607 -23.281713
v 16.917448 1.154746 -23.355297
v 16.917448 1.688607 -23.355297
v 16.912663 1.047065 -23.296103
v 16.943865 1.047065 -23.318506
v 16.676767 1.154746 -23.624643
v 16.676767 1.721838 -23.624643
v 16.721550 1.154746 -23.562269
v 16.721550 1.721838 -23.562269
v 16.752750 1.154746 -23.584673
v 16.752750 1.721838 -23.584673
v 16.707968 1.154746 -23.647045
v 16.707968 1.721838 -23.647045
v 16.699158 1.047065 -23.593456
v 16.730360 1.047065 -23.615858
v -16.759897 0.169102 -24.838213
v -16.759897 0.979906 -24.838213
v -16.715117 0.169102 -24.900585
v -16.715117 0.979906 -24.900585
v -16.746317 0.169102 -24.922987
v -16.746317 0.979906 -24.922987
v -16.791098 0.169102 -24.860615
v -16.791098 0.979906 -24.860615
v -16.737507 -0.000002 -24.869398
v -16.768707 -0.000002 -24.891802
v -16.951504 0.169102 -24.571360
v -16.951504 0.979906 -24.571360
v -16.906721 0.169102 -24.633728
v -16.906721 0.979906 -24.633728
v -16.937922 0.169102 -24.656132
v -16.937922 0.979906 -24.656132
v -16.982704 0.169102 -24.593761
v -16.982704 0.979906 -24.593761
v -16.929111 -0.000002 -24.602543
v -16.960314 -0.000002 -24.624947
v -17.143110 0.169102 -24.304501
v -17.143110 0.979906 -24.304501
v -17.098326 0.169102 -24.366875
v -17.098326 0.979906 -24.366875
v -17.129526 0.169102 -24.389277
v -17.129526 0.979906 -24.389277
v -17.174311 0.169102 -24.326904
v -17.174311 0.979906 -24.326904
v -17.120718 -0.000002 -24.335688
v -17.151920 -0.000002 -24.358089
v -17.354473 0.169102 -24.010128
v -17.354473 0.979906 -24.010128
v -17.309690 0.169102 -24.072500
v -17.309690 0.979906 -24.072500
v -17.340893 0.169102 -24.094902
v -17.340893 0.979906 -24.094902
v -17.385674 0.169102 -24.032532
v -17.385674 0.979906 -24.032532
v -17.332083 -0.000002 -24.041313
v -17.363283 -0.000002 -24.063715
v -17.597685 0.169102 -23.671400
v -17.597685 0.979906 -23.671400
v -17.552900 0.169102 -23.733772
v -17.552900 0.979906 -23.733772
v -17.584101 0.169102 -23.756174
v -17.584101 0.979906 -23.756174
v -17.628885 0.169102 -23.693804
v -17.628885 0.979906 -23.693804
v -17.575291 -0.000002 -23.702585
v -17.606493 -0.000002 -23.724989
v -17.815025 0.169102 -23.368704
v -17.815025 0.979906 -23.368704
v -17.770241 0.169102 -23.431074
v -17.770241 0.979906 -23.431074
v -17.801445 0.169102 -23.453476
v -17.801445 0.979906 -23.453476
v -17.846226 0.169102 -23.391106
v -17.846226 0.979906 -23.391106
v -17.792633 -0.000002 -23.399887
v -17.823833 -0.000002 -23.422289
v -18.006630 0.169102 -23.101847
v -18.006630 0.979906 -23.101847
v -17.961847 0.169102 -23.164219
v -17.961847 0.979906 -23.164219
v -17.993048 0.169102 -23.186621
v -17.993048 0.979906 -23.186621
v -18.037834 0.169102 -23.124250
v -18.037834 0.979906 -23.124250
v -17.984240 -0.000002 -23.133032
v -18.015440 -0.000002 -23.155434
v -18.198236 0.169102 -22.834990
v -18.198236 0.979906 -22.834990
v -18.153454 0.169102 -22.897364
v -18.153454 0.979906 -22.897364
v -18.184656 0.169102 -22.919765
v -18.184656 0.979906 -22.919765
v -18.229437 0.169102 -22.857391
v -18.229437 0.979906 -22.857391
v -18.175846 -0.000002 -22.866177
v -18.207047 -0.000002 -22.888578
v -16.537731 0.940262 -25.033798
v -18.262186 0.940263 -22.632093
v -16.537731 1.030849 -25.033798
v -18.262186 1.030849 -22.632093
v -16.591673 1.030849 -25.072529
v -18.316124 1.030849 -22.670824
v -16.591673 0.940262 -25.072529
v -18.316124 0.940263 -22.670824
v -16.537731 0.529613 -25.033798
v -18.262186 0.529614 -22.632093
v -16.537731 0.620200 -25.033798
v -18.262186 0.620200 -22.632093
v -16.591673 0.620200 -25.072529
v -18.316124 0.620200 -22.670824
v -16.591673 0.529613 -25.072529
v -18.316124 0.529614 -22.670824
v -16.537731 0.118965 -25.033798
v -18.262186 0.118965 -22.632093
v -16.537731 0.209551 -25.033798
v -18.262186 0.209551 -22.632093
v -16.591673 0.209551 -25.072529
v -18.316124 0.209551 -22.670824
v -16.591673 0.118965 -25.072529
v -18.316124 0.118965 -22.670824
v -16.410269 1.169905 -24.929522
v -18.134720 1.169906 -22.527817
v -16.410269 1.260492 -24.929522
v -18.134720 1.260492 -22.527817
v -16.441669 1.260492 -24.952066
v -18.166119 1.260492 -22.550364
v -16.441669 1.169905 -24.952066
v -18.166119 1.169906 -22.550364
v -17.247034 1.154746 -23.920229
v -17.247034 1.721838 -23.920229
v -17.202251 1.154746 -23.982601
v -17.202251 1.721838 -23.982601
v -17.233454 1.154746 -24.005005
v -17.233454 1.721838 -24.005005
v -17.278234 1.154746 -23.942631
v -17.278234 1.721838 -23.942631
v -17.224646 1.047065 -23.951416
v -17.255844 1.047065 -23.973818
v -17.037556 1.154746 -24.211977
v -17.037556 1.688607 -24.211977
v -16.984724 1.154746 -24.285561
v -16.984724 1.688607 -24.285561
v -17.015923 1.154746 -24.307962
v -17.015923 1.688607 -24.307962
v -17.068756 1.154746 -24.234379
v -17.068756 1.688607 -24.234379
v -17.011139 1.047065 -24.248770
v -17.042341 1.047065 -24.271172
v -16.845951 1.154746 -24.478832
v -16.845951 1.622144 -24.478832
v -16.793116 1.154746 -24.552416
v -16.793116 1.622144 -24.552416
v -16.824318 1.154746 -24.574820
v -16.824318 1.622144 -24.574820
v -16.877153 1.154746 -24.501234
v -16.877153 1.622144 -24.501234
v -16.819532 1.047065 -24.515625
v -16.850735 1.047065 -24.538027
v -16.654346 1.154746 -24.745687
v -16.654346 1.535917 -24.745687
v -16.601511 1.154746 -24.819271
v -16.601511 1.535917 -24.819271
v -16.632715 1.154746 -24.841675
v -16.632715 1.535917 -24.841675
v -16.685545 1.154746 -24.768091
v -16.685545 1.535917 -24.768091
v -16.627928 1.047065 -24.782480
v -16.659130 1.047065 -24.804882
v -18.038555 1.154746 -22.817850
v -18.038555 1.535918 -22.817850
v -18.091389 1.154746 -22.744267
v -18.091389 1.535918 -22.744267
v -18.122589 1.154746 -22.766672
v -18.122589 1.535918 -22.766672
v -18.069757 1.154746 -22.840254
v -18.069757 1.535918 -22.840254
v -18.064970 1.047065 -22.781061
v -18.096172 1.047065 -22.803463
v -17.846951 1.154746 -23.084709
v -17.846951 1.622144 -23.084709
v -17.899784 1.154746 -23.011126
v -17.899784 1.622144 -23.011126
v -17.930984 1.154746 -23.033527
v -17.930984 1.622144 -23.033527
v -17.878151 1.154746 -23.107111
v -17.878151 1.622144 -23.107111
v -17.873365 1.047065 -23.047916
v -17.904568 1.047065 -23.070320
v -17.655342 1.154746 -23.351564
v -17.655342 1.688607 -23.351564
v -17.708178 1.154746 -23.277981
v -17.708178 1.688607 -23.277981
v -17.739380 1.154746 -23.300383
v -17.739380 1.688607 -23.300383
v -17.686544 1.154746 -23.373966
v -17.686544 1.688607 -23.373966
v -17.681761 1.047065 -23.314772
v -17.712963 1.047065 -23.337175
v -17.445864 1.154746 -23.643312
v -17.445864 1.721838 -23.643312
v -17.490648 1.154746 -23.580942
v -17.490648 1.721838 -23.580942
v -17.521849 1.154746 -23.603344
v -17.521849 1.721838 -23.603344
v -17.477064 1.154746 -23.665714
v -17.477064 1.721838 -23.665714
v -17.468256 1.047065 -23.612129
v -17.499458 1.047065 -23.634531
v -17.622244 0.169106 23.637787
v -17.622244 0.979910 23.637787
v -17.580801 0.169106 23.702427
v -17.580801 0.979910 23.702427
v -17.613138 0.169106 23.723156
v -17.613138 0.979910 23.723156
v -17.654579 0.169106 23.658518
v -17.654579 0.979910 23.658518
v -17.601522 0.000002 23.670107
v -17.633860 0.000002 23.690842
v -17.799555 0.169106 23.361231
v -17.799555 0.979910 23.361231
v -17.758116 0.169106 23.425869
v -17.758116 0.979910 23.425869
v -17.790451 0.169106 23.446598
v -17.790451 0.979910 23.446598
v -17.831892 0.169106 23.381960
v -17.831892 0.979910 23.381960
v -17.778837 0.000002 23.393549
v -17.811172 0.000002 23.414280
v -17.976870 0.169106 23.084673
v -17.976870 0.979910 23.084673
v -17.935427 0.169106 23.149311
v -17.935427 0.979910 23.149311
v -17.967764 0.169106 23.170040
v -17.967764 0.979910 23.170040
v -18.009207 0.169106 23.105402
v -18.009207 0.979910 23.105402
v -17.956148 0.000002 23.116987
v -17.988485 0.000002 23.137722
v -18.172466 0.169106 22.779589
v -18.172466 0.979910 22.779589
v -18.131023 0.169106 22.844233
v -18.131023 0.979910 22.844233
v -18.163361 0.169106 22.864964
v -18.163361 0.979910 22.864964
v -18.204802 0.169106 22.800329
v -18.204802 0.979910 22.800329
v -18.151745 0.000002 22.811914
v -18.184082 0.000002 22.832644
v -18.397535 0.169106 22.428549
v -18.397535 0.979910 22.428549
v -18.356092 0.169106 22.493189
v -18.356092 0.979910 22.493189
v -18.388428 0.169106 22.513918
v -18.388428 0.979910 22.513918
v -18.429869 0.169106 22.449280
v -18.429869 0.979910 22.449280
v -18.376812 0.000002 22.460869
v -18.409149 0.000002 22.481598
v -18.598663 0.169106 22.114843
v -18.598663 0.979910 22.114843
v -18.557220 0.169106 22.179482
v -18.557220 0.979910 22.179482
v -18.589558 0.169106 22.200216
v -18.589558 0.979910 22.200216
v -18.630999 0.169106 22.135572
v -18.630999 0.979910 22.135572
v -18.577942 0.000002 22.147163
v -18.610277 0.000002 22.167892
v -18.775976 0.169106 21.838285
v -18.775976 0.979910 21.838285
v -18.734531 0.169106 21.902920
v -18.734531 0.979910 21.902920
v -18.766869 0.169106 21.923655
v -18.766869 0.979910 21.923655
v -18.808313 0.169106 21.859016
v -18.808313 0.979910 21.859016
v -18.755257 0.000002 21.870600
v -18.787590 0.000002 21.891335
v -18.953287 0.169106 21.561724
v -18.953287 0.979910 21.561724
v -18.911848 0.169106 21.626362
v -18.911848 0.979910 21.626362
v -18.944181 0.169106 21.647091
v -18.944181 0.979910 21.647091
v -18.985622 0.169106 21.582458
v -18.985622 0.979910 21.582458
v -18.932568 0.000002 21.594042
v -18.964903 0.000002 21.614773
v -17.410669 0.940266 23.844784
v -19.006483 0.940266 21.355747
v -17.410669 1.030853 23.844784
v -19.006483 1.030853 21.355747
v -17.466570 1.030853 23.880623
v -19.062384 1.030853 21.391584
v -17.466570 0.940266 23.880623
v -19.062384 0.940266 21.391584
v -17.410669 0.529617 23.844784
v -19.006483 0.529617 21.355747
v -17.410669 0.620204 23.844784
v -19.006483 0.620203 21.355747
v -17.466570 0.620204 23.880623
v -19.062384 0.620203 21.391584
v -17.466570 0.529617 23.880623
v -19.062384 0.529617 21.391584
v -17.410669 0.118968 23.844784
v -19.006483 0.118968 21.355747
v -17.410669 0.209555 23.844784
v -19.006483 0.209554 21.355747
v -17.466570 0.209555 23.880623
v -19.062384 0.209554 21.391584
v -17.466570 0.118968 23.880623
v -19.062384 0.118968 21.391584
v -17.277897 1.169909 23.747353
v -18.873714 1.169909 21.258314
v -17.277897 1.260495 23.747353
v -18.873714 1.260495 21.258314
v -17.310438 1.260495 23.768209
v -18.906254 1.260495 21.279177
v -17.310438 1.169909 23.768209
v -18.906254 1.169909 21.279177
v -18.060450 1.154750 22.695469
v -18.060450 1.721842 22.695469
v -18.019007 1.154750 22.760107
v -18.019007 1.721842 22.760107
v -18.051344 1.154750 22.780836
v -18.051344 1.721842 22.780836
v -18.092785 1.154750 22.716198
v -18.092785 1.721842 22.716198
v -18.039732 1.047068 22.727783
v -18.072065 1.047068 22.748512
v -17.866598 1.154750 22.997822
v -17.866598 1.688610 22.997822
v -17.817707 1.154750 23.074081
v -17.817707 1.688610 23.074081
v -17.850040 1.154750 23.094812
v -17.850040 1.688610 23.094812
v -17.898935 1.154750 23.018557
v -17.898935 1.688610 23.018557
v -17.842154 1.047068 23.035952
v -17.874489 1.047068 23.056686
v -17.689287 1.154750 23.274380
v -17.689287 1.622148 23.274380
v -17.640394 1.154750 23.350639
v -17.640394 1.622148 23.350639
v -17.672729 1.154750 23.371374
v -17.672729 1.622148 23.371374
v -17.721622 1.154750 23.295115
v -17.721622 1.622148 23.295115
v -17.664841 1.047068 23.312510
v -17.697174 1.047068 23.333239
v -17.511976 1.154750 23.550941
v -17.511976 1.535921 23.550941
v -17.463083 1.154750 23.627201
v -17.463083 1.535921 23.627201
v -17.495417 1.154750 23.647932
v -17.495417 1.535921 23.647932
v -17.544310 1.154750 23.571672
v -17.544310 1.535921 23.571672
v -17.487528 1.047068 23.589067
v -17.519865 1.047068 23.609802
v -18.792925 1.154750 21.553003
v -18.792925 1.535921 21.553003
v -18.841822 1.154750 21.476742
v -18.841822 1.535921 21.476742
v -18.874155 1.154750 21.497478
v -18.874155 1.535921 21.497478
v -18.825262 1.154750 21.573738
v -18.825262 1.535921 21.573738
v -18.817373 1.047068 21.514877
v -18.849707 1.047068 21.535608
v -18.615614 1.154750 21.829559
v -18.615614 1.622148 21.829559
v -18.664505 1.154750 21.753305
v -18.664505 1.622148 21.753305
v -18.696842 1.154750 21.774035
v -18.696842 1.622148 21.774035
v -18.647951 1.154750 21.850294
v -18.647951 1.622148 21.850294
v -18.640060 1.047068 21.791430
v -18.672394 1.047068 21.812170
v -18.438301 1.154750 22.106123
v -18.438301 1.688610 22.106123
v -18.487194 1.154750 22.029863
v -18.487194 1.688610 22.029863
v -18.519531 1.154750 22.050598
v -18.519531 1.688610 22.050598
v -18.470638 1.154750 22.126858
v -18.470638 1.688610 22.126858
v -18.462748 1.047068 22.067997
v -18.495085 1.047068 22.088728
v -18.244448 1.154750 22.408482
v -18.244448 1.721842 22.408482
v -18.285889 1.154750 22.343838
v -18.285889 1.721842 22.343838
v -18.318226 1.154750 22.364573
v -18.318226 1.721842 22.364573
v -18.276785 1.154750 22.429211
v -18.276785 1.721842 22.429211
v -18.265171 1.047068 22.376162
v -18.297506 1.047068 22.396891
vn -0.8123 -0.0000 0.5833
vn -0.8123 -0.0000 0.5832
vn -0.5828 -0.0392 -0.8117
vn -0.5832 -0.0000 -0.8123
vn 0.5828 -0.0392 0.8117
vn 0.5833 -0.0000 0.8123
vn 0.5828 -0.0391 0.8117
vn 0.5688 -0.2214 0.7921
vn -0.5688 -0.2214 -0.7921
vn -0.5828 -0.0391 -0.8117
vn 0.5827 -0.0392 0.8117
vn 0.5688 -0.2214 0.7922
vn -0.5688 -0.2214 -0.7922
vn -0.5833 -0.0000 -0.8123
vn -0.5827 -0.0392 -0.8117
vn 0.5832 -0.0000 0.8123
vn -0.5833 -0.0000 -0.8122
vn -0.5828 -0.0392 -0.8116
vn -0.0000 1.0000 -0.0000
vn -0.0000 -1.0000 -0.0000
vn -0.8496 -0.0000 -0.5275
vn 0.5271 -0.0392 -0.8489
vn 0.5275 -0.0000 -0.8496
vn -0.5270 -0.0392 0.8490
vn -0.5276 -0.0000 0.8495
vn -0.5144 -0.2214 0.8285
vn 0.5143 -0.2214 -0.8285
vn -0.5271 -0.0392 0.8489
vn -0.5270 -0.0392 0.8489
vn -0.5143 -0.2214 0.8285
vn 0.5144 -0.2214 -0.8285
vn 0.5274 -0.0000 -0.8496
vn -0.8496 -0.0000 -0.5274
vn -0.8495 -0.0000 -0.5275
vn 0.5270 -0.0392 -0.8490
vn -0.5275 -0.0000 0.8495
vn 0.5272 -0.0392 -0.8489
vn -0.5275 -0.0000 0.8496
vn 0.5143 -0.2214 -0.8286
vn 0.5266 -0.0569 -0.8482
vn -0.5266 -0.0568 0.8482
vn -0.5266 -0.0569 0.8482
vn -0.4968 -0.3358 0.8002
vn 0.4968 -0.3358 -0.8002
vn 0.5262 -0.0705 -0.8474
vn 0.5262 -0.0705 -0.8475
vn -0.5262 -0.0705 0.8474
vn -0.4862 -0.3877 0.7831
vn 0.4862 -0.3877 -0.7831
vn 0.5258 -0.0785 -0.8470
vn -0.5258 -0.0785 0.8469
vn -0.5258 -0.0785 0.8470
vn 0.5253 -0.0923 -0.8459
vn 0.5275 -0.0000 -0.8495
vn -0.5252 -0.0923 0.8460
vn -0.5274 -0.0000 0.8496
vn -0.5251 -0.0923 0.8460
vn -0.4862 -0.3877 0.7832
vn 0.5252 -0.0923 -0.8460
vn 0.5252 -0.0923 -0.8459
vn -0.5259 -0.0785 0.8469
vn -0.5262 -0.0705 0.8475
vn 0.5261 -0.0704 -0.8475
vn 0.5262 -0.0704 -0.8475
vn 0.5266 -0.0568 -0.8482
vn -0.4968 -0.3358 0.8003
vn -0.5823 -0.0569 -0.8110
vn 0.5823 -0.0568 0.8110
vn 0.5494 -0.3358 0.7651
vn -0.5494 -0.3358 -0.7651
vn -0.5818 -0.0704 -0.8103
vn 0.5818 -0.0705 0.8103
vn 0.5376 -0.3877 0.7488
vn -0.5377 -0.3877 -0.7487
vn -0.5815 -0.0785 -0.8098
vn 0.5815 -0.0785 0.8098
vn 0.5377 -0.3877 0.7487
vn -0.5376 -0.3877 -0.7487
vn -0.5807 -0.0923 -0.8088
vn 0.5808 -0.0923 0.8088
vn -0.5376 -0.3877 -0.7488
vn -0.5807 -0.0923 -0.8089
vn 0.5814 -0.0785 0.8098
vn -0.5814 -0.0785 -0.8098
vn 0.5376 -0.3877 0.7487
vn -0.5823 -0.0568 -0.8110
vn -0.8123 -0.0000 -0.5832
vn -0.5827 0.0392 0.8117
vn -0.5832 -0.0000 0.8123
vn -0.5828 0.0391 0.8117
vn 0.5827 0.0392 -0.8117
vn 0.5833 -0.0000 -0.8123
vn 0.5828 0.0391 -0.8117
vn 0.5688 0.2214 -0.7922
vn -0.5688 0.2214 0.7921
vn -0.8123 -0.0000 -0.5833
vn -0.5829 0.0392 0.8116
vn 0.5828 0.0392 -0.8117
vn 0.5688 0.2214 -0.7921
vn -0.5828 0.0392 0.8117
vn 0.5832 -0.0000 -0.8123
vn -0.5833 -0.0000 0.8123
vn -0.5688 0.2214 0.7922
vn 0.5828 0.0392 -0.8116
vn 0.8123 -0.0000 0.5832
vn -0.5823 0.0568 0.8110
vn 0.5823 0.0568 -0.8110
vn 0.5494 0.3358 -0.7651
vn -0.5494 0.3358 0.7651
vn -0.5818 0.0705 0.8103
vn 0.5818 0.0705 -0.8103
vn 0.5376 0.3877 -0.7488
vn -0.5376 0.3877 0.7488
vn -0.5814 0.0785 0.8098
vn -0.5814 0.0786 0.8098
vn 0.5814 0.0786 -0.8098
vn 0.5376 0.3877 -0.7487
vn -0.5807 0.0923 0.8088
vn 0.5808 0.0923 -0.8088
vn 0.5814 0.0785 -0.8098
vn 0.8123 -0.0000 0.5833
vn -0.5823 -0.0568 0.8110
vn 0.5823 -0.0568 -0.8110
vn 0.5822 -0.0568 -0.8110
vn 0.5494 -0.3358 -0.7651
vn -0.5494 -0.3358 0.7651
vn 0.8418 -0.0000 -0.5397
vn 0.5393 -0.0392 0.8412
vn 0.5397 -0.0000 0.8419
vn 0.5393 -0.0391 0.8412
vn -0.5392 -0.0392 -0.8413
vn -0.5398 -0.0000 -0.8418
vn -0.5264 -0.2214 -0.8209
vn 0.5264 -0.2214 0.8209
vn 0.5264 -0.2213 0.8209
vn 0.8419 -0.0000 -0.5397
vn -0.5393 -0.0392 -0.8412
vn -0.5397 -0.0000 -0.8418
vn -0.5263 -0.2214 -0.8210
vn 0.5263 -0.2214 0.8210
vn -0.5394 -0.0391 -0.8411
vn -0.5399 -0.0000 -0.8417
vn -0.5394 -0.0392 -0.8411
vn 0.5394 -0.0392 0.8412
vn 0.5399 -0.0000 0.8418
vn 0.5399 -0.0000 0.8417
vn -0.5262 -0.2214 -0.8210
vn 0.5262 -0.2214 0.8210
vn 0.8418 -0.0000 -0.5398
vn 0.5394 -0.0391 0.8412
vn 0.5396 -0.0000 0.8419
vn 0.5388 -0.0569 0.8405
vn -0.5388 -0.0568 -0.8405
vn -0.5397 -0.0000 -0.8419
vn -0.5084 -0.3358 -0.7930
vn 0.5084 -0.3359 0.7929
vn 0.5384 -0.0704 0.8397
vn -0.5384 -0.0705 -0.8397
vn -0.4976 -0.3877 -0.7759
vn 0.4976 -0.3877 0.7760
vn 0.5381 -0.0786 0.8392
vn 0.5398 -0.0000 0.8418
vn -0.5381 -0.0785 -0.8392
vn -0.4976 -0.3877 -0.7760
vn 0.4975 -0.3877 0.7760
vn 0.5374 -0.0923 0.8382
vn 0.5397 -0.0000 0.8418
vn -0.5374 -0.0923 -0.8382
vn -0.5374 -0.0923 -0.8383
vn -0.4975 -0.3877 -0.7760
vn -0.5375 -0.0923 -0.8382
vn 0.5375 -0.0923 0.8382
vn -0.5380 -0.0786 -0.8393
vn 0.5381 -0.0785 0.8392
vn 0.4976 -0.3877 0.7759
vn -0.5389 -0.0568 -0.8405
vn -0.5389 -0.0569 -0.8404
vn 0.5083 -0.3358 0.7930
vn -0.5084 -0.3358 -0.7929
vt -1.094667 0.011076
vt -1.094667 1.117778
vt -1.197571 0.011076
vt -1.197571 1.117778
vt -1.146118 -0.219742
vt -0.654393 0.011076
vt -0.654393 1.117778
vt -0.757295 0.011076
vt -0.757295 1.117778
vt -0.705842 -0.219742
vt -0.214116 0.011076
vt -0.214116 1.117778
vt -0.317021 0.011076
vt -0.317021 1.117778
vt -0.265568 -0.219742
vt 0.271559 0.011076
vt 0.271559 1.117778
vt 0.168656 0.011076
vt 0.168656 1.117778
vt 0.220108 -0.219742
vt 0.830413 0.011076
vt 0.830413 1.117778
vt 0.727509 0.011076
vt 0.727509 1.117778
vt 0.778962 -0.219742
vt 1.329824 0.011076
vt 1.329824 1.117778
vt 1.226920 0.011076
vt 1.226920 1.117778
vt 1.278373 -0.219742
vt 1.770099 0.011076
vt 1.770099 1.117778
vt 1.667195 0.011076
vt 1.667195 1.117778
vt 1.718648 -0.219742
vt 2.210375 0.011076
vt 2.210375 1.117778
vt 2.107471 0.011076
vt 2.107471 1.117778
vt 2.158924 -0.219742
vt -1.481242 1.063667
vt 2.481238 1.063667
vt -1.481242 1.187313
vt 2.481238 1.187313
vt -1.481242 0.503154
vt 2.481238 0.503154
vt -1.481242 0.626799
vt 2.481238 0.626799
vt -1.481242 -0.057359
vt 2.481238 -0.057359
vt -1.481242 0.066286
vt 2.481238 0.066286
vt -1.054905 0.595589
vt 2.053821 0.595589
vt 2.053821 0.729836
vt -1.054905 0.729836
vt 0.320239 0.573123
vt 0.320239 1.413542
vt 0.239506 1.413542
vt 0.239506 0.573123
vt 0.279873 0.413542
vt -0.057395 0.573123
vt -0.057395 1.364294
vt -0.152639 1.364294
vt -0.152639 0.573123
vt -0.105017 0.413542
vt -0.402808 0.573123
vt -0.402808 1.265797
vt -0.498053 1.265797
vt -0.498053 0.573123
vt -0.450430 0.413542
vt -0.748222 0.573123
vt -0.748222 1.138011
vt -0.843467 1.138011
vt -0.843467 0.573123
vt -0.795844 0.413542
vt 1.747139 0.573123
vt 1.842385 0.573123
vt 1.842385 1.138012
vt 1.747139 1.138011
vt 1.794760 0.413542
vt 1.401725 0.573123
vt 1.496971 0.573123
vt 1.496971 1.265797
vt 1.401725 1.265797
vt 1.449347 0.413542
vt 1.056311 0.573123
vt 1.151556 0.573123
vt 1.151556 1.364294
vt 1.056311 1.364294
vt 1.103933 0.413542
vt 0.678676 0.573123
vt 0.759408 0.573123
vt 0.759408 1.413542
vt 0.678676 1.413542
vt 0.719042 0.413542
s 1
usemtl Material.005
f 1/1/1 2/2/2 3/3/2
f 2/2/2 4/4/2 3/3/2
f 3/3/3 4/4/4 5/3/3
f 4/4/4 6/4/4 5/3/3
f 7/1/5 8/2/6 1/1/7
f 8/2/6 2/2/6 1/1/7
f 7/1/5 1/1/7 10/5/8
f 1/1/7 9/5/8 10/5/8
f 1/1/1 3/3/2 9/5/2
f 3/3/3 5/3/3 9/5/9
f 5/3/3 10/5/9 9/5/9
f 11/6/1 12/7/2 13/8/1
f 12/7/2 14/9/2 13/8/1
f 13/8/3 14/9/4 15/8/10
f 14/9/4 16/9/4 15/8/10
f 17/6/5 18/7/6 11/6/11
f 18/7/6 12/7/6 11/6/11
f 17/6/5 11/6/11 20/10/12
f 11/6/11 19/10/12 20/10/12
f 11/6/1 13/8/1 19/10/1
f 13/8/3 15/8/10 19/10/13
f 15/8/10 20/10/13 19/10/13
f 21/11/1 22/12/2 23/13/1
f 22/12/2 24/14/2 23/13/1
f 23/13/3 24/14/4 25/13/10
f 24/14/4 26/14/4 25/13/10
f 27/11/5 28/12/6 21/11/11
f 28/12/6 22/12/6 21/11/11
f 27/11/5 21/11/11 30/15/8
f 21/11/11 29/15/8 30/15/8
f 21/11/1 23/13/1 29/15/1
f 23/13/3 25/13/10 29/15/9
f 25/13/10 30/15/9 29/15/9
f 31/16/2 32/17/2 33/18/2
f 32/17/2 34/19/2 33/18/2
f 33/18/3 34/19/14 35/18/15
f 34/19/14 36/19/14 35/18/15
f 37/16/5 38/17/6 31/16/5
f 38/17/6 32/17/6 31/16/5
f 37/16/5 31/16/5 40/20/12
f 31/16/5 39/20/12 40/20/12
f 31/16/2 33/18/2 39/20/2
f 33/18/3 35/18/15 39/20/9
f 35/18/15 40/20/9 39/20/9
f 41/21/1 42/22/2 43/23/2
f 42/22/2 44/24/2 43/23/2
f 43/23/3 44/24/14 45/23/3
f 44/24/14 46/24/14 45/23/3
f 47/21/5 48/22/16 41/21/5
f 48/22/16 42/22/16 41/21/5
f 47/21/5 41/21/5 50/25/12
f 41/21/5 49/25/12 50/25/12
f 41/21/1 43/23/2 49/25/2
f 43/23/3 45/23/3 49/25/9
f 45/23/3 50/25/9 49/25/9
f 51/26/2 52/27/2 53/28/2
f 52/27/2 54/29/2 53/28/2
f 53/28/3 54/29/17 55/28/3
f 54/29/17 56/29/17 55/28/3
f 57/26/5 58/27/6 51/26/5
f 58/27/6 52/27/6 51/26/5
f 57/26/5 51/26/5 60/30/8
f 51/26/5 59/30/8 60/30/8
f 51/26/2 53/28/2 59/30/2
f 53/28/3 55/28/3 59/30/9
f 55/28/3 60/30/9 59/30/9
f 61/31/1 62/32/2 63/33/1
f 62/32/2 64/34/2 63/33/1
f 63/33/18 64/34/4 65/33/3
f 64/34/4 66/34/4 65/33/3
f 67/31/5 68/32/6 61/31/5
f 68/32/6 62/32/6 61/31/5
f 67/31/5 61/31/5 70/35/8
f 61/31/5 69/35/8 70/35/8
f 61/31/1 63/33/1 69/35/1
f 63/33/18 65/33/3 69/35/9
f 65/33/3 70/35/9 69/35/9
f 71/36/1 72/37/2 73/38/2
f 72/37/2 74/39/2 73/38/2
f 73/38/3 74/39/14 75/38/15
f 74/39/14 76/39/14 75/38/15
f 77/36/5 78/37/16 71/36/5
f 78/37/16 72/37/16 71/36/5
f 77/36/5 71/36/5 80/40/8
f 71/36/5 79/40/8 80/40/8
f 71/36/1 73/38/2 79/40/2
f 73/38/3 75/38/15 79/40/9
f 75/38/15 80/40/9 79/40/9
f 81/41/2 82/42/2 83/43/2
f 82/42/2 84/44/2 83/43/2
f 83/43/19 84/44/19 85/43/19
f 84/44/19 86/44/19 85/43/19
f 87/41/20 88/42/20 81/41/20
f 88/42/20 82/42/20 81/41/20
f 89/45/2 90/46/2 91/47/2
f 90/46/2 92/48/2 91/47/2
f 91/47/19 92/48/19 93/47/19
f 92/48/19 94/48/19 93/47/19
f 95/45/20 96/46/20 89/45/20
f 96/46/20 90/46/20 89/45/20
f 97/49/2 98/50/2 99/51/2
f 98/50/2 100/52/2 99/51/2
f 99/51/19 100/52/19 101/51/19
f 100/52/19 102/52/19 101/51/19
f 103/49/20 104/50/20 97/49/20
f 104/50/20 98/50/20 97/49/20
f 105/1/21 106/2/21 107/3/21
f 106/2/21 108/4/21 107/3/21
f 107/3/22 108/4/23 109/3/22
f 108/4/23 110/4/23 109/3/22
f 111/1/24 112/2/25 105/1/24
f 112/2/25 106/2/25 105/1/24
f 111/1/24 105/1/24 114/5/26
f 105/1/24 113/5/26 114/5/26
f 105/1/21 107/3/21 113/5/21
f 107/3/22 109/3/22 113/5/27
f 109/3/22 114/5/27 113/5/27
f 115/6/21 116/7/21 117/8/21
f 116/7/21 118/9/21 117/8/21
f 117/8/22 118/9/23 119/8/22
f 118/9/23 120/9/23 119/8/22
f 121/6/28 122/7/25 115/6/29
f 122/7/25 116/7/25 115/6/29
f 121/6/28 115/6/29 124/10/26
f 115/6/29 123/10/30 124/10/26
f 115/6/21 117/8/21 123/10/21
f 117/8/22 119/8/22 123/10/31
f 119/8/22 124/10/27 123/10/31
f 125/11/21 126/12/21 127/13/21
f 126/12/21 128/14/21 127/13/21
f 127/13/22 128/14/32 129/13/22
f 128/14/32 130/14/32 129/13/22
f 131/11/24 132/12/25 125/11/24
f 132/12/25 126/12/25 125/11/24
f 131/11/24 125/11/24 134/15/26
f 125/11/24 133/15/26 134/15/26
f 125/11/21 127/13/21 133/15/33
f 127/13/22 129/13/22 133/15/31
f 129/13/22 134/15/31 133/15/31
f 135/16/34 136/17/34 137/18/34
f 136/17/34 138/19/34 137/18/34
f 137/18/35 138/19/32 139/18/35
f 138/19/32 140/19/32 139/18/35
f 141/16/24 142/17/36 135/16/24
f 142/17/36 136/17/36 135/16/24
f 141/16/24 135/16/24 144/20/26
f 135/16/24 143/20/26 144/20/26
f 135/16/34 137/18/34 143/20/34
f 137/18/35 139/18/35 143/20/31
f 139/18/35 144/20/31 143/20/31
f 145/21/21 146/22/21 147/23/21
f 146/22/21 148/24/21 147/23/21
f 147/23/22 148/24/32 149/23/37
f 148/24/32 150/24/32 149/23/37
f 151/21/28 152/22/38 145/21/28
f 152/22/38 146/22/38 145/21/28
f 151/21/28 145/21/28 154/25/30
f 145/21/28 153/25/30 154/25/30
f 145/21/21 147/23/21 153/25/21
f 147/23/22 149/23/37 153/25/39
f 149/23/37 154/25/39 153/25/39
f 155/26/21 156/27/21 157/28/21
f 156/27/21 158/29/21 157/28/21
f 157/28/22 158/29/23 159/28/22
f 158/29/23 160/29/23 159/28/22
f 161/26/28 162/27/25 155/26/29
f 162/27/25 156/27/25 155/26/29
f 161/26/28 155/26/29 164/30/26
f 155/26/29 163/30/26 164/30/26
f 155/26/21 157/28/21 163/30/21
f 157/28/22 159/28/22 163/30/31
f 159/28/22 164/30/31 163/30/31
f 165/31/21 166/32/21 167/33/21
f 166/32/21 168/34/21 167/33/21
f 167/33/22 168/34/32 169/33/22
f 168/34/32 170/34/32 169/33/22
f 171/31/29 172/32/25 165/31/24
f 172/32/25 166/32/25 165/31/24
f 171/31/29 165/31/24 174/35/26
f 165/31/24 173/35/26 174/35/26
f 165/31/21 167/33/21 173/35/21
f 167/33/22 169/33/22 173/35/27
f 169/33/22 174/35/27 173/35/27
f 175/36/21 176/37/21 177/38/21
f 176/37/21 178/39/21 177/38/21
f 177/38/22 178/39/23 179/38/22
f 178/39/23 180/39/23 179/38/22
f 181/36/29 182/37/25 175/36/29
f 182/37/25 176/37/25 175/36/29
f 181/36/29 175/36/29 184/40/26
f 175/36/29 183/40/26 184/40/26
f 175/36/21 177/38/21 183/40/21
f 177/38/22 179/38/22 183/40/31
f 179/38/22 184/40/31 183/40/31
f 185/41/21 186/42/21 187/43/21
f 186/42/21 188/44/21 187/43/21
f 187/43/19 188/44/19 189/43/19
f 188/44/19 190/44/19 189/43/19
f 191/41/20 192/42/20 185/41/20
f 192/42/20 186/42/20 185/41/20
f 193/45/21 194/46/21 195/47/21
f 194/46/21 196/48/21 195/47/21
f 195/47/19 196/48/19 197/47/19
f 196/48/19 198/48/19 197/47/19
f 199/45/20 200/46/20 193/45/20
f 200/46/20 194/46/20 193/45/20
f 201/49/21 202/50/21 203/51/21
f 202/50/21 204/52/21 203/51/21
f 203/51/19 204/52/19 205/51/19
f 204/52/19 206/52/19 205/51/19
f 207/49/20 208/50/20 201/49/20
f 208/50/20 202/50/20 201/49/20
f 209/53/21 210/54/21 212/55/21 211/56/21
f 211/56/19 212/55/19 214/55/19 213/56/19
f 215/53/20 216/54/20 210/54/20 209/53/20
f 210/54/38 216/54/38 214/55/38 212/55/38
f 215/53/23 209/53/23 211/56/23 213/56/23
f 217/57/21 218/58/21 220/59/21 219/60/21
f 219/60/40 220/59/23 222/59/23 221/60/40
f 223/57/41 224/58/38 218/58/38 217/57/42
f 223/57/41 217/57/42 225/61/43 226/61/43
f 217/57/21 219/60/21 225/61/21
f 219/60/40 221/60/40 226/61/44 225/61/44
f 227/62/33 228/63/33 230/64/33 229/65/33
f 229/65/45 230/64/23 232/64/23 231/65/46
f 233/62/47 234/63/38 228/63/38 227/62/47
f 233/62/47 227/62/47 235/66/48 236/66/48
f 227/62/33 229/65/33 235/66/33
f 229/65/45 231/65/46 236/66/49 235/66/49
f 237/67/21 238/68/21 240/69/21 239/70/21
f 239/70/50 240/69/32 242/69/32 241/70/50
f 243/67/51 244/68/38 238/68/38 237/67/52
f 243/67/51 237/67/52 245/71/48 246/71/48
f 237/67/21 239/70/21 245/71/21
f 239/70/50 241/70/50 246/71/49 245/71/49
f 247/72/21 248/73/21 250/74/21 249/75/21
f 249/75/53 250/74/54 252/74/54 251/75/53
f 253/72/55 254/73/56 248/73/56 247/72/57
f 253/72/55 247/72/57 255/76/58 256/76/58
f 247/72/21 249/75/21 255/76/21
f 249/75/53 251/75/53 256/76/49 255/76/49
f 257/77/21 259/78/21 260/79/21 258/80/21
f 259/78/55 261/78/55 262/79/38 260/79/38
f 263/77/59 257/77/60 258/80/23 264/80/23
f 263/77/59 266/81/49 265/81/49 257/77/60
f 257/77/21 265/81/21 259/78/21
f 259/78/55 265/81/48 266/81/48 261/78/55
f 267/82/21 269/83/21 270/84/21 268/85/21
f 269/83/61 271/83/61 272/84/38 270/84/38
f 273/82/50 267/82/50 268/85/23 274/85/23
f 273/82/50 276/86/49 275/86/49 267/82/50
f 267/82/21 275/86/21 269/83/21
f 269/83/61 275/86/48 276/86/48 271/83/61
f 277/87/21 279/88/21 280/89/21 278/90/21
f 279/88/62 281/88/62 282/89/38 280/89/38
f 283/87/63 277/87/64 278/90/23 284/90/23
f 283/87/63 286/91/49 285/91/49 277/87/64
f 277/87/21 285/91/21 279/88/21
f 279/88/62 285/91/48 286/91/48 281/88/62
f 287/92/21 289/93/21 290/94/21 288/95/21
f 289/93/41 291/93/41 292/94/38 290/94/38
f 293/92/65 287/92/65 288/95/54 294/95/54
f 293/92/65 296/96/44 295/96/44 287/92/65
f 287/92/21 295/96/21 289/93/21
f 289/93/41 295/96/66 296/96/66 291/93/41
f 297/53/2 298/54/2 300/55/2 299/56/2
f 299/56/19 300/55/19 302/55/19 301/56/19
f 303/53/20 304/54/20 298/54/20 297/53/20
f 298/54/16 304/54/16 302/55/16 300/55/16
f 303/53/4 297/53/4 299/56/4 301/56/4
f 305/57/2 306/58/2 308/59/2 307/60/2
f 307/60/67 308/59/4 310/59/4 309/60/67
f 311/57/68 312/58/16 306/58/16 305/57/68
f 311/57/68 305/57/68 313/61/69 314/61/69
f 305/57/2 307/60/2 313/61/2
f 307/60/67 309/60/67 314/61/70 313/61/70
f 315/62/1 316/63/2 318/64/2 317/65/1
f 317/65/71 318/64/4 320/64/4 319/65/71
f 321/62/72 322/63/16 316/63/16 315/62/72
f 321/62/72 315/62/72 323/66/73 324/66/73
f 315/62/1 317/65/1 323/66/1
f 317/65/71 319/65/71 324/66/74 323/66/74
f 325/67/2 326/68/2 328/69/2 327/70/2
f 327/70/75 328/69/14 330/69/14 329/70/75
f 331/67/76 332/68/6 326/68/6 325/67/76
f 331/67/76 325/67/76 333/71/77 334/71/77
f 325/67/2 327/70/2 333/71/2
f 327/70/75 329/70/75 334/71/78 333/71/78
f 335/72/2 336/73/2 338/74/2 337/75/2
f 337/75/79 338/74/4 340/74/4 339/75/79
f 341/72/80 342/73/16 336/73/16 335/72/80
f 341/72/80 335/72/80 343/76/73 344/76/73
f 335/72/2 337/75/2 343/76/1
f 337/75/79 339/75/79 344/76/81 343/76/81
f 345/77/2 347/78/2 348/79/2 346/80/2
f 347/78/80 349/78/80 350/79/6 348/79/6
f 351/77/82 345/77/79 346/80/4 352/80/4
f 351/77/82 354/81/81 353/81/81 345/77/79
f 345/77/2 353/81/2 347/78/2
f 347/78/80 353/81/73 354/81/73 349/78/80
f 355/82/2 357/83/2 358/84/2 356/85/2
f 357/83/83 359/83/83 360/84/16 358/84/16
f 361/82/84 355/82/84 356/85/4 362/85/4
f 361/82/84 364/86/81 363/86/81 355/82/84
f 355/82/2 363/86/2 357/83/2
f 357/83/83 363/86/73 364/86/73 359/83/83
f 365/87/2 367/88/2 368/89/2 366/90/2
f 367/88/72 369/88/72 370/89/6 368/89/6
f 371/87/71 365/87/71 366/90/14 372/90/14
f 371/87/71 374/91/74 373/91/74 365/87/71
f 365/87/2 373/91/1 367/88/2
f 367/88/72 373/91/85 374/91/85 369/88/72
f 375/92/2 377/93/2 378/94/2 376/95/2
f 377/93/68 379/93/68 380/94/16 378/94/16
f 381/92/86 375/92/86 376/95/4 382/95/4
f 381/92/86 384/96/70 383/96/70 375/92/86
f 375/92/2 383/96/2 377/93/2
f 377/93/68 383/96/69 384/96/69 379/93/68
f 385/1/87 386/2/87 387/3/87
f 386/2/87 388/4/87 387/3/87
f 387/3/88 388/4/89 389/3/90
f 388/4/89 390/4/89 389/3/90
f 391/1/91 392/2/92 385/1/93
f 392/2/92 386/2/92 385/1/93
f 391/1/91 385/1/93 394/5/94
f 385/1/93 393/5/94 394/5/94
f 385/1/87 387/3/87 393/5/87
f 387/3/88 389/3/90 393/5/95
f 389/3/90 394/5/95 393/5/95
f 395/6/96 396/7/96 397/8/96
f 396/7/96 398/9/96 397/8/96
f 397/8/97 398/9/89 399/8/97
f 398/9/89 400/9/89 399/8/97
f 401/6/98 402/7/92 395/6/93
f 402/7/92 396/7/92 395/6/93
f 401/6/98 395/6/93 404/10/99
f 395/6/93 403/10/99 404/10/99
f 395/6/96 397/8/96 403/10/96
f 397/8/97 399/8/97 403/10/95
f 399/8/97 404/10/95 403/10/95
f 405/11/87 406/12/87 407/13/87
f 406/12/87 408/14/87 407/13/87
f 407/13/90 408/14/89 409/13/100
f 408/14/89 410/14/89 409/13/100
f 411/11/98 412/12/101 405/11/93
f 412/12/101 406/12/101 405/11/93
f 411/11/98 405/11/93 414/15/99
f 405/11/93 413/15/99 414/15/99
f 405/11/87 407/13/87 413/15/87
f 407/13/90 409/13/100 413/15/95
f 409/13/100 414/15/95 413/15/95
f 415/16/87 416/17/87 417/18/87
f 416/17/87 418/19/87 417/18/87
f 417/18/88 418/19/102 419/18/90
f 418/19/102 420/19/102 419/18/90
f 421/16/98 422/17/101 415/16/93
f 422/17/101 416/17/101 415/16/93
f 421/16/98 415/16/93 424/20/99
f 415/16/93 423/20/99 424/20/99
f 415/16/87 417/18/87 423/20/87
f 417/18/88 419/18/90 423/20/95
f 419/18/90 424/20/95 423/20/95
f 425/21/87 426/22/96 427/23/87
f 426/22/96 428/24/96 427/23/87
f 427/23/90 428/24/102 429/23/100
f 428/24/102 430/24/102 429/23/100
f 431/21/98 432/22/101 425/21/93
f 432/22/101 426/22/101 425/21/93
f 431/21/98 425/21/93 434/25/99
f 425/21/93 433/25/99 434/25/99
f 425/21/87 427/23/87 433/25/87
f 427/23/90 429/23/100 433/25/103
f 429/23/100 434/25/103 433/25/103
f 435/26/96 436/27/87 437/28/96
f 436/27/87 438/29/87 437/28/96
f 437/28/90 438/29/89 439/28/100
f 438/29/89 440/29/89 439/28/100
f 441/26/98 442/27/92 435/26/93
f 442/27/92 436/27/92 435/26/93
f 441/26/98 435/26/93 444/30/99
f 435/26/93 443/30/99 444/30/99
f 435/26/96 437/28/96 443/30/96
f 437/28/90 439/28/100 443/30/103
f 439/28/100 444/30/95 443/30/103
f 445/31/96 446/32/87 447/33/96
f 446/32/87 448/34/87 447/33/96
f 447/33/90 448/34/89 449/33/100
f 448/34/89 450/34/89 449/33/100
f 451/31/91 452/32/101 445/31/91
f 452/32/101 446/32/101 445/31/91
f 451/31/91 445/31/91 454/35/99
f 445/31/91 453/35/99 454/35/99
f 445/31/96 447/33/96 453/35/96
f 447/33/90 449/33/100 453/35/95
f 449/33/100 454/35/95 453/35/95
f 455/36/87 456/37/87 457/38/87
f 456/37/87 458/39/87 457/38/87
f 457/38/100 458/39/89 459/38/90
f 458/39/89 460/39/89 459/38/90
f 461/36/98 462/37/101 455/36/104
f 462/37/101 456/37/101 455/36/104
f 461/36/98 455/36/104 464/40/99
f 455/36/104 463/40/99 464/40/99
f 455/36/87 457/38/87 463/40/87
f 457/38/100 459/38/90 463/40/95
f 459/38/90 464/40/95 463/40/95
f 465/41/87 466/42/87 467/43/87
f 466/42/87 468/44/87 467/43/87
f 467/43/20 468/44/20 469/43/20
f 468/44/20 470/44/20 469/43/20
f 471/41/19 472/42/19 465/41/19
f 472/42/19 466/42/19 465/41/19
f 473/45/87 474/46/87 475/47/87
f 474/46/87 476/48/87 475/47/87
f 475/47/20 476/48/20 477/47/20
f 476/48/20 478/48/20 477/47/20
f 479/45/19 480/46/19 473/45/19
f 480/46/19 474/46/19 473/45/19
f 481/49/105 483/51/105 482/50/105
f 482/50/105 483/51/105 484/52/105
f 483/51/19 485/51/19 484/52/19
f 484/52/19 485/51/19 486/52/19
f 487/49/20 481/49/20 488/50/20
f 488/50/20 481/49/20 482/50/20
f 489/53/87 490/54/87 492/55/87 491/56/87
f 491/56/20 492/55/20 494/55/20 493/56/20
f 495/53/19 496/54/19 490/54/19 489/53/19
f 490/54/92 496/54/92 494/55/92 492/55/92
f 495/53/89 489/53/89 491/56/89 493/56/89
f 497/57/87 498/58/87 500/59/87 499/60/87
f 499/60/106 500/59/89 502/59/89 501/60/106
f 503/57/107 504/58/101 498/58/101 497/57/107
f 503/57/107 497/57/107 505/61/108 506/61/108
f 497/57/87 499/60/87 505/61/87
f 499/60/106 501/60/106 506/61/109 505/61/109
f 507/62/87 508/63/87 510/64/87 509/65/87
f 509/65/110 510/64/102 512/64/102 511/65/110
f 513/62/111 514/63/101 508/63/101 507/62/111
f 513/62/111 507/62/111 515/66/112 516/66/112
f 507/62/87 509/65/87 515/66/87
f 509/65/110 511/65/110 516/66/113 515/66/113
f 517/67/87 518/68/96 520/69/96 519/70/87
f 519/70/114 520/69/89 522/69/89 521/70/115
f 523/67/116 524/68/101 518/68/101 517/67/116
f 523/67/116 517/67/116 525/71/117 526/71/117
f 517/67/87 519/70/87 525/71/87
f 519/70/114 521/70/115 526/71/113 525/71/113
f 527/72/96 528/73/96 530/74/96 529/75/96
f 529/75/118 530/74/89 532/74/89 531/75/118
f 533/72/119 534/73/92 528/73/92 527/72/119
f 533/72/119 527/72/119 535/76/112 536/76/112
f 527/72/96 529/75/96 535/76/96
f 529/75/118 531/75/118 536/76/113 535/76/113
f 537/77/87 539/78/87 540/79/87 538/80/87
f 539/78/119 541/78/119 542/79/92 540/79/92
f 543/77/118 537/77/118 538/80/89 544/80/89
f 543/77/118 546/81/113 545/81/113 537/77/118
f 537/77/87 545/81/87 539/78/87
f 539/78/119 545/81/112 546/81/112 541/78/119
f 547/82/87 549/83/87 550/84/87 548/85/87
f 549/83/120 551/83/120 552/84/101 550/84/101
f 553/82/114 547/82/114 548/85/89 554/85/89
f 553/82/114 556/86/113 555/86/113 547/82/114
f 547/82/87 555/86/87 549/83/87
f 549/83/120 555/86/112 556/86/112 551/83/120
f 557/87/87 559/88/87 560/89/96 558/90/96
f 559/88/111 561/88/111 562/89/101 560/89/101
f 563/87/110 557/87/110 558/90/89 564/90/89
f 563/87/110 566/91/113 565/91/113 557/87/110
f 557/87/87 565/91/87 559/88/87
f 559/88/111 565/91/112 566/91/112 561/88/111
f 567/92/121 568/95/105 570/94/105 569/93/121
f 569/93/122 570/94/89 572/94/89 571/93/122
f 573/92/123 574/95/101 568/95/101 567/92/124
f 573/92/123 567/92/124 575/96/125 576/96/125
f 567/92/121 569/93/121 575/96/121
f 569/93/122 571/93/122 576/96/126 575/96/126
f 577/1/127 578/2/127 579/3/127
f 578/2/127 580/4/127 579/3/127
f 579/3/128 580/4/129 581/3/130
f 580/4/129 582/4/129 581/3/130
f 583/1/131 584/2/132 577/1/131
f 584/2/132 578/2/132 577/1/131
f 583/1/131 577/1/131 586/5/133
f 577/1/131 585/5/133 586/5/133
f 577/1/127 579/3/127 585/5/127
f 579/3/128 581/3/130 585/5/134
f 581/3/130 586/5/135 585/5/134
f 587/6/136 588/7/127 589/8/136
f 588/7/127 590/9/127 589/8/136
f 589/8/128 590/9/129 591/8/128
f 590/9/129 592/9/129 591/8/128
f 593/6/137 594/7/138 587/6/137
f 594/7/138 588/7/138 587/6/137
f 593/6/137 587/6/137 596/10/139
f 587/6/137 595/10/139 596/10/139
f 587/6/136 589/8/136 595/10/136
f 589/8/128 591/8/128 595/10/134
f 591/8/128 596/10/134 595/10/134
f 597/11/127 598/12/127 599/13/127
f 598/12/127 600/14/127 599/13/127
f 599/13/128 600/14/129 601/13/128
f 600/14/129 602/14/129 601/13/128
f 603/11/137 604/12/138 597/11/137
f 604/12/138 598/12/138 597/11/137
f 603/11/137 597/11/137 606/15/139
f 597/11/137 605/15/139 606/15/139
f 597/11/127 599/13/127 605/15/127
f 599/13/128 601/13/128 605/15/140
f 601/13/128 606/15/140 605/15/140
f 607/16/136 608/17/136 609/18/136
f 608/17/136 610/19/136 609/18/136
f 609/18/128 610/19/129 611/18/128
f 610/19/129 612/19/129 611/18/128
f 613/16/141 614/17/142 607/16/143
f 614/17/142 608/17/142 607/16/143
f 613/16/141 607/16/143 616/20/133
f 607/16/143 615/20/133 616/20/133
f 607/16/136 609/18/136 615/20/136
f 609/18/128 611/18/128 615/20/134
f 611/18/128 616/20/134 615/20/134
f 617/21/127 618/22/127 619/23/127
f 618/22/127 620/24/127 619/23/127
f 619/23/128 620/24/129 621/23/128
f 620/24/129 622/24/129 621/23/128
f 623/21/137 624/22/132 617/21/137
f 624/22/132 618/22/132 617/21/137
f 623/21/137 617/21/137 626/25/139
f 617/21/137 625/25/139 626/25/139
f 617/21/127 619/23/127 625/25/127
f 619/23/128 621/23/128 625/25/140
f 621/23/128 626/25/140 625/25/140
f 627/26/127 628/27/127 629/28/127
f 628/27/127 630/29/127 629/28/127
f 629/28/144 630/29/145 631/28/128
f 630/29/145 632/29/146 631/28/128
f 633/26/137 634/27/138 627/26/137
f 634/27/138 628/27/138 627/26/137
f 633/26/137 627/26/137 636/30/139
f 627/26/137 635/30/147 636/30/139
f 627/26/127 629/28/127 635/30/127
f 629/28/144 631/28/128 635/30/140
f 631/28/128 636/30/148 635/30/140
f 637/31/149 638/32/149 639/33/149
f 638/32/149 640/34/149 639/33/149
f 639/33/150 640/34/145 641/33/128
f 640/34/145 642/34/146 641/33/128
f 643/31/137 644/32/138 637/31/137
f 644/32/138 638/32/138 637/31/137
f 643/31/137 637/31/137 646/35/133
f 637/31/137 645/35/133 646/35/133
f 637/31/149 639/33/149 645/35/149
f 639/33/150 641/33/128 645/35/134
f 641/33/128 646/35/134 645/35/134
f 647/36/136 648/37/136 649/38/136
f 648/37/136 650/39/136 649/38/136
f 649/38/128 650/39/129 651/38/128
f 650/39/129 652/39/129 651/38/128
f 653/36/143 654/37/138 647/36/143
f 654/37/138 648/37/138 647/36/143
f 653/36/143 647/36/143 656/40/147
f 647/36/143 655/40/147 656/40/147
f 647/36/136 649/38/136 655/40/136
f 649/38/128 651/38/128 655/40/134
f 651/38/128 656/40/134 655/40/134
f 657/41/127 658/42/127 659/43/127
f 658/42/127 660/44/127 659/43/127
f 659/43/19 660/44/19 661/43/19
f 660/44/19 662/44/19 661/43/19
f 663/41/20 664/42/20 657/41/20
f 664/42/20 658/42/20 657/41/20
f 665/45/127 666/46/127 667/47/127
f 666/46/127 668/48/127 667/47/127
f 667/47/19 668/48/19 669/47/19
f 668/48/19 670/48/19 669/47/19
f 671/45/20 672/46/20 665/45/20
f 672/46/20 666/46/20 665/45/20
f 673/49/127 674/50/127 675/51/127
f 674/50/127 676/52/127 675/51/127
f 675/51/19 676/52/19 677/51/19
f 676/52/19 678/52/19 677/51/19
f 679/49/20 680/50/20 673/49/20
f 680/50/20 674/50/20 673/49/20
f 681/53/127 682/54/127 684/55/127 683/56/127
f 683/56/19 684/55/19 686/55/19 685/56/19
f 687/53/20 688/54/20 682/54/20 681/53/20
f 682/54/138 688/54/138 686/55/138 684/55/138
f 687/53/151 681/53/151 683/56/151 685/56/151
f 689/57/127 690/58/127 692/59/127 691/60/127
f 691/60/152 692/59/129 694/59/129 693/60/152
f 695/57/153 696/58/154 690/58/154 689/57/153
f 695/57/153 689/57/153 697/61/155 698/61/155
f 689/57/127 691/60/127 697/61/127
f 691/60/152 693/60/152 698/61/156 697/61/156
f 699/62/127 700/63/127 702/64/127 701/65/127
f 701/65/157 702/64/129 704/64/129 703/65/157
f 705/62/158 706/63/132 700/63/132 699/62/158
f 705/62/158 699/62/158 707/66/159 708/66/159
f 699/62/127 701/65/127 707/66/127
f 701/65/157 703/65/157 708/66/160 707/66/160
f 709/67/127 710/68/127 712/69/127 711/70/127
f 711/70/161 712/69/162 714/69/162 713/70/161
f 715/67/163 716/68/132 710/68/132 709/67/163
f 715/67/163 709/67/163 717/71/164 718/71/164
f 709/67/127 711/70/127 717/71/127
f 711/70/161 713/70/161 718/71/165 717/71/165
f 719/72/127 720/73/127 722/74/127 721/75/127
f 721/75/166 722/74/167 724/74/167 723/75/166
f 725/72/168 726/73/138 720/73/138 719/72/169
f 725/72/168 719/72/169 727/76/170 728/76/170
f 719/72/127 721/75/127 727/76/127
f 721/75/166 723/75/166 728/76/165 727/76/165
f 729/77/149 731/78/149 732/79/149 730/80/149
f 731/78/171 733/78/171 734/79/132 732/79/132
f 735/77/172 729/77/172 730/80/162 736/80/162
f 735/77/172 738/81/165 737/81/165 729/77/172
f 729/77/149 737/81/149 731/78/149
f 731/78/171 737/81/170 738/81/170 733/78/171
f 739/82/127 741/83/127 742/84/127 740/85/127
f 741/83/173 743/83/163 744/84/154 742/84/154
f 745/82/174 739/82/174 740/85/162 746/85/162
f 745/82/174 748/86/175 747/86/175 739/82/174
f 739/82/127 747/86/127 741/83/127
f 741/83/173 747/86/159 748/86/159 743/83/163
f 749/87/127 751/88/127 752/89/127 750/90/127
f 751/88/158 753/88/158 754/89/132 752/89/132
f 755/87/157 749/87/157 750/90/162 756/90/162
f 755/87/157 758/91/165 757/91/165 749/87/157
f 749/87/127 757/91/127 751/88/127
f 751/88/158 757/91/170 758/91/170 753/88/158
f 759/92/136 761/93/136 762/94/136 760/95/136
f 761/93/176 763/93/177 764/94/132 762/94/132
f 765/92/152 759/92/152 760/95/129 766/95/129
f 765/92/152 768/96/178 767/96/178 759/92/152
f 759/92/136 767/96/136 761/93/136
f 761/93/176 767/96/179 768/96/179 763/93/177
