# Blender 4.1.1
# www.blender.org
mtllib Colosseum Awnings.mtl
o Awningsails
v -73.274673 57.908894 15.713954
v -41.654644 57.445782 9.562836
v -74.626854 57.908894 2.280005
v -42.415245 57.445782 2.006239
v -73.165863 57.330360 8.917974
v -42.375870 56.867233 5.818852
v -73.063293 57.543499 12.300163
v -42.045918 57.080383 7.693931
v -73.739380 57.543499 5.583189
v -42.426216 57.080383 3.915632
v -65.423531 56.774612 2.201786
v -64.578316 56.409214 5.085160
v -64.047050 56.196072 8.000135
v -63.986736 56.409214 10.962513
v -64.240379 56.774612 13.956492
v -51.618557 56.501438 2.084458
v -50.836723 56.136044 4.338116
v -50.368847 55.922905 6.623375
v -50.371914 56.136044 8.956037
v -50.688938 56.501438 11.320298
v -68.715843 57.908897 33.092026
v -38.482571 57.445782 20.163116
v -72.888138 57.908894 20.251020
v -40.829487 57.445782 12.940052
v -70.036018 57.330364 26.422642
v -39.988731 56.867233 16.659687
v -69.222740 57.543503 29.707556
v -39.265572 57.080383 18.421122
v -71.308884 57.543499 23.287054
v -40.439026 57.080383 14.809589
v -63.728523 56.774612 18.162174
v -62.279655 56.409214 20.796926
v -61.137177 56.196072 23.531231
v -60.454277 56.409218 26.414864
v -60.077763 56.774616 29.398050
v -49.989101 56.501438 15.028901
v -48.735809 56.136044 17.061733
v -47.788906 55.922905 19.194117
v -47.301590 56.136044 21.475826
v -47.120647 56.501438 23.857090
v -60.436947 57.908897 49.466522
v -33.076290 57.445786 29.577530
v -67.391891 57.908897 37.893795
v -36.988449 57.445782 23.067869
v -63.204128 57.330364 43.253284
v -35.340889 56.867237 26.508110
v -61.678486 57.543503 46.274532
v -34.236336 57.080387 28.059498
v -65.155952 57.543503 40.488163
v -36.192413 57.080383 24.804667
v -58.705200 56.774616 33.657814
v -56.686600 56.409218 35.890541
v -54.952106 56.196075 38.294010
v -53.643806 56.409218 40.953606
v -52.619614 56.774616 43.783955
v -45.675152 56.501442 27.303848
v -43.982563 56.136047 28.994099
v -42.574089 55.922909 30.855101
v -41.591801 56.136047 32.972225
v -40.893623 56.501442 35.260101
v -48.687641 57.908897 63.695644
v -25.938349 57.445786 37.427296
v -58.105820 57.908897 54.021080
v -31.236078 57.445786 31.985352
v -52.786591 57.330364 58.264393
v -28.852230 56.867237 34.964317
v -50.615093 57.543503 60.861225
v -27.419123 57.080387 36.219006
v -55.324177 57.543503 56.023941
v -30.067986 57.080387 33.498035
v -50.428753 56.774616 47.725163
v -47.941429 56.409218 49.425694
v -45.698158 56.196075 51.363808
v -43.820976 56.409218 53.658310
v -42.187840 56.774616 56.190407
v -38.913147 56.501442 38.281273
v -36.867306 56.136047 39.528313
v -35.065510 55.922909 41.012936
v -33.629803 56.136047 42.853947
v -32.438148 56.501442 44.932541
v -32.731808 57.908897 74.990829
v -17.172628 57.445786 43.033436
v -44.338173 57.908897 68.092163
v -23.701212 57.445786 39.152935
v -38.089905 57.330364 70.792679
v -20.630245 56.867237 41.418438
v -35.321842 57.543503 72.741997
v -18.918823 57.080387 42.255184
v -41.125023 57.543503 69.292664
v -22.183113 57.080387 40.314934
v -38.441895 56.774616 59.823818
v -35.591446 56.409218 60.808723
v -32.919029 56.196075 62.093170
v -30.513662 56.409218 63.826893
v -28.286327 56.774616 65.860146
v -29.597486 56.501442 47.421288
v -27.291086 56.136047 48.082829
v -25.162712 55.922909 49.043892
v -23.301395 56.136047 50.454243
v -21.618111 56.501442 52.164120
v -14.087861 57.908901 81.428978
v -7.625665 57.445786 45.900204
v -27.129625 57.908901 77.934456
v -14.961658 57.445786 43.934532
v -20.379658 57.330368 78.826759
v -11.393167 56.867237 45.288727
v -17.187941 57.543507 79.956886
v -9.518363 57.080387 45.627857
v -23.708822 57.543507 78.209618
v -13.186360 57.080387 44.645023
v -23.653061 56.774616 68.220192
v -20.639818 56.409218 68.386147
v -17.718204 56.196075 68.894089
v -14.934047 56.409218 69.915009
v -12.241518 56.774616 71.277901
v -18.438221 56.501442 53.648800
v -16.036310 56.136047 53.650951
v -13.726028 55.922909 53.995083
v -11.553202 56.136047 54.852192
v -9.472007 56.501442 56.051285
v 7.683349 57.908901 82.264450
v 4.248431 57.445786 46.273754
v -8.019135 57.908901 82.264450
v -4.584216 57.445786 46.273754
v -0.167893 57.330368 81.379341
v -0.167893 56.867237 46.658215
v 3.757728 57.543507 81.644875
v 2.040269 57.080387 46.500557
v -4.093514 57.543507 81.644875
v -2.376054 57.080387 46.500557
v -7.037729 56.774616 71.981400
v -3.602811 56.409218 71.361809
v -0.167893 56.196075 71.096283
v 3.267025 56.409218 71.361809
v 6.701943 56.774616 71.981400
v -5.565621 56.501442 56.556812
v -2.866757 56.136047 55.937237
v -0.167893 55.922909 55.671696
v 2.530972 56.136047 55.937237
v 5.229836 56.501442 56.556812
v 14.087861 57.908901 81.428978
v 7.625665 57.445786 45.900204
v 27.129625 57.908901 77.934456
v 14.961658 57.445786 43.934532
v 20.379658 57.330368 78.826759
v 11.393167 56.867237 45.288727
v 17.187941 57.543507 79.956886
v 9.518363 57.080387 45.627857
v 23.708822 57.543507 78.209618
v 13.186360 57.080387 44.645023
v 23.653061 56.774616 68.220192
v 20.639818 56.409218 68.386147
v 17.718204 56.196075 68.894089
v 14.934047 56.409218 69.915009
v 12.241518 56.774616 71.277901
v 18.438221 56.501442 53.648800
v 16.036310 56.136047 53.650951
v 13.726028 55.922909 53.995083
v 11.553202 56.136047 54.852192
v 9.472007 56.501442 56.051285
v 32.731808 57.908897 74.990829
v 17.172628 57.445786 43.033436
v 44.338173 57.908897 68.092163
v 23.701212 57.445786 39.152935
v 38.089905 57.330364 70.792679
v 20.630245 56.867237 41.418438
v 35.321842 57.543503 72.741997
v 18.918823 57.080387 42.255184
v 41.125023 57.543503 69.292664
v 22.183113 57.080387 40.314934
v 38.441895 56.774616 59.823818
v 35.591446 56.409218 60.808723
v 32.919029 56.196075 62.093170
v 30.513662 56.409218 63.826893
v 28.286327 56.774616 65.860146
v 29.597486 56.501442 47.421288
v 27.291086 56.136047 48.082829
v 25.162712 55.922909 49.043892
v 23.301395 56.136047 50.454243
v 21.618111 56.501442 52.164120
v 48.687641 57.908897 63.695644
v 25.938349 57.445786 37.427296
v 58.105820 57.908897 54.021080
v 31.236078 57.445786 31.985352
v 52.786591 57.330364 58.264393
v 28.852230 56.867237 34.964317
v 50.615093 57.543503 60.861225
v 27.419123 57.080387 36.219006
v 55.324177 57.543503 56.023941
v 30.067986 57.080387 33.498035
v 50.428753 56.774616 47.725163
v 47.941429 56.409218 49.425694
v 45.698158 56.196075 51.363808
v 43.820976 56.409218 53.658310
v 42.187840 56.774616 56.190407
v 38.913147 56.501442 38.281273
v 36.867306 56.136047 39.528313
v 35.065510 55.922909 41.012936
v 33.629803 56.136047 42.853947
v 32.438148 56.501442 44.932541
v 60.436947 57.908897 49.466522
v 33.076290 57.445786 29.577530
v 67.391891 57.908897 37.893795
v 36.988449 57.445782 23.067869
v 63.204128 57.330364 43.253284
v 35.340889 56.867237 26.508110
v 61.678486 57.543503 46.274532
v 34.236336 57.080387 28.059498
v 65.155952 57.543503 40.488163
v 36.192413 57.080383 24.804667
v 58.705200 56.774616 33.657814
v 56.686600 56.409218 35.890541
v 54.952106 56.196075 38.294010
v 53.643806 56.409218 40.953606
v 52.619614 56.774616 43.783955
v 45.675152 56.501442 27.303848
v 43.982563 56.136047 28.994099
v 42.574089 55.922909 30.855101
v 41.591801 56.136047 32.972225
v 40.893623 56.501442 35.260101
v 68.715843 57.908897 33.092026
v 38.482571 57.445782 20.163116
v 72.888138 57.908894 20.251020
v 40.829487 57.445782 12.940052
v 70.036018 57.330364 26.422642
v 39.988731 56.867233 16.659687
v 69.222740 57.543503 29.707556
v 39.265572 57.080383 18.421122
v 71.308884 57.543499 23.287054
v 40.439026 57.080383 14.809589
v 63.728523 56.774612 18.162174
v 62.279655 56.409214 20.796926
v 61.137177 56.196072 23.531231
v 60.454277 56.409218 26.414864
v 60.077763 56.774616 29.398050
v 49.989101 56.501438 15.028901
v 48.735809 56.136044 17.061733
v 47.788906 55.922905 19.194117
v 47.301590 56.136044 21.475826
v 47.120647 56.501438 23.857090
v 73.274673 57.908894 15.713954
v 41.654644 57.445782 9.562836
v 74.626854 57.908894 2.280005
v 42.415245 57.445782 2.006239
v 73.165863 57.330360 8.917974
v 42.375870 56.867233 5.818852
v 73.063293 57.543499 12.300163
v 42.045918 57.080383 7.693931
v 73.739380 57.543499 5.583189
v 42.426216 57.080383 3.915632
v 65.423531 56.774612 2.201786
v 64.578316 56.409214 5.085160
v 64.047050 56.196072 8.000135
v 63.986736 56.409214 10.962513
v 64.240379 56.774612 13.956492
v 51.618557 56.501438 2.084458
v 50.836723 56.136044 4.338116
v 50.368847 55.922905 6.623375
v 50.371914 56.136044 8.956037
v 50.688938 56.501438 11.320298
v 73.274673 57.908894 -15.713962
v 41.654644 57.445782 -9.562845
v 74.626854 57.908894 -2.280013
v 42.415245 57.445782 -2.006248
v 73.165863 57.330360 -8.917984
v 42.375870 56.867233 -5.818861
v 73.063293 57.543499 -12.300173
v 42.045918 57.080383 -7.693940
v 73.739380 57.543499 -5.583198
v 42.426216 57.080383 -3.915641
v 65.423531 56.774612 -2.201794
v 64.578316 56.409214 -5.085169
v 64.047050 56.196072 -8.000143
v 63.986736 56.409214 -10.962521
v 64.240379 56.774612 -13.956499
v 51.618557 56.501438 -2.084466
v 50.836723 56.136044 -4.338124
v 50.368847 55.922905 -6.623383
v 50.371914 56.136044 -8.956044
v 50.688938 56.501438 -11.320306
v 68.715843 57.908890 -33.092033
v 38.482571 57.445782 -20.163124
v 72.888138 57.908894 -20.251028
v 40.829487 57.445782 -12.940062
v 70.036018 57.330357 -26.422651
v 39.988731 56.867233 -16.659695
v 69.222740 57.543495 -29.707567
v 39.265572 57.080383 -18.421129
v 71.308884 57.543499 -23.287064
v 40.439026 57.080383 -14.809601
v 63.728523 56.774612 -18.162180
v 62.279655 56.409214 -20.796934
v 61.137177 56.196072 -23.531240
v 60.454277 56.409210 -26.414873
v 60.077763 56.774609 -29.398058
v 49.989101 56.501438 -15.028909
v 48.735809 56.136044 -17.061741
v 47.788906 55.922905 -19.194124
v 47.301590 56.136044 -21.475836
v 47.120647 56.501438 -23.857098
v 60.436947 57.908890 -49.466530
v 33.076290 57.445778 -29.577538
v 67.391891 57.908890 -37.893803
v 36.988449 57.445782 -23.067877
v 63.204128 57.330357 -43.253292
v 35.340889 56.867229 -26.508121
v 61.678486 57.543495 -46.274544
v 34.236336 57.080379 -28.059504
v 65.155952 57.543495 -40.488174
v 36.192413 57.080383 -24.804670
v 58.705200 56.774609 -33.657822
v 56.686600 56.409210 -35.890549
v 54.952106 56.196068 -38.294022
v 53.643806 56.409210 -40.953617
v 52.619614 56.774609 -43.783958
v 45.675152 56.501434 -27.303856
v 43.982563 56.136040 -28.994110
v 42.574089 55.922901 -30.855110
v 41.591801 56.136040 -32.972237
v 40.893623 56.501434 -35.260105
v 48.687641 57.908890 -63.695652
v 25.938349 57.445778 -37.427299
v 58.105820 57.908890 -54.021088
v 31.236078 57.445778 -31.985359
v 52.786591 57.330357 -58.264400
v 28.852230 56.867229 -34.964325
v 50.615093 57.543495 -60.861237
v 27.419123 57.080379 -36.219013
v 55.324177 57.543495 -56.023952
v 30.067986 57.080379 -33.498039
v 50.428753 56.774609 -47.725163
v 47.941429 56.409210 -49.425701
v 45.698158 56.196068 -51.363815
v 43.820976 56.409210 -53.658321
v 42.187840 56.774609 -56.190407
v 38.913147 56.501434 -38.281281
v 36.867306 56.136040 -39.528324
v 35.065510 55.922901 -41.012947
v 33.629803 56.136040 -42.853958
v 32.438148 56.501434 -44.932549
v 32.731808 57.908890 -74.990845
v 17.172628 57.445778 -43.033443
v 44.338173 57.908890 -68.092178
v 23.701212 57.445778 -39.152943
v 38.089905 57.330357 -70.792694
v 20.630245 56.867229 -41.418446
v 35.321842 57.543495 -72.742012
v 18.918823 57.080379 -42.255192
v 41.125023 57.543495 -69.292679
v 22.183113 57.080379 -40.314938
v 38.441895 56.774609 -59.823814
v 35.591446 56.409210 -60.808739
v 32.919029 56.196068 -62.093178
v 30.513662 56.409210 -63.826908
v 28.286327 56.774609 -65.860161
v 29.597486 56.501434 -47.421291
v 27.291086 56.136040 -48.082840
v 25.162712 55.922901 -49.043900
v 23.301395 56.136040 -50.454254
v 21.618111 56.501434 -52.164127
v 14.087861 57.908886 -81.428993
v 7.625665 57.445778 -45.900211
v 27.129625 57.908886 -77.934471
v 14.961658 57.445778 -43.934540
v 20.379658 57.330353 -78.826775
v 11.393167 56.867229 -45.288734
v 17.187941 57.543491 -79.956902
v 9.518363 57.080379 -45.627865
v 23.708822 57.543491 -78.209633
v 13.186360 57.080379 -44.645031
v 23.653061 56.774609 -68.220200
v 20.639818 56.409210 -68.386162
v 17.718204 56.196068 -68.894104
v 14.934047 56.409210 -69.915024
v 12.241518 56.774609 -71.277916
v 18.438221 56.501434 -53.648808
v 16.036310 56.136040 -53.650959
v 13.726028 55.922901 -53.995090
v 11.553202 56.136040 -54.852203
v 9.472007 56.501434 -56.051292
v 7.683349 57.908886 -82.264465
v 4.248431 57.445778 -46.273762
v -8.019135 57.908886 -82.264465
v -4.584216 57.445778 -46.273762
v -0.167893 57.330353 -81.379356
v -0.167893 56.867229 -46.658215
v 3.757728 57.543491 -81.644890
v 2.040269 57.080379 -46.500561
v -4.093514 57.543491 -81.644890
v -2.376054 57.080379 -46.500561
v -7.037729 56.774609 -71.981415
v -3.602811 56.409210 -71.361832
v -0.167893 56.196068 -71.096298
v 3.267025 56.409210 -71.361832
v 6.701943 56.774609 -71.981415
v -5.565621 56.501434 -56.556820
v -2.866757 56.136040 -55.937244
v -0.167893 55.922901 -55.671703
v 2.530972 56.136040 -55.937244
v 5.229836 56.501434 -56.556820
v -14.087861 57.908886 -81.428993
v -7.625665 57.445778 -45.900211
v -27.129625 57.908886 -77.934471
v -14.961658 57.445778 -43.934540
v -20.379658 57.330353 -78.826775
v -11.393167 56.867229 -45.288734
v -17.187941 57.543491 -79.956902
v -9.518363 57.080379 -45.627865
v -23.708822 57.543491 -78.209633
v -13.186360 57.080379 -44.645031
v -23.653061 56.774609 -68.220200
v -20.639818 56.409210 -68.386162
v -17.718204 56.196068 -68.894104
v -14.934047 56.409210 -69.915024
v -12.241518 56.774609 -71.277916
v -18.438221 56.501434 -53.648808
v -16.036310 56.136040 -53.650959
v -13.726028 55.922901 -53.995090
v -11.553202 56.136040 -54.852203
v -9.472007 56.501434 -56.051292
v -32.731808 57.908890 -74.990845
v -17.172628 57.445778 -43.033443
v -44.338173 57.908890 -68.092178
v -23.701212 57.445778 -39.152943
v -38.089905 57.330357 -70.792694
v -20.630245 56.867229 -41.418446
v -35.321842 57.543495 -72.742012
v -18.918823 57.080379 -42.255192
v -41.125023 57.543495 -69.292679
v -22.183113 57.080379 -40.314938
v -38.441895 56.774609 -59.823814
v -35.591446 56.409210 -60.808739
v -32.919029 56.196068 -62.093178
v -30.513662 56.409210 -63.826908
v -28.286327 56.774609 -65.860161
v -29.597486 56.501434 -47.421291
v -27.291086 56.136040 -48.082840
v -25.162712 55.922901 -49.043900
v -23.301395 56.136040 -50.454254
v -21.618111 56.501434 -52.164127
v -48.687641 57.908890 -63.695652
v -25.938349 57.445778 -37.427299
v -58.105820 57.908890 -54.021088
v -31.236078 57.445778 -31.985359
v -52.786591 57.330357 -58.264400
v -28.852230 56.867229 -34.964325
v -50.615093 57.543495 -60.861237
v -27.419123 57.080379 -36.219013
v -55.324177 57.543495 -56.023952
v -30.067986 57.080379 -33.498039
v -50.428753 56.774609 -47.725163
v -47.941429 56.409210 -49.425701
v -45.698158 56.196068 -51.363815
v -43.820976 56.409210 -53.658321
v -42.187840 56.774609 -56.190407
v -38.913147 56.501434 -38.281281
v -36.867306 56.136040 -39.528324
v -35.065510 55.922901 -41.012947
v -33.629803 56.136040 -42.853958
v -32.438148 56.501434 -44.932549
v -60.436947 57.908890 -49.466530
v -33.076290 57.445778 -29.577538
v -67.391891 57.908890 -37.893803
v -36.988449 57.445782 -23.067877
v -63.204128 57.330357 -43.253292
v -35.340889 56.867229 -26.508121
v -61.678486 57.543495 -46.274544
v -34.236336 57.080379 -28.059504
v -65.155952 57.543495 -40.488174
v -36.192413 57.080383 -24.804670
v -58.705200 56.774609 -33.657822
v -56.686600 56.409210 -35.890549
v -54.952106 56.196068 -38.294022
v -53.643806 56.409210 -40.953617
v -52.619614 56.774609 -43.783958
v -45.675152 56.501434 -27.303856
v -43.982563 56.136040 -28.994110
v -42.574089 55.922901 -30.855110
v -41.591801 56.136040 -32.972237
v -40.893623 56.501434 -35.260105
v -68.715843 57.908890 -33.092033
v -38.482571 57.445782 -20.163124
v -72.888138 57.908894 -20.251028
v -40.829487 57.445782 -12.940062
v -70.036018 57.330357 -26.422651
v -39.988731 56.867233 -16.659695
v -69.222740 57.543495 -29.707567
v -39.265572 57.080383 -18.421129
v -71.308884 57.543499 -23.287064
v -40.439026 57.080383 -14.809601
v -63.728523 56.774612 -18.162180
v -62.279655 56.409214 -20.796934
v -61.137177 56.196072 -23.531240
v -60.454277 56.409210 -26.414873
v -60.077763 56.774609 -29.398058
v -49.989101 56.501438 -15.028909
v -48.735809 56.136044 -17.061741
v -47.788906 55.922905 -19.194124
v -47.301590 56.136044 -21.475836
v -47.120647 56.501438 -23.857098
v -73.274673 57.908894 -15.713962
v -41.654644 57.445782 -9.562845
v -74.626854 57.908894 -2.280013
v -42.415245 57.445782 -2.006248
v -73.165863 57.330360 -8.917984
v -42.375870 56.867233 -5.818861
v -73.063293 57.543499 -12.300173
v -42.045918 57.080383 -7.693940
v -73.739380 57.543499 -5.583198
v -42.426216 57.080383 -3.915641
v -65.423531 56.774612 -2.201794
v -64.578316 56.409214 -5.085169
v -64.047050 56.196072 -8.000143
v -63.986736 56.409214 -10.962521
v -64.240379 56.774612 -13.956499
v -51.618557 56.501438 -2.084466
v -50.836723 56.136044 -4.338124
v -50.368847 55.922905 -6.623383
v -50.371914 56.136044 -8.956044
v -50.688938 56.501438 -11.320306
v -25.374599 6.693182 3.276599
v -27.813000 7.349900 3.276599
v -27.813000 5.637480 3.276599
v -25.374599 5.637480 3.276599
v -26.500755 6.771966 3.276599
v -26.349960 5.637480 3.276599
v -25.958469 6.696002 3.276599
v -25.862280 5.637480 3.276599
v -26.995005 6.912976 3.276599
v -26.837639 5.637480 3.276599
v -27.433167 7.109218 3.276599
v -27.325319 5.637480 3.276599
v -27.813000 4.808589 3.276599
v -25.374599 4.808589 3.276599
v -26.349960 4.808589 3.276599
v -25.862280 4.808589 3.276599
v -26.837639 4.808589 3.276599
v -27.325319 4.808589 3.276599
v -25.374599 6.880808 1.676399
v -27.813000 7.818977 1.676399
v -26.526140 7.064094 1.676399
v -26.498652 6.913446 2.476499
v -25.374599 6.745393 2.415922
v -26.497602 6.984179 2.076450
v -25.374599 6.803358 2.015971
v -25.966997 6.931447 1.676399
v -25.942299 6.868973 2.076450
v -25.947689 6.811315 2.476499
v -26.499704 6.842707 2.876549
v -25.374599 6.707315 2.843116
v -25.953077 6.753654 2.876549
v -27.813000 7.584435 2.476499
v -27.030239 7.263917 1.676399
v -27.003214 7.083883 2.476499
v -27.007318 7.169342 2.076450
v -27.813000 7.701706 2.076450
v -27.461626 7.519118 1.676399
v -27.448883 7.412645 2.076450
v -27.443644 7.311506 2.476499
v -26.999107 6.998425 2.876549
v -27.813000 7.467170 2.876549
v -27.438406 7.210357 2.876549
v -27.813000 7.818977 -3.429000
v -25.374599 6.880808 -3.429000
v -26.526140 7.064093 -3.429000
v -26.526140 7.064094 -0.876301
v -25.374599 6.880808 -0.876301
v -26.526140 7.064094 0.400049
v -25.374599 6.880808 0.400050
v -25.966997 6.931447 0.400049
v -25.966997 6.931447 -0.876301
v -26.526140 7.064094 -2.152650
v -25.374599 6.880808 -2.152650
v -25.966997 6.931447 -2.152650
v -25.966997 6.931446 -3.429000
v -27.813000 7.818977 -0.876301
v -27.030239 7.263917 -0.876301
v -27.030239 7.263917 0.400049
v -27.813000 7.818977 0.400049
v -27.461626 7.519118 0.400049
v -27.461626 7.519118 -0.876301
v -27.030239 7.263917 -3.429000
v -27.030239 7.263917 -2.152650
v -27.813000 7.818977 -2.152650
v -27.461626 7.519118 -2.152650
v -27.461626 7.519118 -3.429000
v -27.813000 7.349899 -5.029201
v -25.374599 6.693181 -5.029201
v -26.500755 6.771966 -5.029201
v -26.498652 6.913446 -4.229100
v -25.374599 6.745392 -4.168523
v -26.497602 6.984179 -3.829050
v -25.374599 6.803358 -3.768572
v -25.942299 6.868973 -3.829050
v -25.947689 6.811315 -4.229100
v -26.499704 6.842707 -4.629150
v -25.374599 6.707314 -4.595717
v -25.953077 6.753654 -4.629150
v -25.958469 6.696001 -5.029201
v -27.813000 7.584434 -4.229100
v -27.003214 7.083883 -4.229100
v -27.007318 7.169342 -3.829050
v -27.813000 7.701706 -3.829050
v -27.448883 7.412644 -3.829050
v -27.443644 7.311505 -4.229100
v -26.995005 6.912975 -5.029201
v -26.999107 6.998425 -4.629150
v -27.813000 7.467170 -4.629150
v -27.438406 7.210356 -4.629150
v -27.433167 7.109217 -5.029201
v -25.374599 5.637479 -5.029201
v -25.374599 5.637479 -3.429000
v -25.374599 5.637479 -4.229100
v -25.374599 5.637479 -3.829050
v -25.374599 5.637479 -4.629150
v -25.374599 5.637480 1.676399
v -25.374599 5.637480 2.476499
v -25.374599 5.637480 2.076450
v -25.374599 5.637480 2.876549
v -25.374599 4.808588 1.676400
v -25.374599 4.808588 2.476499
v -25.374599 4.808588 2.076450
v -25.374599 4.808588 2.876549
v -25.374599 4.808588 -5.029201
v -25.374599 4.808588 -3.429000
v -25.374599 4.808588 -4.229100
v -25.374599 4.808588 -3.829050
v -25.374599 4.808588 -4.629150
v -27.813000 5.637479 -5.029201
v -26.349960 5.637479 -5.029201
v -25.862280 5.637479 -5.029201
v -26.837639 5.637479 -5.029201
v -27.325319 5.637479 -5.029201
v -27.813000 4.808588 -5.029201
v -26.349960 4.808588 -5.029201
v -25.862280 4.808588 -5.029201
v -26.837639 4.808588 -5.029201
v -27.325319 4.808588 -5.029201
v -23.926798 6.880808 1.676399
v -23.926798 6.880808 0.400050
v -23.926798 6.880808 -0.876301
v -23.926798 6.880808 -2.152650
v -23.926798 6.880808 -3.429000
v -23.926798 5.637480 1.676399
v -23.926798 5.637480 0.400050
v -23.926798 5.637480 -0.876300
v -23.926798 5.637480 -2.152650
v -23.926798 5.637479 -3.429000
v -23.926798 4.808588 1.676400
v -23.926798 4.808588 0.400050
v -23.926798 4.808588 -0.876300
v -23.926798 4.808588 -2.152650
v -23.926798 4.808588 -3.429000
v -27.629351 9.645712 -14.405722
v -21.678823 6.980500 -12.588766
v -19.807819 7.030237 -17.741455
v -25.335531 9.645711 -20.653307
v -20.911615 6.778069 -15.260887
v -26.273472 9.427138 -17.470625
v -25.071972 7.580635 -13.708920
v -23.994263 7.580633 -16.531315
v -24.533115 7.580633 -15.120111
v -26.858847 9.427138 -15.946535
v -26.387383 8.402667 -14.104569
v -25.822729 8.402667 -15.578368
v -25.258081 8.402667 -17.052153
v -21.387548 6.800184 -14.002371
v -23.539690 7.019403 -13.248029
v -23.030886 6.973654 -14.586310
v -22.522079 6.973654 -15.924599
v -22.916552 7.580633 -19.353716
v -25.688089 9.427137 -18.994707
v -23.455410 7.580633 -17.942514
v -24.693428 8.402666 -18.525961
v -24.128777 8.402665 -19.999750
v -20.435680 6.800184 -16.519403
v -22.013275 6.973654 -17.262882
v -21.504473 7.019400 -18.601156
v -20.435680 5.910504 -16.577305
v -19.807819 5.956265 -17.835859
v -21.387548 5.910459 -14.060102
v -20.911615 5.888366 -15.318702
v -21.678823 5.956198 -12.801548
v -26.858847 8.059352 -15.946535
v -27.629292 8.059352 -14.422456
v -26.273472 8.059352 -17.470625
v -25.688089 8.059350 -18.994709
v -25.335590 8.059350 -20.518803
v -27.629351 9.645712 -14.405722
v -26.858847 9.427138 -15.946535
v -26.273472 9.427138 -17.470625
v -25.688089 9.427137 -18.994707
v -25.335531 9.645711 -20.653307
v -29.042263 9.648565 -7.231014
v -22.951792 6.983729 -6.527989
v -21.723476 6.980288 -12.399796
v -27.697451 9.645712 -14.239764
v -22.674208 6.778045 -9.495420
v -28.360039 9.427110 -10.661719
v -26.564795 7.580444 -6.954109
v -25.942783 7.580444 -10.165881
v -26.253788 7.580444 -8.559996
v -28.693382 9.427110 -8.946939
v -27.929865 8.402471 -7.108279
v -27.606472 8.402471 -8.774544
v -27.283077 8.402471 -10.440807
v -22.955011 6.800160 -8.036778
v -24.974884 7.019313 -6.774546
v -24.678303 6.973563 -8.310109
v -24.381721 6.973563 -9.845671
v -25.320770 7.580444 -13.377654
v -28.026695 9.427110 -12.376500
v -25.631777 7.580444 -11.771767
v -26.959686 8.402471 -12.107072
v -26.636295 8.402471 -13.773338
v -22.393408 6.800160 -10.954060
v -24.085138 6.973563 -11.381233
v -23.788557 7.019312 -12.916797
v -22.393408 5.910443 -10.984931
v -21.723476 5.956196 -12.443583
v -22.955011 5.910427 -8.067620
v -22.674208 5.888319 -9.526276
v -23.115225 5.956172 -6.608971
v -28.693382 8.059321 -8.946939
v -29.026726 8.059321 -7.232157
v -28.360039 8.059321 -10.661719
v -28.026695 8.059321 -12.376500
v -27.693352 8.059321 -14.091277
v -29.042263 9.648565 -7.231014
v -28.693382 9.427110 -8.946939
v -28.360039 9.427110 -10.661719
v -28.026695 9.427110 -12.376500
v -27.697451 9.645712 -14.239764
v -29.235840 9.648566 5.462988
v -23.126764 6.983730 4.946001
v -22.078060 6.980289 10.852531
v -28.105364 9.645714 12.509486
v -22.939793 6.778047 7.920516
v -28.658543 9.427112 8.912901
v -26.751081 7.580445 5.261755
v -26.227289 7.580445 8.491000
v -26.489183 7.580445 6.876379
v -28.939444 9.427112 7.188754
v -28.120216 8.402472 5.374230
v -27.847780 8.402472 7.049581
v -27.575346 8.402472 8.724931
v -23.175989 6.800161 6.453990
v -25.156435 7.019314 5.130755
v -24.906813 6.973564 6.674647
v -24.657190 6.973564 8.218537
v -25.703501 7.580446 11.720245
v -28.377642 9.427112 10.637047
v -25.965395 7.580446 10.105622
v -27.302912 8.402472 10.400281
v -27.030478 8.402472 12.075634
v -22.703598 6.800161 9.387038
v -24.407568 6.973565 9.762430
v -24.157946 7.019314 11.306323
v -22.704540 5.910445 9.417898
v -22.079397 5.956198 10.896297
v -23.176928 5.910428 6.484818
v -22.940735 5.888320 7.951358
v -23.292589 5.956173 5.021962
v -28.939444 8.059323 7.188754
v -29.220343 8.059322 5.464606
v -28.658543 8.059323 8.912901
v -28.377642 8.059323 10.637047
v -28.096737 8.059323 12.361193
v -29.235840 9.648566 5.462988
v -28.939444 9.427112 7.188754
v -28.658543 9.427112 8.912901
v -28.377642 9.427112 10.637047
v -28.105364 9.645714 12.509486
v -28.042353 9.645714 12.677444
v -22.039192 6.980502 11.042773
v -20.326172 7.030240 16.250120
v -25.940102 9.645715 18.992067
v -21.353817 6.778071 13.737047
v -26.780561 9.427140 15.782265
v -25.464918 7.580637 12.058942
v -24.473768 7.580635 14.912889
v -24.969339 7.580635 13.485909
v -27.319191 9.427140 14.241033
v -26.791782 8.402669 12.414299
v -26.272329 8.402669 13.904632
v -25.752882 8.402669 15.394947
v -21.791157 6.800186 12.464603
v -23.919294 7.019405 11.644990
v -23.451534 6.973656 12.998161
v -22.983772 6.973656 14.351343
v -23.482622 7.580636 17.766838
v -26.241922 9.427140 17.323490
v -23.978197 7.580636 16.339863
v -25.233429 8.402668 16.885290
v -24.713982 8.402668 18.375610
v -20.916479 6.800186 15.009490
v -22.516010 6.973656 15.704519
v -22.048252 7.019403 17.057686
v -20.918243 5.910506 15.067367
v -20.329052 5.956268 16.344481
v -21.792917 5.910460 12.522309
v -21.355583 5.888368 13.794837
v -22.045679 5.956200 11.255459
v -27.319191 8.059354 14.241033
v -28.042805 8.059354 12.694170
v -26.780561 8.059354 15.782265
v -26.241922 8.059353 17.323490
v -25.936058 8.059353 18.857624
v -28.042353 9.645714 12.677444
v -27.319191 9.427140 14.241033
v -26.780561 9.427140 15.782265
v -26.241922 9.427140 17.323490
v -25.940102 9.645715 18.992067
v 28.261442 9.648565 -7.231014
v 21.919619 6.983729 -6.527989
v 20.691303 6.980288 -12.399796
v 26.813913 9.645712 -14.240206
v 21.642036 6.778045 -9.495420
v 27.367739 9.427110 -10.661719
v 25.532621 7.580444 -6.954109
v 24.910610 7.580444 -10.165881
v 25.221615 7.580444 -8.559996
v 27.701084 9.427110 -8.946939
v 26.897692 8.402471 -7.108279
v 26.574299 8.402471 -8.774544
v 26.250906 8.402471 -10.440807
v 21.922838 6.800160 -8.036778
v 23.942713 7.019313 -6.774546
v 23.646130 6.973563 -8.310109
v 23.349548 6.973563 -9.845671
v 24.288599 7.580444 -13.377654
v 27.034397 9.427110 -12.376500
v 24.599604 7.580444 -11.771767
v 25.927513 8.402471 -12.107072
v 25.604122 8.402471 -13.773338
v 21.361235 6.800160 -10.954060
v 23.052965 6.973563 -11.381233
v 22.756384 7.019312 -12.916797
v 21.361235 5.910443 -10.984931
v 20.691303 5.956196 -12.443583
v 21.922838 5.910427 -8.067620
v 21.642036 5.888319 -9.526276
v 22.083052 5.956172 -6.608971
v 27.701084 8.059321 -8.946939
v 28.245905 8.059321 -7.232157
v 27.367739 8.059321 -10.661719
v 27.034397 8.059321 -12.376500
v 27.128740 8.059321 -14.091277
v 28.261442 9.648565 -7.231014
v 27.701084 9.427110 -8.946939
v 27.367739 9.427110 -10.661719
v 27.034397 9.427110 -12.376500
v 26.813913 9.645712 -14.240206
v 28.470522 9.648566 5.462988
v 22.094591 6.983730 4.946001
v 21.045889 6.980289 10.852531
v 27.340046 9.645714 12.509486
v 21.907619 6.778047 7.920516
v 27.893225 9.427112 8.912901
v 25.718908 7.580445 5.261755
v 25.195116 7.580445 8.491000
v 25.457010 7.580445 6.876379
v 28.174126 9.427112 7.188754
v 27.088043 8.402472 5.374230
v 26.815607 8.402472 7.049581
v 26.810028 8.402472 8.724931
v 22.143816 6.800161 6.453990
v 24.124262 7.019314 5.130755
v 23.874641 6.973564 6.674647
v 23.625017 6.973564 8.218537
v 24.671328 7.580446 11.720245
v 27.612324 9.427112 10.637047
v 24.933222 7.580446 10.105622
v 26.270739 8.402472 10.400281
v 25.998304 8.402472 12.075634
v 21.671425 6.800161 9.387038
v 23.375395 6.973565 9.762430
v 23.125772 7.019314 11.306323
v 21.672367 5.910445 9.417898
v 21.047224 5.956198 10.896297
v 22.144756 5.910428 6.484818
v 21.908562 5.888320 7.951358
v 22.260416 5.956173 5.021962
v 28.174126 8.059323 7.188754
v 28.455027 8.059322 5.464606
v 27.893225 8.059323 8.912901
v 27.612324 8.059323 10.637047
v 27.331421 8.059323 12.361193
v 28.470522 9.648566 5.462988
v 28.174126 9.427112 7.188754
v 27.893225 9.427112 8.912901
v 27.612324 9.427112 10.637047
v 27.340046 9.645714 12.509486
vn 0.1022 -0.9827 -0.1545
vn 0.0199 -0.9924 -0.1214
vn 0.0081 -0.9889 -0.1483
vn 0.0993 -0.9768 -0.1899
vn 0.1309 -0.9827 0.1311
vn 0.0437 -0.9924 0.1150
vn 0.0294 -0.9996 -0.0030
vn 0.1161 -0.9932 -0.0117
vn 0.0375 -0.9889 0.1437
vn 0.1352 -0.9768 0.1663
vn -0.1247 -0.9888 -0.0819
vn -0.0780 -0.9913 -0.1059
vn -0.0682 -0.9938 -0.0881
vn -0.1255 -0.9899 -0.0655
vn -0.0612 -0.9981 0.0062
vn -0.1209 -0.9926 0.0122
vn -0.0492 -0.9938 0.1000
vn -0.1100 -0.9899 0.0892
vn -0.0553 -0.9913 0.1194
vn -0.1059 -0.9888 0.1051
vn 0.0648 -0.9830 -0.1721
vn -0.0069 -0.9924 -0.1227
vn -0.0241 -0.9889 -0.1464
vn 0.0545 -0.9770 -0.2059
vn 0.1535 -0.9829 0.1012
vn 0.0666 -0.9924 0.1033
vn 0.0276 -0.9996 -0.0090
vn 0.1088 -0.9934 -0.0353
vn 0.0666 -0.9889 0.1326
vn 0.1651 -0.9770 0.1346
vn -0.1370 -0.9891 -0.0543
vn -0.0975 -0.9914 -0.0874
vn -0.0842 -0.9938 -0.0721
vn -0.1343 -0.9902 -0.0381
vn -0.0573 -0.9982 0.0186
vn -0.1132 -0.9929 0.0368
vn -0.0258 -0.9938 0.1078
vn -0.0862 -0.9902 0.1098
vn -0.0275 -0.9914 0.1280
vn -0.0789 -0.9891 0.1245
vn 0.0216 -0.9833 -0.1807
vn -0.0350 -0.9924 -0.1176
vn -0.0571 -0.9890 -0.1368
vn 0.0040 -0.9774 -0.2113
vn 0.1696 -0.9833 0.0657
vn 0.0874 -0.9924 0.0861
vn 0.0243 -0.9996 -0.0146
vn 0.0953 -0.9938 -0.0573
vn 0.0940 -0.9890 0.1146
vn 0.1885 -0.9774 0.0957
vn -0.1430 -0.9894 -0.0237
vn -0.1131 -0.9915 -0.0641
vn -0.0968 -0.9939 -0.0522
vn -0.1367 -0.9906 -0.0086
vn -0.0501 -0.9983 0.0301
vn -0.0992 -0.9933 0.0596
vn 0.0006 -0.9939 0.1100
vn -0.0565 -0.9906 0.1248
vn 0.0035 -0.9915 0.1300
vn -0.0462 -0.9894 0.1374
vn -0.0226 -0.9836 -0.1789
vn -0.0615 -0.9925 -0.1059
vn -0.0873 -0.9890 -0.1196
vn -0.0466 -0.9777 -0.2046
vn 0.1782 -0.9836 0.0274
vn 0.1042 -0.9925 0.0643
vn 0.0199 -0.9996 -0.0193
vn 0.0776 -0.9941 -0.0755
vn 0.1172 -0.9890 0.0905
vn 0.2033 -0.9777 0.0521
vn -0.1426 -0.9898 0.0076
vn -0.1236 -0.9916 -0.0376
vn -0.1051 -0.9940 -0.0297
vn -0.1329 -0.9909 0.0207
vn -0.0408 -0.9984 0.0397
vn -0.0808 -0.9936 0.0786
vn 0.0269 -0.9940 0.1059
vn -0.0243 -0.9909 0.1323
vn 0.0343 -0.9916 0.1246
vn -0.0114 -0.9898 0.1423
vn -0.0695 -0.9839 -0.1648
vn -0.0872 -0.9925 -0.0858
vn -0.1156 -0.9890 -0.0923
vn -0.0994 -0.9780 -0.1834
vn 0.1780 -0.9839 -0.0178
vn 0.1170 -0.9925 0.0356
vn 0.0139 -0.9996 -0.0234
vn 0.0541 -0.9944 -0.0910
vn 0.1364 -0.9890 0.0574
vn 0.2086 -0.9780 -0.0003
vn -0.1345 -0.9900 0.0423
vn -0.1284 -0.9917 -0.0054
vn -0.1086 -0.9941 -0.0025
vn -0.1218 -0.9912 0.0524
vn -0.0284 -0.9985 0.0477
vn -0.0563 -0.9939 0.0947
vn 0.0541 -0.9941 0.0942
vn 0.0121 -0.9912 0.1320
vn 0.0661 -0.9917 0.1103
vn 0.0272 -0.9900 0.1384
vn -0.1121 -0.9840 -0.1383
vn -0.1073 -0.9925 -0.0586
vn -0.1364 -0.9890 -0.0571
vn -0.1459 -0.9782 -0.1480
vn 0.1661 -0.9840 -0.0637
vn 0.1222 -0.9925 0.0030
vn 0.0069 -0.9996 -0.0259
vn 0.0270 -0.9946 -0.1006
vn 0.1467 -0.9890 0.0187
vn 0.2003 -0.9782 -0.0552
vn -0.1176 -0.9902 0.0756
vn -0.1248 -0.9918 0.0288
vn -0.1050 -0.9941 0.0261
vn -0.1026 -0.9913 0.0818
vn -0.0141 -0.9985 0.0528
vn -0.0281 -0.9941 0.1048
vn 0.0779 -0.9941 0.0752
vn 0.0479 -0.9913 0.1222
vn 0.0937 -0.9918 0.0873
vn 0.0641 -0.9902 0.1243
vn -0.1239 -0.9867 -0.1048
vn -0.1024 -0.9943 -0.0286
vn -0.1265 -0.9917 -0.0205
vn -0.1547 -0.9823 -0.1056
vn 0.1239 -0.9867 -0.1048
vn 0.1024 -0.9943 -0.0286
vn -0.0000 -0.9997 -0.0263
vn -0.0000 -0.9946 -0.1042
vn 0.1265 -0.9917 -0.0205
vn 0.1547 -0.9823 -0.1056
vn -0.0810 -0.9913 0.1036
vn -0.0976 -0.9934 0.0597
vn -0.0814 -0.9953 0.0527
vn -0.0670 -0.9921 0.1057
vn -0.0000 -0.9985 0.0550
vn -0.0000 -0.9941 0.1085
vn 0.0814 -0.9953 0.0527
vn 0.0670 -0.9921 0.1057
vn 0.0976 -0.9934 0.0597
vn 0.0810 -0.9913 0.1036
vn 0.1122 -0.9840 -0.1383
vn 0.1459 -0.9782 -0.1480
vn 0.1364 -0.9890 -0.0571
vn 0.1073 -0.9925 -0.0586
vn -0.1662 -0.9840 -0.0637
vn -0.0270 -0.9946 -0.1006
vn -0.0069 -0.9996 -0.0259
vn -0.1222 -0.9925 0.0030
vn -0.1467 -0.9890 0.0187
vn -0.2003 -0.9782 -0.0552
vn 0.1176 -0.9902 0.0756
vn 0.1026 -0.9913 0.0818
vn 0.1050 -0.9941 0.0261
vn 0.1248 -0.9918 0.0288
vn 0.0281 -0.9941 0.1048
vn 0.0141 -0.9985 0.0528
vn -0.0479 -0.9913 0.1222
vn -0.0779 -0.9941 0.0752
vn -0.0641 -0.9902 0.1243
vn -0.0937 -0.9918 0.0873
vn 0.0695 -0.9839 -0.1648
vn 0.0994 -0.9780 -0.1834
vn 0.1156 -0.9890 -0.0923
vn 0.0872 -0.9925 -0.0858
vn -0.1780 -0.9839 -0.0177
vn -0.0541 -0.9944 -0.0910
vn -0.0139 -0.9996 -0.0234
vn -0.1170 -0.9925 0.0356
vn -0.1364 -0.9890 0.0574
vn -0.2086 -0.9780 -0.0003
vn 0.1345 -0.9900 0.0423
vn 0.1218 -0.9912 0.0524
vn 0.1086 -0.9941 -0.0025
vn 0.1284 -0.9917 -0.0054
vn 0.0563 -0.9939 0.0947
vn 0.0284 -0.9985 0.0477
vn -0.0121 -0.9912 0.1320
vn -0.0541 -0.9941 0.0942
vn -0.0272 -0.9900 0.1384
vn -0.0661 -0.9917 0.1103
vn 0.0226 -0.9836 -0.1790
vn 0.0466 -0.9777 -0.2046
vn 0.0873 -0.9890 -0.1196
vn 0.0615 -0.9925 -0.1059
vn -0.1782 -0.9836 0.0274
vn -0.0776 -0.9941 -0.0755
vn -0.0199 -0.9996 -0.0193
vn -0.1042 -0.9925 0.0643
vn -0.1172 -0.9890 0.0905
vn -0.2033 -0.9777 0.0521
vn 0.1426 -0.9898 0.0076
vn 0.1329 -0.9909 0.0207
vn 0.1051 -0.9940 -0.0297
vn 0.1236 -0.9916 -0.0376
vn 0.0808 -0.9936 0.0786
vn 0.0408 -0.9984 0.0397
vn 0.0243 -0.9909 0.1323
vn -0.0269 -0.9940 0.1059
vn 0.0114 -0.9898 0.1423
vn -0.0343 -0.9916 0.1246
vn -0.0216 -0.9833 -0.1807
vn -0.0040 -0.9774 -0.2113
vn 0.0571 -0.9890 -0.1368
vn 0.0350 -0.9924 -0.1176
vn -0.1696 -0.9833 0.0657
vn -0.0953 -0.9938 -0.0573
vn -0.0243 -0.9996 -0.0146
vn -0.0874 -0.9924 0.0861
vn -0.0940 -0.9890 0.1146
vn -0.1885 -0.9774 0.0957
vn 0.1430 -0.9894 -0.0237
vn 0.1367 -0.9906 -0.0086
vn 0.0968 -0.9939 -0.0522
vn 0.1131 -0.9915 -0.0641
vn 0.0992 -0.9933 0.0596
vn 0.0501 -0.9983 0.0301
vn 0.0565 -0.9906 0.1248
vn -0.0006 -0.9939 0.1100
vn 0.0462 -0.9894 0.1374
vn -0.0035 -0.9915 0.1300
vn -0.0648 -0.9830 -0.1720
vn -0.0545 -0.9770 -0.2059
vn 0.0241 -0.9889 -0.1464
vn 0.0069 -0.9924 -0.1227
vn -0.1535 -0.9829 0.1012
vn -0.1088 -0.9934 -0.0353
vn -0.0276 -0.9996 -0.0090
vn -0.0666 -0.9924 0.1033
vn -0.0666 -0.9889 0.1326
vn -0.1651 -0.9770 0.1346
vn 0.1370 -0.9891 -0.0543
vn 0.1343 -0.9902 -0.0381
vn 0.0842 -0.9938 -0.0721
vn 0.0975 -0.9914 -0.0874
vn 0.1132 -0.9929 0.0368
vn 0.0573 -0.9982 0.0186
vn 0.0862 -0.9902 0.1098
vn 0.0258 -0.9938 0.1078
vn 0.0789 -0.9891 0.1245
vn 0.0275 -0.9914 0.1280
vn -0.1022 -0.9827 -0.1546
vn -0.0993 -0.9768 -0.1899
vn -0.0081 -0.9889 -0.1483
vn -0.0199 -0.9924 -0.1214
vn -0.1309 -0.9827 0.1311
vn -0.1161 -0.9932 -0.0117
vn -0.0294 -0.9996 -0.0030
vn -0.0437 -0.9924 0.1150
vn -0.0375 -0.9889 0.1437
vn -0.1352 -0.9768 0.1663
vn 0.1247 -0.9888 -0.0819
vn 0.1255 -0.9899 -0.0655
vn 0.0682 -0.9938 -0.0881
vn 0.0780 -0.9913 -0.1059
vn 0.1209 -0.9926 0.0122
vn 0.0613 -0.9981 0.0062
vn 0.1100 -0.9899 0.0892
vn 0.0493 -0.9938 0.1000
vn 0.1059 -0.9888 0.1051
vn 0.0554 -0.9913 0.1194
vn -0.1022 -0.9827 0.1546
vn -0.0199 -0.9924 0.1214
vn -0.0081 -0.9889 0.1483
vn -0.0993 -0.9768 0.1899
vn -0.1309 -0.9827 -0.1311
vn -0.0437 -0.9924 -0.1150
vn -0.0294 -0.9996 0.0030
vn -0.1161 -0.9932 0.0117
vn -0.0375 -0.9889 -0.1437
vn -0.1352 -0.9768 -0.1663
vn 0.1247 -0.9888 0.0819
vn 0.0780 -0.9913 0.1059
vn 0.0682 -0.9938 0.0881
vn 0.1255 -0.9899 0.0655
vn 0.0613 -0.9981 -0.0062
vn 0.1209 -0.9926 -0.0122
vn 0.0492 -0.9938 -0.1000
vn 0.1100 -0.9899 -0.0892
vn 0.0554 -0.9913 -0.1194
vn 0.1059 -0.9888 -0.1051
vn -0.0647 -0.9829 0.1722
vn 0.0069 -0.9924 0.1227
vn 0.0241 -0.9889 0.1464
vn -0.0545 -0.9770 0.2059
vn -0.1535 -0.9829 -0.1012
vn -0.0666 -0.9924 -0.1033
vn -0.0276 -0.9996 0.0090
vn -0.1088 -0.9934 0.0353
vn -0.0666 -0.9889 -0.1326
vn -0.1651 -0.9770 -0.1346
vn 0.1370 -0.9891 0.0543
vn 0.0975 -0.9914 0.0874
vn 0.0842 -0.9938 0.0721
vn 0.1343 -0.9902 0.0381
vn 0.0573 -0.9982 -0.0186
vn 0.1132 -0.9929 -0.0368
vn 0.0257 -0.9938 -0.1078
vn 0.0862 -0.9902 -0.1098
vn 0.0275 -0.9914 -0.1280
vn 0.0789 -0.9891 -0.1245
vn -0.0216 -0.9833 0.1807
vn 0.0350 -0.9924 0.1176
vn 0.0571 -0.9890 0.1368
vn -0.0040 -0.9774 0.2113
vn -0.1696 -0.9833 -0.0657
vn -0.0874 -0.9924 -0.0861
vn -0.0243 -0.9996 0.0146
vn -0.0953 -0.9938 0.0573
vn -0.0940 -0.9890 -0.1146
vn -0.1885 -0.9774 -0.0957
vn 0.1430 -0.9894 0.0237
vn 0.1131 -0.9915 0.0641
vn 0.0968 -0.9939 0.0522
vn 0.1367 -0.9906 0.0086
vn 0.0501 -0.9983 -0.0301
vn 0.0992 -0.9933 -0.0596
vn -0.0006 -0.9939 -0.1100
vn 0.0565 -0.9906 -0.1248
vn -0.0035 -0.9915 -0.1300
vn 0.0462 -0.9894 -0.1374
vn 0.0225 -0.9836 0.1788
vn 0.0615 -0.9925 0.1059
vn 0.0873 -0.9890 0.1196
vn 0.0466 -0.9777 0.2046
vn -0.1783 -0.9836 -0.0274
vn -0.1042 -0.9925 -0.0643
vn -0.0199 -0.9996 0.0193
vn -0.0776 -0.9941 0.0755
vn -0.1172 -0.9890 -0.0905
vn -0.2033 -0.9777 -0.0521
vn 0.1426 -0.9898 -0.0076
vn 0.1236 -0.9916 0.0376
vn 0.1051 -0.9940 0.0297
vn 0.1329 -0.9909 -0.0207
vn 0.0408 -0.9984 -0.0397
vn 0.0808 -0.9936 -0.0786
vn -0.0269 -0.9940 -0.1059
vn 0.0243 -0.9909 -0.1323
vn -0.0343 -0.9916 -0.1246
vn 0.0114 -0.9898 -0.1423
vn 0.0696 -0.9839 0.1649
vn 0.0872 -0.9925 0.0858
vn 0.1156 -0.9890 0.0923
vn 0.0994 -0.9780 0.1834
vn -0.1780 -0.9839 0.0177
vn -0.1170 -0.9925 -0.0356
vn -0.0139 -0.9996 0.0234
vn -0.0541 -0.9944 0.0910
vn -0.1364 -0.9890 -0.0574
vn -0.2086 -0.9780 0.0003
vn 0.1345 -0.9900 -0.0423
vn 0.1284 -0.9917 0.0054
vn 0.1086 -0.9941 0.0025
vn 0.1218 -0.9912 -0.0524
vn 0.0284 -0.9985 -0.0477
vn 0.0563 -0.9939 -0.0947
vn -0.0541 -0.9941 -0.0942
vn -0.0121 -0.9912 -0.1320
vn -0.0661 -0.9917 -0.1103
vn -0.0272 -0.9900 -0.1384
vn 0.1121 -0.9840 0.1383
vn 0.1073 -0.9925 0.0586
vn 0.1364 -0.9890 0.0571
vn 0.1459 -0.9782 0.1480
vn -0.1662 -0.9840 0.0637
vn -0.1222 -0.9925 -0.0030
vn -0.0069 -0.9996 0.0259
vn -0.0270 -0.9946 0.1006
vn -0.1467 -0.9890 -0.0187
vn -0.2003 -0.9782 0.0552
vn 0.1176 -0.9902 -0.0756
vn 0.1248 -0.9918 -0.0288
vn 0.1050 -0.9941 -0.0261
vn 0.1026 -0.9913 -0.0818
vn 0.0141 -0.9985 -0.0528
vn 0.0281 -0.9941 -0.1048
vn -0.0779 -0.9941 -0.0752
vn -0.0479 -0.9913 -0.1222
vn -0.0937 -0.9918 -0.0874
vn -0.0641 -0.9902 -0.1243
vn -0.1239 -0.9867 0.1048
vn -0.1547 -0.9823 0.1056
vn -0.1265 -0.9917 0.0205
vn -0.1024 -0.9943 0.0286
vn 0.1238 -0.9868 0.1048
vn -0.0000 -0.9946 0.1042
vn -0.0000 -0.9997 0.0263
vn 0.1024 -0.9943 0.0286
vn 0.1265 -0.9917 0.0205
vn 0.1547 -0.9823 0.1056
vn -0.0810 -0.9913 -0.1036
vn -0.0670 -0.9921 -0.1057
vn -0.0814 -0.9953 -0.0528
vn -0.0976 -0.9934 -0.0597
vn -0.0000 -0.9941 -0.1085
vn -0.0000 -0.9985 -0.0550
vn 0.0670 -0.9921 -0.1057
vn 0.0814 -0.9953 -0.0528
vn 0.0810 -0.9913 -0.1036
vn 0.0976 -0.9934 -0.0597
vn -0.1122 -0.9840 0.1383
vn -0.1459 -0.9782 0.1480
vn -0.1364 -0.9890 0.0571
vn -0.1073 -0.9925 0.0586
vn 0.1663 -0.9840 0.0637
vn 0.0270 -0.9946 0.1006
vn 0.0069 -0.9996 0.0259
vn 0.1222 -0.9925 -0.0030
vn 0.1467 -0.9890 -0.0187
vn 0.2003 -0.9782 0.0552
vn -0.1176 -0.9902 -0.0756
vn -0.1026 -0.9913 -0.0818
vn -0.1050 -0.9941 -0.0261
vn -0.1248 -0.9918 -0.0288
vn -0.0281 -0.9941 -0.1048
vn -0.0141 -0.9985 -0.0528
vn 0.0479 -0.9913 -0.1222
vn 0.0779 -0.9941 -0.0752
vn 0.0641 -0.9902 -0.1243
vn 0.0937 -0.9918 -0.0873
vn -0.0696 -0.9839 0.1649
vn -0.0994 -0.9780 0.1834
vn -0.1156 -0.9890 0.0923
vn -0.0872 -0.9925 0.0858
vn 0.1780 -0.9839 0.0177
vn 0.0541 -0.9944 0.0910
vn 0.0139 -0.9996 0.0234
vn 0.1170 -0.9925 -0.0356
vn 0.1364 -0.9890 -0.0574
vn 0.2086 -0.9780 0.0003
vn -0.1345 -0.9900 -0.0423
vn -0.1218 -0.9912 -0.0524
vn -0.1086 -0.9941 0.0025
vn -0.1284 -0.9917 0.0054
vn -0.0563 -0.9939 -0.0947
vn -0.0284 -0.9985 -0.0477
vn 0.0121 -0.9912 -0.1320
vn 0.0541 -0.9941 -0.0942
vn 0.0272 -0.9900 -0.1384
vn 0.0661 -0.9917 -0.1103
vn -0.0225 -0.9836 0.1789
vn -0.0466 -0.9777 0.2046
vn -0.0873 -0.9890 0.1196
vn -0.0615 -0.9925 0.1059
vn 0.1783 -0.9836 -0.0274
vn 0.0776 -0.9941 0.0755
vn 0.0199 -0.9996 0.0193
vn 0.1042 -0.9925 -0.0643
vn 0.1172 -0.9890 -0.0905
vn 0.2033 -0.9777 -0.0521
vn -0.1426 -0.9898 -0.0076
vn -0.1329 -0.9909 -0.0207
vn -0.1051 -0.9940 0.0297
vn -0.1236 -0.9916 0.0376
vn -0.0808 -0.9936 -0.0786
vn -0.0408 -0.9984 -0.0397
vn -0.0243 -0.9909 -0.1323
vn 0.0269 -0.9940 -0.1059
vn -0.0114 -0.9898 -0.1424
vn 0.0343 -0.9916 -0.1246
vn 0.0216 -0.9833 0.1807
vn 0.0040 -0.9774 0.2113
vn -0.0571 -0.9890 0.1368
vn -0.0350 -0.9924 0.1176
vn 0.1697 -0.9833 -0.0658
vn 0.0953 -0.9938 0.0573
vn 0.0243 -0.9996 0.0146
vn 0.0874 -0.9924 -0.0861
vn 0.0940 -0.9890 -0.1146
vn 0.1885 -0.9774 -0.0957
vn -0.1430 -0.9894 0.0237
vn -0.1367 -0.9906 0.0086
vn -0.0968 -0.9939 0.0522
vn -0.1131 -0.9915 0.0641
vn -0.0992 -0.9933 -0.0596
vn -0.0501 -0.9983 -0.0301
vn -0.0565 -0.9906 -0.1248
vn 0.0006 -0.9939 -0.1100
vn -0.0462 -0.9894 -0.1374
vn 0.0035 -0.9915 -0.1300
vn 0.0648 -0.9830 0.1721
vn 0.0545 -0.9770 0.2059
vn -0.0241 -0.9889 0.1464
vn -0.0069 -0.9924 0.1227
vn 0.1535 -0.9830 -0.1011
vn 0.1088 -0.9934 0.0353
vn 0.0276 -0.9996 0.0090
vn 0.0666 -0.9924 -0.1033
vn 0.0666 -0.9889 -0.1326
vn 0.1651 -0.9770 -0.1346
vn -0.1370 -0.9891 0.0543
vn -0.1343 -0.9902 0.0381
vn -0.0842 -0.9938 0.0721
vn -0.0975 -0.9914 0.0874
vn -0.1132 -0.9929 -0.0368
vn -0.0573 -0.9982 -0.0186
vn -0.0862 -0.9902 -0.1098
vn -0.0258 -0.9938 -0.1078
vn -0.0789 -0.9891 -0.1245
vn -0.0275 -0.9914 -0.1280
vn 0.1022 -0.9827 0.1546
vn 0.0993 -0.9768 0.1899
vn 0.0081 -0.9889 0.1483
vn 0.0199 -0.9924 0.1214
vn 0.1309 -0.9827 -0.1311
vn 0.1161 -0.9932 0.0117
vn 0.0294 -0.9996 0.0030
vn 0.0437 -0.9924 -0.1150
vn 0.0375 -0.9889 -0.1437
vn 0.1352 -0.9768 -0.1663
vn -0.1247 -0.9888 0.0819
vn -0.1255 -0.9899 0.0655
vn -0.0682 -0.9938 0.0881
vn -0.0780 -0.9913 0.1059
vn -0.1209 -0.9926 -0.0122
vn -0.0613 -0.9981 -0.0062
vn -0.1100 -0.9899 -0.0892
vn -0.0493 -0.9938 -0.1000
vn -0.1059 -0.9888 -0.1051
vn -0.0554 -0.9913 -0.1194
vn 0.3028 0.5458 0.7813
vn 0.3865 0.5447 0.7443
vn -0.0000 -0.0000 1.0000
vn 0.0640 0.6545 0.7533
vn 0.1390 0.6238 0.7691
vn 0.5802 0.5501 0.6006
vn 0.7071 -0.0000 0.7071
vn 0.2220 0.5903 0.7760
vn 0.5527 0.8048 0.2161
vn 0.4901 0.8462 0.2091
vn 0.2261 0.9591 0.1703
vn 0.1171 0.9847 0.1293
vn 0.2702 0.9480 0.1685
vn 0.2478 0.9539 0.1694
vn 0.1482 0.9786 0.1427
vn 0.1601 0.9741 0.1598
vn 0.1610 0.9833 0.0852
vn 0.2936 0.9522 0.0847
vn 0.3396 0.8741 0.3473
vn 0.7498 0.6528 0.1082
vn 0.7489 0.6570 0.0861
vn 0.7351 0.6745 0.0684
vn 0.6094 0.7660 0.2047
vn 0.5815 0.7858 0.2107
vn 0.5167 0.8313 0.2050
vn 0.5432 0.8154 0.2003
vn 0.4067 0.8941 0.1873
vn 0.3832 0.9039 0.1898
vn 0.4329 0.8966 0.0937
vn 0.5733 0.8133 0.0996
vn 0.6397 0.7624 0.0981
vn 0.3599 0.9130 0.1920
vn 0.6491 0.7607 -0.0000
vn 0.5813 0.8137 -0.0000
vn 0.5733 0.8133 -0.0996
vn 0.6397 0.7624 -0.0981
vn 0.3004 0.9538 -0.0000
vn 0.1584 0.9874 -0.0000
vn 0.1609 0.9833 -0.0852
vn 0.2936 0.9522 -0.0847
vn 0.0426 0.9991 -0.0000
vn 0.3396 0.8741 -0.3473
vn 0.4402 0.8979 -0.0000
vn 0.4329 0.8965 -0.0936
vn 0.5528 0.8048 -0.2161
vn 0.4899 0.8463 -0.2091
vn 0.3028 0.5458 -0.7813
vn 0.3865 0.5446 -0.7443
vn 0.2261 0.9591 -0.1703
vn 0.1171 0.9847 -0.1293
vn 0.0640 0.6545 -0.7533
vn 0.1386 0.6239 -0.7691
vn 0.2702 0.9479 -0.1685
vn 0.1600 0.9741 -0.1597
vn 0.1482 0.9786 -0.1427
vn 0.2478 0.9539 -0.1694
vn 0.7498 0.6528 -0.1080
vn 0.7490 0.6570 -0.0860
vn 0.7351 0.6745 -0.0684
vn 0.5802 0.5501 -0.6006
vn 0.6096 0.7659 -0.2047
vn 0.5432 0.8154 -0.2003
vn 0.5167 0.8313 -0.2050
vn 0.5815 0.7858 -0.2107
vn 0.4067 0.8941 -0.1873
vn 0.3832 0.9039 -0.1898
vn 0.2220 0.5903 -0.7760
vn 0.3599 0.9130 -0.1920
vn 1.0000 -0.0000 -0.0000
vn 0.7071 -0.0000 -0.7071
vn -0.0000 -0.0000 -1.0000
vn 0.5774 0.5774 0.5774
vn 0.7071 0.7071 -0.0000
vn 0.5774 0.5774 -0.5774
vn 0.2117 0.9719 0.1025
vn 0.2136 0.9715 0.1026
vn 0.4297 0.8448 0.3190
vn 0.4714 0.8446 0.2540
vn 0.4775 0.8708 0.1166
vn 0.4893 0.8523 0.1850
vn 0.2192 0.9721 0.0835
vn 0.2348 0.9689 0.0775
vn 0.4062 0.9012 0.1511
vn 0.4082 0.8995 0.1559
vn 0.5614 0.7991 0.2151
vn 0.5498 0.8083 0.2105
vn 0.5482 0.8110 0.2044
vn 0.4080 0.9009 0.1482
vn 0.6604 0.7152 0.2288
vn 0.6422 0.7278 0.2407
vn 0.6370 0.7311 0.2444
vn 0.4156 0.9092 -0.0258
vn 0.2476 0.9672 0.0560
vn 0.4063 0.8992 0.1625
vn 0.5440 0.8135 0.2057
vn 0.5509 0.8075 0.2110
vn 0.4042 0.9008 0.1585
vn 0.6365 0.7325 0.2415
vn 0.6341 0.7376 0.2320
vn 0.8928 -0.0361 0.4490
vn 0.9220 -0.0251 0.3863
vn 0.9508 -0.0243 0.3088
vn 0.9351 -0.0230 0.3536
vn 0.9728 -0.0471 0.2269
vn 0.8941 -0.0047 0.4478
vn 0.8934 -0.0027 0.4492
vn 0.9194 -0.0009 0.3934
vn 0.9205 -0.0000 0.3908
vn 0.9335 -0.0000 0.3585
vn 0.9516 0.0036 0.3073
vn 0.9487 -0.0000 0.3161
vn 0.9775 0.0178 0.2101
vn 0.9763 0.0110 0.2159
vn 0.3972 0.8701 0.2918
vn 0.2375 0.9680 0.0812
vn 0.4560 0.8759 0.1578
vn 0.2404 0.9690 0.0568
vn 0.4824 0.8754 0.0305
vn 0.5115 0.8536 0.0985
vn 0.2295 0.9723 0.0444
vn 0.2440 0.9691 0.0368
vn 0.4258 0.9014 0.0789
vn 0.4283 0.8998 0.0829
vn 0.5896 0.7995 0.1144
vn 0.5776 0.8086 0.1121
vn 0.5843 0.8058 0.0966
vn 0.4273 0.9009 0.0761
vn 0.7413 0.6681 0.0645
vn 0.6838 0.7201 0.1175
vn 0.6693 0.7315 0.1300
vn 0.4508 0.8889 -0.0817
vn 0.2536 0.9672 0.0145
vn 0.4263 0.9002 0.0891
vn 0.5826 0.8024 0.1293
vn 0.5781 0.8082 0.1122
vn 0.4247 0.9013 0.0858
vn 0.6774 0.7211 0.1454
vn 0.7054 0.6787 0.2043
vn 0.9088 -0.0178 0.4168
vn 0.9615 -0.0102 0.2746
vn 0.9895 -0.0275 0.1421
vn 0.9819 -0.0066 0.1890
vn 0.9799 -0.1647 0.1128
vn 0.9801 0.0094 0.1981
vn 0.9808 0.0055 0.1950
vn 0.9814 0.0018 0.1922
vn 0.9816 -0.0000 0.1908
vn 0.9822 0.0037 0.1880
vn 0.9842 0.0190 0.1761
vn 0.9834 0.0124 0.1813
vn 0.4059 0.8701 -0.2795
vn 0.4606 0.8759 -0.1439
vn 0.2398 0.9680 -0.0739
vn 0.2420 0.9690 -0.0495
vn 0.4831 0.8754 -0.0158
vn 0.2450 0.9691 -0.0294
vn 0.2307 0.9723 -0.0374
vn 0.5143 0.8536 -0.0828
vn 0.4280 0.9014 -0.0659
vn 0.5808 0.8086 -0.0944
vn 0.5928 0.7995 -0.0964
vn 0.4306 0.8998 -0.0699
vn 0.5869 0.8058 -0.0787
vn 0.4294 0.9009 -0.0631
vn 0.7429 0.6681 -0.0419
vn 0.6871 0.7201 -0.0966
vn 0.6730 0.7315 -0.1095
vn 0.4481 0.8889 0.0955
vn 0.2540 0.9672 -0.0067
vn 0.4287 0.9002 -0.0761
vn 0.4272 0.9012 -0.0729
vn 0.5812 0.8082 -0.0945
vn 0.5862 0.8024 -0.1115
vn 0.6815 0.7211 -0.1247
vn 0.7113 0.6787 -0.1827
vn 0.9211 -0.0178 -0.3889
vn 0.9694 -0.0100 -0.2452
vn 0.9873 -0.0066 -0.1590
vn 0.9933 -0.0275 -0.1119
vn 0.9828 -0.1647 -0.0829
vn 0.9857 0.0094 -0.1681
vn 0.9868 0.0018 -0.1622
vn 0.9862 0.0057 -0.1652
vn 0.9870 -0.0000 -0.1608
vn 0.9874 0.0037 -0.1580
vn 0.9891 0.0190 -0.1460
vn 0.9884 0.0124 -0.1512
vn 0.2148 0.9719 -0.0960
vn 0.4392 0.8448 -0.3057
vn 0.2166 0.9715 -0.0961
vn 0.4789 0.8446 -0.2395
vn 0.4808 0.8708 -0.1020
vn 0.2371 0.9689 -0.0703
vn 0.2217 0.9721 -0.0768
vn 0.4947 0.8523 -0.1700
vn 0.4108 0.9011 -0.1387
vn 0.5560 0.8083 -0.1937
vn 0.5678 0.7991 -0.1979
vn 0.4127 0.8995 -0.1433
vn 0.5542 0.8110 -0.1876
vn 0.4122 0.9009 -0.1357
vn 0.6671 0.7152 -0.2085
vn 0.6493 0.7277 -0.2210
vn 0.6441 0.7311 -0.2248
vn 0.4146 0.9092 0.0384
vn 0.2492 0.9672 -0.0484
vn 0.4112 0.8991 -0.1501
vn 0.4087 0.9009 -0.1460
vn 0.5571 0.8075 -0.1941
vn 0.5500 0.8135 -0.1891
vn 0.6435 0.7326 -0.2217
vn 0.6409 0.7376 -0.2126
vn 0.9061 -0.0360 -0.4215
vn 0.9334 -0.0251 -0.3580
vn 0.9455 -0.0230 -0.3249
vn 0.9598 -0.0243 -0.2797
vn 0.9793 -0.0471 -0.1971
vn 0.9074 -0.0047 -0.4203
vn 0.9309 -0.0009 -0.3652
vn 0.9068 -0.0031 -0.4215
vn 0.9320 -0.0000 -0.3626
vn 0.9440 -0.0000 -0.3299
vn 0.9605 0.0036 -0.2781
vn 0.9579 -0.0000 -0.2870
vn 0.9835 0.0178 -0.1802
vn 0.9825 0.0110 -0.1861
vn -0.3972 0.8701 0.2918
vn -0.4560 0.8759 0.1578
vn -0.2375 0.9680 0.0812
vn -0.2404 0.9690 0.0568
vn -0.4824 0.8754 0.0305
vn -0.2440 0.9691 0.0368
vn -0.2295 0.9723 0.0444
vn -0.5116 0.8536 0.0984
vn -0.4258 0.9014 0.0789
vn -0.5725 0.8123 0.1111
vn -0.5836 0.8041 0.1133
vn -0.4283 0.8998 0.0830
vn -0.5668 0.8167 0.1083
vn -0.4273 0.9009 0.0761
vn -0.6636 0.7382 0.1214
vn -0.6582 0.7422 0.1261
vn -0.6567 0.7433 0.1276
vn -0.4508 0.8889 -0.0818
vn -0.2536 0.9672 0.0145
vn -0.4263 0.9002 0.0891
vn -0.4246 0.9013 0.0858
vn -0.5729 0.8121 0.1112
vn -0.5725 0.8112 0.1191
vn -0.6610 0.7380 0.1356
vn -0.6754 0.7189 0.1642
vn -0.9088 -0.0178 0.4168
vn -0.9615 -0.0100 0.2746
vn -0.9819 -0.0066 0.1890
vn -0.9895 -0.0275 0.1421
vn -0.9799 -0.1647 0.1128
vn -0.9509 0.0091 0.3094
vn -0.9722 0.0017 0.2343
vn -0.9518 0.0053 0.3067
vn -0.9734 -0.0000 0.2292
vn -0.9816 -0.0000 0.1908
vn -0.9909 -0.0373 0.1292
vn -0.9939 -0.0000 0.1106
vn -0.9782 -0.1853 0.0940
vn -0.9916 -0.1218 0.0426
vn -0.4059 0.8701 -0.2796
vn -0.2398 0.9680 -0.0739
vn -0.4606 0.8759 -0.1439
vn -0.2420 0.9690 -0.0495
vn -0.4831 0.8754 -0.0158
vn -0.5143 0.8536 -0.0828
vn -0.2307 0.9723 -0.0374
vn -0.2450 0.9691 -0.0294
vn -0.4212 0.9053 -0.0549
vn -0.4149 0.9074 -0.0675
vn -0.5599 0.8235 -0.0908
vn -0.5479 0.8341 -0.0636
vn -0.5587 0.8262 -0.0722
vn -0.4294 0.9009 -0.0631
vn -0.6687 0.7433 -0.0195
vn -0.6371 0.7689 -0.0538
vn -0.6308 0.7691 -0.1028
vn -0.4481 0.8889 0.0955
vn -0.2540 0.9672 -0.0067
vn -0.4288 0.9002 -0.0761
vn -0.5552 0.8246 -0.1083
vn -0.5404 0.8338 -0.1126
vn -0.4176 0.9050 -0.0816
vn -0.6213 0.7694 -0.1481
vn -0.6366 0.7499 -0.1801
vn -0.9211 -0.0178 -0.3889
vn -0.9694 -0.0102 -0.2452
vn -0.9933 -0.0275 -0.1119
vn -0.9873 -0.0066 -0.1590
vn -0.9829 -0.1647 -0.0829
vn -0.9857 0.0094 -0.1681
vn -0.9862 0.0057 -0.1652
vn -0.9868 0.0016 -0.1620
vn -0.9870 -0.0000 -0.1608
vn -0.9875 0.0038 -0.1579
vn -0.9891 0.0190 -0.1460
vn -0.9884 0.0124 -0.1512
vt 1.318028 1.000000
vt 1.286778 0.714286
vt 1.114903 0.714286
vt 1.177403 1.000000
vt 1.599277 1.000000
vt 1.630527 0.714286
vt 1.458652 0.714286
vt 1.458652 1.000000
vt 1.802402 0.714286
vt 1.739902 1.000000
vt 0.958654 -0.000000
vt 1.021154 0.285714
vt 1.239903 0.285714
vt 1.208653 -0.000000
vt 1.458652 0.285714
vt 1.458652 -0.000000
vt 1.677402 0.285714
vt 1.708652 -0.000000
vt 1.896152 0.285714
vt 1.958652 -0.000000
vt 0.359375 1.000000
vt 0.328125 0.714286
vt 0.156250 0.714286
vt 0.218750 1.000000
vt 0.640625 1.000000
vt 0.671875 0.714286
vt 0.500000 0.714286
vt 0.500000 1.000000
vt 0.843750 0.714286
vt 0.781250 1.000000
vt 0.000000 -0.000000
vt 0.062500 0.285714
vt 0.281250 0.285714
vt 0.250000 -0.000000
vt 0.500000 0.285714
vt 0.500000 -0.000000
vt 0.718750 0.285714
vt 0.750000 -0.000000
vt 0.937500 0.285714
vt 1.000000 -0.000000
vt 0.902009 1.000000
vt 0.870759 0.714286
vt 0.698884 0.714286
vt 0.761384 1.000000
vt 1.183258 1.000000
vt 1.214508 0.714286
vt 1.042634 0.714286
vt 1.042634 1.000000
vt 1.386383 0.714286
vt 1.323883 1.000000
vt 0.542634 -0.000000
vt 0.605134 0.285714
vt 0.823884 0.285714
vt 0.792634 -0.000000
vt 1.042634 0.285714
vt 1.042634 -0.000000
vt 1.261383 0.285714
vt 1.292633 -0.000000
vt 1.480133 0.285714
vt 1.542632 -0.000000
vt 0.027765 1.000000
vt -0.003485 0.714286
vt -0.175360 0.714286
vt -0.112860 1.000000
vt 0.309015 1.000000
vt 0.340266 0.714286
vt 0.168390 0.714286
vt 0.168390 1.000000
vt 0.512140 0.714286
vt 0.449641 1.000000
vt -0.331610 -0.000000
vt -0.269110 0.285714
vt -0.050360 0.285714
vt -0.081610 -0.000000
vt 0.168390 0.285714
vt 0.168390 -0.000000
vt 0.387141 0.285714
vt 0.418391 -0.000000
vt 0.605890 0.285714
vt 0.668390 -0.000000
vt 0.009678 1.000000
vt -0.021572 0.714286
vt -0.193447 0.714286
vt -0.130947 1.000000
vt 0.290928 1.000000
vt 0.322178 0.714286
vt 0.150302 0.714286
vt 0.150302 1.000000
vt 0.494052 0.714286
vt 0.431553 1.000000
vt -0.349697 -0.000000
vt -0.287197 0.285714
vt -0.068447 0.285714
vt -0.099697 -0.000000
vt 0.150302 0.285714
vt 0.150302 -0.000000
vt 0.369053 0.285714
vt 0.400303 -0.000000
vt 0.587802 0.285714
vt 0.650302 -0.000000
vt -0.363942 1.003963
vt -0.622279 1.003963
vt -0.605362 0.000000
vt -0.281250 0.000549
vt 0.617641 1.003963
vt 0.259808 1.003963
vt 0.361035 0.001635
vt 0.679246 0.002174
vt 1.000000 1.003963
vt 0.997243 0.002709
vt -0.069254 1.003963
vt 0.040877 0.001094
vt 1.270068 1.000000
vt 1.603815 1.000000
vt 1.603815 0.016745
vt 1.270068 0.016745
vt -1.731174 1.000000
vt -1.397426 1.000000
vt -1.397426 0.016745
vt -1.731174 0.016745
vt -2.064922 1.000000
vt -2.064922 0.016745
vt -1.063680 1.000000
vt -1.063680 0.016745
vt 0.243131 0.998964
vt 0.000000 0.998964
vt 0.010777 0.791954
vt 0.250952 0.791954
vt 0.922873 0.999998
vt -0.000000 0.526917
vt -0.000000 0.018858
vt 0.922873 0.404462
vt 0.929723 0.999998
vt 0.464862 0.744499
vt 0.464862 0.375618
vt 0.929723 0.583871
vt 1.000000 0.491261
vt 1.000000 1.000000
vt 0.000000 0.693526
vt 0.000000 0.251654
vt 1.000000 0.297069
vt 0.151178 -0.000000
vt 0.535254 0.137516
vt 1.000000 0.346878
vt 0.000000 0.488999
vt 0.000000 0.167368
vt 0.038850 -0.000002
vt -0.000000 -0.000002
vt 1.000000 0.094558
vt 0.743003 0.998964
vt 0.490757 0.998964
vt 0.494865 0.791954
vt 0.742605 0.791954
vt 0.999999 0.512619
vt -0.000001 0.341431
vt -0.000001 0.000001
vt 0.999999 0.141705
vt 1.000000 0.149381
vt 1.000000 0.522934
vt 0.000000 0.346139
vt 0.000000 0.000000
vt 0.994357 0.791954
vt 1.000000 0.998964
vt 1.000000 1.000000
vt 0.000000 0.800968
vt -0.000001 0.797390
vt 0.999999 1.000002
vt 0.000000 0.261349
vt 0.000000 0.000001
vt 0.500000 0.131110
vt 0.500000 0.419738
vt 1.000000 0.262221
vt 1.000000 0.578127
vt 0.500000 0.812538
vt 1.000000 1.000001
vt 0.000000 0.625074
vt 0.100000 0.999949
vt 0.100000 0.899302
vt 1.100000 0.899352
vt 1.100000 1.000000
vt 0.100000 0.651378
vt 0.100000 0.509675
vt 1.100000 0.509723
vt 1.100000 0.651427
vt 0.000000 0.651149
vt 0.000000 0.512613
vt 1.050000 0.510526
vt 1.050000 0.649091
vt 0.000000 0.499898
vt 1.000000 0.502086
vt 1.000000 0.642226
vt 0.000000 0.640042
vt 0.000000 0.355160
vt 1.000000 0.357365
vt 0.000000 0.367608
vt 1.050000 0.365475
vt 0.050000 0.652677
vt 0.050000 0.510957
vt 1.100000 0.511005
vt 1.100000 0.652726
vt 0.050000 0.362452
vt 1.100000 0.362500
vt 0.100000 0.361440
vt 1.100000 0.361489
vt 0.000000 1.000000
vt 0.000000 0.896630
vt 1.050000 0.894590
vt 1.050000 0.997950
vt 0.000000 0.780049
vt 1.050000 0.778007
vt 1.000000 0.773884
vt 0.000000 0.771694
vt 0.000000 0.891440
vt 1.000000 0.893647
vt 1.000000 1.000000
vt 0.000000 0.997768
vt 1.100000 0.782558
vt 0.100000 0.782508
vt 1.100000 0.783641
vt 0.050000 0.783592
vt 0.050000 0.999949
vt 0.050000 0.899947
vt 1.100000 0.899998
vt 0.758024 0.998618
vt 0.749402 0.811895
vt 0.985768 0.811895
vt 1.000000 0.998618
vt 0.535192 0.678850
vt 0.535192 0.274572
vt 1.000000 0.012806
vt 1.000000 0.357700
vt 0.131324 1.000000
vt 0.131324 0.517523
vt 1.000000 0.276065
vt 1.000000 0.703762
vt 0.000000 0.491261
vt 1.000000 0.251654
vt 1.000000 0.693526
vt 0.000000 1.000000
vt 0.000000 0.297069
vt 0.848823 -0.000000
vt 0.000000 0.242743
vt 0.868461 -0.000000
vt 0.070384 1.000003
vt 0.070384 0.536334
vt 0.000000 0.237049
vt 0.496346 0.064195
vt 1.000000 0.000003
vt 0.258199 0.998618
vt 0.263612 0.811895
vt 0.508723 0.811895
vt 0.510814 0.998618
vt 0.500000 0.422506
vt 0.500000 0.116794
vt 1.000000 -0.000000
vt 1.000000 0.281410
vt -0.000000 0.248728
vt -0.000000 0.578651
vt 0.013714 0.811895
vt 0.000000 0.998618
vt 0.500000 0.824213
vt -0.000000 1.000000
vt 1.000000 0.657218
vt 1.000000 0.321644
vt 0.000000 0.516575
vt 0.000000 0.161357
vt 1.000000 -0.000001
vt 1.000000 0.000000
vt 1.000000 0.332180
vt 0.000000 0.514469
vt 0.000000 0.150895
vt 1.000000 0.784251
vt 0.000000 1.000000
vt 1.000000 0.769285
vt 0.000000 0.999999
vt 0.729107 1.001994
vt 0.750000 -0.000000
vt 1.000000 -0.000000
vt 1.000000 1.001994
vt 0.212206 1.001994
vt 0.250000 -0.000000
vt 0.500000 -0.000000
vt 0.462144 1.001994
vt 0.000000 1.001994
vt 0.000000 -0.000000
vt 0.271659 1.001600
vt 0.000000 1.001600
vt 0.003221 -0.000000
vt 0.252447 0.000381
vt 0.788339 1.001600
vt 0.538747 1.001600
vt 0.501093 0.000761
vt 0.749162 0.001141
vt 1.000000 1.001600
vt 0.996655 0.001519
vt 0.489375 1.000000
vt -0.000000 1.000000
vt -0.000000 0.016745
vt 0.489375 0.016745
vt 1.468125 1.000000
vt 0.978750 1.000000
vt 0.978750 0.016745
vt 1.468125 0.016745
vt 1.957500 1.000000
vt 1.957500 0.016745
vt 1.479483 1.000000
vt 1.479483 0.016745
vt 1.972497 0.016745
vt 1.972497 1.000000
vt 0.493456 1.000000
vt 0.493456 0.016745
vt 0.986470 0.016745
vt 0.986470 1.000000
vt 0.000000 1.000000
vt 0.000000 0.016745
vt 0.300000 0.999672
vt 0.300000 0.000000
vt 0.640011 0.000000
vt 0.545714 0.999672
vt 0.386178 1.002185
vt 0.326997 0.000196
vt 0.646443 0.000130
vt 0.743716 1.002185
vt 0.000000 1.002185
vt 0.004959 0.000261
vt 0.965074 0.000065
vt 1.069101 1.002185
vt 0.965074 0.000065
vt 1.282895 -0.000000
vt 1.357614 1.002185
vt 1.257805 1.000000
vt 1.257805 0.016745
vt 1.705466 0.016745
vt 1.705466 1.000000
vt -0.085176 1.000000
vt -0.085176 0.016745
vt 0.362485 0.016745
vt 0.362485 1.000000
vt -0.500000 1.000000
vt -0.500000 0.016745
vt 0.810144 0.016745
vt 0.810144 1.000000
vt 0.000000 0.000000
vt 1.000000 0.002262
vt 0.000000 0.002270
vt 1.050000 0.000000
vt 0.050000 0.000000
vt 1.100000 0.000048
vt 0.100000 0.361440
vt 0.100000 0.000000
vt 1.100000 0.000046
vt 1.100000 0.361489
vt -0.000000 1.002814
vt -0.000000 -0.000000
vt 1.000000 -0.000000
vt 1.000000 1.002814
vt -0.000000 1.003383
vt -0.000000 -0.000000
vt 1.000000 1.003383
vt 0.000000 1.003476
vt 0.000000 -0.000000
vt 1.000000 1.003476
vt 0.000000 1.001170
vt 0.000000 -0.000000
vt 1.000000 -0.000000
vt 1.000000 1.001170
vt -0.000000 1.000000
vt -0.000000 0.016745
vt 1.944466 0.016745
vt 1.944466 1.000000
vt -0.000000 1.000000
vt -0.000000 0.016745
vt 1.000000 0.016745
vt 1.000000 1.000000
vt 0.000000 1.000000
vt 0.000000 0.016745
vt 1.000000 0.016745
vt 0.000000 1.000000
vt 0.000000 0.016745
vt 1.939130 0.016745
vt 1.939130 1.000000
vt 0.013170 0.000000
vt 1.000000 0.000000
vt 1.000000 1.001521
vt 0.000000 1.001521
vt 0.000000 0.016745
vt 1.918099 0.016745
vt 1.918099 1.000000
vt 0.000000 1.000000
vt 1.000000 -0.000000
vt 0.000000 -0.000000
vt 0.000000 1.001478
vt 1.000000 1.001478
vt 1.901778 0.016745
vt 0.000000 0.016745
vt 1.901778 1.000000
vt 0.000000 1.000001
vt 1.000000 0.000001
vt 1.075518 0.000000
vt 1.075518 1.000000
vt 0.009905 1.000000
vt 1.075518 0.997859
vt 1.075518 0.000000
vt 0.000000 0.001150
vt 0.000000 0.000000
vt 1.000000 1.000000
vt 1.000000 0.000000
vt 0.000000 0.000000
vt -0.000000 1.000000
vt 1.075518 0.000000
vt 0.000000 0.999761
vt 1.000000 0.009326
vt 0.014528 0.000000
vt 0.000000 0.953930
vt 1.000000 0.015805
vt 1.075518 1.000000
vt -0.000000 1.000000
vt 1.066091 1.000000
vt 1.066091 0.010471
vt 0.000000 -0.000000
vt -0.000000 0.987810
vt 1.066091 0.000000
vt 0.000000 0.000000
vt 1.066091 0.000000
vt 0.013720 0.033372
vt 0.000000 1.000000
vt 0.000000 0.021296
vt 1.000000 0.011465
vt 0.022848 1.002713
vt 0.969315 1.007724
vt 0.062932 0.000000
vt 1.142645 0.000000
vt 1.142645 1.000000
vt 0.062932 1.000000
vt 1.138451 1.000000
vt 0.142645 1.000000
vt 1.138451 0.000000
vt 0.142645 0.000000
vt 1.146841 0.000000
vt 1.146841 1.000000
vt 0.067127 0.000000
vt 1.142645 0.000000
vt 1.142645 1.000000
vt 0.067127 1.000000
vt 1.067127 0.000000
vt 1.067127 1.000000
vt 0.000000 0.000000
vt -0.000000 1.000000
vt 1.000000 0.000000
vt 1.000000 1.000000
vt 1.067700 0.000000
vt 1.067699 1.000000
vt 1.067700 0.000000
vt 1.067699 1.000000
vt -0.000000 1.000000
vt 0.000000 0.000000
vt 1.000000 0.000000
vt -0.000000 0.000000
vt -0.000000 1.000000
vt 1.000000 0.000000
vt 1.000000 1.000000
vt 1.067700 0.000000
vt 1.067699 1.000000
vt -0.000000 1.000000
vt -0.000000 0.000000
vt -0.000000 1.000000
vt 1.000000 1.000000
vt 0.000000 0.000000
vt 1.000000 0.000000
vt -0.000000 0.000000
vt -0.000000 1.000000
vt 1.000000 0.000000
vt -0.000000 1.000000
vt 0.000000 0.000000
vt -0.000000 0.989018
vt 0.878387 0.989018
vt 0.878387 0.000000
vt 1.063186 0.000000
vt 1.063186 1.000000
vt 0.000000 1.000000
vt 1.063186 0.000000
vt 1.063186 1.000000
vt -0.000000 0.000000
vt 1.000000 0.000000
vt -0.000000 1.000000
vt 1.000000 0.000000
vt 0.000000 -0.063475
vt 0.000000 0.932873
vt 1.000000 -0.063475
vt 1.000000 0.932873
vt 1.074170 0.000000
vt -0.001956 0.000000
vt -0.001956 1.000000
vt 1.074169 1.000000
vt 1.138451 -0.062341
vt 0.142645 -0.062341
vt 1.138451 0.925351
vt 0.142645 0.925351
vt -0.002713 0.931251
vt 1.065645 0.931251
vt 1.065645 -0.063065
vt -0.002713 -0.063065
vt 1.067699 0.000000
vt -0.008736 0.914247
vt 1.067700 0.914247
vt 1.067700 -0.068476
vt -0.008736 -0.068476
vt -0.005588 0.914247
vt 0.990973 0.914247
vt -0.005588 -0.071475
vt 0.990973 -0.071475
s 1
usemtl Material.003
f 10/1/1 17/2/2 16/3/3 4/4/4
f 8/5/5 19/6/6 18/7/7 6/8/8
f 20/9/9 19/6/6 8/5/5 2/10/10
f 6/8/8 18/7/7 17/2/2 10/1/1
f 3/11/11 11/12/12 12/13/13 9/14/14
f 9/14/14 12/13/13 13/15/15 5/16/16
f 5/16/16 13/15/15 14/17/17 7/18/18
f 7/18/18 14/17/17 15/19/19 1/20/20
f 17/2/2 12/13/13 11/12/12 16/3/3
f 18/7/7 13/15/15 12/13/13 17/2/2
f 19/6/6 14/17/17 13/15/15 18/7/7
f 15/19/19 14/17/17 19/6/6 20/9/9
f 30/21/21 37/22/22 36/23/23 24/24/24
f 28/25/25 39/26/26 38/27/27 26/28/28
f 40/29/29 39/26/26 28/25/25 22/30/30
f 26/28/28 38/27/27 37/22/22 30/21/21
f 23/31/31 31/32/32 32/33/33 29/34/34
f 29/34/34 32/33/33 33/35/35 25/36/36
f 25/36/36 33/35/35 34/37/37 27/38/38
f 27/38/38 34/37/37 35/39/39 21/40/40
f 37/22/22 32/33/33 31/32/32 36/23/23
f 38/27/27 33/35/35 32/33/33 37/22/22
f 39/26/26 34/37/37 33/35/35 38/27/27
f 35/39/39 34/37/37 39/26/26 40/29/29
f 50/41/41 57/42/42 56/43/43 44/44/44
f 48/45/45 59/46/46 58/47/47 46/48/48
f 60/49/49 59/46/46 48/45/45 42/50/50
f 46/48/48 58/47/47 57/42/42 50/41/41
f 43/51/51 51/52/52 52/53/53 49/54/54
f 49/54/54 52/53/53 53/55/55 45/56/56
f 45/56/56 53/55/55 54/57/57 47/58/58
f 47/58/58 54/57/57 55/59/59 41/60/60
f 57/42/42 52/53/53 51/52/52 56/43/43
f 58/47/47 53/55/55 52/53/53 57/42/42
f 59/46/46 54/57/57 53/55/55 58/47/47
f 55/59/59 54/57/57 59/46/46 60/49/49
f 70/21/61 77/22/62 76/23/63 64/24/64
f 68/25/65 79/26/66 78/27/67 66/28/68
f 80/29/69 79/26/66 68/25/65 62/30/70
f 66/28/68 78/27/67 77/22/62 70/21/61
f 63/31/71 71/32/72 72/33/73 69/34/74
f 69/34/74 72/33/73 73/35/75 65/36/76
f 65/36/76 73/35/75 74/37/77 67/38/78
f 67/38/78 74/37/77 75/39/79 61/40/80
f 77/22/62 72/33/73 71/32/72 76/23/63
f 78/27/67 73/35/75 72/33/73 77/22/62
f 79/26/66 74/37/77 73/35/75 78/27/67
f 75/39/79 74/37/77 79/26/66 80/29/69
f 90/61/81 97/62/82 96/63/83 84/64/84
f 88/65/85 99/66/86 98/67/87 86/68/88
f 100/69/89 99/66/86 88/65/85 82/70/90
f 86/68/88 98/67/87 97/62/82 90/61/81
f 83/71/91 91/72/92 92/73/93 89/74/94
f 89/74/94 92/73/93 93/75/95 85/76/96
f 85/76/96 93/75/95 94/77/97 87/78/98
f 87/78/98 94/77/97 95/79/99 81/80/100
f 97/62/82 92/73/93 91/72/92 96/63/83
f 98/67/87 93/75/95 92/73/93 97/62/82
f 99/66/86 94/77/97 93/75/95 98/67/87
f 95/79/99 94/77/97 99/66/86 100/69/89
f 110/21/101 117/22/102 116/23/103 104/24/104
f 108/25/105 119/26/106 118/27/107 106/28/108
f 120/29/109 119/26/106 108/25/105 102/30/110
f 106/28/108 118/27/107 117/22/102 110/21/101
f 103/31/111 111/32/112 112/33/113 109/34/114
f 109/34/114 112/33/113 113/35/115 105/36/116
f 105/36/116 113/35/115 114/37/117 107/38/118
f 107/38/118 114/37/117 115/39/119 101/40/120
f 117/22/102 112/33/113 111/32/112 116/23/103
f 118/27/107 113/35/115 112/33/113 117/22/102
f 119/26/106 114/37/117 113/35/115 118/27/107
f 115/39/119 114/37/117 119/26/106 120/29/109
f 130/81/121 137/82/122 136/83/123 124/84/124
f 128/85/125 139/86/126 138/87/127 126/88/128
f 140/89/129 139/86/126 128/85/125 122/90/130
f 126/88/128 138/87/127 137/82/122 130/81/121
f 123/91/131 131/92/132 132/93/133 129/94/134
f 129/94/134 132/93/133 133/95/135 125/96/136
f 125/96/136 133/95/135 134/97/137 127/98/138
f 127/98/138 134/97/137 135/99/139 121/100/140
f 137/82/122 132/93/133 131/92/132 136/83/123
f 138/87/127 133/95/135 132/93/133 137/82/122
f 139/86/126 134/97/137 133/95/135 138/87/127
f 135/99/139 134/97/137 139/86/126 140/89/129
f 150/21/141 144/24/142 156/23/143 157/22/144
f 148/25/145 146/28/146 158/27/147 159/26/148
f 160/29/149 142/30/150 148/25/145 159/26/148
f 146/28/146 150/21/141 157/22/144 158/27/147
f 143/31/151 149/34/152 152/33/153 151/32/154
f 149/34/152 145/36/155 153/35/156 152/33/153
f 145/36/155 147/38/157 154/37/158 153/35/156
f 147/38/157 141/40/159 155/39/160 154/37/158
f 157/22/144 156/23/143 151/32/154 152/33/153
f 158/27/147 157/22/144 152/33/153 153/35/156
f 159/26/148 158/27/147 153/35/156 154/37/158
f 155/39/160 160/29/149 159/26/148 154/37/158
f 170/61/161 164/64/162 176/63/163 177/62/164
f 168/65/165 166/68/166 178/67/167 179/66/168
f 180/69/169 162/70/170 168/65/165 179/66/168
f 166/68/166 170/61/161 177/62/164 178/67/167
f 163/71/171 169/74/172 172/73/173 171/72/174
f 169/74/172 165/76/175 173/75/176 172/73/173
f 165/76/175 167/78/177 174/77/178 173/75/176
f 167/78/177 161/80/179 175/79/180 174/77/178
f 177/62/164 176/63/163 171/72/174 172/73/173
f 178/67/167 177/62/164 172/73/173 173/75/176
f 179/66/168 178/67/167 173/75/176 174/77/178
f 175/79/180 180/69/169 179/66/168 174/77/178
f 190/21/181 184/24/182 196/23/183 197/22/184
f 188/25/185 186/28/186 198/27/187 199/26/188
f 200/29/189 182/30/190 188/25/185 199/26/188
f 186/28/186 190/21/181 197/22/184 198/27/187
f 183/31/191 189/34/192 192/33/193 191/32/194
f 189/34/192 185/36/195 193/35/196 192/33/193
f 185/36/195 187/38/197 194/37/198 193/35/196
f 187/38/197 181/40/199 195/39/200 194/37/198
f 197/22/184 196/23/183 191/32/194 192/33/193
f 198/27/187 197/22/184 192/33/193 193/35/196
f 199/26/188 198/27/187 193/35/196 194/37/198
f 195/39/200 200/29/189 199/26/188 194/37/198
f 210/41/201 204/44/202 216/43/203 217/42/204
f 208/45/205 206/48/206 218/47/207 219/46/208
f 220/49/209 202/50/210 208/45/205 219/46/208
f 206/48/206 210/41/201 217/42/204 218/47/207
f 203/51/211 209/54/212 212/53/213 211/52/214
f 209/54/212 205/56/215 213/55/216 212/53/213
f 205/56/215 207/58/217 214/57/218 213/55/216
f 207/58/217 201/60/219 215/59/220 214/57/218
f 217/42/204 216/43/203 211/52/214 212/53/213
f 218/47/207 217/42/204 212/53/213 213/55/216
f 219/46/208 218/47/207 213/55/216 214/57/218
f 215/59/220 220/49/209 219/46/208 214/57/218
f 230/21/221 224/24/222 236/23/223 237/22/224
f 228/25/225 226/28/226 238/27/227 239/26/228
f 240/29/229 222/30/230 228/25/225 239/26/228
f 226/28/226 230/21/221 237/22/224 238/27/227
f 223/31/231 229/34/232 232/33/233 231/32/234
f 229/34/232 225/36/235 233/35/236 232/33/233
f 225/36/235 227/38/237 234/37/238 233/35/236
f 227/38/237 221/40/239 235/39/240 234/37/238
f 237/22/224 236/23/223 231/32/234 232/33/233
f 238/27/227 237/22/224 232/33/233 233/35/236
f 239/26/228 238/27/227 233/35/236 234/37/238
f 235/39/240 240/29/229 239/26/228 234/37/238
f 250/1/241 244/4/242 256/3/243 257/2/244
f 248/5/245 246/8/246 258/7/247 259/6/248
f 260/9/249 242/10/250 248/5/245 259/6/248
f 246/8/246 250/1/241 257/2/244 258/7/247
f 243/11/251 249/14/252 252/13/253 251/12/254
f 249/14/252 245/16/255 253/15/256 252/13/253
f 245/16/255 247/18/257 254/17/258 253/15/256
f 247/18/257 241/20/259 255/19/260 254/17/258
f 257/2/244 256/3/243 251/12/254 252/13/253
f 258/7/247 257/2/244 252/13/253 253/15/256
f 259/6/248 258/7/247 253/15/256 254/17/258
f 255/19/260 260/9/249 259/6/248 254/17/258
f 270/1/261 277/2/262 276/3/263 264/4/264
f 268/5/265 279/6/266 278/7/267 266/8/268
f 280/9/269 279/6/266 268/5/265 262/10/270
f 266/8/268 278/7/267 277/2/262 270/1/261
f 263/11/271 271/12/272 272/13/273 269/14/274
f 269/14/274 272/13/273 273/15/275 265/16/276
f 265/16/276 273/15/275 274/17/277 267/18/278
f 267/18/278 274/17/277 275/19/279 261/20/280
f 277/2/262 272/13/273 271/12/272 276/3/263
f 278/7/267 273/15/275 272/13/273 277/2/262
f 279/6/266 274/17/277 273/15/275 278/7/267
f 275/19/279 274/17/277 279/6/266 280/9/269
f 290/21/281 297/22/282 296/23/283 284/24/284
f 288/25/285 299/26/286 298/27/287 286/28/288
f 300/29/289 299/26/286 288/25/285 282/30/290
f 286/28/288 298/27/287 297/22/282 290/21/281
f 283/31/291 291/32/292 292/33/293 289/34/294
f 289/34/294 292/33/293 293/35/295 285/36/296
f 285/36/296 293/35/295 294/37/297 287/38/298
f 287/38/298 294/37/297 295/39/299 281/40/300
f 297/22/282 292/33/293 291/32/292 296/23/283
f 298/27/287 293/35/295 292/33/293 297/22/282
f 299/26/286 294/37/297 293/35/295 298/27/287
f 295/39/299 294/37/297 299/26/286 300/29/289
f 310/41/301 317/42/302 316/43/303 304/44/304
f 308/45/305 319/46/306 318/47/307 306/48/308
f 320/49/309 319/46/306 308/45/305 302/50/310
f 306/48/308 318/47/307 317/42/302 310/41/301
f 303/51/311 311/52/312 312/53/313 309/54/314
f 309/54/314 312/53/313 313/55/315 305/56/316
f 305/56/316 313/55/315 314/57/317 307/58/318
f 307/58/318 314/57/317 315/59/319 301/60/320
f 317/42/302 312/53/313 311/52/312 316/43/303
f 318/47/307 313/55/315 312/53/313 317/42/302
f 319/46/306 314/57/317 313/55/315 318/47/307
f 315/59/319 314/57/317 319/46/306 320/49/309
f 330/21/321 337/22/322 336/23/323 324/24/324
f 328/25/325 339/26/326 338/27/327 326/28/328
f 340/29/329 339/26/326 328/25/325 322/30/330
f 326/28/328 338/27/327 337/22/322 330/21/321
f 323/31/331 331/32/332 332/33/333 329/34/334
f 329/34/334 332/33/333 333/35/335 325/36/336
f 325/36/336 333/35/335 334/37/337 327/38/338
f 327/38/338 334/37/337 335/39/339 321/40/340
f 337/22/322 332/33/333 331/32/332 336/23/323
f 338/27/327 333/35/335 332/33/333 337/22/322
f 339/26/326 334/37/337 333/35/335 338/27/327
f 335/39/339 334/37/337 339/26/326 340/29/329
f 350/61/341 357/62/342 356/63/343 344/64/344
f 348/65/345 359/66/346 358/67/347 346/68/348
f 360/69/349 359/66/346 348/65/345 342/70/350
f 346/68/348 358/67/347 357/62/342 350/61/341
f 343/71/351 351/72/352 352/73/353 349/74/354
f 349/74/354 352/73/353 353/75/355 345/76/356
f 345/76/356 353/75/355 354/77/357 347/78/358
f 347/78/358 354/77/357 355/79/359 341/80/360
f 357/62/342 352/73/353 351/72/352 356/63/343
f 358/67/347 353/75/355 352/73/353 357/62/342
f 359/66/346 354/77/357 353/75/355 358/67/347
f 355/79/359 354/77/357 359/66/346 360/69/349
f 370/21/361 377/22/362 376/23/363 364/24/364
f 368/25/365 379/26/366 378/27/367 366/28/368
f 380/29/369 379/26/366 368/25/365 362/30/370
f 366/28/368 378/27/367 377/22/362 370/21/361
f 363/31/371 371/32/372 372/33/373 369/34/374
f 369/34/374 372/33/373 373/35/375 365/36/376
f 365/36/376 373/35/375 374/37/377 367/38/378
f 367/38/378 374/37/377 375/39/379 361/40/380
f 377/22/362 372/33/373 371/32/372 376/23/363
f 378/27/367 373/35/375 372/33/373 377/22/362
f 379/26/366 374/37/377 373/35/375 378/27/367
f 375/39/379 374/37/377 379/26/366 380/29/369
f 390/81/381 384/84/382 396/83/383 397/82/384
f 388/85/385 386/88/386 398/87/387 399/86/388
f 400/89/389 382/90/390 388/85/385 399/86/388
f 386/88/386 390/81/381 397/82/384 398/87/387
f 383/91/391 389/94/392 392/93/393 391/92/394
f 389/94/392 385/96/395 393/95/396 392/93/393
f 385/96/395 387/98/397 394/97/398 393/95/396
f 387/98/397 381/100/399 395/99/400 394/97/398
f 397/82/384 396/83/383 391/92/394 392/93/393
f 398/87/387 397/82/384 392/93/393 393/95/396
f 399/86/388 398/87/387 393/95/396 394/97/398
f 395/99/400 400/89/389 399/86/388 394/97/398
f 410/21/401 404/24/402 416/23/403 417/22/404
f 408/25/405 406/28/406 418/27/407 419/26/408
f 420/29/409 402/30/410 408/25/405 419/26/408
f 406/28/406 410/21/401 417/22/404 418/27/407
f 403/31/411 409/34/412 412/33/413 411/32/414
f 409/34/412 405/36/415 413/35/416 412/33/413
f 405/36/415 407/38/417 414/37/418 413/35/416
f 407/38/417 401/40/419 415/39/420 414/37/418
f 417/22/404 416/23/403 411/32/414 412/33/413
f 418/27/407 417/22/404 412/33/413 413/35/416
f 419/26/408 418/27/407 413/35/416 414/37/418
f 415/39/420 420/29/409 419/26/408 414/37/418
f 430/61/421 424/64/422 436/63/423 437/62/424
f 428/65/425 426/68/426 438/67/427 439/66/428
f 440/69/429 422/70/430 428/65/425 439/66/428
f 426/68/426 430/61/421 437/62/424 438/67/427
f 423/71/431 429/74/432 432/73/433 431/72/434
f 429/74/432 425/76/435 433/75/436 432/73/433
f 425/76/435 427/78/437 434/77/438 433/75/436
f 427/78/437 421/80/439 435/79/440 434/77/438
f 437/62/424 436/63/423 431/72/434 432/73/433
f 438/67/427 437/62/424 432/73/433 433/75/436
f 439/66/428 438/67/427 433/75/436 434/77/438
f 435/79/440 440/69/429 439/66/428 434/77/438
f 450/21/441 444/24/442 456/23/443 457/22/444
f 448/25/445 446/28/446 458/27/447 459/26/448
f 460/29/449 442/30/450 448/25/445 459/26/448
f 446/28/446 450/21/441 457/22/444 458/27/447
f 443/31/451 449/34/452 452/33/453 451/32/454
f 449/34/452 445/36/455 453/35/456 452/33/453
f 445/36/455 447/38/457 454/37/458 453/35/456
f 447/38/457 441/40/459 455/39/460 454/37/458
f 457/22/444 456/23/443 451/32/454 452/33/453
f 458/27/447 457/22/444 452/33/453 453/35/456
f 459/26/448 458/27/447 453/35/456 454/37/458
f 455/39/460 460/29/449 459/26/448 454/37/458
f 470/41/461 464/44/462 476/43/463 477/42/464
f 468/45/465 466/48/466 478/47/467 479/46/468
f 480/49/469 462/50/470 468/45/465 479/46/468
f 466/48/466 470/41/461 477/42/464 478/47/467
f 463/51/471 469/54/472 472/53/473 471/52/474
f 469/54/472 465/56/475 473/55/476 472/53/473
f 465/56/475 467/58/477 474/57/478 473/55/476
f 467/58/477 461/60/479 475/59/480 474/57/478
f 477/42/464 476/43/463 471/52/474 472/53/473
f 478/47/467 477/42/464 472/53/473 473/55/476
f 479/46/468 478/47/467 473/55/476 474/57/478
f 475/59/480 480/49/469 479/46/468 474/57/478
f 490/21/481 484/24/482 496/23/483 497/22/484
f 488/25/485 486/28/486 498/27/487 499/26/488
f 500/29/489 482/30/490 488/25/485 499/26/488
f 486/28/486 490/21/481 497/22/484 498/27/487
f 483/31/491 489/34/492 492/33/493 491/32/494
f 489/34/492 485/36/495 493/35/496 492/33/493
f 485/36/495 487/38/497 494/37/498 493/35/496
f 487/38/497 481/40/499 495/39/500 494/37/498
f 497/22/484 496/23/483 491/32/494 492/33/493
f 498/27/487 497/22/484 492/33/493 493/35/496
f 499/26/488 498/27/487 493/35/496 494/37/498
f 495/39/500 500/29/489 499/26/488 494/37/498
f 510/1/501 504/4/502 516/3/503 517/2/504
f 508/5/505 506/8/506 518/7/507 519/6/508
f 520/9/509 502/10/510 508/5/505 519/6/508
f 506/8/506 510/1/501 517/2/504 518/7/507
f 503/11/511 509/14/512 512/13/513 511/12/514
f 509/14/512 505/16/515 513/15/516 512/13/513
f 505/16/515 507/18/517 514/17/518 513/15/516
f 507/18/517 501/20/519 515/19/520 514/17/518
f 517/2/504 516/3/503 511/12/514 512/13/513
f 518/7/507 517/2/504 512/13/513 513/15/516
f 519/6/508 518/7/507 513/15/516 514/17/518
f 515/19/520 520/9/509 519/6/508 514/17/518
f 531/101/521 522/102/522 523/103/523 532/104/523
f 527/105/524 525/106/525 526/107/523 528/108/523
f 521/109/526 527/105/524 528/108/523 524/110/527
f 525/106/525 529/111/528 530/112/523 526/107/523
f 529/111/528 531/101/521 532/104/523 530/112/523
f 532/113/523 523/114/523 533/115/523 538/116/523
f 528/117/523 526/118/523 535/119/523 536/120/523
f 524/121/527 528/117/523 536/120/523 534/122/527
f 526/118/523 530/123/523 537/124/523 535/119/523
f 530/123/523 532/113/523 538/116/523 537/124/523
f 561/125/529 522/126/522 531/127/521 562/128/530
f 549/129/531 525/130/525 527/131/524 551/132/532
f 544/133/533 542/134/534 548/135/535 547/136/536
f 546/137/537 541/138/538 544/139/533 547/140/536
f 539/141/539 546/137/537 547/140/536 545/142/540
f 548/135/535 543/143/541 545/144/540 547/136/536
f 542/134/534 549/145/531 551/146/532 548/135/535
f 551/146/532 550/147/542 543/143/541 548/135/535
f 527/131/524 521/148/526 550/149/542 551/132/532
f 556/150/543 552/151/544 559/152/545 558/153/546
f 555/154/547 554/155/548 542/156/534 544/157/533
f 541/158/538 553/159/549 555/160/547 544/161/533
f 557/162/550 540/163/551 556/150/543 558/153/546
f 553/159/549 557/164/550 558/165/546 555/160/547
f 559/166/545 554/155/548 555/154/547 558/167/546
f 529/168/528 525/169/525 549/170/531 560/171/552
f 549/170/531 542/172/534 554/173/548 560/171/552
f 552/151/544 561/125/529 562/128/530 559/152/545
f 562/174/530 560/171/552 554/173/548 559/175/545
f 531/176/521 529/168/528 560/171/552 562/174/530
f 584/177/553 585/178/554 586/179/555 563/180/556
f 572/181/557 574/182/558 575/183/559 565/184/560
f 568/185/557 570/186/558 571/187/558 566/188/557
f 546/189/537 570/190/558 568/191/557 541/192/538
f 539/193/539 569/194/561 570/190/558 546/189/537
f 571/187/558 570/186/558 569/195/561 567/196/561
f 566/197/557 571/198/558 574/199/558 572/200/557
f 574/199/558 571/198/558 567/201/561 573/202/561
f 575/183/559 574/182/558 573/203/561 564/204/562
f 579/205/553 580/206/554 581/207/554 576/208/553
f 578/209/563 568/185/557 566/188/557 577/210/563
f 541/192/538 568/191/557 578/211/563 553/212/549
f 557/213/550 580/214/554 579/215/553 540/216/551
f 553/212/549 578/211/563 580/214/554 557/213/550
f 581/207/554 580/206/554 578/209/563 577/210/563
f 582/217/564 583/218/563 572/181/557 565/184/560
f 572/200/557 583/219/563 577/220/563 566/197/557
f 576/221/553 581/222/554 585/223/554 584/180/553
f 585/223/554 581/222/554 577/220/563 583/219/563
f 586/179/555 585/178/554 583/218/563 582/217/564
f 608/224/565 609/225/566 610/226/567 587/227/568
f 596/228/569 598/229/570 599/230/571 589/231/572
f 592/232/573 594/233/574 595/234/575 590/235/576
f 575/236/559 594/237/574 592/238/573 565/239/560
f 564/240/562 593/241/577 594/237/574 575/236/559
f 595/234/575 594/233/574 593/242/577 591/243/578
f 590/244/576 595/245/575 598/229/570 596/228/569
f 598/229/570 595/245/575 591/246/578 597/247/579
f 599/230/571 598/229/570 597/247/579 588/248/580
f 603/249/581 604/250/582 605/251/583 600/252/584
f 602/253/585 592/254/573 590/255/576 601/256/586
f 565/257/560 592/254/573 602/253/585 582/258/564
f 586/259/555 604/250/582 603/249/581 563/260/556
f 582/258/564 602/253/585 604/261/582 586/262/555
f 605/263/583 604/261/582 602/253/585 601/256/586
f 606/264/587 607/265/588 596/266/569 589/267/572
f 596/268/569 607/269/588 601/270/586 590/271/576
f 600/252/584 605/251/583 609/225/566 608/224/565
f 609/272/566 605/273/583 601/270/586 607/269/588
f 610/274/567 609/275/566 607/265/588 606/264/587
f 597/276/579 615/277/589 611/278/590 588/279/580
f 593/280/577 614/281/589 613/282/589 591/283/578
f 564/284/562 612/285/590 614/281/589 593/280/577
f 591/283/578 613/282/589 615/277/589 597/276/579
f 550/286/542 521/287/526 524/288/527 619/289/589
f 545/290/540 543/291/541 617/292/589 618/293/589
f 539/294/539 545/290/540 618/293/589 616/295/527
f 543/291/541 550/286/542 619/289/589 617/292/589
f 619/296/589 524/297/527 534/298/527 623/299/589
f 618/300/589 617/301/589 621/302/589 622/303/589
f 616/304/527 618/300/589 622/303/589 620/305/527
f 617/301/589 619/296/589 623/299/589 621/302/589
f 615/306/589 628/307/589 624/308/590 611/309/590
f 614/310/589 627/311/589 626/312/589 613/313/589
f 612/314/590 625/315/590 627/311/589 614/310/589
f 613/313/589 626/312/589 628/307/589 615/306/589
f 610/316/567 633/317/591 629/318/591 587/319/568
f 599/320/571 631/321/591 630/322/591 589/323/572
f 588/324/580 611/325/590 631/321/591 599/320/571
f 589/323/572 630/322/591 632/326/591 606/327/587
f 606/327/587 632/328/591 633/329/591 610/330/567
f 633/331/591 638/332/591 634/333/591 629/334/591
f 631/335/591 636/336/591 635/337/591 630/338/591
f 611/339/590 624/340/590 636/336/591 631/335/591
f 630/338/591 635/337/591 637/341/591 632/342/591
f 632/342/591 637/341/591 638/332/591 633/331/591
f 539/193/539 639/343/592 640/344/593 569/194/561
f 569/195/561 640/345/593 641/346/593 567/196/561
f 567/201/561 641/347/593 642/348/593 573/202/561
f 573/349/561 642/350/593 643/351/594 564/352/562
f 639/353/592 644/354/527 645/355/589 640/356/593
f 640/357/593 645/358/589 646/278/589 641/359/593
f 641/360/593 646/361/589 647/355/589 642/362/593
f 642/363/593 647/364/589 648/365/590 643/366/594
f 644/367/527 649/368/527 650/369/589 645/370/589
f 645/371/589 650/372/589 651/373/589 646/374/589
f 646/375/589 651/376/589 652/377/589 647/215/589
f 647/378/589 652/379/589 653/380/590 648/381/590
f 648/382/590 612/383/590 564/384/562 643/385/594
f 653/386/590 625/387/590 612/388/590 648/389/590
f 616/390/527 644/391/527 639/392/592 539/393/539
f 620/394/527 649/395/527 644/205/527 616/396/527
f 678/397/595 677/215/596 656/343/597
f 676/398/598 656/343/597 677/215/596
f 667/343/599 658/399/600 670/400/601 669/205/602
f 662/401/603 661/402/604 666/403/605 665/404/606
f 664/405/607 660/205/608 662/406/603 665/407/606
f 689/408/609 664/409/607 690/407/610
f 664/409/607 665/406/606 690/407/610
f 666/400/605 691/410/611 690/343/610 665/205/606
f 655/411/612 667/406/599 668/343/613
f 668/343/613 667/406/599 669/412/602
f 660/413/608 668/414/613 669/406/602 662/415/603
f 670/399/601 661/416/604 662/417/603 669/343/602
f 671/343/614 675/205/615 674/215/616 673/383/617
f 666/418/605 661/419/604 673/420/617 674/421/616
f 692/205/618 691/418/611 666/422/605 674/423/616
f 693/205/619 692/215/618 675/343/615
f 675/343/615 692/215/618 674/383/616
f 658/424/600 676/425/598 677/205/596 670/418/601
f 677/343/596 673/205/617 661/418/604 670/424/601
f 678/343/595 671/426/614 673/215/617 677/383/596
f 656/427/597 676/428/598 680/429/620
f 676/428/598 679/430/621 680/429/620
f 658/431/600 667/432/599 681/433/622 682/434/623
f 683/435/624 681/436/622 655/437/612
f 667/438/599 655/437/612 681/436/622
f 676/343/598 658/424/600 682/418/623 679/205/621
f 654/439/625 685/440/626 663/438/627
f 663/438/627 685/440/626 684/436/628
f 659/441/629 663/442/627 684/443/628 686/444/629
f 672/343/630 659/445/629 686/446/629 687/205/631
f 657/343/632 672/383/630 688/205/633
f 672/383/630 687/215/631 688/205/633
f 696/447/634 718/448/635 716/449/636
f 716/449/636 718/448/635 717/450/637
f 707/405/638 698/451/639 710/452/640 709/448/641
f 702/343/642 701/453/643 706/454/644 705/455/645
f 704/456/646 700/205/647 702/406/642 705/457/645
f 729/458/648 704/459/646 730/460/649
f 704/459/646 705/461/645 730/460/649
f 706/462/644 731/463/650 730/464/649 705/465/645
f 695/466/651 707/467/638 708/468/652
f 708/468/652 707/467/638 709/469/641
f 700/470/647 708/471/652 709/450/641 702/472/642
f 710/451/640 701/452/643 702/473/642 709/405/641
f 711/474/653 715/475/654 714/476/655 713/477/656
f 706/478/644 701/479/643 713/480/656 714/408/655
f 732/458/657 731/481/650 706/482/644 714/459/655
f 733/464/658 732/467/657 715/483/654
f 715/483/654 732/467/657 714/484/655
f 698/482/639 716/471/636 717/470/637 710/478/640
f 717/471/637 713/470/656 701/478/643 710/482/640
f 718/447/635 711/485/653 713/461/656 717/486/637
f 720/487/659 696/488/634 719/489/660
f 696/488/634 716/490/636 719/489/660
f 698/491/639 707/492/638 721/493/661 722/494/662
f 723/495/663 721/496/661 695/497/651
f 707/498/638 695/497/651 721/496/661
f 716/499/636 698/500/639 722/501/662 719/502/660
f 694/343/664 725/205/665 703/407/666
f 703/407/666 725/205/665 724/406/667
f 699/503/667 703/343/666 724/480/667 726/454/667
f 712/504/668 699/505/667 726/506/667 727/507/667
f 697/508/669 712/509/668 728/510/670
f 712/509/668 727/511/667 728/510/670
f 736/447/671 756/449/672 758/448/673
f 756/449/672 757/450/674 758/448/673
f 747/405/675 749/448/676 750/452/677 738/451/678
f 742/343/679 745/455/680 746/454/681 741/453/682
f 744/456/683 745/457/680 742/406/679 740/205/684
f 769/458/685 770/460/686 744/459/683
f 744/459/683 770/460/686 745/461/680
f 746/462/681 745/465/680 770/464/686 771/463/687
f 735/466/688 748/468/689 747/467/675
f 748/468/689 749/469/676 747/467/675
f 740/470/684 742/472/679 749/450/676 748/471/689
f 750/451/677 749/405/676 742/473/679 741/452/682
f 751/474/690 753/477/691 754/476/692 755/475/693
f 746/478/681 754/408/692 753/480/691 741/479/682
f 772/458/694 754/459/692 746/482/681 771/481/687
f 773/464/695 755/483/693 772/467/694
f 755/483/693 754/484/692 772/467/694
f 738/482/678 750/478/677 757/470/674 756/471/672
f 757/471/674 750/482/677 741/478/682 753/470/691
f 758/447/673 757/486/674 753/461/691 751/485/690
f 760/487/696 759/489/697 736/488/671
f 736/488/671 759/489/697 756/490/672
f 738/491/678 762/494/698 761/493/699 747/492/675
f 763/495/700 735/497/688 761/496/699
f 747/498/675 761/496/699 735/497/688
f 756/499/672 759/502/697 762/501/698 738/500/678
f 734/343/701 743/407/702 765/205/703
f 743/407/702 764/406/704 765/205/703
f 739/503/704 766/454/704 764/480/704 743/343/702
f 752/504/705 767/507/704 766/506/704 739/505/704
f 737/508/706 768/510/707 752/509/705
f 752/509/705 768/510/707 767/511/704
f 798/397/708 776/343/709 797/215/710
f 796/398/711 797/215/710 776/343/709
f 787/343/712 789/205/713 790/400/714 778/399/715
f 782/401/716 785/404/717 786/403/718 781/402/719
f 784/405/720 785/407/717 782/406/716 780/205/721
f 809/408/722 810/407/723 784/409/720
f 784/409/720 810/407/723 785/406/717
f 786/400/718 785/205/717 810/343/723 811/410/724
f 775/411/725 788/343/726 787/406/712
f 788/343/726 789/412/713 787/406/712
f 780/413/721 782/415/716 789/406/713 788/414/726
f 790/399/714 789/343/713 782/417/716 781/416/719
f 791/343/727 793/383/728 794/215/729 795/205/730
f 786/418/718 794/421/729 793/420/728 781/419/719
f 812/205/731 794/423/729 786/422/718 811/418/724
f 813/205/732 795/343/730 812/215/731
f 795/343/730 794/383/729 812/215/731
f 778/424/715 790/418/714 797/205/710 796/425/711
f 797/343/710 790/424/714 781/418/719 793/205/728
f 798/343/708 797/383/710 793/215/728 791/426/727
f 776/427/709 800/429/733 796/428/711
f 796/428/711 800/429/733 799/430/734
f 778/431/715 802/434/735 801/433/736 787/432/712
f 803/435/737 775/437/725 801/436/736
f 787/438/712 801/436/736 775/437/725
f 796/343/711 799/205/734 802/418/735 778/424/715
f 774/439/738 783/438/739 805/440/740
f 783/438/739 804/436/741 805/440/740
f 779/441/742 806/444/742 804/443/741 783/442/739
f 792/343/743 807/205/744 806/446/742 779/445/742
f 777/343/745 808/205/746 792/383/743
f 792/383/743 808/205/746 807/215/744
f 816/447/747 836/449/748 838/448/749
f 836/449/748 837/450/750 838/448/749
f 827/405/751 829/448/752 830/452/753 818/451/754
f 822/343/755 825/455/756 826/454/757 821/453/758
f 824/456/759 825/457/756 822/406/755 820/205/760
f 849/458/761 850/460/762 824/459/759
f 824/459/759 850/460/762 825/461/756
f 826/462/757 825/465/756 850/464/762 851/463/763
f 815/466/764 828/468/765 827/467/751
f 828/468/765 829/469/752 827/467/751
f 820/470/760 822/472/755 829/450/752 828/471/765
f 830/451/753 829/405/752 822/473/755 821/452/758
f 831/474/766 833/477/767 834/476/768 835/475/769
f 826/478/757 834/408/768 833/480/767 821/479/758
f 852/458/770 834/459/768 826/482/757 851/481/763
f 853/464/771 835/483/769 852/467/770
f 835/483/769 834/484/768 852/467/770
f 818/482/754 830/478/753 837/470/750 836/471/748
f 837/471/750 830/482/753 821/478/758 833/470/767
f 838/447/749 837/486/750 833/461/767 831/485/766
f 840/487/772 839/489/773 816/488/747
f 816/488/747 839/489/773 836/490/748
f 818/491/754 842/494/774 841/493/775 827/492/751
f 843/495/776 815/497/764 841/496/775
f 827/498/751 841/496/775 815/497/764
f 836/499/748 839/502/773 842/501/774 818/500/754
f 814/343/777 823/407/778 845/205/779
f 823/407/778 844/406/780 845/205/779
f 819/503/781 846/454/781 844/480/780 823/343/778
f 832/504/782 847/507/783 846/506/781 819/505/781
f 817/508/784 848/510/785 832/509/782
f 832/509/782 848/510/785 847/511/783
f 856/447/786 878/448/787 876/449/788
f 876/449/788 878/448/787 877/450/789
f 867/405/790 858/451/791 870/452/792 869/448/793
f 862/343/794 861/453/795 866/454/796 865/455/797
f 864/456/798 860/205/799 862/406/794 865/457/797
f 889/458/800 864/459/798 890/460/801
f 864/459/798 865/461/797 890/460/801
f 866/462/796 891/463/802 890/464/801 865/465/797
f 855/466/803 867/467/790 868/468/804
f 868/468/804 867/467/790 869/469/793
f 860/470/799 868/471/804 869/450/793 862/472/794
f 870/451/792 861/452/795 862/473/794 869/405/793
f 871/474/805 875/475/806 874/476/807 873/477/808
f 866/478/796 861/479/795 873/480/808 874/408/807
f 892/458/809 891/481/802 866/482/796 874/459/807
f 893/464/810 892/467/809 875/483/806
f 875/483/806 892/467/809 874/484/807
f 858/482/791 876/471/788 877/470/789 870/478/792
f 877/471/789 873/470/808 861/478/795 870/482/792
f 878/447/787 871/485/805 873/461/808 877/486/789
f 880/487/811 856/488/786 879/489/812
f 856/488/786 876/490/788 879/489/812
f 858/491/791 867/492/790 881/493/813 882/494/814
f 883/495/815 881/496/813 855/497/803
f 867/498/790 855/497/803 881/496/813
f 876/499/788 858/500/791 882/501/814 879/502/812
f 854/343/816 885/205/817 863/407/818
f 863/407/818 885/205/817 884/406/819
f 859/503/819 863/343/818 884/480/819 886/454/819
f 872/504/820 859/505/819 886/506/819 887/507/819
f 857/508/821 872/509/820 888/510/822
f 872/509/820 887/511/819 888/510/822
