# Blender 4.1.1
# www.blender.org
mtllib ColosseumLowerWallColor.mtl
o Arenawall.001
v -18.142017 2.667002 22.526140
v -19.640745 2.667001 19.913292
v -19.642059 0.641524 19.913965
v -16.448490 0.641512 24.938490
v -16.447447 2.667002 24.937700
v -18.142017 2.539403 22.526140
v -19.144226 0.642868 20.744951
v -18.523258 2.461911 21.848574
v -18.872488 2.327096 21.227900
v -18.979452 2.221723 21.037800
v -19.066963 2.067276 20.882267
v -19.141953 1.827965 20.748989
v -16.960522 0.642134 24.218811
v -17.657810 2.456781 23.223763
v -17.294521 2.314678 23.747175
v -17.144636 2.218945 23.963121
v -17.049162 2.063586 24.100676
v -16.971283 1.818288 24.212881
v -5.985151 0.641418 32.968578
v -8.246339 0.641430 31.969608
v -5.985063 2.667002 32.968334
v -8.249670 2.667002 31.968418
v -10.464133 0.641458 30.644308
v -10.463623 2.667002 30.643774
v -12.587855 0.641478 29.015594
v -12.587168 2.667002 29.014940
v -14.590960 0.641495 27.106081
v -14.590094 2.667002 27.105341
v -20.935360 0.641528 17.099701
v -20.933954 2.667001 17.099131
v -22.007151 0.641535 14.106781
v -22.005617 2.667001 14.106299
v -22.856657 0.641489 10.960050
v -22.855604 2.667001 10.959809
v -23.482246 0.641399 7.696162
v -23.482246 2.667001 7.696162
v -23.773472 0.639661 4.349078
v -23.773474 2.667000 4.349079
v -17.337389 2.666998 -23.755424
v -18.937517 2.666998 -21.231901
v -18.937517 0.642131 -21.231901
v -23.702274 0.639940 -6.033277
v -23.702280 2.666999 -6.033277
v -23.197016 0.641398 -9.362482
v -23.197018 2.666999 -9.362482
v -22.459757 0.641398 -12.573659
v -22.459757 2.666999 -12.573659
v -21.503254 0.641397 -15.636111
v -21.503254 2.666999 -15.636111
v -20.328777 0.641397 -18.523254
v -20.328777 2.666999 -18.523254
v -15.548859 0.642130 -26.063084
v -15.548859 2.666998 -26.063084
v -13.599768 0.641396 -28.121305
v -13.599768 2.666998 -28.121305
v -11.523408 0.641396 -29.899086
v -11.523408 2.666998 -29.899086
v -9.357219 0.641396 -31.371445
v -9.357219 2.666998 -31.371445
v -7.128907 0.641396 -32.526432
v -7.128907 2.666998 -32.526432
v -4.867247 0.641396 -33.354362
v -4.867247 2.666997 -33.354362
v -17.337389 2.539399 -23.755424
v -18.431845 0.642865 -22.029383
v -17.753721 2.461907 -23.098835
v -18.135096 2.327093 -22.497377
v -18.251904 2.221720 -22.313164
v -18.347471 2.067273 -22.162449
v -18.429363 1.827962 -22.033295
v -16.068544 0.642131 -25.383644
v -16.817179 2.456778 -24.426628
v -16.426876 2.314674 -24.930220
v -16.265846 2.218941 -25.137987
v -16.163273 2.063582 -25.270332
v -16.079603 1.818285 -25.378288
v 17.445623 2.667002 22.468977
v 15.678713 2.667002 24.937700
v 15.679758 0.641512 24.938490
v 18.873325 0.641524 19.913965
v 18.872013 2.667001 19.913290
v 17.445623 2.539403 22.468977
v 16.269392 0.642869 24.140366
v 16.998182 2.461911 23.104774
v 16.588312 2.327097 23.687187
v 16.462778 2.221724 23.865568
v 16.360071 2.067277 24.011513
v 16.272058 1.827966 24.136574
v 18.464773 0.642134 20.673872
v 17.866838 2.456781 21.731609
v 18.182867 2.314677 21.178375
v 18.313251 2.218944 20.950127
v 18.396305 2.063586 20.804735
v 18.464052 1.818288 20.686138
v 5.874945 0.618793 32.842552
v 7.477607 0.641430 31.969608
v 5.874857 2.644378 32.842308
v 7.480937 2.667002 31.968418
v 9.695401 0.641458 30.644308
v 9.694891 2.667002 30.643774
v 11.819122 0.641478 29.015594
v 11.818435 2.667002 29.014940
v 13.822227 0.641495 27.106081
v 13.821361 2.667002 27.105341
v 20.166628 0.641528 17.099701
v 20.165222 2.667001 17.099131
v 21.238417 0.641535 14.106781
v 21.236885 2.667001 14.106299
v 22.087925 0.641489 10.960050
v 22.086872 2.667001 10.959809
v 22.713512 0.641399 7.696162
v 22.713512 2.667001 7.696162
v 23.004738 0.639661 4.349078
v 23.004740 2.667000 4.349079
v 16.568293 2.666998 -23.736755
v 18.168421 2.666998 -21.213232
v 18.168421 0.642131 -21.213232
v 22.933550 0.639940 -6.033278
v 22.933550 2.667000 -6.033278
v 22.427919 0.641398 -9.343811
v 22.427921 2.666999 -9.343811
v 21.690660 0.641398 -12.554989
v 21.690660 2.666999 -12.554989
v 20.734158 0.641397 -15.617441
v 20.734158 2.666999 -15.617441
v 19.559679 0.641397 -18.504583
v 19.559679 2.666999 -18.504583
v 14.779761 0.642130 -26.044413
v 14.779761 2.666998 -26.044413
v 12.830671 0.641396 -28.102636
v 12.830671 2.666998 -28.102636
v 10.754312 0.641396 -29.880417
v 10.754312 2.666998 -29.880417
v 8.588120 0.641396 -31.352776
v 8.588120 2.666998 -31.352776
v 6.359809 0.641396 -32.507763
v 6.359809 2.666998 -32.507763
v 4.098149 0.641396 -33.335693
v 4.098150 2.666997 -33.335693
v 16.568293 2.539399 -23.736755
v 17.662748 0.642865 -22.010712
v 16.984623 2.461907 -23.080166
v 17.365997 2.327093 -22.478708
v 17.482807 2.221720 -22.294495
v 17.578373 2.067273 -22.143780
v 17.660267 1.827962 -22.014626
v 15.299448 0.642131 -25.364975
v 16.048082 2.456778 -24.407959
v 15.657779 2.314674 -24.911551
v 15.496749 2.218941 -25.119318
v 15.394176 2.063582 -25.251661
v 15.310506 1.818285 -25.359619
vn 0.7410 -0.1564 -0.6531
vn 0.8440 0.0006 -0.5364
vn 0.9840 -0.0148 -0.1774
vn 0.8672 0.0562 -0.4948
vn 0.8670 0.0377 -0.4969
vn 0.8654 0.0209 -0.5006
vn 0.8639 0.0131 -0.5035
vn 0.7807 0.4437 -0.4400
vn 0.8588 0.0007 -0.5123
vn 0.6567 0.0024 -0.7541
vn 0.8899 -0.2001 -0.4098
vn 0.8185 -0.0391 -0.5732
vn 0.8180 -0.0244 -0.5748
vn 0.8168 -0.0167 -0.5767
vn 0.8149 -0.0087 -0.5795
vn 0.8119 -0.0005 -0.5838
vn 0.9080 0.2892 -0.3033
vn 0.9465 0.0116 -0.3224
vn 0.0396 0.0269 -0.9989
vn -0.0732 -0.0424 -0.9964
vn 0.1286 0.3088 -0.9424
vn 0.7418 -0.0037 -0.6706
vn 0.2398 0.3093 -0.9202
vn 0.8162 -0.0037 -0.5777
vn 0.3400 0.3101 -0.8878
vn 0.8754 -0.0037 -0.4833
vn 0.4303 0.3105 -0.8476
vn 0.9210 -0.0038 -0.3896
vn 0.7080 0.3119 -0.6336
vn 0.9996 -0.0007 -0.0276
vn 0.7582 0.3124 -0.5723
vn 0.9984 -0.0007 0.0560
vn 0.7993 0.3137 -0.5125
vn 0.9910 -0.0004 0.1336
vn 0.8580 0.2924 -0.4223
vn 0.8920 -0.0031 -0.4520
vn 0.9697 -0.2029 0.1362
vn 0.9824 0.1251 0.1384
vn 0.9835 0.1791 0.0269
vn 0.9692 -0.2463 -0.0053
vn 0.9412 0.3080 -0.1390
vn 0.8615 -0.0000 0.5078
vn 0.9464 0.3143 -0.0747
vn 0.8107 -0.0000 0.5854
vn 0.9495 0.3138 0.0016
vn 0.7613 -0.0000 0.6484
vn 0.9460 0.3132 0.0834
vn 0.7031 -0.0000 0.7111
vn 0.9277 0.3259 0.1823
vn 0.9769 -0.0182 0.2131
vn 0.5299 -0.0200 0.8478
vn 0.4056 0.0239 0.9138
vn 0.8478 0.3121 0.4288
vn 0.3897 -0.0000 0.9209
vn 0.7968 0.3119 0.5175
vn 0.2886 -0.0000 0.9575
vn 0.7322 0.3114 0.6058
vn 0.1772 -0.0000 0.9842
vn 0.6524 0.3107 0.6913
vn 0.0554 -0.0000 0.9985
vn -0.1385 -0.0431 0.9894
vn -0.0256 0.0274 0.9993
vn 0.7986 -0.2193 0.5605
vn 0.8186 -0.0000 0.5744
vn 0.8445 -0.0000 0.5355
vn 0.6387 -0.0034 0.7695
vn 0.7904 -0.0000 0.6126
vn 0.7911 0.0008 0.6117
vn 0.9346 0.0141 0.3553
vn -0.9059 -0.1568 -0.3933
vn -0.8440 -0.0049 -0.5363
vn -0.5631 -0.0189 -0.8262
vn -0.8133 -0.0539 -0.5794
vn -0.8128 -0.0364 -0.5813
vn -0.8110 -0.0201 -0.5847
vn -0.8093 -0.0125 -0.5873
vn -0.7115 0.4428 -0.5456
vn -0.8046 -0.0017 -0.5939
vn -0.9480 -0.0136 -0.3181
vn -0.7498 -0.2092 -0.6277
vn -0.8699 -0.0673 -0.4887
vn -0.8724 -0.0420 -0.4869
vn -0.8748 -0.0282 -0.4836
vn -0.8778 -0.0154 -0.4788
vn -0.8830 -0.0011 -0.4694
vn -0.6645 0.2969 -0.6858
vn -0.7092 0.0100 -0.7049
vn -0.1222 0.0316 -0.9920
vn -0.2405 -0.2480 -0.9384
vn -0.8342 0.0047 -0.5515
vn -0.0089 -0.0365 -0.9993
vn -0.3185 -0.2451 -0.9157
vn -0.8708 0.0051 -0.4916
vn -0.4182 -0.2456 -0.8745
vn -0.9204 0.0044 -0.3909
vn -0.5067 -0.2460 -0.8263
vn -0.9561 0.0044 -0.2929
vn -0.7717 -0.2474 -0.5859
vn -0.9971 -0.0007 0.0758
vn -0.8178 -0.2476 -0.5194
vn -0.9873 -0.0006 0.1591
vn -0.8551 -0.2481 -0.4552
vn -0.9718 -0.0004 0.2359
vn -0.9048 -0.2276 -0.3600
vn -0.9569 0.0186 0.2897
vn -0.9824 0.1251 0.1384
vn -0.9697 -0.2029 0.1362
vn -0.9835 0.1789 0.0280
vn -0.9696 -0.2375 -0.0592
vn -0.8004 -0.0002 0.5995
vn -0.9692 -0.2461 -0.0041
vn -0.9687 -0.2483 0.0016
vn -0.7460 -0.0000 0.6659
vn -0.9655 -0.2480 0.0794
vn -0.6905 -0.0000 0.7234
vn -0.9552 -0.2477 0.1620
vn -0.6264 -0.0000 0.7795
vn -0.9277 -0.2236 0.2990
vn -0.9980 0.0211 0.0594
vn -0.8722 -0.1950 0.4486
vn -0.8270 -0.2471 0.5050
vn -0.2936 0.0001 0.9559
vn -0.4953 0.3190 0.8080
vn -0.7678 -0.2469 0.5913
vn -0.1891 -0.0000 0.9820
vn -0.6949 -0.2465 0.6756
vn -0.0757 -0.0000 0.9971
vn -0.6068 -0.2461 0.7558
vn 0.0467 -0.0000 0.9989
vn 0.0256 0.0274 0.9993
vn 0.1385 -0.0431 0.9894
vn -0.7102 -0.1566 0.6863
vn -0.8184 -0.0000 0.5747
vn -0.8445 -0.0000 0.5355
vn -0.6387 -0.0002 0.7695
vn -0.7904 -0.0000 0.6126
vn -0.7911 0.0008 0.6117
vn -0.9346 0.0141 0.3553
vt 3.019731 1.000000
vt 3.019731 0.936984
vt 2.006100 1.000000
vt 2.802900 0.898714
vt 2.546200 0.832135
vt 2.467579 0.780095
vt 2.403254 0.703820
vt 2.006100 -0.000000
vt 2.348132 0.585634
vt 2.346461 0.000363
vt 4.004634 1.000000
vt 3.306198 0.896181
vt 3.521129 0.826001
vt 3.609803 0.778723
vt 3.666287 0.701997
vt 3.712362 0.580855
vt 4.004634 -0.000000
vt 3.714649 -0.000000
vt 0.000244 1.000000
vt 0.000000 -0.000000
vt 0.998809 0.000006
vt 1.000000 1.000000
vt 0.000899 1.000000
vt -0.000000 0.000000
vt 0.999597 0.000014
vt 0.000328 1.000000
vt 0.000000 -0.000000
vt 0.999598 0.000010
vt 0.000343 1.000000
vt -0.000000 0.000000
vt 0.999613 0.000009
vt 0.000341 1.000000
vt -0.000000 -0.000000
vt 0.999635 0.000008
vt 0.000239 1.000000
vt -0.000000 -0.000000
vt 0.999797 0.000002
vt 0.000191 1.000000
vt 0.000000 0.000000
vt 0.999839 0.000004
vt 0.000153 1.000000
vt 0.000000 0.000022
vt 0.999924 -0.000000
vt 0.000074 1.000000
vt 0.000000 0.000044
vt 1.000000 0.000000
vt -0.000000 1.000000
vt -0.000000 0.000857
vt 1.000000 0.000000
vt -0.000000 1.000000
vt -0.000000 -0.000000
vt 1.000000 0.000719
vt 0.000000 1.000000
vt 0.000000 0.000000
vt 1.000000 0.000000
vt -0.000000 1.000000
vt -0.000000 -0.000000
vt 1.000000 -0.000000
vt -0.000000 1.000000
vt -0.000000 -0.000000
vt 0.000000 1.000000
vt 0.000000 -0.000000
vt 1.000000 -0.000000
vt -0.000000 1.000000
vt -0.000000 0.000000
vt 1.000000 0.000000
vt -0.000000 1.000000
vt -0.000000 0.000000
vt 1.000000 0.000000
vt -0.000000 1.000000
vt -0.000000 -0.000000
vt 0.000000 1.000000
vt 0.000000 -0.000000
vt -0.000000 1.000000
vt -0.000000 -0.000000
vt 3.019731 1.000000
vt 3.019731 0.936984
vt 4.004631 1.000000
vt 3.306198 0.896181
vt 3.521129 0.826001
vt 3.609804 0.778723
vt 3.666288 0.701997
vt 3.712363 0.580855
vt 4.004631 -0.000000
vt 3.714649 -0.000000
s 1
usemtl Material
f 1/1/1 6/2/2 2/3/3
f 6/2/2 8/4/4 2/3/3
f 8/4/4 9/5/5 2/3/3
f 9/5/5 10/6/6 2/3/3
f 10/6/6 11/7/7 2/3/3
f 3/8/8 2/3/3 12/9/9
f 12/9/9 7/10/10 3/8/8
f 1/1/1 5/11/11 6/2/2
f 6/2/2 5/11/11 14/12/12
f 14/12/12 5/11/11 15/13/13
f 15/13/13 5/11/11 16/14/14
f 16/14/14 5/11/11 17/15/15
f 17/15/15 5/11/11 18/16/16
f 4/17/17 13/18/18 18/16/16
f 12/9/9 2/3/3 11/7/7
f 18/16/16 5/11/11 4/17/17
f 21/19/19 19/20/20 20/21/21 22/22/22
f 22/23/22 20/24/21 23/25/23 24/22/24
f 24/26/24 23/27/23 25/28/25 26/22/26
f 26/29/26 25/30/25 27/31/27 28/22/28
f 28/32/28 27/33/27 4/34/17 5/22/11
f 2/35/3 3/36/8 29/37/29 30/22/30
f 30/38/30 29/39/29 31/40/31 32/22/32
f 32/41/32 31/42/31 33/43/33 34/22/34
f 34/44/34 33/45/33 35/46/35 36/22/36
f 36/47/36 35/48/35 37/49/37 38/22/38
f 43/50/39 42/51/40 44/52/41 45/22/42
f 45/53/42 44/54/41 46/55/43 47/22/44
f 47/56/44 46/57/43 48/58/45 49/22/46
f 49/59/46 48/60/45 50/58/47 51/22/48
f 51/61/48 50/62/47 41/63/49 40/22/50
f 53/64/51 52/65/52 54/66/53 55/22/54
f 55/67/54 54/68/53 56/69/55 57/22/56
f 57/70/56 56/71/55 58/58/57 59/22/58
f 59/72/58 58/73/57 60/58/59 61/22/60
f 61/74/60 60/75/59 62/58/61 63/22/62
f 39/76/63 40/3/50 64/77/64
f 64/77/64 40/3/50 66/4/65
f 66/4/65 40/3/50 67/5/65
f 67/5/65 40/3/50 68/6/65
f 68/6/65 40/3/50 69/7/65
f 41/8/49 70/9/65 40/3/50
f 70/9/65 41/8/49 65/10/66
f 39/76/63 64/77/64 53/78/51
f 64/77/64 72/79/67 53/78/51
f 72/79/67 73/80/67 53/78/51
f 73/80/67 74/81/67 53/78/51
f 74/81/67 75/82/67 53/78/51
f 75/82/67 76/83/68 53/78/51
f 52/84/52 76/83/68 71/85/69
f 70/9/65 69/7/65 40/3/50
f 76/83/68 52/84/52 53/78/51
f 77/76/70 82/77/71 78/3/72
f 82/77/71 84/4/73 78/3/72
f 84/4/73 85/5/74 78/3/72
f 85/5/74 86/6/75 78/3/72
f 86/6/75 87/7/76 78/3/72
f 79/8/77 78/3/72 88/9/78
f 88/9/78 83/10/79 79/8/77
f 77/76/70 81/78/80 82/77/71
f 82/77/71 81/78/80 90/79/81
f 90/79/81 81/78/80 91/80/82
f 91/80/82 81/78/80 92/81/83
f 92/81/83 81/78/80 93/82/84
f 93/82/84 81/78/80 94/83/85
f 80/84/86 89/85/87 94/83/85
f 88/9/78 78/3/72 87/7/76
f 94/83/85 81/78/80 80/84/86
f 97/19/88 98/22/89 96/21/90 95/20/91
f 98/23/89 100/22/92 99/25/93 96/24/90
f 100/26/92 102/22/94 101/28/95 99/27/93
f 102/29/94 104/22/96 103/31/97 101/30/95
f 104/32/96 78/22/72 79/34/77 103/33/97
f 81/35/80 106/22/98 105/37/99 80/36/86
f 106/38/98 108/22/100 107/40/101 105/39/99
f 108/41/100 110/22/102 109/43/103 107/42/101
f 110/44/102 112/22/104 111/46/105 109/45/103
f 112/47/104 114/22/106 113/49/107 111/48/105
f 119/50/108 121/22/109 120/52/110 118/51/111
f 121/53/109 123/22/112 122/55/113 120/54/110
f 123/56/112 125/22/114 124/58/115 122/57/113
f 125/59/114 127/22/116 126/58/117 124/60/115
f 127/61/116 116/22/118 117/63/119 126/62/117
f 129/64/120 131/22/121 130/66/122 128/65/123
f 131/67/121 133/22/124 132/69/125 130/68/122
f 133/70/124 135/22/126 134/58/127 132/71/125
f 135/72/126 137/22/128 136/58/129 134/73/127
f 137/74/128 139/22/130 138/58/131 136/75/129
f 115/76/132 140/77/133 116/3/118
f 140/77/133 142/4/134 116/3/118
f 142/4/134 143/5/134 116/3/118
f 143/5/134 144/6/134 116/3/118
f 144/6/134 145/7/134 116/3/118
f 117/8/119 116/3/118 146/9/134
f 146/9/134 141/10/135 117/8/119
f 115/76/132 129/78/120 140/77/133
f 140/77/133 129/78/120 148/79/136
f 148/79/136 129/78/120 149/80/136
f 149/80/136 129/78/120 150/81/136
f 150/81/136 129/78/120 151/82/136
f 151/82/136 129/78/120 152/83/137
f 128/84/123 147/85/138 152/83/137
f 146/9/134 116/3/118 145/7/134
f 152/83/137 129/78/120 128/84/123
