# Blender 4.1.1
# www.blender.org
mtllib Colosseum Top Back Wall.mtl
o topinsidewall
v 16.116590 53.368511 -85.193855
v 24.057817 53.368507 -82.726395
v 24.057817 41.265095 -82.726387
v 16.116590 41.265095 -85.193848
v -0.599837 53.368511 -87.206833
v 7.928677 53.368511 -86.702766
v 7.928677 41.265091 -86.702751
v -0.599838 41.265091 -87.206818
v 31.634872 53.368507 -79.361664
v 38.767437 53.368515 -75.174568
v 38.767429 41.265099 -75.174561
v 31.634874 41.265079 -79.361656
v 45.376324 53.368515 -70.256996
v 51.423435 53.368515 -64.691994
v 51.423435 41.265099 -64.691994
v 45.376324 41.265099 -70.256989
v 56.862129 53.368515 -58.547997
v 61.648891 53.368515 -51.908787
v 61.648891 41.265095 -51.908783
v 56.862129 41.265095 -58.547997
v 65.763748 53.368515 -44.862473
v 69.205566 53.368515 -37.479774
v 69.205566 41.265099 -37.479774
v 65.763748 41.265099 -44.862473
v 71.955734 53.368515 -29.826544
v 74.020599 53.368519 -21.993755
v 74.020607 41.265102 -21.993755
v 71.955734 41.265099 -29.826546
v 76.198204 41.265102 -6.033360
v 75.426544 41.265102 -14.040818
v 75.426544 53.368519 -14.040820
v 76.198204 53.368515 -6.033360
v 76.365967 53.368523 2.012959
v 75.906998 53.368519 10.060905
v 75.906998 41.265102 10.060905
v 76.365967 41.265102 2.012960
v 74.805138 53.368519 18.059277
v 73.056847 53.368523 25.953499
v 73.056847 41.265106 25.953499
v 74.805138 41.265102 18.059275
v 70.645920 53.368526 33.692562
v 67.558014 53.368523 41.212437
v 67.558014 41.265106 41.212437
v 70.645920 41.265102 33.692562
v 63.789890 53.368523 48.440853
v 59.343758 53.368523 55.300941
v 59.343761 41.265106 55.300938
v 63.789886 41.265102 48.440861
v 54.230930 53.368523 61.709145
v 48.477612 53.368523 67.580261
v 48.477612 41.265102 67.580269
v 54.230930 41.265106 61.709145
v 42.126141 53.368519 72.829407
v 35.233025 53.368526 77.373360
v 35.233025 41.265106 77.373367
v 42.126141 41.265102 72.829414
v 27.873085 53.368526 81.137390
v 20.125645 53.368526 84.062080
v 20.125645 41.265110 84.062088
v 27.873085 41.265110 81.137398
v 3.625002 41.265106 87.090309
v 12.039289 41.265110 86.075409
v 12.039289 53.368526 86.075417
v 3.625002 53.368526 87.090302
v -16.885323 53.368511 -85.193855
v -24.826548 53.368507 -82.726395
v -24.826548 41.265095 -82.726387
v -16.885323 41.265095 -85.193848
v -8.697410 53.368511 -86.702766
v -8.697410 41.265091 -86.702751
v -32.403603 53.368507 -79.361664
v -39.536167 53.368515 -75.174568
v -39.536160 41.265099 -75.174561
v -32.403606 41.265079 -79.361656
v -46.145054 53.368515 -70.256996
v -52.192165 53.368515 -64.691994
v -52.192165 41.265099 -64.691994
v -46.145054 41.265099 -70.256989
v -57.630859 53.368515 -58.547997
v -62.417622 53.368515 -51.908787
v -62.417622 41.265095 -51.908783
v -57.630859 41.265095 -58.547997
v -66.532478 53.368515 -44.862473
v -69.974297 53.368515 -37.479774
v -69.974297 41.265099 -37.479774
v -66.532478 41.265099 -44.862473
v -72.724464 53.368515 -29.826544
v -74.789330 53.368519 -21.993755
v -74.789337 41.265102 -21.993755
v -72.724464 41.265099 -29.826546
v -76.966934 41.265102 -6.033360
v -76.195274 41.265102 -14.040818
v -76.195274 53.368519 -14.040820
v -76.966934 53.368515 -6.033360
v -77.134697 53.368523 2.012959
v -76.675728 53.368519 10.060905
v -76.675728 41.265102 10.060905
v -77.134697 41.265102 2.012960
v -75.573868 53.368519 18.059277
v -73.825577 53.368523 25.953499
v -73.825577 41.265106 25.953499
v -75.573868 41.265102 18.059275
v -71.414650 53.368526 33.692562
v -68.326744 53.368523 41.212437
v -68.326744 41.265106 41.212437
v -71.414650 41.265102 33.692562
v -64.558624 53.368523 48.440853
v -60.112488 53.368523 55.300941
v -60.112495 41.265106 55.300938
v -64.558617 41.265102 48.440861
v -54.999660 53.368523 61.709145
v -49.246342 53.368523 67.580261
v -49.246342 41.265102 67.580269
v -54.999660 41.265106 61.709145
v -42.894871 53.368519 72.829407
v -36.001755 53.368526 77.373360
v -36.001755 41.265106 77.373367
v -42.894871 41.265102 72.829414
v -28.641815 53.368526 81.137390
v -20.894375 53.368526 84.062080
v -20.894375 41.265110 84.062088
v -28.641815 41.265110 81.137398
v -4.528272 41.265099 87.095779
v -12.808022 41.265110 86.075409
v -12.808022 53.368526 86.075417
v -4.528272 53.368523 87.095764
vn -0.2394 -0.0000 0.9709
vn -0.3519 -0.0000 0.9360
vn -0.0590 -0.0000 0.9983
vn -0.1196 -0.0000 0.9928
vn -0.4568 -0.0000 0.8896
vn -0.5524 -0.0000 0.8336
vn -0.6379 -0.0000 0.7701
vn -0.7139 -0.0000 0.7002
vn -0.7809 -0.0000 0.6246
vn -0.8383 -0.0000 0.5452
vn -0.8859 -0.0000 0.4639
vn -0.9247 -0.0000 0.3808
vn -0.9549 -0.0000 0.2968
vn -0.9767 -0.0000 0.2147
vn -0.9983 -0.0000 0.0584
vn -0.9908 -0.0000 0.1351
vn -0.9998 -0.0000 -0.0181
vn -0.9953 -0.0000 -0.0968
vn -0.9843 -0.0000 -0.1765
vn -0.9664 -0.0000 -0.2571
vn -0.9408 -0.0000 -0.3390
vn -0.9068 -0.0000 -0.4215
vn -0.8639 -0.0000 -0.5036
vn -0.8114 -0.0000 -0.5845
vn -0.7489 -0.0000 -0.6626
vn -0.6766 -0.0000 -0.7364
vn -0.5946 -0.0000 -0.8040
vn -0.5036 -0.0000 -0.8639
vn -0.4049 -0.0000 -0.9144
vn -0.2976 -0.0000 -0.9547
vn -0.1197 -0.0000 -0.9928
vn -0.1804 -0.0000 -0.9836
vn -0.1803 -0.0000 -0.9836
vn 0.2394 -0.0000 0.9709
vn 0.3519 -0.0000 0.9360
vn 0.0621 -0.0000 0.9981
vn 0.1228 -0.0000 0.9924
vn 0.1227 -0.0000 0.9924
vn 0.4568 -0.0000 0.8896
vn 0.5524 -0.0000 0.8336
vn 0.6379 -0.0000 0.7701
vn 0.7139 -0.0000 0.7002
vn 0.7809 -0.0000 0.6246
vn 0.8383 -0.0000 0.5452
vn 0.8859 -0.0000 0.4639
vn 0.9247 -0.0000 0.3808
vn 0.9549 -0.0000 0.2968
vn 0.9767 -0.0000 0.2147
vn 0.9983 -0.0000 0.0584
vn 0.9908 -0.0000 0.1351
vn 0.9998 -0.0000 -0.0181
vn 0.9953 -0.0000 -0.0968
vn 0.9843 -0.0000 -0.1765
vn 0.9664 -0.0000 -0.2571
vn 0.9408 -0.0000 -0.3390
vn 0.9068 -0.0000 -0.4215
vn 0.8639 -0.0000 -0.5036
vn 0.8114 -0.0000 -0.5845
vn 0.7489 -0.0000 -0.6626
vn 0.6766 -0.0000 -0.7364
vn 0.5946 -0.0000 -0.8040
vn 0.5036 -0.0000 -0.8639
vn 0.4049 -0.0000 -0.9144
vn 0.2976 -0.0000 -0.9547
vn 0.0616 -0.0000 -0.9981
vn 0.1823 -0.0000 -0.9832
vn -0.0007 -0.0000 -1.0000
vt 1.000000 0.000000
vt 0.000002 0.000000
vt 0.000000 1.000000
vt 1.000000 1.000000
vt 0.999999 1.000000
vt 0.999999 0.000000
vt -0.000000 0.000000
vt -0.000000 1.000000
vt 1.000005 0.000000
vt 0.000005 0.000000
vt 0.000005 1.000000
vt 1.000005 1.000000
vt 1.000000 0.000000
vt 0.000001 0.000000
vt 0.000002 1.000000
vt 1.000000 1.000000
vt 0.999998 1.000000
vt 1.000000 0.000000
vt -0.000000 0.000000
vt -0.000000 1.000000
vt 1.000001 0.000000
vt 0.000001 0.000000
vt 0.000001 1.000000
vt 1.000001 1.000000
vt 0.999999 0.000000
vt 0.000000 0.000000
vt 0.000000 1.000000
vt 1.000000 1.000000
vt -0.000000 0.000000
vt 0.000000 1.000000
vt 1.000000 1.000000
vt -0.000000 0.000000
vt -0.000000 1.000000
vt 1.000000 0.000000
vt 0.000000 0.000000
vt 0.000000 1.000000
vt 1.000000 0.000000
vt 0.000001 0.000000
vt 0.000001 1.000000
vt 1.000000 0.000000
vt -0.000000 0.000000
vt -0.000000 1.000000
vt 1.000000 1.000000
vt 1.000000 1.000000
vt 1.000000 0.000000
vt -0.000000 0.000000
vt -0.000000 1.000000
vt -0.000000 0.000000
vt -0.000000 1.000000
vt 1.000000 1.000000
vt 1.000000 0.000000
vt -0.000000 1.000000
vt -0.000000 0.000000
vt 1.000000 0.000000
vt 0.000000 0.000000
vt 0.000000 1.000000
vt 1.000000 1.000000
vt 0.000000 0.000000
vt 0.000000 1.000000
vt -0.000000 0.000000
vt -0.000000 1.000000
vt -0.000000 0.000000
vt -0.000000 1.000000
vt 0.000000 0.000000
vt 0.000000 1.000000
vt 1.000000 1.000000
vt 1.000000 0.000000
vt -0.000000 0.000000
vt -0.000000 1.000000
vt 1.000000 0.000000
vt -0.000000 0.000000
vt -0.000000 1.000000
vt 1.000000 1.000000
vt 1.000000 0.000000
vt -0.000000 0.000000
vt -0.000000 1.000000
vt 1.000000 1.000000
vt -0.000001 0.000000
vt -0.000001 1.000000
vt 0.999999 1.000000
vt 0.000000 0.000000
vt 0.000000 1.000000
vt 0.999999 0.000000
vt -0.000001 0.000000
vt -0.000001 1.000000
vt 0.999999 1.000000
vt 0.999999 0.000000
vt -0.000001 0.000000
vt -0.000001 1.000000
vt 0.999999 1.000000
vt 0.999999 0.000000
vt -0.000002 0.000000
vt -0.000002 1.000000
vt 0.999999 1.000000
vt 1.000001 1.000000
vt 1.000001 0.000000
vt 0.000001 0.000000
vt 0.000001 1.000000
vt -0.000002 0.000000
vt -0.000002 1.000000
vt 0.999998 1.000000
vt 0.999998 0.000000
vt -0.000003 1.000000
vt 0.999998 1.000000
vt 0.999998 0.000000
vt -0.000003 0.000000
vt 0.000518 1.000000
vt 1.000486 1.000000
vt 1.000486 0.000000
vt 0.000518 0.000000
s 1
usemtl Material.007
f 4/1/1 3/2/2 2/3/2 1/4/1
f 5/5/3 8/6/3 7/7/4 6/8/4
f 7/9/4 4/10/1 1/11/1 6/12/4
f 12/13/5 11/14/6 10/15/6 9/16/5
f 2/17/2 3/18/2 12/19/5 9/20/5
f 16/21/7 15/22/8 14/23/8 13/24/7
f 11/25/6 16/26/7 13/27/7 10/28/6
f 20/18/9 19/29/10 18/30/10 17/31/9
f 14/31/8 15/18/8 20/32/9 17/33/9
f 24/34/11 23/35/12 22/36/12 21/28/11
f 19/37/10 24/38/11 21/39/11 18/16/10
f 28/40/13 27/41/14 26/42/14 25/43/13
f 22/44/12 23/45/12 28/46/13 25/47/13
f 29/48/15 32/49/15 31/50/16 30/51/16
f 31/52/16 26/50/14 27/51/14 30/53/16
f 36/54/17 35/55/18 34/56/18 33/57/17
f 32/57/15 29/54/15 36/58/17 33/59/17
f 40/40/19 39/60/20 38/61/20 37/43/19
f 35/45/18 40/62/19 37/63/19 34/44/18
f 44/34/21 43/64/22 42/65/22 41/28/21
f 38/66/20 39/67/20 44/68/21 41/69/21
f 48/70/23 47/71/24 46/72/24 45/73/23
f 43/74/22 48/75/23 45/76/23 42/77/22
f 52/25/25 51/78/26 50/79/26 49/80/25
f 46/16/24 47/13/24 52/81/25 49/82/25
f 56/83/27 55/84/28 54/85/28 53/86/27
f 51/87/26 56/88/27 53/89/27 50/90/26
f 60/91/29 59/92/30 58/93/30 57/94/29
f 54/95/28 55/96/28 60/97/29 57/98/29
f 61/99/31 64/100/31 63/101/32 62/102/33
f 63/103/32 58/104/30 59/105/30 62/106/33
f 68/1/34 65/4/34 66/3/35 67/2/35
f 5/5/36 69/8/37 70/7/38 8/6/36
f 70/9/38 69/12/37 65/11/34 68/10/34
f 74/13/39 71/16/39 72/15/40 73/14/40
f 66/17/35 71/20/39 74/19/39 67/18/35
f 78/21/41 75/24/41 76/23/42 77/22/42
f 73/25/40 72/28/40 75/27/41 78/26/41
f 82/18/43 79/31/43 80/30/44 81/29/44
f 76/31/42 79/33/43 82/32/43 77/18/42
f 86/34/45 83/28/45 84/36/46 85/35/46
f 81/37/44 80/16/44 83/39/45 86/38/45
f 90/40/47 87/43/47 88/42/48 89/41/48
f 84/44/46 87/47/47 90/46/47 85/45/46
f 91/48/49 92/51/50 93/50/50 94/49/49
f 93/52/50 92/53/50 89/51/48 88/50/48
f 98/54/51 95/57/51 96/56/52 97/55/52
f 94/57/49 95/59/51 98/58/51 91/54/49
f 102/40/53 99/43/53 100/61/54 101/60/54
f 97/45/52 96/44/52 99/63/53 102/62/53
f 106/34/55 103/28/55 104/65/56 105/64/56
f 100/66/54 103/69/55 106/68/55 101/67/54
f 110/70/57 107/73/57 108/72/58 109/71/58
f 105/74/56 104/77/56 107/76/57 110/75/57
f 114/25/59 111/80/59 112/79/60 113/78/60
f 108/16/58 111/82/59 114/81/59 109/13/58
f 118/83/61 115/86/61 116/85/62 117/84/62
f 113/87/60 112/90/60 115/89/61 118/88/61
f 122/91/63 119/94/63 120/93/64 121/92/64
f 116/95/62 119/98/63 122/97/63 117/96/62
f 123/99/65 124/102/66 125/101/66 126/100/65
f 125/103/66 124/106/66 121/105/64 120/104/64
f 126/107/65 64/108/67 61/109/67 123/110/65
