# Blender 4.1.1
# www.blender.org
mtllib ColosseumCornerSpawnFix.mtl
o arenacage81
v 19.766380 -0.000002 -24.225143
v 19.766378 1.067686 -24.225145
v 19.766378 1.478335 -24.225145
v 19.327436 1.805444 -24.836472
v 18.473499 1.805444 -26.025780
v 18.034557 1.478334 -26.637108
v 18.034557 1.067685 -26.637108
v 18.034557 -0.000002 -26.637108
v 15.202838 -0.000002 -25.279615
v 15.680046 -0.000002 -24.946543
v 15.680046 1.488881 -24.946543
v 15.485601 2.326118 -24.814301
v 15.785151 1.612905 -24.800158
v 15.657779 2.314674 -24.911551
v 16.355005 2.538533 -23.603451
v 16.545958 1.846562 -23.740559
v 16.568293 2.539399 -23.736755
v 15.394176 2.063582 -25.251661
v 15.255548 2.062444 -25.134705
v 16.048082 2.456778 -24.407959
v 15.880260 2.460653 -24.264645
v 16.127380 1.774291 -24.323524
v 15.359833 2.217479 -24.989462
v 15.496749 2.218941 -25.119318
v 15.166296 1.819771 -25.259008
v 15.310506 1.818285 -25.359619
v 15.067849 -0.000002 -25.086802
v 15.230229 -0.000002 -24.860647
v 15.230229 1.755216 -24.860647
v 15.133803 1.976080 -24.994942
v 15.231526 2.126883 -24.858839
v 16.208460 2.174990 -23.498232
v 16.208460 2.438911 -23.498232
v 15.067849 1.780607 -25.086802
v 15.760251 2.106597 -24.122467
v 15.743244 2.363155 -24.146154
v 15.355823 2.223344 -24.685730
v 15.392736 1.951678 -24.634315
v 15.829758 1.423688 -24.940657
v 15.733762 1.423688 -24.871731
v 15.897456 1.495222 -24.846376
v 15.801459 1.495222 -24.777451
v 16.233938 1.656283 -24.377747
v 16.641953 1.738679 -23.809484
v 16.545958 1.738679 -23.740559
v 16.137941 1.656283 -24.308821
v 15.680046 1.067686 -24.946543
v 15.733762 1.067686 -24.871731
v 15.829758 1.067686 -24.940657
v 15.767046 -0.000002 -25.009008
v 15.767046 1.067686 -25.009008
v 17.523676 -0.000002 -21.920786
v 17.411867 -0.000002 -22.534575
v 17.411867 1.488881 -22.534575
v 17.224409 2.326118 -22.392605
v 17.306763 1.612906 -22.680956
v 17.365997 2.327093 -22.478708
v 17.578373 2.067273 -22.143780
v 17.454462 2.062444 -22.072201
v 16.984623 2.461907 -23.080166
v 16.829750 2.460653 -22.942261
v 16.964533 1.774291 -23.157593
v 17.350178 2.217479 -22.217442
v 17.482807 2.221720 -22.294495
v 17.543715 1.819772 -21.947895
v 17.660267 1.827962 -22.014626
v 17.349073 -0.000002 -21.909662
v 17.186689 -0.000002 -22.135817
v 17.186691 1.755216 -22.135815
v 17.283115 1.976080 -22.001520
v 17.185394 2.126883 -22.137625
v 17.349073 1.780607 -21.909662
v 16.656670 2.106598 -22.873993
v 16.673676 2.363155 -22.850309
v 17.061096 2.223344 -22.310734
v 17.024183 1.951678 -22.362146
v 17.454149 1.423688 -22.678312
v 17.358152 1.423688 -22.609386
v 17.386456 1.495222 -22.772596
v 17.290459 1.495222 -22.703669
v 17.049973 1.656283 -23.241228
v 16.953978 1.656283 -23.172298
v 17.358152 1.067686 -22.609386
v 17.411867 1.067686 -22.534575
v 17.454149 1.067686 -22.678312
v 17.498867 -0.000002 -22.597042
v 17.498867 1.067686 -22.597042
v 15.767046 1.478335 -25.009008
v 17.498867 1.478335 -22.597042
v 16.205988 1.805444 -24.397680
v 17.059925 1.805444 -23.208370
v 17.662748 0.642865 -22.010712
v 17.523417 0.525966 -21.921194
v 15.192938 0.516403 -25.270695
v 15.299448 0.642131 -25.364975
vn -0.8123 -0.0000 0.5832
vn 0.5832 -0.0000 0.8123
vn 0.3060 -0.8513 0.4262
vn 0.2337 -0.9162 0.3255
vn -0.4505 0.7430 -0.4951
vn 0.1129 -0.9811 0.1572
vn 0.0682 -0.9931 0.0950
vn -0.0513 0.9953 -0.0816
vn -0.0901 0.9777 -0.1896
vn -0.2134 0.9193 -0.3308
vn -0.5240 0.5103 -0.6820
vn 0.1876 -0.0000 0.9823
vn -0.7099 0.6696 -0.2182
vn -0.4390 0.8729 0.2127
vn -0.8396 -0.0053 -0.5432
vn -0.5032 0.8516 0.1469
vn -0.4634 -0.7784 0.4235
vn -0.4040 -0.7464 0.5289
vn -0.2439 -0.6419 0.7270
vn -0.6144 0.7887 -0.0233
vn -0.7995 0.4686 -0.3758
vn -0.8123 -0.0000 0.5833
vn -0.0000 -1.0000 -0.0000
vn -0.3060 -0.8513 -0.4262
vn -0.2337 -0.9162 -0.3255
vn 0.3092 0.7540 0.5796
vn -0.1129 -0.9811 -0.1572
vn -0.0682 -0.9931 -0.0950
vn 0.0539 0.9953 0.0809
vn 0.1101 0.9817 0.1555
vn 0.2143 0.8960 0.3889
vn 0.3997 0.5338 0.7452
vn -0.8708 -0.0000 -0.4917
vn -0.0201 0.6696 0.7424
vn -0.3419 0.8729 0.3479
vn 0.1138 0.0068 0.9935
vn -0.3000 0.8516 0.4299
vn -0.5494 -0.7784 0.3038
vn -0.6303 -0.7464 0.2137
vn -0.7668 -0.6419 -0.0013
vn -0.1743 0.7887 0.5896
vn 0.1005 0.4686 0.8777
vn -0.5832 -0.0000 -0.8123
vn -0.5833 -0.0000 -0.8123
vn 0.2325 -0.9171 0.3238
vn -0.2325 -0.9171 -0.3238
vn 0.5187 0.0068 0.8549
vn -0.6142 0.0016 -0.7892
vt 0.938557 0.043807
vt 0.938557 0.396616
vt 0.938557 0.532312
vt 0.716247 0.626418
vt 0.283753 0.635759
vt 0.061442 0.532312
vt 0.061442 0.396616
vt 0.061442 0.043807
vt -1.327071 0.000123
vt -1.327071 0.457082
vt -0.945727 1.406662
vt -0.816008 1.123351
vt -0.814262 1.600103
vt -1.174788 0.548902
vt -0.979092 1.517445
vt -0.838799 1.716315
vt 0.500000 1.661813
vt 0.500000 2.000355
vt -0.125852 1.903181
vt -0.102972 1.574083
vt -0.417854 0.755638
vt 0.500000 0.861399
vt -0.138669 2.028245
vt 0.500000 2.128145
vt -1.034457 1.155920
vt -1.034457 -1.128145
vt -0.816007 -1.128145
vt -0.669603 1.855671
vt -0.647047 1.723839
vt -0.597387 1.375361
vt -1.099163 1.206158
vt -0.664903 -1.128145
vt -0.664903 0.241425
vt -0.664903 0.781711
vt -1.099163 -0.520297
vt -1.099163 -1.128145
vt -0.063108 1.147819
vt 0.500000 1.240524
vt -0.523506 0.940802
vt -1.447907 0.540763
vt -1.447907 0.000123
vt -1.211468 0.699959
vt 0.500000 0.999877
vt -0.441607 0.907111
vt 0.000000 0.000000
vt 1.000000 0.000000
vt 1.000000 1.000000
vt 0.000000 1.000000
vt -0.214841 0.591371
vt -0.214841 -0.000000
vt 1.214842 -0.000000
vt 1.214842 0.591371
vt 1.945728 1.406662
vt 1.814263 1.600103
vt 1.816009 1.123351
vt 2.327073 0.457082
vt 2.174788 0.548902
vt 1.979093 1.517445
vt 1.838800 1.716315
vt 1.102974 1.574083
vt 1.125853 1.903181
vt 1.417854 0.755638
vt 1.138670 2.028245
vt 1.816008 -1.128145
vt 2.034459 -1.128145
vt 2.034459 1.155920
vt 1.669604 1.855671
vt 1.597388 1.375361
vt 1.647048 1.723839
vt 2.099164 1.206158
vt 1.664904 -1.128145
vt 1.664904 0.781711
vt 1.664904 0.241425
vt 2.099164 -1.128145
vt 2.099164 -0.562829
vt 1.063108 1.147819
vt 1.523509 0.940802
vt 2.447907 0.540763
vt 2.327073 0.000123
vt 2.447907 0.000123
vt 2.211471 0.699959
vt 1.441608 0.907111
vt -0.214841 -0.000000
vt -0.214841 0.591371
vt 1.214842 0.591371
vt 1.214842 -0.000000
vt 1.214842 0.818821
vt -0.214841 0.818821
vt -0.214841 0.818821
vt 1.214842 0.818821
vt 1.214842 2.177293
vt -0.214841 2.177293
vt -0.214841 1.550256
vt 1.214842 1.550256
vt 2.099164 -0.457423
vt -1.099163 -0.380207
s 1
usemtl lambert74
f 1/1/1 2/2/1 3/3/1 4/4/1 5/5/1 6/6/1 7/7/1 8/8/1
usemtl lambert30
f 48/9/2 49/9/2 39/10/2 40/10/2
f 40/10/3 39/10/3 41/14/4 42/14/4
f 43/21/6 44/22/7 45/22/7 46/21/6
f 41/14/4 43/21/6 46/21/6 42/14/4
f 11/40/1 47/41/1 48/9/1 40/10/1
f 13/42/1 11/40/1 40/10/1 42/14/22
f 16/43/1 22/44/1 46/21/1 45/22/1
f 22/44/1 13/42/1 42/14/22 46/21/1
f 49/9/23 48/9/23 47/41/23 51/41/23
f 78/56/24 80/57/25 79/57/25 77/56/24
f 81/62/27 82/62/27 45/22/28 44/22/28
f 79/57/25 80/57/25 82/62/27 81/62/27
f 54/78/1 78/56/1 83/79/1 84/80/1
f 56/81/1 80/57/1 78/56/1 54/78/1
f 16/43/1 45/22/1 82/62/1 62/82/1
f 62/82/1 82/62/1 80/57/1 56/81/1
f 85/79/43 83/79/43 78/56/43 77/56/43
f 83/79/23 85/79/23 87/80/23 84/80/23
usemtl brickwork
f 30/11/1 29/12/1 31/13/1
f 18/15/5 19/15/5 23/16/5 24/16/5
f 32/17/1 33/18/1 36/19/1 35/20/1
f 21/23/8 15/24/8 17/24/8 20/23/8
f 29/12/1 34/25/1 27/26/1 28/27/1
f 12/28/9 21/23/9 20/23/9 14/28/9
f 35/20/1 36/19/1 37/29/1 38/30/1
f 31/13/1 29/12/1 38/30/1 37/29/1
f 24/16/10 23/16/10 12/28/10 14/28/10
f 34/25/1 29/12/1 30/11/1
f 26/31/11 25/31/11 19/15/11 18/15/11
f 10/32/12 47/33/12 11/34/12 29/12/12 28/27/12
f 23/16/13 19/15/13 30/11/13 31/13/13
f 33/18/14 15/24/14 21/23/14 36/19/14
f 27/26/15 34/25/15 25/31/15 94/35/15 9/36/15
f 36/19/16 21/23/16 12/28/16 37/29/16
f 32/17/17 35/20/17 22/37/17 16/38/17
f 35/20/18 38/30/18 13/39/18 22/37/18
f 11/34/19 13/39/19 38/30/19 29/12/19
f 12/28/20 23/16/20 31/13/20 37/29/20
f 19/15/21 25/31/21 34/25/21 30/11/21
f 47/45/2 10/46/2 50/47/2 51/48/2
f 70/53/1 71/54/1 69/55/1
f 58/58/26 64/59/26 63/59/26 59/58/26
f 32/17/1 73/60/1 74/61/1 33/18/1
f 61/63/29 60/63/29 17/24/29 15/24/29
f 69/55/1 68/64/1 67/65/1 72/66/1
f 55/67/30 57/67/30 60/63/30 61/63/30
f 73/60/1 76/68/1 75/69/1 74/61/1
f 71/54/1 75/69/1 76/68/1 69/55/1
f 64/59/31 57/67/31 55/67/31 63/59/31
f 72/66/1 70/53/1 69/55/1
f 66/70/32 58/58/32 59/58/32 65/70/32
f 53/71/33 68/64/33 69/55/33 54/72/33 84/73/33
f 63/59/34 71/54/34 70/53/34 59/58/34
f 33/18/35 74/61/35 61/63/35 15/24/35
f 67/65/36 52/74/36 93/75/36 65/70/36 72/66/36
f 74/61/37 75/69/37 55/67/37 61/63/37
f 32/17/38 16/38/38 62/76/38 73/60/38
f 73/60/39 62/76/39 56/77/39 76/68/39
f 54/72/40 69/55/40 76/68/40 56/77/40
f 55/67/41 75/69/41 71/54/41 63/59/41
f 59/58/42 70/53/42 72/66/42 65/70/42
f 53/45/44 84/46/44 87/47/43 86/48/43
f 66/70/47 65/70/47 93/75/47 92/95/47
f 26/31/48 95/96/48 94/35/48 25/31/48
usemtl lambert41
f 51/49/2 50/50/2 8/51/2 7/52/2
f 86/83/43 87/84/43 2/85/43 1/86/43
f 51/49/2 7/52/2 6/87/2 88/88/2
f 2/85/43 87/84/43 89/89/43 3/90/43
f 88/88/45 6/87/45 5/91/45 90/92/45
f 3/90/46 89/89/46 91/93/46 4/94/46
f 90/92/23 5/91/23 4/94/23 91/93/23
