# Blender 4.1.1
# www.blender.org
mtllib base.mtl
o roomShell1_room:GUI__BonnieRoom_whitetile
v 0.102504 0.000562 -0.128793
v 0.102493 -0.001109 -0.128708
v 0.102493 0.000563 -0.106837
v 0.102493 -0.001109 -0.106837
v 0.102515 -0.001111 -0.074220
v 0.102515 0.000561 -0.074220
v 0.102537 -0.001114 -0.042441
v 0.102537 0.000559 -0.042441
v 0.102535 0.000561 -0.017135
v 0.102494 -0.001110 -0.144971
v 0.102840 0.000910 -0.106837
v 0.102884 0.000905 -0.042441
v 0.102534 -0.001113 -0.017137
v 0.102511 0.000561 -0.145119
v 0.102862 0.000908 -0.074220
v 0.102853 0.000908 -0.128811
v 0.102533 0.000563 0.007787
v 0.102515 -0.001112 -0.184742
v 0.102531 -0.001113 0.007783
v 0.102533 0.000559 -0.184670
v 0.102525 -0.001111 0.125746
v 0.102513 0.000561 -0.217579
v 0.102528 0.000568 0.125754
v 0.102884 0.000905 -0.184655
v 0.102504 -0.001110 -0.217578
v 0.102880 0.000910 0.007950
v 0.102779 0.000915 0.125996
v 0.102861 0.000908 -0.217580
v 0.102493 0.000563 -0.247717
v 0.102493 -0.001109 -0.247717
v 0.102494 -0.001111 -0.258655
v 0.102501 0.000561 -0.258662
v 0.102840 0.000910 -0.247717
v 0.102775 0.000908 -0.258937
v 0.103347 0.000910 -0.106837
v 0.103359 0.000908 -0.128811
v 0.102840 0.000910 -0.106837
v 0.102862 0.000908 -0.074220
v 0.102853 0.000908 -0.128811
v 0.103369 0.000908 -0.074220
v 0.102493 0.000563 -0.106837
v 0.103369 0.000908 -0.145149
v 0.102884 0.000905 -0.042441
v 0.103439 0.000977 -0.074220
v 0.102515 0.000561 -0.074220
v 0.102862 0.000908 -0.145149
v 0.103416 0.000979 -0.106837
v 0.103391 0.000905 -0.042441
v 0.103391 0.000905 -0.184655
v 0.103416 0.002144 -0.106837
v 0.102882 0.000908 -0.017053
v 0.102884 0.000905 -0.184655
v 0.103439 0.002159 -0.074220
v 0.102535 0.000561 -0.017135
v 0.103368 0.000908 -0.217580
v 0.103460 0.000975 -0.042441
v 0.102537 0.000559 -0.042441
v 0.103460 0.000975 -0.184655
v 0.103460 0.002172 -0.042441
v 0.102861 0.000908 -0.217580
v 0.102533 0.000563 0.007787
v 0.103462 0.000977 -0.016916
v 0.103599 0.002311 -0.042441
v 0.103347 0.000910 -0.247717
v 0.102880 0.000910 0.007950
v 0.103577 0.002297 -0.074220
v 0.103438 0.000977 -0.217580
v 0.103438 0.000977 -0.217580
v 0.103393 0.000908 -0.016932
v 0.102840 0.000910 -0.247717
v 0.103416 0.000979 -0.247717
v 0.103464 0.002172 -0.016915
v 0.103395 0.000910 0.008190
v 0.103416 0.002144 -0.247717
v 0.102775 0.000908 -0.258937
v 0.103438 0.002158 -0.217580
v 0.103369 0.000908 -0.259535
v 0.103431 0.002153 -0.259594
v 0.102779 0.000915 0.125996
v 0.103416 0.000979 -0.247717
v 0.103555 0.002283 -0.247717
v 0.103419 0.000915 0.126611
v 0.103423 0.000978 -0.259589
v 0.103423 0.000978 -0.259589
v 0.103544 0.002292 -0.259702
v 0.103464 0.000979 0.008223
v 0.103469 0.000984 0.126659
v 0.103429 0.002152 -0.128811
v 0.103555 0.002283 -0.106837
v 0.103429 0.000978 -0.128811
v 0.103568 0.002291 -0.128811
v 0.103438 0.002158 -0.145149
v 0.103438 0.000977 -0.145149
v 0.103460 0.002172 -0.184655
v 0.103460 0.000975 -0.184655
v 0.103599 0.002311 -0.184655
v 0.103416 0.000979 -0.106837
v 0.103576 0.002297 -0.217580
v 0.103429 0.000978 -0.128811
v 0.103806 0.002283 -0.106837
v 0.103818 0.002291 -0.128811
v 0.103555 0.002283 -0.106837
v 0.103577 0.002297 -0.074220
v 0.103568 0.002291 -0.128811
v 0.103828 0.002297 -0.074220
v 0.103416 0.002144 -0.106837
v 0.103827 0.002297 -0.145149
v 0.103599 0.002311 -0.042441
v 0.103897 0.002367 -0.074220
v 0.103439 0.002159 -0.074220
v 0.103577 0.002297 -0.145149
v 0.103875 0.002352 -0.106837
v 0.103850 0.002311 -0.042441
v 0.103850 0.002311 -0.184655
v 0.103875 0.008103 -0.106837
v 0.103603 0.002311 -0.016880
v 0.103599 0.002311 -0.184655
v 0.103897 0.008158 -0.074220
v 0.103464 0.002172 -0.016915
v 0.103827 0.002297 -0.217580
v 0.103919 0.002380 -0.042441
v 0.103460 0.002172 -0.042441
v 0.103919 0.002380 -0.184655
v 0.103919 0.008210 -0.042441
v 0.103576 0.002297 -0.217580
v 0.103468 0.002171 0.008226
v 0.103918 0.002380 -0.016803
v 0.104058 0.008349 -0.042441
v 0.103806 0.002283 -0.247717
v 0.103607 0.002310 0.008294
v 0.104036 0.008296 -0.074220
v 0.103897 0.002366 -0.217580
v 0.103897 0.002366 -0.217580
v 0.103849 0.002311 -0.016820
v 0.103555 0.002283 -0.247717
v 0.103875 0.002352 -0.247717
v 0.103928 0.008203 -0.016797
v 0.103848 0.002310 0.008412
v 0.103875 0.008103 -0.247717
v 0.103544 0.002292 -0.259702
v 0.103897 0.008155 -0.217580
v 0.103839 0.002292 -0.259980
v 0.103895 0.002361 -0.260034
v 0.103573 0.002309 0.126766
v 0.103875 0.002352 -0.247717
v 0.103856 0.008138 -0.260067
v 0.103868 0.002309 0.127074
v 0.103919 0.002380 -0.184655
v 0.103895 0.002361 -0.260034
v 0.103918 0.002379 0.008446
v 0.103919 0.008210 -0.184655
v 0.104014 0.008242 -0.247717
v 0.103916 0.002378 0.127125
v 0.103897 0.002366 -0.145149
v 0.104058 0.008349 -0.184655
v 0.103966 0.008276 -0.260175
v 0.104035 0.008294 -0.217580
v 0.103897 0.008156 -0.145149
v 0.103888 0.008134 -0.128811
v 0.103888 0.002360 -0.128811
v 0.104014 0.008242 -0.106837
v 0.104026 0.008272 -0.128811
v 0.103875 0.002352 -0.106837
v 0.103888 0.002360 -0.128811
v 0.105187 0.008272 -0.128811
v 0.104026 0.008272 -0.128811
v 0.105174 0.008242 -0.106837
v 0.104036 0.008295 -0.145149
v 0.104014 0.008242 -0.106837
v 0.105196 0.008295 -0.145150
v 0.105197 0.008296 -0.074220
v 0.103897 0.008156 -0.145149
v 0.104058 0.008349 -0.184655
v 0.104036 0.008296 -0.074220
v 0.103888 0.008134 -0.128811
v 0.105218 0.008349 -0.184655
v 0.105218 0.008349 -0.042441
v 0.103875 0.008103 -0.106837
v 0.103919 0.008210 -0.184655
v 0.104035 0.008294 -0.217580
v 0.104058 0.008349 -0.042441
v 0.103897 0.008158 -0.074220
v 0.105196 0.008294 -0.217580
v 0.104067 0.008341 -0.016764
v 0.104014 0.008242 -0.247717
v 0.103928 0.008203 -0.016797
v 0.105216 0.008341 -0.016492
v 0.105174 0.008242 -0.247717
v 0.103875 0.008103 -0.247717
v 0.103937 0.008195 0.008459
v 0.103919 0.008210 -0.042441
v 0.103966 0.008276 -0.260175
v 0.103897 0.008155 -0.217580
v 0.104076 0.008334 0.008525
v 0.105171 0.008276 -0.261352
v 0.105213 0.008333 0.009064
v 0.104054 0.008318 0.127250
v 0.105208 0.008317 0.128409
v 0.014766 0.000563 -0.258652
v -0.028809 0.000561 -0.258674
v 0.014766 -0.001109 -0.258652
v 0.041847 -0.001112 -0.258673
v -0.028809 -0.001112 -0.258674
v 0.041847 0.000561 -0.258673
v -0.067451 0.000558 -0.258696
v 0.070263 -0.001114 -0.258696
v 0.014766 0.000910 -0.258999
v -0.028809 0.000907 -0.259021
v -0.067451 -0.001114 -0.258696
v 0.070263 0.000559 -0.258696
v -0.095417 -0.001112 -0.258674
v 0.102501 0.000561 -0.258662
v 0.102494 -0.001111 -0.258655
v 0.070263 0.000905 -0.259043
v 0.041847 0.000908 -0.259020
v -0.067797 0.000905 -0.258695
v -0.095417 0.000907 -0.258674
v -0.095417 0.000907 -0.259597
v -0.122557 -0.001109 -0.258652
v -0.067520 0.000905 -0.259619
v -0.122557 0.000909 -0.258652
v -0.122557 0.000909 -0.258652
v -0.067451 0.000905 -0.259550
v -0.136698 0.000909 -0.258655
v -0.122557 0.000909 -0.259575
v -0.067589 0.002311 -0.259619
v -0.067450 0.000905 -0.259043
v -0.136700 -0.001110 -0.258653
v -0.095417 0.002297 -0.259597
v -0.067451 0.000558 -0.258696
v -0.153973 -0.001111 -0.258654
v -0.122557 0.000909 -0.259575
v -0.028809 0.000907 -0.259527
v -0.028809 0.000907 -0.259021
v -0.153970 0.000908 -0.258658
v -0.122557 0.002283 -0.259575
v -0.028809 0.000561 -0.258674
v -0.028809 0.000977 -0.259597
v -0.137114 0.000909 -0.259568
v -0.122557 0.002283 -0.259575
v -0.095417 0.002297 -0.260056
v 0.014766 0.000910 -0.258999
v -0.137114 0.002285 -0.259572
v -0.122557 0.002283 -0.260034
v 0.014766 0.000910 -0.259506
v -0.154892 0.000908 -0.259560
v -0.137114 0.002285 -0.259572
v 0.041847 0.000908 -0.259020
v 0.014766 0.000979 -0.259575
v -0.154894 0.002289 -0.259567
v -0.137310 0.002285 -0.260030
v 0.041847 0.000908 -0.259527
v -0.028809 0.000977 -0.259597
v -0.154894 0.002289 -0.259567
v 0.070263 0.000905 -0.259043
v 0.041847 0.000977 -0.259597
v 0.014766 0.000563 -0.258652
v -0.155328 0.002289 -0.260024
v 0.014766 0.000979 -0.259575
v 0.070263 0.000905 -0.259550
v 0.041847 0.000561 -0.258673
v 0.014766 0.002144 -0.259575
v 0.102775 0.000908 -0.258937
v 0.070263 0.000975 -0.259619
v 0.041847 0.000977 -0.259597
v 0.041847 0.002158 -0.259597
v 0.102501 0.000561 -0.258662
v 0.103369 0.000908 -0.259535
v -0.028809 0.002158 -0.259597
v 0.070263 0.000975 -0.259619
v 0.070263 0.000559 -0.258696
v 0.103423 0.000978 -0.259589
v 0.070263 0.002172 -0.259619
v 0.014766 0.002283 -0.259714
v -0.067451 0.000975 -0.259619
v 0.070263 0.002311 -0.259758
v -0.028809 0.002297 -0.259736
v -0.067451 0.002172 -0.259618
v 0.103431 0.002153 -0.259594
v 0.041847 0.002297 -0.259735
v -0.028809 0.002297 -0.259986
v 0.014766 0.002283 -0.259965
v -0.067451 0.002311 -0.259758
v 0.041847 0.002297 -0.259986
v -0.067451 0.002310 -0.260008
v -0.067451 0.002172 -0.259618
v 0.070263 0.002311 -0.260008
v 0.014766 0.002352 -0.260034
v -0.028809 0.002158 -0.259597
v 0.103544 0.002292 -0.259702
v -0.028809 0.002366 -0.260056
v -0.067520 0.002311 -0.260078
v 0.103431 0.002153 -0.259594
v -0.028809 0.002366 -0.260056
v 0.103839 0.002292 -0.259980
v 0.070263 0.002172 -0.259619
v 0.070263 0.002380 -0.260078
v -0.095417 0.008295 -0.260056
v -0.067451 0.002380 -0.260078
v 0.103895 0.002361 -0.260034
v -0.122557 0.002283 -0.260034
v 0.103856 0.008138 -0.260067
v -0.028809 0.008156 -0.260056
v -0.122557 0.008242 -0.260034
v -0.067589 0.008349 -0.260078
v 0.070263 0.008210 -0.260078
v -0.137310 0.002285 -0.260030
v 0.041847 0.008156 -0.260055
v -0.095417 0.008295 -0.261355
v -0.137315 0.008252 -0.260045
v 0.070263 0.008349 -0.260217
v -0.067451 0.008349 -0.260216
v -0.155328 0.002289 -0.260024
v -0.122557 0.008242 -0.260034
v 0.041847 0.002366 -0.260055
v -0.067450 0.008210 -0.260077
v -0.155339 0.008264 -0.260057
v -0.122557 0.008242 -0.261333
v -0.067450 0.008210 -0.260077
v -0.137315 0.008252 -0.260045
v -0.067451 0.008349 -0.261377
v 0.014766 0.008103 -0.260034
v -0.137902 0.008251 -0.261317
v -0.028809 0.008295 -0.261355
v -0.028809 0.008295 -0.260194
v 0.014766 0.002352 -0.260034
v -0.155339 0.008264 -0.260057
v -0.156644 0.008262 -0.261298
v 0.014766 0.008242 -0.261333
v -0.028809 0.008156 -0.260056
v 0.014766 0.008242 -0.260173
v 0.070263 0.002380 -0.260078
v 0.041847 0.008294 -0.261355
v 0.041847 0.002366 -0.260055
v 0.041847 0.008294 -0.260194
v 0.070263 0.008349 -0.261377
v 0.014766 0.008103 -0.260034
v 0.041847 0.008156 -0.260055
v 0.103966 0.008276 -0.260175
v 0.105171 0.008276 -0.261352
v 0.103856 0.008138 -0.260067
v 0.070263 0.008210 -0.260078
v 0.103477 0.002170 0.126665
v 0.103468 0.002171 0.008226
v 0.103469 0.000984 0.126659
v 0.103607 0.002310 0.008294
v 0.103573 0.002309 0.126766
v 0.103464 0.000979 0.008223
v 0.103395 0.000910 0.008190
v 0.103393 0.000908 -0.016932
v 0.103460 0.000975 -0.042441
v 0.103439 0.000977 -0.074220
v 0.103955 0.008179 0.127152
v 0.103937 0.008195 0.008459
v 0.103916 0.002378 0.127125
v 0.104076 0.008334 0.008525
v 0.104054 0.008318 0.127250
v 0.103918 0.002379 0.008446
v 0.103848 0.002310 0.008412
v 0.103849 0.002311 -0.016820
v 0.103919 0.002380 -0.042441
v 0.103897 0.002367 -0.074220
v -0.137114 0.000909 -0.259568
v -0.136698 0.000909 -0.258655
v -0.153970 0.000908 -0.258658
v -0.154892 0.000908 -0.259560
v 0.102504 0.000562 -0.128793
v 0.102511 0.000561 -0.145119
v 0.102533 0.000559 -0.184670
v 0.102493 0.000563 -0.247717
v 0.102513 0.000561 -0.217579
v 0.103429 0.002152 -0.128811
v 0.103438 0.002158 -0.145149
v 0.103460 0.002172 -0.184655
v 0.014766 0.002144 -0.259575
v 0.041847 0.002158 -0.259597
v 0.103416 0.002144 -0.247717
v 0.103438 0.002158 -0.217580
vn -1.0000 0.0083 -0.0002
vn -1.0000 -0.0000 0.0007
vn -1.0000 -0.0000 0.0003
vn -1.0000 0.0003 -0.0001
vn -1.0000 -0.0001 -0.0001
vn 0.0001 1.0000 0.0001
vn -0.0000 1.0000 -0.0001
vn -1.0000 0.0004 -0.0001
vn -0.0000 1.0000 0.0004
vn -0.0000 1.0000 -0.0000
vn -1.0000 0.0007 -0.0001
vn -1.0000 0.0080 0.0005
vn -1.0000 0.0008 -0.0001
vn -1.0000 0.0014 -0.0000
vn -1.0000 0.0081 0.0005
vn -1.0000 0.0013 -0.0001
vn -0.0000 1.0000 0.0001
vn -0.0001 1.0000 -0.0000
vn -1.0000 0.0027 0.0005
vn -1.0000 0.0026 0.0005
vn -0.0012 0.0001 1.0000
vn -0.0012 0.0020 1.0000
vn -0.0001 1.0000 -0.0001
vn -0.0000 1.0000 -0.0002
vn -0.0000 1.0000 0.0002
vn -1.0000 -0.0000 0.0002
vn -0.0001 1.0000 0.0001
vn -1.0000 0.0002 -0.0001
vn -0.0000 1.0000 0.0003
vn -1.0000 0.0008 0.0002
vn -1.0000 -0.0001 0.0007
vn -1.0000 0.0008 0.0001
vn -1.0000 0.0006 -0.0002
vn 0.0001 1.0000 -0.0000
vn -0.0000 1.0000 -0.0004
vn -1.0000 -0.0000 0.0004
vn -1.0000 -0.0000 -0.0000
vn -1.0000 0.0001 0.0007
vn -0.0008 0.0021 1.0000
vn 0.0001 1.0000 -0.0005
vn -0.0008 0.0001 1.0000
vn -0.0009 0.0019 1.0000
vn 0.0006 1.0000 0.0003
vn -1.0000 0.0023 0.0001
vn -1.0000 0.0047 0.0001
vn -1.0000 -0.0000 -0.0005
vn -1.0000 0.0001 -0.0006
vn 0.0001 1.0000 0.0003
vn -1.0000 -0.0000 -0.0006
vn -1.0000 0.0001 -0.0001
vn -1.0000 -0.0001 -0.0003
vn -1.0000 -0.0000 0.0006
vn -1.0000 -0.0000 0.0001
vn -0.0001 1.0000 -0.0005
vn -1.0000 0.0007 0.0001
vn -1.0000 0.0009 0.0002
vn -1.0000 -0.0001 0.0006
vn -0.0001 1.0000 -0.0004
vn -0.0000 1.0000 -0.0016
vn -1.0000 -0.0001 0.0001
vn -1.0000 -0.0000 -0.0002
vn -0.0008 -0.0007 1.0000
vn 0.0002 1.0000 -0.0000
vn -0.0008 0.0029 1.0000
vn -1.0000 0.0001 -0.0000
vn -1.0000 0.0024 0.0001
vn -0.0000 1.0000 -0.0017
vn -1.0000 0.0050 0.0001
vn 0.0001 1.0000 -0.0017
vn 0.0021 1.0000 0.0010
vn -0.0000 1.0000 0.0014
vn -1.0000 -0.0000 -0.0001
vn -0.0001 1.0000 -0.0017
vn 0.0001 1.0000 0.0002
vn 0.0002 1.0000 0.0003
vn -1.0000 0.0024 0.0002
vn 0.0021 1.0000 0.0011
vn 0.0004 1.0000 0.0002
vn 0.0008 1.0000 0.0001
vn 0.0005 1.0000 0.0001
vn 0.0008 -0.0000 1.0000
vn 0.0001 -0.0000 1.0000
vn 0.0007 -0.0000 1.0000
vn 0.0008 0.0001 1.0000
vn -0.0001 -0.0000 1.0000
vn -0.0003 1.0000 -0.0000
vn -0.0012 0.0021 1.0000
vn 0.0004 1.0000 -0.0000
vn -0.0000 -0.0000 1.0000
vn -0.0002 0.0009 1.0000
vn -0.0001 0.0008 1.0000
vn 0.0001 -0.0003 1.0000
vn -0.0000 -0.0003 1.0000
vn -0.0002 0.0010 1.0000
vn 0.0006 -0.0000 1.0000
vn -0.0002 1.0000 0.0001
vn 0.0005 0.0028 1.0000
vn -0.0000 -0.0002 1.0000
vn 0.0004 0.0024 1.0000
vn -0.0002 1.0000 -0.0000
vn -0.0001 1.0000 -0.0012
vn 0.0004 0.0026 1.0000
vn 0.0002 1.0000 -0.0003
vn 0.0003 1.0000 0.0001
vn -0.0003 -0.0003 1.0000
vn 0.0002 1.0000 -0.0007
vn 0.0003 -0.0000 1.0000
vn 0.0006 -0.0001 1.0000
vn 0.0008 -0.0001 1.0000
vn 0.0004 -0.0001 1.0000
vn -0.0011 0.0020 1.0000
vn 0.0001 -0.0002 1.0000
vn -0.0005 1.0000 -0.0000
vn -0.0001 1.0000 -0.0011
vn -0.0008 0.0020 1.0000
vn 0.0001 1.0000 -0.0011
vn -0.0002 1.0000 -0.0011
vn -0.0001 -0.0003 1.0000
vn 0.0006 1.0000 0.0004
vn -0.0001 -0.0001 1.0000
vn -0.0002 1.0000 -0.0012
vn 0.0009 -0.0000 1.0000
vn -0.0003 0.0028 1.0000
vn 0.0001 -0.0001 1.0000
vn 0.0003 0.0023 1.0000
vn -0.0000 0.0024 1.0000
vn -0.0019 1.0000 0.0001
vn -0.0019 1.0000 -0.0000
vn 0.0008 1.0000 -0.0013
vn -0.0003 1.0000 -0.0010
vn -0.0002 1.0000 -0.0010
vn 0.0009 1.0000 -0.0013
vn -0.0000 -0.0001 1.0000
vn 0.0007 -0.0001 1.0000
vn -1.0000 0.0048 0.0001
vn 0.0001 1.0000 -0.0001
vn -1.0000 0.0051 0.0001
vn -1.0000 0.0025 0.0002
vn 0.0003 1.0000 0.0003
vn 0.0006 1.0000 0.0001
vn -1.0000 -0.0001 0.0002
vn -1.0000 0.0079 0.0005
vn -1.0000 0.0079 0.0004
vt 1.046555 -1.197940
vt 1.049191 -1.279967
vt 1.727377 -1.198463
vt 1.727384 -1.280316
vt 2.738775 -1.281997
vt 2.738768 -1.199168
vt 3.724174 -1.283635
vt 3.724168 -1.199854
vt 4.323989 -1.199770
vt 0.544917 -1.279707
vt 1.727375 -1.181484
vt 3.724166 -1.182478
vt 4.323936 -1.283411
vt 0.540327 -1.197551
vt 2.738798 -1.181988
vt 1.046961 -1.180916
vt 4.986961 -1.199689
vt -0.688302 -1.279707
vt 4.986848 -1.283191
vt -0.686071 -1.196706
vt 7.379269 -1.282712
vt -1.706539 -1.196067
vt 7.379512 -1.199511
vt -0.686389 -1.179470
vt -1.706502 -1.278480
vt 4.989374 -1.182503
vt 7.379562 -1.182326
vt -1.706530 -1.178965
vt -2.675349 -1.195460
vt -2.675342 -1.277313
vt -3.014510 -1.277876
vt -3.014731 -1.195314
vt -2.675351 -1.178480
vt -3.014537 -1.178190
vt 1.727430 -1.170217
vt 1.046063 -1.169648
vt 1.727397 -1.176907
vt 2.738789 -1.177411
vt 1.046031 -1.176338
vt 2.738822 -1.170721
vt 0.539430 -1.169225
vt 3.724189 -1.177902
vt 2.738827 -1.166369
vt 2.738766 -1.181988
vt 0.539397 -1.175915
vt 1.727434 -1.165865
vt 3.724221 -1.171212
vt -0.685552 -1.168203
vt 1.727430 -1.108146
vt 4.326561 -1.177866
vt -0.685585 -1.174893
vt 2.738822 -1.107839
vt 4.324287 -1.182441
vt -1.706491 -1.167696
vt 3.724226 -1.166860
vt 3.724167 -1.182478
vt -0.685548 -1.167288
vt 3.724221 -1.107541
vt -1.706524 -1.174386
vt 4.986984 -1.182405
vt 4.330850 -1.166772
vt 3.724220 -1.100668
vt -2.675295 -1.167214
vt 4.992026 -1.177831
vt 2.738822 -1.100967
vt -1.706487 -1.163345
vt -1.706486 -1.166781
vt 4.330335 -1.171125
vt -2.675328 -1.173903
vt -2.675290 -1.162862
vt 4.330891 -1.107569
vt 4.999509 -1.171040
vt -2.675295 -1.105143
vt -3.023248 -1.174593
vt -1.706491 -1.104846
vt -3.041745 -1.166741
vt -3.043586 -1.104264
vt 7.387032 -1.179030
vt -2.675290 -1.166298
vt -2.675296 -1.098271
vt 7.406147 -1.170598
vt -3.043435 -1.162586
vt -3.043395 -1.166027
vt -3.043317 -1.097382
vt 5.000517 -1.170125
vt 7.404122 -1.169939
vt 1.046063 -1.107125
vt 1.727429 -1.101274
vt 1.046068 -1.165296
vt 1.046064 -1.100253
vt 0.539430 -1.106366
vt 0.539434 -1.164874
vt -0.685553 -1.104532
vt -0.685548 -1.163852
vt -0.685553 -1.097660
vt 1.727434 -1.169302
vt -1.706451 -1.097974
vt 1.046070 -1.168733
vt 1.727455 -1.096135
vt 1.046088 -1.095114
vt 1.727438 -1.099443
vt 2.738830 -1.099136
vt 1.046072 -1.098423
vt 2.738846 -1.095828
vt 1.727429 -1.101274
vt 0.539454 -1.094355
vt 3.724230 -1.098838
vt 2.738850 -1.091476
vt 2.738822 -1.100967
vt 0.539438 -1.097663
vt 1.727459 -1.091784
vt 3.724246 -1.095530
vt -0.685528 -1.092521
vt 1.727436 -0.806912
vt 4.331957 -1.098864
vt -0.685544 -1.095829
vt 2.738827 -0.804628
vt 4.331037 -1.100694
vt -1.706467 -1.092835
vt 3.724251 -1.091178
vt 3.724221 -1.100668
vt -0.685523 -1.091605
vt 3.724226 -0.802401
vt -1.706483 -1.096144
vt 5.000618 -1.100718
vt 4.334370 -1.091271
vt 3.724221 -0.795530
vt -2.675270 -1.093132
vt 5.002739 -1.098889
vt 2.738826 -0.797755
vt -1.706463 -1.088483
vt -1.705890 -1.091919
vt 4.333837 -1.095624
vt -2.675287 -1.096440
vt -2.675266 -1.088780
vt 4.334548 -0.802715
vt 5.006419 -1.095716
vt -2.675289 -0.803909
vt -3.046909 -1.095886
vt -1.706486 -0.801711
vt -3.055526 -1.091989
vt -3.057185 -1.087814
vt 7.410972 -1.099509
vt -2.675265 -1.092216
vt -3.058251 -0.802205
vt 7.420537 -1.095635
vt -0.685523 -1.088169
vt -3.057172 -1.091245
vt 5.007481 -1.094802
vt -0.685547 -0.799392
vt -2.675290 -0.797037
vt 7.419005 -1.095004
vt 0.539458 -1.090003
vt -0.685549 -0.792521
vt -3.058277 -0.795345
vt -1.706487 -0.794838
vt 0.539434 -0.803210
vt 1.046068 -0.804789
vt 1.046092 -1.090763
vt 1.727434 -0.800040
vt 1.046079 -0.797921
vt 1.727459 -1.095220
vt 1.046094 -1.094199
vt 1.398069 -0.780775
vt 1.083659 -0.796086
vt 2.517709 -0.782898
vt 0.542223 -0.794507
vt 1.811827 -0.798209
vt 0.565555 -0.779196
vt 7.545719 -0.780612
vt 0.539433 -0.796338
vt -0.766908 -0.790690
vt 3.138460 -0.795925
vt 1.046068 -0.797917
vt -1.447367 -0.775378
vt 6.870679 -0.778386
vt 1.727435 -0.800040
vt -0.685548 -0.792520
vt -1.857980 -0.793008
vt 5.070235 -0.793698
vt 2.738826 -0.797755
vt -3.125001 -0.777695
vt 5.160076 -0.794011
vt -2.893317 -0.795206
vt 4.334749 -0.795841
vt 6.981155 -0.778869
vt -4.716966 -0.779895
vt 5.007870 -0.796146
vt 3.724226 -0.795529
vt -3.255044 -0.793891
vt 4.124990 -0.794319
vt -5.411726 -0.777955
vt 7.164303 -0.779345
vt 7.427499 -0.795527
vt 7.481337 -0.780380
vt -0.150744 0.002472
vt -0.147960 0.627162
vt -0.182059 0.002540
vt -0.184159 -0.385694
vt -0.179640 0.627231
vt -0.152483 -0.385763
vt -0.145492 1.181127
vt -0.186360 -0.793068
vt -0.144248 0.002458
vt -0.141389 0.627148
vt -0.177544 1.181196
vt -0.154307 -0.793138
vt -0.175379 1.582122
vt -0.156468 -1.273948
vt -0.188053 -1.273777
vt -0.147660 -0.793150
vt -0.145913 -0.385781
vt -0.138823 1.186084
vt -0.137124 1.582038
vt -0.132455 1.582014
vt -0.173268 1.971203
vt -0.134171 1.182082
vt -0.135457 1.971121
vt -0.134526 1.181088
vt -0.134831 2.110272
vt -0.130789 1.971096
vt -0.107530 1.183018
vt -0.137090 1.181100
vt -0.172743 2.110373
vt -0.106124 1.581957
vt -0.138841 1.180187
vt -0.172103 2.280352
vt -0.137071 0.627125
vt -0.139635 0.627138
vt -0.134067 2.280228
vt -0.104763 1.971039
vt -0.135406 0.627120
vt -0.130184 2.116199
vt -0.103804 1.581945
vt -0.142494 0.002449
vt -0.104081 2.116153
vt -0.102443 1.971027
vt -0.139930 0.002435
vt -0.129446 2.293423
vt -0.144159 -0.385786
vt -0.139579 0.002434
vt -0.103249 2.293391
vt -0.101755 2.118945
vt -0.141595 -0.385800
vt -0.136720 0.627122
vt -0.145906 -0.793162
vt -0.139929 -0.385805
vt -0.144248 0.002443
vt -0.100916 2.299607
vt -0.138265 0.002430
vt -0.143342 -0.793176
vt -0.145913 -0.385777
vt -0.116183 0.002382
vt -0.148550 -1.277892
vt -0.142991 -0.793178
vt -0.141244 -0.385858
vt -0.117548 -0.385853
vt -0.149916 -1.273950
vt -0.145565 -1.286424
vt -0.113021 0.627072
vt -0.141677 -0.793180
vt -0.147660 -0.793153
vt -0.143977 -1.287209
vt -0.118982 -0.793230
vt -0.112852 0.002373
vt -0.132861 1.181085
vt -0.115652 -0.793239
vt -0.109690 0.627062
vt -0.110175 1.181036
vt -0.121677 -1.287358
vt -0.114217 -0.385863
vt -0.108422 0.627056
vt -0.111584 0.002366
vt -0.106836 1.181024
vt -0.112949 -0.385870
vt -0.105571 1.181021
vt -0.107538 1.180624
vt -0.114384 -0.793246
vt -0.111234 0.002365
vt -0.110391 0.627241
vt -0.118512 -1.289000
vt -0.108071 0.627053
vt -0.105214 1.182011
vt -0.119045 -1.287375
vt -0.106757 0.627051
vt -0.117123 -1.293235
vt -0.116353 -0.793236
vt -0.112719 -0.793251
vt 0.009871 1.581697
vt -0.103903 1.181014
vt -0.115540 -1.294040
vt -0.005906 -1.293724
vt 0.002968 0.626812
vt 0.010486 1.970781
vt 0.009209 1.182757
vt -0.002240 -0.793491
vt -0.001568 -0.386113
vt 0.016440 1.581662
vt 0.011387 2.118770
vt 0.001091 -0.793501
vt 0.009907 1.180763
vt -0.111284 -0.385874
vt 0.006574 1.180770
vt 0.012488 2.299519
vt 0.017055 1.970746
vt 0.009208 1.180207
vt 0.015775 1.180733
vt -0.000934 0.002124
vt 0.017841 2.127154
vt 0.012166 0.626772
vt 0.006299 0.626802
vt -0.109919 0.002362
vt 0.018801 2.318186
vt 0.008264 0.002084
vt 0.005597 0.626834
vt 0.002397 0.002115
vt -0.114033 -0.793248
vt 0.007631 -0.386154
vt -0.112598 -0.385871
vt 0.001763 -0.386123
vt 0.006959 -0.793532
vt 0.001695 0.002106
vt 0.001061 -0.386119
vt -0.002737 -1.295297
vt 0.003136 -1.312615
vt -0.003273 -1.293717
vt 0.000390 -0.793497
vt 7.407834 -1.107655
vt 5.000607 -1.107596
vt 7.407650 -1.166497
vt 5.001754 -1.100748
vt 7.407856 -1.100771
vt 5.000522 -1.166686
vt 5.000429 -1.170125
vt 4.330848 -1.170210
vt 3.724225 -1.170296
vt 2.738827 -1.169806
vt 7.422912 -0.803696
vt 5.007860 -0.803024
vt 7.422104 -1.091562
vt 5.009158 -0.796300
vt 7.422931 -0.796812
vt 5.007484 -1.091363
vt 5.007378 -1.094413
vt 4.334368 -1.094709
vt 3.724250 -1.094614
vt 2.739444 -1.094912
vt 1.046008 -1.180915
vt 0.539870 -1.180481
vt -0.685608 -1.179471
vt -2.675289 -1.178480
vt -1.706547 -1.178963
vt 1.046063 -1.100253
vt 0.539429 -1.099494
vt -0.113554 0.002377
vt -0.114919 -0.385859
vt -1.706491 -1.097974
s 1
g roomShell1_room:GUI__BonnieRoom_whitetile_room:GUI__BonnieRoom_whitetile
usemtl room:GUI__BonnieRoom_whitetile
f 1/1/1 2/2/1 3/3/2
f 3/3/2 2/2/1 4/4/3
f 5/5/2 3/3/2 4/4/3
f 6/6/2 3/3/2 5/5/2
f 7/7/3 6/6/2 5/5/2
f 8/8/4 6/6/2 7/7/3
f 7/7/3 9/9/5 8/8/4
f 2/2/1 1/1/1 10/10/1
f 3/3/2 11/11/6 1/1/1
f 12/12/7 6/6/2 8/8/4
f 13/13/8 9/9/5 7/7/3
f 10/10/1 1/1/1 14/14/1
f 15/15/9 6/6/2 12/12/7
f 1/1/1 11/11/6 16/16/10
f 13/13/8 17/17/11 9/9/5
f 10/10/1 14/14/1 18/18/12
f 19/19/13 17/17/11 13/13/8
f 18/18/12 14/14/1 20/20/12
f 21/21/14 17/17/11 19/19/13
f 20/20/12 22/22/15 18/18/12
f 23/23/16 17/17/11 21/21/14
f 20/20/12 24/24/17 22/22/15
f 18/18/12 22/22/15 25/25/12
f 23/23/16 26/26/7 17/17/11
f 27/27/18 26/26/7 23/23/16
f 22/22/15 24/24/17 28/28/17
f 22/22/15 29/29/19 25/25/12
f 25/25/12 29/29/19 30/30/20
f 29/29/19 31/31/21 30/30/20
f 32/32/22 31/31/21 29/29/19
f 29/29/19 33/33/17 32/32/22
f 32/32/22 33/33/17 34/34/23
f 35/35/10 36/36/24 37/37/17
f 38/38/10 35/35/10 37/37/17
f 37/37/17 36/36/24 39/39/10
f 40/40/25 35/35/10 38/38/10
f 37/37/17 41/11/2 38/38/10
f 42/41/10 39/39/10 36/36/24
f 43/42/10 40/40/25 38/38/10
f 44/43/2 35/35/10 40/40/25
f 38/38/10 41/11/2 45/44/3
f 46/45/7 39/39/10 42/41/10
f 47/46/26 35/35/10 44/43/2
f 48/47/17 40/40/25 43/42/10
f 49/48/18 46/45/7 42/41/10
f 44/43/2 50/49/2 47/46/26
f 43/42/10 51/50/7 48/47/17
f 52/51/27 46/45/7 49/48/18
f 53/52/2 50/49/2 44/43/2
f 43/42/10 54/53/28 51/50/7
f 49/48/18 55/54/29 52/51/27
f 56/55/30 53/52/2 44/43/2
f 57/56/28 54/53/28 43/42/10
f 49/48/18 58/57/31 55/54/29
f 59/58/32 53/52/2 56/55/30
f 52/51/27 55/54/29 60/59/27
f 61/60/33 51/50/7 54/53/28
f 56/55/30 62/61/32 59/58/32
f 63/62/34 53/52/2 59/58/32
f 55/54/29 64/63/24 60/59/27
f 65/64/23 51/50/7 61/60/33
f 66/65/35 53/52/2 63/62/34
f 67/66/2 64/63/24 55/54/29
f 55/54/29 58/57/31 68/67/36
f 51/50/7 65/64/23 69/68/7
f 60/59/27 64/63/24 70/69/17
f 71/70/37 64/63/24 67/66/2
f 59/58/32 62/61/32 72/71/32
f 69/68/7 65/64/23 73/72/23
f 67/66/2 74/73/38 71/70/37
f 64/63/24 75/74/23 70/69/17
f 48/47/17 51/50/7 69/68/7
f 76/75/38 74/73/38 67/66/2
f 77/76/10 75/74/23 64/63/24
f 74/73/38 78/77/39 71/70/37
f 79/78/18 73/72/23 65/64/23
f 64/63/24 80/79/2 77/76/10
f 74/73/38 81/80/40 78/77/39
f 82/81/10 73/72/23 79/78/18
f 71/70/37 78/77/39 83/82/41
f 77/76/10 80/79/2 84/83/42
f 78/77/39 81/80/40 85/84/43
f 82/81/10 86/85/44 73/72/23
f 87/86/45 86/85/44 82/81/10
f 50/49/2 88/87/46 47/46/26
f 50/49/2 89/88/35 88/87/46
f 47/46/26 88/87/46 90/89/47
f 88/87/46 89/88/35 91/90/48
f 92/91/49 90/89/47 88/87/46
f 93/92/49 90/89/47 92/91/49
f 94/93/38 93/92/49 92/91/49
f 42/41/10 90/89/47 93/92/49
f 95/94/50 93/92/49 94/93/38
f 36/36/24 90/89/47 42/41/10
f 94/93/38 76/75/38 95/94/50
f 95/94/50 49/48/18 93/92/49
f 93/92/49 49/48/18 42/41/10
f 94/93/38 96/95/40 76/75/38
f 35/35/10 97/96/2 36/36/24
f 95/94/50 76/75/38 67/66/2
f 76/75/38 96/95/40 98/97/35
f 36/36/24 97/96/2 99/98/51
f 100/99/10 101/100/17 102/101/35
f 103/102/35 100/99/10 102/101/35
f 102/101/35 101/100/17 104/103/29
f 105/104/7 100/99/10 103/102/35
f 102/101/35 106/105/52 103/102/35
f 107/106/29 104/103/29 101/100/17
f 108/107/27 105/104/7 103/102/35
f 109/108/38 100/99/10 105/104/7
f 103/102/35 106/105/52 110/109/31
f 111/110/29 104/103/29 107/106/29
f 112/111/53 100/99/10 109/108/38
f 113/112/7 105/104/7 108/107/27
f 114/113/10 111/110/29 107/106/29
f 109/108/38 115/114/52 112/111/53
f 108/107/27 116/115/17 113/112/7
f 117/116/54 111/110/29 114/113/10
f 118/117/2 115/114/52 109/108/38
f 108/107/27 119/118/55 116/115/17
f 114/113/10 120/119/7 117/116/54
f 121/120/56 118/117/2 109/108/38
f 122/121/55 119/118/55 108/107/27
f 114/113/10 123/122/57 120/119/7
f 124/123/56 118/117/2 121/120/56
f 117/116/54 120/119/7 125/124/58
f 126/125/44 116/115/17 119/118/55
f 121/120/56 127/126/30 124/123/56
f 128/127/48 118/117/2 124/123/56
f 120/119/7 129/128/24 125/124/58
f 130/129/10 116/115/17 126/125/44
f 131/130/59 118/117/2 128/127/48
f 132/131/38 129/128/24 120/119/7
f 120/119/7 123/122/57 133/132/60
f 116/115/17 130/129/10 134/133/10
f 125/124/58 129/128/24 135/134/58
f 136/135/61 129/128/24 132/131/38
f 124/123/56 127/126/30 137/136/56
f 134/133/10 130/129/10 138/137/10
f 132/131/38 139/138/38 136/135/61
f 129/128/24 140/139/43 135/134/58
f 113/112/7 116/115/17 134/133/10
f 141/140/2 139/138/38 132/131/38
f 142/141/43 140/139/43 129/128/24
f 139/138/38 143/142/62 136/135/61
f 144/143/63 138/137/10 130/129/10
f 129/128/24 145/144/2 142/141/43
f 146/145/64 143/142/62 139/138/38
f 147/146/63 138/137/10 144/143/63
f 148/147/65 141/140/2 132/131/38
f 142/141/43 145/144/2 149/148/64
f 147/146/63 150/149/66 138/137/10
f 151/150/2 141/140/2 148/147/65
f 139/138/38 152/151/67 146/145/64
f 153/152/68 150/149/66 147/146/63
f 148/147/65 154/153/49 151/150/2
f 151/150/2 155/154/69 141/140/2
f 146/145/64 152/151/67 156/155/70
f 141/140/2 155/154/69 157/156/59
f 148/147/65 114/113/10 154/153/49
f 151/150/2 154/153/49 158/157/49
f 154/153/49 114/113/10 107/106/29
f 154/153/49 159/158/46 158/157/49
f 107/106/29 160/159/47 154/153/49
f 160/159/47 159/158/46 154/153/49
f 101/100/17 160/159/47 107/106/29
f 112/111/53 159/158/46 160/159/47
f 115/114/52 159/158/46 112/111/53
f 115/114/52 161/160/59 159/158/46
f 159/158/46 161/160/59 162/161/71
f 100/99/10 163/162/31 101/100/17
f 101/100/17 163/162/31 164/163/72
f 165/164/71 166/165/71 167/166/59
f 165/164/71 168/167/71 166/165/71
f 167/166/59 166/165/71 169/168/73
f 170/169/71 168/167/71 165/164/71
f 167/166/59 169/168/73 171/170/67
f 172/171/49 166/165/71 168/167/71
f 170/169/71 173/172/67 168/167/71
f 171/170/67 169/168/73 174/173/73
f 175/174/49 166/165/71 172/171/49
f 176/175/59 173/172/67 170/169/71
f 171/170/67 174/173/73 177/176/74
f 169/168/73 178/177/52 174/173/73
f 168/167/71 179/178/31 172/171/49
f 173/172/67 179/178/31 168/167/71
f 176/175/59 180/179/67 173/172/67
f 177/176/74 174/173/73 181/180/29
f 174/173/73 178/177/52 182/181/31
f 183/182/67 180/179/67 176/175/59
f 181/180/29 184/183/29 177/176/74
f 183/182/67 185/184/67 180/179/67
f 181/180/29 186/185/30 184/183/29
f 177/176/74 184/183/29 187/186/75
f 188/187/67 185/184/67 183/182/67
f 185/184/67 189/151/2 180/179/67
f 190/188/76 184/183/29 186/185/30
f 191/189/30 186/185/30 181/180/29
f 188/187/67 192/190/77 185/184/67
f 180/179/67 189/151/2 193/156/31
f 184/183/29 194/191/75 187/186/75
f 194/191/75 184/183/29 190/188/76
f 195/192/77 192/190/77 188/187/67
f 187/186/75 194/191/75 196/193/78
f 194/191/75 197/194/79 196/193/78
f 196/193/78 197/194/79 198/195/80
f 199/196/81 200/197/82 201/198/83
f 202/199/81 199/196/81 201/198/83
f 201/198/83 200/197/82 203/200/82
f 204/201/84 199/196/81 202/199/81
f 200/197/82 205/202/85 203/200/82
f 206/203/81 204/201/84 202/199/81
f 199/196/81 207/204/7 200/197/82
f 200/197/82 207/204/7 208/205/86
f 203/200/82 205/202/85 209/206/82
f 210/207/81 204/201/84 206/203/81
f 209/206/82 205/202/85 211/208/82
f 206/203/81 212/209/87 210/207/81
f 213/210/87 212/209/87 206/203/81
f 210/207/81 214/211/34 204/201/84
f 204/201/84 214/211/34 215/212/88
f 205/202/85 216/213/89 211/208/82
f 216/213/89 217/214/89 211/208/82
f 217/214/89 216/213/89 218/215/10
f 219/216/81 211/208/82 217/214/89
f 218/215/10 216/213/89 220/217/34
f 221/218/90 219/216/81 217/214/89
f 222/218/10 217/214/89 218/215/10
f 220/217/34 216/213/89 223/219/17
f 224/220/91 219/216/81 221/218/90
f 225/221/10 222/218/10 218/215/10
f 218/215/10 220/217/34 226/222/92
f 216/213/89 227/223/17 223/219/17
f 228/224/91 219/216/81 224/220/91
f 229/225/93 218/215/10 226/222/92
f 227/223/17 216/213/89 230/226/82
f 228/224/91 224/220/91 231/227/94
f 218/215/10 229/225/93 232/221/95
f 233/228/96 223/219/17 227/223/17
f 230/226/82 234/229/17 227/223/17
f 231/227/94 224/220/91 235/230/90
f 236/231/97 232/221/95 229/225/93
f 234/229/17 233/228/96 227/223/17
f 237/205/85 234/229/17 230/226/82
f 233/228/96 238/232/98 223/219/17
f 239/233/99 232/221/95 236/231/97
f 240/231/100 229/225/93 241/234/101
f 242/235/34 233/228/96 234/229/17
f 243/236/102 239/233/99 236/231/97
f 244/237/103 240/231/100 241/234/101
f 245/238/34 233/228/96 242/235/34
f 239/233/99 243/236/102 246/239/97
f 247/236/103 240/231/100 244/237/103
f 248/240/34 245/238/34 242/235/34
f 245/238/34 249/241/83 233/228/96
f 246/239/97 243/236/102 250/242/97
f 251/243/103 247/236/103 244/237/103
f 252/244/104 245/238/34 248/240/34
f 233/228/96 249/241/83 253/245/105
f 247/236/103 251/243/103 254/242/106
f 255/246/6 252/244/104 248/240/34
f 256/247/81 245/238/34 252/244/104
f 242/235/34 257/248/81 248/240/34
f 254/242/106 251/243/103 258/249/106
f 259/250/107 245/238/34 256/247/81
f 260/251/10 252/244/104 255/246/6
f 248/240/34 257/248/81 261/252/108
f 256/247/81 262/253/84 259/250/107
f 255/246/6 263/254/18 260/251/10
f 260/251/10 264/255/109 252/244/104
f 252/244/104 264/255/109 265/256/110
f 266/257/81 262/253/84 256/247/81
f 263/254/18 255/246/6 267/258/111
f 260/251/10 263/254/18 268/259/23
f 262/253/84 269/260/112 259/250/107
f 270/261/85 266/257/81 256/247/81
f 268/259/23 270/261/85 260/251/10
f 267/258/111 255/246/6 271/262/109
f 259/250/107 269/260/112 238/232/98
f 272/263/39 270/261/85 268/259/23
f 273/264/81 266/257/81 270/261/85
f 262/253/84 274/265/113 269/260/112
f 238/232/98 269/260/112 275/266/112
f 270/261/85 272/263/39 273/264/81
f 273/264/81 276/267/113 266/257/81
f 269/260/112 274/265/113 277/268/114
f 269/260/112 278/269/93 275/266/112
f 273/264/81 272/263/39 279/270/115
f 266/257/81 276/267/113 280/271/113
f 274/265/113 281/272/116 277/268/114
f 275/266/112 278/269/93 226/222/92
f 223/219/17 238/232/98 275/266/112
f 280/271/113 282/273/10 274/265/113
f 282/273/10 281/272/116 274/265/113
f 277/268/114 281/272/116 283/274/114
f 275/266/112 220/217/34 223/219/17
f 220/217/34 275/266/112 226/222/92
f 284/275/18 282/273/10 280/271/113
f 276/267/113 284/275/18 280/271/113
f 281/272/116 285/276/117 283/274/114
f 286/277/93 277/268/114 283/274/114
f 226/222/92 283/274/114 285/276/117
f 287/278/10 284/275/18 276/267/113
f 282/273/10 288/279/109 281/272/116
f 283/274/114 226/222/92 286/277/93
f 289/280/118 277/268/114 286/277/93
f 276/267/113 290/281/119 287/278/10
f 281/272/116 288/279/109 291/282/120
f 292/283/121 226/222/92 285/276/117
f 290/281/119 276/267/113 293/284/115
f 281/272/116 294/285/89 285/276/117
f 287/278/10 290/281/119 295/286/43
f 241/234/101 226/222/92 292/283/121
f 293/284/115 276/267/113 296/287/81
f 295/286/43 297/288/89 287/278/10
f 241/234/101 292/283/121 298/289/89
f 229/225/93 226/222/92 241/234/101
f 285/276/117 294/285/89 299/290/89
f 300/291/64 297/288/89 295/286/43
f 299/290/89 292/283/121 285/276/117
f 301/237/122 241/234/101 298/289/89
f 300/291/64 302/292/64 297/288/89
f 294/285/89 303/293/89 299/290/89
f 304/294/123 301/237/122 298/289/89
f 298/289/89 292/283/121 305/295/124
f 297/288/89 302/292/64 306/296/84
f 292/283/121 299/290/89 305/295/124
f 307/243/125 301/237/122 304/294/123
f 306/296/84 308/297/84 297/288/89
f 305/295/124 309/298/18 298/289/89
f 310/299/126 307/243/125 304/294/123
f 306/296/84 311/300/127 308/297/84
f 312/301/18 309/298/18 305/295/124
f 307/243/125 310/299/126 313/249/123
f 314/294/128 298/289/89 309/298/18
f 297/288/89 308/297/84 315/302/81
f 299/290/89 316/303/89 305/295/124
f 313/249/123 310/299/126 317/304/123
f 318/305/129 314/294/128 309/298/18
f 303/293/89 316/303/89 299/290/89
f 312/301/18 305/295/124 319/306/89
f 320/299/130 314/294/128 318/305/129
f 321/307/34 309/298/18 312/301/18
f 308/297/84 322/308/81 315/302/81
f 323/309/131 320/299/130 318/305/129
f 324/310/18 321/307/34 312/301/18
f 319/306/89 325/311/27 312/301/18
f 315/302/81 322/308/81 326/312/82
f 323/309/131 327/304/132 320/299/130
f 325/311/27 324/310/18 312/301/18
f 326/312/82 282/273/10 315/302/81
f 328/313/132 327/304/132 323/309/131
f 324/310/18 325/311/27 329/314/128
f 322/308/81 303/293/89 326/312/82
f 315/302/81 282/273/10 284/275/18
f 330/315/133 325/311/27 319/306/89
f 322/308/81 331/316/128 303/293/89
f 329/314/128 325/311/27 331/316/128
f 326/312/82 303/293/89 294/285/89
f 287/278/10 332/317/109 284/275/18
f 329/314/128 331/316/128 333/318/128
f 303/293/89 331/316/128 325/311/27
f 284/275/18 332/317/109 334/319/124
f 333/318/128 331/316/128 335/320/128
f 333/318/128 335/320/128 336/321/128
f 331/316/128 337/322/109 335/320/128
f 336/321/128 335/320/128 311/300/127
f 335/320/128 337/322/109 338/323/81
f 311/300/127 339/324/77 336/321/128
f 308/297/84 311/300/127 335/320/128
f 336/321/128 339/324/77 340/325/70
f 339/324/77 311/300/127 341/326/64
f 341/326/64 311/300/127 342/327/134
f 343/328/135 344/329/66 345/330/135
f 343/328/135 346/331/34 344/329/66
f 347/332/63 346/331/34 343/328/135
f 345/330/135 344/329/66 348/333/44
f 72/71/32 348/333/44 344/329/66
f 62/61/32 348/333/44 72/71/32
f 348/333/44 62/61/32 349/334/7
f 349/334/7 62/61/32 350/335/7
f 56/55/30 350/335/7 62/61/32
f 48/47/136 350/335/7 56/55/30
f 351/336/55 40/40/25 48/47/17
f 352/337/36 40/40/25 351/336/55
f 353/338/137 354/339/138 355/340/68
f 353/338/137 356/341/139 354/339/138
f 357/342/140 356/341/139 353/338/137
f 355/340/68 354/339/138 358/343/138
f 137/136/56 358/343/138 354/339/138
f 127/126/30 358/343/138 137/136/56
f 358/343/138 127/126/30 359/344/6
f 359/344/6 127/126/30 360/345/10
f 121/120/56 360/345/10 127/126/30
f 113/112/34 360/345/10 121/120/56
f 361/346/30 105/104/7 113/112/7
f 362/347/141 105/104/7 361/346/30
f 363/233/17 364/220/10 225/221/10
f 364/220/10 363/233/17 365/230/17
f 364/220/10 222/218/10 225/221/10
f 365/230/17 363/233/17 366/239/17
f 367/348/1 39/39/10 368/349/1
f 368/349/1 39/39/10 46/45/7
f 46/45/7 369/350/142 368/349/1
f 52/51/27 369/350/142 46/45/7
f 70/69/17 370/351/20 60/59/27
f 60/59/27 370/351/20 371/352/143
f 372/353/46 104/103/29 373/354/49
f 373/354/49 104/103/29 111/110/29
f 111/110/29 374/95/52 373/354/49
f 117/116/54 374/95/52 111/110/29
f 274/265/113 375/355/109 280/271/113
f 280/271/113 375/355/109 376/356/109
f 135/134/58 377/80/2 125/124/58
f 125/124/58 377/80/2 378/357/57
