# Blender 4.1.1
# www.blender.org
mtllib BasketLegs.mtl
o basketBigMain_trash_jordanNew_wood_SwitchTable_Light
v -0.033567 0.009399 -0.071660
v -0.033567 0.007457 -0.071660
v -0.038208 0.009399 -0.071660
v -0.038208 0.007457 -0.071660
v -0.038410 0.007457 -0.071458
v -0.037795 0.004565 -0.071996
v -0.038410 0.009399 -0.071458
v -0.037996 0.004565 -0.071794
v -0.033154 0.004565 -0.071996
v -0.038410 0.009399 -0.066817
v -0.037996 0.004565 -0.067153
v -0.037421 0.002728 -0.072447
v -0.038410 0.007457 -0.066817
v -0.037623 0.002728 -0.072245
v -0.032781 0.002728 -0.072447
v -0.038208 0.007457 -0.066615
v -0.037623 0.002728 -0.067604
v -0.038208 0.009399 -0.066615
v -0.037331 0.002285 -0.072556
v -0.033567 0.009399 -0.066615
v -0.037421 0.002728 -0.067403
v -0.037533 0.002285 -0.072354
v -0.033567 0.007457 -0.066615
v -0.037795 0.004565 -0.066951
v -0.037010 0.001707 -0.072123
v -0.033366 0.007457 -0.066817
v -0.033154 0.004565 -0.066951
v -0.036841 0.001707 -0.072292
v -0.033366 0.009399 -0.066817
v -0.032691 0.002285 -0.072556
v -0.033366 0.009399 -0.071458
v -0.032952 0.004565 -0.067153
v -0.037010 0.001707 -0.068228
v -0.032946 0.001707 -0.072292
v -0.033366 0.007457 -0.071458
v -0.037533 0.002285 -0.067713
v -0.032781 0.002728 -0.067403
v -0.033567 0.007457 -0.071660
v -0.036841 0.001707 -0.068059
v -0.032952 0.004565 -0.071794
v -0.037331 0.002285 -0.067511
v -0.033567 0.009399 -0.071660
v -0.033154 0.004565 -0.071996
v -0.032691 0.002285 -0.067511
v -0.032946 0.001707 -0.068059
v -0.032579 0.002728 -0.072245
v -0.032579 0.002728 -0.067604
v -0.032489 0.002285 -0.067713
v -0.032781 0.002728 -0.072447
v -0.032489 0.002285 -0.072354
v -0.032777 0.001707 -0.068228
v -0.032691 0.002285 -0.072556
v -0.032777 0.001707 -0.072123
v -0.032946 0.001707 -0.072292
v -0.033567 0.009399 -0.097739
v -0.038208 0.009399 -0.097739
v -0.033567 0.007457 -0.097739
v -0.033366 0.009399 -0.097940
v -0.038208 0.007457 -0.097739
v -0.033366 0.007457 -0.097940
v -0.037795 0.004565 -0.097358
v -0.033366 0.007457 -0.102581
v -0.033154 0.004565 -0.097358
v -0.033366 0.009399 -0.102581
v -0.037214 0.001707 -0.096656
v -0.032952 0.004565 -0.102200
v -0.033567 0.009399 -0.102783
v -0.032573 0.001707 -0.096656
v -0.032952 0.004565 -0.097560
v -0.033567 0.007457 -0.102783
v -0.032371 0.001707 -0.096857
v -0.033154 0.004565 -0.102402
v -0.038208 0.007457 -0.102783
v -0.032573 0.001707 -0.101700
v -0.032371 0.001707 -0.101498
v -0.038208 0.009399 -0.102783
v -0.037795 0.004565 -0.102402
v -0.038410 0.009399 -0.102581
v -0.037214 0.001707 -0.101700
v -0.038410 0.007457 -0.102581
v -0.037996 0.004565 -0.102200
v -0.038410 0.007457 -0.097940
v -0.037416 0.001707 -0.101498
v -0.038410 0.009399 -0.097940
v -0.037996 0.004565 -0.097560
v -0.038208 0.009399 -0.097739
v -0.037416 0.001707 -0.096857
v -0.038208 0.007457 -0.097739
v -0.037795 0.004565 -0.097358
v -0.037214 0.001707 -0.096656
v 0.048092 0.009399 -0.071660
v 0.052733 0.009399 -0.071660
v 0.048092 0.007457 -0.071660
v 0.047891 0.009399 -0.071458
v 0.052733 0.007457 -0.071660
v 0.047891 0.007457 -0.071458
v 0.052320 0.004565 -0.071996
v 0.047891 0.007457 -0.066817
v 0.047679 0.004565 -0.071996
v 0.047891 0.009399 -0.066817
v 0.051917 0.002584 -0.072483
v 0.047477 0.004565 -0.067153
v 0.048092 0.009399 -0.066615
v 0.047276 0.002584 -0.072483
v 0.047477 0.004565 -0.071794
v 0.048092 0.007457 -0.066615
v 0.051841 0.002206 -0.072575
v 0.047075 0.002584 -0.067640
v 0.052733 0.007457 -0.066615
v 0.047679 0.004565 -0.066951
v 0.047200 0.002206 -0.072575
v 0.052733 0.009399 -0.066615
v 0.046998 0.002206 -0.072373
v 0.051359 0.001707 -0.072284
v 0.052320 0.004565 -0.066951
v 0.047310 0.001707 -0.072116
v 0.047075 0.002584 -0.072281
v 0.047276 0.002584 -0.067438
v 0.052935 0.009399 -0.066817
v 0.051917 0.002584 -0.067438
v 0.052935 0.007457 -0.066817
v 0.047200 0.002206 -0.067531
v 0.052935 0.007457 -0.071458
v 0.046998 0.002206 -0.067733
v 0.051841 0.002206 -0.067531
v 0.052521 0.004565 -0.067153
v 0.052935 0.009399 -0.071458
v 0.047479 0.001707 -0.068067
v 0.052119 0.002584 -0.067640
v 0.052733 0.009399 -0.071660
v 0.051359 0.001707 -0.068067
v 0.052521 0.004565 -0.071794
v 0.052733 0.007457 -0.071660
v 0.047310 0.001707 -0.068236
v 0.052042 0.002206 -0.067733
v 0.052320 0.004565 -0.071996
v 0.052119 0.002584 -0.072281
v 0.051527 0.001707 -0.068236
v 0.051917 0.002584 -0.072483
v 0.047479 0.001707 -0.072284
v 0.052042 0.002206 -0.072373
v 0.051527 0.001707 -0.072116
v 0.051841 0.002206 -0.072575
v 0.051359 0.001707 -0.072284
v 0.048092 0.009399 -0.097739
v 0.048092 0.007457 -0.097739
v 0.052733 0.009399 -0.097739
v 0.052733 0.007457 -0.097739
v 0.052935 0.007457 -0.097941
v 0.052320 0.004565 -0.097358
v 0.052935 0.009399 -0.097941
v 0.052521 0.004565 -0.097560
v 0.047679 0.004565 -0.097358
v 0.052935 0.009399 -0.102581
v 0.052521 0.004565 -0.102200
v 0.051739 0.001707 -0.096656
v 0.052935 0.007457 -0.102581
v 0.051941 0.001707 -0.096857
v 0.047098 0.001707 -0.096656
v 0.052733 0.007457 -0.102783
v 0.051941 0.001707 -0.101498
v 0.052733 0.009399 -0.102783
v 0.052320 0.004565 -0.102402
v 0.048092 0.009399 -0.102783
v 0.051739 0.001707 -0.101700
v 0.048092 0.007457 -0.102783
v 0.047679 0.004565 -0.102402
v 0.047891 0.007457 -0.102581
v 0.047098 0.001707 -0.101700
v 0.047891 0.009399 -0.102581
v 0.047477 0.004565 -0.102200
v 0.047891 0.009399 -0.097941
v 0.046897 0.001707 -0.101498
v 0.047891 0.007457 -0.097941
v 0.047477 0.004565 -0.097560
v 0.048092 0.007457 -0.097739
v 0.046897 0.001707 -0.096857
v 0.047679 0.004565 -0.097358
v 0.048092 0.009399 -0.097739
v 0.047098 0.001707 -0.096656
vn 0.3826 -0.0000 -0.9239
vn 0.3805 0.0802 -0.9213
vn -0.3827 -0.0000 -0.9239
vn -0.3832 0.0261 -0.9233
vn -0.9226 -0.0435 -0.3832
vn -0.3842 0.0992 -0.9179
vn -0.9239 -0.0000 -0.3827
vn -0.9190 -0.0895 -0.3840
vn 0.3701 0.2262 -0.9010
vn -0.9239 -0.0000 0.3827
vn -0.9020 -0.2224 0.3699
vn -0.3840 0.1460 -0.9117
vn -0.9206 -0.0873 0.3806
vn -0.9184 -0.0920 -0.3848
vn 0.3626 0.2912 -0.8853
vn -0.3805 -0.0802 0.9213
vn -0.8916 -0.2704 0.3633
vn -0.3827 -0.0000 0.9239
vn -0.3564 -0.2395 -0.9031
vn 0.3827 -0.0000 0.9239
vn -0.3627 -0.2912 0.8853
vn -0.8339 -0.4293 -0.3470
vn 0.3832 -0.0261 0.9233
vn -0.3701 -0.2262 0.9010
vn -0.6575 -0.7030 -0.2709
vn 0.9226 0.0435 0.3833
vn 0.3842 -0.0992 0.9179
vn -0.2775 -0.5834 -0.7633
vn 0.9239 -0.0000 0.3827
vn 0.3712 -0.1196 -0.9208
vn 0.9239 -0.0000 -0.3827
vn 0.9190 0.0895 0.3840
vn -0.6126 -0.7570 0.2272
vn 0.3177 -0.5059 -0.8019
vn 0.9206 0.0873 -0.3806
vn -0.7829 -0.5411 0.3071
vn 0.3840 -0.1460 0.9117
vn -0.2270 -0.7643 0.6036
vn 0.9021 0.2224 -0.3699
vn -0.3062 -0.5548 0.7736
vn 0.3827 -0.0000 -0.9239
vn 0.3702 0.2261 -0.9010
vn 0.3403 -0.4655 0.8170
vn 0.2624 -0.7222 0.6400
vn 0.8916 0.2704 -0.3633
vn 0.9184 0.0920 0.3848
vn 0.8929 -0.2829 0.3504
vn 0.3627 0.2912 -0.8852
vn 0.9180 -0.1402 -0.3709
vn 0.7451 -0.6105 0.2685
vn 0.3713 -0.1197 -0.9208
vn 0.7922 -0.5214 -0.3170
vn 0.3177 -0.5060 -0.8019
vn 0.3803 0.0872 0.9207
vn -0.3833 0.0332 0.9230
vn 0.9204 0.0902 0.3803
vn -0.3841 0.1063 0.9172
vn 0.9227 0.0405 -0.3833
vn 0.3695 0.2329 0.8996
vn -0.3840 0.1460 0.9117
vn 0.9192 0.0865 -0.3841
vn 0.3627 0.2912 0.8852
vn 0.9015 0.2252 0.3695
vn 0.3833 -0.0332 -0.9230
vn 0.8916 0.2704 0.3633
vn 0.3840 -0.1063 -0.9172
vn -0.3803 -0.0872 -0.9208
vn 0.3841 -0.1460 -0.9117
vn 0.9184 0.0920 -0.3848
vn -0.3695 -0.2329 -0.8996
vn -0.3627 -0.2912 -0.8853
vn -0.9204 -0.0902 -0.3804
vn -0.9015 -0.2252 -0.3695
vn -0.9227 -0.0405 0.3833
vn -0.8916 -0.2704 -0.3633
vn -0.9192 -0.0865 0.3841
vn -0.9184 -0.0920 0.3848
vn -0.3841 0.1460 0.9117
vn -0.3805 0.0802 -0.9213
vn 0.3832 0.0261 -0.9233
vn -0.9206 0.0873 -0.3806
vn 0.3841 0.0992 -0.9179
vn -0.9226 0.0435 0.3833
vn -0.3701 0.2261 -0.9010
vn 0.3840 0.1460 -0.9117
vn -0.9190 0.0895 0.3840
vn -0.3627 0.2912 -0.8853
vn -0.9021 0.2224 -0.3699
vn -0.3832 -0.0261 0.9233
vn 0.3496 -0.2872 -0.8918
vn -0.9184 0.0920 0.3848
vn 0.3805 -0.0802 0.9213
vn -0.3841 -0.0992 0.9179
vn -0.3657 -0.1762 -0.9139
vn -0.9102 -0.1956 -0.3651
vn 0.2526 -0.6571 -0.7102
vn 0.3701 -0.2262 0.9010
vn -0.7372 -0.6102 -0.2901
vn -0.8916 0.2704 -0.3633
vn -0.3840 -0.1460 0.9117
vn 0.3627 -0.2912 0.8853
vn 0.9206 -0.0873 0.3806
vn -0.3320 -0.4983 0.8009
vn 0.9226 -0.0435 -0.3832
vn -0.8801 -0.3278 0.3434
vn 0.2988 -0.5809 0.7572
vn 0.9020 -0.2224 0.3699
vn -0.2395 -0.7694 0.5921
vn 0.8916 -0.2704 0.3633
vn 0.2081 -0.8019 0.5600
vn 0.9190 -0.0895 -0.3840
vn -0.6924 -0.6788 0.2445
vn 0.7664 -0.5681 0.2998
vn 0.3842 0.0992 -0.9179
vn 0.9184 -0.0920 -0.3848
vn 0.5684 -0.7959 0.2084
vn -0.2905 -0.5979 -0.7471
vn 0.8181 -0.4648 -0.3386
vn 0.6080 -0.7544 -0.2472
vn 0.3497 -0.2873 -0.8917
vn 0.2527 -0.6571 -0.7102
vn -0.3803 0.0872 0.9208
vn 0.3833 0.0332 0.9230
vn 0.9227 -0.0405 0.3833
vn 0.3841 0.1063 0.9172
vn 0.9192 -0.0865 0.3841
vn -0.3695 0.2329 0.8996
vn 0.9015 -0.2252 -0.3695
vn 0.3840 0.1460 0.9117
vn 0.9205 -0.0902 -0.3803
vn 0.9184 -0.0920 0.3849
vn -0.3626 0.2912 0.8853
vn 0.3803 -0.0872 -0.9208
vn 0.8916 -0.2704 -0.3633
vn 0.3695 -0.2329 -0.8996
vn 0.3627 -0.2912 -0.8853
vn -0.3833 -0.0332 -0.9230
vn -0.3841 -0.1063 -0.9172
vn -0.9227 0.0405 -0.3833
vn -0.3841 -0.1460 -0.9117
vn -0.9192 0.0865 -0.3841
vn -0.9184 0.0920 -0.3848
vn -0.9204 0.0902 0.3803
vn -0.9015 0.2252 0.3695
vn -0.3803 0.0872 0.9207
vn -0.8916 0.2704 0.3633
vn -0.3696 0.2329 0.8995
vn -0.3627 0.2912 0.8852
vt 0.278814 1.756052
vt 0.463622 1.756052
vt 0.278814 1.932865
vt 0.463622 1.932865
vt 0.463622 1.943736
vt 0.744050 1.932865
vt 0.278814 1.943736
vt 0.744050 1.943736
vt 0.744050 1.756052
vt 0.278814 2.120549
vt 0.744050 2.120549
vt 0.901552 1.932865
vt 0.463622 2.120549
vt 0.901552 1.943736
vt 0.901552 1.756052
vt 0.463622 2.131419
vt 0.901552 2.120549
vt 0.278814 2.131420
vt 0.969332 1.932865
vt 0.278814 2.308233
vt 0.901552 2.131419
vt 0.969332 1.943736
vt 0.463622 2.308233
vt 0.744050 2.131419
vt 1.029549 1.943736
vt 0.463622 2.319103
vt 0.744050 2.308233
vt 1.029549 1.932865
vt 0.278814 2.319103
vt 0.969332 1.756052
vt 0.278814 2.495916
vt 0.744050 2.319103
vt 1.029549 2.120549
vt 1.029549 1.756052
vt 0.463622 2.495916
vt 0.969332 2.120549
vt 0.901552 2.308232
vt 0.463622 2.506787
vt 1.029549 2.131419
vt 0.744050 2.495916
vt 0.969332 2.131419
vt 0.278814 2.506787
vt 0.744050 2.506787
vt 0.969332 2.308232
vt 1.029549 2.308233
vt 0.901552 2.495916
vt 0.901552 2.319103
vt 0.969332 2.319103
vt 0.901552 2.506787
vt 0.969332 2.495916
vt 1.029549 2.319103
vt 0.969332 2.506787
vt 1.029549 2.495916
vt 1.029549 2.506787
vt 0.278814 1.932865
vt 0.463622 1.932865
vt 0.278814 1.943736
vt 0.463622 1.943736
vt 0.463622 2.120549
vt 0.744050 1.932865
vt 0.278814 2.120549
vt 0.744050 2.120549
vt 0.278814 2.131419
vt 0.744050 1.943736
vt 0.463622 2.131419
vt 0.744050 2.131419
vt 0.463622 2.308232
vt 1.029549 2.131420
vt 1.029549 2.120549
vt 0.278814 2.308232
vt 0.744050 2.308233
vt 1.029549 2.308233
vt 0.278814 2.495916
vt 0.744050 2.495916
vt 1.029549 2.495916
vt 0.463622 1.932865
vt 0.278814 1.943736
vt 0.463622 1.943736
vt 0.463622 2.120549
vt 0.278814 2.120549
vt 0.744050 2.120549
vt 0.901552 1.932865
vt 0.744050 1.943736
vt 0.901552 2.120549
vt 0.463622 2.308233
vt 0.744050 2.131419
vt 0.969332 1.932865
vt 0.901552 1.943736
vt 0.901552 2.131419
vt 0.278814 2.319103
vt 0.463622 2.319103
vt 0.463622 2.495916
vt 0.969332 2.120549
vt 0.969332 2.308232
vt 0.744050 2.319103
vt 0.278814 2.495916
vt 1.029549 2.131419
vt 1.029549 2.308232
vt 1.029549 2.120548
vt 0.969332 2.319103
vt 1.029549 2.319103
vt 1.029549 1.932865
vt 0.969332 2.506787
vt 0.278814 1.932865
vt 0.463622 1.943736
vt 0.278814 1.943736
vt 0.744050 1.943736
vt 0.278814 2.120549
vt 1.029549 1.932865
vt 0.463622 2.120549
vt 0.463622 2.131419
vt 1.029549 2.120549
vt 0.278814 2.131419
vt 0.463622 2.319103
vt 0.278814 2.319103
vt 0.744050 2.319103
vt 1.029549 2.319103
vt 0.744050 2.506787
s 1
g basketBigMain_trash_jordanNew_wood_SwitchTable_Light_trash_jordanNew_wood_SwitchTable_Light
usemtl trash_jordanNew_wood_SwitchTable_Light
f 1/1/1 2/2/2 3/3/3
f 3/3/3 2/2/2 4/4/4
f 4/4/4 5/5/5 3/3/3
f 4/4/4 2/2/2 6/6/6
f 3/3/3 5/5/5 7/7/7
f 6/6/6 8/8/8 4/4/4
f 4/4/4 8/8/8 5/5/5
f 6/6/6 2/2/2 9/9/9
f 7/7/7 5/5/5 10/10/10
f 11/11/11 5/5/5 8/8/8
f 6/6/6 9/9/9 12/12/12
f 10/10/10 5/5/5 13/13/13
f 13/13/13 5/5/5 11/11/11
f 6/6/6 14/14/14 8/8/8
f 12/12/12 9/9/9 15/15/15
f 16/16/16 10/10/10 13/13/13
f 12/12/12 14/14/14 6/6/6
f 13/13/13 11/11/11 16/16/16
f 11/11/11 8/8/8 17/17/17
f 18/18/18 10/10/10 16/16/16
f 17/17/17 8/8/8 14/14/14
f 12/12/12 15/15/15 19/19/19
f 16/16/16 20/20/20 18/18/18
f 21/21/21 11/11/11 17/17/17
f 19/19/19 22/22/22 12/12/12
f 12/12/12 22/22/22 14/14/14
f 23/23/23 20/20/20 16/16/16
f 16/16/16 11/11/11 24/24/24
f 24/24/24 11/11/11 21/21/21
f 19/19/19 25/25/25 22/22/22
f 24/24/24 23/23/23 16/16/16
f 26/26/26 20/20/20 23/23/23
f 21/21/21 27/27/27 24/24/24
f 28/28/28 25/25/25 19/19/19
f 23/23/23 27/27/27 26/26/26
f 29/29/29 20/20/20 26/26/26
f 27/27/27 23/23/23 24/24/24
f 19/19/19 30/30/30 28/28/28
f 29/29/29 26/26/26 31/31/31
f 26/26/26 27/27/27 32/32/32
f 33/33/33 22/22/22 25/25/25
f 28/28/28 30/30/30 34/34/34
f 19/19/19 15/15/15 30/30/30
f 26/26/26 32/32/32 35/35/35
f 31/31/31 26/26/26 35/35/35
f 36/36/36 22/22/22 33/33/33
f 27/27/27 37/37/37 32/32/32
f 35/35/35 38/38/2 31/31/31
f 39/39/38 36/36/36 33/33/33
f 37/37/37 27/27/27 21/21/21
f 35/35/35 32/32/32 40/40/39
f 41/41/40 36/36/36 39/39/38
f 41/41/40 37/37/37 21/21/21
f 31/31/31 38/38/2 42/42/41
f 40/40/39 43/43/42 35/35/35
f 39/39/38 44/44/43 41/41/40
f 44/44/43 37/37/37 41/41/40
f 35/35/35 43/43/42 38/38/2
f 21/21/21 17/17/17 41/41/40
f 41/41/40 17/17/17 36/36/36
f 45/45/44 44/44/43 39/39/38
f 46/46/45 43/43/42 40/40/39
f 32/32/32 37/37/37 47/47/46
f 44/44/43 45/45/44 48/48/47
f 40/40/39 47/47/46 46/46/45
f 49/49/48 43/43/42 46/46/45
f 37/37/37 44/44/43 47/47/46
f 32/32/32 47/47/46 40/40/39
f 47/47/46 44/44/43 48/48/47
f 50/50/49 49/49/48 46/46/45
f 48/48/47 45/45/44 51/51/50
f 17/17/17 14/14/14 36/36/36
f 48/48/47 51/51/50 50/50/49
f 47/47/46 48/48/47 46/46/45
f 52/52/51 49/49/48 50/50/49
f 36/36/36 14/14/14 22/22/22
f 50/50/49 51/51/50 53/53/52
f 46/46/45 48/48/47 50/50/49
f 53/53/52 52/52/51 50/50/49
f 54/54/53 52/52/51 53/53/52
f 55/55/20 56/1/18 57/56/54
f 57/56/54 58/57/29 55/55/20
f 57/56/54 56/1/18 59/2/55
f 60/58/56 58/57/29 57/56/54
f 59/2/55 61/9/57 57/56/54
f 62/59/58 58/57/29 60/58/56
f 57/56/54 61/9/57 63/60/59
f 63/60/59 60/58/56 57/56/54
f 64/61/31 58/57/29 62/59/58
f 61/9/57 65/34/60 63/60/59
f 60/58/56 66/62/61 62/59/58
f 64/61/31 62/59/58 67/63/41
f 63/60/59 65/34/60 68/28/62
f 69/64/63 66/62/61 60/58/56
f 69/64/63 60/58/56 63/60/59
f 67/63/41 62/59/58 70/65/64
f 71/25/65 63/60/59 68/28/62
f 66/62/61 72/66/66 62/59/58
f 69/64/63 63/60/59 71/25/65
f 70/65/64 73/67/67 67/63/41
f 66/62/61 74/68/68 72/66/66
f 62/59/58 72/66/66 70/65/64
f 71/25/65 75/69/69 69/64/63
f 67/63/41 73/67/67 76/70/3
f 75/69/69 74/68/68 66/62/61
f 72/66/66 77/71/70 70/65/64
f 69/64/63 75/69/69 66/62/61
f 70/65/64 77/71/70 73/67/67
f 76/70/3 73/67/67 78/29/7
f 74/68/68 79/72/71 72/66/66
f 72/66/66 79/72/71 77/71/70
f 78/29/7 73/67/67 80/26/72
f 77/71/70 79/72/71 81/32/73
f 77/71/70 81/32/73 73/67/67
f 73/67/67 81/32/73 80/26/72
f 82/35/74 78/29/7 80/26/72
f 80/26/72 81/32/73 82/35/74
f 81/32/73 79/72/71 83/51/75
f 84/73/10 78/29/7 82/35/74
f 82/35/74 81/32/73 85/74/76
f 81/32/73 83/51/75 85/74/76
f 82/35/74 86/42/18 84/73/10
f 85/74/76 83/51/75 87/75/77
f 88/38/55 86/42/18 82/35/74
f 85/74/76 88/38/55 82/35/74
f 87/75/77 89/43/57 85/74/76
f 89/43/57 88/38/55 85/74/76
f 90/54/78 89/43/57 87/75/77
f 91/3/3 92/1/1 93/76/79
f 93/76/79 94/77/7 91/3/3
f 93/76/79 92/1/1 95/2/80
f 96/78/81 94/77/7 93/76/79
f 95/2/80 97/9/82 93/76/79
f 98/79/83 94/77/7 96/78/81
f 93/76/79 97/9/82 99/60/84
f 99/60/84 96/78/81 93/76/79
f 100/80/10 94/77/7 98/79/83
f 97/9/82 101/15/85 99/60/84
f 96/78/81 102/81/86 98/79/83
f 100/80/10 98/79/83 103/18/18
f 99/60/84 101/15/85 104/82/87
f 105/83/88 102/81/86 96/78/81
f 105/83/88 96/78/81 99/60/84
f 103/18/18 98/79/83 106/16/89
f 101/15/85 107/30/90 104/82/87
f 105/83/88 108/84/91 102/81/86
f 106/16/89 109/85/92 103/18/18
f 102/81/86 110/86/93 98/79/83
f 104/82/87 107/30/90 111/87/94
f 98/79/83 110/86/93 106/16/89
f 103/18/18 109/85/92 112/20/20
f 111/87/94 113/22/95 104/82/87
f 107/30/90 114/34/96 111/87/94
f 110/86/93 115/27/97 106/16/89
f 106/16/89 115/27/97 109/85/92
f 113/22/95 111/87/94 116/25/98
f 104/82/87 113/22/95 117/88/99
f 102/81/86 118/89/100 110/86/93
f 112/20/20 109/85/92 119/90/29
f 104/82/87 117/88/99 99/60/84
f 108/84/91 118/89/100 102/81/86
f 118/89/100 120/37/101 110/86/93
f 110/86/93 120/37/101 115/27/97
f 119/90/29 109/85/92 121/91/102
f 108/84/91 122/41/103 118/89/100
f 99/60/84 117/88/99 105/83/88
f 123/92/104 119/90/29 121/91/102
f 117/88/99 108/84/91 105/83/88
f 124/93/105 122/41/103 108/84/91
f 122/41/103 125/94/106 118/89/100
f 118/89/100 125/94/106 120/37/101
f 121/91/102 126/95/107 123/92/104
f 117/88/99 124/93/105 108/84/91
f 115/27/97 126/95/107 109/85/92
f 115/27/97 120/37/101 126/95/107
f 109/85/92 126/95/107 121/91/102
f 127/96/31 119/90/29 123/92/104
f 124/93/105 128/97/108 122/41/103
f 120/37/101 125/94/106 129/47/109
f 126/95/107 120/37/101 129/47/109
f 123/92/104 130/42/41 127/96/31
f 128/97/108 131/98/110 122/41/103
f 122/41/103 131/98/110 125/94/106
f 123/92/104 126/95/107 132/74/111
f 126/95/107 129/47/109 132/74/111
f 133/38/80 130/42/41 123/92/104
f 134/99/112 128/97/108 124/93/105
f 125/94/106 131/98/110 135/100/113
f 132/74/111 133/38/80 123/92/104
f 129/47/109 125/94/106 135/100/113
f 113/22/95 134/99/112 124/93/105
f 136/43/114 133/38/80 132/74/111
f 129/47/109 135/100/113 137/46/115
f 116/25/98 134/99/112 113/22/95
f 137/46/115 136/43/114 132/74/111
f 113/22/95 124/93/105 117/88/99
f 132/74/111 129/47/109 137/46/115
f 135/100/113 131/98/110 138/101/116
f 139/49/85 136/43/114 137/46/115
f 116/25/98 111/87/94 140/102/117
f 135/100/113 138/101/116 141/50/118
f 141/50/118 139/49/85 137/46/115
f 137/46/115 135/100/113 141/50/118
f 111/87/94 114/34/96 140/102/117
f 141/50/118 138/101/116 142/53/119
f 143/103/120 139/49/85 141/50/118
f 142/53/119 143/103/120 141/50/118
f 144/54/121 143/103/120 142/53/119
f 145/1/18 146/2/122 147/104/20
f 147/104/20 146/2/122 148/76/123
f 148/76/123 149/105/124 147/104/20
f 148/76/123 146/2/122 150/60/125
f 147/104/20 149/105/124 151/106/29
f 150/60/125 152/107/126 148/76/123
f 148/76/123 152/107/126 149/105/124
f 150/60/125 146/2/122 153/9/127
f 151/106/29 149/105/124 154/108/31
f 155/11/128 149/105/124 152/107/126
f 150/60/125 153/9/127 156/109/129
f 154/108/31 149/105/124 157/110/130
f 157/110/130 149/105/124 155/11/128
f 150/60/125 158/25/131 152/107/126
f 156/109/129 153/9/127 159/34/132
f 160/111/133 154/108/31 157/110/130
f 156/109/129 158/25/131 150/60/125
f 157/110/130 155/11/128 160/111/133
f 155/11/128 152/107/126 161/112/134
f 162/113/41 154/108/31 160/111/133
f 161/112/134 152/107/126 158/25/131
f 160/111/133 155/11/128 163/86/135
f 160/111/133 164/20/3 162/113/41
f 165/68/136 155/11/128 161/112/134
f 163/86/135 155/11/128 165/68/136
f 166/23/137 164/20/3 160/111/133
f 163/86/135 166/23/137 160/111/133
f 165/68/136 167/71/138 163/86/135
f 167/71/138 166/23/137 163/86/135
f 168/114/139 164/20/3 166/23/137
f 166/23/137 167/71/138 168/114/139
f 169/45/140 167/71/138 165/68/136
f 170/115/7 164/20/3 168/114/139
f 167/71/138 169/45/140 171/116/141
f 168/114/139 167/71/138 171/116/141
f 170/115/7 168/114/139 172/96/10
f 171/116/141 169/45/140 173/117/142
f 172/96/10 168/114/139 174/92/143
f 168/114/139 171/116/141 174/92/143
f 171/116/141 173/117/142 175/74/144
f 174/92/143 171/116/141 175/74/144
f 174/92/143 176/38/145 172/96/10
f 175/74/144 173/117/142 177/53/146
f 175/74/144 178/118/147 174/92/143
f 174/92/143 178/118/147 176/38/145
f 177/53/146 178/118/147 175/74/144
f 172/96/10 176/38/145 179/42/18
f 180/54/148 178/118/147 177/53/146
