# Blender 4.1.1
# www.blender.org
mtllib boards.mtl
o roomShell_room:GUI_wall_StuccoBoard_White
v 0.104917 0.024013 0.047980
v 0.104921 0.024002 0.009433
v 0.104917 0.008135 0.047980
v 0.104912 0.008135 0.099556
v 0.104921 0.008135 0.009433
v 0.104912 0.024028 0.099556
v 0.104926 0.008135 -0.014855
v 0.104909 0.008135 0.128152
v 0.104917 0.033829 0.047980
v 0.104926 0.023986 -0.014855
v 0.104909 0.024036 0.128152
v 0.104912 0.033853 0.099556
v 0.104921 0.033811 0.009433
v 0.104901 0.023986 -0.048005
v 0.104922 0.045953 0.009433
v 0.104926 0.033785 -0.014855
v 0.104910 0.033867 0.128152
v 0.104919 0.046007 0.047980
v 0.104915 0.046078 0.099556
v 0.104926 0.045878 -0.014855
v 0.104912 0.046117 0.128152
v 0.104901 0.033785 -0.048005
v 0.104926 0.033785 -0.014855
v 0.104877 0.033785 -0.083208
v 0.104877 0.023986 -0.083208
v 0.104901 0.008135 -0.048005
v 0.104877 0.008135 -0.083208
v 0.104877 0.046230 -0.083208
v 0.104887 0.046157 -0.098949
v 0.104877 0.033785 -0.083208
v 0.104887 0.033652 -0.098949
v 0.104877 0.023986 -0.083208
v 0.104902 0.046055 -0.127520
v 0.104887 0.023904 -0.098949
v 0.104902 0.033466 -0.127520
v 0.104877 0.008135 -0.083208
v 0.104904 0.033482 -0.143321
v 0.104887 0.008135 -0.098949
v 0.104902 0.023789 -0.127520
v 0.104904 0.046035 -0.143321
v 0.104904 0.023799 -0.143321
v 0.104902 0.008135 -0.127520
v 0.104912 0.033521 -0.182985
v 0.104904 0.008135 -0.143321
v 0.104912 0.045982 -0.182985
v 0.104912 0.023823 -0.182985
v 0.104918 0.033554 -0.216252
v 0.104912 0.008135 -0.182986
v 0.104918 0.045939 -0.216252
v 0.104918 0.023843 -0.216253
v 0.104923 0.033584 -0.246831
v 0.104918 0.008135 -0.216254
v 0.104923 0.045898 -0.246831
v 0.104923 0.023862 -0.246832
v 0.104926 0.033600 -0.262846
v 0.104923 0.008135 -0.246833
v 0.104926 0.025503 -0.262846
v 0.104926 0.045877 -0.262846
v 0.104926 0.008350 -0.262848
vn -1.0000 -0.0000 -0.0001
vn -1.0000 -0.0000 -0.0002
vn -1.0000 -0.0000 0.0008
vn -1.0000 0.0001 -0.0001
vn -1.0000 -0.0000 0.0007
vn -1.0000 0.0002 -0.0001
vn -1.0000 -0.0000 -0.0003
vn -1.0000 -0.0000 -0.0006
vn -1.0000 -0.0000 -0.0007
vt -21.600563 0.333835
vt -19.507431 0.333250
vt -21.600559 -0.498801
vt -24.401215 -0.498801
vt -19.507431 -0.498801
vt -24.401215 0.334616
vt -18.188555 -0.498801
vt -25.954002 -0.498801
vt -21.600563 0.848548
vt -18.188560 0.332417
vt -25.954002 0.335050
vt -24.401215 0.849813
vt -19.507431 0.847603
vt -16.388487 0.332417
vt -19.507431 1.484320
vt -18.188560 0.846255
vt -25.954002 0.850515
vt -21.600563 1.487112
vt -24.401215 1.490847
vt -18.188560 1.480340
vt -25.954002 1.492918
vt -16.388487 0.846254
vt -14.476963 0.846253
vt -14.476963 0.332416
vt -16.388487 -0.498801
vt -14.476963 -0.498801
vt -14.476963 1.498801
vt -13.622190 1.494985
vt -13.622190 0.839269
vt -12.070745 1.489659
vt -13.622190 0.328100
vt -12.070745 0.829518
vt -11.212755 0.830338
vt -13.622190 -0.498801
vt -12.070745 0.322075
vt -11.212755 1.488570
vt -11.212750 0.322581
vt -12.070745 -0.498801
vt -9.058935 0.832397
vt -11.212740 -0.498801
vt -9.058935 1.485836
vt -9.058912 0.323853
vt -7.252512 0.834123
vt -9.058876 -0.498801
vt -7.252512 1.483543
vt -7.252473 0.324920
vt -5.592041 0.835710
vt -7.252416 -0.498801
vt -5.592041 1.481435
vt -5.591994 0.325901
vt -4.722428 0.836541
vt -5.591917 -0.498801
vt -4.722373 0.411928
vt -4.722428 1.480331
vt -4.722286 -0.487510
s 1
g roomShell_room:GUI_wall_StuccoBoard_White_room:GUI_wall_StuccoBoard_White
usemtl room:GUI_wall_StuccoBoard_White
f 1/1/1 2/2/2 3/3/1
f 4/4/1 1/1/1 3/3/1
f 3/3/1 2/2/2 5/5/2
f 6/6/1 1/1/1 4/4/1
f 5/5/2 2/2/2 7/7/3
f 8/8/1 6/6/1 4/4/1
f 6/6/1 9/9/4 1/1/1
f 7/7/3 2/2/2 10/10/5
f 11/11/1 6/6/1 8/8/1
f 12/12/4 9/9/4 6/6/1
f 9/9/4 13/13/2 1/1/1
f 1/1/1 13/13/2 2/2/2
f 10/10/5 14/14/5 7/7/3
f 11/11/1 12/12/4 6/6/1
f 13/13/2 9/9/4 15/15/4
f 10/10/5 2/2/2 16/16/2
f 17/17/4 12/12/4 11/11/1
f 16/16/2 2/2/2 13/13/2
f 15/15/4 9/9/4 18/18/4
f 12/12/4 17/17/4 19/19/6
f 16/16/2 13/13/2 20/20/2
f 20/20/2 13/13/2 15/15/4
f 18/18/4 9/9/4 19/19/6
f 19/19/6 9/9/4 12/12/4
f 19/19/6 17/17/4 21/21/6
f 10/10/5 22/22/5 14/14/5
f 23/16/3 22/22/5 10/10/5
f 22/22/5 24/23/5 14/14/5
f 14/14/5 24/23/5 25/24/5
f 14/14/5 25/24/5 26/25/5
f 7/7/3 14/14/5 26/25/5
f 26/25/5 25/24/5 27/26/5
f 28/27/7 29/28/8 30/23/8
f 30/23/8 29/28/8 31/29/8
f 30/23/8 31/29/8 32/24/8
f 29/28/8 33/30/9 31/29/8
f 32/24/8 31/29/8 34/31/8
f 31/29/8 33/30/9 35/32/7
f 35/32/7 34/31/8 31/29/8
f 32/24/8 34/31/8 36/26/8
f 35/32/7 33/30/9 37/33/2
f 36/26/8 34/31/8 38/34/8
f 39/35/7 34/31/8 35/32/7
f 34/31/8 39/35/7 38/34/8
f 37/33/2 33/30/9 40/36/2
f 37/33/2 41/37/2 35/32/7
f 35/32/7 41/37/2 39/35/7
f 38/34/8 39/35/7 42/38/7
f 39/35/7 41/37/2 42/38/7
f 37/33/2 40/36/2 43/39/2
f 37/33/2 43/39/2 41/37/2
f 42/38/7 41/37/2 44/40/2
f 43/39/2 40/36/2 45/41/2
f 41/37/2 46/42/2 44/40/2
f 41/37/2 43/39/2 46/42/2
f 43/39/2 45/41/2 47/43/2
f 43/39/2 47/43/2 46/42/2
f 44/40/2 46/42/2 48/44/2
f 47/43/2 45/41/2 49/45/2
f 46/42/2 50/46/2 48/44/2
f 46/42/2 47/43/2 50/46/2
f 47/43/2 49/45/2 51/47/2
f 47/43/2 51/47/2 50/46/2
f 48/44/2 50/46/2 52/48/2
f 51/47/2 49/45/2 53/49/2
f 50/46/2 54/50/2 52/48/2
f 50/46/2 51/47/2 54/50/2
f 51/47/2 53/49/2 55/51/2
f 52/48/2 54/50/2 56/52/2
f 55/51/2 57/53/2 51/47/2
f 51/47/2 57/53/2 54/50/2
f 55/51/2 53/49/2 58/54/9
f 54/50/2 59/55/2 56/52/2
f 57/53/2 59/55/2 54/50/2
