# Blender 4.1.1
# www.blender.org
mtllib book.mtl
o book1_room:ST_Bonnie_Woody_Jordan:bonnTrash_Paper_BookReading
v 0.091673 0.088633 -0.134340
v 0.091680 0.087612 -0.134340
v 0.091513 0.088758 -0.134352
v 0.091506 0.087464 -0.134353
v 0.104984 0.087472 -0.133342
v 0.104978 0.087390 -0.133261
v 0.091496 0.087390 -0.134271
v 0.090027 0.087390 -0.114675
v 0.089945 0.087472 -0.114681
v 0.104984 0.088749 -0.133342
v 0.104984 0.087606 -0.133342
v 0.091414 0.087472 -0.134278
v 0.104984 0.088640 -0.133342
v 0.105060 0.087606 -0.133255
v 0.091414 0.088749 -0.134278
v 0.105060 0.088749 -0.133255
v 0.105060 0.087472 -0.133255
v 0.089945 0.088749 -0.114681
v 0.105060 0.088640 -0.133255
v 0.090025 0.087464 -0.114593
v 0.105001 0.088558 -0.133285
v 0.103591 0.087606 -0.113658
v 0.090032 0.088758 -0.114592
v 0.103528 0.088558 -0.113636
v 0.105001 0.087688 -0.133285
v 0.090199 0.087612 -0.114580
v 0.103591 0.088640 -0.113658
v 0.103528 0.087688 -0.113636
v 0.090192 0.088633 -0.114580
v 0.103591 0.088749 -0.113658
v 0.103591 0.087472 -0.113658
v 0.103503 0.088749 -0.113582
v 0.104978 0.088830 -0.133261
v 0.103503 0.087606 -0.113582
v 0.103503 0.088640 -0.113582
v 0.103509 0.088830 -0.113664
v 0.103503 0.087472 -0.113582
v 0.090027 0.088830 -0.114675
v 0.090295 0.087688 -0.114655
v 0.090295 0.088558 -0.114655
v 0.090328 0.088558 -0.115095
v 0.091496 0.088830 -0.134271
v 0.103509 0.087390 -0.113664
v 0.103053 0.088558 -0.114141
v 0.090328 0.088558 -0.115095
v 0.104456 0.088558 -0.132857
v 0.091764 0.088558 -0.134251
v 0.091731 0.088558 -0.133811
v 0.091764 0.087688 -0.134251
v 0.091731 0.087688 -0.133811
v 0.091731 0.088558 -0.133811
v 0.104456 0.087688 -0.132857
v 0.091731 0.087688 -0.133811
v 0.103053 0.087688 -0.114141
v 0.090328 0.087688 -0.115095
v 0.090328 0.087688 -0.115095
v 0.103053 0.087688 -0.114141
v 0.104456 0.087688 -0.132857
v 0.103053 0.088558 -0.114141
v 0.104456 0.088558 -0.132857
v 0.104456 0.087688 -0.132857
v 0.091731 0.087688 -0.133811
v 0.104456 0.088558 -0.132857
v 0.091731 0.088558 -0.133811
v 0.103053 0.088558 -0.114141
v 0.090328 0.088558 -0.115095
v 0.103053 0.087688 -0.114141
v 0.090328 0.087688 -0.115095
vn 0.2532 -0.1807 -0.9504
vn 0.2531 0.1818 -0.9502
vn -0.2144 0.2961 -0.9308
vn -0.2191 -0.2995 -0.9286
vn 0.4308 -0.3734 -0.8216
vn 0.3921 -0.8579 -0.3321
vn -0.3408 -0.8596 -0.3808
vn -0.3938 -0.8596 0.3257
vn -0.8766 -0.3706 0.3069
vn 0.4309 0.3738 -0.8213
vn 0.4538 0.2662 -0.8504
vn -0.8210 -0.3706 -0.4342
vn 0.4538 -0.2665 -0.8503
vn 0.9150 0.2477 -0.3185
vn -0.8175 0.3681 -0.4431
vn 0.8799 0.3669 -0.3020
vn 0.8799 -0.3669 -0.3020
vn -0.8744 0.3680 0.3162
vn 0.9150 -0.2477 -0.3185
vn -0.3552 -0.2995 0.8855
vn 0.3856 -0.8651 -0.3208
vn 0.8573 0.2476 0.4513
vn -0.3508 0.2961 0.8884
vn 0.3335 -0.8651 0.3747
vn 0.3857 0.8649 -0.3211
vn 0.1086 0.1818 0.9773
vn 0.8573 -0.2476 0.4513
vn 0.3335 0.8649 0.3751
vn 0.1086 -0.1808 0.9775
vn 0.8250 0.3669 0.4298
vn 0.8250 -0.3669 0.4298
vn 0.3036 0.3739 0.8764
vn 0.3920 0.8581 -0.3316
vn 0.3219 0.2662 0.9086
vn 0.3220 -0.2666 0.9084
vn 0.3382 0.8581 0.3863
vn 0.3035 -0.3733 0.8767
vn -0.3909 0.8575 0.3346
vn 0.5526 0.5953 0.5832
vn 0.5532 -0.5945 0.5835
vn 0.9972 -0.0000 0.0748
vn -0.3367 0.8574 -0.3892
vn 0.3382 -0.8579 0.3869
vn -0.0000 -1.0000 -0.0000
vn 0.6341 -0.5945 -0.4945
vn 0.6334 0.5953 -0.4944
vn -0.0000 1.0000 -0.0000
vn 0.0748 -0.0000 -0.9972
vn -0.0748 -0.0000 0.9972
vt 0.017192 0.258750
vt 0.017194 0.259206
vt 0.017134 0.249125
vt 0.017132 0.248707
vt 0.022016 0.978422
vt 0.026140 0.978387
vt 0.021254 0.248408
vt 0.979302 0.239950
vt 0.979271 0.235036
vt 0.021225 0.243495
vt 0.026170 0.983298
vt 0.983428 0.240179
vt 0.024837 0.979642
vt 0.984216 0.974840
vt 0.983431 0.240596
vt 0.985505 0.971163
vt 0.983490 0.250676
vt 0.983488 0.250221
vt 0.988312 0.969893
vt 0.984187 0.969928
vt 0.979398 0.256098
vt 0.957114 0.256288
vt 0.961725 0.940620
vt 0.048248 0.948699
vt 0.021352 0.264556
vt 0.043637 0.264366
vt 0.996853 0.216794
vt 0.050046 0.216794
vt 0.996850 -0.001827
vt 0.050043 -0.001827
vt 0.724329 -0.460030
vt 0.096339 0.894360
vt 0.631737 -0.678651
vt 0.003747 0.675740
vt 0.724328 -0.459924
vt 0.096341 0.894460
vt 0.631734 -0.678545
vt 0.003747 0.675839
s 1
g book1_room:ST_Bonnie_Woody_Jordan:bonnTrash_Paper_BookReading_room:ST_Bonnie_Woody_Jordan:bonnTrash_Paper_BookReading
usemtl room:ST_Bonnie_Woody_Jordan:bonnTrash_Paper_BookReading
f 1/1/1 2/2/2 3/3/3
f 3/3/3 2/2/2 4/4/4
f 2/2/2 5/5/5 4/4/4
f 5/5/5 6/6/6 4/4/4
f 4/4/4 6/6/6 7/7/7
f 6/6/6 8/8/8 7/7/7
f 9/9/9 7/7/7 8/8/8
f 3/3/3 10/5/10 1/1/1
f 11/5/11 5/5/5 2/2/2
f 12/10/12 7/7/7 9/9/9
f 4/4/4 7/7/7 12/10/12
f 1/1/1 10/5/10 13/5/13
f 14/11/14 5/5/5 11/5/11
f 12/10/12 15/10/15 4/4/4
f 4/4/4 15/10/15 3/3/3
f 10/5/10 16/11/16 13/5/13
f 17/11/17 5/5/5 14/11/14
f 9/9/9 18/9/18 12/10/12
f 12/10/12 18/9/18 15/10/15
f 13/5/13 16/11/16 19/11/19
f 17/11/17 6/6/6 5/5/5
f 20/12/20 18/9/18 9/9/9
f 21/13/21 13/5/13 19/11/19
f 14/11/14 22/14/22 17/11/17
f 23/15/23 18/9/18 20/12/20
f 19/11/19 24/16/24 21/13/21
f 14/11/14 25/13/25 22/14/22
f 20/12/20 26/17/26 23/15/23
f 16/11/16 27/14/27 19/11/19
f 27/14/27 24/16/24 19/11/19
f 22/14/22 25/13/25 28/16/28
f 23/15/23 26/17/26 29/18/29
f 30/14/30 27/14/27 16/11/16
f 17/11/17 22/14/22 31/14/31
f 29/18/29 32/19/32 23/15/23
f 30/14/30 32/19/32 27/14/27
f 16/11/16 33/6/33 30/14/30
f 34/19/34 31/14/31 22/14/22
f 28/16/28 34/19/34 22/14/22
f 35/19/35 32/19/32 29/18/29
f 27/14/27 32/19/32 35/19/35
f 30/14/30 33/6/33 36/20/36
f 32/19/32 36/20/36 23/15/23
f 26/17/26 37/19/37 34/19/34
f 37/19/37 31/14/31 34/19/34
f 32/19/32 30/14/30 36/20/36
f 33/6/33 38/8/38 36/20/36
f 23/15/23 36/20/36 38/8/38
f 20/12/20 37/19/37 26/17/26
f 28/16/28 39/21/39 34/19/34
f 39/21/39 29/18/29 26/17/26
f 23/15/23 38/8/38 18/9/18
f 8/8/8 37/19/37 20/12/20
f 34/19/34 39/21/39 26/17/26
f 40/21/40 29/18/29 39/21/39
f 38/8/38 15/10/15 18/9/18
f 20/12/20 9/9/9 8/8/8
f 40/21/40 39/21/39 41/22/41
f 42/7/42 15/10/15 38/8/38
f 40/21/40 35/19/35 29/18/29
f 43/20/43 37/19/37 8/8/8
f 42/7/42 38/8/38 33/6/33
f 24/16/24 35/19/35 40/21/40
f 43/20/43 8/8/8 6/6/6
f 33/6/33 3/3/3 42/7/42
f 3/3/3 15/10/15 42/7/42
f 24/16/24 27/14/27 35/19/35
f 6/6/6 17/11/17 43/20/43
f 10/5/10 3/3/3 33/6/33
f 24/16/24 40/21/40 44/23/44
f 31/14/31 37/19/37 43/20/43
f 43/20/43 17/11/17 31/14/31
f 16/11/16 10/5/10 33/6/33
f 44/23/44 40/21/40 45/22/44
f 46/24/44 24/16/24 44/23/44
f 21/13/21 24/16/24 46/24/44
f 21/13/21 46/24/44 47/25/45
f 21/13/21 47/25/45 13/5/13
f 47/25/45 46/24/44 48/26/44
f 13/5/13 47/25/45 1/1/1
f 1/1/1 47/25/45 2/2/2
f 2/2/2 47/25/45 49/25/46
f 49/25/46 11/5/11 2/2/2
f 49/25/46 47/25/45 50/26/41
f 50/26/41 47/25/45 51/26/41
f 25/13/25 11/5/11 49/25/46
f 25/13/25 49/25/46 52/24/47
f 25/13/25 14/11/14 11/5/11
f 52/24/47 49/25/46 53/26/47
f 54/23/47 25/13/25 52/24/47
f 28/16/28 25/13/25 54/23/47
f 28/16/28 54/23/47 39/21/39
f 39/21/39 54/23/47 55/22/47
f 41/22/41 39/21/39 56/22/41
f 57/27/41 58/28/41 59/29/41
f 59/29/41 58/28/41 60/30/41
f 61/31/48 62/32/48 63/33/48
f 63/33/48 62/32/48 64/34/48
f 65/35/49 66/36/49 67/37/49
f 67/37/49 66/36/49 68/38/49
