# Blender 4.1.1
# www.blender.org
mtllib Bridge2.mtl
o GUI_Map_RaisedHill6:GUI_Map_RaisedHill_GUI_Map_RaisedHi_af4c51e
v -0.000327 0.001320 0.018150
v 0.000246 0.001332 0.018096
v -0.000111 0.001319 0.017605
v 0.000371 0.001329 0.017457
v 0.000134 0.001326 0.016962
v 0.000076 0.001260 0.016907
v -0.000200 0.001247 0.017633
v 0.000185 0.001339 0.018455
v 0.000355 0.001275 0.018107
v 0.000316 0.001318 0.016901
v -0.000213 0.001022 0.017638
v 0.000167 0.001274 0.016829
v -0.000410 0.001249 0.018158
v 0.000468 0.001265 0.017427
v 0.000054 0.000893 0.016911
v -0.000484 0.001337 0.018472
v 0.000322 0.001251 0.016790
v -0.000422 0.001024 0.018160
v 0.000247 0.001309 0.018570
v 0.000298 0.000692 0.016314
v -0.000625 0.001304 0.018593
v 0.000754 0.000627 0.018298
v 0.000230 0.000619 0.016274
v 0.000132 0.001392 0.018573
v 0.000049 0.000434 0.016887
v 0.000462 0.000650 0.018802
v -0.000538 0.001398 0.018585
v -0.000224 0.000436 0.017636
v 0.000002 0.001351 0.019560
v -0.000198 0.001907 0.019022
v 0.000215 0.000431 0.016241
v 0.000477 0.000656 0.019915
v -0.000638 0.001896 0.018961
v 0.000296 0.000554 0.015589
v 0.000617 0.000370 0.018856
v -0.000261 0.001957 0.019133
v 0.000255 0.000357 0.015545
v 0.000802 0.000366 0.020073
v -0.000157 0.001889 0.019109
v 0.000310 0.000356 0.015556
v -0.000371 0.001903 0.019602
v 0.000360 0.000625 0.015725
v 0.000268 0.000312 0.015476
v 0.000318 0.000639 0.016195
v 0.000619 0.000314 0.015777
v -0.000622 0.001343 0.020604
v 0.000527 0.000627 0.015930
v 0.000803 0.000264 0.015584
v 0.000566 0.000557 0.015835
v 0.000886 0.000265 0.015696
v 0.000555 0.000638 0.016294
v 0.000696 0.000314 0.015894
v 0.000285 0.000262 0.015206
v 0.000611 0.000558 0.015962
v 0.001036 0.000267 0.016094
v 0.000297 0.000191 0.015189
v 0.000618 0.000615 0.016396
v 0.001053 0.000196 0.016080
v 0.000246 0.000191 0.015185
v 0.000802 0.000358 0.016302
v 0.000898 0.000194 0.015676
v 0.000237 0.000262 0.015202
v 0.000693 0.000361 0.015965
v 0.001053 -0.000034 0.016081
v -0.002993 0.000184 0.014905
v 0.000623 0.000361 0.015844
v 0.000898 -0.000035 0.015677
v -0.002993 -0.000046 0.014906
v 0.000817 -0.000036 0.015570
v -0.002996 0.000254 0.014924
v 0.000344 0.000552 0.015587
v 0.000816 0.000194 0.015569
v -0.003019 0.000306 0.015237
v 0.000298 -0.000039 0.015190
v 0.000227 0.000312 0.015471
v -0.002982 0.000313 0.015280
v 0.000253 -0.000039 0.015186
v -0.003026 0.000355 0.015292
v 0.000225 0.000319 0.015513
v -0.001437 0.001952 0.020037
v -0.000934 0.001956 0.020429
v -0.001001 0.001952 0.019436
v -0.001846 0.001953 0.020556
v -0.000481 0.001963 0.019587
v -0.001418 0.001957 0.021026
v -0.001074 0.001880 0.019415
v -0.000690 0.001952 0.019066
v -0.002278 0.001972 0.021021
v -0.000852 0.001893 0.020486
v -0.001493 0.001881 0.019994
v -0.001894 0.001882 0.020503
v -0.001082 0.000993 0.019415
v -0.001976 0.001969 0.021463
v -0.001499 0.000994 0.019989
v -0.001355 0.001891 0.021096
v -0.001509 0.000444 0.019983
v -0.001901 0.000996 0.020497
v -0.001220 0.001344 0.021241
v -0.001092 0.000442 0.019410
v -0.000297 0.000658 0.020899
v -0.001785 0.001345 0.021801
v -0.001910 0.000445 0.020490
v -0.000741 0.000440 0.018771
v -0.002008 0.001939 0.021599
v -0.002377 0.000997 0.020993
v -0.000730 0.001026 0.018775
v -0.001783 0.000659 0.021840
v -0.001941 0.000405 0.020464
v -0.000433 0.000438 0.018158
v -0.002325 0.001378 0.022275
v -0.001542 0.000403 0.019958
v -0.000471 0.000398 0.018142
v -0.002208 0.000735 0.022391
v -0.002409 0.000406 0.020960
v -0.000263 0.000396 0.017622
v -0.002679 0.000762 0.022903
v -0.001658 0.000379 0.021967
v -0.002382 0.000446 0.020990
v -0.000777 0.000400 0.018753
v -0.002030 0.000376 0.022574
v -0.002795 0.000447 0.021403
v -0.001126 0.000402 0.019388
v -0.002489 0.000376 0.023111
v -0.001654 0.000332 0.021972
v -0.002832 0.000997 0.021420
v -0.003255 0.000771 0.023391
v -0.002027 0.000333 0.022594
v -0.003367 0.000448 0.021860
v -0.002820 0.001403 0.022801
v -0.002836 0.000407 0.021387
v -0.003370 0.001421 0.023233
v -0.001530 0.000289 0.022093
v -0.003360 0.000998 0.021869
v -0.003704 0.000773 0.023711
v -0.001940 0.000292 0.022731
v -0.002913 0.001969 0.021507
v -0.003478 0.000374 0.023950
v -0.002491 0.000335 0.023135
v -0.002400 0.001941 0.021044
v -0.003097 0.000376 0.023633
v -0.002421 0.000292 0.023302
v -0.001930 0.000218 0.022747
v -0.003018 0.002747 0.021592
v -0.003091 0.000337 0.023640
v -0.003425 0.001984 0.021917
v -0.002365 0.002023 0.021105
v -0.003472 0.000337 0.023961
v -0.002972 0.002812 0.021642
v -0.003338 0.000293 0.024091
v -0.003852 0.000363 0.024192
v -0.003480 0.002922 0.021948
v -0.002069 0.002019 0.021540
v -0.003941 0.001969 0.022270
v -0.002677 0.002815 0.022086
v -0.004140 0.000768 0.023982
v -0.003938 0.000998 0.022275
v -0.002658 0.002765 0.022162
v -0.004863 0.000375 0.024759
v -0.004952 0.000746 0.024425
v -0.004485 0.000998 0.022609
v -0.002508 0.002013 0.022103
v -0.004305 0.001419 0.023900
v -0.004490 0.000449 0.022600
v -0.005044 0.001355 0.024241
v -0.003944 0.000448 0.022266
v -0.004441 0.002161 0.023754
v -0.005081 0.000449 0.022952
v -0.005192 0.002106 0.024045
v -0.004510 0.000409 0.022564
v -0.005926 0.001370 0.024431
v -0.005305 0.003268 0.023861
v -0.003966 0.000408 0.022231
v -0.005339 0.000744 0.024603
v -0.006111 0.002923 0.024067
v -0.003391 0.000408 0.021827
v -0.005960 0.000752 0.024711
v -0.005952 0.002045 0.024261
v -0.005351 0.000379 0.024985
v -0.006539 0.002763 0.024119
v -0.006157 0.002988 0.023981
v -0.005948 0.000383 0.025084
v -0.006694 0.001356 0.024375
v -0.006562 0.002839 0.024024
v -0.006892 0.001931 0.024228
v -0.006317 0.002985 0.023612
v -0.007066 0.001342 0.024315
v -0.005649 0.003270 0.023300
v -0.006686 0.000727 0.024592
v -0.006756 0.002830 0.023813
v -0.005353 0.003331 0.023787
v -0.006654 0.002747 0.024051
v -0.005101 0.003469 0.023051
v -0.006846 0.002743 0.023847
v -0.004749 0.003511 0.023653
v -0.007250 0.000655 0.024445
v -0.006981 0.001964 0.024162
v -0.006806 0.000375 0.024943
v -0.007188 0.001967 0.023943
v -0.007426 0.000374 0.024644
v -0.007192 0.001340 0.024259
v -0.004629 0.003466 0.023703
v -0.006835 0.000339 0.024950
v -0.004621 0.003511 0.023606
v -0.005977 0.000341 0.025116
v -0.007468 0.001331 0.024029
v -0.004982 0.003474 0.022988
v -0.006103 0.000290 0.025443
v -0.007382 0.000655 0.024392
v -0.004444 0.003305 0.022669
v -0.006936 0.000288 0.025273
v -0.007836 0.000653 0.024124
v -0.007470 0.000336 0.024660
v -0.007556 0.000355 0.024567
v -0.005076 0.003418 0.022962
v -0.007969 0.000377 0.024134
v -0.004483 0.003232 0.022611
v -0.007477 0.001277 0.023968
v -0.005079 0.001969 0.022957
v -0.007823 0.000652 0.024065
v -0.004487 0.001969 0.022605
v -0.007715 0.000652 0.023991
v -0.008040 0.000384 0.024052
v -0.005685 0.003188 0.023239
v -0.003938 0.003069 0.022278
v -0.007715 0.000448 0.023979
v -0.005689 0.001969 0.023233
v -0.007036 0.000449 0.023795
v -0.006345 0.002910 0.023547
v -0.007000 0.000997 0.023802
v -0.006348 0.001969 0.023539
v -0.006348 0.000449 0.023533
v -0.006346 0.000997 0.023544
v -0.003455 0.002998 0.022017
v -0.007046 0.000409 0.023755
v -0.006873 0.001968 0.023778
v -0.003908 0.003142 0.022343
v -0.007719 0.000408 0.023937
v -0.003139 0.003001 0.022589
v -0.002762 0.002879 0.022170
v -0.003614 0.003145 0.022995
v -0.003064 0.002878 0.021717
v -0.008079 0.000339 0.024009
v -0.003097 0.002928 0.022650
v -0.008115 0.000332 0.024053
v -0.004052 0.003308 0.023257
v -0.008040 0.000331 0.024140
v -0.002986 0.002061 0.022640
v -0.008351 0.000282 0.024162
v -0.003440 0.002102 0.023173
v -0.007819 0.000284 0.024845
v -0.003575 0.003074 0.023071
v -0.003903 0.002139 0.023468
v -0.008367 0.000212 0.024170
v -0.007832 0.000216 0.024861
v -0.004004 0.003236 0.023325
v -0.003802 0.001432 0.023581
v -0.007725 0.000216 0.024945
v -0.008361 -0.000018 0.024178
v -0.007831 -0.000014 0.024862
v -0.007725 -0.000014 0.024946
v -0.008435 -0.000018 0.024083
v -0.008435 0.000211 0.024083
v -0.006941 -0.000011 0.025293
v -0.008733 0.000197 0.020750
v -0.008416 0.000282 0.024078
v -0.006942 0.000219 0.025292
v -0.008733 -0.000032 0.020752
v -0.007709 0.000285 0.024931
v -0.006110 -0.000009 0.025464
v -0.008714 0.000267 0.020745
v -0.006111 0.000221 0.025463
v -0.008395 0.000318 0.020718
v -0.007587 0.000336 0.024581
v -0.008079 0.000339 0.024009
v -0.005359 -0.000008 0.025301
v -0.005360 0.000222 0.025300
v -0.004813 -0.000008 0.025044
v -0.005360 0.000292 0.025280
v -0.004813 0.000222 0.025043
v -0.003730 -0.000009 0.024405
v -0.005366 0.000340 0.025012
v -0.003730 0.000221 0.024404
v -0.004818 0.000293 0.025023
v -0.003324 -0.000009 0.024105
v -0.004874 0.000340 0.024780
v -0.003324 0.000221 0.024104
v -0.003740 0.000293 0.024387
v -0.002943 -0.000010 0.023771
v -0.002943 0.000220 0.023770
v -0.003850 0.000339 0.024206
v -0.002413 -0.000011 0.023322
v -0.002413 0.000219 0.023321
v -0.001929 -0.000012 0.022748
v -0.002957 0.000293 0.023758
v -0.001516 -0.000014 0.022107
v -0.001517 0.000216 0.022106
v -0.000745 -0.000013 0.021866
v -0.000745 0.000216 0.021866
v 0.000074 -0.000014 0.021310
v -0.000756 0.000289 0.021850
v 0.000073 0.000216 0.021309
v -0.000861 0.000333 0.021702
v 0.000607 -0.000015 0.020800
v 0.000061 0.000288 0.021295
v -0.000064 0.000332 0.021160
v 0.000607 0.000215 0.020799
v 0.001020 -0.000017 0.020169
v 0.000368 0.000332 0.020734
v -0.000860 0.000379 0.021691
v 0.001020 0.000213 0.020168
v 0.000587 0.000287 0.020793
v 0.000912 -0.000022 0.018905
v 0.000351 0.000362 0.020737
v 0.000809 0.000330 0.020073
v 0.001002 0.000285 0.020160
v 0.000911 0.000207 0.018904
v -0.000066 0.000370 0.021151
v -0.000076 0.000658 0.020618
v 0.000892 0.000278 0.018899
v 0.000636 0.000326 0.018835
v -0.000988 0.000659 0.021559
v 0.000963 0.000323 0.018322
v 0.001155 0.000279 0.018321
v 0.000952 0.000320 0.017330
v 0.001173 0.000206 0.018322
v 0.000930 0.000356 0.017345
v 0.001173 -0.000024 0.018322
v 0.001182 0.000272 0.017267
v 0.000793 0.000353 0.016669
v 0.000945 0.000362 0.018330
v 0.001201 -0.000029 0.017263
v 0.000758 0.000551 0.017342
v 0.001201 0.000201 0.017262
v 0.000569 0.000642 0.016723
v 0.001061 -0.000032 0.016469
v 0.000824 0.000317 0.016645
v 0.001060 0.000198 0.016468
v 0.001043 0.000269 0.016481
v 0.000402 0.001221 0.016795
v 0.000835 0.000315 0.016271
v 0.000514 0.000697 0.016382
v -0.008746 0.000263 0.019765
v -0.008463 0.000313 0.019783
v -0.008440 0.000263 0.019341
v -0.008458 0.000192 0.019333
v -0.008231 0.000311 0.019446
v -0.008771 0.000193 0.019771
v -0.007950 0.000263 0.019002
v -0.008493 0.000314 0.019914
v -0.008771 -0.000037 0.019772
v -0.007810 0.000311 0.019165
v -0.008787 0.000264 0.019900
v -0.008458 -0.000038 0.019334
v -0.007559 0.000263 0.018760
v -0.008435 0.000357 0.019918
v -0.008806 -0.000036 0.019899
v -0.007455 0.000310 0.018927
v -0.008401 0.000357 0.019788
v -0.008806 0.000194 0.019898
v -0.008187 0.000356 0.019484
v -0.008076 0.000999 0.019832
v -0.008741 0.000197 0.020664
v -0.007772 0.000358 0.019202
v -0.008741 -0.000033 0.020661
v -0.007118 0.000309 0.018667
v -0.007564 0.001033 0.019330
v -0.008733 -0.000032 0.020752
v -0.007237 0.000263 0.018518
v -0.007423 0.000357 0.018967
v -0.008733 0.000197 0.020750
v -0.006991 0.000262 0.018299
v -0.008721 0.000267 0.020669
v -0.007568 0.000191 0.018745
v -0.007216 0.001033 0.019080
v -0.007248 0.000191 0.018504
v -0.007085 0.000357 0.018707
v -0.007568 -0.000038 0.018746
v -0.006933 0.001033 0.018877
v -0.008714 0.000267 0.020745
v -0.007961 -0.000038 0.018988
v -0.006809 0.000356 0.018469
v -0.008406 0.000318 0.020629
v -0.007962 0.000192 0.018987
v -0.006648 0.001033 0.018648
v -0.008395 0.000318 0.020718
v -0.006565 0.000355 0.018266
v -0.008350 0.000360 0.020628
v -0.006358 0.001033 0.018493
v -0.008339 0.000361 0.020708
v -0.006169 0.001032 0.018141
v -0.008054 0.001030 0.020540
v -0.006310 0.001805 0.019062
v -0.008091 0.001028 0.019946
v -0.006019 0.001854 0.018834
v -0.007700 0.001798 0.020389
v -0.005889 0.001874 0.018620
v -0.007723 0.001798 0.019989
v -0.005471 0.001872 0.017970
v -0.005804 0.002339 0.018715
v -0.007666 0.001764 0.020451
v -0.007665 0.001795 0.019880
v -0.008008 0.001043 0.020601
v -0.007602 0.001862 0.020350
v -0.005195 0.002594 0.018287
v -0.007656 0.001038 0.020480
v -0.007624 0.001862 0.019961
v -0.005967 0.001947 0.018925
v -0.007236 0.001039 0.020315
v -0.007248 0.001863 0.020224
v -0.006049 0.001880 0.018990
v -0.007639 0.000434 0.020494
v -0.007302 0.001862 0.019766
v -0.007230 0.000434 0.020330
v -0.006826 0.001864 0.020035
v -0.007330 0.001800 0.019663
v -0.006263 0.001863 0.019163
v -0.008026 0.000434 0.020640
v -0.005839 0.001876 0.019445
v -0.006114 0.001864 0.019627
v -0.006611 0.001863 0.019363
v -0.005756 0.001942 0.019385
v -0.006488 0.001864 0.019849
v -0.006921 0.001863 0.019543
v -0.005594 0.002364 0.019246
v -0.006650 0.001803 0.019263
v -0.005521 0.002358 0.019281
v -0.005788 0.002361 0.018813
v -0.006956 0.001802 0.019442
v -0.005516 0.002444 0.019181
v -0.005704 0.002443 0.018758
v -0.005744 0.001805 0.019464
v -0.005379 0.001878 0.019221
v -0.004918 0.002636 0.018715
v -0.005048 0.001878 0.018936
v -0.004890 0.002587 0.018798
v -0.005046 0.001038 0.018940
v -0.005151 0.002635 0.018372
v -0.005377 0.001039 0.019224
v -0.004817 0.002640 0.018620
v -0.005744 0.001039 0.019489
v -0.005049 0.002640 0.018281
v -0.006092 0.001794 0.019697
v -0.004448 0.002544 0.018224
v -0.004613 0.002509 0.017769
v -0.006470 0.001794 0.019921
v -0.004152 0.002440 0.017815
v -0.006812 0.001794 0.020108
v -0.005089 0.002596 0.018183
v -0.004314 0.002437 0.017572
v -0.006085 0.001039 0.019714
v -0.004648 0.002433 0.017684
v -0.006464 0.001039 0.019938
v -0.005187 0.001872 0.017762
v -0.005735 0.000433 0.019503
v -0.006808 0.001039 0.020125
v -0.004722 0.001873 0.017586
v -0.006077 0.000434 0.019728
v -0.006457 0.000434 0.019953
v -0.005006 0.001105 0.017264
v -0.005440 0.001107 0.017482
v -0.005311 0.000433 0.019192
v -0.006801 0.000434 0.020140
v -0.005035 0.000432 0.018953
v -0.007239 0.001794 0.020298
v -0.004724 0.001038 0.018658
v -0.004713 0.000432 0.018670
v -0.004399 0.000431 0.018334
v -0.004727 0.001878 0.018655
v -0.004411 0.001037 0.018322
v -0.004767 0.002583 0.018671
v -0.004153 0.001037 0.018012
v -0.004413 0.001877 0.018319
v -0.004141 0.000430 0.018023
v -0.004420 0.002479 0.018302
v -0.003881 0.000429 0.017615
v -0.004155 0.001876 0.018009
v -0.003894 0.001035 0.017605
v -0.003924 0.001840 0.017621
v -0.003676 0.001035 0.017256
v -0.004079 0.002356 0.017842
v -0.003663 0.000428 0.017265
v -0.003692 0.001790 0.017250
v -0.003479 0.000427 0.016880
v -0.003964 0.001938 0.017557
v -0.004089 0.002361 0.017733
v -0.003493 0.001033 0.016872
v -0.003908 0.001872 0.017460
v -0.003367 0.001032 0.016531
v -0.003504 0.001788 0.016858
v -0.004241 0.002360 0.017502
v -0.003766 0.001862 0.017237
v -0.003392 0.001750 0.016537
v -0.004155 0.001938 0.017264
v -0.003333 0.000426 0.016541
v -0.003492 0.001856 0.016604
v -0.004350 0.002367 0.017480
v -0.003246 0.000999 0.016169
v -0.003556 0.001858 0.016795
v -0.003203 0.000424 0.016150
v -0.003736 0.001857 0.016576
v -0.003142 0.000945 0.015755
v -0.004113 0.001873 0.017178
v -0.003714 0.001794 0.016493
v -0.004223 0.001844 0.017177
v -0.003292 0.001030 0.016061
v -0.003454 0.001792 0.016504
v -0.003320 0.001095 0.016161
v -0.003748 0.001092 0.016133
v -0.004446 0.001041 0.016866
v -0.003702 0.001026 0.016034
v -0.003813 0.001788 0.016526
v -0.004171 0.001030 0.016566
v -0.004563 0.000353 0.016620
v -0.004743 0.001010 0.016897
v -0.004680 0.000934 0.016816
v -0.005060 0.001039 0.017175
v -0.004760 0.000355 0.016675
v -0.005279 0.000913 0.016804
v -0.004579 0.000304 0.016565
v -0.005228 0.000993 0.016882
v -0.005500 0.001040 0.017401
v -0.005386 0.000353 0.016703
v -0.004345 0.000352 0.016361
v -0.005743 0.000912 0.016960
v -0.004366 0.000303 0.016303
v -0.005697 0.000989 0.017030
v -0.004743 0.001010 0.016897
v -0.004626 0.000260 0.016393
v -0.005926 0.000989 0.017235
v -0.005279 0.000913 0.016804
v -0.005228 0.000993 0.016882
v -0.005778 0.001028 0.017541
v -0.004835 0.000259 0.016464
v -0.004408 0.000260 0.016126
v -0.005852 0.000354 0.016890
v -0.004002 0.000302 0.015852
v -0.005979 0.000914 0.017172
v -0.005787 0.001088 0.017660
v -0.004031 0.000259 0.015660
v -0.006163 0.000354 0.017169
v -0.003768 0.000301 0.015566
v -0.005997 0.000955 0.017246
v -0.003797 0.000258 0.015370
v -0.005697 0.000989 0.017030
v -0.006239 0.000353 0.017282
v -0.003578 0.000302 0.015332
v -0.004034 0.000185 0.015636
v -0.005926 0.000989 0.017235
v -0.006286 0.000348 0.017423
v -0.004413 0.000186 0.016105
v -0.003590 0.000255 0.015094
v -0.005997 0.000955 0.017246
v -0.004413 -0.000043 0.016106
v -0.003798 0.000184 0.015344
v -0.003459 0.000304 0.015274
v -0.003463 0.000255 0.015006
v -0.004637 0.000187 0.016381
v -0.004034 -0.000045 0.015637
v -0.003574 0.000184 0.015050
v -0.003798 -0.000045 0.015345
v -0.003574 -0.000046 0.015052
v -0.004638 -0.000043 0.016384
v -0.003462 0.000184 0.014983
v -0.004838 0.000187 0.016446
v -0.003462 -0.000046 0.014985
v -0.003103 0.000254 0.014943
v -0.004858 -0.000043 0.016450
v -0.005522 0.000259 0.016513
v -0.003123 0.000305 0.015210
v -0.003103 0.000184 0.014923
v -0.005419 0.000303 0.016661
v -0.005879 0.000304 0.016856
v -0.004779 0.000305 0.016632
v -0.003091 -0.000046 0.014923
v -0.003133 0.000350 0.015262
v -0.003454 0.000351 0.015324
v -0.005997 0.000258 0.016702
v -0.003390 0.000945 0.015462
v -0.005533 0.000186 0.016497
v -0.003142 0.000947 0.015451
v -0.003026 0.000355 0.015292
v -0.003166 0.001014 0.015544
v -0.006008 0.000186 0.016688
v -0.003089 0.000944 0.015520
v -0.006008 -0.000044 0.016689
v -0.006346 0.000186 0.016982
v -0.003099 0.000423 0.015734
v -0.003413 0.001013 0.015550
v -0.006335 0.000258 0.016997
v -0.003019 0.000306 0.015237
v -0.003219 0.001015 0.015759
v -0.006342 -0.000043 0.016980
v -0.003551 0.001014 0.015781
v -0.006201 0.000305 0.017143
v -0.006424 -0.000043 0.017090
v -0.006417 0.000259 0.017111
v -0.006427 0.000187 0.017093
v -0.006282 0.000305 0.017254
v -0.003650 0.000947 0.015767
v -0.003497 0.000945 0.015524
v -0.003838 0.000964 0.016077
v -0.006340 0.000305 0.017395
v -0.003985 0.000351 0.015914
v -0.006495 0.000260 0.017292
v -0.003754 0.000351 0.015627
v -0.006550 0.000260 0.017423
v -0.006393 0.000306 0.017525
v -0.006597 0.000261 0.017539
v -0.006510 0.000187 0.017282
v -0.003862 0.001029 0.016153
v -0.006455 0.000306 0.017673
v -0.006775 0.000262 0.018106
v -0.006509 -0.000042 0.017284
v -0.006791 0.000190 0.018096
v -0.006565 0.000188 0.017411
v -0.006611 0.000188 0.017526
v -0.006790 -0.000040 0.018097
v -0.007004 -0.000039 0.018287
v -0.006611 -0.000042 0.017527
v -0.006564 -0.000042 0.017412
v -0.007004 0.000191 0.018286
v -0.007248 -0.000039 0.018505
v -0.006847 0.000309 0.018433
v -0.006608 0.000309 0.018230
v -0.006411 0.000352 0.017724
v -0.006337 0.000348 0.017553
v -0.005853 0.001028 0.017693
v -0.005892 0.000966 0.017550
v -0.004680 0.000934 0.016816
v 0.000009 0.000394 0.016876
v -0.000759 0.001884 0.019006
v -0.005690 0.000449 0.023227
v -0.005687 0.000998 0.023237
v -0.005076 0.000998 0.022961
v -0.006359 0.000409 0.023493
v -0.005704 0.000409 0.023188
v -0.005098 0.000409 0.022914
v -0.006863 0.002702 0.023783
v -0.007157 0.001968 0.023869
v -0.003570 0.000351 0.015392
v -0.005533 -0.000044 0.016497
v -0.002996 0.000254 0.014924
v -0.002993 0.000184 0.014905
v -0.002993 -0.000046 0.014906
v -0.003057 0.000383 0.015740
v -0.003099 0.000423 0.015734
v -0.003161 0.000385 0.016160
v -0.003026 0.000355 0.015292
v -0.002982 0.000313 0.015280
v -0.003203 0.000424 0.016150
v -0.003295 0.000386 0.016555
v -0.003333 0.000426 0.016541
v -0.003441 0.000387 0.016896
v -0.003479 0.000427 0.016880
v -0.003626 0.000388 0.017284
v -0.003663 0.000428 0.017265
v -0.003847 0.000389 0.017637
v -0.003881 0.000429 0.017615
v -0.004141 0.000430 0.018023
v -0.004108 0.000390 0.018047
v -0.004368 0.000391 0.018361
v -0.004399 0.000431 0.018334
v -0.004684 0.000392 0.018699
v -0.004713 0.000432 0.018670
v -0.005008 0.000393 0.018983
v -0.005035 0.000432 0.018953
v -0.005283 0.000393 0.019223
v -0.005311 0.000433 0.019192
v -0.005713 0.000394 0.019538
v -0.005735 0.000433 0.019503
v -0.006077 0.000434 0.019728
v -0.006057 0.000394 0.019764
v -0.006457 0.000434 0.019953
v -0.006440 0.000394 0.019990
v -0.006801 0.000434 0.020140
v -0.006787 0.000394 0.020179
v -0.007230 0.000434 0.020330
v -0.007219 0.000394 0.020370
v -0.007639 0.000434 0.020494
v -0.007630 0.000394 0.020535
v -0.008026 0.000434 0.020640
v -0.008021 0.000394 0.020682
v -0.008339 0.000361 0.020708
v -0.008351 0.000325 0.020755
v -0.008339 0.000361 0.020708
v -0.008351 0.000325 0.020755
v 0.000009 0.000394 0.016876
v 0.000049 0.000434 0.016887
v 0.000170 0.000391 0.016235
v 0.000215 0.000431 0.016241
v 0.000255 0.000357 0.015545
v 0.000225 0.000319 0.015513
vn -0.0131 0.9991 -0.0392
vn -0.0130 0.9991 -0.0392
vn -0.0043 1.0000 -0.0040
vn -0.0042 1.0000 -0.0040
vn -0.9563 0.0549 -0.2872
vn -0.9342 0.0497 -0.3531
vn 0.8182 0.4850 0.3087
vn -0.9382 0.0236 -0.3452
vn 0.0897 0.6431 -0.7605
vn -0.8933 0.0446 -0.4471
vn 0.9215 0.3468 -0.1747
vn -0.9621 0.0534 -0.2675
vn 0.0898 0.6431 -0.7605
vn -0.8938 0.0194 -0.4480
vn 0.8538 0.4582 0.2472
vn -0.8531 0.0721 -0.5167
vn -0.9621 0.0535 -0.2675
vn 0.0315 0.6399 -0.7679
vn -0.9621 0.0535 -0.2676
vn 0.0314 0.6399 -0.7679
vn 0.6586 0.6065 0.4454
vn 0.0315 0.6398 -0.7679
vn 0.0314 0.6398 -0.7679
vn -0.9824 0.1624 -0.0921
vn 0.7792 0.4231 0.4624
vn -0.0144 0.9998 -0.0156
vn -0.9824 0.1625 -0.0921
vn 0.5384 0.7455 0.3927
vn 0.7062 0.0771 -0.7038
vn 0.0193 0.9994 -0.0301
vn 0.1198 0.9800 -0.1589
vn 0.0192 0.9994 -0.0301
vn 0.1476 0.9832 -0.1076
vn 0.1475 0.9832 -0.1076
vn 0.8867 0.2092 -0.4123
vn 0.1476 0.9832 -0.1075
vn 0.8867 0.2092 -0.4122
vn 0.1762 0.9818 -0.0705
vn 0.5907 -0.0022 -0.8069
vn 0.8386 0.5420 0.0541
vn 0.9998 0.0018 -0.0188
vn 0.0861 -0.0038 -0.9963
vn 0.9337 0.0003 -0.3581
vn 0.0115 0.9852 -0.1712
vn 0.0861 -0.0039 -0.9963
vn 0.9337 0.0002 -0.3581
vn 0.5908 -0.0022 -0.8068
vn 0.0115 0.9852 -0.1713
vn 0.0111 0.9929 -0.1183
vn 0.0860 -0.0039 -0.9963
vn 0.9825 0.0540 0.1783
vn -0.0038 1.0000 -0.0049
vn -0.0037 1.0000 -0.0049
vn 0.0177 0.9997 -0.0155
vn -0.0143 0.9998 -0.0156
vn 0.0178 0.9997 -0.0155
vn -0.8531 0.0720 -0.5167
vn 0.0178 0.9997 -0.0156
vn 0.6940 0.3777 0.6129
vn -0.7850 0.0100 -0.6194
vn -0.7255 0.0154 -0.6881
vn -0.7846 0.0198 -0.6197
vn -0.7239 0.0145 -0.6898
vn -0.8764 0.0197 -0.4812
vn 0.6629 0.5389 0.5197
vn 0.7143 0.1382 0.6861
vn -0.7238 0.0145 -0.6898
vn 0.6422 -0.0160 0.7664
vn 0.7059 0.5113 0.4902
vn -0.0019 1.0000 -0.0041
vn 0.4785 0.6555 0.5842
vn -0.6954 -0.0083 -0.7186
vn 0.2225 0.9655 0.1355
vn -0.6765 0.0170 -0.7363
vn 0.4785 0.6555 0.5843
vn -0.5743 0.0196 -0.8184
vn 0.5997 0.2206 0.7692
vn -0.0019 1.0000 -0.0042
vn 0.6000 0.2202 0.7691
vn -0.5702 -0.0012 -0.8215
vn 0.3664 0.7302 0.5767
vn -0.6184 -0.0046 -0.7858
vn 0.1561 0.9707 0.1827
vn -0.7257 0.0157 -0.6878
vn 0.1560 0.9707 0.1827
vn 0.7642 0.0041 0.6449
vn -0.6184 -0.0045 -0.7859
vn -0.5745 0.0009 -0.8185
vn 0.5812 0.7133 -0.3916
vn 0.1271 0.9751 0.1818
vn 0.5812 0.7133 -0.3917
vn 0.1271 0.9751 0.1817
vn 0.5812 0.7134 -0.3916
vn 0.3663 0.7302 0.5767
vn -0.5701 -0.0012 -0.8216
vn 0.3261 0.7104 0.6238
vn 0.4880 0.2125 0.8466
vn -0.5118 -0.0051 -0.8591
vn 0.5482 0.1398 0.8246
vn -0.5118 0.0195 -0.8589
vn 0.4960 0.2404 0.8344
vn 0.2954 0.1322 0.9462
vn -0.1218 0.2106 0.9700
vn 0.4880 0.2124 0.8466
vn -0.0686 0.2125 0.9747
vn -0.1693 0.3277 0.9295
vn 0.3260 0.7104 0.6238
vn -0.2936 0.9423 0.1609
vn -0.1435 0.7330 0.6650
vn -0.2937 0.9423 0.1609
vn -0.2937 0.9423 0.1608
vn -0.1517 0.1883 0.9703
vn -0.2873 0.9544 0.0811
vn -0.2873 0.9544 0.0812
vn -0.6743 0.3734 0.6371
vn -0.6743 0.3733 0.6371
vn -0.1980 0.2555 0.9463
vn -0.6743 0.3733 0.6372
vn -0.1436 0.7329 0.6650
vn -0.2387 0.6887 0.6846
vn -0.6400 0.3488 0.6846
vn 0.5069 0.1443 0.8499
vn -0.0311 0.9892 0.1431
vn 0.2197 0.9607 -0.1696
vn -0.6401 0.3488 0.6846
vn 0.2197 0.9607 -0.1698
vn -0.0311 0.9892 0.1430
vn -0.5323 0.4730 0.7021
vn 0.2197 0.9607 -0.1697
vn -0.0312 0.9892 0.1430
vn -0.5323 0.4730 0.7020
vn -0.0638 0.9889 0.1339
vn -0.5104 0.0048 -0.8599
vn -0.5324 0.4730 0.7020
vn -0.5103 0.0049 -0.8600
vn -0.3160 0.0146 -0.9486
vn -0.5103 0.0048 -0.8600
vn -0.5547 0.1821 -0.8119
vn -0.2881 0.0754 -0.9546
vn -0.3406 0.2040 -0.9178
vn -0.4135 0.0050 -0.9105
vn -0.2663 0.0361 -0.9632
vn -0.4115 -0.0050 -0.9114
vn -0.4159 0.0110 -0.9094
vn -0.3161 0.0146 -0.9486
vn -0.4159 0.0109 -0.9093
vn -0.3618 0.0275 -0.9319
vn -0.3883 0.0112 -0.9215
vn 0.1932 0.9736 -0.1213
vn -0.3073 0.0119 -0.9515
vn 0.2133 0.9706 -0.1120
vn -0.1937 0.9810 0.0130
vn 0.1933 0.9736 -0.1213
vn 0.2133 0.9706 -0.1118
vn -0.1937 0.9810 0.0129
vn 0.7533 0.1270 0.6453
vn -0.1610 0.9869 0.0096
vn 0.2198 0.9607 -0.1697
vn -0.1267 0.9864 0.1048
vn 0.6990 0.2474 0.6710
vn -0.1266 0.9864 0.1047
vn -0.1266 0.9864 0.1048
vn -0.7905 0.0011 0.6124
vn -0.7905 0.0011 0.6125
vn -0.4056 0.0030 0.9141
vn -0.7906 0.0010 0.6124
vn -0.7905 0.0010 0.6124
vn -0.4055 0.0030 0.9141
vn -0.9964 -0.0015 0.0850
vn -0.1609 0.9869 0.0097
vn -0.0637 0.9889 0.1339
vn 0.2126 0.0043 0.9771
vn -0.1609 0.9869 0.0096
vn 0.2126 0.0044 0.9771
vn 0.2127 0.0044 0.9771
vn 0.4255 0.0045 0.9049
vn 0.0814 0.9817 0.1722
vn 0.5936 0.0043 0.8047
vn 0.0814 0.9817 0.1723
vn 0.5936 0.0044 0.8047
vn 0.0813 0.9817 0.1723
vn 0.6592 0.0042 0.7519
vn 0.6593 0.0043 0.7519
vn 0.6593 0.0042 0.7519
vn 0.1272 0.9751 0.1818
vn 0.7642 0.0040 0.6450
vn 0.7642 0.0040 0.6449
vn 0.8406 0.0037 0.5416
vn 0.2977 0.0044 0.9547
vn 0.2977 0.0044 0.9546
vn 0.6907 0.0042 0.7231
vn 0.0798 0.9663 0.2449
vn 0.0797 0.9663 0.2449
vn 0.8367 0.0038 0.5476
vn 0.1609 0.9732 0.1643
vn 0.1610 0.9732 0.1643
vn 0.8367 0.0037 0.5476
vn 0.1756 0.9779 0.1131
vn 0.3024 0.3959 0.8671
vn 0.8368 0.0038 0.5476
vn 0.1756 0.9779 0.1132
vn 0.9963 0.0015 -0.0855
vn 0.5385 0.7455 0.3928
vn 0.5044 0.7305 0.4603
vn 0.1875 0.9773 0.0991
vn 0.5021 0.2968 0.8123
vn 0.1875 0.9772 0.0992
vn 0.1875 0.9773 0.0992
vn 0.1900 0.9810 -0.0389
vn 0.9123 0.0034 0.4095
vn 0.8041 0.5732 -0.1575
vn 0.9123 0.0033 0.4095
vn 0.1900 0.9810 -0.0388
vn 0.9847 0.0011 -0.1744
vn 0.8042 0.5732 -0.1575
vn 0.8387 0.5419 0.0541
vn 0.9998 0.0017 -0.0188
vn 0.1901 0.9810 -0.0388
vn 0.1763 0.9818 -0.0705
vn -0.1653 0.9790 -0.1194
vn -0.1256 0.9745 -0.1859
vn -0.5710 -0.0044 -0.8209
vn -0.1257 0.9745 -0.1859
vn -0.9644 -0.0020 -0.2643
vn -0.1215 0.9742 -0.1903
vn -0.1654 0.9861 0.0128
vn -0.9644 -0.0020 -0.2644
vn -0.1215 0.9742 -0.1904
vn -0.1653 0.9862 0.0128
vn -0.1419 0.9719 -0.1877
vn -0.8981 0.4320 0.0830
vn -0.9964 -0.0011 0.0849
vn -0.1419 0.9719 -0.1878
vn -0.7442 0.4130 -0.5250
vn -0.9964 -0.0015 0.0849
vn -0.7442 0.4130 -0.5249
vn -0.9964 -0.0014 0.0850
vn -0.5430 0.3065 -0.7818
vn -0.1543 0.9719 -0.1777
vn -0.4780 0.4851 -0.7323
vn -0.5686 0.3108 -0.7617
vn -0.1653 0.9862 0.0127
vn -0.6007 -0.0043 -0.7995
vn -0.4686 0.5141 -0.7184
vn -0.6037 0.3273 -0.7269
vn -0.4747 0.5479 -0.6888
vn -0.1608 0.9869 0.0112
vn -0.5251 -0.0044 -0.8510
vn -0.6038 0.3273 -0.7269
vn -0.1654 0.9862 0.0128
vn -0.5252 -0.0044 -0.8510
vn -0.8414 0.4322 -0.3243
vn -0.8980 0.4320 0.0835
vn -0.7667 0.4898 -0.4149
vn 0.1994 0.0565 0.9783
vn -0.6989 0.5569 -0.4488
vn -0.8981 0.4319 0.0831
vn -0.8372 0.2516 -0.4856
vn -0.9023 0.4278 0.0538
vn -0.7187 0.4983 -0.4850
vn -0.9023 0.4279 0.0537
vn -0.7186 0.4984 -0.4850
vn -0.7054 0.4142 -0.5752
vn 0.3255 0.0416 0.9446
vn -0.6007 0.4148 -0.6835
vn 0.1995 0.0565 0.9783
vn -0.0042 1.0000 -0.0007
vn -0.7054 0.4142 -0.5753
vn 0.3388 0.0413 0.9400
vn -0.0042 1.0000 -0.0008
vn -0.8158 0.4438 0.3709
vn 0.4056 0.0226 0.9138
vn -0.0437 0.9988 0.0199
vn 0.3388 0.0413 0.9399
vn 0.4052 0.0275 0.9138
vn -0.0015 1.0000 -0.0017
vn -0.0436 0.9989 0.0199
vn -0.0436 0.9988 0.0199
vn -0.0014 1.0000 -0.0013
vn -0.8158 0.4438 0.3710
vn -0.0013 1.0000 -0.0013
vn -0.0015 1.0000 -0.0018
vn 0.5472 0.0563 0.8351
vn -0.4685 0.5141 -0.7184
vn -0.2293 0.9654 0.1242
vn -0.2294 0.9654 0.1241
vn 0.5471 0.0563 0.8352
vn 0.6762 0.0068 0.7367
vn 0.6589 0.0050 0.7522
vn 0.5883 0.0245 0.8082
vn 0.1466 0.9823 -0.1169
vn 0.5883 0.0245 0.8083
vn 0.1466 0.9823 -0.1170
vn 0.5096 0.0226 0.8601
vn 0.5096 0.0227 0.8601
vn 0.1595 0.9789 -0.1279
vn 0.4781 0.0226 0.8780
vn -0.5467 0.4885 -0.6801
vn 0.5094 0.0275 0.8601
vn -0.5678 0.2620 -0.7803
vn -0.5234 0.4712 -0.7099
vn -0.5234 0.4713 -0.7099
vn -0.4728 0.4600 -0.7516
vn 0.4777 0.0275 0.8781
vn 0.6588 0.0274 0.7519
vn 0.4056 0.0227 0.9138
vn 0.6590 0.0050 0.7522
vn 0.7686 0.0272 0.6392
vn 0.6763 0.0068 0.7366
vn 0.7688 0.0048 0.6395
vn 0.8512 0.0124 0.5246
vn 0.7923 0.0520 0.6079
vn 0.8437 0.0270 0.5361
vn 0.7923 0.0521 0.6079
vn 0.8437 0.0269 0.5361
vn 0.8593 0.0403 0.5098
vn 0.8512 0.0124 0.5247
vn 0.8594 0.0403 0.5098
vn 0.9019 0.0221 0.4313
vn 0.9018 0.0266 0.4313
vn 0.9019 0.0222 0.4313
vn 0.7550 0.4307 -0.4945
vn 0.0364 0.9991 -0.0207
vn 0.9492 0.0306 0.3131
vn 0.7549 0.4307 -0.4945
vn 0.0364 0.9991 -0.0206
vn 0.9477 0.0592 0.3135
vn 0.0070 0.9999 -0.0097
vn 0.9492 0.0307 0.3131
vn 0.0069 0.9999 -0.0097
vn 0.9825 0.0540 0.1782
vn 0.0489 0.4512 -0.8911
vn -0.0050 0.9987 -0.0502
vn 0.0490 0.4511 -0.8911
vn 0.0489 0.4511 -0.8911
vn -0.4276 0.5523 -0.7157
vn -0.0049 0.9987 -0.0502
vn -0.7570 0.3269 -0.5658
vn -0.6736 0.3382 -0.6572
vn -0.0316 0.9899 -0.1385
vn -0.0166 0.2110 -0.9773
vn -0.0166 0.2110 -0.9774
vn -0.2223 0.9577 -0.1828
vn -0.0842 0.9923 -0.0903
vn -0.0165 0.2110 -0.9773
vn -0.6516 0.2182 -0.7265
vn -0.0316 0.9899 -0.1384
vn -0.2223 0.9577 -0.1827
vn -0.0842 0.9924 -0.0902
vn -0.0165 0.2109 -0.9774
vn -0.6516 0.2181 -0.7265
vn -0.0315 0.9899 -0.1384
vn -0.0842 0.9924 -0.0903
vn -0.0170 0.9639 -0.2658
vn -0.2198 0.9588 -0.1802
vn -0.2198 0.9588 -0.1801
vn -0.2219 0.9589 -0.1766
vn -0.8847 0.4535 0.1077
vn -0.0841 0.9924 -0.0902
vn -0.8848 0.4534 0.1077
vn -0.7774 -0.0040 -0.6291
vn -0.0841 0.9924 -0.0903
vn -0.7773 -0.0039 -0.6291
vn -0.2218 0.9590 -0.1766
vn -0.7773 -0.0040 -0.6291
vn -0.7949 -0.0038 -0.6067
vn -0.0338 0.9821 -0.1851
vn -0.0337 0.9821 -0.1851
vn -0.2999 0.0007 -0.9540
vn -0.7949 -0.0038 -0.6068
vn -0.7949 -0.0039 -0.6067
vn -0.7949 -0.0044 -0.6068
vn -0.1645 -0.0056 -0.9864
vn -0.2998 0.0007 -0.9540
vn -0.2998 -0.0000 -0.9540
vn -0.1644 -0.0055 -0.9864
vn -0.1524 0.9727 -0.1752
vn -0.1645 -0.0055 -0.9864
vn -0.1219 0.2677 -0.9558
vn -0.1523 0.9727 -0.1752
vn -0.3739 -0.0044 -0.9274
vn -0.1218 0.2677 -0.9558
vn -0.0019 1.0000 -0.0039
vn -0.6570 -0.0042 -0.7539
vn 0.9825 0.0539 0.1782
vn -0.6570 -0.0043 -0.7539
vn -0.8053 -0.0074 -0.5928
vn -0.0020 1.0000 -0.0040
vn -0.8053 -0.0060 -0.5929
vn -0.9149 -0.0086 -0.4035
vn -0.2243 0.9696 -0.0983
vn -0.9149 -0.0076 -0.4035
vn -0.2243 0.9695 -0.0983
vn -0.7922 0.2450 -0.5589
vn -0.7418 0.3491 -0.5726
vn -0.2243 0.9695 -0.0984
vn -0.2242 0.9696 -0.0983
vn -0.2224 0.9704 -0.0937
vn -0.2317 0.9701 -0.0720
vn -0.9150 -0.0076 -0.4035
vn -0.6659 -0.0042 -0.7460
vn -0.9207 -0.0041 -0.3902
vn -0.9263 -0.0032 -0.3768
vn -0.6659 -0.0044 -0.7460
vn -0.9263 -0.0032 -0.3767
vn -0.9207 -0.0041 -0.3901
vn -0.6659 -0.0042 -0.7461
vn -0.6989 0.5569 -0.4487
vn -0.8848 0.4535 0.1076
vn -0.0165 0.2110 -0.9774
vn -0.8532 0.0720 -0.5166
vn -0.4114 0.0196 -0.9112
vn -0.3073 0.0120 -0.9515
vn -0.3740 -0.0044 -0.9274
vn 0.0111 0.9929 -0.1182
vn -0.0020 1.0000 -0.0041
vn 0.9478 0.0592 0.3135
vn -0.0020 1.0000 -0.0042
vn 0.8437 0.0268 0.5361
vn 0.7686 0.0271 0.6392
vn 0.6588 0.0273 0.7519
vn 0.6587 0.0273 0.7519
vn 0.5883 0.0244 0.8082
vn 0.5883 0.0244 0.8083
vn 0.5093 0.0275 0.8601
vn 0.4777 0.0274 0.8781
vn -0.0019 1.0000 -0.0043
vn 0.1995 0.0564 0.9783
vn 0.1994 0.0564 0.9783
vn -0.9621 0.0534 -0.2676
vt 0.411995 0.137325
vt 0.391276 0.121160
vt 0.423991 0.119271
vt 0.410728 0.103148
vt 0.438597 0.098551
vt 0.438936 0.097768
vt 0.424607 0.121511
vt 0.379980 0.131068
vt 0.389348 0.119724
vt 0.434248 0.090864
vt 0.423863 0.121612
vt 0.440111 0.096192
vt 0.413455 0.138384
vt 0.409409 0.101682
vt 0.439760 0.098307
vt 0.406249 0.149498
vt 0.436246 0.089509
vt 0.413160 0.138738
vt 0.377002 0.133079
vt 0.454809 0.080028
vt 0.405383 0.153572
vt 0.367262 0.115380
vt 0.457426 0.078533
vt 0.379075 0.135120
vt 0.440930 0.097822
vt 0.360227 0.133760
vt 0.404743 0.152200
vt 0.424527 0.121769
vt 0.350414 0.161923
vt 0.374587 0.153229
vt 0.457838 0.078654
vt 0.318993 0.159810
vt 0.394910 0.163313
vt 0.478627 0.059668
vt 0.355789 0.131098
vt 0.374314 0.157114
vt 0.483421 0.056207
vt 0.304146 0.156423
vt 0.372083 0.154480
vt 0.484020 0.054324
vt 0.363010 0.171802
vt 0.471452 0.060945
vt 0.486309 0.051895
vt 0.456443 0.077714
vt 0.461103 0.060001
vt 0.336671 0.200433
vt 0.459162 0.063272
vt 0.459130 0.051570
vt 0.460897 0.061992
vt 0.457620 0.051836
vt 0.445744 0.073507
vt 0.458751 0.060246
vt 0.491137 0.047342
vt 0.457692 0.062586
vt 0.439119 0.056638
vt 0.491428 0.047011
vt 0.442433 0.073454
vt 0.439017 0.055929
vt 0.490279 0.048685
vt 0.440345 0.067021
vt 0.456822 0.050999
vt 0.489683 0.048659
vt 0.458632 0.061107
vt 0.505267 0.054256
vt 0.461121 0.061005
vt 0.457575 0.050688
vt 0.505448 0.053768
vt 0.458980 0.050938
vt 0.506666 0.054964
vt 0.478313 0.058856
vt 0.458981 0.050938
vt 0.507442 0.057062
vt 0.491519 0.046767
vt 0.488637 0.049874
vt 0.507122 0.057158
vt 0.490428 0.048185
vt 0.507348 0.057254
vt 0.488554 0.050088
vt 0.386969 0.205316
vt 0.352948 0.203397
vt 0.392554 0.181789
vt 0.384954 0.226973
vt 0.365426 0.172839
vt 0.349258 0.228251
vt 0.394326 0.182856
vt 0.393991 0.165666
vt 0.384940 0.247535
vt 0.349538 0.202992
vt 0.389673 0.205838
vt 0.386863 0.226785
vt 0.393649 0.183260
vt 0.355142 0.251053
vt 0.389292 0.206126
vt 0.346761 0.228363
vt 0.389990 0.206156
vt 0.386665 0.227064
vt 0.336798 0.228760
vt 0.394340 0.183327
vt 0.313301 0.200208
vt 0.338435 0.254516
vt 0.387366 0.227071
vt 0.403691 0.160326
vt 0.354595 0.254289
vt 0.387444 0.249340
vt 0.403000 0.160216
vt 0.337115 0.255350
vt 0.387424 0.227013
vt 0.413831 0.138887
vt 0.342605 0.277274
vt 0.390043 0.206145
vt 0.413904 0.138852
vt 0.334002 0.277479
vt 0.387856 0.249248
vt 0.424573 0.121780
vt 0.333489 0.300197
vt 0.330683 0.255245
vt 0.387839 0.249348
vt 0.403745 0.160320
vt 0.322834 0.278017
vt 0.389119 0.268227
vt 0.394426 0.183244
vt 0.321139 0.300788
vt 0.329253 0.255370
vt 0.389877 0.269488
vt 0.339845 0.326125
vt 0.321118 0.278140
vt 0.395054 0.291647
vt 0.341602 0.301400
vt 0.389211 0.268808
vt 0.348234 0.325032
vt 0.319851 0.255156
vt 0.394363 0.291733
vt 0.345784 0.341926
vt 0.312524 0.279313
vt 0.389660 0.273409
vt 0.329426 0.342539
vt 0.319479 0.301293
vt 0.386193 0.250632
vt 0.326219 0.326600
vt 0.310422 0.303468
vt 0.311553 0.279467
vt 0.390537 0.277756
vt 0.324484 0.326529
vt 0.394403 0.291741
vt 0.384588 0.250515
vt 0.327600 0.342626
vt 0.389600 0.277404
vt 0.317378 0.342445
vt 0.335205 0.356486
vt 0.395799 0.296367
vt 0.355757 0.254279
vt 0.402456 0.314047
vt 0.359646 0.281731
vt 0.351871 0.355710
vt 0.402417 0.314039
vt 0.359129 0.282443
vt 0.353993 0.392118
vt 0.368541 0.387572
vt 0.411820 0.333948
vt 0.358766 0.276380
vt 0.356659 0.356488
vt 0.412487 0.333803
vt 0.374011 0.382206
vt 0.403094 0.313916
vt 0.367545 0.357107
vt 0.422979 0.355075
vt 0.386041 0.381847
vt 0.412494 0.333705
vt 0.401387 0.408840
vt 0.400592 0.381535
vt 0.403126 0.313861
vt 0.374785 0.399936
vt 0.424605 0.403917
vt 0.395090 0.291585
vt 0.394006 0.416496
vt 0.405778 0.405102
vt 0.364316 0.408157
vt 0.448755 0.414406
vt 0.427808 0.403731
vt 0.383876 0.423944
vt 0.438749 0.424862
vt 0.450944 0.413788
vt 0.449556 0.425098
vt 0.449285 0.397442
vt 0.453926 0.431059
vt 0.434362 0.375304
vt 0.429826 0.428993
vt 0.458592 0.412387
vt 0.402548 0.380889
vt 0.452729 0.415456
vt 0.421950 0.357412
vt 0.461468 0.413920
vt 0.384245 0.364766
vt 0.456766 0.438054
vt 0.452452 0.425443
vt 0.423285 0.439015
vt 0.471462 0.422783
vt 0.457353 0.445989
vt 0.457401 0.431750
vt 0.379766 0.362563
vt 0.422627 0.440357
vt 0.381188 0.361465
vt 0.383029 0.425233
vt 0.477597 0.431967
vt 0.419501 0.354593
vt 0.375971 0.435747
vt 0.460247 0.439212
vt 0.410044 0.334114
vt 0.414759 0.450225
vt 0.490015 0.442153
vt 0.457533 0.447097
vt 0.461464 0.445497
vt 0.421761 0.355405
vt 0.493919 0.446298
vt 0.411729 0.333587
vt 0.480577 0.432306
vt 0.422374 0.355264
vt 0.490190 0.441736
vt 0.411860 0.333957
vt 0.486830 0.437838
vt 0.499014 0.445703
vt 0.436573 0.375555
vt 0.402597 0.313967
vt 0.487301 0.437561
vt 0.436415 0.375125
vt 0.469386 0.417770
vt 0.451014 0.396965
vt 0.467594 0.417175
vt 0.451247 0.396784
vt 0.451804 0.396533
vt 0.451207 0.396775
vt 0.395359 0.296841
vt 0.469515 0.417812
vt 0.463280 0.413901
vt 0.400858 0.314407
vt 0.487466 0.437554
vt 0.359740 0.303255
vt 0.360381 0.284481
vt 0.364575 0.323492
vt 0.389877 0.279842
vt 0.499359 0.445427
vt 0.357795 0.303904
vt 0.503346 0.448291
vt 0.371004 0.339602
vt 0.495898 0.447325
vt 0.356094 0.300600
vt 0.506709 0.454494
vt 0.350583 0.324771
vt 0.460985 0.458457
vt 0.361232 0.324122
vt 0.357349 0.340254
vt 0.507002 0.455048
vt 0.460924 0.459305
vt 0.368644 0.339471
vt 0.351161 0.340728
vt 0.457298 0.459084
vt 0.506550 0.455076
vt 0.460682 0.457942
vt 0.457299 0.459084
vt 0.512340 0.454309
vt 0.512303 0.454052
vt 0.414298 0.450801
vt 0.527041 0.451236
vt 0.511318 0.453795
vt 0.527115 0.451752
vt 0.457501 0.459311
vt 0.375556 0.436384
vt 0.528263 0.450886
vt 0.530218 0.449603
vt 0.461397 0.446772
vt 0.509182 0.451760
vt 0.352179 0.415844
vt 0.340227 0.397648
vt 0.352931 0.415385
vt 0.321303 0.358530
vt 0.362943 0.409212
vt 0.341102 0.397289
vt 0.316397 0.342451
vt 0.352199 0.392791
vt 0.322260 0.358363
vt 0.313729 0.326087
vt 0.333368 0.356627
vt 0.309479 0.303731
vt 0.314704 0.326112
vt 0.318878 0.255165
vt 0.297523 0.232351
vt 0.285936 0.201045
vt 0.298484 0.232233
vt 0.308024 0.231094
vt 0.283736 0.177158
vt 0.286905 0.201005
vt 0.296687 0.200586
vt 0.290689 0.153107
vt 0.295389 0.180955
vt 0.309599 0.231126
vt 0.284696 0.177471
vt 0.341184 0.125701
vt 0.297261 0.181982
vt 0.302379 0.155545
vt 0.291657 0.153309
vt 0.298529 0.200762
vt 0.314927 0.188661
vt 0.342094 0.126008
vt 0.354456 0.130194
vt 0.316237 0.231111
vt 0.360445 0.110818
vt 0.352986 0.106558
vt 0.397169 0.087668
vt 0.352284 0.106153
vt 0.397914 0.089035
vt 0.390497 0.081075
vt 0.427292 0.075993
vt 0.361591 0.111968
vt 0.389962 0.080537
vt 0.402038 0.092650
vt 0.432048 0.082150
vt 0.424521 0.064927
vt 0.427221 0.074346
vt 0.424708 0.065632
vt 0.435804 0.087608
vt 0.440528 0.065284
vt 0.443164 0.076085
vt 0.684979 0.358728
vt 0.672547 0.353250
vt 0.688379 0.341886
vt 0.689416 0.342080
vt 0.676316 0.339829
vt 0.685760 0.359419
vt 0.681454 0.323048
vt 0.671581 0.356025
vt 0.685779 0.359409
vt 0.669994 0.323913
vt 0.683770 0.361139
vt 0.674875 0.308746
vt 0.670475 0.356238
vt 0.685030 0.361704
vt 0.664709 0.310483
vt 0.671254 0.352578
vt 0.685064 0.361683
vt 0.674040 0.340180
vt 0.656649 0.346968
vt 0.654840 0.379610
vt 0.667933 0.324450
vt 0.655019 0.379504
vt 0.660926 0.296873
vt 0.654980 0.323746
vt 0.651470 0.381623
vt 0.671018 0.295908
vt 0.662733 0.311147
vt 0.651477 0.381619
vt 0.669333 0.285287
vt 0.653864 0.379321
vt 0.675837 0.308575
vt 0.650473 0.310146
vt 0.672000 0.295813
vt 0.658972 0.297490
vt 0.646844 0.299078
vt 0.650878 0.381104
vt 0.682464 0.322968
vt 0.656823 0.285825
vt 0.644553 0.371998
vt 0.644046 0.287351
vt 0.641164 0.373927
vt 0.654822 0.275866
vt 0.643308 0.371796
vt 0.638352 0.277272
vt 0.638426 0.372880
vt 0.643842 0.264774
vt 0.631115 0.363291
vt 0.615533 0.289745
vt 0.656258 0.349134
vt 0.611963 0.278469
vt 0.622163 0.351807
vt 0.615188 0.269942
vt 0.640222 0.342135
vt 0.622580 0.245322
vt 0.608296 0.270354
vt 0.620810 0.351902
vt 0.639275 0.338962
vt 0.629008 0.363314
vt 0.621865 0.348933
vt 0.599948 0.244725
vt 0.619549 0.352322
vt 0.638077 0.339943
vt 0.610207 0.278778
vt 0.609368 0.338906
vt 0.611184 0.338014
vt 0.611009 0.281814
vt 0.618459 0.352224
vt 0.631693 0.327728
vt 0.608714 0.339121
vt 0.602712 0.323644
vt 0.633894 0.326319
vt 0.613187 0.290310
vt 0.628086 0.364418
vt 0.584596 0.287684
vt 0.588640 0.298115
vt 0.619170 0.302580
vt 0.584201 0.284643
vt 0.596233 0.311776
vt 0.624380 0.314040
vt 0.581694 0.276724
vt 0.621893 0.302036
vt 0.580935 0.276046
vt 0.607186 0.272138
vt 0.627439 0.312900
vt 0.582854 0.274396
vt 0.606298 0.269157
vt 0.582631 0.284856
vt 0.577795 0.271395
vt 0.575133 0.249711
vt 0.575494 0.257275
vt 0.574373 0.248316
vt 0.575460 0.257267
vt 0.598128 0.246340
vt 0.577761 0.271386
vt 0.575281 0.246127
vt 0.582164 0.285848
vt 0.597379 0.243047
vt 0.587042 0.299013
vt 0.575022 0.227412
vt 0.599436 0.220960
vt 0.593532 0.312728
vt 0.578749 0.210327
vt 0.600014 0.324775
vt 0.599691 0.244356
vt 0.594211 0.208689
vt 0.587081 0.298810
vt 0.600691 0.220397
vt 0.593445 0.312622
vt 0.619049 0.234119
vt 0.581430 0.285932
vt 0.599823 0.324761
vt 0.607333 0.219667
vt 0.586362 0.298930
vt 0.592740 0.312769
vt 0.630757 0.218449
vt 0.639743 0.233189
vt 0.576517 0.269103
vt 0.599146 0.324949
vt 0.574710 0.257289
vt 0.609676 0.338787
vt 0.573433 0.243453
vt 0.572681 0.243443
vt 0.572980 0.228545
vt 0.573467 0.243461
vt 0.573732 0.228579
vt 0.574294 0.247792
vt 0.575219 0.215557
vt 0.573766 0.228587
vt 0.574473 0.215483
vt 0.574514 0.228383
vt 0.579530 0.200175
vt 0.575253 0.215565
vt 0.580270 0.200272
vt 0.580855 0.200816
vt 0.584729 0.187280
vt 0.578354 0.210019
vt 0.584007 0.187142
vt 0.585386 0.187542
vt 0.591113 0.174096
vt 0.581110 0.200868
vt 0.579185 0.208475
vt 0.591821 0.174262
vt 0.582961 0.197647
vt 0.599564 0.163537
vt 0.592642 0.174228
vt 0.594618 0.206339
vt 0.585347 0.188102
vt 0.600153 0.164289
vt 0.600534 0.198442
vt 0.598882 0.163332
vt 0.599239 0.167215
vt 0.595888 0.209064
vt 0.608743 0.151976
vt 0.593494 0.173597
vt 0.607443 0.151001
vt 0.609384 0.173324
vt 0.619610 0.140576
vt 0.601430 0.196271
vt 0.610543 0.172573
vt 0.602388 0.198513
vt 0.610614 0.149601
vt 0.600240 0.164374
vt 0.608934 0.152736
vt 0.625719 0.163671
vt 0.625942 0.198464
vt 0.627437 0.159815
vt 0.610502 0.174471
vt 0.623187 0.183268
vt 0.636620 0.194366
vt 0.631327 0.204237
vt 0.632120 0.200890
vt 0.633380 0.217834
vt 0.642645 0.198854
vt 0.655665 0.213369
vt 0.638865 0.193126
vt 0.650561 0.214179
vt 0.642518 0.233184
vt 0.666218 0.213369
vt 0.637699 0.182509
vt 0.672711 0.228649
vt 0.639150 0.182275
vt 0.667925 0.229353
vt 0.633699 0.202612
vt 0.647034 0.191000
vt 0.666686 0.238262
vt 0.654264 0.213545
vt 0.652216 0.212248
vt 0.648863 0.242367
vt 0.653095 0.195508
vt 0.648026 0.179192
vt 0.677408 0.228080
vt 0.642216 0.163680
vt 0.671163 0.237894
vt 0.646458 0.244942
vt 0.650427 0.159819
vt 0.678125 0.241885
vt 0.643600 0.151733
vt 0.667951 0.238779
vt 0.651918 0.147782
vt 0.672030 0.229217
vt 0.675821 0.245709
vt 0.645321 0.141996
vt 0.651429 0.159337
vt 0.670337 0.237421
vt 0.673001 0.250770
vt 0.649018 0.178794
vt 0.653945 0.136856
vt 0.670480 0.237232
vt 0.652931 0.147215
vt 0.643816 0.140394
vt 0.654589 0.133465
vt 0.647855 0.190840
vt 0.656351 0.134878
vt 0.656349 0.134903
vt 0.647846 0.190914
vt 0.655346 0.132899
vt 0.653840 0.195147
vt 0.655421 0.132720
vt 0.641079 0.122760
vt 0.654563 0.195682
vt 0.678206 0.211857
vt 0.633584 0.131018
vt 0.643410 0.123531
vt 0.668725 0.213092
vt 0.678583 0.228027
vt 0.643799 0.198547
vt 0.643030 0.123247
vt 0.632811 0.131761
vt 0.642723 0.140834
vt 0.689850 0.226854
vt 0.634538 0.141587
vt 0.679243 0.211718
vt 0.626208 0.134299
vt 0.630988 0.128592
vt 0.625693 0.135326
vt 0.690833 0.226757
vt 0.625292 0.133460
vt 0.691709 0.243130
vt 0.618620 0.140028
vt 0.634451 0.142390
vt 0.690869 0.242761
vt 0.630884 0.128684
vt 0.619341 0.141014
vt 0.692098 0.242495
vt 0.630977 0.151358
vt 0.679520 0.242727
vt 0.689723 0.246099
vt 0.688644 0.246470
vt 0.689728 0.246246
vt 0.677235 0.245721
vt 0.632022 0.152837
vt 0.635926 0.143704
vt 0.628049 0.164343
vt 0.675042 0.251973
vt 0.640010 0.164192
vt 0.685144 0.252533
vt 0.641404 0.152283
vt 0.683867 0.254694
vt 0.673643 0.254172
vt 0.681476 0.258496
vt 0.686152 0.252612
vt 0.626470 0.165547
vt 0.670518 0.259295
vt 0.667867 0.275987
vt 0.686138 0.252615
vt 0.668874 0.276055
vt 0.684792 0.254745
vt 0.682548 0.258492
vt 0.670334 0.285281
vt 0.684876 0.254744
vt 0.658804 0.285364
vt 0.656557 0.275546
vt 0.668710 0.259428
vt 0.671963 0.253995
vt 0.647849 0.246039
vt 0.650541 0.244942
vt 0.630859 0.201134
vt 0.440926 0.097934
vt 0.394575 0.166299
vt 0.437000 0.374908
vt 0.436375 0.375116
vt 0.422334 0.355255
vt 0.451688 0.396281
vt 0.436957 0.374767
vt 0.422943 0.354894
vt 0.462497 0.413859
vt 0.471443 0.422078
vt 0.643121 0.142777
vt 0.639135 0.121249
vt 0.639740 0.120731
vt 0.400051 0.064164
vt 0.400093 0.063483
vt 0.416203 0.064170
vt 0.384561 0.064136
vt 0.383821 0.064846
vt 0.416215 0.063483
vt 0.432699 0.064172
vt 0.432690 0.063483
vt 0.447080 0.064175
vt 0.447074 0.063483
vt 0.464237 0.064178
vt 0.464230 0.063483
vt 0.480678 0.064172
vt 0.480643 0.063483
vt 0.499857 0.063483
vt 0.499880 0.064180
vt 0.516285 0.064177
vt 0.516254 0.063483
vt 0.534584 0.064178
vt 0.534559 0.063483
vt 0.551349 0.064172
vt 0.551335 0.063483
vt 0.569390 0.064211
vt 0.569377 0.063561
vt 0.584683 0.064213
vt 0.584665 0.063560
vt 0.601622 0.063558
vt 0.601658 0.064219
vt 0.616093 0.063558
vt 0.616112 0.064217
vt 0.633431 0.063483
vt 0.633506 0.064183
vt 0.651394 0.063483
vt 0.651462 0.064177
vt 0.667551 0.063491
vt 0.667689 0.064204
vt 0.690032 0.063529
vt 0.690424 0.064258
vt 0.699672 0.063857
vt 0.700479 0.064561
vt 0.533077 0.447787
vt 0.527717 0.448122
vt 0.413671 0.119712
vt 0.413640 0.120398
vt 0.398607 0.119720
vt 0.398589 0.120398
vt 0.382040 0.119772
vt 0.381669 0.119082
s 1
g GUI_Map_RaisedHill6:GUI_Map_RaisedHill_GUI_Map_RaisedHi_af4c51e_GUI_Map_RaisedHill5:GUI_Map_RaisedHill1
usemtl GUI_Map_RaisedHill5:GUI_Map_RaisedHill1
f 1/1/1 2/2/2 3/3/3
f 3/3/3 2/2/2 4/4/4
f 4/4/4 5/5/3 3/3/3
f 5/5/3 6/6/5 3/3/3
f 3/3/3 6/6/5 7/7/6
f 3/3/3 7/7/6 1/1/1
f 1/1/1 8/8/2 2/2/2
f 9/9/7 4/4/4 2/2/2
f 10/10/4 5/5/3 4/4/4
f 6/6/5 11/11/8 7/7/6
f 2/2/2 8/8/2 9/9/7
f 10/10/4 12/12/9 5/5/3
f 5/5/3 12/12/9 6/6/5
f 11/11/8 13/13/10 7/7/6
f 1/1/1 7/7/6 13/13/10
f 14/14/11 4/4/4 9/9/7
f 14/14/11 10/10/4 4/4/4
f 15/15/12 11/11/8 6/6/5
f 16/16/2 8/8/2 1/1/1
f 1/1/1 13/13/10 16/16/2
f 17/17/13 12/12/9 10/10/4
f 18/18/14 13/13/10 11/11/8
f 9/9/7 8/8/2 19/19/15
f 12/12/9 17/17/13 20/20/13
f 20/20/13 6/6/5 12/12/9
f 18/18/14 21/21/16 13/13/10
f 16/16/2 13/13/10 21/21/16
f 9/9/7 19/19/15 22/22/7
f 6/6/5 23/23/17 15/15/12
f 23/23/17 6/6/5 20/20/13
f 8/8/2 16/16/2 24/24/18
f 19/19/15 8/8/2 24/24/18
f 22/22/7 14/14/11 9/9/7
f 23/23/17 25/25/19 15/15/12
f 22/22/7 19/19/15 26/26/7
f 24/24/18 16/16/2 27/27/20
f 27/27/20 16/16/2 21/21/16
f 25/25/19 28/28/8 15/15/12
f 29/29/21 26/26/7 19/19/15
f 27/27/20 30/30/22 24/24/18
f 31/31/12 25/25/19 23/23/17
f 32/32/21 26/26/7 29/29/21
f 33/33/23 30/30/22 27/27/20
f 34/34/24 31/31/12 23/23/17
f 32/32/21 35/35/25 26/26/7
f 30/30/22 33/33/23 36/36/26
f 37/37/27 31/31/12 34/34/24
f 38/38/28 35/35/25 32/32/21
f 39/39/15 24/24/18 30/30/22
f 36/36/26 39/39/15 30/30/22
f 34/34/24 40/40/29 37/37/27
f 26/26/7 35/35/25 22/22/7
f 39/39/15 36/36/26 41/41/15
f 23/23/17 42/42/30 34/34/24
f 43/43/31 37/37/27 40/40/29
f 29/29/21 39/39/15 41/41/15
f 44/44/32 42/42/30 23/23/17
f 43/43/31 40/40/29 45/45/33
f 29/29/21 41/41/15 46/46/21
f 42/42/30 44/44/32 47/47/30
f 45/45/33 48/48/34 43/43/31
f 19/19/15 39/39/15 29/29/21
f 47/47/30 49/49/35 42/42/30
f 45/45/33 50/50/36 48/48/34
f 19/19/15 24/24/18 39/39/15
f 47/47/30 44/44/32 51/51/32
f 52/52/33 50/50/36 45/45/33
f 43/43/31 48/48/34 53/53/31
f 51/51/32 54/54/37 47/47/30
f 54/54/37 49/49/35 47/47/30
f 50/50/36 52/52/33 55/55/38
f 53/53/31 48/48/34 56/56/39
f 57/57/40 54/54/37 51/51/32
f 58/58/41 50/50/36 55/55/38
f 59/59/42 53/53/31 56/56/39
f 60/60/40 54/54/37 57/57/40
f 61/61/43 50/50/36 58/58/41
f 50/50/36 61/61/43 48/48/34
f 62/62/44 53/53/31 59/59/42
f 63/63/37 54/54/37 60/60/40
f 64/58/41 61/61/43 58/58/41
f 65/64/45 62/62/44 59/59/42
f 66/65/37 54/54/37 63/63/37
f 67/66/46 61/61/43 64/58/41
f 65/64/45 59/59/42 68/67/45
f 49/49/35 54/54/37 66/65/37
f 69/68/47 61/61/43 67/66/46
f 70/69/44 62/62/44 65/64/45
f 66/65/37 71/70/29 49/49/35
f 72/71/47 61/61/43 69/68/47
f 70/69/44 73/72/48 62/62/44
f 40/40/29 71/70/29 66/65/37
f 74/73/39 72/71/47 69/68/47
f 48/48/34 61/61/43 72/71/47
f 62/62/44 73/72/48 75/74/44
f 45/45/33 40/40/29 66/65/37
f 56/56/39 48/48/34 72/71/47
f 56/56/39 72/71/47 74/73/39
f 73/72/48 76/75/49 75/74/44
f 71/70/29 40/40/29 34/34/24
f 77/76/50 56/56/39 74/73/39
f 78/77/51 76/75/49 73/72/48
f 71/70/29 34/34/24 42/42/30
f 59/59/42 56/56/39 77/76/50
f 75/74/44 76/75/49 79/78/49
f 42/42/30 49/49/35 71/70/29
f 68/67/45 59/59/42 77/76/50
f 43/43/31 75/74/44 79/78/49
f 79/78/49 37/37/27 43/43/31
f 53/53/31 75/74/44 43/43/31
f 62/62/44 75/74/44 53/53/31
f 80/79/52 81/80/53 82/81/26
f 83/82/54 81/80/53 80/79/52
f 82/81/26 81/80/53 84/83/55
f 85/84/56 81/80/53 83/82/54
f 82/81/26 86/85/57 80/79/52
f 84/83/55 87/86/26 82/81/26
f 83/82/54 88/87/58 85/84/56
f 89/88/59 84/83/55 81/80/53
f 80/79/52 86/85/57 90/89/60
f 80/79/52 91/90/61 83/82/54
f 81/80/53 85/84/56 89/88/59
f 83/82/54 91/90/61 88/87/58
f 92/91/57 90/89/60 86/85/57
f 90/89/60 91/90/61 80/79/52
f 85/84/56 88/87/58 93/92/56
f 41/41/15 84/83/55 89/88/59
f 94/93/60 90/89/60 92/91/57
f 89/88/59 85/84/56 95/94/59
f 85/84/56 93/92/56 95/94/59
f 46/46/21 41/41/15 89/88/59
f 92/91/57 96/95/62 94/93/60
f 94/93/60 97/96/63 90/89/60
f 90/89/60 97/96/63 91/90/61
f 46/46/21 89/88/59 98/97/59
f 98/97/59 89/88/59 95/94/59
f 94/93/60 96/95/62 97/96/63
f 99/98/64 96/95/62 92/91/57
f 46/46/21 98/97/59 100/99/65
f 95/94/59 101/100/66 98/97/59
f 97/96/63 96/95/62 102/101/67
f 99/98/64 92/91/57 103/102/14
f 104/103/68 101/100/66 95/94/59
f 97/96/63 105/104/67 91/90/61
f 102/101/67 105/104/67 97/96/63
f 103/102/14 92/91/57 106/105/14
f 101/100/66 107/106/69 98/97/59
f 96/95/62 108/107/70 102/101/67
f 103/102/14 106/105/14 109/108/14
f 101/100/66 104/103/68 110/109/66
f 111/110/70 108/107/70 96/95/62
f 109/108/14 112/111/70 103/102/14
f 107/106/69 101/100/66 113/112/69
f 113/112/69 101/100/66 110/109/66
f 108/107/70 114/113/70 102/101/67
f 109/108/14 115/114/70 112/111/70
f 113/112/69 110/109/66 116/115/71
f 113/112/69 117/116/69 107/106/69
f 102/101/67 114/113/70 118/117/67
f 103/102/14 112/111/70 119/118/70
f 116/115/71 120/119/69 113/112/69
f 120/119/69 117/116/69 113/112/69
f 118/117/67 114/113/70 121/120/72
f 119/118/70 122/121/70 103/102/14
f 123/122/71 120/119/69 116/115/71
f 121/120/72 105/104/67 118/117/67
f 118/117/67 105/104/67 102/101/67
f 103/102/14 122/121/70 99/98/64
f 120/119/69 124/123/73 117/116/69
f 125/124/74 105/104/67 121/120/72
f 126/125/75 123/122/71 116/115/71
f 127/126/73 124/123/73 120/119/69
f 121/120/72 128/127/76 125/124/74
f 116/115/71 129/128/77 126/125/75
f 120/119/69 123/122/71 127/126/73
f 121/120/72 130/129/78 128/127/76
f 116/115/71 110/109/66 129/128/77
f 126/125/75 129/128/77 131/130/79
f 127/126/73 132/131/73 124/123/73
f 125/124/74 128/127/76 133/132/80
f 126/125/75 131/130/79 134/133/81
f 135/134/73 132/131/73 127/126/73
f 125/124/74 133/132/80 136/135/82
f 137/136/81 126/125/75 134/133/81
f 138/137/83 135/134/73 127/126/73
f 139/138/84 125/124/74 136/135/82
f 140/139/71 126/125/75 137/136/81
f 141/140/85 135/134/73 138/137/83
f 105/104/67 125/124/74 139/138/84
f 140/139/71 123/122/71 126/125/75
f 127/126/73 123/122/71 138/137/83
f 141/140/85 142/141/86 135/134/73
f 143/142/87 139/138/84 136/135/82
f 123/122/71 140/139/71 138/137/83
f 144/143/85 141/140/85 138/137/83
f 140/139/71 137/136/81 144/143/85
f 145/144/88 143/142/87 136/135/82
f 139/138/84 143/142/87 146/145/89
f 138/137/83 140/139/71 144/143/85
f 144/143/85 137/136/81 147/146/90
f 136/135/82 133/132/80 145/144/88
f 146/145/89 143/142/87 148/147/91
f 149/148/92 144/143/85 147/146/90
f 137/136/81 150/149/81 147/146/90
f 151/150/88 143/142/87 145/144/88
f 146/145/89 148/147/91 152/151/93
f 137/136/81 134/133/81 150/149/81
f 153/152/88 151/150/88 145/144/88
f 152/151/93 93/92/56 146/145/89
f 152/151/93 148/147/91 154/153/89
f 150/149/81 134/133/81 155/154/94
f 145/144/88 156/155/95 153/152/88
f 157/156/68 152/151/93 154/153/89
f 155/154/94 158/157/96 150/149/81
f 133/132/80 156/155/95 145/144/88
f 104/103/68 152/151/93 157/156/68
f 104/103/68 93/92/56 152/151/93
f 159/158/97 158/157/96 155/154/94
f 156/155/95 160/159/98 153/152/88
f 161/160/68 104/103/68 157/156/68
f 162/161/99 159/158/97 155/154/94
f 156/155/95 163/162/100 160/159/98
f 110/109/66 104/103/68 161/160/68
f 164/163/97 159/158/97 162/161/99
f 165/164/76 163/162/100 156/155/95
f 110/109/66 161/160/68 129/128/77
f 166/165/101 164/163/97 162/161/99
f 156/155/95 128/127/76 165/164/76
f 163/162/100 167/166/100 160/159/98
f 168/167/102 164/163/97 166/165/101
f 133/132/80 128/127/76 156/155/95
f 165/164/76 169/168/78 163/162/100
f 164/163/97 168/167/102 170/169/103
f 166/165/101 171/170/102 168/167/102
f 128/127/76 172/171/78 165/164/76
f 172/171/78 169/168/78 165/164/76
f 170/169/103 173/172/104 164/163/97
f 174/173/105 168/167/102 171/170/102
f 175/174/78 172/171/78 128/127/76
f 176/175/106 173/172/104 170/169/103
f 177/176/103 168/167/102 174/173/105
f 128/127/76 130/129/78 175/174/78
f 176/175/106 178/177/107 173/172/104
f 170/169/103 168/167/102 177/176/103
f 174/173/105 179/178/105 177/176/103
f 174/173/105 171/170/102 180/179/108
f 181/180/109 178/177/107 176/175/106
f 170/169/103 182/181/103 176/175/106
f 170/169/103 177/176/103 182/181/103
f 179/178/105 174/173/105 183/182/110
f 183/182/110 174/173/105 180/179/108
f 178/177/107 158/157/96 173/172/104
f 177/176/103 179/178/105 184/183/103
f 182/181/103 177/176/103 184/183/103
f 185/184/111 183/182/110 180/179/108
f 173/172/104 158/157/96 159/158/97
f 182/181/103 184/183/103 186/185/112
f 185/184/111 180/179/108 187/186/113
f 164/163/97 173/172/104 159/158/97
f 182/181/103 186/185/112 188/187/106
f 189/188/110 183/182/110 185/184/111
f 187/186/113 180/179/108 190/189/114
f 176/175/106 182/181/103 188/187/106
f 189/188/110 191/190/115 183/182/110
f 190/189/114 192/191/113 187/186/113
f 188/187/106 181/180/109 176/175/106
f 193/192/116 191/190/115 189/188/110
f 194/193/114 192/191/113 190/189/114
f 188/187/106 186/185/112 195/194/117
f 191/190/115 193/192/116 196/195/118
f 190/189/114 171/170/102 194/193/114
f 195/194/117 197/196/119 188/187/106
f 197/196/119 181/180/109 188/187/106
f 196/195/118 193/192/116 198/197/115
f 180/179/108 171/170/102 190/189/114
f 199/198/120 197/196/119 195/194/117
f 198/197/115 200/199/121 196/195/118
f 200/199/121 195/194/117 186/185/112
f 194/193/114 171/170/102 201/200/122
f 197/196/119 199/198/120 202/201/123
f 200/199/121 186/185/112 196/195/118
f 203/202/124 194/193/114 201/200/122
f 202/201/123 204/203/123 197/196/119
f 205/204/125 200/199/121 198/197/115
f 206/205/126 194/193/114 203/202/124
f 202/201/123 207/206/127 204/203/123
f 205/204/125 208/207/128 200/199/121
f 206/205/126 203/202/124 209/208/129
f 210/209/130 207/206/127 202/201/123
f 211/210/131 208/207/128 205/204/125
f 192/191/113 194/193/114 206/205/126
f 202/201/123 212/211/132 210/209/130
f 211/210/131 213/212/131 208/207/128
f 192/191/113 206/205/126 214/213/133
f 202/201/123 199/198/120 212/211/132
f 215/214/134 213/212/131 211/210/131
f 199/198/120 208/207/128 213/212/131
f 214/213/133 206/205/126 216/215/135
f 199/198/120 213/212/131 212/211/132
f 216/215/135 206/205/126 209/208/129
f 217/216/136 211/210/131 205/204/125
f 195/194/117 208/207/128 199/198/120
f 214/213/133 216/215/135 218/217/137
f 219/218/138 211/210/131 217/216/136
f 219/218/138 215/214/134 211/210/131
f 208/207/128 195/194/117 200/199/121
f 218/217/137 216/215/135 220/219/137
f 221/220/139 219/218/138 217/216/136
f 222/221/140 215/214/134 219/218/138
f 218/217/137 223/222/141 214/213/133
f 224/223/88 220/219/137 216/215/135
f 222/221/140 219/218/138 225/224/142
f 225/224/142 219/218/138 221/220/139
f 226/225/143 223/222/141 218/217/137
f 153/152/88 220/219/137 224/223/88
f 221/220/139 227/226/142 225/224/142
f 226/225/143 228/227/144 223/222/141
f 153/152/88 160/159/98 220/219/137
f 220/219/137 160/159/98 218/217/137
f 229/228/145 227/226/142 221/220/139
f 230/229/146 228/227/144 226/225/143
f 224/223/88 151/150/88 153/152/88
f 227/226/142 229/228/145 231/230/147
f 226/225/143 232/231/148 230/229/146
f 224/223/88 233/232/149 151/150/88
f 231/230/147 234/233/78 227/226/142
f 231/230/147 229/228/145 232/231/148
f 232/231/148 235/234/150 230/229/146
f 236/235/151 233/232/149 224/223/88
f 237/236/152 227/226/142 234/233/78
f 229/228/145 235/234/150 232/231/148
f 233/232/149 236/235/151 238/237/153
f 225/224/142 227/226/142 237/236/152
f 229/228/145 217/216/136 235/234/150
f 238/237/153 239/238/153 233/232/149
f 225/224/142 237/236/152 222/221/140
f 229/228/145 221/220/139 217/216/136
f 238/237/153 236/235/151 240/239/154
f 233/232/149 239/238/153 241/240/149
f 222/221/140 237/236/152 242/241/155
f 243/242/156 239/238/153 238/237/153
f 209/208/129 240/239/154 236/235/151
f 222/221/140 242/241/155 244/243/157
f 157/156/68 239/238/153 243/242/156
f 245/244/158 240/239/154 209/208/129
f 244/243/157 246/245/159 222/221/140
f 243/242/156 247/246/160 157/156/68
f 209/208/129 203/202/124 245/244/158
f 246/245/159 244/243/157 248/247/161
f 243/242/156 249/248/160 247/246/160
f 209/208/129 236/235/151 216/215/135
f 250/249/162 246/245/159 248/247/161
f 251/250/156 249/248/160 243/242/156
f 157/156/68 247/246/160 161/160/68
f 216/215/135 236/235/151 224/223/88
f 249/248/160 251/250/156 252/251/101
f 238/237/153 251/250/156 243/242/156
f 129/128/77 161/160/68 247/246/160
f 253/252/163 250/249/162 248/247/161
f 240/239/154 251/250/156 238/237/153
f 129/128/77 247/246/160 131/130/79
f 131/130/79 247/246/160 249/248/160
f 254/253/164 250/249/162 253/252/163
f 252/251/101 251/250/156 255/254/122
f 251/250/156 240/239/154 255/254/122
f 131/130/79 249/248/160 256/255/99
f 254/253/164 257/256/165 250/249/162
f 256/255/99 249/248/160 252/251/101
f 255/254/122 240/239/154 245/244/158
f 258/257/163 254/253/164 253/252/163
f 134/133/81 131/130/79 256/255/99
f 252/251/101 255/254/122 166/165/101
f 259/258/164 254/253/164 258/257/163
f 134/133/81 256/255/99 155/154/94
f 256/255/99 252/251/101 162/161/99
f 162/161/99 252/251/101 166/165/101
f 259/258/164 260/259/165 254/253/164
f 258/257/163 253/252/163 261/260/166
f 155/154/94 256/255/99 162/161/99
f 166/165/101 255/254/122 201/200/122
f 254/253/164 260/259/165 257/256/165
f 261/260/166 253/252/163 262/261/167
f 201/200/122 171/170/102 166/165/101
f 201/200/122 255/254/122 203/202/124
f 263/262/168 257/256/165 260/259/165
f 262/261/167 264/263/169 261/260/166
f 253/252/163 265/264/170 262/261/167
f 203/202/124 255/254/122 245/244/158
f 266/262/168 257/256/165 263/262/168
f 262/261/167 265/264/170 264/263/169
f 248/247/161 265/264/170 253/252/163
f 261/260/166 264/263/169 267/265/169
f 266/262/168 268/266/171 257/256/165
f 248/247/161 244/243/157 265/264/170
f 269/267/172 266/262/168 263/262/168
f 264/263/169 265/264/170 270/268/173
f 250/249/162 257/256/165 268/266/171
f 271/267/174 266/262/168 269/267/172
f 244/243/157 272/269/173 265/264/170
f 265/264/170 272/269/173 270/268/173
f 268/266/171 273/270/162 250/249/162
f 271/267/174 210/209/130 266/262/168
f 244/243/157 274/271/155 272/269/173
f 210/209/130 268/266/171 266/262/168
f 273/270/162 246/245/159 250/249/162
f 275/272/175 271/267/174 269/267/172
f 210/209/130 212/211/132 268/266/171
f 212/211/132 273/270/162 268/266/171
f 273/270/162 215/214/134 246/245/159
f 276/272/175 271/267/174 275/272/175
f 207/206/127 210/209/130 271/267/174
f 212/211/132 213/212/131 273/270/162
f 213/212/131 215/214/134 273/270/162
f 271/267/174 276/272/175 207/206/127
f 222/221/140 246/245/159 215/214/134
f 277/273/176 276/272/175 275/272/175
f 207/206/127 276/272/175 278/274/177
f 279/273/176 276/272/175 277/273/176
f 279/273/176 278/274/177 276/272/175
f 207/206/127 278/274/177 204/203/123
f 280/275/178 279/273/176 277/273/176
f 204/203/123 278/274/177 281/276/179
f 282/275/180 279/273/176 280/275/178
f 204/203/123 281/276/179 181/180/109
f 278/274/177 283/277/181 281/276/179
f 282/275/180 283/277/181 279/273/176
f 283/277/181 278/274/177 279/273/176
f 284/278/182 282/275/180 280/275/178
f 197/196/119 204/203/123 181/180/109
f 281/276/179 283/277/181 285/279/177
f 286/278/183 282/275/180 284/278/182
f 181/180/109 281/276/179 178/177/107
f 281/276/179 285/279/177 178/177/107
f 283/277/181 287/280/90 285/279/177
f 288/281/184 286/278/183 284/278/182
f 287/280/90 283/277/181 282/275/180
f 178/177/107 285/279/177 158/157/96
f 289/281/183 286/278/183 288/281/184
f 285/279/177 287/280/90 290/282/185
f 287/280/90 282/275/180 149/148/92
f 290/282/185 158/157/96 285/279/177
f 291/283/186 289/281/183 288/281/184
f 149/148/92 282/275/180 286/278/183
f 287/280/90 147/146/90 290/282/185
f 292/283/186 289/281/183 291/283/186
f 149/148/92 147/146/90 287/280/90
f 150/149/81 158/157/96 290/282/185
f 293/141/187 292/283/186 291/283/186
f 149/148/92 286/278/183 294/284/85
f 147/146/90 150/149/81 290/282/185
f 294/284/85 286/278/183 289/281/183
f 289/281/183 292/283/186 294/284/85
f 142/141/86 292/283/186 293/141/187
f 294/284/85 144/143/85 149/148/92
f 295/285/188 142/141/86 293/141/187
f 294/284/85 292/283/186 141/140/85
f 294/284/85 141/140/85 144/143/85
f 292/283/186 142/141/86 141/140/85
f 296/285/188 142/141/86 295/285/188
f 297/286/189 296/285/188 295/285/188
f 296/285/188 135/134/73 142/141/86
f 298/286/190 296/285/188 297/286/189
f 132/131/73 135/134/73 296/285/188
f 299/287/191 298/286/190 297/286/189
f 296/285/188 300/288/192 132/131/73
f 298/286/190 300/288/192 296/285/188
f 301/287/191 298/286/190 299/287/191
f 300/288/192 302/289/193 132/131/73
f 303/290/194 301/287/191 299/287/191
f 301/287/191 304/291/195 298/286/190
f 298/286/190 304/291/195 300/288/192
f 300/288/192 305/292/196 302/289/193
f 132/131/73 302/289/193 124/123/73
f 306/290/194 301/287/191 303/290/194
f 304/291/195 305/292/196 300/288/192
f 302/289/193 117/116/69 124/123/73
f 307/293/197 306/290/194 303/290/194
f 304/291/195 308/294/198 305/292/196
f 309/295/199 117/116/69 302/289/193
f 310/293/200 306/290/194 307/293/197
f 311/296/201 308/294/198 304/291/195
f 302/289/193 305/292/196 309/295/199
f 304/291/195 301/287/191 311/296/201
f 311/296/201 301/287/191 306/290/194
f 312/297/202 310/293/200 307/293/197
f 308/294/198 313/298/203 305/292/196
f 311/296/201 314/299/201 308/294/198
f 311/296/201 306/290/194 315/300/201
f 315/300/201 306/290/194 310/293/200
f 316/297/202 310/293/200 312/297/202
f 305/292/196 313/298/203 317/301/204
f 315/300/201 314/299/201 311/296/201
f 316/297/202 315/300/201 310/293/200
f 309/295/199 305/292/196 317/301/204
f 313/298/203 318/302/21 317/301/204
f 315/300/201 319/303/205 314/299/201
f 319/303/205 315/300/201 316/297/202
f 317/301/204 100/99/65 309/295/199
f 318/302/21 313/298/203 32/32/21
f 314/299/201 319/303/205 320/304/205
f 317/301/204 318/302/21 100/99/65
f 309/295/199 100/99/65 321/305/206
f 32/32/21 313/298/203 38/38/28
f 319/303/205 322/306/207 320/304/205
f 321/305/206 117/116/69 309/295/199
f 29/29/21 318/302/21 32/32/21
f 323/307/208 322/306/207 319/303/205
f 316/297/202 323/307/208 319/303/205
f 107/106/69 117/116/69 321/305/206
f 100/99/65 318/302/21 46/46/21
f 46/46/21 318/302/21 29/29/21
f 322/306/207 323/307/208 324/308/209
f 98/97/59 107/106/69 321/305/206
f 100/99/65 98/97/59 321/305/206
f 325/309/210 323/307/208 316/297/202
f 324/308/209 326/310/211 322/306/207
f 325/309/210 316/297/202 327/309/212
f 324/308/209 323/307/208 328/311/213
f 323/307/208 325/309/210 328/311/213
f 324/308/209 329/312/40 326/310/211
f 322/306/207 326/310/211 330/313/25
f 331/314/214 325/309/210 327/309/212
f 327/309/212 316/297/202 312/297/202
f 326/310/211 329/312/40 332/315/215
f 330/313/25 326/310/211 22/22/7
f 333/314/214 325/309/210 331/314/214
f 328/311/213 325/309/210 333/314/214
f 332/315/215 329/312/40 334/316/216
f 22/22/7 326/310/211 332/315/215
f 335/317/217 333/314/214 331/314/214
f 324/308/209 328/311/213 336/318/218
f 336/318/218 329/312/40 324/308/209
f 332/315/215 14/14/11 22/22/7
f 337/317/41 333/314/214 335/317/217
f 336/318/218 328/311/213 338/319/209
f 14/14/11 332/315/215 339/320/11
f 338/319/209 333/314/214 337/317/41
f 339/320/11 332/315/215 334/316/216
f 338/319/209 340/321/219 336/318/218
f 328/311/213 333/314/214 338/319/209
f 64/58/41 337/317/41 335/317/217
f 57/57/40 339/320/11 334/316/216
f 334/316/216 329/312/40 57/57/40
f 329/312/40 336/318/218 60/60/40
f 60/60/40 336/318/218 340/321/219
f 58/58/41 337/317/41 64/58/41
f 57/57/40 341/322/13 339/320/11
f 57/57/40 329/312/40 60/60/40
f 55/55/38 340/321/219 338/319/209
f 58/58/41 55/55/38 337/317/41
f 339/320/11 341/322/13 17/17/13
f 60/60/40 340/321/219 63/63/37
f 337/317/41 55/55/38 338/319/209
f 17/17/13 10/10/4 339/320/11
f 20/20/13 17/17/13 341/322/13
f 63/63/37 340/321/219 52/52/33
f 55/55/38 52/52/33 340/321/219
f 339/320/11 10/10/4 14/14/11
f 341/322/13 51/51/32 20/20/13
f 63/63/37 52/52/33 66/65/37
f 66/65/37 52/52/33 45/45/33
f 51/51/32 341/322/13 57/57/40
f 20/20/13 51/51/32 44/44/32
f 20/20/13 44/44/32 23/23/17
f 121/120/72 114/113/70 130/129/78
f 342/323/220 343/324/220 344/325/221
f 345/326/222 342/323/220 344/325/221
f 344/325/221 343/324/220 346/327/223
f 347/328/224 342/323/220 345/326/222
f 346/327/223 348/329/225 344/325/221
f 342/323/220 349/330/226 343/324/220
f 347/328/224 345/326/222 350/331/227
f 351/332/228 348/329/225 346/327/223
f 352/333/229 349/330/226 342/323/220
f 342/323/220 347/328/224 352/333/229
f 350/331/227 345/326/222 353/326/222
f 351/332/228 354/334/230 348/329/225
f 355/335/231 343/324/220 349/330/226
f 356/336/232 347/328/224 350/331/227
f 357/337/233 354/334/230 351/332/228
f 358/338/234 343/324/220 355/335/231
f 358/338/234 346/327/223 343/324/220
f 352/333/229 347/328/224 359/339/235
f 359/339/235 347/328/224 356/336/232
f 346/327/223 360/340/234 351/332/228
f 360/340/234 346/327/223 358/338/234
f 355/335/231 361/341/236 358/338/234
f 359/339/235 362/342/237 352/333/229
f 351/332/228 360/340/234 363/343/238
f 363/343/238 357/337/233 351/332/228
f 360/340/234 358/338/234 361/341/236
f 362/342/237 359/339/235 364/344/169
f 364/344/169 359/339/235 356/336/232
f 357/337/233 365/345/239 354/334/230
f 363/343/238 360/340/234 366/346/240
f 366/346/240 360/340/234 361/341/236
f 367/347/169 362/342/237 364/344/169
f 354/334/230 365/345/239 368/348/239
f 363/343/238 366/346/240 369/349/241
f 369/349/241 365/345/239 357/337/233
f 370/350/237 362/342/237 367/347/169
f 368/348/239 365/345/239 371/351/239
f 369/349/241 357/337/233 363/343/238
f 362/342/237 370/350/237 372/352/242
f 368/348/239 373/353/243 354/334/230
f 369/349/241 366/346/240 374/354/244
f 352/333/229 362/342/237 372/352/242
f 375/355/243 373/353/243 368/348/239
f 369/349/241 374/354/244 376/356/245
f 376/356/245 365/345/239 369/349/241
f 372/352/242 349/330/226 352/333/229
f 373/353/243 375/355/243 377/353/243
f 376/356/245 374/354/244 378/357/246
f 372/352/242 370/350/237 379/358/247
f 380/359/248 373/353/243 377/353/243
f 378/357/246 381/360/249 376/356/245
f 379/358/247 382/361/250 372/352/242
f 382/361/250 349/330/226 372/352/242
f 383/359/251 373/353/243 380/359/248
f 384/362/246 381/360/249 378/357/246
f 385/363/157 382/361/250 379/358/247
f 353/326/222 383/359/251 380/359/248
f 384/362/246 386/364/252 381/360/249
f 385/363/157 387/365/253 382/361/250
f 345/326/222 383/359/251 353/326/222
f 388/366/254 386/364/252 384/362/246
f 389/367/255 387/365/253 385/363/157
f 345/326/222 344/325/221 383/359/251
f 390/368/256 386/364/252 388/366/254
f 387/365/253 389/367/255 391/369/257
f 392/370/246 388/366/254 384/362/246
f 383/359/251 344/325/221 348/329/225
f 393/371/231 387/365/253 391/369/257
f 394/372/258 388/366/254 392/370/246
f 383/359/251 348/329/225 373/353/243
f 391/369/257 395/373/259 393/371/231
f 396/374/260 388/366/254 394/372/258
f 390/368/256 388/366/254 396/374/260
f 373/353/243 348/329/225 354/334/230
f 393/371/231 395/373/259 397/375/261
f 396/374/260 398/376/262 390/368/256
f 394/372/258 399/377/263 396/374/260
f 391/369/257 400/378/264 395/373/259
f 397/375/261 401/379/265 393/371/231
f 399/377/263 398/376/262 396/374/260
f 402/380/266 400/378/264 391/369/257
f 403/381/267 397/375/261 395/373/259
f 404/382/268 398/376/262 399/377/263
f 400/378/264 402/380/266 405/383/269
f 403/381/267 395/373/259 400/378/264
f 406/384/270 397/375/261 403/381/267
f 406/384/270 401/379/265 397/375/261
f 394/372/258 407/385/271 399/377/263
f 405/383/269 408/386/272 400/378/264
f 409/387/270 406/384/270 403/381/267
f 407/385/271 394/372/258 410/388/273
f 411/389/274 408/386/272 405/383/269
f 402/380/266 411/389/274 405/383/269
f 412/390/270 406/384/270 409/387/270
f 406/384/270 412/390/270 401/379/265
f 394/372/258 392/370/246 410/388/273
f 413/391/275 408/386/272 411/389/274
f 409/387/270 414/392/276 412/390/270
f 401/379/265 412/390/270 415/393/240
f 410/388/273 392/370/246 416/394/277
f 417/395/266 411/389/274 402/380/266
f 366/346/240 401/379/265 415/393/240
f 416/394/277 418/396/278 410/388/273
f 402/380/266 389/367/255 417/395/266
f 361/341/236 401/379/265 366/346/240
f 419/397/277 418/396/278 416/394/277
f 391/369/257 389/367/255 402/380/266
f 393/371/231 401/379/265 361/341/236
f 420/398/279 419/397/277 416/394/277
f 421/399/280 410/388/273 418/396/278
f 393/371/231 361/341/236 355/335/231
f 422/400/281 419/397/277 420/398/279
f 407/385/271 410/388/273 421/399/280
f 355/335/231 387/365/253 393/371/231
f 420/398/279 423/401/282 422/400/281
f 421/399/280 424/402/280 407/385/271
f 387/365/253 355/335/231 382/361/250
f 416/394/277 425/403/246 420/398/279
f 421/399/280 426/404/283 424/402/280
f 407/385/271 424/402/280 427/405/271
f 382/361/250 355/335/231 349/330/226
f 423/401/282 420/398/279 428/406/284
f 428/406/284 420/398/279 425/403/246
f 429/407/285 427/405/271 424/402/280
f 429/407/285 424/402/280 426/404/283
f 399/377/263 407/385/271 427/405/271
f 378/357/246 428/406/284 425/403/246
f 430/408/286 427/405/271 429/407/285
f 431/409/287 426/404/283 421/399/280
f 430/408/286 399/377/263 427/405/271
f 374/354/244 428/406/284 378/357/246
f 426/404/283 431/409/287 432/410/283
f 429/407/285 433/411/285 430/408/286
f 374/354/244 415/393/240 428/406/284
f 434/412/288 426/404/283 432/410/283
f 426/404/283 435/413/288 429/407/285
f 429/407/285 435/413/288 433/411/285
f 366/346/240 415/393/240 374/354/244
f 435/413/288 426/404/283 434/412/288
f 432/410/283 436/414/289 434/412/288
f 430/408/286 433/411/285 437/415/286
f 415/393/240 423/401/282 428/406/284
f 438/416/290 436/414/289 432/410/283
f 431/409/287 438/416/290 432/410/283
f 439/417/291 437/415/286 433/411/285
f 412/390/270 423/401/282 415/393/240
f 440/418/292 438/416/290 431/409/287
f 441/419/293 437/415/286 439/417/291
f 412/390/270 414/392/276 423/401/282
f 442/420/294 440/418/292 431/409/287
f 443/421/291 441/419/293 439/417/291
f 441/419/293 404/382/268 437/415/286
f 422/400/281 423/401/282 414/392/276
f 431/409/287 418/396/278 442/420/294
f 444/422/293 441/419/293 443/421/291
f 419/397/277 422/400/281 442/420/294
f 414/392/276 445/423/295 422/400/281
f 442/420/294 418/396/278 419/397/277
f 421/399/280 418/396/278 431/409/287
f 443/421/291 446/424/296 444/422/293
f 442/420/294 422/400/281 445/423/295
f 447/425/297 445/423/295 414/392/276
f 441/419/293 444/422/293 448/426/298
f 444/422/293 446/424/296 449/427/296
f 445/423/295 450/428/299 442/420/294
f 409/387/270 447/425/297 414/392/276
f 448/426/298 444/422/293 451/429/300
f 444/422/293 449/427/296 451/429/300
f 450/428/299 440/418/292 442/420/294
f 447/425/297 452/430/299 445/423/295
f 448/426/298 451/429/300 453/431/298
f 452/430/299 450/428/299 445/423/295
f 450/428/299 454/432/292 440/418/292
f 455/433/297 452/430/299 447/425/297
f 453/431/298 451/429/300 456/434/301
f 457/435/299 454/432/292 450/428/299
f 455/433/297 458/436/299 452/430/299
f 459/437/302 453/431/298 456/434/301
f 458/436/299 457/435/299 452/430/299
f 454/432/292 438/416/290 440/418/292
f 452/430/299 457/435/299 450/428/299
f 460/438/303 453/431/298 459/437/302
f 461/439/290 438/416/290 454/432/292
f 462/440/304 458/436/299 455/433/297
f 453/431/298 460/438/303 398/376/262
f 461/439/290 436/414/289 438/416/290
f 408/386/272 462/440/304 455/433/297
f 453/431/298 398/376/262 448/426/298
f 463/441/305 436/414/289 461/439/290
f 413/391/275 462/440/304 408/386/272
f 408/386/272 455/433/297 464/442/306
f 448/426/298 398/376/262 404/382/268
f 463/441/305 465/443/307 436/414/289
f 400/378/264 408/386/272 464/442/306
f 448/426/298 404/382/268 441/419/293
f 466/444/305 465/443/307 463/441/305
f 400/378/264 464/442/306 403/381/267
f 436/414/289 465/443/307 434/412/288
f 464/442/306 455/433/297 447/425/297
f 466/444/305 467/445/308 465/443/307
f 403/381/267 464/442/306 409/387/270
f 434/412/288 465/443/307 468/446/309
f 464/442/306 447/425/297 409/387/270
f 399/377/263 430/408/286 404/382/268
f 434/412/288 468/446/309 435/413/288
f 465/443/307 467/445/308 469/447/310
f 465/443/307 469/447/310 468/446/309
f 404/382/268 430/408/286 437/415/286
f 435/413/288 468/446/309 470/448/309
f 467/445/308 471/449/311 469/447/310
f 470/448/309 433/411/285 435/413/288
f 468/446/309 469/447/310 472/450/312
f 469/447/310 471/449/311 472/450/312
f 473/451/313 471/449/311 467/445/308
f 470/448/309 468/446/309 474/452/314
f 439/417/291 433/411/285 470/448/309
f 474/452/314 468/446/309 472/450/312
f 473/451/313 475/453/315 471/449/311
f 470/448/309 474/452/314 439/417/291
f 472/450/312 471/449/311 476/454/316
f 476/454/316 474/452/314 472/450/312
f 471/449/311 475/453/315 477/455/317
f 439/417/291 474/452/314 443/421/291
f 471/449/311 478/456/318 476/454/316
f 477/455/317 478/456/318 471/449/311
f 475/453/315 479/457/319 477/455/317
f 480/458/316 474/452/314 476/454/316
f 474/452/314 446/424/296 443/421/291
f 476/454/316 478/456/318 480/458/316
f 481/459/320 479/457/319 475/453/315
f 480/458/316 446/424/296 474/452/314
f 479/457/319 482/460/321 477/455/317
f 477/455/317 482/460/321 478/456/318
f 481/459/320 483/461/320 479/457/319
f 478/456/318 484/462/322 480/458/316
f 446/424/296 480/458/316 485/463/322
f 479/457/319 486/464/319 482/460/321
f 479/457/319 483/461/320 486/464/319
f 478/456/318 482/460/321 487/465/323
f 480/458/316 484/462/322 485/463/322
f 446/424/296 485/463/322 449/427/296
f 483/461/320 488/466/324 486/464/319
f 487/465/323 484/462/322 478/456/318
f 482/460/321 486/464/319 489/467/319
f 449/427/296 485/463/322 490/468/325
f 487/465/323 482/460/321 491/469/326
f 484/462/322 490/468/325 485/463/322
f 488/466/324 492/470/324 486/464/319
f 486/464/319 492/470/324 489/467/319
f 482/460/321 489/467/319 491/469/326
f 493/471/325 490/468/325 484/462/322
f 484/462/322 487/465/323 493/471/325
f 494/472/327 488/466/324 483/461/320
f 492/470/324 495/473/328 489/467/319
f 493/471/325 496/474/300 490/468/325
f 490/468/325 496/474/300 449/427/296
f 494/472/327 497/475/329 488/466/324
f 488/466/324 497/475/329 492/470/324
f 489/467/319 495/473/328 498/476/328
f 491/469/326 489/467/319 498/476/328
f 451/429/300 449/427/296 496/474/300
f 499/477/327 497/475/329 494/472/327
f 500/478/330 491/469/326 498/476/328
f 498/476/328 495/473/328 500/478/330
f 451/429/300 496/474/300 456/434/301
f 499/477/327 501/479/331 497/475/329
f 502/480/323 491/469/326 500/478/330
f 495/473/328 503/481/332 500/478/330
f 456/434/301 496/474/300 504/482/302
f 497/475/329 501/479/331 505/483/333
f 506/484/334 503/481/332 495/473/328
f 504/482/302 459/437/302 456/434/301
f 505/483/333 507/485/334 497/475/329
f 503/481/332 506/484/334 508/486/335
f 509/487/336 459/437/302 504/482/302
f 510/488/337 507/485/334 505/483/333
f 508/486/335 511/489/338 503/481/332
f 508/486/335 506/484/334 507/485/334
f 500/478/330 503/481/332 511/489/338
f 509/487/336 504/482/302 512/490/339
f 508/486/335 507/485/334 510/488/337
f 500/478/330 511/489/338 502/480/323
f 512/490/339 513/491/339 509/487/336
f 512/490/339 504/482/302 511/489/338
f 497/475/329 507/485/334 492/470/324
f 502/480/323 511/489/338 504/482/302
f 492/470/324 507/485/334 506/484/334
f 509/487/336 514/492/340 459/437/302
f 493/471/325 502/480/323 504/482/302
f 495/473/328 492/470/324 506/484/334
f 509/487/336 513/491/339 515/493/341
f 493/471/325 487/465/323 502/480/323
f 504/482/302 496/474/300 493/471/325
f 459/437/302 514/492/340 516/494/340
f 515/493/341 513/491/339 517/495/341
f 502/480/323 487/465/323 491/469/326
f 459/437/302 516/494/340 460/438/303
f 515/493/341 517/495/341 518/496/342
f 513/491/339 519/497/343 517/495/341
f 516/494/340 514/492/340 520/498/340
f 460/438/303 516/494/340 521/499/344
f 518/496/342 517/495/341 522/500/345
f 523/501/339 519/497/343 513/491/339
f 516/494/340 520/498/340 521/499/344
f 522/500/345 524/502/346 518/496/342
f 523/501/339 513/491/339 512/490/339
f 525/503/343 519/497/343 523/501/339
f 521/499/344 520/498/340 526/504/344
f 515/493/341 518/496/342 527/505/347
f 525/503/343 528/506/348 519/497/343
f 526/504/344 529/507/349 521/499/344
f 530/508/350 526/504/344 520/498/340
f 524/502/351 526/504/344 530/508/350
f 527/505/347 518/496/342 531/509/352
f 521/499/344 529/507/349 532/510/353
f 528/506/348 533/511/354 519/497/343
f 534/512/343 528/506/348 525/503/343
f 535/513/346 524/502/346 522/500/345
f 532/510/353 460/438/303 521/499/344
f 536/514/355 534/512/343 525/503/343
f 535/513/346 537/515/346 524/502/346
f 538/516/262 460/438/303 532/510/353
f 539/517/356 534/512/343 536/514/355
f 540/518/346 537/515/346 535/513/346
f 398/376/262 460/438/303 538/516/262
f 541/519/357 539/517/356 536/514/355
f 537/515/346 540/518/346 542/520/358
f 398/376/262 538/516/262 390/368/256
f 543/521/357 539/517/356 541/519/357
f 524/502/346 537/515/346 544/522/359
f 542/520/358 540/518/346 545/523/360
f 541/519/357 546/524/357 543/521/357
f 539/517/356 543/521/357 547/525/361
f 544/522/359 537/515/346 548/526/362
f 545/523/360 549/527/360 542/520/358
f 550/528/363 539/517/356 547/525/361
f 543/521/357 546/524/357 551/529/364
f 537/515/346 552/530/360 548/526/362
f 550/528/363 547/525/361 553/528/365
f 551/529/364 554/531/366 543/521/357
f 555/532/367 551/529/364 546/524/357
f 534/512/343 539/517/356 550/528/363
f 547/525/361 543/521/357 554/531/366
f 556/533/368 551/529/364 555/532/367
f 557/534/369 534/512/343 550/528/363
f 553/528/365 557/534/369 550/528/363
f 547/525/361 554/531/366 558/525/365
f 559/535/370 554/531/366 551/529/364
f 551/529/364 556/533/368 559/535/370
f 553/528/365 547/525/361 558/525/365
f 528/506/348 534/512/343 557/534/369
f 558/525/365 554/531/366 560/531/371
f 559/535/370 561/536/372 554/531/366
f 562/537/369 557/534/369 553/528/365
f 557/534/369 533/511/354 528/506/348
f 554/531/366 561/536/372 560/531/371
f 559/535/370 556/533/368 563/538/373
f 564/539/374 533/511/354 557/534/369
f 562/537/369 564/539/374 557/534/369
f 559/535/370 565/540/373 561/536/372
f 556/533/368 566/541/368 563/538/373
f 567/542/375 564/539/374 562/537/369
f 563/538/373 565/540/373 559/535/370
f 533/511/354 564/539/374 568/543/354
f 566/541/368 556/533/368 569/544/368
f 563/538/373 570/545/376 565/540/373
f 571/546/354 533/511/354 568/543/354
f 563/538/373 566/541/368 570/545/376
f 569/544/368 556/533/368 555/532/367
f 571/546/354 568/543/354 572/547/377
f 573/548/354 533/511/354 571/546/354
f 565/540/373 570/545/376 574/549/378
f 555/532/367 575/550/379 569/544/368
f 519/497/343 533/511/354 573/548/354
f 572/547/377 535/513/346 571/546/354
f 576/551/379 575/550/379 555/532/367
f 517/495/341 519/497/343 573/548/354
f 572/547/377 568/543/354 577/552/380
f 576/551/379 578/553/379 575/550/379
f 573/548/354 522/500/345 517/495/341
f 571/546/354 535/513/346 522/500/345
f 579/554/381 577/552/380 568/543/354
f 575/550/379 578/553/379 580/555/382
f 571/546/354 522/500/345 573/548/354
f 568/543/354 564/539/374 579/554/381
f 575/550/379 580/555/382 581/556/331
f 580/555/382 578/553/379 582/557/383
f 583/558/384 577/552/380 579/554/381
f 564/539/374 567/542/375 579/554/381
f 581/556/331 580/555/382 584/559/385
f 584/559/385 580/555/382 582/557/383
f 583/558/384 579/554/381 585/558/386
f 586/560/387 577/552/380 583/558/384
f 581/556/331 584/559/385 587/561/385
f 582/557/383 578/553/379 588/562/388
f 589/563/380 577/552/380 586/560/387
f 581/556/331 590/564/48 575/550/379
f 582/557/383 588/562/388 591/565/337
f 589/563/380 572/547/377 577/552/380
f 586/560/387 583/558/384 592/566/389
f 592/566/389 583/558/384 585/558/386
f 591/565/337 588/562/388 593/567/333
f 594/568/377 572/547/377 589/563/380
f 595/569/390 586/560/387 592/566/389
f 593/567/333 505/483/333 591/565/337
f 589/563/380 596/570/391 594/568/377
f 597/571/392 586/560/387 595/569/390
f 510/488/337 505/483/333 593/567/333
f 586/560/387 597/571/392 589/563/380
f 589/563/380 597/571/392 596/570/391
f 594/568/377 596/570/391 598/572/393
f 593/567/333 599/573/394 510/488/337
f 505/483/333 501/479/331 591/565/337
f 540/518/346 572/547/377 594/568/377
f 593/567/333 600/574/394 599/573/394
f 510/488/337 599/573/394 601/575/395
f 501/479/331 582/557/383 591/565/337
f 540/518/346 594/568/377 545/523/360
f 545/523/360 594/568/377 598/572/393
f 535/513/346 572/547/377 540/518/346
f 584/559/385 582/557/383 501/479/331
f 598/572/393 602/576/396 545/523/360
f 599/573/394 603/577/395 601/575/395
f 587/561/385 584/559/385 501/479/331
f 602/576/396 598/572/393 604/578/397
f 605/579/394 603/577/395 599/573/394
f 587/561/385 501/479/331 499/477/327
f 606/580/398 602/576/396 604/578/397
f 599/573/394 600/574/394 605/579/394
f 603/577/395 523/501/339 601/575/395
f 607/581/398 602/576/396 606/580/398
f 604/578/397 598/572/393 596/570/391
f 523/501/339 603/577/395 525/503/343
f 608/582/399 607/581/398 606/580/398
f 596/570/391 609/583/400 604/578/397
f 610/584/338 601/575/395 523/501/339
f 611/585/399 607/581/398 608/582/399
f 597/571/392 609/583/400 596/570/391
f 512/490/339 610/584/338 523/501/339
f 608/582/399 612/586/399 611/585/399
f 609/583/400 597/571/392 613/587/400
f 511/489/338 610/584/338 512/490/339
f 612/586/399 608/582/399 614/588/401
f 615/589/402 604/578/397 609/583/400
f 609/583/400 613/587/400 615/589/402
f 610/584/338 511/489/338 508/486/335
f 614/588/401 608/582/399 616/590/403
f 606/580/398 604/578/397 615/589/402
f 508/486/335 601/575/395 610/584/338
f 614/588/401 616/590/403 617/588/404
f 608/582/399 606/580/398 616/590/403
f 616/590/403 606/580/398 615/589/402
f 510/488/337 601/575/395 508/486/335
f 618/591/401 614/588/401 617/588/404
f 617/588/404 616/590/403 619/590/405
f 616/590/403 615/589/402 619/590/405
f 615/589/402 613/587/400 620/592/406
f 619/590/405 615/589/402 620/592/406
f 621/591/407 614/588/401 618/591/401
f 622/355/243 621/591/407 618/591/401
f 621/591/407 371/351/239 614/588/401
f 613/587/400 597/571/392 595/569/390
f 375/355/243 621/591/407 622/355/243
f 621/591/407 368/348/239 371/351/239
f 614/588/401 371/351/239 612/586/399
f 375/355/243 368/348/239 621/591/407
f 377/353/243 375/355/243 622/355/243
f 371/351/239 623/593/239 612/586/399
f 371/351/239 365/345/239 623/593/239
f 612/586/399 623/593/239 624/594/399
f 365/345/239 376/356/245 623/593/239
f 611/585/399 612/586/399 624/594/399
f 623/593/239 376/356/245 381/360/249
f 623/593/239 381/360/249 624/594/399
f 624/594/399 625/595/408 611/585/399
f 624/594/399 381/360/249 386/364/252
f 386/364/252 625/595/408 624/594/399
f 625/595/408 626/596/408 611/585/399
f 625/595/408 386/364/252 390/368/256
f 626/596/408 625/595/408 627/597/256
f 627/597/256 625/595/408 390/368/256
f 611/585/399 626/596/408 607/581/398
f 538/516/262 627/597/256 390/368/256
f 627/597/256 628/598/409 626/596/408
f 626/596/408 549/527/360 607/581/398
f 626/596/408 628/598/409 549/527/360
f 532/510/353 627/597/256 538/516/262
f 628/598/409 627/597/256 532/510/353
f 607/581/398 549/527/360 602/576/396
f 542/520/358 549/527/360 628/598/409
f 545/523/360 602/576/396 549/527/360
f 529/507/349 628/598/409 532/510/353
f 542/520/358 628/598/409 529/507/349
f 629/599/410 514/492/340 509/487/336
f 28/28/8 109/108/14 11/11/8
f 15/15/12 28/28/8 11/11/8
f 11/11/8 109/108/14 18/18/14
f 28/28/8 115/114/70 109/108/14
f 109/108/14 106/105/14 18/18/14
f 28/28/8 630/600/70 115/114/70
f 25/25/19 630/600/70 28/28/8
f 106/105/14 21/21/16 18/18/14
f 106/105/14 92/91/57 21/21/16
f 92/91/57 631/601/411 21/21/16
f 86/85/57 631/601/411 92/91/57
f 631/601/411 27/27/20 21/21/16
f 82/81/26 631/601/411 86/85/57
f 33/33/23 27/27/20 631/601/411
f 87/86/26 631/601/411 82/81/26
f 631/601/411 87/86/26 33/33/23
f 36/36/26 33/33/23 87/86/26
f 36/36/26 87/86/26 84/83/55
f 41/41/15 36/36/26 84/83/55
f 632/602/412 231/230/147 633/603/412
f 634/604/98 632/602/412 633/603/412
f 633/603/412 231/230/147 232/231/148
f 634/604/98 633/603/412 218/217/137
f 167/166/100 632/602/412 634/604/98
f 632/602/412 635/605/78 231/230/147
f 633/603/412 232/231/148 226/225/143
f 218/217/137 633/603/412 226/225/143
f 160/159/98 167/166/100 634/604/98
f 636/606/78 635/605/78 632/602/412
f 218/217/137 160/159/98 634/604/98
f 635/605/78 234/233/78 231/230/147
f 167/166/100 636/606/78 632/602/412
f 637/607/78 636/606/78 167/166/100
f 163/162/100 637/607/78 167/166/100
f 169/168/78 637/607/78 163/162/100
f 22/22/7 35/35/25 330/313/25
f 35/35/25 320/304/205 330/313/25
f 35/35/25 314/299/201 320/304/205
f 330/313/25 320/304/205 322/306/207
f 38/38/28 314/299/201 35/35/25
f 314/299/201 38/38/28 308/294/198
f 308/294/198 38/38/28 313/298/203
f 228/227/144 230/229/146 638/608/150
f 638/608/150 189/188/110 228/227/144
f 638/608/150 230/229/146 235/234/150
f 228/227/144 189/188/110 185/184/111
f 639/609/413 638/608/150 235/234/150
f 185/184/111 223/222/141 228/227/144
f 193/192/116 189/188/110 638/608/150
f 235/234/150 217/216/136 639/609/413
f 187/186/113 223/222/141 185/184/111
f 638/608/150 198/197/115 193/192/116
f 639/609/413 198/197/115 638/608/150
f 217/216/136 205/204/125 639/609/413
f 192/191/113 223/222/141 187/186/113
f 639/609/413 205/204/125 198/197/115
f 214/213/133 223/222/141 192/191/113
f 392/370/246 384/362/246 425/403/246
f 392/370/246 425/403/246 416/394/277
f 425/403/246 384/362/246 378/357/246
f 605/579/394 600/574/394 640/610/394
f 605/579/394 640/610/394 541/519/357
f 600/574/394 578/553/379 640/610/394
f 541/519/357 536/514/355 605/579/394
f 578/553/379 600/574/394 588/562/388
f 588/562/388 600/574/394 593/567/333
f 640/610/394 578/553/379 576/551/379
f 541/519/357 640/610/394 546/524/357
f 605/579/394 536/514/355 603/577/395
f 640/610/394 576/551/379 546/524/357
f 525/503/343 603/577/395 536/514/355
f 546/524/357 576/551/379 555/532/367
f 579/554/381 567/542/375 641/554/414
f 585/558/386 579/554/381 641/554/414
f 196/195/118 186/185/112 184/183/103
f 196/195/118 184/183/103 191/190/115
f 191/190/115 184/183/103 179/178/105
f 179/178/105 183/182/110 191/190/115
f 88/87/58 91/90/61 139/138/84
f 146/145/89 88/87/58 139/138/84
f 91/90/61 105/104/67 139/138/84
f 146/145/89 93/92/56 88/87/58
f 95/94/59 93/92/56 104/103/68
f 239/238/153 154/153/89 241/240/149
f 154/153/89 239/238/153 157/156/68
f 241/240/149 154/153/89 148/147/91
f 241/240/149 148/147/91 143/142/87
f 143/142/87 151/150/88 241/240/149
f 241/240/149 151/150/88 233/232/149
f 642/611/44 566/541/368 590/564/48
f 566/541/368 642/611/44 570/545/376
f 590/564/48 566/541/368 569/544/368
f 575/550/379 590/564/48 569/544/368
f 570/545/376 642/611/44 643/612/50
f 570/545/376 643/612/50 574/549/378
f 574/549/378 643/612/50 644/612/50
f 645/613/415 646/614/385 647/615/416
f 646/614/385 645/613/415 648/616/385
f 648/616/385 645/613/415 649/617/415
f 647/615/416 646/614/385 650/618/417
f 647/615/416 650/618/417 651/619/416
f 651/619/416 650/618/417 652/620/327
f 651/619/416 652/620/327 653/621/416
f 653/621/416 652/620/327 654/622/320
f 653/621/416 654/622/320 655/623/418
f 655/623/418 654/622/320 656/624/320
f 655/623/418 656/624/320 657/625/418
f 657/625/418 656/624/320 658/626/419
f 658/626/419 659/627/419 657/625/418
f 657/625/418 659/627/419 660/628/418
f 660/628/418 659/627/419 661/629/418
f 661/629/418 659/627/419 662/630/420
f 661/629/418 662/630/420 663/631/418
f 663/631/418 662/630/420 664/632/421
f 663/631/418 664/632/421 665/633/418
f 665/633/418 664/632/421 666/634/422
f 665/633/418 666/634/422 667/635/418
f 667/635/418 666/634/422 668/636/423
f 667/635/418 668/636/423 669/637/418
f 669/637/418 668/636/423 670/638/424
f 670/638/424 671/639/299 669/637/418
f 669/637/418 671/639/299 672/640/78
f 671/639/299 673/641/425 672/640/78
f 672/640/78 673/641/425 674/642/418
f 673/641/425 675/643/426 674/642/418
f 674/642/418 675/643/426 676/644/78
f 675/643/426 677/645/275 676/644/78
f 676/644/78 677/645/275 678/646/427
f 677/645/275 679/647/274 678/646/427
f 678/646/427 679/647/274 680/648/427
f 679/647/274 681/649/428 680/648/427
f 680/648/427 681/649/428 682/650/155
f 681/649/428 683/651/428 682/650/155
f 682/650/155 683/651/428 684/652/155
f 685/653/429 272/269/173 686/654/155
f 272/269/173 274/271/155 686/654/155
f 687/655/416 688/656/12 689/657/49
f 689/657/49 688/656/12 690/658/430
f 690/658/430 691/659/27 689/657/49
f 689/657/49 691/659/27 692/660/415
f 99/98/64 122/121/70 96/95/62
f 96/95/62 122/121/70 111/110/70
o GUI_Map_RaisedHill6:GUI_Map_RaisedHill_board2:board1:GU_284a691
v 0.000170 0.000391 0.016235
v -0.003057 0.000383 0.015740
v 0.000009 0.000394 0.016876
v 0.000225 0.000319 0.015513
v -0.003161 0.000385 0.016160
v -0.002982 0.000313 0.015280
v -0.000263 0.000396 0.017622
v -0.003295 0.000386 0.016555
v -0.000471 0.000398 0.018142
v -0.003441 0.000387 0.016896
v -0.000777 0.000400 0.018753
v -0.003626 0.000388 0.017284
v -0.003847 0.000389 0.017637
v -0.001126 0.000402 0.019388
v -0.004108 0.000390 0.018047
v -0.001542 0.000403 0.019958
v -0.004368 0.000391 0.018361
v -0.001941 0.000405 0.020464
v -0.002409 0.000406 0.020960
v -0.004684 0.000392 0.018699
v -0.002836 0.000407 0.021387
v -0.005008 0.000393 0.018983
v -0.005283 0.000393 0.019223
v -0.003391 0.000408 0.021827
v -0.005713 0.000394 0.019538
v -0.003966 0.000408 0.022231
v -0.006057 0.000394 0.019764
v -0.004510 0.000409 0.022564
v -0.006440 0.000394 0.019990
v -0.005098 0.000409 0.022914
v -0.006787 0.000394 0.020179
v -0.005704 0.000409 0.023188
v -0.007219 0.000394 0.020370
v -0.006359 0.000409 0.023493
v -0.007630 0.000394 0.020535
v -0.007046 0.000409 0.023755
v -0.008021 0.000394 0.020682
v -0.007719 0.000408 0.023937
v -0.008351 0.000325 0.020755
v -0.008079 0.000339 0.024009
vn 0.0104 0.9929 -0.1183
vn 0.0111 0.9929 -0.1182
vn -0.0020 1.0000 -0.0041
vn -0.0020 1.0000 -0.0042
vn -0.0019 1.0000 -0.0042
vn -0.1937 0.9810 0.0129
vt 0.398607 0.119720
vt 0.400051 0.064164
vt 0.413671 0.119712
vt 0.381669 0.119082
vt 0.416203 0.064170
vt 0.383821 0.064846
vt 0.433084 0.119710
vt 0.432699 0.064172
vt 0.447061 0.119708
vt 0.447080 0.064175
vt 0.464498 0.119705
vt 0.464237 0.064178
vt 0.480678 0.064172
vt 0.483185 0.119711
vt 0.499880 0.064180
vt 0.501649 0.119703
vt 0.516285 0.064177
vt 0.518643 0.119706
vt 0.536717 0.119705
vt 0.534584 0.064178
vt 0.552594 0.119712
vt 0.551349 0.064172
vt 0.569390 0.064211
vt 0.570991 0.119708
vt 0.584683 0.064213
vt 0.589171 0.119706
vt 0.601658 0.064219
vt 0.605491 0.119703
vt 0.616112 0.064217
vt 0.622700 0.119707
vt 0.633506 0.064183
vt 0.639009 0.119701
vt 0.651462 0.064177
vt 0.656629 0.119706
vt 0.667689 0.064204
vt 0.673948 0.119710
vt 0.690424 0.064258
vt 0.689352 0.119720
vt 0.700479 0.064561
vt 0.696756 0.119213
s 1
g GUI_Map_RaisedHill6:GUI_Map_RaisedHill_board2:board1:GU_284a691_board2:board1:GUI_LeftGameBoard
usemtl board2:board1:GUI_LeftGameBoard
f 693/661/431 694/662/432 695/663/433
f 693/661/431 696/664/432 694/662/432
f 695/663/433 694/662/432 697/665/433
f 694/662/432 696/664/432 698/666/432
f 695/663/433 697/665/433 699/667/433
f 699/667/433 697/665/433 700/668/433
f 699/667/433 700/668/433 701/669/433
f 701/669/433 700/668/433 702/670/433
f 701/669/433 702/670/433 703/671/433
f 703/671/433 702/670/433 704/672/433
f 705/673/433 703/671/433 704/672/433
f 706/674/433 703/671/433 705/673/433
f 707/675/434 706/674/433 705/673/433
f 708/676/434 706/674/433 707/675/434
f 709/677/434 708/676/434 707/675/434
f 710/678/434 708/676/434 709/677/434
f 710/678/434 709/677/434 711/679/435
f 711/679/435 709/677/434 712/680/435
f 711/679/435 712/680/435 713/681/435
f 713/681/435 712/680/435 714/682/435
f 715/683/435 713/681/435 714/682/435
f 716/684/435 713/681/435 715/683/435
f 717/685/435 716/684/435 715/683/435
f 718/686/435 716/684/435 717/685/435
f 719/687/435 718/686/435 717/685/435
f 720/688/435 718/686/435 719/687/435
f 721/689/435 720/688/435 719/687/435
f 722/690/435 720/688/435 721/689/435
f 723/691/435 722/690/435 721/689/435
f 724/692/435 722/690/435 723/691/435
f 725/693/435 724/692/435 723/691/435
f 726/694/435 724/692/435 725/693/435
f 727/695/435 726/694/435 725/693/435
f 728/696/435 726/694/435 727/695/435
f 729/697/436 728/696/435 727/695/435
f 730/698/436 728/696/435 729/697/436
f 731/699/436 730/698/436 729/697/436
f 732/700/436 730/698/436 731/699/436
