# Blender 4.1.1
# www.blender.org
mtllib Checkers.mtl
o CheckersRed_GUI_Map_Checkers2
v -0.018704 0.000701 -0.026986
v -0.017415 0.000701 -0.026983
v -0.018059 0.000704 -0.027066
v -0.017426 0.000701 -0.022172
v -0.018715 0.000701 -0.022175
v -0.018071 0.000704 -0.022093
v -0.018704 0.000432 -0.026986
v -0.018059 0.000429 -0.027066
v -0.017415 0.000432 -0.026983
v -0.017426 0.000432 -0.022172
v -0.018071 0.000429 -0.022093
v -0.018715 0.000432 -0.022175
v -0.016235 0.000914 -0.026400
v -0.015829 0.000924 -0.025863
v -0.015829 0.001106 -0.025863
v -0.015909 0.000704 -0.025817
v -0.016300 0.000701 -0.026336
v -0.015570 0.000914 -0.025241
v -0.016817 0.000704 -0.026730
v -0.015829 0.001106 -0.025863
v -0.015658 0.000701 -0.025218
v -0.016771 0.000924 -0.026809
v -0.015578 0.000704 -0.024573
v -0.017391 0.000914 -0.027071
v -0.016771 0.001106 -0.026809
v -0.015487 0.000924 -0.024573
v -0.016771 0.001106 -0.026809
v -0.017415 0.000701 -0.026983
v -0.015487 0.001106 -0.024573
v -0.015573 0.000914 -0.023905
v -0.018059 0.000704 -0.027066
v -0.015487 0.001106 -0.024573
v -0.015661 0.000701 -0.023929
v -0.018059 0.000924 -0.027157
v -0.015914 0.000704 -0.023331
v -0.018727 0.000914 -0.027074
v -0.018059 0.001106 -0.027157
v -0.015835 0.000924 -0.023285
v -0.018059 0.001106 -0.027157
v -0.018704 0.000701 -0.026986
v -0.015835 0.001106 -0.023285
v -0.016244 0.000914 -0.022749
v -0.019303 0.000704 -0.026735
v -0.015835 0.001106 -0.023285
v -0.016308 0.000701 -0.022814
v -0.019349 0.000924 -0.026815
v -0.016827 0.000704 -0.022423
v -0.019886 0.000914 -0.026409
v -0.019349 0.001106 -0.026815
v -0.016781 0.000924 -0.022344
v -0.019349 0.001106 -0.026815
v -0.019822 0.000701 -0.026344
v -0.016781 0.001106 -0.022344
v -0.017403 0.000914 -0.022084
v -0.020215 0.000704 -0.025827
v -0.016781 0.001106 -0.022344
v -0.017426 0.000701 -0.022172
v -0.020294 0.000924 -0.025873
v -0.018071 0.000704 -0.022093
v -0.020557 0.000914 -0.025253
v -0.020294 0.001106 -0.025873
v -0.018071 0.000924 -0.022001
v -0.020294 0.001106 -0.025873
v -0.020469 0.000701 -0.025229
v -0.018071 0.001106 -0.022001
v -0.018739 0.000914 -0.022087
v -0.020551 0.000704 -0.024585
v -0.018071 0.001106 -0.022001
v -0.018715 0.000701 -0.022175
v -0.020643 0.000924 -0.024585
v -0.019313 0.000704 -0.022429
v -0.020560 0.000914 -0.023917
v -0.020643 0.001106 -0.024585
v -0.019359 0.000924 -0.022350
v -0.020643 0.001106 -0.024585
v -0.020472 0.000701 -0.023940
v -0.019359 0.001106 -0.022350
v -0.019895 0.000914 -0.022758
v -0.020221 0.000704 -0.023341
v -0.019359 0.001106 -0.022350
v -0.019830 0.000701 -0.022822
v -0.020300 0.000924 -0.023295
v -0.020300 0.001106 -0.023295
v -0.020300 0.001106 -0.023295
v -0.015304 0.000914 -0.025312
v -0.015592 0.001106 -0.025999
v -0.015570 0.000914 -0.025241
v -0.015829 0.001106 -0.025863
v -0.015304 0.000914 -0.025312
v -0.015592 0.000924 -0.025999
v -0.015592 0.001106 -0.025999
v -0.015304 0.000219 -0.025312
v -0.016041 0.000914 -0.026594
v -0.015213 0.000209 -0.024572
v -0.015592 0.000209 -0.025999
v -0.015213 0.000924 -0.024572
v -0.016041 0.000219 -0.026594
v -0.015592 0.000027 -0.025999
v -0.015213 0.001106 -0.024572
v -0.015213 0.000027 -0.024572
v -0.016633 0.000924 -0.027046
v -0.015308 0.000914 -0.023833
v -0.015308 0.000219 -0.023833
v -0.016633 0.001106 -0.027046
v -0.016633 0.000209 -0.027046
v -0.017319 0.000914 -0.027336
v -0.015598 0.000209 -0.023147
v -0.016633 0.000027 -0.027046
v -0.015598 0.000924 -0.023147
v -0.015598 0.000027 -0.023147
v -0.017319 0.000219 -0.027336
v -0.015598 0.001106 -0.023147
v -0.016050 0.000219 -0.022555
v -0.018058 0.000924 -0.027431
v -0.016050 0.000914 -0.022555
v -0.018058 0.001106 -0.027431
v -0.018058 0.000209 -0.027431
v -0.018798 0.000914 -0.027340
v -0.018058 0.000027 -0.027431
v -0.018798 0.000219 -0.027340
v -0.019485 0.000924 -0.027052
v -0.019485 0.001106 -0.027052
v -0.019485 0.000209 -0.027052
v -0.020080 0.000914 -0.026603
v -0.019485 0.000027 -0.027052
v -0.020080 0.000219 -0.026603
v -0.016041 0.000914 -0.026594
v -0.016235 0.000914 -0.026400
v -0.015592 0.001106 -0.025999
v -0.015829 0.001106 -0.025863
v -0.016041 0.000914 -0.026594
v -0.016633 0.001106 -0.027046
v -0.016235 0.000914 -0.026400
v -0.016771 0.001106 -0.026809
v -0.017319 0.000914 -0.027336
v -0.017391 0.000914 -0.027071
v -0.016633 0.001106 -0.027046
v -0.016771 0.001106 -0.026809
v -0.017319 0.000914 -0.027336
v -0.018058 0.001106 -0.027431
v -0.017391 0.000914 -0.027071
v -0.018059 0.001106 -0.027157
v -0.018798 0.000914 -0.027340
v -0.018727 0.000914 -0.027074
v -0.018058 0.001106 -0.027431
v -0.018059 0.001106 -0.027157
v -0.018798 0.000914 -0.027340
v -0.019485 0.001106 -0.027052
v -0.018727 0.000914 -0.027074
v -0.019349 0.001106 -0.026815
v -0.020080 0.000914 -0.026603
v -0.019886 0.000914 -0.026409
v -0.019485 0.001106 -0.027052
v -0.019349 0.001106 -0.026815
v -0.020080 0.000914 -0.026603
v -0.020531 0.001106 -0.026011
v -0.019886 0.000914 -0.026409
v -0.020294 0.001106 -0.025873
v -0.020080 0.000914 -0.026603
v -0.020531 0.000924 -0.026011
v -0.020531 0.001106 -0.026011
v -0.020080 0.000219 -0.026603
v -0.020822 0.000914 -0.025325
v -0.020531 0.000209 -0.026011
v -0.020531 0.000027 -0.026011
v -0.020822 0.000219 -0.025325
v -0.020917 0.000924 -0.024586
v -0.020917 0.001106 -0.024586
v -0.020917 0.000209 -0.024586
v -0.020826 0.000914 -0.023846
v -0.020917 0.000027 -0.024586
v -0.020826 0.000219 -0.023846
v -0.020538 0.000924 -0.023159
v -0.020538 0.001106 -0.023159
v -0.020538 0.000209 -0.023159
v -0.020089 0.000914 -0.022564
v -0.020538 0.000027 -0.023159
v -0.020089 0.000219 -0.022564
v -0.019497 0.000924 -0.022113
v -0.019497 0.001106 -0.022113
v -0.019497 0.000209 -0.022113
v -0.018811 0.000914 -0.021822
v -0.019497 0.000027 -0.022113
v -0.018811 0.000219 -0.021822
v -0.018072 0.000924 -0.021727
v -0.018072 0.001106 -0.021727
v -0.018072 0.000209 -0.021727
v -0.017332 0.000914 -0.021818
v -0.018072 0.000027 -0.021727
v -0.017332 0.000219 -0.021818
v -0.016645 0.000924 -0.022106
v -0.016645 0.001106 -0.022106
v -0.016645 0.000209 -0.022106
v -0.016050 0.000914 -0.022555
v -0.016645 0.000027 -0.022106
v -0.016050 0.000219 -0.022555
v -0.020822 0.000914 -0.025325
v -0.020557 0.000914 -0.025253
v -0.020531 0.001106 -0.026011
v -0.020294 0.001106 -0.025873
v -0.020822 0.000914 -0.025325
v -0.020917 0.001106 -0.024586
v -0.020557 0.000914 -0.025253
v -0.020643 0.001106 -0.024585
v -0.020826 0.000914 -0.023846
v -0.020560 0.000914 -0.023917
v -0.020917 0.001106 -0.024586
v -0.020643 0.001106 -0.024585
v -0.020826 0.000914 -0.023846
v -0.020538 0.001106 -0.023159
v -0.020560 0.000914 -0.023917
v -0.020300 0.001106 -0.023295
v -0.020089 0.000914 -0.022564
v -0.019895 0.000914 -0.022758
v -0.020538 0.001106 -0.023159
v -0.020300 0.001106 -0.023295
v -0.020089 0.000914 -0.022564
v -0.019497 0.001106 -0.022113
v -0.019895 0.000914 -0.022758
v -0.019359 0.001106 -0.022350
v -0.018811 0.000914 -0.021822
v -0.018739 0.000914 -0.022087
v -0.019497 0.001106 -0.022113
v -0.019359 0.001106 -0.022350
v -0.018811 0.000914 -0.021822
v -0.018072 0.001106 -0.021727
v -0.018739 0.000914 -0.022087
v -0.018071 0.001106 -0.022001
v -0.017332 0.000914 -0.021818
v -0.017403 0.000914 -0.022084
v -0.018072 0.001106 -0.021727
v -0.018071 0.001106 -0.022001
v -0.017332 0.000914 -0.021818
v -0.016645 0.001106 -0.022106
v -0.017403 0.000914 -0.022084
v -0.016781 0.001106 -0.022344
v -0.016050 0.000914 -0.022555
v -0.016244 0.000914 -0.022749
v -0.016645 0.001106 -0.022106
v -0.016781 0.001106 -0.022344
v -0.016050 0.000914 -0.022555
v -0.015598 0.001106 -0.023147
v -0.016244 0.000914 -0.022749
v -0.015835 0.001106 -0.023285
v -0.015308 0.000914 -0.023833
v -0.015573 0.000914 -0.023905
v -0.015598 0.001106 -0.023147
v -0.015835 0.001106 -0.023285
v -0.015308 0.000914 -0.023833
v -0.015213 0.001106 -0.024572
v -0.015573 0.000914 -0.023905
v -0.015487 0.001106 -0.024573
v -0.015304 0.000914 -0.025312
v -0.015570 0.000914 -0.025241
v -0.015213 0.001106 -0.024572
v -0.015487 0.001106 -0.024573
v -0.019303 0.000704 -0.026735
v -0.016817 0.000704 -0.026730
v -0.018704 0.000701 -0.026986
v -0.017415 0.000701 -0.026983
v -0.019822 0.000701 -0.026344
v -0.016300 0.000701 -0.026336
v -0.019303 0.000704 -0.026735
v -0.016817 0.000704 -0.026730
v -0.020551 0.000704 -0.024585
v -0.015578 0.000704 -0.024573
v -0.020469 0.000701 -0.025229
v -0.015658 0.000701 -0.025218
v -0.020215 0.000704 -0.025827
v -0.015909 0.000704 -0.025817
v -0.019822 0.000701 -0.026344
v -0.016300 0.000701 -0.026336
v -0.020469 0.000701 -0.025229
v -0.015658 0.000701 -0.025218
v -0.020215 0.000704 -0.025827
v -0.015909 0.000704 -0.025817
v -0.020221 0.000704 -0.023341
v -0.015914 0.000704 -0.023331
v -0.020472 0.000701 -0.023940
v -0.015661 0.000701 -0.023929
v -0.020472 0.000701 -0.023940
v -0.015661 0.000701 -0.023929
v -0.020551 0.000704 -0.024585
v -0.015578 0.000704 -0.024573
v -0.016308 0.000701 -0.022814
v -0.019830 0.000701 -0.022822
v -0.016827 0.000704 -0.022423
v -0.019313 0.000704 -0.022429
v -0.016308 0.000701 -0.022814
v -0.015914 0.000704 -0.023331
v -0.019830 0.000701 -0.022822
v -0.020221 0.000704 -0.023341
v -0.016827 0.000704 -0.022423
v -0.019313 0.000704 -0.022429
v -0.017426 0.000701 -0.022172
v -0.018715 0.000701 -0.022175
v -0.016235 0.000219 -0.026400
v -0.015829 0.000027 -0.025863
v -0.015829 0.000209 -0.025863
v -0.015909 0.000429 -0.025817
v -0.015570 0.000219 -0.025241
v -0.016300 0.000432 -0.026336
v -0.015829 0.000027 -0.025863
v -0.016817 0.000429 -0.026730
v -0.015658 0.000432 -0.025218
v -0.016771 0.000209 -0.026809
v -0.015578 0.000429 -0.024573
v -0.017391 0.000219 -0.027071
v -0.016771 0.000027 -0.026809
v -0.015487 0.000209 -0.024573
v -0.017415 0.000432 -0.026983
v -0.016771 0.000027 -0.026809
v -0.015487 0.000027 -0.024573
v -0.015573 0.000219 -0.023905
v -0.018059 0.000429 -0.027066
v -0.015487 0.000027 -0.024573
v -0.015661 0.000432 -0.023929
v -0.018059 0.000209 -0.027157
v -0.015914 0.000429 -0.023331
v -0.018727 0.000219 -0.027074
v -0.018059 0.000027 -0.027157
v -0.015835 0.000209 -0.023285
v -0.018704 0.000432 -0.026986
v -0.018059 0.000027 -0.027157
v -0.015835 0.000027 -0.023285
v -0.016244 0.000219 -0.022749
v -0.019303 0.000429 -0.026735
v -0.015835 0.000027 -0.023285
v -0.016308 0.000432 -0.022814
v -0.019349 0.000209 -0.026815
v -0.016827 0.000429 -0.022423
v -0.019886 0.000219 -0.026409
v -0.019349 0.000027 -0.026815
v -0.016781 0.000209 -0.022344
v -0.019822 0.000432 -0.026344
v -0.019349 0.000027 -0.026815
v -0.016781 0.000027 -0.022344
v -0.017403 0.000219 -0.022084
v -0.020215 0.000429 -0.025827
v -0.016781 0.000027 -0.022344
v -0.017426 0.000432 -0.022172
v -0.020294 0.000209 -0.025873
v -0.018071 0.000429 -0.022093
v -0.020557 0.000219 -0.025253
v -0.020294 0.000027 -0.025873
v -0.018071 0.000209 -0.022001
v -0.020469 0.000432 -0.025229
v -0.020294 0.000027 -0.025873
v -0.018071 0.000027 -0.022001
v -0.018739 0.000219 -0.022087
v -0.020551 0.000429 -0.024585
v -0.018071 0.000027 -0.022001
v -0.018715 0.000432 -0.022175
v -0.020643 0.000209 -0.024585
v -0.019313 0.000429 -0.022429
v -0.020560 0.000219 -0.023917
v -0.020643 0.000027 -0.024585
v -0.019359 0.000209 -0.022350
v -0.020472 0.000432 -0.023940
v -0.020643 0.000027 -0.024585
v -0.019359 0.000027 -0.022350
v -0.019895 0.000219 -0.022758
v -0.020221 0.000429 -0.023341
v -0.019359 0.000027 -0.022350
v -0.019830 0.000432 -0.022822
v -0.020300 0.000209 -0.023295
v -0.020300 0.000027 -0.023295
v -0.020300 0.000027 -0.023295
v -0.015829 0.000027 -0.025863
v -0.015592 0.000027 -0.025999
v -0.015570 0.000219 -0.025241
v -0.015304 0.000219 -0.025312
v -0.016041 0.000219 -0.026594
v -0.015592 0.000027 -0.025999
v -0.016235 0.000219 -0.026400
v -0.015829 0.000027 -0.025863
v -0.016771 0.000027 -0.026809
v -0.016633 0.000027 -0.027046
v -0.016235 0.000219 -0.026400
v -0.016041 0.000219 -0.026594
v -0.017319 0.000219 -0.027336
v -0.016633 0.000027 -0.027046
v -0.017391 0.000219 -0.027071
v -0.016771 0.000027 -0.026809
v -0.018059 0.000027 -0.027157
v -0.018058 0.000027 -0.027431
v -0.017391 0.000219 -0.027071
v -0.017319 0.000219 -0.027336
v -0.018798 0.000219 -0.027340
v -0.018058 0.000027 -0.027431
v -0.018727 0.000219 -0.027074
v -0.018059 0.000027 -0.027157
v -0.019349 0.000027 -0.026815
v -0.019485 0.000027 -0.027052
v -0.018727 0.000219 -0.027074
v -0.018798 0.000219 -0.027340
v -0.020080 0.000219 -0.026603
v -0.019485 0.000027 -0.027052
v -0.019886 0.000219 -0.026409
v -0.019349 0.000027 -0.026815
v -0.020294 0.000027 -0.025873
v -0.020531 0.000027 -0.026011
v -0.019886 0.000219 -0.026409
v -0.020080 0.000219 -0.026603
v -0.020822 0.000219 -0.025325
v -0.020531 0.000027 -0.026011
v -0.020557 0.000219 -0.025253
v -0.020294 0.000027 -0.025873
v -0.020643 0.000027 -0.024585
v -0.020917 0.000027 -0.024586
v -0.020557 0.000219 -0.025253
v -0.020822 0.000219 -0.025325
v -0.020826 0.000219 -0.023846
v -0.020917 0.000027 -0.024586
v -0.020560 0.000219 -0.023917
v -0.020643 0.000027 -0.024585
v -0.020300 0.000027 -0.023295
v -0.020538 0.000027 -0.023159
v -0.020560 0.000219 -0.023917
v -0.020826 0.000219 -0.023846
v -0.020089 0.000219 -0.022564
v -0.020538 0.000027 -0.023159
v -0.019895 0.000219 -0.022758
v -0.020300 0.000027 -0.023295
v -0.019359 0.000027 -0.022350
v -0.019497 0.000027 -0.022113
v -0.019895 0.000219 -0.022758
v -0.020089 0.000219 -0.022564
v -0.018811 0.000219 -0.021822
v -0.019497 0.000027 -0.022113
v -0.018739 0.000219 -0.022087
v -0.019359 0.000027 -0.022350
v -0.018071 0.000027 -0.022001
v -0.018072 0.000027 -0.021727
v -0.018739 0.000219 -0.022087
v -0.018811 0.000219 -0.021822
v -0.017332 0.000219 -0.021818
v -0.018072 0.000027 -0.021727
v -0.017403 0.000219 -0.022084
v -0.018071 0.000027 -0.022001
v -0.016781 0.000027 -0.022344
v -0.016645 0.000027 -0.022106
v -0.017403 0.000219 -0.022084
v -0.017332 0.000219 -0.021818
v -0.016050 0.000219 -0.022555
v -0.016645 0.000027 -0.022106
v -0.016244 0.000219 -0.022749
v -0.016781 0.000027 -0.022344
v -0.015835 0.000027 -0.023285
v -0.015598 0.000027 -0.023147
v -0.016244 0.000219 -0.022749
v -0.016050 0.000219 -0.022555
v -0.015308 0.000219 -0.023833
v -0.015598 0.000027 -0.023147
v -0.015573 0.000219 -0.023905
v -0.015835 0.000027 -0.023285
v -0.015487 0.000027 -0.024573
v -0.015213 0.000027 -0.024572
v -0.015573 0.000219 -0.023905
v -0.015308 0.000219 -0.023833
v -0.015304 0.000219 -0.025312
v -0.015213 0.000027 -0.024572
v -0.015570 0.000219 -0.025241
v -0.015487 0.000027 -0.024573
v -0.019303 0.000429 -0.026735
v -0.018704 0.000432 -0.026986
v -0.016817 0.000429 -0.026730
v -0.017415 0.000432 -0.026983
v -0.019822 0.000432 -0.026344
v -0.019303 0.000429 -0.026735
v -0.016300 0.000432 -0.026336
v -0.016817 0.000429 -0.026730
v -0.020551 0.000429 -0.024585
v -0.020469 0.000432 -0.025229
v -0.015578 0.000429 -0.024573
v -0.015658 0.000432 -0.025218
v -0.020215 0.000429 -0.025827
v -0.019822 0.000432 -0.026344
v -0.015909 0.000429 -0.025817
v -0.016300 0.000432 -0.026336
v -0.020469 0.000432 -0.025229
v -0.020215 0.000429 -0.025827
v -0.015658 0.000432 -0.025218
v -0.015909 0.000429 -0.025817
v -0.020221 0.000429 -0.023341
v -0.020472 0.000432 -0.023940
v -0.015914 0.000429 -0.023331
v -0.015661 0.000432 -0.023929
v -0.020472 0.000432 -0.023940
v -0.020551 0.000429 -0.024585
v -0.015661 0.000432 -0.023929
v -0.015578 0.000429 -0.024573
v -0.016308 0.000432 -0.022814
v -0.016827 0.000429 -0.022423
v -0.019830 0.000432 -0.022822
v -0.019313 0.000429 -0.022429
v -0.016308 0.000432 -0.022814
v -0.019830 0.000432 -0.022822
v -0.015914 0.000429 -0.023331
v -0.020221 0.000429 -0.023341
v -0.016827 0.000429 -0.022423
v -0.017426 0.000432 -0.022172
v -0.019313 0.000429 -0.022429
v -0.018715 0.000432 -0.022175
vn -0.0001 0.9994 0.0339
vn 0.0001 0.9994 -0.0339
vn -0.0001 -0.9994 0.0339
vn 0.0001 -0.9994 -0.0339
vn -0.6946 0.1986 0.6914
vn -0.8500 0.1982 0.4881
vn -0.7982 -0.0000 0.6024
vn -0.7992 0.3883 0.4589
vn -0.6529 0.3891 0.6499
vn -0.9473 0.1986 0.2515
vn -0.4626 0.3882 0.7970
vn -0.9226 -0.0000 0.3857
vn -0.8904 0.3891 0.2364
vn -0.4921 0.1982 0.8477
vn -0.9215 0.3883 -0.0021
vn -0.2559 0.1986 0.9461
vn -0.6061 -0.0000 0.7954
vn -0.9802 0.1982 -0.0023
vn -0.3900 -0.0000 0.9208
vn -0.2405 0.3891 0.8892
vn -0.9925 -0.0000 0.1226
vn -0.9461 0.1986 -0.2559
vn -0.0021 0.3883 0.9215
vn -0.9919 -0.0000 -0.1272
vn -0.8893 0.3891 -0.2405
vn -0.0023 0.1982 0.9802
vn -0.7970 0.3883 -0.4626
vn 0.2515 0.1986 0.9473
vn -0.1272 -0.0000 0.9919
vn -0.8477 0.1982 -0.4921
vn 0.1226 -0.0000 0.9925
vn 0.2364 0.3891 0.8904
vn -0.9208 -0.0000 -0.3900
vn -0.6914 0.1986 -0.6946
vn 0.4589 0.3883 0.7992
vn -0.7954 -0.0000 -0.6061
vn -0.6499 0.3891 -0.6529
vn 0.4881 0.1982 0.8500
vn -0.4589 0.3882 -0.7992
vn 0.6914 0.1986 0.6946
vn 0.3858 -0.0000 0.9226
vn -0.4881 0.1982 -0.8500
vn 0.6024 -0.0000 0.7982
vn 0.6499 0.3891 0.6529
vn -0.6024 -0.0000 -0.7982
vn -0.2515 0.1986 -0.9473
vn 0.7970 0.3883 0.4626
vn -0.3858 -0.0000 -0.9226
vn -0.2364 0.3891 -0.8904
vn 0.8477 0.1982 0.4921
vn 0.0021 0.3882 -0.9216
vn 0.9461 0.1986 0.2559
vn 0.7954 -0.0000 0.6061
vn 0.0023 0.1982 -0.9802
vn 0.9208 -0.0000 0.3900
vn 0.8893 0.3891 0.2405
vn -0.1226 -0.0000 -0.9925
vn 0.2559 0.1986 -0.9461
vn 0.9215 0.3883 0.0021
vn 0.1272 -0.0000 -0.9919
vn 0.2405 0.3891 -0.8893
vn 0.9802 0.1982 0.0023
vn 0.4626 0.3883 -0.7970
vn 0.9473 0.1986 -0.2515
vn 0.9919 0.0001 0.1272
vn 0.4921 0.1982 -0.8477
vn 0.9925 -0.0000 -0.1226
vn 0.8903 0.3891 -0.2363
vn 0.3900 -0.0000 -0.9208
vn 0.6946 0.1986 -0.6914
vn 0.7992 0.3882 -0.4589
vn 0.6061 -0.0000 -0.7954
vn 0.6529 0.3891 -0.6499
vn 0.8500 0.1982 -0.4881
vn 0.9226 -0.0000 -0.3858
vn 0.7982 -0.0000 -0.6024
vn 0.0995 0.9651 0.2421
vn 0.0996 0.9651 0.2421
vn 0.0996 0.9651 0.2420
vn 0.9665 -0.0000 -0.2566
vn 0.8672 -0.0000 -0.4980
vn 0.7088 -0.0000 -0.7055
vn 1.0000 -0.0000 0.0023
vn 0.7087 -0.0000 -0.7055
vn 0.5020 -0.0000 -0.8649
vn 0.9653 -0.0000 0.2611
vn 0.2611 -0.0000 -0.9653
vn 0.8649 -0.0000 0.5020
vn 0.7055 -0.0000 0.7087
vn 0.0023 -0.0000 -1.0000
vn -0.2566 -0.0000 -0.9665
vn -0.4980 -0.0000 -0.8672
vn -0.7054 -0.0000 -0.7088
vn -0.1589 0.9651 -0.2080
vn 0.2072 0.9651 0.1598
vn 0.2073 0.9651 0.1598
vn 0.2072 0.9651 0.1599
vn -0.2416 0.9651 -0.1007
vn 0.2594 0.9651 0.0348
vn -0.2596 0.9651 0.0336
vn 0.2421 0.9651 -0.0996
vn 0.2421 0.9651 -0.0995
vn 0.2420 0.9651 -0.0996
vn -0.2080 0.9651 0.1589
vn 0.1598 0.9651 -0.2072
vn 0.1598 0.9651 -0.2073
vn 0.1599 0.9651 -0.2072
vn -0.7055 -0.0000 -0.7087
vn -0.8649 -0.0000 -0.5020
vn -0.9653 -0.0000 -0.2611
vn -1.0000 -0.0000 -0.0023
vn -0.9665 -0.0000 0.2566
vn -0.8672 -0.0000 0.4980
vn -0.7088 -0.0000 0.7055
vn -0.7087 -0.0000 0.7055
vn -0.5020 -0.0000 0.8649
vn -0.2611 -0.0000 0.9653
vn -0.0023 -0.0000 1.0000
vn 0.2566 -0.0000 0.9665
vn 0.4980 -0.0000 0.8672
vn 0.7054 -0.0000 0.7088
vn -0.1007 0.9651 0.2416
vn 0.0348 0.9651 -0.2594
vn 0.0336 0.9651 0.2596
vn -0.0996 0.9651 -0.2421
vn -0.0996 0.9651 -0.2420
vn -0.0995 0.9651 -0.2421
vn 0.1589 0.9651 0.2080
vn -0.2072 0.9651 -0.1598
vn -0.2073 0.9651 -0.1598
vn -0.2072 0.9651 -0.1599
vn 0.2416 0.9651 0.1007
vn -0.2594 0.9651 -0.0348
vn 0.2596 0.9651 -0.0336
vn -0.2421 0.9651 0.0996
vn -0.2420 0.9651 0.0996
vn 0.2080 0.9651 -0.1589
vn -0.1598 0.9651 0.2072
vn -0.1598 0.9651 0.2073
vn -0.1599 0.9651 0.2072
vn 0.1007 0.9651 -0.2416
vn -0.0348 0.9651 0.2594
vn -0.0336 0.9651 -0.2596
vn -0.0000 0.9999 -0.0109
vn -0.0000 1.0000 0.0070
vn -0.0000 1.0000 -0.0043
vn -0.0000 1.0000 -0.0053
vn -0.0000 1.0000 0.0046
vn -0.0000 1.0000 -0.0046
vn -0.0000 1.0000 0.0043
vn -0.0000 1.0000 -0.0070
vn -0.0000 1.0000 0.0053
vn -0.0000 0.9999 0.0109
vn -0.6946 -0.1986 0.6914
vn -0.8500 -0.1982 0.4881
vn -0.7992 -0.3883 0.4589
vn -0.9473 -0.1986 0.2515
vn -0.6529 -0.3891 0.6499
vn -0.4626 -0.3883 0.7970
vn -0.8904 -0.3891 0.2364
vn -0.4921 -0.1982 0.8477
vn -0.9215 -0.3883 -0.0021
vn -0.2559 -0.1986 0.9461
vn -0.9802 -0.1982 -0.0023
vn -0.2405 -0.3891 0.8892
vn -0.9461 -0.1986 -0.2559
vn -0.0021 -0.3883 0.9215
vn -0.8893 -0.3891 -0.2405
vn -0.0023 -0.1982 0.9802
vn -0.7970 -0.3883 -0.4626
vn 0.2515 -0.1986 0.9473
vn -0.8477 -0.1982 -0.4921
vn 0.2363 -0.3891 0.8903
vn -0.6914 -0.1986 -0.6946
vn 0.4589 -0.3883 0.7992
vn -0.6499 -0.3891 -0.6529
vn 0.4881 -0.1982 0.8500
vn -0.4589 -0.3883 -0.7992
vn 0.6914 -0.1986 0.6946
vn -0.4881 -0.1982 -0.8500
vn 0.6499 -0.3891 0.6529
vn -0.2515 -0.1986 -0.9473
vn 0.7970 -0.3883 0.4626
vn -0.3857 -0.0000 -0.9226
vn -0.2364 -0.3891 -0.8904
vn 0.8477 -0.1982 0.4921
vn 0.0021 -0.3882 -0.9216
vn 0.9461 -0.1986 0.2559
vn 0.0023 -0.1982 -0.9802
vn 0.8893 -0.3891 0.2405
vn 0.2559 -0.1986 -0.9461
vn 0.9215 -0.3883 0.0021
vn 0.2405 -0.3891 -0.8893
vn 0.9802 -0.1982 0.0023
vn 0.4626 -0.3883 -0.7970
vn 0.9473 -0.1986 -0.2515
vn 0.9919 -0.0001 0.1272
vn 0.4921 -0.1982 -0.8477
vn 0.8904 -0.3891 -0.2364
vn 0.6946 -0.1986 -0.6914
vn 0.7992 -0.3883 -0.4589
vn 0.6529 -0.3891 -0.6499
vn 0.8500 -0.1982 -0.4881
vn 0.0996 -0.9651 0.2421
vn 0.0996 -0.9651 0.2420
vn 0.0995 -0.9651 0.2421
vn -0.1589 -0.9651 -0.2080
vn 0.2073 -0.9651 0.1598
vn 0.2072 -0.9651 0.1599
vn 0.2072 -0.9651 0.1598
vn -0.2416 -0.9651 -0.1007
vn 0.2594 -0.9651 0.0348
vn -0.2596 -0.9651 0.0336
vn 0.2421 -0.9651 -0.0996
vn 0.2421 -0.9651 -0.0995
vn 0.2420 -0.9651 -0.0995
vn -0.2080 -0.9651 0.1589
vn 0.1598 -0.9651 -0.2073
vn 0.1599 -0.9651 -0.2072
vn 0.1598 -0.9651 -0.2072
vn -0.1007 -0.9651 0.2416
vn 0.0348 -0.9651 -0.2594
vn 0.0336 -0.9651 0.2596
vn -0.0996 -0.9651 -0.2420
vn -0.0995 -0.9651 -0.2420
vn 0.1589 -0.9651 0.2080
vn -0.2073 -0.9651 -0.1598
vn -0.2072 -0.9651 -0.1599
vn -0.2072 -0.9651 -0.1598
vn 0.2416 -0.9651 0.1007
vn -0.2594 -0.9651 -0.0348
vn 0.2596 -0.9651 -0.0336
vn -0.2420 -0.9651 0.0996
vn -0.2421 -0.9651 0.0996
vn 0.2080 -0.9651 -0.1589
vn -0.1598 -0.9651 0.2073
vn -0.1598 -0.9651 0.2072
vn 0.1007 -0.9651 -0.2416
vn -0.0348 -0.9651 0.2594
vn -0.0336 -0.9651 -0.2596
vn -0.0000 -0.9999 -0.0109
vn -0.0000 -1.0000 0.0070
vn -0.0000 -1.0000 -0.0043
vn -0.0000 -1.0000 -0.0053
vn -0.0000 -1.0000 0.0046
vn -0.0000 -1.0000 -0.0046
vn -0.0000 -1.0000 0.0043
vn -0.0000 -1.0000 -0.0070
vn -0.0000 -1.0000 0.0053
vn -0.0000 -0.9999 0.0109
vt 0.484453 0.948448
vt 0.553862 0.937173
vt 0.519855 0.947088
vt 0.512273 0.677871
vt 0.442825 0.688874
vt 0.476870 0.679094
vt 0.154576 0.972176
vt 0.196126 0.970580
vt 0.236038 0.958943
vt 0.187228 0.654611
vt 0.145676 0.656045
vt 0.105718 0.667524
vt 0.619038 0.900466
vt 0.637087 0.866079
vt 0.646863 0.869805
vt 0.624919 0.861441
vt 0.608356 0.892750
vt 0.646495 0.828395
vt 0.583846 0.918319
vt 0.633384 0.827046
vt 0.592071 0.928409
vt 0.632097 0.791646
vt 0.559267 0.949189
vt 0.598679 0.936515
vt 0.644956 0.789584
vt 0.655288 0.787928
vt 0.634281 0.752235
vt 0.622250 0.757618
vt 0.521951 0.959944
vt 0.603454 0.727595
vt 0.483148 0.961605
vt 0.523635 0.970269
vt 0.613559 0.719389
vt 0.621678 0.712796
vt 0.585671 0.692363
vt 0.450022 0.940020
vt 0.577934 0.703031
vt 0.445253 0.952310
vt 0.546653 0.686412
vt 0.410053 0.933747
vt 0.441475 0.962226
vt 0.551313 0.674254
vt 0.417854 0.922923
vt 0.555056 0.664486
vt 0.513649 0.664762
vt 0.392405 0.898267
vt 0.382234 0.906450
vt 0.361668 0.873490
vt 0.374060 0.913013
vt 0.474831 0.666231
vt 0.373726 0.868163
vt 0.473192 0.655897
vt 0.437468 0.676834
vt 0.364015 0.834097
vt 0.351150 0.836108
vt 0.412764 0.707611
vt 0.349763 0.797295
vt 0.340815 0.837723
vt 0.404575 0.697486
vt 0.362866 0.798694
vt 0.397997 0.689351
vt 0.377497 0.725328
vt 0.371466 0.764331
vt 0.388151 0.733086
vt 0.359314 0.759649
vt 0.349551 0.755887
vt 0.969953 0.894182
vt 0.939917 0.924217
vt 0.956286 0.886291
vt 0.929138 0.913439
vt 0.390428 0.589677
vt 0.443999 0.589677
vt 0.443999 0.602832
vt 0.390492 0.538895
vt 0.497886 0.589677
vt 0.336538 0.538895
vt 0.443999 0.538895
vt 0.336538 0.589677
vt 0.497932 0.538895
vt 0.443999 0.524053
vt 0.336538 0.602832
vt 0.336538 0.524053
vt 0.551678 0.589677
vt 0.283019 0.589677
vt 0.283088 0.538895
vt 0.551678 0.602832
vt 0.551678 0.538895
vt 0.605381 0.589677
vt 0.229070 0.538895
vt 0.551678 0.524053
vt 0.229070 0.589677
vt 0.229070 0.524053
vt 0.605413 0.538895
vt 0.229070 0.602832
vt 0.175687 0.538895
vt 0.659175 0.589677
vt 0.175615 0.589677
vt 0.659175 0.602832
vt 0.659175 0.538895
vt 0.712904 0.589677
vt 0.659175 0.524053
vt 0.712928 0.538895
vt 0.766700 0.589677
vt 0.766700 0.602832
vt 0.766700 0.538895
vt 0.820438 0.589677
vt 0.766700 0.524053
vt 0.820460 0.538895
vt 0.909882 0.954253
vt 0.901991 0.940586
vt 0.868852 0.965247
vt 0.864907 0.950523
vt 0.827823 0.976240
vt 0.827823 0.960459
vt 0.786794 0.965247
vt 0.790739 0.950523
vt 0.745765 0.954253
vt 0.753655 0.940586
vt 0.715729 0.924218
vt 0.726508 0.913439
vt 0.685694 0.894182
vt 0.699361 0.886291
vt 0.674700 0.853153
vt 0.689424 0.849208
vt 0.175341 0.589677
vt 0.175379 0.538895
vt 0.282817 0.589677
vt 0.282855 0.538895
vt 0.390280 0.589677
vt 0.390318 0.538895
vt 0.497739 0.589677
vt 0.497776 0.538895
vt 0.605204 0.589677
vt 0.605239 0.538895
vt 0.712673 0.589677
vt 0.712707 0.538895
vt 0.820144 0.589677
vt 0.820178 0.538895
vt 0.663707 0.812124
vt 0.679488 0.812124
vt 0.674700 0.771095
vt 0.689424 0.775040
vt 0.685694 0.730065
vt 0.699361 0.737956
vt 0.715729 0.700030
vt 0.726508 0.710809
vt 0.745765 0.669995
vt 0.753655 0.683661
vt 0.786794 0.659001
vt 0.790739 0.673725
vt 0.827823 0.648007
vt 0.827823 0.663788
vt 0.868852 0.659001
vt 0.864907 0.673725
vt 0.909882 0.669995
vt 0.901991 0.683661
vt 0.939917 0.700030
vt 0.929138 0.710809
vt 0.969953 0.730066
vt 0.956286 0.737956
vt 0.980946 0.771095
vt 0.966222 0.775040
vt 0.991940 0.812124
vt 0.976159 0.812124
vt 0.980946 0.853153
vt 0.966222 0.849208
vt 0.114166 0.962285
vt 0.271229 0.936815
vt 0.076412 0.942219
vt 0.299995 0.906806
vt 0.013222 0.837967
vt 0.024619 0.877949
vt 0.327859 0.788143
vt 0.329370 0.829691
vt 0.046542 0.913280
vt 0.319435 0.870060
vt 0.021967 0.756085
vt 0.011874 0.796416
vt 0.294242 0.712970
vt 0.316302 0.748206
vt 0.264291 0.684140
vt 0.227577 0.664635
vt 0.041550 0.719414
vt 0.070437 0.689515
s 1
g CheckersRed_GUI_Map_Checkers2_GUI_Map_Checkers2
usemtl GUI_Map_Checkers2
f 1/1/1 2/2/1 3/3/1
f 4/4/2 5/5/2 6/6/2
f 7/7/3 8/8/3 9/9/3
f 10/10/4 11/11/4 12/12/4
f 13/13/5 14/14/6 15/15/7
f 13/13/5 16/16/8 14/14/6
f 17/17/9 16/16/8 13/13/5
f 14/14/6 16/16/8 18/18/10
f 13/13/5 19/19/11 17/17/9
f 20/15/12 14/14/6 18/18/10
f 18/18/10 16/16/8 21/20/13
f 22/21/14 19/19/11 13/13/5
f 21/20/13 23/22/15 18/18/10
f 24/23/16 19/19/11 22/21/14
f 25/24/17 22/21/14 13/13/5
f 18/18/10 23/22/15 26/25/18
f 24/23/16 22/21/14 27/24/19
f 28/2/20 19/19/11 24/23/16
f 18/18/10 26/25/18 29/26/21
f 26/25/18 23/22/15 30/27/22
f 24/23/16 31/3/23 28/2/20
f 32/26/24 26/25/18 30/27/22
f 30/27/22 23/22/15 33/28/25
f 34/29/26 31/3/23 24/23/16
f 33/28/25 35/30/27 30/27/22
f 36/31/28 31/3/23 34/29/26
f 37/32/29 34/29/26 24/23/16
f 30/27/22 35/30/27 38/33/30
f 36/31/28 34/29/26 39/32/31
f 40/1/32 31/3/23 36/31/28
f 30/27/22 38/33/30 41/34/33
f 38/33/30 35/30/27 42/35/34
f 36/31/28 43/36/35 40/1/32
f 44/34/36 38/33/30 42/35/34
f 42/35/34 35/30/27 45/37/37
f 46/38/38 43/36/35 36/31/28
f 45/37/37 47/39/39 42/35/34
f 48/40/40 43/36/35 46/38/38
f 49/41/41 46/38/38 36/31/28
f 42/35/34 47/39/39 50/42/42
f 48/40/40 46/38/38 51/41/43
f 52/43/44 43/36/35 48/40/40
f 42/35/34 50/42/42 53/44/45
f 50/42/42 47/39/39 54/45/46
f 48/40/40 55/46/47 52/43/44
f 56/44/48 50/42/42 54/45/46
f 54/45/46 47/39/39 57/4/49
f 58/47/50 55/46/47 48/40/40
f 57/4/49 59/6/51 54/45/46
f 60/48/52 55/46/47 58/47/50
f 61/49/53 58/47/50 48/40/40
f 54/45/46 59/6/51 62/50/54
f 60/48/52 58/47/50 63/49/55
f 64/51/56 55/46/47 60/48/52
f 54/45/46 62/50/54 65/52/57
f 62/50/54 59/6/51 66/53/58
f 60/48/52 67/54/59 64/51/56
f 68/52/60 62/50/54 66/53/58
f 66/53/58 59/6/51 69/5/61
f 70/55/62 67/54/59 60/48/52
f 69/5/61 71/56/63 66/53/58
f 72/57/64 67/54/59 70/55/62
f 73/58/65 70/55/62 60/48/52
f 66/53/58 71/56/63 74/59/66
f 72/57/64 70/55/62 75/58/67
f 76/60/68 67/54/59 72/57/64
f 66/53/58 74/59/66 77/61/69
f 74/59/66 71/56/63 78/62/70
f 72/57/64 79/63/71 76/60/68
f 80/61/72 74/59/66 78/62/70
f 78/62/70 71/56/63 81/64/73
f 81/64/73 79/63/71 78/62/70
f 82/65/74 79/63/71 72/57/64
f 78/62/70 79/63/71 82/65/74
f 83/66/75 82/65/74 72/57/64
f 78/62/70 82/65/74 84/66/76
f 85/67/77 86/68/78 87/69/78
f 87/69/78 86/68/78 88/70/79
f 89/71/80 90/72/81 91/73/81
f 89/71/80 92/74/80 90/72/81
f 91/73/81 90/72/81 93/75/82
f 89/71/80 94/76/83 92/74/80
f 90/72/81 95/77/81 93/75/82
f 90/72/81 92/74/80 95/77/81
f 96/78/83 94/76/83 89/71/80
f 93/75/82 95/77/81 97/79/84
f 92/74/80 98/80/81 95/77/81
f 98/80/81 97/79/84 95/77/81
f 99/81/83 96/78/83 89/71/80
f 100/82/83 92/74/80 94/76/83
f 93/75/82 97/79/84 101/83/85
f 102/84/86 96/78/83 99/81/83
f 103/85/86 100/82/83 94/76/83
f 93/75/82 101/83/85 104/86/85
f 102/84/86 103/85/86 96/78/83
f 101/83/85 97/79/84 105/87/85
f 96/78/83 103/85/86 94/76/83
f 104/86/85 101/83/85 106/88/87
f 102/84/86 107/89/88 103/85/86
f 101/83/85 105/87/85 106/88/87
f 97/79/84 108/90/85 105/87/85
f 109/91/88 107/89/88 102/84/86
f 110/92/88 103/85/86 107/89/88
f 106/88/87 105/87/85 111/93/87
f 108/90/85 111/93/87 105/87/85
f 112/94/88 109/91/88 102/84/86
f 113/95/89 110/92/88 107/89/88
f 106/88/87 111/93/87 114/96/90
f 115/97/89 109/91/88 112/94/88
f 115/97/89 113/95/89 109/91/88
f 109/91/88 113/95/89 107/89/88
f 106/88/87 114/96/90 116/98/90
f 114/96/90 111/93/87 117/99/90
f 116/98/90 114/96/90 118/100/91
f 114/96/90 117/99/90 118/100/91
f 111/93/87 119/101/90 117/99/90
f 118/100/91 117/99/90 120/102/91
f 119/101/90 120/102/91 117/99/90
f 118/100/91 120/102/91 121/103/92
f 118/100/91 121/103/92 122/104/92
f 121/103/92 120/102/91 123/105/92
f 122/104/92 121/103/92 124/106/93
f 121/103/92 123/105/92 124/106/93
f 120/102/91 125/107/92 123/105/92
f 124/106/93 123/105/92 126/108/93
f 125/107/92 126/108/93 123/105/92
f 127/109/94 128/110/94 129/68/94
f 129/68/94 128/110/94 130/70/94
f 131/109/95 132/111/96 133/110/97
f 133/110/97 132/111/96 134/112/96
f 135/113/98 136/114/98 137/111/98
f 137/111/98 136/114/98 138/112/98
f 139/113/99 140/115/99 141/114/99
f 141/114/99 140/115/99 142/116/99
f 143/117/100 144/118/100 145/115/100
f 145/115/100 144/118/100 146/116/100
f 147/117/101 148/119/101 149/118/102
f 149/118/102 148/119/101 150/120/103
f 151/121/104 152/122/104 153/119/104
f 153/119/104 152/122/104 154/120/104
f 155/121/105 156/123/106 157/122/107
f 157/122/107 156/123/106 158/124/106
f 159/125/108 160/91/109 161/94/109
f 159/125/108 162/126/108 160/91/109
f 161/94/109 160/91/109 163/127/110
f 160/91/109 162/126/108 164/89/109
f 160/91/109 164/89/109 163/127/110
f 162/126/108 165/92/109 164/89/109
f 163/127/110 164/89/109 166/128/110
f 165/92/109 166/128/110 164/89/109
f 163/127/110 166/128/110 167/78/111
f 163/127/110 167/78/111 168/81/111
f 167/78/111 166/128/110 169/76/111
f 168/81/111 167/78/111 170/129/112
f 167/78/111 169/76/111 170/129/112
f 166/128/110 171/82/111 169/76/111
f 170/129/112 169/76/111 172/130/112
f 171/82/111 172/130/112 169/76/111
f 170/129/112 172/130/112 173/72/113
f 170/129/112 173/72/113 174/73/113
f 173/72/113 172/130/112 175/77/113
f 174/73/113 173/72/113 176/131/114
f 173/72/113 175/77/113 176/131/114
f 172/130/112 177/80/113 175/77/113
f 176/131/114 175/77/113 178/132/115
f 177/80/113 178/132/115 175/77/113
f 176/131/114 178/132/115 179/83/116
f 176/131/114 179/83/116 180/86/116
f 179/83/116 178/132/115 181/87/116
f 180/86/116 179/83/116 182/133/117
f 179/83/116 181/87/116 182/133/117
f 178/132/115 183/90/116 181/87/116
f 182/133/117 181/87/116 184/134/117
f 183/90/116 184/134/117 181/87/116
f 182/133/117 184/134/117 185/96/118
f 182/133/117 185/96/118 186/98/118
f 185/96/118 184/134/117 187/99/118
f 186/98/118 185/96/118 188/135/119
f 185/96/118 187/99/118 188/135/119
f 184/134/117 189/101/118 187/99/118
f 188/135/119 187/99/118 190/136/119
f 189/101/118 190/136/119 187/99/118
f 188/135/119 190/136/119 191/103/120
f 188/135/119 191/103/120 192/104/120
f 191/103/120 190/136/119 193/105/120
f 192/104/120 191/103/120 194/137/121
f 191/103/120 193/105/120 194/137/121
f 190/136/119 195/107/120 193/105/120
f 194/137/121 193/105/120 196/138/121
f 195/107/120 196/138/121 193/105/120
f 197/139/122 198/140/122 199/123/122
f 199/123/122 198/140/122 200/124/122
f 201/139/123 202/141/123 203/140/123
f 203/140/123 202/141/123 204/142/123
f 205/143/124 206/144/124 207/141/124
f 207/141/124 206/144/124 208/142/124
f 209/143/125 210/145/126 211/144/127
f 211/144/127 210/145/126 212/146/126
f 213/147/128 214/148/128 215/145/128
f 215/145/128 214/148/128 216/146/128
f 217/147/129 218/149/130 219/148/131
f 219/148/131 218/149/130 220/150/130
f 221/151/132 222/152/132 223/149/132
f 223/149/132 222/152/132 224/150/132
f 225/151/133 226/153/133 227/152/133
f 227/152/133 226/153/133 228/154/133
f 229/155/134 230/156/134 231/153/134
f 231/153/134 230/156/134 232/154/134
f 233/155/135 234/157/135 235/156/136
f 235/156/136 234/157/135 236/158/136
f 237/159/137 238/160/137 239/157/137
f 239/157/137 238/160/137 240/158/137
f 241/159/138 242/161/139 243/160/140
f 243/160/140 242/161/139 244/162/139
f 245/163/141 246/164/141 247/161/141
f 247/161/141 246/164/141 248/162/141
f 249/163/142 250/165/142 251/164/142
f 251/164/142 250/165/142 252/166/142
f 253/67/143 254/69/143 255/165/143
f 255/165/143 254/69/143 256/166/143
f 257/36/144 258/19/144 259/1/144
f 259/1/144 258/19/144 260/2/144
f 261/43/145 262/17/145 263/36/145
f 263/36/145 262/17/145 264/19/145
f 265/54/146 266/22/146 267/51/146
f 267/51/146 266/22/146 268/20/146
f 269/46/147 270/16/147 271/43/147
f 271/43/147 270/16/147 272/17/147
f 273/51/148 274/20/148 275/46/148
f 275/46/148 274/20/148 276/16/148
f 277/63/149 278/30/149 279/60/149
f 279/60/149 278/30/149 280/28/149
f 281/60/150 282/28/150 283/54/150
f 283/54/150 282/28/150 284/22/150
f 285/37/151 286/64/151 287/39/151
f 287/39/151 286/64/151 288/56/151
f 289/37/152 290/30/152 291/64/152
f 291/64/152 290/30/152 292/63/152
f 293/39/153 294/56/153 295/4/153
f 295/4/153 294/56/153 296/5/153
f 297/13/154 298/15/7 299/14/155
f 299/14/155 300/16/156 297/13/154
f 299/14/155 301/18/157 300/16/156
f 297/13/154 300/16/156 302/17/158
f 303/15/12 301/18/157 299/14/155
f 304/19/159 297/13/154 302/17/158
f 300/16/156 301/18/157 305/20/160
f 306/21/161 297/13/154 304/19/159
f 301/18/157 307/22/162 305/20/160
f 306/21/161 304/19/159 308/23/163
f 309/24/17 297/13/154 306/21/161
f 310/25/164 307/22/162 301/18/157
f 308/23/163 304/19/159 311/2/165
f 308/23/163 312/24/19 306/21/161
f 301/18/157 313/26/21 310/25/164
f 310/25/164 314/27/166 307/22/162
f 315/3/167 308/23/163 311/2/165
f 316/26/24 314/27/166 310/25/164
f 307/22/162 314/27/166 317/28/168
f 318/29/169 308/23/163 315/3/167
f 314/27/166 319/30/170 317/28/168
f 318/29/169 315/3/167 320/31/171
f 321/32/29 308/23/163 318/29/169
f 322/33/172 319/30/170 314/27/166
f 320/31/171 315/3/167 323/1/173
f 320/31/171 324/32/31 318/29/169
f 314/27/166 325/34/33 322/33/172
f 322/33/172 326/35/174 319/30/170
f 327/36/175 320/31/171 323/1/173
f 328/34/36 326/35/174 322/33/172
f 319/30/170 326/35/174 329/37/176
f 330/38/177 320/31/171 327/36/175
f 326/35/174 331/39/178 329/37/176
f 330/38/177 327/36/175 332/40/179
f 333/41/41 320/31/171 330/38/177
f 334/42/180 331/39/178 326/35/174
f 332/40/179 327/36/175 335/43/181
f 332/40/179 336/41/43 330/38/177
f 326/35/174 337/44/45 334/42/180
f 334/42/180 338/45/182 331/39/178
f 339/46/183 332/40/179 335/43/181
f 340/44/184 338/45/182 334/42/180
f 331/39/178 338/45/182 341/4/185
f 342/47/186 332/40/179 339/46/183
f 338/45/182 343/6/187 341/4/185
f 342/47/186 339/46/183 344/48/188
f 345/49/53 332/40/179 342/47/186
f 346/50/189 343/6/187 338/45/182
f 344/48/188 339/46/183 347/51/190
f 344/48/188 348/49/55 342/47/186
f 338/45/182 349/52/57 346/50/189
f 346/50/189 350/53/191 343/6/187
f 351/54/192 344/48/188 347/51/190
f 352/52/60 350/53/191 346/50/189
f 343/6/187 350/53/191 353/5/193
f 354/55/194 344/48/188 351/54/192
f 350/53/191 355/56/195 353/5/193
f 354/55/194 351/54/192 356/57/196
f 357/58/197 344/48/188 354/55/194
f 358/59/198 355/56/195 350/53/191
f 356/57/196 351/54/192 359/60/199
f 356/57/196 360/58/67 354/55/194
f 350/53/191 361/61/69 358/59/198
f 358/59/198 362/62/200 355/56/195
f 363/63/201 356/57/196 359/60/199
f 364/61/72 362/62/200 358/59/198
f 355/56/195 362/62/200 365/64/202
f 362/62/200 363/63/201 365/64/202
f 366/65/203 356/57/196 363/63/201
f 366/65/203 363/63/201 362/62/200
f 367/66/75 356/57/196 366/65/203
f 362/62/200 368/66/76 366/65/203
f 369/70/204 370/68/205 371/69/204
f 371/69/204 370/68/205 372/67/206
f 373/109/207 374/68/207 375/110/207
f 375/110/207 374/68/207 376/70/207
f 377/112/208 378/111/208 379/110/209
f 379/110/209 378/111/208 380/109/210
f 381/113/211 382/111/211 383/114/211
f 383/114/211 382/111/211 384/112/211
f 385/116/212 386/115/212 387/114/212
f 387/114/212 386/115/212 388/113/212
f 389/117/213 390/115/213 391/118/213
f 391/118/213 390/115/213 392/116/213
f 393/120/214 394/119/214 395/118/215
f 395/118/215 394/119/214 396/117/216
f 397/121/217 398/119/217 399/122/217
f 399/122/217 398/119/217 400/120/217
f 401/124/218 402/123/218 403/122/219
f 403/122/219 402/123/218 404/121/220
f 405/139/221 406/123/221 407/140/221
f 407/140/221 406/123/221 408/124/221
f 409/142/222 410/141/222 411/140/222
f 411/140/222 410/141/222 412/139/222
f 413/143/223 414/141/223 415/144/223
f 415/144/223 414/141/223 416/142/223
f 417/146/224 418/145/224 419/144/225
f 419/144/225 418/145/224 420/143/224
f 421/147/226 422/145/226 423/148/226
f 423/148/226 422/145/226 424/146/226
f 425/150/227 426/149/227 427/148/228
f 427/148/228 426/149/227 428/147/229
f 429/151/230 430/149/230 431/152/230
f 431/152/230 430/149/230 432/150/230
f 433/154/231 434/153/231 435/152/231
f 435/152/231 434/153/231 436/151/231
f 437/155/232 438/153/232 439/156/232
f 439/156/232 438/153/232 440/154/232
f 441/158/233 442/157/233 443/156/234
f 443/156/234 442/157/233 444/155/233
f 445/159/235 446/157/235 447/160/235
f 447/160/235 446/157/235 448/158/235
f 449/162/236 450/161/236 451/160/236
f 451/160/236 450/161/236 452/159/237
f 453/163/238 454/161/238 455/164/238
f 455/164/238 454/161/238 456/162/238
f 457/166/239 458/165/239 459/164/239
f 459/164/239 458/165/239 460/163/239
f 461/67/240 462/165/240 463/69/240
f 463/69/240 462/165/240 464/166/240
f 465/167/241 466/7/241 467/168/241
f 467/168/241 466/7/241 468/9/241
f 469/169/242 470/167/242 471/170/242
f 471/170/242 470/167/242 472/168/242
f 473/171/243 474/172/243 475/173/243
f 475/173/243 474/172/243 476/174/243
f 477/175/244 478/169/244 479/176/244
f 479/176/244 478/169/244 480/170/244
f 481/172/245 482/175/245 483/174/245
f 483/174/245 482/175/245 484/176/245
f 485/177/246 486/178/246 487/179/246
f 487/179/246 486/178/246 488/180/246
f 489/178/247 490/171/247 491/180/247
f 491/180/247 490/171/247 492/173/247
f 493/181/248 494/182/248 495/183/248
f 495/183/248 494/182/248 496/184/248
f 497/181/249 498/183/249 499/179/249
f 499/179/249 498/183/249 500/177/249
f 501/182/250 502/10/250 503/184/250
f 503/184/250 502/10/250 504/12/250
o CheckersBlack_GUI_Map_Checkers2
v -0.015089 0.001302 -0.027770
v -0.013833 0.001016 -0.027800
v -0.014464 0.001157 -0.027866
v -0.013655 0.001294 -0.023000
v -0.014911 0.001581 -0.022970
v -0.014280 0.001445 -0.022904
v -0.015148 0.001044 -0.027752
v -0.014523 0.000893 -0.027848
v -0.013892 0.000757 -0.027782
v -0.013714 0.001035 -0.022983
v -0.014339 0.001181 -0.022887
v -0.014970 0.001322 -0.022953
v -0.012614 0.000993 -0.027262
v -0.012195 0.000944 -0.026737
v -0.012155 0.001121 -0.026749
v -0.012319 0.000750 -0.026676
v -0.012721 0.000804 -0.027183
v -0.011920 0.000912 -0.026123
v -0.013240 0.000900 -0.027562
v -0.012155 0.001121 -0.026749
v -0.012052 0.000726 -0.026084
v -0.013149 0.001099 -0.027656
v -0.011948 0.000748 -0.025443
v -0.013766 0.001212 -0.027902
v -0.013109 0.001276 -0.027668
v -0.011811 0.000941 -0.025459
v -0.013109 0.001276 -0.027668
v -0.013833 0.001016 -0.027800
v -0.011770 0.001119 -0.025471
v -0.011870 0.000989 -0.024790
v -0.014464 0.001157 -0.027866
v -0.011770 0.001119 -0.025471
v -0.012004 0.000800 -0.024798
v -0.014418 0.001366 -0.027971
v -0.012227 0.000894 -0.024195
v -0.015069 0.001509 -0.027871
v -0.014378 0.001543 -0.027983
v -0.012100 0.001093 -0.024165
v -0.014378 0.001543 -0.027983
v -0.015089 0.001302 -0.027770
v -0.012059 0.001270 -0.024177
v -0.012478 0.001205 -0.023620
v -0.015663 0.001453 -0.027505
v -0.012059 0.001270 -0.024177
v -0.012591 0.001008 -0.023669
v -0.015662 0.001672 -0.027596
v -0.013080 0.001149 -0.023266
v -0.016172 0.001806 -0.027177
v -0.015622 0.001850 -0.027608
v -0.012984 0.001357 -0.023202
v -0.015622 0.001850 -0.027608
v -0.016154 0.001588 -0.027101
v -0.012944 0.001535 -0.023214
v -0.013582 0.001501 -0.022926
v -0.016516 0.001708 -0.026575
v -0.012944 0.001535 -0.023214
v -0.013655 0.001294 -0.023000
v -0.016547 0.001937 -0.026633
v -0.014280 0.001445 -0.022904
v -0.016780 0.002021 -0.026007
v -0.016506 0.002114 -0.026645
v -0.014228 0.001664 -0.022828
v -0.016506 0.002114 -0.026645
v -0.016741 0.001796 -0.025972
v -0.014187 0.001842 -0.022839
v -0.014884 0.001798 -0.022895
v -0.016795 0.001854 -0.025327
v -0.014187 0.001842 -0.022839
v -0.014911 0.001581 -0.022970
v -0.016836 0.002088 -0.025339
v -0.015504 0.001702 -0.023208
v -0.016731 0.002099 -0.024674
v -0.016795 0.002266 -0.025351
v -0.015497 0.001931 -0.023142
v -0.016795 0.002266 -0.025351
v -0.016693 0.001871 -0.024686
v -0.015456 0.002109 -0.023154
v -0.016037 0.002017 -0.023535
v -0.016424 0.001852 -0.024095
v -0.015456 0.002109 -0.023154
v -0.016023 0.001792 -0.023587
v -0.016451 0.002086 -0.024062
v -0.016411 0.002264 -0.024073
v -0.016411 0.002264 -0.024073
v -0.011664 0.000849 -0.026200
v -0.011928 0.001060 -0.026891
v -0.011920 0.000912 -0.026123
v -0.012155 0.001121 -0.026749
v -0.011664 0.000849 -0.026200
v -0.011969 0.000883 -0.026879
v -0.011928 0.001060 -0.026891
v -0.011816 0.000176 -0.026156
v -0.012432 0.000939 -0.027461
v -0.011700 0.000188 -0.025420
v -0.012125 0.000191 -0.026833
v -0.011543 0.000880 -0.025466
v -0.012584 0.000266 -0.027416
v -0.012166 0.000013 -0.026822
v -0.011503 0.001058 -0.025477
v -0.011740 0.000011 -0.025408
v -0.013025 0.001055 -0.027897
v -0.011609 0.000934 -0.024725
v -0.011761 0.000262 -0.024681
v -0.012984 0.001232 -0.027908
v -0.013182 0.000363 -0.027851
v -0.013707 0.001181 -0.028168
v -0.012020 0.000356 -0.023988
v -0.013222 0.000185 -0.027839
v -0.011863 0.001048 -0.024034
v -0.012060 0.000178 -0.023976
v -0.013859 0.000508 -0.028124
v -0.011823 0.001226 -0.024046
v -0.012435 0.000500 -0.023386
v -0.014429 0.001350 -0.028245
v -0.012282 0.001173 -0.023431
v -0.014388 0.001527 -0.028256
v -0.014586 0.000658 -0.028199
v -0.012999 0.000649 -0.022922
v -0.015148 0.001510 -0.028134
v -0.014626 0.000480 -0.028187
v -0.012842 0.001341 -0.022968
v -0.013039 0.000471 -0.022911
v -0.015300 0.000837 -0.028089
v -0.012802 0.001518 -0.022980
v -0.013655 0.000828 -0.022619
v -0.013503 0.001501 -0.022663
v -0.012432 0.000939 -0.027461
v -0.012614 0.000993 -0.027262
v -0.011928 0.001060 -0.026891
v -0.012155 0.001121 -0.026749
v -0.012432 0.000939 -0.027461
v -0.012984 0.001232 -0.027908
v -0.012614 0.000993 -0.027262
v -0.013109 0.001276 -0.027668
v -0.013707 0.001181 -0.028168
v -0.013766 0.001212 -0.027902
v -0.012984 0.001232 -0.027908
v -0.013109 0.001276 -0.027668
v -0.013707 0.001181 -0.028168
v -0.014388 0.001527 -0.028256
v -0.013766 0.001212 -0.027902
v -0.014378 0.001543 -0.027983
v -0.015148 0.001510 -0.028134
v -0.015069 0.001509 -0.027871
v -0.014388 0.001527 -0.028256
v -0.014378 0.001543 -0.027983
v -0.015148 0.001510 -0.028134
v -0.015764 0.001867 -0.027842
v -0.015069 0.001509 -0.027871
v -0.015622 0.001850 -0.027608
v -0.015148 0.001510 -0.028134
v -0.015804 0.001689 -0.027830
v -0.015764 0.001867 -0.027842
v -0.015300 0.000837 -0.028089
v -0.016369 0.001838 -0.027367
v -0.015961 0.000997 -0.027784
v -0.016001 0.000820 -0.027772
v -0.016521 0.001165 -0.027322
v -0.016783 0.001982 -0.026765
v -0.016743 0.002159 -0.026776
v -0.016940 0.001290 -0.026719
v -0.017042 0.002076 -0.026072
v -0.016980 0.001112 -0.026707
v -0.017194 0.001404 -0.026027
v -0.017103 0.002149 -0.025333
v -0.017063 0.002327 -0.025345
v -0.017260 0.001457 -0.025287
v -0.016987 0.002162 -0.024597
v -0.017300 0.001280 -0.025275
v -0.017139 0.001489 -0.024552
v -0.016678 0.002147 -0.023919
v -0.016637 0.002325 -0.023931
v -0.016834 0.001455 -0.023873
v -0.016219 0.002072 -0.023337
v -0.016875 0.001277 -0.023861
v -0.016371 0.001399 -0.023292
v -0.015622 0.001975 -0.022902
v -0.015581 0.002153 -0.022914
v -0.015778 0.001283 -0.022856
v -0.014944 0.001830 -0.022629
v -0.015819 0.001106 -0.022844
v -0.015096 0.001157 -0.022584
v -0.014217 0.001680 -0.022554
v -0.014177 0.001858 -0.022566
v -0.014374 0.000988 -0.022508
v -0.013503 0.001501 -0.022663
v -0.014415 0.000811 -0.022496
v -0.013655 0.000828 -0.022619
v -0.016369 0.001838 -0.027367
v -0.016172 0.001806 -0.027177
v -0.015764 0.001867 -0.027842
v -0.015622 0.001850 -0.027608
v -0.016369 0.001838 -0.027367
v -0.016743 0.002159 -0.026776
v -0.016172 0.001806 -0.027177
v -0.016506 0.002114 -0.026645
v -0.017042 0.002076 -0.026072
v -0.016780 0.002021 -0.026007
v -0.016743 0.002159 -0.026776
v -0.016506 0.002114 -0.026645
v -0.017042 0.002076 -0.026072
v -0.017063 0.002327 -0.025345
v -0.016780 0.002021 -0.026007
v -0.016795 0.002266 -0.025351
v -0.016987 0.002162 -0.024597
v -0.016731 0.002099 -0.024674
v -0.017063 0.002327 -0.025345
v -0.016795 0.002266 -0.025351
v -0.016987 0.002162 -0.024597
v -0.016637 0.002325 -0.023931
v -0.016731 0.002099 -0.024674
v -0.016411 0.002264 -0.024073
v -0.016219 0.002072 -0.023337
v -0.016037 0.002017 -0.023535
v -0.016637 0.002325 -0.023931
v -0.016411 0.002264 -0.024073
v -0.016219 0.002072 -0.023337
v -0.015581 0.002153 -0.022914
v -0.016037 0.002017 -0.023535
v -0.015456 0.002109 -0.023154
v -0.014944 0.001830 -0.022629
v -0.014884 0.001798 -0.022895
v -0.015581 0.002153 -0.022914
v -0.015456 0.002109 -0.023154
v -0.014944 0.001830 -0.022629
v -0.014177 0.001858 -0.022566
v -0.014884 0.001798 -0.022895
v -0.014187 0.001842 -0.022839
v -0.013503 0.001501 -0.022663
v -0.013582 0.001501 -0.022926
v -0.014177 0.001858 -0.022566
v -0.014187 0.001842 -0.022839
v -0.013503 0.001501 -0.022663
v -0.012802 0.001518 -0.022980
v -0.013582 0.001501 -0.022926
v -0.012944 0.001535 -0.023214
v -0.012282 0.001173 -0.023431
v -0.012478 0.001205 -0.023620
v -0.012802 0.001518 -0.022980
v -0.012944 0.001535 -0.023214
v -0.012282 0.001173 -0.023431
v -0.011823 0.001226 -0.024046
v -0.012478 0.001205 -0.023620
v -0.012059 0.001270 -0.024177
v -0.011609 0.000934 -0.024725
v -0.011870 0.000989 -0.024790
v -0.011823 0.001226 -0.024046
v -0.012059 0.001270 -0.024177
v -0.011609 0.000934 -0.024725
v -0.011503 0.001058 -0.025477
v -0.011870 0.000989 -0.024790
v -0.011770 0.001119 -0.025471
v -0.011664 0.000849 -0.026200
v -0.011920 0.000912 -0.026123
v -0.011503 0.001058 -0.025477
v -0.011770 0.001119 -0.025471
v -0.015663 0.001453 -0.027505
v -0.013240 0.000900 -0.027562
v -0.015089 0.001302 -0.027770
v -0.013833 0.001016 -0.027800
v -0.016154 0.001588 -0.027101
v -0.012721 0.000804 -0.027183
v -0.015663 0.001453 -0.027505
v -0.013240 0.000900 -0.027562
v -0.016795 0.001854 -0.025327
v -0.011948 0.000748 -0.025443
v -0.016741 0.001796 -0.025972
v -0.012052 0.000726 -0.026084
v -0.016516 0.001708 -0.026575
v -0.012319 0.000750 -0.026676
v -0.016154 0.001588 -0.027101
v -0.012721 0.000804 -0.027183
v -0.016741 0.001796 -0.025972
v -0.012052 0.000726 -0.026084
v -0.016516 0.001708 -0.026575
v -0.012319 0.000750 -0.026676
v -0.016424 0.001852 -0.024095
v -0.012227 0.000894 -0.024195
v -0.016693 0.001871 -0.024686
v -0.012004 0.000800 -0.024798
v -0.016693 0.001871 -0.024686
v -0.012004 0.000800 -0.024798
v -0.016795 0.001854 -0.025327
v -0.011948 0.000748 -0.025443
v -0.012591 0.001008 -0.023669
v -0.016023 0.001792 -0.023587
v -0.013080 0.001149 -0.023266
v -0.015504 0.001702 -0.023208
v -0.012591 0.001008 -0.023669
v -0.012227 0.000894 -0.024195
v -0.016023 0.001792 -0.023587
v -0.016424 0.001852 -0.024095
v -0.013080 0.001149 -0.023266
v -0.015504 0.001702 -0.023208
v -0.013655 0.001294 -0.023000
v -0.014911 0.001581 -0.022970
v -0.012766 0.000321 -0.027218
v -0.012392 0.000074 -0.026679
v -0.012352 0.000252 -0.026691
v -0.012379 0.000486 -0.026658
v -0.012072 0.000239 -0.026079
v -0.012780 0.000546 -0.027165
v -0.012392 0.000074 -0.026679
v -0.013299 0.000636 -0.027545
v -0.012110 0.000467 -0.026067
v -0.013306 0.000407 -0.027610
v -0.012008 0.000484 -0.025425
v -0.013919 0.000539 -0.027857
v -0.013347 0.000229 -0.027599
v -0.011968 0.000249 -0.025413
v -0.013892 0.000757 -0.027782
v -0.013347 0.000229 -0.027599
v -0.012008 0.000072 -0.025401
v -0.012023 0.000316 -0.024745
v -0.014523 0.000893 -0.027848
v -0.012008 0.000072 -0.025401
v -0.012062 0.000542 -0.024781
v -0.014575 0.000674 -0.027925
v -0.012287 0.000630 -0.024177
v -0.015221 0.000837 -0.027826
v -0.014616 0.000496 -0.027913
v -0.012256 0.000401 -0.024119
v -0.015148 0.001044 -0.027752
v -0.014616 0.000496 -0.027913
v -0.012297 0.000223 -0.024108
v -0.012631 0.000532 -0.023575
v -0.015723 0.001189 -0.027487
v -0.012297 0.000223 -0.024108
v -0.012649 0.000750 -0.023652
v -0.015819 0.000980 -0.027550
v -0.013140 0.000885 -0.023248
v -0.016325 0.001133 -0.027133
v -0.015859 0.000803 -0.027539
v -0.013141 0.000665 -0.023156
v -0.016212 0.001329 -0.027084
v -0.015859 0.000803 -0.027539
v -0.013181 0.000488 -0.023144
v -0.013734 0.000828 -0.022882
v -0.016576 0.001444 -0.026558
v -0.013181 0.000488 -0.023144
v -0.013714 0.001035 -0.022983
v -0.016703 0.001245 -0.026587
v -0.014339 0.001181 -0.022887
v -0.016933 0.001349 -0.025963
v -0.016744 0.001067 -0.026575
v -0.014385 0.000972 -0.022782
v -0.016799 0.001537 -0.025955
v -0.016744 0.001067 -0.026575
v -0.014425 0.000795 -0.022770
v -0.015037 0.001126 -0.022851
v -0.016855 0.001590 -0.025310
v -0.014425 0.000795 -0.022770
v -0.014970 0.001322 -0.022953
v -0.016992 0.001396 -0.025293
v -0.015564 0.001438 -0.023190
v -0.016883 0.001426 -0.024629
v -0.017033 0.001219 -0.025282
v -0.015654 0.001239 -0.023096
v -0.016751 0.001612 -0.024669
v -0.017033 0.001219 -0.025282
v -0.015694 0.001061 -0.023084
v -0.016189 0.001344 -0.023490
v -0.016484 0.001588 -0.024077
v -0.015694 0.001061 -0.023084
v -0.016082 0.001533 -0.023570
v -0.016608 0.001394 -0.024016
v -0.016648 0.001217 -0.024004
v -0.016648 0.001217 -0.024004
v -0.012392 0.000074 -0.026679
v -0.012166 0.000013 -0.026822
v -0.012072 0.000239 -0.026079
v -0.011816 0.000176 -0.026156
v -0.012584 0.000266 -0.027416
v -0.012166 0.000013 -0.026822
v -0.012766 0.000321 -0.027218
v -0.012392 0.000074 -0.026679
v -0.013347 0.000229 -0.027599
v -0.013222 0.000185 -0.027839
v -0.012766 0.000321 -0.027218
v -0.012584 0.000266 -0.027416
v -0.013859 0.000508 -0.028124
v -0.013222 0.000185 -0.027839
v -0.013919 0.000539 -0.027857
v -0.013347 0.000229 -0.027599
v -0.014616 0.000496 -0.027913
v -0.014626 0.000480 -0.028187
v -0.013919 0.000539 -0.027857
v -0.013859 0.000508 -0.028124
v -0.015300 0.000837 -0.028089
v -0.014626 0.000480 -0.028187
v -0.015221 0.000837 -0.027826
v -0.014616 0.000496 -0.027913
v -0.015859 0.000803 -0.027539
v -0.016001 0.000820 -0.027772
v -0.015221 0.000837 -0.027826
v -0.015300 0.000837 -0.028089
v -0.016521 0.001165 -0.027322
v -0.016001 0.000820 -0.027772
v -0.016325 0.001133 -0.027133
v -0.015859 0.000803 -0.027539
v -0.016744 0.001067 -0.026575
v -0.016980 0.001112 -0.026707
v -0.016325 0.001133 -0.027133
v -0.016521 0.001165 -0.027322
v -0.017194 0.001404 -0.026027
v -0.016980 0.001112 -0.026707
v -0.016933 0.001349 -0.025963
v -0.016744 0.001067 -0.026575
v -0.017033 0.001219 -0.025282
v -0.017300 0.001280 -0.025275
v -0.016933 0.001349 -0.025963
v -0.017194 0.001404 -0.026027
v -0.017139 0.001489 -0.024552
v -0.017300 0.001280 -0.025275
v -0.016883 0.001426 -0.024629
v -0.017033 0.001219 -0.025282
v -0.016648 0.001217 -0.024004
v -0.016875 0.001277 -0.023861
v -0.016883 0.001426 -0.024629
v -0.017139 0.001489 -0.024552
v -0.016371 0.001399 -0.023292
v -0.016875 0.001277 -0.023861
v -0.016189 0.001344 -0.023490
v -0.016648 0.001217 -0.024004
v -0.015694 0.001061 -0.023084
v -0.015819 0.001106 -0.022844
v -0.016189 0.001344 -0.023490
v -0.016371 0.001399 -0.023292
v -0.015096 0.001157 -0.022584
v -0.015819 0.001106 -0.022844
v -0.015037 0.001126 -0.022851
v -0.015694 0.001061 -0.023084
v -0.014425 0.000795 -0.022770
v -0.014415 0.000811 -0.022496
v -0.015037 0.001126 -0.022851
v -0.015096 0.001157 -0.022584
v -0.013655 0.000828 -0.022619
v -0.014415 0.000811 -0.022496
v -0.013734 0.000828 -0.022882
v -0.014425 0.000795 -0.022770
v -0.013181 0.000488 -0.023144
v -0.013039 0.000471 -0.022911
v -0.013734 0.000828 -0.022882
v -0.013655 0.000828 -0.022619
v -0.012435 0.000500 -0.023386
v -0.013039 0.000471 -0.022911
v -0.012631 0.000532 -0.023575
v -0.013181 0.000488 -0.023144
v -0.012297 0.000223 -0.024108
v -0.012060 0.000178 -0.023976
v -0.012631 0.000532 -0.023575
v -0.012435 0.000500 -0.023386
v -0.011761 0.000262 -0.024681
v -0.012060 0.000178 -0.023976
v -0.012023 0.000316 -0.024745
v -0.012297 0.000223 -0.024108
v -0.012008 0.000072 -0.025401
v -0.011740 0.000011 -0.025408
v -0.012023 0.000316 -0.024745
v -0.011761 0.000262 -0.024681
v -0.011816 0.000176 -0.026156
v -0.011740 0.000011 -0.025408
v -0.012072 0.000239 -0.026079
v -0.012008 0.000072 -0.025401
v -0.015723 0.001189 -0.027487
v -0.015148 0.001044 -0.027752
v -0.013299 0.000636 -0.027545
v -0.013892 0.000757 -0.027782
v -0.016212 0.001329 -0.027084
v -0.015723 0.001189 -0.027487
v -0.012780 0.000546 -0.027165
v -0.013299 0.000636 -0.027545
v -0.016855 0.001590 -0.025310
v -0.016799 0.001537 -0.025955
v -0.012008 0.000484 -0.025425
v -0.012110 0.000467 -0.026067
v -0.016576 0.001444 -0.026558
v -0.016212 0.001329 -0.027084
v -0.012379 0.000486 -0.026658
v -0.012780 0.000546 -0.027165
v -0.016799 0.001537 -0.025955
v -0.016576 0.001444 -0.026558
v -0.012110 0.000467 -0.026067
v -0.012379 0.000486 -0.026658
v -0.016484 0.001588 -0.024077
v -0.016751 0.001612 -0.024669
v -0.012287 0.000630 -0.024177
v -0.012062 0.000542 -0.024781
v -0.016751 0.001612 -0.024669
v -0.016855 0.001590 -0.025310
v -0.012062 0.000542 -0.024781
v -0.012008 0.000484 -0.025425
v -0.012649 0.000750 -0.023652
v -0.013140 0.000885 -0.023248
v -0.016082 0.001533 -0.023570
v -0.015564 0.001438 -0.023190
v -0.012649 0.000750 -0.023652
v -0.016082 0.001533 -0.023570
v -0.012287 0.000630 -0.024177
v -0.016484 0.001588 -0.024077
v -0.013140 0.000885 -0.023248
v -0.013714 0.001035 -0.022983
v -0.015564 0.001438 -0.023190
v -0.014970 0.001322 -0.022953
vn 0.2217 0.9746 -0.0308
vn 0.2192 0.9707 -0.0984
vn -0.2192 -0.9707 0.0985
vn -0.2217 -0.9746 0.0308
vn -0.6060 0.3876 0.6946
vn -0.7655 0.4101 0.4958
vn -0.7542 0.2123 0.6214
vn -0.6752 0.5821 0.4531
vn -0.5249 0.5613 0.6398
vn -0.8695 0.4186 0.2622
vn -0.3339 0.5266 0.7818
vn -0.8840 0.2276 0.4084
vn -0.7726 0.5904 0.2334
vn -0.4025 0.3511 0.8454
vn -0.8126 0.5829 -0.0037
vn -0.1684 0.3046 0.9375
vn -0.5595 0.1806 0.8089
vn -0.9116 0.4110 0.0100
vn -0.3440 0.1397 0.9285
vn -0.1136 0.4832 0.8681
vn -0.9624 0.2280 0.1477
vn -0.8883 0.3893 -0.2439
vn 0.1198 0.4312 0.8943
vn -0.9716 0.2135 -0.1016
vn -0.7902 0.5628 -0.2423
vn 0.0800 0.2497 0.9650
vn -0.7093 0.5287 -0.4662
vn 0.3261 0.1917 0.9257
vn -0.0850 0.0853 0.9927
vn -0.8017 0.3534 -0.4820
vn 0.1585 0.0297 0.9869
vn 0.3512 0.3772 0.8570
vn -0.9127 0.1826 -0.3655
vn -0.6573 0.3074 -0.6881
vn 0.5643 0.3216 0.7604
vn -0.7990 0.1423 -0.5843
vn -0.5731 0.4859 -0.6599
vn 0.5528 0.1330 0.8226
vn -0.3930 0.4341 -0.8106
vn 0.7449 0.0793 0.6624
vn 0.4122 -0.0329 0.9105
vn -0.4653 0.2528 -0.8483
vn 0.6185 -0.0883 0.7808
vn 0.7448 0.2715 0.6095
vn -0.6184 0.0883 -0.7809
vn -0.2384 0.1949 -0.9514
vn 0.8806 0.2269 0.4160
vn -0.4122 0.0329 -0.9105
vn -0.1795 0.3802 -0.9073
vn 0.8892 0.0324 0.4564
vn 0.0515 0.3244 -0.9445
vn 0.9759 -0.0026 0.2182
vn 0.7990 -0.1423 0.5843
vn 0.0074 0.1361 -0.9907
vn 0.9127 -0.1826 0.3655
vn 0.9619 0.1945 0.1920
vn -0.1585 -0.0297 -0.9869
vn 0.2560 0.0820 -0.9632
vn 0.9839 0.1728 -0.0465
vn 0.0850 -0.0852 -0.9927
vn 0.2853 0.2741 -0.9184
vn 0.9990 -0.0252 -0.0356
vn 0.5052 0.2291 -0.8320
vn 0.9571 -0.0320 -0.2879
vn 0.9717 -0.2135 0.1016
vn 0.4900 0.0347 -0.8710
vn 0.9624 -0.2280 -0.1477
vn 0.9443 0.1669 -0.2837
vn 0.3440 -0.1397 -0.9285
vn 0.6936 -0.0010 -0.7203
vn 0.8465 0.1736 -0.5034
vn 0.5595 -0.1806 -0.8089
vn 0.6966 0.1960 -0.6901
vn 0.8529 -0.0243 -0.5215
vn 0.8840 -0.2276 -0.4084
vn 0.7542 -0.2123 -0.6214
vn 0.3195 0.9310 0.1765
vn 0.3194 0.9310 0.1765
vn 0.9319 -0.2299 -0.2807
vn 0.8256 -0.2216 -0.5189
vn 0.8256 -0.2217 -0.5189
vn 0.6630 -0.1983 -0.7219
vn 0.9747 -0.2225 -0.0232
vn 0.8256 -0.2216 -0.5190
vn 0.4553 -0.1614 -0.8756
vn 0.9510 -0.1999 0.2358
vn 0.2165 -0.1135 -0.9697
vn 0.8626 -0.1637 0.4787
vn 0.7154 -0.1164 0.6890
vn -0.0370 -0.0579 -0.9976
vn 0.5194 -0.0611 0.8523
vn -0.2880 0.0016 -0.9576
vn 0.5194 -0.0611 0.8524
vn 0.2880 -0.0016 0.9576
vn 0.0499 0.9627 -0.2658
vn 0.0499 0.9627 -0.2659
vn 0.4212 0.9023 0.0917
vn -0.0265 0.9873 -0.1567
vn 0.4671 0.8835 -0.0343
vn 0.4671 0.8835 -0.0344
vn -0.0387 0.9990 -0.0223
vn 0.4449 0.8797 -0.1679
vn 0.4449 0.8797 -0.1680
vn -0.5194 0.0611 -0.8524
vn -0.2880 0.0017 -0.9576
vn -0.7154 0.1164 -0.6890
vn -0.8626 0.1637 -0.4787
vn -0.9510 0.1999 -0.2358
vn -0.9747 0.2225 0.0232
vn -0.9319 0.2299 0.2807
vn -0.8256 0.2216 0.5190
vn -0.6630 0.1983 0.7219
vn -0.4553 0.1614 0.8756
vn -0.2165 0.1135 0.9697
vn 0.0370 0.0579 0.9976
vn 0.0165 0.9947 0.1014
vn 0.0164 0.9947 0.1014
vn 0.3606 0.8918 -0.2733
vn 0.3605 0.8918 -0.2733
vn 0.1243 0.9756 0.1811
vn 0.1242 0.9756 0.1811
vn 0.2367 0.9166 -0.3221
vn 0.2366 0.9167 -0.3221
vn 0.2559 0.9467 0.1956
vn 0.2558 0.9467 0.1957
vn 0.1064 0.9476 -0.3013
vn 0.1063 0.9476 -0.3013
vn 0.3759 0.9159 0.1410
vn 0.0047 0.9763 -0.2166
vn 0.0046 0.9763 -0.2166
vn 0.4523 0.8913 0.0318
vn 0.4523 0.8913 0.0319
vn -0.0412 0.9950 -0.0905
vn -0.0413 0.9950 -0.0905
vn 0.4646 0.8796 -0.1026
vn -0.0191 0.9989 0.0431
vn 0.4094 0.8839 -0.2262
vn 0.4094 0.8839 -0.2263
vn 0.0653 0.9868 0.1484
vn 0.3016 0.9030 -0.3060
vn 0.3015 0.9030 -0.3060
vn 0.1892 0.9619 0.1972
vn 0.1700 0.9319 -0.3205
vn 0.2202 0.9725 -0.0756
vn 0.2209 0.9736 -0.0577
vn 0.2205 0.9730 -0.0689
vn 0.2204 0.9729 -0.0700
vn 0.2208 0.9735 -0.0601
vn 0.2204 0.9729 -0.0693
vn 0.2208 0.9735 -0.0604
vn 0.2204 0.9728 -0.0717
vn 0.2208 0.9735 -0.0594
vn 0.2210 0.9738 -0.0538
vn -0.6936 0.0010 0.7203
vn -0.8529 0.0243 0.5215
vn -0.8465 -0.1736 0.5034
vn -0.9571 0.0320 0.2879
vn -0.6966 -0.1960 0.6902
vn -0.8840 0.2275 0.4084
vn -0.5052 -0.2291 0.8320
vn -0.9443 -0.1669 0.2837
vn -0.4900 -0.0347 0.8711
vn -0.9839 -0.1728 0.0465
vn -0.2560 -0.0820 0.9632
vn -0.9990 0.0252 0.0356
vn -0.2853 -0.2741 0.9184
vn -0.9759 0.0026 -0.2182
vn -0.0515 -0.3244 0.9445
vn -0.9619 -0.1945 -0.1920
vn -0.0074 -0.1361 0.9907
vn -0.8806 -0.2269 -0.4160
vn 0.2384 -0.1949 0.9514
vn -0.0850 0.0852 0.9927
vn -0.8892 -0.0324 -0.4564
vn 0.1795 -0.3802 0.9073
vn -0.9127 0.1826 -0.3656
vn -0.7449 -0.0793 -0.6624
vn 0.3930 -0.4342 0.8106
vn -0.7448 -0.2715 -0.6095
vn 0.4654 -0.2528 0.8483
vn -0.5643 -0.3215 -0.7604
vn 0.6573 -0.3073 0.6881
vn -0.5528 -0.1330 -0.8226
vn 0.5732 -0.4859 0.6599
vn -0.6184 0.0883 -0.7808
vn -0.3261 -0.1917 -0.9257
vn 0.7093 -0.5287 0.4663
vn -0.3512 -0.3772 -0.8570
vn 0.8018 -0.3534 0.4820
vn -0.1198 -0.4312 -0.8943
vn 0.8883 -0.3892 0.2439
vn -0.0800 -0.2497 -0.9650
vn 0.7903 -0.5628 0.2423
vn 0.1684 -0.3046 -0.9375
vn 0.8126 -0.5828 0.0037
vn 0.0850 -0.0853 -0.9927
vn 0.1136 -0.4832 -0.8681
vn 0.9116 -0.4110 -0.0100
vn 0.3339 -0.5266 -0.7818
vn 0.8695 -0.4186 -0.2622
vn 0.9716 -0.2135 0.1016
vn 0.4025 -0.3511 -0.8454
vn 0.7726 -0.5904 -0.2334
vn 0.3439 -0.1397 -0.9285
vn 0.6060 -0.3876 -0.6946
vn 0.6751 -0.5821 -0.4531
vn 0.5249 -0.5613 -0.6398
vn 0.7655 -0.4101 -0.4958
vn 0.8840 -0.2275 -0.4084
vn -0.1063 -0.9476 0.3013
vn -0.1064 -0.9476 0.3013
vn -0.1064 -0.9476 0.3014
vn -0.3759 -0.9159 -0.1410
vn -0.0046 -0.9763 0.2166
vn -0.0047 -0.9763 0.2166
vn -0.0047 -0.9762 0.2166
vn -0.4523 -0.8913 -0.0318
vn -0.4523 -0.8913 -0.0319
vn 0.0413 -0.9950 0.0905
vn 0.0412 -0.9950 0.0905
vn -0.4646 -0.8796 0.1026
vn -0.4646 -0.8796 0.1025
vn 0.0191 -0.9989 -0.0431
vn -0.4094 -0.8839 0.2262
vn -0.0653 -0.9868 -0.1484
vn -0.3016 -0.9030 0.3060
vn -0.1892 -0.9619 -0.1973
vn -0.1892 -0.9619 -0.1972
vn -0.1700 -0.9319 0.3205
vn -0.3195 -0.9310 -0.1765
vn -0.3194 -0.9310 -0.1765
vn -0.0499 -0.9627 0.2659
vn -0.0499 -0.9627 0.2658
vn -0.4212 -0.9023 -0.0917
vn 0.0265 -0.9873 0.1567
vn -0.4671 -0.8835 0.0344
vn -0.4671 -0.8835 0.0343
vn 0.0387 -0.9990 0.0223
vn -0.4449 -0.8797 0.1680
vn -0.4449 -0.8797 0.1679
vn -0.0165 -0.9947 -0.1014
vn -0.0164 -0.9947 -0.1014
vn -0.3605 -0.8918 0.2733
vn -0.3606 -0.8918 0.2733
vn -0.1243 -0.9756 -0.1811
vn -0.2366 -0.9167 0.3221
vn -0.2367 -0.9167 0.3221
vn -0.2559 -0.9467 -0.1956
vn -0.2558 -0.9467 -0.1957
vn -0.2210 -0.9738 0.0538
vn -0.2204 -0.9728 0.0717
vn -0.2208 -0.9735 0.0604
vn -0.2208 -0.9735 0.0594
vn -0.2204 -0.9729 0.0693
vn -0.2208 -0.9735 0.0601
vn -0.2205 -0.9730 0.0689
vn -0.2209 -0.9736 0.0577
vn -0.2204 -0.9729 0.0700
vn -0.2202 -0.9725 0.0756
vt 0.484575 0.313052
vt 0.553983 0.301777
vt 0.519976 0.311692
vt 0.512395 0.042476
vt 0.442946 0.053479
vt 0.476992 0.043698
vt 0.154310 0.338348
vt 0.195844 0.336752
vt 0.235743 0.325119
vt 0.186950 0.020897
vt 0.145413 0.022331
vt 0.105470 0.033806
vt 0.619159 0.265071
vt 0.637209 0.230684
vt 0.646985 0.234409
vt 0.625041 0.226046
vt 0.608477 0.257355
vt 0.646616 0.192999
vt 0.583967 0.282924
vt 0.633506 0.191650
vt 0.592193 0.293013
vt 0.632218 0.156250
vt 0.559388 0.313793
vt 0.598801 0.301120
vt 0.645078 0.154189
vt 0.655409 0.152532
vt 0.634403 0.116840
vt 0.622371 0.122222
vt 0.522073 0.324548
vt 0.603575 0.092199
vt 0.483270 0.326209
vt 0.523756 0.334874
vt 0.613681 0.083993
vt 0.621800 0.077400
vt 0.585793 0.056968
vt 0.450144 0.304624
vt 0.578056 0.067635
vt 0.445374 0.316914
vt 0.546774 0.051016
vt 0.410175 0.298352
vt 0.441597 0.326830
vt 0.551434 0.038858
vt 0.417976 0.287527
vt 0.555178 0.029091
vt 0.513771 0.029366
vt 0.392526 0.262871
vt 0.382355 0.271054
vt 0.361790 0.238094
vt 0.374182 0.277617
vt 0.474953 0.030835
vt 0.373847 0.232768
vt 0.473314 0.020501
vt 0.437590 0.041439
vt 0.364137 0.198701
vt 0.351271 0.200712
vt 0.412885 0.072215
vt 0.349884 0.161899
vt 0.340936 0.202328
vt 0.404697 0.062090
vt 0.362988 0.163299
vt 0.398119 0.053956
vt 0.377619 0.089933
vt 0.371587 0.128936
vt 0.388273 0.097691
vt 0.359435 0.124254
vt 0.349673 0.120492
vt 0.969953 0.258435
vt 0.939917 0.288470
vt 0.956286 0.250544
vt 0.929138 0.277692
vt 0.497675 0.453143
vt 0.551341 0.453143
vt 0.551341 0.466987
vt 0.497675 0.403388
vt 0.605010 0.453143
vt 0.444009 0.403388
vt 0.551341 0.403388
vt 0.444009 0.453143
vt 0.605010 0.403388
vt 0.551341 0.389514
vt 0.444009 0.466987
vt 0.444009 0.389514
vt 0.658680 0.453143
vt 0.390341 0.453143
vt 0.390341 0.403388
vt 0.658680 0.466987
vt 0.658680 0.403388
vt 0.712351 0.453143
vt 0.336671 0.403388
vt 0.658680 0.389514
vt 0.336671 0.453143
vt 0.336671 0.389514
vt 0.712351 0.403388
vt 0.336671 0.466987
vt 0.283001 0.403388
vt 0.766022 0.453143
vt 0.283001 0.453143
vt 0.766022 0.466987
vt 0.766022 0.403388
vt 0.229330 0.403388
vt 0.819694 0.453143
vt 0.766022 0.389514
vt 0.229330 0.453143
vt 0.229330 0.389514
vt 0.819694 0.403388
vt 0.229330 0.466987
vt 0.175658 0.403388
vt 0.175658 0.453143
vt 0.909882 0.318506
vt 0.901991 0.304839
vt 0.868852 0.329500
vt 0.864907 0.314776
vt 0.827823 0.340493
vt 0.827823 0.324712
vt 0.786794 0.329500
vt 0.790739 0.314776
vt 0.745765 0.318506
vt 0.753655 0.304839
vt 0.715729 0.288471
vt 0.726508 0.277692
vt 0.176078 0.453143
vt 0.176078 0.403388
vt 0.283395 0.453143
vt 0.283395 0.403388
vt 0.390692 0.453143
vt 0.390692 0.403388
vt 0.497974 0.453143
vt 0.497974 0.403388
vt 0.605248 0.453143
vt 0.605248 0.403388
vt 0.712514 0.453143
vt 0.712514 0.403388
vt 0.819775 0.453143
vt 0.819775 0.403388
vt 0.685694 0.258435
vt 0.699361 0.250544
vt 0.674700 0.217406
vt 0.689424 0.213461
vt 0.663707 0.176377
vt 0.679488 0.176377
vt 0.674700 0.135348
vt 0.689424 0.139293
vt 0.685694 0.094318
vt 0.699361 0.102209
vt 0.715729 0.064283
vt 0.726508 0.075062
vt 0.745765 0.034248
vt 0.753655 0.047914
vt 0.786794 0.023254
vt 0.790739 0.037978
vt 0.827823 0.012260
vt 0.827823 0.028041
vt 0.868852 0.023254
vt 0.864907 0.037978
vt 0.909882 0.034248
vt 0.901991 0.047914
vt 0.939917 0.064283
vt 0.929138 0.075062
vt 0.969953 0.094319
vt 0.956286 0.102209
vt 0.980946 0.135348
vt 0.966222 0.139293
vt 0.991940 0.176377
vt 0.976159 0.176377
vt 0.980946 0.217406
vt 0.966222 0.213461
vt 0.113914 0.328460
vt 0.270921 0.303000
vt 0.076174 0.308401
vt 0.299677 0.273001
vt 0.013007 0.204187
vt 0.024400 0.244155
vt 0.327531 0.154382
vt 0.329041 0.195914
vt 0.046315 0.279473
vt 0.319110 0.236269
vt 0.021748 0.122335
vt 0.011659 0.162651
vt 0.293926 0.079235
vt 0.315978 0.114459
vt 0.263986 0.050416
vt 0.227285 0.030917
vt 0.041325 0.085677
vt 0.070201 0.055789
s 1
g CheckersBlack_GUI_Map_Checkers2_GUI_Map_Checkers2
usemtl GUI_Map_Checkers2
f 505/185/251 506/186/251 507/187/251
f 508/188/252 509/189/252 510/190/252
f 511/191/253 512/192/253 513/193/253
f 514/194/254 515/195/254 516/196/254
f 517/197/255 518/198/256 519/199/257
f 517/197/255 520/200/258 518/198/256
f 521/201/259 520/200/258 517/197/255
f 518/198/256 520/200/258 522/202/260
f 517/197/255 523/203/261 521/201/259
f 524/199/262 518/198/256 522/202/260
f 522/202/260 520/200/258 525/204/263
f 526/205/264 523/203/261 517/197/255
f 525/204/263 527/206/265 522/202/260
f 528/207/266 523/203/261 526/205/264
f 529/208/267 526/205/264 517/197/255
f 522/202/260 527/206/265 530/209/268
f 528/207/266 526/205/264 531/208/269
f 532/186/270 523/203/261 528/207/266
f 522/202/260 530/209/268 533/210/271
f 530/209/268 527/206/265 534/211/272
f 528/207/266 535/187/273 532/186/270
f 536/210/274 530/209/268 534/211/272
f 534/211/272 527/206/265 537/212/275
f 538/213/276 535/187/273 528/207/266
f 537/212/275 539/214/277 534/211/272
f 540/215/278 535/187/273 538/213/276
f 541/216/279 538/213/276 528/207/266
f 534/211/272 539/214/277 542/217/280
f 540/215/278 538/213/276 543/216/281
f 544/185/282 535/187/273 540/215/278
f 534/211/272 542/217/280 545/218/283
f 542/217/280 539/214/277 546/219/284
f 540/215/278 547/220/285 544/185/282
f 548/218/286 542/217/280 546/219/284
f 546/219/284 539/214/277 549/221/287
f 550/222/288 547/220/285 540/215/278
f 549/221/287 551/223/289 546/219/284
f 552/224/290 547/220/285 550/222/288
f 553/225/291 550/222/288 540/215/278
f 546/219/284 551/223/289 554/226/292
f 552/224/290 550/222/288 555/225/293
f 556/227/294 547/220/285 552/224/290
f 546/219/284 554/226/292 557/228/295
f 554/226/292 551/223/289 558/229/296
f 552/224/290 559/230/297 556/227/294
f 560/228/298 554/226/292 558/229/296
f 558/229/296 551/223/289 561/188/299
f 562/231/300 559/230/297 552/224/290
f 561/188/299 563/190/301 558/229/296
f 564/232/302 559/230/297 562/231/300
f 565/233/303 562/231/300 552/224/290
f 558/229/296 563/190/301 566/234/304
f 564/232/302 562/231/300 567/233/305
f 568/235/306 559/230/297 564/232/302
f 558/229/296 566/234/304 569/236/307
f 566/234/304 563/190/301 570/237/308
f 564/232/302 571/238/309 568/235/306
f 572/236/310 566/234/304 570/237/308
f 570/237/308 563/190/301 573/189/311
f 574/239/312 571/238/309 564/232/302
f 573/189/311 575/240/313 570/237/308
f 576/241/314 571/238/309 574/239/312
f 577/242/315 574/239/312 564/232/302
f 570/237/308 575/240/313 578/243/316
f 576/241/314 574/239/312 579/242/317
f 580/244/318 571/238/309 576/241/314
f 570/237/308 578/243/316 581/245/319
f 578/243/316 575/240/313 582/246/320
f 576/241/314 583/247/321 580/244/318
f 584/245/322 578/243/316 582/246/320
f 582/246/320 575/240/313 585/248/323
f 585/248/323 583/247/321 582/246/320
f 586/249/324 583/247/321 576/241/314
f 582/246/320 583/247/321 586/249/324
f 587/250/325 586/249/324 576/241/314
f 582/246/320 586/249/324 588/250/326
f 589/251/327 590/252/327 591/253/328
f 591/253/328 590/252/327 592/254/327
f 593/255/329 594/256/330 595/257/331
f 593/255/329 596/258/329 594/256/330
f 595/257/331 594/256/330 597/259/332
f 593/255/329 598/260/333 596/258/329
f 594/256/330 599/261/334 597/259/332
f 594/256/330 596/258/329 599/261/334
f 600/262/333 598/260/333 593/255/329
f 597/259/332 599/261/334 601/263/332
f 596/258/329 602/264/334 599/261/334
f 602/264/334 601/263/332 599/261/334
f 603/265/333 600/262/333 593/255/329
f 604/266/333 596/258/329 598/260/333
f 597/259/332 601/263/332 605/267/335
f 606/268/336 600/262/333 603/265/333
f 607/269/336 604/266/333 598/260/333
f 597/259/332 605/267/335 608/270/335
f 606/268/336 607/269/336 600/262/333
f 605/267/335 601/263/332 609/271/335
f 600/262/333 607/269/336 598/260/333
f 608/270/335 605/267/335 610/272/337
f 606/268/336 611/273/338 607/269/336
f 605/267/335 609/271/335 610/272/337
f 601/263/332 612/274/335 609/271/335
f 613/275/338 611/273/338 606/268/336
f 614/276/338 607/269/336 611/273/338
f 610/272/337 609/271/335 615/277/337
f 612/274/335 615/277/337 609/271/335
f 616/278/338 613/275/338 606/268/336
f 617/279/339 614/276/338 611/273/338
f 610/272/337 615/277/337 618/280/340
f 619/281/339 613/275/338 616/278/338
f 619/281/339 617/279/339 613/275/338
f 613/275/338 617/279/339 611/273/338
f 610/272/337 618/280/340 620/282/340
f 618/280/340 615/277/337 621/283/340
f 619/281/339 622/284/341 617/279/339
f 620/282/340 618/280/340 623/285/342
f 618/280/340 621/283/340 623/285/342
f 615/277/337 624/286/340 621/283/340
f 625/287/343 622/284/341 619/281/339
f 626/288/341 617/279/339 622/284/341
f 623/285/342 621/283/340 627/289/342
f 624/286/340 627/289/342 621/283/340
f 628/290/343 625/287/343 619/281/339
f 629/291/344 626/288/341 622/284/341
f 625/287/343 629/291/344 622/284/341
f 630/292/344 625/287/343 628/290/343
f 630/292/344 629/291/344 625/287/343
f 631/293/345 632/294/346 633/252/346
f 633/252/346 632/294/346 634/254/346
f 635/293/347 636/295/347 637/294/347
f 637/294/347 636/295/347 638/296/347
f 639/297/348 640/298/348 641/295/348
f 641/295/348 640/298/348 642/296/348
f 643/297/349 644/299/350 645/298/349
f 645/298/349 644/299/350 646/300/350
f 647/301/351 648/302/351 649/299/351
f 649/299/351 648/302/351 650/300/351
f 651/301/352 652/303/353 653/302/353
f 653/302/353 652/303/353 654/304/353
f 655/305/342 656/287/354 657/290/354
f 655/305/342 658/306/355 656/287/354
f 657/290/354 656/287/354 659/307/356
f 656/287/354 658/306/355 660/284/354
f 656/287/354 660/284/354 659/307/356
f 658/306/355 661/288/354 660/284/354
f 659/307/356 660/284/354 662/308/356
f 661/288/354 662/308/356 660/284/354
f 659/307/356 662/308/356 663/275/357
f 659/307/356 663/275/357 664/278/357
f 663/275/357 662/308/356 665/273/357
f 664/278/357 663/275/357 666/309/358
f 663/275/357 665/273/357 666/309/358
f 662/308/356 667/276/357 665/273/357
f 666/309/358 665/273/357 668/310/358
f 667/276/357 668/310/358 665/273/357
f 666/309/358 668/310/358 669/262/359
f 666/309/358 669/262/359 670/265/359
f 669/262/359 668/310/358 671/260/359
f 670/265/359 669/262/359 672/311/360
f 669/262/359 671/260/359 672/311/360
f 668/310/358 673/266/359 671/260/359
f 672/311/360 671/260/359 674/312/360
f 673/266/359 674/312/360 671/260/359
f 672/311/360 674/312/360 675/256/361
f 672/311/360 675/256/361 676/257/361
f 675/256/361 674/312/360 677/261/361
f 676/257/361 675/256/361 678/313/362
f 675/256/361 677/261/361 678/313/362
f 674/312/360 679/264/361 677/261/361
f 678/313/362 677/261/361 680/314/362
f 679/264/361 680/314/362 677/261/361
f 678/313/362 680/314/362 681/267/363
f 678/313/362 681/267/363 682/270/363
f 681/267/363 680/314/362 683/271/363
f 682/270/363 681/267/363 684/315/364
f 681/267/363 683/271/363 684/315/364
f 680/314/362 685/274/363 683/271/363
f 684/315/364 683/271/363 686/316/364
f 685/274/363 686/316/364 683/271/363
f 684/315/364 686/316/364 687/280/365
f 684/315/364 687/280/365 688/282/365
f 687/280/365 686/316/364 689/283/365
f 688/282/365 687/280/365 690/317/344
f 687/280/365 689/283/365 690/317/344
f 686/316/364 691/286/365 689/283/365
f 690/317/344 689/283/365 692/318/344
f 691/286/365 692/318/344 689/283/365
f 693/319/366 694/320/367 695/303/366
f 695/303/366 694/320/367 696/304/367
f 697/319/368 698/321/369 699/320/369
f 699/320/369 698/321/369 700/322/368
f 701/323/370 702/324/370 703/321/370
f 703/321/370 702/324/370 704/322/371
f 705/323/372 706/325/373 707/324/373
f 707/324/373 706/325/373 708/326/373
f 709/327/374 710/328/374 711/325/375
f 711/325/375 710/328/374 712/326/375
f 713/327/376 714/329/376 715/328/376
f 715/328/376 714/329/376 716/330/377
f 717/331/378 718/332/378 719/329/378
f 719/329/378 718/332/378 720/330/378
f 721/331/379 722/333/379 723/332/379
f 723/332/379 722/333/379 724/334/380
f 725/335/381 726/336/381 727/333/382
f 727/333/382 726/336/381 728/334/382
f 729/335/383 730/337/384 731/336/383
f 731/336/383 730/337/384 732/338/384
f 733/339/385 734/340/385 735/337/385
f 735/337/385 734/340/385 736/338/385
f 737/339/386 738/341/386 739/340/386
f 739/340/386 738/341/386 740/342/386
f 741/343/387 742/344/388 743/341/387
f 743/341/387 742/344/388 744/342/387
f 745/343/389 746/345/389 747/344/389
f 747/344/389 746/345/389 748/346/389
f 749/347/390 750/348/391 751/345/390
f 751/345/390 750/348/391 752/346/390
f 753/347/392 754/349/392 755/348/392
f 755/348/392 754/349/392 756/350/392
f 757/251/393 758/253/393 759/349/393
f 759/349/393 758/253/393 760/350/393
f 761/220/394 762/203/394 763/185/394
f 763/185/394 762/203/394 764/186/394
f 765/227/395 766/201/395 767/220/395
f 767/220/395 766/201/395 768/203/395
f 769/238/396 770/206/396 771/235/396
f 771/235/396 770/206/396 772/204/396
f 773/230/397 774/200/397 775/227/397
f 775/227/397 774/200/397 776/201/397
f 777/235/398 778/204/398 779/230/398
f 779/230/398 778/204/398 780/200/398
f 781/247/399 782/214/399 783/244/399
f 783/244/399 782/214/399 784/212/399
f 785/244/400 786/212/400 787/238/400
f 787/238/400 786/212/400 788/206/400
f 789/221/401 790/248/401 791/223/401
f 791/223/401 790/248/401 792/240/401
f 793/221/402 794/214/402 795/248/402
f 795/248/402 794/214/402 796/247/402
f 797/223/403 798/240/403 799/188/403
f 799/188/403 798/240/403 800/189/403
f 801/197/404 802/199/257 803/198/405
f 803/198/405 804/200/406 801/197/404
f 803/198/405 805/202/407 804/200/406
f 801/197/404 804/200/406 806/201/408
f 807/199/409 805/202/407 803/198/405
f 808/203/410 801/197/404 806/201/408
f 804/200/406 805/202/407 809/204/411
f 810/205/412 801/197/404 808/203/410
f 805/202/407 811/206/413 809/204/411
f 810/205/412 808/203/410 812/207/414
f 813/208/267 801/197/404 810/205/412
f 814/209/415 811/206/413 805/202/407
f 812/207/414 808/203/410 815/186/416
f 812/207/414 816/208/269 810/205/412
f 805/202/407 817/210/271 814/209/415
f 814/209/415 818/211/417 811/206/413
f 819/187/418 812/207/414 815/186/416
f 820/210/274 818/211/417 814/209/415
f 811/206/413 818/211/417 821/212/419
f 822/213/420 812/207/414 819/187/418
f 818/211/417 823/214/421 821/212/419
f 822/213/420 819/187/418 824/215/422
f 825/216/423 812/207/414 822/213/420
f 826/217/424 823/214/421 818/211/417
f 824/215/422 819/187/418 827/185/425
f 824/215/422 828/216/281 822/213/420
f 818/211/417 829/218/426 826/217/424
f 826/217/424 830/219/427 823/214/421
f 831/220/428 824/215/422 827/185/425
f 832/218/286 830/219/427 826/217/424
f 823/214/421 830/219/427 833/221/429
f 834/222/430 824/215/422 831/220/428
f 830/219/427 835/223/431 833/221/429
f 834/222/430 831/220/428 836/224/432
f 837/225/291 824/215/422 834/222/430
f 838/226/433 835/223/431 830/219/427
f 836/224/432 831/220/428 839/227/434
f 836/224/432 840/225/293 834/222/430
f 830/219/427 841/228/435 838/226/433
f 838/226/433 842/229/436 835/223/431
f 843/230/437 836/224/432 839/227/434
f 844/228/298 842/229/436 838/226/433
f 835/223/431 842/229/436 845/188/438
f 846/231/439 836/224/432 843/230/437
f 842/229/436 847/190/440 845/188/438
f 846/231/439 843/230/437 848/232/441
f 849/233/303 836/224/432 846/231/439
f 850/234/442 847/190/440 842/229/436
f 848/232/441 843/230/437 851/235/443
f 848/232/441 852/233/305 846/231/439
f 842/229/436 853/236/307 850/234/442
f 850/234/442 854/237/444 847/190/440
f 855/238/445 848/232/441 851/235/443
f 856/236/446 854/237/444 850/234/442
f 847/190/440 854/237/444 857/189/447
f 858/239/448 848/232/441 855/238/445
f 854/237/444 859/240/449 857/189/447
f 858/239/448 855/238/445 860/241/450
f 861/242/451 848/232/441 858/239/448
f 862/243/452 859/240/449 854/237/444
f 860/241/450 855/238/445 863/244/453
f 860/241/450 864/242/317 858/239/448
f 854/237/444 865/245/454 862/243/452
f 862/243/452 866/246/455 859/240/449
f 867/247/456 860/241/450 863/244/453
f 868/245/322 866/246/455 862/243/452
f 859/240/449 866/246/455 869/248/457
f 866/246/455 867/247/456 869/248/457
f 870/249/458 860/241/450 867/247/456
f 870/249/458 867/247/456 866/246/455
f 871/250/459 860/241/450 870/249/458
f 866/246/455 872/250/326 870/249/458
f 873/254/460 874/252/461 875/253/462
f 875/253/462 874/252/461 876/251/461
f 877/293/463 878/252/463 879/294/463
f 879/294/463 878/252/463 880/254/463
f 881/296/464 882/295/465 883/294/466
f 883/294/466 882/295/465 884/293/465
f 885/297/467 886/295/468 887/298/467
f 887/298/467 886/295/468 888/296/468
f 889/300/469 890/299/469 891/298/470
f 891/298/470 890/299/469 892/297/470
f 893/301/471 894/299/471 895/302/471
f 895/302/471 894/299/471 896/300/472
f 897/304/473 898/303/473 899/302/473
f 899/302/473 898/303/473 900/301/473
f 901/319/474 902/303/474 903/320/474
f 903/320/474 902/303/474 904/304/474
f 905/322/475 906/321/475 907/320/475
f 907/320/475 906/321/475 908/319/475
f 909/323/476 910/321/476 911/324/476
f 911/324/476 910/321/476 912/322/476
f 913/326/477 914/325/478 915/324/478
f 915/324/478 914/325/478 916/323/478
f 917/327/479 918/325/479 919/328/479
f 919/328/479 918/325/479 920/326/479
f 921/330/480 922/329/480 923/328/481
f 923/328/481 922/329/480 924/327/480
f 925/331/482 926/329/482 927/332/483
f 927/332/483 926/329/482 928/330/482
f 929/334/484 930/333/484 931/332/484
f 931/332/484 930/333/484 932/331/484
f 933/335/485 934/333/485 935/336/485
f 935/336/485 934/333/485 936/334/485
f 937/338/486 938/337/486 939/336/487
f 939/336/487 938/337/486 940/335/487
f 941/339/488 942/337/488 943/340/488
f 943/340/488 942/337/488 944/338/488
f 945/342/489 946/341/489 947/340/489
f 947/340/489 946/341/489 948/339/490
f 949/343/491 950/341/491 951/344/491
f 951/344/491 950/341/491 952/342/492
f 953/346/493 954/345/493 955/344/493
f 955/344/493 954/345/493 956/343/494
f 957/347/495 958/345/495 959/348/495
f 959/348/495 958/345/495 960/346/495
f 961/350/496 962/349/496 963/348/496
f 963/348/496 962/349/496 964/347/497
f 965/251/498 966/349/499 967/253/498
f 967/253/498 966/349/499 968/350/499
f 969/351/500 970/191/500 971/352/500
f 971/352/500 970/191/500 972/193/500
f 973/353/501 974/351/501 975/354/501
f 975/354/501 974/351/501 976/352/501
f 977/355/502 978/356/502 979/357/502
f 979/357/502 978/356/502 980/358/502
f 981/359/503 982/353/503 983/360/503
f 983/360/503 982/353/503 984/354/503
f 985/356/504 986/359/504 987/358/504
f 987/358/504 986/359/504 988/360/504
f 989/361/505 990/362/505 991/363/505
f 991/363/505 990/362/505 992/364/505
f 993/362/506 994/355/506 995/364/506
f 995/364/506 994/355/506 996/357/506
f 997/365/507 998/366/507 999/367/507
f 999/367/507 998/366/507 1000/368/507
f 1001/365/508 1002/367/508 1003/363/508
f 1003/363/508 1002/367/508 1004/361/508
f 1005/366/509 1006/194/509 1007/368/509
f 1007/368/509 1006/194/509 1008/196/509
