# Blender 4.1.1
# www.blender.org
mtllib Cliffbottom.mtl
o GUI_Map_RaisedHill6:GUI_Map_RaisedHill_board2:board1:GU_284a691
v 0.000170 0.000391 0.016235
v -0.003057 0.000383 0.015740
v 0.000009 0.000394 0.016876
v 0.000225 0.000319 0.015513
v -0.003161 0.000385 0.016160
v -0.002982 0.000313 0.015280
v -0.000263 0.000396 0.017622
v -0.003295 0.000386 0.016555
v -0.000471 0.000398 0.018142
v -0.003441 0.000387 0.016896
v -0.000777 0.000400 0.018753
v -0.003626 0.000388 0.017284
v -0.003847 0.000389 0.017637
v -0.001126 0.000402 0.019388
v -0.004108 0.000390 0.018047
v -0.001542 0.000403 0.019958
v -0.004368 0.000391 0.018361
v -0.001941 0.000405 0.020464
v -0.002409 0.000406 0.020960
v -0.004684 0.000392 0.018699
v -0.002836 0.000407 0.021387
v -0.005008 0.000393 0.018983
v -0.005283 0.000393 0.019223
v -0.003391 0.000408 0.021827
v -0.005713 0.000394 0.019538
v -0.003966 0.000408 0.022231
v -0.006057 0.000394 0.019764
v -0.004510 0.000409 0.022564
v -0.006440 0.000394 0.019990
v -0.005098 0.000409 0.022914
v -0.006787 0.000394 0.020179
v -0.005704 0.000409 0.023188
v -0.007219 0.000394 0.020370
v -0.006359 0.000409 0.023493
v -0.007630 0.000394 0.020535
v -0.007046 0.000409 0.023755
v -0.008021 0.000394 0.020682
v -0.007719 0.000408 0.023937
v -0.008351 0.000325 0.020755
v -0.008079 0.000339 0.024009
vn 0.0104 0.9929 -0.1183
vn 0.0111 0.9929 -0.1182
vn -0.0020 1.0000 -0.0041
vn -0.0020 1.0000 -0.0042
vn -0.0019 1.0000 -0.0042
vn -0.1937 0.9810 0.0129
vt 0.398607 0.119720
vt 0.400051 0.064164
vt 0.413671 0.119712
vt 0.381669 0.119082
vt 0.416203 0.064170
vt 0.383821 0.064846
vt 0.433084 0.119710
vt 0.432699 0.064172
vt 0.447061 0.119708
vt 0.447080 0.064175
vt 0.464498 0.119705
vt 0.464237 0.064178
vt 0.480678 0.064172
vt 0.483185 0.119711
vt 0.499880 0.064180
vt 0.501649 0.119703
vt 0.516285 0.064177
vt 0.518643 0.119706
vt 0.536717 0.119705
vt 0.534584 0.064178
vt 0.552594 0.119712
vt 0.551349 0.064172
vt 0.569390 0.064211
vt 0.570991 0.119708
vt 0.584683 0.064213
vt 0.589171 0.119706
vt 0.601658 0.064219
vt 0.605491 0.119703
vt 0.616112 0.064217
vt 0.622700 0.119707
vt 0.633506 0.064183
vt 0.639009 0.119701
vt 0.651462 0.064177
vt 0.656629 0.119706
vt 0.667689 0.064204
vt 0.673948 0.119710
vt 0.690424 0.064258
vt 0.689352 0.119720
vt 0.700479 0.064561
vt 0.696756 0.119213
s 1
g GUI_Map_RaisedHill6:GUI_Map_RaisedHill_board2:board1:GU_284a691_board2:board1:GUI_LeftGameBoard
usemtl board2:board1:GUI_LeftGameBoard
f 1/1/1 2/2/2 3/3/3
f 1/1/1 4/4/2 2/2/2
f 3/3/3 2/2/2 5/5/3
f 2/2/2 4/4/2 6/6/2
f 3/3/3 5/5/3 7/7/3
f 7/7/3 5/5/3 8/8/3
f 7/7/3 8/8/3 9/9/3
f 9/9/3 8/8/3 10/10/3
f 9/9/3 10/10/3 11/11/3
f 11/11/3 10/10/3 12/12/3
f 13/13/3 11/11/3 12/12/3
f 14/14/3 11/11/3 13/13/3
f 15/15/4 14/14/3 13/13/3
f 16/16/4 14/14/3 15/15/4
f 17/17/4 16/16/4 15/15/4
f 18/18/4 16/16/4 17/17/4
f 18/18/4 17/17/4 19/19/5
f 19/19/5 17/17/4 20/20/5
f 19/19/5 20/20/5 21/21/5
f 21/21/5 20/20/5 22/22/5
f 23/23/5 21/21/5 22/22/5
f 24/24/5 21/21/5 23/23/5
f 25/25/5 24/24/5 23/23/5
f 26/26/5 24/24/5 25/25/5
f 27/27/5 26/26/5 25/25/5
f 28/28/5 26/26/5 27/27/5
f 29/29/5 28/28/5 27/27/5
f 30/30/5 28/28/5 29/29/5
f 31/31/5 30/30/5 29/29/5
f 32/32/5 30/30/5 31/31/5
f 33/33/5 32/32/5 31/31/5
f 34/34/5 32/32/5 33/33/5
f 35/35/5 34/34/5 33/33/5
f 36/36/5 34/34/5 35/35/5
f 37/37/6 36/36/5 35/35/5
f 38/38/6 36/36/5 37/37/6
f 39/39/6 38/38/6 37/37/6
f 40/40/6 38/38/6 39/39/6
