# Blender 4.1.1
# www.blender.org
mtllib Cliffbottom1.mtl
o GameBoardOrangePath_board2:board1:GUI_LeftGameBoard
v -0.033613 0.000432 -0.002747
v -0.030684 0.000431 -0.004167
v -0.030807 0.000431 -0.004387
v -0.033924 0.000432 -0.003478
v -0.030979 0.000431 -0.004767
v -0.034126 0.000432 -0.004000
v -0.031105 0.000431 -0.005117
v -0.034319 0.000432 -0.004656
v -0.031234 0.000431 -0.005526
v -0.030596 0.000431 -0.004010
v -0.031314 0.000431 -0.005935
v -0.033293 0.000432 -0.002169
v -0.034498 0.000432 -0.005358
v -0.032840 0.000362 -0.001603
v -0.030338 0.000363 -0.003622
v -0.031404 0.000431 -0.006413
v -0.034584 0.000432 -0.006059
v -0.034616 0.000432 -0.006450
v -0.031417 0.000431 -0.006641
v -0.031427 0.000431 -0.006820
v -0.034637 0.000432 -0.006700
v -0.034633 0.000432 -0.007382
v -0.031427 0.000431 -0.007283
v -0.034612 0.000432 -0.007986
v -0.031385 0.000431 -0.007711
v -0.031347 0.000431 -0.008074
v -0.034508 0.000432 -0.008686
v -0.031248 0.000431 -0.008598
v -0.034363 0.000432 -0.009374
v -0.031150 0.000431 -0.008999
v -0.034192 0.000432 -0.009989
v -0.031025 0.000431 -0.009425
v -0.034123 0.000432 -0.010228
v -0.034002 0.000432 -0.010646
v -0.030900 0.000431 -0.009800
v -0.033746 0.000432 -0.011260
v -0.030715 0.000431 -0.010235
v -0.033475 0.000432 -0.011930
v -0.030527 0.000431 -0.010636
v -0.033152 0.000432 -0.012590
v -0.030342 0.000431 -0.011010
v -0.032784 0.000432 -0.013182
v -0.030150 0.000363 -0.011288
v -0.032570 0.000362 -0.013481
vn 0.0002 1.0000 -0.0001
vn 0.0001 1.0000 -0.0001
vn 0.0002 1.0000 -0.0000
vn 0.0685 0.9934 0.0923
vn 0.0690 0.9934 0.0919
vn 0.0002 1.0000 0.0001
vn 0.1287 0.9813 -0.1433
vt 0.123052 0.535362
vt 0.199659 0.562305
vt 0.195156 0.567384
vt 0.114110 0.546823
vt 0.189685 0.574918
vt 0.107065 0.555382
vt 0.185546 0.581923
vt 0.101135 0.566022
vt 0.181310 0.589379
vt 0.202890 0.558660
vt 0.177970 0.595909
vt 0.130639 0.527631
vt 0.095467 0.577691
vt 0.141438 0.517414
vt 0.211619 0.548943
vt 0.175235 0.602223
vt 0.090383 0.588218
vt 0.088286 0.594662
vt 0.174268 0.606052
vt 0.173505 0.609073
vt 0.086951 0.598766
vt 0.084831 0.610133
vt 0.172998 0.615535
vt 0.084225 0.620410
vt 0.171563 0.623247
vt 0.171694 0.629480
vt 0.083788 0.631750
vt 0.171208 0.638446
vt 0.084174 0.644296
vt 0.171519 0.645220
vt 0.085882 0.655278
vt 0.172214 0.652121
vt 0.086720 0.659623
vt 0.088186 0.667222
vt 0.173856 0.659730
vt 0.091429 0.679712
vt 0.176125 0.667515
vt 0.096231 0.690925
vt 0.179124 0.674743
vt 0.101408 0.702667
vt 0.182956 0.681499
vt 0.106669 0.711107
vt 0.189392 0.691730
vt 0.111906 0.718165
s 1
g GameBoardOrangePath_board2:board1:GUI_LeftGameBoard_board2:board1:GUI_LeftGameBoard
usemtl board2:board1:GUI_LeftGameBoard
f 1/1/1 2/2/2 3/3/1
f 1/1/1 3/3/1 4/4/1
f 4/4/1 3/3/1 5/5/1
f 4/4/1 5/5/1 6/6/1
f 6/6/1 5/5/1 7/7/1
f 6/6/1 7/7/1 8/8/3
f 8/8/3 7/7/1 9/9/3
f 1/1/1 10/10/4 2/2/2
f 11/11/3 8/8/3 9/9/3
f 12/12/5 10/10/4 1/1/1
f 13/13/3 8/8/3 11/11/3
f 12/12/5 14/14/4 10/10/4
f 10/10/4 14/14/4 15/15/4
f 16/16/3 13/13/3 11/11/3
f 17/17/3 13/13/3 16/16/3
f 17/17/3 16/16/3 18/18/3
f 18/18/3 16/16/3 19/19/3
f 20/20/3 18/18/3 19/19/3
f 21/21/3 18/18/3 20/20/3
f 21/21/3 20/20/3 22/22/3
f 22/22/3 20/20/3 23/23/3
f 22/22/3 23/23/3 24/24/3
f 24/24/3 23/23/3 25/25/3
f 26/26/3 24/24/3 25/25/3
f 27/27/3 24/24/3 26/26/3
f 28/28/3 27/27/3 26/26/3
f 29/29/3 27/27/3 28/28/3
f 30/30/3 29/29/3 28/28/3
f 31/31/3 29/29/3 30/30/3
f 32/32/3 31/31/3 30/30/3
f 33/33/3 31/31/3 32/32/3
f 34/34/6 33/33/3 32/32/3
f 35/35/6 34/34/6 32/32/3
f 36/36/6 34/34/6 35/35/6
f 37/37/6 36/36/6 35/35/6
f 38/38/6 36/36/6 37/37/6
f 39/39/6 38/38/6 37/37/6
f 40/40/6 38/38/6 39/39/6
f 41/41/7 40/40/6 39/39/6
f 42/42/7 40/40/6 41/41/7
f 43/43/7 42/42/7 41/41/7
f 44/44/7 42/42/7 43/43/7
