# Blender 4.1.1
# www.blender.org
mtllib connecters.mtl
o Curtins_room:elements:bonnTrash_Stucco_green
v 0.099212 0.102426 -0.012453
v 0.098858 0.102279 -0.012453
v 0.099212 0.102426 -0.011536
v 0.098858 0.102279 -0.011536
v 0.098711 0.101925 -0.012453
v 0.098711 0.101925 -0.011536
v 0.098858 0.101035 -0.012453
v 0.098858 0.101035 -0.011536
v 0.099020 0.099896 -0.012338
v 0.099567 0.102279 -0.011536
v 0.099351 0.099896 -0.011483
v 0.099567 0.102279 -0.012453
v 0.098830 0.098429 -0.012074
v 0.099714 0.101925 -0.011536
v 0.099560 0.098429 -0.011519
v 0.099714 0.101925 -0.012453
v 0.098779 0.097048 -0.011825
v 0.099567 0.101035 -0.011536
v 0.099623 0.097048 -0.011468
v 0.099567 0.101035 -0.012453
v 0.098785 0.095333 -0.011484
v 0.099688 0.095333 -0.011326
v 0.099074 0.099896 -0.012359
v 0.099405 0.099896 -0.011503
v 0.098865 0.098429 -0.012120
v 0.099595 0.098429 -0.011565
v 0.098801 0.097048 -0.011878
v 0.099646 0.097048 -0.011522
v 0.098795 0.095333 -0.011542
v 0.099699 0.095333 -0.011383
v 0.099688 0.095333 -0.011326
v 0.098785 0.095333 -0.011484
v 0.099699 0.095333 -0.011383
v 0.098795 0.095333 -0.011542
v 0.098779 0.097048 -0.011825
v 0.098801 0.097048 -0.011878
v 0.098830 0.098429 -0.012074
v 0.098865 0.098429 -0.012120
v 0.099020 0.099896 -0.012338
v 0.099074 0.099896 -0.012359
v 0.099595 0.098429 -0.011565
v 0.099405 0.099896 -0.011503
v 0.099560 0.098429 -0.011519
v 0.099646 0.097048 -0.011522
v 0.099351 0.099896 -0.011483
v 0.099623 0.097048 -0.011468
v 0.099699 0.095333 -0.011383
v 0.099688 0.095333 -0.011326
v 0.099212 0.102426 -0.014458
v 0.098858 0.102279 -0.014458
v 0.099212 0.102426 -0.013541
v 0.099567 0.102279 -0.013541
v 0.098858 0.102279 -0.013541
v 0.099567 0.102279 -0.014458
v 0.098711 0.101925 -0.014458
v 0.099714 0.101925 -0.013541
v 0.098711 0.101925 -0.013541
v 0.099714 0.101925 -0.014458
v 0.098858 0.101035 -0.014458
v 0.099567 0.101035 -0.013541
v 0.098858 0.101035 -0.013541
v 0.099567 0.101035 -0.014458
v 0.099020 0.099824 -0.014417
v 0.099405 0.099824 -0.013583
v 0.099351 0.099824 -0.013562
v 0.099074 0.099824 -0.014438
v 0.098923 0.098357 -0.014357
v 0.099501 0.098357 -0.013643
v 0.099454 0.098357 -0.013609
v 0.098971 0.098357 -0.014390
v 0.098843 0.097093 -0.014273
v 0.099582 0.097093 -0.013727
v 0.099544 0.097093 -0.013682
v 0.098880 0.097093 -0.014317
v 0.098778 0.095309 -0.014148
v 0.099625 0.095309 -0.013798
v 0.099647 0.095309 -0.013851
v 0.098800 0.095309 -0.014202
v 0.099625 0.095309 -0.013798
v 0.098778 0.095309 -0.014148
v 0.099647 0.095309 -0.013851
v 0.098800 0.095309 -0.014202
v 0.098843 0.097093 -0.014273
v 0.098880 0.097093 -0.014317
v 0.098923 0.098357 -0.014357
v 0.098971 0.098357 -0.014390
v 0.099020 0.099824 -0.014417
v 0.099074 0.099824 -0.014438
v 0.099501 0.098357 -0.013643
v 0.099405 0.099824 -0.013583
v 0.099454 0.098357 -0.013609
v 0.099544 0.097093 -0.013682
v 0.099351 0.099824 -0.013562
v 0.099582 0.097093 -0.013727
v 0.099625 0.095309 -0.013798
v 0.099647 0.095309 -0.013851
v 0.099212 0.102426 -0.016315
v 0.098858 0.102279 -0.016315
v 0.099212 0.102426 -0.015398
v 0.099567 0.102279 -0.015398
v 0.098858 0.102279 -0.015398
v 0.099567 0.102279 -0.016315
v 0.098711 0.101925 -0.016315
v 0.099714 0.101925 -0.015398
v 0.098711 0.101925 -0.015398
v 0.099714 0.101925 -0.016315
v 0.098858 0.101035 -0.016315
v 0.099567 0.101035 -0.015398
v 0.098858 0.101035 -0.015398
v 0.099567 0.101035 -0.016315
v 0.098943 0.099896 -0.016229
v 0.099481 0.099896 -0.015484
v 0.099432 0.099896 -0.015453
v 0.098992 0.099896 -0.016260
v 0.098815 0.098350 -0.016087
v 0.099610 0.098350 -0.015627
v 0.099578 0.098350 -0.015578
v 0.098847 0.098350 -0.016135
v 0.098768 0.096889 -0.015975
v 0.099656 0.096889 -0.015738
v 0.099638 0.096889 -0.015684
v 0.098787 0.096889 -0.016030
v 0.099641 0.095331 -0.015690
v 0.098767 0.095321 -0.015968
v 0.099658 0.095328 -0.015746
v 0.098784 0.095318 -0.016023
v 0.099641 0.095331 -0.015690
v 0.098767 0.095321 -0.015968
v 0.099658 0.095328 -0.015746
v 0.098784 0.095318 -0.016023
v 0.098787 0.096889 -0.016030
v 0.098768 0.096889 -0.015975
v 0.098815 0.098350 -0.016087
v 0.098847 0.098350 -0.016135
v 0.098943 0.099896 -0.016229
v 0.098992 0.099896 -0.016260
v 0.099610 0.098350 -0.015627
v 0.099481 0.099896 -0.015484
v 0.099578 0.098350 -0.015578
v 0.099638 0.096889 -0.015684
v 0.099432 0.099896 -0.015453
v 0.099656 0.096889 -0.015738
v 0.099641 0.095331 -0.015690
v 0.099658 0.095328 -0.015746
v 0.099212 0.102426 -0.018226
v 0.098858 0.102279 -0.018226
v 0.099212 0.102426 -0.017309
v 0.099567 0.102279 -0.017309
v 0.098858 0.102279 -0.017309
v 0.099567 0.102279 -0.018226
v 0.098711 0.101925 -0.018226
v 0.099714 0.101925 -0.017309
v 0.098711 0.101925 -0.017309
v 0.099714 0.101925 -0.018226
v 0.098858 0.101035 -0.018226
v 0.099567 0.101035 -0.017309
v 0.098858 0.101035 -0.017309
v 0.099567 0.101035 -0.018226
v 0.099033 0.099896 -0.017345
v 0.099391 0.099896 -0.018191
v 0.099336 0.099896 -0.018210
v 0.099088 0.099896 -0.017326
v 0.098919 0.098214 -0.017414
v 0.099506 0.098214 -0.018121
v 0.099459 0.098214 -0.018156
v 0.098966 0.098214 -0.017380
v 0.098831 0.096789 -0.017512
v 0.099594 0.096789 -0.018024
v 0.099558 0.096789 -0.018070
v 0.098866 0.096789 -0.017466
v 0.098790 0.095070 -0.017586
v 0.099608 0.095070 -0.018001
v 0.099634 0.095070 -0.017949
v 0.098817 0.095070 -0.017535
v 0.098790 0.095070 -0.017586
v 0.099608 0.095070 -0.018001
v 0.098817 0.095070 -0.017535
v 0.099634 0.095070 -0.017949
v 0.099594 0.096789 -0.018024
v 0.099558 0.096789 -0.018070
v 0.099506 0.098214 -0.018121
v 0.099459 0.098214 -0.018156
v 0.099391 0.099896 -0.018191
v 0.099336 0.099896 -0.018210
v 0.098919 0.098214 -0.017414
v 0.098966 0.098214 -0.017380
v 0.099033 0.099896 -0.017345
v 0.098866 0.096789 -0.017466
v 0.099088 0.099896 -0.017326
v 0.098831 0.096789 -0.017512
v 0.098817 0.095070 -0.017535
v 0.098790 0.095070 -0.017586
v 0.099212 0.102426 -0.019799
v 0.098858 0.102279 -0.019799
v 0.099212 0.102426 -0.018882
v 0.099567 0.102279 -0.018882
v 0.098858 0.102279 -0.018882
v 0.099567 0.102279 -0.019799
v 0.098711 0.101925 -0.019799
v 0.099714 0.101925 -0.018882
v 0.098711 0.101925 -0.018882
v 0.099714 0.101925 -0.019799
v 0.098858 0.101035 -0.019799
v 0.099567 0.101035 -0.018882
v 0.098858 0.101035 -0.018882
v 0.099567 0.101035 -0.019799
v 0.099041 0.099896 -0.019767
v 0.099384 0.099896 -0.018914
v 0.099329 0.099896 -0.018896
v 0.099096 0.099896 -0.019785
v 0.098934 0.098429 -0.019706
v 0.099491 0.098429 -0.018976
v 0.099443 0.098429 -0.018943
v 0.098982 0.098429 -0.019738
v 0.098864 0.097016 -0.019640
v 0.099561 0.097016 -0.019041
v 0.099520 0.097016 -0.019000
v 0.098904 0.097016 -0.019682
v 0.098815 0.095304 -0.019571
v 0.099578 0.095304 -0.019062
v 0.099610 0.095304 -0.019111
v 0.098847 0.095304 -0.019619
v 0.099578 0.095304 -0.019062
v 0.098815 0.095304 -0.019571
v 0.099610 0.095304 -0.019111
v 0.098847 0.095304 -0.019619
v 0.098864 0.097016 -0.019640
v 0.098904 0.097016 -0.019682
v 0.098934 0.098429 -0.019706
v 0.098982 0.098429 -0.019738
v 0.099041 0.099896 -0.019767
v 0.099096 0.099896 -0.019785
v 0.099491 0.098429 -0.018976
v 0.099384 0.099896 -0.018914
v 0.099443 0.098429 -0.018943
v 0.099520 0.097016 -0.019000
v 0.099329 0.099896 -0.018896
v 0.099561 0.097016 -0.019041
v 0.099578 0.095304 -0.019062
v 0.099610 0.095304 -0.019111
v 0.099212 0.102426 -0.020991
v 0.098858 0.102279 -0.020991
v 0.099212 0.102426 -0.020075
v 0.099567 0.102279 -0.020075
v 0.098858 0.102279 -0.020075
v 0.099567 0.102279 -0.020991
v 0.098711 0.101925 -0.020991
v 0.099714 0.101925 -0.020075
v 0.098711 0.101925 -0.020075
v 0.099714 0.101925 -0.020991
v 0.098858 0.101035 -0.020991
v 0.099567 0.101035 -0.020075
v 0.098858 0.101035 -0.020075
v 0.099567 0.101035 -0.020991
v 0.098990 0.099896 -0.020131
v 0.099435 0.099896 -0.020935
v 0.099383 0.099896 -0.020960
v 0.099042 0.099896 -0.020106
v 0.098858 0.098429 -0.020241
v 0.099567 0.098429 -0.020825
v 0.099527 0.098429 -0.020867
v 0.098897 0.098429 -0.020199
v 0.098774 0.097014 -0.020396
v 0.099651 0.097014 -0.020670
v 0.099630 0.097014 -0.020724
v 0.098795 0.097014 -0.020342
v 0.098777 0.095143 -0.020562
v 0.099693 0.095143 -0.020605
v 0.098780 0.095143 -0.020504
v 0.099696 0.095143 -0.020547
v 0.098777 0.095143 -0.020562
v 0.099693 0.095143 -0.020605
v 0.098780 0.095143 -0.020504
v 0.099696 0.095143 -0.020547
v 0.099651 0.097014 -0.020670
v 0.099630 0.097014 -0.020724
v 0.099567 0.098429 -0.020825
v 0.099527 0.098429 -0.020867
v 0.099435 0.099896 -0.020935
v 0.099383 0.099896 -0.020960
v 0.098858 0.098429 -0.020241
v 0.098897 0.098429 -0.020199
v 0.098990 0.099896 -0.020131
v 0.098795 0.097014 -0.020342
v 0.099042 0.099896 -0.020106
v 0.098774 0.097014 -0.020396
v 0.098780 0.095143 -0.020504
v 0.098777 0.095143 -0.020562
v 0.099212 0.102426 -0.084598
v 0.098858 0.102279 -0.084598
v 0.099212 0.102426 -0.083681
v 0.099567 0.102279 -0.083681
v 0.098858 0.102279 -0.083681
v 0.099567 0.102279 -0.084598
v 0.098711 0.101924 -0.084598
v 0.099714 0.101924 -0.083681
v 0.098711 0.101924 -0.083681
v 0.099714 0.101924 -0.084598
v 0.098795 0.101035 -0.083738
v 0.099630 0.101035 -0.084541
v 0.098929 0.101035 -0.084645
v 0.099496 0.101035 -0.083634
v 0.099005 0.099896 -0.083729
v 0.099420 0.099896 -0.084549
v 0.099367 0.099896 -0.084572
v 0.099058 0.099896 -0.083706
v 0.098903 0.098429 -0.083800
v 0.099522 0.098429 -0.084479
v 0.099477 0.098429 -0.084515
v 0.098948 0.098429 -0.083763
v 0.099611 0.097185 -0.084394
v 0.099646 0.097183 -0.084347
v 0.098875 0.097145 -0.083849
v 0.098909 0.097144 -0.083802
v 0.099735 0.095417 -0.084263
v 0.098825 0.095377 -0.084155
v 0.099742 0.095415 -0.084206
v 0.098832 0.095375 -0.084097
v 0.098825 0.095377 -0.084155
v 0.099735 0.095417 -0.084263
v 0.098832 0.095375 -0.084097
v 0.099742 0.095415 -0.084206
v 0.099646 0.097183 -0.084347
v 0.099611 0.097185 -0.084394
v 0.099522 0.098429 -0.084479
v 0.099477 0.098429 -0.084515
v 0.099420 0.099896 -0.084549
v 0.099367 0.099896 -0.084572
v 0.098903 0.098429 -0.083800
v 0.098948 0.098429 -0.083763
v 0.099005 0.099896 -0.083729
v 0.098909 0.097144 -0.083802
v 0.099058 0.099896 -0.083706
v 0.098875 0.097145 -0.083849
v 0.098832 0.095375 -0.084097
v 0.098825 0.095377 -0.084155
v 0.099212 0.102426 -0.083315
v 0.098858 0.102279 -0.083315
v 0.099212 0.102426 -0.082398
v 0.099567 0.102279 -0.082398
v 0.098858 0.102279 -0.082398
v 0.099567 0.102279 -0.083315
v 0.098711 0.101924 -0.083315
v 0.099714 0.101924 -0.082398
v 0.098711 0.101924 -0.082398
v 0.099714 0.101924 -0.083315
v 0.098858 0.101035 -0.083315
v 0.099567 0.101035 -0.082398
v 0.098858 0.101035 -0.082398
v 0.099567 0.101035 -0.083315
v 0.099078 0.099896 -0.083296
v 0.099347 0.099896 -0.082417
v 0.099290 0.099896 -0.082404
v 0.099134 0.099896 -0.083309
v 0.098913 0.098429 -0.083206
v 0.099511 0.098429 -0.082508
v 0.099465 0.098429 -0.082473
v 0.098960 0.098429 -0.083240
v 0.098839 0.097166 -0.083124
v 0.099586 0.097166 -0.082590
v 0.099549 0.097166 -0.082545
v 0.098875 0.097166 -0.083169
v 0.098814 0.095431 -0.082990
v 0.099718 0.095431 -0.082837
v 0.098824 0.095431 -0.083047
v 0.099728 0.095431 -0.082894
v 0.099718 0.095431 -0.082837
v 0.098814 0.095431 -0.082990
v 0.099728 0.095431 -0.082894
v 0.098824 0.095431 -0.083047
v 0.098839 0.097166 -0.083124
v 0.098875 0.097166 -0.083169
v 0.098913 0.098429 -0.083206
v 0.098960 0.098429 -0.083240
v 0.099078 0.099896 -0.083296
v 0.099134 0.099896 -0.083309
v 0.099511 0.098429 -0.082508
v 0.099347 0.099896 -0.082417
v 0.099465 0.098429 -0.082473
v 0.099549 0.097166 -0.082545
v 0.099290 0.099896 -0.082404
v 0.099586 0.097166 -0.082590
v 0.099718 0.095431 -0.082837
v 0.099728 0.095431 -0.082894
v 0.099212 0.102426 -0.081786
v 0.098858 0.102279 -0.081786
v 0.099212 0.102426 -0.080869
v 0.099567 0.102279 -0.080869
v 0.098858 0.102279 -0.080869
v 0.099567 0.102279 -0.081786
v 0.098711 0.101924 -0.081786
v 0.099714 0.101924 -0.080869
v 0.098711 0.101924 -0.080869
v 0.099714 0.101924 -0.081786
v 0.098858 0.101035 -0.081786
v 0.099567 0.101035 -0.080869
v 0.098858 0.101035 -0.080869
v 0.099567 0.101035 -0.081786
v 0.098858 0.099896 -0.080927
v 0.099308 0.099896 -0.081728
v 0.099256 0.099896 -0.081753
v 0.098910 0.099896 -0.080902
v 0.098695 0.098429 -0.081035
v 0.099335 0.098429 -0.081695
v 0.099291 0.098429 -0.081732
v 0.098739 0.098429 -0.080997
v 0.099241 0.096976 -0.081676
v 0.099275 0.096976 -0.081629
v 0.098498 0.096976 -0.081139
v 0.098532 0.096976 -0.081092
v 0.099072 0.095411 -0.081552
v 0.098199 0.095411 -0.081271
v 0.099090 0.095411 -0.081496
v 0.098217 0.095411 -0.081216
v 0.098199 0.095411 -0.081271
v 0.099072 0.095411 -0.081552
v 0.098217 0.095411 -0.081216
v 0.099090 0.095411 -0.081496
v 0.099275 0.096976 -0.081629
v 0.099241 0.096976 -0.081676
v 0.099335 0.098429 -0.081695
v 0.099291 0.098429 -0.081732
v 0.099308 0.099896 -0.081728
v 0.099256 0.099896 -0.081753
v 0.098695 0.098429 -0.081035
v 0.098739 0.098429 -0.080997
v 0.098858 0.099896 -0.080927
v 0.098532 0.096976 -0.081092
v 0.098910 0.099896 -0.080902
v 0.098498 0.096976 -0.081139
v 0.098217 0.095411 -0.081216
v 0.098199 0.095411 -0.081271
v 0.099212 0.102426 -0.079329
v 0.098858 0.102279 -0.079329
v 0.099212 0.102426 -0.078412
v 0.099567 0.102279 -0.078412
v 0.098858 0.102279 -0.078412
v 0.099567 0.102279 -0.079329
v 0.098711 0.101924 -0.079329
v 0.099714 0.101924 -0.078412
v 0.098711 0.101924 -0.078412
v 0.099714 0.101924 -0.079329
v 0.098858 0.101035 -0.079329
v 0.099567 0.101035 -0.078412
v 0.098858 0.101035 -0.078412
v 0.099567 0.101035 -0.079329
v 0.098925 0.099896 -0.079282
v 0.099333 0.099896 -0.078459
v 0.099279 0.099896 -0.078436
v 0.098979 0.099896 -0.079305
v 0.099164 0.098429 -0.078476
v 0.099211 0.098429 -0.078509
v 0.098645 0.098429 -0.079232
v 0.098693 0.098429 -0.079265
v 0.099020 0.096876 -0.078511
v 0.099063 0.096876 -0.078550
v 0.098405 0.096876 -0.079191
v 0.098448 0.096876 -0.079230
v 0.098754 0.095277 -0.078611
v 0.097966 0.095277 -0.079080
v 0.098784 0.095277 -0.078661
v 0.097995 0.095277 -0.079130
v 0.098754 0.095277 -0.078611
v 0.097966 0.095277 -0.079080
v 0.098784 0.095277 -0.078661
v 0.097995 0.095277 -0.079130
v 0.098405 0.096876 -0.079191
v 0.098448 0.096876 -0.079230
v 0.098645 0.098429 -0.079232
v 0.098693 0.098429 -0.079265
v 0.098925 0.099896 -0.079282
v 0.098979 0.099896 -0.079305
v 0.099164 0.098429 -0.078476
v 0.099211 0.098429 -0.078509
v 0.099279 0.099896 -0.078436
v 0.099063 0.096876 -0.078550
v 0.099333 0.099896 -0.078459
v 0.099020 0.096876 -0.078511
v 0.098784 0.095277 -0.078661
v 0.098754 0.095277 -0.078611
v 0.099212 0.102426 -0.077019
v 0.098858 0.102279 -0.077019
v 0.099212 0.102426 -0.076103
v 0.099567 0.102279 -0.076103
v 0.098858 0.102279 -0.076103
v 0.099567 0.102279 -0.077019
v 0.098711 0.101924 -0.077019
v 0.099714 0.101924 -0.076103
v 0.098711 0.101924 -0.076103
v 0.099714 0.101924 -0.077019
v 0.098858 0.101035 -0.077019
v 0.099567 0.101035 -0.076103
v 0.098858 0.101035 -0.076103
v 0.099567 0.101035 -0.077019
v 0.099096 0.099896 -0.076116
v 0.099328 0.099896 -0.077005
v 0.099271 0.099896 -0.077017
v 0.099153 0.099896 -0.076105
v 0.098942 0.098429 -0.076189
v 0.099482 0.098429 -0.076933
v 0.099433 0.098429 -0.076964
v 0.098991 0.098429 -0.076158
v 0.098854 0.097166 -0.076274
v 0.099571 0.097166 -0.076848
v 0.099532 0.097166 -0.076891
v 0.098893 0.097166 -0.076231
v 0.098829 0.095321 -0.076307
v 0.099560 0.095321 -0.076861
v 0.099595 0.095321 -0.076815
v 0.098864 0.095321 -0.076261
v 0.098829 0.095321 -0.076307
v 0.099560 0.095321 -0.076861
v 0.098864 0.095321 -0.076261
v 0.099595 0.095321 -0.076815
v 0.099571 0.097166 -0.076848
v 0.099532 0.097166 -0.076891
v 0.099482 0.098429 -0.076933
v 0.099433 0.098429 -0.076964
v 0.099328 0.099896 -0.077005
v 0.099271 0.099896 -0.077017
v 0.098942 0.098429 -0.076189
v 0.098991 0.098429 -0.076158
v 0.099096 0.099896 -0.076116
v 0.098893 0.097166 -0.076231
v 0.099153 0.099896 -0.076105
v 0.098854 0.097166 -0.076274
v 0.098864 0.095321 -0.076261
v 0.098829 0.095321 -0.076307
v 0.099212 0.102426 -0.075506
v 0.098858 0.102279 -0.075506
v 0.099212 0.102426 -0.074589
v 0.099567 0.102279 -0.074589
v 0.098858 0.102279 -0.074589
v 0.099567 0.102279 -0.075506
v 0.098711 0.101924 -0.075506
v 0.099714 0.101924 -0.074589
v 0.098711 0.101924 -0.074589
v 0.099714 0.101924 -0.075506
v 0.098858 0.101035 -0.075506
v 0.099567 0.101035 -0.074589
v 0.098858 0.101035 -0.074589
v 0.099567 0.101035 -0.075506
v 0.099098 0.099896 -0.075492
v 0.099327 0.099896 -0.074603
v 0.099270 0.099896 -0.074592
v 0.099155 0.099896 -0.075503
v 0.099004 0.098357 -0.075457
v 0.099421 0.098357 -0.074638
v 0.099368 0.098357 -0.074615
v 0.099057 0.098357 -0.075480
v 0.098904 0.097033 -0.075341
v 0.098949 0.097033 -0.075377
v 0.099475 0.097033 -0.074624
v 0.099521 0.097033 -0.074660
v 0.098806 0.095434 -0.075108
v 0.099589 0.095434 -0.074632
v 0.098836 0.095434 -0.075158
v 0.099619 0.095434 -0.074682
v 0.099589 0.095434 -0.074632
v 0.098806 0.095434 -0.075108
v 0.099619 0.095434 -0.074682
v 0.098836 0.095434 -0.075158
v 0.098904 0.097033 -0.075341
v 0.098949 0.097033 -0.075377
v 0.099004 0.098357 -0.075457
v 0.099057 0.098357 -0.075480
v 0.099098 0.099896 -0.075492
v 0.099155 0.099896 -0.075503
v 0.099421 0.098357 -0.074638
v 0.099327 0.099896 -0.074603
v 0.099368 0.098357 -0.074615
v 0.099475 0.097033 -0.074624
v 0.099270 0.099896 -0.074592
v 0.099521 0.097033 -0.074660
v 0.099589 0.095434 -0.074632
v 0.099619 0.095434 -0.074682
vn -0.0000 1.0000 -0.0000
vn -0.7071 0.7071 -0.0000
vn -0.9934 0.1143 -0.0000
vn -0.9935 0.1143 -0.0000
vn -0.9731 -0.2124 0.0891
vn -0.9077 -0.1134 0.4039
vn 0.7071 0.7071 -0.0000
vn -0.9077 -0.1134 0.4040
vn -0.6622 0.0677 0.7462
vn 0.9934 0.1143 -0.0000
vn -0.3925 0.1104 0.9131
vn 0.9707 -0.2232 -0.0886
vn -0.2802 0.1280 0.9514
vn 0.9006 -0.1666 -0.4015
vn 0.9006 -0.1666 -0.4016
vn 0.6623 -0.0677 -0.7462
vn 0.6622 -0.0677 -0.7462
vn 0.3925 -0.1104 -0.9131
vn 0.2802 -0.1280 -0.9514
vn -0.0000 -1.0000 -0.0000
vn -0.6591 -0.7266 -0.1941
vn -0.9175 -0.0549 -0.3940
vn -0.9175 -0.0548 -0.3940
vn -0.7470 -0.0551 -0.6625
vn -0.6000 -0.0550 -0.7981
vn -0.6000 -0.0549 -0.7981
vn 0.7471 0.0551 0.6625
vn 0.6001 0.0549 0.7980
vn 0.9174 0.0549 0.3940
vn 0.6001 0.0550 0.7980
vn 0.9175 0.0549 0.3940
vn 0.9578 0.0559 0.2821
vn 0.9578 0.0559 0.2820
vn -0.9736 -0.2102 0.0892
vn 0.9736 -0.2102 -0.0892
vn -0.9342 -0.1303 0.3321
vn 0.9342 -0.1303 -0.3321
vn -0.8147 -0.0000 0.5799
vn 0.8147 -0.0000 -0.5799
vn -0.6338 -0.0000 0.7735
vn 0.6338 -0.0000 -0.7735
vn -0.5193 -0.0000 0.8546
vn 0.5193 -0.0000 -0.8546
vn -0.6043 -0.7071 -0.3673
vn -0.7735 -0.0000 -0.6338
vn -0.5799 -0.0000 -0.8147
vn -0.4733 -0.0000 -0.8809
vn 0.5799 -0.0000 0.8147
vn 0.4733 -0.0000 0.8809
vn 0.7735 -0.0000 0.6338
vn 0.4734 -0.0000 0.8809
vn 0.8546 -0.0000 0.5193
vn -0.9670 -0.2161 0.1352
vn 0.9670 -0.2161 -0.1352
vn -0.8538 -0.1376 0.5020
vn 0.8538 -0.1376 -0.5020
vn -0.8538 -0.1376 0.5021
vn 0.8538 -0.1376 -0.5021
vn -0.5864 -0.0000 0.8100
vn 0.5865 -0.0000 -0.8100
vn 0.5864 -0.0000 -0.8100
vn -0.3757 -0.0000 0.9267
vn 0.3758 -0.0000 -0.9267
vn -0.3758 -0.0000 0.9267
vn 0.3757 -0.0000 -0.9267
vn -0.3099 -0.0000 0.9508
vn -0.3100 -0.0000 0.9508
vn 0.3099 -0.0000 -0.9508
vn -0.0022 -0.9991 0.0432
vn -0.6776 -0.7105 -0.1900
vn -0.6776 -0.7105 -0.1899
vn -0.9266 -0.0000 -0.3759
vn -0.9266 -0.0000 -0.3760
vn -0.8100 -0.0000 -0.5865
vn -0.6981 -0.0000 -0.7160
vn 0.8100 -0.0000 0.5864
vn 0.6982 -0.0000 0.7159
vn 0.9267 -0.0000 0.3759
vn 0.9506 -0.0000 0.3103
vn -0.9726 -0.2181 -0.0811
vn 0.9726 -0.2181 0.0811
vn -0.9726 -0.2181 -0.0810
vn 0.9726 -0.2180 0.0810
vn -0.9373 -0.1385 -0.3197
vn 0.9373 -0.1385 0.3197
vn -0.9373 -0.1385 -0.3198
vn 0.9373 -0.1385 0.3198
vn -0.8092 -0.0000 -0.5875
vn 0.8092 -0.0000 0.5875
vn -0.6286 -0.0000 -0.7777
vn 0.6286 -0.0000 0.7777
vn -0.5327 -0.0000 -0.8463
vn -0.5326 -0.0000 -0.8463
vn 0.5327 -0.0000 0.8463
vn -0.0000 -1.0000 -0.0002
vn 0.5985 -0.7071 -0.3766
vn 0.7777 -0.0000 -0.6286
vn 0.5875 -0.0000 -0.8092
vn 0.5874 -0.0000 -0.8093
vn 0.4643 -0.0000 -0.8857
vn -0.5876 -0.0000 0.8092
vn -0.4644 -0.0000 0.8856
vn -0.7778 -0.0000 0.6285
vn -0.8464 -0.0000 0.5325
vn -0.8464 -0.0000 0.5326
vn -0.9729 -0.2182 0.0767
vn 0.9729 -0.2181 -0.0767
vn 0.9729 -0.2182 -0.0767
vn -0.9433 -0.1385 0.3017
vn 0.9433 -0.1385 -0.3017
vn -0.8399 -0.0000 0.5428
vn 0.8399 -0.0000 -0.5427
vn -0.8399 -0.0000 0.5427
vn -0.7024 -0.0000 0.7117
vn 0.7024 -0.0000 -0.7117
vn -0.7024 -0.0000 0.7118
vn 0.7024 -0.0000 -0.7118
vn -0.6290 -0.0000 0.7774
vn 0.6290 -0.0000 -0.7774
vn -0.5497 -0.7071 -0.4448
vn -0.7117 -0.0000 -0.7024
vn -0.7118 -0.0000 -0.7024
vn -0.5428 -0.0000 -0.8399
vn -0.4385 -0.0000 -0.8987
vn 0.5428 -0.0000 0.8399
vn 0.4385 -0.0000 0.8987
vn 0.7118 -0.0000 0.7024
vn 0.7118 -0.0000 0.7023
vn 0.7775 -0.0000 0.6289
vn 0.7775 -0.0000 0.6288
vn -0.9703 -0.2173 -0.1065
vn 0.9703 -0.2173 0.1065
vn -0.9703 -0.2172 -0.1065
vn 0.9703 -0.2172 0.1065
vn -0.9002 -0.1383 -0.4128
vn 0.9002 -0.1383 0.4128
vn -0.9002 -0.1383 -0.4129
vn 0.9002 -0.1383 0.4129
vn -0.6812 -0.0000 -0.7321
vn 0.6812 -0.0000 0.7321
vn -0.3733 0.0043 -0.9277
vn 0.3733 -0.0043 0.9277
vn -0.2049 0.0084 -0.9788
vn -0.2048 0.0084 -0.9788
vn 0.2049 -0.0084 0.9788
vn 0.2048 -0.0084 0.9788
vn 0.6973 -0.7017 -0.1460
vn 0.6973 -0.7018 -0.1460
vn 0.9277 0.0077 -0.3733
vn 0.7321 -0.0000 -0.6812
vn 0.7320 -0.0000 -0.6813
vn 0.5897 -0.0000 -0.8077
vn 0.5896 -0.0000 -0.8077
vn -0.7321 -0.0000 0.6812
vn -0.5897 -0.0000 0.8076
vn -0.9277 -0.0077 0.3733
vn -0.9787 -0.0151 0.2048
vn -0.9927 0.1146 -0.0377
vn 0.9927 0.1145 0.0377
vn 0.9927 0.1146 0.0377
vn -0.9611 -0.2189 -0.1686
vn 0.9611 -0.2189 0.1686
vn -0.9611 -0.2190 -0.1686
vn -0.9078 -0.1388 -0.3958
vn 0.9078 -0.1388 0.3958
vn -0.7815 -0.0251 -0.6234
vn 0.7815 0.0251 0.6234
vn 0.7815 0.0250 0.6234
vn -0.5416 -0.0058 -0.8406
vn 0.5416 0.0058 0.8406
vn -0.3705 0.0383 -0.9281
vn -0.3704 0.0383 -0.9281
vn 0.3705 -0.0383 0.9281
vn 0.3705 -0.0384 0.9281
vn 0.0389 -0.9985 -0.0386
vn 0.6773 -0.6782 -0.2853
vn 0.6773 -0.6782 -0.2852
vn 0.8404 0.0172 -0.5418
vn 0.8404 0.0172 -0.5417
vn 0.6230 0.0022 -0.7822
vn 0.5150 -0.0000 -0.8572
vn -0.6229 -0.0025 0.7823
vn -0.5148 -0.0000 0.8573
vn -0.8403 -0.0176 0.5418
vn -0.9288 -0.0295 0.3694
vn 0.9935 0.1143 -0.0000
vn -0.9742 -0.2186 0.0562
vn 0.9742 -0.2186 -0.0562
vn -0.9513 -0.1396 0.2748
vn 0.9513 -0.1396 -0.2748
vn -0.8237 -0.0000 0.5670
vn 0.8237 -0.0000 -0.5670
vn -0.5769 -0.0298 0.8162
vn 0.5769 0.0299 -0.8163
vn -0.5769 -0.0299 0.8163
vn -0.4122 -0.0587 0.9092
vn 0.4122 0.0587 -0.9092
vn -0.6406 -0.7108 -0.2904
vn -0.8167 -0.0054 -0.5770
vn -0.5670 -0.0000 -0.8237
vn -0.4254 -0.0000 -0.9050
vn 0.5670 -0.0000 0.8237
vn 0.4253 -0.0000 0.9051
vn 0.8167 0.0054 0.5771
vn 0.9107 0.0105 0.4130
vn 0.9107 0.0105 0.4129
vn -0.9801 -0.1652 -0.1103
vn 0.9583 -0.2658 0.1048
vn -0.9187 -0.0576 -0.3907
vn 0.8971 -0.2135 0.3869
vn -0.9187 -0.0577 -0.3908
vn 0.8970 -0.2136 0.3869
vn -0.7622 0.0615 -0.6444
vn 0.7622 -0.0615 0.6444
vn -0.5687 0.0702 -0.8196
vn 0.5687 -0.0702 0.8196
vn -0.5686 0.0702 -0.8196
vn 0.5686 -0.0702 0.8196
vn -0.4502 0.0698 -0.8902
vn 0.4502 -0.0698 0.8902
vn 0.5862 -0.7540 -0.2964
vn 0.8174 -0.0974 -0.5678
vn 0.6453 -0.0302 -0.7634
vn 0.6453 -0.0301 -0.7633
vn 0.5462 -0.0039 -0.8377
vn 0.5462 -0.0024 -0.8377
vn -0.6452 0.0301 0.7634
vn -0.5461 0.0039 0.8377
vn -0.8173 0.0974 0.5679
vn -0.8840 0.1369 0.4470
vn -0.8840 0.1370 0.4470
vn -0.9781 -0.1843 0.0968
vn 0.9638 -0.2495 -0.0936
vn -0.9387 -0.0434 0.3421
vn 0.9136 -0.2294 -0.3358
vn 0.9135 -0.2294 -0.3359
vn -0.8295 0.1089 0.5478
vn 0.8295 -0.1088 -0.5478
vn 0.8295 -0.1089 -0.5478
vn -0.7083 0.1200 0.6956
vn 0.7083 -0.1200 -0.6956
vn 0.7083 -0.1200 -0.6957
vn -0.6269 0.1409 0.7662
vn 0.6269 -0.1409 -0.7662
vn 0.6269 -0.1409 -0.7663
vn -0.5922 -0.6437 -0.4847
vn -0.5923 -0.6436 -0.4847
vn -0.6948 0.1252 -0.7082
vn -0.5494 0.0715 -0.8325
vn -0.4771 0.0653 -0.8764
vn 0.5493 -0.0715 0.8325
vn 0.4771 -0.0653 0.8764
vn 0.6948 -0.1252 0.7082
vn 0.7625 -0.1714 0.6239
vn 0.7625 -0.1713 0.6239
vn -0.9747 -0.2188 -0.0462
vn 0.9747 -0.2188 0.0462
vn -0.9619 -0.1394 -0.2353
vn 0.9619 -0.1394 0.2353
vn -0.9618 -0.1395 -0.2354
vn 0.9618 -0.1395 0.2354
vn -0.8585 -0.0000 -0.5129
vn 0.8585 -0.0000 0.5129
vn -0.7054 -0.0000 -0.7088
vn 0.7054 -0.0000 0.7088
vn -0.6393 -0.0000 -0.7689
vn 0.6394 -0.0000 0.7689
vn 0.6393 -0.0000 0.7689
vn 0.5437 -0.7071 -0.4521
vn 0.7088 -0.0000 -0.7054
vn 0.5128 -0.0000 -0.8585
vn 0.3695 -0.0000 -0.9292
vn -0.5129 -0.0000 0.8584
vn -0.3695 -0.0000 0.9292
vn -0.7089 -0.0000 0.7054
vn -0.7089 -0.0000 0.7053
vn -0.7690 -0.0000 0.6393
vn -0.7690 -0.0004 0.6393
vn -0.9747 -0.2188 0.0454
vn 0.9747 -0.2188 -0.0454
vn -0.9747 -0.2188 0.0453
vn 0.9747 -0.2188 -0.0453
vn -0.9709 -0.1388 0.1950
vn 0.9709 -0.1388 -0.1951
vn -0.9709 -0.1389 0.1951
vn -0.9132 0.0092 0.4073
vn 0.9132 -0.0092 -0.4073
vn 0.9133 -0.0092 -0.4073
vn -0.7678 0.0343 0.6398
vn 0.7678 -0.0343 -0.6398
vn -0.6600 0.0494 0.7496
vn 0.6600 -0.0494 -0.7496
vn -0.5191 -0.7223 -0.4569
vn -0.5191 -0.7223 -0.4570
vn -0.6398 -0.0374 -0.7677
vn -0.6397 -0.0374 -0.7677
vn -0.4073 -0.0153 -0.9132
vn -0.2940 -0.0000 -0.9558
vn 0.4072 0.0153 0.9132
vn 0.2939 -0.0000 0.9558
vn 0.6397 0.0374 0.7677
vn 0.7499 0.0436 0.6601
vt 0.436928 0.983781
vt 0.436928 0.962968
vt 0.563057 0.983781
vt 0.563057 0.962968
vt 0.436928 0.912721
vt 0.563057 0.912721
vt 0.436928 0.786649
vt 0.563057 0.786649
vt 0.436928 0.625157
vt 0.563057 0.625157
vt 0.436928 0.417129
vt 0.563057 0.417129
vt 0.436928 0.238042
vt 0.563057 0.238042
vt 0.436928 0.016221
vt 0.563057 0.016221
s 1
g Curtins_room:elements:bonnTrash_Stucco_green_room:elements:bonnTrash_Stucco_green
usemtl room:elements:bonnTrash_Stucco_green
f 1/1/1 2/2/2 3/3/1
f 3/3/1 2/2/2 4/4/2
f 2/2/2 5/5/3 4/4/2
f 4/4/2 5/5/3 6/6/4
f 5/5/3 7/7/5 6/6/4
f 6/6/4 7/7/5 8/8/5
f 7/7/5 9/9/6 8/8/5
f 10/4/7 1/1/1 3/3/1
f 8/8/5 9/9/6 11/10/8
f 12/2/7 1/1/1 10/4/7
f 9/9/6 13/11/9 11/10/8
f 14/6/10 12/2/7 10/4/7
f 11/10/8 13/11/9 15/12/9
f 16/5/10 12/2/7 14/6/10
f 13/11/9 17/13/11 15/12/9
f 18/8/12 16/5/10 14/6/10
f 15/12/9 17/13/11 19/14/11
f 20/7/12 16/5/10 18/8/12
f 17/13/11 21/15/13 19/14/11
f 19/14/11 21/15/13 22/16/13
f 20/7/12 18/8/12 23/9/14
f 23/9/14 18/8/12 24/10/15
f 23/9/14 24/10/15 25/11/16
f 25/11/16 24/10/15 26/12/17
f 25/11/16 26/12/17 27/13/18
f 27/13/18 26/12/17 28/14/18
f 27/13/18 28/14/18 29/15/19
f 29/15/19 28/14/18 30/16/19
f 31/16/20 32/15/21 33/16/20
f 33/16/20 32/15/21 34/15/21
f 32/15/21 35/13/22 34/15/21
f 34/15/21 35/13/22 36/13/23
f 35/13/22 37/11/24 36/13/23
f 36/13/23 37/11/24 38/11/24
f 37/11/24 39/9/25 38/11/24
f 38/11/24 39/9/25 40/9/26
f 41/12/27 42/10/28 43/12/27
f 43/12/27 44/14/29 41/12/27
f 43/12/27 42/10/28 45/10/30
f 46/14/31 44/14/29 43/12/27
f 46/14/31 47/16/32 44/14/29
f 48/16/33 47/16/32 46/14/31
f 49/1/1 50/2/2 51/3/1
f 52/4/7 49/1/1 51/3/1
f 51/3/1 50/2/2 53/4/2
f 54/2/7 49/1/1 52/4/7
f 50/2/2 55/5/3 53/4/2
f 56/6/10 54/2/7 52/4/7
f 53/4/2 55/5/3 57/6/3
f 58/5/10 54/2/7 56/6/10
f 55/5/3 59/7/34 57/6/3
f 60/8/35 58/5/10 56/6/10
f 57/6/3 59/7/34 61/8/34
f 62/7/35 58/5/10 60/8/35
f 59/7/34 63/9/36 61/8/34
f 60/8/35 64/10/37 62/7/35
f 61/8/34 63/9/36 65/10/36
f 62/7/35 64/10/37 66/9/37
f 63/9/36 67/11/38 65/10/36
f 64/10/37 68/12/39 66/9/37
f 65/10/36 67/11/38 69/12/38
f 66/9/37 68/12/39 70/11/39
f 67/11/38 71/13/40 69/12/38
f 68/12/39 72/14/41 70/11/39
f 69/12/38 71/13/40 73/14/40
f 70/11/39 72/14/41 74/13/41
f 71/13/40 75/15/42 73/14/40
f 73/14/40 75/15/42 76/16/42
f 72/14/41 77/16/43 74/13/41
f 74/13/41 77/16/43 78/15/43
f 79/16/20 80/15/44 81/16/20
f 81/16/20 80/15/44 82/15/44
f 80/15/44 83/13/45 82/15/44
f 82/15/44 83/13/45 84/13/45
f 83/13/45 85/11/46 84/13/45
f 84/13/45 85/11/46 86/11/46
f 85/11/46 87/9/47 86/11/46
f 86/11/46 87/9/47 88/9/47
f 89/12/48 90/10/49 91/12/48
f 92/14/50 89/12/48 91/12/48
f 91/12/48 90/10/49 93/10/51
f 94/14/50 89/12/48 92/14/50
f 95/16/52 94/14/50 92/14/50
f 96/16/52 94/14/50 95/16/52
f 97/1/1 98/2/2 99/3/1
f 100/4/7 97/1/1 99/3/1
f 99/3/1 98/2/2 101/4/2
f 102/2/7 97/1/1 100/4/7
f 98/2/2 103/5/3 101/4/2
f 104/6/10 102/2/7 100/4/7
f 101/4/2 103/5/3 105/6/3
f 106/5/10 102/2/7 104/6/10
f 103/5/3 107/7/53 105/6/3
f 108/8/54 106/5/10 104/6/10
f 105/6/3 107/7/53 109/8/53
f 110/7/54 106/5/10 108/8/54
f 107/7/53 111/9/55 109/8/53
f 108/8/54 112/10/56 110/7/54
f 109/8/53 111/9/55 113/10/57
f 110/7/54 112/10/56 114/9/58
f 111/9/55 115/11/59 113/10/57
f 112/10/56 116/12/60 114/9/58
f 113/10/57 115/11/59 117/12/59
f 114/9/58 116/12/60 118/11/61
f 115/11/59 119/13/62 117/12/59
f 116/12/60 120/14/63 118/11/61
f 117/12/59 119/13/62 121/14/64
f 118/11/61 120/14/63 122/13/65
f 121/14/64 119/13/62 123/16/66
f 123/16/66 119/13/62 124/15/67
f 120/14/63 125/16/68 122/13/65
f 122/13/65 125/16/68 126/15/68
f 127/16/69 128/15/70 129/16/69
f 129/16/69 128/15/70 130/15/71
f 130/15/71 128/15/70 131/13/72
f 131/13/72 128/15/70 132/13/73
f 132/13/73 133/11/74 131/13/72
f 131/13/72 133/11/74 134/11/74
f 133/11/74 135/9/75 134/11/74
f 134/11/74 135/9/75 136/9/75
f 137/12/76 138/10/77 139/12/76
f 140/14/78 137/12/76 139/12/76
f 139/12/76 138/10/77 141/10/77
f 142/14/78 137/12/76 140/14/78
f 143/16/79 142/14/78 140/14/78
f 144/16/79 142/14/78 143/16/79
f 145/1/1 146/2/2 147/3/1
f 148/4/7 145/1/1 147/3/1
f 147/3/1 146/2/2 149/4/2
f 150/2/7 145/1/1 148/4/7
f 146/2/2 151/5/3 149/4/2
f 152/6/10 150/2/7 148/4/7
f 149/4/2 151/5/3 153/6/4
f 154/5/10 150/2/7 152/6/10
f 151/5/3 155/7/80 153/6/4
f 156/8/81 154/5/10 152/6/10
f 153/6/4 155/7/80 157/8/82
f 158/7/83 154/5/10 156/8/81
f 157/8/82 155/7/80 159/10/84
f 158/7/83 156/8/81 160/9/85
f 159/10/84 155/7/80 161/9/86
f 160/9/85 156/8/81 162/10/87
f 159/10/84 161/9/86 163/12/88
f 160/9/85 162/10/87 164/11/89
f 163/12/88 161/9/86 165/11/88
f 164/11/89 162/10/87 166/12/89
f 163/12/88 165/11/88 167/14/90
f 164/11/89 166/12/89 168/13/91
f 167/14/90 165/11/88 169/13/90
f 168/13/91 166/12/89 170/14/91
f 167/14/90 169/13/90 171/16/92
f 171/16/92 169/13/90 172/15/93
f 168/13/91 170/14/91 173/15/94
f 173/15/94 170/14/91 174/16/94
f 175/16/95 176/15/96 177/16/95
f 177/16/95 176/15/96 178/15/96
f 178/15/96 176/15/96 179/13/97
f 179/13/97 176/15/96 180/13/97
f 179/13/97 180/13/97 181/11/98
f 181/11/98 180/13/97 182/11/99
f 181/11/98 182/11/99 183/9/100
f 183/9/100 182/11/99 184/9/100
f 185/12/101 186/12/101 187/10/102
f 185/12/101 188/14/103 186/12/101
f 187/10/102 186/12/101 189/10/102
f 190/14/103 188/14/103 185/12/101
f 190/14/103 191/16/104 188/14/103
f 192/16/105 191/16/104 190/14/103
f 193/1/1 194/2/2 195/3/1
f 196/4/7 193/1/1 195/3/1
f 195/3/1 194/2/2 197/4/2
f 198/2/7 193/1/1 196/4/7
f 194/2/2 199/5/3 197/4/2
f 200/6/10 198/2/7 196/4/7
f 197/4/2 199/5/3 201/6/3
f 202/5/10 198/2/7 200/6/10
f 199/5/3 203/7/106 201/6/3
f 204/8/107 202/5/10 200/6/10
f 201/6/3 203/7/106 205/8/106
f 206/7/108 202/5/10 204/8/107
f 203/7/106 207/9/109 205/8/106
f 204/8/107 208/10/110 206/7/108
f 205/8/106 207/9/109 209/10/109
f 206/7/108 208/10/110 210/9/110
f 207/9/109 211/11/111 209/10/109
f 208/10/110 212/12/112 210/9/110
f 209/10/109 211/11/111 213/12/113
f 210/9/110 212/12/112 214/11/112
f 211/11/111 215/13/114 213/12/113
f 212/12/112 216/14/115 214/11/112
f 213/12/113 215/13/114 217/14/116
f 214/11/112 216/14/115 218/13/117
f 215/13/114 219/15/118 217/14/116
f 217/14/116 219/15/118 220/16/118
f 216/14/115 221/16/119 218/13/117
f 218/13/117 221/16/119 222/15/119
f 223/16/20 224/15/120 225/16/20
f 225/16/20 224/15/120 226/15/120
f 224/15/120 227/13/121 226/15/120
f 226/15/120 227/13/121 228/13/122
f 227/13/121 229/11/123 228/13/122
f 228/13/122 229/11/123 230/11/123
f 229/11/123 231/9/124 230/11/123
f 230/11/123 231/9/124 232/9/124
f 233/12/125 234/10/126 235/12/125
f 236/14/127 233/12/125 235/12/125
f 235/12/125 234/10/126 237/10/126
f 238/14/128 233/12/125 236/14/127
f 239/16/129 238/14/128 236/14/127
f 240/16/130 238/14/128 239/16/129
f 241/1/1 242/2/2 243/3/1
f 244/4/7 241/1/1 243/3/1
f 243/3/1 242/2/2 245/4/2
f 246/2/7 241/1/1 244/4/7
f 242/2/2 247/5/3 245/4/2
f 248/6/10 246/2/7 244/4/7
f 245/4/2 247/5/3 249/6/3
f 250/5/10 246/2/7 248/6/10
f 247/5/3 251/7/131 249/6/3
f 252/8/132 250/5/10 248/6/10
f 249/6/3 251/7/131 253/8/133
f 254/7/134 250/5/10 252/8/132
f 253/8/133 251/7/131 255/10/135
f 254/7/134 252/8/132 256/9/136
f 255/10/135 251/7/131 257/9/137
f 256/9/136 252/8/132 258/10/138
f 255/10/135 257/9/137 259/12/139
f 256/9/136 258/10/138 260/11/140
f 259/12/139 257/9/137 261/11/139
f 260/11/140 258/10/138 262/12/140
f 259/12/139 261/11/139 263/14/141
f 260/11/140 262/12/140 264/13/142
f 263/14/141 261/11/139 265/13/141
f 264/13/142 262/12/140 266/14/142
f 263/14/141 265/13/141 267/16/143
f 267/16/143 265/13/141 268/15/144
f 266/14/142 269/16/145 264/13/142
f 264/13/142 269/16/145 270/15/146
f 271/16/20 272/15/147 273/16/20
f 273/16/20 272/15/147 274/15/148
f 274/15/148 272/15/147 275/13/149
f 275/13/149 272/15/147 276/13/149
f 275/13/149 276/13/149 277/11/150
f 277/11/150 276/13/149 278/11/151
f 277/11/150 278/11/151 279/9/152
f 279/9/152 278/11/151 280/9/153
f 281/12/154 282/12/154 283/10/155
f 281/12/154 284/14/156 282/12/154
f 283/10/155 282/12/154 285/10/155
f 286/14/156 284/14/156 281/12/154
f 286/14/156 287/16/157 284/14/156
f 288/16/157 287/16/157 286/14/156
f 289/1/1 290/2/2 291/3/1
f 292/4/7 289/1/1 291/3/1
f 291/3/1 290/2/2 293/4/2
f 294/2/7 289/1/1 292/4/7
f 290/2/2 295/5/158 293/4/2
f 296/6/159 294/2/7 292/4/7
f 293/4/2 295/5/158 297/6/158
f 298/5/160 294/2/7 296/6/159
f 295/5/158 299/8/161 297/6/158
f 298/5/160 296/6/159 300/7/162
f 301/7/163 299/8/161 295/5/158
f 300/7/162 296/6/159 302/8/162
f 299/8/161 301/7/163 303/10/164
f 300/7/162 302/8/162 304/9/165
f 303/10/164 301/7/163 305/9/164
f 304/9/165 302/8/162 306/10/165
f 303/10/164 305/9/164 307/12/166
f 304/9/165 306/10/165 308/11/167
f 307/12/166 305/9/164 309/11/166
f 308/11/167 306/10/165 310/12/168
f 309/11/166 311/13/169 307/12/166
f 308/11/167 310/12/168 312/13/170
f 307/12/166 311/13/169 313/14/169
f 312/13/170 310/12/168 314/14/170
f 311/13/169 315/15/171 313/14/169
f 313/14/169 315/15/171 316/16/172
f 312/13/170 314/14/170 317/15/173
f 317/15/173 314/14/170 318/16/174
f 319/16/175 320/15/176 321/16/175
f 321/16/175 320/15/176 322/15/177
f 322/15/177 320/15/176 323/13/178
f 323/13/178 320/15/176 324/13/179
f 323/13/178 324/13/179 325/11/180
f 325/11/180 324/13/179 326/11/180
f 325/11/180 326/11/180 327/9/181
f 327/9/181 326/11/180 328/9/181
f 329/12/182 330/12/182 331/10/183
f 329/12/182 332/14/184 330/12/182
f 331/10/183 330/12/182 333/10/183
f 334/14/184 332/14/184 329/12/182
f 334/14/184 335/16/185 332/14/184
f 336/16/185 335/16/185 334/14/184
f 337/1/1 338/2/2 339/3/1
f 340/4/7 337/1/1 339/3/1
f 339/3/1 338/2/2 341/4/2
f 342/2/7 337/1/1 340/4/7
f 338/2/2 343/5/3 341/4/2
f 344/6/186 342/2/7 340/4/7
f 341/4/2 343/5/3 345/6/3
f 346/5/10 342/2/7 344/6/186
f 343/5/3 347/7/187 345/6/3
f 348/8/188 346/5/10 344/6/186
f 345/6/3 347/7/187 349/8/187
f 350/7/188 346/5/10 348/8/188
f 347/7/187 351/9/189 349/8/187
f 348/8/188 352/10/190 350/7/188
f 349/8/187 351/9/189 353/10/189
f 350/7/188 352/10/190 354/9/190
f 351/9/189 355/11/191 353/10/189
f 352/10/190 356/12/192 354/9/190
f 353/10/189 355/11/191 357/12/191
f 354/9/190 356/12/192 358/11/192
f 355/11/191 359/13/193 357/12/191
f 356/12/192 360/14/194 358/11/192
f 357/12/191 359/13/193 361/14/195
f 358/11/192 360/14/194 362/13/194
f 359/13/193 363/15/196 361/14/195
f 361/14/195 363/15/196 364/16/196
f 362/13/194 360/14/194 365/15/197
f 365/15/197 360/14/194 366/16/197
f 367/16/20 368/15/198 369/16/20
f 369/16/20 368/15/198 370/15/198
f 368/15/198 371/13/199 370/15/198
f 370/15/198 371/13/199 372/13/199
f 371/13/199 373/11/200 372/13/199
f 372/13/199 373/11/200 374/11/200
f 373/11/200 375/9/201 374/11/200
f 374/11/200 375/9/201 376/9/201
f 377/12/202 378/10/203 379/12/202
f 380/14/204 377/12/202 379/12/202
f 379/12/202 378/10/203 381/10/203
f 382/14/204 377/12/202 380/14/204
f 383/16/205 382/14/204 380/14/204
f 384/16/206 382/14/204 383/16/205
f 385/1/1 386/2/2 387/3/1
f 388/4/7 385/1/1 387/3/1
f 387/3/1 386/2/2 389/4/2
f 390/2/7 385/1/1 388/4/7
f 386/2/2 391/5/3 389/4/2
f 392/6/10 390/2/7 388/4/7
f 389/4/2 391/5/3 393/6/3
f 394/5/10 390/2/7 392/6/10
f 391/5/3 395/7/207 393/6/3
f 396/8/208 394/5/10 392/6/10
f 393/6/3 395/7/207 397/8/207
f 398/7/208 394/5/10 396/8/208
f 397/8/207 395/7/207 399/10/209
f 398/7/208 396/8/208 400/9/210
f 399/10/209 395/7/207 401/9/211
f 400/9/210 396/8/208 402/10/212
f 399/10/209 401/9/211 403/12/213
f 400/9/210 402/10/212 404/11/214
f 403/12/213 401/9/211 405/11/213
f 404/11/214 402/10/212 406/12/214
f 405/11/213 407/13/215 403/12/213
f 404/11/214 406/12/214 408/13/216
f 403/12/213 407/13/215 409/14/217
f 408/13/216 406/12/214 410/14/218
f 407/13/215 411/15/219 409/14/217
f 409/14/217 411/15/219 412/16/219
f 408/13/216 410/14/218 413/15/220
f 413/15/220 410/14/218 414/16/220
f 415/16/20 416/15/221 417/16/20
f 417/16/20 416/15/221 418/15/221
f 418/15/221 416/15/221 419/13/222
f 419/13/222 416/15/221 420/13/222
f 419/13/222 420/13/222 421/11/223
f 421/11/223 420/13/222 422/11/224
f 421/11/223 422/11/224 423/9/225
f 423/9/225 422/11/224 424/9/226
f 425/12/227 426/12/227 427/10/228
f 425/12/227 428/14/229 426/12/227
f 427/10/228 426/12/227 429/10/228
f 430/14/229 428/14/229 425/12/227
f 430/14/229 431/16/230 428/14/229
f 432/16/231 431/16/230 430/14/229
f 433/1/1 434/2/2 435/3/1
f 436/4/7 433/1/1 435/3/1
f 435/3/1 434/2/2 437/4/2
f 438/2/7 433/1/1 436/4/7
f 434/2/2 439/5/3 437/4/2
f 440/6/10 438/2/7 436/4/7
f 437/4/2 439/5/3 441/6/3
f 442/5/10 438/2/7 440/6/10
f 439/5/3 443/7/232 441/6/3
f 444/8/233 442/5/10 440/6/10
f 441/6/3 443/7/232 445/8/232
f 446/7/233 442/5/10 444/8/233
f 443/7/232 447/9/234 445/8/232
f 444/8/233 448/10/235 446/7/233
f 445/8/232 447/9/234 449/10/234
f 446/7/233 448/10/235 450/9/236
f 449/10/234 447/9/234 451/12/237
f 448/10/235 452/12/238 450/9/236
f 451/12/237 447/9/234 453/11/237
f 450/9/236 452/12/238 454/11/239
f 451/12/237 453/11/237 455/14/240
f 452/12/238 456/14/241 454/11/239
f 455/14/240 453/11/237 457/13/240
f 454/11/239 456/14/241 458/13/242
f 455/14/240 457/13/240 459/16/243
f 459/16/243 457/13/240 460/15/243
f 456/14/241 461/16/244 458/13/242
f 458/13/242 461/16/244 462/15/245
f 463/16/20 464/15/246 465/16/20
f 465/16/20 464/15/246 466/15/247
f 464/15/246 467/13/248 466/15/247
f 466/15/247 467/13/248 468/13/248
f 467/13/248 469/11/249 468/13/248
f 468/13/248 469/11/249 470/11/249
f 469/11/249 471/9/250 470/11/249
f 470/11/249 471/9/250 472/9/250
f 473/12/251 474/12/251 475/10/252
f 473/12/251 476/14/253 474/12/251
f 475/10/252 474/12/251 477/10/252
f 478/14/253 476/14/253 473/12/251
f 478/14/253 479/16/254 476/14/253
f 480/16/255 479/16/254 478/14/253
f 481/1/1 482/2/2 483/3/1
f 484/4/7 481/1/1 483/3/1
f 483/3/1 482/2/2 485/4/2
f 486/2/7 481/1/1 484/4/7
f 482/2/2 487/5/3 485/4/2
f 488/6/10 486/2/7 484/4/7
f 485/4/2 487/5/3 489/6/3
f 490/5/10 486/2/7 488/6/10
f 487/5/3 491/7/256 489/6/3
f 492/8/257 490/5/10 488/6/10
f 489/6/3 491/7/256 493/8/256
f 494/7/257 490/5/10 492/8/257
f 493/8/256 491/7/256 495/10/258
f 494/7/257 492/8/257 496/9/259
f 495/10/258 491/7/256 497/9/260
f 496/9/259 492/8/257 498/10/261
f 495/10/258 497/9/260 499/12/262
f 496/9/259 498/10/261 500/11/263
f 499/12/262 497/9/260 501/11/262
f 500/11/263 498/10/261 502/12/263
f 499/12/262 501/11/262 503/14/264
f 500/11/263 502/12/263 504/13/265
f 503/14/264 501/11/262 505/13/264
f 504/13/265 502/12/263 506/14/265
f 503/14/264 505/13/264 507/16/266
f 507/16/266 505/13/264 508/15/266
f 504/13/265 506/14/265 509/15/267
f 509/15/267 506/14/265 510/16/268
f 511/16/20 512/15/269 513/16/20
f 513/16/20 512/15/269 514/15/269
f 514/15/269 512/15/269 515/13/270
f 515/13/270 512/15/269 516/13/270
f 515/13/270 516/13/270 517/11/271
f 517/11/271 516/13/270 518/11/271
f 517/11/271 518/11/271 519/9/272
f 519/9/272 518/11/271 520/9/272
f 521/12/273 522/12/273 523/10/274
f 521/12/273 524/14/275 522/12/273
f 523/10/274 522/12/273 525/10/274
f 526/14/276 524/14/275 521/12/273
f 526/14/276 527/16/277 524/14/275
f 528/16/278 527/16/277 526/14/276
f 529/1/1 530/2/2 531/3/1
f 532/4/7 529/1/1 531/3/1
f 531/3/1 530/2/2 533/4/2
f 534/2/7 529/1/1 532/4/7
f 530/2/2 535/5/3 533/4/2
f 536/6/10 534/2/7 532/4/7
f 533/4/2 535/5/3 537/6/3
f 538/5/10 534/2/7 536/6/10
f 535/5/3 539/7/279 537/6/3
f 540/8/280 538/5/10 536/6/10
f 537/6/3 539/7/279 541/8/281
f 542/7/282 538/5/10 540/8/280
f 539/7/279 543/9/283 541/8/281
f 540/8/280 544/10/284 542/7/282
f 541/8/281 543/9/283 545/10/285
f 542/7/282 544/10/284 546/9/284
f 543/9/283 547/11/286 545/10/285
f 544/10/284 548/12/287 546/9/284
f 545/10/285 547/11/286 549/12/286
f 546/9/284 548/12/287 550/11/288
f 547/11/286 551/13/289 549/12/286
f 550/11/288 548/12/287 552/13/290
f 549/12/286 551/13/289 553/14/289
f 552/13/290 548/12/287 554/14/290
f 551/13/289 555/15/291 553/14/289
f 553/14/289 555/15/291 556/16/291
f 552/13/290 554/14/290 557/15/292
f 557/15/292 554/14/290 558/16/292
f 559/16/20 560/15/293 561/16/20
f 561/16/20 560/15/293 562/15/294
f 560/15/293 563/13/295 562/15/294
f 562/15/294 563/13/295 564/13/296
f 563/13/295 565/11/297 564/13/296
f 564/13/296 565/11/297 566/11/297
f 565/11/297 567/9/298 566/11/297
f 566/11/297 567/9/298 568/9/298
f 569/12/299 570/10/300 571/12/299
f 572/14/301 569/12/299 571/12/299
f 571/12/299 570/10/300 573/10/300
f 574/14/301 569/12/299 572/14/301
f 575/16/302 574/14/301 572/14/301
f 576/16/302 574/14/301 575/16/302
