# Blender 4.1.1
# www.blender.org
mtllib curtains.mtl
o Curtins_room:elements:bonnTrash_curtain_green
v 0.099019 0.048021 -0.022052
v 0.098920 0.047939 -0.021439
v 0.098435 0.048021 -0.022032
v 0.099059 0.048107 -0.022623
v 0.098331 0.047939 -0.021344
v 0.099649 0.048107 -0.022718
v 0.098976 0.048160 -0.022608
v 0.098502 0.048021 -0.020728
v 0.099841 0.058593 -0.022401
v 0.098341 0.048074 -0.022027
v 0.099083 0.048021 -0.020822
v 0.099112 0.058593 -0.022283
v 0.099096 0.048242 -0.020306
v 0.098248 0.047992 -0.021329
v 0.098415 0.058593 -0.021718
v 0.099678 0.048242 -0.020400
v 0.098410 0.048074 -0.020712
v 0.099194 0.048315 -0.019731
v 0.098487 0.058593 -0.021047
v 0.099005 0.048295 -0.020290
v 0.098518 0.073023 -0.021291
v 0.099794 0.048315 -0.019760
v 0.099301 0.073023 -0.021835
v 0.098467 0.058593 -0.020435
v 0.099484 0.048242 -0.019051
v 0.099463 0.085438 -0.021449
v 0.098818 0.073023 -0.020658
v 0.099161 0.058593 -0.020057
v 0.098900 0.048242 -0.019087
v 0.098546 0.073023 -0.020052
v 0.099109 0.048368 -0.019726
v 0.098606 0.085438 -0.020923
v 0.098314 0.048033 -0.018663
v 0.099103 0.085438 -0.020322
v 0.099595 0.095557 -0.021134
v 0.099377 0.058593 -0.019578
v 0.098614 0.085438 -0.019723
v 0.098677 0.095557 -0.020623
v 0.098976 0.058593 -0.018964
v 0.099376 0.073023 -0.019735
v 0.098787 0.048295 -0.019094
v 0.099335 0.095557 -0.020049
v 0.097915 0.048033 -0.018712
v 0.097832 0.058593 -0.018581
v 0.098669 0.095557 -0.019454
v 0.099561 0.085438 -0.019457
v 0.097872 0.073023 -0.018381
v 0.099748 0.073023 -0.019374
v 0.098005 0.047985 -0.018273
v 0.099237 0.073023 -0.018785
v 0.099712 0.095557 -0.019231
v 0.097906 0.085438 -0.018210
v 0.097545 0.047985 -0.018199
v 0.100066 0.085438 -0.019197
v 0.097804 0.048086 -0.018726
v 0.100326 0.095557 -0.019054
v 0.099462 0.085438 -0.018630
v 0.098040 0.048033 -0.017975
v 0.099645 0.095557 -0.018504
v 0.097934 0.095557 -0.018069
v 0.098336 0.048033 -0.018090
v 0.097461 0.048038 -0.018185
v 0.098563 0.048153 -0.017935
v 0.097451 0.058593 -0.018060
v 0.097926 0.048086 -0.017930
v 0.097426 0.085438 -0.017739
v 0.097416 0.095557 -0.017618
v 0.098452 0.048206 -0.017893
v 0.097947 0.058593 -0.017828
v 0.098002 0.085438 -0.017566
v 0.097977 0.073023 -0.017687
v 0.098023 0.095557 -0.017467
v 0.098589 0.058593 -0.017816
v 0.097438 0.073023 -0.017887
v 0.098942 0.085438 -0.017619
v 0.099075 0.095557 -0.017544
v 0.098670 0.048262 -0.017678
v 0.098779 0.073023 -0.017710
v 0.098876 0.085438 -0.017310
v 0.098807 0.073023 -0.017432
v 0.098751 0.048209 -0.017705
v 0.098932 0.095557 -0.017209
v 0.098727 0.058593 -0.017575
v 0.098974 0.048153 -0.018090
v 0.099403 0.085438 -0.017158
v 0.099201 0.073023 -0.017201
v 0.098795 0.048299 -0.017288
v 0.099568 0.095557 -0.017123
v 0.098965 0.058593 -0.017251
v 0.099327 0.048209 -0.017887
v 0.098828 0.058593 -0.016746
v 0.098879 0.048246 -0.017294
v 0.099232 0.085438 -0.016784
v 0.099477 0.048246 -0.017337
v 0.099045 0.073023 -0.016766
v 0.098671 0.048206 -0.016731
v 0.099269 0.048153 -0.016716
v 0.099385 0.095557 -0.016799
v 0.097832 0.058593 -0.016208
v 0.098772 0.048153 -0.016728
v 0.097828 0.095557 -0.016294
v 0.097831 0.073023 -0.016241
v 0.097829 0.085438 -0.016270
v 0.098443 0.048059 -0.016098
v 0.097833 0.048112 -0.016183
v 0.097927 0.048059 -0.016170
v 0.097123 0.073023 -0.015449
v 0.097210 0.058593 -0.015323
v 0.097048 0.085438 -0.015557
v 0.097947 0.048010 -0.015341
v 0.097274 0.048063 -0.015233
v 0.096986 0.095557 -0.015645
v 0.097367 0.048010 -0.015247
v 0.097692 0.073023 -0.014996
v 0.097901 0.085438 -0.015152
v 0.097946 0.048010 -0.014791
v 0.097449 0.058593 -0.014814
v 0.097357 0.048010 -0.014696
v 0.098071 0.095557 -0.015280
v 0.097706 0.048059 -0.014160
v 0.097273 0.048063 -0.014683
v 0.097248 0.085438 -0.014399
v 0.098174 0.048059 -0.014338
v 0.097371 0.073023 -0.014308
v 0.098775 0.048231 -0.013719
v 0.097616 0.048112 -0.014126
v 0.097875 0.085438 -0.014048
v 0.099323 0.048231 -0.013886
v 0.098141 0.073023 -0.013928
v 0.099229 0.048320 -0.013225
v 0.097513 0.058593 -0.014203
v 0.097658 0.095557 -0.014145
v 0.098674 0.048284 -0.013688
v 0.099183 0.095557 -0.014082
v 0.098450 0.058593 -0.013789
v 0.099175 0.085438 -0.013897
v 0.097148 0.095557 -0.014473
v 0.099144 0.048373 -0.013212
v 0.099164 0.073023 -0.013669
v 0.099152 0.058593 -0.013404
v 0.099497 0.095557 -0.013445
v 0.099211 0.048231 -0.012300
v 0.099205 0.058593 -0.012553
v 0.099417 0.085438 -0.013200
v 0.099799 0.048231 -0.012302
v 0.099123 0.048284 -0.012301
v 0.098875 0.095557 -0.012971
v 0.099817 0.048320 -0.013320
v 0.098795 0.085438 -0.012690
v 0.099173 0.048107 -0.011722
v 0.098236 0.095557 -0.012411
v 0.099319 0.073023 -0.012901
v 0.098581 0.058593 -0.011946
v 0.098598 0.048107 -0.011665
v 0.098696 0.073023 -0.012346
v 0.099022 0.048107 -0.011132
v 0.098260 0.085438 -0.012115
v 0.098499 0.048160 -0.011656
v 0.098323 0.058593 -0.011330
v 0.098289 0.073023 -0.011752
v 0.098978 0.095557 -0.012080
v 0.098348 0.048160 -0.011025
v 0.098959 0.085438 -0.011800
v 0.098910 0.058593 -0.011057
v 0.098434 0.048107 -0.011037
v 0.099805 0.085438 -0.011760
v 0.098936 0.073023 -0.011456
v 0.099872 0.095557 -0.012059
v 0.098891 0.048160 -0.010768
v 0.098967 0.095557 -0.011794
v 0.099722 0.073023 -0.011393
v 0.098955 0.085438 -0.011495
v 0.099626 0.058593 -0.010966
v 0.099557 0.048160 -0.010658
v 0.098296 0.095557 -0.011446
v 0.099059 0.048107 -0.010794
v 0.098327 0.085438 -0.011138
v 0.098922 0.058593 -0.010704
v 0.099564 0.048107 -0.010876
v 0.098475 0.095548 -0.011183
v 0.098909 0.048160 -0.010396
v 0.099641 0.048107 -0.010670
v 0.098501 0.085428 -0.010854
v 0.098411 0.058593 -0.010321
v 0.099009 0.095532 -0.011004
v 0.098443 0.048160 -0.010004
v 0.099111 0.048107 -0.010427
v 0.099010 0.085412 -0.010653
v 0.098573 0.058583 -0.009982
v 0.099998 0.085438 -0.010566
v 0.098600 0.048151 -0.009643
v 0.098534 0.073013 -0.010451
v 0.100053 0.095557 -0.010941
v 0.098538 0.048107 -0.010017
v 0.098366 0.073023 -0.010760
v 0.100342 0.085438 -0.010792
v 0.099117 0.048107 -0.010111
v 0.100244 0.073023 -0.010340
v 0.100422 0.095557 -0.011161
v 0.098690 0.048099 -0.009665
v 0.099930 0.073023 -0.010105
v 0.098939 0.073023 -0.011129
v 0.099014 0.048135 -0.009360
v 0.099013 0.058568 -0.009722
v 0.099012 0.072998 -0.010223
v 0.099220 0.048107 -0.009801
v 0.099795 0.048160 -0.009181
v 0.099111 0.048087 -0.009402
v 0.099548 0.048107 -0.009598
v 0.099852 0.058593 -0.009569
v 0.099852 0.048107 -0.009236
v 0.099583 0.048107 -0.010503
v 0.100048 0.048107 -0.009432
v 0.100131 0.058593 -0.009814
v 0.100230 0.048107 -0.010765
v 0.100335 0.085438 -0.021589
v 0.100107 0.073023 -0.021965
v 0.100521 0.095557 -0.021283
v 0.097702 0.047920 -0.085591
v 0.097603 0.047830 -0.084979
v 0.097119 0.047927 -0.085571
v 0.097743 0.048181 -0.086163
v 0.097014 0.047837 -0.084884
v 0.098332 0.048174 -0.086258
v 0.097661 0.048235 -0.086147
v 0.097185 0.047926 -0.084268
v 0.098815 0.058574 -0.085515
v 0.097026 0.047981 -0.085567
v 0.097767 0.047920 -0.084362
v 0.098086 0.058582 -0.085405
v 0.097779 0.048098 -0.083846
v 0.096932 0.047891 -0.084869
v 0.097390 0.058589 -0.084877
v 0.098361 0.048091 -0.083940
v 0.097877 0.048199 -0.083271
v 0.097461 0.058589 -0.084251
v 0.098675 0.073007 -0.084855
v 0.098477 0.048192 -0.083299
v 0.097095 0.047980 -0.084251
v 0.097892 0.073016 -0.084360
v 0.098167 0.048195 -0.082590
v 0.097690 0.048152 -0.083830
v 0.097583 0.048202 -0.082627
v 0.097441 0.058589 -0.083679
v 0.098325 0.085428 -0.084059
v 0.098193 0.073012 -0.083784
v 0.099182 0.085418 -0.084540
v 0.097794 0.048253 -0.083266
v 0.098677 0.095545 -0.084163
v 0.098135 0.058581 -0.083326
v 0.098822 0.085422 -0.083508
v 0.099595 0.095535 -0.084673
v 0.097920 0.073015 -0.083232
v 0.098351 0.058579 -0.082879
v 0.099335 0.095538 -0.083589
v 0.098751 0.073006 -0.082943
v 0.097471 0.048256 -0.082633
v 0.098669 0.095545 -0.082994
v 0.097950 0.058583 -0.082306
v 0.098333 0.085428 -0.082958
v 0.096599 0.048068 -0.082252
v 0.096807 0.058596 -0.081948
v 0.099280 0.085417 -0.082715
v 0.096488 0.048122 -0.082265
v 0.097247 0.073023 -0.081711
v 0.099122 0.073002 -0.082614
v 0.096998 0.048063 -0.082202
v 0.096426 0.058600 -0.081462
v 0.098612 0.073008 -0.082078
v 0.096689 0.047975 -0.081813
v 0.099181 0.085418 -0.081957
v 0.096229 0.047980 -0.081738
v 0.097626 0.085435 -0.081571
v 0.099785 0.085412 -0.082477
v 0.096723 0.047974 -0.081515
v 0.097145 0.085441 -0.081140
v 0.097019 0.047971 -0.081630
v 0.096812 0.073028 -0.081261
v 0.099712 0.095534 -0.082770
v 0.097246 0.048061 -0.081475
v 0.097351 0.073022 -0.081079
v 0.097658 0.048056 -0.081630
v 0.096922 0.058595 -0.081245
v 0.097416 0.095559 -0.081157
v 0.097434 0.048193 -0.081244
v 0.097721 0.085434 -0.080981
v 0.098010 0.048187 -0.081426
v 0.096611 0.048028 -0.081470
v 0.098023 0.095552 -0.081006
v 0.097563 0.048292 -0.080834
v 0.096146 0.048034 -0.081724
v 0.097934 0.095553 -0.081609
v 0.098161 0.048285 -0.080877
v 0.097952 0.048288 -0.080255
v 0.099645 0.095535 -0.082044
v 0.097455 0.048293 -0.080268
v 0.097355 0.048247 -0.081218
v 0.097137 0.048115 -0.081433
v 0.097480 0.048346 -0.080827
v 0.100326 0.095527 -0.082593
v 0.097126 0.048105 -0.079637
v 0.097702 0.058586 -0.081009
v 0.097564 0.058587 -0.081234
v 0.096610 0.048111 -0.079710
v 0.097940 0.058583 -0.080707
v 0.096631 0.047928 -0.078880
v 0.098182 0.073012 -0.080847
v 0.098153 0.073013 -0.081100
v 0.096051 0.047934 -0.078787
v 0.097356 0.048347 -0.080270
v 0.096629 0.047898 -0.078330
v 0.098661 0.085424 -0.081030
v 0.096518 0.048165 -0.079723
v 0.098595 0.085425 -0.080746
v 0.097803 0.058585 -0.080235
v 0.096806 0.058596 -0.079733
v 0.098932 0.095542 -0.080749
v 0.099122 0.085419 -0.080608
v 0.099074 0.095541 -0.081083
v 0.097205 0.073023 -0.079762
v 0.096498 0.073031 -0.079041
v 0.098420 0.073010 -0.080240
v 0.099568 0.095535 -0.080663
v 0.098575 0.073008 -0.080637
v 0.097139 0.085441 -0.079140
v 0.097920 0.085432 -0.079794
v 0.099384 0.095537 -0.080338
v 0.098951 0.085421 -0.080265
v 0.097067 0.073025 -0.078628
v 0.098126 0.095551 -0.079834
v 0.097992 0.085431 -0.078769
v 0.097284 0.095561 -0.079185
v 0.098368 0.095549 -0.078819
v 0.097339 0.085439 -0.078078
v 0.097445 0.095559 -0.078012
v 0.096745 0.073028 -0.078002
v 0.097966 0.085432 -0.077757
v 0.097516 0.073020 -0.077656
v 0.096423 0.058600 -0.078431
v 0.097955 0.095553 -0.077685
v 0.098539 0.073009 -0.077420
v 0.096488 0.058599 -0.077861
v 0.098894 0.085422 -0.077618
v 0.096301 0.047985 -0.077666
v 0.096185 0.058603 -0.078907
v 0.099183 0.095540 -0.077622
v 0.099136 0.085419 -0.076980
v 0.097359 0.048155 -0.077228
v 0.095958 0.047958 -0.078222
v 0.097425 0.058589 -0.077474
v 0.095959 0.047989 -0.078772
v 0.096041 0.047904 -0.078235
v 0.097828 0.048317 -0.076752
v 0.096389 0.047931 -0.077699
v 0.098127 0.058581 -0.077115
v 0.098179 0.058581 -0.076320
v 0.096857 0.047926 -0.077877
v 0.097808 0.048317 -0.075841
v 0.097459 0.048101 -0.077258
v 0.098694 0.073007 -0.076721
v 0.098006 0.048095 -0.077425
v 0.097556 0.058588 -0.075754
v 0.097912 0.048263 -0.076764
v 0.097183 0.048165 -0.075196
v 0.098514 0.085426 -0.076512
v 0.097894 0.048263 -0.075840
v 0.097298 0.058590 -0.075179
v 0.098875 0.095543 -0.076511
v 0.097033 0.048054 -0.074564
v 0.097664 0.073018 -0.075675
v 0.097281 0.048111 -0.075204
v 0.099497 0.095536 -0.076984
v 0.097884 0.058584 -0.074924
v 0.097856 0.048104 -0.075262
v 0.097575 0.048048 -0.074308
v 0.098311 0.073011 -0.075406
v 0.097118 0.048000 -0.074577
v 0.097705 0.047994 -0.074671
v 0.098242 0.048146 -0.074197
v 0.098482 0.048257 -0.075842
v 0.098600 0.058576 -0.074839
v 0.097742 0.047993 -0.074334
v 0.097979 0.085432 -0.075985
v 0.098500 0.048257 -0.076860
v 0.098071 0.073014 -0.076216
v 0.098678 0.085424 -0.075696
v 0.098247 0.047988 -0.074415
v 0.098236 0.095550 -0.075950
v 0.098324 0.048092 -0.074209
v 0.098913 0.048085 -0.074304
v 0.097794 0.048098 -0.073966
v 0.098978 0.095542 -0.075620
v 0.098266 0.048092 -0.074043
v 0.097594 0.048153 -0.073935
v 0.099524 0.085415 -0.075660
v 0.097800 0.047919 -0.073650
v 0.097896 0.058584 -0.074594
v 0.099097 0.073002 -0.075348
v 0.099872 0.095532 -0.075599
v 0.097222 0.047926 -0.073557
v 0.098967 0.095542 -0.075334
v 0.097373 0.047862 -0.073204
v 0.098674 0.085424 -0.075417
v 0.097128 0.047980 -0.073543
v 0.097385 0.058589 -0.074237
v 0.098296 0.095549 -0.074985
v 0.098314 0.073011 -0.075108
v 0.098047 0.085431 -0.075089
v 0.097547 0.058578 -0.073920
v 0.098474 0.095538 -0.074722
v 0.097285 0.047915 -0.073183
v 0.097741 0.073017 -0.074771
v 0.097698 0.047948 -0.072900
v 0.097909 0.073006 -0.074490
v 0.098220 0.085419 -0.074829
v 0.097987 0.058558 -0.073678
v 0.099008 0.095517 -0.074544
v 0.098729 0.085398 -0.074645
v 0.098480 0.048069 -0.072721
v 0.098386 0.072985 -0.074282
v 0.097794 0.047899 -0.072942
v 0.098826 0.058574 -0.073534
v 0.097904 0.047865 -0.073340
v 0.099105 0.058571 -0.073763
v 0.099717 0.085412 -0.074565
v 0.098232 0.047915 -0.073138
v 0.099305 0.073000 -0.074175
v 0.098535 0.048015 -0.072775
v 0.100053 0.095530 -0.074481
v 0.098731 0.048013 -0.072971
v 0.099619 0.072997 -0.074389
v 0.100061 0.085409 -0.074773
v 0.100421 0.095526 -0.074701
v 0.100054 0.085409 -0.084669
v 0.099481 0.072998 -0.084974
v 0.100521 0.095525 -0.084823
vn -0.0136 -0.9903 -0.1386
vn 0.0040 -1.0000 -0.0003
vn -0.2679 -0.9228 -0.2770
vn -0.2595 -0.6595 -0.7055
vn -0.2592 -0.9657 0.0175
vn -0.1165 -0.6393 -0.7601
vn -0.4673 -0.2193 -0.8564
vn -0.1715 -0.9051 0.3891
vn -0.1594 0.0328 -0.9867
vn -0.7799 -0.4297 -0.4552
vn 0.0423 -0.9642 0.2619
vn -0.4065 0.0324 -0.9131
vn -0.1795 -0.9091 0.3759
vn -0.8732 -0.4849 0.0487
vn -0.9270 0.0235 -0.3742
vn 0.0381 -0.9657 0.2569
vn -0.6781 -0.4550 0.5772
vn -0.2440 -0.9694 -0.0278
vn -0.9993 0.0135 0.0358
vn -0.6596 -0.4454 0.6054
vn -0.9632 0.0213 -0.2680
vn 0.0065 -1.0000 0.0051
vn -0.3756 0.0325 -0.9262
vn -0.8706 -0.0008 0.4919
vn 0.0183 -0.9661 -0.2573
vn -0.3489 0.0326 -0.9366
vn -0.9998 0.0139 0.0139
vn -0.7188 -0.0035 0.6952
vn -0.1606 -0.8848 -0.4374
vn -0.9189 0.0030 0.3945
vn -0.8543 -0.5100 -0.1003
vn -0.9848 0.0190 -0.1728
vn 0.0164 -0.9659 -0.2585
vn -0.9999 0.0139 0.0048
vn -0.3373 0.0326 -0.9409
vn -0.9974 0.0209 -0.0693
vn -0.9504 0.0062 0.3110
vn -0.9911 0.0180 -0.1321
vn -0.6073 0.0220 -0.7942
vn -0.5472 -0.0090 0.8370
vn -0.5347 -0.3932 -0.7480
vn -0.9999 0.0137 0.0042
vn -0.1604 -0.8764 -0.4540
vn -0.5875 0.0127 -0.8091
vn -0.9609 0.0075 0.2769
vn -0.3767 -0.0137 0.9262
vn -0.5405 0.0129 -0.8413
vn -0.9993 0.0183 0.0314
vn 0.0181 -0.9996 0.0238
vn -0.5444 0.0213 -0.8386
vn -0.3018 -0.0155 0.9532
vn -0.4987 0.0130 -0.8667
vn -0.1748 -0.9816 0.0775
vn -0.9917 0.0157 0.1279
vn -0.5122 -0.3836 -0.7685
vn -0.9852 0.0143 0.1709
vn -0.4901 0.0207 -0.8714
vn 0.0121 -0.8418 0.5396
vn -0.4668 0.0204 -0.8841
vn -0.4803 0.0131 -0.8770
vn 0.1049 -0.9475 0.3020
vn -0.7581 -0.6141 0.2195
vn 0.0005 -0.8602 0.5099
vn -0.9686 -0.0010 0.2485
vn -0.1791 -0.3639 0.9141
vn -0.9709 -0.0004 0.2394
vn -0.9716 -0.0003 0.2367
vn -0.3105 -0.4075 0.8588
vn -0.2222 -0.0092 0.9750
vn -0.1202 -0.0098 0.9927
vn -0.1659 -0.0096 0.9861
vn -0.1011 -0.0098 0.9948
vn -0.5193 -0.0026 0.8546
vn -0.9696 -0.0007 0.2445
vn -0.7498 0.0014 0.6617
vn -0.7893 0.0022 0.6140
vn -0.7119 -0.4802 0.5125
vn -0.6466 -0.0005 0.7629
vn -0.8558 0.0051 0.5173
vn -0.8422 0.0046 0.5391
vn -0.1848 -0.9508 0.2486
vn -0.8639 0.0054 0.5037
vn -0.8401 0.0044 0.5423
vn 0.1154 -0.9431 0.3118
vn -0.9123 0.0087 0.4094
vn -0.9457 0.0098 0.3249
vn -0.8624 -0.5022 0.0636
vn -0.9002 0.0083 0.4354
vn -0.9818 0.0113 0.1894
vn 0.0371 -0.9915 0.1246
vn -0.7807 0.0094 -0.6248
vn -0.2562 -0.9663 -0.0235
vn -0.6813 0.0084 -0.7319
vn 0.0047 -0.9991 -0.0417
vn -0.7317 0.0089 -0.6816
vn -0.6793 -0.4498 -0.5798
vn 0.0038 -0.9889 -0.1486
vn -0.6568 0.0082 -0.7540
vn -0.6597 -0.0020 -0.7516
vn -0.2145 -0.9273 -0.3067
vn -0.4922 -0.0028 -0.8705
vn -0.5884 -0.0024 -0.8086
vn -0.5221 -0.0027 -0.8529
vn 0.0052 -0.9949 -0.1009
vn -0.6085 -0.4323 -0.6654
vn -0.2092 -0.9291 -0.3048
vn -0.9980 0.0039 0.0627
vn -0.9960 0.0021 -0.0890
vn -0.9902 0.0051 0.1397
vn -0.0006 -0.9996 -0.0295
vn -0.8410 -0.5045 -0.1953
vn -0.9872 0.0055 0.1591
vn -0.2568 -0.9612 -0.1010
vn -0.9722 0.0068 0.2341
vn -0.9781 0.0067 0.2081
vn 0.0111 -0.9990 0.0429
vn -0.9649 0.0070 0.2624
vn -0.2387 -0.9648 0.1106
vn -0.9799 0.0066 0.1995
vn -0.1314 -0.9286 0.3470
vn -0.8323 -0.4905 0.2583
vn -0.9826 -0.0031 0.1858
vn 0.0459 -0.9883 0.1453
vn -0.9330 -0.0000 0.3598
vn -0.1086 -0.9125 0.3944
vn -0.5741 -0.4593 0.6779
vn -0.3124 0.0063 0.9499
vn 0.0507 -0.9839 0.1712
vn -0.3547 0.0057 0.9350
vn -0.2258 -0.9673 0.1151
vn -0.8130 0.0032 0.5822
vn -0.3020 0.0063 0.9533
vn -0.4184 -0.4206 0.8050
vn -0.5853 0.0149 0.8107
vn -0.4417 0.0044 0.8972
vn -0.6306 0.0139 0.7760
vn -0.9927 -0.0044 0.1209
vn -0.7706 -0.5130 0.3783
vn -0.7316 0.0113 0.6816
vn -0.8409 0.0076 0.5411
vn -0.9681 -0.0020 -0.2505
vn -0.2564 -0.9338 -0.2497
vn -0.9341 -0.0040 -0.3571
vn -0.9619 -0.0024 -0.2733
vn -0.0092 -0.9885 -0.1508
vn -0.7906 -0.4668 -0.3962
vn -0.6583 -0.0170 -0.7526
vn 0.0122 -0.9997 0.0234
vn -0.6884 -0.0161 -0.7252
vn -0.0054 -0.9944 -0.1054
vn -0.9849 0.0065 0.1729
vn -0.9482 -0.0033 -0.3177
vn -0.8216 -0.0112 -0.5700
vn -0.2492 -0.9396 -0.2347
vn -0.7541 -0.0139 -0.6566
vn -0.0000 -1.0000 -0.0000
vn -0.9790 0.0074 0.2036
vn -0.7441 -0.4572 -0.4871
vn -0.9340 0.0119 0.3571
vn -0.9615 0.0095 0.2746
vn -0.2260 0.0278 0.9737
vn -0.7405 -0.5663 0.3618
vn -0.2340 0.0278 0.9718
vn -0.2757 0.0276 0.9609
vn -0.1994 -0.9728 0.1182
vn -0.9919 0.0053 0.1267
vn -0.2529 0.0277 0.9671
vn -0.9917 0.0049 0.1285
vn -0.2634 -0.3723 0.8900
vn -0.3852 -0.0271 -0.9225
vn -0.9926 0.0055 0.1216
vn -0.4003 -0.0269 -0.9160
vn -0.9934 0.0056 0.1149
vn -0.6352 -0.7709 0.0459
vn -0.9690 -0.0089 -0.2470
vn -0.1055 -0.9255 0.3637
vn -0.9687 -0.0090 -0.2479
vn -0.4762 -0.0257 -0.8789
vn -0.6229 0.0241 0.7819
vn -0.4545 -0.3888 -0.8014
vn -0.1458 -0.9893 0.0042
vn -0.6444 0.0235 0.7643
vn -0.9711 -0.0088 -0.2386
vn -0.2096 0.0338 0.9772
vn -0.7918 -0.5695 -0.2207
vn -0.1871 -0.9235 -0.3347
vn -0.2328 0.0337 0.9719
vn -0.7336 0.0206 0.6793
vn 0.2449 0.0334 0.9690
vn -0.6617 -0.5007 0.5582
vn -0.6894 0.0221 0.7241
vn 0.2402 0.0335 0.9701
vn -0.2161 -0.9731 -0.0799
vn -0.9692 -0.0090 -0.2461
vn 0.5529 0.0270 0.8328
vn 0.0023 -1.0000 -0.0071
vn 0.6026 0.0253 0.7976
vn 0.5308 0.0276 0.8470
vn -0.1970 -0.9699 0.1433
vn 0.2552 0.0331 0.9663
vn -0.4354 -0.0264 -0.8998
vn -0.3359 -0.4475 0.8288
vn -0.3454 0.0325 0.9379
vn -0.2859 0.0332 0.9577
vn 0.0089 -0.9995 -0.0310
vn 0.1468 -0.2893 0.9459
vn -0.1047 -0.9591 0.2630
vn 0.0173 -0.9993 -0.0328
vn 0.2656 0.0328 0.9635
vn 0.2572 -0.7678 0.5868
vn 0.5035 -0.6983 0.5088
vn 0.6569 0.0234 0.7536
vn -0.0382 -0.9587 -0.2819
vn -0.0065 -1.0000 -0.0003
vn -0.2778 -0.8792 -0.3871
vn -0.2427 -0.5350 -0.8093
vn -0.2715 -0.9623 0.0179
vn -0.1232 -0.5055 -0.8540
vn -0.4431 -0.1479 -0.8842
vn -0.1888 -0.9103 0.3684
vn -0.1490 0.0604 -0.9870
vn -0.7801 -0.3800 -0.4970
vn 0.0271 -0.9720 0.2336
vn -0.3906 0.0643 -0.9183
vn -0.1939 -0.9085 0.3702
vn -0.8831 -0.4664 0.0503
vn -0.9236 0.0587 -0.3788
vn 0.0242 -0.9693 0.2447
vn -0.2555 -0.9657 0.0461
vn -0.9985 0.0398 0.0375
vn -0.3507 0.0428 -0.9355
vn -0.0025 -0.9967 0.0815
vn -0.6836 -0.4523 0.5728
vn -0.9610 0.0488 -0.2723
vn 0.0021 -0.9891 -0.1471
vn -0.6601 -0.4409 0.6082
vn -0.1847 -0.9181 -0.3507
vn -0.8668 0.0141 0.4985
vn -0.9843 0.0418 -0.1716
vn -0.9990 0.0416 0.0146
vn -0.3302 0.0185 -0.9437
vn -0.8654 -0.4971 -0.0630
vn -0.9907 0.0373 -0.1311
vn -0.7030 0.0057 0.7112
vn -0.9991 0.0429 0.0049
vn -0.3257 0.0004 -0.9455
vn -0.9183 0.0281 0.3948
vn -0.9961 0.0495 -0.0725
vn -0.9990 0.0441 0.0041
vn -0.5186 0.0047 0.8550
vn -0.5544 -0.3964 -0.7317
vn -0.9616 0.0397 0.2715
vn -0.5889 0.0469 -0.8069
vn -0.9519 0.0359 0.3044
vn -0.1747 -0.8747 -0.4520
vn -0.5696 0.0363 -0.8211
vn -0.3545 0.0108 0.9350
vn -0.5125 -0.3667 -0.7764
vn -0.5125 0.0272 -0.8582
vn -0.9985 0.0461 0.0298
vn -0.0007 -0.9688 -0.2478
vn -0.9690 0.0247 0.2459
vn -0.5164 0.0355 -0.8556
vn -0.0138 -0.9946 -0.1026
vn -0.4682 0.0228 -0.8833
vn -0.2056 -0.9783 -0.0263
vn -0.4769 0.0174 -0.8788
vn -0.9909 0.0465 0.1265
vn -0.0343 -0.8878 0.4590
vn -0.9723 0.0273 0.2323
vn 0.0581 -0.9819 0.1803
vn -0.9711 0.0264 0.2373
vn -0.2886 0.0189 0.9573
vn 0.0222 -0.8217 0.5695
vn -0.1538 -0.0053 0.9881
vn 0.1252 -0.9184 0.3754
vn -0.2125 -0.0099 0.9771
vn -0.9724 0.0278 0.2317
vn -0.1355 -0.9021 0.4098
vn -0.1123 0.0006 0.9937
vn 0.0764 -0.9518 0.2970
vn -0.1997 -0.3882 0.8997
vn -0.0965 0.0055 0.9953
vn -0.2542 -0.9603 0.1153
vn -0.7758 -0.6077 0.1699
vn -0.4663 0.0104 -0.8846
vn 0.0077 -0.9952 0.0971
vn 0.0009 -0.9900 -0.1414
vn -0.4528 0.0141 -0.8915
vn -0.2209 -0.9315 -0.2889
vn -0.6739 -0.4375 0.5953
vn -0.2825 -0.3820 0.8799
vn -0.8633 -0.4849 0.1401
vn -0.9845 0.0486 0.1683
vn -0.0010 -0.9689 -0.2474
vn -0.8281 0.0240 0.5601
vn -0.5113 0.0055 0.8594
vn -0.2034 -0.8837 -0.4216
vn -0.9806 0.0376 0.1924
vn -0.0174 -0.9907 -0.1352
vn -0.8291 0.0272 0.5585
vn -0.6427 0.0170 0.7660
vn -0.2691 -0.9432 -0.1947
vn -0.6917 -0.4355 -0.5762
vn -0.0085 -1.0000 -0.0009
vn -0.7531 0.0267 0.6574
vn -0.5884 -0.3905 -0.7080
vn -0.8519 0.0310 0.5228
vn -0.7682 0.0323 -0.6394
vn -0.6412 0.0164 -0.7672
vn -0.8637 0.0337 0.5029
vn -0.9124 0.0367 0.4076
vn -0.7931 0.0322 0.6083
vn -0.5691 0.0201 -0.8220
vn -0.9972 0.0448 0.0607
vn -0.7200 0.0304 -0.6933
vn -0.9012 0.0382 0.4317
vn -0.9439 0.0360 0.3284
vn -0.9897 0.0431 0.1367
vn -0.5276 0.0165 -0.8493
vn -0.6762 0.0226 -0.7364
vn -0.6887 0.0267 -0.7246
vn -0.9696 0.0462 0.2402
vn -0.5136 0.0075 -0.8580
vn -0.9774 0.0476 0.2059
vn -0.9876 0.0213 0.1558
vn -0.9800 0.0287 0.1969
vn -0.9825 0.0333 0.1833
vn -0.9927 0.0112 0.1202
vn -0.9308 0.0399 0.3634
vn -0.3065 0.0089 0.9518
vn -0.3364 0.0199 0.9415
vn -0.9615 0.0347 0.2725
vn -0.3013 -0.0029 0.9535
vn -0.7230 0.0325 0.6901
vn -0.8067 0.0306 0.5902
vn -0.6289 0.0238 0.7771
vn -0.5815 -0.4442 0.6816
vn -0.9953 0.0299 -0.0918
vn -0.5857 0.0160 0.8103
vn -0.9597 0.0283 -0.2795
vn -0.4043 -0.3908 0.8269
vn -0.8466 -0.4724 0.2450
vn -0.4243 0.0238 0.9052
vn -0.8458 -0.4756 -0.2415
vn -0.2597 -0.9631 0.0701
vn -0.7628 -0.4819 0.4312
vn -0.1455 -0.9296 0.3385
vn -0.8340 0.0358 0.5505
vn -0.9298 0.0162 -0.3678
vn 0.0328 -0.9903 0.1349
vn -0.8010 -0.4556 -0.3884
vn -0.0995 -0.8887 0.4476
vn -0.9438 0.0223 -0.3298
vn 0.0552 -0.9706 0.2341
vn -0.8071 0.0025 -0.5904
vn -0.2184 -0.9522 0.2134
vn -0.7307 -0.4257 -0.5337
vn -0.6641 0.0137 -0.7475
vn -0.2677 -0.9358 -0.2293
vn -0.9330 0.0451 0.3571
vn -0.6419 0.0218 -0.7665
vn -0.7697 -0.5512 0.3219
vn -0.9619 0.0367 0.2709
vn -0.2621 -0.9027 -0.3413
vn -0.9669 0.0325 -0.2531
vn -0.2627 0.0524 0.9635
vn -0.0298 -0.9734 -0.2271
vn -0.2456 -0.3163 0.9163
vn -0.2340 0.0350 0.9716
vn -0.2212 -0.9748 0.0303
vn -0.0232 -0.9953 -0.0942
vn -0.6558 -0.7464 0.1129
vn -0.0177 -0.9908 -0.1344
vn -0.9937 0.0331 0.1070
vn -0.0781 -0.8597 0.5047
vn -0.9796 0.0300 0.1988
vn 0.0185 -0.9917 0.1273
vn -0.7267 0.0053 -0.6869
vn -0.2204 0.0150 0.9753
vn 0.0251 -0.9748 0.2215
vn -0.9851 0.0256 0.1700
vn -0.1216 -0.9766 0.1772
vn 0.0251 -0.9749 0.2214
vn -0.2080 -0.8234 -0.5279
vn -0.2177 -0.0001 0.9760
vn -0.0514 -0.9662 -0.2525
vn -0.4276 -0.3321 -0.8407
vn -0.9924 0.0319 0.1187
vn -0.0636 -0.9419 -0.3298
vn -0.4556 -0.0309 -0.8897
vn -0.9932 0.0325 0.1114
vn -0.9918 0.0317 0.1240
vn -0.2596 -0.9004 -0.3492
vn -0.3715 0.0181 -0.9283
vn -0.2007 -0.9699 0.1380
vn -0.3788 0.0030 -0.9255
vn -0.7956 -0.4991 -0.3435
vn -0.9705 0.0133 -0.2408
vn -0.9688 0.0266 -0.2463
vn -0.4070 -0.0162 -0.9133
vn -0.9687 0.0227 -0.2473
vn -0.7162 0.0558 0.6957
vn -0.6101 0.0072 0.7923
vn -0.6721 -0.4737 0.5691
vn -0.9688 0.0177 -0.2471
vn -0.2986 -0.3922 0.8700
vn -0.6633 0.0419 0.7472
vn -0.6240 0.0223 0.7811
vn -0.3313 0.0631 0.9414
vn -0.2011 -0.0041 0.9796
vn -0.2183 0.0154 0.9757
vn 0.1686 -0.2393 0.9562
vn -0.2648 0.0415 0.9634
vn -0.0373 -0.9198 0.3905
vn 0.2559 0.0481 0.9655
vn 0.0080 -0.9995 -0.0312
vn 0.6367 0.0240 0.7707
vn 0.2334 0.0025 0.9724
vn 0.0888 -0.9870 0.1338
vn 0.2407 0.0274 0.9702
vn 0.3094 -0.6843 0.6603
vn 0.2329 -0.0164 0.9724
vn 0.5201 -0.6161 0.5915
vn 0.5701 0.0111 0.8215
vn 0.5274 -0.0083 0.8496
vn 0.5143 -0.0243 0.8573
vn -0.1495 0.0118 -0.9887
vn -0.1462 0.0374 -0.9886
vn -0.1533 -0.0073 -0.9882
vt -0.489177 -3.860919
vt -0.412481 -3.860919
vt -0.486682 -3.860919
vt -0.588842 -3.860919
vt -0.400569 -3.860919
vt -0.651396 -3.860919
vt -0.586933 -3.851115
vt -0.323462 -3.860918
vt -0.611694 -1.924450
vt -0.486083 -3.851113
vt -0.335229 -3.860919
vt -0.546310 -1.924450
vt -0.270630 -3.860919
vt -0.398680 -3.851113
vt -0.447398 -1.924450
vt -0.282405 -3.860919
vt -0.321433 -3.851113
vt -0.198654 -3.860919
vt -0.363412 -1.924449
vt -0.268637 -3.851114
vt -0.393892 0.740343
vt -0.202195 -3.860919
vt -0.490122 0.740344
vt -0.286777 -1.924450
vt -0.113432 -3.860919
vt -0.441781 3.033084
vt -0.314631 0.740344
vt -0.239443 -1.924449
vt -0.118043 -3.860919
vt -0.238847 0.740343
vt -0.198051 -3.851114
vt -0.347857 3.033084
vt -0.042354 -3.860918
vt -0.272661 3.033084
vt -0.402377 4.901970
vt -0.179514 -1.924449
vt -0.197608 3.033084
vt -0.310332 4.901970
vt -0.102620 -1.924449
vt -0.199067 0.740344
vt -0.118866 -3.851113
vt -0.238449 4.901970
vt -0.048600 -3.860919
vt -0.032173 -1.924450
vt -0.163992 4.901970
vt -0.164328 3.033084
vt -0.007158 0.740344
vt -0.153875 0.740344
vt 0.006405 -3.860918
vt -0.080150 0.740343
vt -0.136014 4.901970
vt 0.014362 3.033084
vt 0.015709 -3.860919
vt -0.131816 3.033084
vt -0.050260 -3.851113
vt -0.113836 4.901971
vt -0.060817 3.033084
vt 0.066196 -3.860919
vt -0.045060 4.901971
vt 0.031906 4.901970
vt 0.051817 -3.860919
vt 0.017491 -3.851113
vt 0.121809 -3.860919
vt 0.033106 -1.924449
vt 0.071827 -3.851113
vt 0.073283 3.033084
vt 0.088430 4.901969
vt 0.127105 -3.851113
vt 0.084605 -1.924449
vt 0.117489 3.033084
vt 0.102281 0.740343
vt 0.129884 4.901969
vt 0.136728 -1.924449
vt 0.054702 0.740344
vt 0.161490 3.033084
vt 0.170825 4.901971
vt 0.187741 -3.851113
vt 0.150038 0.740343
vt 0.233931 3.033084
vt 0.218548 0.740344
vt 0.184445 -3.860919
vt 0.246472 4.901969
vt 0.200668 -1.924449
vt 0.102407 -3.860919
vt 0.280981 3.033084
vt 0.275591 0.740344
vt 0.264794 -3.851113
vt 0.285377 4.901970
vt 0.269325 -1.924450
vt 0.161671 -3.860918
vt 0.332667 -1.924449
vt 0.264000 -3.860919
vt 0.327851 3.033084
vt 0.258579 -3.860919
vt 0.330077 0.740343
vt 0.334538 -3.851113
vt 0.336390 -3.860919
vt 0.326037 4.901971
vt 0.399991 -1.924449
vt 0.334859 -3.860919
vt 0.389198 4.901970
vt 0.395779 0.740344
vt 0.392154 3.033084
vt 0.413764 -3.860919
vt 0.403039 -3.851113
vt 0.404699 -3.860919
vt 0.494985 0.740343
vt 0.510713 -1.924449
vt 0.481452 3.033084
vt 0.508523 -3.860919
vt 0.522085 -3.851113
vt 0.470423 4.901971
vt 0.520253 -3.860919
vt 0.551716 0.740343
vt 0.532144 3.033084
vt 0.577375 -3.860919
vt 0.574466 -1.924449
vt 0.589282 -3.860919
vt 0.516191 4.901971
vt 0.656387 -3.860919
vt 0.590912 -3.851113
vt 0.626476 3.033084
vt 0.634116 -3.860919
vt 0.637829 0.740343
vt 0.739762 -3.860919
vt 0.660569 -3.851113
vt 0.698541 3.033084
vt 0.718815 -3.860919
vt 0.713528 0.740344
vt 0.852528 -3.860919
vt 0.651028 -1.924449
vt 0.686323 4.901971
vt 0.743541 -3.851113
vt 0.745174 4.901969
vt 0.730947 -1.924450
vt 0.768435 3.033084
vt 0.617221 4.901969
vt 0.854124 -3.851113
vt 0.796973 0.740344
vt 0.830141 -1.924449
vt 0.825025 4.901971
vt 0.968305 -3.860919
vt 0.936675 -1.924449
vt 0.855593 3.033084
vt 0.968021 -3.860919
vt 0.968188 -3.851113
vt 0.884312 4.901969
vt 0.840622 -3.860919
vt 0.919452 3.033084
vt 1.040692 -3.860919
vt 0.954434 4.901969
vt 0.893092 0.740344
vt 1.012671 -1.924449
vt 1.047840 -3.860919
vt 0.962564 0.740344
vt 1.114559 -3.860919
vt 0.991491 3.033084
vt 1.048896 -3.851113
vt 1.089785 -1.924450
vt 1.036949 0.740344
vt 1.023978 4.901969
vt 1.127986 -3.851113
vt 1.059043 3.033084
vt 1.152062 -1.924449
vt 1.126437 -3.860919
vt 1.097821 3.027458
vt 1.102062 0.740343
vt 1.060352 4.896345
vt 1.188212 -3.851115
vt 1.127311 4.896345
vt 1.143788 0.734718
vt 1.164688 3.027458
vt 1.197215 -1.930076
vt 1.235841 -3.856739
vt 1.170914 4.896343
vt 1.184989 -3.860919
vt 1.209462 3.027458
vt 1.263836 -1.930075
vt 1.174774 -3.860919
vt 1.203851 4.894567
vt 1.302370 -3.856740
vt 1.234328 -3.866545
vt 1.244993 3.025678
vt 1.311718 -1.930076
vt 1.254328 4.891710
vt 1.351459 -3.856735
vt 1.298480 -3.866545
vt 1.298265 3.022826
vt 1.354132 -1.931855
vt 1.342991 3.027458
vt 1.396548 -3.858501
vt 1.295467 0.732940
vt 1.295936 4.896344
vt 1.349742 -3.866545
vt 1.256753 0.734718
vt 1.387735 3.027458
vt 1.338038 -3.866545
vt 1.444385 0.734718
vt 1.341559 4.896344
vt 1.393905 -3.868069
vt 1.400714 0.734717
vt 1.210541 0.734718
vt 1.460108 -3.861373
vt 1.414814 -1.934707
vt 1.352167 0.730085
vt 1.376845 -3.866545
vt 1.516314 -3.856743
vt 1.454886 -3.870337
vt 1.430317 -3.866545
vt 1.467806 -1.930076
vt 1.509476 -3.866545
vt 1.288944 -3.866545
vt 1.484938 -3.866545
vt 1.510228 -1.930075
vt 1.222417 -3.866545
vt -0.510054 3.033084
vt -0.557059 0.740343
vt -0.471737 4.901969
vt -0.467192 -3.681069
vt -0.394908 -3.680878
vt -0.464841 -3.679942
vt -0.588128 -3.681148
vt -0.383680 -3.679739
vt -0.668166 -3.682287
vt -0.586329 -3.671636
vt -0.311006 -3.680069
vt -0.580464 -1.835830
vt -0.464275 -3.670408
vt -0.322096 -3.681194
vt -0.498683 -1.834421
vt -0.230632 -3.681218
vt -0.381899 -3.670226
vt -0.382888 -1.833072
vt -0.241732 -3.682344
vt -0.139860 -3.681409
vt -0.308988 -1.833210
vt -0.433866 0.706653
vt -0.143198 -3.682568
vt -0.309092 -3.670540
vt -0.321908 0.708168
vt -0.059538 -3.681968
vt -0.228754 -3.671690
vt -0.063884 -3.680840
vt -0.241555 -1.833172
vt -0.286321 2.894606
vt -0.253888 0.707588
vt -0.396674 2.892947
vt -0.139293 -3.671894
vt -0.298630 4.676841
vt -0.169328 -1.834514
vt -0.221358 2.893644
vt -0.412384 4.675065
vt -0.188849 0.708114
vt -0.093661 -1.834933
vt -0.230880 4.675569
vt -0.124133 0.706508
vt -0.064659 -3.671268
vt -0.160704 4.676858
vt -0.026001 -1.834156
vt -0.156519 2.894590
vt 0.010936 -3.678936
vt 0.046763 -1.831945
vt -0.097191 2.892757
vt 0.009371 -3.669367
vt 0.074763 0.709416
vt -0.062414 0.705789
vt 0.016823 -3.679708
vt 0.127136 -1.831208
vt 0.000856 0.706776
vt 0.085712 -3.679110
vt 0.015170 2.892950
vt 0.094481 -3.678220
vt 0.091255 2.895958
vt -0.046167 2.891781
vt 0.120856 -3.679177
vt 0.165092 2.896887
vt 0.107303 -3.679749
vt 0.150785 0.710256
vt -0.103756 4.674839
vt 0.171416 -3.680188
vt 0.172305 0.709214
vt 0.153129 -3.680984
vt 0.152650 -1.832167
vt 0.163021 4.679278
vt 0.221569 -3.680552
vt 0.183839 2.895772
vt 0.200105 -3.681665
vt 0.126162 -3.669603
vt 0.180882 4.678106
vt 0.270039 -3.680799
vt 0.096160 -3.668705
vt 0.086812 4.678278
vt 0.264928 -3.681956
vt 0.338267 -3.681552
vt 0.004903 4.674968
vt 0.336823 -3.680591
vt 0.224676 -3.671041
vt 0.176407 -3.670621
vt 0.270787 -3.671285
vt -0.059918 4.673653
vt 0.441771 -3.679955
vt 0.249322 -1.833675
vt 0.199828 -1.833408
vt 0.433228 -3.678957
vt 0.284982 -1.834136
vt 0.531081 -3.678998
vt 0.268465 0.707608
vt 0.215704 0.707663
vt 0.542138 -3.677876
vt 0.336520 -3.671044
vt 0.595974 -3.678994
vt 0.223977 2.893956
vt 0.431662 -3.669424
vt 0.280333 2.894083
vt 0.340718 -1.833871
vt 0.430536 -1.831944
vt 0.280030 4.676349
vt 0.296678 2.893064
vt 0.217613 4.676071
vt 0.427003 0.709496
vt 0.512139 0.710865
vt 0.340038 0.707147
vt 0.290186 4.675118
vt 0.293277 0.706847
vt 0.500446 2.896898
vt 0.423301 2.895388
vt 0.328509 4.675473
vt 0.337169 2.893394
vt 0.560825 0.709765
vt 0.418618 4.677907
vt 0.544239 2.895249
vt 0.495172 4.679536
vt 0.538308 4.677438
vt 0.625733 2.896512
vt 0.633529 4.679223
vt 0.634728 0.710387
vt 0.701913 2.895299
vt 0.713775 0.708896
vt 0.584058 -1.831204
vt 0.710370 4.678238
vt 0.779868 0.706917
vt 0.651425 -1.831328
vt 0.756485 2.893506
vt 0.674386 -3.669005
vt 0.527962 -1.830741
vt 0.756022 4.675862
vt 0.854718 2.893035
vt 0.764299 -3.671050
vt 0.608733 -3.668342
vt 0.735219 -1.833140
vt 0.543864 -3.668342
vt 0.607197 -3.677856
vt 0.858708 -3.671958
vt 0.670445 -3.678531
vt 0.815875 -1.834498
vt 0.932550 -1.834600
vt 0.649454 -3.679435
vt 0.989147 -3.671918
vt 0.760736 -3.680599
vt 0.885292 0.706618
vt 0.740992 -3.681658
vt 0.999420 -1.833394
vt 0.857203 -3.681476
vt 1.065215 -3.670711
vt 0.909886 2.894240
vt 0.989258 -3.681441
vt 1.082563 -1.832895
vt 0.910093 4.676458
vt 1.155047 -3.670420
vt 1.024039 0.708609
vt 1.064221 -3.680255
vt 0.854216 4.675254
vt 1.135543 -1.834028
vt 1.057483 -3.681367
vt 1.208233 -3.671471
vt 1.078712 0.707358
vt 1.153587 -3.679940
vt 1.142393 -3.681076
vt 1.259533 -3.672758
vt 0.988991 -3.682577
vt 1.183794 -1.835415
vt 1.205195 -3.681147
vt 0.987411 2.895274
vt 0.845982 -3.682614
vt 0.944911 0.707822
vt 1.044403 2.893921
vt 1.195568 -3.682123
vt 0.991475 4.677693
vt 1.258105 -3.682273
vt 1.246880 -3.683411
vt 1.317333 -3.681248
vt 1.053441 4.676260
vt 1.308346 -3.682160
vt 1.320999 -3.671505
vt 1.086964 2.892286
vt 1.377552 -3.681259
vt 1.243293 -1.834052
vt 1.123776 0.705838
vt 1.094133 4.674530
vt 1.388583 -3.680140
vt 1.156006 4.676280
vt 1.430207 -3.681886
vt 1.146150 2.893930
vt 1.390200 -3.670599
vt 1.308359 -1.833064
vt 1.220036 4.677578
vt 1.182673 0.707352
vt 1.207765 2.895144
vt 1.345679 -1.835074
vt 1.251079 4.675538
vt 1.432697 -3.672590
vt 1.245266 0.708462
vt 1.511958 -3.676128
vt 1.278491 0.706439
vt 1.238460 2.893110
vt 1.420191 -1.838646
vt 1.318011 4.671780
vt 1.306050 2.889405
vt 1.578986 -3.673222
vt 1.348877 0.702795
vt 1.507037 -3.684863
vt 1.482985 -1.835850
vt 1.414127 -3.681460
vt 1.547695 -1.836390
vt 1.361395 2.891913
vt 1.483880 -3.682094
vt 1.407439 0.705436
vt 1.572541 -3.682680
vt 1.371279 4.674180
vt 1.549414 -3.683060
vt 1.473888 0.704829
vt 1.428602 2.891248
vt 1.437083 4.673468
vt -0.480717 2.891262
vt -0.516660 0.705094
vt -0.498837 4.673275
s 1
g Curtins_room:elements:bonnTrash_curtain_green_room:elements:bonnTrash_curtain_green
usemtl room:elements:bonnTrash_curtain_green
f 1/1/1 2/2/2 3/3/3
f 4/4/4 1/1/1 3/3/3
f 3/3/3 2/2/2 5/5/5
f 6/6/6 1/1/1 4/4/4
f 4/4/4 3/3/3 7/7/7
f 2/2/2 8/8/8 5/5/5
f 6/6/6 4/4/4 9/9/9
f 4/4/4 7/7/7 9/9/9
f 7/7/7 3/3/3 10/10/10
f 11/11/11 8/8/8 2/2/2
f 3/3/3 5/5/5 10/10/10
f 12/12/12 9/9/9 7/7/7
f 11/11/11 13/13/13 8/8/8
f 10/10/10 5/5/5 14/14/14
f 7/7/7 15/15/15 12/12/12
f 16/16/16 13/13/13 11/11/11
f 10/10/10 15/15/15 7/7/7
f 14/14/14 5/5/5 17/17/17
f 17/17/17 5/5/5 8/8/8
f 16/16/16 18/18/18 13/13/13
f 10/10/10 19/19/19 15/15/15
f 14/14/14 17/17/17 19/19/19
f 17/17/17 8/8/8 20/20/20
f 13/13/13 18/18/18 20/20/20
f 14/14/14 19/19/19 10/10/10
f 15/15/15 19/19/19 21/21/21
f 20/20/20 8/8/8 13/13/13
f 22/22/22 18/18/18 16/16/16
f 12/12/12 15/15/15 23/23/23
f 23/23/23 15/15/15 21/21/21
f 17/17/17 20/20/20 24/24/24
f 19/19/19 17/17/17 24/24/24
f 22/22/22 25/25/25 18/18/18
f 23/23/23 21/21/21 26/26/26
f 19/19/19 24/24/24 27/27/27
f 24/24/24 20/20/20 28/28/28
f 18/18/18 25/25/25 29/29/29
f 21/21/21 19/19/19 27/27/27
f 24/24/24 28/28/28 30/30/30
f 20/20/20 18/18/18 31/31/31
f 18/18/18 29/29/29 31/31/31
f 21/21/21 27/27/27 32/32/32
f 20/20/20 31/31/31 28/28/28
f 27/27/27 24/24/24 30/30/30
f 26/26/26 21/21/21 32/32/32
f 25/25/25 33/33/33 29/29/29
f 27/27/27 30/30/30 34/34/34
f 26/26/26 32/32/32 35/35/35
f 28/28/28 31/31/31 36/36/36
f 32/32/32 27/27/27 34/34/34
f 34/34/34 30/30/30 37/37/37
f 35/35/35 32/32/32 38/38/38
f 31/31/31 39/39/39 36/36/36
f 32/32/32 34/34/34 38/38/38
f 30/30/30 40/40/40 37/37/37
f 28/28/28 36/36/36 40/40/40
f 41/41/41 39/39/39 31/31/31
f 31/31/31 29/29/29 41/41/41
f 30/30/30 28/28/28 40/40/40
f 34/34/34 37/37/37 42/42/42
f 38/38/38 34/34/34 42/42/42
f 29/29/29 43/43/43 41/41/41
f 41/41/41 44/44/44 39/39/39
f 42/42/42 37/37/37 45/45/45
f 37/37/37 40/40/40 46/46/46
f 29/29/29 33/33/33 43/43/43
f 44/44/44 47/47/47 39/39/39
f 37/37/37 46/46/46 45/45/45
f 40/40/40 48/48/48 46/46/46
f 33/33/33 49/49/49 43/43/43
f 39/39/39 47/47/47 50/50/50
f 40/40/40 36/36/36 48/48/48
f 45/45/45 46/46/46 51/51/51
f 36/36/36 39/39/39 48/48/48
f 47/47/47 52/52/52 50/50/50
f 43/43/43 49/49/49 53/53/53
f 46/46/46 54/54/54 51/51/51
f 46/46/46 48/48/48 54/54/54
f 48/48/48 39/39/39 50/50/50
f 43/43/43 53/53/53 55/55/55
f 51/51/51 54/54/54 56/56/56
f 50/50/50 57/57/57 48/48/48
f 50/50/50 52/52/52 57/57/57
f 49/49/49 58/58/58 53/53/53
f 48/48/48 57/57/57 54/54/54
f 54/54/54 59/59/59 56/56/56
f 52/52/52 60/60/60 57/57/57
f 61/61/61 58/58/58 49/49/49
f 57/57/57 59/59/59 54/54/54
f 55/55/55 53/53/53 62/62/62
f 57/57/57 60/60/60 59/59/59
f 61/61/61 63/63/63 58/58/58
f 62/62/62 64/64/64 55/55/55
f 62/62/62 53/53/53 65/65/65
f 52/52/52 66/66/66 60/60/60
f 65/65/65 53/53/53 58/58/58
f 62/62/62 65/65/65 64/64/64
f 55/55/55 64/64/64 44/44/44
f 60/60/60 66/66/66 67/67/67
f 65/65/65 58/58/58 68/68/68
f 68/68/68 58/58/58 63/63/63
f 64/64/64 65/65/65 69/69/69
f 55/55/55 44/44/44 41/41/41
f 65/65/65 68/68/68 69/69/69
f 66/66/66 70/70/70 67/67/67
f 41/41/41 43/43/43 55/55/55
f 44/44/44 64/64/64 47/47/47
f 66/66/66 71/71/71 70/70/70
f 67/67/67 70/70/70 72/72/72
f 69/69/69 68/68/68 73/73/73
f 47/47/47 64/64/64 74/74/74
f 74/74/74 71/71/71 66/66/66
f 70/70/70 75/75/75 72/72/72
f 69/69/69 73/73/73 71/71/71
f 64/64/64 69/69/69 74/74/74
f 52/52/52 74/74/74 66/66/66
f 47/47/47 74/74/74 52/52/52
f 72/72/72 75/75/75 76/76/76
f 74/74/74 69/69/69 71/71/71
f 68/68/68 77/77/77 73/73/73
f 71/71/71 78/78/78 70/70/70
f 70/70/70 78/78/78 75/75/75
f 75/75/75 79/79/79 76/76/76
f 63/63/63 77/77/77 68/68/68
f 71/71/71 73/73/73 78/78/78
f 78/78/78 80/80/80 75/75/75
f 75/75/75 80/80/80 79/79/79
f 81/81/81 77/77/77 63/63/63
f 76/76/76 79/79/79 82/82/82
f 73/73/73 83/83/83 78/78/78
f 78/78/78 83/83/83 80/80/80
f 73/73/73 77/77/77 83/83/83
f 84/84/84 81/81/81 63/63/63
f 79/79/79 85/85/85 82/82/82
f 80/80/80 86/86/86 79/79/79
f 77/77/77 87/87/87 83/83/83
f 77/77/77 81/81/81 87/87/87
f 79/79/79 86/86/86 85/85/85
f 82/82/82 85/85/85 88/88/88
f 83/83/83 87/87/87 89/89/89
f 83/83/83 89/89/89 80/80/80
f 90/90/90 81/81/81 84/84/84
f 80/80/80 89/89/89 86/86/86
f 84/84/84 63/63/63 61/61/61
f 87/87/87 91/91/91 89/89/89
f 90/90/90 92/92/92 81/81/81
f 89/89/89 91/91/91 86/86/86
f 85/85/85 93/93/93 88/88/88
f 87/87/87 81/81/81 92/92/92
f 94/94/94 92/92/92 90/90/90
f 86/86/86 95/95/95 85/85/85
f 85/85/85 95/95/95 93/93/93
f 86/86/86 91/91/91 95/95/95
f 96/96/96 91/91/91 87/87/87
f 94/94/94 97/97/97 92/92/92
f 88/88/88 93/93/93 98/98/98
f 96/96/96 99/99/99 91/91/91
f 92/92/92 100/100/100 87/87/87
f 92/92/92 97/97/97 100/100/100
f 93/93/93 101/101/101 98/98/98
f 87/87/87 100/100/100 96/96/96
f 99/99/99 102/102/102 91/91/91
f 91/91/91 102/102/102 95/95/95
f 103/103/103 101/101/101 93/93/93
f 97/97/97 104/104/104 100/100/100
f 105/105/105 99/99/99 96/96/96
f 102/102/102 103/103/103 95/95/95
f 95/95/95 103/103/103 93/93/93
f 100/100/100 104/104/104 106/106/106
f 96/96/96 106/106/106 105/105/105
f 102/102/102 107/107/107 103/103/103
f 105/105/105 108/108/108 99/99/99
f 100/100/100 106/106/106 96/96/96
f 99/99/99 108/108/108 102/102/102
f 102/102/102 108/108/108 107/107/107
f 103/103/103 109/109/109 101/101/101
f 104/104/104 110/110/110 106/106/106
f 111/111/111 108/108/108 105/105/105
f 103/103/103 107/107/107 109/109/109
f 101/101/101 109/109/109 112/112/112
f 106/106/106 110/110/110 113/113/113
f 106/106/106 113/113/113 105/105/105
f 105/105/105 113/113/113 111/111/111
f 107/107/107 114/114/114 109/109/109
f 109/109/109 115/115/115 112/112/112
f 110/110/110 116/116/116 113/113/113
f 111/111/111 117/117/117 108/108/108
f 109/109/109 114/114/114 115/115/115
f 108/108/108 117/117/117 107/107/107
f 113/113/113 116/116/116 118/118/118
f 113/113/113 118/118/118 111/111/111
f 107/107/107 117/117/117 114/114/114
f 112/112/112 115/115/115 119/119/119
f 116/116/116 120/120/120 118/118/118
f 121/121/121 117/117/117 111/111/111
f 114/114/114 122/122/122 115/115/115
f 123/123/123 120/120/120 116/116/116
f 111/111/111 118/118/118 121/121/121
f 124/124/124 122/122/122 114/114/114
f 117/117/117 124/124/124 114/114/114
f 123/123/123 125/125/125 120/120/120
f 121/121/121 118/118/118 126/126/126
f 121/121/121 126/126/126 117/117/117
f 124/124/124 127/127/127 122/122/122
f 128/128/128 125/125/125 123/123/123
f 126/126/126 118/118/118 120/120/120
f 129/129/129 127/127/127 124/124/124
f 128/128/128 130/130/130 125/125/125
f 117/117/117 126/126/126 131/131/131
f 131/131/131 129/129/129 124/124/124
f 127/127/127 132/132/132 122/122/122
f 133/133/133 120/120/120 125/125/125
f 126/126/126 133/133/133 131/131/131
f 131/131/131 124/124/124 117/117/117
f 127/127/127 134/134/134 132/132/132
f 126/126/126 120/120/120 133/133/133
f 131/131/131 133/133/133 135/135/135
f 135/135/135 129/129/129 131/131/131
f 136/136/136 134/134/134 127/127/127
f 122/122/122 132/132/132 137/137/137
f 133/133/133 138/138/138 135/135/135
f 129/129/129 136/136/136 127/127/127
f 133/133/133 125/125/125 138/138/138
f 122/122/122 137/137/137 115/115/115
f 139/139/139 136/136/136 129/129/129
f 135/135/135 139/139/139 129/129/129
f 138/138/138 125/125/125 130/130/130
f 115/115/115 137/137/137 119/119/119
f 135/135/135 138/138/138 140/140/140
f 140/140/140 139/139/139 135/135/135
f 136/136/136 141/141/141 134/134/134
f 130/130/130 142/142/142 138/138/138
f 138/138/138 143/143/143 140/140/140
f 139/139/139 144/144/144 136/136/136
f 144/144/144 141/141/141 136/136/136
f 130/130/130 145/145/145 142/142/142
f 146/146/146 143/143/143 138/138/138
f 144/144/144 147/147/147 141/141/141
f 148/148/148 145/145/145 130/130/130
f 138/138/138 142/142/142 146/146/146
f 149/149/149 147/147/147 144/144/144
f 148/148/148 130/130/130 128/128/128
f 145/145/145 150/150/150 142/142/142
f 149/149/149 151/151/151 147/147/147
f 152/152/152 149/149/149 144/144/144
f 146/146/146 153/153/153 143/143/143
f 142/142/142 150/150/150 154/154/154
f 155/155/155 149/149/149 152/152/152
f 142/142/142 154/154/154 146/146/146
f 153/153/153 155/155/155 143/143/143
f 150/150/150 156/156/156 154/154/154
f 143/143/143 155/155/155 152/152/152
f 157/157/157 151/151/151 149/149/149
f 158/158/158 153/153/153 146/146/146
f 146/146/146 154/154/154 158/158/158
f 155/155/155 157/157/157 149/149/149
f 152/152/152 144/144/144 139/139/139
f 158/158/158 159/159/159 153/153/153
f 160/160/160 157/157/157 155/155/155
f 143/143/143 152/152/152 140/140/140
f 140/140/140 152/152/152 139/139/139
f 159/159/159 160/160/160 153/153/153
f 157/157/157 161/161/161 151/151/151
f 153/153/153 160/160/160 155/155/155
f 162/162/162 159/159/159 158/158/158
f 163/163/163 161/161/161 157/157/157
f 160/160/160 163/163/163 157/157/157
f 162/162/162 164/164/164 159/159/159
f 162/162/162 158/158/158 165/165/165
f 163/163/163 166/166/166 161/161/161
f 167/167/167 163/163/163 160/160/160
f 164/164/164 167/167/167 159/159/159
f 165/165/165 158/158/158 154/154/154
f 161/161/161 166/166/166 168/168/168
f 159/159/159 167/167/167 160/160/160
f 154/154/154 156/156/156 165/165/165
f 169/169/169 164/164/164 162/162/162
f 166/166/166 170/170/170 168/168/168
f 167/167/167 171/171/171 163/163/163
f 162/162/162 165/165/165 169/169/169
f 163/163/163 171/171/171 166/166/166
f 172/172/172 170/170/170 166/166/166
f 164/164/164 173/173/173 167/167/167
f 169/169/169 174/174/174 164/164/164
f 171/171/171 172/172/172 166/166/166
f 172/172/172 175/175/175 170/170/170
f 167/167/167 173/173/173 171/171/171
f 164/164/164 174/174/174 173/173/173
f 169/169/169 165/165/165 176/176/176
f 156/156/156 176/176/176 165/165/165
f 177/177/177 175/175/175 172/172/172
f 169/169/169 176/176/176 174/174/174
f 174/174/174 178/178/178 173/173/173
f 179/179/156 176/176/176 156/156/156
f 177/177/177 180/180/179 175/175/175
f 181/181/180 178/178/178 174/174/174
f 179/179/156 182/182/181 176/176/176
f 183/183/182 180/180/179 177/177/177
f 181/181/180 184/184/183 178/178/178
f 174/174/174 176/176/176 182/182/181
f 183/183/182 185/185/184 180/180/179
f 186/186/185 184/184/183 181/181/180
f 182/182/181 187/187/186 174/174/174
f 188/188/187 185/185/184 183/183/182
f 186/186/185 189/189/188 184/184/183
f 174/174/174 187/187/186 181/181/180
f 188/188/187 190/190/189 185/185/184
f 191/191/190 189/189/188 186/186/185
f 189/189/188 192/192/191 184/184/183
f 192/192/191 188/188/187 183/183/182
f 185/185/184 190/190/189 193/193/192
f 181/181/180 194/194/193 186/186/185
f 186/186/185 194/194/193 191/191/190
f 187/187/186 194/194/193 181/181/180
f 192/192/191 183/183/182 195/195/194
f 184/184/183 192/192/191 195/195/194
f 190/190/189 196/196/195 193/193/192
f 187/187/186 197/197/196 194/194/193
f 184/184/183 195/195/194 178/178/178
f 190/190/189 198/198/197 196/196/195
f 193/193/192 196/196/195 199/199/198
f 197/197/196 200/200/199 194/194/193
f 191/191/190 194/194/193 200/200/199
f 201/201/200 198/198/197 190/190/189
f 178/178/178 195/195/194 202/202/201
f 191/191/190 200/200/199 203/203/202
f 188/188/187 201/201/200 190/190/189
f 178/178/178 202/202/201 173/173/173
f 203/203/202 204/204/203 191/191/190
f 205/205/204 201/201/200 188/188/187
f 206/206/205 200/200/199 197/197/196
f 203/203/202 207/207/206 204/204/203
f 205/205/204 188/188/187 192/192/191
f 206/206/205 208/208/207 200/200/199
f 203/203/202 200/200/199 208/208/207
f 208/208/207 207/207/206 203/203/202
f 191/191/190 204/204/203 189/189/188
f 189/189/188 205/205/204 192/192/191
f 209/209/208 208/208/207 206/206/205
f 204/204/203 207/207/206 210/210/209
f 204/204/203 205/205/204 189/189/188
f 205/205/204 210/210/209 201/201/200
f 209/209/208 211/211/210 208/208/207
f 211/211/210 207/207/206 208/208/207
f 204/204/203 210/210/209 205/205/204
f 212/212/156 197/197/196 187/187/186
f 213/213/211 211/211/210 209/209/208
f 210/210/209 207/207/206 214/214/212
f 210/210/209 214/214/212 201/201/200
f 182/182/181 212/212/156 187/187/186
f 213/213/211 214/214/212 211/211/210
f 207/207/206 211/211/210 214/214/212
f 201/201/200 214/214/212 198/198/197
f 215/215/156 212/212/156 182/182/181
f 215/215/156 182/182/181 179/179/156
f 26/26/26 35/35/35 216/216/9
f 217/217/9 26/26/26 216/216/9
f 216/216/9 35/35/35 218/218/9
f 23/23/23 26/26/26 217/217/9
f 9/9/9 23/23/23 217/217/9
f 12/12/12 23/23/23 9/9/9
f 195/195/194 183/183/182 177/177/177
f 195/195/194 177/177/177 202/202/201
f 202/202/201 177/177/177 172/172/172
f 202/202/201 172/172/172 171/171/171
f 173/173/173 202/202/201 171/171/171
f 219/219/213 220/220/214 221/221/215
f 222/222/216 219/219/213 221/221/215
f 221/221/215 220/220/214 223/223/217
f 224/224/218 219/219/213 222/222/216
f 222/222/216 221/221/215 225/225/219
f 220/220/214 226/226/220 223/223/217
f 224/224/218 222/222/216 227/227/221
f 222/222/216 225/225/219 227/227/221
f 225/225/219 221/221/215 228/228/222
f 229/229/223 226/226/220 220/220/214
f 221/221/215 223/223/217 228/228/222
f 230/230/224 227/227/221 225/225/219
f 229/229/223 231/231/225 226/226/220
f 228/228/222 223/223/217 232/232/226
f 225/225/219 233/233/227 230/230/224
f 234/234/228 231/231/225 229/229/223
f 228/228/222 233/233/227 225/225/219
f 223/223/217 226/226/220 232/232/226
f 234/234/228 235/235/229 231/231/225
f 232/232/226 236/236/230 228/228/222
f 228/228/222 236/236/230 233/233/227
f 230/230/224 233/233/227 237/237/231
f 230/230/224 237/237/231 227/227/221
f 238/238/232 235/235/229 234/234/228
f 232/232/226 239/239/233 236/236/230
f 232/232/226 226/226/220 239/239/233
f 237/237/231 233/233/227 240/240/234
f 238/238/232 241/241/235 235/235/229
f 233/233/227 236/236/230 240/240/234
f 239/239/233 226/226/220 242/242/236
f 242/242/236 226/226/220 231/231/225
f 235/235/229 241/241/235 243/243/237
f 236/236/230 239/239/233 244/244/238
f 239/239/233 242/242/236 244/244/238
f 240/240/234 245/245/239 237/237/231
f 231/231/225 235/235/229 242/242/236
f 236/236/230 244/244/238 246/246/240
f 240/240/234 246/246/240 245/245/239
f 237/237/231 245/245/239 247/247/241
f 242/242/236 235/235/229 248/248/242
f 240/240/234 236/236/230 246/246/240
f 235/235/229 243/243/237 248/248/242
f 245/245/239 249/249/243 247/247/241
f 244/244/238 242/242/236 250/250/244
f 245/245/239 246/246/240 251/251/245
f 242/242/236 248/248/242 250/250/244
f 245/245/239 251/251/245 249/249/243
f 247/247/241 249/249/243 252/252/246
f 246/246/240 253/253/247 251/251/245
f 244/244/238 250/250/244 253/253/247
f 250/250/244 248/248/242 254/254/248
f 249/249/243 251/251/245 255/255/249
f 246/246/240 244/244/238 253/253/247
f 250/250/244 254/254/248 256/256/250
f 248/248/242 257/257/251 254/254/248
f 248/248/242 243/243/237 257/257/251
f 251/251/245 258/258/252 255/255/249
f 253/253/247 250/250/244 256/256/250
f 254/254/248 257/257/251 259/259/253
f 260/260/254 258/258/252 251/251/245
f 253/253/247 256/256/250 260/260/254
f 243/243/237 261/261/255 257/257/251
f 257/257/251 262/262/256 259/259/253
f 251/251/245 253/253/247 260/260/254
f 260/260/254 256/256/250 263/263/257
f 260/260/254 263/263/257 258/258/252
f 264/264/258 262/262/256 257/257/251
f 257/257/251 261/261/255 264/264/258
f 262/262/256 265/265/259 259/259/253
f 256/256/250 266/266/260 263/263/257
f 256/256/250 254/254/248 266/266/260
f 243/243/237 267/267/261 261/261/255
f 262/262/256 268/268/262 265/265/259
f 264/264/258 268/268/262 262/262/256
f 259/259/253 269/269/263 254/254/248
f 254/254/248 269/269/263 266/266/260
f 267/267/261 270/270/264 261/261/255
f 259/259/253 265/265/259 269/269/263
f 241/241/235 267/267/261 243/243/237
f 269/269/263 271/271/265 266/266/260
f 261/261/255 270/270/264 272/272/266
f 261/261/255 272/272/266 264/264/258
f 265/265/259 273/273/267 269/269/263
f 269/269/263 273/273/267 271/271/265
f 266/266/260 271/271/265 274/274/268
f 270/270/264 275/275/269 272/272/266
f 265/265/259 276/276/270 273/273/267
f 263/263/257 266/266/260 274/274/268
f 277/277/271 275/275/269 270/270/264
f 278/278/272 276/276/270 265/265/259
f 263/263/257 274/274/268 279/279/273
f 277/277/271 280/280/274 275/275/269
f 278/278/272 281/281/275 276/276/270
f 258/258/252 263/263/257 279/279/273
f 282/282/276 280/280/274 277/277/271
f 278/278/272 283/283/277 281/281/275
f 276/276/270 284/284/278 273/273/267
f 282/282/276 285/285/279 280/280/274
f 268/268/262 283/283/277 278/278/272
f 276/276/270 286/286/280 284/284/278
f 276/276/270 281/281/275 286/286/280
f 287/287/281 285/285/279 282/282/276
f 268/268/262 288/288/282 283/283/277
f 284/284/278 286/286/280 289/289/283
f 287/287/281 290/290/284 285/285/279
f 291/291/285 288/288/282 268/268/262
f 273/273/267 284/284/278 292/292/286
f 293/293/287 290/290/284 287/287/281
f 291/291/285 268/268/262 264/264/258
f 273/273/267 292/292/286 271/271/265
f 293/293/287 294/294/288 290/290/284
f 264/264/258 272/272/266 291/291/285
f 291/291/285 272/272/266 288/288/282
f 271/271/265 292/292/286 295/295/289
f 290/290/284 294/294/288 296/296/290
f 285/285/279 290/290/284 297/297/291
f 288/288/282 272/272/266 275/275/269
f 271/271/265 295/295/289 274/274/268
f 285/285/279 297/297/291 280/280/274
f 288/288/282 275/275/269 298/298/292
f 297/297/291 290/290/284 299/299/293
f 290/290/284 296/296/290 299/299/293
f 274/274/268 295/295/289 300/300/294
f 298/298/292 275/275/269 280/280/274
f 280/280/274 297/297/291 298/298/292
f 294/294/288 301/301/295 296/296/290
f 279/279/273 274/274/268 300/300/294
f 297/297/291 299/299/293 302/302/296
f 298/298/292 297/297/291 303/303/297
f 296/296/290 301/301/295 304/304/298
f 303/303/297 297/297/291 302/302/296
f 302/302/296 299/299/293 305/305/299
f 283/283/277 298/298/292 303/303/297
f 301/301/295 306/306/300 304/304/298
f 302/302/296 305/305/299 307/307/301
f 288/288/282 298/298/292 283/283/277
f 303/303/297 302/302/296 308/308/302
f 304/304/298 306/306/300 309/309/303
f 308/308/302 302/302/296 307/307/301
f 299/299/293 310/310/304 305/305/299
f 296/296/290 304/304/298 310/310/304
f 306/306/300 311/311/305 309/309/303
f 308/308/302 307/307/301 312/312/306
f 299/299/293 296/296/290 310/310/304
f 310/310/304 304/304/298 313/313/307
f 304/304/298 309/309/303 313/313/307
f 286/286/280 308/308/302 312/312/306
f 312/312/306 307/307/301 314/314/308
f 305/305/299 310/310/304 315/315/309
f 313/313/307 316/316/310 310/310/304
f 281/281/275 308/308/302 286/286/280
f 314/314/308 317/317/311 312/312/306
f 310/310/304 316/316/310 315/315/309
f 281/281/275 303/303/297 308/308/302
f 314/314/308 318/318/312 317/317/311
f 312/312/306 317/317/311 319/319/313
f 316/316/310 320/320/314 315/315/309
f 283/283/277 303/303/297 281/281/275
f 286/286/280 312/312/306 289/289/283
f 289/289/283 312/312/306 319/319/313
f 316/316/310 321/321/315 320/320/314
f 315/315/309 320/320/314 322/322/316
f 317/317/311 318/318/312 323/323/317
f 314/314/308 324/324/318 318/318/312
f 321/321/315 325/325/319 320/320/314
f 320/320/314 326/326/320 322/322/316
f 318/318/312 327/327/321 323/323/317
f 322/322/316 328/328/322 324/324/318
f 320/320/314 325/325/319 326/326/320
f 328/328/322 327/327/321 318/318/312
f 321/321/315 329/329/323 325/325/319
f 324/324/318 328/328/322 318/318/312
f 322/322/316 326/326/320 328/328/322
f 328/328/322 330/330/324 327/327/321
f 325/325/319 329/329/323 331/331/325
f 307/307/301 324/324/318 314/314/308
f 326/326/320 330/330/324 328/328/322
f 325/325/319 331/331/325 332/332/326
f 307/307/301 305/305/299 324/324/318
f 325/325/319 332/332/326 326/326/320
f 326/326/320 332/332/326 330/330/324
f 305/305/299 322/322/316 324/324/318
f 332/332/326 331/331/325 333/333/327
f 329/329/323 334/334/328 331/331/325
f 315/315/309 322/322/316 305/305/299
f 331/331/325 335/335/329 333/333/327
f 334/334/328 335/335/329 331/331/325
f 336/336/330 334/334/328 329/329/323
f 334/334/328 337/337/331 335/335/329
f 336/336/330 338/338/332 334/334/328
f 334/334/328 338/338/332 337/337/331
f 339/339/333 336/336/330 329/329/323
f 335/335/329 337/337/331 340/340/334
f 338/338/332 341/341/335 337/337/331
f 342/342/336 336/336/330 339/339/333
f 321/321/315 339/339/333 329/329/323
f 337/337/331 343/343/337 340/340/334
f 337/337/331 341/341/335 343/343/337
f 339/339/333 344/344/338 342/342/336
f 345/345/339 339/339/333 321/321/315
f 340/340/334 343/343/337 346/346/340
f 341/341/335 347/347/341 343/343/337
f 344/344/338 348/348/342 342/342/336
f 345/345/339 321/321/315 316/316/310
f 343/343/337 347/347/341 346/346/340
f 349/349/343 344/344/338 339/339/333
f 313/313/307 345/345/339 316/316/310
f 342/342/336 348/348/342 350/350/344
f 349/349/343 339/339/333 351/351/345
f 351/351/345 345/345/339 313/313/307
f 349/349/343 352/352/346 344/344/338
f 348/348/342 353/353/347 350/350/344
f 351/351/345 339/339/333 345/345/339
f 351/351/345 352/352/346 349/349/343
f 344/344/338 352/352/346 354/354/348
f 344/344/338 354/354/348 348/348/342
f 350/350/344 353/353/347 355/355/349
f 313/313/307 309/309/303 351/351/345
f 309/309/303 352/352/346 351/351/345
f 311/311/305 354/354/348 352/352/346
f 350/350/344 355/355/349 338/338/332
f 353/353/347 356/356/350 355/355/349
f 309/309/303 311/311/305 352/352/346
f 357/357/351 354/354/348 311/311/305
f 338/338/332 355/355/349 341/341/335
f 358/358/352 356/356/350 353/353/347
f 357/357/351 359/359/353 354/354/348
f 348/348/342 354/354/348 359/359/353
f 356/356/350 360/360/354 355/355/349
f 355/355/349 360/360/354 341/341/335
f 348/348/342 359/359/353 353/353/347
f 361/361/355 359/359/353 357/357/351
f 358/358/352 362/362/356 356/356/350
f 360/360/354 347/347/341 341/341/335
f 361/361/355 363/363/357 359/359/353
f 353/353/347 359/359/353 363/363/357
f 364/364/358 362/362/356 358/358/352
f 360/360/354 365/365/359 347/347/341
f 363/363/357 366/366/360 353/353/347
f 364/364/358 367/367/361 362/362/356
f 353/353/347 366/366/360 358/358/352
f 365/365/359 368/368/362 347/347/341
f 369/369/363 367/367/361 364/364/358
f 367/367/361 370/370/364 362/362/356
f 366/366/360 371/371/365 358/358/352
f 347/347/341 368/368/362 372/372/366
f 358/358/352 371/371/365 364/364/358
f 367/367/361 373/373/367 370/370/364
f 369/369/363 373/373/367 367/367/361
f 346/346/340 347/347/341 372/372/366
f 366/366/360 374/374/368 371/371/365
f 375/375/369 373/373/367 369/369/363
f 370/370/364 373/373/367 376/376/370
f 369/369/363 364/364/358 377/377/371
f 374/374/368 378/378/372 371/371/365
f 369/369/363 377/377/371 375/375/369
f 375/375/369 379/379/373 373/373/367
f 377/377/371 364/364/358 371/371/365
f 380/380/374 374/374/368 366/366/360
f 371/371/365 378/378/372 377/377/371
f 373/373/367 379/379/373 381/381/375
f 373/373/367 381/381/375 376/376/370
f 363/363/357 380/380/374 366/366/360
f 378/378/372 382/382/376 377/377/371
f 375/375/369 382/382/376 379/379/373
f 370/370/364 376/376/370 383/383/377
f 384/384/378 380/380/374 363/363/357
f 375/375/369 377/377/371 382/382/376
f 370/370/364 383/383/377 385/385/379
f 384/384/378 363/363/357 361/361/355
f 383/383/377 376/376/370 386/386/380
f 387/387/381 382/382/376 378/378/372
f 385/385/379 383/383/377 365/365/359
f 362/362/356 370/370/364 385/385/379
f 383/383/377 386/386/380 388/388/382
f 387/387/381 389/389/383 382/382/376
f 383/383/377 388/388/382 365/365/359
f 362/362/356 385/385/379 356/356/350
f 390/390/384 389/389/383 387/387/381
f 379/379/373 382/382/376 389/389/383
f 365/365/359 388/388/382 368/368/362
f 356/356/350 385/385/379 360/360/354
f 389/389/383 391/391/385 379/379/373
f 385/385/379 365/365/359 360/360/354
f 388/388/382 386/386/380 392/392/386
f 390/390/384 393/393/387 389/389/383
f 389/389/383 393/393/387 391/391/385
f 379/379/373 391/391/385 394/394/388
f 386/386/380 395/395/389 392/392/386
f 393/393/387 396/396/390 391/391/385
f 394/394/388 397/397/391 379/379/373
f 386/386/380 398/398/392 395/395/389
f 392/392/386 395/395/389 399/399/393
f 391/391/385 396/396/390 400/400/394
f 391/391/385 400/400/394 394/394/388
f 376/376/370 398/398/392 386/386/380
f 395/395/389 401/401/395 399/399/393
f 396/396/390 402/402/396 400/400/394
f 376/376/370 381/381/375 398/398/392
f 379/379/373 397/397/391 381/381/375
f 403/403/397 401/401/395 395/395/389
f 394/394/388 400/400/394 404/404/398
f 398/398/392 403/403/397 395/395/389
f 394/394/388 405/405/399 397/397/391
f 403/403/397 406/406/400 401/401/395
f 404/404/398 405/405/399 394/394/388
f 407/407/401 403/403/397 398/398/392
f 397/397/391 407/407/401 381/381/375
f 408/408/402 406/406/400 403/403/397
f 404/404/398 409/409/403 405/405/399
f 381/381/375 407/407/401 398/398/392
f 407/407/401 408/408/402 403/403/397
f 408/408/402 410/410/404 406/406/400
f 411/411/405 409/409/403 404/404/398
f 404/404/398 400/400/394 411/411/405
f 412/412/406 408/408/402 407/407/401
f 405/405/399 412/412/406 397/397/391
f 411/411/405 413/413/407 409/409/403
f 411/411/405 400/400/394 402/402/396
f 397/397/391 412/412/406 407/407/401
f 409/409/403 414/414/408 405/405/399
f 411/411/405 402/402/396 413/413/407
f 415/415/409 410/410/404 408/408/402
f 414/414/408 415/415/409 412/412/406
f 405/405/399 414/414/408 412/412/406
f 409/409/403 413/413/407 416/416/410
f 415/415/409 417/417/411 410/410/404
f 412/412/406 415/415/409 408/408/402
f 414/414/408 418/418/412 415/415/409
f 413/413/407 419/419/413 416/416/410
f 418/418/412 417/417/411 415/415/409
f 416/416/410 420/420/414 409/409/403
f 420/420/414 418/418/412 414/414/408
f 413/413/407 402/402/396 421/421/415
f 421/421/415 419/419/413 413/413/407
f 416/416/410 419/419/413 422/422/416
f 416/416/410 422/422/416 420/420/414
f 409/409/403 420/420/414 414/414/408
f 423/423/417 421/421/415 402/402/396
f 422/422/416 419/419/413 424/424/418
f 418/418/412 425/425/419 417/417/411
f 426/426/420 421/421/415 423/423/417
f 423/423/417 402/402/396 396/396/390
f 422/422/416 424/424/418 427/427/421
f 418/418/412 427/427/421 425/425/419
f 420/420/414 427/427/421 418/418/412
f 426/426/420 428/428/422 421/421/415
f 420/420/414 422/422/416 427/427/421
f 419/419/413 428/428/422 424/424/418
f 417/417/411 425/425/419 429/429/423
f 428/428/422 419/419/413 421/421/415
f 430/430/424 428/428/422 426/426/420
f 430/430/424 424/424/418 428/428/422
f 427/427/421 431/431/425 425/425/419
f 425/425/419 432/432/426 429/429/423
f 427/427/421 424/424/418 431/431/425
f 425/425/419 431/431/425 432/432/426
f 429/429/423 432/432/426 433/433/427
f 265/265/259 268/268/262 278/278/272
f 247/247/241 252/252/246 434/434/428
f 435/435/429 247/247/241 434/434/428
f 434/434/428 252/252/246 436/436/430
f 237/237/231 247/247/241 435/435/429
f 227/227/221 237/237/231 435/435/429
f 342/342/336 350/350/344 336/336/330
f 336/336/330 350/350/344 338/338/332
