# Blender 4.1.1
# www.blender.org
mtllib Floor.mtl
o Floor_floor:pieces:WorldMap_Floor
v -0.135975 -0.000795 0.122985
v -0.086552 -0.000795 0.122985
v -0.135976 -0.000795 0.109875
v -0.086556 -0.000795 0.109884
v -0.086577 -0.000795 0.030406
v -0.135982 -0.000795 0.030346
v -0.135982 -0.000795 0.028801
v -0.086577 -0.000795 0.028855
v -0.135982 -0.000795 -0.029384
v -0.153582 -0.000795 0.109872
v -0.040427 -0.000795 0.122985
v -0.153582 -0.000795 -0.029369
v -0.153582 -0.000795 0.030325
v -0.153582 -0.000795 0.122985
v -0.153582 -0.000795 -0.030654
v -0.153582 -0.000795 0.028782
v -0.040433 -0.000795 0.109892
v -0.135982 -0.000795 -0.030671
v -0.040469 -0.000795 0.030465
v -0.153582 -0.000795 -0.074461
v -0.086577 -0.000795 -0.029426
v -0.038838 -0.000795 0.122985
v -0.086577 -0.000795 -0.030719
v -0.038842 -0.000795 0.109892
v -0.038869 -0.000795 0.030465
v -0.040469 -0.000795 0.028906
v -0.135980 -0.000795 -0.074475
v -0.040469 -0.000795 -0.029466
v -0.153582 -0.000795 -0.110637
v -0.038869 -0.000795 0.028906
v -0.086576 -0.000795 -0.034428
v -0.135979 -0.000795 -0.110648
v -0.038869 -0.000795 -0.029466
v -0.066523 -0.000795 -0.030739
v -0.086574 -0.000795 -0.052616
v -0.040469 -0.000795 -0.030765
v -0.017946 -0.000795 0.028906
v -0.051364 -0.000795 -0.030754
v -0.086573 -0.000795 -0.065726
v -0.000287 -0.000795 -0.029466
v -0.067867 -0.000795 -0.061514
v -0.086572 -0.000795 -0.074513
v -0.054889 -0.000795 -0.050295
v -0.038869 -0.000795 -0.030765
v -0.061993 -0.000795 -0.055817
v -0.047369 -0.000795 -0.046798
v -0.086568 -0.000795 -0.110679
v -0.065297 -0.000795 -0.062736
v -0.135978 -0.000795 -0.151037
v -0.046784 -0.000795 -0.049150
v -0.069722 -0.000795 -0.068950
v -0.153582 -0.000795 -0.151029
v -0.040466 -0.000795 -0.046929
v -0.071895 -0.000795 -0.068534
v -0.153582 -0.000795 -0.189749
v -0.040467 -0.000795 -0.044422
v -0.073341 -0.000795 -0.074523
v -0.135977 -0.000795 -0.189754
v -0.038867 -0.000795 -0.046395
v -0.040461 -0.000795 -0.074550
v -0.086564 -0.000795 -0.151059
v -0.038867 -0.000795 -0.043869
v -0.038863 -0.000795 -0.074550
v -0.038858 -0.000795 -0.110708
v -0.030783 -0.000795 -0.044273
v -0.040454 -0.000795 -0.110708
v -0.040447 -0.000795 -0.151081
v -0.038852 -0.000795 -0.151081
v -0.024248 -0.000795 -0.074550
v -0.000280 -0.000795 -0.110708
v -0.038847 -0.000795 -0.189782
v -0.021315 -0.000795 -0.043081
v -0.040440 -0.000795 -0.189782
v -0.021459 -0.000795 -0.040907
v -0.038839 -0.000795 -0.248484
v -0.086560 -0.000795 -0.189768
v -0.019239 -0.000795 -0.074550
v -0.040429 -0.000795 -0.248484
v -0.010330 -0.000795 -0.074550
v -0.038838 -0.000795 -0.259102
v -0.010524 -0.000795 -0.042906
v -0.040427 -0.000795 -0.259102
v -0.135976 -0.000795 -0.248480
v -0.010539 -0.000795 -0.040438
v -0.086554 -0.000795 -0.248482
v -0.153582 -0.000795 -0.248479
v -0.000286 -0.000795 -0.042582
v -0.153582 -0.000795 -0.259102
v -0.000283 -0.000795 -0.074550
v -0.135975 -0.000795 -0.259102
v -0.000286 -0.000795 -0.040198
v -0.086552 -0.000795 -0.259102
v 0.011469 -0.000795 -0.042375
v -0.010598 -0.000795 -0.030765
v 0.011708 -0.000795 -0.074550
v 0.039177 -0.000795 -0.110708
v 0.011451 -0.000795 -0.039962
v -0.000276 -0.000795 -0.151081
v 0.022039 -0.000795 -0.042385
v -0.022128 -0.000795 -0.030765
v 0.022108 -0.000795 -0.039862
v 0.031294 -0.000795 -0.042970
v -0.033698 -0.000795 -0.030765
v -0.000287 -0.000795 -0.030765
v -0.000273 -0.000795 -0.189782
v 0.031671 -0.000795 -0.040577
v 0.039174 -0.000795 -0.041977
v -0.031233 -0.000795 -0.042185
v 0.039179 -0.000795 -0.151081
v 0.039174 -0.000795 -0.044711
v 0.026325 -0.000795 -0.074550
v 0.039181 -0.000795 -0.189782
v 0.021157 -0.000795 -0.074550
v -0.000267 -0.000795 -0.248484
v 0.040576 -0.000795 -0.151081
v 0.040576 -0.000795 -0.189782
v 0.039184 -0.000795 -0.248484
v 0.040576 -0.000795 -0.248484
v 0.040575 -0.000795 -0.110708
v 0.076748 -0.000795 -0.189763
v 0.040576 -0.000795 -0.259102
v 0.039176 -0.000795 -0.074550
v 0.076748 -0.000795 -0.151050
v 0.039184 -0.000795 -0.259102
v -0.000266 -0.000795 -0.259102
v 0.076748 -0.000795 -0.259102
v 0.040575 -0.000795 -0.074550
v 0.076748 -0.000795 -0.110667
v 0.076748 -0.000795 -0.248481
v 0.078264 -0.000795 -0.259102
v 0.075189 -0.000795 -0.074500
v 0.078263 -0.000795 -0.151049
v 0.078264 -0.000795 -0.248481
v 0.076748 -0.000795 -0.074497
v 0.078263 -0.000795 -0.110665
v 0.103302 -0.000795 -0.259102
v 0.103302 -0.000795 -0.151029
v 0.078263 -0.000795 -0.189762
v 0.103302 -0.000795 -0.248479
v 0.103302 -0.000795 -0.110637
v 0.073406 -0.000795 -0.065312
v 0.103302 -0.000795 -0.189749
v 0.070519 -0.000795 -0.066125
v 0.078263 -0.000795 -0.074495
v 0.076748 -0.000795 -0.064372
v 0.103302 -0.000795 -0.074461
v 0.066506 -0.000795 -0.059995
v 0.068693 -0.000795 -0.058768
v 0.078263 -0.000795 -0.030697
v 0.060785 -0.000795 -0.054735
v 0.062541 -0.000795 -0.053013
v 0.103302 -0.000795 -0.030654
v 0.054580 -0.000795 -0.050520
v 0.076748 -0.000795 -0.054247
v 0.103302 -0.000795 -0.029369
v 0.055833 -0.000795 -0.048369
v 0.078263 -0.000795 -0.029407
v 0.047668 -0.000795 -0.047282
v 0.058185 -0.000795 -0.044334
v 0.078263 -0.000795 0.028830
v 0.040575 -0.000795 -0.045092
v 0.048313 -0.000795 -0.044801
v 0.076748 -0.000795 -0.039084
v 0.051892 -0.000795 -0.041532
v 0.040575 -0.000795 -0.042383
v 0.076748 -0.000795 -0.029409
v 0.066120 -0.000795 -0.030719
v 0.076748 -0.000795 0.028833
v 0.052042 -0.000795 -0.029448
v 0.051970 -0.000795 -0.030744
v 0.076748 -0.000795 -0.030700
v 0.051105 -0.000795 -0.034071
v 0.055285 -0.000795 0.028876
v 0.051097 -0.000795 -0.030746
v 0.051129 -0.000795 -0.040311
v 0.051147 -0.000795 -0.029450
v 0.049447 -0.000795 -0.040444
v 0.053366 -0.000795 0.028880
v 0.076748 -0.000795 0.030382
v 0.040575 -0.000795 -0.029466
v 0.040575 -0.000795 0.028906
v 0.040575 -0.000795 -0.030765
v 0.040575 -0.000795 -0.036574
v 0.039174 -0.000795 0.028906
v 0.039174 -0.000795 -0.030765
v 0.049658 -0.000795 -0.039631
v 0.040575 -0.000795 0.030465
v 0.039174 -0.000795 -0.036010
v 0.039174 -0.000795 -0.029466
v 0.076748 -0.000795 0.109880
v 0.040575 -0.000795 -0.035908
v 0.033215 -0.000795 -0.030765
v 0.040576 -0.000795 0.109892
v 0.029646 -0.000795 -0.030765
v 0.039174 -0.000795 0.030465
v 0.039174 -0.000795 -0.035306
v 0.027345 -0.000795 -0.029466
v 0.039183 -0.000795 0.109892
v 0.032860 -0.000795 -0.033020
v -0.000287 -0.000795 0.009556
v 0.040576 -0.000795 0.122985
v 0.003687 -0.000795 0.028906
v 0.039184 -0.000795 0.122985
v 0.028209 -0.000795 -0.030765
v 0.002900 -0.000795 0.028906
v -0.000266 -0.000795 0.122985
v 0.003112 -0.000795 0.030465
v -0.000287 -0.000795 0.028906
v 0.010111 -0.000795 0.109892
v 0.032965 -0.000795 -0.032355
v -0.000287 -0.000795 0.030465
v 0.003660 -0.000795 0.109892
v -0.000287 -0.000795 0.032641
v -0.017184 -0.000795 0.030465
v 0.003119 -0.000795 0.031478
v 0.009186 -0.000795 0.030465
v -0.017129 -0.000795 0.042168
v 0.004007 -0.000795 0.030465
v -0.000286 -0.000795 0.033567
v -0.000269 -0.000795 0.109892
v -0.018103 -0.000795 0.030465
v -0.017121 -0.000795 0.028906
v -0.017873 -0.000795 0.043348
v -0.000287 -0.000795 -0.013874
v -0.018048 -0.000795 0.042688
v -0.038861 -0.000795 0.054461
v 0.026018 -0.000795 -0.029466
v 0.022357 -0.000795 -0.030765
v 0.011383 -0.000795 -0.030765
v 0.078264 -0.000795 0.122985
v 0.103302 -0.000795 0.122985
v 0.078263 -0.000795 0.109880
v 0.103302 -0.000795 0.109872
v 0.076748 -0.000795 0.122985
v 0.078263 -0.000795 0.030379
v 0.103302 -0.000795 0.030325
v 0.103302 -0.000795 0.028782
v -0.060144 -0.000795 -0.057425
v -0.053492 -0.000795 -0.052644
vn -0.0000 1.0000 -0.0000
vt -3.931241 2.607102
vt -3.931241 1.667520
vt -3.645744 2.607119
vt -3.645928 1.667585
vt -1.915090 1.667983
vt -1.913779 2.607224
vt -1.880130 2.607224
vt -1.881293 1.667983
vt -0.612985 2.607224
vt -3.645679 2.941825
vt -3.931242 0.790632
vt -0.613309 2.941825
vt -1.913312 2.941825
vt -3.931241 2.941825
vt -0.585321 2.941825
vt -1.879716 2.941825
vt -3.646106 0.790744
vt -0.584953 2.607224
vt -1.916359 0.791426
vt 0.368690 2.941825
vt -0.612075 1.667983
vt -3.931241 0.760410
vt -0.583920 1.667983
vt -3.646106 0.760492
vt -1.916359 0.761002
vt -1.882418 0.791426
vt 0.368985 2.607199
vt -0.611196 0.791426
vt 1.156527 2.941825
vt -1.882418 0.761002
vt -0.503134 1.667976
vt 1.156765 2.607181
vt -0.611196 0.761002
vt -0.583485 1.286731
vt -0.107052 1.667938
vt -0.582920 0.791426
vt -1.882418 0.363226
vt -0.583156 0.998539
vt 0.178454 1.667910
vt -0.611196 0.027520
vt 0.086730 1.312288
vt 0.369815 1.667892
vt -0.157598 1.065570
vt -0.582920 0.761002
vt -0.037347 1.200613
vt -0.233746 0.922607
vt 1.157432 1.667819
vt 0.113350 1.263433
vt 2.036341 2.607159
vt -0.182537 0.911479
vt 0.248679 1.347549
vt 2.036168 2.941825
vt -0.230902 0.791368
vt 0.239621 1.388872
vt 2.879401 2.941826
vt -0.285483 0.791377
vt 0.370045 1.416352
vt 2.879512 2.607139
vt -0.242526 0.760960
vt 0.370618 0.791270
vt 2.036827 1.667737
vt -0.297537 0.760967
vt 0.370618 0.760885
vt 1.158078 0.760792
vt -0.288742 0.607272
vt 1.158078 0.791145
vt 2.037298 0.791005
vt 2.037298 0.760688
vt 0.370618 0.483051
vt 1.158078 0.027380
vt 2.880125 0.760588
vt -0.314701 0.427292
vt 2.880125 0.790872
vt -0.362049 0.430019
vt 4.158527 0.760437
vt 2.879824 1.667660
vt 0.370618 0.387815
vt 4.158526 0.790669
vt 0.370618 0.218439
vt 4.389759 0.760410
vt -0.318504 0.222131
vt 4.389759 0.790632
vt 4.158433 2.607108
vt -0.372259 0.222420
vt 4.158482 1.667542
vt 4.158416 2.941825
vt -0.325554 0.027499
vt 4.389759 2.941825
vt 0.370618 0.027442
vt 4.389759 2.607102
vt -0.377493 0.027503
vt 4.389759 1.667520
vt -0.330070 -0.195979
vt -0.582920 0.223548
vt 0.370618 -0.200522
vt 1.158078 -0.722743
vt -0.382613 -0.195639
vt 2.037298 0.027310
vt -0.329846 -0.396917
vt -0.582920 0.442742
vt -0.384798 -0.398232
vt -0.317122 -0.572878
vt -0.582920 0.662694
vt -0.582920 0.027520
vt 2.880125 0.027243
vt -0.369223 -0.580035
vt -0.338736 -0.722683
vt -0.334201 0.615836
vt 2.037298 -0.722777
vt -0.279210 -0.722685
vt 0.370618 -0.478402
vt 2.880124 -0.722811
vt 0.370618 -0.380161
vt 4.158526 0.027141
vt 2.037298 -0.749327
vt 2.880125 -0.749331
vt 4.158526 -0.722862
vt 4.158527 -0.749336
vt 1.158078 -0.749323
vt 2.879699 -1.437009
vt 4.389759 -0.749337
vt 0.370618 -0.722712
vt 2.036632 -1.437006
vt 4.389760 -0.722871
vt 4.389759 0.027124
vt 4.389760 -1.437011
vt 0.370618 -0.749319
vt 1.157164 -1.437006
vt 4.158462 -1.437011
vt 4.389760 -1.465816
vt 0.369531 -1.407361
vt 2.036604 -1.465812
vt 4.158459 -1.465816
vt 0.369482 -1.437005
vt 1.157125 -1.465811
vt 4.389759 -1.941825
vt 2.036168 -1.941826
vt 2.879682 -1.465814
vt 4.158416 -1.941825
vt 1.156527 -1.941826
vt 0.169451 -1.373467
vt 2.879401 -1.941825
vt 0.187139 -1.318587
vt 0.369434 -1.465810
vt 0.148973 -1.437004
vt 0.368690 -1.941826
vt 0.053655 -1.242293
vt 0.026927 -1.283862
vt -0.584394 -1.465808
vt -0.060895 -1.133524
vt -0.098394 -1.166912
vt -0.585321 -1.941825
vt -0.152704 -1.015568
vt -0.071537 -1.437004
vt -0.613309 -1.941826
vt -0.199529 -1.039391
vt -0.612493 -1.465807
vt -0.223216 -0.884165
vt -0.287419 -1.084106
vt -1.880759 -1.465807
vt -0.270904 -0.749317
vt -0.277238 -0.896432
vt -0.401742 -1.437003
vt -0.348426 -0.964459
vt -0.329898 -0.749317
vt -0.612441 -1.437002
vt -0.583919 -1.234955
vt -1.880826 -1.437002
vt -0.611590 -0.967316
vt -0.583366 -0.965946
vt -0.584334 -1.437002
vt -0.510910 -0.949493
vt -1.881771 -1.028973
vt -0.583331 -0.949359
vt -0.375029 -0.949965
vt -0.611560 -0.950296
vt -0.372126 -0.917979
vt -1.881855 -0.992477
vt -1.914564 -1.437002
vt -0.611196 -0.749315
vt -1.882418 -0.749316
vt -0.582920 -0.749316
vt -0.456409 -0.749316
vt -1.882419 -0.722673
vt -0.582920 -0.722673
vt -0.389842 -0.922002
vt -1.916359 -0.749316
vt -0.468691 -0.722677
vt -0.611196 -0.722673
vt -3.645853 -1.437010
vt -0.470916 -0.749316
vt -0.582920 -0.609390
vt -3.646105 -0.749335
vt -0.582920 -0.541548
vt -1.916359 -0.722673
vt -0.484015 -0.722677
vt -0.611196 -0.497805
vt -3.646105 -0.722843
vt -0.533806 -0.602643
vt -1.461023 0.027520
vt -3.931242 -0.749338
vt -1.882418 -0.048031
vt -3.931242 -0.722870
vt -0.582920 -0.514218
vt -1.882418 -0.033080
vt -3.931241 0.027123
vt -1.916359 -0.037110
vt -1.882418 0.027520
vt -3.646106 -0.170165
vt -0.548289 -0.604633
vt -1.916359 0.027520
vt -3.646106 -0.047513
vt -1.963753 0.027511
vt -1.916359 0.348740
vt -1.938424 -0.037243
vt -1.916359 -0.152573
vt -2.171230 0.347697
vt -1.916359 -0.054116
vt -1.983918 0.027507
vt -3.646106 0.027179
vt -1.916359 0.366216
vt -1.882418 0.347558
vt -2.196927 0.361849
vt -0.950767 0.027520
vt -2.182559 0.365180
vt -2.438948 0.760848
vt -0.611196 -0.472576
vt -0.582920 -0.402971
vt -0.582920 -0.194340
vt -3.931242 -1.465816
vt -3.931241 -1.941826
vt -3.645843 -1.465815
vt -3.645679 -1.941826
vt -3.931242 -1.437011
vt -1.914489 -1.465808
vt -1.913312 -1.941825
vt -1.879716 -1.941826
vt -0.002308 1.165456
vt -0.106433 1.039000
s 1
g Floor_floor:pieces:WorldMap_Floor_floor:pieces:WorldMap_Floor
usemtl floor:pieces:WorldMap_Floor
f 1/1/1 2/2/1 3/3/1
f 3/3/1 2/2/1 4/4/1
f 4/4/1 5/5/1 3/3/1
f 3/3/1 5/5/1 6/6/1
f 6/6/1 5/5/1 7/7/1
f 7/7/1 5/5/1 8/8/1
f 7/7/1 8/8/1 9/9/1
f 10/10/1 1/1/1 3/3/1
f 2/2/1 11/11/1 4/4/1
f 12/12/1 7/7/1 9/9/1
f 10/10/1 3/3/1 13/13/1
f 13/13/1 3/3/1 6/6/1
f 14/14/1 1/1/1 10/10/1
f 12/12/1 9/9/1 15/15/1
f 13/13/1 6/6/1 16/16/1
f 16/16/1 7/7/1 12/12/1
f 4/4/1 11/11/1 17/17/1
f 15/15/1 9/9/1 18/18/1
f 16/16/1 6/6/1 7/7/1
f 19/19/1 4/4/1 17/17/1
f 15/15/1 18/18/1 20/20/1
f 9/9/1 21/21/1 18/18/1
f 11/11/1 22/22/1 17/17/1
f 5/5/1 4/4/1 19/19/1
f 9/9/1 8/8/1 21/21/1
f 18/18/1 21/21/1 23/23/1
f 17/17/1 22/22/1 24/24/1
f 19/19/1 17/17/1 25/25/1
f 8/8/1 5/5/1 26/26/1
f 18/18/1 23/23/1 27/27/1
f 19/19/1 25/25/1 26/26/1
f 20/20/1 18/18/1 27/27/1
f 21/21/1 8/8/1 28/28/1
f 26/26/1 5/5/1 19/19/1
f 21/21/1 28/28/1 23/23/1
f 20/20/1 27/27/1 29/29/1
f 28/28/1 8/8/1 26/26/1
f 26/26/1 25/25/1 30/30/1
f 23/23/1 31/31/1 27/27/1
f 29/29/1 27/27/1 32/32/1
f 28/28/1 26/26/1 33/33/1
f 33/33/1 26/26/1 30/30/1
f 23/23/1 28/28/1 34/34/1
f 23/23/1 34/34/1 31/31/1
f 31/31/1 35/35/1 27/27/1
f 33/33/1 36/36/1 28/28/1
f 30/30/1 37/37/1 33/33/1
f 34/34/1 28/28/1 38/38/1
f 35/35/1 39/39/1 27/27/1
f 28/28/1 36/36/1 38/38/1
f 33/33/1 37/37/1 40/40/1
f 35/35/1 41/41/1 39/39/1
f 39/39/1 42/42/1 27/27/1
f 38/38/1 43/43/1 34/34/1
f 33/33/1 40/40/1 44/44/1
f 44/44/1 36/36/1 33/33/1
f 27/27/1 42/42/1 32/32/1
f 34/34/1 43/43/1 45/45/1
f 35/35/1 45/45/1 41/41/1
f 36/36/1 46/46/1 38/38/1
f 32/32/1 42/42/1 47/47/1
f 46/46/1 43/43/1 38/38/1
f 41/41/1 45/45/1 48/48/1
f 32/32/1 47/47/1 49/49/1
f 50/50/1 43/43/1 46/46/1
f 51/51/1 41/41/1 48/48/1
f 52/52/1 32/32/1 49/49/1
f 50/50/1 46/46/1 53/53/1
f 54/54/1 41/41/1 51/51/1
f 52/52/1 49/49/1 55/55/1
f 29/29/1 32/32/1 52/52/1
f 53/53/1 46/46/1 56/56/1
f 57/57/1 54/54/1 51/51/1
f 55/55/1 49/49/1 58/58/1
f 53/53/1 56/56/1 59/59/1
f 57/57/1 51/51/1 60/60/1
f 60/60/1 50/50/1 53/53/1
f 49/49/1 61/61/1 58/58/1
f 59/59/1 56/56/1 62/62/1
f 60/60/1 53/53/1 63/63/1
f 49/49/1 47/47/1 61/61/1
f 63/63/1 53/53/1 59/59/1
f 56/56/1 46/46/1 36/36/1
f 56/56/1 36/36/1 62/62/1
f 47/47/1 42/42/1 57/57/1
f 64/64/1 60/60/1 63/63/1
f 62/62/1 65/65/1 59/59/1
f 47/47/1 66/66/1 61/61/1
f 66/66/1 60/60/1 64/64/1
f 59/59/1 65/65/1 63/63/1
f 47/47/1 57/57/1 66/66/1
f 61/61/1 66/66/1 67/67/1
f 66/66/1 57/57/1 60/60/1
f 68/68/1 66/66/1 64/64/1
f 63/63/1 69/69/1 64/64/1
f 63/63/1 65/65/1 69/69/1
f 67/67/1 66/66/1 68/68/1
f 42/42/1 54/54/1 57/57/1
f 64/64/1 70/70/1 68/68/1
f 64/64/1 69/69/1 70/70/1
f 71/71/1 67/67/1 68/68/1
f 39/39/1 54/54/1 42/42/1
f 65/65/1 72/72/1 69/69/1
f 73/73/1 67/67/1 71/71/1
f 39/39/1 41/41/1 54/54/1
f 65/65/1 74/74/1 72/72/1
f 75/75/1 73/73/1 71/71/1
f 76/76/1 67/67/1 73/73/1
f 69/69/1 77/77/1 70/70/1
f 69/69/1 72/72/1 77/77/1
f 78/78/1 73/73/1 75/75/1
f 78/78/1 76/76/1 73/73/1
f 61/61/1 67/67/1 76/76/1
f 77/77/1 79/79/1 70/70/1
f 80/80/1 78/78/1 75/75/1
f 58/58/1 61/61/1 76/76/1
f 72/72/1 81/81/1 77/77/1
f 77/77/1 81/81/1 79/79/1
f 82/82/1 78/78/1 80/80/1
f 58/58/1 76/76/1 83/83/1
f 72/72/1 84/84/1 81/81/1
f 82/82/1 85/85/1 78/78/1
f 86/86/1 58/58/1 83/83/1
f 83/83/1 76/76/1 85/85/1
f 84/84/1 87/87/1 81/81/1
f 85/85/1 76/76/1 78/78/1
f 86/86/1 83/83/1 88/88/1
f 55/55/1 58/58/1 86/86/1
f 87/87/1 89/89/1 81/81/1
f 81/81/1 89/89/1 79/79/1
f 83/83/1 85/85/1 90/90/1
f 88/88/1 83/83/1 90/90/1
f 91/91/1 87/87/1 84/84/1
f 79/79/1 89/89/1 70/70/1
f 90/90/1 85/85/1 92/92/1
f 91/91/1 93/93/1 87/87/1
f 94/94/1 91/91/1 84/84/1
f 89/89/1 95/95/1 70/70/1
f 92/92/1 85/85/1 82/82/1
f 93/93/1 95/95/1 87/87/1
f 74/74/1 94/94/1 84/84/1
f 87/87/1 95/95/1 89/89/1
f 70/70/1 95/95/1 96/96/1
f 97/97/1 93/93/1 91/91/1
f 74/74/1 84/84/1 72/72/1
f 70/70/1 96/96/1 98/98/1
f 97/97/1 99/99/1 93/93/1
f 100/100/1 94/94/1 74/74/1
f 68/68/1 70/70/1 98/98/1
f 101/101/1 99/99/1 97/97/1
f 100/100/1 40/40/1 94/94/1
f 68/68/1 98/98/1 71/71/1
f 99/99/1 101/101/1 102/102/1
f 103/103/1 40/40/1 100/100/1
f 40/40/1 104/104/1 94/94/1
f 71/71/1 98/98/1 105/105/1
f 102/102/1 101/101/1 106/106/1
f 44/44/1 40/40/1 103/103/1
f 71/71/1 105/105/1 75/75/1
f 106/106/1 107/107/1 102/102/1
f 103/103/1 108/108/1 44/44/1
f 103/103/1 100/100/1 108/108/1
f 98/98/1 109/109/1 105/105/1
f 102/102/1 107/107/1 110/110/1
f 44/44/1 108/108/1 62/62/1
f 98/98/1 96/96/1 109/109/1
f 102/102/1 110/110/1 111/111/1
f 62/62/1 36/36/1 44/44/1
f 108/108/1 65/65/1 62/62/1
f 105/105/1 109/109/1 112/112/1
f 113/113/1 111/111/1 96/96/1
f 108/108/1 74/74/1 65/65/1
f 105/105/1 112/112/1 114/114/1
f 95/95/1 113/113/1 96/96/1
f 108/108/1 100/100/1 74/74/1
f 75/75/1 105/105/1 114/114/1
f 93/93/1 113/113/1 95/95/1
f 109/109/1 96/96/1 115/115/1
f 75/75/1 114/114/1 80/80/1
f 99/99/1 113/113/1 93/93/1
f 112/112/1 109/109/1 116/116/1
f 116/116/1 109/109/1 115/115/1
f 114/114/1 112/112/1 117/117/1
f 113/113/1 99/99/1 111/111/1
f 118/118/1 112/112/1 116/116/1
f 115/115/1 96/96/1 119/119/1
f 117/117/1 112/112/1 118/118/1
f 111/111/1 99/99/1 102/102/1
f 116/116/1 115/115/1 120/120/1
f 121/121/1 117/117/1 118/118/1
f 111/111/1 122/122/1 96/96/1
f 96/96/1 122/122/1 119/119/1
f 120/120/1 115/115/1 123/123/1
f 124/124/1 117/117/1 121/121/1
f 111/111/1 110/110/1 122/122/1
f 115/115/1 119/119/1 123/123/1
f 125/125/1 117/117/1 124/124/1
f 121/121/1 118/118/1 126/126/1
f 119/119/1 122/122/1 127/127/1
f 114/114/1 117/117/1 125/125/1
f 123/123/1 119/119/1 128/128/1
f 126/126/1 118/118/1 129/129/1
f 119/119/1 127/127/1 128/128/1
f 80/80/1 114/114/1 125/125/1
f 126/126/1 129/129/1 130/130/1
f 118/118/1 116/116/1 129/129/1
f 127/127/1 131/131/1 128/128/1
f 123/123/1 128/128/1 132/132/1
f 130/130/1 129/129/1 133/133/1
f 129/129/1 116/116/1 120/120/1
f 134/134/1 128/128/1 131/131/1
f 132/132/1 128/128/1 135/135/1
f 129/129/1 120/120/1 133/133/1
f 130/130/1 133/133/1 136/136/1
f 128/128/1 134/134/1 135/135/1
f 132/132/1 135/135/1 137/137/1
f 120/120/1 123/123/1 138/138/1
f 133/133/1 120/120/1 138/138/1
f 136/136/1 133/133/1 139/139/1
f 138/138/1 123/123/1 132/132/1
f 137/137/1 135/135/1 140/140/1
f 131/131/1 141/141/1 134/134/1
f 133/133/1 138/138/1 139/139/1
f 142/142/1 132/132/1 137/137/1
f 143/143/1 141/141/1 131/131/1
f 135/135/1 134/134/1 144/144/1
f 139/139/1 138/138/1 142/142/1
f 138/138/1 132/132/1 142/142/1
f 135/135/1 144/144/1 140/140/1
f 127/127/1 143/143/1 131/131/1
f 134/134/1 145/145/1 144/144/1
f 134/134/1 141/141/1 145/145/1
f 140/140/1 144/144/1 146/146/1
f 127/127/1 147/147/1 143/143/1
f 143/143/1 148/148/1 141/141/1
f 141/141/1 148/148/1 145/145/1
f 147/147/1 148/148/1 143/143/1
f 144/144/1 149/149/1 146/146/1
f 127/127/1 150/150/1 147/147/1
f 144/144/1 145/145/1 149/149/1
f 147/147/1 151/151/1 148/148/1
f 146/146/1 149/149/1 152/152/1
f 150/150/1 151/151/1 147/147/1
f 127/127/1 153/153/1 150/150/1
f 148/148/1 151/151/1 154/154/1
f 145/145/1 154/154/1 149/149/1
f 152/152/1 149/149/1 155/155/1
f 153/153/1 156/156/1 150/150/1
f 150/150/1 156/156/1 151/151/1
f 145/145/1 148/148/1 154/154/1
f 155/155/1 149/149/1 157/157/1
f 158/158/1 156/156/1 153/153/1
f 127/127/1 158/158/1 153/153/1
f 156/156/1 159/159/1 151/151/1
f 157/157/1 160/160/1 155/155/1
f 127/127/1 161/161/1 158/158/1
f 162/162/1 156/156/1 158/158/1
f 151/151/1 159/159/1 163/163/1
f 154/154/1 163/163/1 149/149/1
f 161/161/1 162/162/1 158/158/1
f 162/162/1 164/164/1 156/156/1
f 156/156/1 164/164/1 159/159/1
f 154/154/1 151/151/1 163/163/1
f 165/165/1 162/162/1 161/161/1
f 157/157/1 149/149/1 166/166/1
f 167/167/1 163/163/1 159/159/1
f 110/110/1 165/165/1 161/161/1
f 166/166/1 168/168/1 157/157/1
f 169/169/1 166/166/1 167/167/1
f 164/164/1 170/170/1 159/159/1
f 110/110/1 161/161/1 122/122/1
f 170/170/1 169/169/1 167/167/1
f 166/166/1 171/171/1 167/167/1
f 159/159/1 170/170/1 167/167/1
f 163/163/1 171/171/1 149/149/1
f 122/122/1 161/161/1 127/127/1
f 166/166/1 149/149/1 171/171/1
f 170/170/1 164/164/1 172/172/1
f 171/171/1 163/163/1 167/167/1
f 169/169/1 173/173/1 166/166/1
f 172/172/1 174/174/1 170/170/1
f 172/172/1 164/164/1 175/175/1
f 169/169/1 170/170/1 176/176/1
f 166/166/1 173/173/1 168/168/1
f 176/176/1 170/170/1 174/174/1
f 164/164/1 177/177/1 175/175/1
f 176/176/1 178/178/1 169/169/1
f 169/169/1 178/178/1 173/173/1
f 179/179/1 168/168/1 173/173/1
f 177/177/1 164/164/1 162/162/1
f 176/176/1 174/174/1 180/180/1
f 178/178/1 179/179/1 173/173/1
f 162/162/1 165/165/1 177/177/1
f 180/180/1 181/181/1 176/176/1
f 181/181/1 179/179/1 178/178/1
f 180/180/1 174/174/1 182/182/1
f 177/177/1 165/165/1 183/183/1
f 176/176/1 181/181/1 178/178/1
f 180/180/1 184/184/1 181/181/1
f 182/182/1 185/185/1 180/180/1
f 107/107/1 183/183/1 165/165/1
f 177/177/1 183/183/1 186/186/1
f 184/184/1 187/187/1 181/181/1
f 187/187/1 179/179/1 181/181/1
f 107/107/1 165/165/1 110/110/1
f 188/188/1 183/183/1 107/107/1
f 189/189/1 184/184/1 180/180/1
f 180/180/1 185/185/1 189/189/1
f 187/187/1 190/190/1 179/179/1
f 188/188/1 191/191/1 183/183/1
f 186/186/1 183/183/1 191/191/1
f 189/189/1 185/185/1 192/192/1
f 193/193/1 190/190/1 187/187/1
f 186/186/1 191/191/1 172/172/1
f 194/194/1 189/189/1 192/192/1
f 195/195/1 193/193/1 187/187/1
f 195/195/1 187/187/1 184/184/1
f 196/196/1 191/191/1 188/188/1
f 197/197/1 189/189/1 194/194/1
f 198/198/1 193/193/1 195/195/1
f 188/188/1 199/199/1 196/196/1
f 189/189/1 197/197/1 200/200/1
f 198/198/1 201/201/1 193/193/1
f 188/188/1 106/106/1 199/199/1
f 184/184/1 189/189/1 202/202/1
f 202/202/1 189/189/1 200/200/1
f 203/203/1 201/201/1 198/198/1
f 106/106/1 204/204/1 199/199/1
f 204/204/1 197/197/1 194/194/1
f 202/202/1 200/200/1 205/205/1
f 203/203/1 198/198/1 206/206/1
f 204/204/1 194/194/1 199/199/1
f 205/205/1 207/207/1 202/202/1
f 208/208/1 205/205/1 200/200/1
f 198/198/1 209/209/1 206/206/1
f 199/199/1 194/194/1 210/210/1
f 211/211/1 205/205/1 208/208/1
f 207/207/1 205/205/1 211/211/1
f 209/209/1 212/212/1 206/206/1
f 210/210/1 194/194/1 192/192/1
f 213/213/1 207/207/1 211/211/1
f 198/198/1 195/195/1 209/209/1
f 196/196/1 199/199/1 210/210/1
f 214/214/1 213/213/1 211/211/1
f 213/213/1 215/215/1 207/207/1
f 209/209/1 195/195/1 216/216/1
f 209/209/1 216/216/1 212/212/1
f 217/217/1 213/213/1 214/214/1
f 212/212/1 216/216/1 215/215/1
f 215/215/1 218/218/1 207/207/1
f 216/216/1 195/195/1 184/184/1
f 219/219/1 215/215/1 213/213/1
f 219/219/1 212/212/1 215/215/1
f 216/216/1 218/218/1 215/215/1
f 217/217/1 219/219/1 213/213/1
f 202/202/1 207/207/1 218/218/1
f 202/202/1 218/218/1 184/184/1
f 218/218/1 216/216/1 184/184/1
f 220/220/1 212/212/1 219/219/1
f 221/221/1 217/217/1 214/214/1
f 214/214/1 211/211/1 222/222/1
f 206/206/1 212/212/1 220/220/1
f 223/223/1 219/219/1 217/217/1
f 221/221/1 214/214/1 37/37/1
f 37/37/1 214/214/1 222/222/1
f 24/24/1 206/206/1 220/220/1
f 223/223/1 220/220/1 219/219/1
f 30/30/1 221/221/1 37/37/1
f 37/37/1 222/222/1 200/200/1
f 24/24/1 220/220/1 223/223/1
f 22/22/1 206/206/1 24/24/1
f 25/25/1 221/221/1 30/30/1
f 224/224/1 37/37/1 200/200/1
f 225/225/1 223/223/1 217/217/1
f 25/25/1 225/225/1 221/221/1
f 24/24/1 223/223/1 226/226/1
f 40/40/1 37/37/1 224/224/1
f 226/226/1 225/225/1 25/25/1
f 225/225/1 217/217/1 221/221/1
f 225/225/1 226/226/1 223/223/1
f 224/224/1 227/227/1 40/40/1
f 17/17/1 226/226/1 25/25/1
f 24/24/1 226/226/1 17/17/1
f 200/200/1 197/197/1 224/224/1
f 224/224/1 197/197/1 227/227/1
f 227/227/1 228/228/1 40/40/1
f 227/227/1 197/197/1 204/204/1
f 204/204/1 228/228/1 227/227/1
f 228/228/1 229/229/1 40/40/1
f 228/228/1 204/204/1 101/101/1
f 222/222/1 208/208/1 200/200/1
f 228/228/1 101/101/1 229/229/1
f 222/222/1 211/211/1 208/208/1
f 40/40/1 229/229/1 104/104/1
f 101/101/1 204/204/1 106/106/1
f 229/229/1 97/97/1 104/104/1
f 229/229/1 101/101/1 97/97/1
f 104/104/1 97/97/1 91/91/1
f 104/104/1 91/91/1 94/94/1
f 107/107/1 106/106/1 188/188/1
f 230/230/1 231/231/1 232/232/1
f 190/190/1 230/230/1 232/232/1
f 232/232/1 231/231/1 233/233/1
f 234/234/1 230/230/1 190/190/1
f 232/232/1 233/233/1 235/235/1
f 235/235/1 190/190/1 232/232/1
f 193/193/1 234/234/1 190/190/1
f 201/201/1 234/234/1 193/193/1
f 235/235/1 233/233/1 236/236/1
f 179/179/1 190/190/1 235/235/1
f 235/235/1 236/236/1 160/160/1
f 179/179/1 235/235/1 168/168/1
f 168/168/1 235/235/1 160/160/1
f 160/160/1 236/236/1 237/237/1
f 157/157/1 168/168/1 160/160/1
f 155/155/1 160/160/1 237/237/1
f 48/48/1 45/45/1 238/238/1
f 48/48/1 238/238/1 60/60/1
f 45/45/1 43/43/1 238/238/1
f 51/51/1 48/48/1 60/60/1
f 238/238/1 43/43/1 239/239/1
f 238/238/1 239/239/1 60/60/1
f 239/239/1 43/43/1 50/50/1
f 60/60/1 239/239/1 50/50/1
f 31/31/1 45/45/1 35/35/1
f 31/31/1 34/34/1 45/45/1
f 175/175/1 177/177/1 186/186/1
f 172/172/1 175/175/1 186/186/1
f 191/191/1 182/182/1 172/172/1
f 196/196/1 182/182/1 191/191/1
f 182/182/1 174/174/1 172/172/1
f 185/185/1 182/182/1 196/196/1
f 196/196/1 210/210/1 185/185/1
f 185/185/1 210/210/1 192/192/1
