# Blender 4.1.1
# www.blender.org
mtllib frontboards.mtl
o roomShell2_room:GUI_wall_StuccoBoard_White
v -0.137066 0.026470 -0.260749
v -0.137066 0.045889 -0.260749
v -0.154017 0.026479 -0.260751
v -0.137068 0.007798 -0.260749
v -0.154017 0.045877 -0.260751
v -0.087780 0.007798 -0.260745
v -0.154020 0.007798 -0.260751
v -0.087778 0.045923 -0.260745
v -0.087778 0.026445 -0.260745
v -0.033887 0.007798 -0.260739
v -0.033885 0.045960 -0.260739
v -0.033885 0.026417 -0.260739
v 0.011974 0.007798 -0.260735
v 0.011975 0.045991 -0.260735
v 0.011975 0.026394 -0.260735
v 0.058610 0.007798 -0.260731
v 0.058611 0.046023 -0.260731
v 0.058611 0.026370 -0.260731
v 0.106208 0.007798 -0.260726
v 0.106208 0.046055 -0.260726
v 0.106208 0.026345 -0.260726
vn -0.0001 -0.0000 1.0000
vn -0.0006 -0.0000 1.0000
vt -21.417509 0.455631
vt -21.417509 1.489944
vt -22.328199 0.456097
vt -21.417641 -0.498799
vt -22.328199 1.489327
vt -18.769676 -0.498800
vt -22.328342 -0.498799
vt -18.769566 1.491739
vt -18.769566 0.454280
vt -15.874363 -0.498800
vt -15.874285 1.493700
vt -15.874285 0.452802
vt -13.410547 -0.498801
vt -13.410499 1.495370
vt -13.410499 0.451545
vt -10.905079 -0.498801
vt -10.905052 1.497068
vt -10.905052 0.450266
vt -8.347948 -0.498801
vt -8.347948 1.498801
vt -8.347948 0.448961
s 1
g roomShell2_room:GUI_wall_StuccoBoard_White_room:GUI_wall_StuccoBoard_White
usemtl room:GUI_wall_StuccoBoard_White
f 1/1/1 2/2/1 3/3/2
f 1/1/1 3/3/2 4/4/1
f 3/3/2 2/2/1 5/5/2
f 6/6/1 1/1/1 4/4/1
f 4/4/1 3/3/2 7/7/1
f 1/1/1 8/8/1 2/2/1
f 9/9/1 1/1/1 6/6/1
f 9/9/1 8/8/1 1/1/1
f 10/10/1 9/9/1 6/6/1
f 9/9/1 11/11/1 8/8/1
f 12/12/1 9/9/1 10/10/1
f 12/12/1 11/11/1 9/9/1
f 13/13/1 12/12/1 10/10/1
f 12/12/1 14/14/1 11/11/1
f 15/15/1 12/12/1 13/13/1
f 15/15/1 14/14/1 12/12/1
f 16/16/1 15/15/1 13/13/1
f 15/15/1 17/17/1 14/14/1
f 18/18/1 15/15/1 16/16/1
f 18/18/1 17/17/1 15/15/1
f 19/19/1 18/18/1 16/16/1
f 18/18/1 20/20/2 17/17/1
f 21/21/2 18/18/1 19/19/1
f 21/21/2 20/20/2 18/18/1
