# Blender 4.1.1
# www.blender.org
mtllib Haunted.mtl
o Dolly_Witch_Mesh_GUI_Map_Hat:GUI_Map_Hat1
v -0.023614 0.003806 0.014574
v -0.023646 0.004004 0.014376
v -0.023713 0.004054 0.014508
v -0.023614 0.003806 0.014574
v -0.023554 0.003900 0.014296
v -0.023646 0.004004 0.014376
v -0.023614 0.003806 0.014574
v -0.023462 0.003767 0.014292
v -0.023554 0.003900 0.014296
v -0.023614 0.003806 0.014574
v -0.023395 0.003643 0.014366
v -0.023462 0.003767 0.014292
v -0.023614 0.003806 0.014574
v -0.023372 0.003561 0.014500
v -0.023395 0.003643 0.014366
v -0.023614 0.003806 0.014574
v -0.023400 0.003547 0.014656
v -0.023372 0.003561 0.014500
v -0.023614 0.003806 0.014574
v -0.023471 0.003603 0.014790
v -0.023400 0.003547 0.014656
v -0.023614 0.003806 0.014574
v -0.023565 0.003713 0.014865
v -0.023471 0.003603 0.014790
v -0.023614 0.003806 0.014574
v -0.023655 0.003845 0.014862
v -0.023565 0.003713 0.014865
v -0.023614 0.003806 0.014574
v -0.023719 0.003963 0.014785
v -0.023655 0.003845 0.014862
v -0.023614 0.003806 0.014574
v -0.023740 0.004039 0.014656
v -0.023719 0.003963 0.014785
v -0.023614 0.003806 0.014574
v -0.023713 0.004054 0.014508
v -0.023740 0.004039 0.014656
v -0.024241 0.004691 0.013429
v -0.024092 0.004384 0.013045
v -0.024447 0.004532 0.012974
v -0.023833 0.004590 0.013786
v -0.023536 0.004633 0.014307
v -0.023402 0.004263 0.013889
v -0.024669 0.004530 0.012576
v -0.024757 0.004935 0.013232
v -0.024447 0.004532 0.012974
v -0.024447 0.004532 0.012974
v -0.024757 0.004935 0.013232
v -0.024241 0.004691 0.013429
v -0.023033 0.004152 0.014023
v -0.023402 0.004263 0.013889
v -0.023536 0.004633 0.014307
v -0.024621 0.004259 0.013095
v -0.024631 0.004240 0.013149
v -0.024687 0.004260 0.013111
v -0.024267 0.004124 0.013167
v -0.024276 0.004105 0.013221
v -0.024324 0.004119 0.013182
v -0.023558 0.004245 0.013501
v -0.023833 0.004590 0.013786
v -0.023402 0.004263 0.013889
v -0.023833 0.004590 0.013786
v -0.023558 0.004245 0.013501
v -0.023738 0.004343 0.013446
v -0.023990 0.004402 0.013226
v -0.024092 0.004384 0.013045
v -0.024241 0.004691 0.013429
v -0.025819 0.003542 0.011466
v -0.025747 0.003995 0.011562
v -0.024760 0.003592 0.011441
v -0.026718 0.003724 0.012026
v -0.024697 0.004050 0.011538
v -0.026806 0.003259 0.011940
v -0.027459 0.003417 0.012859
v -0.027561 0.002914 0.012812
v -0.027843 0.003184 0.013795
v -0.027904 0.002674 0.013776
v -0.027767 0.003115 0.014831
v -0.027883 0.002600 0.014817
v -0.027448 0.002631 0.015938
v -0.027325 0.003122 0.015893
v -0.026667 0.002712 0.016750
v -0.026562 0.003188 0.016672
v -0.025669 0.002701 0.017109
v -0.025581 0.003180 0.017024
v -0.026433 0.006508 0.013305
v -0.026391 0.006554 0.013304
v -0.026363 0.006501 0.013239
v -0.026425 0.006452 0.013278
v -0.026323 0.006564 0.013277
v -0.026294 0.006594 0.013810
v -0.026371 0.006419 0.013241
v -0.026253 0.006776 0.013845
v -0.026184 0.006473 0.013748
v -0.026105 0.006881 0.013829
v -0.026168 0.006496 0.014234
v -0.025999 0.006476 0.013697
v -0.026088 0.006737 0.014413
v -0.026015 0.006372 0.014039
v -0.025869 0.006891 0.014437
v -0.026130 0.006302 0.014542
v -0.025746 0.006420 0.013940
v -0.025963 0.006452 0.014900
v -0.025978 0.006260 0.014203
v -0.025614 0.006592 0.015005
v -0.026126 0.006008 0.014564
v -0.025571 0.006344 0.014031
v -0.025924 0.006072 0.015052
v -0.025914 0.006039 0.014193
v -0.025504 0.006180 0.015236
v -0.025432 0.006125 0.014050
v -0.025862 0.005698 0.014107
v -0.026136 0.005598 0.014556
v -0.025443 0.005551 0.015388
v -0.025285 0.005778 0.013944
v -0.025819 0.005146 0.013892
v -0.025940 0.005535 0.015118
v -0.025140 0.005259 0.013687
v -0.026169 0.004963 0.014499
v -0.025991 0.004786 0.015188
v -0.025426 0.004190 0.013190
v -0.025390 0.004743 0.015531
v -0.026186 0.004134 0.013803
v -0.025859 0.004183 0.013419
v -0.024954 0.004161 0.013172
v -0.025789 0.003829 0.015491
v -0.025574 0.003944 0.012641
v -0.024905 0.003960 0.012637
v -0.026132 0.003911 0.015148
v -0.026663 0.003716 0.013448
v -0.026325 0.003995 0.014686
v -0.026347 0.004076 0.014231
v -0.026193 0.003838 0.012907
v -0.026597 0.003448 0.015381
v -0.026869 0.003516 0.014707
v -0.026092 0.003440 0.015847
v -0.026898 0.003584 0.014051
v -0.026718 0.003724 0.012026
v -0.025453 0.003423 0.016061
v -0.027459 0.003417 0.012859
v -0.025747 0.003995 0.011562
v -0.025345 0.003772 0.015644
v -0.026562 0.003188 0.016672
v -0.024697 0.004050 0.011538
v -0.027843 0.003184 0.013795
v -0.027325 0.003122 0.015893
v -0.025581 0.003180 0.017024
v -0.027767 0.003115 0.014831
v -0.023779 0.003345 0.011760
v -0.024760 0.003592 0.011441
v -0.023725 0.003806 0.011850
v -0.022991 0.003371 0.012556
v -0.024697 0.004050 0.011538
v -0.023036 0.002896 0.012483
v -0.022583 0.002950 0.013555
v -0.022634 0.002441 0.013513
v -0.022548 0.002677 0.014558
v -0.022601 0.002158 0.014535
v -0.022908 0.002644 0.015533
v -0.022958 0.002123 0.015534
v -0.023678 0.002268 0.016481
v -0.023625 0.002765 0.016431
v -0.024629 0.002488 0.017039
v -0.024556 0.002996 0.016966
v -0.025669 0.002701 0.017109
v -0.025581 0.003180 0.017024
v -0.025285 0.005778 0.013944
v -0.024788 0.005776 0.014211
v -0.025140 0.005259 0.013687
v -0.025029 0.006217 0.014228
v -0.024521 0.005211 0.014094
v -0.025432 0.006125 0.014050
v -0.024510 0.004103 0.013325
v -0.024591 0.005709 0.014762
v -0.025231 0.006491 0.014161
v -0.024954 0.004161 0.013172
v -0.024370 0.005049 0.014779
v -0.025571 0.006344 0.014031
v -0.025079 0.006628 0.014484
v -0.024905 0.003960 0.012637
v -0.024896 0.005614 0.015242
v -0.025463 0.006785 0.014123
v -0.024280 0.003818 0.012830
v -0.024719 0.004847 0.015380
v -0.025540 0.006571 0.013971
v -0.024697 0.004050 0.011538
v -0.024114 0.003784 0.015010
v -0.025746 0.006420 0.013940
v -0.023725 0.003806 0.011850
v -0.024440 0.003749 0.015397
v -0.025858 0.006580 0.013683
v -0.022991 0.003371 0.012556
v -0.024183 0.003217 0.015725
v -0.025999 0.006476 0.013697
v -0.025818 0.006747 0.013712
v -0.023794 0.003607 0.013256
v -0.024789 0.003315 0.016032
v -0.026303 0.006428 0.013214
v -0.022583 0.002950 0.013555
v -0.023726 0.003216 0.015159
v -0.026371 0.006419 0.013241
v -0.026261 0.006474 0.013213
v -0.023625 0.002765 0.016431
v -0.026363 0.006501 0.013239
v -0.023953 0.003848 0.014583
v -0.022908 0.002644 0.015533
v -0.024556 0.002996 0.016966
v -0.026269 0.006530 0.013239
v -0.023502 0.003259 0.014541
v -0.026323 0.006564 0.013277
v -0.025581 0.003180 0.017024
v -0.022548 0.002677 0.014558
v -0.025930 0.006862 0.013773
v -0.025453 0.003423 0.016061
v -0.023952 0.003921 0.014126
v -0.026105 0.006881 0.013829
v -0.024873 0.003741 0.015626
v -0.025869 0.006891 0.014437
v -0.025345 0.003772 0.015644
v -0.025622 0.006897 0.014311
v -0.024132 0.004017 0.013677
v -0.025390 0.004743 0.015531
v -0.025298 0.006652 0.014837
v -0.025614 0.006592 0.015005
v -0.025443 0.005551 0.015388
v -0.025086 0.006240 0.015085
v -0.024829 0.006268 0.014627
v -0.025504 0.006180 0.015236
v -0.023529 0.003415 0.013902
v -0.023789 0.003992 0.014249
v -0.023629 0.004086 0.014291
v -0.023658 0.003835 0.014136
v -0.023504 0.003937 0.014184
v -0.023888 0.004070 0.014443
v -0.023723 0.004161 0.014476
v -0.023789 0.003992 0.014249
v -0.023629 0.004086 0.014291
v -0.023927 0.004049 0.014666
v -0.023760 0.004140 0.014688
v -0.023888 0.004070 0.014443
v -0.023723 0.004161 0.014476
v -0.023896 0.003934 0.014859
v -0.023730 0.004031 0.014871
v -0.023927 0.004049 0.014666
v -0.023760 0.004140 0.014688
v -0.023804 0.003756 0.014968
v -0.023642 0.003861 0.014975
v -0.023896 0.003934 0.014859
v -0.023730 0.004031 0.014871
v -0.023674 0.003563 0.014966
v -0.023519 0.003678 0.014973
v -0.023804 0.003756 0.014968
v -0.023642 0.003861 0.014975
v -0.023674 0.003563 0.014966
v -0.023543 0.003406 0.014853
v -0.023519 0.003678 0.014973
v -0.023394 0.003529 0.014865
v -0.023543 0.003406 0.014853
v -0.023445 0.003328 0.014659
v -0.023394 0.003529 0.014865
v -0.023301 0.003455 0.014681
v -0.023445 0.003328 0.014659
v -0.023406 0.003349 0.014436
v -0.023301 0.003455 0.014681
v -0.023264 0.003475 0.014470
v -0.023406 0.003349 0.014436
v -0.023436 0.003464 0.014244
v -0.023264 0.003475 0.014470
v -0.023293 0.003584 0.014287
v -0.023436 0.003464 0.014244
v -0.023529 0.003642 0.014134
v -0.023293 0.003584 0.014287
v -0.023381 0.003753 0.014182
v -0.023529 0.003642 0.014134
v -0.023658 0.003835 0.014136
v -0.023381 0.003753 0.014182
v -0.023504 0.003937 0.014184
v -0.023264 0.003475 0.014470
v -0.023287 0.003533 0.014494
v -0.023301 0.003455 0.014681
v -0.023318 0.003516 0.014670
v -0.023293 0.003584 0.014287
v -0.023312 0.003624 0.014343
v -0.023264 0.003475 0.014470
v -0.023287 0.003533 0.014494
v -0.023381 0.003753 0.014182
v -0.023386 0.003764 0.014258
v -0.023293 0.003584 0.014287
v -0.023312 0.003624 0.014343
v -0.023504 0.003937 0.014184
v -0.023488 0.003915 0.014261
v -0.023381 0.003753 0.014182
v -0.023386 0.003764 0.014258
v -0.023629 0.004086 0.014291
v -0.023591 0.004037 0.014350
v -0.023504 0.003937 0.014184
v -0.023488 0.003915 0.014261
v -0.023723 0.004161 0.014476
v -0.023668 0.004097 0.014501
v -0.023629 0.004086 0.014291
v -0.023591 0.004037 0.014350
v -0.023723 0.004161 0.014476
v -0.023760 0.004140 0.014688
v -0.023668 0.004097 0.014501
v -0.023698 0.004081 0.014674
v -0.023760 0.004140 0.014688
v -0.023730 0.004031 0.014871
v -0.023698 0.004081 0.014674
v -0.023675 0.003992 0.014824
v -0.023730 0.004031 0.014871
v -0.023642 0.003861 0.014975
v -0.023675 0.003992 0.014824
v -0.023603 0.003853 0.014911
v -0.023642 0.003861 0.014975
v -0.023519 0.003678 0.014973
v -0.023603 0.003853 0.014911
v -0.023501 0.003702 0.014911
v -0.023519 0.003678 0.014973
v -0.023394 0.003529 0.014865
v -0.023501 0.003702 0.014911
v -0.023397 0.003578 0.014823
v -0.023301 0.003455 0.014681
v -0.023318 0.003516 0.014670
v -0.023394 0.003529 0.014865
v -0.023397 0.003578 0.014823
v -0.023591 0.004037 0.014350
v -0.023668 0.004097 0.014501
v -0.023646 0.004004 0.014376
v -0.023713 0.004054 0.014508
v -0.023488 0.003915 0.014261
v -0.023591 0.004037 0.014350
v -0.023554 0.003900 0.014296
v -0.023646 0.004004 0.014376
v -0.023386 0.003764 0.014258
v -0.023488 0.003915 0.014261
v -0.023462 0.003767 0.014292
v -0.023554 0.003900 0.014296
v -0.023312 0.003624 0.014343
v -0.023386 0.003764 0.014258
v -0.023395 0.003643 0.014366
v -0.023462 0.003767 0.014292
v -0.023287 0.003533 0.014494
v -0.023312 0.003624 0.014343
v -0.023372 0.003561 0.014500
v -0.023395 0.003643 0.014366
v -0.023287 0.003533 0.014494
v -0.023372 0.003561 0.014500
v -0.023318 0.003516 0.014670
v -0.023400 0.003547 0.014656
v -0.023318 0.003516 0.014670
v -0.023400 0.003547 0.014656
v -0.023397 0.003578 0.014823
v -0.023471 0.003603 0.014790
v -0.023397 0.003578 0.014823
v -0.023471 0.003603 0.014790
v -0.023501 0.003702 0.014911
v -0.023565 0.003713 0.014865
v -0.023501 0.003702 0.014911
v -0.023565 0.003713 0.014865
v -0.023603 0.003853 0.014911
v -0.023655 0.003845 0.014862
v -0.023603 0.003853 0.014911
v -0.023655 0.003845 0.014862
v -0.023675 0.003992 0.014824
v -0.023719 0.003963 0.014785
v -0.023675 0.003992 0.014824
v -0.023719 0.003963 0.014785
v -0.023698 0.004081 0.014674
v -0.023740 0.004039 0.014656
v -0.023668 0.004097 0.014501
v -0.023698 0.004081 0.014674
v -0.023713 0.004054 0.014508
v -0.023740 0.004039 0.014656
v -0.023435 0.003751 0.014536
v -0.023553 0.003897 0.014647
v -0.023487 0.003720 0.014565
v -0.023597 0.003869 0.014673
v -0.023435 0.003751 0.014536
v -0.023491 0.003764 0.014505
v -0.023553 0.003897 0.014647
v -0.023609 0.003911 0.014613
v -0.023435 0.003751 0.014536
v -0.023516 0.003675 0.014490
v -0.023491 0.003764 0.014505
v -0.023536 0.003719 0.014480
v -0.023435 0.003751 0.014536
v -0.023487 0.003720 0.014565
v -0.023516 0.003675 0.014490
v -0.023529 0.003681 0.014533
v -0.023686 0.003910 0.014617
v -0.023700 0.003914 0.014664
v -0.023609 0.003911 0.014613
v -0.023553 0.003897 0.014647
v -0.023553 0.003897 0.014647
v -0.023700 0.003914 0.014664
v -0.023597 0.003869 0.014673
v -0.023679 0.003873 0.014670
v -0.023512 0.003865 0.014472
v -0.023504 0.003920 0.014476
v -0.023455 0.003828 0.014577
v -0.023442 0.003880 0.014603
v -0.023566 0.003905 0.014506
v -0.023517 0.003871 0.014616
v -0.023504 0.003920 0.014476
v -0.023442 0.003880 0.014603
v -0.023504 0.003920 0.014476
v -0.023649 0.003860 0.014412
v -0.023566 0.003905 0.014506
v -0.023656 0.003868 0.014461
v -0.023512 0.003865 0.014472
v -0.023611 0.003839 0.014434
v -0.023504 0.003920 0.014476
v -0.023649 0.003860 0.014412
v -0.023474 0.003758 0.014675
v -0.023455 0.003828 0.014577
v -0.023457 0.003799 0.014713
v -0.023442 0.003880 0.014603
v -0.023442 0.003880 0.014603
v -0.023517 0.003871 0.014616
v -0.023457 0.003799 0.014713
v -0.023536 0.003796 0.014705
v -0.023595 0.003750 0.014711
v -0.023536 0.003796 0.014705
v -0.023550 0.003720 0.014684
v -0.023474 0.003758 0.014675
v -0.023595 0.003750 0.014711
v -0.023571 0.003721 0.014720
v -0.023536 0.003796 0.014705
v -0.023457 0.003799 0.014713
v -0.023457 0.003799 0.014713
v -0.023571 0.003721 0.014720
v -0.023474 0.003758 0.014675
v -0.023550 0.003720 0.014684
v -0.023738 0.004343 0.013446
v -0.023914 0.004077 0.013557
v -0.023761 0.004229 0.013176
v -0.023924 0.003949 0.013283
v -0.023924 0.003949 0.013283
v -0.024155 0.004138 0.013347
v -0.023761 0.004229 0.013176
v -0.023990 0.004402 0.013226
v -0.024937 0.004684 0.013370
v -0.024757 0.004935 0.013232
v -0.024847 0.004284 0.012696
v -0.024669 0.004530 0.012576
v -0.024937 0.004684 0.013370
v -0.024433 0.004444 0.013578
v -0.024757 0.004935 0.013232
v -0.024241 0.004691 0.013429
v -0.023738 0.004343 0.013446
v -0.023558 0.004245 0.013501
v -0.023914 0.004077 0.013557
v -0.023723 0.003978 0.013621
v -0.023558 0.004245 0.013501
v -0.023402 0.004263 0.013889
v -0.023723 0.003978 0.013621
v -0.023576 0.003989 0.014012
v -0.023833 0.004590 0.013786
v -0.024026 0.004343 0.013936
v -0.023536 0.004633 0.014307
v -0.023714 0.004380 0.014442
v -0.024090 0.004679 0.013679
v -0.024040 0.004737 0.013878
v -0.024052 0.004685 0.013637
v -0.023833 0.004590 0.013786
v -0.024092 0.004384 0.013045
v -0.024267 0.004124 0.013167
v -0.024447 0.004532 0.012974
v -0.024621 0.004259 0.013095
v -0.024267 0.004124 0.013167
v -0.024092 0.004384 0.013045
v -0.024155 0.004138 0.013347
v -0.023990 0.004402 0.013226
v -0.024621 0.004259 0.013095
v -0.024847 0.004284 0.012696
v -0.024447 0.004532 0.012974
v -0.024669 0.004530 0.012576
v -0.024432 0.004550 0.013790
v -0.024274 0.004795 0.013673
v -0.024433 0.004444 0.013578
v -0.024241 0.004691 0.013429
v -0.024090 0.004679 0.013679
v -0.024274 0.004795 0.013673
v -0.024259 0.004438 0.013803
v -0.024432 0.004550 0.013790
v -0.024200 0.004492 0.013993
v -0.024040 0.004737 0.013878
v -0.024259 0.004438 0.013803
v -0.024090 0.004679 0.013679
v -0.023833 0.004590 0.013786
v -0.024040 0.004737 0.013878
v -0.024026 0.004343 0.013936
v -0.024200 0.004492 0.013993
v -0.023033 0.004152 0.014023
v -0.023187 0.003873 0.014153
v -0.023402 0.004263 0.013889
v -0.023576 0.003989 0.014012
v -0.023187 0.003873 0.014153
v -0.023033 0.004152 0.014023
v -0.023714 0.004380 0.014442
v -0.023536 0.004633 0.014307
v -0.024267 0.004124 0.013167
v -0.024155 0.004138 0.013347
v -0.024276 0.004105 0.013221
v -0.024192 0.004144 0.013377
v -0.024267 0.004124 0.013167
v -0.024324 0.004119 0.013182
v -0.024621 0.004259 0.013095
v -0.024631 0.004240 0.013149
v -0.024847 0.004284 0.012696
v -0.024621 0.004259 0.013095
v -0.024857 0.004281 0.012780
v -0.024687 0.004260 0.013111
v -0.024241 0.004691 0.013429
v -0.024274 0.004795 0.013673
v -0.024052 0.004685 0.013637
v -0.024090 0.004679 0.013679
v -0.023761 0.004229 0.013176
v -0.024052 0.004685 0.013637
v -0.023738 0.004343 0.013446
v -0.023833 0.004590 0.013786
v -0.024241 0.004691 0.013429
v -0.024052 0.004685 0.013637
v -0.023990 0.004402 0.013226
v -0.023761 0.004229 0.013176
v -0.025485 0.004437 0.013197
v -0.025505 0.004118 0.013024
v -0.025746 0.004331 0.013265
v -0.025789 0.004002 0.013097
v -0.025789 0.004002 0.013097
v -0.026049 0.004076 0.013264
v -0.025746 0.004331 0.013265
v -0.025986 0.004398 0.013417
v -0.025986 0.004398 0.013417
v -0.026049 0.004076 0.013264
v -0.026192 0.004274 0.013588
v -0.026273 0.003941 0.013449
v -0.026273 0.003941 0.013449
v -0.026453 0.003999 0.013716
v -0.026192 0.004274 0.013588
v -0.026357 0.004327 0.013831
v -0.026357 0.004327 0.013831
v -0.026453 0.003999 0.013716
v -0.026473 0.004191 0.014073
v -0.026578 0.003851 0.013975
v -0.026578 0.003851 0.013975
v -0.026646 0.003899 0.014294
v -0.026473 0.004191 0.014073
v -0.026536 0.004235 0.014365
v -0.026536 0.004235 0.014365
v -0.026646 0.003899 0.014294
v -0.026540 0.004096 0.014634
v -0.026652 0.003747 0.014586
v -0.026652 0.003747 0.014586
v -0.026597 0.003796 0.014906
v -0.026540 0.004096 0.014634
v -0.026490 0.004140 0.014929
v -0.026490 0.004140 0.014929
v -0.026597 0.003796 0.014906
v -0.026383 0.004004 0.015175
v -0.026481 0.003648 0.015174
v -0.026481 0.003648 0.015174
v -0.026312 0.003705 0.015444
v -0.026383 0.004004 0.015175
v -0.026228 0.004056 0.015424
v -0.026228 0.004056 0.015424
v -0.026312 0.003705 0.015444
v -0.026028 0.003933 0.015603
v -0.026095 0.003570 0.015638
v -0.026095 0.003570 0.015638
v -0.025842 0.003644 0.015814
v -0.026028 0.003933 0.015603
v -0.025795 0.004000 0.015765
v -0.025795 0.004000 0.015765
v -0.025842 0.003644 0.015814
v -0.025537 0.003894 0.015842
v -0.025561 0.003527 0.015898
v -0.025561 0.003527 0.015898
v -0.025267 0.003622 0.015953
v -0.025537 0.003894 0.015842
v -0.025266 0.003980 0.015893
v -0.025266 0.003980 0.015893
v -0.025267 0.003622 0.015953
v -0.024994 0.003894 0.015853
v -0.024972 0.003527 0.015910
v -0.024972 0.003527 0.015910
v -0.024688 0.003644 0.015837
v -0.024994 0.003894 0.015853
v -0.024733 0.004000 0.015786
v -0.024733 0.004000 0.015786
v -0.024688 0.003644 0.015837
v -0.024494 0.003933 0.015633
v -0.024428 0.003570 0.015670
v -0.024428 0.003570 0.015670
v -0.024204 0.003705 0.015485
v -0.024494 0.003933 0.015633
v -0.024287 0.004056 0.015462
v -0.024287 0.004056 0.015462
v -0.024204 0.003705 0.015485
v -0.024122 0.004004 0.015220
v -0.024024 0.003648 0.015222
v -0.024024 0.003648 0.015222
v -0.023898 0.003796 0.014959
v -0.024122 0.004004 0.015220
v -0.024006 0.004140 0.014978
v -0.024006 0.004140 0.014978
v -0.023898 0.003796 0.014959
v -0.023944 0.004096 0.014685
v -0.023831 0.003747 0.014641
v -0.023831 0.003747 0.014641
v -0.023825 0.003899 0.014349
v -0.023944 0.004096 0.014685
v -0.023938 0.004235 0.014416
v -0.023938 0.004235 0.014416
v -0.023825 0.003899 0.014349
v -0.023990 0.004191 0.014121
v -0.023880 0.003851 0.014028
v -0.023880 0.003851 0.014028
v -0.023996 0.003999 0.013760
v -0.023990 0.004191 0.014121
v -0.024096 0.004327 0.013875
v -0.024096 0.004327 0.013875
v -0.023996 0.003999 0.013760
v -0.024252 0.004274 0.013626
v -0.024165 0.003941 0.013490
v -0.024165 0.003941 0.013490
v -0.024382 0.004076 0.013296
v -0.024252 0.004274 0.013626
v -0.024451 0.004398 0.013447
v -0.024451 0.004398 0.013447
v -0.024382 0.004076 0.013296
v -0.024685 0.004331 0.013285
v -0.024635 0.004002 0.013120
v -0.024635 0.004002 0.013120
v -0.024916 0.004118 0.013036
v -0.024685 0.004331 0.013285
v -0.024942 0.004437 0.013208
v -0.024942 0.004437 0.013208
v -0.024916 0.004118 0.013036
v -0.025213 0.004350 0.013158
v -0.025209 0.004024 0.012981
v -0.025209 0.004024 0.012981
v -0.025505 0.004118 0.013024
v -0.025213 0.004350 0.013158
v -0.025485 0.004437 0.013197
v -0.025697 0.004278 0.013368
v -0.025462 0.004382 0.013304
v -0.025746 0.004331 0.013265
v -0.025485 0.004437 0.013197
v -0.025986 0.004398 0.013417
v -0.025916 0.004348 0.013505
v -0.025746 0.004331 0.013265
v -0.025697 0.004278 0.013368
v -0.026101 0.004227 0.013662
v -0.025916 0.004348 0.013505
v -0.026192 0.004274 0.013588
v -0.025986 0.004398 0.013417
v -0.026357 0.004327 0.013831
v -0.026255 0.004283 0.013883
v -0.026192 0.004274 0.013588
v -0.026101 0.004227 0.013662
v -0.026357 0.004152 0.014105
v -0.026255 0.004283 0.013883
v -0.026473 0.004191 0.014073
v -0.026357 0.004327 0.013831
v -0.026536 0.004235 0.014365
v -0.026418 0.004200 0.014374
v -0.026473 0.004191 0.014073
v -0.026357 0.004152 0.014105
v -0.026419 0.004065 0.014619
v -0.026418 0.004200 0.014374
v -0.026540 0.004096 0.014634
v -0.026536 0.004235 0.014365
v -0.026490 0.004140 0.014929
v -0.026376 0.004112 0.014891
v -0.026540 0.004096 0.014634
v -0.026419 0.004065 0.014619
v -0.026276 0.003981 0.015114
v -0.026376 0.004112 0.014891
v -0.026383 0.004004 0.015175
v -0.026490 0.004140 0.014929
v -0.026228 0.004056 0.015424
v -0.026137 0.004035 0.015344
v -0.026383 0.004004 0.015175
v -0.026276 0.003981 0.015114
v -0.025953 0.003915 0.015504
v -0.026137 0.004035 0.015344
v -0.026028 0.003933 0.015603
v -0.026228 0.004056 0.015424
v -0.025795 0.004000 0.015765
v -0.025743 0.003983 0.015656
v -0.026028 0.003933 0.015603
v -0.025953 0.003915 0.015504
v -0.025508 0.003879 0.015721
v -0.025743 0.003983 0.015656
v -0.025537 0.003894 0.015842
v -0.025795 0.004000 0.015765
v -0.025266 0.003980 0.015893
v -0.025264 0.003964 0.015772
v -0.025537 0.003894 0.015842
v -0.025508 0.003879 0.015721
v -0.025018 0.003879 0.015730
v -0.025264 0.003964 0.015772
v -0.024994 0.003894 0.015853
v -0.025266 0.003980 0.015893
v -0.024733 0.004000 0.015786
v -0.024780 0.003983 0.015674
v -0.024994 0.003894 0.015853
v -0.025018 0.003879 0.015730
v -0.024565 0.003876 0.015524
v -0.024780 0.003983 0.015674
v -0.024494 0.003933 0.015633
v -0.024733 0.004000 0.015786
v -0.024287 0.004056 0.015462
v -0.024375 0.004035 0.015379
v -0.024494 0.003933 0.015633
v -0.024565 0.003876 0.015524
v -0.024227 0.003904 0.015141
v -0.024375 0.004035 0.015379
v -0.024122 0.004004 0.015220
v -0.024287 0.004056 0.015462
v -0.024006 0.004140 0.014978
v -0.024118 0.004112 0.014935
v -0.024122 0.004004 0.015220
v -0.024227 0.003904 0.015141
v -0.024064 0.004065 0.014665
v -0.024118 0.004112 0.014935
v -0.023944 0.004096 0.014685
v -0.024006 0.004140 0.014978
v -0.023938 0.004235 0.014416
v -0.024056 0.004200 0.014420
v -0.023944 0.004096 0.014685
v -0.024064 0.004065 0.014665
v -0.024106 0.004152 0.014149
v -0.024056 0.004200 0.014420
v -0.023990 0.004191 0.014121
v -0.023938 0.004235 0.014416
v -0.024096 0.004327 0.013875
v -0.024200 0.004283 0.013923
v -0.023990 0.004191 0.014121
v -0.024106 0.004152 0.014149
v -0.024345 0.004227 0.013696
v -0.024200 0.004283 0.013923
v -0.024252 0.004274 0.013626
v -0.024096 0.004327 0.013875
v -0.024451 0.004398 0.013447
v -0.024524 0.004348 0.013532
v -0.024252 0.004274 0.013626
v -0.024345 0.004227 0.013696
v -0.024738 0.004278 0.013386
v -0.024524 0.004348 0.013532
v -0.024685 0.004331 0.013285
v -0.024451 0.004398 0.013447
v -0.024942 0.004437 0.013208
v -0.024970 0.004382 0.013314
v -0.024685 0.004331 0.013285
v -0.024738 0.004278 0.013386
v -0.025215 0.004295 0.013271
v -0.024970 0.004382 0.013314
v -0.025213 0.004350 0.013158
v -0.024942 0.004437 0.013208
v -0.025485 0.004437 0.013197
v -0.025462 0.004382 0.013304
v -0.025213 0.004350 0.013158
v -0.025215 0.004295 0.013271
v -0.023422 0.000232 0.013640
v -0.023693 0.000232 0.013139
v -0.024305 0.000509 0.013951
v -0.024255 0.000509 0.014224
v -0.024437 0.000509 0.013708
v -0.023319 0.000232 0.014200
v -0.024490 0.000843 0.014017
v -0.024106 0.000232 0.012746
v -0.023329 0.000000 0.013607
v -0.024480 0.000843 0.014442
v -0.023615 0.000000 0.013079
v -0.024637 0.000509 0.013517
v -0.023221 0.000000 0.014198
v -0.024050 0.000000 0.012666
v -0.024619 0.000232 0.012500
v -0.024749 0.000843 0.013679
v -0.024291 0.000509 0.014498
v -0.024592 0.000000 0.012406
v -0.024411 0.000509 0.014747
v -0.024490 0.003294 0.014017
v -0.024887 0.000509 0.013398
v -0.024721 0.000843 0.014792
v -0.024480 0.003294 0.014442
v -0.024721 0.003294 0.014792
v -0.024749 0.003294 0.013679
v -0.025184 0.000232 0.012425
v -0.025156 0.000843 0.013558
v -0.025187 0.000000 0.012327
v -0.025122 0.003294 0.014933
v -0.025156 0.003294 0.013558
v -0.025161 0.000509 0.013361
v -0.025777 0.000000 0.012436
v -0.025122 0.000843 0.014933
v -0.025557 0.000843 0.013699
v -0.025745 0.000232 0.012528
v -0.024845 0.000509 0.015080
v -0.025557 0.003294 0.013699
v -0.025433 0.000509 0.013411
v -0.025117 0.000509 0.015130
v -0.025798 0.000843 0.014049
v -0.025529 0.003294 0.014812
v -0.025867 0.000509 0.013744
v -0.025798 0.003294 0.014049
v -0.026246 0.000232 0.012799
v -0.025529 0.000843 0.014812
v -0.025788 0.000843 0.014474
v -0.026305 0.000000 0.012721
v -0.025391 0.000509 0.015093
v -0.026023 0.000509 0.014267
v -0.025841 0.000509 0.014783
v -0.025987 0.000509 0.013993
v -0.025788 0.003294 0.014474
v -0.025094 0.000232 0.016066
v -0.025973 0.000509 0.014540
v -0.025659 0.000232 0.015991
v -0.026857 0.000232 0.014851
v -0.025641 0.000509 0.014974
v -0.024534 0.000232 0.015963
v -0.026585 0.000232 0.015352
v -0.026960 0.000232 0.014291
v -0.026173 0.000232 0.015745
v -0.024032 0.000232 0.015692
v -0.026949 0.000000 0.014884
v -0.026228 0.000000 0.015825
v -0.023973 0.000000 0.015769
v -0.027057 0.000000 0.014293
v -0.026663 0.000000 0.015412
v -0.024501 0.000000 0.016055
v -0.024602 0.000509 0.014948
v -0.023559 0.000000 0.015335
v -0.025687 0.000000 0.016085
v -0.025091 0.000000 0.016164
v -0.023640 0.000232 0.015279
v -0.023300 0.000000 0.014793
v -0.023394 0.000232 0.014765
v -0.023221 0.000000 0.014198
v -0.023319 0.000232 0.014200
v -0.024255 0.000509 0.014224
v -0.025677 0.000509 0.013543
v -0.026638 0.000232 0.013212
v -0.026719 0.000000 0.013156
v -0.026884 0.000232 0.013726
v -0.026978 0.000000 0.013698
v -0.027057 0.000000 0.014293
v -0.026960 0.000232 0.014291
v -0.026023 0.000509 0.014267
vn 0.8621 0.4205 0.2828
vn 0.8195 0.4654 0.3345
vn 0.7762 0.5271 0.3459
vn 0.7423 0.5893 0.3189
vn 0.7246 0.6371 0.2626
vn 0.7262 0.6603 0.1913
vn 0.7464 0.6545 0.1203
vn 0.7814 0.6207 0.0653
vn 0.8240 0.5652 0.0402
vn 0.8644 0.4999 0.0546
vn 0.8908 0.4405 0.1117
vn 0.8904 0.4094 0.1991
vn 0.4206 0.7808 -0.4620
vn 0.6119 0.6788 -0.4060
vn 0.6187 0.7032 -0.3503
vn 0.5172 0.7084 -0.4803
vn 0.4132 0.7429 -0.5267
vn -0.1021 -0.9340 -0.3424
vn 0.0040 -0.9425 -0.3341
vn 0.6216 0.7300 -0.2841
vn 0.5313 0.7496 -0.3948
vn 0.5449 0.7450 -0.3848
vn -0.2613 0.2377 -0.9355
vn -0.0404 0.9971 0.0644
vn 0.1546 0.1825 -0.9710
vn -0.3158 0.9487 0.0177
vn -0.0403 0.9971 0.0644
vn -0.6364 0.2465 -0.7309
vn -0.8650 0.2044 -0.4582
vn -0.4024 0.9101 0.0991
vn -0.9763 0.1725 -0.1308
vn -0.3440 0.9227 0.1739
vn -0.9568 0.1993 0.2115
vn -0.8195 0.2418 0.5196
vn -0.5311 0.2428 0.8118
vn -0.0699 0.9671 0.2444
vn -0.1226 0.1869 0.9747
vn -0.9344 0.1371 -0.3287
vn -0.7057 0.6483 -0.2858
vn -0.3957 0.3419 -0.8524
vn -0.6729 -0.7247 -0.1484
vn -0.2958 0.7395 -0.6047
vn -0.9304 -0.2735 0.2441
vn -0.2147 -0.6622 -0.7179
vn -0.8126 0.5716 0.1138
vn -0.3893 -0.9187 0.0664
vn -0.2865 0.9446 -0.1599
vn -0.9480 -0.2974 0.1132
vn 0.2352 -0.9370 -0.2582
vn -0.7940 0.4835 0.3685
vn -0.4076 -0.8656 -0.2910
vn -0.2527 0.9187 0.3035
vn -0.9904 -0.1381 -0.0048
vn 0.2329 -0.7375 -0.6340
vn -0.7507 0.3367 0.5684
vn -0.5864 -0.4941 -0.6419
vn -0.1514 0.6843 0.7133
vn -0.9982 -0.0066 -0.0597
vn 0.1146 -0.3370 -0.9345
vn -0.7330 0.1519 0.6631
vn -0.6365 -0.0264 -0.7708
vn -0.1019 0.3545 0.9295
vn 0.0401 0.1162 -0.9924
vn -0.6291 0.1696 -0.7586
vn -0.9936 0.0622 -0.0948
vn -0.1289 0.1992 0.9714
vn 0.0704 0.3482 -0.9348
vn -0.6222 0.3499 -0.7003
vn -0.7585 0.1003 0.6440
vn 0.1210 0.4668 -0.8761
vn -0.9743 0.2063 -0.0909
vn -0.7843 0.1348 0.6055
vn -0.2227 0.6712 -0.7070
vn -0.1461 0.1559 0.9769
vn -0.7674 0.5372 -0.3500
vn -0.5191 0.6575 -0.5461
vn 0.1666 0.7272 -0.6658
vn -0.4500 0.4001 0.7984
vn -0.0404 0.9971 0.0643
vn -0.7101 0.4548 0.5375
vn -0.3158 0.9486 0.0177
vn -0.8687 0.4190 0.2643
vn -0.8520 0.5208 -0.0533
vn -0.3440 0.9227 0.1740
vn -0.3441 0.9227 0.1739
vn -0.4024 0.9101 0.0990
vn -0.3157 0.9487 0.0177
vn -0.0852 0.4591 0.8843
vn -0.0699 0.9672 0.2444
vn -0.4023 0.9101 0.0990
vn 0.5370 0.0997 -0.8377
vn 0.1547 0.1825 -0.9710
vn 0.3524 0.9241 0.1478
vn 0.8314 0.0020 -0.5556
vn 0.4997 0.8424 0.2015
vn 0.9714 -0.0711 -0.2266
vn 0.4997 0.8424 0.2016
vn 0.9849 -0.1002 0.1412
vn 0.4971 0.8388 0.2223
vn 0.8719 -0.0752 0.4838
vn 0.6589 -0.0038 0.7522
vn 0.3379 0.9040 0.2619
vn 0.3068 0.0942 0.9471
vn 0.3378 0.9040 0.2620
vn -0.0698 0.9671 0.2444
vn 0.0705 0.3482 -0.9348
vn 0.7072 0.4068 -0.5783
vn 0.1211 0.4668 -0.8761
vn 0.6385 0.3152 -0.7021
vn 0.7656 0.4450 -0.4646
vn 0.0401 0.1163 -0.9924
vn 0.4898 0.6474 -0.5840
vn 0.9092 0.3911 0.1428
vn 0.5938 0.1691 -0.7867
vn 0.1667 0.7273 -0.6658
vn 0.9186 0.3307 0.2164
vn 0.1147 -0.3369 -0.9345
vn 0.7219 0.6675 -0.1825
vn -0.0403 0.9971 0.0643
vn 0.5346 0.3094 0.7864
vn 0.6156 0.6473 -0.4494
vn 0.3524 0.9241 0.1477
vn 0.5588 0.2212 0.7993
vn 0.6264 -0.1031 -0.7726
vn 0.7780 0.3836 0.4975
vn 0.2330 -0.7374 -0.6340
vn 0.5781 0.4077 0.7068
vn 0.6741 -0.4497 -0.5860
vn 0.3379 0.9040 0.2620
vn 0.2353 -0.9370 -0.2583
vn 0.6465 0.3894 -0.6561
vn 0.4136 -0.4527 -0.7899
vn 0.4996 0.8425 0.2016
vn 0.4970 0.8388 0.2223
vn -0.2146 -0.6622 -0.7179
vn 0.2201 0.3016 -0.9277
vn 0.8659 0.4477 0.2232
vn 0.0846 0.6978 -0.7113
vn -0.0698 0.9672 0.2444
vn 0.2120 0.8846 -0.4155
vn 0.8698 0.4887 -0.0681
vn -0.2865 0.9447 -0.1599
vn 0.2565 0.3828 0.8875
vn 0.2470 0.9688 0.0219
vn 0.7292 0.5980 -0.3327
vn -0.1460 0.1559 0.9769
vn 0.3922 0.8033 0.4481
vn -0.1513 0.6844 0.7133
vn -0.1289 0.1993 0.9714
vn 0.5171 0.4923 0.7002
vn 0.8660 0.4996 0.0209
vn -0.1018 0.3545 0.9295
vn -0.0906 0.5310 -0.8425
vn -0.0908 0.5311 -0.8425
vn -0.0905 0.5310 -0.8425
vn -0.0907 0.5310 -0.8425
vn -0.3405 0.7992 -0.4952
vn -0.3406 0.7992 -0.4952
vn -0.3404 0.7993 -0.4953
vn -0.4809 0.8768 -0.0004
vn -0.4810 0.8767 -0.0003
vn -0.4811 0.8767 -0.0003
vn -0.4812 0.8766 -0.0002
vn -0.4634 0.7249 0.5097
vn -0.4634 0.7250 0.5096
vn -0.4635 0.7248 0.5097
vn -0.2907 0.3869 0.8751
vn -0.2908 0.3868 0.8751
vn -0.2908 0.3867 0.8751
vn -0.0226 -0.0269 0.9994
vn -0.0225 -0.0267 0.9994
vn -0.0226 -0.0272 0.9994
vn -0.0226 -0.0270 0.9994
vn 0.2674 -0.4076 0.8731
vn 0.2676 -0.4076 0.8731
vn 0.5152 -0.6721 0.5319
vn 0.5154 -0.6720 0.5318
vn 0.5153 -0.6720 0.5318
vn 0.6592 -0.7506 0.0441
vn 0.6591 -0.7508 0.0442
vn 0.6592 -0.7507 0.0441
vn 0.6591 -0.7507 0.0442
vn 0.6471 -0.6044 -0.4647
vn 0.6470 -0.6045 -0.4646
vn 0.6472 -0.6043 -0.4647
vn 0.4763 -0.2702 -0.8367
vn 0.4763 -0.2704 -0.8367
vn 0.4764 -0.2701 -0.8367
vn 0.2046 0.1453 -0.9680
vn 0.2045 0.1451 -0.9680
vn 0.2046 0.1454 -0.9680
vn 0.9355 0.2963 0.1924
vn 0.9355 0.2964 0.1924
vn 0.9333 0.3539 0.0607
vn 0.9333 0.3538 0.0606
vn 0.8895 0.4567 -0.0137
vn 0.8295 0.5583 -0.0180
vn 0.8294 0.5583 -0.0181
vn 0.7740 0.6326 0.0270
vn 0.7740 0.6326 0.0269
vn 0.7311 0.6749 0.0997
vn 0.7310 0.6750 0.0997
vn 0.7312 0.6749 0.0997
vn 0.7042 0.6845 0.1885
vn 0.7044 0.6842 0.1887
vn 0.7043 0.6844 0.1886
vn 0.7043 0.6843 0.1886
vn 0.6987 0.6578 0.2813
vn 0.6988 0.6577 0.2813
vn 0.7171 0.5965 0.3606
vn 0.7590 0.5065 0.4092
vn 0.8219 0.4015 0.4042
vn 0.8218 0.4014 0.4043
vn 0.8219 0.4014 0.4042
vn 0.8218 0.4014 0.4042
vn 0.8906 0.3167 0.3263
vn 0.6162 -0.5751 0.5381
vn 0.6163 -0.5750 0.5381
vn 0.5083 -0.1904 0.8398
vn 0.4042 0.2536 0.8788
vn 0.4043 0.2536 0.8788
vn 0.3342 0.6103 0.7182
vn 0.3342 0.6103 0.7183
vn 0.3081 0.8359 0.4543
vn 0.3083 0.8358 0.4544
vn 0.3078 0.8360 0.4543
vn 0.3083 0.8358 0.4543
vn 0.3236 0.9349 0.1459
vn 0.3236 0.9349 0.1460
vn 0.3237 0.9348 0.1459
vn 0.3780 0.9086 -0.1777
vn 0.3782 0.9085 -0.1777
vn 0.3781 0.9086 -0.1777
vn 0.4694 0.7368 -0.4866
vn 0.4695 0.7368 -0.4866
vn 0.5862 0.3901 -0.7101
vn 0.5862 0.3901 -0.7100
vn 0.6888 -0.0952 -0.7187
vn 0.6888 -0.0952 -0.7186
vn 0.7273 -0.5337 -0.4315
vn 0.6958 -0.7163 0.0525
vn 0.6959 -0.7162 0.0525
vn 0.5673 -0.1579 0.8083
vn 0.5673 -0.1578 0.8082
vn 0.5673 -0.1580 0.8082
vn 0.4597 0.7393 -0.4920
vn 0.4598 0.7393 -0.4920
vn 0.4836 0.0117 -0.8752
vn 0.4835 0.0117 -0.8753
vn 0.4835 0.0117 -0.8752
vn 0.5732 -0.7819 0.2450
vn 0.5732 -0.7820 0.2450
vn 0.0814 0.9929 0.0865
vn 0.0897 0.3970 0.9134
vn 0.0897 0.3969 0.9135
vn 0.8820 -0.0522 -0.4684
vn 0.8820 -0.0521 -0.4683
vn -0.0593 0.9447 0.3224
vn -0.0592 0.9447 0.3224
vn -0.3009 0.9366 -0.1796
vn -0.3008 0.9366 -0.1796
vn 0.4048 -0.0635 -0.9122
vn 0.4049 -0.0636 -0.9122
vn 0.4048 -0.0636 -0.9122
vn 0.9597 -0.2773 -0.0455
vn -0.0332 0.7882 0.6146
vn -0.2925 0.2976 -0.9088
vn -0.0959 0.2398 0.9661
vn -0.0960 0.2398 0.9661
vn 0.4959 -0.7440 0.4478
vn 0.4959 -0.7441 0.4477
vn 0.8662 -0.4741 0.1577
vn -0.3601 -0.1676 -0.9177
vn -0.3601 -0.1677 -0.9177
vn -0.8352 0.4138 -0.3622
vn -0.8352 0.4138 -0.3623
vn -0.0771 0.5402 0.8380
vn 0.0627 -0.4291 -0.9011
vn 0.0626 -0.4290 -0.9011
vn 0.7557 -0.5955 -0.2726
vn 0.7557 -0.5956 -0.2724
vn 0.7557 -0.5955 -0.2725
vn -0.6554 0.6768 0.3352
vn 0.3998 0.8916 -0.2128
vn 0.3997 0.8916 -0.2128
vn 0.3997 0.8916 -0.2127
vn 0.0139 -0.4223 -0.9063
vn 0.0138 -0.4223 -0.9063
vn 0.6981 -0.6199 -0.3582
vn 0.6982 -0.6199 -0.3582
vn 0.6658 -0.6340 -0.3934
vn 0.6658 -0.6341 -0.3934
vn -0.8472 0.4583 -0.2687
vn 0.1689 0.3444 0.9235
vn -0.8128 0.5794 0.0602
vn 0.4563 0.1445 0.8780
vn 0.4564 0.1445 0.8780
vn 0.1641 -0.4880 -0.8573
vn 0.1643 -0.4879 -0.8573
vn 0.1644 -0.4879 -0.8573
vn 0.1645 -0.4878 -0.8573
vn 0.5418 0.0791 0.8368
vn 0.2692 -0.9631 -0.0077
vn 0.2691 -0.9631 -0.0077
vn 0.2692 -0.9631 -0.0078
vn -0.2367 -0.8211 -0.5194
vn -0.0300 -0.9985 -0.0464
vn -0.0301 -0.9985 -0.0464
vn -0.0300 -0.9985 -0.0465
vn -0.0301 -0.9985 -0.0463
vn 0.4078 0.8898 -0.2049
vn 0.4077 0.8898 -0.2049
vn 0.5745 0.7322 -0.3658
vn 0.5745 0.7322 -0.3657
vn 0.4909 0.7509 -0.4418
vn -0.1893 0.4779 -0.8578
vn -0.3877 0.4584 -0.7997
vn -0.5608 0.4446 -0.6984
vn -0.5609 0.4446 -0.6984
vn -0.7132 0.4108 -0.5680
vn -0.8244 0.3872 -0.4127
vn -0.8245 0.3872 -0.4127
vn -0.9047 0.3503 -0.2426
vn -0.9439 0.3248 -0.0591
vn -0.9047 0.3503 -0.2427
vn -0.9440 0.3248 -0.0590
vn -0.9440 0.3248 -0.0591
vn -0.9497 0.2867 0.1258
vn -0.9132 0.2633 0.3111
vn -0.9131 0.2633 0.3112
vn -0.9131 0.2633 0.3113
vn -0.8437 0.2296 0.4852
vn -0.8438 0.2296 0.4851
vn -0.7324 0.2123 0.6470
vn -0.7323 0.2123 0.6470
vn -0.5929 0.1860 0.7835
vn -0.4182 0.1782 0.8907
vn -0.4182 0.1783 0.8907
vn -0.4181 0.1782 0.8907
vn -0.2262 0.1622 0.9605
vn -0.0193 0.1662 0.9859
vn -0.0192 0.1662 0.9859
vn 0.1886 0.1622 0.9686
vn 0.3830 0.1782 0.9064
vn 0.3831 0.1782 0.9063
vn 0.5619 0.1860 0.8060
vn 0.5618 0.1860 0.8061
vn 0.7065 0.2123 0.6751
vn 0.7066 0.2123 0.6751
vn 0.7066 0.2123 0.6750
vn 0.8242 0.2296 0.5177
vn 0.9003 0.2633 0.3466
vn 0.9003 0.2633 0.3465
vn 0.9441 0.2867 0.1627
vn 0.9441 0.2867 0.1628
vn 0.9455 0.3248 -0.0222
vn 0.9455 0.3248 -0.0221
vn 0.9455 0.3248 -0.0223
vn 0.9135 0.3505 -0.2065
vn 0.9135 0.3505 -0.2064
vn 0.8390 0.3889 -0.3807
vn 0.8389 0.3889 -0.3808
vn 0.8389 0.3889 -0.3807
vn 0.7334 0.4120 -0.5408
vn 0.7334 0.4120 -0.5407
vn 0.5877 0.4446 -0.6760
vn 0.5877 0.4446 -0.6759
vn 0.4186 0.4584 -0.7840
vn 0.4187 0.4584 -0.7839
vn 0.2226 0.4779 -0.8497
vn 0.2227 0.4779 -0.8497
vn 0.2225 0.4779 -0.8498
vn 0.0172 0.4760 -0.8793
vn -0.1892 0.4779 -0.8578
vn -0.2226 0.8349 0.5034
vn 0.4075 0.8847 0.2262
vn 0.4075 0.8848 0.2262
vn -0.0538 0.8309 0.5538
vn 0.3933 0.9177 0.0567
vn 0.1104 0.8386 0.5335
vn 0.1103 0.8386 0.5335
vn 0.3165 0.9448 -0.0849
vn 0.3166 0.9448 -0.0849
vn 0.3166 0.9448 -0.0850
vn 0.2497 0.8529 0.4585
vn 0.2496 0.8529 0.4585
vn 0.1972 0.9623 -0.1876
vn 0.1972 0.9622 -0.1876
vn 0.3543 0.8715 0.3389
vn 0.0461 0.9687 -0.2438
vn 0.0461 0.9687 -0.2439
vn 0.4088 0.8944 0.1816
vn 0.4088 0.8944 0.1817
vn -0.1246 0.9631 -0.2387
vn 0.3907 0.9205 0.0063
vn -0.2848 0.9456 -0.1571
vn -0.2848 0.9456 -0.1572
vn 0.2908 0.9456 -0.1459
vn -0.3907 0.9205 -0.0090
vn -0.3906 0.9205 -0.0089
vn 0.1074 0.9237 -0.3677
vn 0.1074 0.9237 -0.3676
vn -0.5274 0.8445 0.0930
vn -0.5275 0.8445 0.0929
vn -0.1769 0.8754 -0.4499
vn -0.1769 0.8754 -0.4498
vn -0.5989 0.7518 0.2760
vn -0.5990 0.7517 0.2759
vn -0.5989 0.7517 0.2760
vn -0.1898 0.9622 -0.1951
vn -0.1897 0.9622 -0.1951
vn -0.1897 0.9623 -0.1951
vn -0.2674 0.8529 0.4484
vn -0.2673 0.8529 0.4484
vn -0.3130 0.9448 -0.0972
vn -0.1311 0.8386 0.5288
vn -0.3952 0.9177 0.0413
vn 0.0322 0.8309 0.5555
vn -0.4160 0.8847 0.2102
vn -0.4160 0.8847 0.2101
vn -0.4160 0.8848 0.2101
vn 0.2028 0.8349 0.5117
vn -0.3562 0.8540 0.3792
vn 0.3411 0.8540 0.3928
vn 0.3411 0.8540 0.3929
vn 0.2829 0.9577 -0.0520
vn 0.1983 0.9577 -0.2084
vn 0.9997 -0.0000 -0.0248
vn 0.1242 0.9577 -0.2594
vn 0.8688 0.3892 -0.3063
vn 0.7316 0.3891 -0.5598
vn 0.1242 0.9577 -0.2595
vn 0.9209 0.3891 -0.0229
vn 0.5228 0.3891 -0.7585
vn 0.0379 0.9577 -0.2851
vn 0.2854 -0.0000 -0.9584
vn 0.2851 0.9577 0.0379
vn 0.2628 0.3891 -0.8829
vn 0.2594 0.9577 0.1242
vn 0.0380 0.9577 -0.2852
vn 0.8233 -0.0000 0.5676
vn -0.0520 0.9577 -0.2829
vn -0.3325 -0.0000 -0.9431
vn -0.0229 0.3891 -0.9209
vn 0.3325 -0.0001 0.9431
vn -0.3063 0.3891 -0.8688
vn 0.3325 -0.0000 0.9431
vn -0.8233 -0.0000 -0.5675
vn -0.1369 0.9577 -0.2530
vn 0.1369 0.9577 0.2530
vn -0.8233 -0.0001 -0.5676
vn 0.0520 0.9577 0.2829
vn -0.9997 -0.0000 0.0248
vn -0.2854 -0.0000 0.9584
vn -0.2595 0.9577 -0.1242
vn -0.2084 0.9577 -0.1983
vn -0.2853 -0.0000 0.9584
vn -0.7942 -0.0000 0.6077
vn -0.5598 0.3891 -0.7316
vn -0.0380 0.9577 0.2851
vn -0.2829 0.9577 0.0520
vn -0.1983 0.9577 0.2083
vn -0.2851 0.9577 -0.0379
vn -0.7942 -0.0000 0.6076
vn -0.2530 0.9577 0.1369
vn -0.1242 0.9577 0.2594
vn -0.1983 0.9577 0.2084
vn 0.2084 0.9577 0.1983
vn -0.8688 0.3891 0.3063
vn -0.5228 0.3891 0.7585
vn 0.5598 0.3891 0.7316
vn -0.9209 0.3891 0.0229
vn -0.7316 0.3891 0.5598
vn 0.3063 0.3891 0.8688
vn 0.7585 0.3891 0.5228
vn -0.2628 0.3891 0.8829
vn 0.0229 0.3891 0.9209
vn 0.8829 0.3891 0.2628
vn 0.9209 0.3891 -0.0228
vn 0.2829 0.9578 -0.0520
vn -0.2594 0.9577 -0.1242
vn -0.7584 0.3892 -0.5228
vn -0.8829 0.3891 -0.2628
vn -0.9209 0.3891 0.0228
vn -0.2828 0.9578 0.0520
vt 0.611382 0.257730
vt 0.635312 0.297576
vt 0.611399 0.303437
vt 0.651619 0.280672
vt 0.658184 0.257685
vt 0.651887 0.280830
vt 0.635563 0.298001
vt 0.611399 0.303922
vt 0.635667 0.297977
vt 0.652747 0.280157
vt 0.658735 0.257682
vt 0.652605 0.280062
vt 0.635453 0.297636
vt 0.211660 0.670596
vt 0.219396 0.669849
vt 0.253383 0.694274
vt 0.214284 0.696027
vt 0.269749 0.758711
vt 0.260588 0.701400
vt 0.309753 0.680124
vt 0.269457 0.756319
vt 0.260854 0.700606
vt 0.220704 0.732558
vt 0.306443 0.681927
vt 0.263245 0.698778
vt 0.257383 0.700357
vt 0.265154 0.702610
vt 0.217934 0.666863
vt 0.215658 0.673018
vt 0.219614 0.670517
vt 0.219264 0.673277
vt 0.198885 0.683639
vt 0.249750 0.667114
vt 0.689596 0.650866
vt 0.691401 0.653089
vt 0.682533 0.662096
vt 0.698974 0.645284
vt 0.685329 0.664194
vt 0.697738 0.642837
vt 0.709587 0.639359
vt 0.708169 0.637079
vt 0.718465 0.636595
vt 0.717564 0.634260
vt 0.727813 0.636805
vt 0.728145 0.634783
vt 0.738138 0.637154
vt 0.737502 0.639098
vt 0.746937 0.641450
vt 0.745702 0.643158
vt 0.754124 0.645911
vt 0.752592 0.648607
vt 0.726272 0.682872
vt 0.726730 0.683349
vt 0.725691 0.684031
vt 0.725629 0.682755
vt 0.727081 0.684221
vt 0.726549 0.682410
vt 0.724748 0.683075
vt 0.727316 0.683020
vt 0.725627 0.682243
vt 0.727882 0.683897
vt 0.726814 0.681969
vt 0.724524 0.682606
vt 0.727874 0.682706
vt 0.725626 0.681755
vt 0.728646 0.683589
vt 0.727523 0.679917
vt 0.724309 0.682157
vt 0.729364 0.680474
vt 0.725700 0.680039
vt 0.730843 0.681420
vt 0.727493 0.677494
vt 0.723661 0.680998
vt 0.730391 0.677601
vt 0.725193 0.678378
vt 0.732731 0.678576
vt 0.722854 0.680195
vt 0.723888 0.675859
vt 0.727163 0.674319
vt 0.734375 0.675061
vt 0.720981 0.678579
vt 0.719135 0.669343
vt 0.730934 0.674098
vt 0.714816 0.674127
vt 0.725227 0.666384
vt 0.731840 0.665708
vt 0.708102 0.664281
vt 0.737590 0.667338
vt 0.717456 0.657387
vt 0.712338 0.660371
vt 0.705381 0.668857
vt 0.738217 0.656506
vt 0.700749 0.659064
vt 0.697512 0.666972
vt 0.733187 0.655269
vt 0.713422 0.648436
vt 0.727642 0.654970
vt 0.722484 0.655671
vt 0.706119 0.652738
vt 0.735247 0.646741
vt 0.727602 0.645655
vt 0.741592 0.649754
vt 0.720407 0.645964
vt 0.700374 0.646822
vt 0.746704 0.653986
vt 0.709923 0.641335
vt 0.692802 0.654360
vt 0.742337 0.658670
vt 0.745050 0.644614
vt 0.687192 0.665171
vt 0.718664 0.638439
vt 0.737106 0.640825
vt 0.751606 0.649917
vt 0.727619 0.638702
vt 0.869040 0.649065
vt 0.875616 0.654909
vt 0.867605 0.651244
vt 0.859050 0.646168
vt 0.874713 0.657871
vt 0.859448 0.644412
vt 0.849114 0.643656
vt 0.849431 0.641955
vt 0.840598 0.643301
vt 0.840220 0.641674
vt 0.832862 0.645109
vt 0.831890 0.643666
vt 0.824068 0.647264
vt 0.824758 0.648705
vt 0.817504 0.651912
vt 0.818520 0.653268
vt 0.812479 0.656952
vt 0.813693 0.658410
vt 0.847382 0.676119
vt 0.844456 0.674641
vt 0.851836 0.671528
vt 0.843776 0.676905
vt 0.847052 0.668717
vt 0.846002 0.677707
vt 0.855650 0.662780
vt 0.840990 0.674031
vt 0.843774 0.678253
vt 0.859022 0.665750
vt 0.841027 0.667563
vt 0.845578 0.678544
vt 0.842033 0.678477
vt 0.865312 0.662654
vt 0.837708 0.674551
vt 0.843152 0.679997
vt 0.860852 0.657420
vt 0.835162 0.668229
vt 0.844184 0.679598
vt 0.873304 0.658852
vt 0.836606 0.659219
vt 0.845347 0.679617
vt 0.866581 0.652250
vt 0.831838 0.660433
vt 0.844293 0.679982
vt 0.858446 0.647517
vt 0.828397 0.654287
vt 0.845314 0.680028
vt 0.843495 0.680293
vt 0.854892 0.653545
vt 0.823470 0.657661
vt 0.844407 0.680384
vt 0.849176 0.645115
vt 0.834784 0.652096
vt 0.845280 0.680459
vt 0.843854 0.680604
vt 0.825629 0.649771
vt 0.844637 0.681403
vt 0.841244 0.658828
vt 0.833328 0.646436
vt 0.819557 0.654034
vt 0.843553 0.681070
vt 0.841079 0.651003
vt 0.843436 0.681824
vt 0.814882 0.659174
vt 0.840983 0.644662
vt 0.842991 0.680886
vt 0.819789 0.661745
vt 0.845993 0.659228
vt 0.842648 0.681706
vt 0.827700 0.662259
vt 0.841896 0.681594
vt 0.824519 0.664645
vt 0.842455 0.680711
vt 0.851107 0.660578
vt 0.830412 0.670524
vt 0.840513 0.679320
vt 0.839397 0.680284
vt 0.834852 0.675923
vt 0.838872 0.677271
vt 0.841405 0.676623
vt 0.837043 0.678398
vt 0.847657 0.651602
vt 0.656324 0.334238
vt 0.648709 0.320412
vt 0.689020 0.301555
vt 0.675449 0.293433
vt 0.611487 0.346110
vt 0.611595 0.330238
vt 0.656444 0.334108
vt 0.648448 0.320430
vt 0.688977 0.301560
vt 0.675229 0.293594
vt 0.700880 0.257663
vt 0.684974 0.257828
vt 0.688971 0.301567
vt 0.675137 0.293828
vt 0.656445 0.334108
vt 0.648338 0.320505
vt 0.611562 0.345967
vt 0.611649 0.330218
vt 0.656328 0.334232
vt 0.648400 0.320505
vt 0.689019 0.301560
vt 0.675207 0.293802
vt 0.700846 0.257665
vt 0.685057 0.257927
vt 0.646833 0.317532
vt 0.640718 0.307509
vt 0.611537 0.326763
vt 0.611654 0.315363
vt 0.672558 0.292031
vt 0.662003 0.285960
vt 0.682078 0.257674
vt 0.669568 0.257948
vt 0.672911 0.292232
vt 0.661571 0.286442
vt 0.647225 0.318175
vt 0.639882 0.307604
vt 0.611541 0.327701
vt 0.611798 0.315232
vt 0.647181 0.318272
vt 0.641143 0.307483
vt 0.672936 0.292375
vt 0.662179 0.286686
vt 0.682159 0.257668
vt 0.670307 0.258464
vt 0.672499 0.292095
vt 0.663007 0.285493
vt 0.646771 0.317501
vt 0.641863 0.307235
vt 0.639515 0.305471
vt 0.611464 0.312902
vt 0.637192 0.299767
vt 0.611764 0.306359
vt 0.659810 0.285067
vt 0.654255 0.281586
vt 0.667429 0.257623
vt 0.660762 0.258045
vt 0.660036 0.285173
vt 0.653906 0.282201
vt 0.639667 0.305772
vt 0.636744 0.300088
vt 0.611467 0.313208
vt 0.611477 0.306343
vt 0.640373 0.305698
vt 0.636852 0.300248
vt 0.660791 0.285019
vt 0.655026 0.281693
vt 0.668166 0.257619
vt 0.661620 0.257935
vt 0.660716 0.284955
vt 0.655291 0.281308
vt 0.640269 0.305530
vt 0.637071 0.300160
vt 0.614326 0.563736
vt 0.583499 0.563736
vt 0.614720 0.557040
vt 0.582742 0.557040
vt 0.614651 0.570598
vt 0.582473 0.570598
vt 0.634006 0.563736
vt 0.628168 0.570598
vt 0.629512 0.557040
vt 0.571748 0.570598
vt 0.567296 0.563736
vt 0.571854 0.557040
vt 0.584515 0.572558
vt 0.583498 0.564110
vt 0.602981 0.572558
vt 0.602979 0.564110
vt 0.584794 0.555460
vt 0.603127 0.555460
vt 0.567432 0.564110
vt 0.571343 0.555460
vt 0.571736 0.572558
vt 0.619709 0.572558
vt 0.620265 0.564110
vt 0.619612 0.555460
vt 0.630090 0.555460
vt 0.630077 0.572558
vt 0.633290 0.564110
vt 0.284714 0.657882
vt 0.284730 0.649094
vt 0.291540 0.657687
vt 0.292628 0.648867
vt 0.293130 0.649052
vt 0.301702 0.648816
vt 0.293611 0.657852
vt 0.229501 0.657463
vt 0.229814 0.648673
vt 0.248922 0.657552
vt 0.249053 0.649016
vt 0.227990 0.657429
vt 0.211185 0.657416
vt 0.228022 0.647422
vt 0.211103 0.648429
vt 0.402409 0.615698
vt 0.385832 0.617218
vt 0.401995 0.588341
vt 0.385213 0.589370
vt 0.276055 0.657802
vt 0.265806 0.657702
vt 0.276045 0.648738
vt 0.265693 0.648884
vt 0.211220 0.657652
vt 0.211327 0.648567
vt 0.227599 0.657599
vt 0.227664 0.648597
vt 0.207731 0.648303
vt 0.197521 0.764149
vt 0.192372 0.692045
vt 0.275830 0.649029
vt 0.275714 0.657567
vt 0.265931 0.649160
vt 0.265909 0.657401
vt 0.481402 0.586840
vt 0.481379 0.614813
vt 0.468154 0.587848
vt 0.468471 0.614568
vt 0.265113 0.657438
vt 0.255709 0.656465
vt 0.265267 0.648879
vt 0.254534 0.649412
vt 0.205902 0.651978
vt 0.205738 0.653008
vt 0.208222 0.656202
vt 0.208361 0.648220
vt 0.207657 0.649030
vt 0.202951 0.648955
vt 0.207561 0.656690
vt 0.203026 0.656740
vt 0.205479 0.651885
vt 0.205383 0.652900
vt 0.207572 0.656536
vt 0.208387 0.656305
vt 0.203081 0.656003
vt 0.208478 0.648568
vt 0.203492 0.648457
vt 0.254352 0.657441
vt 0.255576 0.649970
vt 0.264920 0.657646
vt 0.265084 0.649066
vt 0.249157 0.648736
vt 0.249718 0.657956
vt 0.229438 0.648721
vt 0.229257 0.657607
vt 0.197424 0.678306
vt 0.199211 0.683418
vt 0.223356 0.667849
vt 0.223215 0.673670
vt 0.252366 0.696040
vt 0.253217 0.658281
vt 0.264879 0.658443
vt 0.193603 0.763963
vt 0.182633 0.746368
vt 0.179247 0.653793
vt 0.331244 0.248858
vt 0.331203 0.119578
vt 0.333715 0.260012
vt 0.333715 0.130532
vt 0.335017 0.121824
vt 0.337011 0.119578
vt 0.335021 0.257666
vt 0.336858 0.254096
vt 0.338326 0.257577
vt 0.338337 0.121912
vt 0.340374 0.260004
vt 0.340373 0.130540
vt 0.341680 0.121844
vt 0.343668 0.119592
vt 0.341679 0.257646
vt 0.343518 0.254083
vt 0.344988 0.257553
vt 0.345003 0.121937
vt 0.347036 0.260002
vt 0.347032 0.130542
vt 0.348345 0.121831
vt 0.350328 0.119604
vt 0.348344 0.257658
vt 0.350179 0.254084
vt 0.351652 0.257514
vt 0.351669 0.121976
vt 0.353700 0.260007
vt 0.353693 0.130537
vt 0.355009 0.121797
vt 0.356993 0.119608
vt 0.355011 0.257693
vt 0.356841 0.254097
vt 0.358315 0.257482
vt 0.358332 0.122008
vt 0.360364 0.260016
vt 0.360355 0.130528
vt 0.361668 0.121762
vt 0.363658 0.119600
vt 0.361676 0.257728
vt 0.363503 0.254114
vt 0.364977 0.257479
vt 0.364989 0.122010
vt 0.367025 0.260023
vt 0.367018 0.130520
vt 0.368325 0.121747
vt 0.370321 0.119585
vt 0.368337 0.257743
vt 0.370163 0.254125
vt 0.371634 0.257509
vt 0.371644 0.121981
vt 0.373683 0.260024
vt 0.373678 0.130520
vt 0.374981 0.121764
vt 0.376980 0.119573
vt 0.374992 0.257725
vt 0.376822 0.254121
vt 0.378290 0.257552
vt 0.378298 0.121937
vt 0.380338 0.260017
vt 0.380337 0.130527
vt 0.381638 0.121804
vt 0.383635 0.119573
vt 0.381645 0.257685
vt 0.383480 0.254105
vt 0.384948 0.257578
vt 0.384957 0.121912
vt 0.386995 0.260007
vt 0.386995 0.130536
vt 0.388300 0.121837
vt 0.390290 0.119584
vt 0.388301 0.257652
vt 0.390139 0.254088
vt 0.391608 0.257568
vt 0.391621 0.121921
vt 0.393656 0.260002
vt 0.393653 0.130542
vt 0.394964 0.121841
vt 0.396949 0.119599
vt 0.394962 0.257648
vt 0.396799 0.254082
vt 0.398271 0.257534
vt 0.398287 0.121956
vt 0.400319 0.260004
vt 0.400313 0.130540
vt 0.401629 0.121816
vt 0.403611 0.119607
vt 0.401628 0.257674
vt 0.403461 0.254089
vt 0.404935 0.257495
vt 0.404952 0.121994
vt 0.406984 0.260011
vt 0.406975 0.130532
vt 0.408290 0.121778
vt 0.410277 0.119605
vt 0.408295 0.257712
vt 0.410123 0.254105
vt 0.411598 0.257477
vt 0.411612 0.122013
vt 0.413646 0.260020
vt 0.413638 0.130524
vt 0.414948 0.121750
vt 0.416942 0.119593
vt 0.414958 0.257739
vt 0.416784 0.254120
vt 0.418257 0.257491
vt 0.418268 0.121999
vt 0.420305 0.260025
vt 0.420299 0.130519
vt 0.421604 0.121751
vt 0.423602 0.119578
vt 0.421616 0.257738
vt 0.423444 0.254125
vt 0.424914 0.257531
vt 0.424922 0.121959
vt 0.426962 0.260021
vt 0.426959 0.130522
vt 0.428260 0.121783
vt 0.429864 0.121959
vt 0.428269 0.257707
vt 0.429872 0.257531
vt 0.333759 0.264860
vt 0.331212 0.253806
vt 0.337089 0.247016
vt 0.337089 0.253806
vt 0.334933 0.264860
vt 0.227570 0.316962
vt 0.222173 0.316962
vt 0.227570 0.316962
vt 0.343750 0.246999
vt 0.343750 0.253806
vt 0.341593 0.264860
vt 0.341593 0.264860
vt 0.244236 0.316962
vt 0.238840 0.316962
vt 0.244236 0.316962
vt 0.350410 0.246991
vt 0.350410 0.253806
vt 0.348253 0.264860
vt 0.348253 0.264860
vt 0.260903 0.316962
vt 0.255506 0.316962
vt 0.260903 0.316962
vt 0.255507 0.316963
vt 0.357070 0.246997
vt 0.357070 0.253806
vt 0.354913 0.264860
vt 0.277570 0.316962
vt 0.272173 0.316962
vt 0.277570 0.316962
vt 0.363730 0.247013
vt 0.363730 0.253806
vt 0.361574 0.264860
vt 0.294236 0.316962
vt 0.288840 0.316962
vt 0.294236 0.316962
vt 0.370390 0.247030
vt 0.370390 0.253806
vt 0.368234 0.264860
vt 0.368234 0.264860
vt 0.310903 0.316962
vt 0.305506 0.316962
vt 0.377050 0.247036
vt 0.377050 0.253806
vt 0.374894 0.264860
vt 0.327570 0.316962
vt 0.322173 0.316962
vt 0.383711 0.247025
vt 0.383711 0.253806
vt 0.381554 0.264860
vt 0.344236 0.316962
vt 0.338840 0.316962
vt 0.390371 0.247007
vt 0.390371 0.253806
vt 0.388214 0.264859
vt 0.360903 0.316962
vt 0.355507 0.316962
vt 0.397031 0.246993
vt 0.397031 0.253806
vt 0.394874 0.264860
vt 0.394874 0.264860
vt 0.377570 0.316962
vt 0.372173 0.316962
vt 0.403691 0.246992
vt 0.403691 0.253806
vt 0.401535 0.264859
vt 0.401535 0.264860
vt 0.394236 0.316962
vt 0.388840 0.316962
vt 0.410351 0.247004
vt 0.410351 0.253806
vt 0.408195 0.264860
vt 0.408195 0.264860
vt 0.410903 0.316962
vt 0.405506 0.316962
vt 0.410903 0.316962
vt 0.417011 0.247022
vt 0.417011 0.253806
vt 0.414855 0.264860
vt 0.414855 0.264860
vt 0.427570 0.316962
vt 0.422173 0.316962
vt 0.423672 0.247035
vt 0.423672 0.253806
vt 0.421515 0.264860
vt 0.444236 0.316962
vt 0.438840 0.316962
vt 0.451591 0.316962
vt 0.447173 0.316962
vt 0.886194 0.139888
vt 0.890746 0.139888
vt 0.885807 0.159618
vt 0.879469 0.159618
vt 0.890273 0.159618
vt 0.879469 0.139888
vt 0.885619 0.166489
vt 0.895298 0.139888
vt 0.886194 0.137936
vt 0.920497 0.166489
vt 0.890746 0.137936
vt 0.894780 0.159618
vt 0.879469 0.137936
vt 0.895298 0.137936
vt 0.899850 0.139888
vt 0.894538 0.166489
vt 0.920569 0.159618
vt 0.899850 0.137936
vt 0.916157 0.159618
vt 0.885503 0.189447
vt 0.899341 0.159618
vt 0.911817 0.166489
vt 0.920460 0.189447
vt 0.911854 0.189447
vt 0.894331 0.189447
vt 0.904402 0.139888
vt 0.903711 0.166489
vt 0.904402 0.137936
vt 0.903192 0.189447
vt 0.903426 0.189447
vt 0.903965 0.159618
vt 0.908952 0.137934
vt 0.903076 0.166489
vt 0.913081 0.166489
vt 0.908954 0.139888
vt 0.907325 0.159618
vt 0.912902 0.189447
vt 0.908645 0.159618
vt 0.902888 0.159618
vt 0.923190 0.166489
vt 0.894365 0.189447
vt 0.918135 0.159618
vt 0.923369 0.189447
vt 0.913506 0.139888
vt 0.894158 0.166489
vt 0.884985 0.166489
vt 0.913509 0.137923
vt 0.898422 0.159618
vt 0.879742 0.159618
vt 0.889354 0.159618
vt 0.922937 0.159618
vt 0.885270 0.189447
vt 0.902502 0.139888
vt 0.884730 0.159618
vt 0.897949 0.139888
vt 0.884294 0.139888
vt 0.893916 0.159618
vt 0.907053 0.139888
vt 0.888846 0.139888
vt 0.879742 0.139888
vt 0.893398 0.139888
vt 0.911605 0.139888
vt 0.884294 0.137936
vt 0.893398 0.137936
vt 0.911605 0.137936
vt 0.879742 0.137934
vt 0.888846 0.137936
vt 0.907053 0.137936
vt 0.911746 0.159618
vt 0.916157 0.137936
vt 0.897949 0.137936
vt 0.902502 0.137936
vt 0.916157 0.139888
vt 0.920709 0.137936
vt 0.920709 0.139888
vt 0.926656 0.137936
vt 0.926656 0.139888
vt 0.926656 0.159618
vt 0.913334 0.159618
vt 0.918135 0.139888
vt 0.918136 0.137936
vt 0.922765 0.139888
vt 0.922762 0.137923
vt 0.928260 0.137934
vt 0.928260 0.139888
vt 0.928260 0.159618
s 1
g Dolly_Witch_Mesh_GUI_Map_Hat:GUI_Map_Hat1_GUI_Map_Hat:GUI_Map_Hat1
usemtl GUI_Map_Hat:GUI_Map_Hat1
f 1/1/1 2/2/1 3/3/1
f 4/1/2 5/4/2 6/2/2
f 7/1/3 8/5/3 9/4/3
f 10/1/4 11/6/4 12/5/4
f 13/1/5 14/7/5 15/6/5
f 16/1/6 17/8/6 18/7/6
f 19/1/7 20/9/7 21/8/7
f 22/1/8 23/10/8 24/9/8
f 25/1/9 26/11/9 27/10/9
f 28/1/10 29/12/10 30/11/10
f 31/1/11 32/13/11 33/12/11
f 34/1/12 35/3/12 36/13/12
f 37/14/13 38/15/13 39/16/13
f 40/17/14 41/18/14 42/19/14
f 43/20/15 44/21/15 45/22/15
f 46/22/16 47/21/16 48/23/16
f 49/24/17 50/19/17 51/18/17
f 52/25/18 53/26/18 54/27/18
f 55/28/19 56/29/19 57/30/19
f 58/31/20 59/17/20 60/19/20
f 61/17/21 62/31/21 63/32/21
f 64/33/22 65/15/22 66/14/22
f 67/34/23 68/35/24 69/36/25
f 67/34/23 70/37/26 68/35/24
f 69/36/25 68/35/24 71/38/27
f 72/39/28 70/37/26 67/34/23
f 72/39/28 73/40/26 70/37/26
f 74/41/29 73/40/26 72/39/28
f 74/41/29 75/42/30 73/40/26
f 76/43/31 75/42/30 74/41/29
f 76/43/31 77/44/32 75/42/30
f 78/45/33 77/44/32 76/43/31
f 78/45/33 79/46/34 77/44/32
f 77/44/32 79/46/34 80/47/32
f 79/46/34 81/48/35 80/47/32
f 80/47/32 81/48/35 82/49/36
f 81/48/35 83/50/37 82/49/36
f 82/49/36 83/50/37 84/51/36
f 85/52/38 86/53/39 87/54/40
f 85/52/38 87/54/40 88/55/41
f 87/54/40 86/53/39 89/56/42
f 85/52/38 90/57/43 86/53/39
f 88/55/41 87/54/40 91/58/44
f 92/59/45 89/56/42 86/53/39
f 86/53/39 90/57/43 92/59/45
f 90/57/43 85/52/38 93/60/46
f 93/60/46 85/52/38 88/55/41
f 88/55/41 91/58/44 93/60/46
f 94/61/47 89/56/42 92/59/45
f 90/57/43 95/62/48 92/59/45
f 93/60/46 91/58/44 96/63/49
f 97/64/50 94/61/47 92/59/45
f 92/59/45 95/62/48 97/64/50
f 95/62/48 90/57/43 98/65/51
f 98/65/51 90/57/43 93/60/46
f 96/63/49 98/65/51 93/60/46
f 99/66/52 94/61/47 97/64/50
f 95/62/48 100/67/53 97/64/50
f 101/68/54 98/65/51 96/63/49
f 102/69/55 99/66/52 97/64/50
f 97/64/50 100/67/53 102/69/55
f 100/67/53 95/62/48 103/70/56
f 101/68/54 103/70/56 98/65/51
f 103/70/56 95/62/48 98/65/51
f 104/71/57 99/66/52 102/69/55
f 103/70/56 105/72/58 100/67/53
f 106/73/59 103/70/56 101/68/54
f 100/67/53 105/72/58 102/69/55
f 102/69/55 107/74/60 104/71/57
f 102/69/55 105/72/58 107/74/60
f 106/73/59 108/75/61 103/70/56
f 108/75/61 105/72/58 103/70/56
f 104/71/57 107/74/60 109/76/62
f 110/77/63 108/75/61 106/73/59
f 108/75/61 111/78/64 105/72/58
f 110/77/63 111/78/64 108/75/61
f 105/72/58 112/79/65 107/74/60
f 105/72/58 111/78/64 112/79/65
f 107/74/60 113/80/66 109/76/62
f 114/81/67 111/78/64 110/77/63
f 111/78/64 115/82/68 112/79/65
f 111/78/64 114/81/67 115/82/68
f 107/74/60 112/79/65 116/83/69
f 116/83/69 113/80/66 107/74/60
f 115/82/68 114/81/67 117/84/70
f 118/85/71 116/83/69 112/79/65
f 112/79/65 115/82/68 118/85/71
f 119/86/72 113/80/66 116/83/69
f 119/86/72 116/83/69 118/85/71
f 120/87/73 115/82/68 117/84/70
f 121/88/74 113/80/66 119/86/72
f 115/82/68 122/89/75 118/85/71
f 120/87/73 123/90/76 115/82/68
f 120/87/73 117/84/70 124/91/77
f 119/86/72 125/92/78 121/88/74
f 115/82/68 123/90/76 122/89/75
f 126/93/79 123/90/76 120/87/73
f 127/94/79 120/87/73 124/91/77
f 119/86/72 128/95/80 125/92/78
f 123/90/76 129/96/81 122/89/75
f 126/93/79 120/87/73 127/94/79
f 130/97/82 119/86/72 118/85/71
f 130/97/82 128/95/80 119/86/72
f 129/96/81 131/98/83 122/89/75
f 132/99/26 123/90/76 126/93/79
f 130/97/82 118/85/71 131/98/83
f 130/97/82 133/100/84 128/95/80
f 118/85/71 122/89/75 131/98/83
f 132/99/26 129/96/81 123/90/76
f 131/98/83 134/101/85 130/97/82
f 134/101/85 133/100/84 130/97/82
f 133/100/84 135/102/36 128/95/80
f 128/95/80 135/102/36 125/92/78
f 136/103/86 131/98/83 129/96/81
f 136/103/86 134/101/85 131/98/83
f 126/93/79 137/104/87 132/99/26
f 135/102/36 138/105/36 125/92/78
f 139/106/26 136/103/86 129/96/81
f 140/107/79 137/104/87 126/93/79
f 137/104/87 139/106/26 132/99/26
f 125/92/78 138/105/36 141/108/88
f 132/99/26 139/106/26 129/96/81
f 127/94/79 140/107/79 126/93/79
f 121/88/74 125/92/78 141/108/88
f 142/109/89 138/105/36 135/102/36
f 143/110/79 140/107/79 127/94/79
f 144/111/90 136/103/86 139/106/26
f 142/109/89 135/102/36 145/112/32
f 146/113/89 138/105/36 142/109/89
f 144/111/90 147/114/85 136/103/86
f 145/112/32 135/102/36 133/100/84
f 136/103/86 147/114/85 134/101/85
f 147/114/85 145/112/32 134/101/85
f 134/101/85 145/112/32 133/100/84
f 148/115/91 149/116/92 150/117/93
f 151/118/93 148/115/91 150/117/93
f 150/117/93 149/116/92 152/119/24
f 153/120/94 148/115/91 151/118/93
f 154/121/95 153/120/94 151/118/93
f 155/122/96 153/120/94 154/121/95
f 156/123/97 155/122/96 154/121/95
f 157/124/98 155/122/96 156/123/97
f 158/125/99 157/124/98 156/123/97
f 159/126/100 157/124/98 158/125/99
f 159/126/100 158/125/99 160/127/101
f 160/127/101 158/125/99 161/128/102
f 160/127/101 161/128/102 162/129/103
f 162/129/103 161/128/102 163/130/104
f 162/129/103 163/130/104 164/131/37
f 164/131/37 163/130/104 165/132/105
f 166/133/106 167/134/107 168/135/108
f 167/134/107 166/133/106 169/136/109
f 168/135/108 167/134/107 170/137/110
f 169/136/109 166/133/106 171/138/111
f 168/135/108 170/137/110 172/139/112
f 173/140/113 170/137/110 167/134/107
f 171/138/111 174/141/114 169/136/109
f 168/135/108 172/139/112 175/142/115
f 176/143/116 170/137/110 173/140/113
f 177/144/117 174/141/114 171/138/111
f 174/141/114 178/145/118 169/136/109
f 172/139/112 179/146/119 175/142/115
f 180/147/120 176/143/116 173/140/113
f 174/141/114 181/148/121 178/145/118
f 182/149/122 179/146/119 172/139/112
f 183/150/123 176/143/116 180/147/120
f 184/151/124 181/148/121 174/141/114
f 177/144/117 184/151/124 174/141/114
f 182/149/122 185/152/27 179/146/119
f 186/153/125 176/143/116 183/150/123
f 187/154/126 184/151/124 177/144/117
f 188/155/93 185/152/27 182/149/122
f 186/153/125 183/150/123 189/156/127
f 187/154/126 190/157/128 184/151/124
f 188/155/93 182/149/122 191/158/93
f 192/159/129 186/153/125 189/156/127
f 193/160/130 190/157/128 187/154/126
f 190/157/128 194/161/131 184/151/124
f 191/158/93 182/149/122 195/162/122
f 192/159/129 189/156/127 196/163/104
f 193/160/130 197/164/132 190/157/128
f 191/158/93 195/162/122 198/165/133
f 199/166/134 186/153/125 192/159/129
f 200/167/135 197/164/132 193/160/130
f 197/164/132 201/168/136 190/157/128
f 190/157/128 201/168/136 194/161/131
f 202/169/104 199/166/134 192/159/129
f 203/170/40 197/164/132 200/167/135
f 199/166/134 204/171/137 186/153/125
f 201/168/136 197/164/132 203/170/40
f 205/172/134 199/166/134 202/169/104
f 202/169/104 192/159/129 206/173/104
f 186/153/125 204/171/137 176/143/116
f 201/168/136 203/170/40 207/174/138
f 201/168/136 207/174/138 194/161/131
f 206/173/104 192/159/129 196/163/104
f 208/175/97 204/171/137 199/166/134
f 205/172/134 208/175/97 199/166/134
f 207/174/138 203/170/40 209/176/42
f 206/173/104 196/163/104 210/177/139
f 211/178/97 208/175/97 205/172/134
f 207/174/138 209/176/42 212/179/140
f 194/161/131 207/174/138 212/179/140
f 210/177/139 196/163/104 213/180/36
f 208/175/97 214/181/141 204/171/137
f 212/179/140 181/148/121 194/161/131
f 212/179/140 209/176/42 215/182/142
f 196/163/104 216/183/143 213/180/36
f 176/143/116 204/171/137 214/181/141
f 215/182/142 217/184/52 212/179/140
f 196/163/104 189/156/127 216/183/143
f 176/143/116 214/181/141 170/137/110
f 213/180/36 216/183/143 218/185/88
f 212/179/140 217/184/52 219/186/144
f 219/186/144 181/148/121 212/179/140
f 170/137/110 214/181/141 220/187/145
f 216/183/143 221/188/146 218/185/88
f 217/184/52 222/189/147 219/186/144
f 172/139/112 170/137/110 220/187/145
f 216/183/143 183/150/123 221/188/146
f 216/183/143 189/156/127 183/150/123
f 223/190/148 222/189/147 217/184/52
f 195/162/122 172/139/112 220/187/145
f 183/150/123 224/191/149 221/188/146
f 222/189/147 223/190/148 225/192/150
f 182/149/122 172/139/112 195/162/122
f 180/147/120 224/191/149 183/150/123
f 225/192/150 226/193/151 222/189/147
f 225/192/150 223/190/148 227/194/152
f 195/162/122 220/187/145 228/195/95
f 224/191/149 180/147/120 227/194/152
f 222/189/147 226/193/151 178/145/118
f 227/194/152 180/147/120 225/192/150
f 228/195/95 220/187/145 214/181/141
f 222/189/147 178/145/118 219/186/144
f 169/136/109 178/145/118 226/193/151
f 180/147/120 173/140/113 225/192/150
f 228/195/95 214/181/141 208/175/97
f 226/193/151 167/134/107 169/136/109
f 219/186/144 178/145/118 181/148/121
f 225/192/150 173/140/113 226/193/151
f 208/175/97 198/165/133 228/195/95
f 173/140/113 167/134/107 226/193/151
f 211/178/97 198/165/133 208/175/97
f 184/151/124 194/161/131 181/148/121
f 198/165/133 195/162/122 228/195/95
f 229/196/153 230/197/154 231/198/155
f 231/198/155 230/197/154 232/199/156
f 233/200/157 234/201/158 235/196/159
f 235/196/159 234/201/158 236/197/157
f 237/202/160 238/203/161 239/200/162
f 239/200/162 238/203/161 240/201/163
f 241/204/164 242/205/165 243/202/166
f 243/202/166 242/205/165 244/203/164
f 245/206/167 246/207/168 247/204/169
f 247/204/169 246/207/168 248/205/167
f 249/208/170 250/209/171 251/206/172
f 251/206/172 250/209/171 252/207/173
f 253/208/174 254/210/175 255/209/174
f 255/209/174 254/210/175 256/211/175
f 257/210/176 258/212/177 259/211/177
f 259/211/177 258/212/177 260/213/178
f 261/212/179 262/214/180 263/213/181
f 263/213/181 262/214/180 264/215/182
f 265/214/183 266/216/184 267/215/185
f 267/215/185 266/216/184 268/217/183
f 269/216/186 270/218/187 271/217/188
f 271/217/188 270/218/187 272/219/186
f 273/218/189 274/198/190 275/219/191
f 275/219/191 274/198/190 276/199/189
f 277/220/192 278/221/192 279/222/193
f 279/222/193 278/221/192 280/223/193
f 281/224/194 282/225/194 283/220/195
f 283/220/195 282/225/194 284/221/194
f 285/226/196 286/227/196 287/224/196
f 287/224/196 286/227/196 288/225/196
f 289/228/197 290/229/197 291/226/198
f 291/226/198 290/229/197 292/227/197
f 293/230/199 294/231/199 295/228/200
f 295/228/200 294/231/199 296/229/199
f 297/232/201 298/233/202 299/230/203
f 299/230/203 298/233/202 300/231/201
f 301/232/204 302/234/205 303/233/206
f 303/233/206 302/234/205 304/235/207
f 305/234/208 306/236/209 307/235/209
f 307/235/209 306/236/209 308/237/209
f 309/236/210 310/238/210 311/237/210
f 311/237/210 310/238/210 312/239/210
f 313/238/211 314/240/211 315/239/211
f 315/239/211 314/240/211 316/241/211
f 317/240/212 318/242/213 319/241/214
f 319/241/214 318/242/213 320/243/215
f 321/222/216 322/223/216 323/242/216
f 323/242/216 322/223/216 324/243/216
f 325/244/217 326/245/218 327/246/217
f 327/246/217 326/245/218 328/247/217
f 329/248/219 330/244/219 331/249/219
f 331/249/219 330/244/219 332/246/219
f 333/250/220 334/248/221 335/251/220
f 335/251/220 334/248/221 336/249/220
f 337/252/222 338/250/222 339/253/223
f 339/253/223 338/250/222 340/251/223
f 341/254/224 342/252/225 343/255/226
f 343/255/226 342/252/225 344/253/227
f 345/254/228 346/255/229 347/256/228
f 347/256/228 346/255/229 348/257/230
f 349/256/231 350/257/231 351/258/232
f 351/258/232 350/257/231 352/259/233
f 353/258/234 354/259/234 355/260/235
f 355/260/235 354/259/234 356/261/235
f 357/260/236 358/261/236 359/262/237
f 359/262/237 358/261/236 360/263/236
f 361/262/238 362/263/238 363/264/239
f 363/264/239 362/263/238 364/265/239
f 365/264/240 366/265/240 367/266/240
f 367/266/240 366/265/240 368/267/240
f 369/245/241 370/266/242 371/247/241
f 371/247/241 370/266/242 372/267/242
f 373/268/243 374/269/244 375/270/245
f 375/270/245 374/269/244 376/271/244
f 377/268/246 378/272/246 379/269/247
f 379/269/247 378/272/246 380/273/247
f 381/268/248 382/274/249 383/272/248
f 383/272/248 382/274/249 384/275/250
f 385/268/251 386/270/252 387/274/252
f 387/274/252 386/270/252 388/276/252
f 389/277/253 390/278/253 391/273/253
f 391/273/253 390/278/253 392/269/253
f 393/269/254 394/278/254 395/271/254
f 395/271/254 394/278/254 396/279/255
f 397/280/256 398/281/256 399/282/256
f 399/282/256 398/281/256 400/283/257
f 401/284/258 402/285/259 403/281/258
f 403/281/258 402/285/259 404/283/259
f 405/281/260 406/286/261 407/284/260
f 407/284/260 406/286/261 408/287/260
f 409/280/262 410/288/263 411/281/264
f 411/281/264 410/288/263 412/286/264
f 413/289/265 414/282/265 415/290/265
f 415/290/265 414/282/265 416/283/265
f 417/283/266 418/285/266 419/290/266
f 419/290/266 418/285/266 420/291/266
f 421/292/267 422/291/267 423/293/267
f 423/293/267 422/291/267 424/289/267
f 425/292/268 426/294/268 427/291/268
f 427/291/268 426/294/268 428/290/269
f 429/290/270 430/294/271 431/289/271
f 431/289/271 430/294/271 432/293/271
f 433/295/272 434/296/272 435/297/272
f 435/297/272 434/296/272 436/298/272
f 437/299/273 438/300/273 439/301/274
f 439/301/274 438/300/273 440/33/274
f 441/302/275 442/303/275 443/304/276
f 443/304/276 442/303/275 444/305/276
f 445/306/277 446/307/277 447/308/277
f 447/308/277 446/307/277 448/309/277
f 449/310/278 450/311/279 451/312/278
f 451/312/278 450/311/279 452/313/278
f 453/314/280 454/315/281 455/316/282
f 455/316/282 454/315/281 456/317/282
f 457/318/283 458/319/283 459/320/283
f 459/320/283 458/319/283 460/321/283
f 461/322/284 462/323/285 463/324/286
f 463/324/286 462/323/285 464/17/284
f 465/325/287 466/326/288 467/327/287
f 467/327/287 466/326/288 468/328/287
f 469/329/289 470/330/289 471/331/289
f 471/331/289 470/330/289 472/332/290
f 473/333/291 474/334/292 475/335/291
f 475/335/291 474/334/292 476/336/291
f 477/337/293 478/338/293 479/339/293
f 479/339/293 478/338/293 480/340/293
f 481/341/294 482/342/294 483/343/294
f 483/343/294 482/342/294 484/344/294
f 485/345/295 486/346/295 487/347/295
f 487/347/295 486/346/295 488/322/295
f 489/348/296 490/349/297 491/350/296
f 491/350/296 490/349/297 492/351/296
f 493/352/298 494/353/299 495/354/300
f 495/354/300 494/353/299 496/355/301
f 497/356/302 498/357/302 499/358/302
f 499/358/302 498/357/302 500/359/302
f 501/28/303 502/360/304 503/29/305
f 503/29/305 502/360/304 504/361/304
f 505/362/306 506/363/306 507/364/306
f 507/364/306 506/363/306 508/26/306
f 509/334/307 510/333/308 511/365/309
f 511/365/309 510/333/308 512/366/310
f 513/340/311 514/367/311 515/324/311
f 515/324/311 514/367/311 516/368/312
f 517/369/313 518/324/313 519/295/314
f 519/295/314 518/324/313 520/17/313
f 521/14/315 522/324/315 523/33/315
f 523/33/315 522/324/315 524/369/315
f 525/370/316 526/371/316 527/372/317
f 527/372/317 526/371/316 528/373/317
f 529/374/317 530/375/318 531/376/317
f 531/376/317 530/375/318 532/377/318
f 533/378/319 534/379/319 535/380/320
f 535/380/320 534/379/319 536/381/320
f 537/382/320 538/383/321 539/384/320
f 539/384/320 538/383/321 540/385/321
f 541/386/322 542/387/322 543/388/323
f 543/388/323 542/387/322 544/389/323
f 545/390/323 546/391/324 547/392/325
f 547/392/325 546/391/324 548/393/324
f 549/394/326 550/395/327 551/396/328
f 551/396/328 550/395/327 552/397/328
f 553/398/328 554/399/329 555/400/328
f 555/400/328 554/399/329 556/401/329
f 557/402/330 558/403/331 559/404/332
f 559/404/332 558/403/331 560/405/332
f 561/406/333 562/407/334 563/408/333
f 563/408/333 562/407/334 564/409/334
f 565/410/335 566/411/335 567/412/336
f 567/412/336 566/411/335 568/413/336
f 569/414/336 570/415/337 571/416/336
f 571/416/336 570/415/337 572/417/338
f 573/418/339 574/419/339 575/420/340
f 575/420/340 574/419/339 576/421/340
f 577/422/340 578/423/341 579/424/340
f 579/424/340 578/423/341 580/425/341
f 581/426/342 582/427/342 583/428/343
f 583/428/343 582/427/342 584/429/343
f 585/430/343 586/431/344 587/432/343
f 587/432/343 586/431/344 588/433/344
f 589/434/345 590/435/345 591/436/346
f 591/436/346 590/435/345 592/437/346
f 593/438/347 594/439/348 595/440/347
f 595/440/347 594/439/348 596/441/348
f 597/442/349 598/443/350 599/444/351
f 599/444/351 598/443/350 600/445/351
f 601/446/351 602/447/352 603/448/351
f 603/448/351 602/447/352 604/449/352
f 605/450/352 606/451/353 607/452/354
f 607/452/354 606/451/353 608/453/354
f 609/454/355 610/455/356 611/456/354
f 611/456/354 610/455/356 612/457/357
f 613/458/358 614/459/356 615/460/359
f 615/460/359 614/459/356 616/461/360
f 617/462/360 618/463/361 619/464/360
f 619/464/360 618/463/361 620/465/361
f 621/466/362 622/467/363 623/468/364
f 623/468/364 622/467/363 624/469/364
f 625/470/365 626/471/366 627/472/364
f 627/472/364 626/471/366 628/473/367
f 629/474/366 630/475/366 631/476/368
f 631/476/368 630/475/366 632/477/368
f 633/478/369 634/479/370 635/480/369
f 635/480/369 634/479/370 636/481/371
f 637/482/372 638/483/372 639/484/373
f 639/484/373 638/483/372 640/485/373
f 641/486/373 642/487/374 643/488/373
f 643/488/373 642/487/374 644/489/374
f 645/490/375 646/491/375 647/490/375
f 647/490/375 646/491/375 648/370/375
f 649/492/376 650/493/377 651/494/377
f 651/494/377 650/493/377 652/494/376
f 653/495/378 654/496/378 655/497/378
f 655/497/378 654/496/378 656/496/378
f 657/498/379 658/499/379 659/500/379
f 659/500/379 658/499/379 660/501/379
f 661/502/380 662/503/381 663/504/380
f 663/504/380 662/503/381 664/503/381
f 665/505/382 666/506/383 667/507/383
f 667/507/383 666/506/383 668/508/384
f 669/509/385 670/510/385 671/511/385
f 671/511/385 670/510/385 672/512/386
f 673/513/387 674/514/388 675/515/388
f 675/515/388 674/514/388 676/515/388
f 677/516/389 678/517/389 679/518/389
f 679/518/389 678/517/389 680/517/389
f 681/519/390 682/520/391 683/521/391
f 683/521/391 682/520/391 684/521/391
f 685/522/392 686/523/393 687/524/392
f 687/524/392 686/523/393 688/523/392
f 689/525/394 690/526/394 691/527/394
f 691/527/394 690/526/394 692/528/394
f 693/529/395 694/530/395 695/529/395
f 695/529/395 694/530/395 696/530/395
f 697/531/396 698/532/397 699/533/397
f 699/533/397 698/532/397 700/533/397
f 701/534/398 702/535/398 703/534/398
f 703/534/398 702/535/398 704/535/398
f 705/536/399 706/537/400 707/538/399
f 707/538/399 706/537/400 708/538/399
f 709/539/401 710/540/401 711/539/401
f 711/539/401 710/540/401 712/540/402
f 713/541/403 714/542/403 715/543/404
f 715/543/404 714/542/403 716/543/404
f 717/544/405 718/545/406 719/544/406
f 719/544/406 718/545/406 720/545/406
f 721/546/407 722/547/407 723/548/408
f 723/548/408 722/547/407 724/549/409
f 725/550/410 726/551/411 727/550/410
f 727/550/410 726/551/411 728/551/412
f 729/552/413 730/553/414 731/554/413
f 731/554/413 730/553/414 732/555/413
f 733/556/415 734/557/415 735/556/415
f 735/556/415 734/557/415 736/557/415
f 737/558/416 738/559/416 739/560/416
f 739/560/416 738/559/416 740/561/416
f 741/562/417 742/563/417 743/564/417
f 743/564/417 742/563/417 744/563/417
f 745/565/418 746/566/418 747/567/418
f 747/567/418 746/566/418 748/568/418
f 749/569/419 750/570/420 751/569/420
f 751/569/420 750/570/420 752/570/421
f 753/571/422 754/572/422 755/573/422
f 755/573/422 754/572/422 756/573/422
f 757/574/423 758/575/423 759/574/423
f 759/574/423 758/575/423 760/575/423
f 761/576/424 762/576/424 763/577/424
f 763/577/424 762/576/424 764/577/425
f 765/578/426 766/579/427 767/580/426
f 768/581/426 765/578/426 767/580/426
f 767/580/426 766/579/427 769/582/427
f 770/583/426 765/578/426 768/581/426
f 771/584/428 768/581/426 767/580/426
f 771/584/428 767/580/426 769/582/427
f 766/579/427 772/585/429 769/582/427
f 770/583/426 773/586/430 765/578/426
f 774/587/428 768/581/426 771/584/428
f 765/578/426 775/588/431 766/579/427
f 769/582/427 772/585/429 776/589/432
f 773/586/430 775/588/431 765/578/426
f 777/590/433 773/586/430 770/583/426
f 775/588/431 778/591/434 766/579/427
f 766/579/427 778/591/434 772/585/429
f 772/585/429 779/592/435 776/589/432
f 771/584/428 769/582/427 780/593/436
f 774/587/428 781/594/437 768/581/426
f 778/591/434 782/595/438 772/585/429
f 780/593/436 769/582/427 776/589/432
f 772/585/429 782/595/438 779/592/435
f 774/587/428 783/596/439 781/594/437
f 771/584/428 780/593/436 784/597/428
f 776/589/432 779/592/435 785/598/440
f 786/599/441 783/596/439 774/587/428
f 784/597/428 787/600/428 771/584/428
f 780/593/436 776/589/432 785/598/440
f 774/587/428 788/601/441 786/599/441
f 784/597/428 780/593/436 789/602/436
f 771/584/428 787/600/428 774/587/428
f 779/592/435 790/603/442 785/598/440
f 787/600/428 788/601/441 774/587/428
f 780/593/436 785/598/440 791/604/443
f 791/604/443 789/602/436 780/593/436
f 782/595/438 792/605/444 779/592/435
f 779/592/435 792/605/444 790/603/442
f 788/601/441 793/606/445 786/599/441
f 794/607/443 789/602/436 791/604/443
f 785/598/440 790/603/442 795/608/442
f 792/605/444 796/609/446 790/603/442
f 786/599/441 793/606/445 797/610/447
f 791/604/443 785/598/440 795/608/442
f 798/611/448 794/607/443 791/604/443
f 790/603/442 799/612/449 795/608/442
f 790/603/442 796/609/446 799/612/449
f 797/610/447 800/613/450 786/599/441
f 801/614/451 794/607/443 798/611/448
f 795/608/442 799/612/449 802/615/449
f 791/604/443 802/615/449 798/611/448
f 797/610/447 803/616/452 800/613/450
f 804/617/453 801/614/451 798/611/448
f 791/604/443 795/608/442 802/615/449
f 793/606/445 805/618/454 797/610/447
f 798/611/448 806/619/455 804/617/453
f 807/620/453 801/614/451 804/617/453
f 799/612/449 808/621/456 802/615/449
f 797/610/447 805/618/454 809/622/457
f 810/623/458 807/620/453 804/617/453
f 799/612/449 811/624/459 808/621/456
f 809/622/457 812/625/460 797/610/447
f 804/617/453 813/626/461 810/623/458
f 796/609/446 811/624/459 799/612/449
f 810/623/458 814/627/462 809/622/457
f 797/610/447 812/625/460 803/616/452
f 804/617/453 815/628/463 813/626/461
f 816/629/464 807/620/453 810/623/458
f 805/618/454 816/629/464 809/622/457
f 812/625/460 817/630/452 803/616/452
f 810/623/458 813/626/461 818/631/465
f 810/623/458 818/631/465 814/627/462
f 809/622/457 816/629/464 810/623/458
f 819/632/460 817/630/452 812/625/460
f 813/626/461 820/633/465 818/631/465
f 809/622/457 814/627/462 821/634/466
f 821/634/466 819/632/460 812/625/460
f 817/630/452 822/635/450 803/616/452
f 820/633/465 823/636/467 818/631/465
f 809/622/457 821/634/466 812/625/460
f 818/631/465 823/636/467 814/627/462
f 803/616/452 822/635/450 800/613/450
f 824/637/461 820/633/465 813/626/461
f 814/627/462 825/638/466 821/634/466
f 823/636/467 825/638/466 814/627/462
f 825/638/466 819/632/460 821/634/466
f 822/635/450 826/639/468 800/613/450
f 824/637/461 827/640/469 820/633/465
f 823/636/467 828/641/470 825/638/466
f 822/635/450 829/642/471 826/639/468
f 830/643/472 827/640/469 824/637/461
f 820/633/465 831/644/473 823/636/467
f 831/644/473 828/641/470 823/636/467
f 832/645/474 829/642/471 822/635/450
f 827/640/469 831/644/473 820/633/465
f 800/613/450 826/639/468 833/646/468
f 817/630/452 832/645/474 822/635/450
f 829/642/471 834/647/475 826/639/468
f 828/641/470 835/648/476 825/638/466
f 836/649/477 832/645/474 817/630/452
f 826/639/468 837/650/439 833/646/468
f 826/639/468 834/647/475 837/650/439
f 825/638/466 835/648/476 819/632/460
f 835/648/476 836/649/477 819/632/460
f 819/632/460 836/649/477 817/630/452
f 833/646/468 837/650/439 783/596/439
f 834/647/475 838/651/478 837/650/439
f 786/599/441 800/613/450 833/646/468
f 786/599/441 833/646/468 783/596/439
f 837/650/439 838/651/478 839/652/437
f 837/650/439 839/652/437 783/596/439
f 838/651/478 840/653/479 839/652/437
f 783/596/439 839/652/437 781/594/437
f 839/652/437 840/653/479 841/654/426
f 839/652/437 841/654/426 781/594/437
f 781/594/437 841/654/426 842/655/480
f 802/615/449 808/621/456 843/656/456
f 798/611/448 802/615/449 843/656/456
f 808/621/456 844/657/481 843/656/456
f 798/611/448 843/656/456 806/619/455
f 843/656/456 844/657/481 806/619/455
f 808/621/456 845/658/482 844/657/481
f 844/657/481 846/659/463 806/619/455
f 811/624/459 845/658/482 808/621/456
f 845/658/482 847/660/483 844/657/481
f 844/657/481 847/660/483 846/659/463
f 806/619/455 846/659/463 815/628/463
f 847/660/483 848/661/484 846/659/463
f 804/617/453 806/619/455 815/628/463
f 846/659/463 848/661/484 849/662/485
f 846/659/463 849/662/485 815/628/463
f 815/628/463 849/662/485 850/663/461
