# Blender 4.1.1
# www.blender.org
mtllib MapMiddle.mtl
o board2:Board_board2:board1:GUI_MiddleGameBoard
v 0.037782 -0.000149 0.020829
v 0.038000 -0.000163 0.020829
v 0.037782 -0.000147 0.017861
v 0.037495 -0.000013 0.017972
v 0.038000 -0.000161 0.017781
v 0.037495 -0.000015 0.020829
v 0.037782 -0.000146 0.016909
v 0.038000 -0.000167 0.027505
v 0.037302 -0.000012 0.018052
v 0.037495 -0.000013 0.017131
v 0.037495 -0.000019 0.027480
v 0.037782 -0.000152 0.027506
v 0.037302 -0.000015 0.020829
v 0.037495 -0.000013 0.017972
v 0.037302 -0.000020 0.027414
v 0.037302 -0.000012 0.017214
v 0.037782 -0.000153 0.027621
v 0.037302 -0.000012 0.018052
v 0.037495 -0.000019 0.027602
v 0.038000 -0.000167 0.027632
v 0.034424 0.000020 0.027405
v 0.032208 -0.000013 0.019260
v 0.037782 -0.000153 0.027759
v 0.033027 -0.000014 0.020829
v 0.032502 -0.000013 0.019824
v 0.037495 -0.000019 0.027759
v 0.038000 -0.000167 0.027759
v 0.030456 -0.000014 0.020830
v 0.037302 -0.000020 0.027608
v 0.031138 0.000066 0.027395
v 0.037495 -0.000019 0.027480
v 0.030408 -0.000013 0.020598
v 0.034417 0.000026 0.027593
v 0.029834 -0.000014 0.020830
v 0.034417 0.000026 0.027593
v 0.031103 0.000078 0.027576
v 0.030287 -0.000013 0.020015
v 0.037302 -0.000020 0.027759
v 0.034413 0.000042 0.027759
v 0.028753 -0.000013 0.020596
v 0.034413 0.000042 0.027759
v 0.031055 0.000113 0.027759
v 0.029834 -0.000014 0.020830
v 0.028753 0.000099 0.027388
v 0.028753 0.000115 0.027563
v 0.028753 -0.000013 0.020830
v 0.028753 -0.000007 0.012642
v 0.028753 -0.000006 0.021238
v 0.037302 -0.000008 0.012642
v 0.026430 0.000071 0.027375
v 0.028127 -0.000013 0.020830
v 0.028753 -0.000002 0.006185
v 0.027111 -0.000000 0.021864
v 0.037302 -0.000002 0.006185
v 0.028753 -0.000006 0.021238
v 0.026419 0.000083 0.027559
v 0.037495 -0.000010 0.012642
v 0.028753 0.000162 0.027759
v 0.037495 -0.000007 0.006184
v 0.029834 -0.000014 0.020830
v 0.037302 0.000003 -0.000327
v 0.037782 -0.000144 0.012642
v 0.026418 0.000120 0.027759
v 0.037495 -0.000003 -0.000328
v 0.028753 0.000003 -0.000327
v 0.037782 -0.000140 0.006184
v 0.022857 0.000035 0.027554
v 0.018862 -0.000002 0.006185
v 0.022923 0.000029 0.027356
v 0.022821 0.000053 0.027759
v 0.037782 -0.000136 -0.000328
v 0.018862 -0.000019 0.027335
v 0.037495 0.000001 -0.007611
v 0.038000 -0.000155 0.006184
v 0.018862 -0.000007 0.012642
v 0.018862 -0.000019 0.027547
v 0.038000 -0.000151 -0.000328
v 0.010316 -0.000002 0.006185
v 0.014443 -0.000019 0.027522
v 0.037782 -0.000132 -0.007611
v 0.018862 0.000003 -0.000328
v 0.014297 -0.000019 0.027286
v 0.037495 0.000005 -0.014585
v 0.013992 -0.000019 0.026792
v 0.037302 0.000014 -0.014584
v 0.010316 0.000003 -0.000328
v 0.018862 -0.000017 0.024950
v 0.037302 0.000020 -0.022234
v 0.018862 0.000009 -0.007610
v 0.037495 0.000010 -0.022234
v 0.028753 0.000009 -0.007610
v 0.024338 0.000000 0.022932
v 0.037302 0.000025 -0.028234
v 0.037302 0.000009 -0.007610
v 0.037495 0.000013 -0.028236
v 0.037782 -0.000124 -0.022234
v 0.028753 0.000014 -0.014584
v 0.037782 -0.000128 -0.014585
v 0.028753 0.000020 -0.022233
v 0.038000 -0.000143 -0.014585
v 0.038000 -0.000147 -0.007611
v 0.038000 -0.000138 -0.022234
v 0.018862 0.000014 -0.014585
v 0.037782 -0.000120 -0.028236
v 0.018862 0.000020 -0.022233
v 0.010316 0.000014 -0.014585
v 0.028753 0.000025 -0.028235
v 0.038000 -0.000135 -0.028236
v 0.037495 0.000000 -0.028236
v 0.010316 0.000020 -0.022234
v 0.037782 -0.000133 -0.028236
v 0.010316 0.000009 -0.007610
v 0.038000 -0.000148 -0.028236
v 0.037302 0.000007 -0.028234
v 0.009244 0.000014 -0.014585
v 0.010316 0.000021 -0.023443
v 0.009164 0.000008 -0.007610
v 0.009336 0.000020 -0.022234
v 0.028753 0.000007 -0.028235
v 0.008615 0.000014 -0.014585
v 0.009346 0.000021 -0.023110
v 0.008653 0.000020 -0.022234
v 0.008880 0.000021 -0.022949
v 0.008653 0.000008 -0.007610
v 0.022898 0.000025 -0.028235
v 0.009107 0.000003 -0.000328
v 0.008658 0.000021 -0.023104
v 0.022898 0.000007 -0.028235
v 0.008653 0.000003 -0.000328
v 0.006476 0.000020 -0.022234
v 0.022432 0.000025 -0.028235
v 0.009052 -0.000003 0.006185
v 0.003173 0.000019 -0.020916
v 0.008690 0.000025 -0.028235
v 0.022432 0.000007 -0.028235
v 0.008615 -0.000003 0.006185
v 0.003212 0.000025 -0.028236
v 0.018862 0.000025 -0.028235
v 0.009049 -0.000008 0.012642
v 0.003177 0.000020 -0.022234
v 0.018862 0.000007 -0.028235
v 0.008615 -0.000008 0.012642
v 0.000841 0.000025 -0.028236
v 0.010316 0.000007 -0.028235
v 0.009052 -0.000009 0.014311
v 0.000841 0.000020 -0.022234
v 0.010316 0.000025 -0.028235
v 0.008623 -0.000009 0.014878
v 0.000601 0.000013 -0.028236
v 0.018862 0.000024 -0.026883
v 0.009069 -0.000014 0.020829
v 0.000841 0.000007 -0.028236
v 0.008690 0.000007 -0.028235
v 0.010316 -0.000014 0.020829
v 0.000601 0.000000 -0.028236
v 0.003212 0.000007 -0.028236
v 0.008690 0.000025 -0.028235
v 0.008614 -0.000014 0.020829
v 0.003212 0.000025 -0.028236
v 0.000307 -0.000120 -0.028236
v 0.004117 -0.000014 0.020829
v 0.000307 -0.000133 -0.028236
v 0.003164 -0.000013 0.019061
v 0.008619 -0.000016 0.023312
v 0.000601 0.000010 -0.022234
v 0.000041 -0.000135 -0.028236
v 0.003160 -0.000014 0.020829
v 0.009088 -0.000016 0.022625
v 0.000041 -0.000148 -0.028236
v 0.002496 -0.000014 0.019768
v 0.005985 -0.000019 0.027164
v 0.003177 -0.000008 0.012642
v 0.003252 -0.000020 0.027269
v 0.009089 -0.000017 0.024439
v 0.005761 -0.000020 0.027492
v 0.008623 -0.000018 0.025808
v 0.003174 -0.000020 0.027276
v 0.008150 -0.000019 0.027198
v 0.003141 -0.000003 0.006184
v 0.003217 0.000042 0.027528
v 0.008038 0.000054 0.027510
v 0.002462 -0.000008 0.012642
v 0.003154 0.000040 0.027531
v 0.002485 -0.000008 0.012909
v 0.008626 0.000066 0.027515
v 0.003209 0.000140 0.027732
v 0.002485 -0.000008 0.013241
v 0.008625 -0.000019 0.027206
v 0.005578 -0.000020 0.027759
v 0.003144 0.000136 0.027733
v 0.007947 0.000147 0.027743
v 0.008627 0.000168 0.027738
v 0.009081 -0.000019 0.027213
v 0.002489 -0.000013 0.019340
v 0.008625 -0.000019 0.027206
v 0.000841 -0.000009 0.013937
v 0.010316 -0.000019 0.027233
v 0.008626 0.000066 0.027515
v 0.000841 -0.000014 0.020020
v 0.009088 0.000075 0.027518
v 0.000601 -0.000011 0.014039
v 0.008627 0.000168 0.027738
v 0.000601 -0.000015 0.020123
v 0.009081 -0.000019 0.027213
v 0.009102 0.000182 0.027734
v 0.000307 -0.000145 0.014162
v 0.009088 0.000075 0.027518
v 0.011085 -0.000019 0.027243
v 0.000307 -0.000148 0.020226
v 0.010316 0.000099 0.027528
v 0.012170 -0.000019 0.026819
v 0.000041 -0.000159 0.014275
v 0.010489 0.000093 0.027528
v 0.013705 -0.000018 0.026326
v 0.000041 -0.000163 0.020345
v 0.010316 0.000220 0.027726
v 0.012306 -0.000019 0.027259
v 0.000307 -0.000149 0.020620
v 0.009102 0.000182 0.027734
v 0.011085 -0.000019 0.027243
v 0.000601 -0.000015 0.020551
v 0.000041 -0.000163 0.020706
v 0.012717 -0.000019 0.027265
v 0.012345 0.000005 0.027402
v 0.000601 -0.000015 0.020123
v 0.000601 -0.000015 0.020829
v 0.012007 0.000039 0.027526
v 0.000841 -0.000014 0.020447
v 0.000307 -0.000149 0.020829
v 0.010489 0.000093 0.027528
v 0.000841 -0.000015 0.020829
v 0.000041 -0.000163 0.020829
v 0.011481 0.000164 0.027735
v 0.000841 -0.000020 0.027471
v 0.000307 -0.000152 0.027508
v 0.010316 0.000220 0.027726
v 0.000601 -0.000019 0.027501
v 0.000041 -0.000167 0.027518
v 0.002517 -0.000014 0.020829
v 0.000041 -0.000167 0.027649
v 0.002518 -0.000020 0.027331
v 0.000841 -0.000020 0.027644
v 0.000307 -0.000153 0.027667
v 0.003174 -0.000020 0.027276
v 0.000601 -0.000019 0.027666
v 0.000041 -0.000167 0.027759
v 0.000307 -0.000153 0.027759
v 0.003154 0.000040 0.027531
v 0.000601 -0.000019 0.027759
v 0.002518 0.000024 0.027562
v 0.000841 -0.000020 0.027759
v 0.000841 -0.000014 0.020020
v 0.003144 0.000136 0.027733
v 0.002520 0.000093 0.027740
v 0.002520 0.000093 0.027740
v 0.038000 -0.000180 0.027759
v 0.038000 -0.000167 0.027759
v 0.037782 -0.000166 0.027759
v 0.037782 -0.000153 0.027759
v 0.037495 -0.000032 0.027759
v 0.037495 -0.000019 0.027759
v 0.037302 -0.000020 0.027759
v 0.037302 -0.000037 0.027759
v 0.034419 -0.000037 0.027759
v 0.034413 0.000042 0.027759
v 0.031060 0.000052 0.027759
v 0.031055 0.000113 0.027759
v 0.028753 0.000112 0.027759
v 0.028753 0.000162 0.027759
v 0.026418 0.000120 0.027759
v 0.026419 0.000054 0.027759
v 0.022821 0.000053 0.027759
v 0.022814 -0.000037 0.027759
v 0.018862 -0.000019 0.027759
v 0.018862 -0.000038 0.027759
v 0.014589 -0.000038 0.027759
v 0.014589 -0.000020 0.027759
v 0.014589 -0.000020 0.027759
v 0.012452 0.000102 0.027752
v 0.012452 0.000118 0.027743
v 0.038000 -0.000159 0.012642
v 0.038000 -0.000161 0.016819
v 0.037495 -0.000013 0.017131
v 0.037302 -0.000012 0.017214
v 0.000307 -0.000166 0.027759
v 0.000601 -0.000032 0.027759
v 0.000307 -0.000153 0.027759
v 0.000041 -0.000167 0.027759
v 0.000041 -0.000180 0.027759
v 0.000601 -0.000019 0.027759
v 0.000841 -0.000020 0.027759
v 0.000841 -0.000038 0.027759
v 0.002519 0.000080 0.027747
v 0.000841 -0.000020 0.027759
v 0.002520 0.000093 0.027740
v 0.010316 0.000206 0.027745
v 0.010316 0.000220 0.027726
v 0.009131 0.000168 0.027748
v 0.011481 0.000164 0.027735
v 0.009102 0.000182 0.027734
v 0.012452 0.000102 0.027752
v 0.012452 0.000118 0.027743
v 0.010316 -0.000008 0.012642
v 0.018862 -0.000014 0.020829
v 0.025010 -0.000014 0.020830
v 0.027238 -0.000014 0.020830
v 0.024585 -0.000005 0.022159
v 0.018862 -0.000017 0.024355
v 0.027196 -0.000009 0.021169
v 0.018862 -0.000017 0.024950
v 0.027196 -0.000009 0.021169
v 0.018862 -0.000017 0.024355
v 0.027111 -0.000000 0.021864
v 0.024338 0.000000 0.022932
v 0.012717 -0.000019 0.027265
v 0.024585 -0.000005 0.022159
v 0.012345 0.000005 0.027402
v 0.012379 0.000026 0.027525
v 0.012452 0.000118 0.027743
v 0.012007 0.000039 0.027526
v 0.014589 -0.000020 0.027759
v 0.011481 0.000164 0.027735
v 0.018862 -0.000019 0.027759
v 0.003177 0.000003 -0.000328
v 0.002536 0.000003 -0.000328
v 0.002550 0.000003 -0.001128
v 0.002499 -0.000003 0.006184
v 0.003172 0.000003 -0.001357
v 0.000841 0.000003 -0.000498
v 0.000841 -0.000003 0.006184
v 0.000841 0.000003 -0.000765
v 0.003141 0.000008 -0.007611
v 0.000841 0.000002 -0.000328
v 0.000601 -0.000003 -0.000574
v 0.002549 0.000003 -0.001350
v 0.000601 -0.000003 -0.000328
v 0.002519 0.000008 -0.007191
v 0.000582 -0.000011 -0.000328
v 0.000601 -0.000007 0.006184
v 0.000841 0.000007 -0.006542
v 0.003158 0.000014 -0.014585
v 0.000841 -0.000008 0.012642
v 0.000841 0.000003 -0.000765
v 0.002486 0.000014 -0.014585
v 0.000307 -0.000137 -0.000155
v 0.000601 0.000001 -0.006427
v 0.002485 0.000018 -0.020134
v 0.000307 -0.000140 0.006184
v 0.000601 -0.000003 -0.000574
v 0.002444 0.000008 -0.007611
v 0.000041 -0.000151 -0.000100
v 0.000307 -0.000133 -0.006284
v 0.000841 0.000014 -0.014585
v 0.000041 -0.000155 0.006184
v 0.000307 -0.000136 -0.000328
v 0.000841 0.000018 -0.019501
v 0.000307 -0.000144 0.012642
v 0.000041 -0.000148 -0.006169
v 0.000601 0.000008 -0.019398
v 0.000041 -0.000159 0.012642
v 0.000041 -0.000151 -0.000328
v 0.000601 0.000005 -0.014585
v 0.000307 -0.000145 0.013765
v 0.000041 -0.000151 -0.000246
v 0.000307 -0.000126 -0.019264
v 0.000041 -0.000159 0.013872
v 0.000601 -0.000010 0.012642
v 0.000307 -0.000128 -0.014585
v 0.000601 -0.000011 0.013637
v 0.000041 -0.000140 -0.019143
v 0.000601 -0.000011 0.014039
v 0.000041 -0.000143 -0.014585
v 0.000041 -0.000140 -0.019668
v 0.000841 -0.000009 0.013543
v 0.000307 -0.000132 -0.007611
v 0.000307 -0.000125 -0.019775
v 0.000841 -0.000009 0.013937
v 0.000601 0.000001 -0.007611
v 0.000601 0.000008 -0.019398
v 0.000041 -0.000138 -0.022234
v 0.000307 -0.000124 -0.022234
v 0.000601 0.000008 -0.019882
v 0.000841 0.000008 -0.007611
v 0.000841 0.000008 -0.006991
v 0.000601 0.000001 -0.006880
v 0.000841 0.000007 -0.006542
v 0.000841 0.000018 -0.019967
v 0.000307 -0.000133 -0.006788
v 0.003141 0.000008 -0.007611
v 0.002847 0.000008 -0.007611
v 0.000601 0.000001 -0.006427
v 0.002444 0.000008 -0.007611
v 0.000041 -0.000147 -0.007611
v 0.000041 -0.000147 -0.006696
v 0.002800 0.000018 -0.020255
v 0.000841 0.000018 -0.019501
v -0.000177 -0.000128 -0.014585
v -0.000177 -0.000126 -0.019035
v 0.000041 -0.000140 -0.019143
v -0.000177 -0.000125 -0.019562
v 0.000041 -0.000140 -0.019668
v -0.000177 -0.000124 -0.022234
v 0.005578 -0.000038 0.027759
v 0.005578 -0.000020 0.027759
v 0.003209 0.000129 0.027742
v 0.003209 0.000140 0.027732
v 0.007947 0.000131 0.027752
v 0.005578 -0.000020 0.027759
v 0.007947 0.000147 0.027743
v 0.002519 0.000080 0.027747
v 0.003209 0.000129 0.027742
v 0.002520 0.000093 0.027740
v 0.003144 0.000136 0.027733
v 0.003209 0.000140 0.027732
v 0.000307 -0.000136 -0.000328
v 0.022432 0.000025 -0.028235
v 0.018862 0.000024 -0.026670
v 0.010316 0.000021 -0.023680
v 0.022898 0.000025 -0.028235
v 0.026419 0.000054 0.027759
v 0.026518 -0.000037 0.027343
v 0.028753 0.000112 0.027759
v 0.028753 -0.000037 0.027343
v 0.031060 0.000052 0.027759
v 0.031134 -0.000037 0.027343
v 0.034419 -0.000037 0.027759
v 0.034419 -0.000037 0.027343
v 0.026518 -0.000037 0.027343
v 0.026419 0.000054 0.027759
v 0.022814 -0.000037 0.027343
v 0.022814 -0.000037 0.027759
v 0.031134 -0.000037 0.027343
v 0.031060 0.000052 0.027759
v 0.028753 -0.000037 0.027343
v 0.028753 0.000112 0.027759
v 0.009131 0.000168 0.027748
v 0.009102 0.000182 0.027734
v 0.007947 0.000131 0.027752
v 0.008627 0.000168 0.027738
v 0.007947 0.000147 0.027743
vn 0.2485 0.9686 0.0006
vn 0.0669 0.9978 0.0006
vn 0.2178 0.9760 0.0006
vn 0.2166 0.9763 0.0006
vn 0.0020 1.0000 0.0007
vn 0.2189 0.9758 0.0006
vn 0.2151 0.9766 0.0006
vn 0.0020 1.0000 -0.0003
vn 0.0032 1.0000 -0.0038
vn 0.0031 1.0000 0.0007
vn 0.0029 1.0000 0.0008
vn 0.2131 0.9770 0.0006
vn 0.0109 0.9998 -0.0182
vn 0.0001 1.0000 0.0008
vn 0.0034 1.0000 -0.0028
vn 0.2130 0.9770 0.0006
vn 0.0021 1.0000 -0.0051
vn 0.0054 0.9999 -0.0155
vn 0.0096 0.9994 -0.0325
vn 0.0169 0.9954 -0.0946
vn 0.0001 1.0000 -0.0057
vn 0.0168 0.9994 -0.0317
vn 0.0169 0.9926 -0.1198
vn 0.0063 0.9997 -0.0245
vn 0.0188 0.9896 -0.1424
vn -0.0000 1.0000 0.0008
vn 0.0187 0.9986 -0.0496
vn 0.0187 0.9841 -0.1767
vn 0.0001 1.0000 -0.0081
vn 0.0012 0.9989 -0.0473
vn 0.0015 0.9895 -0.1442
vn -0.0002 1.0000 -0.0076
vn -0.0004 0.9999 -0.0157
vn 0.0068 1.0000 0.0008
vn -0.0104 0.9992 -0.0392
vn -0.0001 1.0000 -0.0062
vn -0.0082 0.9999 -0.0138
vn 0.0118 0.9999 0.0008
vn 0.0010 0.9999 -0.0155
vn -0.0141 0.9929 -0.1179
vn 0.2226 0.9749 0.0006
vn 0.0016 0.9780 -0.2088
vn 0.2273 0.9738 0.0006
vn 0.0098 0.9998 -0.0155
vn 0.0158 0.9999 0.0007
vn -0.0156 0.9852 -0.1709
vn 0.2314 0.9729 0.0006
vn -0.0142 0.9980 -0.0614
vn -0.0107 0.9997 -0.0207
vn -0.0156 0.9958 -0.0902
vn -0.0052 1.0000 -0.0049
vn 0.2352 0.9720 0.0006
vn -0.0072 0.9999 -0.0147
vn 0.0139 0.9969 -0.0768
vn 0.0031 0.9998 -0.0220
vn 0.0486 0.9988 0.0007
vn -0.0041 1.0000 -0.0024
vn 0.0566 0.9984 0.0006
vn -0.0083 0.9999 -0.0088
vn 0.0197 0.9998 0.0007
vn 0.0566 0.9984 0.0007
vn 0.4217 0.9068 0.0005
vn 0.4217 0.9067 0.0006
vn -0.0000 1.0000 0.0009
vn 0.0357 0.9994 0.0018
vn 0.4217 0.9068 0.0014
vn 0.0669 0.9978 0.0016
vn 1.0000 -0.0000 0.0001
vn -0.0000 1.0000 0.0020
vn -0.0000 -0.0001 -1.0000
vn -0.0456 0.9990 0.0008
vn -0.0456 0.9990 0.0007
vn -0.4139 0.9103 0.0005
vn -0.0001 1.0000 0.0020
vn -0.0000 -0.0000 -1.0000
vn -0.4139 0.9103 0.0013
vn -0.0547 0.9985 0.0006
vn -0.0547 0.9985 0.0016
vn -0.4138 0.9103 0.0005
vn -0.0016 0.9985 -0.0550
vn -0.0046 0.9965 -0.0829
vn -0.0032 0.9880 -0.1541
vn -0.0137 0.9931 -0.1165
vn -0.0058 0.9957 -0.0929
vn -0.0075 0.9708 -0.2397
vn -0.0244 0.9692 -0.2450
vn -0.0415 0.9417 -0.3340
vn -0.0157 0.9461 -0.3235
vn -0.0058 0.9500 -0.3123
vn -0.0039 0.9921 -0.1253
vn -0.0033 0.9803 -0.1974
vn -0.0554 0.9002 -0.4319
vn -0.0372 0.9522 -0.3033
vn -0.0236 0.9181 -0.3957
vn -0.0032 0.9899 -0.1414
vn -0.0031 1.0000 0.0008
vn 0.0011 0.9843 -0.1763
vn -0.0145 0.9344 -0.3559
vn -0.0026 1.0000 0.0007
vn -0.2143 0.9768 0.0006
vn -0.0227 0.9032 -0.4287
vn -0.0027 0.9856 -0.1692
vn -0.0227 0.9031 -0.4287
vn -0.2384 0.9712 0.0006
vn -0.0136 0.9125 -0.4089
vn 0.0050 0.9830 -0.1834
vn 0.0030 0.9049 -0.4256
vn 0.0197 0.8968 -0.4420
vn 0.0038 0.8658 -0.5003
vn 0.0059 0.9942 -0.1078
vn -0.0219 0.8765 -0.4808
vn 0.0107 0.9913 -0.1312
vn -0.2127 0.9771 0.0006
vn 0.0011 0.9964 -0.0846
vn 0.0117 0.9765 -0.2153
vn -0.2128 0.9771 0.0006
vn -0.2118 0.9773 0.0006
vn 0.0292 0.9279 -0.3717
vn -0.0007 1.0000 0.0008
vn -0.0006 1.0000 0.0008
vn 0.0369 0.8779 -0.4775
vn -0.0035 0.9997 -0.0260
vn 0.0369 0.8778 -0.4775
vn -0.2102 0.9777 0.0006
vn -0.0117 0.9969 -0.0784
vn -0.0158 0.9963 -0.0843
vn -0.0133 0.9945 -0.1042
vn -0.2094 0.9778 0.0006
vn -0.0408 0.9513 -0.3054
vn -0.2093 0.9778 0.0006
vn -0.0384 0.9706 -0.2377
vn -0.0240 0.9929 -0.1161
vn -0.0009 1.0000 0.0008
vn -0.0548 0.9150 -0.3996
vn -0.0524 0.9715 -0.2313
vn -0.0548 0.9151 -0.3996
vn 0.0669 0.9978 0.0015
vn -0.0000 -0.0002 1.0000
vn -0.0001 -0.0000 1.0000
vn -0.0354 0.9994 0.0018
vn 0.0001 0.0009 1.0000
vn 0.0001 0.0014 1.0000
vn -0.0000 0.0008 1.0000
vn -0.0000 0.0005 1.0000
vn -0.0000 0.0003 1.0000
vn -0.0000 -0.0000 1.0000
vn -0.0000 -0.0001 1.0000
vn -0.0000 1.0000 0.0027
vn -0.0000 1.0000 0.0024
vn 0.0120 0.2671 0.9636
vn 0.0120 0.2672 0.9636
vn 0.2204 0.9754 0.0006
vn 0.0046 1.0000 0.0007
vn -0.4139 0.9103 0.0014
vn 0.0286 0.9996 0.0018
vn 0.0001 -0.0000 1.0000
vn -0.0000 1.0000 0.0021
vn -0.0064 0.2235 0.9747
vn -0.0063 0.2235 0.9747
vn 0.0044 0.7258 0.6878
vn 0.0044 0.7259 0.6878
vn -0.0204 0.7576 0.6524
vn 0.0293 0.6919 0.7214
vn 0.0292 0.6919 0.7214
vn -0.0004 1.0000 0.0005
vn -0.0005 1.0000 -0.0021
vn -0.0002 1.0000 -0.0049
vn -0.0010 1.0000 -0.0048
vn -0.0006 1.0000 -0.0003
vn -0.0004 0.9999 -0.0105
vn -0.0021 1.0000 -0.0017
vn -0.0020 0.9999 -0.0123
vn -0.0021 1.0000 -0.0016
vn -0.0036 1.0000 -0.0072
vn 0.0062 0.9990 -0.0448
vn 0.0234 0.9907 -0.1343
vn 0.0334 0.9733 -0.2270
vn 0.0430 0.9471 -0.3181
vn 0.0387 0.9534 -0.2991
vn 0.0217 0.9938 -0.1088
vn 0.0423 0.9086 -0.4155
vn -0.0080 0.9997 -0.0220
vn -0.0110 0.9999 0.0008
vn -0.0079 1.0000 0.0007
vn -0.0110 0.9999 0.0007
vn -0.0101 0.9999 0.0008
vn -0.2225 0.9749 0.0006
vn -0.1817 0.9834 0.0007
vn -0.2194 0.9756 0.0006
vn -0.0125 0.9999 0.0007
vn -0.0053 1.0000 0.0007
vn -0.2239 0.9746 0.0006
vn -0.2240 0.9746 0.0006
vn -0.0391 0.9992 0.0007
vn -0.1770 0.9842 0.0006
vn -0.0189 0.9998 0.0007
vn -0.2301 0.9732 0.0006
vn -0.2170 0.9762 0.0006
vn -0.0547 0.9985 0.0005
vn -0.2163 0.9763 0.0006
vn -0.2159 0.9764 0.0006
vn -0.0044 1.0000 0.0007
vn -0.0042 1.0000 0.0007
vn -0.2265 0.9740 0.0006
vn -0.2314 0.9729 0.0006
vn -0.0548 0.9985 0.0006
vn -0.2318 0.9728 0.0006
vn -0.0152 0.9999 0.0007
vn -0.0141 0.9999 0.0007
vn -0.2255 0.9743 0.0006
vn -0.0140 0.9999 0.0007
vn -0.0203 0.9998 0.0007
vn 0.1202 -0.0005 0.9927
vn 0.1205 -0.0005 0.9927
vn -0.2254 0.9743 0.0006
vn 0.1204 -0.0005 0.9927
vn -0.0202 0.9998 0.0007
vn -0.0000 1.0000 0.0022
vn 0.0139 0.3286 0.9444
vn 0.0139 0.3287 0.9443
vn -0.0141 0.2671 0.9636
vn -0.0332 0.5886 0.8078
vn -0.0331 0.5886 0.8077
vn -0.0331 0.5886 0.8078
vn -0.2987 0.9543 0.0005
vn 0.0124 -0.9602 0.2789
vn -0.0132 -0.9944 0.1048
vn 0.1113 0.0554 0.9922
vn 0.0124 -0.9939 0.1100
vn 0.0124 -0.9939 0.1099
vn -0.0118 -0.9615 0.2744
vn -0.0124 -0.9616 0.2743
vn -0.0125 -0.9616 0.2743
vn -0.0151 0.6089 0.7931
vn -0.0151 0.6088 0.7932
vt 0.994299 0.123758
vt 1.000000 0.123758
vt 0.994299 0.176771
vt 0.986769 0.174779
vt 1.000000 0.178194
vt 0.986769 0.123758
vt 0.994299 0.193768
vt 1.000000 0.004537
vt 0.981720 0.173357
vt 0.986769 0.189804
vt 0.986769 0.004982
vt 0.994299 0.004520
vt 0.981720 0.123758
vt 0.981720 0.006158
vt 0.981720 0.188332
vt 0.994299 0.002466
vt 0.986769 0.002810
vt 1.000000 0.002269
vt 0.906328 0.006320
vt 0.848280 0.151790
vt 0.994299 0.000001
vt 0.869749 0.123756
vt 0.855994 0.141717
vt 0.986769 0.000001
vt 1.000000 0.000001
vt 0.802396 0.123755
vt 0.981720 0.002706
vt 0.820254 0.006504
vt 0.801132 0.127898
vt 0.906153 0.002973
vt 0.786088 0.123755
vt 0.819348 0.003280
vt 0.797957 0.138302
vt 0.981720 0.000001
vt 0.906054 0.000001
vt 0.757778 0.127931
vt 0.818076 0.000000
vt 0.757778 0.006638
vt 0.757778 0.003497
vt 0.757778 0.123755
vt 0.757778 0.269966
vt 0.757778 0.116455
vt 0.981720 0.269972
vt 0.696936 0.006859
vt 0.741396 0.123755
vt 0.757778 0.385292
vt 0.714762 0.105286
vt 0.981704 0.385290
vt 0.696641 0.003567
vt 0.986769 0.269972
vt 0.757778 0.000000
vt 0.986769 0.385300
vt 0.981704 0.501590
vt 0.994299 0.269972
vt 0.696626 0.000000
vt 0.986769 0.501602
vt 0.757778 0.501593
vt 0.994299 0.385300
vt 0.603356 0.003672
vt 0.498693 0.385295
vt 0.605065 0.007194
vt 0.602400 0.000000
vt 0.994299 0.501602
vt 0.498693 0.007582
vt 0.986769 0.631662
vt 1.000000 0.385300
vt 0.498693 0.269968
vt 0.498693 0.003791
vt 1.000000 0.501602
vt 0.274835 0.385297
vt 0.382941 0.004228
vt 0.994299 0.631662
vt 0.498693 0.501596
vt 0.379117 0.008456
vt 0.986769 0.756218
vt 0.371142 0.017273
vt 0.981704 0.756200
vt 0.274835 0.501599
vt 0.498693 0.050164
vt 0.981720 0.892817
vt 0.498693 0.631654
vt 0.986769 0.892817
vt 0.757778 0.631650
vt 0.642130 0.086204
vt 0.981704 0.999976
vt 0.981704 0.631646
vt 0.986769 1.000000
vt 0.994299 0.892817
vt 0.757778 0.756204
vt 0.994299 0.756218
vt 0.757778 0.892800
vt 1.000000 0.756218
vt 1.000000 0.631662
vt 1.000000 0.892817
vt 0.498693 0.756209
vt 0.994299 1.000000
vt 0.498693 0.892806
vt 0.274835 0.756213
vt 0.757778 0.999982
vt 1.000000 1.000000
vt 0.274835 0.892811
vt 0.274835 0.631658
vt 0.246768 0.756214
vt 0.274835 0.914410
vt 0.244659 0.631658
vt 0.249173 0.892812
vt 0.230293 0.756214
vt 0.249436 0.908453
vt 0.231274 0.892812
vt 0.237218 0.905588
vt 0.231274 0.631658
vt 0.604421 0.999986
vt 0.243177 0.501599
vt 0.231416 0.908352
vt 0.604420 0.999986
vt 0.231274 0.501599
vt 0.174271 0.892813
vt 0.592218 0.999986
vt 0.241727 0.385298
vt 0.087754 0.869288
vt 0.232254 0.999995
vt 0.592218 0.999986
vt 0.230293 0.385298
vt 0.088773 0.999998
vt 0.498693 0.999988
vt 0.241647 0.269970
vt 0.087838 0.892815
vt 0.230293 0.269970
vt 0.026649 1.000000
vt 0.274835 0.999994
vt 0.241748 0.240174
vt 0.026649 0.892817
vt 0.230505 0.230049
vt 0.020382 1.000000
vt 0.498693 0.975841
vt 0.242185 0.123757
vt 0.232253 0.999995
vt 0.274835 0.123757
vt 0.088772 0.999998
vt 0.230267 0.123757
vt 0.012679 1.000000
vt 0.112472 0.123757
vt 0.087504 0.155335
vt 0.230382 0.079424
vt 0.020382 0.892817
vt 0.005701 1.000000
vt 0.087411 0.123757
vt 0.242689 0.091698
vt 0.070013 0.142713
vt 0.161403 0.010633
vt 0.087838 0.269971
vt 0.089814 0.008746
vt 0.242694 0.059300
vt 0.155520 0.004766
vt 0.230497 0.034839
vt 0.087772 0.008630
vt 0.218119 0.010016
vt 0.086903 0.385299
vt 0.088898 0.004133
vt 0.215178 0.004448
vt 0.069128 0.269971
vt 0.087240 0.004077
vt 0.069726 0.265207
vt 0.230579 0.004366
vt 0.088696 0.000486
vt 0.069730 0.259285
vt 0.230561 0.009880
vt 0.150742 0.000001
vt 0.086975 0.000473
vt 0.212789 0.000298
vt 0.230594 0.000383
vt 0.242504 0.009750
vt 0.069815 0.150358
vt 0.026649 0.246843
vt 0.274835 0.009399
vt 0.026649 0.138211
vt 0.242683 0.004301
vt 0.020382 0.245034
vt 0.020382 0.136377
vt 0.243037 0.000442
vt 0.012679 0.242824
vt 0.294986 0.009217
vt 0.012679 0.134542
vt 0.274835 0.004130
vt 0.323409 0.016783
vt 0.005701 0.240810
vt 0.279367 0.004134
vt 0.363620 0.025591
vt 0.005701 0.132401
vt 0.274835 0.000594
vt 0.326976 0.008927
vt 0.012679 0.127504
vt 0.020382 0.128737
vt 0.005701 0.125963
vt 0.337739 0.008830
vt 0.328006 0.006371
vt 0.020382 0.123758
vt 0.319130 0.004170
vt 0.026649 0.130587
vt 0.012679 0.123758
vt 0.026649 0.123758
vt 0.005701 0.123758
vt 0.305371 0.000432
vt 0.026649 0.005151
vt 0.012679 0.004478
vt 0.020382 0.004603
vt 0.005701 0.004313
vt 0.070565 0.123758
vt 0.005701 0.001959
vt 0.070595 0.007652
vt 0.026649 0.002050
vt 0.012679 0.001639
vt 0.020382 0.001663
vt 0.005701 0.000001
vt 0.012679 0.000001
vt 0.020382 0.000001
vt 0.070594 0.003520
vt 0.026649 0.000001
vt 0.070631 0.000345
vt 1.000000 0.000001
vt 0.981704 0.000000
vt 0.906195 0.000000
vt 0.818204 0.000000
vt 0.757778 0.000000
vt 0.696635 0.000000
vt 0.602211 0.000000
vt 0.498693 0.000000
vt 0.386764 0.000001
vt 0.330800 0.000129
vt 0.330800 0.000298
vt 1.000000 0.269972
vt 1.000000 0.195379
vt 0.005701 0.000001
vt 0.070616 0.000218
vt 0.274835 0.000257
vt 0.243812 0.000193
vt 0.274835 0.269970
vt 0.498693 0.123756
vt 0.659746 0.123755
vt 0.718107 0.123755
vt 0.648606 0.100009
vt 0.498693 0.060801
vt 0.717011 0.117700
vt 0.328888 0.004179
vt 0.087838 0.501601
vt 0.071044 0.501601
vt 0.071417 0.515884
vt 0.070086 0.385299
vt 0.087706 0.519975
vt 0.026649 0.504639
vt 0.026649 0.385300
vt 0.026649 0.509404
vt 0.086903 0.631661
vt 0.026649 0.501602
vt 0.020382 0.505992
vt 0.071389 0.519863
vt 0.020382 0.501602
vt 0.070604 0.624169
vt 0.019881 0.501602
vt 0.020382 0.385300
vt 0.026649 0.612572
vt 0.087349 0.756217
vt 0.026649 0.269972
vt 0.069742 0.756217
vt 0.012679 0.498509
vt 0.020382 0.610527
vt 0.069709 0.855314
vt 0.012679 0.385300
vt 0.068634 0.631661
vt 0.005701 0.497536
vt 0.012679 0.607970
vt 0.026649 0.756218
vt 0.005701 0.385300
vt 0.012679 0.501602
vt 0.026649 0.844013
vt 0.012679 0.269972
vt 0.005701 0.605925
vt 0.020382 0.842171
vt 0.005701 0.269972
vt 0.005701 0.501602
vt 0.020382 0.756218
vt 0.012679 0.249922
vt 0.005701 0.500142
vt 0.012679 0.839769
vt 0.005701 0.248004
vt 0.020382 0.269972
vt 0.012679 0.756218
vt 0.020382 0.252198
vt 0.005701 0.837608
vt 0.005701 0.756218
vt 0.005701 0.847000
vt 0.026649 0.253876
vt 0.012679 0.631662
vt 0.012679 0.848905
vt 0.020382 0.631662
vt 0.005701 0.892817
vt 0.012679 0.892817
vt 0.020382 0.850810
vt 0.026649 0.631662
vt 0.026649 0.620592
vt 0.020382 0.618617
vt 0.026649 0.852334
vt 0.012679 0.616972
vt 0.079203 0.631661
vt 0.005701 0.631662
vt 0.005701 0.615327
vt 0.077977 0.857484
vt -0.000000 0.756218
vt -0.000000 0.835687
vt -0.000000 0.845094
vt -0.000000 0.892817
vt 0.088696 0.000307
vt 0.212789 0.000129
vt 0.498693 0.972034
vt 0.274835 0.918649
vt 0.699231 0.000000
vt 0.820142 0.000000
s 1
g board2:Board_board2:board1:GUI_MiddleGameBoard_board2:board1:GUI_MiddleGameBoard
usemtl board2:board1:GUI_MiddleGameBoard
f 1/1/1 2/2/2 3/3/1
f 4/4/3 1/1/1 3/3/1
f 3/3/1 2/2/2 5/5/2
f 6/6/4 1/1/1 4/4/3
f 3/3/1 5/5/2 7/7/1
f 1/1/1 8/8/2 2/2/2
f 4/4/3 9/9/5 6/6/4
f 10/10/6 3/3/1 7/7/1
f 11/11/7 1/1/1 6/6/4
f 12/12/1 8/8/2 1/1/1
f 6/6/4 9/9/5 13/13/8
f 14/4/6 3/3/1 10/10/6
f 12/12/1 1/1/1 11/11/7
f 13/13/8 15/14/9 6/6/4
f 16/15/10 14/4/6 10/10/6
f 17/16/1 8/8/2 12/12/1
f 6/6/4 15/14/9 11/11/7
f 18/9/11 14/4/6 16/15/10
f 17/16/1 12/12/1 19/17/12
f 20/18/2 8/8/2 17/16/1
f 13/13/8 21/19/13 15/14/9
f 22/20/14 18/9/11 16/15/10
f 23/21/1 20/18/2 17/16/1
f 24/22/15 21/19/13 13/13/8
f 25/23/14 18/9/11 22/20/14
f 23/21/1 17/16/1 26/24/16
f 24/22/15 13/13/8 25/23/14
f 26/24/16 17/16/1 19/17/12
f 27/25/2 20/18/2 23/21/1
f 25/23/14 28/26/17 24/22/15
f 19/17/12 29/27/18 26/24/16
f 15/14/9 21/19/13 29/27/18
f 25/23/14 13/13/8 9/9/5
f 21/19/13 24/22/15 30/28/19
f 30/28/19 24/22/15 28/26/17
f 15/14/9 29/27/18 31/11/12
f 31/11/12 29/27/18 19/17/12
f 32/29/14 28/26/17 25/23/14
f 21/19/13 30/28/19 33/30/20
f 19/17/12 12/12/1 31/11/12
f 32/29/14 34/31/21 28/26/17
f 29/27/18 21/19/13 35/30/22
f 30/28/19 28/26/17 34/31/21
f 33/30/20 30/28/19 36/32/23
f 32/29/14 25/23/14 37/33/14
f 29/27/18 35/30/22 38/34/24
f 33/30/20 36/32/23 39/35/25
f 37/33/14 40/36/26 32/29/14
f 26/24/16 29/27/18 38/34/24
f 38/34/24 35/30/22 41/35/27
f 39/35/25 36/32/23 42/37/28
f 32/29/14 40/36/26 43/31/29
f 37/33/14 25/23/14 22/20/14
f 30/28/19 44/38/30 36/32/23
f 36/32/23 45/39/31 42/37/28
f 43/31/29 40/36/26 46/40/32
f 47/41/26 37/33/14 22/20/14
f 36/32/23 44/38/30 45/39/31
f 48/42/33 43/31/29 46/40/32
f 47/41/26 40/36/26 37/33/14
f 47/41/26 22/20/14 49/43/34
f 44/38/30 50/44/35 45/39/31
f 48/42/33 46/40/32 51/45/36
f 47/41/26 51/45/36 40/36/26
f 49/43/34 52/46/26 47/41/26
f 44/38/30 53/47/37 50/44/35
f 40/36/26 51/45/36 46/40/32
f 54/48/38 52/46/26 49/43/34
f 55/42/39 53/47/37 44/38/30
f 45/39/31 50/44/35 56/49/40
f 57/50/41 54/48/38 49/43/34
f 30/28/19 55/42/39 44/38/30
f 45/39/31 56/49/40 58/51/42
f 59/52/43 54/48/38 57/50/41
f 60/31/44 55/42/39 30/28/19
f 42/37/28 45/39/31 58/51/42
f 59/52/43 61/53/45 54/48/38
f 61/53/45 52/46/26 54/48/38
f 57/50/41 62/54/1 59/52/43
f 58/51/42 56/49/40 63/55/46
f 64/56/47 61/53/45 59/52/43
f 65/57/26 52/46/26 61/53/45
f 59/52/43 62/54/1 66/58/1
f 56/49/40 67/59/48 63/55/46
f 59/52/43 66/58/1 64/56/47
f 65/57/26 68/60/26 52/46/26
f 56/49/40 69/61/49 67/59/48
f 63/55/46 67/59/48 70/62/50
f 64/56/47 66/58/1 71/63/1
f 52/46/26 68/60/26 47/41/26
f 69/61/49 72/64/51 67/59/48
f 64/56/47 71/63/1 73/65/52
f 66/58/1 74/66/2 71/63/1
f 47/41/26 68/60/26 75/67/26
f 67/59/48 72/64/51 76/68/53
f 67/59/48 76/68/53 70/62/50
f 71/63/1 74/66/2 77/69/2
f 68/60/26 78/70/26 75/67/26
f 72/64/51 79/71/54 76/68/53
f 71/63/1 77/69/2 80/72/1
f 73/65/52 71/63/1 80/72/1
f 81/73/26 78/70/26 68/60/26
f 82/74/55 79/71/54 72/64/51
f 73/65/52 80/72/1 83/75/56
f 81/73/26 68/60/26 65/57/26
f 72/64/51 84/76/26 82/74/55
f 83/75/56 85/77/26 73/65/52
f 86/78/26 78/70/26 81/73/26
f 87/79/57 84/76/26 72/64/51
f 83/75/56 88/80/26 85/77/26
f 89/81/26 86/78/26 81/73/26
f 69/61/49 87/79/57 72/64/51
f 90/82/58 88/80/26 83/75/56
f 89/81/26 81/73/26 91/83/26
f 91/83/26 81/73/26 65/57/26
f 92/84/59 87/79/57 69/61/49
f 90/82/58 93/85/26 88/80/26
f 91/83/26 65/57/26 94/86/60
f 85/77/26 91/83/26 94/86/60
f 50/44/35 92/84/59 69/61/49
f 95/87/61 93/85/26 90/82/58
f 73/65/52 85/77/26 94/86/60
f 53/47/37 92/84/59 50/44/35
f 50/44/35 69/61/49 56/49/40
f 90/82/58 96/88/62 95/87/61
f 73/65/52 94/86/60 64/56/47
f 88/80/26 97/89/26 85/77/26
f 97/89/26 91/83/26 85/77/26
f 90/82/58 98/90/62 96/88/62
f 64/56/47 94/86/60 61/53/45
f 99/91/26 97/89/26 88/80/26
f 83/75/56 98/90/62 90/82/58
f 98/90/62 100/92/2 96/88/62
f 94/86/60 65/57/26 61/53/45
f 93/85/26 99/91/26 88/80/26
f 98/90/62 101/93/2 100/92/2
f 96/88/62 100/92/2 102/94/2
f 83/75/56 80/72/1 98/90/62
f 99/91/26 103/95/26 97/89/26
f 80/72/1 101/93/2 98/90/62
f 96/88/62 102/94/2 104/96/63
f 105/97/26 103/95/26 99/91/26
f 80/72/1 77/69/2 101/93/2
f 95/87/61 96/88/62 104/96/63
f 105/97/26 106/98/26 103/95/26
f 99/91/26 107/99/64 105/97/26
f 104/96/63 102/94/2 108/100/2
f 104/96/63 109/87/65 95/87/61
f 103/95/26 89/81/26 97/89/26
f 110/101/26 106/98/26 105/97/26
f 108/100/2 111/96/66 104/96/63
f 111/96/66 109/87/65 104/96/63
f 97/89/26 89/81/26 91/83/26
f 106/98/26 112/102/26 103/95/26
f 113/100/67 111/96/66 108/100/2
f 114/85/68 95/87/61 109/87/65
f 103/95/26 112/102/26 89/81/26
f 115/103/26 112/102/26 106/98/26
f 110/101/26 105/97/26 116/104/26
f 93/85/26 95/87/61 114/85/68
f 117/105/26 112/102/26 115/103/26
f 118/106/26 106/98/26 110/101/26
f 114/85/68 119/99/69 93/85/26
f 120/107/26 117/105/26 115/103/26
f 115/103/26 106/98/26 118/106/26
f 118/106/26 110/101/26 121/108/26
f 121/108/26 110/101/26 116/104/26
f 93/85/26 119/99/69 107/99/64
f 120/107/26 115/103/26 122/109/26
f 122/109/26 115/103/26 118/106/26
f 121/108/26 123/110/26 118/106/26
f 107/99/64 99/91/26 93/85/26
f 124/111/26 117/105/26 120/107/26
f 122/109/26 118/106/26 123/110/26
f 107/99/64 119/99/69 125/112/70
f 124/111/26 126/113/26 117/105/26
f 127/114/26 122/109/26 123/110/26
f 127/114/26 123/110/26 121/108/26
f 125/112/70 119/99/69 128/115/70
f 129/116/26 126/113/26 124/111/26
f 127/114/26 130/117/26 122/109/26
f 130/117/26 120/107/26 122/109/26
f 125/112/70 128/115/70 131/118/70
f 126/113/26 129/116/26 132/119/26
f 133/120/26 120/107/26 130/117/26
f 130/117/26 127/114/26 134/121/26
f 131/118/70 128/115/70 135/122/70
f 132/119/26 129/116/26 136/123/26
f 137/124/26 130/117/26 134/121/26
f 131/118/70 135/122/70 138/125/26
f 136/123/26 139/126/26 132/119/26
f 140/127/26 130/117/26 137/124/26
f 140/127/26 133/120/26 130/117/26
f 138/125/26 135/122/70 141/125/69
f 142/128/26 139/126/26 136/123/26
f 143/129/71 140/127/26 137/124/26
f 141/125/69 144/130/69 138/125/26
f 139/126/26 142/128/26 145/131/26
f 146/132/72 140/127/26 143/129/71
f 146/132/72 133/120/26 140/127/26
f 138/125/26 144/130/69 147/130/64
f 145/131/26 142/128/26 148/133/26
f 149/134/73 146/132/72 143/129/71
f 147/130/64 150/135/26 138/125/26
f 145/131/26 148/133/26 151/136/26
f 152/129/74 149/134/73 143/129/71
f 144/130/69 153/137/75 147/130/64
f 154/138/26 145/131/26 151/136/26
f 155/134/76 149/134/73 152/129/74
f 143/129/71 156/139/75 152/129/74
f 147/130/64 153/137/75 157/121/75
f 151/136/26 148/133/26 158/140/26
f 159/124/75 156/139/75 143/129/71
f 155/134/76 160/141/77 149/134/73
f 157/121/75 153/137/75 159/124/75
f 148/133/26 161/142/26 158/140/26
f 159/124/75 153/137/75 156/139/75
f 162/141/78 160/141/77 155/134/76
f 161/142/26 148/133/26 163/143/26
f 161/142/26 164/144/26 158/140/26
f 160/141/77 165/145/79 149/134/73
f 162/141/78 166/146/2 160/141/77
f 167/147/26 161/142/26 163/143/26
f 164/144/26 168/148/26 158/140/26
f 169/146/67 166/146/2 162/141/78
f 163/143/26 170/149/26 167/147/26
f 171/150/80 164/144/26 161/142/26
f 158/140/26 168/148/26 151/136/26
f 163/143/26 148/133/26 172/151/26
f 173/152/81 171/150/80 161/142/26
f 161/142/26 167/147/26 173/152/81
f 164/144/26 174/153/26 168/148/26
f 172/151/26 148/133/26 142/128/26
f 171/150/80 173/152/81 175/154/82
f 164/144/26 171/150/80 176/155/26
f 176/155/26 174/153/26 164/144/26
f 136/123/26 172/151/26 142/128/26
f 177/156/83 173/152/81 167/147/26
f 176/155/26 171/150/80 178/157/84
f 179/158/26 172/151/26 136/123/26
f 177/156/83 180/159/85 173/152/81
f 175/154/82 173/152/81 180/159/85
f 178/157/84 171/150/80 181/160/86
f 172/151/26 179/158/26 182/161/26
f 181/160/86 171/150/80 175/154/82
f 183/162/87 180/159/85 177/156/83
f 172/151/26 182/161/26 184/163/26
f 185/164/88 178/157/84 181/160/86
f 180/159/85 183/162/87 186/165/89
f 172/151/26 184/163/26 187/166/26
f 188/167/90 178/157/84 185/164/88
f 175/154/82 180/159/85 189/168/91
f 189/168/91 180/159/85 186/165/89
f 186/165/89 183/162/87 190/169/92
f 176/155/26 178/157/84 188/167/90
f 181/160/86 175/154/82 191/170/93
f 191/170/93 175/154/82 189/168/91
f 185/164/88 181/160/86 192/171/94
f 187/166/26 163/143/26 172/151/26
f 192/171/94 181/160/86 191/170/93
f 174/153/26 176/155/26 193/172/95
f 194/173/26 163/143/26 187/166/26
f 193/172/95 176/155/26 195/167/95
f 163/143/26 194/173/26 170/149/26
f 196/174/96 194/173/26 187/166/26
f 154/138/26 174/153/26 197/175/97
f 198/164/98 193/172/95 195/167/95
f 199/176/99 194/173/26 196/174/96
f 154/138/26 168/148/26 174/153/26
f 200/177/98 193/172/95 198/164/98
f 201/178/100 199/176/99 196/174/96
f 151/136/26 168/148/26 154/138/26
f 202/171/101 200/177/98 198/164/98
f 203/179/100 199/176/99 201/178/100
f 197/175/97 174/153/26 204/172/102
f 205/180/103 200/177/98 202/171/101
f 206/181/104 203/179/100 201/178/100
f 204/172/102 207/177/105 197/175/97
f 197/175/97 208/182/106 154/138/26
f 209/183/104 203/179/100 206/181/104
f 197/175/97 207/177/105 210/184/107
f 208/182/106 211/185/26 154/138/26
f 212/186/77 209/183/104 206/181/104
f 208/182/106 197/175/97 213/187/108
f 213/187/108 197/175/97 210/184/107
f 211/185/26 214/188/26 154/138/26
f 215/189/77 209/183/104 212/186/77
f 216/190/109 213/187/108 210/184/107
f 211/185/26 217/191/110 214/188/26
f 215/189/77 218/192/104 209/183/104
f 210/184/107 219/180/111 216/190/109
f 207/177/105 219/180/111 210/184/107
f 217/191/110 211/185/26 220/182/112
f 218/192/104 221/193/113 209/183/104
f 222/194/77 218/192/104 215/189/77
f 217/191/110 223/195/114 214/188/26
f 217/191/110 220/182/112 224/196/115
f 209/183/104 221/193/113 225/179/116
f 218/192/104 226/197/117 221/193/113
f 224/196/115 223/195/114 217/191/110
f 224/196/115 220/182/112 227/198/118
f 221/193/113 228/199/119 225/179/116
f 229/200/104 226/197/117 218/192/104
f 222/194/77 229/200/104 218/192/104
f 227/198/118 220/182/112 230/187/118
f 221/193/113 231/201/120 228/199/119
f 226/197/117 231/201/120 221/193/113
f 232/202/77 229/200/104 222/194/77
f 230/187/118 233/203/121 227/198/118
f 226/197/117 234/204/122 231/201/120
f 232/202/77 235/205/104 229/200/104
f 236/190/123 233/203/121 230/187/118
f 237/206/124 234/204/122 226/197/117
f 238/207/77 235/205/104 232/202/77
f 235/205/104 237/206/124 229/200/104
f 231/201/120 239/208/26 228/199/119
f 229/200/104 237/206/124 226/197/117
f 240/209/77 235/205/104 238/207/77
f 239/208/26 231/201/120 241/210/125
f 241/210/125 231/201/120 234/204/122
f 237/206/124 242/211/126 234/204/122
f 243/212/104 235/205/104 240/209/77
f 244/156/127 239/208/26 241/210/125
f 245/213/128 242/211/126 237/206/124
f 243/212/104 245/213/128 235/205/104
f 246/214/77 243/212/104 240/209/77
f 167/147/26 239/208/26 244/156/127
f 235/205/104 245/213/128 237/206/124
f 247/215/104 243/212/104 246/214/77
f 167/147/26 170/149/26 239/208/26
f 244/156/127 241/210/125 248/162/129
f 247/215/104 249/216/130 243/212/104
f 243/212/104 249/216/130 245/213/128
f 228/199/119 239/208/26 170/149/26
f 248/162/129 241/210/125 250/217/131
f 249/216/130 251/218/132 245/213/128
f 228/199/119 170/149/26 252/176/133
f 248/162/129 250/217/131 253/169/134
f 234/204/122 250/217/131 241/210/125
f 245/213/128 251/218/132 242/211/126
f 225/179/116 228/199/119 252/176/133
f 242/211/126 250/217/131 234/204/122
f 252/176/133 170/149/26 194/173/26
f 254/219/135 242/211/126 251/218/132
f 253/169/134 250/217/131 255/219/136
f 250/217/131 242/211/126 254/219/135
f 256/220/137 257/25/138 258/21/137
f 258/21/137 257/25/138 259/21/139
f 258/21/137 259/21/139 260/24/140
f 260/24/140 259/21/139 261/24/141
f 262/34/142 260/24/140 261/24/141
f 263/221/140 260/24/140 262/34/142
f 262/34/142 264/222/143 263/221/140
f 265/35/144 264/222/143 262/34/142
f 265/35/144 266/223/145 264/222/143
f 267/37/145 266/223/145 265/35/144
f 267/37/145 268/224/146 266/223/145
f 269/51/146 268/224/146 267/37/145
f 270/55/146 268/224/146 269/51/146
f 271/225/146 268/224/146 270/55/146
f 272/62/147 271/225/146 270/55/146
f 273/226/147 271/225/146 272/62/147
f 274/227/146 273/226/147 272/62/147
f 275/227/148 273/226/147 274/227/146
f 274/227/146 276/228/149 275/227/148
f 277/228/146 276/228/149 274/227/146
f 278/228/150 279/229/151 276/228/149
f 280/230/150 279/229/151 278/228/150
f 62/54/1 281/231/2 66/58/1
f 62/54/1 282/232/2 281/231/2
f 66/58/1 281/231/2 74/66/2
f 7/7/1 282/232/2 62/54/1
f 7/7/1 5/5/2 282/232/2
f 57/50/41 7/7/1 62/54/1
f 283/10/152 7/7/1 57/50/41
f 57/50/41 49/43/34 283/10/152
f 283/10/152 49/43/34 284/15/153
f 49/43/34 22/20/14 284/15/153
f 285/215/154 286/216/155 287/215/156
f 288/214/138 285/215/154 287/215/156
f 289/233/137 285/215/154 288/214/138
f 287/215/156 286/216/155 290/216/146
f 286/216/155 291/218/146 290/216/146
f 292/218/157 291/218/146 286/216/155
f 292/218/157 293/234/158 294/218/159
f 294/218/159 293/234/158 295/219/158
f 296/235/160 297/190/161 298/236/162
f 297/190/161 296/235/160 299/203/163
f 298/236/162 297/190/161 300/180/162
f 296/235/160 301/229/163 299/203/163
f 301/229/163 302/230/164 299/203/163
f 303/237/26 154/138/26 75/67/26
f 75/67/26 78/70/26 303/237/26
f 75/67/26 154/138/26 304/238/165
f 78/70/26 132/119/26 303/237/26
f 304/238/165 305/239/166 75/67/26
f 154/138/26 214/188/26 304/238/165
f 132/119/26 78/70/26 126/113/26
f 303/237/26 145/131/26 154/138/26
f 75/67/26 305/239/166 47/41/26
f 303/237/26 132/119/26 139/126/26
f 126/113/26 78/70/26 86/78/26
f 139/126/26 145/131/26 303/237/26
f 47/41/26 305/239/166 306/240/167
f 126/113/26 86/78/26 117/105/26
f 304/238/165 307/241/168 305/239/166
f 304/238/165 214/188/26 308/242/169
f 306/240/167 51/45/36 47/41/26
f 117/105/26 86/78/26 112/102/26
f 308/242/169 307/241/168 304/238/165
f 51/45/36 306/240/167 309/243/170
f 307/241/168 309/243/170 305/239/166
f 112/102/26 86/78/26 89/81/26
f 84/76/26 310/79/171 214/188/26
f 305/239/166 309/243/170 306/240/167
f 311/243/172 48/42/33 51/45/36
f 84/76/26 214/188/26 223/195/114
f 214/188/26 310/79/171 312/242/173
f 313/47/172 48/42/33 311/243/172
f 310/79/171 314/84/174 312/242/173
f 82/74/55 84/76/26 315/195/175
f 314/84/174 313/47/172 316/241/174
f 316/241/174 313/47/172 311/243/172
f 312/242/173 314/84/174 316/241/174
f 79/71/54 82/74/55 315/195/175
f 317/196/176 79/71/54 315/195/175
f 318/244/177 79/71/54 317/196/176
f 319/230/178 79/71/54 318/244/177
f 318/244/177 317/196/176 320/198/179
f 318/244/177 320/198/179 319/230/178
f 321/228/180 79/71/54 319/230/178
f 319/230/178 320/198/179 322/203/181
f 79/71/54 321/228/180 76/68/53
f 76/68/53 321/228/180 323/227/182
f 70/62/50 76/68/53 323/227/182
f 324/245/26 325/246/26 179/158/26
f 324/245/26 326/247/26 325/246/26
f 179/158/26 325/246/26 327/248/26
f 328/249/26 326/247/26 324/245/26
f 182/161/26 179/158/26 327/248/26
f 329/250/183 325/246/26 326/247/26
f 328/249/26 324/245/26 124/111/26
f 327/248/26 330/251/184 182/161/26
f 329/250/183 326/247/26 331/252/185
f 332/253/26 328/249/26 124/111/26
f 330/251/184 327/248/26 333/254/186
f 333/254/186 325/246/26 329/250/183
f 334/255/187 329/250/183 331/252/185
f 326/247/26 328/249/26 335/256/26
f 333/254/186 327/248/26 325/246/26
f 336/257/188 329/250/183 334/255/187
f 331/252/185 326/247/26 335/256/26
f 336/257/188 330/251/184 333/254/186
f 332/253/26 337/258/26 328/249/26
f 336/257/188 333/254/186 329/250/183
f 336/257/188 334/255/187 338/259/73
f 328/249/26 337/258/26 335/256/26
f 124/111/26 120/107/26 332/253/26
f 339/260/189 330/251/184 336/257/188
f 336/257/188 338/259/73 339/260/189
f 340/261/190 335/256/26 337/258/26
f 332/253/26 120/107/26 341/262/26
f 339/260/189 342/263/191 330/251/184
f 343/252/190 335/256/26 340/261/190
f 344/264/26 332/253/26 341/262/26
f 339/260/189 338/259/73 345/265/104
f 346/266/192 343/252/190 340/261/190
f 344/264/26 341/262/26 347/267/26
f 348/268/104 339/260/189 345/265/104
f 349/255/193 343/252/190 346/266/192
f 350/269/26 332/253/26 344/264/26
f 351/270/77 348/268/104 345/265/104
f 352/271/104 349/255/193 346/266/192
f 353/272/194 350/269/26 344/264/26
f 354/273/77 348/268/104 351/270/77
f 355/274/195 349/255/193 352/271/104
f 353/272/194 344/264/26 356/275/196
f 356/275/196 344/264/26 347/267/26
f 354/273/77 357/276/104 348/268/104
f 358/277/77 355/274/195 352/271/104
f 359/278/197 353/272/194 356/275/196
f 360/279/77 357/276/104 354/273/77
f 361/280/77 355/274/195 358/277/77
f 362/281/79 353/272/194 359/278/197
f 360/279/77 363/282/104 357/276/104
f 364/283/77 355/274/195 361/280/77
f 365/284/104 362/281/79 359/278/197
f 366/285/77 363/282/104 360/279/77
f 357/276/104 367/286/198 348/268/104
f 368/287/199 362/281/79 365/284/104
f 366/285/77 206/181/104 363/282/104
f 363/282/104 369/288/200 357/276/104
f 357/276/104 369/288/200 367/286/198
f 370/289/77 368/287/199 365/284/104
f 212/186/77 206/181/104 366/285/77
f 206/181/104 371/178/201 363/282/104
f 363/282/104 371/178/201 369/288/200
f 372/290/2 368/287/199 370/289/77
f 370/289/77 365/284/104 373/291/77
f 348/268/104 367/286/198 339/260/189
f 369/288/200 374/292/202 367/286/198
f 372/290/2 375/293/104 368/287/199
f 373/291/77 365/284/104 376/294/104
f 371/178/201 377/174/203 369/288/200
f 369/288/200 377/174/203 374/292/202
f 375/293/104 378/295/204 368/287/199
f 365/284/104 379/278/205 376/294/104
f 373/291/77 376/294/104 380/296/2
f 367/286/198 374/292/202 342/263/191
f 367/286/198 342/263/191 339/260/189
f 368/287/199 378/295/204 362/281/79
f 380/296/2 376/294/104 381/297/206
f 374/292/202 184/163/26 342/263/191
f 376/294/104 379/278/205 382/298/207
f 378/295/204 383/299/208 362/281/79
f 376/294/104 382/298/207 381/297/206
f 342/263/191 184/163/26 182/161/26
f 378/295/204 384/300/209 383/299/208
f 362/281/79 383/299/208 353/272/194
f 380/296/2 381/297/206 166/146/2
f 182/161/26 330/251/184 342/263/191
f 383/299/208 384/300/209 350/269/26
f 383/299/208 350/269/26 353/272/194
f 166/146/2 381/297/206 160/141/77
f 385/301/210 384/300/209 378/295/204
f 381/297/206 382/298/207 165/145/79
f 384/300/209 337/258/26 350/269/26
f 381/297/206 165/145/79 160/141/77
f 375/293/104 385/301/210 378/295/204
f 386/261/211 337/258/26 384/300/209
f 382/298/207 387/302/212 165/145/79
f 388/303/104 385/301/210 375/293/104
f 385/301/210 386/261/211 384/300/209
f 389/253/213 390/304/214 337/258/26
f 165/145/79 387/302/212 146/132/72
f 391/266/215 386/261/211 385/301/210
f 388/303/104 391/266/215 385/301/210
f 390/304/214 389/253/213 392/269/216
f 337/258/26 390/304/214 392/269/216
f 165/145/79 146/132/72 149/134/73
f 352/271/104 391/266/215 388/303/104
f 387/302/212 133/120/26 146/132/72
f 393/305/77 388/303/104 375/293/104
f 394/306/77 352/271/104 388/303/104
f 394/306/77 388/303/104 393/305/77
f 358/277/77 352/271/104 394/306/77
f 133/120/26 387/302/212 347/267/26
f 393/305/77 375/293/104 372/290/2
f 395/307/26 133/120/26 347/267/26
f 347/267/26 387/302/212 396/275/217
f 133/120/26 395/307/26 341/262/26
f 395/307/26 347/267/26 341/262/26
f 341/262/26 120/107/26 133/120/26
f 382/298/207 396/275/217 387/302/212
f 397/308/62 372/290/2 398/309/1
f 379/278/205 396/275/217 382/298/207
f 398/309/1 372/290/2 399/289/2
f 398/309/1 399/289/2 400/310/1
f 400/310/1 399/289/2 401/291/2
f 400/310/1 401/291/2 402/311/62
f 402/311/62 401/291/2 380/296/2
f 403/168/218 404/168/219 405/312/219
f 405/312/219 404/168/219 406/165/220
f 403/168/218 407/313/221 408/168/221
f 408/168/221 407/313/221 409/170/221
f 410/234/222 411/312/223 412/219/224
f 411/312/223 413/169/223 412/219/224
f 414/165/223 413/169/223 411/312/223
f 415/274/225 338/259/73 334/255/187
f 345/265/104 338/259/73 415/274/225
f 364/283/77 345/265/104 415/274/225
f 351/270/77 345/265/104 364/283/77
f 138/125/26 150/135/26 416/118/26
f 150/135/26 417/314/26 416/118/26
f 418/315/26 417/314/26 150/135/26
f 416/118/26 417/314/26 419/112/26
f 418/315/26 150/135/26 147/130/64
f 417/314/26 105/97/26 419/112/26
f 134/121/26 418/315/26 147/130/64
f 116/104/26 105/97/26 417/314/26
f 116/104/26 417/314/26 418/315/26
f 107/99/64 419/112/26 105/97/26
f 127/114/26 418/315/26 134/121/26
f 418/315/26 121/108/26 116/104/26
f 127/114/26 121/108/26 418/315/26
f 420/225/226 421/316/226 422/224/226
f 422/224/226 421/316/226 423/51/226
f 424/223/227 425/317/227 426/222/227
f 426/222/227 425/317/227 427/222/227
f 428/316/228 429/225/229 430/226/228
f 430/226/228 429/225/229 431/226/230
f 432/317/231 433/223/232 434/51/233
f 434/51/233 433/223/232 435/224/233
f 179/158/26 136/123/26 324/245/26
f 324/245/26 136/123/26 129/116/26
f 129/116/26 124/111/26 324/245/26
f 436/236/234 437/180/234 438/313/235
f 437/180/234 439/171/235 438/313/235
f 438/313/235 439/171/235 440/170/235
f 377/174/203 187/166/26 374/292/202
f 374/292/202 187/166/26 184/163/26
