# Blender 4.1.1
# www.blender.org
mtllib MapRightobj.mtl
o board2:Board_board2:board1:GUI_RightGameBoard
v 0.038266 -0.000149 0.020829
v 0.038560 -0.000015 0.020829
v 0.038266 -0.000147 0.017670
v 0.038000 -0.000161 0.017781
v 0.038560 -0.000013 0.017574
v 0.038000 -0.000163 0.020829
v 0.038000 -0.000161 0.016819
v 0.038800 -0.000015 0.020829
v 0.038266 -0.000152 0.027508
v 0.038266 -0.000146 0.016686
v 0.038800 -0.000020 0.027471
v 0.038000 -0.000167 0.027505
v 0.038000 -0.000159 0.012642
v 0.038560 -0.000019 0.027501
v 0.038000 -0.000167 0.027632
v 0.038560 -0.000013 0.017574
v 0.038266 -0.000153 0.027667
v 0.041211 -0.000020 0.027269
v 0.038560 -0.000013 0.016668
v 0.038560 -0.000019 0.027666
v 0.042076 -0.000014 0.020829
v 0.038800 -0.000012 0.017479
v 0.038560 -0.000019 0.027759
v 0.038800 -0.000012 0.017479
v 0.043944 -0.000019 0.027164
v 0.038800 -0.000011 0.016565
v 0.038800 -0.000020 0.027759
v 0.043720 -0.000020 0.027492
v 0.046909 -0.000009 0.014446
v 0.041176 0.000042 0.027528
v 0.048275 -0.000014 0.020829
v 0.047973 -0.000008 0.013041
v 0.043537 -0.000020 0.027759
v 0.048275 -0.000009 0.014050
v 0.045997 0.000054 0.027510
v 0.041168 0.000140 0.027732
v 0.046109 -0.000019 0.027198
v 0.048275 -0.000008 0.012976
v 0.038800 -0.000020 0.027644
v 0.051026 -0.000014 0.020829
v 0.048275 -0.000019 0.027233
v 0.051026 -0.000008 0.013028
v 0.048275 0.000099 0.027528
v 0.050950 -0.000008 0.012642
v 0.048275 0.000220 0.027726
v 0.050265 -0.000019 0.027259
v 0.051660 -0.000014 0.020829
v 0.048275 -0.000008 0.012642
v 0.050338 0.000026 0.027525
v 0.051660 -0.000008 0.012642
v 0.045906 0.000147 0.027743
v 0.051026 -0.000008 0.012642
v 0.038800 -0.000008 0.012642
v 0.051026 -0.000002 0.006185
v 0.038800 -0.000003 0.006184
v 0.051660 -0.000002 0.006185
v 0.048275 -0.000002 0.006185
v 0.038560 -0.000007 0.006184
v 0.051660 0.000003 -0.000328
v 0.038560 -0.000003 -0.000328
v 0.051026 0.000003 -0.000328
v 0.056821 -0.000007 0.012642
v 0.048275 0.000003 -0.000328
v 0.051660 0.000009 -0.007610
v 0.038800 0.000002 -0.000328
v 0.056821 0.000003 -0.000328
v 0.056821 -0.000014 0.020829
v 0.038266 -0.000136 -0.000328
v 0.056821 0.000009 -0.007610
v 0.054064 -0.000019 0.027305
v 0.038266 -0.000140 0.006184
v 0.066712 0.000009 -0.007610
v 0.053725 -0.000019 0.027301
v 0.038000 -0.000151 -0.000328
v 0.066712 0.000014 -0.014584
v 0.038000 -0.000155 0.006184
v 0.075261 0.000014 -0.014584
v 0.052256 -0.000019 0.027286
v 0.038266 -0.000144 0.012642
v 0.075261 0.000020 -0.022233
v 0.053824 -0.000019 0.027530
v 0.075261 -0.000004 -0.014584
v 0.052402 -0.000019 0.027522
v 0.038560 -0.000010 0.012642
v 0.075261 0.000002 -0.022233
v 0.038560 -0.000013 0.016668
v 0.075261 0.000025 -0.028234
v 0.050411 0.000118 0.027743
v 0.066712 0.000020 -0.022233
v 0.052548 -0.000020 0.027759
v 0.075261 0.000007 -0.028234
v 0.066712 0.000007 -0.028235
v 0.053923 -0.000019 0.027759
v 0.054152 -0.000019 0.027532
v 0.056821 0.000014 -0.014585
v 0.066712 0.000025 -0.028235
v 0.056821 0.000020 -0.022233
v 0.056821 0.000025 -0.028235
v 0.056821 -0.000019 0.027335
v 0.054241 -0.000019 0.027759
v 0.056821 0.000007 -0.028235
v 0.056821 -0.000019 0.027547
v 0.051660 0.000014 -0.014585
v 0.051660 0.000007 -0.028235
v 0.066712 -0.000019 0.027759
v 0.051660 0.000020 -0.022234
v 0.051026 0.000009 -0.007610
v 0.056821 -0.000019 0.027759
v 0.051026 0.000014 -0.014585
v 0.051026 0.000020 -0.022234
v 0.048275 0.000009 -0.007610
v 0.051660 0.000025 -0.028235
v 0.066712 -0.000013 0.020830
v 0.051026 0.000025 -0.028235
v 0.066712 -0.000007 0.012642
v 0.038800 0.000008 -0.007611
v 0.048275 0.000020 -0.022234
v 0.075261 -0.000007 0.012643
v 0.038560 0.000001 -0.007611
v 0.048275 0.000025 -0.028235
v 0.038800 0.000020 -0.022234
v 0.056821 -0.000002 0.006185
v 0.038266 -0.000132 -0.007611
v 0.038800 0.000025 -0.028236
v 0.066712 -0.000002 0.006185
v 0.038800 0.000014 -0.014585
v 0.075261 -0.000002 0.006185
v 0.038000 -0.000147 -0.007611
v 0.038560 0.000010 -0.022234
v 0.075261 0.000003 -0.000327
v 0.038560 0.000005 -0.014585
v 0.066712 0.000003 -0.000327
v 0.038560 0.000013 -0.028236
v 0.038000 -0.000143 -0.014585
v 0.038266 -0.000124 -0.022234
v 0.038266 -0.000128 -0.014585
v 0.038800 0.000007 -0.028236
v 0.075261 0.000009 -0.007610
v 0.038000 -0.000138 -0.022234
v 0.038560 0.000000 -0.028236
v 0.038266 -0.000120 -0.028236
v 0.048275 0.000007 -0.028235
v 0.038266 -0.000133 -0.028236
v 0.051026 0.000007 -0.028235
v 0.051026 0.000025 -0.028235
v 0.038000 -0.000135 -0.028236
v 0.048275 0.000014 -0.014585
v 0.051660 0.000025 -0.028235
v 0.038000 -0.000148 -0.028236
v 0.038266 -0.000166 0.027759
v 0.038560 -0.000032 0.027759
v 0.038266 -0.000153 0.027759
v 0.038000 -0.000167 0.027759
v 0.038000 -0.000180 0.027759
v 0.038560 -0.000019 0.027759
v 0.038800 -0.000020 0.027759
v 0.038800 -0.000038 0.027759
v 0.041168 0.000129 0.027742
v 0.038800 -0.000020 0.027759
v 0.041168 0.000140 0.027732
v 0.045906 0.000131 0.027752
v 0.048275 0.000206 0.027745
v 0.045906 0.000147 0.027743
v 0.048275 0.000220 0.027726
v 0.050411 0.000118 0.027743
v 0.050411 0.000102 0.027752
v 0.075261 -0.000031 0.020830
v 0.075261 -0.000025 0.012643
v 0.075261 -0.000013 0.020830
v 0.075261 -0.000034 0.024680
v 0.075261 -0.000007 0.012643
v 0.075261 -0.000015 0.023566
v 0.075261 -0.000002 0.006185
v 0.075261 -0.000010 0.024667
v 0.075261 -0.000020 0.006185
v 0.075261 0.000034 0.025579
v 0.075261 0.000003 -0.000327
v 0.075261 -0.000009 0.025576
v 0.075261 -0.000015 -0.000327
v 0.075261 0.000127 0.026364
v 0.075261 0.000009 -0.007610
v 0.075261 0.000180 0.026369
v 0.075261 -0.000009 -0.007610
v 0.075261 0.000336 0.027125
v 0.075261 0.000387 0.027125
v 0.074489 0.000229 0.027759
v 0.075162 0.000507 0.027730
v 0.074486 0.000267 0.027759
v 0.075158 0.000555 0.027726
v 0.075261 -0.000013 0.020830
v 0.075261 -0.000015 0.023566
v 0.072029 -0.000019 0.027759
v 0.075261 -0.000010 0.024667
v 0.072434 -0.000012 0.027759
v 0.075261 0.000034 0.025579
v 0.073023 0.000049 0.027759
v 0.075261 0.000180 0.026369
v 0.073717 0.000106 0.027759
v 0.074486 0.000267 0.027759
v 0.075261 0.000387 0.027125
v 0.075158 0.000555 0.027726
v 0.053923 -0.000019 0.027759
v 0.053923 -0.000038 0.027759
v 0.054241 -0.000019 0.027759
v 0.052548 -0.000038 0.027759
v 0.054241 -0.000038 0.027759
v 0.052548 -0.000020 0.027759
v 0.056821 -0.000019 0.027759
v 0.056821 -0.000038 0.027759
v 0.066712 -0.000019 0.027759
v 0.066712 -0.000037 0.027759
v 0.072434 -0.000037 0.027759
v 0.052548 -0.000020 0.027759
v 0.050411 0.000102 0.027752
v 0.050411 0.000118 0.027743
v 0.072029 -0.000019 0.027759
v 0.072434 -0.000012 0.027759
v 0.073024 0.000025 0.027759
v 0.073023 0.000049 0.027759
v 0.073720 0.000080 0.027759
v 0.073717 0.000106 0.027759
v 0.074489 0.000229 0.027759
v 0.074486 0.000267 0.027759
v 0.038266 -0.000153 0.027759
v 0.038000 -0.000167 0.027759
v 0.038800 -0.000011 0.016565
v 0.043537 -0.000038 0.027759
v 0.043537 -0.000020 0.027759
v 0.041168 0.000129 0.027742
v 0.041168 0.000140 0.027732
v 0.045906 0.000131 0.027752
v 0.043537 -0.000020 0.027759
v 0.045906 0.000147 0.027743
v 0.075261 0.000336 0.027125
v 0.075261 0.000387 0.027125
v 0.075162 0.000507 0.027730
v 0.075158 0.000555 0.027726
vn -0.2384 0.9712 0.0006
vn -0.2125 0.9772 0.0006
vn -0.0547 0.9985 0.0006
vn -0.2133 0.9770 0.0006
vn -0.0009 1.0000 0.0007
vn -0.0044 0.9994 -0.0350
vn -0.2100 0.9777 0.0006
vn -0.2143 0.9768 0.0006
vn -0.0034 0.9982 -0.0601
vn -0.2094 0.9778 0.0006
vn -0.0000 1.0000 0.0008
vn -0.0031 1.0000 0.0007
vn -0.2093 0.9778 0.0006
vn -0.0019 1.0000 0.0008
vn -0.0016 0.9985 -0.0550
vn -0.0025 1.0000 0.0008
vn -0.0246 0.9886 -0.1488
vn -0.0032 0.9880 -0.1541
vn -0.0058 0.9834 -0.1814
vn -0.0033 0.9803 -0.1974
vn -0.0238 0.9620 -0.2720
vn -0.0048 0.9704 -0.2415
vn -0.0054 0.9943 -0.1067
vn -0.0167 0.9938 -0.1097
vn 0.0032 0.9890 -0.1478
vn 0.0072 0.9272 -0.3746
vn 0.0079 0.8913 -0.4533
vn 0.0077 0.9955 -0.0948
vn 0.0283 0.9635 -0.2662
vn -0.0368 0.9433 -0.3300
vn -0.0048 1.0000 0.0007
vn -0.0079 1.0000 0.0007
vn -0.2194 0.9756 0.0006
vn -0.2227 0.9749 0.0006
vn -0.0110 0.9999 0.0007
vn -0.0000 1.0000 0.0007
vn 0.0029 0.9997 -0.0231
vn -0.0001 1.0000 0.0008
vn 0.0138 0.9969 -0.0779
vn -0.2167 0.9762 0.0006
vn 1.0000 -0.0000 -0.0000
vn -0.2155 0.9765 0.0006
vn 0.0412 0.9391 -0.3412
vn 0.0217 0.9938 -0.1088
vn 1.0000 -0.0002 -0.0000
vn -0.0000 1.0000 0.0020
vn -0.0000 1.0000 0.0009
vn -0.0000 -0.0000 -1.0000
vn -0.0145 0.9999 0.0007
vn -0.2258 0.9742 0.0006
vn -0.0456 0.9990 0.0007
vn -0.0456 0.9990 0.0008
vn -0.0391 0.9992 0.0007
vn -0.4139 0.9103 0.0005
vn -0.4138 0.9103 0.0006
vn -0.4139 0.9103 0.0006
vn 0.0669 0.9978 0.0006
vn -0.0547 0.9985 0.0005
vn -0.0001 1.0000 0.0020
vn -0.4139 0.9103 0.0013
vn -0.0547 0.9985 0.0016
vn 0.0669 0.9978 0.0016
vn -0.4139 0.9103 0.0014
vn 0.0286 0.9996 0.0018
vn 0.0001 -0.0000 1.0000
vn -0.0000 -0.0002 1.0000
vn 0.0669 0.9978 0.0015
vn -0.0000 -0.0000 1.0000
vn -0.0000 1.0000 0.0021
vn -0.0139 0.3286 0.9444
vn -0.0139 0.3287 0.9443
vn -0.0180 0.6921 0.7216
vn 0.0056 0.6923 0.7216
vn -0.0180 0.6921 0.7215
vn 0.0293 0.6920 0.7214
vn 1.0000 -0.0010 -0.0000
vn 1.0000 -0.0006 -0.0000
vn 0.0301 0.0385 0.9988
vn -0.0048 1.0000 -0.0032
vn -0.0401 0.9984 -0.0387
vn -0.1046 0.9894 -0.1003
vn -0.1969 0.9663 -0.1658
vn -0.1969 0.9663 -0.1657
vn -0.3222 0.9115 -0.2555
vn -0.3223 0.9115 -0.2556
vn -0.3874 0.8688 -0.3085
vn -0.0000 1.0000 0.0024
vn -0.0000 1.0000 0.0027
vn -0.0000 0.0001 1.0000
vn 0.0120 0.2671 0.9636
vn -0.0037 1.0000 0.0007
vn -0.0000 1.0000 0.0022
vn 0.0139 0.3286 0.9444
vn 0.0139 0.3287 0.9443
vn -0.0141 0.2671 0.9636
vn 0.9873 0.0405 0.1535
vn 0.9873 0.0406 0.1535
vt 0.007150 0.123758
vt 0.015042 0.123758
vt 0.007150 0.180185
vt 0.000000 0.178194
vt 0.015042 0.181892
vt 0.000000 0.123758
vt 0.000000 0.195379
vt 0.021463 0.123758
vt 0.007150 0.004478
vt 0.007150 0.197749
vt 0.021463 0.005151
vt 0.000000 0.004537
vt 0.000000 0.269972
vt 0.015042 0.004603
vt 0.000000 0.002269
vt 0.007150 0.001639
vt 0.086181 0.008746
vt 0.015042 0.198075
vt 0.015042 0.001663
vt 0.109396 0.123757
vt 0.021463 0.183599
vt 0.015042 0.000001
vt 0.159530 0.010633
vt 0.021463 0.199906
vt 0.021463 0.000001
vt 0.153503 0.004766
vt 0.239095 0.237752
vt 0.085243 0.004133
vt 0.275751 0.123757
vt 0.267651 0.262850
vt 0.148607 0.000001
vt 0.275751 0.244831
vt 0.214627 0.004448
vt 0.085035 0.000486
vt 0.217641 0.010016
vt 0.275751 0.264005
vt 0.021463 0.002050
vt 0.349594 0.123756
vt 0.275751 0.009399
vt 0.349594 0.263074
vt 0.275751 0.004130
vt 0.347548 0.269969
vt 0.275751 0.000594
vt 0.329174 0.008927
vt 0.366618 0.123756
vt 0.275751 0.269970
vt 0.331133 0.004179
vt 0.366618 0.269969
vt 0.212179 0.000298
vt 0.349594 0.269969
vt 0.021463 0.269972
vt 0.349594 0.385296
vt 0.021463 0.385300
vt 0.366618 0.385296
vt 0.275751 0.385297
vt 0.015042 0.385300
vt 0.366618 0.501598
vt 0.015042 0.501602
vt 0.349594 0.501598
vt 0.505113 0.269968
vt 0.275751 0.501599
vt 0.366618 0.631656
vt 0.021463 0.501602
vt 0.505113 0.501596
vt 0.505113 0.123756
vt 0.007150 0.501602
vt 0.505113 0.631654
vt 0.431135 0.008110
vt 0.007150 0.385300
vt 0.770568 0.631650
vt 0.422041 0.008174
vt 0.000000 0.501602
vt 0.770568 0.756204
vt 0.000000 0.385300
vt 1.000000 0.756200
vt 0.382597 0.008456
vt 0.007150 0.269972
vt 1.000000 0.892795
vt 0.424697 0.004088
vt 0.386515 0.004228
vt 0.015042 0.269972
vt 1.000000 0.999976
vt 0.333092 0.000298
vt 0.770568 0.892800
vt 0.390432 0.000001
vt 0.770568 0.999982
vt 0.427354 0.000001
vt 0.433500 0.004055
vt 0.505113 0.756209
vt 0.505113 0.892806
vt 0.505113 0.999988
vt 0.505113 0.007582
vt 0.435866 0.000001
vt 0.505113 0.003791
vt 0.366618 0.756212
vt 0.366618 0.999992
vt 0.770568 0.000000
vt 0.366618 0.892809
vt 0.349594 0.631656
vt 0.505113 0.000000
vt 0.349594 0.756212
vt 0.349594 0.892810
vt 0.275751 0.631658
vt 0.770568 0.123755
vt 0.349594 0.999992
vt 0.770568 0.269966
vt 0.021463 0.631662
vt 0.275751 0.892811
vt 1.000000 0.269965
vt 0.015042 0.631662
vt 0.275751 0.999994
vt 0.021463 0.892817
vt 0.505113 0.385295
vt 0.007150 0.631662
vt 0.021463 1.000000
vt 0.770568 0.385292
vt 0.021463 0.756218
vt 1.000000 0.385290
vt 0.000000 0.631662
vt 0.015042 0.892817
vt 1.000000 0.501590
vt 0.015042 0.756218
vt 0.770568 0.501593
vt 0.015042 1.000000
vt 0.000000 0.756218
vt 0.007150 0.892817
vt 0.007150 0.756218
vt 1.000000 0.631646
vt 0.000000 0.892817
vt 0.007150 1.000000
vt 0.000000 1.000000
vt 0.275751 0.756213
vt 0.007150 0.000001
vt 0.000000 0.000001
vt 0.000000 0.000001
vt 0.085035 0.000307
vt 0.212179 0.000129
vt 0.275751 0.000257
vt 0.333092 0.000129
vt 1.000000 0.123754
vt 1.000000 0.054988
vt 1.000000 0.074889
vt 1.000000 0.055215
vt 1.000000 0.038940
vt 1.000000 0.038988
vt 1.000000 0.024914
vt 1.000000 0.024823
vt 1.000000 0.011334
vt 1.000000 0.011323
vt 0.979298 0.000000
vt 1.000000 0.000000
vt 0.979222 0.000000
vt 0.913266 0.000000
vt 0.924137 0.000000
vt 0.939956 0.000000
vt 0.958578 0.000000
vt 0.924145 0.000000
vt 0.939980 0.000000
vt 0.958645 0.000000
s 1
g board2:Board_board2:board1:GUI_RightGameBoard_board2:board1:GUI_RightGameBoard
usemtl board2:board1:GUI_RightGameBoard
f 1/1/1 2/2/2 3/3/1
f 4/4/3 1/1/1 3/3/1
f 3/3/1 2/2/2 5/5/4
f 6/6/3 1/1/1 4/4/3
f 4/4/3 3/3/1 7/7/3
f 2/2/2 8/8/5 5/5/4
f 6/6/3 9/9/1 1/1/1
f 7/7/3 3/3/1 10/10/1
f 2/2/2 11/11/6 8/8/5
f 12/12/3 9/9/1 6/6/3
f 7/7/3 10/10/1 13/13/3
f 14/14/7 11/11/6 2/2/2
f 9/9/1 14/14/7 1/1/1
f 15/15/3 9/9/1 12/12/3
f 3/3/1 16/5/8 10/10/1
f 1/1/1 14/14/7 2/2/2
f 17/16/1 9/9/1 15/15/3
f 18/17/9 8/8/5 11/11/6
f 10/10/1 16/5/8 19/18/8
f 17/16/1 20/19/10 9/9/1
f 9/9/1 20/19/10 14/14/7
f 21/20/11 8/8/5 18/17/9
f 16/5/8 22/21/12 19/18/8
f 17/16/1 23/22/13 20/19/10
f 8/8/5 21/20/11 24/21/14
f 18/17/9 25/23/15 21/20/11
f 19/18/8 22/21/12 26/24/16
f 23/22/13 27/25/17 20/19/10
f 25/23/15 18/17/9 28/26/18
f 24/21/14 21/20/11 29/27/11
f 22/21/12 29/27/11 26/24/16
f 5/5/4 8/8/5 24/21/14
f 28/26/18 18/17/9 30/28/19
f 21/20/11 31/29/11 29/27/11
f 21/20/11 25/23/15 31/29/11
f 26/24/16 29/27/11 32/30/11
f 28/26/18 30/28/19 33/31/20
f 11/11/6 30/28/19 18/17/9
f 29/27/11 31/29/11 34/32/11
f 29/27/11 34/32/11 32/30/11
f 35/33/21 25/23/15 28/26/18
f 33/31/20 30/28/19 36/34/22
f 31/29/11 25/23/15 37/35/23
f 32/30/11 34/32/11 38/36/11
f 37/35/23 25/23/15 35/33/21
f 30/28/19 39/37/24 36/34/22
f 39/37/24 30/28/19 11/11/6
f 31/29/11 40/38/11 34/32/11
f 31/29/11 37/35/23 41/39/25
f 36/34/22 39/37/24 27/25/17
f 14/14/7 39/37/24 11/11/6
f 34/32/11 40/38/11 42/40/11
f 34/32/11 42/40/11 38/36/11
f 41/39/25 37/35/23 43/41/26
f 43/41/26 37/35/23 35/33/21
f 20/19/10 27/25/17 39/37/24
f 20/19/10 39/37/24 14/14/7
f 42/40/11 44/42/11 38/36/11
f 43/41/26 35/33/21 45/43/27
f 43/41/26 46/44/28 41/39/25
f 40/38/11 47/45/11 42/40/11
f 48/46/11 38/36/11 44/42/11
f 49/47/29 46/44/28 43/41/26
f 45/43/27 49/47/29 43/41/26
f 42/40/11 47/45/11 50/48/11
f 48/46/11 32/30/11 38/36/11
f 45/43/27 35/33/21 51/49/30
f 52/50/11 42/40/11 50/48/11
f 52/50/11 44/42/11 42/40/11
f 48/46/11 53/51/31 32/30/11
f 35/33/21 28/26/18 51/49/30
f 50/48/11 54/52/11 52/50/11
f 52/50/11 54/52/11 44/42/11
f 48/46/11 55/53/32 53/51/31
f 51/49/30 28/26/18 33/31/20
f 56/54/11 54/52/11 50/48/11
f 57/55/11 55/53/32 48/46/11
f 54/52/11 57/55/11 44/42/11
f 58/56/33 53/51/31 55/53/32
f 59/57/11 54/52/11 56/54/11
f 57/55/11 48/46/11 44/42/11
f 58/56/33 55/53/32 60/58/34
f 61/59/11 54/52/11 59/57/11
f 61/59/11 57/55/11 54/52/11
f 62/60/11 56/54/11 50/48/11
f 63/61/11 55/53/32 57/55/11
f 64/62/11 61/59/11 59/57/11
f 50/48/11 47/45/11 62/60/11
f 63/61/11 57/55/11 61/59/11
f 65/63/35 55/53/32 63/61/11
f 60/58/34 55/53/32 65/63/35
f 59/57/11 56/54/11 66/64/11
f 62/60/11 47/45/11 67/65/11
f 68/66/1 58/56/33 60/58/34
f 64/62/11 59/57/11 69/67/11
f 69/67/11 59/57/11 66/64/11
f 47/45/11 70/68/11 67/65/11
f 71/69/1 58/56/33 68/66/1
f 69/67/11 66/64/11 72/70/11
f 47/45/11 73/71/11 70/68/11
f 74/72/3 71/69/1 68/66/1
f 75/73/11 69/67/11 72/70/11
f 40/38/11 73/71/11 47/45/11
f 76/74/3 71/69/1 74/72/3
f 75/73/11 72/70/11 77/75/36
f 73/71/11 40/38/11 78/76/37
f 76/74/3 79/77/1 71/69/1
f 80/78/38 75/73/11 77/75/36
f 73/71/11 81/79/11 70/68/11
f 13/13/3 79/77/1 76/74/3
f 77/75/36 82/75/36 80/78/38
f 81/79/11 73/71/11 83/80/39
f 83/80/39 73/71/11 78/76/37
f 79/77/1 84/81/40 71/69/1
f 80/78/38 82/75/36 85/78/41
f 83/80/39 78/76/37 49/47/29
f 79/77/1 86/18/42 84/81/40
f 80/78/38 85/78/41 87/82/11
f 88/83/43 83/80/39 49/47/29
f 10/10/1 86/18/42 79/77/1
f 87/82/11 89/84/11 80/78/38
f 90/85/44 83/80/39 88/83/43
f 13/13/3 10/10/1 79/77/1
f 87/82/11 85/78/41 91/82/45
f 90/85/44 81/79/11 83/80/39
f 88/83/43 49/47/29 45/43/27
f 91/82/45 92/86/46 87/82/11
f 93/87/11 81/79/11 90/85/44
f 89/84/11 75/73/11 80/78/38
f 49/47/29 78/76/37 46/44/28
f 81/79/11 93/87/11 94/88/11
f 89/84/11 95/89/11 75/73/11
f 87/82/11 92/86/46 96/86/11
f 70/68/11 81/79/11 94/88/11
f 96/86/11 89/84/11 87/82/11
f 97/90/11 95/89/11 89/84/11
f 96/86/11 92/86/46 98/91/47
f 70/68/11 94/88/11 99/92/11
f 98/91/47 97/90/11 96/86/11
f 95/89/11 69/67/11 75/73/11
f 96/86/11 97/90/11 89/84/11
f 94/88/11 93/87/11 100/93/11
f 95/89/11 64/62/11 69/67/11
f 98/91/47 92/86/46 101/91/46
f 94/88/11 100/93/11 102/94/11
f 99/92/11 94/88/11 102/94/11
f 103/95/11 64/62/11 95/89/11
f 97/90/11 103/95/11 95/89/11
f 101/91/46 104/96/48 98/91/47
f 102/94/11 105/97/11 99/92/11
f 106/98/11 103/95/11 97/90/11
f 103/95/11 107/99/11 64/62/11
f 98/91/47 106/98/11 97/90/11
f 108/100/11 105/97/11 102/94/11
f 102/94/11 100/93/11 108/100/11
f 107/99/11 61/59/11 64/62/11
f 106/98/11 109/101/11 103/95/11
f 67/65/11 99/92/11 105/97/11
f 109/101/11 107/99/11 103/95/11
f 107/99/11 63/61/11 61/59/11
f 110/102/11 109/101/11 106/98/11
f 67/65/11 70/68/11 99/92/11
f 109/101/11 111/103/11 107/99/11
f 111/103/11 63/61/11 107/99/11
f 112/96/11 110/102/11 106/98/11
f 113/104/11 67/65/11 105/97/11
f 111/103/11 65/63/35 63/61/11
f 114/105/11 110/102/11 112/96/11
f 115/106/11 67/65/11 113/104/11
f 116/107/49 65/63/35 111/103/11
f 114/105/11 117/108/11 110/102/11
f 115/106/11 113/104/11 118/109/11
f 119/110/50 65/63/35 116/107/49
f 120/111/11 117/108/11 114/105/11
f 62/60/11 67/65/11 115/106/11
f 60/58/34 65/63/35 119/110/50
f 120/111/11 121/112/51 117/108/11
f 115/106/11 122/113/11 62/60/11
f 123/114/1 60/58/34 119/110/50
f 124/115/52 121/112/51 120/111/11
f 125/116/11 122/113/11 115/106/11
f 118/109/11 125/116/11 115/106/11
f 68/66/1 60/58/34 123/114/1
f 121/112/51 126/117/53 117/108/11
f 127/118/11 125/116/11 118/109/11
f 128/119/3 68/66/1 123/114/1
f 129/120/54 126/117/53 121/112/51
f 130/121/11 125/116/11 127/118/11
f 74/72/3 68/66/1 128/119/3
f 131/122/55 126/117/53 129/120/54
f 132/123/11 125/116/11 130/121/11
f 129/120/54 121/112/51 133/124/56
f 128/119/3 123/114/1 134/125/57
f 132/123/11 122/113/11 125/116/11
f 135/126/3 131/122/55 129/120/54
f 133/124/56 121/112/51 124/115/52
f 66/64/11 122/113/11 132/123/11
f 136/127/58 131/122/55 135/126/3
f 134/125/57 123/114/1 136/127/58
f 137/115/59 133/124/56 124/115/52
f 138/128/11 132/123/11 130/121/11
f 134/125/57 136/127/58 139/129/57
f 139/129/57 136/127/58 135/126/3
f 140/124/60 133/124/56 137/115/59
f 72/70/11 132/123/11 138/128/11
f 72/70/11 66/64/11 132/123/11
f 123/114/1 119/110/50 136/127/58
f 136/127/58 119/110/50 131/122/55
f 120/111/11 137/115/59 124/115/52
f 77/75/36 72/70/11 138/128/11
f 140/124/60 141/130/3 133/124/56
f 142/111/46 137/115/59 120/111/11
f 119/110/50 116/107/49 131/122/55
f 143/130/61 141/130/3 140/124/60
f 120/111/11 144/105/48 142/111/46
f 141/130/3 129/120/54 133/124/56
f 131/122/55 116/107/49 126/117/53
f 145/105/48 144/105/48 120/111/11
f 143/130/61 146/131/57 141/130/3
f 135/126/3 129/120/54 141/130/3
f 126/117/53 116/107/49 147/132/11
f 148/96/48 144/105/48 145/105/48
f 146/131/57 135/126/3 141/130/3
f 117/108/11 126/117/53 147/132/11
f 104/96/48 144/105/48 148/96/48
f 149/131/62 146/131/57 143/130/61
f 139/129/57 135/126/3 146/131/57
f 147/132/11 116/107/49 111/103/11
f 98/91/47 104/96/48 148/96/48
f 117/108/11 147/132/11 110/102/11
f 147/132/11 111/103/11 109/101/11
f 110/102/11 147/132/11 109/101/11
f 112/96/11 106/98/11 98/91/47
f 150/133/63 151/22/64 152/133/65
f 153/134/66 150/133/63 152/133/65
f 154/135/67 150/133/63 153/134/66
f 152/133/65 151/22/64 155/22/68
f 151/22/64 156/25/68 155/22/68
f 157/25/69 156/25/68 151/22/64
f 157/25/69 158/136/70 159/25/70
f 159/25/70 158/136/70 160/34/71
f 161/137/72 162/138/73 163/49/74
f 163/49/74 162/138/73 164/43/73
f 164/43/73 162/138/73 165/83/75
f 165/83/75 162/138/73 166/139/75
f 167/140/36 168/109/36 169/140/41
f 167/140/36 169/140/41 170/141/76
f 169/140/41 168/109/36 171/109/41
f 169/140/41 172/142/77 170/141/76
f 171/109/41 168/109/36 173/118/41
f 170/141/76 172/142/77 174/143/76
f 173/118/41 168/109/36 175/118/36
f 176/144/45 170/141/76 174/143/76
f 173/118/41 175/118/36 177/121/41
f 178/145/45 170/141/76 176/144/45
f 177/121/41 175/118/36 179/121/36
f 178/145/45 176/144/45 180/146/41
f 177/121/41 179/121/36 181/128/41
f 180/146/41 176/144/45 182/147/41
f 181/128/41 179/121/36 183/128/36
f 180/146/41 182/147/41 184/148/41
f 184/148/41 182/147/41 185/149/41
f 181/128/41 183/128/36 77/75/36
f 77/75/36 183/128/36 82/75/36
f 186/150/78 187/151/78 188/152/78
f 188/152/78 187/151/78 189/151/78
f 118/109/11 113/104/11 190/140/11
f 190/140/11 113/104/11 191/142/79
f 191/142/79 113/104/11 192/153/79
f 191/142/79 192/153/79 193/143/80
f 113/104/11 105/97/11 192/153/79
f 193/143/80 192/153/79 194/154/80
f 193/143/80 194/154/80 195/144/81
f 195/144/81 194/154/80 196/155/81
f 195/144/81 196/155/81 197/147/82
f 197/147/82 196/155/81 198/156/83
f 198/156/83 199/152/84 197/147/82
f 197/147/82 199/152/84 200/149/85
f 200/149/85 199/152/84 201/151/86
f 202/87/68 203/87/68 204/93/68
f 202/87/68 205/85/87 203/87/68
f 204/93/68 203/87/68 206/93/68
f 207/85/68 205/85/87 202/87/68
f 204/93/68 206/93/68 208/100/68
f 208/100/68 206/93/68 209/100/88
f 208/100/68 209/100/88 210/97/68
f 210/97/68 209/100/88 211/97/88
f 211/97/88 212/157/89 210/97/68
f 213/85/90 214/139/90 205/85/87
f 215/83/90 214/139/90 213/85/90
f 210/97/68 212/157/89 216/153/89
f 217/154/89 216/153/89 212/157/89
f 212/157/89 218/158/68 217/154/89
f 217/154/89 218/158/68 219/155/68
f 218/158/68 220/159/68 219/155/68
f 219/155/68 220/159/68 221/156/68
f 220/159/68 222/150/68 221/156/68
f 221/156/68 222/150/68 223/152/68
f 224/133/1 23/22/13 17/16/1
f 224/133/1 17/16/1 225/134/3
f 225/134/3 17/16/1 15/15/3
f 71/69/1 84/81/40 58/56/33
f 84/81/40 53/51/31 58/56/33
f 84/81/40 226/24/91 53/51/31
f 86/18/42 226/24/91 84/81/40
f 53/51/31 226/24/91 32/30/11
f 78/76/37 31/29/11 46/44/28
f 78/76/37 40/38/11 31/29/11
f 46/44/28 31/29/11 41/39/25
f 227/31/92 228/31/93 229/136/94
f 229/136/94 228/31/93 230/34/94
f 227/31/92 231/137/95 232/31/95
f 232/31/95 231/137/95 233/49/95
f 234/148/96 235/149/96 236/151/96
f 236/151/96 235/149/96 237/151/97
f 122/113/11 56/54/11 62/60/11
f 66/64/11 56/54/11 122/113/11
