# Blender 4.1.1
# www.blender.org
mtllib mid2.mtl
o roomShell2_room:GUI__BonnieRoom_whitetile
v -0.137067 0.056673 -0.259275
v -0.137067 0.056673 -0.261857
v -0.154018 0.056670 -0.259276
v -0.087778 0.056682 -0.261862
v -0.154018 0.056670 -0.261855
v -0.087778 0.056682 -0.259273
v -0.033886 0.056693 -0.261868
v -0.033886 0.056693 -0.259270
v 0.011975 0.056701 -0.261873
v -0.137067 0.056673 -0.259275
v -0.137117 0.056618 -0.255786
v 0.011975 0.056701 -0.259268
v -0.087818 0.056639 -0.255782
v -0.154072 0.056611 -0.255788
v 0.058611 0.056710 -0.261877
v -0.087778 0.056682 -0.259273
v 0.058611 0.056710 -0.259266
v -0.033915 0.056661 -0.255777
v 0.106208 0.056719 -0.261883
v -0.033886 0.056693 -0.259270
v 0.106208 0.056719 -0.259264
v 0.011955 0.056680 -0.255772
v 0.011975 0.056701 -0.259268
v 0.058601 0.056700 -0.255768
v 0.106208 0.056719 -0.255763
v 0.058611 0.056710 -0.259266
v -0.137117 0.055844 -0.255786
v -0.137117 0.056618 -0.255786
v -0.154072 0.055836 -0.255788
v -0.087818 0.056639 -0.255782
v -0.154072 0.056611 -0.255788
v -0.087818 0.055869 -0.255782
v -0.033915 0.056661 -0.255777
v -0.033915 0.055895 -0.255777
v 0.011955 0.056680 -0.255772
v 0.011955 0.055918 -0.255772
v 0.058601 0.056700 -0.255768
v 0.058601 0.055941 -0.255768
v 0.106208 0.056719 -0.255763
v 0.106208 0.055964 -0.255763
v -0.154072 0.055836 -0.255788
v -0.154072 0.055478 -0.256770
v -0.137117 0.055844 -0.255786
v -0.137117 0.055486 -0.256769
v -0.087818 0.055869 -0.255782
v -0.087818 0.055510 -0.256764
v -0.033915 0.055895 -0.255777
v -0.033915 0.055537 -0.256759
v 0.011955 0.055918 -0.255772
v 0.011955 0.055560 -0.256755
v -0.154072 0.054526 -0.257649
v -0.137117 0.055486 -0.256769
v 0.058601 0.055941 -0.255768
v -0.137117 0.054534 -0.257648
v 0.058601 0.055583 -0.256750
v -0.087818 0.055510 -0.256764
v 0.106208 0.055964 -0.255763
v -0.087818 0.054559 -0.257643
v -0.154072 0.053570 -0.257880
v -0.137117 0.054534 -0.257648
v 0.106208 0.055606 -0.256746
v -0.033915 0.055537 -0.256759
v -0.137117 0.053579 -0.257878
v -0.033915 0.054585 -0.257638
v -0.087818 0.054559 -0.257643
v 0.058601 0.055583 -0.256750
v 0.058601 0.054631 -0.257629
v 0.011955 0.055560 -0.256755
v -0.087818 0.053603 -0.257874
v 0.011955 0.054608 -0.257633
v 0.106208 0.054654 -0.257624
v -0.033915 0.054585 -0.257638
v -0.033915 0.053630 -0.257868
v 0.011955 0.054608 -0.257633
v 0.058601 0.054631 -0.257629
v 0.058601 0.053675 -0.257860
v 0.011955 0.053652 -0.257864
v 0.106208 0.053699 -0.257855
v -0.154072 0.053570 -0.257880
v -0.154045 0.053575 -0.259282
v -0.137117 0.053579 -0.257878
v -0.137092 0.053583 -0.259281
v -0.087818 0.053603 -0.257874
v -0.087798 0.053606 -0.259278
v -0.033915 0.053630 -0.257868
v -0.033900 0.053632 -0.259274
v 0.011955 0.053652 -0.257864
v 0.011965 0.053654 -0.259271
v 0.058601 0.053675 -0.257860
v 0.058606 0.053676 -0.259267
v 0.106208 0.053699 -0.257855
v 0.106208 0.053699 -0.259264
v -0.137067 0.045892 -0.259275
v -0.137092 0.053583 -0.259281
v -0.154018 0.045881 -0.259276
v -0.087798 0.053606 -0.259278
v -0.154045 0.053575 -0.259282
v -0.087778 0.045925 -0.259273
v -0.033900 0.053632 -0.259274
v -0.033886 0.045961 -0.259270
v 0.011965 0.053654 -0.259271
v 0.011975 0.045992 -0.259268
v 0.058606 0.053676 -0.259267
v 0.058611 0.046023 -0.259266
v 0.106208 0.053699 -0.259264
v 0.106208 0.046055 -0.259264
v -0.137066 0.045889 -0.260749
v -0.137067 0.045892 -0.259275
v -0.154017 0.045877 -0.260751
v -0.087778 0.045925 -0.259273
v -0.154018 0.045881 -0.259276
v -0.087778 0.045923 -0.260745
v -0.033886 0.045961 -0.259270
v -0.033885 0.045960 -0.260739
v 0.011975 0.045992 -0.259268
v 0.011975 0.045991 -0.260735
v 0.058611 0.046023 -0.259266
v 0.058611 0.046023 -0.260731
v 0.106208 0.046055 -0.259264
v 0.106208 0.046055 -0.260726
vn -0.0002 1.0000 -0.0000
vn -0.0025 1.0000 -0.0000
vn -0.0003 0.9999 0.0153
vn -0.0003 0.9999 0.0123
vn -0.0003 0.9999 0.0125
vn -0.0003 1.0000 0.0092
vn -0.0003 1.0000 0.0090
vn -0.0003 1.0000 0.0062
vn -0.0003 1.0000 0.0060
vn -0.0002 1.0000 0.0031
vn -0.0001 -0.0000 1.0000
vn -0.0006 -0.0000 1.0000
vn 0.0026 -0.9395 0.3425
vn 0.0025 -0.9395 0.3425
vn 0.0004 -0.9395 0.3426
vn 0.0002 -0.9395 0.3425
vn 0.0016 -0.6784 0.7347
vn 0.0003 -0.6784 0.7347
vn 0.0004 -0.9395 0.3425
vn 0.0023 -0.9395 0.3425
vn -0.0000 -0.6783 0.7347
vn -0.0000 -0.2346 0.9721
vn 0.0004 -0.6784 0.7347
vn 0.0014 -0.6784 0.7347
vn 0.0002 -0.2346 0.9721
vn -0.0000 -0.2347 0.9721
vn 0.0030 -1.0000 -0.0000
vn 0.0005 -1.0000 -0.0029
vn 0.0005 -1.0000 -0.0023
vn 0.0005 -1.0000 -0.0017
vn 0.0005 -1.0000 -0.0016
vn 0.0005 -1.0000 -0.0011
vn 0.0005 -1.0000 -0.0006
vn 0.0029 -1.0000 -0.0000
vn -0.0001 0.0008 1.0000
vn -0.0001 0.0007 1.0000
vn -0.0005 -0.0000 1.0000
vn -0.0001 0.0006 1.0000
vn -0.0001 0.0005 1.0000
vn -0.0001 0.0003 1.0000
vn -0.0001 0.0002 1.0000
vn 0.0007 -1.0000 0.0021
vn 0.0041 -1.0000 -0.0000
vn 0.0007 -1.0000 0.0017
vn 0.0007 -1.0000 0.0012
vn 0.0007 -1.0000 0.0008
vn 0.0007 -1.0000 0.0004
vt 1.134772 1.141585
vt 1.146374 1.141524
vt 1.134882 1.177626
vt 1.146088 1.036730
vt 1.146473 1.177565
vt 1.134453 1.036791
vt 1.145775 0.922147
vt 1.134104 0.922208
vt 1.145509 0.824641
vt 1.118171 1.142312
vt 1.133806 0.824702
vt 1.118027 1.037388
vt 1.118220 1.178398
vt 1.145238 0.725486
vt 1.133504 0.725547
vt 1.117871 0.922662
vt 1.144962 0.624286
vt 1.133196 0.624348
vt 1.117737 0.825035
vt 1.117602 0.725757
vt 1.117464 0.624431
vt 1.105144 1.142341
vt 1.105172 1.178427
vt 1.105063 1.037416
vt 1.104975 0.922690
vt 1.104900 0.825062
vt 1.104823 0.725784
vt 1.104745 0.624459
vt 1.103555 1.178416
vt 1.103527 1.142330
vt 1.103446 1.037405
vt 1.103358 0.922680
vt 1.103283 0.825052
vt 1.091477 1.178431
vt 1.091449 1.142345
vt 1.103206 0.725774
vt 1.091368 1.037420
vt 1.076421 1.178460
vt 1.103128 0.624449
vt 1.076394 1.142374
vt 1.091280 0.922694
vt 1.091128 0.725788
vt 1.076313 1.037450
vt 1.091205 0.825066
vt 1.091050 0.624462
vt 1.076224 0.922724
vt 1.076073 0.725818
vt 1.076149 0.825096
vt 1.075995 0.624493
vt 1.082793 1.178084
vt 1.082763 1.142020
vt 1.082675 1.037160
vt 1.082578 0.922505
vt 1.082496 0.824938
vt 1.082412 0.725721
vt 1.082327 0.624459
vt 0.953229 1.141981
vt 0.953202 1.178022
vt 0.953308 1.037186
vt 0.953394 0.922602
vt 0.953467 0.825095
vt 0.953542 0.725939
vt 0.953618 0.624739
vt 0.959803 1.141935
vt 0.959776 1.177976
vt 0.959881 1.037143
vt 0.959966 0.922561
vt 0.960039 0.825056
vt 0.960112 0.725903
vt 0.960188 0.624705
s 1
g roomShell2_room:GUI__BonnieRoom_whitetile_room:GUI__BonnieRoom_whitetile
usemtl room:GUI__BonnieRoom_whitetile
f 1/1/1 2/2/1 3/3/2
f 1/1/1 4/4/1 2/2/1
f 3/3/2 2/2/1 5/5/2
f 6/6/1 4/4/1 1/1/1
f 6/6/1 7/7/1 4/4/1
f 8/8/1 7/7/1 6/6/1
f 8/8/1 9/9/1 7/7/1
f 10/1/3 3/3/2 11/10/3
f 12/11/1 9/9/1 8/8/1
f 13/12/4 10/1/3 11/10/3
f 11/10/3 3/3/2 14/13/2
f 12/11/1 15/14/1 9/9/1
f 16/6/5 10/1/3 13/12/4
f 17/15/1 15/14/1 12/11/1
f 18/16/6 16/6/5 13/12/4
f 17/15/1 19/17/2 15/14/1
f 20/8/7 16/6/5 18/16/6
f 21/18/2 19/17/2 17/15/1
f 22/19/8 20/8/7 18/16/6
f 23/11/9 20/8/7 22/19/8
f 24/20/10 23/11/9 22/19/8
f 25/21/2 21/18/2 24/20/10
f 26/15/10 23/11/9 24/20/10
f 24/20/10 21/18/2 26/15/10
f 27/22/11 28/10/11 29/23/12
f 27/22/11 30/12/11 28/10/11
f 29/23/12 28/10/11 31/13/12
f 32/24/11 30/12/11 27/22/11
f 32/24/11 33/16/11 30/12/11
f 34/25/11 33/16/11 32/24/11
f 34/25/11 35/19/11 33/16/11
f 36/26/11 35/19/11 34/25/11
f 36/26/11 37/20/11 35/19/11
f 38/27/11 37/20/11 36/26/11
f 38/27/11 39/21/12 37/20/11
f 40/28/12 39/21/12 38/27/11
f 41/23/13 42/29/14 43/22/15
f 43/22/15 42/29/14 44/30/15
f 43/22/15 44/30/15 45/24/15
f 45/24/15 44/30/15 46/31/15
f 45/24/15 46/31/15 47/25/15
f 47/25/15 46/31/15 48/32/15
f 47/25/15 48/32/15 49/26/15
f 49/26/15 48/32/15 50/33/15
f 42/29/16 51/34/17 52/30/18
f 49/26/15 50/33/15 53/27/19
f 52/30/18 51/34/17 54/35/18
f 53/27/19 50/33/15 55/36/19
f 52/30/18 54/35/18 56/31/18
f 53/27/19 55/36/19 57/28/20
f 56/31/18 54/35/18 58/37/18
f 51/34/21 59/38/22 60/35/22
f 57/28/20 55/36/19 61/39/23
f 56/31/18 58/37/18 62/32/18
f 60/35/22 59/38/22 63/40/22
f 62/32/18 58/37/18 64/41/18
f 60/35/22 63/40/22 65/37/22
f 66/36/18 67/42/18 61/39/24
f 62/32/18 64/41/18 68/33/18
f 65/37/22 63/40/22 69/43/22
f 68/33/18 70/44/18 66/36/18
f 66/36/18 70/44/18 67/42/18
f 61/39/24 67/42/18 71/45/25
f 68/33/18 64/41/18 70/44/18
f 65/37/22 69/43/22 72/41/22
f 72/41/22 69/43/22 73/46/22
f 72/41/22 73/46/22 74/44/22
f 75/42/22 76/47/22 71/45/26
f 74/44/22 73/46/22 77/48/22
f 74/44/22 77/48/22 75/42/22
f 75/42/22 77/48/22 76/47/22
f 71/45/26 76/47/22 78/49/26
f 79/38/27 80/50/27 81/40/28
f 81/40/28 80/50/27 82/51/28
f 81/40/28 82/51/28 83/43/29
f 83/43/29 82/51/28 84/52/29
f 83/43/29 84/52/29 85/46/30
f 85/46/30 84/52/29 86/53/31
f 85/46/30 86/53/31 87/48/32
f 87/48/32 86/53/31 88/54/32
f 87/48/32 88/54/32 89/47/33
f 89/47/33 88/54/32 90/55/33
f 89/47/33 90/55/33 91/49/34
f 91/49/34 90/55/33 92/56/34
f 93/57/35 94/51/35 95/58/12
f 93/57/35 96/52/36 94/51/35
f 95/58/12 94/51/35 97/50/37
f 98/59/38 96/52/36 93/57/35
f 98/59/38 99/53/39 96/52/36
f 100/60/39 99/53/39 98/59/38
f 100/60/39 101/54/40 99/53/39
f 102/61/40 101/54/40 100/60/39
f 102/61/40 103/55/41 101/54/40
f 104/62/41 103/55/41 102/61/40
f 104/62/41 105/56/12 103/55/41
f 106/63/12 105/56/12 104/62/41
f 107/64/42 108/57/42 109/65/43
f 107/64/42 110/59/44 108/57/42
f 109/65/43 108/57/42 111/58/43
f 112/66/44 110/59/44 107/64/42
f 112/66/44 113/60/45 110/59/44
f 114/67/45 113/60/45 112/66/44
f 114/67/45 115/61/46 113/60/45
f 116/68/46 115/61/46 114/67/45
f 116/68/46 117/62/47 115/61/46
f 118/69/47 117/62/47 116/68/46
f 118/69/47 119/63/43 117/62/47
f 120/70/43 119/63/43 118/69/47
