# Blender 4.1.1
# www.blender.org
mtllib photo2.mtl
o pictureFrame4_room:ST_Bonnie_Woody_Jordan:bonnTrash_Bon_7201315
v 0.095481 0.091292 -0.126943
v 0.099961 0.091292 -0.116783
v 0.098945 0.097799 -0.128471
v 0.103426 0.097799 -0.118311
vn -0.7908 0.5029 0.3488
vt -0.006402 0.039442
vt 1.006841 0.039442
vt -0.006402 0.957657
vt 1.006841 0.957657
s 1
g pictureFrame4_room:ST_Bonnie_Woody_Jordan:bonnTrash_Bon_7201315_room:ST_Bonnie_Woody_Jordan:bonnTrash_BonnieRoom_Picture1
usemtl room:ST_Bonnie_Woody_Jordan:bonnTrash_BonnieRoom_Picture1
f 1/1/1 2/2/1 3/3/1
f 3/3/1 2/2/1 4/4/1
