# Blender 4.1.1
# www.blender.org
mtllib Plateu.mtl
o GUI_Map_Plateau1_GUI_Map_Plateau:GUI_Map_Plateau1
v 0.069466 0.005339 0.021903
v 0.069914 0.005476 0.022151
v 0.070246 0.005416 0.020778
v 0.071016 0.005722 0.020806
v 0.071006 0.005500 0.019634
v 0.071470 0.005762 0.020065
v 0.071873 0.005722 0.019353
v 0.071492 0.005505 0.018957
v 0.071023 0.005337 0.018777
v 0.069529 0.005363 0.022423
v 0.070026 0.005419 0.022204
v 0.071944 0.005646 0.019287
v 0.070681 0.005299 0.019308
v 0.069625 0.005301 0.022480
v 0.071556 0.005395 0.018889
v 0.069864 0.005261 0.020742
v 0.071113 0.005661 0.020866
v 0.071959 0.005663 0.019423
v 0.069207 0.005197 0.021709
v 0.071567 0.005701 0.020123
v 0.069037 0.005167 0.021941
v 0.069229 0.005277 0.022264
v 0.068984 0.005072 0.022014
v 0.069191 0.005183 0.022348
v 0.068792 0.001461 0.022792
v 0.068647 0.000487 0.022990
v 0.069309 0.001461 0.023069
v 0.068249 0.000486 0.022396
v 0.069208 0.000487 0.023327
v 0.068433 0.001461 0.022268
v 0.068899 0.002271 0.022660
v 0.068184 0.000389 0.022443
v 0.069347 0.000486 0.023311
v 0.069382 0.002271 0.022881
v 0.068573 0.002271 0.022199
v 0.068610 0.000389 0.023065
v 0.069450 0.001461 0.023052
v 0.068414 0.001461 0.022116
v 0.069202 0.000389 0.023426
v 0.069000 0.003077 0.022541
v 0.069345 0.000389 0.023413
v 0.068552 0.002271 0.022048
v 0.069437 0.003077 0.022733
v 0.070307 0.001434 0.022531
v 0.070222 0.000485 0.022808
v 0.068728 0.003077 0.022122
v 0.069075 0.003879 0.022434
v 0.069529 0.002271 0.022865
v 0.069347 0.000486 0.023311
v 0.071096 0.000484 0.021826
v 0.069491 0.003880 0.022613
v 0.070243 0.000387 0.022901
v 0.068843 0.003880 0.022044
v 0.071077 0.001400 0.021699
v 0.069345 0.000389 0.023413
v 0.071155 0.000387 0.021886
v 0.069109 0.004472 0.022393
v 0.069529 0.002271 0.022865
v 0.069476 0.004472 0.022544
v 0.072258 0.000387 0.020120
v 0.070321 0.002240 0.022419
v 0.069624 0.004472 0.022526
v 0.069191 0.005183 0.022348
v 0.072167 0.000466 0.020081
v 0.069492 0.005269 0.022504
v 0.072522 0.000467 0.019155
v 0.071989 0.001308 0.020056
v 0.069635 0.003880 0.022593
v 0.072607 0.000387 0.019161
v 0.069583 0.003079 0.022715
v 0.071097 0.002233 0.021582
v 0.072380 0.001313 0.019245
v 0.070320 0.003068 0.022314
v 0.069583 0.003079 0.022715
v 0.071860 0.002239 0.020053
v 0.072242 0.002256 0.019321
v 0.071072 0.003053 0.021423
v 0.069583 0.003079 0.022715
v 0.070257 0.003857 0.022241
v 0.072163 0.003082 0.019372
v 0.069635 0.003880 0.022593
v 0.071795 0.003060 0.020039
v 0.069382 0.002271 0.022881
v 0.071083 0.003855 0.021252
v 0.070204 0.004517 0.022236
v 0.069309 0.001461 0.023069
v 0.072072 0.003882 0.019402
v 0.069624 0.004472 0.022526
v 0.071743 0.003864 0.020032
v 0.071086 0.004626 0.021107
v 0.069625 0.005301 0.022480
v 0.071662 0.004745 0.020066
v 0.070026 0.005419 0.022204
v 0.072027 0.004821 0.019425
v 0.071113 0.005661 0.020866
v 0.071959 0.005663 0.019423
v 0.071567 0.005701 0.020123
v 0.072724 0.001314 0.017669
v 0.072848 0.000467 0.017562
v 0.072273 0.001314 0.017333
v 0.072622 0.002168 0.017752
v 0.072396 0.000467 0.017138
v 0.072899 0.000467 0.017709
v 0.072203 0.002167 0.017449
v 0.072189 0.001314 0.017275
v 0.072795 0.001314 0.017816
v 0.072972 0.000387 0.017684
v 0.072119 0.002167 0.017391
v 0.072921 0.000387 0.017533
v 0.072155 0.002708 0.017474
v 0.072316 0.000467 0.017072
v 0.072446 0.000387 0.017081
v 0.072559 0.002763 0.017776
v 0.072082 0.002671 0.017416
v 0.072668 0.002169 0.017884
v 0.072362 0.000387 0.017011
v 0.072599 0.002798 0.017907
v 0.072070 0.002813 0.017429
v 0.071961 0.002747 0.017375
v 0.071774 0.001314 0.016914
v 0.071856 0.000467 0.016672
v 0.071296 0.001314 0.016911
v 0.071721 0.002168 0.017049
v 0.071186 0.000469 0.016607
v 0.071323 0.002170 0.017076
v 0.071865 0.002168 0.017106
v 0.072005 0.000467 0.016740
v 0.070837 0.000469 0.016927
v 0.071377 0.002510 0.017158
v 0.071919 0.001314 0.016980
v 0.071022 0.001314 0.017068
v 0.071704 0.002522 0.017113
v 0.071919 0.001314 0.016980
v 0.071162 0.002171 0.017165
v 0.071865 0.002168 0.017106
v 0.072030 0.000388 0.016662
v 0.071215 0.002504 0.017216
v 0.071844 0.002559 0.017159
v 0.071874 0.000388 0.016590
v 0.071092 0.002172 0.017279
v 0.071747 0.002648 0.017168
v 0.071134 0.002545 0.017324
v 0.071451 0.002647 0.017205
v 0.071152 0.000389 0.016504
v 0.071234 0.002636 0.017277
v 0.071451 0.002647 0.017205
v 0.070746 0.000389 0.016884
v 0.072432 0.001314 0.018800
v 0.072563 0.000467 0.018747
v 0.072795 0.001314 0.017816
v 0.072668 0.002169 0.017884
v 0.072899 0.000467 0.017709
v 0.072340 0.002164 0.018811
v 0.072510 0.000467 0.018835
v 0.072642 0.000387 0.018751
v 0.072327 0.002861 0.018636
v 0.072299 0.002130 0.018881
v 0.072381 0.001314 0.018891
v 0.072972 0.000387 0.017684
v 0.072599 0.002798 0.017907
v 0.072588 0.000387 0.018839
v 0.072525 0.003558 0.017938
v 0.072294 0.003616 0.018441
v 0.072444 0.003635 0.017887
v 0.072200 0.003690 0.018398
v 0.071171 0.002175 0.017684
v 0.071117 0.002166 0.017912
v 0.071246 0.002701 0.017663
v 0.071267 0.002655 0.017587
v 0.071196 0.002788 0.017841
v 0.071287 0.002821 0.017622
v 0.071204 0.002173 0.017585
v 0.071221 0.002294 0.018050
v 0.071358 0.002742 0.017531
v 0.071126 0.001314 0.017568
v 0.071066 0.001314 0.017660
v 0.071276 0.002842 0.017984
v 0.071255 0.003486 0.017805
v 0.070951 0.001314 0.017902
v 0.071687 0.003470 0.017523
v 0.071117 0.002130 0.018029
v 0.071117 0.002130 0.018029
v 0.071306 0.003503 0.017954
v 0.071674 0.002826 0.017498
v 0.071215 0.002222 0.018163
v 0.070931 0.001314 0.017994
v 0.071358 0.002742 0.017531
v 0.071350 0.003579 0.017875
v 0.071665 0.002734 0.017456
v 0.071764 0.003571 0.017615
v 0.072243 0.002295 0.018800
v 0.072230 0.002869 0.018644
v 0.071719 0.002386 0.018475
v 0.072327 0.002861 0.018636
v 0.071744 0.002854 0.018371
v 0.072340 0.002164 0.018811
v 0.071276 0.002842 0.017984
v 0.072178 0.003615 0.018488
v 0.072198 0.002221 0.018847
v 0.072294 0.003616 0.018441
v 0.071221 0.002294 0.018050
v 0.072299 0.002130 0.018881
v 0.071215 0.002222 0.018163
v 0.071306 0.003503 0.017954
v 0.071747 0.003562 0.018260
v 0.072200 0.003690 0.018398
v 0.071705 0.002292 0.018518
v 0.071777 0.003639 0.018172
v 0.071777 0.003639 0.018172
v 0.071350 0.003579 0.017875
v 0.072198 0.002221 0.018847
v 0.072198 0.002221 0.018847
v 0.072099 0.002180 0.018917
v 0.072200 0.002103 0.018976
v 0.071688 0.002225 0.018568
v 0.072159 0.002267 0.019081
v 0.072299 0.002130 0.018881
v 0.071218 0.002183 0.018300
v 0.071690 0.002290 0.018624
v 0.072275 0.002210 0.019201
v 0.071215 0.002222 0.018163
v 0.071096 0.002270 0.018362
v 0.072172 0.002352 0.019159
v 0.072242 0.002256 0.019321
v 0.071688 0.002385 0.018670
v 0.071045 0.002355 0.018396
v 0.068386 0.002271 0.021000
v 0.068554 0.003078 0.020924
v 0.068851 0.002271 0.020360
v 0.068230 0.001539 0.021025
v 0.068957 0.003079 0.020427
v 0.068773 0.001292 0.020307
v 0.068550 0.003077 0.021073
v 0.068665 0.003697 0.020876
v 0.069946 0.002272 0.018902
v 0.068208 0.001434 0.020901
v 0.068665 0.003697 0.020876
v 0.069029 0.003658 0.020450
v 0.068818 0.001212 0.020236
v 0.068646 0.003740 0.021025
v 0.068385 0.002271 0.021146
v 0.070055 0.003537 0.019036
v 0.068643 0.001220 0.020330
v 0.069953 0.001313 0.018676
v 0.068727 0.003834 0.020922
v 0.070020 0.003082 0.018968
v 0.068841 0.000466 0.019983
v 0.069110 0.003774 0.020480
v 0.068646 0.003740 0.021025
v 0.069879 0.000467 0.018517
v 0.069110 0.003774 0.020480
v 0.068694 0.001126 0.020244
v 0.070089 0.002272 0.018860
v 0.070131 0.003658 0.019056
v 0.068714 0.000455 0.020019
v 0.070162 0.003082 0.018929
v 0.070096 0.001313 0.018632
v 0.068490 0.001053 0.020150
v 0.070191 0.003556 0.018997
v 0.070028 0.000467 0.018474
v 0.068431 0.000453 0.019900
v 0.068447 0.001148 0.020236
v 0.068794 0.000389 0.019925
v 0.068643 0.001220 0.020330
v 0.068663 0.000388 0.019965
v 0.068111 0.001350 0.020770
v 0.069979 0.000388 0.018398
v 0.068366 0.000388 0.019842
v 0.068370 0.001060 0.020186
v 0.068208 0.001434 0.020901
v 0.068311 0.000453 0.019944
v 0.068044 0.001257 0.020712
v 0.069823 0.000388 0.018441
v 0.067826 0.000467 0.020773
v 0.068111 0.001350 0.020770
v 0.068244 0.000387 0.019887
v 0.068049 0.001282 0.020847
v 0.067733 0.000387 0.020765
v 0.067824 0.000471 0.020915
v 0.067732 0.000387 0.020911
v 0.068192 0.001381 0.021046
v 0.068006 0.000476 0.021157
v 0.068001 0.000486 0.021298
v 0.067824 0.000471 0.020915
v 0.068203 0.001461 0.021178
v 0.067919 0.000388 0.021161
v 0.068208 0.001434 0.020901
v 0.068111 0.001350 0.020770
v 0.067732 0.000387 0.020911
v 0.067914 0.000388 0.021306
v 0.072121 0.003082 0.019224
v 0.072172 0.002352 0.019159
v 0.071654 0.003082 0.018761
v 0.072044 0.003882 0.019262
v 0.071688 0.002385 0.018670
v 0.071608 0.003882 0.018820
v 0.072163 0.003082 0.019372
v 0.070997 0.003082 0.018511
v 0.071580 0.004696 0.018855
v 0.072242 0.002256 0.019321
v 0.071045 0.002355 0.018396
v 0.072005 0.004804 0.019288
v 0.071003 0.003882 0.018601
v 0.072072 0.003882 0.019402
v 0.071556 0.005395 0.018889
v 0.071034 0.004596 0.018671
v 0.072159 0.002267 0.019081
v 0.071944 0.005646 0.019287
v 0.071690 0.002290 0.018624
v 0.072027 0.004821 0.019425
v 0.071081 0.005257 0.018706
v 0.071959 0.005663 0.019423
v 0.071492 0.005505 0.018957
v 0.071023 0.005337 0.018777
v 0.070579 0.003082 0.018958
v 0.070868 0.003082 0.018551
v 0.070524 0.002272 0.018898
v 0.070583 0.003783 0.019022
v 0.070925 0.002257 0.018389
v 0.070874 0.003882 0.018641
v 0.070447 0.003082 0.019005
v 0.070559 0.001313 0.018687
v 0.071003 0.003882 0.018601
v 0.070458 0.003670 0.019072
v 0.070847 0.001313 0.018329
v 0.070386 0.002272 0.018944
v 0.070539 0.003862 0.019085
v 0.070482 0.000467 0.018516
v 0.071045 0.002355 0.018396
v 0.070411 0.003775 0.019140
v 0.070423 0.001313 0.018735
v 0.070727 0.000467 0.018237
v 0.070997 0.003082 0.018511
v 0.070908 0.004581 0.018716
v 0.070351 0.000467 0.018575
v 0.070806 0.000467 0.018167
v 0.070572 0.004473 0.019222
v 0.070422 0.000387 0.018450
v 0.070696 0.000387 0.018112
v 0.070920 0.001313 0.018251
v 0.070626 0.005190 0.019265
v 0.070615 0.000387 0.018182
v 0.070288 0.000387 0.018510
v 0.070958 0.005230 0.018748
v 0.069500 0.004029 0.020680
v 0.070681 0.005299 0.019308
v 0.071034 0.004596 0.018671
v 0.069562 0.004473 0.020814
v 0.070411 0.003775 0.019140
v 0.069864 0.005261 0.020742
v 0.069767 0.005151 0.020749
v 0.071023 0.005337 0.018777
v 0.071081 0.005257 0.018706
v 0.069147 0.005085 0.021657
v 0.069207 0.005197 0.021709
v 0.069070 0.004472 0.021595
v 0.068994 0.005063 0.021872
v 0.068987 0.004151 0.021444
v 0.069037 0.005167 0.021941
v 0.068902 0.004472 0.021876
v 0.068984 0.005072 0.022014
v 0.068992 0.004052 0.021314
v 0.068950 0.004070 0.021517
v 0.068902 0.004472 0.022023
v 0.069420 0.003931 0.020649
v 0.068829 0.003880 0.021891
v 0.068843 0.003880 0.022044
v 0.068832 0.003077 0.021684
v 0.068711 0.003077 0.021969
v 0.068928 0.003972 0.021427
v 0.069110 0.003774 0.020480
v 0.068727 0.003834 0.020922
v 0.068728 0.003077 0.022122
v 0.068821 0.003077 0.021528
v 0.070131 0.003658 0.019056
v 0.068552 0.002271 0.022048
v 0.068992 0.004052 0.021314
v 0.068655 0.002271 0.021794
v 0.070411 0.003775 0.019140
v 0.068646 0.003740 0.021025
v 0.070458 0.003670 0.019072
v 0.068573 0.002271 0.022199
v 0.068498 0.001461 0.021887
v 0.068928 0.003972 0.021427
v 0.070191 0.003556 0.018997
v 0.068481 0.001461 0.021735
v 0.068987 0.004151 0.021444
v 0.068414 0.001461 0.022116
v 0.068638 0.002271 0.021640
v 0.068950 0.004070 0.021517
v 0.068300 0.000486 0.022047
v 0.068287 0.000486 0.021893
v 0.068235 0.000486 0.022243
v 0.068481 0.001461 0.021735
v 0.068433 0.001461 0.022268
v 0.068220 0.000388 0.021924
v 0.068001 0.000486 0.021298
v 0.068249 0.000486 0.022396
v 0.068235 0.000388 0.022082
v 0.068203 0.001461 0.021178
v 0.067914 0.000388 0.021306
v 0.068167 0.000389 0.022286
v 0.068385 0.002271 0.021146
v 0.068184 0.000389 0.022443
v 0.068230 0.001539 0.021025
v 0.068638 0.002271 0.021640
v 0.068386 0.002271 0.021000
v 0.068550 0.003077 0.021073
v 0.068821 0.003077 0.021528
v 0.068646 0.003740 0.021025
v 0.068928 0.003972 0.021427
v 0.068655 0.002271 0.021794
v 0.071857 0.002823 0.017463
v 0.071865 0.003471 0.017493
v 0.072070 0.002813 0.017429
v 0.071961 0.002747 0.017375
v 0.072071 0.003489 0.017537
v 0.071824 0.002740 0.017424
v 0.072155 0.002708 0.017474
v 0.071889 0.003572 0.017582
v 0.071687 0.003470 0.017523
v 0.071674 0.002826 0.017498
v 0.072495 0.003542 0.017809
v 0.072030 0.003582 0.017619
v 0.071665 0.002734 0.017456
v 0.072559 0.002763 0.017776
v 0.071764 0.003571 0.017615
v 0.072030 0.003582 0.017619
v 0.071687 0.003470 0.017523
v 0.072599 0.002798 0.017907
v 0.072444 0.003635 0.017887
v 0.072525 0.003558 0.017938
v 0.072294 0.001314 0.018963
v 0.072390 0.001313 0.019143
v 0.072454 0.000467 0.018903
v 0.072200 0.002103 0.018976
v 0.072532 0.000467 0.019055
v 0.072275 0.002210 0.019201
v 0.072381 0.001314 0.018891
v 0.072522 0.000467 0.019155
v 0.072380 0.001313 0.019245
v 0.072510 0.000467 0.018835
v 0.072299 0.002130 0.018881
v 0.072242 0.002256 0.019321
v 0.072531 0.000387 0.018913
v 0.072607 0.000387 0.019161
v 0.072588 0.000387 0.018839
v 0.072616 0.000387 0.019060
v 0.071038 0.001314 0.018158
v 0.070916 0.000467 0.018118
v 0.070920 0.001313 0.018251
v 0.071127 0.002103 0.018237
v 0.070806 0.000467 0.018167
v 0.071117 0.002130 0.018029
v 0.070983 0.002206 0.018332
v 0.070931 0.001314 0.017994
v 0.070808 0.000387 0.018070
v 0.070847 0.001313 0.018329
v 0.070767 0.000467 0.018000
v 0.071127 0.002103 0.018237
v 0.071215 0.002222 0.018163
v 0.070925 0.002257 0.018389
v 0.070696 0.000387 0.018112
v 0.071218 0.002183 0.018300
v 0.070690 0.000387 0.017968
v 0.071096 0.002270 0.018362
v 0.070983 0.002206 0.018332
v 0.070925 0.002257 0.018389
v 0.071126 0.001314 0.017568
v 0.070954 0.001314 0.017192
v 0.070901 0.000468 0.017533
v 0.071092 0.002172 0.017279
v 0.070781 0.000468 0.017071
v 0.071204 0.002173 0.017585
v 0.070822 0.000388 0.017508
v 0.071162 0.002171 0.017165
v 0.071134 0.002545 0.017324
v 0.071022 0.001314 0.017068
v 0.070692 0.000389 0.017033
v 0.071267 0.002655 0.017587
v 0.070837 0.000469 0.016927
v 0.070746 0.000389 0.016884
v 0.071234 0.002636 0.017277
v 0.071358 0.002742 0.017531
v 0.068984 0.005072 0.022014
v 0.068902 0.004472 0.022023
v 0.069229 0.005277 0.022264
v 0.069529 0.005363 0.022423
v 0.069625 0.005301 0.022480
v 0.071919 0.001314 0.016980
v 0.071865 0.002168 0.017106
v 0.072189 0.001314 0.017275
v 0.072316 0.000467 0.017072
v 0.072119 0.002167 0.017391
v 0.072005 0.000467 0.016740
v 0.071844 0.002559 0.017159
v 0.072362 0.000387 0.017011
v 0.072030 0.000388 0.016662
v 0.072082 0.002671 0.017416
v 0.071961 0.002747 0.017375
v 0.071747 0.002648 0.017168
v 0.070089 0.002272 0.018860
v 0.070162 0.003082 0.018929
v 0.070386 0.002272 0.018944
v 0.070423 0.001313 0.018735
v 0.070447 0.003082 0.019005
v 0.070096 0.001313 0.018632
v 0.070524 0.002272 0.018898
v 0.070191 0.003556 0.018997
v 0.070458 0.003670 0.019072
v 0.070351 0.000467 0.018575
v 0.070559 0.001313 0.018687
v 0.070028 0.000467 0.018474
v 0.070288 0.000387 0.018510
v 0.069979 0.000388 0.018398
v 0.072200 0.003690 0.018398
v 0.072444 0.003635 0.017887
v 0.071777 0.003639 0.018172
v 0.072030 0.003582 0.017619
v 0.071889 0.003572 0.017582
v 0.071764 0.003571 0.017615
v 0.071350 0.003579 0.017875
v 0.071234 0.002636 0.017277
v 0.071358 0.002742 0.017531
v 0.071451 0.002647 0.017205
v 0.071665 0.002734 0.017456
v 0.071665 0.002734 0.017456
v 0.071747 0.002648 0.017168
v 0.071824 0.002740 0.017424
v 0.071961 0.002747 0.017375
v 0.071126 0.001314 0.017568
v 0.070901 0.000468 0.017533
v 0.071066 0.001314 0.017660
v 0.070910 0.000467 0.017670
v 0.070951 0.001314 0.017902
v 0.070775 0.000388 0.017611
v 0.070811 0.000467 0.017927
v 0.070822 0.000388 0.017508
v 0.070931 0.001314 0.017994
v 0.070686 0.000387 0.017862
v 0.070767 0.000467 0.018000
v 0.070690 0.000387 0.017968
v 0.068643 0.001220 0.020330
v 0.068773 0.001292 0.020307
v 0.068192 0.001381 0.021046
v 0.068203 0.001461 0.021178
v 0.072607 0.000287 0.016528
v 0.072737 0.000012 0.016357
v 0.072326 0.000288 0.016293
v 0.073074 0.000012 0.016885
v 0.072421 0.000012 0.016090
v 0.072892 0.000288 0.017015
v 0.071763 0.000290 0.016069
v 0.073227 0.000291 0.017614
v 0.072247 0.000354 0.016410
v 0.071790 0.000012 0.015826
v 0.073466 0.000012 0.017544
v 0.071910 0.000354 0.016255
v 0.072510 0.000354 0.016625
v 0.071413 0.000012 0.015838
v 0.073053 0.000354 0.017529
v 0.072247 0.000354 0.016410
v 0.072595 0.000354 0.016833
v 0.071428 0.000290 0.016089
v 0.072595 0.000354 0.016833
v 0.071507 0.000354 0.016212
v 0.071910 0.000354 0.016255
v 0.068238 0.000012 0.023758
v 0.068322 0.000288 0.023551
v 0.067426 0.000012 0.022988
v 0.069206 0.000292 0.023719
v 0.067604 0.000288 0.022857
v 0.069234 0.000012 0.023977
v 0.067222 0.000300 0.021849
v 0.069118 0.000355 0.023583
v 0.066969 0.000021 0.021884
v 0.068383 0.000354 0.023422
v 0.068383 0.000354 0.023422
v 0.067392 0.000362 0.021948
v 0.067720 0.000356 0.022778
v 0.067720 0.000356 0.022778
v 0.070074 0.000284 0.017690
v 0.070395 0.000284 0.016940
v 0.069968 0.000012 0.017521
v 0.069059 0.000012 0.018446
v 0.070295 0.000012 0.016732
v 0.069217 0.000286 0.018586
v 0.070746 0.000290 0.016406
v 0.070173 0.000354 0.017781
v 0.070665 0.000012 0.016160
v 0.070492 0.000354 0.017042
v 0.069313 0.000354 0.018683
v 0.071428 0.000290 0.016089
v 0.070836 0.000354 0.016514
v 0.071413 0.000012 0.015838
v 0.070836 0.000354 0.016514
v 0.071507 0.000354 0.016212
v 0.072948 0.000293 0.019573
v 0.073200 0.000012 0.019686
v 0.073220 0.000294 0.018850
v 0.071928 0.000296 0.021529
v 0.073501 0.000012 0.018881
v 0.072168 0.000012 0.021716
v 0.072822 0.000354 0.019502
v 0.073256 0.000292 0.018214
v 0.073085 0.000354 0.018792
v 0.073519 0.000012 0.018195
v 0.073085 0.000354 0.018792
v 0.073227 0.000291 0.017614
v 0.073113 0.000354 0.018157
v 0.073466 0.000012 0.017544
v 0.073113 0.000354 0.018157
v 0.073053 0.000354 0.017529
v 0.070680 0.000296 0.023049
v 0.070219 0.000295 0.023381
v 0.070848 0.000012 0.023303
v 0.071305 0.000012 0.022898
v 0.070349 0.000012 0.023646
v 0.071108 0.000296 0.022657
v 0.069206 0.000292 0.023719
v 0.071717 0.000012 0.022407
v 0.070572 0.000354 0.022947
v 0.069234 0.000012 0.023977
v 0.071497 0.000296 0.022187
v 0.070112 0.000353 0.023269
v 0.070112 0.000353 0.023269
v 0.069118 0.000355 0.023583
v 0.072168 0.000012 0.021716
v 0.070992 0.000354 0.022564
v 0.071928 0.000296 0.021529
v 0.071387 0.000354 0.022087
v 0.067273 0.000296 0.020733
v 0.066977 0.000012 0.020687
v 0.067215 0.000251 0.021258
v 0.067069 0.000012 0.020395
v 0.066925 -0.000034 0.021232
v 0.067361 0.000294 0.020460
v 0.066969 0.000021 0.021884
v 0.067928 0.000012 0.019260
v 0.067411 0.000354 0.020795
v 0.067222 0.000300 0.021849
v 0.068163 0.000291 0.019380
v 0.067359 0.000312 0.021322
v 0.067497 0.000354 0.020517
v 0.067359 0.000312 0.021322
v 0.069059 0.000012 0.018446
v 0.067411 0.000354 0.020795
v 0.067392 0.000362 0.021948
v 0.069217 0.000286 0.018586
v 0.068282 0.000354 0.019463
v 0.069313 0.000354 0.018683
v 0.070173 0.000354 0.017781
v 0.069313 0.000354 0.018683
v 0.072822 0.000354 0.019502
v 0.073085 0.000354 0.018792
v 0.071818 0.000354 0.021424
v 0.070492 0.000354 0.017042
v 0.072948 0.000293 0.019573
v 0.071387 0.000354 0.022087
v 0.073113 0.000354 0.018157
v 0.071928 0.000296 0.021529
v 0.068282 0.000354 0.019463
v 0.070836 0.000354 0.016514
v 0.071497 0.000296 0.022187
v 0.070992 0.000354 0.022564
v 0.073053 0.000354 0.017529
v 0.067497 0.000354 0.020517
v 0.071507 0.000354 0.016212
v 0.070572 0.000354 0.022947
v 0.068163 0.000291 0.019380
v 0.072595 0.000354 0.016833
v 0.070680 0.000296 0.023049
v 0.071108 0.000296 0.022657
v 0.067361 0.000294 0.020460
v 0.071910 0.000354 0.016255
v 0.067411 0.000354 0.020795
v 0.072247 0.000354 0.016410
v 0.072510 0.000354 0.016625
v 0.067359 0.000312 0.021322
v 0.070112 0.000353 0.023269
v 0.069118 0.000355 0.023583
v 0.067392 0.000362 0.021948
v 0.067720 0.000356 0.022778
v 0.068383 0.000354 0.023422
vn -0.2925 0.9514 -0.0962
vn -0.2133 0.9767 -0.0239
vn -0.2767 0.9526 -0.1263
vn -0.1989 0.9776 -0.0683
vn -0.2701 0.9552 -0.1214
vn -0.2024 0.9740 -0.1020
vn -0.2466 0.9603 -0.1306
vn 0.6473 0.0428 0.7610
vn 0.7082 0.0426 -0.7047
vn -0.2701 0.9551 -0.1214
vn 0.6473 0.0427 0.7611
vn 0.3330 0.0373 -0.9422
vn 0.7495 0.0578 0.6594
vn 0.8737 0.0570 0.4831
vn -0.2926 0.9514 -0.0962
vn 0.7980 0.0531 0.6003
vn -0.2926 0.9514 -0.0961
vn -0.8650 0.1371 0.4826
vn -0.8005 0.2223 0.5566
vn -0.7994 0.2600 0.5417
vn -0.4315 0.2517 0.8663
vn -0.7991 0.2600 0.5420
vn -0.4737 0.2908 0.8313
vn -0.0359 0.9926 -0.1158
vn 0.6717 0.1342 0.7286
vn -0.0360 0.9926 -0.1158
vn 0.6729 0.1019 0.7327
vn -0.9399 0.1563 -0.3035
vn -0.0360 0.9926 -0.1159
vn -0.8152 0.1705 0.5536
vn -0.9399 0.1562 -0.3035
vn -0.3972 0.1086 0.9113
vn 0.7423 0.0775 0.6656
vn 0.6728 0.1019 0.7327
vn 0.6717 0.1343 0.7286
vn -0.8152 0.1705 0.5535
vn -0.8401 0.1088 0.5314
vn 0.6729 0.1018 0.7327
vn 0.7682 0.1390 0.6250
vn -0.3877 0.0622 0.9197
vn -0.0361 0.9926 -0.1158
vn -0.8557 0.0657 0.5132
vn -0.3877 0.0621 0.9197
vn 0.6608 0.0669 0.7475
vn -0.8650 0.1372 0.4826
vn 0.9088 0.1464 0.3907
vn -0.4195 0.0755 0.9046
vn 0.6706 0.0611 0.7393
vn 0.7423 0.0775 0.6655
vn 0.8870 0.1056 0.4496
vn 0.7497 0.0738 0.6576
vn 0.6608 0.0669 0.7476
vn 0.8752 0.0618 0.4798
vn 0.7953 0.0725 0.6018
vn -0.4316 0.2517 0.8663
vn 0.7560 0.0470 0.6529
vn 0.8709 0.0626 0.4874
vn 0.7937 0.0582 0.6055
vn 0.7559 0.0470 0.6529
vn 0.7938 0.0582 0.6055
vn 0.6473 0.0427 0.7610
vn 0.7496 0.0578 0.6594
vn 0.7980 0.0531 0.6004
vn 0.5869 0.1250 -0.8000
vn 0.6253 0.2339 -0.7445
vn 0.5868 0.1249 -0.8000
vn 0.5868 0.1250 -0.8000
vn 0.9481 0.0991 0.3022
vn 0.7073 0.2664 -0.6548
vn 0.9429 0.1036 0.3166
vn 0.7242 0.1062 -0.6814
vn 0.6138 0.0004 -0.7895
vn -0.0360 0.9926 -0.1157
vn 0.6138 0.0004 -0.7894
vn 0.9327 0.1496 0.3281
vn 0.5701 0.1264 -0.8118
vn -0.0456 0.9262 -0.3742
vn -0.0266 0.1510 -0.9882
vn 0.0561 0.3060 -0.9504
vn -0.5741 0.2851 -0.7675
vn -0.5741 0.2852 -0.7675
vn -0.4087 0.1524 -0.8999
vn -0.3281 0.2727 -0.9044
vn -0.0977 0.2095 -0.9729
vn -0.4088 0.1524 -0.8998
vn -0.3282 0.2727 -0.9044
vn -0.9075 0.1112 0.4051
vn -0.0457 0.9263 -0.3741
vn -0.9075 0.1114 0.4051
vn -0.0603 0.9317 -0.3581
vn -0.1255 0.9423 -0.3105
vn 0.9481 0.0992 0.3022
vn 0.9429 0.1036 0.3165
vn 0.9481 0.0992 0.3021
vn 0.7580 0.0832 0.6470
vn 0.6925 0.0794 0.7171
vn 0.9327 0.1496 0.3280
vn 0.9213 0.1066 0.3739
vn -0.0477 0.9907 -0.1274
vn -0.9602 0.1052 -0.2587
vn -0.9252 0.0777 -0.3715
vn -0.9252 0.0777 -0.3714
vn -0.6483 0.1839 0.7388
vn -0.1256 0.9422 -0.3105
vn -0.9100 0.0789 0.4070
vn -0.9304 0.1688 -0.3253
vn -0.5727 0.0180 -0.8195
vn -0.9703 0.1527 0.1875
vn -0.9704 0.1526 0.1874
vn -0.6065 0.1031 0.7884
vn -0.5728 0.0181 -0.8195
vn -0.3769 0.8187 0.4332
vn -0.8910 0.1073 0.4411
vn -0.1255 0.9422 -0.3105
vn -0.0503 0.9906 -0.1269
vn -0.3673 0.2208 0.9035
vn -0.3761 0.0852 0.9226
vn -0.6483 0.1840 0.7388
vn -0.4235 0.1054 0.8997
vn -0.1969 0.8159 0.5436
vn 0.9213 0.1065 0.3739
vn 0.6924 0.0794 0.7171
vn -0.6066 0.1031 0.7883
vn -0.6065 0.1032 0.7883
vn -0.0503 0.9906 -0.1270
vn -0.1969 0.8159 0.5437
vn -0.1968 0.8159 0.5437
vn -0.3769 0.8187 0.4331
vn 0.4405 0.7020 -0.5597
vn 0.6925 0.0794 0.7170
vn 0.2774 0.7172 -0.6393
vn 0.9470 0.0798 -0.3111
vn -0.3768 0.8188 0.4331
vn 0.2773 0.7172 -0.6393
vn 0.6590 0.2015 -0.7247
vn 0.8869 0.1056 0.4497
vn 0.3634 0.1899 -0.9121
vn -0.7886 0.1190 -0.6033
vn -0.7655 0.0781 -0.6387
vn -0.7745 0.1182 -0.6215
vn -0.7865 0.1139 -0.6070
vn -0.8750 0.1422 0.4628
vn -0.7744 0.1182 -0.6215
vn -0.2226 0.9118 -0.3451
vn -0.7865 0.1140 -0.6070
vn -0.8630 0.3022 0.4049
vn -0.2227 0.9118 -0.3450
vn -0.2827 0.9107 -0.3011
vn -0.7828 0.1593 -0.6016
vn -0.2927 0.9043 -0.3107
vn -0.8750 0.1421 0.4629
vn -0.7828 0.1592 -0.6016
vn -0.2927 0.9043 -0.3106
vn 0.3586 0.2359 -0.9032
vn 0.2852 0.1041 -0.9528
vn 0.2490 0.1150 -0.9616
vn 0.2967 0.1430 -0.9442
vn 0.2967 0.1429 -0.9442
vn -0.2227 0.9118 -0.3451
vn -0.8316 0.2022 -0.5173
vn -0.8316 0.2021 -0.5173
vn -0.8092 0.2147 0.5468
vn -0.8093 0.2147 0.5468
vn -0.8093 0.2148 0.5468
vn -0.8092 0.2148 0.5468
vn -0.8782 0.2092 0.4302
vn 0.7028 0.0745 -0.7075
vn 0.6590 0.2015 -0.7246
vn 0.3479 0.0736 -0.9346
vn 0.7087 0.0621 -0.7028
vn 0.3635 0.1899 -0.9121
vn 0.3323 0.0656 -0.9409
vn 0.3479 0.0736 -0.9347
vn 0.3330 0.0374 -0.9422
vn 0.8869 0.1056 0.4496
vn 0.3634 0.1898 -0.9121
vn 0.3322 0.0656 -0.9409
vn 0.3329 0.0374 -0.9422
vn 0.7083 0.0427 -0.7047
vn 0.2773 0.7173 -0.6392
vn 0.8737 0.0570 0.4832
vn -0.2467 0.9603 -0.1305
vn -0.2466 0.9603 -0.1305
vn -0.8053 0.0639 -0.5895
vn -0.8053 0.0639 -0.5894
vn -0.7790 0.1028 -0.6186
vn -0.8118 0.1354 -0.5680
vn 0.2491 0.1150 -0.9616
vn -0.7790 0.1028 -0.6185
vn 0.2853 0.1041 -0.9528
vn -0.7677 0.1725 -0.6172
vn -0.2927 0.9044 -0.3106
vn -0.5247 0.1259 -0.8419
vn -0.8119 0.1354 -0.5679
vn -0.5854 0.1387 -0.7988
vn -0.8625 0.1447 -0.4849
vn -0.8393 0.0971 -0.5349
vn -0.8227 0.2178 -0.5251
vn -0.2700 0.9552 -0.1214
vn -0.8625 0.1446 -0.4849
vn 0.3329 0.0373 -0.9422
vn -0.8228 0.2149 -0.5262
vn -0.9167 0.1865 -0.3534
vn -0.8650 0.1371 0.4827
vn -0.2828 0.9107 -0.3012
vn -0.8558 0.0657 0.5132
vn -0.9505 0.0682 -0.3032
vn -0.2828 0.9107 -0.3011
vn -0.8750 0.1422 0.4629
vn -0.9167 0.1866 -0.3534
vn -0.9490 0.1386 -0.2832
vn -0.8782 0.2093 0.4302
vn -0.9490 0.1386 -0.2833
vn -0.8781 0.2093 0.4302
vn -0.7994 0.2600 0.5416
vn -0.8749 0.1422 0.4629
vn 0.2035 0.1390 -0.9692
vn 0.2034 0.1390 -0.9692
vn -0.0457 0.9262 -0.3742
vn 0.5702 0.1264 -0.8118
vn -0.5728 0.0180 -0.8195
vn 0.5702 0.1264 -0.8117
vn 0.9327 0.1497 0.3281
vn -0.0477 0.9907 -0.1273
vn 0.9470 0.0798 -0.3110
vn 0.7579 0.0831 0.6470
vn 0.9126 0.1625 -0.3753
vn 0.9471 0.0798 -0.3110
vn -0.8910 0.1072 0.4411
vn -0.5854 0.1386 -0.7988
vn -0.9703 0.1526 0.1875
vn -0.7790 0.1027 -0.6185
vn -0.9100 0.0790 0.4070
vn -0.9073 0.1242 0.4017
vn -0.9075 0.1113 0.4050
vn -0.9075 0.1113 0.4051
vn -0.5742 0.2852 -0.7675
vn -0.2133 0.9767 -0.0240
vn 0.7073 0.2665 -0.6548
vn 0.2966 0.1430 -0.9442
vn 0.2490 0.1151 -0.9616
vn 0.2490 0.1150 -0.9617
vn -0.0476 0.9907 -0.1273
vn -0.0477 0.9907 -0.1275
vn -0.9073 0.1241 0.4017
vn -0.9304 0.1688 -0.3252
vn -0.9304 0.1689 -0.3253
vn -0.8911 0.1072 0.4411
vn -0.2226 0.9118 -0.3450
vn 0.6757 0.6095 -0.4146
vn 0.6757 0.6095 -0.4147
vn 0.2917 0.6386 -0.7121
vn 0.2917 0.6385 -0.7122
vn -0.0330 0.6641 -0.7470
vn 0.6634 0.6420 -0.3844
vn -0.0000 1.0000 -0.0000
vn -0.0329 0.6640 -0.7470
vn -0.3052 0.6636 -0.6830
vn -0.3052 0.6637 -0.6829
vn -0.1553 0.6453 0.7480
vn -0.1556 0.6436 0.7494
vn -0.7122 0.6394 0.2897
vn -0.1556 0.6435 0.7494
vn -0.7122 0.6395 0.2896
vn -0.7205 0.6929 -0.0287
vn -0.0037 1.0000 0.0080
vn -0.7205 0.6928 -0.0286
vn -0.0037 1.0000 0.0081
vn -0.5766 0.5949 -0.5601
vn -0.6806 0.5859 -0.4399
vn -0.5766 0.5948 -0.5601
vn -0.5765 0.5949 -0.5601
vn -0.5765 0.5949 -0.5602
vn -0.6805 0.5859 -0.4400
vn 0.6239 0.7126 0.3207
vn 0.6240 0.7126 0.3207
vn 0.7178 0.6957 0.0281
vn 0.5717 0.7303 0.3738
vn 0.7178 0.6957 0.0282
vn 0.5718 0.7303 0.3737
vn 0.7389 0.6720 -0.0496
vn 0.7389 0.6720 -0.0497
vn 0.0001 1.0000 -0.0000
vn 0.4549 0.7327 0.5061
vn 0.2141 0.6969 0.6845
vn 0.4550 0.7327 0.5062
vn 0.5211 0.7348 0.4343
vn 0.2141 0.6968 0.6845
vn 0.5215 0.7343 0.4345
vn -0.1555 0.6436 0.7494
vn 0.0201 0.9992 -0.0344
vn 0.5718 0.7302 0.3740
vn 0.5717 0.7304 0.3737
vn -0.6562 0.7241 -0.2121
vn -0.6563 0.7241 -0.2121
vn -0.5799 0.6885 -0.4356
vn -0.5798 0.6885 -0.4356
vn 0.6239 0.7127 0.3207
vn 0.5718 0.7304 0.3737
vn 0.5214 0.7344 0.4345
vn 0.4550 0.7327 0.5061
vt 0.310007 0.983010
vt 0.102788 0.985600
vt 0.312648 0.750916
vt 0.072360 0.752543
vt 0.314191 0.441917
vt 0.066005 0.441249
vt 0.093342 0.298409
vt 0.314115 0.292994
vt 0.525380 0.302320
vt 0.107129 0.985545
vt 0.052384 0.986230
vt 0.093262 0.280815
vt 0.533049 0.441938
vt 0.054411 0.986204
vt 0.314106 0.275909
vt 0.512762 0.750097
vt 0.027407 0.753454
vt 0.052849 0.302858
vt 0.479180 0.980895
vt 0.026363 0.441463
vt 0.487882 0.980786
vt 0.313575 0.982965
vt 0.496775 0.980675
vt 0.319471 0.982891
vt 0.315424 1.000000
vt 0.048343 1.000000
vt 0.568618 1.000000
vt 0.051780 1.000000
vt 0.575686 1.000000
vt 0.567608 1.000000
vt 0.020435 1.000000
vt 0.061592 1.000000
vt 0.572248 1.000000
vt 0.008613 1.000000
vt 0.606343 1.000000
vt 0.052271 1.000000
vt 0.021994 1.000000
vt 0.611059 1.000000
vt 0.058737 1.000000
vt 0.000000 1.000000
vt 0.547366 1.000000
vt 0.024730 1.000000
vt 0.015072 1.000000
vt 0.000000 0.750000
vt 0.069930 1.000000
vt 0.543242 1.000000
vt 0.015994 1.000000
vt 0.018528 1.000000
vt 0.067040 0.999941
vt 0.000000 0.437500
vt 0.013376 0.999929
vt 0.306009 0.985651
vt 0.115946 0.988377
vt 0.000000 0.282401
vt 0.024715 1.000000
vt 0.000000 0.282147
vt 0.016364 1.000000
vt 0.000000 0.284176
vt 0.012886 1.000000
vt 0.000000 0.282850
vt 0.020620 1.000000
vt 0.000000 0.293096
vt 0.021638 1.000000
vt 0.020806 1.000000
vt 0.009627 1.000000
vt 0.000000 0.295797
vt 0.023098 1.000000
vt 0.023567 0.989079
vt 0.021099 0.988989
vt 0.000000 0.295823
vt 0.009509 0.751781
vt 0.020765 0.307834
vt 0.012865 0.441193
vt 0.116967 0.000000
vt 0.115914 0.000000
vt 0.277272 0.000000
vt 0.124172 0.000000
vt 0.279750 0.000000
vt 0.095320 0.000000
vt 0.281687 0.000000
vt 0.301235 0.000000
vt 0.092662 0.000000
vt 0.095700 0.000000
vt 0.307657 0.000000
vt 0.115763 0.000000
vt 0.306256 0.000136
vt 0.302824 0.000000
vt 0.280104 0.000000
vt 0.127437 0.000020
vt 0.332033 0.000131
vt 0.098163 0.000000
vt 0.303051 0.000000
vt 0.096985 0.000000
vt 0.334129 0.000154
vt 0.335901 0.000152
vt 0.436867 0.000000
vt 0.438753 0.000000
vt 0.630847 0.000000
vt 0.445509 0.000002
vt 0.405901 0.000002
vt 0.411371 0.000000
vt 0.630847 0.067193
vt 0.622569 0.001109
vt 0.403275 0.000000
vt 0.630847 0.059804
vt 0.484722 0.000639
vt 0.401061 0.000000
vt 0.630847 0.047719
vt 0.408939 0.000021
vt 0.412843 0.000000
vt 0.628840 0.035258
vt 0.453166 0.000505
vt 0.439023 0.000000
vt 0.630827 0.067477
vt 0.477035 0.000653
vt 0.630221 0.054790
vt 0.589019 0.001187
vt 0.627347 0.036728
vt 0.620851 0.001339
vt 0.630847 0.068249
vt 0.009789 0.148069
vt 0.010144 0.158674
vt 0.069746 0.019519
vt 0.069150 0.030301
vt 0.068745 0.023374
vt 0.008528 0.214760
vt 0.006764 0.166372
vt 0.010195 0.160189
vt 0.012282 0.213540
vt 0.006384 0.220626
vt 0.006107 0.155979
vt 0.068601 0.023924
vt 0.067606 0.036743
vt 0.006873 0.167825
vt 0.087887 0.044962
vt 0.050805 0.203188
vt 0.092262 0.045001
vt 0.054989 0.204094
vt 0.630847 0.194247
vt 0.630847 0.228176
vt 0.630847 0.156958
vt 0.630847 0.151615
vt 0.630847 0.210948
vt 0.630010 0.145081
vt 0.630847 0.180046
vt 0.630847 0.238502
vt 0.630847 0.136110
vt 0.630847 0.174253
vt 0.630847 0.187308
vt 0.630847 0.232369
vt 0.626047 0.192685
vt 0.630847 0.209566
vt 0.605662 0.038714
vt 0.630847 0.234617
vt 0.630847 0.232914
vt 0.630847 0.224156
vt 0.627775 0.033141
vt 0.630847 0.239111
vt 0.630847 0.216002
vt 0.630847 0.100429
vt 0.626262 0.193131
vt 0.630847 0.038987
vt 0.605400 0.056659
vt 0.054895 0.250000
vt 0.064947 0.250000
vt 0.315424 0.250000
vt 0.027717 0.250000
vt 0.016102 0.250000
vt 0.548542 0.250000
vt 0.127816 0.242596
vt 0.053930 0.250000
vt 0.089774 0.242539
vt 0.552219 0.250000
vt 0.028517 0.250000
vt 0.536814 0.250000
vt 0.547295 0.249165
vt 0.335576 0.246099
vt 0.130810 0.242133
vt 0.347094 0.245771
vt 0.335178 0.245569
vt 0.547979 0.249155
vt 0.067793 0.250000
vt 0.050569 0.250000
vt 0.052653 0.250000
vt 0.011846 0.250000
vt 0.054875 0.250000
vt 0.012916 0.250000
vt 0.576660 0.253001
vt 0.317388 0.250065
vt 0.010703 0.250000
vt 0.571018 0.250945
vt 0.585648 0.256314
vt 0.055721 0.250000
vt 0.023538 0.250000
vt 0.324083 0.250169
vt 0.580398 0.257356
vt 0.630847 0.949349
vt 0.630847 0.944512
vt 0.630847 0.750000
vt 0.630847 0.957381
vt 0.630847 0.971753
vt 0.630847 0.926607
vt 0.630847 0.552015
vt 0.630847 0.934263
vt 0.630847 0.918994
vt 0.630847 0.747783
vt 0.630847 0.734380
vt 0.630847 0.961698
vt 0.630847 0.970779
vt 0.630847 0.566674
vt 0.630847 0.774308
vt 0.630847 0.549556
vt 0.630847 0.927031
vt 0.630847 0.553650
vt 0.630847 0.732497
vt 0.630847 0.747454
vt 0.630847 0.945744
vt 0.630847 0.549505
vt 0.630847 0.745416
vt 0.630847 0.535466
vt 0.630847 0.574602
vt 0.630847 0.536748
vt 0.630847 0.533253
vt 0.630847 0.549831
vt 0.630847 0.534616
vt 0.630847 0.771084
vt 0.630847 0.732228
vt 0.630847 0.939991
vt 0.630847 0.534813
vt 0.630847 0.765347
vt 0.630847 0.939990
vt 0.630847 0.765060
vt 0.630847 0.937682
vt 0.630847 0.549498
vt 0.630847 0.947669
vt 0.630847 0.944527
vt 0.630847 0.765019
vt 0.630847 0.958635
vt 0.630847 0.949096
vt 0.630847 0.961907
vt 0.630847 0.962383
vt 0.630847 0.958629
vt 0.630847 0.963429
vt 0.630847 0.980381
vt 0.630847 0.963430
vt 0.630847 0.972730
vt 0.630847 0.964115
vt 0.630847 0.958231
vt 0.630847 0.980925
vt 0.049978 0.250000
vt 0.058439 0.250000
vt 0.052962 0.250000
vt 0.318468 0.250101
vt 0.016287 0.250000
vt 0.567674 0.250000
vt 0.008822 0.250000
vt 0.589662 0.257603
vt 0.046886 0.250020
vt 0.562868 0.250000
vt 0.017610 0.250000
vt 0.317533 0.263860
vt 0.557377 0.250000
vt 0.092983 0.250014
vt 0.077964 0.263027
vt 0.318697 0.250108
vt 0.009589 0.250023
vt 0.532983 0.264039
vt 0.039057 0.262635
vt 0.324632 0.265241
vt 0.536992 0.265417
vt 0.630847 0.401588
vt 0.630847 0.279346
vt 0.630376 0.412220
vt 0.630847 0.429919
vt 0.627356 0.272483
vt 0.630847 0.286662
vt 0.630847 0.423866
vt 0.630847 0.408134
vt 0.630847 0.263209
vt 0.630847 0.448969
vt 0.630847 0.284742
vt 0.630847 0.432169
vt 0.630847 0.451075
vt 0.630847 0.407018
vt 0.627274 0.259919
vt 0.630847 0.452336
vt 0.630847 0.427411
vt 0.630848 0.295220
vt 0.630847 0.257113
vt 0.630725 0.278880
vt 0.630847 0.427558
vt 0.630847 0.279695
vt 0.630847 0.437500
vt 0.630848 0.406859
vt 0.630848 0.280814
vt 0.630847 0.271868
vt 0.615149 0.441820
vt 0.630848 0.296716
vt 0.630847 0.427579
vt 0.607297 0.302070
vt 0.630847 0.750023
vt 0.613522 0.442994
vt 0.630708 0.256636
vt 0.630847 0.480796
vt 0.614149 0.750669
vt 0.615774 0.750604
vt 0.605502 0.300271
vt 0.607299 0.280207
vt 0.599682 0.982498
vt 0.596197 0.980541
vt 0.630847 1.000000
vt 0.600129 0.982748
vt 0.630847 0.985072
vt 0.596675 0.980809
vt 0.630602 0.999862
vt 0.599060 0.982148
vt 0.630847 0.951050
vt 0.630847 0.986997
vt 0.630538 0.999826
vt 0.630847 0.749609
vt 0.630847 0.996985
vt 0.630847 0.999428
vt 0.630847 0.999844
vt 0.630847 0.986689
vt 0.630847 0.749048
vt 0.630847 0.913754
vt 0.630847 0.999272
vt 0.630847 0.604919
vt 0.623120 0.999765
vt 0.630847 0.922071
vt 0.628682 0.999161
vt 0.630847 0.594226
vt 0.630847 0.943721
vt 0.630847 0.581545
vt 0.621061 1.000000
vt 0.630847 0.943719
vt 0.630847 0.591583
vt 0.630847 0.941337
vt 0.630847 0.998935
vt 0.630847 0.999574
vt 0.630847 0.998362
vt 0.630847 0.999907
vt 0.630847 0.997834
vt 0.630847 0.998437
vt 0.630847 0.991204
vt 0.630847 0.999407
vt 0.630847 0.988560
vt 0.630847 0.991541
vt 0.630847 0.999894
vt 0.630847 0.985707
vt 0.630847 0.987131
vt 0.630847 0.997100
vt 0.630847 0.983881
vt 0.630847 0.983660
vt 0.630847 0.997243
vt 0.630847 0.985110
vt 0.630847 0.991178
vt 0.630847 0.998927
vt 0.590862 0.005007
vt 0.562318 0.006542
vt 0.445216 0.000749
vt 0.525004 0.002544
vt 0.379085 0.004298
vt 0.601528 0.004997
vt 0.411262 0.000237
vt 0.536300 0.006513
vt 0.601466 0.007021
vt 0.626252 0.006064
vt 0.177609 0.007299
vt 0.383538 0.004918
vt 0.629863 0.005974
vt 0.159374 0.000034
vt 0.575263 0.006919
vt 0.360013 0.004962
vt 0.593784 0.006991
vt 0.120682 0.000079
vt 0.174139 0.008335
vt 0.145927 0.008055
vt 0.000000 0.221159
vt 0.000000 0.245975
vt 0.000000 0.217289
vt 0.000000 0.247415
vt 0.000000 0.234894
vt 0.000000 0.254716
vt 0.000000 0.197678
vt 0.000000 0.237956
vt 0.000000 0.250254
vt 0.000000 0.200415
vt 0.000000 0.240588
vt 0.000000 0.255934
vt 0.000000 0.216736
vt 0.000000 0.236200
vt 0.000000 0.200806
vt 0.000000 0.233311
vt 0.630847 0.218208
vt 0.630847 0.218960
vt 0.630847 0.240057
vt 0.630847 0.248550
vt 0.630847 0.230414
vt 0.630254 0.243553
vt 0.630847 0.253844
vt 0.630847 0.195436
vt 0.630847 0.219068
vt 0.630847 0.246011
vt 0.630847 0.206687
vt 0.627623 0.250298
vt 0.623614 0.252498
vt 0.630847 0.254913
vt 0.630847 0.229037
vt 0.607870 0.253922
vt 0.630847 0.208294
vt 0.594365 0.256571
vt 0.625004 0.257012
vt 0.615484 0.258320
vt 0.630847 0.140980
vt 0.630847 0.110464
vt 0.630847 0.138214
vt 0.630840 0.106888
vt 0.630847 0.109627
vt 0.630836 0.143165
vt 0.630847 0.137819
vt 0.630842 0.090323
vt 0.630330 0.099941
vt 0.630847 0.098272
vt 0.630847 0.109508
vt 0.630597 0.124203
vt 0.630847 0.100203
vt 0.630847 0.100467
vt 0.630295 0.094221
vt 0.630533 0.115820
vt 0.506096 0.983943
vt 0.538455 1.000000
vt 0.297910 0.984145
vt 0.111121 0.986824
vt 0.058442 0.989277
vt 0.366157 0.000000
vt 0.367516 0.000000
vt 0.341345 0.000000
vt 0.341398 0.000000
vt 0.343258 0.000000
vt 0.372543 0.000000
vt 0.399016 0.000395
vt 0.341406 0.000000
vt 0.373455 0.000000
vt 0.375287 0.000284
vt 0.391602 0.000375
vt 0.408540 0.000454
vt 0.630847 0.495075
vt 0.630847 0.495691
vt 0.630847 0.473958
vt 0.630847 0.473525
vt 0.630847 0.473994
vt 0.630847 0.493204
vt 0.630847 0.467200
vt 0.630847 0.502165
vt 0.630847 0.488872
vt 0.630847 0.473518
vt 0.630847 0.467094
vt 0.630847 0.491293
vt 0.630847 0.473517
vt 0.630847 0.491020
vt 0.143083 0.199483
vt 0.176110 0.049582
vt 0.344141 0.216753
vt 0.363819 0.038898
vt 0.493834 0.051614
vt 0.529085 0.083236
vt 0.538169 0.206633
vt 0.630027 0.043196
vt 0.630336 0.058893
vt 0.629846 0.001005
vt 0.630221 0.016563
vt 0.630127 0.000724
vt 0.507158 0.000453
vt 0.598504 0.000593
vt 0.515834 0.000388
vt 0.630847 0.159646
vt 0.630847 0.154824
vt 0.630847 0.162185
vt 0.630847 0.161882
vt 0.630847 0.166484
vt 0.630847 0.161839
vt 0.630847 0.178702
vt 0.630847 0.154135
vt 0.630847 0.167706
vt 0.630847 0.180448
vt 0.630847 0.181842
vt 0.630847 0.183861
vt 0.630847 0.747247
vt 0.630847 0.956469
vt 0.479850 0.193066
vt 0.479866 0.000000
vt 0.520174 0.193535
vt 0.436833 0.000000
vt 0.520134 0.000000
vt 0.436728 0.194077
vt 0.557066 0.194485
vt 0.398839 0.188390
vt 0.519878 0.238515
vt 0.556949 0.000000
vt 0.398839 0.000000
vt 0.543063 0.239799
vt 0.480257 0.240671
vt 0.586703 0.000000
vt 0.409431 0.233958
vt 0.521392 0.240308
vt 0.463080 0.240675
vt 0.586703 0.187984
vt 0.436703 0.240675
vt 0.580809 0.232966
vt 0.557093 0.239469
vt 0.479866 0.750000
vt 0.479866 0.563533
vt 0.520134 0.750000
vt 0.399146 0.576097
vt 0.520134 0.563657
vt 0.399146 0.750000
vt 0.587075 0.576591
vt 0.405110 0.553017
vt 0.587075 0.750000
vt 0.480267 0.520954
vt 0.478295 0.519013
vt 0.579364 0.535152
vt 0.519633 0.518651
vt 0.520513 0.519960
vt 0.706986 0.190436
vt 0.681448 0.191065
vt 0.706873 0.000000
vt 0.749412 0.000000
vt 0.681455 0.000000
vt 0.749412 0.185508
vt 0.661404 0.195069
vt 0.706979 0.239846
vt 0.661384 0.000000
vt 0.681447 0.240675
vt 0.749412 0.231349
vt 0.644733 0.186878
vt 0.661409 0.240367
vt 0.644659 0.000000
vt 0.660456 0.239773
vt 0.644750 0.229988
vt 0.293148 0.190183
vt 0.293126 0.000000
vt 0.318502 0.197780
vt 0.250588 0.176328
vt 0.318545 0.000000
vt 0.250588 0.000000
vt 0.293624 0.231513
vt 0.341446 0.196989
vt 0.318493 0.240162
vt 0.341484 0.000000
vt 0.319958 0.240195
vt 0.361204 0.188390
vt 0.341438 0.240675
vt 0.361282 0.000000
vt 0.343412 0.239743
vt 0.361186 0.231349
vt 0.208951 0.176463
vt 0.178827 0.176016
vt 0.208951 0.000000
vt 0.210421 0.000000
vt 0.178827 0.000000
vt 0.210421 0.176801
vt 0.138201 0.173903
vt 0.217542 0.000000
vt 0.207415 0.212699
vt 0.138201 0.000000
vt 0.217542 0.176712
vt 0.178827 0.212699
vt 0.176990 0.212699
vt 0.138201 0.212699
vt 0.249498 0.000000
vt 0.210421 0.212699
vt 0.249498 0.176328
vt 0.217506 0.212699
vt 0.791049 0.191680
vt 0.791049 0.000000
vt 0.821173 0.175893
vt 0.789579 0.000000
vt 0.821173 0.000000
vt 0.789583 0.190379
vt 0.856405 0.000000
vt 0.782458 0.000000
vt 0.793335 0.229934
vt 0.856405 0.173409
vt 0.782481 0.188439
vt 0.821173 0.212699
vt 0.789686 0.231322
vt 0.827989 0.212699
vt 0.750502 0.000000
vt 0.791049 0.231349
vt 0.856405 0.212699
vt 0.750609 0.184847
vt 0.782423 0.230721
vt 0.750636 0.230525
vt 0.614906 0.331874
vt 0.615472 0.374983
vt 0.383140 0.331873
vt 0.385450 0.306996
vt 0.390160 0.374982
vt 0.614963 0.306302
vt 0.376835 0.331873
vt 0.383886 0.407361
vt 0.394090 0.285173
vt 0.384981 0.375045
vt 0.615447 0.407352
vt 0.606458 0.286226
vt 0.379016 0.407361
vt 0.382712 0.414562
vt 0.420043 0.267577
vt 0.615327 0.414561
vt 0.582551 0.268530
vt 0.381675 0.416111
vt 0.620317 0.407471
vt 0.467492 0.256113
vt 0.376206 0.416101
vt 0.377629 0.414623
vt 0.620231 0.414561
vt 0.541103 0.256347
vt 0.616883 0.416538
vt 0.512815 0.253399
vt 0.482401 0.256160
vt 0.615629 0.446196
vt 0.384186 0.445979
vt 0.414565 0.484084
vt 0.580258 0.483108
vt 0.519667 0.496174
vt 0.473764 0.496412
s 1
g GUI_Map_Plateau1_GUI_Map_Plateau:GUI_Map_Plateau1_GUI_Map_Plateau:GUI_Map_Plateau1
usemtl GUI_Map_Plateau:GUI_Map_Plateau1
f 1/1/1 2/2/2 3/3/3
f 3/3/3 2/2/2 4/4/4
f 3/3/3 4/4/4 5/5/5
f 5/5/5 4/4/4 6/6/4
f 6/6/4 7/7/6 5/5/5
f 5/5/5 7/7/6 8/8/7
f 8/8/7 9/9/7 5/5/5
f 1/1/1 10/10/2 2/2/2
f 2/2/2 11/11/8 4/4/4
f 7/7/6 12/12/9 8/8/7
f 5/5/5 9/9/7 13/13/10
f 13/13/10 3/3/3 5/5/5
f 11/11/8 2/2/2 14/14/11
f 14/14/11 2/2/2 10/10/2
f 8/8/7 12/12/9 15/15/12
f 16/16/3 3/3/3 13/13/10
f 16/16/3 1/1/1 3/3/3
f 4/4/4 11/11/8 17/17/13
f 18/18/14 12/12/9 7/7/6
f 19/19/15 1/1/1 16/16/3
f 17/17/13 20/20/16 4/4/4
f 7/7/6 6/6/4 18/18/14
f 19/19/15 21/21/15 1/1/1
f 4/4/4 20/20/16 6/6/4
f 18/18/14 6/6/4 20/20/16
f 1/1/1 21/21/15 22/22/17
f 22/22/17 10/10/2 1/1/1
f 23/23/18 22/22/17 21/21/15
f 24/24/18 22/22/17 23/23/18
f 25/25/19 26/25/20 27/26/21
f 25/25/19 28/27/22 26/25/20
f 27/26/21 26/25/20 29/28/23
f 30/29/19 28/27/22 25/25/19
f 25/25/19 27/26/21 31/25/19
f 31/25/19 30/29/19 25/25/19
f 32/30/24 26/25/20 28/27/22
f 33/31/25 27/26/21 29/28/23
f 31/25/19 27/26/21 34/32/21
f 35/33/19 30/29/19 31/25/19
f 36/25/26 26/25/20 32/30/24
f 36/25/26 29/28/23 26/25/20
f 37/34/27 27/26/21 33/31/25
f 30/29/19 35/33/19 38/35/28
f 39/36/29 29/28/23 36/25/26
f 34/32/21 40/25/30 31/25/19
f 29/28/23 41/37/26 33/31/25
f 31/25/19 40/25/30 35/33/19
f 39/36/29 41/37/26 29/28/23
f 38/35/28 35/33/19 42/38/31
f 43/39/32 40/25/30 34/32/21
f 44/40/33 37/34/34 45/40/35
f 35/33/19 40/25/30 46/41/36
f 43/39/32 47/25/37 40/25/30
f 34/32/21 48/42/38 43/39/32
f 45/40/35 37/34/34 49/43/35
f 40/25/30 47/25/37 46/41/36
f 50/44/39 44/40/33 45/40/35
f 51/45/40 47/25/37 43/39/32
f 49/43/35 52/40/26 45/40/35
f 46/41/36 47/25/37 53/46/37
f 54/44/33 44/40/33 50/44/39
f 55/47/41 52/40/26 49/43/35
f 52/40/26 56/44/26 45/40/35
f 47/25/37 57/25/42 53/46/37
f 45/40/35 56/44/26 50/44/39
f 44/40/33 58/48/38 37/34/34
f 51/45/40 59/49/43 47/25/37
f 47/25/37 59/49/43 57/25/42
f 56/44/26 60/50/26 50/44/39
f 61/40/33 58/48/38 44/40/33
f 51/45/40 62/51/44 59/49/43
f 59/49/43 63/52/45 57/25/42
f 50/44/39 60/50/26 64/50/46
f 44/40/33 54/44/33 61/40/33
f 65/53/47 63/52/45 59/49/43
f 62/51/44 65/53/47 59/49/43
f 64/50/46 60/50/26 66/54/46
f 54/44/33 50/44/39 67/50/46
f 68/55/44 62/51/44 51/45/40
f 67/50/46 50/44/39 64/50/46
f 66/54/46 60/50/26 69/56/41
f 51/45/40 70/57/48 68/55/44
f 54/44/33 67/50/46 71/44/49
f 61/40/33 54/44/33 71/44/49
f 72/58/46 64/50/46 66/54/46
f 43/39/32 70/57/48 51/45/40
f 67/50/46 64/50/46 72/58/46
f 61/40/33 71/44/49 73/40/48
f 43/39/32 48/42/38 74/59/48
f 71/44/49 67/50/46 75/50/50
f 72/58/46 76/60/50 67/50/46
f 73/40/48 71/44/49 77/44/51
f 73/40/48 78/61/48 61/40/33
f 71/44/49 75/50/50 77/44/51
f 67/50/46 76/60/50 75/50/50
f 73/40/48 77/44/51 79/40/52
f 61/40/33 78/61/48 58/48/38
f 80/62/53 75/50/50 76/60/50
f 79/40/52 81/63/52 73/40/48
f 77/44/51 75/50/50 82/50/54
f 73/40/48 81/63/52 78/61/48
f 82/50/54 75/50/50 80/62/53
f 83/64/55 37/34/34 58/48/38
f 77/44/51 82/50/54 84/44/56
f 79/40/52 77/44/51 84/44/56
f 79/40/52 85/40/52 81/63/52
f 86/65/55 37/34/34 83/64/55
f 87/66/57 82/50/54 80/62/53
f 79/40/52 84/44/56 85/40/52
f 81/63/52 85/40/52 88/67/52
f 89/50/58 82/50/54 87/66/57
f 84/44/56 82/50/54 89/50/58
f 85/40/52 84/44/56 90/44/59
f 84/44/56 89/50/58 90/44/59
f 85/40/52 91/68/11 88/67/52
f 89/50/58 87/66/57 92/50/60
f 90/44/59 89/50/58 92/50/60
f 85/40/52 90/44/59 93/69/61
f 93/69/61 91/68/11 85/40/52
f 92/50/60 87/66/57 94/70/57
f 92/50/60 95/71/62 90/44/59
f 93/69/61 90/44/59 95/71/62
f 94/70/57 96/72/14 92/50/60
f 97/73/63 95/71/62 92/50/60
f 92/50/60 96/72/14 97/73/63
f 98/74/64 99/75/65 100/76/66
f 98/74/64 100/76/66 101/77/67
f 100/76/66 99/75/65 102/78/65
f 98/74/64 103/79/68 99/75/65
f 101/77/67 100/76/66 104/80/66
f 100/76/66 102/78/65 105/81/69
f 106/82/70 103/79/68 98/74/64
f 107/83/26 99/75/65 103/79/68
f 98/74/64 101/77/67 106/82/70
f 105/81/69 108/84/71 100/76/66
f 100/76/66 108/84/71 104/80/66
f 109/85/26 99/75/65 107/83/26
f 110/86/72 101/77/67 104/80/66
f 105/81/69 102/78/65 111/87/69
f 109/85/26 112/88/73 99/75/65
f 113/89/74 101/77/67 110/86/72
f 108/84/71 114/90/71 104/80/66
f 112/88/73 111/87/69 102/78/65
f 99/75/65 112/88/73 102/78/65
f 106/82/70 101/77/67 115/91/70
f 104/80/66 114/90/71 110/86/72
f 101/77/67 113/89/74 115/91/70
f 116/92/26 111/87/69 112/88/73
f 115/91/70 113/89/74 117/93/75
f 114/90/71 118/94/76 110/86/72
f 119/95/77 118/94/76 114/90/71
f 120/96/78 121/97/79 122/98/80
f 122/98/80 123/99/78 120/96/78
f 122/98/80 121/97/79 124/98/81
f 125/98/82 123/99/78 122/98/80
f 123/99/78 126/100/71 120/96/78
f 120/96/78 127/101/69 121/97/79
f 128/102/81 122/98/80 124/98/81
f 129/103/83 123/99/78 125/98/82
f 120/96/78 126/100/71 130/104/69
f 131/105/80 122/98/80 128/102/81
f 132/106/84 123/99/78 129/103/83
f 133/107/69 127/101/69 120/96/78
f 131/105/80 134/108/85 122/98/80
f 122/98/80 134/108/85 125/98/82
f 132/106/84 135/109/71 123/99/78
f 136/110/73 121/97/79 127/101/69
f 125/98/82 137/111/86 129/103/83
f 134/108/85 137/111/86 125/98/82
f 138/112/71 135/109/71 132/106/84
f 139/113/26 121/97/79 136/110/73
f 140/114/87 137/111/86 134/108/85
f 132/106/84 141/115/88 138/112/71
f 139/113/26 124/98/81 121/97/79
f 142/116/89 137/111/86 140/114/87
f 141/115/88 132/106/84 143/117/90
f 143/117/90 132/106/84 129/103/83
f 144/98/26 124/98/81 139/113/26
f 137/111/86 145/118/91 129/103/83
f 137/111/86 142/116/89 145/118/91
f 129/103/83 145/118/91 146/119/90
f 147/120/26 124/98/81 144/98/26
f 128/102/81 124/98/81 147/120/26
f 148/121/70 149/122/92 150/123/70
f 151/124/93 148/121/70 150/123/70
f 150/123/70 149/122/92 152/125/94
f 153/126/70 148/121/70 151/124/93
f 148/121/70 154/127/95 149/122/92
f 155/128/26 152/125/94 149/122/92
f 151/124/93 156/129/75 153/126/70
f 153/126/70 157/130/96 148/121/70
f 158/131/96 154/127/95 148/121/70
f 159/132/26 152/125/94 155/128/26
f 160/133/97 156/129/75 151/124/93
f 148/121/70 157/130/96 158/131/96
f 161/134/26 149/122/92 154/127/95
f 155/128/26 149/122/92 161/134/26
f 160/133/97 162/135/98 156/129/75
f 156/129/75 162/135/98 163/136/98
f 164/137/99 163/136/98 162/135/98
f 165/138/99 163/136/98 164/137/99
f 166/139/100 167/140/100 168/141/101
f 169/142/87 166/139/100 168/141/101
f 168/141/101 167/140/100 170/143/102
f 168/141/101 171/144/101 169/142/87
f 168/141/101 170/143/102 171/144/101
f 172/145/87 166/139/100 169/142/87
f 167/140/100 173/146/103 170/143/102
f 169/142/87 171/144/101 174/147/104
f 175/148/105 166/139/100 172/145/87
f 176/149/106 167/140/100 166/139/100
f 170/143/102 173/146/103 177/150/103
f 171/144/101 170/143/102 178/151/101
f 176/149/106 166/139/100 175/148/105
f 179/152/106 167/140/100 176/149/106
f 170/143/102 177/150/103 178/151/101
f 178/151/101 180/153/107 171/144/101
f 167/140/100 181/154/108 173/146/103
f 167/140/100 179/152/106 182/155/109
f 178/151/101 177/150/103 183/156/110
f 171/144/101 180/153/107 184/157/111
f 173/146/103 181/154/108 185/158/112
f 182/155/109 179/152/106 186/159/113
f 184/157/111 187/160/114 171/144/101
f 188/161/115 180/153/107 178/151/101
f 178/151/101 183/156/110 188/161/115
f 189/162/90 187/160/114 184/157/111
f 190/163/115 180/153/107 188/161/115
f 191/164/116 192/165/117 193/166/118
f 191/164/116 194/167/75 192/165/117
f 193/166/118 192/165/117 195/166/103
f 196/168/70 194/167/75 191/164/116
f 197/169/103 193/166/118 195/166/103
f 192/165/117 198/170/119 195/166/103
f 199/171/120 196/168/70 191/164/116
f 194/167/75 200/172/121 192/165/117
f 201/173/118 193/166/118 197/169/103
f 192/165/117 200/172/121 198/170/119
f 202/174/122 196/168/70 199/171/120
f 203/175/112 193/166/118 201/173/118
f 197/169/103 195/166/103 204/176/123
f 195/166/103 198/170/119 205/177/124
f 200/172/121 206/178/99 198/170/119
f 207/166/112 193/166/118 203/175/112
f 204/176/123 195/166/103 205/177/124
f 198/170/119 206/178/99 205/177/124
f 193/166/118 207/166/112 191/164/116
f 205/177/124 208/179/125 204/176/123
f 205/177/124 206/178/99 209/180/125
f 204/176/123 208/179/125 210/181/125
f 191/164/116 207/166/112 211/182/126
f 212/183/127 207/166/112 213/184/120
f 213/184/120 214/185/122 212/183/127
f 213/184/120 207/166/112 215/166/128
f 216/186/129 214/185/122 213/184/120
f 212/183/127 214/185/122 217/187/130
f 215/166/128 207/166/112 218/188/112
f 213/184/120 219/189/131 216/186/129
f 215/166/128 219/189/131 213/184/120
f 218/188/112 219/189/131 215/166/128
f 220/190/132 214/185/122 216/186/129
f 218/188/112 207/166/112 221/191/133
f 222/192/134 219/189/131 218/188/112
f 223/193/135 220/190/132 216/186/129
f 224/194/136 220/190/132 223/193/135
f 219/189/131 222/192/134 225/195/137
f 225/195/137 222/192/134 226/196/137
f 227/197/138 228/198/139 229/199/140
f 229/199/140 230/200/138 227/197/138
f 229/199/140 228/198/139 231/199/141
f 232/199/140 230/200/138 229/199/140
f 228/198/139 227/197/138 233/201/142
f 228/198/139 234/202/139 231/199/141
f 229/199/140 235/203/143 232/199/140
f 232/199/140 236/204/144 230/200/138
f 233/201/142 237/205/139 228/198/139
f 231/199/141 234/202/139 238/206/145
f 235/203/143 239/207/143 232/199/140
f 240/208/142 237/205/139 233/201/142
f 233/201/142 227/197/138 241/209/146
f 238/206/145 242/210/145 231/199/141
f 243/211/147 236/204/144 232/199/140
f 244/212/143 239/207/143 235/203/143
f 245/213/148 238/206/145 234/202/139
f 231/199/141 242/210/145 246/214/145
f 239/207/143 244/212/143 247/215/149
f 248/216/150 238/206/145 245/213/148
f 249/217/151 245/213/148 234/202/139
f 231/199/141 246/214/145 229/199/140
f 229/199/140 246/214/145 235/203/143
f 247/215/149 244/212/143 250/218/152
f 238/206/145 251/219/153 242/210/145
f 239/207/143 247/215/149 252/199/154
f 246/214/145 253/220/155 235/203/143
f 235/203/143 253/220/155 244/212/143
f 242/210/145 251/219/153 254/221/153
f 252/199/154 247/215/149 255/199/154
f 242/210/145 256/222/156 246/214/145
f 256/222/156 253/220/155 246/214/145
f 244/212/143 253/220/155 257/223/157
f 252/199/154 255/199/154 258/199/154
f 259/224/156 256/222/156 242/210/145
f 254/221/153 259/224/156 242/210/145
f 257/223/157 260/225/158 244/212/143
f 258/199/154 255/199/154 261/199/154
f 262/226/159 252/199/154 258/199/154
f 247/215/149 263/227/26 255/199/154
f 244/212/143 260/225/158 250/218/152
f 264/226/144 252/199/154 262/226/159
f 250/218/152 263/227/26 247/215/149
f 255/199/154 263/227/26 265/199/26
f 265/199/26 261/199/154 255/199/154
f 262/226/159 266/228/144 264/226/144
f 267/229/26 250/218/152 260/225/158
f 268/199/26 261/199/154 265/199/26
f 258/199/154 269/230/160 262/226/159
f 264/226/144 266/228/144 270/231/144
f 261/199/154 268/199/26 271/232/161
f 269/230/160 258/199/154 271/232/161
f 272/233/161 262/226/159 269/230/160
f 273/234/26 250/218/152 267/229/26
f 271/232/161 258/199/154 261/199/154
f 272/233/161 269/230/160 274/235/161
f 273/234/26 263/227/26 250/218/152
f 274/235/161 269/230/160 271/232/161
f 275/236/147 262/226/159 272/233/161
f 271/232/161 268/199/26 276/237/26
f 276/237/26 274/235/161 271/232/161
f 275/236/147 272/233/161 277/238/162
f 278/239/26 274/235/161 276/237/26
f 277/238/162 272/233/161 279/240/162
f 279/240/162 272/233/161 274/235/161
f 280/241/26 274/235/161 278/239/26
f 279/240/162 274/235/161 280/241/26
f 281/242/163 277/238/164 282/243/165
f 283/244/166 281/242/163 282/243/165
f 282/243/165 277/238/164 284/245/164
f 285/246/146 281/242/163 283/244/166
f 282/243/165 284/245/164 286/247/29
f 286/247/29 283/244/166 282/243/165
f 281/242/163 287/248/159 277/238/164
f 277/238/164 287/248/159 288/248/159
f 286/247/29 284/245/164 289/247/26
f 290/249/24 283/244/166 286/247/29
f 291/250/167 292/251/168 293/166/169
f 293/166/169 294/252/170 291/250/167
f 293/166/169 292/251/168 295/253/171
f 296/166/172 294/252/170 293/166/169
f 297/254/53 292/251/168 291/250/167
f 291/250/167 294/252/170 297/254/53
f 295/253/171 298/255/173 293/166/169
f 299/166/174 294/252/170 296/166/172
f 300/256/175 292/251/168 297/254/53
f 301/257/176 298/255/173 295/253/171
f 302/258/170 294/252/170 299/166/174
f 293/166/169 303/259/177 296/166/172
f 297/254/53 294/252/170 304/260/57
f 298/255/173 303/259/177 293/166/169
f 294/252/170 302/258/170 304/260/57
f 305/261/174 302/258/170 299/166/174
f 303/259/177 306/262/178 296/166/172
f 307/263/129 295/253/171 292/251/168
f 308/264/179 302/258/170 305/261/174
f 296/166/172 306/262/178 299/166/174
f 309/265/180 295/253/171 307/263/129
f 308/264/179 310/266/57 302/258/170
f 304/260/57 302/258/170 310/266/57
f 306/262/178 311/267/178 299/166/174
f 299/166/174 311/267/178 305/261/174
f 312/268/181 310/266/57 308/264/179
f 305/261/174 311/267/178 313/269/182
f 313/269/182 311/267/178 314/270/183
f 315/271/184 316/272/185 317/273/186
f 318/274/187 316/272/185 315/271/184
f 317/273/186 316/272/185 319/275/186
f 320/276/187 316/272/185 318/274/187
f 317/273/186 321/277/188 315/271/184
f 319/275/186 322/278/186 317/273/186
f 323/279/177 316/272/185 320/276/187
f 315/271/184 324/280/188 318/274/187
f 321/277/188 324/280/188 315/271/184
f 325/281/189 322/278/186 319/275/186
f 326/282/190 321/277/188 317/273/186
f 324/280/188 327/283/187 318/274/187
f 322/278/186 325/281/189 328/284/191
f 319/275/186 316/272/185 329/285/137
f 330/286/192 327/283/187 324/280/188
f 322/278/186 328/284/191 331/287/158
f 328/284/191 325/281/189 332/288/191
f 329/285/137 316/272/185 333/289/169
f 318/274/187 327/283/187 334/290/187
f 331/287/158 328/284/191 335/291/158
f 325/281/189 336/292/193 332/288/191
f 334/290/187 320/276/187 318/274/187
f 334/290/187 327/283/187 337/293/194
f 338/294/26 335/291/158 328/284/191
f 339/295/26 332/288/191 336/292/193
f 340/296/195 336/292/193 325/281/189
f 341/297/196 334/290/187 337/293/194
f 338/294/26 328/284/191 342/298/26
f 342/298/26 332/288/191 339/295/26
f 343/299/26 335/291/158 338/294/26
f 344/300/197 334/290/187 341/297/196
f 342/298/26 328/284/191 332/288/191
f 345/301/198 337/293/194 327/283/187
f 341/297/196 346/302/199 344/300/197
f 344/300/197 347/303/178 334/290/187
f 348/199/196 337/293/194 345/301/198
f 327/283/187 349/304/150 345/301/198
f 341/297/196 350/305/3 346/302/199
f 323/279/177 334/290/187 347/303/178
f 341/297/196 337/293/194 351/306/200
f 351/306/200 337/293/194 348/199/196
f 351/306/200 350/305/3 341/297/196
f 344/300/197 346/302/199 352/307/183
f 353/308/201 347/303/178 344/300/197
f 348/199/196 354/309/202 351/306/200
f 350/305/3 351/306/200 355/310/1
f 352/307/183 353/308/201 344/300/197
f 320/276/187 334/290/187 323/279/177
f 355/310/1 351/306/200 354/309/202
f 356/311/203 354/309/202 348/199/196
f 354/309/202 357/312/202 355/310/1
f 356/311/203 357/312/202 354/309/202
f 348/199/196 358/313/203 356/311/203
f 355/310/1 357/312/202 359/314/1
f 333/289/169 316/272/185 323/279/177
f 345/301/198 358/313/203 348/199/196
f 360/315/203 357/312/202 356/311/203
f 361/316/204 359/314/1 357/312/202
f 345/301/198 362/317/205 358/313/203
f 360/315/203 356/311/203 363/318/203
f 361/316/204 357/312/202 364/319/206
f 365/320/150 362/317/205 345/301/198
f 364/319/206 357/312/202 360/315/203
f 363/318/203 356/311/203 358/313/203
f 345/301/198 349/304/150 365/320/150
f 366/321/203 364/319/206 360/315/203
f 360/315/203 363/318/203 366/321/203
f 367/311/37 364/319/206 366/321/203
f 363/318/203 368/322/207 366/321/203
f 369/323/207 367/311/37 366/321/203
f 366/321/203 368/322/207 369/323/207
f 370/324/142 368/322/207 363/318/203
f 371/325/150 372/326/208 365/320/150
f 373/311/36 367/311/37 369/323/207
f 374/327/142 368/322/207 370/324/142
f 365/320/150 375/328/150 371/325/150
f 376/329/28 373/311/36 369/323/207
f 365/320/150 372/326/208 377/330/205
f 368/322/207 378/331/28 369/323/207
f 379/332/150 375/328/150 365/320/150
f 369/323/207 378/331/28 376/329/28
f 372/326/208 380/333/142 377/330/205
f 379/332/150 381/334/156 375/328/150
f 382/335/19 373/311/36 376/329/28
f 378/331/28 383/311/28 376/329/28
f 377/330/205 380/333/142 384/336/209
f 375/328/150 381/334/156 385/337/156
f 383/311/28 378/331/28 386/311/146
f 384/336/209 387/338/210 377/330/205
f 376/329/28 383/311/28 388/311/28
f 386/311/146 378/331/28 389/339/146
f 390/336/203 387/338/210 384/336/209
f 383/311/28 391/340/211 388/311/28
f 383/311/28 392/341/212 391/340/211
f 388/311/28 391/340/211 393/342/213
f 394/343/146 392/341/212 383/311/28
f 388/311/28 393/342/213 395/311/19
f 396/344/26 391/340/211 392/341/212
f 394/343/146 397/345/214 392/341/212
f 397/345/214 396/344/26 392/341/212
f 395/311/19 393/342/213 398/311/215
f 399/346/26 391/340/211 396/344/26
f 400/347/146 397/345/214 394/343/146
f 399/346/26 393/342/213 391/340/211
f 401/348/26 396/344/26 397/345/214
f 402/349/73 398/311/215 393/342/213
f 400/347/146 394/343/146 403/350/146
f 402/349/73 393/342/213 399/346/26
f 404/311/26 398/311/215 402/349/73
f 403/350/146 405/351/138 400/347/146
f 403/350/146 394/343/146 406/352/146
f 407/353/138 405/351/138 403/350/146
f 406/352/146 408/354/142 403/350/146
f 409/355/142 408/354/142 406/352/146
f 409/355/142 410/356/216 408/354/142
f 406/352/146 368/322/207 409/355/142
f 411/357/142 410/356/216 409/355/142
f 412/358/28 368/322/207 406/352/146
f 413/359/217 414/360/218 415/361/76
f 415/361/76 416/362/219 413/359/217
f 415/361/76 414/360/218 417/363/220
f 413/359/217 416/362/219 418/364/88
f 417/363/220 419/365/72 415/361/76
f 420/366/115 417/363/220 414/360/218
f 414/360/218 413/359/217 421/367/221
f 413/359/217 418/364/88 422/368/221
f 423/369/222 419/365/72 417/363/220
f 424/370/115 417/363/220 420/366/115
f 421/367/221 413/359/217 422/368/221
f 422/368/221 418/364/88 425/371/90
f 426/372/74 419/365/72 423/369/222
f 414/360/218 427/373/115 420/366/115
f 428/374/115 423/369/222 417/363/220
f 429/375/107 427/373/115 414/360/218
f 426/372/74 423/369/222 430/376/223
f 431/377/224 423/369/222 428/374/115
f 430/376/223 423/369/222 432/378/121
f 432/378/121 423/369/222 431/377/224
f 433/379/122 434/380/225 435/381/226
f 436/382/122 434/380/225 433/379/122
f 435/381/226 434/380/225 437/383/227
f 438/384/228 434/380/225 436/382/122
f 433/379/122 435/381/226 439/385/122
f 433/379/122 439/385/122 436/382/122
f 434/380/225 440/386/46 437/383/227
f 434/380/225 438/384/228 441/387/46
f 439/385/122 435/381/226 442/388/95
f 436/382/122 439/385/122 443/389/122
f 441/387/46 440/386/46 434/380/225
f 441/387/46 438/384/228 444/390/50
f 435/381/226 445/391/26 442/388/95
f 437/383/227 445/391/26 435/381/226
f 446/392/41 437/383/227 440/386/46
f 442/388/95 445/391/26 447/393/26
f 448/394/41 437/383/227 446/392/41
f 448/394/41 445/391/26 437/383/227
f 449/395/229 450/396/229 451/397/230
f 449/395/229 451/397/230 452/398/231
f 451/397/230 450/396/229 453/399/193
f 454/400/109 449/395/229 452/398/231
f 452/398/231 451/397/230 455/401/230
f 449/395/229 456/402/229 450/396/229
f 456/402/229 449/395/229 454/400/109
f 450/396/229 457/403/26 453/399/193
f 458/404/189 455/401/230 451/397/230
f 450/396/229 456/402/229 459/405/229
f 454/400/231 460/406/109 461/407/112
f 459/405/229 457/403/26 450/396/229
f 462/408/186 455/401/230 458/404/189
f 453/399/193 457/403/26 463/409/26
f 461/407/112 460/406/109 464/410/112
f 465/411/26 457/403/26 459/405/229
f 460/406/109 466/412/180 464/410/112
f 467/413/230 466/412/180 460/406/109
f 467/413/230 468/414/232 466/412/180
f 466/412/180 468/414/232 301/257/137
f 469/415/105 470/416/233 471/417/234
f 469/415/105 472/418/235 470/416/233
f 471/417/234 470/416/233 473/419/234
f 474/420/87 472/418/235 469/415/105
f 473/419/234 475/421/26 471/417/234
f 472/418/235 476/422/82 470/416/233
f 474/420/87 477/423/236 472/418/235
f 470/416/233 478/424/237 473/419/234
f 479/425/26 475/421/26 473/419/234
f 470/416/233 476/422/82 478/424/237
f 480/426/87 477/423/236 474/420/87
f 481/427/80 479/425/26 473/419/234
f 473/419/234 478/424/237 481/427/80
f 482/428/26 479/425/26 481/427/80
f 480/426/87 483/429/91 477/423/236
f 484/430/114 483/429/91 480/426/87
f 63/52/45 485/431/18 57/25/42
f 57/25/42 485/431/18 486/432/206
f 53/46/37 57/25/42 486/432/206
f 65/53/47 487/433/1 63/52/45
f 488/434/238 487/433/1 65/53/47
f 65/53/47 489/435/61 488/434/238
f 489/435/61 65/53/47 62/51/44
f 490/436/69 491/437/71 492/438/69
f 492/438/69 493/439/69 490/436/69
f 492/438/69 491/437/71 494/440/71
f 490/436/69 493/439/69 495/441/239
f 491/437/71 496/442/71 494/440/71
f 497/443/73 495/441/239 493/439/69
f 498/444/73 495/441/239 497/443/73
f 494/440/71 496/442/71 499/445/71
f 496/442/71 500/446/88 499/445/71
f 501/447/88 500/446/88 496/442/71
f 502/448/155 503/449/156 504/450/155
f 505/451/240 502/448/155 504/450/155
f 504/450/155 503/449/156 506/452/156
f 507/453/158 502/448/155 505/451/240
f 508/454/189 505/451/240 504/450/155
f 503/449/156 509/455/241 506/452/156
f 506/452/156 509/455/241 510/456/242
f 505/451/240 511/457/157 507/453/158
f 512/458/189 505/451/240 508/454/189
f 507/453/158 511/457/157 513/459/157
f 514/460/26 513/459/157 511/457/157
f 515/461/26 513/459/157 514/460/26
f 516/462/243 517/463/244 518/464/115
f 518/464/115 517/463/244 519/465/115
f 519/465/115 520/466/115 518/464/115
f 520/466/115 521/467/115 518/464/115
f 518/464/115 521/467/115 522/468/115
f 523/469/104 524/470/104 525/471/90
f 525/471/90 524/470/104 526/472/90
f 525/471/90 527/473/90 528/474/88
f 528/474/88 527/473/90 529/475/88
f 528/474/88 529/475/88 530/476/88
f 531/477/105 532/478/245 533/479/106
f 533/479/106 532/478/245 534/480/106
f 533/479/106 534/480/106 535/481/246
f 532/478/245 536/482/26 534/480/106
f 535/481/246 534/480/106 537/483/247
f 538/484/26 536/482/26 532/478/245
f 535/481/246 537/483/247 539/485/229
f 537/483/247 534/480/106 540/486/26
f 540/486/26 534/480/106 536/482/26
f 539/485/229 537/483/247 541/487/248
f 542/488/26 537/483/247 540/486/26
f 541/487/248 537/483/247 542/488/26
f 543/199/249 544/489/140 252/199/154
f 252/199/154 544/489/140 239/207/143
f 236/204/144 545/490/162 230/200/138
f 230/200/138 545/490/162 546/248/146
f 547/491/250 548/492/251 549/493/252
f 548/492/251 547/491/250 550/494/250
f 549/493/252 548/492/251 551/495/253
f 550/494/250 547/491/250 552/496/250
f 551/495/253 553/497/254 549/493/252
f 554/498/255 550/494/250 552/496/250
f 549/493/252 555/499/256 547/491/250
f 556/500/257 553/497/254 551/495/253
f 557/501/255 550/494/250 554/498/255
f 558/502/256 549/493/252 553/497/254
f 547/491/250 555/499/256 559/503/256
f 556/500/257 560/504/258 553/497/254
f 554/498/255 552/496/250 561/505/256
f 562/506/256 549/493/252 558/502/256
f 559/503/256 563/507/256 547/491/250
f 553/497/254 560/504/258 564/508/259
f 547/491/250 563/507/256 552/496/250
f 561/505/256 552/496/250 565/509/256
f 566/510/256 553/497/254 564/508/259
f 567/511/256 553/497/254 566/510/256
f 568/512/260 569/513/261 570/514/262
f 569/513/261 568/512/260 571/515/263
f 570/514/262 569/513/261 572/516/264
f 571/515/263 568/512/260 573/517/263
f 574/518/265 570/514/262 572/516/264
f 571/515/263 575/519/266 569/513/261
f 576/520/267 570/514/262 574/518/265
f 569/513/261 577/521/266 572/516/264
f 569/513/261 575/519/266 578/522/268
f 574/518/265 572/516/264 579/523/266
f 572/516/264 577/521/266 580/524/266
f 579/523/266 572/516/264 581/525/268
f 582/526/269 583/527/270 584/528/271
f 585/529/272 582/526/269 584/528/271
f 584/528/271 583/527/270 586/530/270
f 587/531/273 582/526/269 585/529/272
f 588/532/270 586/530/270 583/527/270
f 582/526/269 587/531/273 589/533/256
f 590/534/274 586/530/270 588/532/270
f 582/526/269 591/535/256 583/527/270
f 589/533/256 591/535/256 582/526/269
f 589/533/256 587/531/273 592/536/256
f 593/537/259 590/534/274 588/532/270
f 591/535/256 594/538/256 583/527/270
f 583/527/270 594/538/256 588/532/270
f 595/539/258 590/534/274 593/537/259
f 596/540/256 593/537/259 588/532/270
f 597/541/256 593/537/259 596/540/256
f 598/542/275 599/543/276 600/544/277
f 598/542/275 601/545/278 599/543/276
f 600/544/277 599/543/276 602/546/279
f 599/543/276 601/545/278 603/547/280
f 600/544/277 604/548/256 598/542/275
f 602/546/279 605/549/281 600/544/277
f 606/550/256 604/548/256 600/544/277
f 607/551/282 605/549/281 602/546/279
f 605/549/281 608/552/256 600/544/277
f 607/551/282 609/553/255 605/549/281
f 610/554/256 608/552/256 605/549/281
f 611/555/255 609/553/255 607/551/282
f 605/549/281 609/553/255 612/556/256
f 612/556/256 609/553/255 613/557/283
f 614/558/284 615/559/285 616/560/286
f 617/561/287 614/558/284 616/560/286
f 616/560/286 615/559/285 618/562/288
f 619/563/289 614/558/284 617/561/287
f 620/564/261 618/562/288 615/559/285
f 621/565/289 619/563/289 617/561/287
f 614/558/284 622/566/256 615/559/285
f 623/567/290 618/562/288 620/564/261
f 624/568/289 619/563/289 621/565/289
f 615/559/285 622/566/256 625/569/291
f 615/559/285 626/570/291 620/564/261
f 620/564/261 626/570/291 627/571/268
f 628/572/292 624/568/289 621/565/289
f 624/568/289 629/573/256 619/563/289
f 630/574/293 624/568/289 628/572/292
f 631/575/256 629/573/256 624/568/289
f 632/576/294 633/577/295 634/578/265
f 632/576/294 635/579/296 633/577/295
f 634/578/265 633/577/295 636/580/265
f 637/581/296 635/579/296 632/576/294
f 636/580/265 638/582/265 634/578/265
f 635/579/296 637/581/296 639/583/296
f 634/578/265 640/584/256 632/576/294
f 634/578/265 638/582/265 641/585/265
f 639/583/296 637/581/296 642/586/297
f 643/587/291 640/584/256 634/578/265
f 632/576/294 644/588/256 637/581/296
f 634/578/265 641/585/265 645/589/291
f 642/586/297 646/590/273 639/583/296
f 647/591/256 644/588/256 632/576/294
f 645/589/291 641/585/265 648/592/266
f 649/593/272 646/590/273 642/586/297
f 650/594/256 649/593/272 642/586/297
f 651/595/256 649/593/272 650/594/256
f 652/596/256 653/597/256 654/598/256
f 654/598/256 655/599/256 652/596/256
f 654/598/256 653/597/256 656/600/256
f 652/596/256 655/599/256 657/601/256
f 656/600/256 658/602/298 654/598/256
f 653/597/256 659/603/256 656/600/256
f 660/604/256 657/601/256 655/599/256
f 661/605/299 658/602/298 656/600/256
f 656/600/256 659/603/256 661/605/299
f 662/606/256 659/603/256 653/597/256
f 663/607/256 657/601/256 660/604/256
f 661/605/299 659/603/256 664/608/300
f 659/603/256 662/606/256 665/609/256
f 666/610/256 663/607/256 660/604/256
f 665/609/256 662/606/256 667/611/256
f 668/612/256 663/607/256 666/610/256
f 665/609/256 667/611/256 669/613/256
f 662/606/256 670/614/296 667/611/256
f 671/615/256 668/612/256 666/610/256
f 669/613/256 672/616/301 665/609/256
f 665/609/256 672/616/301 673/617/300
f 667/611/256 670/614/296 674/618/297
f 675/619/256 668/612/256 671/615/256
f 669/613/256 667/611/256 676/620/256
f 671/615/256 677/621/256 675/619/256
f 678/622/256 677/621/256 671/615/256
f 676/620/256 679/623/291 669/613/256
f 669/613/256 679/623/291 680/624/291
f 680/624/291 679/623/291 681/625/266
f 681/625/266 679/623/291 682/626/266
f 682/626/266 683/627/268 681/625/266
f 681/625/266 683/627/268 684/628/266
