# Blender 4.1.1
# www.blender.org
mtllib top.mtl
o roomShell_room:GUI_BonnieRoom_WhiteCeiling
v 0.103417 0.095296 -0.055824
v 0.103416 0.102271 -0.058542
v 0.103409 0.095309 -0.075623
v 0.103406 0.102280 -0.083197
v 0.103406 0.084229 -0.083229
v 0.103409 0.084241 -0.075623
v 0.103406 0.069678 -0.083215
v 0.103409 0.069623 -0.075623
v 0.103415 0.056826 -0.083208
v 0.103422 0.102266 -0.047390
v 0.103409 0.056806 -0.075623
v 0.103421 0.095289 -0.047390
v 0.103430 0.095276 -0.031808
v 0.103432 0.102257 -0.026206
v 0.103434 0.095269 -0.023168
v 0.103438 0.102253 -0.016052
v 0.103438 0.084932 -0.014854
v 0.103434 0.084970 -0.023168
v 0.103434 0.069721 -0.023168
v 0.103438 0.069717 -0.014857
v 0.103434 0.056739 -0.023168
v 0.103451 0.056670 -0.014890
v 0.103406 0.102280 -0.083197
v 0.105992 0.102276 -0.083202
v 0.103406 0.084229 -0.083229
v 0.105992 0.084222 -0.083218
v 0.114079 0.095309 -0.075623
v 0.114088 0.095296 -0.055824
v 0.103409 0.095309 -0.075623
v 0.103417 0.095296 -0.055824
v 0.103421 0.095289 -0.047390
v 0.114092 0.095289 -0.047390
v 0.103430 0.095276 -0.031808
v 0.114100 0.095275 -0.031808
v 0.114104 0.095269 -0.023168
v 0.103434 0.095269 -0.023168
v 0.103406 0.102280 -0.083197
v 0.103416 0.102271 -0.058542
v 0.105992 0.102276 -0.083202
v 0.106001 0.102269 -0.058544
v 0.106006 0.102265 -0.047390
v 0.103422 0.102266 -0.047390
v 0.114079 0.084241 -0.075623
v 0.114079 0.095309 -0.075623
v 0.103409 0.084241 -0.075623
v 0.103409 0.069623 -0.075623
v 0.103409 0.095309 -0.075623
v 0.114079 0.069623 -0.075623
v 0.103409 0.056806 -0.075623
v 0.114079 0.056806 -0.075623
v 0.103438 0.102253 -0.016052
v 0.103438 0.084932 -0.014854
v 0.106021 0.102255 -0.016032
v 0.106025 0.084922 -0.014850
v 0.114104 0.095269 -0.023168
v 0.114104 0.084970 -0.023168
v 0.103434 0.095269 -0.023168
v 0.103434 0.084970 -0.023168
v 0.114104 0.069721 -0.023168
v 0.103434 0.069721 -0.023168
v 0.114104 0.056739 -0.023168
v 0.103434 0.056739 -0.023168
v 0.103406 0.069678 -0.083215
v 0.105992 0.069682 -0.083211
v 0.103415 0.056826 -0.083208
v 0.106034 0.056826 -0.083208
v 0.103406 0.084229 -0.083229
v 0.105992 0.084222 -0.083218
v 0.103406 0.069678 -0.083215
v 0.105992 0.069682 -0.083211
v 0.103438 0.069717 -0.014857
v 0.103451 0.056670 -0.014890
v 0.106029 0.069712 -0.014854
v 0.106033 0.056670 -0.014890
v 0.103438 0.084932 -0.014854
v 0.103438 0.069717 -0.014857
v 0.106025 0.084922 -0.014850
v 0.106029 0.069712 -0.014854
v 0.104263 0.172469 -0.098949
v 0.106044 0.172469 -0.098949
v 0.104253 0.172483 -0.078482
v 0.106058 0.172450 -0.127520
v 0.106034 0.172483 -0.078482
v 0.104277 0.172450 -0.127520
v 0.104251 0.172477 -0.058545
v 0.106061 0.172446 -0.143327
v 0.106033 0.172477 -0.058545
v 0.104280 0.172446 -0.143327
v 0.104250 0.172473 -0.047390
v 0.106068 0.172436 -0.183008
v 0.106033 0.172473 -0.047390
v 0.104287 0.172436 -0.183008
v 0.104249 0.172467 -0.026169
v 0.106074 0.172427 -0.216288
v 0.106033 0.172467 -0.026170
v 0.104294 0.172427 -0.216288
v 0.104248 0.172464 -0.015997
v 0.106080 0.172420 -0.246879
v 0.106033 0.172464 -0.015999
v 0.104299 0.172420 -0.246879
v 0.104247 0.172459 0.009452
v 0.106083 0.172416 -0.262900
v 0.104302 0.172416 -0.262900
v 0.106033 0.172459 0.009451
v 0.104246 0.172456 0.047993
v 0.106033 0.172456 0.047992
v 0.104245 0.172452 0.099561
v 0.106033 0.172452 0.099560
v 0.104244 0.172450 0.128152
v 0.106033 0.172450 0.128152
v 0.104253 0.180428 -0.078482
v 0.104263 0.180431 -0.098949
v 0.104253 0.172483 -0.078482
v 0.104254 0.180430 -0.058545
v 0.104263 0.172469 -0.098949
v 0.104251 0.172477 -0.058545
v 0.104277 0.172450 -0.127520
v 0.104255 0.180430 -0.047390
v 0.104277 0.180436 -0.127520
v 0.104250 0.172473 -0.047390
v 0.104280 0.172446 -0.143327
v 0.104256 0.180432 -0.026169
v 0.104280 0.180437 -0.143327
v 0.104249 0.172467 -0.026169
v 0.104287 0.172436 -0.183008
v 0.104256 0.180433 -0.015997
v 0.104287 0.180440 -0.183008
v 0.104248 0.172464 -0.015997
v 0.104294 0.172427 -0.216288
v 0.104257 0.180434 0.009452
v 0.104294 0.180442 -0.216288
v 0.104247 0.172459 0.009452
v 0.104299 0.172420 -0.246879
v 0.104258 0.180435 0.047993
v 0.104299 0.180444 -0.246879
v 0.104246 0.172456 0.047993
v 0.104302 0.172416 -0.262900
v 0.104302 0.180445 -0.262900
v 0.104259 0.180436 0.099561
v 0.104245 0.172452 0.099561
v 0.104259 0.180437 0.128152
v 0.104244 0.172450 0.128152
v 0.103748 0.180431 -0.098949
v 0.104263 0.180431 -0.098949
v 0.103738 0.180428 -0.078482
v 0.104277 0.180436 -0.127520
v 0.104253 0.180428 -0.078482
v 0.103762 0.180436 -0.127520
v 0.103739 0.180430 -0.058545
v 0.104280 0.180437 -0.143327
v 0.104254 0.180430 -0.058545
v 0.103765 0.180437 -0.143327
v 0.103739 0.180430 -0.047390
v 0.104287 0.180440 -0.183008
v 0.104255 0.180430 -0.047390
v 0.103772 0.180440 -0.183008
v 0.103740 0.180432 -0.026169
v 0.104294 0.180442 -0.216288
v 0.104256 0.180432 -0.026169
v 0.103778 0.180442 -0.216288
v 0.103741 0.180433 -0.015997
v 0.104299 0.180444 -0.246879
v 0.104256 0.180433 -0.015997
v 0.103784 0.180444 -0.246879
v 0.103741 0.180434 0.009453
v 0.104302 0.180445 -0.262900
v 0.103787 0.180445 -0.262900
v 0.104257 0.180434 0.009452
v 0.103742 0.180435 0.047993
v 0.104258 0.180435 0.047993
v 0.103743 0.180436 0.099561
v 0.104259 0.180436 0.099561
v 0.103743 0.180436 0.128152
v 0.104259 0.180437 0.128152
v 0.103465 0.181259 -0.098949
v 0.103748 0.180431 -0.098949
v 0.103455 0.181255 -0.078482
v 0.102899 0.181901 -0.098949
v 0.103738 0.180428 -0.078482
v 0.102889 0.181895 -0.078482
v 0.103479 0.181263 -0.127520
v 0.103762 0.180436 -0.127520
v 0.103454 0.181257 -0.058545
v 0.101748 0.182224 -0.098949
v 0.103765 0.180437 -0.143327
v 0.102885 0.181898 -0.058545
v 0.101738 0.182217 -0.078482
v 0.103482 0.181264 -0.143327
v 0.101737 0.182220 -0.058545
v 0.103739 0.180430 -0.058545
v 0.103772 0.180440 -0.183008
v 0.103454 0.181258 -0.047390
v 0.102883 0.181899 -0.047390
v 0.101736 0.182222 -0.047390
v 0.103489 0.181267 -0.183008
v 0.103739 0.180430 -0.047390
v 0.103778 0.180442 -0.216288
v 0.102879 0.181902 -0.026168
v 0.103453 0.181259 -0.026168
v 0.101734 0.182226 -0.026167
v 0.103495 0.181269 -0.216288
v 0.103740 0.180432 -0.026169
v 0.103784 0.180444 -0.246879
v 0.103453 0.181260 -0.015997
v 0.101734 0.182227 -0.015995
v 0.103501 0.181271 -0.246879
v 0.102877 0.181903 -0.015996
v 0.103741 0.180433 -0.015997
v 0.103787 0.180445 -0.262900
v 0.102874 0.181905 0.009453
v 0.103452 0.181261 0.009453
v 0.101733 0.182230 0.009454
v 0.103504 0.181272 -0.262900
v 0.103452 0.181261 0.009453
v 0.103741 0.180434 0.009453
v 0.102935 0.181920 -0.246879
v 0.102872 0.181906 0.047993
v 0.103452 0.181262 0.047993
v 0.102930 0.181917 -0.216288
v 0.102938 0.181921 -0.262900
v 0.103452 0.181262 0.047993
v 0.103742 0.180435 0.047993
v 0.102869 0.181908 0.099561
v 0.103451 0.181263 0.099561
v 0.102924 0.181913 -0.183008
v 0.101784 0.182250 -0.246879
v 0.103451 0.181263 0.099561
v 0.101778 0.182246 -0.216288
v 0.101787 0.182252 -0.262900
v 0.102916 0.181910 -0.143327
v 0.101772 0.182242 -0.183008
v 0.102868 0.181908 0.128152
v 0.101765 0.182236 -0.143327
v 0.103451 0.181264 0.128152
v 0.102914 0.181908 -0.127520
v 0.101762 0.182234 -0.127520
v 0.101731 0.182235 0.128152
v 0.102869 0.181908 0.099561
v 0.103743 0.180436 0.099561
v 0.101731 0.182234 0.099561
v 0.103743 0.180436 0.128152
v 0.102872 0.181906 0.047993
v 0.101732 0.182231 0.047994
v 0.102874 0.181905 0.009453
v 0.101738 0.182922 -0.078482
v 0.101748 0.182931 -0.098949
v 0.101738 0.182217 -0.078482
v 0.101748 0.182224 -0.098949
v 0.101762 0.182944 -0.127520
v 0.101762 0.182234 -0.127520
v 0.101765 0.182946 -0.143327
v 0.101765 0.182236 -0.143327
v 0.101772 0.182953 -0.183008
v 0.101772 0.182242 -0.183008
v 0.101778 0.182958 -0.216288
v 0.101778 0.182246 -0.216288
v 0.101784 0.182963 -0.246879
v 0.101784 0.182250 -0.246879
v 0.101787 0.182965 -0.262900
v 0.101787 0.182252 -0.262900
v 0.101738 0.182922 -0.078482
v 0.101738 0.182217 -0.078482
v 0.101736 0.182926 -0.058545
v 0.101737 0.182220 -0.058545
v 0.101735 0.182929 -0.047390
v 0.101736 0.182222 -0.047390
v 0.101731 0.182938 0.009454
v 0.101733 0.182230 0.009454
v 0.101730 0.182940 0.047994
v 0.101734 0.182227 -0.015995
v 0.101732 0.182935 -0.015995
v 0.101732 0.182231 0.047994
v 0.101729 0.182943 0.099561
v 0.101731 0.182234 0.099561
v 0.101728 0.182944 0.128152
v 0.101731 0.182235 0.128152
v 0.103432 0.102257 -0.026206
v 0.103438 0.102253 -0.016052
v 0.106016 0.102258 -0.026192
v 0.106006 0.102265 -0.047390
v 0.106021 0.102255 -0.016032
v 0.103422 0.102266 -0.047390
v 0.101734 0.182226 -0.026167
v 0.101734 0.182227 -0.015995
v 0.101733 0.182933 -0.026167
v 0.101735 0.182929 -0.047390
v 0.101732 0.182935 -0.015995
v 0.101736 0.182222 -0.047390
vn -1.0000 -0.0000 0.0005
vn -1.0000 -0.0000 0.0004
vn -1.0000 0.0002 0.0007
vn -1.0000 -0.0002 -0.0001
vn -1.0000 -0.0001 -0.0001
vn -1.0000 -0.0002 -0.0002
vn -1.0000 -0.0002 0.0012
vn -1.0000 -0.0002 0.0011
vn -1.0000 -0.0003 0.0013
vn 0.0010 0.0009 -1.0000
vn -0.0000 -1.0000 -0.0010
vn -0.0000 -1.0000 -0.0007
vn -0.0000 -1.0000 -0.0009
vn -0.0000 -1.0000 -0.0008
vn -0.0000 -1.0000 -0.0011
vn 0.0010 1.0000 0.0004
vn 0.0008 1.0000 0.0003
vn 0.0009 1.0000 0.0004
vn -0.0000 -0.0000 1.0000
vn -0.0046 0.0008 1.0000
vn -0.0000 -0.0000 -1.0000
vn 0.0007 -0.0002 -1.0000
vn 0.0006 -0.0002 -1.0000
vn 0.0027 -0.0004 -1.0000
vn 0.0026 -0.0003 -1.0000
vn 0.0028 -0.0004 -1.0000
vn -0.0006 -0.0013 1.0000
vn -0.0006 -0.0012 1.0000
vn -0.0012 -0.0000 1.0000
vn -0.0016 0.0001 1.0000
vn -0.0000 -1.0000 0.0007
vn -0.0000 -1.0000 0.0005
vn -0.0000 -1.0000 -0.0003
vn -0.0000 -1.0000 0.0003
vn -0.0000 -1.0000 -0.0002
vn -0.0000 -1.0000 -0.0001
vn -1.0000 -0.0000 -0.0007
vn -1.0000 -0.0000 -0.0005
vn -1.0000 -0.0000 -0.0006
vn -1.0000 0.0003 -0.0000
vn -1.0000 0.0004 -0.0000
vn -1.0000 -0.0000 -0.0003
vn -1.0000 0.0002 -0.0000
vn -1.0000 0.0006 -0.0000
vn -1.0000 -0.0000 -0.0002
vn -1.0000 0.0008 -0.0000
vn -1.0000 0.0009 -0.0000
vn -1.0000 0.0005 -0.0000
vn -1.0000 0.0013 -0.0000
vn -1.0000 0.0015 -0.0000
vn -1.0000 0.0017 -0.0000
vn 0.0001 -1.0000 -0.0002
vn -0.0000 -1.0000 -0.0000
vn 0.0001 -1.0000 -0.0001
vn -0.0000 -1.0000 0.0001
vn 0.0001 -1.0000 -0.0000
vn -0.8649 -0.5019 -0.0005
vn -0.9462 -0.3235 -0.0005
vn -0.5323 -0.8466 -0.0005
vn -0.9462 -0.3235 -0.0003
vn -0.7505 -0.6608 -0.0005
vn -0.9462 -0.3236 -0.0005
vn -0.9462 -0.3235 -0.0004
vn -0.8637 -0.5040 -0.0000
vn -0.2705 -0.9627 -0.0004
vn -0.9462 -0.3235 -0.0002
vn -0.5306 -0.8476 -0.0000
vn -0.2708 -0.9626 -0.0004
vn -0.8656 -0.5008 -0.0002
vn -0.2702 -0.9628 0.0001
vn -0.9457 -0.3250 -0.0000
vn -0.7483 -0.6634 -0.0000
vn -0.2700 -0.9629 0.0001
vn -0.8658 -0.5004 -0.0002
vn -0.5301 -0.8480 -0.0000
vn -0.8619 -0.5071 -0.0000
vn -0.2719 -0.9623 0.0001
vn -0.8660 -0.5000 -0.0002
vn -0.9447 -0.3278 -0.0000
vn -0.9462 -0.3236 -0.0002
vn -0.9436 -0.3310 -0.0000
vn -0.2744 -0.9616 0.0001
vn -0.8662 -0.4996 -0.0002
vn -0.7433 -0.6690 -0.0000
vn -0.9471 -0.3210 -0.0000
vn -0.7439 -0.6683 -0.0000
vn -0.9439 -0.3302 -0.0000
vn -0.2739 -0.9618 -0.0000
vn -0.9439 -0.3303 -0.0000
vn -0.5369 -0.8436 -0.0002
vn -0.7432 -0.6691 -0.0000
vn -0.9436 -0.3311 -0.0000
vn -0.5362 -0.8441 -0.0002
vn -0.7555 -0.6551 -0.0001
vn -0.7431 -0.6691 -0.0000
vn -0.7425 -0.6698 -0.0000
vn -0.9433 -0.3319 -0.0000
vn -0.5354 -0.8446 -0.0002
vn -0.2760 -0.9612 -0.0002
vn -0.7424 -0.6700 -0.0000
vn -0.2751 -0.9614 -0.0002
vn -0.2732 -0.9619 0.0001
vn -0.5348 -0.8450 -0.0002
vn -0.2742 -0.9617 -0.0002
vn -0.7432 -0.6690 -0.0000
vn -0.2731 -0.9620 -0.0002
vn -0.7506 -0.6608 -0.0005
vn -0.2754 -0.9613 -0.0000
vn -0.9432 -0.3323 -0.0000
vn -0.2745 -0.9616 -0.0000
vn -1.0000 -0.0011 -0.0001
vn -1.0000 -0.0008 -0.0001
vn -1.0000 -0.0006 -0.0001
vn -1.0000 -0.0005 -0.0001
vn -1.0000 -0.0028 -0.0000
vn -1.0000 -0.0032 -0.0000
vn -1.0000 -0.0032 -0.0001
vn -1.0000 -0.0031 -0.0001
vn -1.0000 -0.0037 -0.0000
vn -1.0000 -0.0030 -0.0001
vn -0.0004 1.0000 0.0004
vn -0.0002 1.0000 0.0004
vn -0.0001 1.0000 0.0004
vn -1.0000 -0.0019 -0.0001
vn -1.0000 -0.0012 -0.0001
vn -1.0000 -0.0015 -0.0001
vt 0.669895 0.833094
vt 0.662031 0.868652
vt 0.611231 0.833094
vt 0.587085 0.868652
vt 0.587085 0.727971
vt 0.611231 0.704266
vt 0.587085 0.584709
vt 0.611231 0.573074
vt 0.587085 0.446613
vt 0.703968 0.868652
vt 0.611231 0.446613
vt 0.702721 0.833094
vt 0.764393 0.833094
vt 0.782756 0.868652
vt 0.793953 0.833094
vt 0.820520 0.868652
vt 0.820520 0.737176
vt 0.793953 0.712696
vt 0.793953 0.575574
vt 0.820520 0.587439
vt 0.793953 0.446613
vt 0.820520 0.446613
vt 0.764393 0.833094
vt 1.156652 4.983662
vt 1.875098 4.984441
vt 0.153738 4.982574
vt 2.574905 4.984096
vt -0.024492 4.982352
vt 2.966495 4.983902
vt -0.471907 4.981796
vt 3.711398 4.983535
vt -0.847156 4.981329
vt 3.711357 4.983535
vt 4.068440 4.983358
vt -1.192085 4.980900
vt 4.068381 4.983358
vt 4.514588 4.983106
vt -1.372730 4.980675
vt 4.534356 4.983106
vt 4.827451 4.982928
vt 4.861122 4.982928
vt 5.246068 4.982691
vt 5.298342 4.982691
vt 5.478164 4.982560
vt 5.540753 4.982560
vt 1.875095 5.427366
vt 1.156650 5.427559
vt 2.574904 5.427453
vt 2.966495 5.427501
vt 0.153736 5.427828
vt 3.711396 5.427592
vt -0.024494 5.427883
vt 4.068439 5.427636
vt -0.471907 5.428021
vt 4.514277 5.427698
vt -0.847156 5.428137
vt 4.826921 5.427742
vt -1.192085 5.428244
vt -1.372730 5.428299
vt 5.245247 5.427801
vt 5.477183 5.427833
vt 1.156651 5.427559
vt 0.153739 5.427828
vt -0.024492 5.427882
vt -0.471906 5.428019
vt 3.711406 5.427592
vt -0.847155 5.428134
vt 4.068452 5.427636
vt -1.192085 5.428239
vt 4.508743 5.427697
vt -1.372730 5.428295
vt 4.817498 5.427739
vt 5.230618 5.427796
vt 5.459668 5.427828
vt 1.156650 5.473673
vt 1.875096 5.473481
vt 1.156650 5.509464
vt 1.875096 5.509167
vt 0.153736 5.473942
vt 2.574905 5.473567
vt 1.156651 5.527501
vt 2.574906 5.509302
vt 1.875096 5.527094
vt -0.024494 5.473997
vt 2.574906 5.527276
vt 2.966496 5.473615
vt 2.966497 5.509378
vt 2.966497 5.527378
vt -0.471907 5.474134
vt 3.711426 5.509521
vt 3.711415 5.473707
vt 3.711452 5.527573
vt -0.847156 5.474248
vt 4.068465 5.473750
vt 4.068521 5.527666
vt -1.192085 5.474354
vt 4.068482 5.509590
vt 4.499433 5.509686
vt 4.505562 5.473812
vt 4.486492 5.527799
vt -1.372730 5.474409
vt -1.192083 5.510528
vt 4.801638 5.509753
vt 4.812078 5.473856
vt -0.847155 5.510361
vt -1.372728 5.510614
vt 5.205995 5.509843
vt 5.222201 5.473915
vt -0.471907 5.510180
vt -1.192083 5.528961
vt -0.847154 5.528733
vt -1.372728 5.529080
vt -0.024494 5.509965
vt -0.471906 5.528484
vt 5.430185 5.509893
vt -0.024493 5.528188
vt 5.449589 5.473947
vt 0.153736 5.509879
vt 0.153737 5.528069
vt 5.389214 5.528085
vt 5.171775 5.528016
vt 4.779596 5.527892
vt 1.875098 5.566426
vt 1.156653 5.566923
vt 0.153740 5.567618
vt -0.024491 5.567760
vt -0.471906 5.568117
vt -0.847155 5.568416
vt -1.192085 5.568691
vt -1.372731 5.568835
vt 2.574906 5.566651
vt 2.966496 5.566777
vt 4.486616 5.567285
vt 4.779805 5.567398
vt 4.068522 5.567123
vt 5.172098 5.567549
vt 5.389601 5.567633
vt 3.711453 5.567011
s 1
g roomShell_room:GUI_BonnieRoom_WhiteCeiling_room:GUI_BonnieRoom_WhiteCeiling
usemtl room:GUI_BonnieRoom_WhiteCeiling
f 1/1/1 2/2/2 3/3/3
f 3/3/3 2/2/2 4/4/2
f 4/4/2 5/5/2 3/3/3
f 3/3/3 5/5/2 6/6/2
f 5/5/2 7/7/4 6/6/2
f 6/6/2 7/7/4 8/8/4
f 7/7/4 9/9/5 8/8/4
f 1/1/1 10/10/1 2/2/2
f 8/8/4 9/9/5 11/11/6
f 12/12/1 10/10/1 1/1/1
f 13/13/1 10/10/1 12/12/1
f 14/14/1 10/10/1 13/13/1
f 15/15/1 14/14/1 13/13/1
f 16/16/1 14/14/1 15/15/1
f 16/16/1 15/15/1 17/17/2
f 17/17/2 15/15/1 18/18/2
f 18/18/2 19/19/7 17/17/2
f 17/17/2 19/19/7 20/20/8
f 19/19/7 21/21/7 20/20/8
f 20/20/8 21/21/7 22/22/9
f 23/4/10 24/4/10 25/5/10
f 25/5/10 24/4/10 26/5/10
f 27/3/11 28/1/12 29/3/11
f 29/3/11 28/1/12 30/1/12
f 28/1/12 31/12/13 30/1/12
f 32/12/13 31/12/13 28/1/12
f 32/12/13 33/13/14 31/12/13
f 34/23/14 33/13/14 32/12/13
f 34/23/14 35/15/15 33/13/14
f 33/13/14 35/15/15 36/15/12
f 37/4/16 38/2/17 39/4/18
f 39/4/18 38/2/17 40/2/17
f 40/2/17 38/2/17 41/10/18
f 41/10/18 38/2/17 42/10/16
f 43/6/19 44/3/19 45/6/19
f 46/8/19 43/6/19 45/6/19
f 45/6/19 44/3/19 47/3/19
f 48/8/19 43/6/19 46/8/19
f 49/11/19 48/8/19 46/8/19
f 50/11/19 48/8/19 49/11/19
f 51/16/20 52/17/20 53/16/20
f 53/16/20 52/17/20 54/17/20
f 55/15/21 56/18/21 57/15/21
f 57/15/21 56/18/21 58/18/21
f 56/18/21 59/19/21 58/18/21
f 58/18/21 59/19/21 60/19/21
f 59/19/21 61/21/21 60/19/21
f 60/19/21 61/21/21 62/21/21
f 63/7/22 64/7/22 65/9/23
f 65/9/23 64/7/22 66/9/23
f 67/5/24 68/5/25 69/7/26
f 69/7/26 68/5/25 70/7/26
f 71/20/27 72/22/27 73/20/28
f 73/20/28 72/22/27 74/22/28
f 75/17/29 76/20/30 77/17/29
f 77/17/29 76/20/30 78/20/30
f 79/24/31 80/24/31 81/25/31
f 79/24/31 82/26/32 80/24/31
f 81/25/31 80/24/31 83/25/31
f 84/26/32 82/26/32 79/24/31
f 81/25/31 83/25/31 85/27/33
f 84/26/32 86/28/34 82/26/32
f 85/27/33 83/25/31 87/27/33
f 88/28/34 86/28/34 84/26/32
f 85/27/33 87/27/33 89/29/33
f 88/28/34 90/30/34 86/28/34
f 89/29/33 87/27/33 91/29/33
f 92/30/34 90/30/34 88/28/34
f 89/29/33 91/29/33 93/31/33
f 92/30/34 94/32/34 90/30/34
f 93/31/33 91/29/33 95/33/33
f 96/32/34 94/32/34 92/30/34
f 93/31/33 95/33/33 97/34/35
f 96/32/34 98/35/34 94/32/34
f 97/34/35 95/33/33 99/36/35
f 100/35/34 98/35/34 96/32/34
f 97/34/35 99/36/35 101/37/36
f 100/35/34 102/38/31 98/35/34
f 103/38/31 102/38/31 100/35/34
f 101/37/36 99/36/35 104/39/36
f 101/37/36 104/39/36 105/40/36
f 105/40/36 104/39/36 106/41/36
f 105/40/36 106/41/36 107/42/36
f 107/42/36 106/41/36 108/43/36
f 107/42/36 108/43/36 109/44/36
f 109/44/36 108/43/36 110/45/36
f 111/46/37 112/47/38 113/25/39
f 111/46/37 113/25/39 114/48/40
f 113/25/39 112/47/38 115/24/38
f 114/48/40 113/25/39 116/27/41
f 115/24/38 112/47/38 117/26/42
f 114/48/40 116/27/41 118/49/43
f 117/26/42 112/47/38 119/50/42
f 118/49/43 116/27/41 120/29/44
f 117/26/42 119/50/42 121/28/45
f 118/49/43 120/29/44 122/51/46
f 121/28/45 119/50/42 123/52/45
f 122/51/46 120/29/44 124/31/47
f 121/28/45 123/52/45 125/30/45
f 122/51/46 124/31/47 126/53/48
f 125/30/45 123/52/45 127/54/45
f 126/53/48 124/31/47 128/34/48
f 125/30/45 127/54/45 129/32/45
f 126/53/48 128/34/48 130/55/49
f 129/32/45 127/54/45 131/56/45
f 130/55/49 128/34/48 132/37/49
f 129/32/45 131/56/45 133/35/45
f 130/55/49 132/37/49 134/57/50
f 133/35/45 131/56/45 135/58/45
f 134/57/50 132/37/49 136/40/50
f 133/35/45 135/58/45 137/38/38
f 137/38/38 135/58/45 138/59/38
f 134/57/50 136/40/50 139/60/51
f 139/60/51 136/40/50 140/42/51
f 139/60/51 140/42/51 141/61/50
f 141/61/50 140/42/51 142/44/50
f 143/62/52 144/47/52 145/46/53
f 143/62/52 146/50/54 144/47/52
f 145/46/53 144/47/52 147/46/53
f 148/63/54 146/50/54 143/62/52
f 145/46/53 147/46/53 149/48/55
f 148/63/54 150/52/54 146/50/54
f 149/48/55 147/46/53 151/48/55
f 152/64/54 150/52/54 148/63/54
f 149/48/55 151/48/55 153/49/55
f 152/64/54 154/54/54 150/52/54
f 153/49/55 151/48/55 155/49/55
f 156/65/54 154/54/54 152/64/54
f 153/49/55 155/49/55 157/66/55
f 156/65/54 158/56/54 154/54/54
f 157/66/55 155/49/55 159/51/55
f 160/67/54 158/56/54 156/65/54
f 157/66/55 159/51/55 161/68/55
f 160/67/54 162/58/54 158/56/54
f 161/68/55 159/51/55 163/53/55
f 164/69/54 162/58/54 160/67/54
f 161/68/55 163/53/55 165/70/53
f 164/69/54 166/59/54 162/58/54
f 167/71/54 166/59/54 164/69/54
f 165/70/53 163/53/55 168/55/53
f 165/70/53 168/55/53 169/72/53
f 169/72/53 168/55/53 170/57/53
f 169/72/53 170/57/53 171/73/56
f 171/73/56 170/57/53 172/60/56
f 171/73/56 172/60/56 173/74/56
f 173/74/56 172/60/56 174/61/56
f 175/75/57 176/62/58 177/76/58
f 177/76/58 178/77/59 175/75/57
f 177/76/58 176/62/58 179/46/60
f 180/78/61 178/77/59 177/76/58
f 175/75/57 178/77/59 181/79/62
f 175/75/57 182/63/63 176/62/58
f 181/79/62 182/63/63 175/75/57
f 177/76/58 179/46/60 183/80/64
f 180/78/61 184/81/65 178/77/59
f 181/79/62 185/64/66 182/63/63
f 180/78/61 177/76/58 186/82/67
f 186/82/67 177/76/58 183/80/64
f 187/83/68 184/81/65 180/78/61
f 188/84/69 185/64/66 181/79/62
f 189/85/70 180/78/61 186/82/67
f 183/80/64 179/46/60 190/48/71
f 187/83/68 180/78/61 189/85/70
f 188/84/69 191/65/66 185/64/66
f 183/80/64 190/48/71 192/86/72
f 186/82/67 183/80/64 193/87/73
f 189/85/70 186/82/67 194/88/73
f 195/89/74 191/65/66 188/84/69
f 193/87/73 183/80/64 192/86/72
f 192/86/72 190/48/71 196/49/71
f 194/88/73 186/82/67 193/87/73
f 195/89/74 197/67/66 191/65/66
f 193/87/73 192/86/72 198/90/75
f 192/86/72 196/49/71 199/91/76
f 194/88/73 193/87/73 200/92/77
f 201/93/78 197/67/66 195/89/74
f 198/90/75 192/86/72 199/91/76
f 199/91/76 196/49/71 202/66/79
f 200/92/77 193/87/73 198/90/75
f 201/93/78 203/69/80 197/67/66
f 199/91/76 202/66/79 204/94/81
f 200/92/77 198/90/75 205/95/82
f 206/96/83 203/69/80 201/93/78
f 198/90/75 199/91/76 207/97/84
f 207/97/84 199/91/76 204/94/81
f 204/94/81 202/66/79 208/68/81
f 205/95/82 198/90/75 207/97/84
f 206/96/83 209/71/85 203/69/80
f 207/97/84 204/94/81 210/98/86
f 204/94/81 208/68/81 211/99/87
f 205/95/82 207/97/84 212/100/88
f 213/101/85 209/71/85 206/96/83
f 210/98/86 204/94/81 214/99/86
f 211/99/87 208/68/81 215/70/89
f 206/96/83 216/102/90 213/101/85
f 210/98/86 214/99/86 217/103/91
f 211/99/87 215/70/89 218/104/92
f 206/96/83 219/105/93 216/102/90
f 213/101/85 216/102/90 220/106/94
f 217/103/91 214/99/86 221/104/95
f 218/104/92 215/70/89 222/72/92
f 201/93/78 219/105/93 206/96/83
f 217/103/91 221/104/95 223/107/96
f 218/104/92 222/72/92 224/108/97
f 201/93/78 225/109/98 219/105/93
f 216/102/90 226/110/99 220/106/94
f 223/107/96 221/104/95 227/108/100
f 195/89/74 225/109/98 201/93/78
f 219/105/93 228/111/101 216/102/90
f 216/102/90 228/111/101 226/110/99
f 220/106/94 226/110/99 229/112/102
f 195/89/74 230/113/103 225/109/98
f 225/109/98 231/114/104 219/105/93
f 219/105/93 231/114/104 228/111/101
f 223/107/96 227/108/100 232/115/105
f 188/84/69 230/113/103 195/89/74
f 230/113/103 233/116/106 225/109/98
f 225/109/98 233/116/106 231/114/104
f 232/115/105 227/108/100 234/117/81
f 188/84/69 235/118/107 230/113/103
f 230/113/103 236/119/68 233/116/106
f 235/118/107 236/119/68 230/113/103
f 181/79/62 235/118/107 188/84/69
f 237/120/82 238/107/108 232/115/84
f 224/108/97 239/73/109 234/117/81
f 181/79/62 178/77/59 235/118/107
f 240/121/108 238/107/108 237/120/82
f 224/108/97 222/72/92 239/73/109
f 234/117/81 239/73/109 241/74/81
f 178/77/59 184/81/65 235/118/107
f 235/118/107 184/81/65 236/119/68
f 240/121/108 242/103/110 238/107/108
f 243/122/110 242/103/110 240/121/108
f 243/122/110 244/98/88 242/103/110
f 212/100/88 244/98/88 243/122/110
f 212/100/88 207/97/84 244/98/88
f 245/123/38 246/124/38 247/83/38
f 247/83/38 246/124/38 248/81/38
f 246/124/38 249/125/42 248/81/38
f 248/81/38 249/125/42 250/119/42
f 249/125/42 251/126/45 250/119/42
f 250/119/42 251/126/45 252/116/45
f 251/126/45 253/127/45 252/116/45
f 252/116/45 253/127/45 254/114/45
f 253/127/45 255/128/45 254/114/45
f 254/114/45 255/128/45 256/111/45
f 255/128/45 257/129/45 256/111/45
f 256/111/45 257/129/45 258/110/45
f 257/129/45 259/130/38 258/110/45
f 258/110/45 259/130/38 260/112/37
f 261/123/111 262/83/111 263/131/112
f 263/131/112 262/83/111 264/85/112
f 263/131/112 264/85/112 265/132/113
f 265/132/113 264/85/112 266/88/114
f 267/133/115 268/100/115 269/134/116
f 267/133/115 270/95/117 268/100/115
f 271/135/118 270/95/117 267/133/115
f 269/134/116 268/100/115 272/122/116
f 269/134/116 272/122/116 273/136/119
f 273/136/119 272/122/116 274/121/119
f 273/136/119 274/121/119 275/137/120
f 275/137/120 274/121/119 276/120/120
f 277/14/121 278/16/122 279/14/123
f 280/10/121 277/14/121 279/14/123
f 279/14/123 278/16/122 281/16/122
f 282/10/121 277/14/121 280/10/121
f 283/92/124 284/95/125 285/138/124
f 286/132/126 283/92/124 285/138/124
f 285/138/124 284/95/125 287/135/125
f 288/88/126 283/92/124 286/132/126
