# Blender 4.1.1
# www.blender.org
mtllib Wallso2bj.mtl
o ShadowBox_room:pieces:White
v -0.155964 0.086784 0.126355
v 0.012029 0.086784 0.126355
v -0.155944 0.183890 0.126506
v 0.011950 0.183890 0.126506
v 0.059112 0.183890 0.126506
v 0.059219 0.086784 0.126355
v 0.012069 0.038517 0.126280
v 0.059273 0.038517 0.126280
v -0.155974 0.038517 0.126280
v 0.108090 0.183890 0.126506
v 0.108227 0.086784 0.126355
v 0.012105 -0.005775 0.126211
v 0.108295 0.038517 0.126280
v -0.155983 -0.005775 0.126211
v 0.059322 -0.005775 0.126211
v 0.108357 -0.005775 0.126211
v -0.155944 0.183890 0.126506
v 0.011950 0.183890 0.126506
v -0.155944 0.183890 0.006509
v 0.011950 0.183890 0.006509
v 0.011950 0.183890 -0.028999
v 0.059112 0.183890 0.126506
v -0.155944 0.183890 -0.028999
v 0.059112 0.183890 0.006509
v 0.059112 0.183890 -0.028999
v 0.011950 0.183890 -0.264609
v 0.108090 0.183890 0.126506
v 0.108090 0.183890 -0.028999
v 0.059112 0.183890 -0.264609
v -0.155944 0.183890 -0.264609
v 0.108090 0.183890 0.006509
v 0.108090 0.183890 -0.264609
v -0.155944 0.183890 -0.264609
v 0.011950 0.183890 -0.264609
v -0.155964 0.086784 -0.264676
v 0.012029 0.086784 -0.264676
v 0.012069 0.038517 -0.264709
v 0.059112 0.183890 -0.264609
v -0.155974 0.038517 -0.264709
v 0.059219 0.086784 -0.264676
v 0.012105 -0.005775 -0.264739
v 0.108090 0.183890 -0.264609
v 0.059273 0.038517 -0.264709
v -0.155983 -0.005775 -0.264739
v 0.108227 0.086784 -0.264676
v 0.059322 -0.005775 -0.264739
v 0.108295 0.038517 -0.264709
v 0.108357 -0.005775 -0.264739
v 0.108227 0.094181 -0.023070
v 0.108090 0.183890 0.006509
v 0.108227 0.086784 0.126355
v 0.108090 0.183890 -0.028999
v 0.108090 0.183890 0.126506
v 0.108227 0.094181 -0.075322
v 0.108295 0.044623 -0.023137
v 0.108090 0.183890 -0.264609
v 0.108295 0.038517 0.126280
v 0.108227 0.086784 -0.264676
v 0.108357 -0.005775 0.006247
v 0.108295 0.044623 -0.075383
v 0.108357 -0.005775 0.126211
v 0.108357 -0.005775 -0.029239
v 0.108295 0.038517 -0.264709
v 0.108357 -0.005775 -0.264739
v -0.155964 0.086784 0.006375
v -0.155964 0.086784 0.126355
v -0.155944 0.183890 0.006509
v -0.155944 0.183890 -0.028999
v -0.155944 0.183890 0.126506
v -0.155964 0.086784 -0.029122
v -0.155974 0.038517 0.126280
v -0.155944 0.183890 -0.264609
v -0.155974 0.038517 0.006309
v -0.155964 0.086784 -0.264676
v -0.155983 -0.005775 0.126211
v -0.155974 0.038517 -0.029183
v -0.155983 -0.005775 0.006248
v -0.155974 0.038517 -0.264709
v -0.155983 -0.005775 -0.029239
v -0.155983 -0.005775 -0.264739
vn -0.0000 0.0016 -1.0000
vn -0.0000 -1.0000 -0.0000
vn -0.0000 -0.0007 1.0000
vn -1.0000 -0.0015 -0.0000
vn -1.0000 -0.0014 -0.0000
vn -1.0000 -0.0013 -0.0000
vn -1.0000 -0.0014 0.0001
vn -1.0000 -0.0009 -0.0001
vn -1.0000 -0.0012 -0.0000
vn -1.0000 -0.0009 -0.0000
vn 1.0000 -0.0002 -0.0000
vt 0.375000 0.122003
vt 0.375000 0.250000
vt 0.533970 0.122003
vt 0.533970 0.250000
vt 0.578624 0.250000
vt 0.578624 0.122003
vt 0.533970 0.058382
vt 0.578624 0.058382
vt 0.375000 0.058382
vt 0.625000 0.250000
vt 0.625000 0.122003
vt 0.533970 0.000000
vt 0.625000 0.058382
vt 0.375000 0.000000
vt 0.578624 0.000000
vt 0.625000 0.000000
vt 0.375000 0.299957
vt 0.533970 0.299957
vt 0.533970 0.333480
vt 0.375000 0.333480
vt 0.578624 0.299957
vt 0.578624 0.333480
vt 0.533970 0.500000
vt 0.625000 0.333480
vt 0.578624 0.500000
vt 0.375000 0.500000
vt 0.625000 0.299957
vt 0.625000 0.500000
vt 0.375000 0.627997
vt 0.533970 0.627997
vt 0.533970 0.691618
vt 0.375000 0.691618
vt 0.578624 0.627997
vt 0.533970 0.750000
vt 0.578624 0.691618
vt 0.375000 0.750000
vt 0.625000 0.627997
vt 0.578624 0.750000
vt 0.625000 0.691618
vt 0.625000 0.750000
vt 0.674957 0.122003
vt 0.674957 0.250000
vt 0.708481 0.250000
vt 0.708481 0.122003
vt 0.674957 0.058382
vt 0.875000 0.250000
vt 0.875000 0.122003
vt 0.674957 0.000000
vt 0.708481 0.058382
vt 0.708481 0.000000
vt 0.875000 0.058382
vt 0.875000 0.000000
vt 0.325043 0.122003
vt 0.325043 0.250000
vt 0.291519 0.250000
vt 0.291519 0.122003
vt 0.125000 0.250000
vt 0.325043 0.058382
vt 0.125000 0.122003
vt 0.291519 0.058382
vt 0.325043 0.000000
vt 0.125000 0.058382
vt 0.291519 0.000000
vt 0.125000 0.000000
s 1
g ShadowBox_room:pieces:White_room:pieces:White
usemtl room:pieces:White
f 1/1/1 3/2/1 2/3/1
f 3/2/1 4/4/1 2/3/1
f 2/3/1 4/4/1 5/5/1
f 6/6/1 2/3/1 5/5/1
f 7/7/1 2/3/1 6/6/1
f 1/1/1 2/3/1 7/7/1
f 8/8/1 7/7/1 6/6/1
f 9/9/1 1/1/1 7/7/1
f 6/6/1 5/5/1 10/10/1
f 8/8/1 6/6/1 11/11/1
f 11/11/1 6/6/1 10/10/1
f 9/9/1 7/7/1 12/12/1
f 12/12/1 7/7/1 8/8/1
f 13/13/1 8/8/1 11/11/1
f 14/14/1 9/9/1 12/12/1
f 15/15/1 8/8/1 13/13/1
f 15/15/1 12/12/1 8/8/1
f 16/16/1 15/15/1 13/13/1
f 17/2/2 19/17/2 18/4/2
f 19/17/2 20/18/2 18/4/2
f 20/18/2 19/17/2 21/19/2
f 18/4/2 20/18/2 22/5/2
f 19/17/2 23/20/2 21/19/2
f 20/18/2 24/21/2 22/5/2
f 20/18/2 21/19/2 25/22/2
f 24/21/2 20/18/2 25/22/2
f 21/19/2 23/20/2 26/23/2
f 22/5/2 24/21/2 27/10/2
f 24/21/2 25/22/2 28/24/2
f 25/22/2 21/19/2 29/25/2
f 21/19/2 26/23/2 29/25/2
f 23/20/2 30/26/2 26/23/2
f 24/21/2 31/27/2 27/10/2
f 31/27/2 24/21/2 28/24/2
f 28/24/2 25/22/2 32/28/2
f 25/22/2 29/25/2 32/28/2
f 33/26/3 35/29/3 34/23/3
f 35/29/3 36/30/3 34/23/3
f 36/30/3 35/29/3 37/31/3
f 34/23/3 36/30/3 38/25/3
f 35/29/3 39/32/3 37/31/3
f 36/30/3 40/33/3 38/25/3
f 40/33/3 36/30/3 37/31/3
f 37/31/3 39/32/3 41/34/3
f 38/25/3 40/33/3 42/28/3
f 43/35/3 40/33/3 37/31/3
f 43/35/3 37/31/3 41/34/3
f 39/32/3 44/36/3 41/34/3
f 40/33/3 45/37/3 42/28/3
f 45/37/3 40/33/3 43/35/3
f 46/38/3 43/35/3 41/34/3
f 47/39/3 45/37/3 43/35/3
f 47/39/3 43/35/3 46/38/3
f 48/40/3 47/39/3 46/38/3
f 49/41/4 51/11/5 50/42/4
f 49/41/4 50/42/4 52/43/4
f 51/11/5 53/10/5 50/42/4
f 54/44/4 49/41/4 52/43/4
f 51/11/5 49/41/4 55/45/6
f 54/44/4 52/43/4 56/46/5
f 57/13/5 51/11/5 55/45/6
f 58/47/7 54/44/4 56/46/5
f 57/13/5 55/45/6 59/48/6
f 60/49/6 54/44/4 58/47/7
f 61/16/8 57/13/5 59/48/6
f 59/48/6 55/45/6 62/50/9
f 55/45/6 60/49/6 62/50/9
f 63/51/5 60/49/6 58/47/7
f 62/50/9 60/49/6 64/52/10
f 60/49/6 63/51/5 64/52/10
f 65/53/11 67/54/11 66/1/11
f 68/55/11 67/54/11 65/53/11
f 67/54/11 69/2/11 66/1/11
f 70/56/11 68/55/11 65/53/11
f 65/53/11 66/1/11 71/9/11
f 72/57/11 68/55/11 70/56/11
f 73/58/11 65/53/11 71/9/11
f 70/56/11 65/53/11 73/58/11
f 74/59/11 72/57/11 70/56/11
f 73/58/11 71/9/11 75/14/11
f 74/59/11 70/56/11 76/60/11
f 76/60/11 70/56/11 73/58/11
f 77/61/11 73/58/11 75/14/11
f 76/60/11 73/58/11 77/61/11
f 78/62/11 74/59/11 76/60/11
f 79/63/11 76/60/11 77/61/11
f 78/62/11 76/60/11 79/63/11
f 80/64/11 78/62/11 79/63/11
