# Blender v3.5.0 OBJ File: ''
# www.blender.org
mtllib Rahmen 4.mtl
v -2.500000 -1.000000 1.000000
v -2.500000 1.000000 1.000000
v -2.500000 -1.000000 -1.000000
v -2.500000 1.000000 -1.000000
v 2.500000 -1.000000 1.000000
v 2.500000 1.000000 1.000000
v 2.500000 -1.000000 -1.000000
v 2.500000 1.000000 -1.000000
v 2.233776 -1.000000 0.687006
v 2.233776 -1.000000 -0.687006
v -2.233776 -1.000000 0.687006
v -2.233776 -1.000000 -0.687006
v -2.233776 1.000000 0.687006
v -2.233776 1.000000 -0.687006
v 2.233776 1.000000 0.687006
v 2.233776 1.000000 -0.687006
vt 0.375000 0.000000
vt 0.625000 0.000000
vt 0.625000 0.250000
vt 0.375000 0.250000
vt 0.625000 0.500000
vt 0.375000 0.500000
vt 0.625000 0.750000
vt 0.375000 0.750000
vt 0.625000 1.000000
vt 0.375000 1.000000
vt 0.138311 0.710876
vt 0.125000 0.750000
vt 0.125000 0.500000
vt 0.138311 0.539124
vt 0.361689 0.710876
vt 0.361689 0.539124
vt 0.638311 0.710876
vt 0.638311 0.539124
vt 0.875000 0.500000
vt 0.875000 0.750000
vt 0.861689 0.710876
vt 0.861689 0.539124
vt 0.552699 0.000000
vt 0.447301 0.000000
vt 0.447301 0.250000
vt 0.552699 0.250000
vt 0.447301 0.500000
vt 0.552699 0.500000
vt 0.447301 0.750000
vt 0.552699 0.750000
vt 0.447301 1.000000
vt 0.552699 1.000000
vn -1.0000 0.0000 0.0000
vn 0.0000 0.0000 -1.0000
vn 1.0000 0.0000 0.0000
vn 0.0000 0.0000 1.0000
vn 0.0000 -1.0000 0.0000
vn 0.0000 1.0000 0.0000
usemtl None
s off
f 1/1/1 2/2/1 4/3/1 3/4/1
f 3/4/2 4/3/2 8/5/2 7/6/2
f 7/6/3 8/5/3 6/7/3 5/8/3
f 5/8/4 6/7/4 2/9/4 1/10/4
f 11/11/5 1/12/5 3/13/5 12/14/5
f 12/14/5 3/13/5 7/6/5 5/8/5 1/12/5 11/11/5 9/15/5 10/16/5
f 15/17/6 6/7/6 8/5/6 16/18/6
f 16/18/6 8/5/6 4/19/6 2/20/6 6/7/6 15/17/6 13/21/6 14/22/6
f 13/23/3 11/24/3 12/25/3 14/26/3
f 14/26/4 12/25/4 10/27/4 16/28/4
f 10/27/1 9/29/1 15/30/1 16/28/1
f 9/29/2 11/31/2 13/32/2 15/30/2
