# Blender v3.5.0 OBJ File: ''
# www.blender.org
mtllib Rahmen 3.mtl
o Torus.004
v 0.848528 0.000000 -0.848528
v 0.636396 0.173205 -0.636396
v 0.636396 -0.173205 -0.636396
v -0.848528 0.000000 -0.848528
v -0.636396 0.173205 -0.636396
v -0.636396 -0.173205 -0.636396
v -0.848528 0.000000 0.848528
v -0.636396 0.173205 0.636396
v -0.636396 -0.173205 0.636396
v 0.848528 0.000000 0.848528
v 0.636396 0.173205 0.636396
v 0.636396 -0.173205 0.636396
vt 0.500000 0.666667
vt 0.750000 0.666667
vt 0.750000 1.000000
vt 0.500000 1.000000
vt 0.500000 0.000000
vt 0.750000 0.000000
vt 0.750000 0.333333
vt 0.500000 0.333333
vt 1.000000 0.666667
vt 1.000000 1.000000
vt 1.000000 0.000000
vt 1.000000 0.333333
vt 0.000000 0.666667
vt 0.250000 0.666667
vt 0.250000 1.000000
vt 0.000000 1.000000
vt 0.000000 0.000000
vt 0.250000 0.000000
vt 0.250000 0.333333
vt 0.000000 0.333333
vn 0.0000 0.7746 -0.6325
vn -0.0000 0.0000 1.0000
vn 0.0000 -0.7746 -0.6325
vn -0.6325 0.7746 -0.0000
vn 1.0000 0.0000 0.0000
vn -0.6325 -0.7746 -0.0000
vn 0.0000 0.7746 0.6325
vn 0.0000 0.0000 -1.0000
vn 0.0000 -0.7746 0.6325
vn 0.6325 0.7746 0.0000
vn -1.0000 0.0000 0.0000
vn 0.6325 -0.7746 0.0000
usemtl None
s off
f 1/1/1 4/2/1 5/3/1 2/4/1
f 2/5/2 5/6/2 6/7/2 3/8/2
f 3/8/3 6/7/3 4/2/3 1/1/3
f 4/2/4 7/9/4 8/10/4 5/3/4
f 5/6/5 8/11/5 9/12/5 6/7/5
f 6/7/6 9/12/6 7/9/6 4/2/6
f 7/13/7 10/14/7 11/15/7 8/16/7
f 8/17/8 11/18/8 12/19/8 9/20/8
f 9/20/9 12/19/9 10/14/9 7/13/9
f 10/14/10 1/1/10 2/4/10 11/15/10
f 11/18/11 2/5/11 3/8/11 12/19/11
f 12/19/12 3/8/12 1/1/12 10/14/12
