# Blender v3.5.0 OBJ File: ''
# www.blender.org
mtllib Zylinder.mtl
o Zylinder
v 0.000000 -1.000000 -1.000000
v 0.000000 1.000000 -1.000000
v 0.020333 -1.000000 -0.999793
v 0.020333 1.000000 -0.999793
v 0.040657 -1.000000 -0.999173
v 0.040657 1.000000 -0.999173
v 0.060964 -1.000000 -0.998140
v 0.060964 1.000000 -0.998140
v 0.081246 -1.000000 -0.996694
v 0.081246 1.000000 -0.996694
v 0.101495 -1.000000 -0.994836
v 0.101495 1.000000 -0.994836
v 0.121701 -1.000000 -0.992567
v 0.121701 1.000000 -0.992567
v 0.141857 -1.000000 -0.989887
v 0.141857 1.000000 -0.989887
v 0.161955 -1.000000 -0.986798
v 0.161955 1.000000 -0.986798
v 0.181986 -1.000000 -0.983301
v 0.181986 1.000000 -0.983301
v 0.201941 -1.000000 -0.979398
v 0.201941 1.000000 -0.979398
v 0.221813 -1.000000 -0.975089
v 0.221813 1.000000 -0.975089
v 0.241593 -1.000000 -0.970378
v 0.241593 1.000000 -0.970378
v 0.261273 -1.000000 -0.965265
v 0.261273 1.000000 -0.965265
v 0.280846 -1.000000 -0.959753
v 0.280846 1.000000 -0.959753
v 0.300302 -1.000000 -0.953844
v 0.300302 1.000000 -0.953844
v 0.319634 -1.000000 -0.947541
v 0.319634 1.000000 -0.947541
v 0.338834 -1.000000 -0.940846
v 0.338834 1.000000 -0.940846
v 0.357893 -1.000000 -0.933762
v 0.357893 1.000000 -0.933762
v 0.376805 -1.000000 -0.926293
v 0.376805 1.000000 -0.926293
v 0.395561 -1.000000 -0.918440
v 0.395561 1.000000 -0.918440
v 0.414153 -1.000000 -0.910207
v 0.414153 1.000000 -0.910207
v 0.432575 -1.000000 -0.901598
v 0.432575 1.000000 -0.901598
v 0.450817 -1.000000 -0.892616
v 0.450817 1.000000 -0.892616
v 0.468873 -1.000000 -0.883266
v 0.468873 1.000000 -0.883266
v 0.486735 -1.000000 -0.873550
v 0.486735 1.000000 -0.873550
v 0.504396 -1.000000 -0.863472
v 0.504396 1.000000 -0.863472
v 0.521848 -1.000000 -0.853038
v 0.521848 1.000000 -0.853038
v 0.539085 -1.000000 -0.842251
v 0.539085 1.000000 -0.842251
v 0.556098 -1.000000 -0.831116
v 0.556098 1.000000 -0.831116
v 0.572882 -1.000000 -0.819638
v 0.572882 1.000000 -0.819638
v 0.589429 -1.000000 -0.807820
v 0.589429 1.000000 -0.807820
v 0.605732 -1.000000 -0.795668
v 0.605732 1.000000 -0.795668
v 0.621785 -1.000000 -0.783188
v 0.621785 1.000000 -0.783188
v 0.637581 -1.000000 -0.770384
v 0.637581 1.000000 -0.770384
v 0.653113 -1.000000 -0.757261
v 0.653113 1.000000 -0.757261
v 0.668375 -1.000000 -0.743825
v 0.668375 1.000000 -0.743825
v 0.683360 -1.000000 -0.730081
v 0.683360 1.000000 -0.730081
v 0.698063 -1.000000 -0.716036
v 0.698063 1.000000 -0.716036
v 0.712478 -1.000000 -0.701694
v 0.712478 1.000000 -0.701694
v 0.726598 -1.000000 -0.687063
v 0.726598 1.000000 -0.687063
v 0.740417 -1.000000 -0.672147
v 0.740417 1.000000 -0.672147
v 0.753931 -1.000000 -0.656954
v 0.753931 1.000000 -0.656954
v 0.767133 -1.000000 -0.641489
v 0.767133 1.000000 -0.641489
v 0.780017 -1.000000 -0.625758
v 0.780017 1.000000 -0.625758
v 0.792579 -1.000000 -0.609769
v 0.792579 1.000000 -0.609769
v 0.804813 -1.000000 -0.593528
v 0.804813 1.000000 -0.593528
v 0.816715 -1.000000 -0.577041
v 0.816715 1.000000 -0.577041
v 0.828279 -1.000000 -0.560316
v 0.828279 1.000000 -0.560316
v 0.839500 -1.000000 -0.543359
v 0.839500 1.000000 -0.543359
v 0.850375 -1.000000 -0.526178
v 0.850375 1.000000 -0.526178
v 0.860897 -1.000000 -0.508779
v 0.860897 1.000000 -0.508779
v 0.871064 -1.000000 -0.491169
v 0.871064 1.000000 -0.491169
v 0.880871 -1.000000 -0.473357
v 0.880871 1.000000 -0.473357
v 0.890313 -1.000000 -0.455349
v 0.890313 1.000000 -0.455349
v 0.899387 -1.000000 -0.437152
v 0.899387 1.000000 -0.437152
v 0.908090 -1.000000 -0.418775
v 0.908090 1.000000 -0.418775
v 0.916417 -1.000000 -0.400225
v 0.916417 1.000000 -0.400225
v 0.924365 -1.000000 -0.381509
v 0.924365 1.000000 -0.381509
v 0.931931 -1.000000 -0.362635
v 0.931931 1.000000 -0.362635
v 0.939112 -1.000000 -0.343612
v 0.939112 1.000000 -0.343612
v 0.945904 -1.000000 -0.324446
v 0.945904 1.000000 -0.324446
v 0.952305 -1.000000 -0.305147
v 0.952305 1.000000 -0.305147
v 0.958313 -1.000000 -0.285721
v 0.958313 1.000000 -0.285721
v 0.963924 -1.000000 -0.266177
v 0.963924 1.000000 -0.266177
v 0.969137 -1.000000 -0.246523
v 0.969137 1.000000 -0.246523
v 0.973949 -1.000000 -0.226767
v 0.973949 1.000000 -0.226767
v 0.978359 -1.000000 -0.206917
v 0.978359 1.000000 -0.206917
v 0.982363 -1.000000 -0.186982
v 0.982363 1.000000 -0.186982
v 0.985962 -1.000000 -0.166969
v 0.985962 1.000000 -0.166969
v 0.989153 -1.000000 -0.146888
v 0.989153 1.000000 -0.146888
v 0.991935 -1.000000 -0.126745
v 0.991935 1.000000 -0.126745
v 0.994307 -1.000000 -0.106550
v 0.994307 1.000000 -0.106550
v 0.996268 -1.000000 -0.086312
v 0.996268 1.000000 -0.086312
v 0.997817 -1.000000 -0.066037
v 0.997817 1.000000 -0.066037
v 0.998954 -1.000000 -0.045735
v 0.998954 1.000000 -0.045735
v 0.999677 -1.000000 -0.025415
v 0.999677 1.000000 -0.025415
v 0.999987 -1.000000 -0.005083
v 0.999987 1.000000 -0.005083
v 0.999884 -1.000000 0.015250
v 0.999884 1.000000 0.015250
v 0.999367 -1.000000 0.035577
v 0.999367 1.000000 0.035577
v 0.998437 -1.000000 0.055889
v 0.998437 1.000000 0.055889
v 0.997094 -1.000000 0.076178
v 0.997094 1.000000 0.076178
v 0.995339 -1.000000 0.096436
v 0.995339 1.000000 0.096436
v 0.993173 -1.000000 0.116654
v 0.993173 1.000000 0.116654
v 0.990595 -1.000000 0.136824
v 0.990595 1.000000 0.136824
v 0.987609 -1.000000 0.156937
v 0.987609 1.000000 0.156937
v 0.984214 -1.000000 0.176985
v 0.984214 1.000000 0.176985
v 0.980412 -1.000000 0.196960
v 0.980412 1.000000 0.196960
v 0.976204 -1.000000 0.216853
v 0.976204 1.000000 0.216853
v 0.971593 -1.000000 0.236657
v 0.971593 1.000000 0.236657
v 0.966581 -1.000000 0.256363
v 0.966581 1.000000 0.256363
v 0.961168 -1.000000 0.275963
v 0.961168 1.000000 0.275963
v 0.955359 -1.000000 0.295449
v 0.955359 1.000000 0.295449
v 0.949154 -1.000000 0.314813
v 0.949154 1.000000 0.314813
v 0.942557 -1.000000 0.334046
v 0.942557 1.000000 0.334046
v 0.935570 -1.000000 0.353142
v 0.935570 1.000000 0.353142
v 0.928196 -1.000000 0.372091
v 0.928196 1.000000 0.372091
v 0.920439 -1.000000 0.390887
v 0.920439 1.000000 0.390887
v 0.912301 -1.000000 0.409521
v 0.912301 1.000000 0.409521
v 0.903785 -1.000000 0.427986
v 0.903785 1.000000 0.427986
v 0.894897 -1.000000 0.446274
v 0.894897 1.000000 0.446274
v 0.885638 -1.000000 0.464377
v 0.885638 1.000000 0.464377
v 0.876013 -1.000000 0.482288
v 0.876013 1.000000 0.482288
v 0.866025 -1.000000 0.500000
v 0.866025 1.000000 0.500000
v 0.855680 -1.000000 0.517505
v 0.855680 1.000000 0.517505
v 0.844981 -1.000000 0.534796
v 0.844981 1.000000 0.534796
v 0.833933 -1.000000 0.551866
v 0.833933 1.000000 0.551866
v 0.822539 -1.000000 0.568708
v 0.822539 1.000000 0.568708
v 0.810806 -1.000000 0.585315
v 0.810806 1.000000 0.585315
v 0.798737 -1.000000 0.601680
v 0.798737 1.000000 0.601680
v 0.786339 -1.000000 0.617796
v 0.786339 1.000000 0.617796
v 0.773615 -1.000000 0.633656
v 0.773615 1.000000 0.633656
v 0.760571 -1.000000 0.649255
v 0.760571 1.000000 0.649255
v 0.747213 -1.000000 0.664585
v 0.747213 1.000000 0.664585
v 0.733546 -1.000000 0.679640
v 0.733546 1.000000 0.679640
v 0.719575 -1.000000 0.694415
v 0.719575 1.000000 0.694415
v 0.705307 -1.000000 0.708902
v 0.705307 1.000000 0.708902
v 0.690748 -1.000000 0.723096
v 0.690748 1.000000 0.723096
v 0.675902 -1.000000 0.736991
v 0.675902 1.000000 0.736991
v 0.660778 -1.000000 0.750582
v 0.660778 1.000000 0.750582
v 0.645380 -1.000000 0.763862
v 0.645380 1.000000 0.763862
v 0.629715 -1.000000 0.776826
v 0.629715 1.000000 0.776826
v 0.613790 -1.000000 0.789469
v 0.613790 1.000000 0.789469
v 0.597612 -1.000000 0.801786
v 0.597612 1.000000 0.801786
v 0.581186 -1.000000 0.813771
v 0.581186 1.000000 0.813771
v 0.564520 -1.000000 0.825420
v 0.564520 1.000000 0.825420
v 0.547620 -1.000000 0.836727
v 0.547620 1.000000 0.836727
v 0.530494 -1.000000 0.847689
v 0.530494 1.000000 0.847689
v 0.513149 -1.000000 0.858300
v 0.513149 1.000000 0.858300
v 0.495591 -1.000000 0.868556
v 0.495591 1.000000 0.868556
v 0.477829 -1.000000 0.878453
v 0.477829 1.000000 0.878453
v 0.459869 -1.000000 0.887987
v 0.459869 1.000000 0.887987
v 0.441719 -1.000000 0.897154
v 0.441719 1.000000 0.897154
v 0.423386 -1.000000 0.905949
v 0.423386 1.000000 0.905949
v 0.404878 -1.000000 0.914371
v 0.404878 1.000000 0.914371
v 0.386203 -1.000000 0.922414
v 0.386203 1.000000 0.922414
v 0.367368 -1.000000 0.930076
v 0.367368 1.000000 0.930076
v 0.348381 -1.000000 0.937353
v 0.348381 1.000000 0.937353
v 0.329251 -1.000000 0.944243
v 0.329251 1.000000 0.944243
v 0.309984 -1.000000 0.950742
v 0.309984 1.000000 0.950742
v 0.290589 -1.000000 0.956848
v 0.290589 1.000000 0.956848
v 0.271073 -1.000000 0.962559
v 0.271073 1.000000 0.962559
v 0.251446 -1.000000 0.967871
v 0.251446 1.000000 0.967871
v 0.231715 -1.000000 0.972784
v 0.231715 1.000000 0.972784
v 0.211888 -1.000000 0.977294
v 0.211888 1.000000 0.977294
v 0.191973 -1.000000 0.981400
v 0.191973 1.000000 0.981400
v 0.171979 -1.000000 0.985101
v 0.171979 1.000000 0.985101
v 0.151914 -1.000000 0.988394
v 0.151914 1.000000 0.988394
v 0.131786 -1.000000 0.991278
v 0.131786 1.000000 0.991278
v 0.111604 -1.000000 0.993753
v 0.111604 1.000000 0.993753
v 0.091375 -1.000000 0.995817
v 0.091375 1.000000 0.995817
v 0.071109 -1.000000 0.997469
v 0.071109 1.000000 0.997469
v 0.050813 -1.000000 0.998708
v 0.050813 1.000000 0.998708
v 0.030496 -1.000000 0.999535
v 0.030496 1.000000 0.999535
v 0.010167 -1.000000 0.999948
v 0.010167 1.000000 0.999948
v -0.010167 -1.000000 0.999948
v -0.010167 1.000000 0.999948
v -0.030496 -1.000000 0.999535
v -0.030496 1.000000 0.999535
v -0.050813 -1.000000 0.998708
v -0.050813 1.000000 0.998708
v -0.071109 -1.000000 0.997469
v -0.071109 1.000000 0.997469
v -0.091375 -1.000000 0.995817
v -0.091375 1.000000 0.995817
v -0.111604 -1.000000 0.993753
v -0.111604 1.000000 0.993753
v -0.131786 -1.000000 0.991278
v -0.131786 1.000000 0.991278
v -0.151914 -1.000000 0.988394
v -0.151914 1.000000 0.988394
v -0.171979 -1.000000 0.985101
v -0.171979 1.000000 0.985101
v -0.191973 -1.000000 0.981400
v -0.191973 1.000000 0.981400
v -0.211888 -1.000000 0.977294
v -0.211888 1.000000 0.977294
v -0.231715 -1.000000 0.972784
v -0.231715 1.000000 0.972784
v -0.251446 -1.000000 0.967871
v -0.251446 1.000000 0.967871
v -0.271073 -1.000000 0.962559
v -0.271073 1.000000 0.962559
v -0.290589 -1.000000 0.956848
v -0.290589 1.000000 0.956848
v -0.309984 -1.000000 0.950742
v -0.309984 1.000000 0.950742
v -0.329251 -1.000000 0.944243
v -0.329251 1.000000 0.944243
v -0.348381 -1.000000 0.937353
v -0.348381 1.000000 0.937353
v -0.367368 -1.000000 0.930076
v -0.367368 1.000000 0.930076
v -0.386203 -1.000000 0.922414
v -0.386203 1.000000 0.922414
v -0.404878 -1.000000 0.914371
v -0.404878 1.000000 0.914371
v -0.423386 -1.000000 0.905949
v -0.423386 1.000000 0.905949
v -0.441719 -1.000000 0.897154
v -0.441719 1.000000 0.897154
v -0.459869 -1.000000 0.887987
v -0.459869 1.000000 0.887987
v -0.477829 -1.000000 0.878453
v -0.477829 1.000000 0.878453
v -0.495591 -1.000000 0.868556
v -0.495591 1.000000 0.868556
v -0.513149 -1.000000 0.858300
v -0.513149 1.000000 0.858300
v -0.530494 -1.000000 0.847689
v -0.530494 1.000000 0.847689
v -0.547620 -1.000000 0.836727
v -0.547620 1.000000 0.836727
v -0.564520 -1.000000 0.825420
v -0.564520 1.000000 0.825420
v -0.581186 -1.000000 0.813771
v -0.581186 1.000000 0.813771
v -0.597612 -1.000000 0.801786
v -0.597612 1.000000 0.801786
v -0.613790 -1.000000 0.789469
v -0.613790 1.000000 0.789469
v -0.629715 -1.000000 0.776826
v -0.629715 1.000000 0.776826
v -0.645380 -1.000000 0.763862
v -0.645380 1.000000 0.763862
v -0.660778 -1.000000 0.750582
v -0.660778 1.000000 0.750582
v -0.675902 -1.000000 0.736991
v -0.675902 1.000000 0.736991
v -0.690748 -1.000000 0.723096
v -0.690748 1.000000 0.723096
v -0.705307 -1.000000 0.708902
v -0.705307 1.000000 0.708902
v -0.719575 -1.000000 0.694415
v -0.719575 1.000000 0.694415
v -0.733546 -1.000000 0.679640
v -0.733546 1.000000 0.679640
v -0.747213 -1.000000 0.664585
v -0.747213 1.000000 0.664585
v -0.760571 -1.000000 0.649255
v -0.760571 1.000000 0.649255
v -0.773615 -1.000000 0.633656
v -0.773615 1.000000 0.633656
v -0.786339 -1.000000 0.617796
v -0.786339 1.000000 0.617796
v -0.798737 -1.000000 0.601680
v -0.798737 1.000000 0.601680
v -0.810806 -1.000000 0.585315
v -0.810806 1.000000 0.585315
v -0.822539 -1.000000 0.568708
v -0.822539 1.000000 0.568708
v -0.833933 -1.000000 0.551866
v -0.833933 1.000000 0.551866
v -0.844981 -1.000000 0.534796
v -0.844981 1.000000 0.534796
v -0.855680 -1.000000 0.517505
v -0.855680 1.000000 0.517505
v -0.866025 -1.000000 0.500000
v -0.866025 1.000000 0.500000
v -0.876013 -1.000000 0.482288
v -0.876013 1.000000 0.482288
v -0.885638 -1.000000 0.464377
v -0.885638 1.000000 0.464377
v -0.894897 -1.000000 0.446274
v -0.894897 1.000000 0.446274
v -0.903785 -1.000000 0.427986
v -0.903785 1.000000 0.427986
v -0.912301 -1.000000 0.409521
v -0.912301 1.000000 0.409521
v -0.920439 -1.000000 0.390887
v -0.920439 1.000000 0.390887
v -0.928196 -1.000000 0.372091
v -0.928196 1.000000 0.372091
v -0.935570 -1.000000 0.353142
v -0.935570 1.000000 0.353142
v -0.942557 -1.000000 0.334046
v -0.942557 1.000000 0.334046
v -0.949154 -1.000000 0.314813
v -0.949154 1.000000 0.314813
v -0.955359 -1.000000 0.295449
v -0.955359 1.000000 0.295449
v -0.961168 -1.000000 0.275963
v -0.961168 1.000000 0.275963
v -0.966581 -1.000000 0.256363
v -0.966581 1.000000 0.256363
v -0.971593 -1.000000 0.236657
v -0.971593 1.000000 0.236657
v -0.976204 -1.000000 0.216853
v -0.976204 1.000000 0.216853
v -0.980412 -1.000000 0.196960
v -0.980412 1.000000 0.196960
v -0.984214 -1.000000 0.176985
v -0.984214 1.000000 0.176985
v -0.987609 -1.000000 0.156937
v -0.987609 1.000000 0.156937
v -0.990595 -1.000000 0.136824
v -0.990595 1.000000 0.136824
v -0.993173 -1.000000 0.116654
v -0.993173 1.000000 0.116654
v -0.995339 -1.000000 0.096436
v -0.995339 1.000000 0.096436
v -0.997094 -1.000000 0.076178
v -0.997094 1.000000 0.076178
v -0.998437 -1.000000 0.055889
v -0.998437 1.000000 0.055889
v -0.999367 -1.000000 0.035577
v -0.999367 1.000000 0.035577
v -0.999884 -1.000000 0.015250
v -0.999884 1.000000 0.015250
v -0.999987 -1.000000 -0.005083
v -0.999987 1.000000 -0.005083
v -0.999677 -1.000000 -0.025415
v -0.999677 1.000000 -0.025415
v -0.998954 -1.000000 -0.045735
v -0.998954 1.000000 -0.045735
v -0.997817 -1.000000 -0.066037
v -0.997817 1.000000 -0.066037
v -0.996268 -1.000000 -0.086312
v -0.996268 1.000000 -0.086312
v -0.994307 -1.000000 -0.106550
v -0.994307 1.000000 -0.106550
v -0.991935 -1.000000 -0.126745
v -0.991935 1.000000 -0.126745
v -0.989153 -1.000000 -0.146888
v -0.989153 1.000000 -0.146888
v -0.985962 -1.000000 -0.166969
v -0.985962 1.000000 -0.166969
v -0.982363 -1.000000 -0.186982
v -0.982363 1.000000 -0.186982
v -0.978359 -1.000000 -0.206917
v -0.978359 1.000000 -0.206917
v -0.973949 -1.000000 -0.226767
v -0.973949 1.000000 -0.226767
v -0.969137 -1.000000 -0.246523
v -0.969137 1.000000 -0.246523
v -0.963924 -1.000000 -0.266177
v -0.963924 1.000000 -0.266177
v -0.958313 -1.000000 -0.285721
v -0.958313 1.000000 -0.285721
v -0.952305 -1.000000 -0.305147
v -0.952305 1.000000 -0.305147
v -0.945904 -1.000000 -0.324446
v -0.945904 1.000000 -0.324446
v -0.939112 -1.000000 -0.343612
v -0.939112 1.000000 -0.343612
v -0.931931 -1.000000 -0.362635
v -0.931931 1.000000 -0.362635
v -0.924365 -1.000000 -0.381509
v -0.924365 1.000000 -0.381509
v -0.916417 -1.000000 -0.400225
v -0.916417 1.000000 -0.400225
v -0.908090 -1.000000 -0.418775
v -0.908090 1.000000 -0.418775
v -0.899387 -1.000000 -0.437152
v -0.899387 1.000000 -0.437152
v -0.890313 -1.000000 -0.455349
v -0.890313 1.000000 -0.455349
v -0.880871 -1.000000 -0.473357
v -0.880871 1.000000 -0.473357
v -0.871064 -1.000000 -0.491169
v -0.871064 1.000000 -0.491169
v -0.860897 -1.000000 -0.508779
v -0.860897 1.000000 -0.508779
v -0.850375 -1.000000 -0.526178
v -0.850375 1.000000 -0.526178
v -0.839500 -1.000000 -0.543359
v -0.839500 1.000000 -0.543359
v -0.828279 -1.000000 -0.560316
v -0.828279 1.000000 -0.560316
v -0.816715 -1.000000 -0.577041
v -0.816715 1.000000 -0.577041
v -0.804813 -1.000000 -0.593528
v -0.804813 1.000000 -0.593528
v -0.792579 -1.000000 -0.609769
v -0.792579 1.000000 -0.609769
v -0.780017 -1.000000 -0.625758
v -0.780017 1.000000 -0.625758
v -0.767133 -1.000000 -0.641489
v -0.767133 1.000000 -0.641489
v -0.753931 -1.000000 -0.656954
v -0.753931 1.000000 -0.656954
v -0.740417 -1.000000 -0.672147
v -0.740417 1.000000 -0.672147
v -0.726598 -1.000000 -0.687063
v -0.726598 1.000000 -0.687063
v -0.712478 -1.000000 -0.701694
v -0.712478 1.000000 -0.701694
v -0.698063 -1.000000 -0.716036
v -0.698063 1.000000 -0.716036
v -0.683360 -1.000000 -0.730081
v -0.683360 1.000000 -0.730081
v -0.668375 -1.000000 -0.743825
v -0.668375 1.000000 -0.743825
v -0.653113 -1.000000 -0.757261
v -0.653113 1.000000 -0.757261
v -0.637581 -1.000000 -0.770384
v -0.637581 1.000000 -0.770384
v -0.621785 -1.000000 -0.783188
v -0.621785 1.000000 -0.783188
v -0.605732 -1.000000 -0.795668
v -0.605732 1.000000 -0.795668
v -0.589429 -1.000000 -0.807820
v -0.589429 1.000000 -0.807820
v -0.572882 -1.000000 -0.819638
v -0.572882 1.000000 -0.819638
v -0.556098 -1.000000 -0.831116
v -0.556098 1.000000 -0.831116
v -0.539085 -1.000000 -0.842251
v -0.539085 1.000000 -0.842251
v -0.521848 -1.000000 -0.853038
v -0.521848 1.000000 -0.853038
v -0.504396 -1.000000 -0.863472
v -0.504396 1.000000 -0.863472
v -0.486735 -1.000000 -0.873550
v -0.486735 1.000000 -0.873550
v -0.468873 -1.000000 -0.883266
v -0.468873 1.000000 -0.883266
v -0.450817 -1.000000 -0.892616
v -0.450817 1.000000 -0.892616
v -0.432575 -1.000000 -0.901598
v -0.432575 1.000000 -0.901598
v -0.414153 -1.000000 -0.910207
v -0.414153 1.000000 -0.910207
v -0.395561 -1.000000 -0.918440
v -0.395561 1.000000 -0.918440
v -0.376805 -1.000000 -0.926293
v -0.376805 1.000000 -0.926293
v -0.357893 -1.000000 -0.933762
v -0.357893 1.000000 -0.933762
v -0.338834 -1.000000 -0.940846
v -0.338834 1.000000 -0.940846
v -0.319634 -1.000000 -0.947541
v -0.319634 1.000000 -0.947541
v -0.300302 -1.000000 -0.953844
v -0.300302 1.000000 -0.953844
v -0.280846 -1.000000 -0.959753
v -0.280846 1.000000 -0.959753
v -0.261273 -1.000000 -0.965265
v -0.261273 1.000000 -0.965265
v -0.241593 -1.000000 -0.970378
v -0.241593 1.000000 -0.970378
v -0.221813 -1.000000 -0.975089
v -0.221813 1.000000 -0.975089
v -0.201941 -1.000000 -0.979398
v -0.201941 1.000000 -0.979398
v -0.181986 -1.000000 -0.983301
v -0.181986 1.000000 -0.983301
v -0.161955 -1.000000 -0.986798
v -0.161955 1.000000 -0.986798
v -0.141857 -1.000000 -0.989887
v -0.141857 1.000000 -0.989887
v -0.121701 -1.000000 -0.992567
v -0.121701 1.000000 -0.992567
v -0.101495 -1.000000 -0.994836
v -0.101495 1.000000 -0.994836
v -0.081246 -1.000000 -0.996694
v -0.081246 1.000000 -0.996694
v -0.060964 -1.000000 -0.998140
v -0.060964 1.000000 -0.998140
v -0.040657 -1.000000 -0.999173
v -0.040657 1.000000 -0.999173
v -0.020333 -1.000000 -0.999793
v -0.020333 1.000000 -0.999793
vt 1.000000 0.500000
vt 1.000000 1.000000
vt 0.996764 1.000000
vt 0.996764 0.500000
vt 0.993528 1.000000
vt 0.993528 0.500000
vt 0.990291 1.000000
vt 0.990291 0.500000
vt 0.987055 1.000000
vt 0.987055 0.500000
vt 0.983819 1.000000
vt 0.983819 0.500000
vt 0.980583 1.000000
vt 0.980583 0.500000
vt 0.977346 1.000000
vt 0.977346 0.500000
vt 0.974110 1.000000
vt 0.974110 0.500000
vt 0.970874 1.000000
vt 0.970874 0.500000
vt 0.967638 1.000000
vt 0.967638 0.500000
vt 0.964401 1.000000
vt 0.964401 0.500000
vt 0.961165 1.000000
vt 0.961165 0.500000
vt 0.957929 1.000000
vt 0.957929 0.500000
vt 0.954693 1.000000
vt 0.954693 0.500000
vt 0.951456 1.000000
vt 0.951456 0.500000
vt 0.948220 1.000000
vt 0.948220 0.500000
vt 0.944984 1.000000
vt 0.944984 0.500000
vt 0.941748 1.000000
vt 0.941748 0.500000
vt 0.938512 1.000000
vt 0.938512 0.500000
vt 0.935275 1.000000
vt 0.935275 0.500000
vt 0.932039 1.000000
vt 0.932039 0.500000
vt 0.928803 1.000000
vt 0.928803 0.500000
vt 0.925567 1.000000
vt 0.925567 0.500000
vt 0.922330 1.000000
vt 0.922330 0.500000
vt 0.919094 1.000000
vt 0.919094 0.500000
vt 0.915858 1.000000
vt 0.915858 0.500000
vt 0.912622 1.000000
vt 0.912622 0.500000
vt 0.909385 1.000000
vt 0.909385 0.500000
vt 0.906149 1.000000
vt 0.906149 0.500000
vt 0.902913 1.000000
vt 0.902913 0.500000
vt 0.899677 1.000000
vt 0.899677 0.500000
vt 0.896441 1.000000
vt 0.896441 0.500000
vt 0.893204 1.000000
vt 0.893204 0.500000
vt 0.889968 1.000000
vt 0.889968 0.500000
vt 0.886732 1.000000
vt 0.886732 0.500000
vt 0.883496 1.000000
vt 0.883496 0.500000
vt 0.880259 1.000000
vt 0.880259 0.500000
vt 0.877023 1.000000
vt 0.877023 0.500000
vt 0.873787 1.000000
vt 0.873787 0.500000
vt 0.870551 1.000000
vt 0.870551 0.500000
vt 0.867314 1.000000
vt 0.867314 0.500000
vt 0.864078 1.000000
vt 0.864078 0.500000
vt 0.860842 1.000000
vt 0.860842 0.500000
vt 0.857606 1.000000
vt 0.857606 0.500000
vt 0.854369 1.000000
vt 0.854369 0.500000
vt 0.851133 1.000000
vt 0.851133 0.500000
vt 0.847897 1.000000
vt 0.847897 0.500000
vt 0.844661 1.000000
vt 0.844661 0.500000
vt 0.841425 1.000000
vt 0.841425 0.500000
vt 0.838188 1.000000
vt 0.838188 0.500000
vt 0.834952 1.000000
vt 0.834952 0.500000
vt 0.831716 1.000000
vt 0.831716 0.500000
vt 0.828480 1.000000
vt 0.828480 0.500000
vt 0.825243 1.000000
vt 0.825243 0.500000
vt 0.822007 1.000000
vt 0.822007 0.500000
vt 0.818771 1.000000
vt 0.818771 0.500000
vt 0.815535 1.000000
vt 0.815535 0.500000
vt 0.812298 1.000000
vt 0.812298 0.500000
vt 0.809062 1.000000
vt 0.809062 0.500000
vt 0.805826 1.000000
vt 0.805826 0.500000
vt 0.802590 1.000000
vt 0.802590 0.500000
vt 0.799353 1.000000
vt 0.799353 0.500000
vt 0.796117 1.000000
vt 0.796117 0.500000
vt 0.792881 1.000000
vt 0.792881 0.500000
vt 0.789645 1.000000
vt 0.789645 0.500000
vt 0.786409 1.000000
vt 0.786409 0.500000
vt 0.783172 1.000000
vt 0.783172 0.500000
vt 0.779936 1.000000
vt 0.779936 0.500000
vt 0.776700 1.000000
vt 0.776700 0.500000
vt 0.773464 1.000000
vt 0.773464 0.500000
vt 0.770227 1.000000
vt 0.770227 0.500000
vt 0.766991 1.000000
vt 0.766991 0.500000
vt 0.763755 1.000000
vt 0.763755 0.500000
vt 0.760519 1.000000
vt 0.760519 0.500000
vt 0.757282 1.000000
vt 0.757282 0.500000
vt 0.754046 1.000000
vt 0.754046 0.500000
vt 0.750810 1.000000
vt 0.750810 0.500000
vt 0.747574 1.000000
vt 0.747574 0.500000
vt 0.744337 1.000000
vt 0.744337 0.500000
vt 0.741101 1.000000
vt 0.741101 0.500000
vt 0.737865 1.000000
vt 0.737865 0.500000
vt 0.734629 1.000000
vt 0.734629 0.500000
vt 0.731393 1.000000
vt 0.731393 0.500000
vt 0.728156 1.000000
vt 0.728156 0.500000
vt 0.724920 1.000000
vt 0.724920 0.500000
vt 0.721684 1.000000
vt 0.721684 0.500000
vt 0.718448 1.000000
vt 0.718448 0.500000
vt 0.715211 1.000000
vt 0.715211 0.500000
vt 0.711975 1.000000
vt 0.711975 0.500000
vt 0.708739 1.000000
vt 0.708739 0.500000
vt 0.705503 1.000000
vt 0.705503 0.500000
vt 0.702266 1.000000
vt 0.702266 0.500000
vt 0.699030 1.000000
vt 0.699030 0.500000
vt 0.695794 1.000000
vt 0.695794 0.500000
vt 0.692558 1.000000
vt 0.692558 0.500000
vt 0.689322 1.000000
vt 0.689322 0.500000
vt 0.686085 1.000000
vt 0.686085 0.500000
vt 0.682849 1.000000
vt 0.682849 0.500000
vt 0.679613 1.000000
vt 0.679613 0.500000
vt 0.676377 1.000000
vt 0.676377 0.500000
vt 0.673140 1.000000
vt 0.673140 0.500000
vt 0.669904 1.000000
vt 0.669904 0.500000
vt 0.666668 1.000000
vt 0.666668 0.500000
vt 0.663432 1.000000
vt 0.663432 0.500000
vt 0.660195 1.000000
vt 0.660195 0.500000
vt 0.656959 1.000000
vt 0.656959 0.500000
vt 0.653723 1.000000
vt 0.653723 0.500000
vt 0.650487 1.000000
vt 0.650487 0.500000
vt 0.647250 1.000000
vt 0.647250 0.500000
vt 0.644014 1.000000
vt 0.644014 0.500000
vt 0.640778 1.000000
vt 0.640778 0.500000
vt 0.637542 1.000000
vt 0.637542 0.500000
vt 0.634306 1.000000
vt 0.634306 0.500000
vt 0.631069 1.000000
vt 0.631069 0.500000
vt 0.627833 1.000000
vt 0.627833 0.500000
vt 0.624597 1.000000
vt 0.624597 0.500000
vt 0.621361 1.000000
vt 0.621361 0.500000
vt 0.618124 1.000000
vt 0.618124 0.500000
vt 0.614888 1.000000
vt 0.614888 0.500000
vt 0.611652 1.000000
vt 0.611652 0.500000
vt 0.608416 1.000000
vt 0.608416 0.500000
vt 0.605179 1.000000
vt 0.605179 0.500000
vt 0.601943 1.000000
vt 0.601943 0.500000
vt 0.598707 1.000000
vt 0.598707 0.500000
vt 0.595471 1.000000
vt 0.595471 0.500000
vt 0.592234 1.000000
vt 0.592234 0.500000
vt 0.588998 1.000000
vt 0.588998 0.500000
vt 0.585762 1.000000
vt 0.585762 0.500000
vt 0.582526 1.000000
vt 0.582526 0.500000
vt 0.579290 1.000000
vt 0.579290 0.500000
vt 0.576053 1.000000
vt 0.576053 0.500000
vt 0.572817 1.000000
vt 0.572817 0.500000
vt 0.569581 1.000000
vt 0.569581 0.500000
vt 0.566345 1.000000
vt 0.566345 0.500000
vt 0.563108 1.000000
vt 0.563108 0.500000
vt 0.559872 1.000000
vt 0.559872 0.500000
vt 0.556636 1.000000
vt 0.556636 0.500000
vt 0.553400 1.000000
vt 0.553400 0.500000
vt 0.550163 1.000000
vt 0.550163 0.500000
vt 0.546927 1.000000
vt 0.546927 0.500000
vt 0.543691 1.000000
vt 0.543691 0.500000
vt 0.540455 1.000000
vt 0.540455 0.500000
vt 0.537219 1.000000
vt 0.537219 0.500000
vt 0.533982 1.000000
vt 0.533982 0.500000
vt 0.530746 1.000000
vt 0.530746 0.500000
vt 0.527510 1.000000
vt 0.527510 0.500000
vt 0.524274 1.000000
vt 0.524274 0.500000
vt 0.521037 1.000000
vt 0.521037 0.500000
vt 0.517801 1.000000
vt 0.517801 0.500000
vt 0.514565 1.000000
vt 0.514565 0.500000
vt 0.511329 1.000000
vt 0.511329 0.500000
vt 0.508092 1.000000
vt 0.508092 0.500000
vt 0.504856 1.000000
vt 0.504856 0.500000
vt 0.501620 1.000000
vt 0.501620 0.500000
vt 0.498384 1.000000
vt 0.498384 0.500000
vt 0.495147 1.000000
vt 0.495147 0.500000
vt 0.491911 1.000000
vt 0.491911 0.500000
vt 0.488675 1.000000
vt 0.488675 0.500000
vt 0.485439 1.000000
vt 0.485439 0.500000
vt 0.482203 1.000000
vt 0.482203 0.500000
vt 0.478966 1.000000
vt 0.478966 0.500000
vt 0.475730 1.000000
vt 0.475730 0.500000
vt 0.472494 1.000000
vt 0.472494 0.500000
vt 0.469258 1.000000
vt 0.469258 0.500000
vt 0.466021 1.000000
vt 0.466021 0.500000
vt 0.462785 1.000000
vt 0.462785 0.500000
vt 0.459549 1.000000
vt 0.459549 0.500000
vt 0.456313 1.000000
vt 0.456313 0.500000
vt 0.453076 1.000000
vt 0.453076 0.500000
vt 0.449840 1.000000
vt 0.449840 0.500000
vt 0.446604 1.000000
vt 0.446604 0.500000
vt 0.443368 1.000000
vt 0.443368 0.500000
vt 0.440131 1.000000
vt 0.440131 0.500000
vt 0.436895 1.000000
vt 0.436895 0.500000
vt 0.433659 1.000000
vt 0.433659 0.500000
vt 0.430423 1.000000
vt 0.430423 0.500000
vt 0.427187 1.000000
vt 0.427187 0.500000
vt 0.423950 1.000000
vt 0.423950 0.500000
vt 0.420714 1.000000
vt 0.420714 0.500000
vt 0.417478 1.000000
vt 0.417478 0.500000
vt 0.414242 1.000000
vt 0.414242 0.500000
vt 0.411005 1.000000
vt 0.411005 0.500000
vt 0.407769 1.000000
vt 0.407769 0.500000
vt 0.404533 1.000000
vt 0.404533 0.500000
vt 0.401297 1.000000
vt 0.401297 0.500000
vt 0.398060 1.000000
vt 0.398060 0.500000
vt 0.394824 1.000000
vt 0.394824 0.500000
vt 0.391588 1.000000
vt 0.391588 0.500000
vt 0.388352 1.000000
vt 0.388352 0.500000
vt 0.385116 1.000000
vt 0.385116 0.500000
vt 0.381879 1.000000
vt 0.381879 0.500000
vt 0.378643 1.000000
vt 0.378643 0.500000
vt 0.375407 1.000000
vt 0.375407 0.500000
vt 0.372171 1.000000
vt 0.372171 0.500000
vt 0.368934 1.000000
vt 0.368934 0.500000
vt 0.365698 1.000000
vt 0.365698 0.500000
vt 0.362462 1.000000
vt 0.362462 0.500000
vt 0.359226 1.000000
vt 0.359226 0.500000
vt 0.355989 1.000000
vt 0.355989 0.500000
vt 0.352753 1.000000
vt 0.352753 0.500000
vt 0.349517 1.000000
vt 0.349517 0.500000
vt 0.346281 1.000000
vt 0.346281 0.500000
vt 0.343044 1.000000
vt 0.343044 0.500000
vt 0.339808 1.000000
vt 0.339808 0.500000
vt 0.336572 1.000000
vt 0.336572 0.500000
vt 0.333336 1.000000
vt 0.333336 0.500000
vt 0.330100 1.000000
vt 0.330100 0.500000
vt 0.326863 1.000000
vt 0.326863 0.500000
vt 0.323627 1.000000
vt 0.323627 0.500000
vt 0.320391 1.000000
vt 0.320391 0.500000
vt 0.317155 1.000000
vt 0.317155 0.500000
vt 0.313918 1.000000
vt 0.313918 0.500000
vt 0.310682 1.000000
vt 0.310682 0.500000
vt 0.307446 1.000000
vt 0.307446 0.500000
vt 0.304210 1.000000
vt 0.304210 0.500000
vt 0.300973 1.000000
vt 0.300973 0.500000
vt 0.297737 1.000000
vt 0.297737 0.500000
vt 0.294501 1.000000
vt 0.294501 0.500000
vt 0.291265 1.000000
vt 0.291265 0.500000
vt 0.288028 1.000000
vt 0.288028 0.500000
vt 0.284792 1.000000
vt 0.284792 0.500000
vt 0.281556 1.000000
vt 0.281556 0.500000
vt 0.278320 1.000000
vt 0.278320 0.500000
vt 0.275084 1.000000
vt 0.275084 0.500000
vt 0.271847 1.000000
vt 0.271847 0.500000
vt 0.268611 1.000000
vt 0.268611 0.500000
vt 0.265375 1.000000
vt 0.265375 0.500000
vt 0.262139 1.000000
vt 0.262139 0.500000
vt 0.258902 1.000000
vt 0.258902 0.500000
vt 0.255666 1.000000
vt 0.255666 0.500000
vt 0.252430 1.000000
vt 0.252430 0.500000
vt 0.249194 1.000000
vt 0.249194 0.500000
vt 0.245957 1.000000
vt 0.245957 0.500000
vt 0.242721 1.000000
vt 0.242721 0.500000
vt 0.239485 1.000000
vt 0.239485 0.500000
vt 0.236249 1.000000
vt 0.236249 0.500000
vt 0.233012 1.000000
vt 0.233012 0.500000
vt 0.229776 1.000000
vt 0.229776 0.500000
vt 0.226540 1.000000
vt 0.226540 0.500000
vt 0.223304 1.000000
vt 0.223304 0.500000
vt 0.220067 1.000000
vt 0.220067 0.500000
vt 0.216831 1.000000
vt 0.216831 0.500000
vt 0.213595 1.000000
vt 0.213595 0.500000
vt 0.210359 1.000000
vt 0.210359 0.500000
vt 0.207122 1.000000
vt 0.207122 0.500000
vt 0.203886 1.000000
vt 0.203886 0.500000
vt 0.200650 1.000000
vt 0.200650 0.500000
vt 0.197414 1.000000
vt 0.197414 0.500000
vt 0.194177 1.000000
vt 0.194177 0.500000
vt 0.190941 1.000000
vt 0.190941 0.500000
vt 0.187705 1.000000
vt 0.187705 0.500000
vt 0.184469 1.000000
vt 0.184469 0.500000
vt 0.181232 1.000000
vt 0.181232 0.500000
vt 0.177996 1.000000
vt 0.177996 0.500000
vt 0.174760 1.000000
vt 0.174760 0.500000
vt 0.171524 1.000000
vt 0.171524 0.500000
vt 0.168287 1.000000
vt 0.168287 0.500000
vt 0.165051 1.000000
vt 0.165051 0.500000
vt 0.161815 1.000000
vt 0.161815 0.500000
vt 0.158579 1.000000
vt 0.158579 0.500000
vt 0.155342 1.000000
vt 0.155342 0.500000
vt 0.152106 1.000000
vt 0.152106 0.500000
vt 0.148870 1.000000
vt 0.148870 0.500000
vt 0.145634 1.000000
vt 0.145634 0.500000
vt 0.142397 1.000000
vt 0.142397 0.500000
vt 0.139161 1.000000
vt 0.139161 0.500000
vt 0.135925 1.000000
vt 0.135925 0.500000
vt 0.132689 1.000000
vt 0.132689 0.500000
vt 0.129452 1.000000
vt 0.129452 0.500000
vt 0.126216 1.000000
vt 0.126216 0.500000
vt 0.122980 1.000000
vt 0.122980 0.500000
vt 0.119744 1.000000
vt 0.119744 0.500000
vt 0.116507 1.000000
vt 0.116507 0.500000
vt 0.113271 1.000000
vt 0.113271 0.500000
vt 0.110035 1.000000
vt 0.110035 0.500000
vt 0.106799 1.000000
vt 0.106799 0.500000
vt 0.103562 1.000000
vt 0.103562 0.500000
vt 0.100326 1.000000
vt 0.100326 0.500000
vt 0.097090 1.000000
vt 0.097090 0.500000
vt 0.093854 1.000000
vt 0.093854 0.500000
vt 0.090617 1.000000
vt 0.090617 0.500000
vt 0.087381 1.000000
vt 0.087381 0.500000
vt 0.084145 1.000000
vt 0.084145 0.500000
vt 0.080909 1.000000
vt 0.080909 0.500000
vt 0.077672 1.000000
vt 0.077672 0.500000
vt 0.074436 1.000000
vt 0.074436 0.500000
vt 0.071200 1.000000
vt 0.071200 0.500000
vt 0.067964 1.000000
vt 0.067964 0.500000
vt 0.064727 1.000000
vt 0.064727 0.500000
vt 0.061491 1.000000
vt 0.061491 0.500000
vt 0.058255 1.000000
vt 0.058255 0.500000
vt 0.055019 1.000000
vt 0.055019 0.500000
vt 0.051782 1.000000
vt 0.051782 0.500000
vt 0.048546 1.000000
vt 0.048546 0.500000
vt 0.045310 1.000000
vt 0.045310 0.500000
vt 0.042074 1.000000
vt 0.042074 0.500000
vt 0.038837 1.000000
vt 0.038837 0.500000
vt 0.035601 1.000000
vt 0.035601 0.500000
vt 0.032365 1.000000
vt 0.032365 0.500000
vt 0.029129 1.000000
vt 0.029129 0.500000
vt 0.025893 1.000000
vt 0.025893 0.500000
vt 0.022656 1.000000
vt 0.022656 0.500000
vt 0.019420 1.000000
vt 0.019420 0.500000
vt 0.016184 1.000000
vt 0.016184 0.500000
vt 0.012948 1.000000
vt 0.012948 0.500000
vt 0.009711 1.000000
vt 0.009711 0.500000
vt 0.006475 1.000000
vt 0.006475 0.500000
vt 0.254880 0.489950
vt 0.250000 0.490000
vt 0.245120 0.489950
vt 0.240242 0.489802
vt 0.235369 0.489554
vt 0.230501 0.489207
vt 0.225641 0.488761
vt 0.220792 0.488216
vt 0.215954 0.487573
vt 0.211131 0.486832
vt 0.206323 0.485992
vt 0.201534 0.485055
vt 0.196765 0.484021
vt 0.192018 0.482891
vt 0.187294 0.481664
vt 0.182597 0.480341
vt 0.177928 0.478923
vt 0.173288 0.477410
vt 0.168680 0.475803
vt 0.164106 0.474103
vt 0.159567 0.472310
vt 0.155065 0.470426
vt 0.150603 0.468450
vt 0.146182 0.466384
vt 0.141804 0.464228
vt 0.137470 0.461984
vt 0.133184 0.459652
vt 0.128945 0.457233
vt 0.124756 0.454729
vt 0.120620 0.452140
vt 0.116536 0.449468
vt 0.112508 0.446713
vt 0.108537 0.443877
vt 0.104624 0.440960
vt 0.100772 0.437965
vt 0.096981 0.434892
vt 0.093253 0.431743
vt 0.089590 0.428518
vt 0.085994 0.425219
vt 0.082465 0.421849
vt 0.079005 0.418407
vt 0.075616 0.414895
vt 0.072300 0.411315
vt 0.069057 0.407669
vt 0.065888 0.403957
vt 0.062796 0.400182
vt 0.059781 0.396345
vt 0.056845 0.392447
vt 0.053988 0.388490
vt 0.051213 0.384476
vt 0.048520 0.380406
vt 0.045910 0.376283
vt 0.043385 0.372107
vt 0.040945 0.367881
vt 0.038591 0.363606
vt 0.036325 0.359284
vt 0.034147 0.354917
vt 0.032058 0.350506
vt 0.030060 0.346054
vt 0.028152 0.341562
vt 0.026337 0.337032
vt 0.024613 0.332467
vt 0.022983 0.327867
vt 0.021447 0.323235
vt 0.020005 0.318573
vt 0.018658 0.313882
vt 0.017407 0.309165
vt 0.016252 0.304424
vt 0.015194 0.299660
vt 0.014233 0.294876
vt 0.013369 0.290073
vt 0.012603 0.285253
vt 0.011936 0.280419
vt 0.011366 0.275572
vt 0.010896 0.270715
vt 0.010524 0.265849
vt 0.010251 0.260976
vt 0.010078 0.256100
vt 0.010003 0.251220
vt 0.010028 0.246340
vt 0.010152 0.241462
vt 0.010375 0.236587
vt 0.010697 0.231717
vt 0.011119 0.226855
vt 0.011639 0.222003
vt 0.012257 0.217162
vt 0.012974 0.212335
vt 0.013789 0.207524
vt 0.014701 0.202730
vt 0.015711 0.197955
vt 0.016818 0.193202
vt 0.018021 0.188473
vt 0.019320 0.183769
vt 0.020714 0.179092
vt 0.022203 0.174445
vt 0.023786 0.169829
vt 0.025463 0.165246
vt 0.027233 0.160698
vt 0.029095 0.156187
vt 0.031048 0.151715
vt 0.033092 0.147283
vt 0.035225 0.142894
vt 0.037447 0.138550
vt 0.039757 0.134251
vt 0.042154 0.130000
vt 0.044637 0.125799
vt 0.047205 0.121649
vt 0.049856 0.117552
vt 0.052591 0.113510
vt 0.055407 0.109524
vt 0.058303 0.105597
vt 0.061279 0.101729
vt 0.064332 0.097923
vt 0.067463 0.094179
vt 0.070669 0.090500
vt 0.073949 0.086886
vt 0.077302 0.083341
vt 0.080726 0.079864
vt 0.084221 0.076457
vt 0.087783 0.073122
vt 0.091413 0.069860
vt 0.095109 0.066673
vt 0.098868 0.063562
vt 0.102690 0.060527
vt 0.106573 0.057571
vt 0.110515 0.054695
vt 0.114515 0.051899
vt 0.118571 0.049185
vt 0.122681 0.046555
vt 0.126844 0.044008
vt 0.131058 0.041547
vt 0.135321 0.039171
vt 0.139631 0.036883
vt 0.143988 0.034683
vt 0.148387 0.032572
vt 0.152829 0.030551
vt 0.157311 0.028621
vt 0.161832 0.026782
vt 0.166388 0.025035
vt 0.170980 0.023382
vt 0.175604 0.021822
vt 0.180259 0.020356
vt 0.184942 0.018986
vt 0.189653 0.017711
vt 0.194388 0.016532
vt 0.199147 0.015449
vt 0.203926 0.014464
vt 0.208725 0.013576
vt 0.213541 0.012786
vt 0.218371 0.012093
vt 0.223215 0.011499
vt 0.228070 0.011004
vt 0.232934 0.010608
vt 0.237805 0.010310
vt 0.242681 0.010112
vt 0.247560 0.010012
vt 0.252440 0.010012
vt 0.257319 0.010112
vt 0.262195 0.010310
vt 0.267066 0.010608
vt 0.271930 0.011004
vt 0.276785 0.011499
vt 0.281629 0.012093
vt 0.286459 0.012786
vt 0.291275 0.013576
vt 0.296074 0.014464
vt 0.300853 0.015449
vt 0.305612 0.016532
vt 0.310347 0.017711
vt 0.315058 0.018986
vt 0.319741 0.020356
vt 0.324396 0.021822
vt 0.329020 0.023382
vt 0.333612 0.025035
vt 0.338168 0.026782
vt 0.342689 0.028621
vt 0.347171 0.030551
vt 0.351613 0.032572
vt 0.356012 0.034683
vt 0.360368 0.036883
vt 0.364679 0.039171
vt 0.368942 0.041547
vt 0.373156 0.044008
vt 0.377319 0.046555
vt 0.381429 0.049185
vt 0.385485 0.051899
vt 0.389485 0.054695
vt 0.393427 0.057571
vt 0.397310 0.060527
vt 0.401132 0.063562
vt 0.404891 0.066673
vt 0.408587 0.069860
vt 0.412217 0.073122
vt 0.415779 0.076457
vt 0.419274 0.079864
vt 0.422698 0.083341
vt 0.426051 0.086886
vt 0.429331 0.090500
vt 0.432537 0.094179
vt 0.435668 0.097923
vt 0.438721 0.101729
vt 0.441697 0.105597
vt 0.444593 0.109524
vt 0.447409 0.113510
vt 0.450144 0.117552
vt 0.452795 0.121649
vt 0.455363 0.125799
vt 0.457846 0.130000
vt 0.460243 0.134251
vt 0.462553 0.138550
vt 0.464775 0.142894
vt 0.466909 0.147283
vt 0.468952 0.151715
vt 0.470905 0.156187
vt 0.472767 0.160698
vt 0.474537 0.165246
vt 0.476214 0.169829
vt 0.477797 0.174445
vt 0.479286 0.179092
vt 0.480680 0.183769
vt 0.481979 0.188473
vt 0.483182 0.193202
vt 0.484289 0.197955
vt 0.485299 0.202730
vt 0.486211 0.207524
vt 0.487026 0.212335
vt 0.487743 0.217162
vt 0.488361 0.222003
vt 0.488881 0.226855
vt 0.489303 0.231717
vt 0.489625 0.236587
vt 0.489848 0.241462
vt 0.489972 0.246340
vt 0.489997 0.251220
vt 0.489922 0.256100
vt 0.489749 0.260976
vt 0.489476 0.265849
vt 0.489104 0.270715
vt 0.488634 0.275572
vt 0.488064 0.280419
vt 0.487397 0.285253
vt 0.486631 0.290073
vt 0.485767 0.294876
vt 0.484806 0.299660
vt 0.483748 0.304424
vt 0.482593 0.309165
vt 0.481342 0.313882
vt 0.479995 0.318573
vt 0.478553 0.323235
vt 0.477017 0.327867
vt 0.475387 0.332467
vt 0.473663 0.337032
vt 0.471848 0.341562
vt 0.469940 0.346054
vt 0.467942 0.350506
vt 0.465853 0.354917
vt 0.463675 0.359284
vt 0.461409 0.363606
vt 0.459055 0.367881
vt 0.456615 0.372107
vt 0.454090 0.376283
vt 0.451480 0.380406
vt 0.448787 0.384476
vt 0.446012 0.388490
vt 0.443155 0.392447
vt 0.440219 0.396345
vt 0.437204 0.400182
vt 0.434112 0.403957
vt 0.430943 0.407669
vt 0.427700 0.411315
vt 0.424384 0.414895
vt 0.420995 0.418407
vt 0.417535 0.421849
vt 0.414006 0.425219
vt 0.410410 0.428518
vt 0.406747 0.431743
vt 0.403019 0.434892
vt 0.399228 0.437965
vt 0.395376 0.440960
vt 0.391463 0.443877
vt 0.387492 0.446713
vt 0.383464 0.449468
vt 0.379380 0.452140
vt 0.375244 0.454729
vt 0.371055 0.457233
vt 0.366816 0.459652
vt 0.362530 0.461984
vt 0.358196 0.464228
vt 0.353818 0.466384
vt 0.349397 0.468450
vt 0.344935 0.470426
vt 0.340433 0.472310
vt 0.335894 0.474103
vt 0.331320 0.475803
vt 0.326712 0.477410
vt 0.322072 0.478923
vt 0.317403 0.480341
vt 0.312706 0.481664
vt 0.307982 0.482891
vt 0.303235 0.484021
vt 0.298466 0.485055
vt 0.293677 0.485992
vt 0.288869 0.486832
vt 0.284046 0.487573
vt 0.279208 0.488216
vt 0.274359 0.488761
vt 0.269499 0.489207
vt 0.264631 0.489554
vt 0.259758 0.489802
vt 0.003239 1.000000
vt 0.003239 0.500000
vt 0.000003 1.000000
vt 0.000003 0.500000
vt 0.750000 0.490000
vt 0.754880 0.489950
vt 0.759758 0.489802
vt 0.764631 0.489554
vt 0.769499 0.489207
vt 0.774359 0.488761
vt 0.779208 0.488216
vt 0.784046 0.487573
vt 0.788869 0.486832
vt 0.793677 0.485992
vt 0.798466 0.485055
vt 0.803235 0.484021
vt 0.807982 0.482891
vt 0.812706 0.481664
vt 0.817403 0.480341
vt 0.822072 0.478923
vt 0.826712 0.477410
vt 0.831320 0.475803
vt 0.835894 0.474103
vt 0.840433 0.472310
vt 0.844935 0.470426
vt 0.849397 0.468450
vt 0.853818 0.466384
vt 0.858196 0.464228
vt 0.862530 0.461984
vt 0.866816 0.459652
vt 0.871055 0.457233
vt 0.875244 0.454729
vt 0.879380 0.452140
vt 0.883464 0.449468
vt 0.887492 0.446713
vt 0.891463 0.443877
vt 0.895376 0.440960
vt 0.899228 0.437965
vt 0.903019 0.434892
vt 0.906747 0.431743
vt 0.910410 0.428518
vt 0.914006 0.425219
vt 0.917535 0.421849
vt 0.920995 0.418407
vt 0.924384 0.414895
vt 0.927700 0.411315
vt 0.930943 0.407669
vt 0.934112 0.403957
vt 0.937204 0.400182
vt 0.940219 0.396345
vt 0.943155 0.392447
vt 0.946012 0.388490
vt 0.948787 0.384476
vt 0.951480 0.380406
vt 0.954090 0.376283
vt 0.956615 0.372107
vt 0.959055 0.367881
vt 0.961409 0.363606
vt 0.963675 0.359284
vt 0.965853 0.354917
vt 0.967942 0.350506
vt 0.969940 0.346054
vt 0.971848 0.341562
vt 0.973663 0.337032
vt 0.975387 0.332467
vt 0.977017 0.327867
vt 0.978553 0.323235
vt 0.979995 0.318573
vt 0.981342 0.313882
vt 0.982593 0.309165
vt 0.983748 0.304424
vt 0.984806 0.299660
vt 0.985767 0.294876
vt 0.986631 0.290073
vt 0.987397 0.285253
vt 0.988064 0.280419
vt 0.988634 0.275572
vt 0.989104 0.270715
vt 0.989476 0.265849
vt 0.989749 0.260976
vt 0.989922 0.256100
vt 0.989997 0.251220
vt 0.989972 0.246340
vt 0.989848 0.241462
vt 0.989625 0.236587
vt 0.989303 0.231717
vt 0.988881 0.226855
vt 0.988361 0.222003
vt 0.987743 0.217162
vt 0.987026 0.212335
vt 0.986211 0.207524
vt 0.985299 0.202730
vt 0.984289 0.197955
vt 0.983182 0.193202
vt 0.981979 0.188473
vt 0.980680 0.183769
vt 0.979286 0.179092
vt 0.977797 0.174445
vt 0.976214 0.169829
vt 0.974537 0.165246
vt 0.972767 0.160698
vt 0.970905 0.156187
vt 0.968952 0.151715
vt 0.966909 0.147283
vt 0.964775 0.142894
vt 0.962553 0.138550
vt 0.960243 0.134251
vt 0.957846 0.130000
vt 0.955363 0.125799
vt 0.952795 0.121649
vt 0.950144 0.117552
vt 0.947409 0.113510
vt 0.944593 0.109524
vt 0.941697 0.105597
vt 0.938721 0.101729
vt 0.935668 0.097923
vt 0.932537 0.094179
vt 0.929331 0.090500
vt 0.926051 0.086886
vt 0.922698 0.083341
vt 0.919274 0.079864
vt 0.915779 0.076457
vt 0.912217 0.073122
vt 0.908587 0.069860
vt 0.904891 0.066673
vt 0.901132 0.063562
vt 0.897310 0.060527
vt 0.893427 0.057571
vt 0.889485 0.054695
vt 0.885485 0.051899
vt 0.881429 0.049185
vt 0.877319 0.046555
vt 0.873156 0.044008
vt 0.868942 0.041547
vt 0.864679 0.039171
vt 0.860368 0.036883
vt 0.856012 0.034683
vt 0.851613 0.032572
vt 0.847171 0.030551
vt 0.842689 0.028621
vt 0.838168 0.026782
vt 0.833612 0.025035
vt 0.829020 0.023382
vt 0.824396 0.021822
vt 0.819741 0.020356
vt 0.815058 0.018986
vt 0.810347 0.017711
vt 0.805612 0.016532
vt 0.800853 0.015449
vt 0.796074 0.014464
vt 0.791275 0.013576
vt 0.786459 0.012786
vt 0.781629 0.012093
vt 0.776785 0.011499
vt 0.771930 0.011004
vt 0.767066 0.010608
vt 0.762195 0.010310
vt 0.757319 0.010112
vt 0.752440 0.010012
vt 0.747560 0.010012
vt 0.742681 0.010112
vt 0.737805 0.010310
vt 0.732934 0.010608
vt 0.728070 0.011004
vt 0.723215 0.011499
vt 0.718371 0.012093
vt 0.713541 0.012786
vt 0.708725 0.013576
vt 0.703926 0.014464
vt 0.699147 0.015449
vt 0.694388 0.016532
vt 0.689653 0.017711
vt 0.684942 0.018986
vt 0.680259 0.020356
vt 0.675604 0.021822
vt 0.670980 0.023382
vt 0.666388 0.025035
vt 0.661832 0.026782
vt 0.657311 0.028621
vt 0.652829 0.030551
vt 0.648387 0.032572
vt 0.643988 0.034683
vt 0.639632 0.036883
vt 0.635321 0.039171
vt 0.631058 0.041547
vt 0.626844 0.044008
vt 0.622681 0.046555
vt 0.618571 0.049185
vt 0.614515 0.051899
vt 0.610515 0.054695
vt 0.606573 0.057571
vt 0.602690 0.060527
vt 0.598868 0.063562
vt 0.595109 0.066673
vt 0.591413 0.069860
vt 0.587783 0.073122
vt 0.584221 0.076457
vt 0.580726 0.079864
vt 0.577302 0.083341
vt 0.573949 0.086886
vt 0.570669 0.090500
vt 0.567463 0.094179
vt 0.564332 0.097923
vt 0.561279 0.101729
vt 0.558303 0.105597
vt 0.555407 0.109524
vt 0.552591 0.113510
vt 0.549856 0.117552
vt 0.547205 0.121649
vt 0.544637 0.125799
vt 0.542154 0.130000
vt 0.539757 0.134251
vt 0.537447 0.138550
vt 0.535225 0.142894
vt 0.533091 0.147283
vt 0.531048 0.151715
vt 0.529095 0.156187
vt 0.527233 0.160698
vt 0.525463 0.165246
vt 0.523786 0.169829
vt 0.522203 0.174445
vt 0.520714 0.179092
vt 0.519320 0.183769
vt 0.518021 0.188473
vt 0.516818 0.193202
vt 0.515711 0.197955
vt 0.514701 0.202730
vt 0.513789 0.207524
vt 0.512974 0.212335
vt 0.512257 0.217162
vt 0.511639 0.222003
vt 0.511119 0.226855
vt 0.510697 0.231717
vt 0.510375 0.236587
vt 0.510152 0.241462
vt 0.510028 0.246340
vt 0.510003 0.251220
vt 0.510078 0.256100
vt 0.510251 0.260976
vt 0.510524 0.265849
vt 0.510896 0.270715
vt 0.511366 0.275572
vt 0.511936 0.280419
vt 0.512603 0.285253
vt 0.513369 0.290073
vt 0.514233 0.294876
vt 0.515194 0.299660
vt 0.516252 0.304424
vt 0.517407 0.309165
vt 0.518658 0.313882
vt 0.520005 0.318573
vt 0.521447 0.323235
vt 0.522983 0.327867
vt 0.524613 0.332467
vt 0.526337 0.337032
vt 0.528152 0.341562
vt 0.530060 0.346054
vt 0.532058 0.350506
vt 0.534147 0.354917
vt 0.536325 0.359284
vt 0.538591 0.363606
vt 0.540945 0.367881
vt 0.543385 0.372107
vt 0.545910 0.376283
vt 0.548520 0.380406
vt 0.551213 0.384476
vt 0.553988 0.388490
vt 0.556845 0.392447
vt 0.559781 0.396345
vt 0.562796 0.400182
vt 0.565888 0.403957
vt 0.569057 0.407669
vt 0.572300 0.411315
vt 0.575616 0.414895
vt 0.579005 0.418407
vt 0.582465 0.421849
vt 0.585994 0.425219
vt 0.589590 0.428518
vt 0.593253 0.431743
vt 0.596981 0.434892
vt 0.600772 0.437965
vt 0.604624 0.440960
vt 0.608537 0.443877
vt 0.612508 0.446713
vt 0.616536 0.449468
vt 0.620620 0.452140
vt 0.624756 0.454729
vt 0.628945 0.457233
vt 0.633184 0.459652
vt 0.637470 0.461984
vt 0.641804 0.464228
vt 0.646182 0.466384
vt 0.650603 0.468450
vt 0.655065 0.470426
vt 0.659567 0.472310
vt 0.664106 0.474103
vt 0.668680 0.475803
vt 0.673288 0.477410
vt 0.677928 0.478923
vt 0.682597 0.480341
vt 0.687294 0.481664
vt 0.692018 0.482891
vt 0.696765 0.484021
vt 0.701534 0.485055
vt 0.706323 0.485992
vt 0.711131 0.486832
vt 0.715954 0.487573
vt 0.720792 0.488216
vt 0.725641 0.488761
vt 0.730501 0.489207
vt 0.735369 0.489554
vt 0.740242 0.489802
vt 0.745120 0.489950
vn 0.0102 0.0000 -0.9999
vn 0.0305 0.0000 -0.9995
vn 0.0508 0.0000 -0.9987
vn 0.0711 0.0000 -0.9975
vn 0.0914 0.0000 -0.9958
vn 0.1116 0.0000 -0.9938
vn 0.1318 0.0000 -0.9913
vn 0.1519 0.0000 -0.9884
vn 0.1720 0.0000 -0.9851
vn 0.1920 0.0000 -0.9814
vn 0.2119 0.0000 -0.9773
vn 0.2317 0.0000 -0.9728
vn 0.2514 0.0000 -0.9679
vn 0.2711 0.0000 -0.9626
vn 0.2906 0.0000 -0.9568
vn 0.3100 0.0000 -0.9507
vn 0.3293 0.0000 -0.9442
vn 0.3484 0.0000 -0.9374
vn 0.3674 0.0000 -0.9301
vn 0.3862 0.0000 -0.9224
vn 0.4049 0.0000 -0.9144
vn 0.4234 0.0000 -0.9059
vn 0.4417 0.0000 -0.8972
vn 0.4599 0.0000 -0.8880
vn 0.4778 0.0000 -0.8785
vn 0.4956 0.0000 -0.8686
vn 0.5131 0.0000 -0.8583
vn 0.5305 0.0000 -0.8477
vn 0.5476 0.0000 -0.8367
vn 0.5645 0.0000 -0.8254
vn 0.5812 0.0000 -0.8138
vn 0.5976 0.0000 -0.8018
vn 0.6138 0.0000 -0.7895
vn 0.6297 0.0000 -0.7768
vn 0.6454 0.0000 -0.7639
vn 0.6608 0.0000 -0.7506
vn 0.6759 0.0000 -0.7370
vn 0.6907 0.0000 -0.7231
vn 0.7053 0.0000 -0.7089
vn 0.7196 0.0000 -0.6944
vn 0.7335 0.0000 -0.6796
vn 0.7472 0.0000 -0.6646
vn 0.7606 0.0000 -0.6493
vn 0.7736 0.0000 -0.6337
vn 0.7863 0.0000 -0.6178
vn 0.7987 0.0000 -0.6017
vn 0.8108 0.0000 -0.5853
vn 0.8225 0.0000 -0.5687
vn 0.8339 0.0000 -0.5519
vn 0.8450 0.0000 -0.5348
vn 0.8557 0.0000 -0.5175
vn 0.8660 0.0000 -0.5000
vn 0.8760 0.0000 -0.4823
vn 0.8856 0.0000 -0.4644
vn 0.8949 0.0000 -0.4463
vn 0.9038 0.0000 -0.4280
vn 0.9123 0.0000 -0.4095
vn 0.9204 0.0000 -0.3909
vn 0.9282 0.0000 -0.3721
vn 0.9356 0.0000 -0.3531
vn 0.9426 0.0000 -0.3340
vn 0.9492 0.0000 -0.3148
vn 0.9554 0.0000 -0.2954
vn 0.9612 0.0000 -0.2760
vn 0.9666 0.0000 -0.2564
vn 0.9716 0.0000 -0.2367
vn 0.9762 0.0000 -0.2169
vn 0.9804 0.0000 -0.1970
vn 0.9842 0.0000 -0.1770
vn 0.9876 0.0000 -0.1569
vn 0.9906 0.0000 -0.1368
vn 0.9932 0.0000 -0.1167
vn 0.9953 0.0000 -0.0964
vn 0.9971 0.0000 -0.0762
vn 0.9984 0.0000 -0.0559
vn 0.9994 0.0000 -0.0356
vn 0.9999 0.0000 -0.0152
vn 1.0000 0.0000 0.0051
vn 0.9997 0.0000 0.0254
vn 0.9990 0.0000 0.0457
vn 0.9978 0.0000 0.0660
vn 0.9963 0.0000 0.0863
vn 0.9943 0.0000 0.1065
vn 0.9919 0.0000 0.1267
vn 0.9892 0.0000 0.1469
vn 0.9860 0.0000 0.1670
vn 0.9824 0.0000 0.1870
vn 0.9784 0.0000 0.2069
vn 0.9739 0.0000 0.2268
vn 0.9691 0.0000 0.2465
vn 0.9639 0.0000 0.2662
vn 0.9583 0.0000 0.2857
vn 0.9523 0.0000 0.3051
vn 0.9459 0.0000 0.3244
vn 0.9391 0.0000 0.3436
vn 0.9319 0.0000 0.3626
vn 0.9244 0.0000 0.3815
vn 0.9164 0.0000 0.4002
vn 0.9081 0.0000 0.4188
vn 0.8994 0.0000 0.4372
vn 0.8903 0.0000 0.4554
vn 0.8809 0.0000 0.4734
vn 0.8711 0.0000 0.4912
vn 0.8609 0.0000 0.5088
vn 0.8504 0.0000 0.5262
vn 0.8395 0.0000 0.5434
vn 0.8283 0.0000 0.5603
vn 0.8167 0.0000 0.5770
vn 0.8048 0.0000 0.5935
vn 0.7926 0.0000 0.6098
vn 0.7800 0.0000 0.6258
vn 0.7671 0.0000 0.6415
vn 0.7539 0.0000 0.6570
vn 0.7404 0.0000 0.6721
vn 0.7266 0.0000 0.6871
vn 0.7125 0.0000 0.7017
vn 0.6981 0.0000 0.7160
vn 0.6834 0.0000 0.7301
vn 0.6684 0.0000 0.7438
vn 0.6531 0.0000 0.7573
vn 0.6376 0.0000 0.7704
vn 0.6218 0.0000 0.7832
vn 0.6057 0.0000 0.7957
vn 0.5894 0.0000 0.8078
vn 0.5729 0.0000 0.8196
vn 0.5561 0.0000 0.8311
vn 0.5391 0.0000 0.8423
vn 0.5218 0.0000 0.8530
vn 0.5044 0.0000 0.8635
vn 0.4867 0.0000 0.8735
vn 0.4689 0.0000 0.8833
vn 0.4508 0.0000 0.8926
vn 0.4326 0.0000 0.9016
vn 0.4142 0.0000 0.9102
vn 0.3956 0.0000 0.9184
vn 0.3768 0.0000 0.9263
vn 0.3579 0.0000 0.9338
vn 0.3388 0.0000 0.9408
vn 0.3196 0.0000 0.9475
vn 0.3003 0.0000 0.9538
vn 0.2808 0.0000 0.9598
vn 0.2613 0.0000 0.9653
vn 0.2416 0.0000 0.9704
vn 0.2218 0.0000 0.9751
vn 0.2019 0.0000 0.9794
vn 0.1820 0.0000 0.9833
vn 0.1620 0.0000 0.9868
vn 0.1419 0.0000 0.9899
vn 0.1217 0.0000 0.9926
vn 0.1015 0.0000 0.9948
vn 0.0812 0.0000 0.9967
vn 0.0610 0.0000 0.9981
vn 0.0407 0.0000 0.9992
vn 0.0203 0.0000 0.9998
vn 0.0000 0.0000 1.0000
vn -0.0203 0.0000 0.9998
vn -0.0407 0.0000 0.9992
vn -0.0610 0.0000 0.9981
vn -0.0812 0.0000 0.9967
vn -0.1015 0.0000 0.9948
vn -0.1217 0.0000 0.9926
vn -0.1419 0.0000 0.9899
vn -0.1620 0.0000 0.9868
vn -0.1820 0.0000 0.9833
vn -0.2019 0.0000 0.9794
vn -0.2218 0.0000 0.9751
vn -0.2416 0.0000 0.9704
vn -0.2613 0.0000 0.9653
vn -0.2808 0.0000 0.9598
vn -0.3003 0.0000 0.9538
vn -0.3196 0.0000 0.9475
vn -0.3388 0.0000 0.9408
vn -0.3579 0.0000 0.9338
vn -0.3768 0.0000 0.9263
vn -0.3956 0.0000 0.9184
vn -0.4142 0.0000 0.9102
vn -0.4326 0.0000 0.9016
vn -0.4508 0.0000 0.8926
vn -0.4689 0.0000 0.8833
vn -0.4867 0.0000 0.8735
vn -0.5044 0.0000 0.8635
vn -0.5218 0.0000 0.8530
vn -0.5391 0.0000 0.8423
vn -0.5561 0.0000 0.8311
vn -0.5729 0.0000 0.8196
vn -0.5894 0.0000 0.8078
vn -0.6057 0.0000 0.7957
vn -0.6218 0.0000 0.7832
vn -0.6376 0.0000 0.7704
vn -0.6531 0.0000 0.7573
vn -0.6684 0.0000 0.7438
vn -0.6834 0.0000 0.7301
vn -0.6981 0.0000 0.7160
vn -0.7125 0.0000 0.7017
vn -0.7266 0.0000 0.6871
vn -0.7404 0.0000 0.6721
vn -0.7539 0.0000 0.6570
vn -0.7671 0.0000 0.6415
vn -0.7800 0.0000 0.6258
vn -0.7926 0.0000 0.6098
vn -0.8048 0.0000 0.5935
vn -0.8167 0.0000 0.5770
vn -0.8283 0.0000 0.5603
vn -0.8395 0.0000 0.5434
vn -0.8504 0.0000 0.5262
vn -0.8609 0.0000 0.5088
vn -0.8711 0.0000 0.4912
vn -0.8809 0.0000 0.4734
vn -0.8903 0.0000 0.4554
vn -0.8994 0.0000 0.4372
vn -0.9081 0.0000 0.4188
vn -0.9164 0.0000 0.4002
vn -0.9244 0.0000 0.3815
vn -0.9319 0.0000 0.3626
vn -0.9391 0.0000 0.3436
vn -0.9459 0.0000 0.3244
vn -0.9523 0.0000 0.3051
vn -0.9583 0.0000 0.2857
vn -0.9639 0.0000 0.2662
vn -0.9691 0.0000 0.2465
vn -0.9739 0.0000 0.2268
vn -0.9784 0.0000 0.2069
vn -0.9824 0.0000 0.1870
vn -0.9860 0.0000 0.1670
vn -0.9892 0.0000 0.1469
vn -0.9919 0.0000 0.1267
vn -0.9943 0.0000 0.1065
vn -0.9963 0.0000 0.0863
vn -0.9978 0.0000 0.0660
vn -0.9990 0.0000 0.0457
vn -0.9997 0.0000 0.0254
vn -1.0000 0.0000 0.0051
vn -0.9999 0.0000 -0.0152
vn -0.9994 0.0000 -0.0356
vn -0.9984 0.0000 -0.0559
vn -0.9971 0.0000 -0.0762
vn -0.9953 0.0000 -0.0964
vn -0.9932 0.0000 -0.1167
vn -0.9906 0.0000 -0.1368
vn -0.9876 0.0000 -0.1569
vn -0.9842 0.0000 -0.1770
vn -0.9804 0.0000 -0.1970
vn -0.9762 0.0000 -0.2169
vn -0.9716 0.0000 -0.2367
vn -0.9666 0.0000 -0.2564
vn -0.9612 0.0000 -0.2760
vn -0.9554 0.0000 -0.2954
vn -0.9492 0.0000 -0.3148
vn -0.9426 0.0000 -0.3340
vn -0.9356 0.0000 -0.3531
vn -0.9282 0.0000 -0.3721
vn -0.9204 0.0000 -0.3909
vn -0.9123 0.0000 -0.4095
vn -0.9038 0.0000 -0.4280
vn -0.8949 0.0000 -0.4463
vn -0.8856 0.0000 -0.4644
vn -0.8760 0.0000 -0.4823
vn -0.8660 0.0000 -0.5000
vn -0.8557 0.0000 -0.5175
vn -0.8450 0.0000 -0.5348
vn -0.8339 0.0000 -0.5519
vn -0.8225 0.0000 -0.5687
vn -0.8108 0.0000 -0.5853
vn -0.7987 0.0000 -0.6017
vn -0.7863 0.0000 -0.6178
vn -0.7736 0.0000 -0.6337
vn -0.7606 0.0000 -0.6493
vn -0.7472 0.0000 -0.6646
vn -0.7335 0.0000 -0.6796
vn -0.7196 0.0000 -0.6944
vn -0.7053 0.0000 -0.7089
vn -0.6907 0.0000 -0.7231
vn -0.6759 0.0000 -0.7370
vn -0.6608 0.0000 -0.7506
vn -0.6454 0.0000 -0.7639
vn -0.6297 0.0000 -0.7768
vn -0.6138 0.0000 -0.7895
vn -0.5976 0.0000 -0.8018
vn -0.5812 0.0000 -0.8138
vn -0.5645 0.0000 -0.8254
vn -0.5476 0.0000 -0.8367
vn -0.5305 0.0000 -0.8477
vn -0.5131 0.0000 -0.8583
vn -0.4956 0.0000 -0.8686
vn -0.4778 0.0000 -0.8785
vn -0.4599 0.0000 -0.8880
vn -0.4417 0.0000 -0.8972
vn -0.4234 0.0000 -0.9059
vn -0.4049 0.0000 -0.9144
vn -0.3862 0.0000 -0.9224
vn -0.3674 0.0000 -0.9301
vn -0.3484 0.0000 -0.9374
vn -0.3293 0.0000 -0.9442
vn -0.3100 0.0000 -0.9507
vn -0.2906 0.0000 -0.9568
vn -0.2711 0.0000 -0.9626
vn -0.2514 0.0000 -0.9679
vn -0.2317 0.0000 -0.9728
vn -0.2119 0.0000 -0.9773
vn -0.1920 0.0000 -0.9814
vn -0.1720 0.0000 -0.9851
vn -0.1519 0.0000 -0.9884
vn -0.1318 0.0000 -0.9913
vn -0.1116 0.0000 -0.9938
vn -0.0914 0.0000 -0.9958
vn -0.0711 0.0000 -0.9975
vn -0.0508 0.0000 -0.9987
vn 0.0000 1.0000 -0.0000
vn -0.0305 0.0000 -0.9995
vn -0.0102 0.0000 -0.9999
vn 0.0000 -1.0000 -0.0000
usemtl None
s off
f 1/1/1 2/2/1 4/3/1 3/4/1
f 3/4/2 4/3/2 6/5/2 5/6/2
f 5/6/3 6/5/3 8/7/3 7/8/3
f 7/8/4 8/7/4 10/9/4 9/10/4
f 9/10/5 10/9/5 12/11/5 11/12/5
f 11/12/6 12/11/6 14/13/6 13/14/6
f 13/14/7 14/13/7 16/15/7 15/16/7
f 15/16/8 16/15/8 18/17/8 17/18/8
f 17/18/9 18/17/9 20/19/9 19/20/9
f 19/20/10 20/19/10 22/21/10 21/22/10
f 21/22/11 22/21/11 24/23/11 23/24/11
f 23/24/12 24/23/12 26/25/12 25/26/12
f 25/26/13 26/25/13 28/27/13 27/28/13
f 27/28/14 28/27/14 30/29/14 29/30/14
f 29/30/15 30/29/15 32/31/15 31/32/15
f 31/32/16 32/31/16 34/33/16 33/34/16
f 33/34/17 34/33/17 36/35/17 35/36/17
f 35/36/18 36/35/18 38/37/18 37/38/18
f 37/38/19 38/37/19 40/39/19 39/40/19
f 39/40/20 40/39/20 42/41/20 41/42/20
f 41/42/21 42/41/21 44/43/21 43/44/21
f 43/44/22 44/43/22 46/45/22 45/46/22
f 45/46/23 46/45/23 48/47/23 47/48/23
f 47/48/24 48/47/24 50/49/24 49/50/24
f 49/50/25 50/49/25 52/51/25 51/52/25
f 51/52/26 52/51/26 54/53/26 53/54/26
f 53/54/27 54/53/27 56/55/27 55/56/27
f 55/56/28 56/55/28 58/57/28 57/58/28
f 57/58/29 58/57/29 60/59/29 59/60/29
f 59/60/30 60/59/30 62/61/30 61/62/30
f 61/62/31 62/61/31 64/63/31 63/64/31
f 63/64/32 64/63/32 66/65/32 65/66/32
f 65/66/33 66/65/33 68/67/33 67/68/33
f 67/68/34 68/67/34 70/69/34 69/70/34
f 69/70/35 70/69/35 72/71/35 71/72/35
f 71/72/36 72/71/36 74/73/36 73/74/36
f 73/74/37 74/73/37 76/75/37 75/76/37
f 75/76/38 76/75/38 78/77/38 77/78/38
f 77/78/39 78/77/39 80/79/39 79/80/39
f 79/80/40 80/79/40 82/81/40 81/82/40
f 81/82/41 82/81/41 84/83/41 83/84/41
f 83/84/42 84/83/42 86/85/42 85/86/42
f 85/86/43 86/85/43 88/87/43 87/88/43
f 87/88/44 88/87/44 90/89/44 89/90/44
f 89/90/45 90/89/45 92/91/45 91/92/45
f 91/92/46 92/91/46 94/93/46 93/94/46
f 93/94/47 94/93/47 96/95/47 95/96/47
f 95/96/48 96/95/48 98/97/48 97/98/48
f 97/98/49 98/97/49 100/99/49 99/100/49
f 99/100/50 100/99/50 102/101/50 101/102/50
f 101/102/51 102/101/51 104/103/51 103/104/51
f 103/104/52 104/103/52 106/105/52 105/106/52
f 105/106/53 106/105/53 108/107/53 107/108/53
f 107/108/54 108/107/54 110/109/54 109/110/54
f 109/110/55 110/109/55 112/111/55 111/112/55
f 111/112/56 112/111/56 114/113/56 113/114/56
f 113/114/57 114/113/57 116/115/57 115/116/57
f 115/116/58 116/115/58 118/117/58 117/118/58
f 117/118/59 118/117/59 120/119/59 119/120/59
f 119/120/60 120/119/60 122/121/60 121/122/60
f 121/122/61 122/121/61 124/123/61 123/124/61
f 123/124/62 124/123/62 126/125/62 125/126/62
f 125/126/63 126/125/63 128/127/63 127/128/63
f 127/128/64 128/127/64 130/129/64 129/130/64
f 129/130/65 130/129/65 132/131/65 131/132/65
f 131/132/66 132/131/66 134/133/66 133/134/66
f 133/134/67 134/133/67 136/135/67 135/136/67
f 135/136/68 136/135/68 138/137/68 137/138/68
f 137/138/69 138/137/69 140/139/69 139/140/69
f 139/140/70 140/139/70 142/141/70 141/142/70
f 141/142/71 142/141/71 144/143/71 143/144/71
f 143/144/72 144/143/72 146/145/72 145/146/72
f 145/146/73 146/145/73 148/147/73 147/148/73
f 147/148/74 148/147/74 150/149/74 149/150/74
f 149/150/75 150/149/75 152/151/75 151/152/75
f 151/152/76 152/151/76 154/153/76 153/154/76
f 153/154/77 154/153/77 156/155/77 155/156/77
f 155/156/78 156/155/78 158/157/78 157/158/78
f 157/158/79 158/157/79 160/159/79 159/160/79
f 159/160/80 160/159/80 162/161/80 161/162/80
f 161/162/81 162/161/81 164/163/81 163/164/81
f 163/164/82 164/163/82 166/165/82 165/166/82
f 165/166/83 166/165/83 168/167/83 167/168/83
f 167/168/84 168/167/84 170/169/84 169/170/84
f 169/170/85 170/169/85 172/171/85 171/172/85
f 171/172/86 172/171/86 174/173/86 173/174/86
f 173/174/87 174/173/87 176/175/87 175/176/87
f 175/176/88 176/175/88 178/177/88 177/178/88
f 177/178/89 178/177/89 180/179/89 179/180/89
f 179/180/90 180/179/90 182/181/90 181/182/90
f 181/182/91 182/181/91 184/183/91 183/184/91
f 183/184/92 184/183/92 186/185/92 185/186/92
f 185/186/93 186/185/93 188/187/93 187/188/93
f 187/188/94 188/187/94 190/189/94 189/190/94
f 189/190/95 190/189/95 192/191/95 191/192/95
f 191/192/96 192/191/96 194/193/96 193/194/96
f 193/194/97 194/193/97 196/195/97 195/196/97
f 195/196/98 196/195/98 198/197/98 197/198/98
f 197/198/99 198/197/99 200/199/99 199/200/99
f 199/200/100 200/199/100 202/201/100 201/202/100
f 201/202/101 202/201/101 204/203/101 203/204/101
f 203/204/102 204/203/102 206/205/102 205/206/102
f 205/206/103 206/205/103 208/207/103 207/208/103
f 207/208/104 208/207/104 210/209/104 209/210/104
f 209/210/105 210/209/105 212/211/105 211/212/105
f 211/212/106 212/211/106 214/213/106 213/214/106
f 213/214/107 214/213/107 216/215/107 215/216/107
f 215/216/108 216/215/108 218/217/108 217/218/108
f 217/218/109 218/217/109 220/219/109 219/220/109
f 219/220/110 220/219/110 222/221/110 221/222/110
f 221/222/111 222/221/111 224/223/111 223/224/111
f 223/224/112 224/223/112 226/225/112 225/226/112
f 225/226/113 226/225/113 228/227/113 227/228/113
f 227/228/114 228/227/114 230/229/114 229/230/114
f 229/230/115 230/229/115 232/231/115 231/232/115
f 231/232/116 232/231/116 234/233/116 233/234/116
f 233/234/117 234/233/117 236/235/117 235/236/117
f 235/236/118 236/235/118 238/237/118 237/238/118
f 237/238/119 238/237/119 240/239/119 239/240/119
f 239/240/120 240/239/120 242/241/120 241/242/120
f 241/242/121 242/241/121 244/243/121 243/244/121
f 243/244/122 244/243/122 246/245/122 245/246/122
f 245/246/123 246/245/123 248/247/123 247/248/123
f 247/248/124 248/247/124 250/249/124 249/250/124
f 249/250/125 250/249/125 252/251/125 251/252/125
f 251/252/126 252/251/126 254/253/126 253/254/126
f 253/254/127 254/253/127 256/255/127 255/256/127
f 255/256/128 256/255/128 258/257/128 257/258/128
f 257/258/129 258/257/129 260/259/129 259/260/129
f 259/260/130 260/259/130 262/261/130 261/262/130
f 261/262/131 262/261/131 264/263/131 263/264/131
f 263/264/132 264/263/132 266/265/132 265/266/132
f 265/266/133 266/265/133 268/267/133 267/268/133
f 267/268/134 268/267/134 270/269/134 269/270/134
f 269/270/135 270/269/135 272/271/135 271/272/135
f 271/272/136 272/271/136 274/273/136 273/274/136
f 273/274/137 274/273/137 276/275/137 275/276/137
f 275/276/138 276/275/138 278/277/138 277/278/138
f 277/278/139 278/277/139 280/279/139 279/280/139
f 279/280/140 280/279/140 282/281/140 281/282/140
f 281/282/141 282/281/141 284/283/141 283/284/141
f 283/284/142 284/283/142 286/285/142 285/286/142
f 285/286/143 286/285/143 288/287/143 287/288/143
f 287/288/144 288/287/144 290/289/144 289/290/144
f 289/290/145 290/289/145 292/291/145 291/292/145
f 291/292/146 292/291/146 294/293/146 293/294/146
f 293/294/147 294/293/147 296/295/147 295/296/147
f 295/296/148 296/295/148 298/297/148 297/298/148
f 297/298/149 298/297/149 300/299/149 299/300/149
f 299/300/150 300/299/150 302/301/150 301/302/150
f 301/302/151 302/301/151 304/303/151 303/304/151
f 303/304/152 304/303/152 306/305/152 305/306/152
f 305/306/153 306/305/153 308/307/153 307/308/153
f 307/308/154 308/307/154 310/309/154 309/310/154
f 309/310/155 310/309/155 312/311/155 311/312/155
f 311/312/156 312/311/156 314/313/156 313/314/156
f 313/314/157 314/313/157 316/315/157 315/316/157
f 315/316/158 316/315/158 318/317/158 317/318/158
f 317/318/159 318/317/159 320/319/159 319/320/159
f 319/320/160 320/319/160 322/321/160 321/322/160
f 321/322/161 322/321/161 324/323/161 323/324/161
f 323/324/162 324/323/162 326/325/162 325/326/162
f 325/326/163 326/325/163 328/327/163 327/328/163
f 327/328/164 328/327/164 330/329/164 329/330/164
f 329/330/165 330/329/165 332/331/165 331/332/165
f 331/332/166 332/331/166 334/333/166 333/334/166
f 333/334/167 334/333/167 336/335/167 335/336/167
f 335/336/168 336/335/168 338/337/168 337/338/168
f 337/338/169 338/337/169 340/339/169 339/340/169
f 339/340/170 340/339/170 342/341/170 341/342/170
f 341/342/171 342/341/171 344/343/171 343/344/171
f 343/344/172 344/343/172 346/345/172 345/346/172
f 345/346/173 346/345/173 348/347/173 347/348/173
f 347/348/174 348/347/174 350/349/174 349/350/174
f 349/350/175 350/349/175 352/351/175 351/352/175
f 351/352/176 352/351/176 354/353/176 353/354/176
f 353/354/177 354/353/177 356/355/177 355/356/177
f 355/356/178 356/355/178 358/357/178 357/358/178
f 357/358/179 358/357/179 360/359/179 359/360/179
f 359/360/180 360/359/180 362/361/180 361/362/180
f 361/362/181 362/361/181 364/363/181 363/364/181
f 363/364/182 364/363/182 366/365/182 365/366/182
f 365/366/183 366/365/183 368/367/183 367/368/183
f 367/368/184 368/367/184 370/369/184 369/370/184
f 369/370/185 370/369/185 372/371/185 371/372/185
f 371/372/186 372/371/186 374/373/186 373/374/186
f 373/374/187 374/373/187 376/375/187 375/376/187
f 375/376/188 376/375/188 378/377/188 377/378/188
f 377/378/189 378/377/189 380/379/189 379/380/189
f 379/380/190 380/379/190 382/381/190 381/382/190
f 381/382/191 382/381/191 384/383/191 383/384/191
f 383/384/192 384/383/192 386/385/192 385/386/192
f 385/386/193 386/385/193 388/387/193 387/388/193
f 387/388/194 388/387/194 390/389/194 389/390/194
f 389/390/195 390/389/195 392/391/195 391/392/195
f 391/392/196 392/391/196 394/393/196 393/394/196
f 393/394/197 394/393/197 396/395/197 395/396/197
f 395/396/198 396/395/198 398/397/198 397/398/198
f 397/398/199 398/397/199 400/399/199 399/400/199
f 399/400/200 400/399/200 402/401/200 401/402/200
f 401/402/201 402/401/201 404/403/201 403/404/201
f 403/404/202 404/403/202 406/405/202 405/406/202
f 405/406/203 406/405/203 408/407/203 407/408/203
f 407/408/204 408/407/204 410/409/204 409/410/204
f 409/410/205 410/409/205 412/411/205 411/412/205
f 411/412/206 412/411/206 414/413/206 413/414/206
f 413/414/207 414/413/207 416/415/207 415/416/207
f 415/416/208 416/415/208 418/417/208 417/418/208
f 417/418/209 418/417/209 420/419/209 419/420/209
f 419/420/210 420/419/210 422/421/210 421/422/210
f 421/422/211 422/421/211 424/423/211 423/424/211
f 423/424/212 424/423/212 426/425/212 425/426/212
f 425/426/213 426/425/213 428/427/213 427/428/213
f 427/428/214 428/427/214 430/429/214 429/430/214
f 429/430/215 430/429/215 432/431/215 431/432/215
f 431/432/216 432/431/216 434/433/216 433/434/216
f 433/434/217 434/433/217 436/435/217 435/436/217
f 435/436/218 436/435/218 438/437/218 437/438/218
f 437/438/219 438/437/219 440/439/219 439/440/219
f 439/440/220 440/439/220 442/441/220 441/442/220
f 441/442/221 442/441/221 444/443/221 443/444/221
f 443/444/222 444/443/222 446/445/222 445/446/222
f 445/446/223 446/445/223 448/447/223 447/448/223
f 447/448/224 448/447/224 450/449/224 449/450/224
f 449/450/225 450/449/225 452/451/225 451/452/225
f 451/452/226 452/451/226 454/453/226 453/454/226
f 453/454/227 454/453/227 456/455/227 455/456/227
f 455/456/228 456/455/228 458/457/228 457/458/228
f 457/458/229 458/457/229 460/459/229 459/460/229
f 459/460/230 460/459/230 462/461/230 461/462/230
f 461/462/231 462/461/231 464/463/231 463/464/231
f 463/464/232 464/463/232 466/465/232 465/466/232
f 465/466/233 466/465/233 468/467/233 467/468/233
f 467/468/234 468/467/234 470/469/234 469/470/234
f 469/470/235 470/469/235 472/471/235 471/472/235
f 471/472/236 472/471/236 474/473/236 473/474/236
f 473/474/237 474/473/237 476/475/237 475/476/237
f 475/476/238 476/475/238 478/477/238 477/478/238
f 477/478/239 478/477/239 480/479/239 479/480/239
f 479/480/240 480/479/240 482/481/240 481/482/240
f 481/482/241 482/481/241 484/483/241 483/484/241
f 483/484/242 484/483/242 486/485/242 485/486/242
f 485/486/243 486/485/243 488/487/243 487/488/243
f 487/488/244 488/487/244 490/489/244 489/490/244
f 489/490/245 490/489/245 492/491/245 491/492/245
f 491/492/246 492/491/246 494/493/246 493/494/246
f 493/494/247 494/493/247 496/495/247 495/496/247
f 495/496/248 496/495/248 498/497/248 497/498/248
f 497/498/249 498/497/249 500/499/249 499/500/249
f 499/500/250 500/499/250 502/501/250 501/502/250
f 501/502/251 502/501/251 504/503/251 503/504/251
f 503/504/252 504/503/252 506/505/252 505/506/252
f 505/506/253 506/505/253 508/507/253 507/508/253
f 507/508/254 508/507/254 510/509/254 509/510/254
f 509/510/255 510/509/255 512/511/255 511/512/255
f 511/512/256 512/511/256 514/513/256 513/514/256
f 513/514/257 514/513/257 516/515/257 515/516/257
f 515/516/258 516/515/258 518/517/258 517/518/258
f 517/518/259 518/517/259 520/519/259 519/520/259
f 519/520/260 520/519/260 522/521/260 521/522/260
f 521/522/261 522/521/261 524/523/261 523/524/261
f 523/524/262 524/523/262 526/525/262 525/526/262
f 525/526/263 526/525/263 528/527/263 527/528/263
f 527/528/264 528/527/264 530/529/264 529/530/264
f 529/530/265 530/529/265 532/531/265 531/532/265
f 531/532/266 532/531/266 534/533/266 533/534/266
f 533/534/267 534/533/267 536/535/267 535/536/267
f 535/536/268 536/535/268 538/537/268 537/538/268
f 537/538/269 538/537/269 540/539/269 539/540/269
f 539/540/270 540/539/270 542/541/270 541/542/270
f 541/542/271 542/541/271 544/543/271 543/544/271
f 543/544/272 544/543/272 546/545/272 545/546/272
f 545/546/273 546/545/273 548/547/273 547/548/273
f 547/548/274 548/547/274 550/549/274 549/550/274
f 549/550/275 550/549/275 552/551/275 551/552/275
f 551/552/276 552/551/276 554/553/276 553/554/276
f 553/554/277 554/553/277 556/555/277 555/556/277
f 555/556/278 556/555/278 558/557/278 557/558/278
f 557/558/279 558/557/279 560/559/279 559/560/279
f 559/560/280 560/559/280 562/561/280 561/562/280
f 561/562/281 562/561/281 564/563/281 563/564/281
f 563/564/282 564/563/282 566/565/282 565/566/282
f 565/566/283 566/565/283 568/567/283 567/568/283
f 567/568/284 568/567/284 570/569/284 569/570/284
f 569/570/285 570/569/285 572/571/285 571/572/285
f 571/572/286 572/571/286 574/573/286 573/574/286
f 573/574/287 574/573/287 576/575/287 575/576/287
f 575/576/288 576/575/288 578/577/288 577/578/288
f 577/578/289 578/577/289 580/579/289 579/580/289
f 579/580/290 580/579/290 582/581/290 581/582/290
f 581/582/291 582/581/291 584/583/291 583/584/291
f 583/584/292 584/583/292 586/585/292 585/586/292
f 585/586/293 586/585/293 588/587/293 587/588/293
f 587/588/294 588/587/294 590/589/294 589/590/294
f 589/590/295 590/589/295 592/591/295 591/592/295
f 591/592/296 592/591/296 594/593/296 593/594/296
f 593/594/297 594/593/297 596/595/297 595/596/297
f 595/596/298 596/595/298 598/597/298 597/598/298
f 597/598/299 598/597/299 600/599/299 599/600/299
f 599/600/300 600/599/300 602/601/300 601/602/300
f 601/602/301 602/601/301 604/603/301 603/604/301
f 603/604/302 604/603/302 606/605/302 605/606/302
f 605/606/303 606/605/303 608/607/303 607/608/303
f 607/608/304 608/607/304 610/609/304 609/610/304
f 609/610/305 610/609/305 612/611/305 611/612/305
f 611/612/306 612/611/306 614/613/306 613/614/306
f 613/614/307 614/613/307 616/615/307 615/616/307
f 4/617/308 2/618/308 618/619/308 616/620/308 614/621/308 612/622/308 610/623/308 608/624/308 606/625/308 604/626/308 602/627/308 600/628/308 598/629/308 596/630/308 594/631/308 592/632/308 590/633/308 588/634/308 586/635/308 584/636/308 582/637/308 580/638/308 578/639/308 576/640/308 574/641/308 572/642/308 570/643/308 568/644/308 566/645/308 564/646/308 562/647/308 560/648/308 558/649/308 556/650/308 554/651/308 552/652/308 550/653/308 548/654/308 546/655/308 544/656/308 542/657/308 540/658/308 538/659/308 536/660/308 534/661/308 532/662/308 530/663/308 528/664/308 526/665/308 524/666/308 522/667/308 520/668/308 518/669/308 516/670/308 514/671/308 512/672/308 510/673/308 508/674/308 506/675/308 504/676/308 502/677/308 500/678/308 498/679/308 496/680/308 494/681/308 492/682/308 490/683/308 488/684/308 486/685/308 484/686/308 482/687/308 480/688/308 478/689/308 476/690/308 474/691/308 472/692/308 470/693/308 468/694/308 466/695/308 464/696/308 462/697/308 460/698/308 458/699/308 456/700/308 454/701/308 452/702/308 450/703/308 448/704/308 446/705/308 444/706/308 442/707/308 440/708/308 438/709/308 436/710/308 434/711/308 432/712/308 430/713/308 428/714/308 426/715/308 424/716/308 422/717/308 420/718/308 418/719/308 416/720/308 414/721/308 412/722/308 410/723/308 408/724/308 406/725/308 404/726/308 402/727/308 400/728/308 398/729/308 396/730/308 394/731/308 392/732/308 390/733/308 388/734/308 386/735/308 384/736/308 382/737/308 380/738/308 378/739/308 376/740/308 374/741/308 372/742/308 370/743/308 368/744/308 366/745/308 364/746/308 362/747/308 360/748/308 358/749/308 356/750/308 354/751/308 352/752/308 350/753/308 348/754/308 346/755/308 344/756/308 342/757/308 340/758/308 338/759/308 336/760/308 334/761/308 332/762/308 330/763/308 328/764/308 326/765/308 324/766/308 322/767/308 320/768/308 318/769/308 316/770/308 314/771/308 312/772/308 310/773/308 308/774/308 306/775/308 304/776/308 302/777/308 300/778/308 298/779/308 296/780/308 294/781/308 292/782/308 290/783/308 288/784/308 286/785/308 284/786/308 282/787/308 280/788/308 278/789/308 276/790/308 274/791/308 272/792/308 270/793/308 268/794/308 266/795/308 264/796/308 262/797/308 260/798/308 258/799/308 256/800/308 254/801/308 252/802/308 250/803/308 248/804/308 246/805/308 244/806/308 242/807/308 240/808/308 238/809/308 236/810/308 234/811/308 232/812/308 230/813/308 228/814/308 226/815/308 224/816/308 222/817/308 220/818/308 218/819/308 216/820/308 214/821/308 212/822/308 210/823/308 208/824/308 206/825/308 204/826/308 202/827/308 200/828/308 198/829/308 196/830/308 194/831/308 192/832/308 190/833/308 188/834/308 186/835/308 184/836/308 182/837/308 180/838/308 178/839/308 176/840/308 174/841/308 172/842/308 170/843/308 168/844/308 166/845/308 164/846/308 162/847/308 160/848/308 158/849/308 156/850/308 154/851/308 152/852/308 150/853/308 148/854/308 146/855/308 144/856/308 142/857/308 140/858/308 138/859/308 136/860/308 134/861/308 132/862/308 130/863/308 128/864/308 126/865/308 124/866/308 122/867/308 120/868/308 118/869/308 116/870/308 114/871/308 112/872/308 110/873/308 108/874/308 106/875/308 104/876/308 102/877/308 100/878/308 98/879/308 96/880/308 94/881/308 92/882/308 90/883/308 88/884/308 86/885/308 84/886/308 82/887/308 80/888/308 78/889/308 76/890/308 74/891/308 72/892/308 70/893/308 68/894/308 66/895/308 64/896/308 62/897/308 60/898/308 58/899/308 56/900/308 54/901/308 52/902/308 50/903/308 48/904/308 46/905/308 44/906/308 42/907/308 40/908/308 38/909/308 36/910/308 34/911/308 32/912/308 30/913/308 28/914/308 26/915/308 24/916/308 22/917/308 20/918/308 18/919/308 16/920/308 14/921/308 12/922/308 10/923/308 8/924/308 6/925/308
f 615/616/309 616/615/309 618/926/309 617/927/309
f 617/927/310 618/926/310 2/928/310 1/929/310
f 1/930/311 3/931/311 5/932/311 7/933/311 9/934/311 11/935/311 13/936/311 15/937/311 17/938/311 19/939/311 21/940/311 23/941/311 25/942/311 27/943/311 29/944/311 31/945/311 33/946/311 35/947/311 37/948/311 39/949/311 41/950/311 43/951/311 45/952/311 47/953/311 49/954/311 51/955/311 53/956/311 55/957/311 57/958/311 59/959/311 61/960/311 63/961/311 65/962/311 67/963/311 69/964/311 71/965/311 73/966/311 75/967/311 77/968/311 79/969/311 81/970/311 83/971/311 85/972/311 87/973/311 89/974/311 91/975/311 93/976/311 95/977/311 97/978/311 99/979/311 101/980/311 103/981/311 105/982/311 107/983/311 109/984/311 111/985/311 113/986/311 115/987/311 117/988/311 119/989/311 121/990/311 123/991/311 125/992/311 127/993/311 129/994/311 131/995/311 133/996/311 135/997/311 137/998/311 139/999/311 141/1000/311 143/1001/311 145/1002/311 147/1003/311 149/1004/311 151/1005/311 153/1006/311 155/1007/311 157/1008/311 159/1009/311 161/1010/311 163/1011/311 165/1012/311 167/1013/311 169/1014/311 171/1015/311 173/1016/311 175/1017/311 177/1018/311 179/1019/311 181/1020/311 183/1021/311 185/1022/311 187/1023/311 189/1024/311 191/1025/311 193/1026/311 195/1027/311 197/1028/311 199/1029/311 201/1030/311 203/1031/311 205/1032/311 207/1033/311 209/1034/311 211/1035/311 213/1036/311 215/1037/311 217/1038/311 219/1039/311 221/1040/311 223/1041/311 225/1042/311 227/1043/311 229/1044/311 231/1045/311 233/1046/311 235/1047/311 237/1048/311 239/1049/311 241/1050/311 243/1051/311 245/1052/311 247/1053/311 249/1054/311 251/1055/311 253/1056/311 255/1057/311 257/1058/311 259/1059/311 261/1060/311 263/1061/311 265/1062/311 267/1063/311 269/1064/311 271/1065/311 273/1066/311 275/1067/311 277/1068/311 279/1069/311 281/1070/311 283/1071/311 285/1072/311 287/1073/311 289/1074/311 291/1075/311 293/1076/311 295/1077/311 297/1078/311 299/1079/311 301/1080/311 303/1081/311 305/1082/311 307/1083/311 309/1084/311 311/1085/311 313/1086/311 315/1087/311 317/1088/311 319/1089/311 321/1090/311 323/1091/311 325/1092/311 327/1093/311 329/1094/311 331/1095/311 333/1096/311 335/1097/311 337/1098/311 339/1099/311 341/1100/311 343/1101/311 345/1102/311 347/1103/311 349/1104/311 351/1105/311 353/1106/311 355/1107/311 357/1108/311 359/1109/311 361/1110/311 363/1111/311 365/1112/311 367/1113/311 369/1114/311 371/1115/311 373/1116/311 375/1117/311 377/1118/311 379/1119/311 381/1120/311 383/1121/311 385/1122/311 387/1123/311 389/1124/311 391/1125/311 393/1126/311 395/1127/311 397/1128/311 399/1129/311 401/1130/311 403/1131/311 405/1132/311 407/1133/311 409/1134/311 411/1135/311 413/1136/311 415/1137/311 417/1138/311 419/1139/311 421/1140/311 423/1141/311 425/1142/311 427/1143/311 429/1144/311 431/1145/311 433/1146/311 435/1147/311 437/1148/311 439/1149/311 441/1150/311 443/1151/311 445/1152/311 447/1153/311 449/1154/311 451/1155/311 453/1156/311 455/1157/311 457/1158/311 459/1159/311 461/1160/311 463/1161/311 465/1162/311 467/1163/311 469/1164/311 471/1165/311 473/1166/311 475/1167/311 477/1168/311 479/1169/311 481/1170/311 483/1171/311 485/1172/311 487/1173/311 489/1174/311 491/1175/311 493/1176/311 495/1177/311 497/1178/311 499/1179/311 501/1180/311 503/1181/311 505/1182/311 507/1183/311 509/1184/311 511/1185/311 513/1186/311 515/1187/311 517/1188/311 519/1189/311 521/1190/311 523/1191/311 525/1192/311 527/1193/311 529/1194/311 531/1195/311 533/1196/311 535/1197/311 537/1198/311 539/1199/311 541/1200/311 543/1201/311 545/1202/311 547/1203/311 549/1204/311 551/1205/311 553/1206/311 555/1207/311 557/1208/311 559/1209/311 561/1210/311 563/1211/311 565/1212/311 567/1213/311 569/1214/311 571/1215/311 573/1216/311 575/1217/311 577/1218/311 579/1219/311 581/1220/311 583/1221/311 585/1222/311 587/1223/311 589/1224/311 591/1225/311 593/1226/311 595/1227/311 597/1228/311 599/1229/311 601/1230/311 603/1231/311 605/1232/311 607/1233/311 609/1234/311 611/1235/311 613/1236/311 615/1237/311 617/1238/311
