# Blender 3.5.0
# www.blender.org
mtllib CannonTopturret.mtl
o TopTurret_PurpleGLow_0
v -0.140647 1.763926 1.246040
v -0.084055 1.948371 1.246040
v -0.084409 1.953100 1.245822
v -0.143175 1.759677 1.245991
v -0.084055 1.948371 1.246040
v -0.140647 1.763926 1.246040
v -0.141792 1.760687 1.239819
v -0.082824 1.950984 1.239988
v -0.084055 1.948371 1.246040
v -0.075023 1.938010 1.301648
v -0.074940 1.942403 1.306974
v -0.084409 1.953100 1.245822
v -0.075023 1.938010 1.301648
v -0.084055 1.948371 1.246040
v -0.082824 1.950984 1.239988
v -0.072194 1.938622 1.302593
v -0.075023 1.938010 1.301648
v -0.125257 1.774287 1.301648
v -0.127232 1.770300 1.306965
v -0.074940 1.942403 1.306974
v -0.125257 1.774287 1.301648
v -0.075023 1.938010 1.301648
v -0.072194 1.938622 1.302593
v -0.123486 1.773123 1.302601
v -0.125257 1.774287 1.301648
v -0.140647 1.763926 1.246040
v -0.143175 1.759677 1.245991
v -0.127232 1.770300 1.306965
v -0.140647 1.763926 1.246040
v -0.125257 1.774287 1.301648
v -0.123486 1.773123 1.302601
v -0.141792 1.760687 1.239819
v -0.183480 1.723991 1.245679
v -0.362155 1.723991 1.555153
v -0.360617 1.720788 1.558565
v -0.180277 1.720788 1.245679
v -0.362155 1.723991 1.555153
v -0.183480 1.723991 1.245679
v -0.183480 1.720788 1.240131
v -0.366895 1.720788 1.557290
v -0.362155 1.723991 1.555153
v -0.362155 1.988233 1.555153
v -0.361350 1.989380 1.558416
v -0.360617 1.720788 1.558565
v -0.362155 1.988233 1.555153
v -0.362155 1.723991 1.555153
v -0.366895 1.720788 1.557290
v -0.366163 1.993493 1.557439
v -0.362155 1.988233 1.555153
v -0.183480 1.988233 1.245679
v -0.180609 1.989483 1.245103
v -0.361350 1.989380 1.558416
v -0.183480 1.988233 1.245679
v -0.362155 1.988233 1.555153
v -0.366163 1.993493 1.557439
v -0.183147 1.993390 1.240707
v -0.183480 1.988233 1.245679
v -0.183480 1.723991 1.245679
v -0.180277 1.720788 1.245679
v -0.180609 1.989483 1.245103
v -0.183480 1.723991 1.245679
v -0.183480 1.988233 1.245679
v -0.183147 1.993390 1.240707
v -0.183480 1.720788 1.240131
v -0.321627 1.723991 1.872950
v 0.321627 1.723991 1.872950
v 0.322709 1.720788 1.870550
v -0.322708 1.720788 1.870550
v 0.321627 1.723991 1.872950
v -0.321627 1.723991 1.872950
v -0.326951 1.720788 1.875350
v 0.326952 1.720788 1.875350
v 0.321627 1.723991 1.872950
v 0.321627 1.988233 1.872950
v 0.323108 1.989566 1.871002
v 0.322709 1.720788 1.870550
v 0.321627 1.988233 1.872950
v 0.321627 1.723991 1.872950
v 0.326952 1.720788 1.875350
v 0.326552 1.993307 1.874897
v 0.321627 1.988233 1.872950
v -0.321627 1.988233 1.872950
v -0.323108 1.989566 1.871002
v 0.323108 1.989566 1.871002
v -0.321627 1.988233 1.872950
v 0.321627 1.988233 1.872950
v 0.326552 1.993307 1.874897
v -0.326552 1.993307 1.874897
v -0.321627 1.988233 1.872950
v -0.321627 1.723991 1.872950
v -0.322708 1.720788 1.870550
v -0.323108 1.989566 1.871002
v -0.321627 1.723991 1.872950
v -0.321627 1.988233 1.872950
v -0.326552 1.993307 1.874897
v -0.326951 1.720788 1.875350
v 0.362155 1.723991 1.555153
v 0.183480 1.723991 1.245679
v 0.180277 1.720788 1.245679
v 0.360618 1.720788 1.558565
v 0.183480 1.723991 1.245679
v 0.362155 1.723991 1.555153
v 0.366896 1.720788 1.557290
v 0.183480 1.720788 1.240131
v 0.183480 1.723991 1.245679
v 0.183480 1.988233 1.245679
v 0.180609 1.989482 1.245103
v 0.180277 1.720788 1.245679
v 0.183480 1.988233 1.245679
v 0.183480 1.723991 1.245679
v 0.183480 1.720788 1.240131
v 0.183147 1.993390 1.240707
v 0.183480 1.988233 1.245679
v 0.362155 1.988233 1.555153
v 0.361350 1.989380 1.558416
v 0.180609 1.989482 1.245103
v 0.362155 1.988233 1.555153
v 0.183480 1.988233 1.245679
v 0.183147 1.993390 1.240707
v 0.366163 1.993493 1.557439
v 0.362155 1.988233 1.555153
v 0.362155 1.723991 1.555153
v 0.360618 1.720788 1.558565
v 0.361350 1.989380 1.558416
v 0.362155 1.723991 1.555153
v 0.362155 1.988233 1.555153
v 0.366163 1.993493 1.557439
v 0.366896 1.720788 1.557290
v -0.363363 1.723991 1.561106
v -0.325222 1.723991 1.869771
v -0.322708 1.720788 1.870550
v -0.360617 1.720788 1.558565
v -0.325222 1.723991 1.869771
v -0.363363 1.723991 1.561106
v -0.366895 1.720788 1.557290
v -0.326951 1.720788 1.875350
v -0.325222 1.723991 1.869771
v -0.325222 1.988233 1.869771
v -0.323108 1.989566 1.871002
v -0.322708 1.720788 1.870550
v -0.325222 1.988233 1.869771
v -0.325222 1.723991 1.869771
v -0.326951 1.720788 1.875350
v -0.326552 1.993307 1.874897
v -0.325222 1.988233 1.869771
v -0.363363 1.988233 1.561106
v -0.361350 1.989380 1.558416
v -0.323108 1.989566 1.871002
v -0.363363 1.988233 1.561106
v -0.325222 1.988233 1.869771
v -0.326552 1.993307 1.874897
v -0.366163 1.993493 1.557439
v -0.363363 1.988233 1.561106
v -0.363363 1.723991 1.561106
v -0.360617 1.720788 1.558565
v -0.361350 1.989380 1.558416
v -0.363363 1.723991 1.561106
v -0.363363 1.988233 1.561106
v -0.366163 1.993493 1.557439
v -0.366895 1.720788 1.557290
v 0.325223 1.723991 1.869771
v 0.363364 1.723991 1.561106
v 0.360618 1.720788 1.558565
v 0.322709 1.720788 1.870550
v 0.363364 1.723991 1.561106
v 0.325223 1.723991 1.869771
v 0.326952 1.720788 1.875350
v 0.366896 1.720788 1.557290
v 0.363364 1.723991 1.561106
v 0.363364 1.988233 1.561106
v 0.361350 1.989380 1.558416
v 0.360618 1.720788 1.558565
v 0.363364 1.988233 1.561106
v 0.363364 1.723991 1.561106
v 0.366896 1.720788 1.557290
v 0.366163 1.993493 1.557439
v 0.363364 1.988233 1.561106
v 0.325223 1.988233 1.869771
v 0.323108 1.989566 1.871002
v 0.361350 1.989380 1.558416
v 0.325223 1.988233 1.869771
v 0.363364 1.988233 1.561106
v 0.366163 1.993493 1.557439
v 0.326552 1.993307 1.874897
v 0.325223 1.988233 1.869771
v 0.325223 1.723991 1.869771
v 0.322709 1.720788 1.870550
v 0.323108 1.989566 1.871002
v 0.325223 1.723991 1.869771
v 0.325223 1.988233 1.869771
v 0.326552 1.993307 1.874897
v 0.326952 1.720788 1.875350
v -0.360133 1.991436 1.561131
v -0.321998 1.991436 1.869747
v -0.323108 1.989566 1.871002
v -0.361350 1.989380 1.558416
v -0.321998 1.991436 1.869747
v -0.360133 1.991436 1.561131
v -0.366163 1.993493 1.557439
v -0.326552 1.993307 1.874897
v -0.321998 1.991436 1.869747
v 0.321998 1.991436 1.869746
v 0.323108 1.989566 1.871002
v -0.323108 1.989566 1.871002
v 0.321998 1.991436 1.869746
v -0.321998 1.991436 1.869747
v -0.326552 1.993307 1.874897
v 0.326552 1.993307 1.874897
v 0.321998 1.991436 1.869746
v 0.360133 1.991436 1.561130
v 0.361350 1.989380 1.558416
v 0.323108 1.989566 1.871002
v 0.360133 1.991436 1.561130
v 0.321998 1.991436 1.869746
v 0.326552 1.993307 1.874897
v 0.366163 1.993493 1.557439
v 0.360133 1.991436 1.561130
v -0.360133 1.991436 1.561131
v -0.361350 1.989380 1.558416
v 0.361350 1.989380 1.558416
v -0.360133 1.991436 1.561131
v 0.360133 1.991436 1.561130
v 0.366163 1.993493 1.557439
v -0.366163 1.993493 1.557439
v -0.180029 1.991436 1.246108
v -0.358208 1.991436 1.554724
v -0.361350 1.989380 1.558416
v -0.180609 1.989483 1.245103
v -0.358208 1.991436 1.554724
v -0.180029 1.991436 1.246108
v -0.183147 1.993390 1.240707
v -0.366163 1.993493 1.557439
v -0.358208 1.991436 1.554724
v 0.358209 1.991436 1.554724
v 0.361350 1.989380 1.558416
v -0.361350 1.989380 1.558416
v 0.358209 1.991436 1.554724
v -0.358208 1.991436 1.554724
v -0.366163 1.993493 1.557439
v 0.366163 1.993493 1.557439
v 0.358209 1.991436 1.554724
v 0.180029 1.991436 1.246108
v 0.180609 1.989482 1.245103
v 0.361350 1.989380 1.558416
v 0.180029 1.991436 1.246108
v 0.358209 1.991436 1.554724
v 0.366163 1.993493 1.557439
v 0.183147 1.993390 1.240707
v 0.180029 1.991436 1.246108
v -0.180029 1.991436 1.246108
v -0.180609 1.989483 1.245103
v 0.180609 1.989482 1.245103
v -0.180029 1.991436 1.246108
v 0.180029 1.991436 1.246108
v 0.183147 1.993390 1.240707
v -0.183147 1.993390 1.240707
v -0.141157 1.756979 1.242905
v 0.141157 1.756979 1.242905
v 0.143176 1.759677 1.245991
v -0.143175 1.759677 1.245991
v 0.141157 1.756979 1.242905
v -0.141157 1.756979 1.242905
v -0.141792 1.760687 1.239819
v 0.141792 1.760687 1.239819
v 0.141157 1.756979 1.242905
v 0.174145 1.723991 1.242905
v 0.180277 1.720788 1.245679
v 0.143176 1.759677 1.245991
v 0.174145 1.723991 1.242905
v 0.141157 1.756979 1.242905
v 0.141792 1.760687 1.239819
v 0.183480 1.720788 1.240131
v 0.174145 1.723991 1.242905
v -0.174145 1.723991 1.242905
v -0.180277 1.720788 1.245679
v 0.180277 1.720788 1.245679
v -0.174145 1.723991 1.242905
v 0.174145 1.723991 1.242905
v 0.183480 1.720788 1.240131
v -0.183480 1.720788 1.240131
v -0.174145 1.723991 1.242905
v -0.141157 1.756979 1.242905
v -0.143175 1.759677 1.245991
v -0.180277 1.720788 1.245679
v -0.141157 1.756979 1.242905
v -0.174145 1.723991 1.242905
v -0.183480 1.720788 1.240131
v -0.141792 1.760687 1.239819
v 0.082999 1.955245 1.242905
v -0.082998 1.955245 1.242905
v -0.084409 1.953100 1.245822
v 0.084410 1.953100 1.245822
v -0.082998 1.955245 1.242905
v 0.082999 1.955245 1.242905
v 0.082824 1.950984 1.239988
v -0.082824 1.950984 1.239988
v -0.082998 1.955245 1.242905
v -0.165281 1.988233 1.242905
v -0.180609 1.989483 1.245103
v -0.084409 1.953100 1.245822
v -0.165281 1.988233 1.242905
v -0.082998 1.955245 1.242905
v -0.082824 1.950984 1.239988
v -0.183147 1.993390 1.240707
v -0.165281 1.988233 1.242905
v 0.165281 1.988233 1.242905
v 0.180609 1.989482 1.245103
v -0.180609 1.989483 1.245103
v 0.165281 1.988233 1.242905
v -0.165281 1.988233 1.242905
v -0.183147 1.993390 1.240707
v 0.183147 1.993390 1.240707
v 0.165281 1.988233 1.242905
v 0.082999 1.955245 1.242905
v 0.084410 1.953100 1.245822
v 0.180609 1.989482 1.245103
v 0.082999 1.955245 1.242905
v 0.165281 1.988233 1.242905
v 0.183147 1.993390 1.240707
v 0.082824 1.950984 1.239988
v 0.145312 1.761884 1.242905
v 0.087543 1.950165 1.242905
v 0.084410 1.953100 1.245822
v 0.143176 1.759677 1.245991
v 0.087543 1.950165 1.242905
v 0.145312 1.761884 1.242905
v 0.141792 1.760687 1.239819
v 0.082824 1.950984 1.239988
v 0.087543 1.950165 1.242905
v 0.178675 1.986701 1.242905
v 0.180609 1.989482 1.245103
v 0.084410 1.953100 1.245822
v 0.178675 1.986701 1.242905
v 0.087543 1.950165 1.242905
v 0.082824 1.950984 1.239988
v 0.183147 1.993390 1.240707
v 0.178675 1.986701 1.242905
v 0.178675 1.728521 1.242905
v 0.180277 1.720788 1.245679
v 0.180609 1.989482 1.245103
v 0.178675 1.728521 1.242905
v 0.178675 1.986701 1.242905
v 0.183147 1.993390 1.240707
v 0.183480 1.720788 1.240131
v 0.178675 1.728521 1.242905
v 0.145312 1.761884 1.242905
v 0.143176 1.759677 1.245991
v 0.180277 1.720788 1.245679
v 0.145312 1.761884 1.242905
v 0.178675 1.728521 1.242905
v 0.183480 1.720788 1.240131
v 0.141792 1.760687 1.239819
v -0.087543 1.950165 1.242905
v -0.145312 1.761884 1.242905
v -0.143175 1.759677 1.245991
v -0.084409 1.953100 1.245822
v -0.145312 1.761884 1.242905
v -0.087543 1.950165 1.242905
v -0.082824 1.950984 1.239988
v -0.141792 1.760687 1.239819
v -0.145312 1.761884 1.242905
v -0.178675 1.728521 1.242905
v -0.180277 1.720788 1.245679
v -0.143175 1.759677 1.245991
v -0.178675 1.728521 1.242905
v -0.145312 1.761884 1.242905
v -0.141792 1.760687 1.239819
v -0.183480 1.720788 1.240131
v -0.178675 1.728521 1.242905
v -0.178675 1.986701 1.242905
v -0.180609 1.989483 1.245103
v -0.180277 1.720788 1.245679
v -0.178675 1.986701 1.242905
v -0.178675 1.728521 1.242905
v -0.183480 1.720788 1.240131
v -0.183147 1.993390 1.240707
v -0.178675 1.986701 1.242905
v -0.087543 1.950165 1.242905
v -0.084409 1.953100 1.245822
v -0.180609 1.989483 1.245103
v -0.087543 1.950165 1.242905
v -0.178675 1.986701 1.242905
v -0.183147 1.993390 1.240707
v -0.082824 1.950984 1.239988
v 0.121026 1.774915 1.304783
v -0.121026 1.774915 1.304783
v -0.127232 1.770300 1.306965
v 0.127232 1.770300 1.306965
v -0.121026 1.774915 1.304783
v 0.121026 1.774915 1.304783
v 0.123487 1.773123 1.302601
v -0.123486 1.773123 1.302601
v -0.121026 1.774915 1.304783
v -0.071199 1.937309 1.304783
v -0.074940 1.942403 1.306974
v -0.127232 1.770300 1.306965
v -0.071199 1.937309 1.304783
v -0.121026 1.774915 1.304783
v -0.123486 1.773123 1.302601
v -0.072194 1.938622 1.302593
v -0.071199 1.937309 1.304783
v 0.071199 1.937309 1.304783
v 0.074940 1.942403 1.306974
v -0.074940 1.942403 1.306974
v 0.071199 1.937309 1.304783
v -0.071199 1.937309 1.304783
v -0.072194 1.938622 1.302593
v 0.072194 1.938622 1.302592
v 0.071199 1.937309 1.304783
v 0.121026 1.774915 1.304783
v 0.127232 1.770300 1.306965
v 0.074940 1.942403 1.306974
v 0.121026 1.774915 1.304783
v 0.071199 1.937309 1.304783
v 0.072194 1.938622 1.302592
v 0.123487 1.773123 1.302601
v -0.079861 1.951455 1.246054
v 0.079862 1.951455 1.246054
v 0.084410 1.953100 1.245822
v -0.084409 1.953100 1.245822
v 0.079862 1.951455 1.246054
v -0.079861 1.951455 1.246054
v -0.082824 1.950984 1.239988
v 0.082824 1.950984 1.239988
v 0.079862 1.951455 1.246054
v 0.070835 1.941099 1.301634
v 0.074940 1.942403 1.306974
v 0.084410 1.953100 1.245822
v 0.070835 1.941099 1.301634
v 0.079862 1.951455 1.246054
v 0.082824 1.950984 1.239988
v 0.072194 1.938622 1.302592
v 0.070835 1.941099 1.301634
v -0.070835 1.941099 1.301634
v -0.074940 1.942403 1.306974
v 0.074940 1.942403 1.306974
v -0.070835 1.941099 1.301634
v 0.070835 1.941099 1.301634
v 0.072194 1.938622 1.302592
v -0.072194 1.938622 1.302593
v -0.070835 1.941099 1.301634
v -0.079861 1.951455 1.246054
v -0.084409 1.953100 1.245822
v -0.074940 1.942403 1.306974
v -0.079861 1.951455 1.246054
v -0.070835 1.941099 1.301634
v -0.072194 1.938622 1.302593
v -0.082824 1.950984 1.239988
v 0.084055 1.948371 1.246040
v 0.140647 1.763926 1.246040
v 0.143176 1.759677 1.245991
v 0.084410 1.953100 1.245822
v 0.140647 1.763926 1.246040
v 0.084055 1.948371 1.246040
v 0.082824 1.950984 1.239988
v 0.141792 1.760687 1.239819
v 0.140647 1.763926 1.246040
v 0.125258 1.774287 1.301648
v 0.127232 1.770300 1.306965
v 0.143176 1.759677 1.245991
v 0.125258 1.774287 1.301648
v 0.140647 1.763926 1.246040
v 0.141792 1.760687 1.239819
v 0.123487 1.773123 1.302601
v 0.125258 1.774287 1.301648
v 0.075024 1.938010 1.301648
v 0.074940 1.942403 1.306974
v 0.127232 1.770300 1.306965
v 0.075024 1.938010 1.301648
v 0.125258 1.774287 1.301648
v 0.123487 1.773123 1.302601
v 0.072194 1.938622 1.302592
v 0.075024 1.938010 1.301648
v 0.084055 1.948371 1.246040
v 0.084410 1.953100 1.245822
v 0.074940 1.942403 1.306974
v 0.084055 1.948371 1.246040
v 0.075024 1.938010 1.301648
v 0.072194 1.938622 1.302592
v 0.082824 1.950984 1.239988
v 0.138293 1.760769 1.246054
v -0.138293 1.760769 1.246054
v -0.143175 1.759677 1.245991
v 0.143176 1.759677 1.245991
v -0.138293 1.760769 1.246054
v 0.138293 1.760769 1.246054
v 0.141792 1.760687 1.239819
v -0.141792 1.760687 1.239819
v -0.138293 1.760769 1.246054
v -0.122911 1.771125 1.301634
v -0.127232 1.770300 1.306965
v -0.143175 1.759677 1.245991
v -0.122911 1.771125 1.301634
v -0.138293 1.760769 1.246054
v -0.141792 1.760687 1.239819
v -0.123486 1.773123 1.302601
v -0.122911 1.771125 1.301634
v 0.122911 1.771125 1.301634
v 0.127232 1.770300 1.306965
v -0.127232 1.770300 1.306965
v 0.122911 1.771125 1.301634
v -0.122911 1.771125 1.301634
v -0.123486 1.773123 1.302601
v 0.123487 1.773123 1.302601
v 0.122911 1.771125 1.301634
v 0.138293 1.760769 1.246054
v 0.143176 1.759677 1.245991
v 0.127232 1.770300 1.306965
v 0.138293 1.760769 1.246054
v 0.122911 1.771125 1.301634
v 0.123487 1.773123 1.302601
v 0.141792 1.760687 1.239819
vn -0.0873 0.0271 0.9958
vn 0.9554 -0.2946 0.0217
vn -0.9849 -0.1060 0.1369
vn 0.4037 -0.8837 -0.2370
vn -0.9411 0.2873 -0.1783
vn -0.9411 0.2873 -0.1782
vn 0.3672 -0.1133 -0.9232
vn -0.8337 0.5373 0.1274
vn -0.8337 0.5373 0.1273
vn 0.8012 0.5026 -0.3248
vn 0.6416 0.6718 0.3701
vn 0.6416 0.6719 0.3701
vn -0.6413 0.6719 -0.3706
vn 0.9437 0.0012 -0.3308
vn -0.4509 0.0009 -0.8926
vn -0.4509 0.0009 -0.8925
vn 0.4053 -0.8838 0.2337
vn -0.7942 -0.3985 -0.4587
vn -0.7942 -0.3986 -0.4587
vn 0.0948 0.0011 0.9955
vn 0.0947 0.0011 0.9955
vn -0.9995 0.0007 -0.0315
vn -0.0000 0.5996 -0.8003
vn -0.0000 0.5996 0.8003
vn -0.8613 0.0011 -0.5082
vn -0.8613 0.0011 -0.5081
vn -0.3906 0.0005 0.9206
vn -0.0000 -0.8254 -0.5646
vn -0.0000 -0.8254 -0.5645
vn -0.0000 -0.3584 0.9336
vn 0.8613 0.0011 -0.5082
vn 0.8613 0.0011 -0.5081
vn 0.3906 0.0005 0.9206
vn 0.3905 0.0005 0.9206
vn -0.6416 0.6719 0.3701
vn -0.6416 0.6718 0.3701
vn 0.6413 0.6719 -0.3706
vn -0.0948 0.0011 0.9955
vn 0.9995 0.0007 -0.0315
vn -0.4053 -0.8838 0.2337
vn -0.4052 -0.8838 0.2337
vn 0.7942 -0.3986 -0.4587
vn 0.7942 -0.3985 -0.4587
vn -0.9437 0.0012 -0.3308
vn 0.4509 0.0009 -0.8925
vn 0.4509 0.0009 -0.8926
vn 0.7568 0.6470 -0.0927
vn -0.7565 0.6471 0.0943
vn 0.3987 0.0011 -0.9171
vn -0.9615 0.0005 -0.2747
vn 0.4979 -0.8651 -0.0610
vn -0.9170 -0.3824 0.1138
vn 0.7399 0.0012 0.6727
vn -0.7633 0.0009 0.6460
vn -0.7634 0.0009 0.6460
vn -0.7568 0.6470 -0.0927
vn 0.7565 0.6471 0.0943
vn 0.7565 0.6472 0.0943
vn -0.7399 0.0012 0.6727
vn 0.7633 0.0009 0.6460
vn 0.7634 0.0009 0.6460
vn -0.4979 -0.8651 -0.0610
vn 0.9170 -0.3824 0.1138
vn -0.3987 0.0011 -0.9171
vn 0.9615 0.0005 -0.2747
vn 0.8724 -0.4770 -0.1071
vn 0.3425 0.9386 -0.0422
vn 0.3425 0.9386 -0.0423
vn -0.0000 -0.5572 -0.8304
vn -0.0000 0.9399 -0.3414
vn -0.8723 -0.4770 -0.1071
vn -0.8724 -0.4770 -0.1071
vn -0.3425 0.9386 -0.0423
vn -0.3424 0.9386 -0.0422
vn -0.0000 -0.7971 0.6039
vn -0.0000 -0.7970 0.6039
vn -0.0000 0.8736 0.4867
vn 0.7842 -0.4246 0.4525
vn 0.2983 0.9388 0.1721
vn 0.2982 0.9388 0.1721
vn -0.0000 -0.8736 -0.4866
vn -0.0000 -0.8736 -0.4867
vn -0.0000 0.7971 -0.6039
vn -0.7842 -0.4246 0.4525
vn -0.2983 0.9388 0.1721
vn -0.0000 -0.4574 0.8892
vn -0.0000 0.9404 0.3402
vn -0.0000 -0.7529 0.6581
vn -0.0000 -0.6397 -0.7686
vn -0.5221 -0.5121 0.6820
vn -0.4356 -0.4496 -0.7798
vn -0.0000 0.6547 0.7559
vn -0.0000 0.6546 0.7559
vn -0.0000 0.6546 -0.7559
vn -0.0000 0.6547 -0.7559
vn 0.5221 -0.5121 0.6820
vn 0.5222 -0.5121 0.6820
vn 0.4356 -0.4496 -0.7798
vn -0.0000 0.8057 0.5924
vn -0.0000 0.8057 0.5923
vn -0.0000 0.5649 -0.8252
vn 0.2145 0.5602 0.8001
vn 0.2145 0.5603 0.8001
vn 0.2486 0.6092 -0.7530
vn -0.0000 -0.8694 0.4941
vn -0.0000 -0.3921 -0.9199
vn -0.2145 0.5602 0.8001
vn -0.2145 0.5603 0.8001
vn -0.2486 0.6092 -0.7530
vn 0.7453 0.2278 0.6266
vn 0.5742 0.1774 -0.7992
vn 0.2434 -0.6179 0.7476
vn 0.2270 -0.5433 -0.8083
vn -0.8144 0.0012 0.5803
vn -0.8144 0.0011 0.5803
vn -0.4723 0.0007 -0.8814
vn 0.4500 0.4355 0.7797
vn 0.5120 0.5216 -0.6825
vn -0.7453 0.2278 0.6266
vn -0.5742 0.1774 -0.7992
vn -0.4500 0.4355 0.7797
vn -0.5120 0.5216 -0.6825
vn 0.8144 0.0012 0.5803
vn 0.8144 0.0011 0.5803
vn 0.4723 0.0007 -0.8814
vn -0.2434 -0.6179 0.7476
vn -0.2270 -0.5433 -0.8083
vn -0.2270 -0.5432 -0.8083
vn -0.0000 0.4274 0.9040
vn -0.0000 0.7728 -0.6346
vn 0.3946 -0.1205 0.9109
vn 0.7744 -0.2388 -0.5858
vn 0.7745 -0.2389 -0.5858
vn -0.0000 -0.3951 0.9187
vn -0.0000 -0.8578 -0.5139
vn -0.3946 -0.1205 0.9109
vn -0.7745 -0.2388 -0.5858
vn -0.7745 -0.2389 -0.5858
vn -0.7744 -0.2388 -0.5858
vn -0.0000 0.1394 0.9902
vn -0.0000 -0.9970 0.0775
vn -0.3764 0.9203 0.1063
vn -0.7268 -0.6419 -0.2443
vn -0.0000 0.9714 -0.2373
vn -0.0000 -0.3608 -0.9327
vn 0.3764 0.9203 0.1063
vn 0.7268 -0.6419 -0.2443
vn 0.0873 0.0271 0.9958
vn -0.9554 -0.2946 0.0217
vn 0.8337 0.5373 0.1274
vn -0.8012 0.5026 -0.3248
vn 0.9411 0.2873 -0.1782
vn -0.3672 -0.1133 -0.9232
vn -0.3672 -0.1132 -0.9232
vn 0.9849 -0.1060 0.1369
vn -0.4037 -0.8837 -0.2370
vn -0.0000 -0.0571 0.9984
vn -0.0000 0.9999 -0.0131
vn 0.2591 -0.9603 0.1032
vn 0.7110 0.6247 -0.3227
vn 0.7111 0.6247 -0.3227
vn -0.0000 -0.9882 -0.1529
vn -0.0000 0.4356 -0.9001
vn -0.2591 -0.9603 0.1032
vn -0.7110 0.6247 -0.3227
vn -0.7110 0.6248 -0.3227
vt 0.981950 0.000000
vt 0.981950 0.000000
vt 0.981950 0.000000
vt 0.981950 0.000000
vt 0.981950 0.000000
vt 0.981950 0.000000
vt 0.981950 0.000000
vt 0.981950 0.000000
vt 0.981950 0.000000
vt 0.981950 0.000000
vt 0.981950 0.000000
vt 0.981950 0.000000
vt 0.981950 0.000000
vt 0.981950 0.000000
vt 0.981950 0.000000
vt 0.981950 0.000000
vt 0.981950 0.000000
vt 0.981950 0.000000
vt 0.981950 0.000000
vt 0.981950 0.000000
vt 0.981950 0.000000
vt 0.981950 0.000000
vt 0.981950 0.000000
vt 0.981950 0.000000
vt 0.981950 0.000000
vt 0.981950 0.000000
vt 0.981950 0.000000
vt 0.981950 0.000000
vt 0.981950 0.000000
vt 0.981950 0.000000
vt 0.981950 0.000000
vt 0.981950 0.000000
vt -0.000000 0.000000
vt 0.166667 0.000000
vt 0.166667 0.000000
vt -0.000000 0.000000
vt 0.166667 0.000000
vt -0.000000 0.000000
vt -0.000000 0.000000
vt 0.166667 0.000000
vt 0.166667 0.000000
vt 0.166667 0.000000
vt 0.166667 0.000000
vt 0.166667 0.000000
vt 0.166667 0.000000
vt 0.166667 0.000000
vt 0.166667 0.000000
vt 0.166667 0.000000
vt 0.166667 0.000000
vt -0.000000 0.000000
vt -0.000000 0.000000
vt 0.166667 0.000000
vt -0.000000 0.000000
vt 0.166667 0.000000
vt 0.166667 0.000000
vt -0.000000 0.000000
vt -0.000000 0.000000
vt -0.000000 0.000000
vt -0.000000 0.000000
vt -0.000000 0.000000
vt -0.000000 0.000000
vt -0.000000 0.000000
vt -0.000000 0.000000
vt -0.000000 0.000000
vt 0.333333 0.000000
vt 0.500000 0.000000
vt 0.500000 0.000000
vt 0.333333 0.000000
vt 0.500000 0.000000
vt 0.333333 0.000000
vt 0.333333 0.000000
vt 0.500000 0.000000
vt 0.500000 0.000000
vt 0.500000 0.000000
vt 0.500000 0.000000
vt 0.500000 0.000000
vt 0.500000 0.000000
vt 0.500000 0.000000
vt 0.500000 0.000000
vt 0.500000 0.000000
vt 0.500000 0.000000
vt 0.333333 0.000000
vt 0.333333 0.000000
vt 0.500000 0.000000
vt 0.333333 0.000000
vt 0.500000 0.000000
vt 0.500000 0.000000
vt 0.333333 0.000000
vt 0.333333 0.000000
vt 0.333333 0.000000
vt 0.333333 0.000000
vt 0.333333 0.000000
vt 0.333333 0.000000
vt 0.333333 0.000000
vt 0.333333 0.000000
vt 0.333333 0.000000
vt 0.666667 0.000000
vt 0.833333 0.000000
vt 0.833333 0.000000
vt 0.666667 0.000000
vt 0.833333 0.000000
vt 0.666667 0.000000
vt 0.666667 0.000000
vt 0.833333 0.000000
vt 0.833333 0.000000
vt 0.833333 0.000000
vt 0.833333 0.000000
vt 0.833333 0.000000
vt 0.833333 0.000000
vt 0.833333 0.000000
vt 0.833333 0.000000
vt 0.833333 0.000000
vt 0.833333 0.000000
vt 0.666667 0.000000
vt 0.666667 0.000000
vt 0.833333 0.000000
vt 0.666667 0.000000
vt 0.833333 0.000000
vt 0.833333 0.000000
vt 0.666667 0.000000
vt 0.666667 0.000000
vt 0.666667 0.000000
vt 0.666667 0.000000
vt 0.666667 0.000000
vt 0.666667 0.000000
vt 0.666667 0.000000
vt 0.666667 0.000000
vt 0.666667 0.000000
vt 0.166667 0.000000
vt 0.333333 0.000000
vt 0.333333 0.000000
vt 0.166667 0.000000
vt 0.333333 0.000000
vt 0.166667 0.000000
vt 0.166667 0.000000
vt 0.333333 0.000000
vt 0.333333 0.000000
vt 0.333333 0.000000
vt 0.333333 0.000000
vt 0.333333 0.000000
vt 0.333333 0.000000
vt 0.333333 0.000000
vt 0.333333 0.000000
vt 0.333333 0.000000
vt 0.333333 0.000000
vt 0.166667 0.000000
vt 0.166667 0.000000
vt 0.333333 0.000000
vt 0.166667 0.000000
vt 0.333333 0.000000
vt 0.333333 0.000000
vt 0.166667 0.000000
vt 0.166667 0.000000
vt 0.166667 0.000000
vt 0.166667 0.000000
vt 0.166667 0.000000
vt 0.166667 0.000000
vt 0.166667 0.000000
vt 0.166667 0.000000
vt 0.166667 0.000000
vt 0.500000 0.000000
vt 0.666667 0.000000
vt 0.666667 0.000000
vt 0.500000 0.000000
vt 0.666667 0.000000
vt 0.500000 0.000000
vt 0.500000 0.000000
vt 0.666667 0.000000
vt 0.666667 0.000000
vt 0.666667 0.000000
vt 0.666667 0.000000
vt 0.666667 0.000000
vt 0.666667 0.000000
vt 0.666667 0.000000
vt 0.666667 0.000000
vt 0.666667 0.000000
vt 0.666667 0.000000
vt 0.500000 0.000000
vt 0.500000 0.000000
vt 0.666667 0.000000
vt 0.500000 0.000000
vt 0.666667 0.000000
vt 0.666667 0.000000
vt 0.500000 0.000000
vt 0.500000 0.000000
vt 0.500000 0.000000
vt 0.500000 0.000000
vt 0.500000 0.000000
vt 0.500000 0.000000
vt 0.500000 0.000000
vt 0.500000 0.000000
vt 0.500000 0.000000
vt 0.166667 0.000000
vt 0.333333 0.000000
vt 0.333333 0.000000
vt 0.166667 0.000000
vt 0.333333 0.000000
vt 0.166667 0.000000
vt 0.166667 0.000000
vt 0.333333 0.000000
vt 0.333333 0.000000
vt 0.500000 0.000000
vt 0.500000 0.000000
vt 0.333333 0.000000
vt 0.500000 0.000000
vt 0.333333 0.000000
vt 0.333333 0.000000
vt 0.500000 0.000000
vt 0.500000 0.000000
vt 0.666667 0.000000
vt 0.666667 0.000000
vt 0.500000 0.000000
vt 0.666667 0.000000
vt 0.500000 0.000000
vt 0.500000 0.000000
vt 0.666667 0.000000
vt 0.666667 0.000000
vt 0.166667 0.000000
vt 0.166667 0.000000
vt 0.666667 0.000000
vt 0.166667 0.000000
vt 0.666667 0.000000
vt 0.666667 0.000000
vt 0.166667 0.000000
vt -0.000000 0.000000
vt 0.166667 0.000000
vt 0.166667 0.000000
vt -0.000000 0.000000
vt 0.166667 0.000000
vt -0.000000 0.000000
vt -0.000000 0.000000
vt 0.166667 0.000000
vt 0.166667 0.000000
vt 0.666667 0.000000
vt 0.666667 0.000000
vt 0.166667 0.000000
vt 0.666667 0.000000
vt 0.166667 0.000000
vt 0.166667 0.000000
vt 0.666667 0.000000
vt 0.666667 0.000000
vt 0.833333 0.000000
vt 0.833333 0.000000
vt 0.666667 0.000000
vt 0.833333 0.000000
vt 0.666667 0.000000
vt 0.666667 0.000000
vt 0.833333 0.000000
vt 0.833333 0.000000
vt -0.000000 0.000000
vt -0.000000 0.000000
vt 0.833333 0.000000
vt -0.000000 0.000000
vt 0.833333 0.000000
vt 0.833333 0.000000
vt -0.000000 0.000000
vt 0.981950 0.000000
vt 0.851383 0.000000
vt 0.851383 0.000000
vt 0.981950 0.000000
vt 0.851383 0.000000
vt 0.981950 0.000000
vt 0.981950 0.000000
vt 0.851383 0.000000
vt 0.851383 0.000000
vt 0.833333 0.000000
vt 0.833333 0.000000
vt 0.851383 0.000000
vt 0.833333 0.000000
vt 0.851383 0.000000
vt 0.851383 0.000000
vt 0.833333 0.000000
vt 0.833333 0.000000
vt 1.000000 0.000000
vt 1.000000 0.000000
vt 0.833333 0.000000
vt 1.000000 0.000000
vt 0.833333 0.000000
vt 0.833333 0.000000
vt 1.000000 0.000000
vt 1.000000 0.000000
vt 0.981950 0.000000
vt 0.981950 0.000000
vt 1.000000 0.000000
vt 0.981950 0.000000
vt 1.000000 0.000000
vt 1.000000 0.000000
vt 0.981950 0.000000
vt 0.851383 0.000000
vt 0.981950 0.000000
vt 0.981950 0.000000
vt 0.851383 0.000000
vt 0.981950 0.000000
vt 0.851383 0.000000
vt 0.851383 0.000000
vt 0.981950 0.000000
vt 0.981950 0.000000
vt 1.000000 0.000000
vt 1.000000 0.000000
vt 0.981950 0.000000
vt 1.000000 0.000000
vt 0.981950 0.000000
vt 0.981950 0.000000
vt 1.000000 0.000000
vt 1.000000 0.000000
vt 0.833333 0.000000
vt 0.833333 0.000000
vt 1.000000 0.000000
vt 0.833333 0.000000
vt 1.000000 0.000000
vt 1.000000 0.000000
vt 0.833333 0.000000
vt 0.833333 0.000000
vt 0.851383 0.000000
vt 0.851383 0.000000
vt 0.833333 0.000000
vt 0.851383 0.000000
vt 0.833333 0.000000
vt 0.833333 0.000000
vt 0.851383 0.000000
vt 0.851383 0.000000
vt 0.851383 0.000000
vt 0.851383 0.000000
vt 0.851383 0.000000
vt 0.851383 0.000000
vt 0.851383 0.000000
vt 0.851383 0.000000
vt 0.851383 0.000000
vt 0.851383 0.000000
vt 0.833333 0.000000
vt 0.833333 0.000000
vt 0.851383 0.000000
vt 0.833333 0.000000
vt 0.851383 0.000000
vt 0.851383 0.000000
vt 0.833333 0.000000
vt 0.833333 0.000000
vt 0.833333 0.000000
vt 0.833333 0.000000
vt 0.833333 0.000000
vt 0.833333 0.000000
vt 0.833333 0.000000
vt 0.833333 0.000000
vt 0.833333 0.000000
vt 0.833333 0.000000
vt 0.851383 0.000000
vt 0.851383 0.000000
vt 0.833333 0.000000
vt 0.851383 0.000000
vt 0.833333 0.000000
vt 0.833333 0.000000
vt 0.851383 0.000000
vt 0.981950 0.000000
vt 0.981950 0.000000
vt 0.981950 0.000000
vt 0.981950 0.000000
vt 0.981950 0.000000
vt 0.981950 0.000000
vt 0.981950 0.000000
vt 0.981950 0.000000
vt 0.981950 0.000000
vt 1.000000 0.000000
vt 1.000000 0.000000
vt 0.981950 0.000000
vt 1.000000 0.000000
vt 0.981950 0.000000
vt 0.981950 0.000000
vt 1.000000 0.000000
vt 1.000000 0.000000
vt 1.000000 0.000000
vt 1.000000 0.000000
vt 1.000000 0.000000
vt 1.000000 0.000000
vt 1.000000 0.000000
vt 1.000000 0.000000
vt 1.000000 0.000000
vt 1.000000 0.000000
vt 0.981950 0.000000
vt 0.981950 0.000000
vt 1.000000 0.000000
vt 0.981950 0.000000
vt 1.000000 0.000000
vt 1.000000 0.000000
vt 0.981950 0.000000
vt 0.851383 0.000000
vt 0.981950 0.000000
vt 0.981950 0.000000
vt 0.851383 0.000000
vt 0.981950 0.000000
vt 0.851383 0.000000
vt 0.851383 0.000000
vt 0.981950 0.000000
vt 0.981950 0.000000
vt 0.981950 0.000000
vt 0.981950 0.000000
vt 0.981950 0.000000
vt 0.981950 0.000000
vt 0.981950 0.000000
vt 0.981950 0.000000
vt 0.981950 0.000000
vt 0.981950 0.000000
vt 0.851383 0.000000
vt 0.851383 0.000000
vt 0.981950 0.000000
vt 0.851383 0.000000
vt 0.981950 0.000000
vt 0.981950 0.000000
vt 0.851383 0.000000
vt 0.851383 0.000000
vt 0.851383 0.000000
vt 0.851383 0.000000
vt 0.851383 0.000000
vt 0.851383 0.000000
vt 0.851383 0.000000
vt 0.851383 0.000000
vt 0.851383 0.000000
vt 0.981950 0.000000
vt 0.851383 0.000000
vt 0.851383 0.000000
vt 0.981950 0.000000
vt 0.851383 0.000000
vt 0.981950 0.000000
vt 0.981950 0.000000
vt 0.851383 0.000000
vt 0.851383 0.000000
vt 0.851383 0.000000
vt 0.851383 0.000000
vt 0.851383 0.000000
vt 0.851383 0.000000
vt 0.851383 0.000000
vt 0.851383 0.000000
vt 0.851383 0.000000
vt 0.851383 0.000000
vt 0.981950 0.000000
vt 0.981950 0.000000
vt 0.851383 0.000000
vt 0.981950 0.000000
vt 0.851383 0.000000
vt 0.851383 0.000000
vt 0.981950 0.000000
vt 0.981950 0.000000
vt 0.981950 0.000000
vt 0.981950 0.000000
vt 0.981950 0.000000
vt 0.981950 0.000000
vt 0.981950 0.000000
vt 0.981950 0.000000
vt 0.981950 0.000000
vt 0.851383 0.000000
vt 0.851383 0.000000
vt 0.851383 0.000000
vt 0.851383 0.000000
vt 0.851383 0.000000
vt 0.851383 0.000000
vt 0.851383 0.000000
vt 0.851383 0.000000
vt 0.851383 0.000000
vt 0.851383 0.000000
vt 0.851383 0.000000
vt 0.851383 0.000000
vt 0.851383 0.000000
vt 0.851383 0.000000
vt 0.851383 0.000000
vt 0.851383 0.000000
vt 0.851383 0.000000
vt 0.851383 0.000000
vt 0.851383 0.000000
vt 0.851383 0.000000
vt 0.851383 0.000000
vt 0.851383 0.000000
vt 0.851383 0.000000
vt 0.851383 0.000000
vt 0.851383 0.000000
vt 0.851383 0.000000
vt 0.851383 0.000000
vt 0.851383 0.000000
vt 0.851383 0.000000
vt 0.851383 0.000000
vt 0.851383 0.000000
vt 0.851383 0.000000
vt 0.851383 0.000000
vt 0.981950 0.000000
vt 0.981950 0.000000
vt 0.851383 0.000000
vt 0.981950 0.000000
vt 0.851383 0.000000
vt 0.851383 0.000000
vt 0.981950 0.000000
vt 0.981950 0.000000
vt 0.981950 0.000000
vt 0.981950 0.000000
vt 0.981950 0.000000
vt 0.981950 0.000000
vt 0.981950 0.000000
vt 0.981950 0.000000
vt 0.981950 0.000000
vt 0.981950 0.000000
vt 0.851383 0.000000
vt 0.851383 0.000000
vt 0.981950 0.000000
vt 0.851383 0.000000
vt 0.981950 0.000000
vt 0.981950 0.000000
vt 0.851383 0.000000
vt 0.851383 0.000000
vt 0.851383 0.000000
vt 0.851383 0.000000
vt 0.851383 0.000000
vt 0.851383 0.000000
vt 0.851383 0.000000
vt 0.851383 0.000000
vt 0.851383 0.000000
s 1
usemtl PurpleGLow
f 1/1/1 2/2/1 3/3/1
f 1/1/1 3/3/1 4/4/1
f 5/5/2 6/6/2 7/7/2
f 5/5/2 7/7/2 8/8/2
f 9/9/3 10/10/3 11/11/3
f 9/9/3 11/11/3 12/12/3
f 13/13/4 14/14/4 15/15/4
f 13/13/4 15/15/4 16/16/4
f 17/17/5 18/18/5 19/19/6
f 17/17/5 19/19/6 20/20/6
f 21/21/7 22/22/7 23/23/7
f 21/21/7 23/23/7 24/24/7
f 25/25/8 26/26/9 27/27/9
f 25/25/8 27/27/9 28/28/9
f 29/29/10 30/30/10 31/31/10
f 29/29/10 31/31/10 32/32/10
f 33/33/11 34/34/12 35/35/12
f 33/33/11 35/35/12 36/36/11
f 37/37/13 38/38/13 39/39/13
f 37/37/13 39/39/13 40/40/13
f 41/41/14 42/42/14 43/43/14
f 41/41/14 43/43/14 44/44/14
f 45/45/15 46/46/16 47/47/15
f 45/45/15 47/47/15 48/48/15
f 49/49/17 50/50/17 51/51/17
f 49/49/17 51/51/17 52/52/17
f 53/53/18 54/54/18 55/55/19
f 53/53/18 55/55/19 56/56/18
f 57/57/20 58/58/20 59/59/20
f 57/57/20 59/59/20 60/60/21
f 61/61/22 62/62/22 63/63/22
f 61/61/22 63/63/22 64/64/22
s 0
f 65/65/23 66/66/23 67/67/23
f 65/65/23 67/67/23 68/68/23
f 69/69/24 70/70/24 71/71/24
f 69/69/24 71/71/24 72/72/24
s 1
f 73/73/25 74/74/25 75/75/25
f 73/73/25 75/75/25 76/76/26
f 77/77/27 78/78/27 79/79/27
f 77/77/27 79/79/27 80/80/27
s 0
f 81/81/28 82/82/28 83/83/28
f 81/81/29 83/83/29 84/84/29
f 85/85/30 86/86/30 87/87/30
f 85/85/30 87/87/30 88/88/30
s 1
f 89/89/31 90/90/31 91/91/31
f 89/89/31 91/91/31 92/92/32
f 93/93/33 94/94/33 95/95/34
f 93/93/33 95/95/34 96/96/33
f 97/97/35 98/98/36 99/99/36
f 97/97/35 99/99/36 100/100/35
f 101/101/37 102/102/37 103/103/37
f 101/101/37 103/103/37 104/104/37
f 105/105/38 106/106/38 107/107/38
f 105/105/38 107/107/38 108/108/38
f 109/109/39 110/110/39 111/111/39
f 109/109/39 111/111/39 112/112/39
f 113/113/40 114/114/40 115/115/41
f 113/113/40 115/115/41 116/116/40
f 117/117/42 118/118/43 119/119/43
f 117/117/42 119/119/43 120/120/42
f 121/121/44 122/122/44 123/123/44
f 121/121/44 123/123/44 124/124/44
f 125/125/45 126/126/46 127/127/46
f 125/125/45 127/127/46 128/128/46
f 129/129/47 130/130/47 131/131/47
f 129/129/47 131/131/47 132/132/47
f 133/133/48 134/134/48 135/135/48
f 133/133/48 135/135/48 136/136/48
f 137/137/49 138/138/49 139/139/49
f 137/137/49 139/139/49 140/140/49
f 141/141/50 142/142/50 143/143/50
f 141/141/50 143/143/50 144/144/50
f 145/145/51 146/146/51 147/147/51
f 145/145/51 147/147/51 148/148/51
f 149/149/52 150/150/52 151/151/52
f 149/149/52 151/151/52 152/152/52
f 153/153/53 154/154/53 155/155/53
f 153/153/53 155/155/53 156/156/53
f 157/157/54 158/158/54 159/159/55
f 157/157/54 159/159/55 160/160/54
f 161/161/56 162/162/56 163/163/56
f 161/161/56 163/163/56 164/164/56
f 165/165/57 166/166/57 167/167/58
f 165/165/57 167/167/58 168/168/57
f 169/169/59 170/170/59 171/171/59
f 169/169/59 171/171/59 172/172/59
f 173/173/60 174/174/60 175/175/61
f 173/173/60 175/175/61 176/176/60
f 177/177/62 178/178/62 179/179/62
f 177/177/62 179/179/62 180/180/62
f 181/181/63 182/182/63 183/183/63
f 181/181/63 183/183/63 184/184/63
f 185/185/64 186/186/64 187/187/64
f 185/185/64 187/187/64 188/188/64
f 189/189/65 190/190/65 191/191/65
f 189/189/65 191/191/65 192/192/65
f 193/193/66 194/194/66 195/195/66
f 193/193/66 195/195/66 196/196/66
f 197/197/67 198/198/68 199/199/68
f 197/197/67 199/199/68 200/200/68
f 201/201/69 202/202/69 203/203/69
s 0
f 201/201/69 203/203/69 204/204/69
f 205/205/70 206/206/70 207/207/70
f 205/205/70 207/207/70 208/208/70
s 1
f 209/209/71 210/210/71 211/211/71
f 209/209/71 211/211/71 212/212/72
f 213/213/73 214/214/73 215/215/74
f 213/213/73 215/215/74 216/216/73
s 0
f 217/217/75 218/218/75 219/219/75
f 217/217/76 219/219/76 220/220/76
f 221/221/77 222/222/77 223/223/77
f 221/221/77 223/223/77 224/224/77
s 1
f 225/225/78 226/226/78 227/227/78
f 225/225/78 227/227/78 228/228/78
f 229/229/79 230/230/80 231/231/80
f 229/229/79 231/231/80 232/232/79
f 233/233/81 234/234/81 235/235/81
s 0
f 233/233/82 235/235/82 236/236/82
f 237/237/83 238/238/83 239/239/83
f 237/237/83 239/239/83 240/240/83
s 1
f 241/241/84 242/242/84 243/243/84
f 241/241/84 243/243/84 244/244/84
f 245/245/85 246/246/85 247/247/85
f 245/245/85 247/247/85 248/248/85
s 0
f 249/249/86 250/250/86 251/251/86
f 249/249/86 251/251/86 252/252/86
f 253/253/87 254/254/87 255/255/87
f 253/253/87 255/255/87 256/256/87
f 257/257/88 258/258/88 259/259/88
f 257/257/88 259/259/88 260/260/88
f 261/261/89 262/262/89 263/263/89
f 261/261/89 263/263/89 264/264/89
s 1
f 265/265/90 266/266/90 267/267/90
f 265/265/90 267/267/90 268/268/90
f 269/269/91 270/270/91 271/271/91
f 269/269/91 271/271/91 272/272/91
s 0
f 273/273/92 274/274/92 275/275/92
f 273/273/93 275/275/93 276/276/93
f 277/277/94 278/278/94 279/279/94
f 277/277/95 279/279/95 280/280/95
s 1
f 281/281/96 282/282/96 283/283/96
f 281/281/96 283/283/96 284/284/97
f 285/285/98 286/286/98 287/287/98
f 285/285/98 287/287/98 288/288/98
s 0
f 289/289/99 290/290/99 291/291/99
f 289/289/100 291/291/100 292/292/100
f 293/293/101 294/294/101 295/295/101
f 293/293/101 295/295/101 296/296/101
s 1
f 297/297/102 298/298/102 299/299/103
f 297/297/102 299/299/103 300/300/102
f 301/301/104 302/302/104 303/303/104
f 301/301/104 303/303/104 304/304/104
s 0
f 305/305/105 306/306/105 307/307/105
f 305/305/105 307/307/105 308/308/105
f 309/309/106 310/310/106 311/311/106
f 309/309/106 311/311/106 312/312/106
s 1
f 313/313/107 314/314/107 315/315/107
f 313/313/107 315/315/107 316/316/108
f 317/317/109 318/318/109 319/319/109
f 317/317/109 319/319/109 320/320/109
f 321/321/110 322/322/110 323/323/110
f 321/321/110 323/323/110 324/324/110
f 325/325/111 326/326/111 327/327/111
f 325/325/111 327/327/111 328/328/111
f 329/329/112 330/330/112 331/331/112
f 329/329/112 331/331/112 332/332/112
f 333/333/113 334/334/113 335/335/113
f 333/333/113 335/335/113 336/336/113
f 337/337/114 338/338/114 339/339/115
f 337/337/114 339/339/115 340/340/115
f 341/341/116 342/342/116 343/343/116
f 341/341/116 343/343/116 344/344/116
f 345/345/117 346/346/117 347/347/117
f 345/345/117 347/347/117 348/348/117
f 349/349/118 350/350/118 351/351/118
f 349/349/118 351/351/118 352/352/118
f 353/353/119 354/354/119 355/355/119
f 353/353/119 355/355/119 356/356/119
f 357/357/120 358/358/120 359/359/120
f 357/357/120 359/359/120 360/360/120
f 361/361/121 362/362/121 363/363/121
f 361/361/121 363/363/121 364/364/121
f 365/365/122 366/366/122 367/367/122
f 365/365/122 367/367/122 368/368/122
f 369/369/123 370/370/123 371/371/124
f 369/369/123 371/371/124 372/372/124
f 373/373/125 374/374/125 375/375/125
f 373/373/125 375/375/125 376/376/125
f 377/377/126 378/378/126 379/379/126
f 377/377/126 379/379/126 380/380/126
f 381/381/127 382/382/128 383/383/128
f 381/381/127 383/383/128 384/384/127
s 0
f 385/385/129 386/386/129 387/387/129
f 385/385/129 387/387/129 388/388/129
f 389/389/130 390/390/130 391/391/130
f 389/389/130 391/391/130 392/392/130
s 1
f 393/393/131 394/394/131 395/395/131
f 393/393/131 395/395/131 396/396/131
f 397/397/132 398/398/133 399/399/133
f 397/397/132 399/399/133 400/400/133
s 0
f 401/401/134 402/402/134 403/403/134
f 401/401/134 403/403/134 404/404/134
f 405/405/135 406/406/135 407/407/135
f 405/405/135 407/407/135 408/408/135
s 1
f 409/409/136 410/410/136 411/411/136
f 409/409/136 411/411/136 412/412/136
f 413/413/137 414/414/138 415/415/139
f 413/413/137 415/415/139 416/416/138
s 0
f 417/417/140 418/418/140 419/419/140
f 417/417/140 419/419/140 420/420/140
f 421/421/141 422/422/141 423/423/141
f 421/421/141 423/423/141 424/424/141
s 1
f 425/425/142 426/426/142 427/427/142
f 425/425/142 427/427/142 428/428/142
f 429/429/143 430/430/143 431/431/143
f 429/429/143 431/431/143 432/432/143
s 0
f 433/433/144 434/434/144 435/435/144
f 433/433/144 435/435/144 436/436/144
f 437/437/145 438/438/145 439/439/145
f 437/437/145 439/439/145 440/440/145
s 1
f 441/441/146 442/442/146 443/443/146
f 441/441/146 443/443/146 444/444/146
f 445/445/147 446/446/147 447/447/147
f 445/445/147 447/447/147 448/448/147
f 449/449/148 450/450/148 451/451/148
f 449/449/148 451/451/148 452/452/148
f 453/453/149 454/454/149 455/455/149
f 453/453/149 455/455/149 456/456/149
f 457/457/150 458/458/150 459/459/150
f 457/457/150 459/459/150 460/460/150
f 461/461/151 462/462/151 463/463/151
f 461/461/151 463/463/151 464/464/151
f 465/465/152 466/466/152 467/467/152
f 465/465/152 467/467/152 468/468/152
f 469/469/153 470/470/154 471/471/153
f 469/469/153 471/471/153 472/472/154
f 473/473/155 474/474/155 475/475/155
f 473/473/155 475/475/155 476/476/155
f 477/477/156 478/478/156 479/479/156
f 477/477/156 479/479/156 480/480/156
s 0
f 481/481/157 482/482/157 483/483/157
f 481/481/157 483/483/157 484/484/157
f 485/485/158 486/486/158 487/487/158
f 485/485/158 487/487/158 488/488/158
s 1
f 489/489/159 490/490/159 491/491/159
f 489/489/159 491/491/159 492/492/159
f 493/493/160 494/494/161 495/495/161
f 493/493/160 495/495/161 496/496/161
s 0
f 497/497/162 498/498/162 499/499/162
f 497/497/162 499/499/162 500/500/162
f 501/501/163 502/502/163 503/503/163
f 501/501/163 503/503/163 504/504/163
s 1
f 505/505/164 506/506/164 507/507/164
f 505/505/164 507/507/164 508/508/164
f 509/509/165 510/510/166 511/511/166
f 509/509/165 511/511/166 512/512/166
