# Blender 3.5.0
# www.blender.org
mtllib CannonCylinder11.mtl
o Cylinder.011_Black.009_0
v 0.071971 1.756521 3.138354
v -0.071970 1.756521 3.138354
v -0.071970 1.756521 1.642610
v 0.071971 1.756521 1.642610
v 0.071971 1.959932 1.642610
v 0.071971 1.959933 3.138354
v 0.146306 1.858227 3.138354
v 0.146305 1.858226 1.642610
v 0.146305 1.858226 1.642610
v 0.146306 1.858227 3.138354
v 0.071971 1.756521 3.138354
v 0.071971 1.756521 1.642610
v -0.071970 1.756521 1.642610
v -0.071970 1.756521 3.138354
v -0.146305 1.858227 3.138354
v -0.146305 1.858226 1.642610
v -0.146305 1.858226 1.642610
v -0.146305 1.858227 3.138354
v -0.071970 1.959933 3.138354
v -0.071970 1.959932 1.642610
v -0.071970 1.959932 1.642610
v -0.071970 1.959933 3.138354
v 0.071971 1.959933 3.138354
v 0.071971 1.959932 1.642610
v 0.054944 1.799814 3.138354
v 0.054944 1.799813 1.642610
v -0.054943 1.799813 1.642610
v -0.054943 1.799814 3.138354
v 0.054944 1.916639 1.642610
v 0.105593 1.858226 1.642610
v 0.105593 1.858227 3.138354
v 0.054944 1.916640 3.138354
v 0.105593 1.858226 1.642610
v 0.054944 1.799813 1.642610
v 0.054944 1.799814 3.138354
v 0.105593 1.858227 3.138354
v -0.054943 1.799813 1.642610
v -0.105592 1.858226 1.642610
v -0.105592 1.858227 3.138354
v -0.054943 1.799814 3.138354
v -0.105592 1.858226 1.642610
v -0.054943 1.916639 1.642610
v -0.054943 1.916640 3.138354
v -0.105592 1.858227 3.138354
v -0.054943 1.916639 1.642610
v 0.054944 1.916639 1.642610
v 0.054944 1.916640 3.138354
v -0.054943 1.916640 3.138354
v 0.071971 1.959932 1.642610
v 0.146305 1.858226 1.642610
v 0.105593 1.858226 1.642610
v 0.054944 1.916639 1.642610
v 0.146306 1.858227 3.138354
v 0.071971 1.959933 3.138354
v 0.054944 1.916640 3.138354
v 0.105593 1.858227 3.138354
v 0.146305 1.858226 1.642610
v 0.071971 1.756521 1.642610
v 0.054944 1.799813 1.642610
v 0.105593 1.858226 1.642610
v 0.071971 1.756521 3.138354
v 0.146306 1.858227 3.138354
v 0.105593 1.858227 3.138354
v 0.054944 1.799814 3.138354
v 0.071971 1.756521 1.642610
v -0.071970 1.756521 1.642610
v -0.054943 1.799813 1.642610
v 0.054944 1.799813 1.642610
v -0.071970 1.756521 3.138354
v 0.071971 1.756521 3.138354
v 0.054944 1.799814 3.138354
v -0.054943 1.799814 3.138354
v -0.146305 1.858226 1.642610
v -0.105592 1.858226 1.642610
v -0.146305 1.858227 3.138354
v -0.105592 1.858227 3.138354
v -0.071970 1.959932 1.642610
v -0.054943 1.916639 1.642610
v -0.071970 1.959933 3.138354
v -0.054943 1.916640 3.138354
v 0.071971 1.959933 3.138354
v 0.054944 1.916640 3.138354
vn -0.0000 -1.0000 -0.0000
vn 0.8073 0.5901 -0.0000
vn 0.8073 -0.5901 -0.0000
vn -0.8073 -0.5901 -0.0000
vn -0.8073 0.5901 -0.0000
vn -0.0000 1.0000 -0.0000
vn -0.7555 -0.6551 -0.0000
vn -0.7555 0.6551 -0.0000
vn 0.7555 0.6551 -0.0000
vn 0.7555 -0.6551 -0.0000
vn -0.0000 -0.0000 -1.0000
vn -0.0000 -0.0000 1.0000
vt 0.625000 0.000000
vt 0.375000 0.000000
vt 0.375000 1.000000
vt 0.625000 1.000000
vt 0.875000 1.000000
vt 0.875000 0.000000
vt 0.750000 0.000000
vt 0.750000 1.000000
vt 0.750000 1.000000
vt 0.750000 0.000000
vt 0.625000 0.000000
vt 0.625000 1.000000
vt 0.375000 1.000000
vt 0.375000 0.000000
vt 0.250000 0.000000
vt 0.250000 1.000000
vt 0.250000 1.000000
vt 0.250000 0.000000
vt 0.125000 0.000000
vt 0.125000 1.000000
vt 0.125000 1.000000
vt 0.125000 0.000000
vt 0.875000 0.000000
vt 0.875000 1.000000
vt 0.625000 0.000000
vt 0.625000 1.000000
vt 0.375000 1.000000
vt 0.375000 0.000000
vt 0.875000 1.000000
vt 0.750000 1.000000
vt 0.750000 0.000000
vt 0.875000 0.000000
vt 0.750000 1.000000
vt 0.625000 1.000000
vt 0.625000 0.000000
vt 0.750000 0.000000
vt 0.375000 1.000000
vt 0.250000 1.000000
vt 0.250000 0.000000
vt 0.375000 0.000000
vt 0.250000 1.000000
vt 0.125000 1.000000
vt 0.125000 0.000000
vt 0.250000 0.000000
vt 0.125000 1.000000
vt 0.875000 1.000000
vt 0.875000 0.000000
vt 0.125000 0.000000
vt 0.875000 1.000000
vt 0.750000 1.000000
vt 0.750000 1.000000
vt 0.875000 1.000000
vt 0.750000 0.000000
vt 0.875000 0.000000
vt 0.875000 0.000000
vt 0.750000 0.000000
vt 0.750000 1.000000
vt 0.625000 1.000000
vt 0.625000 1.000000
vt 0.750000 1.000000
vt 0.625000 0.000000
vt 0.750000 0.000000
vt 0.750000 0.000000
vt 0.625000 0.000000
vt 0.625000 1.000000
vt 0.375000 1.000000
vt 0.375000 1.000000
vt 0.625000 1.000000
vt 0.375000 0.000000
vt 0.625000 0.000000
vt 0.625000 0.000000
vt 0.375000 0.000000
vt 0.250000 1.000000
vt 0.250000 1.000000
vt 0.250000 0.000000
vt 0.250000 0.000000
vt 0.125000 1.000000
vt 0.125000 1.000000
vt 0.125000 0.000000
vt 0.125000 0.000000
vt 0.875000 0.000000
vt 0.875000 0.000000
s 0
usemtl Black.009
f 1/1/1 2/2/1 3/3/1
f 1/1/1 3/3/1 4/4/1
f 5/5/2 6/6/2 7/7/2
f 5/5/2 7/7/2 8/8/2
s 1
f 9/9/3 10/10/3 11/11/3
s 0
f 9/9/3 11/11/3 12/12/3
s 1
f 13/13/4 14/14/4 15/15/4
s 0
f 13/13/4 15/15/4 16/16/4
f 17/17/5 18/18/5 19/19/5
s 1
f 17/17/5 19/19/5 20/20/5
s 0
f 21/21/6 22/22/6 23/23/6
f 21/21/6 23/23/6 24/24/6
f 25/25/6 26/26/6 27/27/6
f 25/25/6 27/27/6 28/28/6
f 29/29/7 30/30/7 31/31/7
f 29/29/7 31/31/7 32/32/7
f 33/33/8 34/34/8 35/35/8
f 33/33/8 35/35/8 36/36/8
f 37/37/9 38/38/9 39/39/9
f 37/37/9 39/39/9 40/40/9
f 41/41/10 42/42/10 43/43/10
f 41/41/10 43/43/10 44/44/10
f 45/45/1 46/46/1 47/47/1
f 45/45/1 47/47/1 48/48/1
f 49/49/11 50/50/11 51/51/11
f 49/49/11 51/51/11 52/52/11
f 53/53/12 54/54/12 55/55/12
f 53/53/12 55/55/12 56/56/12
f 57/57/11 58/58/11 59/59/11
f 57/57/11 59/59/11 60/60/11
f 61/61/12 62/62/12 63/63/12
f 61/61/12 63/63/12 64/64/12
f 65/65/11 66/66/11 67/67/11
f 65/65/11 67/67/11 68/68/11
f 69/69/12 70/70/12 71/71/12
f 69/69/12 71/71/12 72/72/12
f 66/66/11 73/73/11 74/74/11
f 66/66/11 74/74/11 67/67/11
f 75/75/12 69/69/12 72/72/12
f 75/75/12 72/72/12 76/76/12
f 73/73/11 77/77/11 78/78/11
f 73/73/11 78/78/11 74/74/11
f 79/79/12 75/75/12 76/76/12
f 79/79/12 76/76/12 80/80/12
f 77/77/11 49/49/11 52/52/11
f 77/77/11 52/52/11 78/78/11
f 81/81/12 79/79/12 80/80/12
f 81/81/12 80/80/12 82/82/12
