# Blender 3.5.0
# www.blender.org
mtllib CannonCylinder7.mtl
o Cylinder.007_Black.005_0
v 0.522903 1.601781 1.695182
v 0.522903 1.612829 1.736412
v 0.558609 1.601781 1.715797
v 0.522903 1.447907 1.736412
v 0.522903 1.458954 1.695182
v 0.558609 1.458954 1.715797
v 0.522903 1.447907 1.736412
v 0.558609 1.458954 1.715797
v 0.558609 1.458954 1.757028
v 0.558609 1.601781 1.715797
v 0.522903 1.612829 1.736412
v 0.558609 1.601781 1.757028
v 0.558609 1.601781 1.757028
v 0.522903 1.612829 1.736412
v 0.522903 1.601781 1.777643
v 0.522903 1.447907 1.736412
v 0.558609 1.458954 1.757028
v 0.522903 1.458954 1.777643
v 0.522903 1.601781 1.777643
v 0.522903 1.612829 1.736412
v 0.487196 1.601781 1.757028
v 0.522903 1.447907 1.736412
v 0.522903 1.458954 1.777643
v 0.487196 1.458954 1.757028
v 0.487196 1.601781 1.757028
v 0.522903 1.612829 1.736412
v 0.487196 1.601781 1.715797
v 0.522903 1.447907 1.736412
v 0.487196 1.458954 1.757028
v 0.487196 1.458954 1.715797
v 0.487196 1.601781 1.715797
v 0.522903 1.612829 1.736412
v 0.522903 1.601781 1.695182
v 0.522903 1.447907 1.736412
v 0.487196 1.458954 1.715797
v 0.522903 1.458954 1.695182
v -0.522903 1.601781 1.695182
v -0.558610 1.601781 1.715797
v -0.522903 1.612829 1.736412
v -0.522903 1.447907 1.736413
v -0.558610 1.458954 1.715797
v -0.522903 1.458954 1.695182
v -0.522903 1.447907 1.736413
v -0.558610 1.458954 1.757028
v -0.558610 1.458954 1.715797
v -0.558610 1.601781 1.715797
v -0.558610 1.601781 1.757028
v -0.522903 1.612829 1.736412
v -0.558610 1.601781 1.757028
v -0.522903 1.601781 1.777643
v -0.522903 1.612829 1.736412
v -0.522903 1.447907 1.736413
v -0.522903 1.458954 1.777643
v -0.558610 1.458954 1.757028
v -0.522903 1.601781 1.777643
v -0.487196 1.601781 1.757028
v -0.522903 1.612829 1.736412
v -0.522903 1.447907 1.736413
v -0.487196 1.458954 1.757028
v -0.522903 1.458954 1.777643
v -0.487196 1.601781 1.757028
v -0.487196 1.601781 1.715797
v -0.522903 1.612829 1.736412
v -0.522903 1.447907 1.736413
v -0.487196 1.458954 1.715797
v -0.487196 1.458954 1.757028
v -0.487196 1.601781 1.715797
v -0.522903 1.601781 1.695182
v -0.522903 1.612829 1.736412
v -0.522903 1.447907 1.736413
v -0.522903 1.458954 1.695182
v -0.487196 1.458954 1.715797
v 0.732942 1.335737 2.307993
v 0.589001 1.335737 2.307993
v 0.603166 1.335737 1.647577
v 0.718777 1.335737 1.647577
v 0.718777 1.539148 1.647577
v 0.732942 1.539148 2.307993
v 0.807277 1.437443 2.307993
v 0.778481 1.437443 1.647577
v 0.778481 1.437443 1.647577
v 0.807277 1.437443 2.307993
v 0.732942 1.335737 2.307993
v 0.718777 1.335737 1.647577
v 0.603166 1.335737 1.647577
v 0.589001 1.335737 2.307993
v 0.514666 1.437443 2.307993
v 0.543462 1.437443 1.647577
v 0.543462 1.437443 1.647577
v 0.514666 1.437443 2.307993
v 0.589001 1.539148 2.307993
v 0.603166 1.539148 1.647577
v 0.603166 1.539148 1.647577
v 0.589001 1.539148 2.307993
v 0.732942 1.539148 2.307993
v 0.718777 1.539148 1.647577
v 0.732942 1.540398 2.307993
v 0.589001 1.540398 2.307993
v 0.603166 1.540397 1.647577
v 0.718777 1.540397 1.647576
v 0.718777 1.743809 1.647576
v 0.732942 1.743809 2.307993
v 0.807277 1.642103 2.307993
v 0.778481 1.642103 1.647576
v 0.778481 1.642103 1.647576
v 0.807277 1.642103 2.307993
v 0.732942 1.540398 2.307993
v 0.718777 1.540397 1.647576
v 0.603166 1.540397 1.647577
v 0.589001 1.540398 2.307993
v 0.514666 1.642103 2.307993
v 0.543462 1.642103 1.647576
v 0.543462 1.642103 1.647576
v 0.514666 1.642103 2.307993
v 0.589001 1.743809 2.307993
v 0.603166 1.743809 1.647576
v 0.603166 1.743809 1.647576
v 0.589001 1.743809 2.307993
v 0.732942 1.743809 2.307993
v 0.718777 1.743809 1.647576
v 0.522903 1.489137 1.664999
v 0.522903 1.530368 1.653951
v 0.594316 1.530368 1.695182
v 0.584749 1.489137 1.700706
v 0.522903 1.571598 1.664999
v 0.522903 1.601781 1.695182
v 0.558609 1.601781 1.715797
v 0.584749 1.571598 1.700706
v 0.522903 1.458954 1.695182
v 0.522903 1.489137 1.664999
v 0.584749 1.489137 1.700706
v 0.558609 1.458954 1.715797
v 0.522903 1.530368 1.653951
v 0.522903 1.571598 1.664999
v 0.584749 1.571598 1.700706
v 0.594316 1.530368 1.695182
v 0.584749 1.489137 1.700706
v 0.594316 1.530368 1.695182
v 0.594316 1.530368 1.777643
v 0.584749 1.489137 1.772119
v 0.584749 1.571598 1.700706
v 0.558609 1.601781 1.715797
v 0.558609 1.601781 1.757028
v 0.584749 1.571598 1.772119
v 0.558609 1.458954 1.715797
v 0.584749 1.489137 1.700706
v 0.584749 1.489137 1.772119
v 0.558609 1.458954 1.757028
v 0.594316 1.530368 1.695182
v 0.584749 1.571598 1.700706
v 0.584749 1.571598 1.772119
v 0.594316 1.530368 1.777643
v 0.584749 1.489137 1.772119
v 0.594316 1.530368 1.777643
v 0.522903 1.530368 1.818873
v 0.522903 1.489137 1.807826
v 0.584749 1.571598 1.772119
v 0.558609 1.601781 1.757028
v 0.522903 1.601781 1.777643
v 0.522903 1.571598 1.807826
v 0.558609 1.458954 1.757028
v 0.584749 1.489137 1.772119
v 0.522903 1.489137 1.807826
v 0.522903 1.458954 1.777643
v 0.594316 1.530368 1.777643
v 0.584749 1.571598 1.772119
v 0.522903 1.571598 1.807826
v 0.522903 1.530368 1.818873
v 0.522903 1.571598 1.807826
v 0.522903 1.601781 1.777643
v 0.487196 1.601781 1.757028
v 0.461057 1.571598 1.772119
v 0.522903 1.458954 1.777643
v 0.522903 1.489137 1.807826
v 0.461057 1.489137 1.772119
v 0.487196 1.458954 1.757028
v 0.522903 1.530368 1.818873
v 0.522903 1.571598 1.807826
v 0.461057 1.571598 1.772119
v 0.451489 1.530368 1.777643
v 0.522903 1.489137 1.807826
v 0.522903 1.530368 1.818873
v 0.451489 1.530368 1.777643
v 0.461057 1.489137 1.772119
v 0.487196 1.458954 1.757028
v 0.461057 1.489137 1.772119
v 0.461057 1.489137 1.700706
v 0.487196 1.458954 1.715797
v 0.451489 1.530368 1.777643
v 0.461057 1.571598 1.772119
v 0.461057 1.571598 1.700706
v 0.451489 1.530368 1.695182
v 0.461057 1.489137 1.772119
v 0.451489 1.530368 1.777643
v 0.451489 1.530368 1.695182
v 0.461057 1.489137 1.700706
v 0.461057 1.571598 1.772119
v 0.487196 1.601781 1.757028
v 0.487196 1.601781 1.715797
v 0.461057 1.571598 1.700706
v 0.487196 1.458954 1.715797
v 0.461057 1.489137 1.700706
v 0.522903 1.489137 1.664999
v 0.522903 1.458954 1.695182
v 0.451489 1.530368 1.695182
v 0.461057 1.571598 1.700706
v 0.522903 1.571598 1.664999
v 0.522903 1.530368 1.653951
v 0.461057 1.489137 1.700706
v 0.451489 1.530368 1.695182
v 0.522903 1.530368 1.653951
v 0.522903 1.489137 1.664999
v 0.461057 1.571598 1.700706
v 0.487196 1.601781 1.715797
v 0.522903 1.601781 1.695182
v 0.522903 1.571598 1.664999
v 0.732942 1.540398 2.307993
v 0.807277 1.642103 2.307993
v 0.775892 1.642103 2.307993
v 0.717503 1.562216 2.307993
v 0.589001 1.743809 2.307993
v 0.514666 1.642103 2.307993
v 0.546052 1.642103 2.307993
v 0.604440 1.721991 2.307993
v 0.589001 1.540398 2.307993
v 0.604440 1.562216 2.307993
v 0.732942 1.743809 2.307993
v 0.589001 1.743809 2.307993
v 0.604440 1.721991 2.307993
v 0.717503 1.721991 2.307993
v 0.807277 1.642103 2.307993
v 0.732942 1.743809 2.307993
v 0.717503 1.721991 2.307993
v 0.775892 1.642103 2.307993
v 0.514666 1.642103 2.307993
v 0.546052 1.642103 2.307993
v 0.589001 1.539148 2.307993
v 0.514666 1.437443 2.307993
v 0.548153 1.437443 2.307993
v 0.605474 1.515870 2.307993
v 0.589001 1.335737 2.307993
v 0.732942 1.335737 2.307993
v 0.716470 1.359015 2.307993
v 0.605474 1.359015 2.307993
v 0.732942 1.539148 2.307993
v 0.589001 1.539148 2.307993
v 0.605474 1.515870 2.307993
v 0.716470 1.515870 2.307993
v 0.807277 1.437443 2.307993
v 0.773790 1.437443 2.307993
v 0.514666 1.437443 2.307993
v 0.589001 1.335737 2.307993
v 0.605474 1.359015 2.307993
v 0.548153 1.437443 2.307993
v 0.732942 1.335737 2.307993
v 0.807277 1.437443 2.307993
v 0.773790 1.437443 2.307993
v 0.716470 1.359015 2.307993
v 0.746873 1.437443 1.647577
v 0.705071 1.508652 1.647577
v 0.718777 1.539148 1.647577
v 0.778481 1.437443 1.647577
v 0.705071 1.366233 1.647577
v 0.718777 1.335737 1.647577
v 0.616872 1.366233 1.647577
v 0.603166 1.335737 1.647577
v 0.575070 1.437443 1.647577
v 0.543462 1.437443 1.647577
v 0.616872 1.508652 1.647577
v 0.575070 1.437443 1.647577
v 0.543462 1.437443 1.647577
v 0.603166 1.539148 1.647577
v 0.616872 1.508652 1.647577
v 0.603166 1.539148 1.647577
v 0.746873 1.642103 1.647576
v 0.705071 1.713312 1.647576
v 0.718777 1.743809 1.647576
v 0.778481 1.642103 1.647576
v 0.705071 1.570894 1.647576
v 0.718777 1.540397 1.647576
v 0.616872 1.570894 1.647577
v 0.603166 1.540397 1.647577
v 0.575070 1.642103 1.647576
v 0.543462 1.642103 1.647576
v 0.616872 1.713312 1.647576
v 0.603166 1.743809 1.647576
v -0.732942 1.335737 2.307993
v -0.718777 1.335737 1.647577
v -0.603166 1.335737 1.647577
v -0.589001 1.335737 2.307993
v -0.718777 1.539148 1.647577
v -0.778481 1.437443 1.647577
v -0.807277 1.437443 2.307993
v -0.732942 1.539148 2.307993
v -0.778481 1.437443 1.647577
v -0.718777 1.335737 1.647577
v -0.732942 1.335737 2.307993
v -0.807277 1.437443 2.307993
v -0.603166 1.335737 1.647577
v -0.543462 1.437443 1.647577
v -0.514666 1.437443 2.307993
v -0.589001 1.335737 2.307993
v -0.543462 1.437443 1.647577
v -0.603166 1.539148 1.647577
v -0.589001 1.539148 2.307993
v -0.514666 1.437443 2.307993
v -0.603166 1.539148 1.647577
v -0.718777 1.539148 1.647577
v -0.732942 1.539148 2.307993
v -0.589001 1.539148 2.307993
v -0.732942 1.540398 2.307993
v -0.718777 1.540398 1.647577
v -0.603166 1.540397 1.647577
v -0.589001 1.540398 2.307993
v -0.718777 1.743809 1.647577
v -0.778481 1.642103 1.647577
v -0.807277 1.642103 2.307993
v -0.732942 1.743809 2.307993
v -0.778481 1.642103 1.647577
v -0.718777 1.540398 1.647577
v -0.732942 1.540398 2.307993
v -0.807277 1.642103 2.307993
v -0.603166 1.540397 1.647577
v -0.543462 1.642103 1.647577
v -0.514666 1.642103 2.307993
v -0.589001 1.540398 2.307993
v -0.543462 1.642103 1.647577
v -0.603166 1.743809 1.647577
v -0.589001 1.743809 2.307993
v -0.514666 1.642103 2.307993
v -0.603166 1.743809 1.647577
v -0.718777 1.743809 1.647577
v -0.732942 1.743809 2.307993
v -0.589001 1.743809 2.307993
v -0.522903 1.489137 1.664999
v -0.584749 1.489137 1.700706
v -0.594316 1.530368 1.695182
v -0.522903 1.530368 1.653951
v -0.522903 1.571598 1.664999
v -0.584749 1.571598 1.700706
v -0.558610 1.601781 1.715797
v -0.522903 1.601781 1.695182
v -0.522903 1.458954 1.695182
v -0.558610 1.458954 1.715797
v -0.584749 1.489137 1.700706
v -0.522903 1.489137 1.664999
v -0.522903 1.530368 1.653951
v -0.594316 1.530368 1.695182
v -0.584749 1.571598 1.700706
v -0.522903 1.571598 1.664999
v -0.584749 1.489137 1.700706
v -0.584749 1.489137 1.772119
v -0.594316 1.530368 1.777643
v -0.594316 1.530368 1.695182
v -0.584749 1.571598 1.700706
v -0.584749 1.571598 1.772119
v -0.558610 1.601781 1.757028
v -0.558610 1.601781 1.715797
v -0.558610 1.458954 1.715797
v -0.558610 1.458954 1.757028
v -0.584749 1.489137 1.772119
v -0.584749 1.489137 1.700706
v -0.594316 1.530368 1.695182
v -0.594316 1.530368 1.777643
v -0.584749 1.571598 1.772119
v -0.584749 1.571598 1.700706
v -0.584749 1.489137 1.772119
v -0.522903 1.489137 1.807826
v -0.522903 1.530368 1.818874
v -0.594316 1.530368 1.777643
v -0.584749 1.571598 1.772119
v -0.522903 1.571598 1.807826
v -0.522903 1.601781 1.777643
v -0.558610 1.601781 1.757028
v -0.558610 1.458954 1.757028
v -0.522903 1.458954 1.777643
v -0.522903 1.489137 1.807826
v -0.584749 1.489137 1.772119
v -0.594316 1.530368 1.777643
v -0.522903 1.530368 1.818874
v -0.522903 1.571598 1.807826
v -0.584749 1.571598 1.772119
v -0.522903 1.571598 1.807826
v -0.461057 1.571598 1.772119
v -0.487196 1.601781 1.757028
v -0.522903 1.601781 1.777643
v -0.522903 1.458954 1.777643
v -0.487196 1.458954 1.757028
v -0.461057 1.489137 1.772119
v -0.522903 1.489137 1.807826
v -0.522903 1.530368 1.818874
v -0.451490 1.530368 1.777643
v -0.461057 1.571598 1.772119
v -0.522903 1.571598 1.807826
v -0.522903 1.489137 1.807826
v -0.461057 1.489137 1.772119
v -0.451490 1.530368 1.777643
v -0.522903 1.530368 1.818874
v -0.487196 1.458954 1.757028
v -0.487196 1.458954 1.715797
v -0.461057 1.489137 1.700706
v -0.461057 1.489137 1.772119
v -0.451490 1.530368 1.777643
v -0.451490 1.530368 1.695182
v -0.461057 1.571598 1.700706
v -0.461057 1.571598 1.772119
v -0.461057 1.489137 1.772119
v -0.461057 1.489137 1.700706
v -0.451490 1.530368 1.695182
v -0.451490 1.530368 1.777643
v -0.461057 1.571598 1.772119
v -0.461057 1.571598 1.700706
v -0.487196 1.601781 1.715797
v -0.487196 1.601781 1.757028
v -0.487196 1.458954 1.715797
v -0.522903 1.458954 1.695182
v -0.522903 1.489137 1.664999
v -0.461057 1.489137 1.700706
v -0.451490 1.530368 1.695182
v -0.522903 1.530368 1.653951
v -0.522903 1.571598 1.664999
v -0.461057 1.571598 1.700706
v -0.461057 1.489137 1.700706
v -0.522903 1.489137 1.664999
v -0.522903 1.530368 1.653951
v -0.451490 1.530368 1.695182
v -0.461057 1.571598 1.700706
v -0.522903 1.571598 1.664999
v -0.522903 1.601781 1.695182
v -0.487196 1.601781 1.715797
v -0.732942 1.540398 2.307993
v -0.717503 1.562216 2.307993
v -0.775891 1.642103 2.307993
v -0.807277 1.642103 2.307993
v -0.589001 1.743809 2.307993
v -0.604440 1.721991 2.307993
v -0.546052 1.642103 2.307993
v -0.514666 1.642103 2.307993
v -0.589001 1.540398 2.307993
v -0.604440 1.562216 2.307993
v -0.717503 1.562216 2.307993
v -0.732942 1.540398 2.307993
v -0.732942 1.743809 2.307993
v -0.717503 1.721991 2.307993
v -0.604440 1.721991 2.307993
v -0.589001 1.743809 2.307993
v -0.807277 1.642103 2.307993
v -0.775891 1.642103 2.307993
v -0.717503 1.721991 2.307993
v -0.732942 1.743809 2.307993
v -0.514666 1.642103 2.307993
v -0.546052 1.642103 2.307993
v -0.604440 1.562216 2.307993
v -0.589001 1.540398 2.307993
v -0.589001 1.539148 2.307993
v -0.605474 1.515870 2.307993
v -0.548153 1.437443 2.307993
v -0.514666 1.437443 2.307993
v -0.589001 1.335737 2.307993
v -0.605474 1.359015 2.307993
v -0.716470 1.359015 2.307993
v -0.732942 1.335737 2.307993
v -0.732942 1.539148 2.307993
v -0.716470 1.515870 2.307993
v -0.605474 1.515870 2.307993
v -0.589001 1.539148 2.307993
v -0.807277 1.437443 2.307993
v -0.773790 1.437443 2.307993
v -0.716470 1.515870 2.307993
v -0.732942 1.539148 2.307993
v -0.514666 1.437443 2.307993
v -0.548153 1.437443 2.307993
v -0.605474 1.359015 2.307993
v -0.589001 1.335737 2.307993
v -0.732942 1.335737 2.307993
v -0.716470 1.359015 2.307993
v -0.773790 1.437443 2.307993
v -0.807277 1.437443 2.307993
v -0.746873 1.437443 1.647577
v -0.778481 1.437443 1.647577
v -0.718777 1.539148 1.647577
v -0.705071 1.508652 1.647577
v -0.705071 1.366233 1.647577
v -0.718777 1.335737 1.647577
v -0.778481 1.437443 1.647577
v -0.746873 1.437443 1.647577
v -0.616872 1.366233 1.647577
v -0.603166 1.335737 1.647577
v -0.718777 1.335737 1.647577
v -0.705071 1.366233 1.647577
v -0.575070 1.437443 1.647577
v -0.543462 1.437443 1.647577
v -0.603166 1.335737 1.647577
v -0.616872 1.366233 1.647577
v -0.616872 1.508652 1.647577
v -0.603166 1.539148 1.647577
v -0.543462 1.437443 1.647577
v -0.575070 1.437443 1.647577
v -0.705071 1.508652 1.647577
v -0.718777 1.539148 1.647577
v -0.603166 1.539148 1.647577
v -0.616872 1.508652 1.647577
v -0.746873 1.642103 1.647577
v -0.778481 1.642103 1.647577
v -0.718777 1.743809 1.647577
v -0.705071 1.713312 1.647577
v -0.705071 1.570894 1.647577
v -0.718777 1.540398 1.647577
v -0.778481 1.642103 1.647577
v -0.746873 1.642103 1.647577
v -0.616872 1.570894 1.647577
v -0.603166 1.540397 1.647577
v -0.718777 1.540398 1.647577
v -0.705071 1.570894 1.647577
v -0.575070 1.642103 1.647577
v -0.543462 1.642103 1.647577
v -0.603166 1.540397 1.647577
v -0.616872 1.570894 1.647577
v -0.616872 1.713312 1.647577
v -0.603166 1.743809 1.647577
v -0.543462 1.642103 1.647577
v -0.575070 1.642103 1.647577
v -0.705071 1.713312 1.647577
v -0.718777 1.743809 1.647577
v -0.603166 1.743809 1.647577
v -0.616872 1.713312 1.647577
vn 0.1478 0.9553 -0.2560
vn 0.1478 -0.9553 -0.2560
vn 0.2956 -0.9553 -0.0000
vn 0.2956 0.9553 -0.0000
vn 0.1478 0.9553 0.2560
vn 0.1478 -0.9553 0.2560
vn -0.1478 0.9553 0.2560
vn -0.1478 -0.9553 0.2560
vn -0.2956 0.9553 -0.0000
vn -0.2956 -0.9553 -0.0000
vn -0.1478 0.9553 -0.2560
vn -0.1478 -0.9553 -0.2560
vn -0.0000 -1.0000 -0.0000
vn 0.8347 0.5500 -0.0271
vn 0.8347 0.5500 -0.0272
vn 0.8347 -0.5500 -0.0271
vn -0.8347 -0.5500 -0.0271
vn -0.8347 -0.5501 -0.0271
vn -0.8347 -0.5500 -0.0272
vn -0.8347 0.5500 -0.0271
vn -0.0000 1.0000 -0.0000
vn 0.8347 -0.5501 -0.0272
vn 0.4871 -0.2260 -0.8436
vn 0.3780 0.6547 -0.6547
vn 0.3780 -0.6547 -0.6547
vn 0.4871 0.2260 -0.8436
vn 0.9741 -0.2260 -0.0000
vn 0.7559 0.6547 -0.0000
vn 0.7559 -0.6547 -0.0000
vn 0.9741 0.2260 -0.0000
vn 0.4871 -0.2260 0.8436
vn 0.3780 0.6547 0.6547
vn 0.3780 -0.6547 0.6547
vn 0.4871 0.2260 0.8436
vn -0.3780 0.6547 0.6547
vn -0.3780 -0.6547 0.6547
vn -0.4871 0.2260 0.8436
vn -0.4871 -0.2260 0.8436
vn -0.7559 -0.6547 -0.0000
vn -0.9741 0.2260 -0.0000
vn -0.9741 -0.2260 -0.0000
vn -0.7559 0.6547 -0.0000
vn -0.3780 -0.6547 -0.6547
vn -0.4871 0.2260 -0.8436
vn -0.4871 -0.2260 -0.8436
vn -0.3780 0.6547 -0.6547
vn -0.0000 -0.0000 1.0000
vn -0.0000 -0.0000 -1.0000
vn -0.8347 0.5500 -0.0272
vn 0.8347 -0.5500 -0.0272
vn 0.8347 -0.5501 -0.0271
vn 0.8347 0.5501 -0.0272
vt 0.666667 0.166667
vt 0.583333 0.000000
vt 0.500000 0.166667
vt 0.583333 1.000000
vt 0.666667 0.833333
vt 0.500000 0.833333
vt 0.416667 1.000000
vt 0.500000 0.833333
vt 0.333333 0.833333
vt 0.500000 0.166667
vt 0.416667 0.000000
vt 0.333333 0.166667
vt 0.333333 0.166667
vt 0.250000 0.000000
vt 0.166667 0.166667
vt 0.250000 1.000000
vt 0.333333 0.833333
vt 0.166667 0.833333
vt 0.166667 0.166667
vt 0.083333 0.000000
vt 0.000000 0.166667
vt 0.083333 1.000000
vt 0.166667 0.833333
vt 0.000000 0.833333
vt 1.000000 0.166667
vt 0.916667 0.000000
vt 0.833333 0.166667
vt 0.916667 1.000000
vt 1.000000 0.833333
vt 0.833333 0.833333
vt 0.833333 0.166667
vt 0.750000 0.000000
vt 0.666667 0.166667
vt 0.750000 1.000000
vt 0.833333 0.833333
vt 0.666667 0.833333
vt 0.666667 0.166667
vt 0.500000 0.166667
vt 0.583333 0.000000
vt 0.583333 1.000000
vt 0.500000 0.833333
vt 0.666667 0.833333
vt 0.416667 1.000000
vt 0.333333 0.833333
vt 0.500000 0.833333
vt 0.500000 0.166667
vt 0.333333 0.166667
vt 0.416667 0.000000
vt 0.333333 0.166667
vt 0.166667 0.166667
vt 0.250000 0.000000
vt 0.250000 1.000000
vt 0.166667 0.833333
vt 0.333333 0.833333
vt 0.166667 0.166667
vt 0.000000 0.166667
vt 0.083333 0.000000
vt 0.083333 1.000000
vt 0.000000 0.833333
vt 0.166667 0.833333
vt 1.000000 0.166667
vt 0.833333 0.166667
vt 0.916667 0.000000
vt 0.916667 1.000000
vt 0.833333 0.833333
vt 1.000000 0.833333
vt 0.833333 0.166667
vt 0.666667 0.166667
vt 0.750000 0.000000
vt 0.750000 1.000000
vt 0.666667 0.833333
vt 0.833333 0.833333
vt 0.625000 0.000000
vt 0.375000 0.000000
vt 0.375000 1.000000
vt 0.625000 1.000000
vt 0.875000 1.000000
vt 0.875000 0.000000
vt 0.750000 0.000000
vt 0.750000 1.000000
vt 0.750000 1.000000
vt 0.750000 0.000000
vt 0.625000 0.000000
vt 0.625000 1.000000
vt 0.375000 1.000000
vt 0.375000 0.000000
vt 0.250000 0.000000
vt 0.250000 1.000000
vt 0.250000 1.000000
vt 0.250000 0.000000
vt 0.125000 0.000000
vt 0.125000 1.000000
vt 0.125000 1.000000
vt 0.125000 0.000000
vt 0.875000 0.000000
vt 0.875000 1.000000
vt 0.625000 0.000000
vt 0.375000 0.000000
vt 0.375000 1.000000
vt 0.625000 1.000000
vt 0.875000 1.000000
vt 0.875000 0.000000
vt 0.750000 0.000000
vt 0.750000 1.000000
vt 0.750000 1.000000
vt 0.750000 0.000000
vt 0.625000 0.000000
vt 0.625000 1.000000
vt 0.375000 1.000000
vt 0.375000 0.000000
vt 0.250000 0.000000
vt 0.250000 1.000000
vt 0.250000 1.000000
vt 0.250000 0.000000
vt 0.125000 0.000000
vt 0.125000 1.000000
vt 0.125000 1.000000
vt 0.125000 0.000000
vt 0.875000 0.000000
vt 0.875000 1.000000
vt 0.666667 0.666667
vt 0.666667 0.500000
vt 0.500000 0.500000
vt 0.500000 0.666667
vt 0.666667 0.333333
vt 0.666667 0.166667
vt 0.500000 0.166667
vt 0.500000 0.333333
vt 0.666667 0.833333
vt 0.666667 0.666667
vt 0.500000 0.666667
vt 0.500000 0.833333
vt 0.666667 0.500000
vt 0.666667 0.333333
vt 0.500000 0.333333
vt 0.500000 0.500000
vt 0.500000 0.666667
vt 0.500000 0.500000
vt 0.333333 0.500000
vt 0.333333 0.666667
vt 0.500000 0.333333
vt 0.500000 0.166667
vt 0.333333 0.166667
vt 0.333333 0.333333
vt 0.500000 0.833333
vt 0.500000 0.666667
vt 0.333333 0.666667
vt 0.333333 0.833333
vt 0.500000 0.500000
vt 0.500000 0.333333
vt 0.333333 0.333333
vt 0.333333 0.500000
vt 0.333333 0.666667
vt 0.333333 0.500000
vt 0.166667 0.500000
vt 0.166667 0.666667
vt 0.333333 0.333333
vt 0.333333 0.166667
vt 0.166667 0.166667
vt 0.166667 0.333333
vt 0.333333 0.833333
vt 0.333333 0.666667
vt 0.166667 0.666667
vt 0.166667 0.833333
vt 0.333333 0.500000
vt 0.333333 0.333333
vt 0.166667 0.333333
vt 0.166667 0.500000
vt 0.166667 0.333333
vt 0.166667 0.166667
vt 0.000000 0.166667
vt 0.000000 0.333333
vt 0.166667 0.833333
vt 0.166667 0.666667
vt 0.000000 0.666667
vt 0.000000 0.833333
vt 0.166667 0.500000
vt 0.166667 0.333333
vt 0.000000 0.333333
vt 0.000000 0.500000
vt 0.166667 0.666667
vt 0.166667 0.500000
vt 0.000000 0.500000
vt 0.000000 0.666667
vt 1.000000 0.833333
vt 1.000000 0.666667
vt 0.833333 0.666667
vt 0.833333 0.833333
vt 1.000000 0.500000
vt 1.000000 0.333333
vt 0.833333 0.333333
vt 0.833333 0.500000
vt 1.000000 0.666667
vt 1.000000 0.500000
vt 0.833333 0.500000
vt 0.833333 0.666667
vt 1.000000 0.333333
vt 1.000000 0.166667
vt 0.833333 0.166667
vt 0.833333 0.333333
vt 0.833333 0.833333
vt 0.833333 0.666667
vt 0.666667 0.666667
vt 0.666667 0.833333
vt 0.833333 0.500000
vt 0.833333 0.333333
vt 0.666667 0.333333
vt 0.666667 0.500000
vt 0.833333 0.666667
vt 0.833333 0.500000
vt 0.666667 0.500000
vt 0.666667 0.666667
vt 0.833333 0.333333
vt 0.833333 0.166667
vt 0.666667 0.166667
vt 0.666667 0.333333
vt 0.625000 0.000000
vt 0.750000 0.000000
vt 0.750000 0.000000
vt 0.625000 0.000000
vt 0.125000 0.000000
vt 0.250000 0.000000
vt 0.250000 0.000000
vt 0.125000 0.000000
vt 0.375000 0.000000
vt 0.375000 0.000000
vt 0.875000 0.000000
vt 0.125000 0.000000
vt 0.125000 0.000000
vt 0.875000 0.000000
vt 0.750000 0.000000
vt 0.875000 0.000000
vt 0.875000 0.000000
vt 0.750000 0.000000
vt 0.250000 0.000000
vt 0.250000 0.000000
vt 0.125000 0.000000
vt 0.250000 0.000000
vt 0.250000 0.000000
vt 0.125000 0.000000
vt 0.375000 0.000000
vt 0.625000 0.000000
vt 0.625000 0.000000
vt 0.375000 0.000000
vt 0.875000 0.000000
vt 0.125000 0.000000
vt 0.125000 0.000000
vt 0.875000 0.000000
vt 0.750000 0.000000
vt 0.750000 0.000000
vt 0.250000 0.000000
vt 0.375000 0.000000
vt 0.375000 0.000000
vt 0.250000 0.000000
vt 0.625000 0.000000
vt 0.750000 0.000000
vt 0.750000 0.000000
vt 0.625000 0.000000
vt 0.711306 1.000000
vt 0.729426 1.000000
vt 0.875000 1.000000
vt 0.750000 1.000000
vt 0.597771 1.000000
vt 0.625000 1.000000
vt 0.402229 1.000000
vt 0.375000 1.000000
vt 0.288694 1.000000
vt 0.250000 1.000000
vt 0.270574 1.000000
vt 0.288694 1.000000
vt 0.250000 1.000000
vt 0.125000 1.000000
vt 0.270574 1.000000
vt 0.125000 1.000000
vt 0.711306 1.000000
vt 0.729426 1.000000
vt 0.875000 1.000000
vt 0.750000 1.000000
vt 0.597771 1.000000
vt 0.625000 1.000000
vt 0.402229 1.000000
vt 0.375000 1.000000
vt 0.288694 1.000000
vt 0.250000 1.000000
vt 0.270574 1.000000
vt 0.125000 1.000000
vt 0.625000 0.000000
vt 0.625000 1.000000
vt 0.375000 1.000000
vt 0.375000 0.000000
vt 0.875000 1.000000
vt 0.750000 1.000000
vt 0.750000 0.000000
vt 0.875000 0.000000
vt 0.750000 1.000000
vt 0.625000 1.000000
vt 0.625000 0.000000
vt 0.750000 0.000000
vt 0.375000 1.000000
vt 0.250000 1.000000
vt 0.250000 0.000000
vt 0.375000 0.000000
vt 0.250000 1.000000
vt 0.125000 1.000000
vt 0.125000 0.000000
vt 0.250000 0.000000
vt 0.125000 1.000000
vt 0.875000 1.000000
vt 0.875000 0.000000
vt 0.125000 0.000000
vt 0.625000 0.000000
vt 0.625000 1.000000
vt 0.375000 1.000000
vt 0.375000 0.000000
vt 0.875000 1.000000
vt 0.750000 1.000000
vt 0.750000 0.000000
vt 0.875000 0.000000
vt 0.750000 1.000000
vt 0.625000 1.000000
vt 0.625000 0.000000
vt 0.750000 0.000000
vt 0.375000 1.000000
vt 0.250000 1.000000
vt 0.250000 0.000000
vt 0.375000 0.000000
vt 0.250000 1.000000
vt 0.125000 1.000000
vt 0.125000 0.000000
vt 0.250000 0.000000
vt 0.125000 1.000000
vt 0.875000 1.000000
vt 0.875000 0.000000
vt 0.125000 0.000000
vt 0.666667 0.666667
vt 0.500000 0.666667
vt 0.500000 0.500000
vt 0.666667 0.500000
vt 0.666667 0.333333
vt 0.500000 0.333333
vt 0.500000 0.166667
vt 0.666667 0.166667
vt 0.666667 0.833333
vt 0.500000 0.833333
vt 0.500000 0.666667
vt 0.666667 0.666667
vt 0.666667 0.500000
vt 0.500000 0.500000
vt 0.500000 0.333333
vt 0.666667 0.333333
vt 0.500000 0.666667
vt 0.333333 0.666667
vt 0.333333 0.500000
vt 0.500000 0.500000
vt 0.500000 0.333333
vt 0.333333 0.333333
vt 0.333333 0.166667
vt 0.500000 0.166667
vt 0.500000 0.833333
vt 0.333333 0.833333
vt 0.333333 0.666667
vt 0.500000 0.666667
vt 0.500000 0.500000
vt 0.333333 0.500000
vt 0.333333 0.333333
vt 0.500000 0.333333
vt 0.333333 0.666667
vt 0.166667 0.666667
vt 0.166667 0.500000
vt 0.333333 0.500000
vt 0.333333 0.333333
vt 0.166667 0.333333
vt 0.166667 0.166667
vt 0.333333 0.166667
vt 0.333333 0.833333
vt 0.166667 0.833333
vt 0.166667 0.666667
vt 0.333333 0.666667
vt 0.333333 0.500000
vt 0.166667 0.500000
vt 0.166667 0.333333
vt 0.333333 0.333333
vt 0.166667 0.333333
vt 0.000000 0.333333
vt 0.000000 0.166667
vt 0.166667 0.166667
vt 0.166667 0.833333
vt 0.000000 0.833333
vt 0.000000 0.666667
vt 0.166667 0.666667
vt 0.166667 0.500000
vt 0.000000 0.500000
vt 0.000000 0.333333
vt 0.166667 0.333333
vt 0.166667 0.666667
vt 0.000000 0.666667
vt 0.000000 0.500000
vt 0.166667 0.500000
vt 1.000000 0.833333
vt 0.833333 0.833333
vt 0.833333 0.666667
vt 1.000000 0.666667
vt 1.000000 0.500000
vt 0.833333 0.500000
vt 0.833333 0.333333
vt 1.000000 0.333333
vt 1.000000 0.666667
vt 0.833333 0.666667
vt 0.833333 0.500000
vt 1.000000 0.500000
vt 1.000000 0.333333
vt 0.833333 0.333333
vt 0.833333 0.166667
vt 1.000000 0.166667
vt 0.833333 0.833333
vt 0.666667 0.833333
vt 0.666667 0.666667
vt 0.833333 0.666667
vt 0.833333 0.500000
vt 0.666667 0.500000
vt 0.666667 0.333333
vt 0.833333 0.333333
vt 0.833333 0.666667
vt 0.666667 0.666667
vt 0.666667 0.500000
vt 0.833333 0.500000
vt 0.833333 0.333333
vt 0.666667 0.333333
vt 0.666667 0.166667
vt 0.833333 0.166667
vt 0.625000 0.000000
vt 0.625000 0.000000
vt 0.750000 0.000000
vt 0.750000 0.000000
vt 0.125000 0.000000
vt 0.125000 0.000000
vt 0.250000 0.000000
vt 0.250000 0.000000
vt 0.375000 0.000000
vt 0.375000 0.000000
vt 0.625000 0.000000
vt 0.625000 0.000000
vt 0.875000 0.000000
vt 0.875000 0.000000
vt 0.125000 0.000000
vt 0.125000 0.000000
vt 0.750000 0.000000
vt 0.750000 0.000000
vt 0.875000 0.000000
vt 0.875000 0.000000
vt 0.250000 0.000000
vt 0.250000 0.000000
vt 0.375000 0.000000
vt 0.375000 0.000000
vt 0.125000 0.000000
vt 0.125000 0.000000
vt 0.250000 0.000000
vt 0.250000 0.000000
vt 0.375000 0.000000
vt 0.375000 0.000000
vt 0.625000 0.000000
vt 0.625000 0.000000
vt 0.875000 0.000000
vt 0.875000 0.000000
vt 0.125000 0.000000
vt 0.125000 0.000000
vt 0.750000 0.000000
vt 0.750000 0.000000
vt 0.875000 0.000000
vt 0.875000 0.000000
vt 0.250000 0.000000
vt 0.250000 0.000000
vt 0.375000 0.000000
vt 0.375000 0.000000
vt 0.625000 0.000000
vt 0.625000 0.000000
vt 0.750000 0.000000
vt 0.750000 0.000000
vt 0.711306 1.000000
vt 0.750000 1.000000
vt 0.875000 1.000000
vt 0.729426 1.000000
vt 0.597771 1.000000
vt 0.625000 1.000000
vt 0.750000 1.000000
vt 0.711306 1.000000
vt 0.402229 1.000000
vt 0.375000 1.000000
vt 0.625000 1.000000
vt 0.597771 1.000000
vt 0.288694 1.000000
vt 0.250000 1.000000
vt 0.375000 1.000000
vt 0.402229 1.000000
vt 0.270574 1.000000
vt 0.125000 1.000000
vt 0.250000 1.000000
vt 0.288694 1.000000
vt 0.729426 1.000000
vt 0.875000 1.000000
vt 0.125000 1.000000
vt 0.270574 1.000000
vt 0.711306 1.000000
vt 0.750000 1.000000
vt 0.875000 1.000000
vt 0.729426 1.000000
vt 0.597771 1.000000
vt 0.625000 1.000000
vt 0.750000 1.000000
vt 0.711306 1.000000
vt 0.402229 1.000000
vt 0.375000 1.000000
vt 0.625000 1.000000
vt 0.597771 1.000000
vt 0.288694 1.000000
vt 0.250000 1.000000
vt 0.375000 1.000000
vt 0.402229 1.000000
vt 0.270574 1.000000
vt 0.125000 1.000000
vt 0.250000 1.000000
vt 0.288694 1.000000
vt 0.729426 1.000000
vt 0.875000 1.000000
vt 0.125000 1.000000
vt 0.270574 1.000000
s 0
usemtl Black.005
f 1/1/1 2/2/1 3/3/1
f 4/4/2 5/5/2 6/6/2
f 7/7/3 8/8/3 9/9/3
f 10/10/4 11/11/4 12/12/4
f 13/13/5 14/14/5 15/15/5
f 16/16/6 17/17/6 18/18/6
f 19/19/7 20/20/7 21/21/7
f 22/22/8 23/23/8 24/24/8
f 25/25/9 26/26/9 27/27/9
f 28/28/10 29/29/10 30/30/10
f 31/31/11 32/32/11 33/33/11
f 34/34/12 35/35/12 36/36/12
f 37/37/11 38/38/11 39/39/11
f 40/40/12 41/41/12 42/42/12
f 43/43/10 44/44/10 45/45/10
f 46/46/9 47/47/9 48/48/9
f 49/49/7 50/50/7 51/51/7
f 52/52/8 53/53/8 54/54/8
f 55/55/5 56/56/5 57/57/5
f 58/58/6 59/59/6 60/60/6
f 61/61/4 62/62/4 63/63/4
f 64/64/3 65/65/3 66/66/3
f 67/67/1 68/68/1 69/69/1
f 70/70/2 71/71/2 72/72/2
f 73/73/13 74/74/13 75/75/13
f 73/73/13 75/75/13 76/76/13
s 1
f 77/77/14 78/78/14 79/79/14
f 77/77/14 79/79/14 80/80/15
f 81/81/16 82/82/16 83/83/16
f 81/81/16 83/83/16 84/84/16
f 85/85/17 86/86/18 87/87/17
f 85/85/17 87/87/17 88/88/19
f 89/89/20 90/90/20 91/91/20
f 89/89/20 91/91/20 92/92/20
s 0
f 93/93/21 94/94/21 95/95/21
f 93/93/21 95/95/21 96/96/21
f 97/97/13 98/98/13 99/99/13
f 97/97/13 99/99/13 100/100/13
s 1
f 101/101/14 102/102/15 103/103/14
f 101/101/14 103/103/14 104/104/15
f 105/105/16 106/106/16 107/107/22
f 105/105/16 107/107/22 108/108/16
f 109/109/17 110/110/19 111/111/17
f 109/109/17 111/111/17 112/112/19
f 113/113/20 114/114/20 115/115/20
f 113/113/20 115/115/20 116/116/20
s 0
f 117/117/21 118/118/21 119/119/21
f 117/117/21 119/119/21 120/120/21
f 121/121/23 122/122/23 123/123/23
f 121/121/23 123/123/23 124/124/23
f 125/125/24 126/126/24 127/127/24
f 125/125/24 127/127/24 128/128/24
f 129/129/25 130/130/25 131/131/25
f 129/129/25 131/131/25 132/132/25
f 133/133/26 134/134/26 135/135/26
f 133/133/26 135/135/26 136/136/26
f 137/137/27 138/138/27 139/139/27
f 137/137/27 139/139/27 140/140/27
f 141/141/28 142/142/28 143/143/28
f 141/141/28 143/143/28 144/144/28
f 145/145/29 146/146/29 147/147/29
f 145/145/29 147/147/29 148/148/29
f 149/149/30 150/150/30 151/151/30
f 149/149/30 151/151/30 152/152/30
f 153/153/31 154/154/31 155/155/31
f 153/153/31 155/155/31 156/156/31
f 157/157/32 158/158/32 159/159/32
f 157/157/32 159/159/32 160/160/32
f 161/161/33 162/162/33 163/163/33
f 161/161/33 163/163/33 164/164/33
f 165/165/34 166/166/34 167/167/34
f 165/165/34 167/167/34 168/168/34
f 169/169/35 170/170/35 171/171/35
f 169/169/35 171/171/35 172/172/35
f 173/173/36 174/174/36 175/175/36
f 173/173/36 175/175/36 176/176/36
f 177/177/37 178/178/37 179/179/37
f 177/177/37 179/179/37 180/180/37
f 181/181/38 182/182/38 183/183/38
f 181/181/38 183/183/38 184/184/38
f 185/185/39 186/186/39 187/187/39
f 185/185/39 187/187/39 188/188/39
f 189/189/40 190/190/40 191/191/40
f 189/189/40 191/191/40 192/192/40
f 193/193/41 194/194/41 195/195/41
f 193/193/41 195/195/41 196/196/41
f 197/197/42 198/198/42 199/199/42
f 197/197/42 199/199/42 200/200/42
f 201/201/43 202/202/43 203/203/43
f 201/201/43 203/203/43 204/204/43
f 205/205/44 206/206/44 207/207/44
f 205/205/44 207/207/44 208/208/44
f 209/209/45 210/210/45 211/211/45
f 209/209/45 211/211/45 212/212/45
f 213/213/46 214/214/46 215/215/46
f 213/213/46 215/215/46 216/216/46
f 217/217/47 218/218/47 219/219/47
f 217/217/47 219/219/47 220/220/47
f 221/221/47 222/222/47 223/223/47
f 221/221/47 223/223/47 224/224/47
f 225/225/47 217/217/47 220/220/47
f 225/225/47 220/220/47 226/226/47
f 227/227/47 228/228/47 229/229/47
f 227/227/47 229/229/47 230/230/47
f 231/231/47 232/232/47 233/233/47
f 231/231/47 233/233/47 234/234/47
f 235/235/47 225/225/47 226/226/47
f 235/235/47 226/226/47 236/236/47
f 237/237/47 238/238/47 239/239/47
f 237/237/47 239/239/47 240/240/47
f 241/241/47 242/242/47 243/243/47
f 241/241/47 243/243/47 244/244/47
f 245/245/47 246/246/47 247/247/47
f 245/245/47 247/247/47 248/248/47
f 249/249/47 245/245/47 248/248/47
f 249/249/47 248/248/47 250/250/47
f 251/251/47 252/252/47 253/253/47
f 251/251/47 253/253/47 254/254/47
f 255/255/47 256/256/47 257/257/47
f 255/255/47 257/257/47 258/258/47
f 259/259/48 260/260/48 261/261/48
f 259/259/48 261/261/48 262/262/48
f 263/263/48 259/259/48 262/262/48
f 263/263/48 262/262/48 264/264/48
f 265/265/48 263/263/48 264/264/48
f 265/265/48 264/264/48 266/266/48
f 267/267/48 265/265/48 266/266/48
f 267/267/48 266/266/48 268/268/48
f 269/269/48 270/270/48 271/271/48
f 269/269/48 271/271/48 272/272/48
f 260/260/48 273/273/48 274/274/48
f 260/260/48 274/274/48 261/261/48
f 275/275/48 276/276/48 277/277/48
f 275/275/48 277/277/48 278/278/48
f 279/279/48 275/275/48 278/278/48
f 279/279/48 278/278/48 280/280/48
f 281/281/48 279/279/48 280/280/48
f 281/281/48 280/280/48 282/282/48
f 283/283/48 281/281/48 282/282/48
f 283/283/48 282/282/48 284/284/48
f 285/285/48 283/283/48 284/284/48
f 285/285/48 284/284/48 286/286/48
f 276/276/48 285/285/48 286/286/48
f 276/276/48 286/286/48 277/277/48
f 287/287/13 288/288/13 289/289/13
f 287/287/13 289/289/13 290/290/13
s 1
f 291/291/20 292/292/49 293/293/20
f 291/291/20 293/293/20 294/294/49
f 295/295/17 296/296/17 297/297/17
f 295/295/17 297/297/17 298/298/17
f 299/299/16 300/300/50 301/301/16
f 299/299/16 301/301/16 302/302/51
f 303/303/52 304/304/14 305/305/14
f 303/303/52 305/305/14 306/306/14
s 0
f 307/307/21 308/308/21 309/309/21
f 307/307/21 309/309/21 310/310/21
f 311/311/13 312/312/13 313/313/13
f 311/311/13 313/313/13 314/314/13
s 1
f 315/315/20 316/316/49 317/317/20
f 315/315/20 317/317/20 318/318/20
f 319/319/17 320/320/17 321/321/17
f 319/319/17 321/321/17 322/322/17
f 323/323/16 324/324/50 325/325/16
f 323/323/16 325/325/16 326/326/16
f 327/327/14 328/328/14 329/329/14
f 327/327/14 329/329/14 330/330/14
s 0
f 331/331/21 332/332/21 333/333/21
f 331/331/21 333/333/21 334/334/21
s 1
f 335/335/45 336/336/45 337/337/45
s 0
f 335/335/45 337/337/45 338/338/45
f 339/339/46 340/340/46 341/341/46
f 339/339/46 341/341/46 342/342/46
f 343/343/43 344/344/43 345/345/43
f 343/343/43 345/345/43 346/346/43
f 347/347/44 348/348/44 349/349/44
f 347/347/44 349/349/44 350/350/44
f 351/351/41 352/352/41 353/353/41
f 351/351/41 353/353/41 354/354/41
f 355/355/42 356/356/42 357/357/42
f 355/355/42 357/357/42 358/358/42
f 359/359/39 360/360/39 361/361/39
f 359/359/39 361/361/39 362/362/39
f 363/363/40 364/364/40 365/365/40
f 363/363/40 365/365/40 366/366/40
f 367/367/38 368/368/38 369/369/38
f 367/367/38 369/369/38 370/370/38
f 371/371/35 372/372/35 373/373/35
f 371/371/35 373/373/35 374/374/35
f 375/375/36 376/376/36 377/377/36
f 375/375/36 377/377/36 378/378/36
f 379/379/37 380/380/37 381/381/37
f 379/379/37 381/381/37 382/382/37
f 383/383/32 384/384/32 385/385/32
f 383/383/32 385/385/32 386/386/32
f 387/387/33 388/388/33 389/389/33
f 387/387/33 389/389/33 390/390/33
f 391/391/34 392/392/34 393/393/34
f 391/391/34 393/393/34 394/394/34
f 395/395/31 396/396/31 397/397/31
f 395/395/31 397/397/31 398/398/31
f 399/399/29 400/400/29 401/401/29
f 399/399/29 401/401/29 402/402/29
f 403/403/30 404/404/30 405/405/30
f 403/403/30 405/405/30 406/406/30
f 407/407/27 408/408/27 409/409/27
f 407/407/27 409/409/27 410/410/27
f 411/411/28 412/412/28 413/413/28
f 411/411/28 413/413/28 414/414/28
f 415/415/25 416/416/25 417/417/25
f 415/415/25 417/417/25 418/418/25
f 419/419/26 420/420/26 421/421/26
f 419/419/26 421/421/26 422/422/26
f 423/423/23 424/424/23 425/425/23
f 423/423/23 425/425/23 426/426/23
f 427/427/24 428/428/24 429/429/24
f 427/427/24 429/429/24 430/430/24
f 431/431/47 432/432/47 433/433/47
f 431/431/47 433/433/47 434/434/47
f 435/435/47 436/436/47 437/437/47
f 435/435/47 437/437/47 438/438/47
f 439/439/47 440/440/47 441/441/47
f 439/439/47 441/441/47 442/442/47
f 443/443/47 444/444/47 445/445/47
f 443/443/47 445/445/47 446/446/47
f 447/447/47 448/448/47 449/449/47
f 447/447/47 449/449/47 450/450/47
f 451/451/47 452/452/47 453/453/47
f 451/451/47 453/453/47 454/454/47
f 455/455/47 456/456/47 457/457/47
f 455/455/47 457/457/47 458/458/47
f 459/459/47 460/460/47 461/461/47
f 459/459/47 461/461/47 462/462/47
f 463/463/47 464/464/47 465/465/47
f 463/463/47 465/465/47 466/466/47
f 467/467/47 468/468/47 469/469/47
f 467/467/47 469/469/47 470/470/47
f 471/471/47 472/472/47 473/473/47
f 471/471/47 473/473/47 474/474/47
f 475/475/47 476/476/47 477/477/47
f 475/475/47 477/477/47 478/478/47
f 479/479/48 480/480/48 481/481/48
f 479/479/48 481/481/48 482/482/48
f 483/483/48 484/484/48 485/485/48
f 483/483/48 485/485/48 486/486/48
f 487/487/48 488/488/48 489/489/48
f 487/487/48 489/489/48 490/490/48
f 491/491/48 492/492/48 493/493/48
f 491/491/48 493/493/48 494/494/48
f 495/495/48 496/496/48 497/497/48
f 495/495/48 497/497/48 498/498/48
f 499/499/48 500/500/48 501/501/48
f 499/499/48 501/501/48 502/502/48
f 503/503/48 504/504/48 505/505/48
f 503/503/48 505/505/48 506/506/48
f 507/507/48 508/508/48 509/509/48
f 507/507/48 509/509/48 510/510/48
f 511/511/48 512/512/48 513/513/48
f 511/511/48 513/513/48 514/514/48
f 515/515/48 516/516/48 517/517/48
f 515/515/48 517/517/48 518/518/48
f 519/519/48 520/520/48 521/521/48
f 519/519/48 521/521/48 522/522/48
f 523/523/48 524/524/48 525/525/48
f 523/523/48 525/525/48 526/526/48
