# Blender 3.5.0
# www.blender.org
mtllib CannonCylinder1.mtl
o Cylinder.010_Black.008_0
v 0.284169 1.478417 1.861755
v 0.284170 1.478418 4.766943
v 0.139789 1.280875 4.766943
v 0.139789 1.280874 1.861755
v 0.000000 1.675961 1.861755
v 0.000000 1.675961 4.766943
v 0.139789 1.675961 4.766943
v 0.139789 1.675961 1.861755
v 0.171845 1.632102 4.440685
v 0.171845 1.632102 3.152422
v 0.139789 1.675961 1.861755
v 0.139789 1.675961 4.766943
v 0.171845 1.632102 3.152422
v 0.252114 1.522277 3.347988
v 0.284169 1.478417 1.861755
v 0.139789 1.675961 1.861755
v 0.252114 1.522277 4.636250
v 0.171845 1.632102 4.440685
v 0.139789 1.675961 4.766943
v 0.284170 1.478418 4.766943
v 0.252114 1.522277 3.347988
v 0.252114 1.522277 4.636250
v 0.284170 1.478418 4.766943
v 0.284169 1.478417 1.861755
v 0.139789 1.280875 4.766943
v 0.000000 1.280875 4.766943
v 0.000000 1.280874 1.861755
v 0.139789 1.280874 1.861755
v -0.284169 1.478417 1.861755
v -0.139789 1.280874 1.861755
v -0.139789 1.280875 4.766943
v -0.284169 1.478418 4.766943
v 0.000000 1.675961 1.861755
v -0.139789 1.675961 1.861755
v -0.139789 1.675962 4.766943
v 0.000000 1.675961 4.766943
v -0.171845 1.632102 4.440684
v -0.139789 1.675962 4.766943
v -0.139789 1.675961 1.861755
v -0.171845 1.632102 3.152422
v -0.171845 1.632102 3.152422
v -0.139789 1.675961 1.861755
v -0.284169 1.478417 1.861755
v -0.252114 1.522277 3.347987
v -0.252114 1.522277 4.636250
v -0.284169 1.478418 4.766943
v -0.139789 1.675962 4.766943
v -0.171845 1.632102 4.440684
v -0.252114 1.522277 3.347987
v -0.284169 1.478417 1.861755
v -0.284169 1.478418 4.766943
v -0.252114 1.522277 4.636250
v -0.139789 1.280875 4.766943
v -0.139789 1.280874 1.861755
v 0.000000 1.280874 1.861755
v 0.000000 1.280875 4.766943
v 0.284170 1.478418 4.766943
v 0.139789 1.675961 4.766943
v 0.085025 1.598571 4.766943
v 0.172842 1.478418 4.766943
v -0.139789 1.675962 4.766943
v -0.284169 1.478418 4.766943
v -0.172842 1.478418 4.766943
v -0.085025 1.598571 4.766943
v 0.139789 1.280875 4.766943
v 0.284170 1.478418 4.766943
v 0.172842 1.478418 4.766943
v 0.085025 1.358265 4.766943
v 0.000000 1.280875 4.766943
v 0.139789 1.280875 4.766943
v 0.085025 1.358265 4.766943
v 0.000000 1.358265 4.766943
v -0.284169 1.478418 4.766943
v -0.139789 1.280875 4.766943
v -0.085025 1.358265 4.766943
v -0.172842 1.478418 4.766943
v -0.139789 1.280875 4.766943
v 0.000000 1.280875 4.766943
v 0.000000 1.358265 4.766943
v -0.085025 1.358265 4.766943
v 0.139789 1.675961 4.766943
v 0.000000 1.675961 4.766943
v 0.000000 1.598571 4.766943
v 0.085025 1.598571 4.766943
v 0.000000 1.675961 4.766943
v -0.139789 1.675962 4.766943
v -0.085025 1.598571 4.766943
v 0.000000 1.598571 4.766943
v 0.085025 1.598571 4.766943
v 0.000000 1.598571 4.766943
v 0.000001 1.598571 2.152205
v 0.085025 1.598571 2.152205
v -0.085025 1.598571 4.766943
v -0.172842 1.478418 4.766943
v -0.172842 1.478418 2.152205
v -0.085024 1.598571 2.152205
v -0.172842 1.478418 4.766943
v -0.085025 1.358265 4.766943
v -0.085024 1.358264 2.152205
v -0.172842 1.478418 2.152205
v 0.172842 1.478418 4.766943
v 0.085025 1.598571 4.766943
v 0.085025 1.598571 2.152205
v 0.172843 1.478417 2.152205
v 0.085025 1.358265 4.766943
v 0.172842 1.478418 4.766943
v 0.172843 1.478417 2.152205
v 0.085025 1.358264 2.152205
v -0.085025 1.358265 4.766943
v 0.000000 1.358265 4.766943
v 0.000001 1.358264 2.152205
v -0.085024 1.358264 2.152205
v 0.000000 1.598571 4.766943
v -0.085025 1.598571 4.766943
v -0.085024 1.598571 2.152205
v 0.000001 1.598571 2.152205
v 0.000000 1.358265 4.766943
v 0.085025 1.358265 4.766943
v 0.085025 1.358264 2.152205
v 0.000001 1.358264 2.152205
vn 0.8073 -0.5901 -0.0000
vn -0.0000 1.0000 -0.0000
vn 0.8073 0.5901 -0.0000
vn -0.0000 -1.0000 -0.0000
vn -0.8073 -0.5901 -0.0000
vn -0.8073 0.5901 -0.0000
vn -0.0000 -0.0000 1.0000
vt 0.750000 1.000000
vt 0.750000 0.000000
vt 0.625000 0.000000
vt 0.625000 1.000000
vt 0.500000 1.000000
vt 0.499999 0.000000
vt 0.875000 0.000000
vt 0.875000 1.000000
vt 0.847247 0.020578
vt 0.847247 0.979421
vt 0.875000 1.000000
vt 0.875000 0.000000
vt 0.847247 0.979421
vt 0.777753 0.979421
vt 0.750000 1.000000
vt 0.875000 1.000000
vt 0.777753 0.020578
vt 0.847247 0.020578
vt 0.875000 0.000000
vt 0.750000 0.000000
vt 0.777753 0.979421
vt 0.777753 0.020578
vt 0.750000 0.000000
vt 0.750000 1.000000
vt 0.625000 0.000000
vt 0.500000 0.000000
vt 0.500000 1.000000
vt 0.625000 1.000000
vt 0.750000 1.000000
vt 0.625000 1.000000
vt 0.625000 0.000000
vt 0.750000 0.000000
vt 0.500000 1.000000
vt 0.875000 1.000000
vt 0.875000 0.000000
vt 0.499999 0.000000
vt 0.847247 0.020578
vt 0.875000 0.000000
vt 0.875000 1.000000
vt 0.847247 0.979421
vt 0.847247 0.979421
vt 0.875000 1.000000
vt 0.750000 1.000000
vt 0.777753 0.979421
vt 0.777753 0.020578
vt 0.750000 0.000000
vt 0.875000 0.000000
vt 0.847247 0.020578
vt 0.777753 0.979421
vt 0.750000 1.000000
vt 0.750000 0.000000
vt 0.777753 0.020578
vt 0.625000 0.000000
vt 0.625000 1.000000
vt 0.500000 1.000000
vt 0.500000 0.000000
vt 0.750000 0.000000
vt 0.875000 0.000000
vt 0.875000 0.000000
vt 0.750000 0.000000
vt 0.875000 0.000000
vt 0.750000 0.000000
vt 0.750000 0.000000
vt 0.875000 0.000000
vt 0.625000 0.000000
vt 0.750000 0.000000
vt 0.750000 0.000000
vt 0.625000 0.000000
vt 0.500000 0.000000
vt 0.625000 0.000000
vt 0.625000 0.000000
vt 0.500000 0.000000
vt 0.750000 0.000000
vt 0.625000 0.000000
vt 0.625000 0.000000
vt 0.750000 0.000000
vt 0.625000 0.000000
vt 0.500000 0.000000
vt 0.500000 0.000000
vt 0.625000 0.000000
vt 0.875000 0.000000
vt 0.499999 0.000000
vt 0.499999 0.000000
vt 0.875000 0.000000
vt 0.499999 0.000000
vt 0.875000 0.000000
vt 0.875000 0.000000
vt 0.499999 0.000000
vt 0.875000 0.000000
vt 0.499999 0.000000
vt 0.499999 0.000000
vt 0.875000 0.000000
vt 0.875000 0.000000
vt 0.750000 0.000000
vt 0.750000 0.000000
vt 0.875000 0.000000
vt 0.750000 0.000000
vt 0.625000 0.000000
vt 0.625000 0.000000
vt 0.750000 0.000000
vt 0.750000 0.000000
vt 0.875000 0.000000
vt 0.875000 0.000000
vt 0.750000 0.000000
vt 0.625000 0.000000
vt 0.750000 0.000000
vt 0.750000 0.000000
vt 0.625000 0.000000
vt 0.625000 0.000000
vt 0.500000 0.000000
vt 0.500000 0.000000
vt 0.625000 0.000000
vt 0.499999 0.000000
vt 0.875000 0.000000
vt 0.875000 0.000000
vt 0.499999 0.000000
vt 0.500000 0.000000
vt 0.625000 0.000000
vt 0.625000 0.000000
vt 0.500000 0.000000
s 1
usemtl Black.008
f 1/1/1 2/2/1 3/3/1
s 0
f 1/1/1 3/3/1 4/4/1
f 5/5/2 6/6/2 7/7/2
f 5/5/2 7/7/2 8/8/2
f 9/9/3 10/10/3 11/11/3
f 9/9/3 11/11/3 12/12/3
f 13/13/3 14/14/3 15/15/3
f 13/13/3 15/15/3 16/16/3
s 1
f 17/17/3 18/18/3 19/19/3
s 0
f 17/17/3 19/19/3 20/20/3
f 21/21/3 22/22/3 23/23/3
f 21/21/3 23/23/3 24/24/3
f 25/25/4 26/26/4 27/27/4
f 25/25/4 27/27/4 28/28/4
f 29/29/5 30/30/5 31/31/5
s 1
f 29/29/5 31/31/5 32/32/5
s 0
f 33/33/2 34/34/2 35/35/2
f 33/33/2 35/35/2 36/36/2
f 37/37/6 38/38/6 39/39/6
f 37/37/6 39/39/6 40/40/6
f 41/41/6 42/42/6 43/43/6
f 41/41/6 43/43/6 44/44/6
f 45/45/6 46/46/6 47/47/6
f 45/45/6 47/47/6 48/48/6
f 49/49/6 50/50/6 51/51/6
f 49/49/6 51/51/6 52/52/6
f 53/53/4 54/54/4 55/55/4
f 53/53/4 55/55/4 56/56/4
f 57/57/7 58/58/7 59/59/7
f 57/57/7 59/59/7 60/60/7
f 61/61/7 62/62/7 63/63/7
f 61/61/7 63/63/7 64/64/7
f 65/65/7 66/66/7 67/67/7
f 65/65/7 67/67/7 68/68/7
f 69/69/7 70/70/7 71/71/7
f 69/69/7 71/71/7 72/72/7
f 73/73/7 74/74/7 75/75/7
f 73/73/7 75/75/7 76/76/7
f 77/77/7 78/78/7 79/79/7
f 77/77/7 79/79/7 80/80/7
f 81/81/7 82/82/7 83/83/7
f 81/81/7 83/83/7 84/84/7
f 85/85/7 86/86/7 87/87/7
f 85/85/7 87/87/7 88/88/7
f 89/89/4 90/90/4 91/91/4
f 89/89/4 91/91/4 92/92/4
f 93/93/1 94/94/1 95/95/1
f 93/93/1 95/95/1 96/96/1
f 97/97/3 98/98/3 99/99/3
f 97/97/3 99/99/3 100/100/3
f 101/101/5 102/102/5 103/103/5
f 101/101/5 103/103/5 104/104/5
f 105/105/6 106/106/6 107/107/6
f 105/105/6 107/107/6 108/108/6
f 109/109/2 110/110/2 111/111/2
f 109/109/2 111/111/2 112/112/2
f 113/113/4 114/114/4 115/115/4
f 113/113/4 115/115/4 116/116/4
f 117/117/2 118/118/2 119/119/2
f 117/117/2 119/119/2 120/120/2
