# Blender 3.5.0
# www.blender.org
mtllib CannonCylinder8.mtl
o Cylinder.008_Black.006_0
v -0.181878 1.720788 1.242905
v -0.363756 1.720788 1.557928
v -0.363756 1.991436 1.557927
v -0.181878 1.991436 1.242905
v -0.324830 1.720788 1.872950
v 0.324830 1.720788 1.872950
v 0.324830 1.991437 1.872950
v -0.324830 1.991437 1.872950
v 0.363757 1.720788 1.557927
v 0.181878 1.720788 1.242905
v 0.181878 1.991436 1.242905
v 0.363757 1.991436 1.557927
v -0.363756 1.720788 1.557928
v -0.324830 1.720788 1.872950
v -0.324830 1.991437 1.872950
v -0.363756 1.991436 1.557927
v 0.324830 1.720788 1.872950
v 0.363757 1.720788 1.557927
v 0.363757 1.991436 1.557927
v 0.324830 1.991437 1.872950
v -0.363756 1.991436 1.557927
v -0.324830 1.991437 1.872950
v 0.324830 1.991437 1.872950
v 0.363757 1.991436 1.557927
v -0.181878 1.991436 1.242905
v -0.363756 1.991436 1.557927
v 0.363757 1.991436 1.557927
v 0.181878 1.991436 1.242905
v -0.142484 1.760182 1.242905
v 0.142484 1.760182 1.242905
v 0.181878 1.720788 1.242905
v -0.181878 1.720788 1.242905
v 0.083617 1.952042 1.242905
v -0.083616 1.952042 1.242905
v -0.181878 1.991436 1.242905
v 0.181878 1.991436 1.242905
v 0.142484 1.760182 1.242905
v 0.083617 1.952042 1.242905
v 0.181878 1.991436 1.242905
v 0.181878 1.720788 1.242905
v -0.083616 1.952042 1.242905
v -0.142484 1.760182 1.242905
v -0.181878 1.720788 1.242905
v -0.181878 1.991436 1.242905
vn -0.8660 -0.0000 -0.5000
vn -0.0000 -0.0000 1.0000
vn 0.8660 -0.0000 -0.5000
vn -0.9925 -0.0000 0.1226
vn 0.9925 -0.0000 0.1226
vn -0.0000 1.0000 -0.0000
vn -0.0000 -0.0000 -1.0000
vt -0.000000 0.000000
vt 0.166667 0.000000
vt 0.166667 0.000000
vt -0.000000 0.000000
vt 0.333333 0.000000
vt 0.500000 0.000000
vt 0.500000 0.000000
vt 0.333333 0.000000
vt 0.666667 0.000000
vt 0.833333 0.000000
vt 0.833333 0.000000
vt 0.666667 0.000000
vt 0.166667 0.000000
vt 0.333333 0.000000
vt 0.333333 0.000000
vt 0.166667 0.000000
vt 0.500000 0.000000
vt 0.666667 0.000000
vt 0.666667 0.000000
vt 0.500000 0.000000
vt 0.166667 0.000000
vt 0.333333 0.000000
vt 0.500000 0.000000
vt 0.666667 0.000000
vt -0.000000 0.000000
vt 0.166667 0.000000
vt 0.666667 0.000000
vt 0.833333 0.000000
vt 0.981950 0.000000
vt 0.851383 0.000000
vt 0.833333 0.000000
vt 1.000000 0.000000
vt 0.851383 0.000000
vt 0.981950 0.000000
vt 1.000000 0.000000
vt 0.833333 0.000000
vt 0.851383 0.000000
vt 0.851383 0.000000
vt 0.833333 0.000000
vt 0.833333 0.000000
vt 0.981950 0.000000
vt 0.981950 0.000000
vt 1.000000 0.000000
vt 1.000000 0.000000
s 0
usemtl Black.006
f 1/1/1 2/2/1 3/3/1
f 1/1/1 3/3/1 4/4/1
f 5/5/2 6/6/2 7/7/2
f 5/5/2 7/7/2 8/8/2
f 9/9/3 10/10/3 11/11/3
f 9/9/3 11/11/3 12/12/3
f 13/13/4 14/14/4 15/15/4
f 13/13/4 15/15/4 16/16/4
f 17/17/5 18/18/5 19/19/5
f 17/17/5 19/19/5 20/20/5
f 21/21/6 22/22/6 23/23/6
f 21/21/6 23/23/6 24/24/6
f 25/25/6 26/26/6 27/27/6
f 25/25/6 27/27/6 28/28/6
f 29/29/7 30/30/7 31/31/7
f 29/29/7 31/31/7 32/32/7
f 33/33/7 34/34/7 35/35/7
f 33/33/7 35/35/7 36/36/7
f 37/37/7 38/38/7 39/39/7
f 37/37/7 39/39/7 40/40/7
f 41/41/7 42/42/7 43/43/7
f 41/41/7 43/43/7 44/44/7
