# Blender 3.5.0
# www.blender.org
mtllib CannonCylinder8_1.mtl
o Cylinder.008_PinkGlow_0
v -0.142484 1.760182 1.242905
v -0.083616 1.952042 1.242905
v -0.073567 1.940513 1.304783
v -0.125359 1.771712 1.304783
v 0.125359 1.771712 1.304783
v -0.125359 1.771712 1.304783
v -0.073567 1.940513 1.304783
v 0.073567 1.940513 1.304783
v -0.083616 1.952042 1.242905
v 0.083617 1.952042 1.242905
v 0.073567 1.940513 1.304783
v -0.073567 1.940513 1.304783
v 0.083617 1.952042 1.242905
v 0.142484 1.760182 1.242905
v 0.125359 1.771712 1.304783
v 0.073567 1.940513 1.304783
v 0.142484 1.760182 1.242905
v -0.142484 1.760182 1.242905
v -0.125359 1.771712 1.304783
v 0.125359 1.771712 1.304783
vn 0.9356 -0.2871 -0.2054
vn -0.0000 -0.0000 -1.0000
vn -0.0000 -0.9831 -0.1832
vn -0.9356 -0.2871 -0.2054
vn -0.0000 0.9831 -0.1832
vt 0.981950 0.000000
vt 0.981950 0.000000
vt 0.981950 0.000000
vt 0.981950 0.000000
vt 0.851383 0.000000
vt 0.981950 0.000000
vt 0.981950 0.000000
vt 0.851383 0.000000
vt 0.981950 0.000000
vt 0.851383 0.000000
vt 0.851383 0.000000
vt 0.981950 0.000000
vt 0.851383 0.000000
vt 0.851383 0.000000
vt 0.851383 0.000000
vt 0.851383 0.000000
vt 0.851383 0.000000
vt 0.981950 0.000000
vt 0.981950 0.000000
vt 0.851383 0.000000
s 0
usemtl PinkGlow
f 1/1/1 2/2/1 3/3/1
f 1/1/1 3/3/1 4/4/1
f 5/5/2 6/6/2 7/7/2
f 5/5/2 7/7/2 8/8/2
f 9/9/3 10/10/3 11/11/3
f 9/9/3 11/11/3 12/12/3
f 13/13/4 14/14/4 15/15/4
f 13/13/4 15/15/4 16/16/4
f 17/17/5 18/18/5 19/19/5
f 17/17/5 19/19/5 20/20/5
