# Blender 3.5.0
# www.blender.org
mtllib CannonCylinder11_1.mtl
o Cylinder.011_PinkGlow_0
v 0.000000 1.969569 2.972160
v 0.000000 1.969570 3.138354
v 0.071971 1.969569 3.002420
v 0.071971 1.969569 2.836226
v -0.071970 1.969569 2.836226
v -0.071970 1.969569 3.002420
v 0.000000 1.969570 3.138354
v 0.000000 1.969569 2.972160
v -0.071970 1.969569 1.839064
v -0.071970 1.969569 2.005257
v 0.000000 1.969569 2.141191
v 0.000000 1.969569 1.974997
v -0.071970 1.969569 2.171451
v -0.071970 1.969569 2.337645
v 0.000000 1.969569 2.473578
v 0.000000 1.969569 2.307385
v -0.071970 1.969569 2.503839
v -0.071970 1.969569 2.670033
v 0.000000 1.969569 2.805966
v 0.000000 1.969569 2.639772
v 0.000000 1.969569 1.974997
v 0.000000 1.969569 2.141191
v 0.071971 1.969569 2.005257
v 0.071971 1.969569 1.839064
v 0.000000 1.969569 2.307385
v 0.000000 1.969569 2.473578
v 0.071971 1.969569 2.337645
v 0.071971 1.969569 2.171451
v 0.000000 1.969569 2.639772
v 0.000000 1.969569 2.805966
v 0.071971 1.969569 2.670033
v 0.071971 1.969569 2.503839
v 0.000000 1.921907 2.972160
v 0.071971 1.921907 2.836226
v 0.071971 1.921907 3.002420
v 0.000000 1.921907 3.138354
v -0.071970 1.921907 2.836226
v -0.071970 1.921907 3.002420
v -0.071970 1.921907 1.839064
v 0.000000 1.921907 1.974997
v 0.000000 1.921907 2.141191
v -0.071970 1.921907 2.005257
v -0.071970 1.921907 2.171451
v 0.000000 1.921907 2.307385
v 0.000000 1.921907 2.473578
v -0.071970 1.921907 2.337645
v -0.071970 1.921907 2.503839
v 0.000000 1.921907 2.639772
v 0.000000 1.921907 2.805966
v -0.071970 1.921907 2.670033
v 0.071971 1.921907 1.839064
v 0.071971 1.921907 2.005257
v 0.071971 1.921907 2.171451
v 0.071971 1.921907 2.337645
v 0.071971 1.921907 2.503839
v 0.071971 1.921907 2.670033
v 0.000000 1.969570 3.138354
v -0.071970 1.969569 3.002420
v -0.071970 1.921907 3.002420
v 0.000000 1.921907 3.138354
v 0.071971 1.969569 3.002420
v 0.000000 1.969570 3.138354
v 0.000000 1.921907 3.138354
v 0.071971 1.921907 3.002420
v 0.071971 1.969569 2.836226
v 0.071971 1.969569 3.002420
v 0.071971 1.921907 3.002420
v 0.071971 1.921907 2.836226
v 0.071971 1.969569 2.503839
v 0.071971 1.969569 2.670033
v 0.071971 1.921907 2.670033
v 0.071971 1.921907 2.503839
v 0.071971 1.969569 2.171451
v 0.071971 1.969569 2.337645
v 0.071971 1.921907 2.337645
v 0.071971 1.921907 2.171451
v 0.071971 1.969569 1.839064
v 0.071971 1.969569 2.005257
v 0.071971 1.921907 2.005257
v 0.071971 1.921907 1.839064
v -0.071970 1.969569 3.002420
v -0.071970 1.969569 2.836226
v -0.071970 1.921907 2.836226
v -0.071970 1.921907 3.002420
v -0.071970 1.969569 2.670033
v -0.071970 1.969569 2.503839
v -0.071970 1.921907 2.503839
v -0.071970 1.921907 2.670033
v -0.071970 1.969569 2.337645
v -0.071970 1.969569 2.171451
v -0.071970 1.921907 2.171451
v -0.071970 1.921907 2.337645
v -0.071970 1.969569 2.005257
v -0.071970 1.969569 1.839064
v -0.071970 1.921907 1.839064
v -0.071970 1.921907 2.005257
v -0.071970 1.969569 1.839064
v 0.000000 1.969569 1.974997
v 0.000000 1.921907 1.974997
v -0.071970 1.921907 1.839064
v 0.000000 1.969569 2.141191
v -0.071970 1.969569 2.005257
v -0.071970 1.921907 2.005257
v 0.000000 1.921907 2.141191
v -0.071970 1.969569 2.171451
v 0.000000 1.969569 2.307385
v 0.000000 1.921907 2.307385
v -0.071970 1.921907 2.171451
v 0.000000 1.969569 2.473578
v -0.071970 1.969569 2.337645
v -0.071970 1.921907 2.337645
v 0.000000 1.921907 2.473578
v -0.071970 1.969569 2.503839
v 0.000000 1.969569 2.639772
v 0.000000 1.921907 2.639772
v -0.071970 1.921907 2.503839
v 0.000000 1.969569 2.805966
v -0.071970 1.969569 2.670033
v -0.071970 1.921907 2.670033
v 0.000000 1.921907 2.805966
v -0.071970 1.969569 2.836226
v 0.000000 1.969569 2.972160
v 0.000000 1.921907 2.972160
v -0.071970 1.921907 2.836226
v 0.000000 1.969569 1.974997
v 0.071971 1.969569 1.839064
v 0.071971 1.921907 1.839064
v 0.000000 1.921907 1.974997
v 0.071971 1.969569 2.005257
v 0.000000 1.969569 2.141191
v 0.000000 1.921907 2.141191
v 0.071971 1.921907 2.005257
v 0.000000 1.969569 2.307385
v 0.071971 1.969569 2.171451
v 0.071971 1.921907 2.171451
v 0.000000 1.921907 2.307385
v 0.071971 1.969569 2.337645
v 0.000000 1.969569 2.473578
v 0.000000 1.921907 2.473578
v 0.071971 1.921907 2.337645
v 0.000000 1.969569 2.639772
v 0.071971 1.969569 2.503839
v 0.071971 1.921907 2.503839
v 0.000000 1.921907 2.639772
v 0.071971 1.969569 2.670033
v 0.000000 1.969569 2.805966
v 0.000000 1.921907 2.805966
v 0.071971 1.921907 2.670033
v 0.000000 1.969569 2.972160
v 0.071971 1.969569 2.836226
v 0.071971 1.921907 2.836226
v 0.000000 1.921907 2.972160
vn -0.0000 1.0000 -0.0000
vn -0.0000 -1.0000 -0.0000
vn -0.8838 -0.0000 0.4679
vn 0.8838 -0.0000 0.4679
vn 1.0000 -0.0000 -0.0000
vn -1.0000 -0.0000 -0.0000
vn 0.8838 -0.0000 -0.4679
vn -0.8838 -0.0000 -0.4679
vt 0.500000 0.111111
vt 0.500000 0.000000
vt 0.875000 0.000000
vt 0.875000 0.111111
vt 0.125000 0.111111
vt 0.125000 0.000000
vt 0.500000 0.000000
vt 0.500000 0.111111
vt 0.125000 0.777778
vt 0.125000 0.666667
vt 0.500000 0.666667
vt 0.500000 0.777778
vt 0.125000 0.555556
vt 0.125000 0.444444
vt 0.500000 0.444444
vt 0.500000 0.555556
vt 0.125000 0.333333
vt 0.125000 0.222222
vt 0.500000 0.222222
vt 0.500000 0.333333
vt 0.500000 0.777778
vt 0.500000 0.666667
vt 0.875000 0.666667
vt 0.875000 0.777778
vt 0.500000 0.555556
vt 0.500000 0.444444
vt 0.875000 0.444444
vt 0.875000 0.555556
vt 0.500000 0.333333
vt 0.500000 0.222222
vt 0.875000 0.222222
vt 0.875000 0.333333
vt 0.500000 0.111111
vt 0.875000 0.111111
vt 0.875000 0.000000
vt 0.500000 0.000000
vt 0.125000 0.111111
vt 0.125000 0.000000
vt 0.125000 0.777778
vt 0.500000 0.777778
vt 0.500000 0.666667
vt 0.125000 0.666667
vt 0.125000 0.555556
vt 0.500000 0.555556
vt 0.500000 0.444444
vt 0.125000 0.444444
vt 0.125000 0.333333
vt 0.500000 0.333333
vt 0.500000 0.222222
vt 0.125000 0.222222
vt 0.875000 0.777778
vt 0.875000 0.666667
vt 0.875000 0.555556
vt 0.875000 0.444444
vt 0.875000 0.333333
vt 0.875000 0.222222
vt 0.500000 0.000000
vt 0.125000 0.000000
vt 0.125000 0.000000
vt 0.500000 0.000000
vt 0.875000 0.000000
vt 0.500000 0.000000
vt 0.500000 0.000000
vt 0.875000 0.000000
vt 0.875000 0.111111
vt 0.875000 0.000000
vt 0.875000 0.000000
vt 0.875000 0.111111
vt 0.875000 0.333333
vt 0.875000 0.222222
vt 0.875000 0.222222
vt 0.875000 0.333333
vt 0.875000 0.555556
vt 0.875000 0.444444
vt 0.875000 0.444444
vt 0.875000 0.555556
vt 0.875000 0.777778
vt 0.875000 0.666667
vt 0.875000 0.666667
vt 0.875000 0.777778
vt 0.125000 0.000000
vt 0.125000 0.111111
vt 0.125000 0.111111
vt 0.125000 0.000000
vt 0.125000 0.222222
vt 0.125000 0.333333
vt 0.125000 0.333333
vt 0.125000 0.222222
vt 0.125000 0.444444
vt 0.125000 0.555556
vt 0.125000 0.555556
vt 0.125000 0.444444
vt 0.125000 0.666667
vt 0.125000 0.777778
vt 0.125000 0.777778
vt 0.125000 0.666667
vt 0.125000 0.777778
vt 0.500000 0.777778
vt 0.500000 0.777778
vt 0.125000 0.777778
vt 0.500000 0.666667
vt 0.125000 0.666667
vt 0.125000 0.666667
vt 0.500000 0.666667
vt 0.125000 0.555556
vt 0.500000 0.555556
vt 0.500000 0.555556
vt 0.125000 0.555556
vt 0.500000 0.444444
vt 0.125000 0.444444
vt 0.125000 0.444444
vt 0.500000 0.444444
vt 0.125000 0.333333
vt 0.500000 0.333333
vt 0.500000 0.333333
vt 0.125000 0.333333
vt 0.500000 0.222222
vt 0.125000 0.222222
vt 0.125000 0.222222
vt 0.500000 0.222222
vt 0.125000 0.111111
vt 0.500000 0.111111
vt 0.500000 0.111111
vt 0.125000 0.111111
vt 0.500000 0.777778
vt 0.875000 0.777778
vt 0.875000 0.777778
vt 0.500000 0.777778
vt 0.875000 0.666667
vt 0.500000 0.666667
vt 0.500000 0.666667
vt 0.875000 0.666667
vt 0.500000 0.555556
vt 0.875000 0.555556
vt 0.875000 0.555556
vt 0.500000 0.555556
vt 0.875000 0.444444
vt 0.500000 0.444444
vt 0.500000 0.444444
vt 0.875000 0.444444
vt 0.500000 0.333333
vt 0.875000 0.333333
vt 0.875000 0.333333
vt 0.500000 0.333333
vt 0.875000 0.222222
vt 0.500000 0.222222
vt 0.500000 0.222222
vt 0.875000 0.222222
vt 0.500000 0.111111
vt 0.875000 0.111111
vt 0.875000 0.111111
vt 0.500000 0.111111
s 0
usemtl PinkGlow
f 1/1/1 2/2/1 3/3/1
f 1/1/1 3/3/1 4/4/1
f 5/5/1 6/6/1 7/7/1
f 5/5/1 7/7/1 8/8/1
f 9/9/1 10/10/1 11/11/1
f 9/9/1 11/11/1 12/12/1
f 13/13/1 14/14/1 15/15/1
f 13/13/1 15/15/1 16/16/1
f 17/17/1 18/18/1 19/19/1
f 17/17/1 19/19/1 20/20/1
f 21/21/1 22/22/1 23/23/1
f 21/21/1 23/23/1 24/24/1
f 25/25/1 26/26/1 27/27/1
f 25/25/1 27/27/1 28/28/1
f 29/29/1 30/30/1 31/31/1
f 29/29/1 31/31/1 32/32/1
f 33/33/2 34/34/2 35/35/2
f 33/33/2 35/35/2 36/36/2
f 37/37/2 33/33/2 36/36/2
f 37/37/2 36/36/2 38/38/2
f 39/39/2 40/40/2 41/41/2
f 39/39/2 41/41/2 42/42/2
f 43/43/2 44/44/2 45/45/2
f 43/43/2 45/45/2 46/46/2
f 47/47/2 48/48/2 49/49/2
f 47/47/2 49/49/2 50/50/2
f 40/40/2 51/51/2 52/52/2
f 40/40/2 52/52/2 41/41/2
f 44/44/2 53/53/2 54/54/2
f 44/44/2 54/54/2 45/45/2
f 48/48/2 55/55/2 56/56/2
f 48/48/2 56/56/2 49/49/2
f 57/57/3 58/58/3 59/59/3
f 57/57/3 59/59/3 60/60/3
f 61/61/4 62/62/4 63/63/4
f 61/61/4 63/63/4 64/64/4
f 65/65/5 66/66/5 67/67/5
f 65/65/5 67/67/5 68/68/5
f 69/69/5 70/70/5 71/71/5
f 69/69/5 71/71/5 72/72/5
f 73/73/5 74/74/5 75/75/5
f 73/73/5 75/75/5 76/76/5
f 77/77/5 78/78/5 79/79/5
f 77/77/5 79/79/5 80/80/5
f 81/81/6 82/82/6 83/83/6
f 81/81/6 83/83/6 84/84/6
f 85/85/6 86/86/6 87/87/6
f 85/85/6 87/87/6 88/88/6
f 89/89/6 90/90/6 91/91/6
f 89/89/6 91/91/6 92/92/6
f 93/93/6 94/94/6 95/95/6
f 93/93/6 95/95/6 96/96/6
s 1
f 97/97/7 98/98/7 99/99/7
f 97/97/7 99/99/7 100/100/7
s 0
f 101/101/3 102/102/3 103/103/3
f 101/101/3 103/103/3 104/104/3
f 105/105/7 106/106/7 107/107/7
f 105/105/7 107/107/7 108/108/7
f 109/109/3 110/110/3 111/111/3
f 109/109/3 111/111/3 112/112/3
f 113/113/7 114/114/7 115/115/7
f 113/113/7 115/115/7 116/116/7
f 117/117/3 118/118/3 119/119/3
f 117/117/3 119/119/3 120/120/3
f 121/121/7 122/122/7 123/123/7
f 121/121/7 123/123/7 124/124/7
s 1
f 125/125/8 126/126/8 127/127/8
f 125/125/8 127/127/8 128/128/8
s 0
f 129/129/4 130/130/4 131/131/4
f 129/129/4 131/131/4 132/132/4
f 133/133/8 134/134/8 135/135/8
f 133/133/8 135/135/8 136/136/8
f 137/137/4 138/138/4 139/139/4
f 137/137/4 139/139/4 140/140/4
f 141/141/8 142/142/8 143/143/8
f 141/141/8 143/143/8 144/144/8
f 145/145/4 146/146/4 147/147/4
f 145/145/4 147/147/4 148/148/4
f 149/149/8 150/150/8 151/151/8
f 149/149/8 151/151/8 152/152/8
