# Blender 3.5.0
# www.blender.org
mtllib CannonPinkGlow.mtl
o Tank_PinkGlow_0
v 0.960109 -0.344889 0.790725
v 0.890945 0.507368 0.790725
v 0.949117 0.437687 0.874830
v 1.006971 -0.275208 0.874830
v 1.612170 -0.515285 0.790725
v 1.348559 -0.777676 0.790725
v 1.221616 -0.746500 0.857785
v 1.422586 -0.546460 0.857784
v 0.695471 -0.546460 0.857784
v 1.422586 -0.546460 0.857784
v 1.221616 -0.746500 0.857785
v 0.594986 -0.746500 0.857785
v 0.787351 -0.515285 0.790725
v 1.612170 -0.515285 0.790725
v 1.422586 -0.546460 0.857784
v 0.695471 -0.546460 0.857784
v 0.309038 -0.777676 0.790725
v -0.037469 -0.777676 0.790725
v -0.031644 -0.746500 0.857785
v 0.281671 -0.746500 0.857785
v 1.348559 -0.777676 0.790725
v 0.655545 -0.777676 0.790725
v 0.594986 -0.746500 0.857785
v 1.221616 -0.746500 0.857785
v 0.374941 -0.515285 0.790725
v 0.787351 -0.515285 0.790725
v 0.695471 -0.546460 0.857784
v 0.331914 -0.546460 0.857784
v 0.331914 -0.546460 0.857784
v 0.695471 -0.546460 0.857784
v 0.594986 -0.746500 0.857785
v 0.281671 -0.746500 0.857785
v 0.902071 0.210199 4.773845
v 1.040433 0.214603 4.570504
v 1.024669 0.169081 4.554474
v 0.886307 0.164676 4.757815
v 1.708075 -0.873822 2.105515
v 2.256381 -0.873822 2.096206
v 2.017704 -0.873822 2.426060
v 1.526219 -0.873822 2.426060
v 1.582716 -0.873822 1.060233
v 2.091854 -0.873822 1.060233
v 2.256381 -0.873822 1.380209
v 1.708075 -0.873822 1.373252
v 1.708075 -0.873822 1.373252
v 2.256381 -0.873822 1.380209
v 2.256381 -0.873822 2.096206
v 1.708075 -0.873822 2.105515
v 1.442374 -0.873821 4.635583
v 2.086708 -0.873821 4.623566
v 1.848031 -0.873821 4.953421
v 1.277048 -0.873821 4.953421
v 1.328410 -0.873821 3.587594
v 1.922181 -0.873821 3.587594
v 2.086708 -0.873821 3.907569
v 1.442374 -0.873821 3.898588
v 1.442374 -0.873821 3.898588
v 2.086708 -0.873821 3.907569
v 2.086708 -0.873821 4.623566
v 1.442374 -0.873821 4.635583
v -0.031644 -0.546460 0.857784
v 0.331914 -0.546460 0.857784
v 0.281671 -0.746500 0.857785
v -0.031644 -0.746500 0.857785
v -0.037469 -0.515285 0.790725
v 0.374941 -0.515285 0.790725
v 0.331914 -0.546460 0.857784
v -0.031644 -0.546460 0.857784
v 0.309038 -0.777676 0.790725
v 0.281671 -0.746500 0.857785
v 0.314707 -0.861042 5.098577
v 0.666733 -0.822833 5.106397
v 0.701642 -0.450883 5.441930
v 0.442606 -0.469668 5.471717
v 1.006971 -0.275208 0.874830
v 0.949117 0.437687 0.874830
v 1.427413 0.355627 0.874830
v 1.544262 -0.275208 0.874830
v 1.462743 0.409266 0.790725
v 1.602433 -0.344889 0.790725
v 1.544262 -0.275208 0.874830
v 1.427413 0.355627 0.874830
v 1.602433 -0.344889 0.790725
v 0.960109 -0.344889 0.790725
v 1.006971 -0.275208 0.874830
v 1.544262 -0.275208 0.874830
v 0.890945 0.507368 0.790725
v 1.462743 0.409266 0.790725
v 1.427413 0.355627 0.874830
v 0.949117 0.437687 0.874830
v 1.060936 0.389936 3.946413
v 0.881634 0.434448 3.941548
v 0.886307 0.164676 4.757815
v 1.024669 0.169081 4.554474
v 1.040433 0.214603 4.570504
v 1.076700 0.435459 3.962443
v 1.060936 0.389936 3.946413
v 1.024669 0.169081 4.554474
v 0.897397 0.479971 3.957579
v 0.902071 0.210199 4.773845
v 0.886307 0.164676 4.757815
v 0.881634 0.434448 3.941548
v 1.076700 0.435459 3.962443
v 0.897397 0.479971 3.957579
v 0.881634 0.434448 3.941548
v 1.060936 0.389936 3.946413
v 0.332787 0.409995 4.664641
v 0.076531 0.371966 4.801510
v 0.077024 0.334494 4.888566
v 0.332861 0.369755 4.752697
v 0.332344 0.651438 4.136312
v 0.073574 0.596794 4.279173
v 0.074067 0.559322 4.366230
v 0.332418 0.611197 4.224367
v 0.332492 0.570957 4.312422
v 0.074560 0.521851 4.453286
v 0.075053 0.484380 4.540342
v 0.332566 0.530716 4.400477
v 0.332639 0.490476 4.488532
v 0.075546 0.446908 4.627398
v 0.076039 0.409437 4.714454
v 0.332713 0.450235 4.576587
v -0.960109 -0.344889 0.790725
v -1.006971 -0.275208 0.874830
v -0.949117 0.437687 0.874830
v -0.890945 0.507368 0.790725
v -1.612170 -0.515285 0.790725
v -1.422586 -0.546460 0.857784
v -1.221616 -0.746500 0.857785
v -1.348559 -0.777676 0.790725
v -0.695471 -0.546460 0.857784
v -0.594986 -0.746500 0.857785
v -1.221616 -0.746500 0.857785
v -1.422586 -0.546460 0.857784
v -0.787351 -0.515285 0.790725
v -0.695471 -0.546460 0.857784
v -1.422586 -0.546460 0.857784
v -1.612170 -0.515285 0.790725
v -0.309038 -0.777676 0.790725
v -0.281671 -0.746500 0.857785
v 0.031644 -0.746500 0.857785
v 0.037469 -0.777676 0.790725
v -1.348559 -0.777676 0.790725
v -1.221616 -0.746500 0.857785
v -0.594986 -0.746500 0.857785
v -0.655545 -0.777676 0.790725
v -0.374941 -0.515285 0.790725
v -0.331914 -0.546460 0.857784
v -0.695471 -0.546460 0.857784
v -0.787351 -0.515285 0.790725
v -0.331914 -0.546460 0.857784
v -0.281671 -0.746500 0.857785
v -0.594986 -0.746500 0.857785
v -0.695471 -0.546460 0.857784
v -0.902071 0.210199 4.773845
v -0.886307 0.164676 4.757815
v -1.024669 0.169081 4.554474
v -1.040433 0.214603 4.570504
v -1.708075 -0.873822 2.105515
v -1.526219 -0.873822 2.426060
v -2.017704 -0.873822 2.426060
v -2.256381 -0.873822 2.096206
v -1.582716 -0.873822 1.060233
v -1.708075 -0.873822 1.373252
v -2.256381 -0.873822 1.380209
v -2.091854 -0.873822 1.060233
v -1.442374 -0.873821 4.635583
v -1.277048 -0.873821 4.953421
v -1.848031 -0.873821 4.953421
v -2.086708 -0.873821 4.623566
v -1.328410 -0.873821 3.587594
v -1.442374 -0.873821 3.898588
v -2.086708 -0.873821 3.907569
v -1.922181 -0.873821 3.587594
v -1.442374 -0.873821 3.898588
v -1.442374 -0.873821 4.635583
v -2.086708 -0.873821 4.623566
v -2.086708 -0.873821 3.907569
v 0.031644 -0.546460 0.857784
v 0.031644 -0.746500 0.857785
v -0.281671 -0.746500 0.857785
v -0.331914 -0.546460 0.857784
v 0.037469 -0.515285 0.790725
v 0.031644 -0.546460 0.857784
v -0.331914 -0.546460 0.857784
v -0.374941 -0.515285 0.790725
v -0.655545 -0.777676 0.790725
v -0.594986 -0.746500 0.857785
v -0.281671 -0.746500 0.857785
v -0.309038 -0.777676 0.790725
v -0.314707 -0.861042 5.098577
v -0.442606 -0.469668 5.471717
v -0.701642 -0.450883 5.441930
v -0.666733 -0.822833 5.106397
v -1.006971 -0.275208 0.874830
v -1.544262 -0.275208 0.874830
v -1.427413 0.355627 0.874830
v -0.949117 0.437687 0.874830
v -1.462743 0.409266 0.790725
v -1.427413 0.355627 0.874830
v -1.544262 -0.275208 0.874830
v -1.602433 -0.344889 0.790725
v -1.602433 -0.344889 0.790725
v -1.544262 -0.275208 0.874830
v -1.006971 -0.275208 0.874830
v -0.960109 -0.344889 0.790725
v -0.890945 0.507368 0.790725
v -0.949117 0.437687 0.874830
v -1.427413 0.355627 0.874830
v -1.462743 0.409266 0.790725
v -1.060936 0.389936 3.946413
v -1.024669 0.169081 4.554474
v -0.886307 0.164676 4.757815
v -0.881634 0.434448 3.941548
v -1.040433 0.214603 4.570504
v -1.024669 0.169081 4.554474
v -1.060936 0.389936 3.946413
v -1.076700 0.435459 3.962443
v -0.897397 0.479971 3.957579
v -0.881634 0.434448 3.941548
v -0.886307 0.164676 4.757815
v -0.902071 0.210199 4.773845
v -1.076700 0.435459 3.962443
v -1.060936 0.389936 3.946413
v -0.881634 0.434448 3.941548
v -0.897397 0.479971 3.957579
v -0.332787 0.409995 4.664641
v -0.332861 0.369755 4.752697
v -0.077024 0.334494 4.888566
v -0.076531 0.371966 4.801510
v -0.332344 0.651438 4.136312
v -0.332418 0.611197 4.224367
v -0.074067 0.559322 4.366230
v -0.073574 0.596794 4.279173
v -0.332492 0.570957 4.312422
v -0.332566 0.530716 4.400477
v -0.075053 0.484380 4.540342
v -0.074560 0.521851 4.453286
v -0.332639 0.490476 4.488532
v -0.332713 0.450235 4.576587
v -0.076039 0.409437 4.714454
v -0.075546 0.446908 4.627398
vn 0.8462 0.0687 -0.5284
vn -0.3632 0.3649 -0.8573
vn -0.0000 -0.0000 -1.0000
vn -0.0000 -0.9068 -0.4216
vn -0.0000 0.9068 -0.4216
vn -0.7487 0.4353 -0.5000
vn -0.0000 -1.0000 -0.0000
vn 0.0900 -0.6879 0.7202
vn 0.0901 -0.6879 0.7202
vn -0.8691 -0.1610 -0.4677
vn -0.0000 0.7701 -0.6380
vn -0.1386 -0.8076 -0.5732
vn 0.3105 0.8966 0.3157
vn -0.9494 0.3092 0.0557
vn -0.9494 0.3091 0.0557
vn 0.9506 -0.2931 -0.1023
vn -0.1001 -0.2995 0.9488
vn 0.0848 0.9108 0.4039
vn 0.0848 0.9109 0.4039
vn 0.0848 0.9108 0.4040
vn 0.0350 0.9135 0.4053
vn 0.0515 0.9129 0.4050
vn 0.0681 0.9120 0.4045
vn -0.8462 0.0687 -0.5284
vn 0.3632 0.3649 -0.8573
vn 0.7487 0.4353 -0.5000
vn -0.0901 -0.6879 0.7202
vn 0.8691 -0.1610 -0.4677
vn 0.1386 -0.8076 -0.5732
vn -0.3105 0.8966 0.3157
vn 0.9494 0.3091 0.0557
vn 0.9494 0.3092 0.0557
vn -0.9506 -0.2931 -0.1023
vn 0.1001 -0.2995 0.9488
vn -0.0848 0.9108 0.4039
vn -0.0848 0.9108 0.4040
vn -0.0848 0.9109 0.4039
vn -0.0350 0.9135 0.4053
vn -0.0515 0.9129 0.4050
vn -0.0515 0.9129 0.4049
vn -0.0681 0.9120 0.4045
vt 0.402276 0.608114
vt 0.597249 0.606797
vt 0.597249 0.606797
vt 0.402276 0.608114
vt 0.375000 0.510930
vt 0.375000 0.511754
vt 0.375000 0.511754
vt 0.375000 0.510930
vt 0.375000 0.626383
vt 0.375000 0.510930
vt 0.375000 0.511754
vt 0.375000 0.626407
vt 0.375000 0.626383
vt 0.375000 0.510930
vt 0.375000 0.510930
vt 0.375000 0.626383
vt 0.375000 0.683733
vt 0.375000 0.741059
vt 0.375000 0.741059
vt 0.375000 0.683733
vt 0.375000 0.511754
vt 0.375000 0.626407
vt 0.375000 0.626407
vt 0.375000 0.511754
vt 0.375000 0.684110
vt 0.375000 0.626383
vt 0.375000 0.626383
vt 0.375000 0.684110
vt 0.375000 0.684110
vt 0.375000 0.626383
vt 0.375000 0.626407
vt 0.375000 0.683733
vt 0.714995 0.258045
vt 0.682789 0.269555
vt 0.682789 0.269555
vt 0.714995 0.258045
vt 0.308899 0.336499
vt 0.362432 0.337488
vt 0.358662 0.274452
vt 0.306292 0.274452
vt 0.307433 0.475548
vt 0.360270 0.475548
vt 0.362432 0.413562
vt 0.308899 0.414301
vt 0.308899 0.414301
vt 0.362432 0.413562
vt 0.362432 0.337488
vt 0.308899 0.336499
vt 0.293563 0.336211
vt 0.363050 0.337488
vt 0.359510 0.274452
vt 0.291418 0.274452
vt 0.292371 0.475548
vt 0.361026 0.475548
vt 0.363050 0.413562
vt 0.293563 0.414516
vt 0.293563 0.414516
vt 0.363050 0.413562
vt 0.363050 0.337488
vt 0.293563 0.336211
vt 0.375000 0.741837
vt 0.375000 0.684110
vt 0.375000 0.683733
vt 0.375000 0.741059
vt 0.375000 0.741837
vt 0.375000 0.684110
vt 0.375000 0.684110
vt 0.375000 0.741837
vt 0.375000 0.683733
vt 0.375000 0.683733
vt 0.187500 0.250000
vt 0.250000 0.250000
vt 0.432037 0.250000
vt 0.119008 0.523969
vt 0.402276 0.608114
vt 0.597249 0.606797
vt 0.595191 0.518392
vt 0.404219 0.517002
vt 0.595191 0.518392
vt 0.404219 0.517002
vt 0.404219 0.517002
vt 0.595191 0.518392
vt 0.404219 0.517002
vt 0.402276 0.608114
vt 0.402276 0.608114
vt 0.404219 0.517002
vt 0.597249 0.606797
vt 0.595191 0.518392
vt 0.595191 0.518392
vt 0.597249 0.606797
vt 0.683408 0.304530
vt 0.719904 0.304482
vt 0.714995 0.258045
vt 0.682789 0.269555
vt 0.682789 0.269555
vt 0.683408 0.304530
vt 0.683408 0.304530
vt 0.682789 0.269555
vt 0.719904 0.304482
vt 0.714995 0.258045
vt 0.714995 0.258045
vt 0.719904 0.304482
vt 0.683408 0.304530
vt 0.719904 0.304482
vt 0.719904 0.304482
vt 0.683408 0.304530
vt 0.818646 0.270294
vt 0.853518 0.261850
vt 0.853518 0.255154
vt 0.818646 0.263521
vt 0.818646 0.310931
vt 0.853518 0.302026
vt 0.853518 0.295330
vt 0.818646 0.304158
vt 0.818646 0.297385
vt 0.853518 0.288634
vt 0.853518 0.281938
vt 0.818646 0.290612
vt 0.818646 0.283840
vt 0.853518 0.275242
vt 0.853518 0.268546
vt 0.818646 0.277067
vt 0.402276 0.608114
vt 0.402276 0.608114
vt 0.597249 0.606797
vt 0.597249 0.606797
vt 0.375000 0.510930
vt 0.375000 0.510930
vt 0.375000 0.511754
vt 0.375000 0.511754
vt 0.375000 0.626383
vt 0.375000 0.626407
vt 0.375000 0.511754
vt 0.375000 0.510930
vt 0.375000 0.626383
vt 0.375000 0.626383
vt 0.375000 0.510930
vt 0.375000 0.510930
vt 0.375000 0.683733
vt 0.375000 0.683733
vt 0.375000 0.741059
vt 0.375000 0.741059
vt 0.375000 0.511754
vt 0.375000 0.511754
vt 0.375000 0.626407
vt 0.375000 0.626407
vt 0.375000 0.684110
vt 0.375000 0.684110
vt 0.375000 0.626383
vt 0.375000 0.626383
vt 0.375000 0.684110
vt 0.375000 0.683733
vt 0.375000 0.626407
vt 0.375000 0.626383
vt 0.714995 0.258045
vt 0.714995 0.258045
vt 0.682789 0.269555
vt 0.682789 0.269555
vt 0.308899 0.336499
vt 0.306292 0.274452
vt 0.358662 0.274452
vt 0.362432 0.337488
vt 0.307433 0.475548
vt 0.308899 0.414301
vt 0.362432 0.413562
vt 0.360270 0.475548
vt 0.293563 0.336211
vt 0.291418 0.274452
vt 0.359510 0.274452
vt 0.363050 0.337488
vt 0.292371 0.475548
vt 0.293563 0.414516
vt 0.363050 0.413562
vt 0.361026 0.475548
vt 0.293563 0.414516
vt 0.293563 0.336211
vt 0.363050 0.337488
vt 0.363050 0.413562
vt 0.375000 0.741837
vt 0.375000 0.741059
vt 0.375000 0.683733
vt 0.375000 0.684110
vt 0.375000 0.741837
vt 0.375000 0.741837
vt 0.375000 0.684110
vt 0.375000 0.684110
vt 0.375000 0.626407
vt 0.375000 0.626407
vt 0.375000 0.683733
vt 0.375000 0.683733
vt 0.187500 0.250000
vt 0.119008 0.523969
vt 0.432037 0.250000
vt 0.250000 0.250000
vt 0.402276 0.608114
vt 0.404219 0.517002
vt 0.595191 0.518392
vt 0.597249 0.606797
vt 0.595191 0.518392
vt 0.595191 0.518392
vt 0.404219 0.517002
vt 0.404219 0.517002
vt 0.404219 0.517002
vt 0.404219 0.517002
vt 0.402276 0.608114
vt 0.402276 0.608114
vt 0.597249 0.606797
vt 0.597249 0.606797
vt 0.595191 0.518392
vt 0.595191 0.518392
vt 0.683408 0.304530
vt 0.682789 0.269555
vt 0.714995 0.258045
vt 0.719904 0.304482
vt 0.682789 0.269555
vt 0.682789 0.269555
vt 0.683408 0.304530
vt 0.683408 0.304530
vt 0.719904 0.304482
vt 0.719904 0.304482
vt 0.714995 0.258045
vt 0.714995 0.258045
vt 0.683408 0.304530
vt 0.683408 0.304530
vt 0.719904 0.304482
vt 0.719904 0.304482
vt 0.818646 0.270294
vt 0.818646 0.263521
vt 0.853518 0.255154
vt 0.853518 0.261850
vt 0.818646 0.310931
vt 0.818646 0.304158
vt 0.853518 0.295330
vt 0.853518 0.302026
vt 0.818646 0.297385
vt 0.818646 0.290612
vt 0.853518 0.281938
vt 0.853518 0.288634
vt 0.818646 0.283840
vt 0.818646 0.277067
vt 0.853518 0.268546
vt 0.853518 0.275242
s 0
usemtl PinkGlow
f 1/1/1 2/2/1 3/3/1
f 1/1/1 3/3/1 4/4/1
f 5/5/2 6/6/2 7/7/2
f 5/5/2 7/7/2 8/8/2
f 9/9/3 10/10/3 11/11/3
f 9/9/3 11/11/3 12/12/3
f 13/13/4 14/14/4 15/15/4
f 13/13/4 15/15/4 16/16/4
f 17/17/5 18/18/5 19/19/5
f 17/17/5 19/19/5 20/20/5
f 21/21/5 22/22/5 23/23/5
f 21/21/5 23/23/5 24/24/5
f 25/25/4 26/26/4 27/27/4
f 25/25/4 27/27/4 28/28/4
f 29/29/3 30/30/3 31/31/3
f 29/29/3 31/31/3 32/32/3
f 33/33/6 34/34/6 35/35/6
f 33/33/6 35/35/6 36/36/6
f 37/37/7 38/38/7 39/39/7
f 37/37/7 39/39/7 40/40/7
f 41/41/7 42/42/7 43/43/7
f 41/41/7 43/43/7 44/44/7
f 45/45/7 46/46/7 47/47/7
f 45/45/7 47/47/7 48/48/7
f 49/49/7 50/50/7 51/51/7
f 49/49/7 51/51/7 52/52/7
f 53/53/7 54/54/7 55/55/7
f 53/53/7 55/55/7 56/56/7
f 57/57/7 58/58/7 59/59/7
f 57/57/7 59/59/7 60/60/7
f 61/61/3 62/62/3 63/63/3
f 61/61/3 63/63/3 64/64/3
f 65/65/4 66/66/4 67/67/4
f 65/65/4 67/67/4 68/68/4
f 22/22/5 69/69/5 70/70/5
f 22/22/5 70/70/5 23/23/5
s 1
f 71/71/8 72/72/9 73/73/9
f 71/71/8 73/73/9 74/74/9
s 0
f 75/75/3 76/76/3 77/77/3
f 75/75/3 77/77/3 78/78/3
f 79/79/10 80/80/10 81/81/10
f 79/79/10 81/81/10 82/82/10
f 83/83/11 84/84/11 85/85/11
f 83/83/11 85/85/11 86/86/11
f 87/87/12 88/88/12 89/89/12
f 87/87/12 89/89/12 90/90/12
s 1
f 91/91/13 92/92/13 93/93/13
f 91/91/13 93/93/13 94/94/13
s 0
f 95/95/14 96/96/14 97/97/14
f 95/95/15 97/97/15 98/98/15
f 99/99/16 100/100/16 101/101/16
f 99/99/16 101/101/16 102/102/16
f 103/103/17 104/104/17 105/105/17
f 103/103/17 105/105/17 106/106/17
s 1
f 107/107/18 108/108/19 109/109/20
f 107/107/18 109/109/20 110/110/20
f 111/111/21 112/112/21 113/113/21
f 111/111/21 113/113/21 114/114/21
f 115/115/22 116/116/22 117/117/22
f 115/115/22 117/117/22 118/118/22
f 119/119/23 120/120/23 121/121/23
f 119/119/23 121/121/23 122/122/23
s 0
f 123/123/24 124/124/24 125/125/24
f 123/123/24 125/125/24 126/126/24
f 127/127/25 128/128/25 129/129/25
f 127/127/25 129/129/25 130/130/25
f 131/131/3 132/132/3 133/133/3
f 131/131/3 133/133/3 134/134/3
f 135/135/4 136/136/4 137/137/4
f 135/135/4 137/137/4 138/138/4
f 139/139/5 140/140/5 141/141/5
f 139/139/5 141/141/5 142/142/5
f 143/143/5 144/144/5 145/145/5
f 143/143/5 145/145/5 146/146/5
f 147/147/4 148/148/4 149/149/4
f 147/147/4 149/149/4 150/150/4
f 151/151/3 152/152/3 153/153/3
f 151/151/3 153/153/3 154/154/3
f 155/155/26 156/156/26 157/157/26
f 155/155/26 157/157/26 158/158/26
f 159/159/7 160/160/7 161/161/7
f 159/159/7 161/161/7 162/162/7
f 163/163/7 164/164/7 165/165/7
f 163/163/7 165/165/7 166/166/7
f 164/164/7 159/159/7 162/162/7
f 164/164/7 162/162/7 165/165/7
f 167/167/7 168/168/7 169/169/7
f 167/167/7 169/169/7 170/170/7
f 171/171/7 172/172/7 173/173/7
f 171/171/7 173/173/7 174/174/7
f 175/175/7 176/176/7 177/177/7
f 175/175/7 177/177/7 178/178/7
f 179/179/3 180/180/3 181/181/3
f 179/179/3 181/181/3 182/182/3
f 183/183/4 184/184/4 185/185/4
f 183/183/4 185/185/4 186/186/4
f 187/187/5 188/188/5 189/189/5
f 187/187/5 189/189/5 190/190/5
s 1
f 191/191/27 192/192/27 193/193/27
f 191/191/27 193/193/27 194/194/27
s 0
f 195/195/3 196/196/3 197/197/3
f 195/195/3 197/197/3 198/198/3
f 199/199/28 200/200/28 201/201/28
f 199/199/28 201/201/28 202/202/28
f 203/203/11 204/204/11 205/205/11
f 203/203/11 205/205/11 206/206/11
f 207/207/29 208/208/29 209/209/29
f 207/207/29 209/209/29 210/210/29
s 1
f 211/211/30 212/212/30 213/213/30
f 211/211/30 213/213/30 214/214/30
s 0
f 215/215/31 216/216/31 217/217/31
f 215/215/32 217/217/32 218/218/32
f 219/219/33 220/220/33 221/221/33
f 219/219/33 221/221/33 222/222/33
f 223/223/34 224/224/34 225/225/34
f 223/223/34 225/225/34 226/226/34
s 1
f 227/227/35 228/228/36 229/229/36
f 227/227/35 229/229/36 230/230/37
f 231/231/38 232/232/38 233/233/38
f 231/231/38 233/233/38 234/234/38
f 235/235/39 236/236/39 237/237/40
f 235/235/39 237/237/40 238/238/39
f 239/239/41 240/240/41 241/241/41
f 239/239/41 241/241/41 242/242/41
