# Blender 3.5.0
# www.blender.org
mtllib CannonCylinder9_2.mtl
o Cylinder.009_PinkGlow_0
v -0.112367 1.658448 1.102992
v 0.112368 1.658448 1.102992
v 0.096113 1.635346 1.135558
v -0.096113 1.635346 1.135558
v -0.163309 1.362149 1.135558
v -0.096113 1.635346 1.135558
v 0.096113 1.635346 1.135558
v 0.163309 1.362149 1.135558
v 0.112368 1.658448 1.102992
v 0.190929 1.339047 1.102992
v 0.163309 1.362149 1.135558
v 0.096113 1.635346 1.135558
v 0.190929 1.339047 1.102992
v -0.190929 1.339047 1.102992
v -0.163309 1.362149 1.135558
v 0.163309 1.362149 1.135558
v -0.190929 1.339047 1.102992
v -0.112367 1.658448 1.102992
v -0.096113 1.635346 1.135558
v -0.163309 1.362149 1.135558
vn -0.0000 -0.8156 -0.5786
vn -0.0000 -0.0000 -1.0000
vn -0.8126 -0.1999 -0.5474
vn -0.0000 0.8156 -0.5786
vn 0.8126 -0.1999 -0.5474
vt 0.977243 0.136930
vt 0.856091 0.136930
vt 0.856091 0.136930
vt 0.977243 0.136930
vt 0.977243 0.863070
vt 0.977243 0.136930
vt 0.856091 0.136930
vt 0.856091 0.863070
vt 0.856091 0.136930
vt 0.856091 0.863070
vt 0.856091 0.863070
vt 0.856091 0.136930
vt 0.856091 0.863070
vt 0.977243 0.863070
vt 0.977243 0.863070
vt 0.856091 0.863070
vt 0.977243 0.863070
vt 0.977243 0.136930
vt 0.977243 0.136930
vt 0.977243 0.863070
s 0
usemtl PinkGlow
f 1/1/1 2/2/1 3/3/1
f 1/1/1 3/3/1 4/4/1
f 5/5/2 6/6/2 7/7/2
f 5/5/2 7/7/2 8/8/2
f 9/9/3 10/10/3 11/11/3
f 9/9/3 11/11/3 12/12/3
f 13/13/4 14/14/4 15/15/4
f 13/13/4 15/15/4 16/16/4
f 17/17/5 18/18/5 19/19/5
f 17/17/5 19/19/5 20/20/5
