# Blender 3.5.0
# www.blender.org
mtllib CannonBlack0.mtl
o Tank_Black_0
v 1.212139 -0.033389 4.907954
v 1.119111 -0.431642 5.409245
v 1.392154 -0.461449 4.925180
v 1.392154 -0.461449 4.925180
v 1.119111 -0.431642 5.409245
v 1.034862 -0.788975 5.112637
v -1.212139 -0.033389 4.907954
v -1.392154 -0.461449 4.925180
v -1.119111 -0.431642 5.409245
v -1.392154 -0.461449 4.925180
v -1.034862 -0.788975 5.112637
v -1.119111 -0.431642 5.409245
v 0.666733 -0.831510 3.901925
v 1.370785 -0.831510 3.746274
v 1.034862 -0.788975 5.112637
v 0.666733 -0.822833 5.106397
v 1.637767 -1.000000 0.939492
v 1.416688 -0.371823 0.939491
v 1.875383 -0.371823 0.939491
v 2.165538 -1.000000 0.939492
v 2.377122 -1.000000 2.135308
v 2.086967 -0.371822 2.135308
v 1.789217 -0.371822 2.546801
v 2.079372 -1.000000 2.546802
v 1.572114 -1.000000 2.546802
v 1.351035 -0.371822 2.546801
v -0.051361 -0.371822 2.546801
v -0.051361 -1.000000 2.546802
v 1.577901 -0.102426 2.135308
v -0.051361 -0.371822 2.135308
v -0.051361 -0.371822 2.546801
v 1.351035 -0.371822 2.546801
v 1.550104 -0.461449 4.095372
v 1.370089 0.392878 3.823631
v 1.212139 -0.033389 4.907954
v 1.392154 -0.461449 4.925180
v 0.664835 0.123880 5.194040
v 0.664835 0.498977 4.095372
v 0.364649 0.656785 4.096237
v 0.364649 0.281688 4.908819
v 1.550104 -0.461449 4.095372
v 1.392154 -0.461449 4.925180
v 1.034862 -0.788975 5.112637
v 1.370785 -0.831510 3.746274
v 1.378992 -1.000000 3.466852
v 1.178010 -0.371822 3.466852
v 1.705710 -0.371822 3.466852
v 1.995865 -1.000000 3.466852
v 0.374941 -0.515285 0.790725
v -0.037469 -0.515285 0.790725
v -0.037320 -0.461450 0.790725
v 0.407652 -0.461450 0.790725
v 0.655545 -0.777676 0.790725
v 1.348559 -0.777676 0.790725
v 1.370785 -0.831511 0.790725
v 0.666733 -0.831511 0.790725
v 1.348559 -0.777676 0.790725
v 1.612170 -0.515285 0.790725
v 1.742567 -0.461450 0.790725
v 1.370785 -0.831511 0.790725
v 1.416688 -0.371823 0.939491
v -0.051361 -0.371823 0.939491
v -0.051361 -0.371823 1.350986
v 1.577901 -0.102426 1.350985
v 1.577901 -0.102426 1.350985
v -0.051361 -0.371823 1.350986
v -0.051361 -0.371822 2.135308
v 1.577901 -0.102426 2.135308
v 1.277048 -0.999999 4.953421
v 0.000000 -0.999999 4.953421
v 0.000000 -0.873821 4.953421
v 1.277048 -0.873821 4.953421
v 1.526219 -1.000000 2.426060
v -0.046776 -1.000000 2.426060
v -0.046776 -0.873822 2.426060
v 1.526219 -0.873822 2.426060
v 2.165538 -1.000000 0.939492
v 1.875383 -0.371823 0.939491
v 2.086967 -0.371823 1.350986
v 2.377122 -1.000000 1.350986
v 2.377122 -1.000000 1.350986
v 2.086967 -0.371823 1.350986
v 2.086967 -0.371822 2.135308
v 2.377122 -1.000000 2.135308
v 2.207449 -0.999999 4.662668
v 1.917295 -0.371822 4.662668
v 1.619544 -0.371821 5.074162
v 1.909699 -0.999999 5.074162
v 1.319307 -0.999999 5.074162
v 1.118325 -0.371821 5.074162
v 0.000000 -0.371821 5.074162
v 0.000000 -0.999999 5.074162
v 1.922181 -1.000000 3.587594
v 2.086708 -1.000000 3.907570
v 2.086708 -0.873821 3.907569
v 1.922181 -0.873821 3.587594
v 1.324568 -0.172240 4.662668
v 0.000000 -0.371822 4.662668
v 0.000000 -0.371821 5.074162
v 1.118325 -0.371821 5.074162
v 1.178010 -0.371822 3.466852
v 0.000000 -0.371822 3.466852
v 0.000000 -0.371822 3.878346
v 1.324568 -0.172240 3.878346
v 1.324568 -0.172240 3.878346
v 0.000000 -0.371822 3.878346
v 0.000000 -0.371822 4.662668
v 1.324568 -0.172240 4.662668
v 2.091854 -1.000000 1.060233
v 2.256381 -1.000000 1.380209
v 2.256381 -0.873822 1.380209
v 2.091854 -0.873822 1.060233
v 1.995865 -1.000000 3.466852
v 1.705710 -0.371822 3.466852
v 1.917295 -0.371822 3.878346
v 2.207449 -1.000000 3.878346
v 2.207449 -1.000000 3.878346
v 1.917295 -0.371822 3.878346
v 1.917295 -0.371822 4.662668
v 2.207449 -0.999999 4.662668
v 0.000000 0.797497 0.928028
v 0.000000 1.249161 0.928028
v 0.754436 1.249161 0.928028
v 0.886019 0.816069 0.928028
v 0.886019 0.816069 0.928028
v 0.754436 1.249161 0.928028
v 0.754436 1.249161 2.198967
v 0.886019 0.816070 2.636318
v 0.886019 0.816070 2.636318
v 0.754436 1.249161 2.198967
v 0.000000 1.249161 2.198967
v 0.000000 0.797498 3.055578
v 0.754436 1.249161 0.928028
v 0.000000 1.249161 0.928028
v 0.000000 1.249161 2.198967
v 0.754436 1.249161 2.198967
v 1.401421 0.466506 3.016289
v 0.886019 0.816070 2.636318
v 0.000000 0.797498 3.055578
v 0.000000 0.236585 3.435549
v 1.401421 0.466506 0.928028
v 0.886019 0.816069 0.928028
v 0.886019 0.816070 2.636318
v 1.401421 0.466506 3.016289
v 0.000000 0.236584 0.928028
v 0.000000 0.797497 0.928028
v 0.886019 0.816069 0.928028
v 1.401421 0.466506 0.928028
v 1.742567 -0.461449 1.892274
v 1.742567 -0.461449 2.993823
v 1.370785 -0.831510 2.864858
v 1.370785 -0.831510 1.827792
v 0.664835 0.498977 4.095372
v 0.664835 0.514511 2.993823
v 0.364649 0.672319 2.994688
v 0.364649 0.656785 4.096237
v 1.742567 -0.461449 1.892274
v 1.562552 0.456078 1.892274
v 1.562552 0.470724 2.993823
v 1.742567 -0.461449 2.993823
v 0.666733 -0.831510 1.827792
v 1.370785 -0.831510 1.827792
v 1.370785 -0.831510 2.864858
v 0.666733 -0.831510 2.864858
v 0.666733 -0.831511 0.790725
v 1.370785 -0.831511 0.790725
v 1.370785 -0.831510 1.827792
v 0.666733 -0.831510 1.827792
v 1.742567 -0.461450 0.790725
v 1.562552 0.510406 0.790725
v 1.562552 0.456078 1.892274
v 1.742567 -0.461449 1.892274
v 0.362648 0.716270 0.790724
v -0.037320 0.784891 0.790724
v -0.037320 0.601547 1.892274
v 0.664835 0.593887 1.892274
v 1.742567 -0.461450 0.790725
v 1.742567 -0.461449 1.892274
v 1.370785 -0.831510 1.827792
v 1.370785 -0.831511 0.790725
v 1.742567 -0.461449 2.993823
v 1.550104 -0.461449 4.095372
v 1.370785 -0.831510 3.746274
v 1.370785 -0.831510 2.864858
v 0.664835 0.514511 2.993823
v 0.664835 0.593887 1.892274
v 0.364649 0.751695 1.893139
v 0.364649 0.672319 2.994688
v 1.742567 -0.461449 2.993823
v 1.562552 0.470724 2.993823
v 1.370089 0.392878 3.823631
v 1.550104 -0.461449 4.095372
v 0.666733 -0.831510 2.864858
v 1.370785 -0.831510 2.864858
v 1.370785 -0.831510 3.746274
v 0.666733 -0.831510 3.901925
v 0.314707 -0.831510 2.864858
v 0.666733 -0.831510 2.864858
v 0.666733 -0.831510 3.901925
v 0.314707 -0.831510 3.901925
v 1.562552 0.470724 2.993823
v 0.762616 0.600872 2.993823
v 0.762616 0.590516 3.823631
v 1.370089 0.392878 3.823631
v 1.562552 0.510406 0.790725
v 0.762616 0.647649 0.790724
v 0.762616 0.586227 1.892274
v 1.562552 0.456078 1.892274
v 0.314707 -0.831511 0.790725
v 0.314707 -0.831510 1.827792
v 0.314707 -0.831510 1.827792
v 0.666733 -0.831510 1.827792
v 0.666733 -0.831510 2.864858
v 0.314707 -0.831510 2.864858
v 1.562552 0.456078 1.892274
v 0.762616 0.586227 1.892274
v 0.762616 0.600872 2.993823
v 1.562552 0.470724 2.993823
v 0.309038 -0.777676 0.790725
v 0.655545 -0.777676 0.790725
v 0.666733 -0.831511 0.790725
v 0.314707 -0.831511 0.790725
v 1.612170 -0.515285 0.790725
v 0.787351 -0.515285 0.790725
v 0.852624 -0.461450 0.790725
v 1.742567 -0.461450 0.790725
v 0.407652 -0.461450 0.790725
v 0.362648 0.716270 0.790724
v 0.762616 0.647649 0.790724
v 0.852624 -0.461450 0.790725
v 0.314707 -0.831510 3.901925
v 0.666733 -0.831510 3.901925
v 0.666733 -0.822833 5.106397
v 0.314707 -0.861042 5.098577
v 1.582716 -1.000000 1.060233
v -0.046776 -1.000000 1.060233
v -0.051361 -1.000000 0.939492
v 1.637767 -1.000000 0.939492
v 2.256381 -1.000000 1.380209
v 2.091854 -1.000000 1.060233
v 2.165538 -1.000000 0.939492
v 2.377122 -1.000000 1.350986
v 1.526219 -1.000000 2.426060
v 2.017704 -1.000000 2.426060
v 2.079372 -1.000000 2.546802
v 1.572114 -1.000000 2.546802
v 2.256381 -1.000000 2.096206
v 2.377122 -1.000000 2.135308
v 1.328410 -1.000000 3.587594
v 0.000000 -1.000000 3.587594
v 0.000000 -1.000000 3.466852
v 1.378992 -1.000000 3.466852
v 2.086708 -1.000000 3.907570
v 1.922181 -1.000000 3.587594
v 1.995865 -1.000000 3.466852
v 2.207449 -1.000000 3.878346
v 1.277048 -0.999999 4.953421
v 1.848031 -0.999999 4.953421
v 1.909699 -0.999999 5.074162
v 1.319307 -0.999999 5.074162
v 2.086708 -0.999999 4.623566
v 2.207449 -0.999999 4.662668
v 2.256381 -1.000000 2.096206
v 2.017704 -1.000000 2.426060
v 2.017704 -0.873822 2.426060
v 2.256381 -0.873822 2.096206
v 2.086708 -0.999999 4.623566
v 1.848031 -0.999999 4.953421
v 1.848031 -0.873821 4.953421
v 2.086708 -0.873821 4.623566
v 2.256381 -1.000000 1.380209
v 2.256381 -1.000000 2.096206
v 2.256381 -0.873822 2.096206
v 2.256381 -0.873822 1.380209
v 2.086708 -1.000000 3.907570
v 2.086708 -0.999999 4.623566
v 2.086708 -0.873821 4.623566
v 2.086708 -0.873821 3.907569
v 1.582716 -1.000000 1.060233
v 2.091854 -1.000000 1.060233
v 2.091854 -0.873822 1.060233
v 1.582716 -0.873822 1.060233
v 1.328410 -1.000000 3.587594
v 1.922181 -1.000000 3.587594
v 1.922181 -0.873821 3.587594
v 1.328410 -0.873821 3.587594
v -0.037320 -0.831510 3.901925
v 0.314707 -0.831510 3.901925
v 0.314707 -0.861042 5.098577
v 0.000000 -0.861042 5.098577
v -0.037320 -0.461450 0.790725
v -0.037320 0.784891 0.790724
v 0.362648 0.716270 0.790724
v 0.407652 -0.461450 0.790725
v -0.037469 -0.777676 0.790725
v 0.309038 -0.777676 0.790725
v 0.314707 -0.831511 0.790725
v -0.037320 -0.831511 0.790725
v -0.037320 -0.831510 1.827792
v 0.314707 -0.831510 2.864858
v -0.037320 -0.831510 2.864858
v -0.037320 -0.831511 0.790725
v 0.314707 -0.831510 3.901925
v -0.037320 -0.831510 3.901925
v 0.762616 0.600872 2.993823
v 0.664835 0.514511 2.993823
v 0.664835 0.498977 4.095372
v 0.762616 0.590516 3.823631
v 0.762616 0.647649 0.790724
v 0.362648 0.716270 0.790724
v 0.664835 0.593887 1.892274
v 0.762616 0.586227 1.892274
v 0.762616 0.586227 1.892274
v 0.664835 0.593887 1.892274
v 0.664835 0.514511 2.993823
v 0.762616 0.600872 2.993823
v 0.787351 -0.515285 0.790725
v 0.852624 -0.461450 0.790725
v 0.762616 0.590516 3.823631
v 0.664835 0.498977 4.095372
v 0.664835 0.123880 5.194040
v 0.762616 0.215419 4.984226
v 0.364649 0.656785 4.096237
v 0.000000 0.659268 4.096237
v 0.000000 0.323055 4.908819
v 0.364649 0.281688 4.908819
v 0.364649 0.751695 1.893139
v -0.035319 0.759355 1.893139
v 0.000000 0.679979 2.994688
v 0.364649 0.672319 2.994688
v 0.364649 0.672319 2.994688
v 0.000000 0.679979 2.994688
v 0.000000 0.659268 4.096237
v 0.364649 0.656785 4.096237
v 0.000000 0.205738 5.194040
v 0.664835 0.123880 5.194040
v 0.364649 0.281688 4.908819
v 0.000000 0.323055 4.908819
v 0.664835 0.593887 1.892274
v -0.037320 0.601547 1.892274
v -0.035319 0.759355 1.893139
v 0.364649 0.751695 1.893139
v -0.037320 0.601547 2.993823
v 0.000000 0.580836 4.095372
v 0.000000 0.659268 4.096237
v 0.000000 0.679979 2.994688
v -0.037320 0.601547 1.892274
v -0.037320 0.601547 2.993823
v 0.000000 0.679979 2.994688
v -0.035319 0.759355 1.893139
v 0.664835 0.123880 5.194040
v 0.000000 0.205738 5.194040
v 0.000000 -0.465969 5.473441
v 0.442606 -0.469668 5.471717
v 0.666733 -0.822833 5.106397
v 1.034862 -0.788975 5.112637
v 1.119111 -0.431642 5.409245
v 0.701642 -0.450883 5.441930
v 1.462743 0.409266 0.790725
v 0.890945 0.507368 0.790725
v 0.762616 0.647649 0.790724
v 1.562552 0.510406 0.790725
v 1.602433 -0.344889 0.790725
v 1.462743 0.409266 0.790725
v 1.562552 0.510406 0.790725
v 0.960109 -0.344889 0.790725
v 0.890945 0.507368 0.790725
v 0.960109 -0.344889 0.790725
v 0.852624 -0.461450 0.790725
v 0.762616 0.647649 0.790724
v 0.000000 -1.000000 3.587594
v 0.000000 -0.873821 3.587594
v 0.000000 -0.873821 3.878346
v 1.442374 -0.873821 3.898588
v 1.442374 -0.873821 4.635583
v 0.000000 -0.873821 4.662668
v 0.000000 -0.873821 3.587594
v 1.328410 -0.873821 3.587594
v 1.442374 -0.873821 3.898588
v 0.000000 -0.873821 3.878346
v 0.000000 -0.873821 4.662668
v 1.442374 -0.873821 4.635583
v 1.277048 -0.873821 4.953421
v 0.000000 -0.873821 4.953421
v 0.000000 -0.999999 4.953421
v 0.000000 -0.999999 5.074162
v 1.917295 -0.371822 3.878346
v 1.324568 -0.172240 3.878346
v 1.324568 -0.172240 4.662668
v 1.917295 -0.371822 4.662668
v 1.705710 -0.371822 3.466852
v 1.178010 -0.371822 3.466852
v 1.324568 -0.172240 3.878346
v 1.917295 -0.371822 3.878346
v 1.917295 -0.371822 4.662668
v 1.324568 -0.172240 4.662668
v 1.118325 -0.371821 5.074162
v 1.619544 -0.371821 5.074162
v 1.909699 -0.999999 5.074162
v 1.619544 -0.371821 5.074162
v 1.118325 -0.371821 5.074162
v 1.319307 -0.999999 5.074162
v 1.848031 -0.999999 4.953421
v 1.848031 -0.873821 4.953421
v 0.000000 -1.000000 3.466852
v 0.000000 -0.371822 3.466852
v 1.178010 -0.371822 3.466852
v 1.378992 -1.000000 3.466852
v -0.046776 -1.000000 1.060233
v -0.046776 -0.873822 1.060233
v -0.046776 -0.873822 1.350986
v 1.708075 -0.873822 1.373252
v 1.708075 -0.873822 2.105515
v -0.046776 -0.873822 2.135308
v -0.046776 -0.873822 1.060233
v 1.582716 -0.873822 1.060233
v 1.708075 -0.873822 1.373252
v -0.046776 -0.873822 1.350986
v -0.046776 -0.873822 2.135308
v 1.708075 -0.873822 2.105515
v 1.526219 -0.873822 2.426060
v -0.046776 -0.873822 2.426060
v -0.046776 -1.000000 2.426060
v -0.051361 -1.000000 2.546802
v 2.017704 -1.000000 2.426060
v 2.017704 -0.873822 2.426060
v 2.086967 -0.371823 1.350986
v 1.577901 -0.102426 1.350985
v 1.577901 -0.102426 2.135308
v 2.086967 -0.371822 2.135308
v 1.875383 -0.371823 0.939491
v 1.416688 -0.371823 0.939491
v 1.577901 -0.102426 1.350985
v 2.086967 -0.371823 1.350986
v 2.086967 -0.371822 2.135308
v 1.577901 -0.102426 2.135308
v 1.351035 -0.371822 2.546801
v 1.789217 -0.371822 2.546801
v 2.079372 -1.000000 2.546802
v 1.789217 -0.371822 2.546801
v 1.351035 -0.371822 2.546801
v 1.572114 -1.000000 2.546802
v -0.051361 -1.000000 0.939492
v -0.051361 -0.371823 0.939491
v 1.076700 0.435459 3.962443
v 1.040433 0.214603 4.570504
v 1.212139 -0.033389 4.907954
v 1.370089 0.392878 3.823631
v 0.897397 0.479971 3.957579
v 1.076700 0.435459 3.962443
v 1.370089 0.392878 3.823631
v 0.762616 0.590516 3.823631
v 1.040433 0.214603 4.570504
v 0.902071 0.210199 4.773845
v 0.762616 0.215419 4.984226
v 1.212139 -0.033389 4.907954
v 0.902071 0.210199 4.773845
v 0.897397 0.479971 3.957579
v 0.762616 0.590516 3.823631
v 0.762616 0.215419 4.984226
v 0.442606 -0.469668 5.471717
v 0.000000 -0.465969 5.473441
v 0.000000 -0.861042 5.098577
v 0.314707 -0.861042 5.098577
v 0.442606 -0.469668 5.471717
v 0.701642 -0.450883 5.441930
v 0.762616 0.215419 4.984226
v 0.664835 0.123880 5.194040
v 0.701642 -0.450883 5.441930
v 1.119111 -0.431642 5.409245
v 1.212139 -0.033389 4.907954
v 0.762616 0.215419 4.984226
v -0.666733 -0.831510 3.901925
v -0.666733 -0.822833 5.106397
v -1.034862 -0.788975 5.112637
v -1.370785 -0.831510 3.746274
v -1.637767 -1.000000 0.939492
v -2.165538 -1.000000 0.939492
v -1.875383 -0.371823 0.939491
v -1.416688 -0.371823 0.939491
v -2.377122 -1.000000 2.135308
v -2.079372 -1.000000 2.546802
v -1.789217 -0.371822 2.546801
v -2.086967 -0.371822 2.135308
v -1.572114 -1.000000 2.546802
v 0.051361 -1.000000 2.546802
v 0.051361 -0.371822 2.546801
v -1.351035 -0.371822 2.546801
v -1.577901 -0.102426 2.135308
v -1.351035 -0.371822 2.546801
v 0.051361 -0.371822 2.546801
v 0.051361 -0.371822 2.135308
v -1.550104 -0.461449 4.095372
v -1.392154 -0.461449 4.925180
v -1.212139 -0.033389 4.907954
v -1.370089 0.392878 3.823631
v -0.664835 0.123880 5.194040
v -0.364649 0.281688 4.908819
v -0.364649 0.656785 4.096237
v -0.664835 0.498977 4.095372
v -1.550104 -0.461449 4.095372
v -1.370785 -0.831510 3.746274
v -1.034862 -0.788975 5.112637
v -1.392154 -0.461449 4.925180
v -1.378992 -1.000000 3.466852
v -1.995865 -1.000000 3.466852
v -1.705710 -0.371822 3.466852
v -1.178010 -0.371822 3.466852
v -0.374941 -0.515285 0.790725
v -0.407652 -0.461450 0.790725
v 0.037320 -0.461450 0.790725
v 0.037469 -0.515285 0.790725
v -0.655545 -0.777676 0.790725
v -0.666733 -0.831511 0.790725
v -1.370785 -0.831511 0.790725
v -1.348559 -0.777676 0.790725
v -1.348559 -0.777676 0.790725
v -1.370785 -0.831511 0.790725
v -1.742567 -0.461450 0.790725
v -1.612170 -0.515285 0.790725
v -1.416688 -0.371823 0.939491
v -1.577901 -0.102426 1.350985
v 0.051361 -0.371823 1.350986
v 0.051361 -0.371823 0.939491
v -1.577901 -0.102426 1.350985
v -1.577901 -0.102426 2.135308
v 0.051361 -0.371822 2.135308
v 0.051361 -0.371823 1.350986
v -1.277048 -0.999999 4.953421
v -1.277048 -0.873821 4.953421
v -1.526219 -1.000000 2.426060
v -1.526219 -0.873822 2.426060
v 0.046776 -0.873822 2.426060
v 0.046776 -1.000000 2.426060
v -2.165538 -1.000000 0.939492
v -2.377122 -1.000000 1.350986
v -2.086967 -0.371823 1.350986
v -1.875383 -0.371823 0.939491
v -2.377122 -1.000000 1.350986
v -2.377122 -1.000000 2.135308
v -2.086967 -0.371822 2.135308
v -2.086967 -0.371823 1.350986
v -2.207449 -0.999999 4.662668
v -1.909699 -0.999999 5.074162
v -1.619544 -0.371821 5.074162
v -1.917295 -0.371822 4.662668
v -1.319307 -0.999999 5.074162
v -1.118325 -0.371821 5.074162
v -1.922181 -1.000000 3.587594
v -1.922181 -0.873821 3.587594
v -2.086708 -0.873821 3.907569
v -2.086708 -1.000000 3.907570
v -1.324568 -0.172240 4.662668
v -1.118325 -0.371821 5.074162
v 0.000000 -0.371821 5.074162
v 0.000000 -0.371822 4.662668
v -1.178010 -0.371822 3.466852
v -1.324568 -0.172240 3.878346
v 0.000000 -0.371822 3.878346
v 0.000000 -0.371822 3.466852
v -1.324568 -0.172240 3.878346
v -1.324568 -0.172240 4.662668
v 0.000000 -0.371822 4.662668
v 0.000000 -0.371822 3.878346
v -2.091854 -1.000000 1.060233
v -2.091854 -0.873822 1.060233
v -2.256381 -0.873822 1.380209
v -2.256381 -1.000000 1.380209
v -1.995865 -1.000000 3.466852
v -2.207449 -1.000000 3.878346
v -1.917295 -0.371822 3.878346
v -1.705710 -0.371822 3.466852
v -2.207449 -1.000000 3.878346
v -2.207449 -0.999999 4.662668
v -1.917295 -0.371822 4.662668
v -1.917295 -0.371822 3.878346
v -0.886019 0.816069 0.928028
v -0.754436 1.249161 0.928028
v 0.000000 1.249161 0.928028
v -0.886019 0.816069 0.928028
v -0.886019 0.816070 2.636318
v -0.754436 1.249161 2.198967
v -0.754436 1.249161 0.928028
v -0.886019 0.816070 2.636318
v 0.000000 0.797498 3.055578
v 0.000000 1.249161 2.198967
v -0.754436 1.249161 2.198967
v -0.754436 1.249161 0.928028
v -0.754436 1.249161 2.198967
v -1.401421 0.466506 3.016289
v 0.000000 0.236585 3.435549
v 0.000000 0.797498 3.055578
v -0.886019 0.816070 2.636318
v -1.401421 0.466506 0.928028
v -1.401421 0.466506 3.016289
v -0.886019 0.816070 2.636318
v -0.886019 0.816069 0.928028
v -1.401421 0.466506 0.928028
v -1.742567 -0.461449 1.892274
v -1.370785 -0.831510 1.827792
v -1.370785 -0.831510 2.864858
v -1.742567 -0.461449 2.993823
v -0.664835 0.498977 4.095372
v -0.364649 0.656785 4.096237
v -0.364649 0.672319 2.994688
v -0.664835 0.514511 2.993823
v -1.742567 -0.461449 1.892274
v -1.742567 -0.461449 2.993823
v -1.562552 0.470724 2.993823
v -1.562552 0.456078 1.892274
v -0.666733 -0.831510 1.827792
v -0.666733 -0.831510 2.864858
v -1.370785 -0.831510 2.864858
v -1.370785 -0.831510 1.827792
v -0.666733 -0.831511 0.790725
v -0.666733 -0.831510 1.827792
v -1.370785 -0.831510 1.827792
v -1.370785 -0.831511 0.790725
v -1.742567 -0.461450 0.790725
v -1.742567 -0.461449 1.892274
v -1.562552 0.456078 1.892274
v -1.562552 0.510406 0.790725
v -0.362648 0.716270 0.790724
v -0.664835 0.593887 1.892274
v 0.037320 0.601547 1.892274
v 0.037320 0.784891 0.790724
v -1.742567 -0.461450 0.790725
v -1.370785 -0.831511 0.790725
v -1.370785 -0.831510 1.827792
v -1.742567 -0.461449 1.892274
v -1.742567 -0.461449 2.993823
v -1.370785 -0.831510 2.864858
v -1.370785 -0.831510 3.746274
v -1.550104 -0.461449 4.095372
v -0.664835 0.514511 2.993823
v -0.364649 0.672319 2.994688
v -0.364649 0.751695 1.893139
v -0.664835 0.593887 1.892274
v -1.742567 -0.461449 2.993823
v -1.550104 -0.461449 4.095372
v -1.370089 0.392878 3.823631
v -1.562552 0.470724 2.993823
v -0.666733 -0.831510 2.864858
v -0.666733 -0.831510 3.901925
v -1.370785 -0.831510 3.746274
v -1.370785 -0.831510 2.864858
v -0.314707 -0.831510 2.864858
v -0.314707 -0.831510 3.901925
v -0.666733 -0.831510 3.901925
v -0.666733 -0.831510 2.864858
v -1.562552 0.470724 2.993823
v -1.370089 0.392878 3.823631
v -0.762616 0.590516 3.823631
v -0.762616 0.600872 2.993823
v -1.562552 0.510406 0.790725
v -1.562552 0.456078 1.892274
v -0.762616 0.586227 1.892274
v -0.762616 0.647649 0.790724
v -0.314707 -0.831511 0.790725
v -0.314707 -0.831510 1.827792
v -0.314707 -0.831510 2.864858
v -1.562552 0.456078 1.892274
v -1.562552 0.470724 2.993823
v -0.762616 0.600872 2.993823
v -0.762616 0.586227 1.892274
v -0.309038 -0.777676 0.790725
v -0.314707 -0.831511 0.790725
v -0.666733 -0.831511 0.790725
v -0.655545 -0.777676 0.790725
v -1.612170 -0.515285 0.790725
v -1.742567 -0.461450 0.790725
v -0.852624 -0.461450 0.790725
v -0.787351 -0.515285 0.790725
v -0.407652 -0.461450 0.790725
v -0.852624 -0.461450 0.790725
v -0.762616 0.647649 0.790724
v -0.362648 0.716270 0.790724
v -0.314707 -0.831510 3.901925
v -0.314707 -0.861042 5.098577
v -0.666733 -0.822833 5.106397
v -0.666733 -0.831510 3.901925
v -1.582716 -1.000000 1.060233
v -1.637767 -1.000000 0.939492
v 0.051361 -1.000000 0.939492
v 0.046776 -1.000000 1.060233
v -2.256381 -1.000000 1.380209
v -2.377122 -1.000000 1.350986
v -2.165538 -1.000000 0.939492
v -2.091854 -1.000000 1.060233
v -1.526219 -1.000000 2.426060
v -1.572114 -1.000000 2.546802
v -2.079372 -1.000000 2.546802
v -2.017704 -1.000000 2.426060
v -2.377122 -1.000000 2.135308
v -2.256381 -1.000000 2.096206
v -1.328410 -1.000000 3.587594
v -1.378992 -1.000000 3.466852
v -2.086708 -1.000000 3.907570
v -2.207449 -1.000000 3.878346
v -1.995865 -1.000000 3.466852
v -1.922181 -1.000000 3.587594
v -1.277048 -0.999999 4.953421
v -1.319307 -0.999999 5.074162
v -1.909699 -0.999999 5.074162
v -1.848031 -0.999999 4.953421
v -2.207449 -0.999999 4.662668
v -2.086708 -0.999999 4.623566
v -2.256381 -1.000000 2.096206
v -2.256381 -0.873822 2.096206
v -2.017704 -0.873822 2.426060
v -2.017704 -1.000000 2.426060
v -2.086708 -0.999999 4.623566
v -2.086708 -0.873821 4.623566
v -1.848031 -0.873821 4.953421
v -1.848031 -0.999999 4.953421
v -2.256381 -1.000000 1.380209
v -2.256381 -0.873822 1.380209
v -2.256381 -0.873822 2.096206
v -2.256381 -1.000000 2.096206
v -2.086708 -1.000000 3.907570
v -2.086708 -0.873821 3.907569
v -2.086708 -0.873821 4.623566
v -2.086708 -0.999999 4.623566
v -1.582716 -1.000000 1.060233
v -1.582716 -0.873822 1.060233
v -2.091854 -0.873822 1.060233
v -2.091854 -1.000000 1.060233
v -1.328410 -1.000000 3.587594
v -1.328410 -0.873821 3.587594
v -1.922181 -0.873821 3.587594
v -1.922181 -1.000000 3.587594
v 0.037320 -0.831510 3.901925
v 0.000000 -0.861042 5.098577
v -0.314707 -0.861042 5.098577
v -0.314707 -0.831510 3.901925
v 0.037320 -0.461450 0.790725
v 0.037320 0.784891 0.790724
v 0.037469 -0.777676 0.790725
v 0.037320 -0.831511 0.790725
v -0.314707 -0.831511 0.790725
v -0.309038 -0.777676 0.790725
v 0.037320 -0.831510 1.827792
v 0.037320 -0.831510 2.864858
v 0.037320 -0.831511 0.790725
v 0.037320 -0.831510 3.901925
v -0.314707 -0.831510 3.901925
v -0.762616 0.600872 2.993823
v -0.762616 0.590516 3.823631
v -0.664835 0.498977 4.095372
v -0.664835 0.514511 2.993823
v -0.762616 0.647649 0.790724
v -0.762616 0.586227 1.892274
v -0.664835 0.593887 1.892274
v -0.362648 0.716270 0.790724
v -0.762616 0.586227 1.892274
v -0.762616 0.600872 2.993823
v -0.664835 0.514511 2.993823
v -0.664835 0.593887 1.892274
v -0.787351 -0.515285 0.790725
v -0.852624 -0.461450 0.790725
v -0.407652 -0.461450 0.790725
v -0.374941 -0.515285 0.790725
v -0.762616 0.590516 3.823631
v -0.762616 0.215419 4.984226
v -0.664835 0.123880 5.194040
v -0.664835 0.498977 4.095372
v -0.364649 0.656785 4.096237
v -0.364649 0.281688 4.908819
v 0.000000 0.323055 4.908819
v 0.000000 0.659268 4.096237
v -0.364649 0.751695 1.893139
v -0.364649 0.672319 2.994688
v 0.000000 0.679979 2.994688
v 0.035319 0.759355 1.893139
v -0.364649 0.672319 2.994688
v -0.364649 0.656785 4.096237
v 0.000000 0.659268 4.096237
v 0.000000 0.679979 2.994688
v 0.000000 0.205738 5.194040
v 0.000000 0.323055 4.908819
v -0.364649 0.281688 4.908819
v -0.664835 0.123880 5.194040
v -0.664835 0.593887 1.892274
v -0.364649 0.751695 1.893139
v 0.035319 0.759355 1.893139
v 0.037320 0.601547 1.892274
v 0.037320 0.601547 2.993823
v 0.000000 0.679979 2.994688
v 0.000000 0.659268 4.096237
v 0.000000 0.580836 4.095372
v 0.037320 0.601547 1.892274
v 0.035319 0.759355 1.893139
v 0.000000 0.679979 2.994688
v 0.037320 0.601547 2.993823
v 0.000000 0.580836 4.095372
v 0.000000 0.659268 4.096237
v 0.000000 0.323055 4.908819
v 0.000000 0.205738 5.194040
v -0.664835 0.123880 5.194040
v -0.442606 -0.469668 5.471717
v 0.000000 -0.465969 5.473441
v 0.000000 0.205738 5.194040
v -0.666733 -0.822833 5.106397
v -0.701642 -0.450883 5.441930
v -1.119111 -0.431642 5.409245
v -1.034862 -0.788975 5.112637
v -1.462743 0.409266 0.790725
v -1.562552 0.510406 0.790725
v -0.762616 0.647649 0.790724
v -0.890945 0.507368 0.790725
v -1.602433 -0.344889 0.790725
v -1.562552 0.510406 0.790725
v -1.462743 0.409266 0.790725
v -0.960109 -0.344889 0.790725
v -0.852624 -0.461450 0.790725
v -1.742567 -0.461450 0.790725
v -1.602433 -0.344889 0.790725
v -0.890945 0.507368 0.790725
v -0.762616 0.647649 0.790724
v -0.852624 -0.461450 0.790725
v -0.960109 -0.344889 0.790725
v 0.000000 -0.873821 3.878346
v 0.000000 -0.873821 4.662668
v -1.442374 -0.873821 4.635583
v -1.442374 -0.873821 3.898588
v 0.000000 -0.873821 3.587594
v 0.000000 -0.873821 3.878346
v -1.442374 -0.873821 3.898588
v -1.328410 -0.873821 3.587594
v -1.277048 -0.873821 4.953421
v -1.442374 -0.873821 4.635583
v -1.917295 -0.371822 3.878346
v -1.917295 -0.371822 4.662668
v -1.324568 -0.172240 4.662668
v -1.324568 -0.172240 3.878346
v -1.705710 -0.371822 3.466852
v -1.917295 -0.371822 3.878346
v -1.324568 -0.172240 3.878346
v -1.178010 -0.371822 3.466852
v -1.917295 -0.371822 4.662668
v -1.619544 -0.371821 5.074162
v -1.118325 -0.371821 5.074162
v -1.324568 -0.172240 4.662668
v -1.909699 -0.999999 5.074162
v -1.319307 -0.999999 5.074162
v -1.118325 -0.371821 5.074162
v -1.619544 -0.371821 5.074162
v -1.848031 -0.999999 4.953421
v -1.848031 -0.873821 4.953421
v -1.378992 -1.000000 3.466852
v -1.178010 -0.371822 3.466852
v 0.046776 -1.000000 1.060233
v 0.046776 -0.873822 1.060233
v 0.046776 -0.873822 1.350986
v 0.046776 -0.873822 2.135308
v -1.708075 -0.873822 2.105515
v -1.708075 -0.873822 1.373252
v 0.046776 -0.873822 1.060233
v 0.046776 -0.873822 1.350986
v -1.708075 -0.873822 1.373252
v -1.582716 -0.873822 1.060233
v 0.046776 -0.873822 2.426060
v -1.526219 -0.873822 2.426060
v 0.046776 -1.000000 2.426060
v 0.051361 -1.000000 2.546802
v -2.017704 -1.000000 2.426060
v -2.017704 -0.873822 2.426060
v -2.086967 -0.371823 1.350986
v -2.086967 -0.371822 2.135308
v -1.577901 -0.102426 2.135308
v -1.577901 -0.102426 1.350985
v -1.875383 -0.371823 0.939491
v -2.086967 -0.371823 1.350986
v -1.577901 -0.102426 1.350985
v -1.416688 -0.371823 0.939491
v -2.086967 -0.371822 2.135308
v -1.789217 -0.371822 2.546801
v -1.351035 -0.371822 2.546801
v -1.577901 -0.102426 2.135308
v -2.079372 -1.000000 2.546802
v -1.572114 -1.000000 2.546802
v -1.351035 -0.371822 2.546801
v -1.789217 -0.371822 2.546801
v 0.051361 -1.000000 0.939492
v 0.051361 -0.371823 0.939491
v -1.076700 0.435459 3.962443
v -1.370089 0.392878 3.823631
v -1.212139 -0.033389 4.907954
v -1.040433 0.214603 4.570504
v -0.897397 0.479971 3.957579
v -0.762616 0.590516 3.823631
v -1.370089 0.392878 3.823631
v -1.076700 0.435459 3.962443
v -1.040433 0.214603 4.570504
v -1.212139 -0.033389 4.907954
v -0.762616 0.215419 4.984226
v -0.902071 0.210199 4.773845
v -0.902071 0.210199 4.773845
v -0.762616 0.215419 4.984226
v -0.762616 0.590516 3.823631
v -0.897397 0.479971 3.957579
v -0.442606 -0.469668 5.471717
v -0.314707 -0.861042 5.098577
v 0.000000 -0.861042 5.098577
v 0.000000 -0.465969 5.473441
v -0.442606 -0.469668 5.471717
v -0.664835 0.123880 5.194040
v -0.762616 0.215419 4.984226
v -0.701642 -0.450883 5.441930
v -0.701642 -0.450883 5.441930
v -0.762616 0.215419 4.984226
v -1.212139 -0.033389 4.907954
v -1.119111 -0.431642 5.409245
vn 0.8210 0.3630 0.4407
vn 0.7213 -0.5351 0.4398
vn -0.8210 0.3630 0.4407
vn -0.7213 -0.5351 0.4398
vn 0.0350 -0.9991 0.0245
vn 0.0349 -0.9991 0.0245
vn -0.0000 -0.0000 -1.0000
vn 0.7588 0.3505 0.5490
vn -0.0000 -0.0000 1.0000
vn -0.0847 0.9536 0.2888
vn 0.9247 0.3095 0.2215
vn 0.9247 0.3095 0.2216
vn 0.3016 0.8875 0.3484
vn 0.7584 -0.6257 0.1827
vn 0.7584 -0.6257 0.1826
vn -0.0828 0.9518 -0.2953
vn -0.0828 0.9518 -0.2954
vn -0.1631 0.9866 -0.0000
vn 0.8226 0.3800 -0.4230
vn 0.9078 0.4193 -0.0000
vn -0.8893 -0.0000 0.4573
vn -0.0795 0.9731 0.2161
vn -0.0795 0.9731 0.2160
vn -0.0775 0.9720 -0.2219
vn -0.1490 0.9888 -0.0000
vn 0.9568 0.2907 -0.0000
vn 0.1313 0.8245 0.5504
vn -0.0000 1.0000 -0.0000
vn 0.1824 0.6888 0.7016
vn 0.5613 0.8276 -0.0000
vn 0.7055 -0.7087 -0.0000
vn 0.4653 0.8851 0.0125
vn 0.9815 0.1912 -0.0014
vn 0.9816 0.1911 -0.0013
vn 0.9816 0.1909 -0.0011
vn 0.9816 0.1910 -0.0012
vn -0.0000 -1.0000 -0.0000
vn 0.9823 0.1870 0.0047
vn 0.9823 0.1872 0.0046
vn 0.0685 0.9894 0.1279
vn 0.7759 -0.6264 0.0753
vn 0.4645 0.8833 0.0636
vn 0.9543 0.2226 0.1992
vn 0.9543 0.2225 0.1993
vn 0.2262 0.9710 0.0778
vn 0.2261 0.9710 0.0778
vn 0.1646 0.9850 0.0517
vn 0.1646 0.9850 0.0518
vn 0.1606 0.9869 -0.0131
vn 0.0543 -0.9985 -0.0087
vn -0.8102 -0.0000 -0.5862
vn -1.0000 -0.0000 -0.0000
vn -0.0000 -0.9997 -0.0247
vn -0.6652 0.7466 0.0100
vn 0.1512 0.9866 0.0616
vn -0.3732 0.9274 0.0273
vn -0.3732 0.9274 0.0272
vn -0.3732 0.9273 0.0273
vn -0.1118 0.9431 0.3132
vn 0.0550 0.9147 0.4003
vn 0.0550 0.9147 0.4004
vn 0.0195 0.9973 0.0714
vn 0.0199 0.9972 0.0715
vn 0.0200 0.9972 0.0715
vn 0.0200 0.9972 0.0716
vn 0.0139 0.9998 0.0164
vn 0.1097 0.9166 0.3844
vn 0.1098 0.9166 0.3844
vn 0.0001 0.0055 -1.0000
vn 0.0001 0.0057 -1.0000
vn -0.9727 0.2312 0.0208
vn -0.9862 0.1640 0.0217
vn 0.0322 0.3980 0.9168
vn 0.0698 -0.6599 0.7481
vn 0.3191 0.9477 -0.0000
vn 0.1673 0.9390 -0.3005
vn 0.1695 0.9290 0.3291
vn 0.4677 0.8839 -0.0000
vn 0.2458 0.8828 -0.4003
vn 0.2457 0.8640 0.4395
vn 0.2457 0.8640 0.4394
vn 0.3744 0.8510 0.3684
vn 0.3744 0.8510 0.3683
vn 0.3743 0.8510 0.3684
vn 0.2702 0.8856 0.3778
vn 0.4915 0.8065 0.3285
vn 0.4916 0.8065 0.3285
vn 0.4383 0.8548 0.2778
vn -0.0016 -0.6891 0.7247
vn -0.0017 -0.6890 0.7247
vn -0.0018 -0.6890 0.7248
vn 0.4316 0.3804 0.8179
vn 0.2582 0.6257 0.7361
vn -0.0350 -0.9991 0.0245
vn -0.0349 -0.9991 0.0245
vn -0.7588 0.3505 0.5490
vn 0.0847 0.9536 0.2888
vn -0.9247 0.3095 0.2215
vn -0.9247 0.3095 0.2216
vn -0.3016 0.8875 0.3484
vn -0.7584 -0.6257 0.1827
vn -0.7584 -0.6257 0.1826
vn 0.0828 0.9518 -0.2953
vn 0.0828 0.9518 -0.2954
vn 0.1631 0.9866 -0.0000
vn -0.8226 0.3800 -0.4230
vn -0.9078 0.4193 -0.0000
vn 0.8893 -0.0000 0.4573
vn 0.0795 0.9731 0.2161
vn 0.0795 0.9731 0.2160
vn 0.0769 0.9720 -0.2221
vn 0.0775 0.9720 -0.2219
vn 0.1490 0.9888 -0.0000
vn -0.9568 0.2907 -0.0000
vn -0.1313 0.8245 0.5504
vn -0.1824 0.6888 0.7016
vn -0.5613 0.8276 -0.0000
vn -0.7055 -0.7087 -0.0000
vn -0.4653 0.8851 0.0125
vn -0.9815 0.1912 -0.0014
vn -0.9816 0.1910 -0.0012
vn -0.9816 0.1909 -0.0011
vn -0.9816 0.1911 -0.0013
vn -0.9823 0.1870 0.0047
vn -0.9823 0.1872 0.0046
vn -0.0685 0.9894 0.1279
vn -0.7759 -0.6264 0.0753
vn -0.4645 0.8833 0.0636
vn -0.9543 0.2226 0.1992
vn -0.9543 0.2225 0.1993
vn -0.2262 0.9710 0.0778
vn -0.2261 0.9710 0.0778
vn -0.1646 0.9850 0.0517
vn -0.1646 0.9850 0.0518
vn -0.1606 0.9869 -0.0131
vn -0.0543 -0.9985 -0.0087
vn 0.8102 -0.0000 -0.5862
vn 1.0000 -0.0000 -0.0000
vn 0.6653 0.7465 0.0100
vn 0.6652 0.7466 0.0100
vn -0.1512 0.9866 0.0616
vn 0.3732 0.9274 0.0273
vn 0.3732 0.9273 0.0273
vn 0.3732 0.9274 0.0272
vn 0.1118 0.9431 0.3132
vn -0.0550 0.9147 0.4003
vn -0.0550 0.9147 0.4004
vn -0.0195 0.9973 0.0714
vn -0.0200 0.9972 0.0716
vn -0.0200 0.9972 0.0715
vn -0.0199 0.9972 0.0715
vn -0.0139 0.9998 0.0164
vn -0.1097 0.9166 0.3844
vn -0.1098 0.9166 0.3844
vn -0.0001 0.0057 -1.0000
vn -0.0001 0.0055 -1.0000
vn 0.9727 0.2312 0.0208
vn 0.9862 0.1640 0.0217
vn -0.0322 0.3980 0.9168
vn -0.0698 -0.6599 0.7481
vn -0.3191 0.9477 -0.0000
vn -0.1673 0.9390 -0.3005
vn -0.1695 0.9290 0.3291
vn -0.4677 0.8839 -0.0000
vn -0.2458 0.8828 -0.4003
vn -0.2457 0.8828 -0.4003
vn -0.2457 0.8640 0.4395
vn -0.2457 0.8640 0.4394
vn -0.3744 0.8510 0.3684
vn -0.3744 0.8510 0.3683
vn -0.3743 0.8510 0.3684
vn -0.2702 0.8856 0.3778
vn -0.4915 0.8065 0.3285
vn -0.4916 0.8065 0.3285
vn -0.4383 0.8548 0.2778
vn 0.0016 -0.6891 0.7247
vn 0.0017 -0.6890 0.7247
vn 0.0018 -0.6890 0.7248
vn -0.4316 0.3804 0.8179
vn -0.2582 0.6257 0.7361
vt 0.625000 0.250000
vt 0.493811 0.250000
vt 0.375000 0.250000
vt 0.375000 0.250000
vt 0.493811 0.250000
vt 0.375000 0.250000
vt 0.625000 0.250000
vt 0.375000 0.250000
vt 0.493811 0.250000
vt 0.375000 0.250000
vt 0.375000 0.250000
vt 0.493811 0.250000
vt 0.250000 0.312500
vt 0.375000 0.312500
vt 0.375000 0.250000
vt 0.250000 0.250000
vt 0.375000 0.559517
vt 0.625000 0.559517
vt 0.625000 0.500000
vt 0.375000 0.500000
vt 0.375000 0.333333
vt 0.625000 0.333333
vt 0.625000 0.250000
vt 0.375000 0.250000
vt 0.375000 0.190483
vt 0.625000 0.190483
vt 0.625000 0.000000
vt 0.375000 0.000000
vt 0.684517 0.333333
vt 0.875000 0.333333
vt 0.875000 0.250000
vt 0.684517 0.250000
vt 0.375000 0.312500
vt 0.625000 0.312500
vt 0.625000 0.250000
vt 0.375000 0.250000
vt 0.812500 0.250000
vt 0.812500 0.312500
vt 0.812500 0.312500
vt 0.812500 0.250000
vt 0.375000 0.312500
vt 0.375000 0.250000
vt 0.375000 0.250000
vt 0.375000 0.312500
vt 0.375000 0.576832
vt 0.625000 0.576832
vt 0.625000 0.500000
vt 0.375000 0.500000
vt 0.375000 0.684110
vt 0.375000 0.741837
vt 0.375000 0.750000
vt 0.375000 0.687500
vt 0.375000 0.626407
vt 0.375000 0.511754
vt 0.375000 0.500000
vt 0.375000 0.625000
vt 0.375000 0.511754
vt 0.375000 0.510930
vt 0.375000 0.500000
vt 0.375000 0.500000
vt 0.684517 0.500000
vt 0.875000 0.500000
vt 0.875000 0.416667
vt 0.684517 0.416667
vt 0.684517 0.416667
vt 0.875000 0.416667
vt 0.875000 0.333333
vt 0.684517 0.333333
vt 0.291418 0.274452
vt 0.137949 0.274452
vt 0.137949 0.274452
vt 0.291418 0.274452
vt 0.306292 0.274452
vt 0.138681 0.274452
vt 0.138681 0.274452
vt 0.306292 0.274452
vt 0.375000 0.500000
vt 0.625000 0.500000
vt 0.625000 0.416667
vt 0.375000 0.416667
vt 0.375000 0.416667
vt 0.625000 0.416667
vt 0.625000 0.333333
vt 0.375000 0.333333
vt 0.375000 0.333333
vt 0.625000 0.333333
vt 0.625000 0.250000
vt 0.375000 0.250000
vt 0.375000 0.173168
vt 0.625000 0.173168
vt 0.625000 0.000000
vt 0.375000 0.000000
vt 0.361026 0.475548
vt 0.363050 0.413562
vt 0.363050 0.413562
vt 0.361026 0.475548
vt 0.701832 0.333333
vt 0.875000 0.333333
vt 0.875000 0.250000
vt 0.701832 0.250000
vt 0.701832 0.500000
vt 0.875000 0.500000
vt 0.875000 0.416667
vt 0.701832 0.416667
vt 0.701832 0.416667
vt 0.875000 0.416667
vt 0.875000 0.333333
vt 0.701832 0.333333
vt 0.360270 0.475548
vt 0.362432 0.413562
vt 0.362432 0.413562
vt 0.360270 0.475548
vt 0.375000 0.500000
vt 0.625000 0.500000
vt 0.625000 0.416667
vt 0.375000 0.416667
vt 0.375000 0.416667
vt 0.625000 0.416667
vt 0.625000 0.333333
vt 0.375000 0.333333
vt 0.500000 0.750000
vt 0.625000 0.750000
vt 0.625000 0.500000
vt 0.500000 0.500000
vt 0.500000 0.500000
vt 0.625000 0.500000
vt 0.625000 0.250000
vt 0.500000 0.250000
vt 0.500000 0.250000
vt 0.625000 0.250000
vt 0.625000 0.000000
vt 0.500000 0.000000
vt 0.625000 0.500000
vt 0.875000 0.500000
vt 0.875000 0.250000
vt 0.625000 0.250000
vt 0.375000 0.250000
vt 0.500000 0.250000
vt 0.500000 0.000000
vt 0.375000 0.000000
vt 0.375000 0.500000
vt 0.500000 0.500000
vt 0.500000 0.250000
vt 0.375000 0.250000
vt 0.375000 0.750000
vt 0.500000 0.750000
vt 0.500000 0.500000
vt 0.375000 0.500000
vt 0.375000 0.437500
vt 0.375000 0.375000
vt 0.375000 0.375000
vt 0.375000 0.437500
vt 0.812500 0.312500
vt 0.812500 0.375000
vt 0.812500 0.375000
vt 0.812500 0.312500
vt 0.375000 0.437500
vt 0.625000 0.437500
vt 0.625000 0.375000
vt 0.375000 0.375000
vt 0.250000 0.437500
vt 0.375000 0.437500
vt 0.375000 0.375000
vt 0.250000 0.375000
vt 0.250000 0.500000
vt 0.375000 0.500000
vt 0.375000 0.437500
vt 0.250000 0.437500
vt 0.375000 0.500000
vt 0.625000 0.500000
vt 0.625000 0.437500
vt 0.375000 0.437500
vt 0.812500 0.500000
vt 0.875000 0.500000
vt 0.875000 0.437500
vt 0.812500 0.437500
vt 0.375000 0.500000
vt 0.375000 0.437500
vt 0.375000 0.437500
vt 0.375000 0.500000
vt 0.375000 0.375000
vt 0.375000 0.312500
vt 0.375000 0.312500
vt 0.375000 0.375000
vt 0.812500 0.375000
vt 0.812500 0.437500
vt 0.812500 0.437500
vt 0.812500 0.375000
vt 0.375000 0.375000
vt 0.625000 0.375000
vt 0.625000 0.312500
vt 0.375000 0.312500
vt 0.250000 0.375000
vt 0.375000 0.375000
vt 0.375000 0.312500
vt 0.250000 0.312500
vt 0.187500 0.375000
vt 0.250000 0.375000
vt 0.250000 0.312500
vt 0.187500 0.312500
vt 0.625000 0.375000
vt 0.750000 0.375000
vt 0.750000 0.312500
vt 0.625000 0.312500
vt 0.625000 0.500000
vt 0.750000 0.500000
vt 0.750000 0.437500
vt 0.625000 0.437500
vt 0.187500 0.500000
vt 0.187500 0.437500
vt 0.187500 0.437500
vt 0.250000 0.437500
vt 0.250000 0.375000
vt 0.187500 0.375000
vt 0.625000 0.437500
vt 0.750000 0.437500
vt 0.750000 0.375000
vt 0.625000 0.375000
vt 0.375000 0.683733
vt 0.375000 0.626407
vt 0.375000 0.625000
vt 0.375000 0.687500
vt 0.375000 0.510930
vt 0.375000 0.626383
vt 0.375000 0.625000
vt 0.375000 0.500000
vt 0.375000 0.687500
vt 0.625000 0.687500
vt 0.625000 0.625000
vt 0.375000 0.625000
vt 0.187500 0.312500
vt 0.250000 0.312500
vt 0.250000 0.250000
vt 0.187500 0.250000
vt 0.307433 0.475548
vt 0.138328 0.475548
vt 0.125000 0.500000
vt 0.315483 0.500000
vt 0.362432 0.413562
vt 0.360270 0.475548
vt 0.375000 0.500000
vt 0.375000 0.416667
vt 0.306292 0.274452
vt 0.358662 0.274452
vt 0.375000 0.250000
vt 0.315483 0.250000
vt 0.362432 0.337488
vt 0.375000 0.333333
vt 0.292371 0.475548
vt 0.137634 0.475548
vt 0.125000 0.500000
vt 0.298168 0.500000
vt 0.363050 0.413562
vt 0.361026 0.475548
vt 0.375000 0.500000
vt 0.375000 0.416667
vt 0.291418 0.274452
vt 0.359510 0.274452
vt 0.375000 0.250000
vt 0.298168 0.250000
vt 0.363050 0.337488
vt 0.375000 0.333333
vt 0.362432 0.337488
vt 0.358662 0.274452
vt 0.358662 0.274452
vt 0.362432 0.337488
vt 0.363050 0.337488
vt 0.359510 0.274452
vt 0.359510 0.274452
vt 0.363050 0.337488
vt 0.362432 0.413562
vt 0.362432 0.337488
vt 0.362432 0.337488
vt 0.362432 0.413562
vt 0.363050 0.413562
vt 0.363050 0.337488
vt 0.363050 0.337488
vt 0.363050 0.413562
vt 0.307433 0.475548
vt 0.360270 0.475548
vt 0.360270 0.475548
vt 0.307433 0.475548
vt 0.292371 0.475548
vt 0.361026 0.475548
vt 0.361026 0.475548
vt 0.292371 0.475548
vt 0.125000 0.312500
vt 0.187500 0.312500
vt 0.187500 0.250000
vt 0.125000 0.250000
vt 0.375000 0.750000
vt 0.625000 0.750000
vt 0.625000 0.687500
vt 0.375000 0.687500
vt 0.375000 0.741059
vt 0.375000 0.683733
vt 0.375000 0.687500
vt 0.375000 0.750000
vt 0.125000 0.437500
vt 0.187500 0.375000
vt 0.125000 0.375000
vt 0.125000 0.500000
vt 0.187500 0.312500
vt 0.125000 0.312500
vt 0.750000 0.375000
vt 0.812500 0.375000
vt 0.812500 0.312500
vt 0.750000 0.312500
vt 0.750000 0.500000
vt 0.812500 0.500000
vt 0.812500 0.437500
vt 0.750000 0.437500
vt 0.750000 0.437500
vt 0.812500 0.437500
vt 0.812500 0.375000
vt 0.750000 0.375000
vt 0.375000 0.626383
vt 0.375000 0.625000
vt 0.750000 0.312500
vt 0.812500 0.312500
vt 0.812500 0.250000
vt 0.750000 0.250000
vt 0.812500 0.312500
vt 0.875000 0.312500
vt 0.875000 0.250000
vt 0.812500 0.250000
vt 0.812500 0.437500
vt 0.875000 0.437500
vt 0.875000 0.375000
vt 0.812500 0.375000
vt 0.812500 0.375000
vt 0.875000 0.375000
vt 0.875000 0.312500
vt 0.812500 0.312500
vt 0.000000 1.000000
vt 0.000000 1.000000
vt 0.000000 1.000000
vt 0.000000 1.000000
vt 0.812500 0.437500
vt 0.875000 0.437500
vt 0.875000 0.437500
vt 0.812500 0.437500
vt 0.000000 1.000000
vt 0.000000 1.000000
vt 0.000000 1.000000
vt 0.000000 1.000000
vt 0.000000 1.000000
vt 0.000000 1.000000
vt 0.000000 1.000000
vt 0.000000 1.000000
vt 0.000000 1.000000
vt 0.000000 1.000000
vt 0.078965 0.526212
vt 0.119008 0.523969
vt 0.250000 0.250000
vt 0.375000 0.250000
vt 0.493811 0.250000
vt 0.432037 0.250000
vt 0.595191 0.518392
vt 0.597249 0.606797
vt 0.625000 0.625000
vt 0.625000 0.500000
vt 0.404219 0.517002
vt 0.595191 0.518392
vt 0.625000 0.500000
vt 0.402276 0.608114
vt 0.597249 0.606797
vt 0.402276 0.608114
vt 0.375000 0.625000
vt 0.625000 0.625000
vt 0.137634 0.475548
vt 0.137634 0.475548
vt 0.136950 0.416667
vt 0.293563 0.414516
vt 0.293563 0.336211
vt 0.136950 0.333333
vt 0.137634 0.475548
vt 0.292371 0.475548
vt 0.293563 0.414516
vt 0.136950 0.416667
vt 0.136950 0.333333
vt 0.293563 0.336211
vt 0.291418 0.274452
vt 0.137949 0.274452
vt 0.137949 0.274452
vt 0.125000 0.250000
vt 0.625000 0.416667
vt 0.701832 0.416667
vt 0.701832 0.333333
vt 0.625000 0.333333
vt 0.625000 0.500000
vt 0.701832 0.500000
vt 0.701832 0.416667
vt 0.625000 0.416667
vt 0.625000 0.333333
vt 0.701832 0.333333
vt 0.701832 0.250000
vt 0.625000 0.250000
vt 0.375000 0.250000
vt 0.625000 0.250000
vt 0.625000 0.173168
vt 0.375000 0.173168
vt 0.359510 0.274452
vt 0.359510 0.274452
vt 0.375000 0.750000
vt 0.625000 0.750000
vt 0.625000 0.576832
vt 0.375000 0.576832
vt 0.138328 0.475548
vt 0.138328 0.475548
vt 0.137568 0.416667
vt 0.308899 0.414301
vt 0.308899 0.336499
vt 0.137568 0.333333
vt 0.138328 0.475548
vt 0.307433 0.475548
vt 0.308899 0.414301
vt 0.137568 0.416667
vt 0.137568 0.333333
vt 0.308899 0.336499
vt 0.306292 0.274452
vt 0.138681 0.274452
vt 0.138681 0.274452
vt 0.125000 0.250000
vt 0.358662 0.274452
vt 0.358662 0.274452
vt 0.625000 0.416667
vt 0.684517 0.416667
vt 0.684517 0.333333
vt 0.625000 0.333333
vt 0.625000 0.500000
vt 0.684517 0.500000
vt 0.684517 0.416667
vt 0.625000 0.416667
vt 0.625000 0.333333
vt 0.684517 0.333333
vt 0.684517 0.250000
vt 0.625000 0.250000
vt 0.375000 0.250000
vt 0.625000 0.250000
vt 0.625000 0.190483
vt 0.375000 0.190483
vt 0.375000 0.750000
vt 0.625000 0.750000
vt 0.683408 0.304530
vt 0.682789 0.269555
vt 0.625000 0.250000
vt 0.625000 0.312500
vt 0.719904 0.304482
vt 0.683408 0.304530
vt 0.625000 0.312500
vt 0.750000 0.312500
vt 0.682789 0.269555
vt 0.714995 0.258045
vt 0.750000 0.250000
vt 0.625000 0.250000
vt 0.714995 0.258045
vt 0.719904 0.304482
vt 0.750000 0.312500
vt 0.750000 0.250000
vt 0.119008 0.523969
vt 0.078965 0.526212
vt 0.125000 0.250000
vt 0.187500 0.250000
vt 0.119008 0.523969
vt 0.432037 0.250000
vt 0.750000 0.250000
vt 0.000000 1.000000
vt 0.432037 0.250000
vt 0.493811 0.250000
vt 0.625000 0.250000
vt 0.750000 0.250000
vt 0.250000 0.312500
vt 0.250000 0.250000
vt 0.375000 0.250000
vt 0.375000 0.312500
vt 0.375000 0.559517
vt 0.375000 0.500000
vt 0.625000 0.500000
vt 0.625000 0.559517
vt 0.375000 0.333333
vt 0.375000 0.250000
vt 0.625000 0.250000
vt 0.625000 0.333333
vt 0.375000 0.190483
vt 0.375000 0.000000
vt 0.625000 0.000000
vt 0.625000 0.190483
vt 0.684517 0.333333
vt 0.684517 0.250000
vt 0.875000 0.250000
vt 0.875000 0.333333
vt 0.375000 0.312500
vt 0.375000 0.250000
vt 0.625000 0.250000
vt 0.625000 0.312500
vt 0.812500 0.250000
vt 0.812500 0.250000
vt 0.812500 0.312500
vt 0.812500 0.312500
vt 0.375000 0.312500
vt 0.375000 0.312500
vt 0.375000 0.250000
vt 0.375000 0.250000
vt 0.375000 0.576832
vt 0.375000 0.500000
vt 0.625000 0.500000
vt 0.625000 0.576832
vt 0.375000 0.684110
vt 0.375000 0.687500
vt 0.375000 0.750000
vt 0.375000 0.741837
vt 0.375000 0.626407
vt 0.375000 0.625000
vt 0.375000 0.500000
vt 0.375000 0.511754
vt 0.375000 0.511754
vt 0.375000 0.500000
vt 0.375000 0.500000
vt 0.375000 0.510930
vt 0.684517 0.500000
vt 0.684517 0.416667
vt 0.875000 0.416667
vt 0.875000 0.500000
vt 0.684517 0.416667
vt 0.684517 0.333333
vt 0.875000 0.333333
vt 0.875000 0.416667
vt 0.291418 0.274452
vt 0.291418 0.274452
vt 0.306292 0.274452
vt 0.306292 0.274452
vt 0.138681 0.274452
vt 0.138681 0.274452
vt 0.375000 0.500000
vt 0.375000 0.416667
vt 0.625000 0.416667
vt 0.625000 0.500000
vt 0.375000 0.416667
vt 0.375000 0.333333
vt 0.625000 0.333333
vt 0.625000 0.416667
vt 0.375000 0.333333
vt 0.375000 0.250000
vt 0.625000 0.250000
vt 0.625000 0.333333
vt 0.375000 0.173168
vt 0.625000 0.173168
vt 0.361026 0.475548
vt 0.361026 0.475548
vt 0.363050 0.413562
vt 0.363050 0.413562
vt 0.701832 0.333333
vt 0.701832 0.250000
vt 0.875000 0.250000
vt 0.875000 0.333333
vt 0.701832 0.500000
vt 0.701832 0.416667
vt 0.875000 0.416667
vt 0.875000 0.500000
vt 0.701832 0.416667
vt 0.701832 0.333333
vt 0.875000 0.333333
vt 0.875000 0.416667
vt 0.360270 0.475548
vt 0.360270 0.475548
vt 0.362432 0.413562
vt 0.362432 0.413562
vt 0.375000 0.500000
vt 0.375000 0.416667
vt 0.625000 0.416667
vt 0.625000 0.500000
vt 0.375000 0.416667
vt 0.375000 0.333333
vt 0.625000 0.333333
vt 0.625000 0.416667
vt 0.500000 0.500000
vt 0.625000 0.500000
vt 0.625000 0.750000
vt 0.500000 0.500000
vt 0.500000 0.250000
vt 0.625000 0.250000
vt 0.625000 0.500000
vt 0.500000 0.250000
vt 0.500000 0.000000
vt 0.625000 0.000000
vt 0.625000 0.250000
vt 0.625000 0.500000
vt 0.625000 0.250000
vt 0.375000 0.250000
vt 0.375000 0.000000
vt 0.500000 0.000000
vt 0.500000 0.250000
vt 0.375000 0.500000
vt 0.375000 0.250000
vt 0.500000 0.250000
vt 0.500000 0.500000
vt 0.375000 0.500000
vt 0.375000 0.437500
vt 0.375000 0.437500
vt 0.375000 0.375000
vt 0.375000 0.375000
vt 0.812500 0.312500
vt 0.812500 0.312500
vt 0.812500 0.375000
vt 0.812500 0.375000
vt 0.375000 0.437500
vt 0.375000 0.375000
vt 0.625000 0.375000
vt 0.625000 0.437500
vt 0.250000 0.437500
vt 0.250000 0.375000
vt 0.375000 0.375000
vt 0.375000 0.437500
vt 0.250000 0.500000
vt 0.250000 0.437500
vt 0.375000 0.437500
vt 0.375000 0.500000
vt 0.375000 0.500000
vt 0.375000 0.437500
vt 0.625000 0.437500
vt 0.625000 0.500000
vt 0.812500 0.500000
vt 0.812500 0.437500
vt 0.875000 0.437500
vt 0.875000 0.500000
vt 0.375000 0.500000
vt 0.375000 0.500000
vt 0.375000 0.437500
vt 0.375000 0.437500
vt 0.375000 0.375000
vt 0.375000 0.375000
vt 0.375000 0.312500
vt 0.375000 0.312500
vt 0.812500 0.375000
vt 0.812500 0.375000
vt 0.812500 0.437500
vt 0.812500 0.437500
vt 0.375000 0.375000
vt 0.375000 0.312500
vt 0.625000 0.312500
vt 0.625000 0.375000
vt 0.250000 0.375000
vt 0.250000 0.312500
vt 0.375000 0.312500
vt 0.375000 0.375000
vt 0.187500 0.375000
vt 0.187500 0.312500
vt 0.250000 0.312500
vt 0.250000 0.375000
vt 0.625000 0.375000
vt 0.625000 0.312500
vt 0.750000 0.312500
vt 0.750000 0.375000
vt 0.625000 0.500000
vt 0.625000 0.437500
vt 0.750000 0.437500
vt 0.750000 0.500000
vt 0.187500 0.500000
vt 0.187500 0.437500
vt 0.187500 0.375000
vt 0.625000 0.437500
vt 0.625000 0.375000
vt 0.750000 0.375000
vt 0.750000 0.437500
vt 0.375000 0.683733
vt 0.375000 0.687500
vt 0.375000 0.625000
vt 0.375000 0.626407
vt 0.375000 0.510930
vt 0.375000 0.500000
vt 0.375000 0.625000
vt 0.375000 0.626383
vt 0.375000 0.687500
vt 0.375000 0.625000
vt 0.625000 0.625000
vt 0.625000 0.687500
vt 0.187500 0.312500
vt 0.187500 0.250000
vt 0.250000 0.250000
vt 0.250000 0.312500
vt 0.307433 0.475548
vt 0.315483 0.500000
vt 0.125000 0.500000
vt 0.138328 0.475548
vt 0.362432 0.413562
vt 0.375000 0.416667
vt 0.375000 0.500000
vt 0.360270 0.475548
vt 0.306292 0.274452
vt 0.315483 0.250000
vt 0.375000 0.250000
vt 0.358662 0.274452
vt 0.375000 0.333333
vt 0.362432 0.337488
vt 0.292371 0.475548
vt 0.298168 0.500000
vt 0.363050 0.413562
vt 0.375000 0.416667
vt 0.375000 0.500000
vt 0.361026 0.475548
vt 0.291418 0.274452
vt 0.298168 0.250000
vt 0.375000 0.250000
vt 0.359510 0.274452
vt 0.375000 0.333333
vt 0.363050 0.337488
vt 0.362432 0.337488
vt 0.362432 0.337488
vt 0.358662 0.274452
vt 0.358662 0.274452
vt 0.363050 0.337488
vt 0.363050 0.337488
vt 0.359510 0.274452
vt 0.359510 0.274452
vt 0.362432 0.413562
vt 0.362432 0.413562
vt 0.362432 0.337488
vt 0.362432 0.337488
vt 0.363050 0.413562
vt 0.363050 0.413562
vt 0.363050 0.337488
vt 0.363050 0.337488
vt 0.307433 0.475548
vt 0.307433 0.475548
vt 0.360270 0.475548
vt 0.360270 0.475548
vt 0.292371 0.475548
vt 0.292371 0.475548
vt 0.361026 0.475548
vt 0.361026 0.475548
vt 0.125000 0.312500
vt 0.125000 0.250000
vt 0.187500 0.250000
vt 0.187500 0.312500
vt 0.375000 0.750000
vt 0.625000 0.750000
vt 0.375000 0.741059
vt 0.375000 0.750000
vt 0.375000 0.687500
vt 0.375000 0.683733
vt 0.125000 0.437500
vt 0.125000 0.375000
vt 0.125000 0.500000
vt 0.125000 0.312500
vt 0.187500 0.312500
vt 0.750000 0.375000
vt 0.750000 0.312500
vt 0.812500 0.312500
vt 0.812500 0.375000
vt 0.750000 0.500000
vt 0.750000 0.437500
vt 0.812500 0.437500
vt 0.812500 0.500000
vt 0.750000 0.437500
vt 0.750000 0.375000
vt 0.812500 0.375000
vt 0.812500 0.437500
vt 0.375000 0.626383
vt 0.375000 0.625000
vt 0.375000 0.687500
vt 0.375000 0.684110
vt 0.750000 0.312500
vt 0.750000 0.250000
vt 0.812500 0.250000
vt 0.812500 0.312500
vt 0.812500 0.312500
vt 0.812500 0.250000
vt 0.875000 0.250000
vt 0.875000 0.312500
vt 0.812500 0.437500
vt 0.812500 0.375000
vt 0.875000 0.375000
vt 0.875000 0.437500
vt 0.812500 0.375000
vt 0.812500 0.312500
vt 0.875000 0.312500
vt 0.875000 0.375000
vt 0.000000 1.000000
vt 0.000000 1.000000
vt 0.000000 1.000000
vt 0.000000 1.000000
vt 0.812500 0.437500
vt 0.812500 0.437500
vt 0.875000 0.437500
vt 0.875000 0.437500
vt 0.000000 1.000000
vt 0.000000 1.000000
vt 0.000000 1.000000
vt 0.000000 1.000000
vt 0.000000 1.000000
vt 0.000000 1.000000
vt 0.000000 1.000000
vt 0.000000 1.000000
vt 0.000000 1.000000
vt 0.000000 1.000000
vt 0.000000 1.000000
vt 0.000000 1.000000
vt 0.000000 1.000000
vt 0.119008 0.523969
vt 0.078965 0.526212
vt 0.000000 1.000000
vt 0.250000 0.250000
vt 0.432037 0.250000
vt 0.493811 0.250000
vt 0.375000 0.250000
vt 0.595191 0.518392
vt 0.625000 0.500000
vt 0.625000 0.625000
vt 0.597249 0.606797
vt 0.404219 0.517002
vt 0.625000 0.500000
vt 0.595191 0.518392
vt 0.402276 0.608114
vt 0.375000 0.625000
vt 0.375000 0.500000
vt 0.404219 0.517002
vt 0.597249 0.606797
vt 0.625000 0.625000
vt 0.375000 0.625000
vt 0.402276 0.608114
vt 0.136950 0.416667
vt 0.136950 0.333333
vt 0.293563 0.336211
vt 0.293563 0.414516
vt 0.137634 0.475548
vt 0.136950 0.416667
vt 0.293563 0.414516
vt 0.292371 0.475548
vt 0.291418 0.274452
vt 0.293563 0.336211
vt 0.625000 0.416667
vt 0.625000 0.333333
vt 0.701832 0.333333
vt 0.701832 0.416667
vt 0.625000 0.500000
vt 0.625000 0.416667
vt 0.701832 0.416667
vt 0.701832 0.500000
vt 0.625000 0.333333
vt 0.625000 0.250000
vt 0.701832 0.250000
vt 0.701832 0.333333
vt 0.375000 0.250000
vt 0.375000 0.173168
vt 0.625000 0.173168
vt 0.625000 0.250000
vt 0.359510 0.274452
vt 0.359510 0.274452
vt 0.375000 0.576832
vt 0.625000 0.576832
vt 0.138328 0.475548
vt 0.138328 0.475548
vt 0.137568 0.416667
vt 0.137568 0.333333
vt 0.308899 0.336499
vt 0.308899 0.414301
vt 0.138328 0.475548
vt 0.137568 0.416667
vt 0.308899 0.414301
vt 0.307433 0.475548
vt 0.138681 0.274452
vt 0.306292 0.274452
vt 0.138681 0.274452
vt 0.125000 0.250000
vt 0.358662 0.274452
vt 0.358662 0.274452
vt 0.625000 0.416667
vt 0.625000 0.333333
vt 0.684517 0.333333
vt 0.684517 0.416667
vt 0.625000 0.500000
vt 0.625000 0.416667
vt 0.684517 0.416667
vt 0.684517 0.500000
vt 0.625000 0.333333
vt 0.625000 0.250000
vt 0.684517 0.250000
vt 0.684517 0.333333
vt 0.375000 0.250000
vt 0.375000 0.190483
vt 0.625000 0.190483
vt 0.625000 0.250000
vt 0.375000 0.750000
vt 0.625000 0.750000
vt 0.683408 0.304530
vt 0.625000 0.312500
vt 0.625000 0.250000
vt 0.682789 0.269555
vt 0.719904 0.304482
vt 0.750000 0.312500
vt 0.625000 0.312500
vt 0.683408 0.304530
vt 0.682789 0.269555
vt 0.625000 0.250000
vt 0.750000 0.250000
vt 0.714995 0.258045
vt 0.714995 0.258045
vt 0.750000 0.250000
vt 0.750000 0.312500
vt 0.719904 0.304482
vt 0.119008 0.523969
vt 0.187500 0.250000
vt 0.125000 0.250000
vt 0.078965 0.526212
vt 0.119008 0.523969
vt 0.000000 1.000000
vt 0.750000 0.250000
vt 0.432037 0.250000
vt 0.432037 0.250000
vt 0.750000 0.250000
vt 0.625000 0.250000
vt 0.493811 0.250000
s 0
usemtl Black
f 1/1/1 2/2/1 3/3/1
f 4/4/2 5/5/2 6/6/2
f 7/7/3 8/8/3 9/9/3
f 10/10/4 11/11/4 12/12/4
s 1
f 13/13/5 14/14/5 15/15/6
f 13/13/5 15/15/6 16/16/6
s 0
f 17/17/7 18/18/7 19/19/7
f 17/17/7 19/19/7 20/20/7
f 21/21/8 22/22/8 23/23/8
f 21/21/8 23/23/8 24/24/8
f 25/25/9 26/26/9 27/27/9
f 25/25/9 27/27/9 28/28/9
s 1
f 29/29/10 30/30/10 31/31/10
f 29/29/10 31/31/10 32/32/10
f 33/33/11 34/34/11 35/35/12
f 33/33/11 35/35/12 36/36/11
f 37/37/13 38/38/13 39/39/13
f 37/37/13 39/39/13 40/40/13
f 41/41/14 42/42/14 43/43/15
f 41/41/14 43/43/15 44/44/14
s 0
f 45/45/7 46/46/7 47/47/7
f 45/45/7 47/47/7 48/48/7
f 49/49/7 50/50/7 51/51/7
f 49/49/7 51/51/7 52/52/7
f 53/53/7 54/54/7 55/55/7
f 53/53/7 55/55/7 56/56/7
f 57/57/7 58/58/7 59/59/7
f 57/57/7 59/59/7 60/60/7
s 1
f 61/61/16 62/62/16 63/63/17
f 61/61/16 63/63/17 64/64/16
s 0
f 65/65/18 66/66/18 67/67/18
f 65/65/18 67/67/18 68/68/18
f 69/69/7 70/70/7 71/71/7
f 69/69/7 71/71/7 72/72/7
f 73/73/7 74/74/7 75/75/7
f 73/73/7 75/75/7 76/76/7
f 77/77/19 78/78/19 79/79/19
f 77/77/19 79/79/19 80/80/19
f 81/81/20 82/82/20 83/83/20
f 81/81/20 83/83/20 84/84/20
f 85/85/8 86/86/8 87/87/8
f 85/85/8 87/87/8 88/88/8
f 89/89/9 90/90/9 91/91/9
f 89/89/9 91/91/9 92/92/9
f 93/93/21 94/94/21 95/95/21
f 93/93/21 95/95/21 96/96/21
s 1
f 97/97/22 98/98/22 99/99/23
f 97/97/22 99/99/23 100/100/22
f 101/101/24 102/102/24 103/103/24
f 101/101/24 103/103/24 104/104/24
s 0
f 105/105/25 106/106/25 107/107/25
f 105/105/25 107/107/25 108/108/25
f 109/109/21 110/110/21 111/111/21
f 109/109/21 111/111/21 112/112/21
f 113/113/19 114/114/19 115/115/19
f 113/113/19 115/115/19 116/116/19
f 117/117/20 118/118/20 119/119/20
f 117/117/20 119/119/20 120/120/20
f 121/121/7 122/122/7 123/123/7
f 121/121/7 123/123/7 124/124/7
f 125/125/26 126/126/26 127/127/26
f 125/125/26 127/127/26 128/128/26
s 1
f 129/129/27 130/130/27 131/131/27
f 129/129/27 131/131/27 132/132/27
s 0
f 133/133/28 134/134/28 135/135/28
f 133/133/28 135/135/28 136/136/28
s 1
f 137/137/29 138/138/29 139/139/29
f 137/137/29 139/139/29 140/140/29
s 0
f 141/141/30 142/142/30 143/143/30
f 141/141/30 143/143/30 144/144/30
f 145/145/7 146/146/7 147/147/7
f 145/145/7 147/147/7 148/148/7
f 149/149/31 150/150/31 151/151/31
f 149/149/31 151/151/31 152/152/31
f 153/153/32 154/154/32 155/155/32
f 153/153/32 155/155/32 156/156/32
s 1
f 157/157/33 158/158/34 159/159/35
f 157/157/33 159/159/35 160/160/36
s 0
f 161/161/37 162/162/37 163/163/37
f 161/161/37 163/163/37 164/164/37
f 165/165/37 166/166/37 167/167/37
f 165/165/37 167/167/37 168/168/37
s 1
f 169/169/38 170/170/39 171/171/39
f 169/169/38 171/171/39 172/172/39
f 173/173/40 174/174/40 175/175/40
f 173/173/40 175/175/40 176/176/40
s 0
f 177/177/31 178/178/31 179/179/31
f 177/177/31 179/179/31 180/180/31
s 1
f 181/181/41 182/182/41 183/183/41
f 181/181/41 183/183/41 184/184/41
s 0
f 185/185/42 186/186/42 187/187/42
f 185/185/42 187/187/42 188/188/42
s 1
f 189/189/43 190/190/43 191/191/44
f 189/189/43 191/191/44 192/192/43
s 0
f 193/193/37 194/194/37 195/195/37
f 193/193/37 195/195/37 196/196/37
f 197/197/37 198/198/37 199/199/37
f 197/197/37 199/199/37 200/200/37
s 1
f 201/201/45 202/202/45 203/203/45
f 201/201/45 203/203/45 204/204/46
f 205/205/47 206/206/48 207/207/48
f 205/205/47 207/207/48 208/208/47
s 0
f 209/209/37 165/165/37 168/168/37
f 209/209/37 168/168/37 210/210/37
f 211/211/37 212/212/37 213/213/37
f 211/211/37 213/213/37 214/214/37
f 215/215/49 216/216/49 217/217/49
f 215/215/49 217/217/49 218/218/49
f 219/219/7 220/220/7 221/221/7
f 219/219/7 221/221/7 222/222/7
f 223/223/7 224/224/7 225/225/7
f 223/223/7 225/225/7 226/226/7
f 227/227/7 228/228/7 229/229/7
f 227/227/7 229/229/7 230/230/7
s 1
f 231/231/50 232/232/50 233/233/50
f 231/231/50 233/233/50 234/234/50
s 0
f 235/235/37 236/236/37 237/237/37
f 235/235/37 237/237/37 238/238/37
f 239/239/37 240/240/37 241/241/37
f 239/239/37 241/241/37 242/242/37
f 243/243/37 244/244/37 245/245/37
f 243/243/37 245/245/37 246/246/37
f 244/244/37 247/247/37 248/248/37
f 244/244/37 248/248/37 245/245/37
f 247/247/37 239/239/37 242/242/37
f 247/247/37 242/242/37 248/248/37
f 249/249/37 250/250/37 251/251/37
f 249/249/37 251/251/37 252/252/37
f 253/253/37 254/254/37 255/255/37
f 253/253/37 255/255/37 256/256/37
f 257/257/37 258/258/37 259/259/37
f 257/257/37 259/259/37 260/260/37
f 258/258/37 261/261/37 262/262/37
f 258/258/37 262/262/37 259/259/37
f 261/261/37 253/253/37 256/256/37
f 261/261/37 256/256/37 262/262/37
f 263/263/51 264/264/51 265/265/51
f 263/263/51 265/265/51 266/266/51
f 267/267/51 268/268/51 269/269/51
f 267/267/51 269/269/51 270/270/51
f 271/271/52 272/272/52 273/273/52
f 271/271/52 273/273/52 274/274/52
f 275/275/52 276/276/52 277/277/52
f 275/275/52 277/277/52 278/278/52
f 279/279/9 280/280/9 281/281/9
f 279/279/9 281/281/9 282/282/9
f 283/283/9 284/284/9 285/285/9
f 283/283/9 285/285/9 286/286/9
f 287/287/53 288/288/53 289/289/53
f 287/287/53 289/289/53 290/290/53
f 291/291/7 292/292/7 293/293/7
f 291/291/7 293/293/7 294/294/7
f 295/295/7 296/296/7 297/297/7
f 295/295/7 297/297/7 298/298/7
f 299/299/37 210/210/37 300/300/37
f 299/299/37 300/300/37 301/301/37
f 302/302/37 209/209/37 210/210/37
f 302/302/37 210/210/37 299/299/37
f 301/301/37 300/300/37 303/303/37
f 301/301/37 303/303/37 304/304/37
s 1
f 305/305/54 306/306/54 307/307/54
f 305/305/54 307/307/54 308/308/54
f 309/309/55 310/310/55 311/311/55
f 309/309/55 311/311/55 312/312/55
f 313/313/56 314/314/57 315/315/58
f 313/313/56 315/315/58 316/316/56
s 0
f 317/317/7 49/49/7 52/52/7
f 317/317/7 52/52/7 318/318/7
s 1
f 319/319/59 320/320/59 321/321/59
f 319/319/59 321/321/59 322/322/59
f 323/323/60 324/324/61 325/325/61
f 323/323/60 325/325/61 326/326/61
f 327/327/62 328/328/63 329/329/64
f 327/327/62 329/329/64 330/330/65
f 331/331/66 332/332/66 333/333/66
f 331/331/66 333/333/66 334/334/66
f 335/335/67 336/336/67 337/337/68
f 335/335/67 337/337/68 338/338/67
s 0
f 339/339/69 340/340/69 341/341/69
f 339/339/70 341/341/70 342/342/70
s 1
f 343/343/71 344/344/71 345/345/71
f 343/343/71 345/345/71 346/346/71
f 347/347/72 348/348/72 349/349/72
f 347/347/72 349/349/72 350/350/72
f 351/351/73 352/352/73 353/353/73
f 351/351/73 353/353/73 354/354/73
f 355/355/74 356/356/74 357/357/74
f 355/355/74 357/357/74 358/358/74
s 0
f 359/359/7 360/360/7 361/361/7
f 359/359/7 361/361/7 362/362/7
f 363/363/7 364/364/7 365/365/7
f 363/363/7 365/365/7 59/59/7
f 366/366/7 363/363/7 59/59/7
f 366/366/7 59/59/7 318/318/7
f 367/367/7 368/368/7 369/369/7
f 367/367/7 369/369/7 370/370/7
f 371/371/9 283/283/9 286/286/9
f 371/371/9 286/286/9 372/372/9
f 373/373/37 374/374/37 375/375/37
f 373/373/37 375/375/37 376/376/37
f 377/377/37 378/378/37 379/379/37
f 377/377/37 379/379/37 380/380/37
f 381/381/37 382/382/37 383/383/37
f 381/381/37 383/383/37 384/384/37
f 385/385/37 257/257/37 260/260/37
f 385/385/37 260/260/37 386/386/37
f 254/254/37 249/249/37 252/252/37
f 254/254/37 252/252/37 255/255/37
f 387/387/75 388/388/75 389/389/75
f 387/387/75 389/389/75 390/390/75
s 1
f 391/391/76 392/392/76 393/393/76
f 391/391/76 393/393/76 394/394/76
f 395/395/77 396/396/77 397/397/77
f 395/395/77 397/397/77 398/398/77
s 0
f 399/399/9 400/400/9 401/401/9
f 399/399/9 401/401/9 402/402/9
f 403/403/7 69/69/7 72/72/7
f 403/403/7 72/72/7 404/404/7
f 405/405/7 406/406/7 407/407/7
f 405/405/7 407/407/7 408/408/7
f 409/409/9 279/279/9 282/282/9
f 409/409/9 282/282/9 410/410/9
f 411/411/37 412/412/37 413/413/37
f 411/411/37 413/413/37 414/414/37
f 415/415/37 416/416/37 417/417/37
f 415/415/37 417/417/37 418/418/37
f 419/419/37 420/420/37 421/421/37
f 419/419/37 421/421/37 422/422/37
f 423/423/37 243/243/37 246/246/37
f 423/423/37 246/246/37 424/424/37
f 240/240/37 235/235/37 238/238/37
f 240/240/37 238/238/37 241/241/37
f 425/425/7 73/73/7 76/76/7
f 425/425/7 76/76/7 426/426/7
f 427/427/78 428/428/78 429/429/78
f 427/427/78 429/429/78 430/430/78
s 1
f 431/431/79 432/432/79 433/433/79
f 431/431/79 433/433/79 434/434/79
f 435/435/80 436/436/81 437/437/80
f 435/435/80 437/437/80 438/438/80
s 0
f 439/439/9 440/440/9 441/441/9
f 439/439/9 441/441/9 442/442/9
f 443/443/7 444/444/7 18/18/7
f 443/443/7 18/18/7 17/17/7
s 1
f 445/445/82 446/446/83 447/447/84
f 445/445/82 447/447/84 448/448/83
f 449/449/85 450/450/85 451/451/85
f 449/449/85 451/451/85 452/452/85
f 453/453/86 454/454/87 455/455/86
f 453/453/86 455/455/86 456/456/86
f 457/457/88 458/458/88 459/459/88
f 457/457/88 459/459/88 460/460/88
f 461/461/89 462/462/90 463/463/91
f 461/461/89 463/463/91 464/464/90
f 465/465/92 466/466/92 467/467/92
f 465/465/92 467/467/92 468/468/92
f 469/469/93 470/470/93 471/471/93
f 469/469/93 471/471/93 472/472/93
f 473/473/94 474/474/95 475/475/95
f 473/473/94 475/475/95 476/476/94
s 0
f 477/477/7 478/478/7 479/479/7
f 477/477/7 479/479/7 480/480/7
f 481/481/96 482/482/96 483/483/96
f 481/481/96 483/483/96 484/484/96
f 485/485/9 486/486/9 487/487/9
f 485/485/9 487/487/9 488/488/9
s 1
f 489/489/97 490/490/97 491/491/97
f 489/489/97 491/491/97 492/492/97
f 493/493/98 494/494/98 495/495/99
f 493/493/98 495/495/99 496/496/98
f 497/497/100 498/498/100 499/499/100
f 497/497/100 499/499/100 500/500/100
f 501/501/101 502/502/101 503/503/102
f 501/501/101 503/503/102 504/504/101
s 0
f 505/505/7 506/506/7 507/507/7
f 505/505/7 507/507/7 508/508/7
f 509/509/7 510/510/7 511/511/7
f 509/509/7 511/511/7 512/512/7
f 513/513/7 514/514/7 515/515/7
f 513/513/7 515/515/7 516/516/7
f 517/517/7 518/518/7 519/519/7
f 517/517/7 519/519/7 520/520/7
s 1
f 521/521/103 522/522/103 523/523/104
f 521/521/103 523/523/104 524/524/103
s 0
f 525/525/105 526/526/105 527/527/105
f 525/525/105 527/527/105 528/528/105
f 529/529/7 530/530/7 71/71/7
f 529/529/7 71/71/7 70/70/7
f 531/531/7 532/532/7 533/533/7
f 531/531/7 533/533/7 534/534/7
f 535/535/106 536/536/106 537/537/106
f 535/535/106 537/537/106 538/538/106
f 539/539/107 540/540/107 541/541/107
f 539/539/107 541/541/107 542/542/107
f 543/543/96 544/544/96 545/545/96
f 543/543/96 545/545/96 546/546/96
f 547/547/9 92/92/9 91/91/9
f 547/547/9 91/91/9 548/548/9
f 549/549/108 550/550/108 551/551/108
f 549/549/108 551/551/108 552/552/108
s 1
f 553/553/109 554/554/109 555/555/110
f 553/553/109 555/555/110 556/556/109
f 557/557/111 558/558/112 559/559/112
f 557/557/111 559/559/112 560/560/112
s 0
f 561/561/113 562/562/113 563/563/113
f 561/561/113 563/563/113 564/564/113
f 565/565/108 566/566/108 567/567/108
f 565/565/108 567/567/108 568/568/108
f 569/569/106 570/570/106 571/571/106
f 569/569/106 571/571/106 572/572/106
f 573/573/107 574/574/107 575/575/107
f 573/573/107 575/575/107 576/576/107
f 146/146/7 577/577/7 578/578/7
f 146/146/7 578/578/7 579/579/7
f 580/580/114 581/581/114 582/582/114
f 580/580/114 582/582/114 583/583/114
s 1
f 584/584/115 585/585/115 586/586/115
f 584/584/115 586/586/115 587/587/115
s 0
f 588/588/28 589/589/28 135/135/28
f 588/588/28 135/135/28 134/134/28
s 1
f 590/590/116 591/591/116 592/592/116
f 590/590/116 592/592/116 593/593/116
s 0
f 594/594/117 595/595/117 596/596/117
f 594/594/117 596/596/117 597/597/117
f 145/145/7 598/598/7 577/577/7
f 145/145/7 577/577/7 146/146/7
f 599/599/118 600/600/118 601/601/118
f 599/599/118 601/601/118 602/602/118
f 603/603/119 604/604/119 605/605/119
f 603/603/119 605/605/119 606/606/119
s 1
f 607/607/120 608/608/121 609/609/122
f 607/607/120 609/609/122 610/610/123
s 0
f 611/611/37 612/612/37 613/613/37
f 611/611/37 613/613/37 614/614/37
f 615/615/37 616/616/37 617/617/37
f 615/615/37 617/617/37 618/618/37
s 1
f 619/619/124 620/620/125 621/621/125
f 619/619/124 621/621/125 622/622/125
f 623/623/126 624/624/126 625/625/126
f 623/623/126 625/625/126 626/626/126
s 0
f 627/627/118 628/628/118 629/629/118
f 627/627/118 629/629/118 630/630/118
s 1
f 631/631/127 632/632/127 633/633/127
f 631/631/127 633/633/127 634/634/127
s 0
f 635/635/128 636/636/128 637/637/128
f 635/635/128 637/637/128 638/638/128
s 1
f 639/639/129 640/640/129 641/641/130
f 639/639/129 641/641/130 642/642/129
s 0
f 643/643/37 644/644/37 645/645/37
f 643/643/37 645/645/37 646/646/37
f 647/647/37 648/648/37 649/649/37
f 647/647/37 649/649/37 650/650/37
s 1
f 651/651/131 652/652/132 653/653/131
f 651/651/131 653/653/131 654/654/131
f 655/655/133 656/656/133 657/657/134
f 655/655/133 657/657/134 658/658/134
s 0
f 659/659/37 660/660/37 616/616/37
f 659/659/37 616/616/37 615/615/37
f 660/660/37 661/661/37 643/643/37
f 660/660/37 643/643/37 616/616/37
f 662/662/135 663/663/135 664/664/135
f 662/662/135 664/664/135 665/665/135
f 666/666/7 667/667/7 668/668/7
f 666/666/7 668/668/7 669/669/7
f 670/670/7 671/671/7 672/672/7
f 670/670/7 672/672/7 673/673/7
f 674/674/7 675/675/7 676/676/7
f 674/674/7 676/676/7 677/677/7
s 1
f 678/678/136 679/679/136 680/680/136
f 678/678/136 680/680/136 681/681/136
s 0
f 682/682/37 683/683/37 684/684/37
f 682/682/37 684/684/37 685/685/37
f 686/686/37 687/687/37 688/688/37
f 686/686/37 688/688/37 689/689/37
f 690/690/37 691/691/37 692/692/37
f 690/690/37 692/692/37 693/693/37
f 693/693/37 692/692/37 694/694/37
f 693/693/37 694/694/37 695/695/37
f 695/695/37 694/694/37 687/687/37
f 695/695/37 687/687/37 686/686/37
f 696/696/37 697/697/37 251/251/37
f 696/696/37 251/251/37 250/250/37
f 698/698/37 699/699/37 700/700/37
f 698/698/37 700/700/37 701/701/37
f 702/702/37 703/703/37 704/704/37
f 702/702/37 704/704/37 705/705/37
f 705/705/37 704/704/37 706/706/37
f 705/705/37 706/706/37 707/707/37
f 707/707/37 706/706/37 699/699/37
f 707/707/37 699/699/37 698/698/37
f 708/708/137 709/709/137 710/710/137
f 708/708/137 710/710/137 711/711/137
f 712/712/137 713/713/137 714/714/137
f 712/712/137 714/714/137 715/715/137
f 716/716/138 717/717/138 718/718/138
f 716/716/138 718/718/138 719/719/138
f 720/720/138 721/721/138 722/722/138
f 720/720/138 722/722/138 723/723/138
f 724/724/9 725/725/9 726/726/9
f 724/724/9 726/726/9 727/727/9
f 728/728/9 729/729/9 730/730/9
f 728/728/9 730/730/9 731/731/9
f 732/732/53 733/733/53 734/734/53
f 732/732/53 734/734/53 735/735/53
f 736/736/7 674/674/7 677/677/7
f 736/736/7 677/677/7 737/737/7
f 738/738/7 739/739/7 740/740/7
f 738/738/7 740/740/7 741/741/7
f 742/742/37 743/743/37 661/661/37
f 742/742/37 661/661/37 660/660/37
f 744/744/37 742/742/37 660/660/37
f 744/744/37 660/660/37 659/659/37
f 743/743/37 745/745/37 746/746/37
f 743/743/37 746/746/37 661/661/37
s 1
f 747/747/139 748/748/140 749/749/140
f 747/747/139 749/749/140 750/750/139
f 751/751/141 752/752/141 753/753/141
f 751/751/141 753/753/141 754/754/141
f 755/755/142 756/756/142 757/757/143
f 755/755/142 757/757/143 758/758/144
s 0
f 759/759/7 760/760/7 761/761/7
f 759/759/7 761/761/7 762/762/7
s 1
f 763/763/145 764/764/145 765/765/145
f 763/763/145 765/765/145 766/766/145
f 767/767/146 768/768/147 769/769/147
f 767/767/146 769/769/147 770/770/147
f 771/771/148 772/772/149 773/773/150
f 771/771/148 773/773/150 774/774/151
f 775/775/152 776/776/152 777/777/152
f 775/775/152 777/777/152 778/778/152
f 779/779/153 780/780/153 781/781/154
f 779/779/153 781/781/154 782/782/153
s 0
f 783/783/155 784/784/155 785/785/155
f 783/783/156 785/785/156 786/786/156
s 1
f 787/787/157 788/788/157 789/789/157
f 787/787/157 789/789/157 790/790/157
f 791/791/158 792/792/158 793/793/158
f 791/791/158 793/793/158 794/794/158
s 0
f 795/795/138 796/796/138 797/797/138
f 795/795/138 797/797/138 798/798/138
s 1
f 799/799/159 800/800/159 801/801/159
f 799/799/159 801/801/159 802/802/159
f 803/803/160 804/804/160 805/805/160
f 803/803/160 805/805/160 806/806/160
s 0
f 807/807/7 808/808/7 809/809/7
f 807/807/7 809/809/7 810/810/7
f 811/811/7 519/519/7 812/812/7
f 811/811/7 812/812/7 813/813/7
f 814/814/7 815/815/7 816/816/7
f 814/814/7 816/816/7 817/817/7
f 818/818/7 819/819/7 820/820/7
f 818/818/7 820/820/7 821/821/7
f 371/371/9 372/372/9 729/729/9
f 371/371/9 729/729/9 728/728/9
f 822/822/37 823/823/37 824/824/37
f 822/822/37 824/824/37 825/825/37
f 826/826/37 827/827/37 828/828/37
f 826/826/37 828/828/37 829/829/37
f 381/381/37 384/384/37 830/830/37
f 381/381/37 830/830/37 831/831/37
f 385/385/37 386/386/37 703/703/37
f 385/385/37 703/703/37 702/702/37
f 701/701/37 700/700/37 697/697/37
f 701/701/37 697/697/37 696/696/37
f 832/832/161 833/833/161 834/834/161
f 832/832/161 834/834/161 835/835/161
s 1
f 836/836/162 837/837/162 838/838/162
f 836/836/162 838/838/162 839/839/162
f 840/840/163 841/841/163 842/842/163
f 840/840/163 842/842/163 843/843/163
s 0
f 844/844/9 845/845/9 846/846/9
f 844/844/9 846/846/9 847/847/9
f 848/848/7 849/849/7 530/530/7
f 848/848/7 530/530/7 529/529/7
f 405/405/7 850/850/7 851/851/7
f 405/405/7 851/851/7 406/406/7
f 852/852/9 853/853/9 725/725/9
f 852/852/9 725/725/9 724/724/9
f 854/854/37 855/855/37 856/856/37
f 854/854/37 856/856/37 857/857/37
f 858/858/37 859/859/37 860/860/37
f 858/858/37 860/860/37 861/861/37
f 855/855/37 862/862/37 863/863/37
f 855/855/37 863/863/37 856/856/37
f 864/864/37 865/865/37 691/691/37
f 864/864/37 691/691/37 690/690/37
f 689/689/37 688/688/37 683/683/37
f 689/689/37 683/683/37 682/682/37
f 866/866/7 867/867/7 532/532/7
f 866/866/7 532/532/7 531/531/7
f 868/868/164 869/869/164 870/870/164
f 868/868/164 870/870/164 871/871/164
s 1
f 872/872/165 873/873/165 874/874/166
f 872/872/165 874/874/166 875/875/165
f 876/876/167 877/877/167 878/878/167
f 876/876/167 878/878/167 879/879/168
s 0
f 880/880/9 881/881/9 882/882/9
f 880/880/9 882/882/9 883/883/9
f 884/884/7 477/477/7 480/480/7
f 884/884/7 480/480/7 885/885/7
s 1
f 886/886/169 887/887/170 888/888/171
f 886/886/169 888/888/171 889/889/170
f 890/890/172 891/891/172 892/892/172
f 890/890/172 892/892/172 893/893/172
f 894/894/173 895/895/173 896/896/174
f 894/894/173 896/896/174 897/897/174
f 898/898/175 899/899/175 900/900/175
f 898/898/175 900/900/175 901/901/175
f 902/902/176 903/903/177 904/904/178
f 902/902/176 904/904/178 905/905/177
f 906/906/179 907/907/179 908/908/179
f 906/906/179 908/908/179 909/909/179
f 910/910/180 911/911/180 912/912/180
f 910/910/180 912/912/180 913/913/180
