# Blender 3.5.0
# www.blender.org
mtllib CannonExhaustBlack.mtl
o Exhaust_Black_0
v 0.012201 0.314247 0.608059
v 0.000000 0.377014 0.595340
v 0.035292 0.323694 0.608059
v 0.035292 0.323694 0.608059
v 0.000000 0.377014 0.595340
v 0.053011 0.341258 0.608059
v 0.053011 0.341258 0.608059
v 0.000000 0.377014 0.595340
v 0.062659 0.364266 0.608059
v 0.062659 0.364266 0.608059
v 0.000000 0.377014 0.595340
v 0.062767 0.389215 0.608059
v 0.062767 0.389215 0.608059
v 0.000000 0.377014 0.595340
v 0.053321 0.412306 0.608059
v 0.053321 0.412306 0.608059
v 0.000000 0.377014 0.595340
v 0.035756 0.430025 0.608059
v 0.035756 0.430025 0.608059
v 0.000000 0.377014 0.595340
v 0.012748 0.439673 0.608059
v 0.012748 0.439673 0.608059
v 0.000000 0.377014 0.595340
v -0.012201 0.439782 0.608059
v -0.012201 0.439782 0.608059
v 0.000000 0.377014 0.595340
v -0.035292 0.430335 0.608059
v -0.035292 0.430335 0.608059
v 0.000000 0.377014 0.595340
v -0.053011 0.412770 0.608059
v -0.053011 0.412770 0.608059
v 0.000000 0.377014 0.595340
v -0.062659 0.389762 0.608059
v -0.062659 0.389762 0.608059
v 0.000000 0.377014 0.595340
v -0.062767 0.364814 0.608059
v -0.062767 0.364814 0.608059
v 0.000000 0.377014 0.595340
v -0.053321 0.341722 0.608059
v -0.053321 0.341722 0.608059
v 0.000000 0.377014 0.595340
v -0.035756 0.324004 0.608059
v -0.035756 0.324004 0.608059
v 0.000000 0.377014 0.595340
v -0.012748 0.314356 0.608059
v -0.012748 0.314356 0.608059
v 0.000000 0.377014 0.595340
v 0.012201 0.314247 0.608059
v 0.151820 -0.404030 0.971143
v 0.151820 -0.404030 0.629008
v 0.439156 -0.286478 0.629008
v 0.439156 -0.286478 0.971143
v 0.659635 -0.067915 0.971143
v 0.659635 -0.067915 0.629007
v 0.779690 0.218385 0.629007
v 0.779690 0.218385 0.971143
v 0.779690 0.218385 0.971143
v 0.779690 0.218385 0.629007
v 0.781045 0.528834 0.629007
v 0.781045 0.528834 0.971143
v 0.781045 0.528834 0.971143
v 0.781045 0.528834 0.629007
v 0.663492 0.816170 0.629007
v 0.663492 0.816171 0.971142
v 0.663492 0.816170 0.629007
v 0.444929 1.036649 0.629007
v 0.544791 1.077409 0.689305
v 0.705122 0.915672 0.689305
v 0.444929 1.036649 0.971142
v 0.444929 1.036649 0.629007
v 0.158630 1.156704 0.629007
v 0.158630 1.156705 0.971142
v 0.158630 1.156705 0.971142
v 0.158630 1.156704 0.629007
v -0.151820 1.158059 0.629007
v -0.151820 1.158059 0.971142
v -0.151820 1.158059 0.971142
v -0.151820 1.158059 0.629007
v -0.439156 1.040507 0.629007
v -0.439156 1.040507 0.971142
v -0.663492 -0.062142 0.971143
v -0.663492 -0.062142 0.629007
v -0.705122 -0.161644 0.689305
v -0.705122 -0.161644 0.971146
v -0.659635 0.821944 0.971142
v -0.659635 0.821944 0.629007
v -0.779690 0.535644 0.629007
v -0.779690 0.535644 0.971142
v -0.779690 0.535644 0.971142
v -0.779690 0.535644 0.629007
v -0.781045 0.225195 0.629007
v -0.781045 0.225195 0.971143
v -0.781045 0.225195 0.971143
v -0.781045 0.225195 0.629007
v -0.663492 -0.062142 0.629007
v -0.663492 -0.062142 0.971143
v -0.444929 -0.282620 0.971143
v -0.444929 -0.282620 0.629008
v -0.158629 -0.402676 0.629008
v -0.158629 -0.402676 0.971143
v -0.158629 -0.402676 0.971143
v -0.158629 -0.402676 0.629008
v 0.151820 -0.404030 0.629008
v 0.151820 -0.404030 0.971143
v 0.781045 0.528834 0.629007
v 0.779690 0.218385 0.629007
v 0.738807 0.226702 0.579658
v 0.740091 0.520874 0.579657
v -0.439156 1.040507 0.629007
v -0.151820 1.158059 0.629007
v -0.143859 1.117105 0.579657
v -0.416129 1.005717 0.579657
v -0.444929 -0.282620 0.629008
v -0.663492 -0.062142 0.629007
v -0.628702 -0.039115 0.579658
v -0.421599 -0.248033 0.579658
v 0.659635 -0.067915 0.629007
v 0.439156 -0.286478 0.629008
v 0.416129 -0.251688 0.579658
v 0.625047 -0.044585 0.579658
v 0.158630 1.156704 0.629007
v 0.444929 1.036649 0.629007
v 0.421599 1.002061 0.579657
v 0.150312 1.115822 0.579657
v -0.781045 0.225195 0.629007
v -0.779690 0.535644 0.629007
v -0.738807 0.527327 0.579657
v -0.740091 0.233155 0.579658
v 0.663492 0.816170 0.629007
v 0.781045 0.528834 0.629007
v 0.740091 0.520874 0.579657
v 0.628702 0.793143 0.579657
v -0.659635 0.821944 0.629007
v -0.439156 1.040507 0.629007
v -0.416129 1.005717 0.579657
v -0.625047 0.798614 0.579657
v -0.158629 -0.402676 0.629008
v -0.444929 -0.282620 0.629008
v -0.421599 -0.248033 0.579658
v -0.150312 -0.361793 0.579658
v 0.779690 0.218385 0.629007
v 0.659635 -0.067915 0.629007
v 0.625047 -0.044585 0.579658
v 0.738807 0.226702 0.579658
v -0.151820 1.158059 0.629007
v 0.158630 1.156704 0.629007
v 0.150312 1.115822 0.579657
v -0.143859 1.117105 0.579657
v -0.663492 -0.062142 0.629007
v -0.781045 0.225195 0.629007
v -0.740091 0.233155 0.579658
v -0.628702 -0.039115 0.579658
v 0.439156 -0.286478 0.629008
v 0.151820 -0.404030 0.629008
v 0.143859 -0.363077 0.579658
v 0.416129 -0.251688 0.579658
v 0.444929 1.036649 0.629007
v 0.663492 0.816170 0.629007
v 0.628702 0.793143 0.579657
v 0.421599 1.002061 0.579657
v -0.779690 0.535644 0.629007
v -0.659635 0.821944 0.629007
v -0.625047 0.798614 0.579657
v -0.738807 0.527327 0.579657
v 0.151820 -0.404030 0.629008
v -0.158629 -0.402676 0.629008
v -0.150312 -0.361793 0.579658
v 0.143859 -0.363077 0.579658
v -0.143859 1.117105 0.579657
v 0.150312 1.115822 0.579657
v 0.142735 1.078580 0.579657
v -0.136607 1.079798 0.579657
v 0.416129 -0.251688 0.579658
v 0.143859 -0.363077 0.579658
v 0.136607 -0.325770 0.579658
v 0.395153 -0.219996 0.579658
v 0.143859 -0.363077 0.579658
v -0.150312 -0.361793 0.579658
v -0.142735 -0.324551 0.579658
v 0.136607 -0.325770 0.579658
v -0.416129 1.005717 0.579657
v -0.143859 1.117105 0.579657
v -0.136607 1.079798 0.579657
v -0.395152 0.974025 0.579657
v 0.625047 -0.044585 0.579658
v 0.416129 -0.251688 0.579658
v 0.395153 -0.219996 0.579658
v 0.593539 -0.023333 0.579658
v -0.625047 0.798614 0.579657
v -0.416129 1.005717 0.579657
v -0.395152 0.974025 0.579657
v -0.593539 0.777362 0.579657
v 0.738807 0.226702 0.579658
v 0.701565 0.234279 0.579658
v -0.738807 0.527327 0.579657
v -0.625047 0.798614 0.579657
v -0.593539 0.777362 0.579657
v -0.701565 0.519750 0.579657
v 0.740091 0.520874 0.579657
v 0.738807 0.226702 0.579658
v 0.701565 0.234279 0.579658
v 0.702784 0.513622 0.579657
v -0.740091 0.233155 0.579658
v -0.702784 0.240407 0.579658
v 0.628702 0.793143 0.579657
v 0.740091 0.520874 0.579657
v 0.702784 0.513622 0.579657
v 0.597010 0.772167 0.579657
v -0.628702 -0.039115 0.579658
v -0.597010 -0.018138 0.579658
v 0.421599 1.002061 0.579657
v 0.628702 0.793143 0.579657
v 0.597010 0.772167 0.579657
v 0.400347 0.970554 0.579657
v -0.421599 -0.248033 0.579658
v -0.628702 -0.039115 0.579658
v -0.597010 -0.018138 0.579658
v -0.400347 -0.216525 0.579658
v -0.421599 -0.248033 0.579658
v -0.400347 -0.216525 0.579658
v -0.597010 -0.018138 0.579658
v -0.702784 0.240407 0.579658
v -0.702784 0.240407 0.742156
v -0.597010 -0.018138 0.742156
v 0.400347 0.970554 0.579657
v 0.597010 0.772167 0.579657
v 0.597010 0.772167 0.742156
v 0.400347 0.970554 0.742156
v -0.400347 -0.216525 0.579658
v -0.597010 -0.018138 0.579658
v -0.597010 -0.018138 0.742156
v -0.400347 -0.216525 0.742156
v 0.142735 1.078580 0.579657
v 0.400347 0.970554 0.579657
v 0.400347 0.970554 0.742156
v 0.142735 1.078580 0.742156
v -0.142735 -0.324551 0.579658
v -0.400347 -0.216525 0.579658
v -0.400347 -0.216525 0.742156
v -0.142735 -0.324551 0.742156
v -0.136607 1.079798 0.579657
v 0.142735 1.078580 0.579657
v 0.142735 1.078580 0.742156
v -0.136607 1.079798 0.742156
v 0.395153 -0.219996 0.579658
v 0.136607 -0.325770 0.579658
v 0.136607 -0.325770 0.742156
v 0.395153 -0.219996 0.742156
v 0.136607 -0.325770 0.579658
v -0.142735 -0.324551 0.579658
v -0.142735 -0.324551 0.742156
v 0.136607 -0.325770 0.742156
v -0.395152 0.974025 0.579657
v -0.136607 1.079798 0.579657
v -0.136607 1.079798 0.742156
v -0.395152 0.974025 0.742156
v 0.593539 -0.023333 0.579658
v 0.395153 -0.219996 0.579658
v 0.395153 -0.219996 0.742156
v 0.593539 -0.023333 0.742156
v -0.593539 0.777362 0.579657
v -0.395152 0.974025 0.579657
v -0.395152 0.974025 0.742156
v -0.593539 0.777362 0.742156
v 0.701565 0.234279 0.579658
v 0.593539 -0.023333 0.579658
v 0.593539 -0.023333 0.742156
v 0.701565 0.234279 0.742156
v -0.701565 0.519750 0.579657
v -0.593539 0.777362 0.579657
v -0.593539 0.777362 0.742156
v -0.701565 0.519750 0.742156
v 0.702784 0.513622 0.579657
v 0.701565 0.234279 0.579658
v 0.701565 0.234279 0.742156
v 0.702784 0.513622 0.742156
v -0.702784 0.240407 0.579658
v -0.701565 0.519750 0.579657
v -0.701565 0.519750 0.742156
v -0.702784 0.240407 0.742156
v 0.597010 0.772167 0.579657
v 0.702784 0.513622 0.579657
v 0.702784 0.513622 0.742156
v 0.597010 0.772167 0.742156
v -0.109990 0.942867 0.742156
v 0.114924 0.941885 0.742156
v 0.108161 0.908644 0.674995
v -0.103518 0.909568 0.674995
v 0.318160 -0.103673 0.742156
v 0.109991 -0.188838 0.742156
v 0.103518 -0.155539 0.674995
v 0.299437 -0.075386 0.674995
v 0.109991 -0.188838 0.742156
v -0.114924 -0.187856 0.742156
v -0.108161 -0.154615 0.674995
v 0.103518 -0.155539 0.674995
v -0.318160 0.857702 0.742156
v -0.109990 0.942867 0.742156
v -0.103518 0.909568 0.674995
v -0.299437 0.829415 0.674995
v 0.477893 0.054672 0.742156
v 0.318160 -0.103673 0.742156
v 0.299437 -0.075386 0.674995
v 0.449770 0.073641 0.674995
v -0.477893 0.699357 0.742156
v -0.318160 0.857702 0.742156
v -0.299437 0.829415 0.674995
v -0.449770 0.680388 0.674995
v 0.564871 0.262090 0.742156
v 0.477893 0.054672 0.742156
v 0.449770 0.073641 0.674995
v 0.531629 0.268853 0.674995
v -0.564871 0.491939 0.742156
v -0.477893 0.699357 0.742156
v -0.449770 0.680388 0.674995
v -0.531629 0.485176 0.674995
v 0.565852 0.487005 0.742156
v 0.564871 0.262090 0.742156
v 0.531629 0.268853 0.674995
v 0.532553 0.480532 0.674995
v -0.565852 0.267024 0.742156
v -0.564871 0.491939 0.742156
v -0.531629 0.485176 0.674995
v -0.532553 0.273497 0.674995
v 0.480688 0.695175 0.742156
v 0.565852 0.487005 0.742156
v 0.532553 0.480532 0.674995
v 0.452400 0.676452 0.674995
v -0.480688 0.058854 0.742156
v -0.565852 0.267024 0.742156
v -0.532553 0.273497 0.674995
v -0.452400 0.077577 0.674995
v 0.322343 0.854907 0.742156
v 0.480688 0.695175 0.742156
v 0.452400 0.676452 0.674995
v 0.303374 0.826784 0.674995
v -0.322343 -0.100879 0.742156
v -0.480688 0.058854 0.742156
v -0.452400 0.077577 0.674995
v -0.303373 -0.072756 0.674995
v 0.114924 0.941885 0.742156
v 0.322343 0.854907 0.742156
v 0.303374 0.826784 0.674995
v 0.108161 0.908644 0.674995
v -0.114924 -0.187856 0.742156
v -0.322343 -0.100879 0.742156
v -0.303373 -0.072756 0.674995
v -0.108161 -0.154615 0.674995
v -0.452400 0.077577 0.674995
v -0.532553 0.273497 0.674995
v -0.286900 0.321247 0.689298
v -0.243720 0.215700 0.689298
v 0.303374 0.826784 0.674995
v 0.452400 0.676452 0.674995
v 0.243720 0.538329 0.689297
v 0.163435 0.619317 0.689297
v -0.303373 -0.072756 0.674995
v -0.452400 0.077577 0.674995
v -0.243720 0.215700 0.689298
v -0.163435 0.134711 0.689298
v 0.108161 0.908644 0.674995
v 0.303374 0.826784 0.674995
v 0.163435 0.619317 0.689297
v 0.058269 0.663417 0.689297
v -0.108161 -0.154615 0.674995
v -0.303373 -0.072756 0.674995
v -0.163435 0.134711 0.689298
v -0.058269 0.090611 0.689298
v -0.103518 0.909568 0.674995
v 0.108161 0.908644 0.674995
v 0.058269 0.663417 0.689297
v -0.055768 0.663915 0.689297
v 0.299437 -0.075386 0.674995
v 0.103518 -0.155539 0.674995
v 0.055768 0.090114 0.689298
v 0.161315 0.133294 0.689298
v 0.103518 -0.155539 0.674995
v -0.108161 -0.154615 0.674995
v -0.058269 0.090611 0.689298
v 0.055768 0.090114 0.689298
v -0.299437 0.829415 0.674995
v -0.103518 0.909568 0.674995
v -0.055768 0.663915 0.689297
v -0.161315 0.620735 0.689297
v 0.449770 0.073641 0.674995
v 0.299437 -0.075386 0.674995
v 0.161315 0.133294 0.689298
v 0.242303 0.213579 0.689298
v -0.449770 0.680388 0.674995
v -0.299437 0.829415 0.674995
v -0.161315 0.620735 0.689297
v -0.242303 0.540450 0.689297
v 0.531629 0.268853 0.674995
v 0.449770 0.073641 0.674995
v 0.242303 0.213579 0.689298
v 0.286403 0.318745 0.689298
v -0.531629 0.485176 0.674995
v -0.449770 0.680388 0.674995
v -0.242303 0.540450 0.689297
v -0.286403 0.435284 0.689298
v 0.532553 0.480532 0.674995
v 0.531629 0.268853 0.674995
v 0.286403 0.318745 0.689298
v 0.286900 0.432782 0.689298
v -0.532553 0.273497 0.674995
v -0.531629 0.485176 0.674995
v -0.286403 0.435284 0.689298
v -0.286900 0.321247 0.689298
v 0.452400 0.676452 0.674995
v 0.532553 0.480532 0.674995
v 0.286900 0.432782 0.689298
v 0.243720 0.538329 0.689297
v -0.286403 0.435284 0.689298
v -0.242303 0.540450 0.689297
v -0.242303 0.540450 0.737761
v -0.286403 0.435284 0.737761
v 0.286900 0.432782 0.689298
v 0.286403 0.318745 0.689298
v 0.286403 0.318745 0.737761
v 0.286900 0.432782 0.737761
v -0.286900 0.321247 0.689298
v -0.286403 0.435284 0.689298
v -0.286403 0.435284 0.737761
v -0.286900 0.321247 0.737761
v 0.243720 0.538329 0.689297
v 0.286900 0.432782 0.689298
v 0.286900 0.432782 0.737761
v 0.243720 0.538329 0.737761
v -0.243720 0.215700 0.689298
v -0.286900 0.321247 0.689298
v -0.286900 0.321247 0.737761
v -0.243720 0.215700 0.737761
v 0.163435 0.619317 0.689297
v 0.243720 0.538329 0.689297
v 0.243720 0.538329 0.737761
v 0.163435 0.619318 0.737761
v -0.163435 0.134711 0.689298
v -0.243720 0.215700 0.689298
v -0.243720 0.215700 0.737761
v -0.163435 0.134711 0.737761
v 0.058269 0.663417 0.689297
v 0.163435 0.619317 0.689297
v 0.163435 0.619318 0.737761
v 0.058269 0.663417 0.737761
v -0.058269 0.090611 0.689298
v -0.163435 0.134711 0.689298
v -0.163435 0.134711 0.737761
v -0.058269 0.090611 0.737761
v -0.055768 0.663915 0.689297
v 0.058269 0.663417 0.689297
v 0.058269 0.663417 0.737761
v -0.055768 0.663915 0.737761
v 0.161315 0.133294 0.689298
v 0.055768 0.090114 0.689298
v 0.055768 0.090114 0.737761
v 0.161315 0.133294 0.737761
v 0.055768 0.090114 0.689298
v -0.058269 0.090611 0.689298
v -0.058269 0.090611 0.737761
v 0.055768 0.090114 0.737761
v -0.161315 0.620735 0.689297
v -0.055768 0.663915 0.689297
v -0.055768 0.663915 0.737761
v -0.161315 0.620735 0.737761
v 0.242303 0.213579 0.689298
v 0.161315 0.133294 0.689298
v 0.161315 0.133294 0.737761
v 0.242303 0.213579 0.737761
v -0.242303 0.540450 0.689297
v -0.161315 0.620735 0.689297
v -0.161315 0.620735 0.737761
v -0.242303 0.540450 0.737761
v 0.286403 0.318745 0.689298
v 0.242303 0.213579 0.689298
v 0.242303 0.213579 0.737761
v 0.286403 0.318745 0.737761
v 0.096627 0.520269 0.752063
v 0.144093 0.472387 0.752063
v 0.144093 0.472387 0.885189
v 0.096627 0.520269 0.885189
v -0.096627 0.233759 0.752063
v -0.144093 0.281642 0.752063
v -0.144093 0.281642 0.885190
v -0.096627 0.233760 0.885190
v 0.034450 0.546342 0.752063
v 0.096627 0.520269 0.752063
v 0.096627 0.520269 0.885189
v 0.034450 0.546342 0.885189
v -0.034450 0.207687 0.752063
v -0.096627 0.233759 0.752063
v -0.096627 0.233760 0.885190
v -0.034450 0.207687 0.885190
v -0.032971 0.546636 0.752063
v 0.034450 0.546342 0.752063
v 0.034450 0.546342 0.885189
v -0.032971 0.546636 0.885189
v 0.095373 0.232922 0.752063
v 0.032971 0.207393 0.752063
v 0.032971 0.207393 0.885190
v 0.095373 0.232922 0.885190
v 0.032971 0.207393 0.752063
v -0.034450 0.207687 0.752063
v -0.034450 0.207687 0.885190
v 0.032971 0.207393 0.885190
v -0.095373 0.521107 0.752063
v -0.032971 0.546636 0.752063
v -0.032971 0.546636 0.885189
v -0.095373 0.521107 0.885189
v 0.143255 0.280388 0.752063
v 0.095373 0.232922 0.752063
v 0.095373 0.232922 0.885190
v 0.143255 0.280388 0.885190
v -0.143255 0.473641 0.752063
v -0.095373 0.521107 0.752063
v -0.095373 0.521107 0.885189
v -0.143255 0.473641 0.885189
v 0.169328 0.342564 0.752063
v 0.143255 0.280388 0.752063
v 0.143255 0.280388 0.885190
v 0.169328 0.342564 0.885190
v -0.169328 0.411465 0.752063
v -0.143255 0.473641 0.752063
v -0.143255 0.473641 0.885189
v -0.169328 0.411465 0.885190
v 0.169622 0.409986 0.752063
v 0.169328 0.342564 0.752063
v 0.169328 0.342564 0.885190
v 0.169622 0.409986 0.885190
v -0.169622 0.344043 0.752063
v -0.169328 0.411465 0.752063
v -0.169328 0.411465 0.885190
v -0.169622 0.344043 0.885190
v 0.144093 0.472387 0.752063
v 0.169622 0.409986 0.752063
v 0.169622 0.409986 0.885190
v 0.144093 0.472387 0.885189
v -0.144093 0.281642 0.752063
v -0.169622 0.344043 0.752063
v -0.169622 0.344043 0.885190
v -0.144093 0.281642 0.885190
v 0.034450 0.546342 0.885189
v -0.020966 0.500436 0.885190
v -0.095373 0.521107 0.885189
v -0.032971 0.546636 0.885189
v -0.020966 0.500436 0.885190
v -0.077529 0.429308 0.885190
v -0.143255 0.473641 0.885189
v -0.095373 0.521107 0.885189
v -0.077529 0.429308 0.885190
v -0.122288 0.350220 0.885190
v -0.169328 0.411465 0.885190
v -0.143255 0.473641 0.885189
v -0.122288 0.350220 0.885190
v -0.144093 0.281642 0.885190
v -0.169622 0.344043 0.885190
v -0.169328 0.411465 0.885190
v 0.096627 0.520269 0.885189
v 0.055466 0.459246 0.885189
v -0.020966 0.500436 0.885190
v 0.034450 0.546342 0.885189
v 0.055466 0.459246 0.885189
v 0.000000 0.377015 0.885190
v -0.077529 0.429308 0.885190
v -0.020966 0.500436 0.885190
v 0.000000 0.377015 0.885190
v -0.055466 0.294783 0.885190
v -0.077529 0.429308 0.885190
v -0.055466 0.294783 0.885190
v -0.096627 0.233760 0.885190
v -0.144093 0.281642 0.885190
v -0.122288 0.350220 0.885190
v 0.144093 0.472387 0.885189
v 0.122289 0.403809 0.885190
v 0.055466 0.459246 0.885189
v 0.096627 0.520269 0.885189
v 0.122289 0.403809 0.885190
v 0.077529 0.324721 0.885190
v 0.000000 0.377015 0.885190
v 0.055466 0.459246 0.885189
v 0.077529 0.324721 0.885190
v 0.020966 0.253593 0.885190
v -0.055466 0.294783 0.885190
v 0.000000 0.377015 0.885190
v 0.020966 0.253593 0.885190
v -0.034450 0.207687 0.885190
v -0.096627 0.233760 0.885190
v -0.055466 0.294783 0.885190
v 0.169622 0.409986 0.885190
v 0.169328 0.342564 0.885190
v 0.122289 0.403809 0.885190
v 0.144093 0.472387 0.885189
v 0.169328 0.342564 0.885190
v 0.143255 0.280388 0.885190
v 0.077529 0.324721 0.885190
v 0.122289 0.403809 0.885190
v 0.143255 0.280388 0.885190
v 0.095373 0.232922 0.885190
v 0.020966 0.253593 0.885190
v 0.077529 0.324721 0.885190
v 0.095373 0.232922 0.885190
v 0.032971 0.207393 0.885190
v -0.034450 0.207687 0.885190
v 0.020966 0.253593 0.885190
v 0.439156 -0.286478 0.971143
v 0.439156 -0.286478 0.629008
v 0.538658 -0.328108 0.689305
v 0.538658 -0.328107 0.971146
v 0.444929 1.036649 0.629007
v 0.444929 1.036649 0.971142
v 0.544791 1.077409 0.971146
v 0.544791 1.077409 0.689305
v -0.663492 -0.062142 0.629007
v -0.444929 -0.282620 0.629008
v -0.544790 -0.323380 0.689305
v -0.705122 -0.161644 0.689305
v -0.439156 1.040507 0.971142
v -0.439156 1.040507 0.629007
v -0.538658 1.082137 0.689305
v -0.538658 1.082137 0.971146
v -0.444929 -0.282620 0.629008
v -0.444929 -0.282620 0.971143
v -0.544790 -0.323380 0.971146
v -0.544790 -0.323380 0.689305
v 0.439156 -0.286478 0.629008
v 0.659635 -0.067915 0.629007
v 0.700394 -0.167776 0.689305
v 0.538658 -0.328108 0.689305
v 0.659635 -0.067915 0.629007
v 0.659635 -0.067915 0.971143
v 0.700394 -0.167776 0.971146
v 0.700394 -0.167776 0.689305
v -0.439156 1.040507 0.629007
v -0.659635 0.821944 0.629007
v -0.700394 0.921805 0.689305
v -0.538658 1.082137 0.689305
v 0.663492 0.816171 0.971142
v 0.663492 0.816170 0.629007
v 0.705122 0.915672 0.689305
v 0.705122 0.915673 0.971146
v -0.659635 0.821944 0.629007
v -0.659635 0.821944 0.971142
v -0.700394 0.921805 0.971146
v -0.700394 0.921805 0.689305
v -0.705122 -0.161644 0.971146
v -0.705122 -0.161644 0.689305
v -0.544790 -0.323380 0.689305
v -0.544790 -0.323380 0.971146
v -0.700394 0.921805 0.689305
v -0.700394 0.921805 0.971146
v -0.538658 1.082137 0.971146
v -0.538658 1.082137 0.689305
v 0.538658 -0.328107 0.971146
v 0.538658 -0.328108 0.689305
v 0.700394 -0.167776 0.689305
v 0.700394 -0.167776 0.971146
v 0.029455 0.225480 0.826372
v 0.031882 0.212995 0.762430
v 0.092223 0.237681 0.762430
v 0.085203 0.248287 0.826372
v 0.029455 0.225480 0.698487
v 0.022544 0.261035 0.644280
v 0.065211 0.278491 0.644280
v 0.085203 0.248287 0.698487
v 0.022544 0.261035 0.880580
v 0.029455 0.225480 0.826372
v 0.085203 0.248287 0.826372
v 0.065211 0.278491 0.880580
v 0.031882 0.212995 0.762430
v 0.029455 0.225480 0.698487
v 0.085203 0.248287 0.698487
v 0.092223 0.237681 0.762430
v 0.022544 0.261035 0.644280
v 0.012201 0.314247 0.608059
v 0.035292 0.323694 0.608059
v 0.065211 0.278491 0.644280
v 0.065211 0.278491 0.880580
v 0.085203 0.248287 0.826372
v 0.127979 0.290692 0.826372
v 0.097951 0.310946 0.880580
v 0.092223 0.237681 0.762430
v 0.085203 0.248287 0.698487
v 0.127979 0.290692 0.698487
v 0.138523 0.283579 0.762430
v 0.065211 0.278491 0.644280
v 0.035292 0.323694 0.608059
v 0.053011 0.341258 0.608059
v 0.097951 0.310946 0.644280
v 0.085203 0.248287 0.826372
v 0.092223 0.237681 0.762430
v 0.138523 0.283579 0.762430
v 0.127979 0.290692 0.826372
v 0.085203 0.248287 0.698487
v 0.065211 0.278491 0.644280
v 0.097951 0.310946 0.644280
v 0.127979 0.290692 0.698487
v 0.097951 0.310946 0.644280
v 0.053011 0.341258 0.608059
v 0.062659 0.364266 0.608059
v 0.115778 0.353459 0.644280
v 0.127979 0.290692 0.826372
v 0.138523 0.283579 0.762430
v 0.163735 0.343702 0.762430
v 0.151271 0.346238 0.826372
v 0.127979 0.290692 0.698487
v 0.097951 0.310946 0.644280
v 0.115778 0.353459 0.644280
v 0.151271 0.346238 0.698487
v 0.097951 0.310946 0.880580
v 0.127979 0.290692 0.826372
v 0.151271 0.346238 0.826372
v 0.115778 0.353459 0.880580
v 0.138523 0.283579 0.762430
v 0.127979 0.290692 0.698487
v 0.151271 0.346238 0.698487
v 0.163735 0.343702 0.762430
v 0.151271 0.346238 0.826372
v 0.163735 0.343702 0.762430
v 0.164019 0.408897 0.762430
v 0.151534 0.406470 0.826372
v 0.151271 0.346238 0.698487
v 0.115778 0.353459 0.644280
v 0.115979 0.399558 0.644280
v 0.151534 0.406470 0.698487
v 0.115778 0.353459 0.880580
v 0.151271 0.346238 0.826372
v 0.151534 0.406470 0.826372
v 0.115979 0.399559 0.880580
v 0.163735 0.343702 0.762430
v 0.151271 0.346238 0.698487
v 0.151534 0.406470 0.698487
v 0.164019 0.408897 0.762430
v 0.115778 0.353459 0.644280
v 0.062659 0.364266 0.608059
v 0.062767 0.389215 0.608059
v 0.115979 0.399558 0.644280
v 0.115979 0.399559 0.880580
v 0.151534 0.406470 0.826372
v 0.128727 0.462217 0.826372
v 0.098524 0.442226 0.880580
v 0.164019 0.408897 0.762430
v 0.151534 0.406470 0.698487
v 0.128727 0.462217 0.698487
v 0.139333 0.469237 0.762430
v 0.115979 0.399558 0.644280
v 0.062767 0.389215 0.608059
v 0.053321 0.412306 0.608059
v 0.098524 0.442226 0.644280
v 0.151534 0.406470 0.826372
v 0.164019 0.408897 0.762430
v 0.139333 0.469237 0.762430
v 0.128727 0.462217 0.826372
v 0.151534 0.406470 0.698487
v 0.115979 0.399558 0.644280
v 0.098524 0.442226 0.644280
v 0.128727 0.462217 0.698487
v 0.098524 0.442226 0.880580
v 0.128727 0.462217 0.826372
v 0.086323 0.504993 0.826372
v 0.066069 0.474965 0.880580
v 0.139333 0.469237 0.762430
v 0.128727 0.462217 0.698487
v 0.086323 0.504993 0.698487
v 0.093435 0.515538 0.762430
v 0.098524 0.442226 0.644280
v 0.053321 0.412306 0.608059
v 0.035756 0.430025 0.608059
v 0.066069 0.474965 0.644280
v 0.128727 0.462217 0.826372
v 0.139333 0.469237 0.762430
v 0.093435 0.515538 0.762430
v 0.086323 0.504993 0.826372
v 0.128727 0.462217 0.698487
v 0.098524 0.442226 0.644280
v 0.066069 0.474965 0.644280
v 0.086323 0.504993 0.698487
v 0.086323 0.504993 0.826372
v 0.093435 0.515538 0.762430
v 0.033312 0.540749 0.762430
v 0.030776 0.528286 0.826372
v 0.086323 0.504993 0.698487
v 0.066069 0.474965 0.644280
v 0.023555 0.492792 0.644280
v 0.030776 0.528286 0.698487
v 0.066069 0.474965 0.880580
v 0.086323 0.504993 0.826372
v 0.030776 0.528286 0.826372
v 0.023555 0.492793 0.880580
v 0.093435 0.515538 0.762430
v 0.086323 0.504993 0.698487
v 0.030776 0.528286 0.698487
v 0.033312 0.540749 0.762430
v 0.066069 0.474965 0.644280
v 0.035756 0.430025 0.608059
v 0.012748 0.439673 0.608059
v 0.023555 0.492792 0.644280
v 0.030776 0.528286 0.826372
v 0.033312 0.540749 0.762430
v -0.031882 0.541034 0.762430
v -0.029455 0.528549 0.826372
v 0.030776 0.528286 0.698487
v 0.023555 0.492792 0.644280
v -0.022544 0.492994 0.644280
v -0.029455 0.528548 0.698487
v 0.023555 0.492793 0.880580
v 0.030776 0.528286 0.826372
v -0.029455 0.528549 0.826372
v -0.022544 0.492994 0.880580
v 0.033312 0.540749 0.762430
v 0.030776 0.528286 0.698487
v -0.029455 0.528548 0.698487
v -0.031882 0.541034 0.762430
v 0.023555 0.492792 0.644280
v 0.012748 0.439673 0.608059
v -0.012201 0.439782 0.608059
v -0.022544 0.492994 0.644280
v -0.022544 0.492994 0.880580
v -0.029455 0.528549 0.826372
v -0.085203 0.505742 0.826372
v -0.065211 0.475538 0.880580
v -0.031882 0.541034 0.762430
v -0.029455 0.528548 0.698487
v -0.085203 0.505742 0.698487
v -0.092223 0.516348 0.762430
v -0.022544 0.492994 0.644280
v -0.012201 0.439782 0.608059
v -0.035292 0.430335 0.608059
v -0.065211 0.475538 0.644280
v -0.029455 0.528549 0.826372
v -0.031882 0.541034 0.762430
v -0.092223 0.516348 0.762430
v -0.085203 0.505742 0.826372
v -0.029455 0.528548 0.698487
v -0.022544 0.492994 0.644280
v -0.065211 0.475538 0.644280
v -0.085203 0.505742 0.698487
v -0.092223 0.516348 0.762430
v -0.085203 0.505742 0.698487
v -0.127979 0.463337 0.698487
v -0.138523 0.470449 0.762430
v -0.065211 0.475538 0.644280
v -0.035292 0.430335 0.608059
v -0.053011 0.412770 0.608059
v -0.097951 0.443083 0.644280
v -0.085203 0.505742 0.826372
v -0.092223 0.516348 0.762430
v -0.138523 0.470449 0.762430
v -0.127979 0.463337 0.826372
v -0.085203 0.505742 0.698487
v -0.065211 0.475538 0.644280
v -0.097951 0.443083 0.644280
v -0.127979 0.463337 0.698487
v -0.065211 0.475538 0.880580
v -0.085203 0.505742 0.826372
v -0.127979 0.463337 0.826372
v -0.097951 0.443083 0.880580
v -0.127979 0.463337 0.826372
v -0.138523 0.470449 0.762430
v -0.163735 0.410327 0.762430
v -0.151271 0.407791 0.826372
v -0.127979 0.463337 0.698487
v -0.097951 0.443083 0.644280
v -0.115778 0.400570 0.644280
v -0.151271 0.407791 0.698487
v -0.097951 0.443083 0.880580
v -0.127979 0.463337 0.826372
v -0.151271 0.407791 0.826372
v -0.115778 0.400570 0.880580
v -0.138523 0.470449 0.762430
v -0.127979 0.463337 0.698487
v -0.151271 0.407791 0.698487
v -0.163735 0.410327 0.762430
v -0.097951 0.443083 0.644280
v -0.053011 0.412770 0.608059
v -0.062659 0.389762 0.608059
v -0.115778 0.400570 0.644280
v -0.151271 0.407791 0.698487
v -0.115778 0.400570 0.644280
v -0.115979 0.354470 0.644280
v -0.151534 0.347559 0.698487
v -0.115778 0.400570 0.880580
v -0.151271 0.407791 0.826372
v -0.151534 0.347559 0.826372
v -0.115979 0.354470 0.880580
v -0.163735 0.410327 0.762430
v -0.151271 0.407791 0.698487
v -0.151534 0.347559 0.698487
v -0.164019 0.345132 0.762430
v -0.115778 0.400570 0.644280
v -0.062659 0.389762 0.608059
v -0.062767 0.364814 0.608059
v -0.115979 0.354470 0.644280
v -0.151271 0.407791 0.826372
v -0.163735 0.410327 0.762430
v -0.164019 0.345132 0.762430
v -0.151534 0.347559 0.826372
v -0.115979 0.354470 0.880580
v -0.151534 0.347559 0.826372
v -0.128727 0.291812 0.826372
v -0.098524 0.311803 0.880580
v -0.164019 0.345132 0.762430
v -0.151534 0.347559 0.698487
v -0.128727 0.291812 0.698487
v -0.139333 0.284792 0.762430
v -0.115979 0.354470 0.644280
v -0.062767 0.364814 0.608059
v -0.053321 0.341722 0.608059
v -0.098524 0.311803 0.644280
v -0.151534 0.347559 0.826372
v -0.164019 0.345132 0.762430
v -0.139333 0.284792 0.762430
v -0.128727 0.291812 0.826372
v -0.151534 0.347559 0.698487
v -0.115979 0.354470 0.644280
v -0.098524 0.311803 0.644280
v -0.128727 0.291812 0.698487
v -0.098524 0.311803 0.644280
v -0.053321 0.341722 0.608059
v -0.035756 0.324004 0.608059
v -0.066069 0.279064 0.644280
v -0.128727 0.291812 0.826372
v -0.139333 0.284792 0.762430
v -0.093435 0.238491 0.762430
v -0.086323 0.249036 0.826372
v -0.128727 0.291812 0.698487
v -0.098524 0.311803 0.644280
v -0.066069 0.279064 0.644280
v -0.086323 0.249036 0.698487
v -0.098524 0.311803 0.880580
v -0.128727 0.291812 0.826372
v -0.086323 0.249036 0.826372
v -0.066069 0.279064 0.880580
v -0.139333 0.284792 0.762430
v -0.128727 0.291812 0.698487
v -0.086323 0.249036 0.698487
v -0.093435 0.238491 0.762430
v -0.086323 0.249036 0.826372
v -0.093435 0.238491 0.762430
v -0.033312 0.213280 0.762430
v -0.030776 0.225743 0.826372
v -0.086323 0.249036 0.698487
v -0.066069 0.279064 0.644280
v -0.023555 0.261236 0.644280
v -0.030776 0.225743 0.698487
v -0.066069 0.279064 0.880580
v -0.086323 0.249036 0.826372
v -0.030776 0.225743 0.826372
v -0.023555 0.261236 0.880580
v -0.093435 0.238491 0.762430
v -0.086323 0.249036 0.698487
v -0.030776 0.225743 0.698487
v -0.033312 0.213280 0.762430
v -0.066069 0.279064 0.644280
v -0.035756 0.324004 0.608059
v -0.012748 0.314356 0.608059
v -0.023555 0.261236 0.644280
v -0.023555 0.261236 0.880580
v -0.030776 0.225743 0.826372
v 0.029455 0.225480 0.826372
v 0.022544 0.261035 0.880580
v -0.033312 0.213280 0.762430
v -0.030776 0.225743 0.698487
v 0.029455 0.225480 0.698487
v 0.031882 0.212995 0.762430
v -0.023555 0.261236 0.644280
v -0.012748 0.314356 0.608059
v 0.012201 0.314247 0.608059
v 0.022544 0.261035 0.644280
v -0.030776 0.225743 0.826372
v -0.033312 0.213280 0.762430
v 0.031882 0.212995 0.762430
v 0.029455 0.225480 0.826372
v -0.030776 0.225743 0.698487
v -0.023555 0.261236 0.644280
v 0.022544 0.261035 0.644280
v 0.029455 0.225480 0.698487
v 0.544791 1.077409 0.971146
v 0.705122 0.915673 0.971146
v 0.705122 0.915672 0.689305
v 0.544791 1.077409 0.689305
vn 0.0753 -0.1840 -0.9800
vn 0.1399 -0.1412 -0.9800
vn 0.1833 -0.0769 -0.9800
vn 0.1988 -0.0009 -0.9800
vn 0.1840 0.0753 -0.9800
vn 0.1412 0.1399 -0.9800
vn 0.0769 0.1833 -0.9800
vn 0.0009 0.1988 -0.9800
vn -0.0753 0.1840 -0.9800
vn -0.1399 0.1412 -0.9800
vn -0.1833 0.0769 -0.9800
vn -0.1988 0.0009 -0.9800
vn -0.1840 -0.0753 -0.9800
vn -0.1412 -0.1399 -0.9800
vn -0.0769 -0.1833 -0.9800
vn -0.0009 -0.1988 -0.9800
vn 0.3786 -0.9255 -0.0000
vn 0.9222 -0.3867 -0.0000
vn 1.0000 -0.0044 -0.0000
vn 0.9255 0.3786 -0.0000
vn 0.3678 0.3646 -0.8555
vn 0.3867 0.9222 -0.0000
vn 0.0044 1.0000 -0.0000
vn -0.3786 0.9255 -0.0000
vn -0.9225 0.3860 -0.0000
vn -0.9222 0.3867 -0.0000
vn -1.0000 0.0044 -0.0000
vn -0.9255 -0.3786 -0.0000
vn -0.3867 -0.9222 -0.0000
vn -0.0044 -1.0000 -0.0000
vn 0.7698 -0.0034 -0.6383
vn -0.2915 0.7125 -0.6383
vn -0.5467 -0.5420 -0.6383
vn 0.5420 -0.5467 -0.6383
vn 0.2977 0.7099 -0.6383
vn -0.7698 0.0034 -0.6383
vn 0.7125 0.2915 -0.6383
vn -0.5420 0.5467 -0.6383
vn -0.2977 -0.7099 -0.6383
vn 0.7099 -0.2977 -0.6383
vn 0.0034 0.7698 -0.6383
vn -0.7125 -0.2915 -0.6383
vn 0.2915 -0.7125 -0.6383
vn 0.5467 0.5420 -0.6383
vn -0.7099 0.2977 -0.6383
vn -0.0034 -0.7698 -0.6383
vn -0.0000 -0.0000 -1.0000
vn -0.7102 -0.7040 -0.0000
vn 0.7102 0.7040 -0.0000
vn -0.7040 0.7102 -0.0000
vn 0.7040 -0.7102 -0.0000
vn 0.0039 0.8961 -0.4439
vn 0.3393 -0.8294 -0.4439
vn -0.0039 -0.8961 -0.4439
vn -0.3393 0.8294 -0.4439
vn 0.6309 -0.6364 -0.4439
vn -0.6309 0.6364 -0.4439
vn -0.6308 0.6364 -0.4439
vn 0.8264 -0.3465 -0.4439
vn -0.8264 0.3465 -0.4439
vn 0.8961 -0.0039 -0.4439
vn -0.8961 0.0039 -0.4439
vn 0.8294 0.3393 -0.4439
vn -0.8294 -0.3393 -0.4439
vn 0.6364 0.6308 -0.4439
vn -0.6364 -0.6309 -0.4439
vn -0.6364 -0.6308 -0.4439
vn 0.3465 0.8264 -0.4439
vn -0.3465 -0.8264 -0.4439
vn 0.0538 0.0220 -0.9983
vn -0.0413 -0.0410 -0.9983
vn 0.0413 0.0410 -0.9983
vn -0.0225 -0.0536 -0.9983
vn 0.0225 0.0536 -0.9983
vn -0.0003 -0.0582 -0.9983
vn -0.0220 0.0538 -0.9983
vn 0.0003 0.0582 -0.9983
vn 0.0220 -0.0538 -0.9983
vn -0.0410 0.0413 -0.9983
vn 0.0410 -0.0413 -0.9983
vn -0.0536 0.0225 -0.9983
vn 0.0536 -0.0225 -0.9983
vn -0.0582 0.0003 -0.9983
vn 0.0582 -0.0003 -0.9983
vn -0.0538 -0.0220 -0.9983
vn -0.3860 -0.9225 -0.0000
vn -0.3779 0.9258 -0.0000
vn -0.3678 -0.3646 -0.8555
vn 0.3860 0.9225 -0.0000
vn 0.3779 -0.9258 -0.0000
vn 0.3646 -0.3678 -0.8555
vn 0.9258 0.3779 -0.0000
vn -0.3646 0.3678 -0.8555
vn 0.9225 -0.3860 -0.0000
vn -0.9258 -0.3779 -0.0000
vn 0.3716 -0.9084 0.1915
vn 0.3167 -0.7741 -0.5481
vn 0.3167 -0.7741 0.5481
vn 0.3716 -0.9084 -0.1915
vn 0.2132 -0.5211 -0.8264
vn 0.5888 -0.5940 0.5481
vn 0.6910 -0.6970 -0.1915
vn 0.3964 -0.3999 -0.8264
vn 0.6910 -0.6970 0.1915
vn 0.5888 -0.5940 -0.5481
vn 0.5192 -0.2177 -0.8264
vn 0.9051 -0.3796 0.1915
vn 0.7713 -0.3234 -0.5481
vn 0.7713 -0.3234 0.5481
vn 0.9051 -0.3796 -0.1915
vn 0.9815 -0.0043 0.1915
vn 0.8364 -0.0036 -0.5481
vn 0.8364 -0.0036 0.5481
vn 0.9815 -0.0043 -0.1915
vn 0.5630 -0.0025 -0.8264
vn 0.7741 0.3167 0.5481
vn 0.9084 0.3716 -0.1915
vn 0.5211 0.2132 -0.8264
vn 0.9084 0.3716 0.1915
vn 0.7741 0.3167 -0.5481
vn 0.5940 0.5888 0.5481
vn 0.6970 0.6910 -0.1915
vn 0.3999 0.3964 -0.8264
vn 0.6970 0.6910 0.1915
vn 0.5940 0.5888 -0.5481
vn 0.3796 0.9051 0.1915
vn 0.3234 0.7713 -0.5481
vn 0.3234 0.7713 0.5481
vn 0.3796 0.9051 -0.1915
vn 0.2177 0.5192 -0.8264
vn 0.0043 0.9815 0.1915
vn 0.0036 0.8364 -0.5481
vn 0.0036 0.8364 0.5481
vn 0.0043 0.9815 -0.1915
vn 0.0025 0.5630 -0.8264
vn -0.3167 0.7741 0.5481
vn -0.3716 0.9084 -0.1915
vn -0.2132 0.5211 -0.8264
vn -0.3716 0.9084 0.1915
vn -0.3167 0.7741 -0.5481
vn -0.6910 0.6970 -0.1915
vn -0.3964 0.3999 -0.8264
vn -0.6910 0.6970 0.1915
vn -0.5888 0.5940 -0.5481
vn -0.5888 0.5940 0.5481
vn -0.9051 0.3796 0.1915
vn -0.7713 0.3234 -0.5481
vn -0.7713 0.3234 0.5481
vn -0.9051 0.3796 -0.1915
vn -0.5192 0.2177 -0.8264
vn -0.8364 0.0036 -0.5481
vn -0.8364 0.0036 0.5481
vn -0.9815 0.0043 -0.1915
vn -0.5630 0.0025 -0.8264
vn -0.9815 0.0043 0.1915
vn -0.7741 -0.3167 0.5481
vn -0.9084 -0.3716 -0.1915
vn -0.5211 -0.2132 -0.8264
vn -0.9084 -0.3716 0.1915
vn -0.7741 -0.3167 -0.5481
vn -0.3999 -0.3964 -0.8264
vn -0.6970 -0.6910 0.1915
vn -0.5940 -0.5888 -0.5481
vn -0.5940 -0.5888 0.5481
vn -0.6970 -0.6910 -0.1915
vn -0.3796 -0.9051 0.1915
vn -0.3234 -0.7713 -0.5481
vn -0.3234 -0.7713 0.5481
vn -0.3796 -0.9051 -0.1915
vn -0.2177 -0.5192 -0.8264
vn -0.0036 -0.8364 0.5481
vn -0.0043 -0.9815 -0.1915
vn -0.0025 -0.5630 -0.8264
vn -0.0043 -0.9815 0.1915
vn -0.0036 -0.8364 -0.5481
vt 0.750000 0.125000
vt 0.718750 0.000000
vt 0.687500 0.125000
vt 0.687500 0.125000
vt 0.656250 0.000000
vt 0.625000 0.125000
vt 0.625000 0.125000
vt 0.593750 0.000000
vt 0.562500 0.125000
vt 0.562500 0.125000
vt 0.531250 0.000000
vt 0.500000 0.125000
vt 0.500000 0.125000
vt 0.468750 0.000000
vt 0.437500 0.125000
vt 0.437500 0.125000
vt 0.406250 0.000000
vt 0.375000 0.125000
vt 0.375000 0.125000
vt 0.343750 0.000000
vt 0.312500 0.125000
vt 0.312500 0.125000
vt 0.281250 0.000000
vt 0.250000 0.125000
vt 0.250000 0.125000
vt 0.218750 0.000000
vt 0.187500 0.125000
vt 0.187500 0.125000
vt 0.156250 0.000000
vt 0.125000 0.125000
vt 0.125000 0.125000
vt 0.093750 0.000000
vt 0.062500 0.125000
vt 0.062500 0.125000
vt 0.031250 0.000000
vt 0.000000 0.125000
vt 1.000000 0.125000
vt 0.968750 0.000000
vt 0.937500 0.125000
vt 0.937500 0.125000
vt 0.906250 0.000000
vt 0.875000 0.125000
vt 0.875000 0.125000
vt 0.843750 0.000000
vt 0.812500 0.125000
vt 0.812500 0.125000
vt 0.781250 0.000000
vt 0.750000 0.125000
vt 1.000000 1.000000
vt 1.000000 0.000000
vt 0.937500 0.000000
vt 0.937500 1.000000
vt 0.875000 1.000000
vt 0.875000 0.000000
vt 0.812500 0.000000
vt 0.812500 1.000000
vt 0.812500 1.000000
vt 0.812500 0.000000
vt 0.750000 0.000000
vt 0.750000 1.000000
vt 0.750000 1.000000
vt 0.750000 0.000000
vt 0.687500 0.000000
vt 0.687500 1.000000
vt 0.687500 0.000000
vt 0.625000 0.000000
vt 0.625000 0.000000
vt 0.687500 0.000000
vt 0.625000 1.000000
vt 0.625000 0.000000
vt 0.562500 0.000000
vt 0.562500 1.000000
vt 0.562500 1.000000
vt 0.562500 0.000000
vt 0.500000 0.000000
vt 0.500000 1.000000
vt 0.500000 1.000000
vt 0.500000 0.000000
vt 0.437500 0.000000
vt 0.437500 1.000000
vt 0.187500 1.000000
vt 0.187500 0.000000
vt 0.187500 0.000000
vt 0.187500 1.000000
vt 0.375000 1.000000
vt 0.375000 0.000000
vt 0.312500 0.000000
vt 0.312500 1.000000
vt 0.312500 1.000000
vt 0.312500 0.000000
vt 0.250000 0.000000
vt 0.250000 1.000000
vt 0.250000 1.000000
vt 0.250000 0.000000
vt 0.187500 0.000000
vt 0.187500 1.000000
vt 0.125000 1.000000
vt 0.125000 0.000000
vt 0.062500 0.000000
vt 0.062500 1.000000
vt 0.062500 1.000000
vt 0.062500 0.000000
vt 0.000000 0.000000
vt 0.000000 1.000000
vt 0.750000 0.000000
vt 0.812500 0.000000
vt 0.812500 0.000000
vt 0.750000 0.000000
vt 0.437500 0.000000
vt 0.500000 0.000000
vt 0.500000 0.000000
vt 0.437500 0.000000
vt 0.125000 0.000000
vt 0.187500 0.000000
vt 0.187500 0.000000
vt 0.125000 0.000000
vt 0.875000 0.000000
vt 0.937500 0.000000
vt 0.937500 0.000000
vt 0.875000 0.000000
vt 0.562500 0.000000
vt 0.625000 0.000000
vt 0.625000 0.000000
vt 0.562500 0.000000
vt 0.250000 0.000000
vt 0.312500 0.000000
vt 0.312500 0.000000
vt 0.250000 0.000000
vt 0.687500 0.000000
vt 0.750000 0.000000
vt 0.750000 0.000000
vt 0.687500 0.000000
vt 0.375000 0.000000
vt 0.437500 0.000000
vt 0.437500 0.000000
vt 0.375000 0.000000
vt 0.062500 0.000000
vt 0.125000 0.000000
vt 0.125000 0.000000
vt 0.062500 0.000000
vt 0.812500 0.000000
vt 0.875000 0.000000
vt 0.875000 0.000000
vt 0.812500 0.000000
vt 0.500000 0.000000
vt 0.562500 0.000000
vt 0.562500 0.000000
vt 0.500000 0.000000
vt 0.187500 0.000000
vt 0.250000 0.000000
vt 0.250000 0.000000
vt 0.187500 0.000000
vt 0.937500 0.000000
vt 1.000000 0.000000
vt 1.000000 0.000000
vt 0.937500 0.000000
vt 0.625000 0.000000
vt 0.687500 0.000000
vt 0.687500 0.000000
vt 0.625000 0.000000
vt 0.312500 0.000000
vt 0.375000 0.000000
vt 0.375000 0.000000
vt 0.312500 0.000000
vt 0.000000 0.000000
vt 0.062500 0.000000
vt 0.062500 0.000000
vt 0.000000 0.000000
vt 0.500000 0.000000
vt 0.562500 0.000000
vt 0.562500 0.000000
vt 0.500000 0.000000
vt 0.937500 0.000000
vt 1.000000 0.000000
vt 1.000000 0.000000
vt 0.937500 0.000000
vt 0.000000 0.000000
vt 0.062500 0.000000
vt 0.062500 0.000000
vt 0.000000 0.000000
vt 0.437500 0.000000
vt 0.500000 0.000000
vt 0.500000 0.000000
vt 0.437500 0.000000
vt 0.875000 0.000000
vt 0.937500 0.000000
vt 0.937500 0.000000
vt 0.875000 0.000000
vt 0.375000 0.000000
vt 0.437500 0.000000
vt 0.437500 0.000000
vt 0.375000 0.000000
vt 0.812500 0.000000
vt 0.812500 0.000000
vt 0.312500 0.000000
vt 0.375000 0.000000
vt 0.375000 0.000000
vt 0.312500 0.000000
vt 0.750000 0.000000
vt 0.812500 0.000000
vt 0.812500 0.000000
vt 0.750000 0.000000
vt 0.250000 0.000000
vt 0.250000 0.000000
vt 0.687500 0.000000
vt 0.750000 0.000000
vt 0.750000 0.000000
vt 0.687500 0.000000
vt 0.187500 0.000000
vt 0.187500 0.000000
vt 0.625000 0.000000
vt 0.687500 0.000000
vt 0.687500 0.000000
vt 0.625000 0.000000
vt 0.125000 0.000000
vt 0.187500 0.000000
vt 0.187500 0.000000
vt 0.125000 0.000000
vt 0.125000 0.000000
vt 0.125000 0.000000
vt 0.187500 0.000000
vt 0.250000 0.000000
vt 0.250000 0.000000
vt 0.187500 0.000000
vt 0.625000 0.000000
vt 0.687500 0.000000
vt 0.687500 0.000000
vt 0.625000 0.000000
vt 0.125000 0.000000
vt 0.187500 0.000000
vt 0.187500 0.000000
vt 0.125000 0.000000
vt 0.562500 0.000000
vt 0.625000 0.000000
vt 0.625000 0.000000
vt 0.562500 0.000000
vt 0.062500 0.000000
vt 0.125000 0.000000
vt 0.125000 0.000000
vt 0.062500 0.000000
vt 0.500000 0.000000
vt 0.562500 0.000000
vt 0.562500 0.000000
vt 0.500000 0.000000
vt 0.937500 0.000000
vt 1.000000 0.000000
vt 1.000000 0.000000
vt 0.937500 0.000000
vt 0.000000 0.000000
vt 0.062500 0.000000
vt 0.062500 0.000000
vt 0.000000 0.000000
vt 0.437500 0.000000
vt 0.500000 0.000000
vt 0.500000 0.000000
vt 0.437500 0.000000
vt 0.875000 0.000000
vt 0.937500 0.000000
vt 0.937500 0.000000
vt 0.875000 0.000000
vt 0.375000 0.000000
vt 0.437500 0.000000
vt 0.437500 0.000000
vt 0.375000 0.000000
vt 0.812500 0.000000
vt 0.875000 0.000000
vt 0.875000 0.000000
vt 0.812500 0.000000
vt 0.312500 0.000000
vt 0.375000 0.000000
vt 0.375000 0.000000
vt 0.312500 0.000000
vt 0.750000 0.000000
vt 0.812500 0.000000
vt 0.812500 0.000000
vt 0.750000 0.000000
vt 0.250000 0.000000
vt 0.312500 0.000000
vt 0.312500 0.000000
vt 0.250000 0.000000
vt 0.687500 0.000000
vt 0.750000 0.000000
vt 0.750000 0.000000
vt 0.687500 0.000000
vt 0.500000 0.000000
vt 0.562500 0.000000
vt 0.562500 0.000000
vt 0.500000 0.000000
vt 0.937500 0.000000
vt 1.000000 0.000000
vt 1.000000 0.000000
vt 0.937500 0.000000
vt 0.000000 0.000000
vt 0.062500 0.000000
vt 0.062500 0.000000
vt 0.000000 0.000000
vt 0.437500 0.000000
vt 0.500000 0.000000
vt 0.500000 0.000000
vt 0.437500 0.000000
vt 0.875000 0.000000
vt 0.937500 0.000000
vt 0.937500 0.000000
vt 0.875000 0.000000
vt 0.375000 0.000000
vt 0.437500 0.000000
vt 0.437500 0.000000
vt 0.375000 0.000000
vt 0.812500 0.000000
vt 0.875000 0.000000
vt 0.875000 0.000000
vt 0.812500 0.000000
vt 0.312500 0.000000
vt 0.375000 0.000000
vt 0.375000 0.000000
vt 0.312500 0.000000
vt 0.750000 0.000000
vt 0.812500 0.000000
vt 0.812500 0.000000
vt 0.750000 0.000000
vt 0.250000 0.000000
vt 0.312500 0.000000
vt 0.312500 0.000000
vt 0.250000 0.000000
vt 0.687500 0.000000
vt 0.750000 0.000000
vt 0.750000 0.000000
vt 0.687500 0.000000
vt 0.187500 0.000000
vt 0.250000 0.000000
vt 0.250000 0.000000
vt 0.187500 0.000000
vt 0.625000 0.000000
vt 0.687500 0.000000
vt 0.687500 0.000000
vt 0.625000 0.000000
vt 0.125000 0.000000
vt 0.187500 0.000000
vt 0.187500 0.000000
vt 0.125000 0.000000
vt 0.562500 0.000000
vt 0.625000 0.000000
vt 0.625000 0.000000
vt 0.562500 0.000000
vt 0.062500 0.000000
vt 0.125000 0.000000
vt 0.125000 0.000000
vt 0.062500 0.000000
vt 0.187500 0.000000
vt 0.250000 0.000000
vt 0.250000 0.000000
vt 0.187500 0.000000
vt 0.625000 0.000000
vt 0.687500 0.000000
vt 0.687500 0.000000
vt 0.625000 0.000000
vt 0.125000 0.000000
vt 0.187500 0.000000
vt 0.187500 0.000000
vt 0.125000 0.000000
vt 0.562500 0.000000
vt 0.625000 0.000000
vt 0.625000 0.000000
vt 0.562500 0.000000
vt 0.062500 0.000000
vt 0.125000 0.000000
vt 0.125000 0.000000
vt 0.062500 0.000000
vt 0.500000 0.000000
vt 0.562500 0.000000
vt 0.562500 0.000000
vt 0.500000 0.000000
vt 0.937500 0.000000
vt 1.000000 0.000000
vt 1.000000 0.000000
vt 0.937500 0.000000
vt 0.000000 0.000000
vt 0.062500 0.000000
vt 0.062500 0.000000
vt 0.000000 0.000000
vt 0.437500 0.000000
vt 0.500000 0.000000
vt 0.500000 0.000000
vt 0.437500 0.000000
vt 0.875000 0.000000
vt 0.937500 0.000000
vt 0.937500 0.000000
vt 0.875000 0.000000
vt 0.375000 0.000000
vt 0.437500 0.000000
vt 0.437500 0.000000
vt 0.375000 0.000000
vt 0.812500 0.000000
vt 0.875000 0.000000
vt 0.875000 0.000000
vt 0.812500 0.000000
vt 0.312500 0.000000
vt 0.375000 0.000000
vt 0.375000 0.000000
vt 0.312500 0.000000
vt 0.750000 0.000000
vt 0.812500 0.000000
vt 0.812500 0.000000
vt 0.750000 0.000000
vt 0.250000 0.000000
vt 0.312500 0.000000
vt 0.312500 0.000000
vt 0.250000 0.000000
vt 0.687500 0.000000
vt 0.750000 0.000000
vt 0.750000 0.000000
vt 0.687500 0.000000
vt 0.312500 0.000000
vt 0.375000 0.000000
vt 0.375000 0.000000
vt 0.312500 0.000000
vt 0.750000 0.000000
vt 0.812500 0.000000
vt 0.812500 0.000000
vt 0.750000 0.000000
vt 0.250000 0.000000
vt 0.312500 0.000000
vt 0.312500 0.000000
vt 0.250000 0.000000
vt 0.687500 0.000000
vt 0.750000 0.000000
vt 0.750000 0.000000
vt 0.687500 0.000000
vt 0.187500 0.000000
vt 0.250000 0.000000
vt 0.250000 0.000000
vt 0.187500 0.000000
vt 0.625000 0.000000
vt 0.687500 0.000000
vt 0.687500 0.000000
vt 0.625000 0.000000
vt 0.125000 0.000000
vt 0.187500 0.000000
vt 0.187500 0.000000
vt 0.125000 0.000000
vt 0.562500 0.000000
vt 0.625000 0.000000
vt 0.625000 0.000000
vt 0.562500 0.000000
vt 0.062500 0.000000
vt 0.125000 0.000000
vt 0.125000 0.000000
vt 0.062500 0.000000
vt 0.500000 0.000000
vt 0.562500 0.000000
vt 0.562500 0.000000
vt 0.500000 0.000000
vt 0.937500 0.000000
vt 1.000000 0.000000
vt 1.000000 0.000000
vt 0.937500 0.000000
vt 0.000000 0.000000
vt 0.062500 0.000000
vt 0.062500 0.000000
vt 0.000000 0.000000
vt 0.437500 0.000000
vt 0.500000 0.000000
vt 0.500000 0.000000
vt 0.437500 0.000000
vt 0.875000 0.000000
vt 0.937500 0.000000
vt 0.937500 0.000000
vt 0.875000 0.000000
vt 0.375000 0.000000
vt 0.437500 0.000000
vt 0.437500 0.000000
vt 0.375000 0.000000
vt 0.812500 0.000000
vt 0.875000 0.000000
vt 0.875000 0.000000
vt 0.812500 0.000000
vt 0.625000 0.000000
vt 0.687500 0.000000
vt 0.687500 0.000000
vt 0.625000 0.000000
vt 0.125000 0.000000
vt 0.187500 0.000000
vt 0.187500 0.000000
vt 0.125000 0.000000
vt 0.562500 0.000000
vt 0.625000 0.000000
vt 0.625000 0.000000
vt 0.562500 0.000000
vt 0.062500 0.000000
vt 0.125000 0.000000
vt 0.125000 0.000000
vt 0.062500 0.000000
vt 0.500000 0.000000
vt 0.562500 0.000000
vt 0.562500 0.000000
vt 0.500000 0.000000
vt 0.937500 0.000000
vt 1.000000 0.000000
vt 1.000000 0.000000
vt 0.937500 0.000000
vt 0.000000 0.000000
vt 0.062500 0.000000
vt 0.062500 0.000000
vt 0.000000 0.000000
vt 0.437500 0.000000
vt 0.500000 0.000000
vt 0.500000 0.000000
vt 0.437500 0.000000
vt 0.875000 0.000000
vt 0.937500 0.000000
vt 0.937500 0.000000
vt 0.875000 0.000000
vt 0.375000 0.000000
vt 0.437500 0.000000
vt 0.437500 0.000000
vt 0.375000 0.000000
vt 0.812500 0.000000
vt 0.875000 0.000000
vt 0.875000 0.000000
vt 0.812500 0.000000
vt 0.312500 0.000000
vt 0.375000 0.000000
vt 0.375000 0.000000
vt 0.312500 0.000000
vt 0.750000 0.000000
vt 0.812500 0.000000
vt 0.812500 0.000000
vt 0.750000 0.000000
vt 0.250000 0.000000
vt 0.312500 0.000000
vt 0.312500 0.000000
vt 0.250000 0.000000
vt 0.687500 0.000000
vt 0.750000 0.000000
vt 0.750000 0.000000
vt 0.687500 0.000000
vt 0.187500 0.000000
vt 0.250000 0.000000
vt 0.250000 0.000000
vt 0.187500 0.000000
vt 0.562500 0.000000
vt 0.500000 -0.000000
vt 0.437500 0.000000
vt 0.500000 0.000000
vt 0.500000 -0.000000
vt 0.446429 0.000000
vt 0.375000 0.000000
vt 0.437500 0.000000
vt 0.446429 0.000000
vt 0.375000 0.000000
vt 0.312500 0.000000
vt 0.375000 0.000000
vt 0.375000 0.000000
vt 0.187500 0.000000
vt 0.250000 0.000000
vt 0.312500 0.000000
vt 0.625000 0.000000
vt 0.553571 0.000000
vt 0.500000 -0.000000
vt 0.562500 0.000000
vt 0.553571 0.000000
vt 0.500000 0.000000
vt 0.446429 0.000000
vt 0.500000 -0.000000
vt 0.500000 0.000000
vt 0.410714 0.000000
vt 0.446429 0.000000
vt 0.410714 0.000000
vt 0.125000 0.000000
vt 0.187500 0.000000
vt 0.375000 0.000000
vt 0.687500 0.000000
vt 0.625000 0.000000
vt 0.553571 0.000000
vt 0.625000 0.000000
vt 0.625000 0.000000
vt 0.589286 0.000000
vt 0.500000 0.000000
vt 0.553571 0.000000
vt 0.589286 0.000000
vt 0.500000 0.000000
vt 0.410714 0.000000
vt 0.500000 0.000000
vt 0.500000 0.000000
vt 0.062500 0.000000
vt 0.125000 0.000000
vt 0.410714 0.000000
vt 0.750000 0.000000
vt 0.812500 0.000000
vt 0.625000 0.000000
vt 0.687500 0.000000
vt 0.812500 0.000000
vt 0.875000 0.000000
vt 0.589286 0.000000
vt 0.625000 0.000000
vt 0.875000 0.000000
vt 0.937500 0.000000
vt 0.500000 0.000000
vt 0.589286 0.000000
vt 0.937500 0.000000
vt 0.000000 0.000000
vt 0.062500 0.000000
vt 0.500000 0.000000
vt 0.937500 1.000000
vt 0.937500 0.000000
vt 0.937500 0.000000
vt 0.937500 1.000000
vt 0.625000 0.000000
vt 0.625000 1.000000
vt 0.625000 1.000000
vt 0.625000 0.000000
vt 0.187500 0.000000
vt 0.125000 0.000000
vt 0.125000 0.000000
vt 0.187500 0.000000
vt 0.437500 1.000000
vt 0.437500 0.000000
vt 0.437500 0.000000
vt 0.437500 1.000000
vt 0.125000 0.000000
vt 0.125000 1.000000
vt 0.125000 1.000000
vt 0.125000 0.000000
vt 0.937500 0.000000
vt 0.875000 0.000000
vt 0.875000 0.000000
vt 0.937500 0.000000
vt 0.875000 0.000000
vt 0.875000 1.000000
vt 0.875000 1.000000
vt 0.875000 0.000000
vt 0.437500 0.000000
vt 0.375000 0.000000
vt 0.375000 0.000000
vt 0.437500 0.000000
vt 0.687500 1.000000
vt 0.687500 0.000000
vt 0.687500 0.000000
vt 0.687500 1.000000
vt 0.375000 0.000000
vt 0.375000 1.000000
vt 0.375000 1.000000
vt 0.375000 0.000000
vt 0.187500 1.000000
vt 0.187500 0.000000
vt 0.125000 0.000000
vt 0.000000 1.000000
vt 0.375000 0.000000
vt 0.000000 1.000000
vt 0.437500 1.000000
vt 0.437500 0.000000
vt 0.937500 1.000000
vt 0.937500 0.000000
vt 0.875000 0.000000
vt 0.000000 1.000000
vt 0.750000 0.625000
vt 0.750000 0.500000
vt 0.687500 0.500000
vt 0.687500 0.625000
vt 0.750000 0.375000
vt 0.750000 0.250000
vt 0.687500 0.250000
vt 0.687500 0.375000
vt 0.750000 0.750000
vt 0.750000 0.625000
vt 0.687500 0.625000
vt 0.687500 0.750000
vt 0.750000 0.500000
vt 0.750000 0.375000
vt 0.687500 0.375000
vt 0.687500 0.500000
vt 0.750000 0.250000
vt 0.750000 0.125000
vt 0.687500 0.125000
vt 0.687500 0.250000
vt 0.687500 0.750000
vt 0.687500 0.625000
vt 0.625000 0.625000
vt 0.625000 0.750000
vt 0.687500 0.500000
vt 0.687500 0.375000
vt 0.625000 0.375000
vt 0.625000 0.500000
vt 0.687500 0.250000
vt 0.687500 0.125000
vt 0.625000 0.125000
vt 0.625000 0.250000
vt 0.687500 0.625000
vt 0.687500 0.500000
vt 0.625000 0.500000
vt 0.625000 0.625000
vt 0.687500 0.375000
vt 0.687500 0.250000
vt 0.625000 0.250000
vt 0.625000 0.375000
vt 0.625000 0.250000
vt 0.625000 0.125000
vt 0.562500 0.125000
vt 0.562500 0.250000
vt 0.625000 0.625000
vt 0.625000 0.500000
vt 0.562500 0.500000
vt 0.562500 0.625000
vt 0.625000 0.375000
vt 0.625000 0.250000
vt 0.562500 0.250000
vt 0.562500 0.375000
vt 0.625000 0.750000
vt 0.625000 0.625000
vt 0.562500 0.625000
vt 0.562500 0.750000
vt 0.625000 0.500000
vt 0.625000 0.375000
vt 0.562500 0.375000
vt 0.562500 0.500000
vt 0.562500 0.625000
vt 0.562500 0.500000
vt 0.500000 0.500000
vt 0.500000 0.625000
vt 0.562500 0.375000
vt 0.562500 0.250000
vt 0.500000 0.250000
vt 0.500000 0.375000
vt 0.562500 0.750000
vt 0.562500 0.625000
vt 0.500000 0.625000
vt 0.500000 0.750000
vt 0.562500 0.500000
vt 0.562500 0.375000
vt 0.500000 0.375000
vt 0.500000 0.500000
vt 0.562500 0.250000
vt 0.562500 0.125000
vt 0.500000 0.125000
vt 0.500000 0.250000
vt 0.500000 0.750000
vt 0.500000 0.625000
vt 0.437500 0.625000
vt 0.437500 0.750000
vt 0.500000 0.500000
vt 0.500000 0.375000
vt 0.437500 0.375000
vt 0.437500 0.500000
vt 0.500000 0.250000
vt 0.500000 0.125000
vt 0.437500 0.125000
vt 0.437500 0.250000
vt 0.500000 0.625000
vt 0.500000 0.500000
vt 0.437500 0.500000
vt 0.437500 0.625000
vt 0.500000 0.375000
vt 0.500000 0.250000
vt 0.437500 0.250000
vt 0.437500 0.375000
vt 0.437500 0.750000
vt 0.437500 0.625000
vt 0.375000 0.625000
vt 0.375000 0.750000
vt 0.437500 0.500000
vt 0.437500 0.375000
vt 0.375000 0.375000
vt 0.375000 0.500000
vt 0.437500 0.250000
vt 0.437500 0.125000
vt 0.375000 0.125000
vt 0.375000 0.250000
vt 0.437500 0.625000
vt 0.437500 0.500000
vt 0.375000 0.500000
vt 0.375000 0.625000
vt 0.437500 0.375000
vt 0.437500 0.250000
vt 0.375000 0.250000
vt 0.375000 0.375000
vt 0.375000 0.625000
vt 0.375000 0.500000
vt 0.312500 0.500000
vt 0.312500 0.625000
vt 0.375000 0.375000
vt 0.375000 0.250000
vt 0.312500 0.250000
vt 0.312500 0.375000
vt 0.375000 0.750000
vt 0.375000 0.625000
vt 0.312500 0.625000
vt 0.312500 0.750000
vt 0.375000 0.500000
vt 0.375000 0.375000
vt 0.312500 0.375000
vt 0.312500 0.500000
vt 0.375000 0.250000
vt 0.375000 0.125000
vt 0.312500 0.125000
vt 0.312500 0.250000
vt 0.312500 0.625000
vt 0.312500 0.500000
vt 0.250000 0.500000
vt 0.250000 0.625000
vt 0.312500 0.375000
vt 0.312500 0.250000
vt 0.250000 0.250000
vt 0.250000 0.375000
vt 0.312500 0.750000
vt 0.312500 0.625000
vt 0.250000 0.625000
vt 0.250000 0.750000
vt 0.312500 0.500000
vt 0.312500 0.375000
vt 0.250000 0.375000
vt 0.250000 0.500000
vt 0.312500 0.250000
vt 0.312500 0.125000
vt 0.250000 0.125000
vt 0.250000 0.250000
vt 0.250000 0.750000
vt 0.250000 0.625000
vt 0.187500 0.625000
vt 0.187500 0.750000
vt 0.250000 0.500000
vt 0.250000 0.375000
vt 0.187500 0.375000
vt 0.187500 0.500000
vt 0.250000 0.250000
vt 0.250000 0.125000
vt 0.187500 0.125000
vt 0.187500 0.250000
vt 0.250000 0.625000
vt 0.250000 0.500000
vt 0.187500 0.500000
vt 0.187500 0.625000
vt 0.250000 0.375000
vt 0.250000 0.250000
vt 0.187500 0.250000
vt 0.187500 0.375000
vt 0.187500 0.500000
vt 0.187500 0.375000
vt 0.125000 0.375000
vt 0.125000 0.500000
vt 0.187500 0.250000
vt 0.187500 0.125000
vt 0.125000 0.125000
vt 0.125000 0.250000
vt 0.187500 0.625000
vt 0.187500 0.500000
vt 0.125000 0.500000
vt 0.125000 0.625000
vt 0.187500 0.375000
vt 0.187500 0.250000
vt 0.125000 0.250000
vt 0.125000 0.375000
vt 0.187500 0.750000
vt 0.187500 0.625000
vt 0.125000 0.625000
vt 0.125000 0.750000
vt 0.125000 0.625000
vt 0.125000 0.500000
vt 0.062500 0.500000
vt 0.062500 0.625000
vt 0.125000 0.375000
vt 0.125000 0.250000
vt 0.062500 0.250000
vt 0.062500 0.375000
vt 0.125000 0.750000
vt 0.125000 0.625000
vt 0.062500 0.625000
vt 0.062500 0.750000
vt 0.125000 0.500000
vt 0.125000 0.375000
vt 0.062500 0.375000
vt 0.062500 0.500000
vt 0.125000 0.250000
vt 0.125000 0.125000
vt 0.062500 0.125000
vt 0.062500 0.250000
vt 0.062500 0.375000
vt 0.062500 0.250000
vt 0.000000 0.250000
vt 0.000000 0.375000
vt 0.062500 0.750000
vt 0.062500 0.625000
vt 0.000000 0.625000
vt 0.000000 0.750000
vt 0.062500 0.500000
vt 0.062500 0.375000
vt 0.000000 0.375000
vt 0.000000 0.500000
vt 0.062500 0.250000
vt 0.062500 0.125000
vt 0.000000 0.125000
vt 0.000000 0.250000
vt 0.062500 0.625000
vt 0.062500 0.500000
vt 0.000000 0.500000
vt 0.000000 0.625000
vt 1.000000 0.750000
vt 1.000000 0.625000
vt 0.937500 0.625000
vt 0.937500 0.750000
vt 1.000000 0.500000
vt 1.000000 0.375000
vt 0.937500 0.375000
vt 0.937500 0.500000
vt 1.000000 0.250000
vt 1.000000 0.125000
vt 0.937500 0.125000
vt 0.937500 0.250000
vt 1.000000 0.625000
vt 1.000000 0.500000
vt 0.937500 0.500000
vt 0.937500 0.625000
vt 1.000000 0.375000
vt 1.000000 0.250000
vt 0.937500 0.250000
vt 0.937500 0.375000
vt 0.937500 0.250000
vt 0.937500 0.125000
vt 0.875000 0.125000
vt 0.875000 0.250000
vt 0.937500 0.625000
vt 0.937500 0.500000
vt 0.875000 0.500000
vt 0.875000 0.625000
vt 0.937500 0.375000
vt 0.937500 0.250000
vt 0.875000 0.250000
vt 0.875000 0.375000
vt 0.937500 0.750000
vt 0.937500 0.625000
vt 0.875000 0.625000
vt 0.875000 0.750000
vt 0.937500 0.500000
vt 0.937500 0.375000
vt 0.875000 0.375000
vt 0.875000 0.500000
vt 0.875000 0.625000
vt 0.875000 0.500000
vt 0.812500 0.500000
vt 0.812500 0.625000
vt 0.875000 0.375000
vt 0.875000 0.250000
vt 0.812500 0.250000
vt 0.812500 0.375000
vt 0.875000 0.750000
vt 0.875000 0.625000
vt 0.812500 0.625000
vt 0.812500 0.750000
vt 0.875000 0.500000
vt 0.875000 0.375000
vt 0.812500 0.375000
vt 0.812500 0.500000
vt 0.875000 0.250000
vt 0.875000 0.125000
vt 0.812500 0.125000
vt 0.812500 0.250000
vt 0.812500 0.750000
vt 0.812500 0.625000
vt 0.750000 0.625000
vt 0.750000 0.750000
vt 0.812500 0.500000
vt 0.812500 0.375000
vt 0.750000 0.375000
vt 0.750000 0.500000
vt 0.812500 0.250000
vt 0.812500 0.125000
vt 0.750000 0.125000
vt 0.750000 0.250000
vt 0.812500 0.625000
vt 0.812500 0.500000
vt 0.750000 0.500000
vt 0.750000 0.625000
vt 0.812500 0.375000
vt 0.812500 0.250000
vt 0.750000 0.250000
vt 0.750000 0.375000
vt 0.000000 1.000000
vt 0.687500 1.000000
vt 0.687500 0.000000
vt 0.625000 0.000000
s 0
usemtl Black
f 1/1/1 2/2/1 3/3/1
f 4/4/2 5/5/2 6/6/2
f 7/7/3 8/8/3 9/9/3
f 10/10/4 11/11/4 12/12/4
f 13/13/5 14/14/5 15/15/5
f 16/16/6 17/17/6 18/18/6
f 19/19/7 20/20/7 21/21/7
f 22/22/8 23/23/8 24/24/8
f 25/25/9 26/26/9 27/27/9
f 28/28/10 29/29/10 30/30/10
f 31/31/11 32/32/11 33/33/11
f 34/34/12 35/35/12 36/36/12
f 37/37/13 38/38/13 39/39/13
f 40/40/14 41/41/14 42/42/14
f 43/43/15 44/44/15 45/45/15
f 46/46/16 47/47/16 48/48/16
f 49/49/17 50/50/17 51/51/17
f 49/49/17 51/51/17 52/52/17
f 53/53/18 54/54/18 55/55/18
f 53/53/18 55/55/18 56/56/18
f 57/57/19 58/58/19 59/59/19
f 57/57/19 59/59/19 60/60/19
f 61/61/20 62/62/20 63/63/20
f 61/61/20 63/63/20 64/64/20
f 65/65/21 66/66/21 67/67/21
f 65/65/21 67/67/21 68/68/21
f 69/69/22 70/70/22 71/71/22
f 69/69/22 71/71/22 72/72/22
f 73/73/23 74/74/23 75/75/23
f 73/73/23 75/75/23 76/76/23
f 77/77/24 78/78/24 79/79/24
f 77/77/24 79/79/24 80/80/24
f 81/81/25 82/82/25 83/83/25
f 81/81/25 83/83/25 84/84/25
f 85/85/26 86/86/26 87/87/26
f 85/85/26 87/87/26 88/88/26
f 89/89/27 90/90/27 91/91/27
f 89/89/27 91/91/27 92/92/27
f 93/93/28 94/94/28 95/95/28
f 93/93/28 95/95/28 96/96/28
f 97/97/29 98/98/29 99/99/29
f 97/97/29 99/99/29 100/100/29
f 101/101/30 102/102/30 103/103/30
f 101/101/30 103/103/30 104/104/30
f 105/105/31 106/106/31 107/107/31
f 105/105/31 107/107/31 108/108/31
f 109/109/32 110/110/32 111/111/32
f 109/109/32 111/111/32 112/112/32
s 1
f 113/113/33 114/114/33 115/115/33
s 0
f 113/113/33 115/115/33 116/116/33
f 117/117/34 118/118/34 119/119/34
f 117/117/34 119/119/34 120/120/34
f 121/121/35 122/122/35 123/123/35
f 121/121/35 123/123/35 124/124/35
f 125/125/36 126/126/36 127/127/36
f 125/125/36 127/127/36 128/128/36
f 129/129/37 130/130/37 131/131/37
f 129/129/37 131/131/37 132/132/37
s 1
f 133/133/38 134/134/38 135/135/38
s 0
f 133/133/38 135/135/38 136/136/38
s 1
f 137/137/39 138/138/39 139/139/39
s 0
f 137/137/39 139/139/39 140/140/39
f 141/141/40 142/142/40 143/143/40
f 141/141/40 143/143/40 144/144/40
f 145/145/41 146/146/41 147/147/41
f 145/145/41 147/147/41 148/148/41
f 149/149/42 150/150/42 151/151/42
f 149/149/42 151/151/42 152/152/42
f 153/153/43 154/154/43 155/155/43
f 153/153/43 155/155/43 156/156/43
f 157/157/44 158/158/44 159/159/44
f 157/157/44 159/159/44 160/160/44
f 161/161/45 162/162/45 163/163/45
f 161/161/45 163/163/45 164/164/45
f 165/165/46 166/166/46 167/167/46
f 165/165/46 167/167/46 168/168/46
f 169/169/47 170/170/47 171/171/47
f 169/169/47 171/171/47 172/172/47
f 173/173/47 174/174/47 175/175/47
f 173/173/47 175/175/47 176/176/47
f 177/177/47 178/178/47 179/179/47
f 177/177/47 179/179/47 180/180/47
f 181/181/47 182/182/47 183/183/47
f 181/181/47 183/183/47 184/184/47
f 185/185/47 186/186/47 187/187/47
f 185/185/47 187/187/47 188/188/47
f 189/189/47 190/190/47 191/191/47
f 189/189/47 191/191/47 192/192/47
f 193/193/47 185/185/47 188/188/47
f 193/193/47 188/188/47 194/194/47
f 195/195/47 196/196/47 197/197/47
f 195/195/47 197/197/47 198/198/47
f 199/199/47 200/200/47 201/201/47
f 199/199/47 201/201/47 202/202/47
f 203/203/47 195/195/47 198/198/47
f 203/203/47 198/198/47 204/204/47
f 205/205/47 206/206/47 207/207/47
f 205/205/47 207/207/47 208/208/47
f 209/209/47 203/203/47 204/204/47
f 209/209/47 204/204/47 210/210/47
f 211/211/47 212/212/47 213/213/47
f 211/211/47 213/213/47 214/214/47
f 215/215/47 216/216/47 217/217/47
f 215/215/47 217/217/47 218/218/47
f 170/170/47 211/211/47 214/214/47
f 170/170/47 214/214/47 171/171/47
f 178/178/47 219/219/47 220/220/47
f 178/178/47 220/220/47 179/179/47
f 221/221/20 222/222/20 223/223/20
f 221/221/20 223/223/20 224/224/20
f 225/225/48 226/226/48 227/227/48
f 225/225/48 227/227/48 228/228/48
f 229/229/49 230/230/49 231/231/49
f 229/229/49 231/231/49 232/232/49
f 233/233/29 234/234/29 235/235/29
f 233/233/29 235/235/29 236/236/29
f 237/237/22 238/238/22 239/239/22
f 237/237/22 239/239/22 240/240/22
f 241/241/30 242/242/30 243/243/30
f 241/241/30 243/243/30 244/244/30
f 245/245/24 246/246/24 247/247/24
f 245/245/24 247/247/24 248/248/24
f 249/249/23 250/250/23 251/251/23
f 249/249/23 251/251/23 252/252/23
f 253/253/17 254/254/17 255/255/17
f 253/253/17 255/255/17 256/256/17
f 257/257/50 258/258/50 259/259/50
f 257/257/50 259/259/50 260/260/50
f 261/261/51 262/262/51 263/263/51
f 261/261/51 263/263/51 264/264/51
f 265/265/26 266/266/26 267/267/26
f 265/265/26 267/267/26 268/268/26
f 269/269/18 270/270/18 271/271/18
f 269/269/18 271/271/18 272/272/18
f 273/273/27 274/274/27 275/275/27
f 273/273/27 275/275/27 276/276/27
f 277/277/19 278/278/19 279/279/19
f 277/277/19 279/279/19 280/280/19
f 281/281/28 282/282/28 283/283/28
f 281/281/28 283/283/28 284/284/28
f 285/285/52 286/286/52 287/287/52
f 285/285/52 287/287/52 288/288/52
f 289/289/53 290/290/53 291/291/53
f 289/289/53 291/291/53 292/292/53
f 293/293/54 294/294/54 295/295/54
f 293/293/54 295/295/54 296/296/54
f 297/297/55 298/298/55 299/299/55
f 297/297/55 299/299/55 300/300/55
f 301/301/56 302/302/56 303/303/56
f 301/301/56 303/303/56 304/304/56
f 305/305/57 306/306/57 307/307/57
f 305/305/58 307/307/58 308/308/58
f 309/309/59 310/310/59 311/311/59
f 309/309/59 311/311/59 312/312/59
f 313/313/60 314/314/60 315/315/60
f 313/313/60 315/315/60 316/316/60
f 317/317/61 318/318/61 319/319/61
f 317/317/61 319/319/61 320/320/61
f 321/321/62 322/322/62 323/323/62
f 321/321/62 323/323/62 324/324/62
f 325/325/63 326/326/63 327/327/63
f 325/325/63 327/327/63 328/328/63
f 329/329/64 330/330/64 331/331/64
f 329/329/64 331/331/64 332/332/64
f 333/333/65 334/334/65 335/335/65
f 333/333/65 335/335/65 336/336/65
f 337/337/66 338/338/66 339/339/66
f 337/337/67 339/339/67 340/340/67
f 341/341/68 342/342/68 343/343/68
f 341/341/68 343/343/68 344/344/68
f 345/345/69 346/346/69 347/347/69
f 345/345/69 347/347/69 348/348/69
f 349/349/70 350/350/70 351/351/70
f 349/349/70 351/351/70 352/352/70
f 353/353/71 354/354/71 355/355/71
f 353/353/71 355/355/71 356/356/71
f 357/357/72 358/358/72 359/359/72
f 357/357/72 359/359/72 360/360/72
f 361/361/73 362/362/73 363/363/73
f 361/361/73 363/363/73 364/364/73
f 365/365/74 366/366/74 367/367/74
f 365/365/74 367/367/74 368/368/74
f 369/369/75 370/370/75 371/371/75
f 369/369/75 371/371/75 372/372/75
f 373/373/76 374/374/76 375/375/76
f 373/373/76 375/375/76 376/376/76
f 377/377/77 378/378/77 379/379/77
f 377/377/77 379/379/77 380/380/77
f 381/381/78 382/382/78 383/383/78
f 381/381/78 383/383/78 384/384/78
f 385/385/79 386/386/79 387/387/79
f 385/385/79 387/387/79 388/388/79
f 389/389/80 390/390/80 391/391/80
f 389/389/80 391/391/80 392/392/80
f 393/393/81 394/394/81 395/395/81
f 393/393/81 395/395/81 396/396/81
f 397/397/82 398/398/82 399/399/82
f 397/397/82 399/399/82 400/400/82
f 401/401/83 402/402/83 403/403/83
f 401/401/83 403/403/83 404/404/83
f 405/405/84 406/406/84 407/407/84
f 405/405/84 407/407/84 408/408/84
f 409/409/85 410/410/85 411/411/85
f 409/409/85 411/411/85 412/412/85
f 413/413/18 414/414/18 415/415/18
f 413/413/18 415/415/18 416/416/18
f 417/417/27 418/418/27 419/419/27
f 417/417/27 419/419/27 420/420/27
f 421/421/19 422/422/19 423/423/19
f 421/421/19 423/423/19 424/424/19
f 425/425/28 426/426/28 427/427/28
f 425/425/28 427/427/28 428/428/28
f 429/429/20 430/430/20 431/431/20
f 429/429/20 431/431/20 432/432/20
f 433/433/48 434/434/48 435/435/48
f 433/433/48 435/435/48 436/436/48
f 437/437/49 438/438/49 439/439/49
f 437/437/49 439/439/49 440/440/49
f 441/441/29 442/442/29 443/443/29
f 441/441/29 443/443/29 444/444/29
f 445/445/22 446/446/22 447/447/22
f 445/445/22 447/447/22 448/448/22
f 449/449/30 450/450/30 451/451/30
f 449/449/30 451/451/30 452/452/30
f 453/453/24 454/454/24 455/455/24
f 453/453/24 455/455/24 456/456/24
f 457/457/23 458/458/23 459/459/23
f 457/457/23 459/459/23 460/460/23
f 461/461/17 462/462/17 463/463/17
f 461/461/17 463/463/17 464/464/17
f 465/465/50 466/466/50 467/467/50
f 465/465/50 467/467/50 468/468/50
f 469/469/51 470/470/51 471/471/51
f 469/469/51 471/471/51 472/472/51
f 473/473/26 474/474/26 475/475/26
f 473/473/26 475/475/26 476/476/26
f 477/477/48 478/478/48 479/479/48
f 477/477/48 479/479/48 480/480/48
f 481/481/49 482/482/49 483/483/49
f 481/481/49 483/483/49 484/484/49
f 485/485/29 486/486/29 487/487/29
f 485/485/29 487/487/29 488/488/29
f 489/489/22 490/490/22 491/491/22
f 489/489/22 491/491/22 492/492/22
f 493/493/30 494/494/30 495/495/30
f 493/493/30 495/495/30 496/496/30
f 497/497/24 498/498/24 499/499/24
f 497/497/24 499/499/24 500/500/24
f 501/501/23 502/502/23 503/503/23
f 501/501/23 503/503/23 504/504/23
f 505/505/17 506/506/17 507/507/17
f 505/505/17 507/507/17 508/508/17
f 509/509/50 510/510/50 511/511/50
f 509/509/50 511/511/50 512/512/50
f 513/513/51 514/514/51 515/515/51
f 513/513/51 515/515/51 516/516/51
f 517/517/26 518/518/26 519/519/26
f 517/517/26 519/519/26 520/520/26
f 521/521/18 522/522/18 523/523/18
f 521/521/18 523/523/18 524/524/18
f 525/525/27 526/526/27 527/527/27
f 525/525/27 527/527/27 528/528/27
f 529/529/19 530/530/19 531/531/19
f 529/529/19 531/531/19 532/532/19
f 533/533/28 534/534/28 535/535/28
f 533/533/28 535/535/28 536/536/28
f 537/537/20 538/538/20 539/539/20
f 537/537/20 539/539/20 540/540/20
f 541/541/47 542/542/47 543/543/47
f 541/541/47 543/543/47 544/544/47
f 545/545/47 546/546/47 547/547/47
f 545/545/47 547/547/47 548/548/47
f 549/549/47 550/550/47 551/551/47
f 549/549/47 551/551/47 552/552/47
f 553/553/47 554/554/47 555/555/47
f 553/553/47 555/555/47 556/556/47
f 557/557/47 558/558/47 559/559/47
f 557/557/47 559/559/47 560/560/47
f 561/561/47 562/562/47 563/563/47
f 561/561/47 563/563/47 564/564/47
f 565/565/47 566/566/47 553/553/47
f 565/565/47 553/553/47 567/567/47
f 568/568/47 569/569/47 570/570/47
f 568/568/47 570/570/47 571/571/47
f 572/572/47 573/573/47 574/574/47
f 572/572/47 574/574/47 575/575/47
f 576/576/47 577/577/47 578/578/47
f 576/576/47 578/578/47 579/579/47
f 580/580/47 581/581/47 582/582/47
f 580/580/47 582/582/47 583/583/47
f 584/584/47 585/585/47 586/586/47
f 584/584/47 586/586/47 587/587/47
f 588/588/47 589/589/47 590/590/47
f 588/588/47 590/590/47 591/591/47
f 592/592/47 593/593/47 594/594/47
f 592/592/47 594/594/47 595/595/47
f 596/596/47 597/597/47 598/598/47
f 596/596/47 598/598/47 599/599/47
f 600/600/47 601/601/47 602/602/47
f 600/600/47 602/602/47 603/603/47
f 604/604/86 605/605/86 606/606/86
f 604/604/86 606/606/86 607/607/86
f 608/608/87 609/609/87 610/610/87
f 608/608/87 610/610/87 611/611/87
f 612/612/88 613/613/88 614/614/88
f 612/612/88 614/614/88 615/615/88
f 616/616/89 617/617/89 618/618/89
f 616/616/89 618/618/89 619/619/89
f 620/620/90 621/621/90 622/622/90
f 620/620/90 622/622/90 623/623/90
f 624/624/91 625/625/91 626/626/91
f 624/624/91 626/626/91 627/627/91
f 628/628/92 629/629/92 630/630/92
f 628/628/92 630/630/92 631/631/92
f 632/632/93 633/633/93 634/634/93
f 632/632/93 634/634/93 635/635/93
f 636/636/94 637/637/94 638/638/94
f 636/636/94 638/638/94 639/639/94
f 640/640/95 641/641/95 642/642/95
f 640/640/95 642/642/95 643/643/95
f 644/644/48 645/645/48 646/646/48
f 644/644/48 646/646/48 647/647/48
f 648/648/50 649/649/50 650/650/50
f 648/648/50 650/650/50 651/651/50
f 652/652/51 653/653/51 654/654/51
f 652/652/51 654/654/51 655/655/51
f 656/656/96 657/657/96 658/658/96
f 656/656/96 658/658/96 659/659/96
f 660/660/97 661/661/97 662/662/97
f 660/660/97 662/662/97 663/663/97
f 664/664/98 665/665/98 666/666/98
f 664/664/98 666/666/98 667/667/98
f 668/668/99 669/669/99 670/670/99
f 668/668/99 670/670/99 671/671/99
f 672/672/100 673/673/100 674/674/100
f 672/672/100 674/674/100 675/675/100
f 676/676/101 677/677/101 678/678/101
f 676/676/101 678/678/101 679/679/101
f 680/680/102 681/681/102 682/682/102
f 680/680/102 682/682/102 683/683/102
f 684/684/103 685/685/103 686/686/103
f 684/684/103 686/686/103 687/687/103
f 688/688/104 689/689/104 690/690/104
f 688/688/104 690/690/104 691/691/104
f 692/692/105 693/693/105 694/694/105
f 692/692/105 694/694/105 695/695/105
f 696/696/106 697/697/106 698/698/106
f 696/696/106 698/698/106 699/699/106
f 700/700/107 701/701/107 702/702/107
f 700/700/107 702/702/107 703/703/107
f 704/704/108 705/705/108 706/706/108
f 704/704/108 706/706/108 707/707/108
f 708/708/109 709/709/109 710/710/109
f 708/708/109 710/710/109 711/711/109
f 712/712/110 713/713/110 714/714/110
f 712/712/110 714/714/110 715/715/110
f 716/716/111 717/717/111 718/718/111
f 716/716/111 718/718/111 719/719/111
f 720/720/112 721/721/112 722/722/112
f 720/720/112 722/722/112 723/723/112
f 724/724/113 725/725/113 726/726/113
f 724/724/113 726/726/113 727/727/113
f 728/728/114 729/729/114 730/730/114
f 728/728/114 730/730/114 731/731/114
f 732/732/115 733/733/115 734/734/115
f 732/732/115 734/734/115 735/735/115
f 736/736/116 737/737/116 738/738/116
f 736/736/116 738/738/116 739/739/116
f 740/740/117 741/741/117 742/742/117
f 740/740/117 742/742/117 743/743/117
f 744/744/118 745/745/118 746/746/118
f 744/744/118 746/746/118 747/747/118
f 748/748/119 749/749/119 750/750/119
f 748/748/119 750/750/119 751/751/119
f 752/752/120 753/753/120 754/754/120
f 752/752/120 754/754/120 755/755/120
f 756/756/121 757/757/121 758/758/121
f 756/756/121 758/758/121 759/759/121
f 760/760/122 761/761/122 762/762/122
f 760/760/122 762/762/122 763/763/122
f 764/764/123 765/765/123 766/766/123
f 764/764/123 766/766/123 767/767/123
f 768/768/124 769/769/124 770/770/124
f 768/768/124 770/770/124 771/771/124
f 772/772/125 773/773/125 774/774/125
f 772/772/125 774/774/125 775/775/125
f 776/776/126 777/777/126 778/778/126
f 776/776/126 778/778/126 779/779/126
f 780/780/127 781/781/127 782/782/127
f 780/780/127 782/782/127 783/783/127
f 784/784/128 785/785/128 786/786/128
f 784/784/128 786/786/128 787/787/128
f 788/788/129 789/789/129 790/790/129
f 788/788/129 790/790/129 791/791/129
f 792/792/130 793/793/130 794/794/130
f 792/792/130 794/794/130 795/795/130
f 796/796/131 797/797/131 798/798/131
f 796/796/131 798/798/131 799/799/131
f 800/800/132 801/801/132 802/802/132
f 800/800/132 802/802/132 803/803/132
f 804/804/133 805/805/133 806/806/133
f 804/804/133 806/806/133 807/807/133
f 808/808/134 809/809/134 810/810/134
f 808/808/134 810/810/134 811/811/134
f 812/812/135 813/813/135 814/814/135
f 812/812/135 814/814/135 815/815/135
f 816/816/136 817/817/136 818/818/136
f 816/816/136 818/818/136 819/819/136
f 820/820/137 821/821/137 822/822/137
f 820/820/137 822/822/137 823/823/137
f 824/824/138 825/825/138 826/826/138
f 824/824/138 826/826/138 827/827/138
f 828/828/139 829/829/139 830/830/139
f 828/828/139 830/830/139 831/831/139
f 832/832/140 833/833/140 834/834/140
f 832/832/140 834/834/140 835/835/140
f 836/836/141 837/837/141 838/838/141
f 836/836/141 838/838/141 839/839/141
f 840/840/142 841/841/142 842/842/142
f 840/840/142 842/842/142 843/843/142
f 844/844/143 845/845/143 846/846/143
s 1
f 844/844/143 846/846/143 847/847/143
s 0
f 848/848/144 849/849/144 850/850/144
f 848/848/144 850/850/144 851/851/144
f 852/852/145 853/853/145 854/854/145
f 852/852/145 854/854/145 855/855/145
f 856/856/146 857/857/146 858/858/146
f 856/856/146 858/858/146 859/859/146
f 860/860/147 861/861/147 862/862/147
f 860/860/147 862/862/147 863/863/147
f 864/864/148 865/865/148 866/866/148
f 864/864/148 866/866/148 867/867/148
f 868/868/149 869/869/149 870/870/149
f 868/868/149 870/870/149 871/871/149
f 872/872/150 873/873/150 874/874/150
f 872/872/150 874/874/150 875/875/150
s 1
f 876/876/151 877/877/151 878/878/151
s 0
f 876/876/151 878/878/151 879/879/151
f 880/880/152 881/881/152 882/882/152
f 880/880/152 882/882/152 883/883/152
f 884/884/153 885/885/153 886/886/153
f 884/884/153 886/886/153 887/887/153
f 888/888/154 889/889/154 890/890/154
f 888/888/154 890/890/154 891/891/154
f 892/892/155 893/893/155 894/894/155
f 892/892/155 894/894/155 895/895/155
f 896/896/156 897/897/156 898/898/156
f 896/896/156 898/898/156 899/899/156
f 900/900/157 901/901/157 902/902/157
f 900/900/157 902/902/157 903/903/157
f 904/904/158 905/905/158 906/906/158
f 904/904/158 906/906/158 907/907/158
f 908/908/159 909/909/159 910/910/159
f 908/908/159 910/910/159 911/911/159
f 912/912/160 913/913/160 914/914/160
f 912/912/160 914/914/160 915/915/160
f 916/916/161 917/917/161 918/918/161
f 916/916/161 918/918/161 919/919/161
f 920/920/162 921/921/162 922/922/162
f 920/920/162 922/922/162 923/923/162
f 924/924/163 925/925/163 926/926/163
f 924/924/163 926/926/163 927/927/163
f 928/928/164 929/929/164 930/930/164
f 928/928/164 930/930/164 931/931/164
f 932/932/165 933/933/165 934/934/165
f 932/932/165 934/934/165 935/935/165
f 936/936/166 937/937/166 938/938/166
f 936/936/166 938/938/166 939/939/166
f 940/940/167 941/941/167 942/942/167
f 940/940/167 942/942/167 943/943/167
f 944/944/168 945/945/168 946/946/168
f 944/944/168 946/946/168 947/947/168
f 948/948/169 949/949/169 950/950/169
f 948/948/169 950/950/169 951/951/169
f 952/952/170 953/953/170 954/954/170
f 952/952/170 954/954/170 955/955/170
f 956/956/171 957/957/171 958/958/171
f 956/956/171 958/958/171 959/959/171
f 960/960/172 961/961/172 962/962/172
f 960/960/172 962/962/172 963/963/172
f 964/964/173 965/965/173 966/966/173
f 964/964/173 966/966/173 967/967/173
f 968/968/174 969/969/174 970/970/174
f 968/968/174 970/970/174 971/971/174
f 972/972/175 973/973/175 974/974/175
f 972/972/175 974/974/175 975/975/175
f 976/976/49 977/977/49 978/978/49
f 976/976/49 978/978/49 979/979/49
