# Blender 3.5.0
# www.blender.org
mtllib CannonExhaustGreen.mtl
o Exhaust_GreenGlow_0
v 0.701565 0.234279 0.742156
v 0.593539 -0.023333 0.742156
v 0.477893 0.054672 0.742156
v 0.564871 0.262090 0.742156
v -0.701565 0.519750 0.742156
v -0.593539 0.777362 0.742156
v -0.477893 0.699357 0.742156
v -0.564871 0.491939 0.742156
v 0.702784 0.513622 0.742156
v 0.565852 0.487005 0.742156
v -0.702784 0.240407 0.742156
v -0.701565 0.519750 0.742156
v -0.564871 0.491939 0.742156
v -0.565852 0.267024 0.742156
v 0.597010 0.772167 0.742156
v 0.702784 0.513622 0.742156
v 0.565852 0.487005 0.742156
v 0.480688 0.695175 0.742156
v -0.597010 -0.018138 0.742156
v -0.480688 0.058854 0.742156
v 0.400347 0.970554 0.742156
v 0.597010 0.772167 0.742156
v 0.480688 0.695175 0.742156
v 0.322343 0.854907 0.742156
v -0.400347 -0.216525 0.742156
v -0.322343 -0.100879 0.742156
v 0.142735 1.078580 0.742156
v 0.114924 0.941885 0.742156
v -0.142735 -0.324551 0.742156
v -0.114924 -0.187856 0.742156
v -0.136607 1.079798 0.742156
v 0.142735 1.078580 0.742156
v 0.114924 0.941885 0.742156
v -0.109990 0.942867 0.742156
v 0.395153 -0.219996 0.742156
v 0.136607 -0.325770 0.742156
v 0.109991 -0.188838 0.742156
v 0.318160 -0.103673 0.742156
v 0.136607 -0.325770 0.742156
v -0.142735 -0.324551 0.742156
v -0.114924 -0.187856 0.742156
v 0.109991 -0.188838 0.742156
v -0.395152 0.974025 0.742156
v -0.136607 1.079798 0.742156
v -0.109990 0.942867 0.742156
v -0.318160 0.857702 0.742156
v 0.395153 -0.219996 0.742156
v 0.318160 -0.103673 0.742156
v -0.593539 0.777362 0.742156
v -0.395152 0.974025 0.742156
v -0.318160 0.857702 0.742156
v -0.477893 0.699357 0.742156
v 0.161315 0.133294 0.737761
v 0.055768 0.090114 0.737761
v 0.032971 0.207393 0.752063
v 0.095373 0.232922 0.752063
v 0.055768 0.090114 0.737761
v -0.058269 0.090611 0.737761
v -0.034450 0.207687 0.752063
v 0.032971 0.207393 0.752063
v -0.161315 0.620735 0.737761
v -0.055768 0.663915 0.737761
v -0.032971 0.546636 0.752063
v -0.095373 0.521107 0.752063
v 0.242303 0.213579 0.737761
v 0.161315 0.133294 0.737761
v 0.095373 0.232922 0.752063
v 0.143255 0.280388 0.752063
v -0.242303 0.540450 0.737761
v -0.161315 0.620735 0.737761
v -0.095373 0.521107 0.752063
v -0.143255 0.473641 0.752063
v 0.286403 0.318745 0.737761
v 0.242303 0.213579 0.737761
v 0.143255 0.280388 0.752063
v 0.169328 0.342564 0.752063
v -0.286403 0.435284 0.737761
v -0.242303 0.540450 0.737761
v -0.143255 0.473641 0.752063
v -0.169328 0.411465 0.752063
v 0.286900 0.432782 0.737761
v 0.286403 0.318745 0.737761
v 0.169328 0.342564 0.752063
v 0.169622 0.409986 0.752063
v -0.286900 0.321247 0.737761
v -0.286403 0.435284 0.737761
v -0.169328 0.411465 0.752063
v -0.169622 0.344043 0.752063
v 0.243720 0.538329 0.737761
v 0.286900 0.432782 0.737761
v 0.169622 0.409986 0.752063
v 0.144093 0.472387 0.752063
v -0.243720 0.215700 0.737761
v -0.286900 0.321247 0.737761
v -0.169622 0.344043 0.752063
v -0.144093 0.281642 0.752063
v 0.163435 0.619318 0.737761
v 0.243720 0.538329 0.737761
v 0.144093 0.472387 0.752063
v 0.096627 0.520269 0.752063
v -0.163435 0.134711 0.737761
v -0.243720 0.215700 0.737761
v -0.144093 0.281642 0.752063
v -0.096627 0.233759 0.752063
v 0.058269 0.663417 0.737761
v 0.163435 0.619318 0.737761
v 0.096627 0.520269 0.752063
v 0.034450 0.546342 0.752063
v -0.058269 0.090611 0.737761
v -0.163435 0.134711 0.737761
v -0.096627 0.233759 0.752063
v -0.034450 0.207687 0.752063
v -0.055768 0.663915 0.737761
v 0.058269 0.663417 0.737761
v 0.034450 0.546342 0.752063
v -0.032971 0.546636 0.752063
vn -0.0000 -0.0000 -1.0000
vn -0.0459 0.1121 -0.9926
vn 0.0005 0.1212 -0.9926
vn 0.0459 -0.1121 -0.9926
vn -0.0853 0.0860 -0.9926
vn 0.0853 -0.0860 -0.9926
vn -0.1117 0.0469 -0.9926
vn 0.1117 -0.0469 -0.9926
vn -0.1212 0.0005 -0.9926
vn 0.1212 -0.0005 -0.9926
vn -0.1121 -0.0459 -0.9926
vn 0.1121 0.0459 -0.9926
vn -0.0860 -0.0853 -0.9926
vn 0.0860 0.0853 -0.9926
vn -0.0469 -0.1117 -0.9926
vn 0.0469 0.1117 -0.9926
vn -0.0005 -0.1212 -0.9926
vt 0.812500 0.000000
vt 0.875000 0.000000
vt 0.875000 0.000000
vt 0.812500 0.000000
vt 0.312500 0.000000
vt 0.375000 0.000000
vt 0.375000 0.000000
vt 0.312500 0.000000
vt 0.750000 0.000000
vt 0.750000 0.000000
vt 0.250000 0.000000
vt 0.312500 0.000000
vt 0.312500 0.000000
vt 0.250000 0.000000
vt 0.687500 0.000000
vt 0.750000 0.000000
vt 0.750000 0.000000
vt 0.687500 0.000000
vt 0.187500 0.000000
vt 0.187500 0.000000
vt 0.625000 0.000000
vt 0.687500 0.000000
vt 0.687500 0.000000
vt 0.625000 0.000000
vt 0.125000 0.000000
vt 0.125000 0.000000
vt 0.562500 0.000000
vt 0.562500 0.000000
vt 0.062500 0.000000
vt 0.062500 0.000000
vt 0.500000 0.000000
vt 0.562500 0.000000
vt 0.562500 0.000000
vt 0.500000 0.000000
vt 0.937500 0.000000
vt 1.000000 0.000000
vt 1.000000 0.000000
vt 0.937500 0.000000
vt 0.000000 0.000000
vt 0.062500 0.000000
vt 0.062500 0.000000
vt 0.000000 0.000000
vt 0.437500 0.000000
vt 0.500000 0.000000
vt 0.500000 0.000000
vt 0.437500 0.000000
vt 0.937500 0.000000
vt 0.937500 0.000000
vt 0.375000 0.000000
vt 0.437500 0.000000
vt 0.437500 0.000000
vt 0.375000 0.000000
vt 0.937500 0.000000
vt 1.000000 0.000000
vt 1.000000 0.000000
vt 0.937500 0.000000
vt 0.000000 0.000000
vt 0.062500 0.000000
vt 0.062500 0.000000
vt 0.000000 0.000000
vt 0.437500 0.000000
vt 0.500000 0.000000
vt 0.500000 0.000000
vt 0.437500 0.000000
vt 0.875000 0.000000
vt 0.937500 0.000000
vt 0.937500 0.000000
vt 0.875000 0.000000
vt 0.375000 0.000000
vt 0.437500 0.000000
vt 0.437500 0.000000
vt 0.375000 0.000000
vt 0.812500 0.000000
vt 0.875000 0.000000
vt 0.875000 0.000000
vt 0.812500 0.000000
vt 0.312500 0.000000
vt 0.375000 0.000000
vt 0.375000 0.000000
vt 0.312500 0.000000
vt 0.750000 0.000000
vt 0.812500 0.000000
vt 0.812500 0.000000
vt 0.750000 0.000000
vt 0.250000 0.000000
vt 0.312500 0.000000
vt 0.312500 0.000000
vt 0.250000 0.000000
vt 0.687500 0.000000
vt 0.750000 0.000000
vt 0.750000 0.000000
vt 0.687500 0.000000
vt 0.187500 0.000000
vt 0.250000 0.000000
vt 0.250000 0.000000
vt 0.187500 0.000000
vt 0.625000 0.000000
vt 0.687500 0.000000
vt 0.687500 0.000000
vt 0.625000 0.000000
vt 0.125000 0.000000
vt 0.187500 0.000000
vt 0.187500 0.000000
vt 0.125000 0.000000
vt 0.562500 0.000000
vt 0.625000 0.000000
vt 0.625000 0.000000
vt 0.562500 0.000000
vt 0.062500 0.000000
vt 0.125000 0.000000
vt 0.125000 0.000000
vt 0.062500 0.000000
vt 0.500000 0.000000
vt 0.562500 0.000000
vt 0.562500 0.000000
vt 0.500000 0.000000
s 0
usemtl GreenGlow
f 1/1/1 2/2/1 3/3/1
f 1/1/1 3/3/1 4/4/1
f 5/5/1 6/6/1 7/7/1
f 5/5/1 7/7/1 8/8/1
f 9/9/1 1/1/1 4/4/1
f 9/9/1 4/4/1 10/10/1
f 11/11/1 12/12/1 13/13/1
f 11/11/1 13/13/1 14/14/1
f 15/15/1 16/16/1 17/17/1
f 15/15/1 17/17/1 18/18/1
f 19/19/1 11/11/1 14/14/1
f 19/19/1 14/14/1 20/20/1
f 21/21/1 22/22/1 23/23/1
f 21/21/1 23/23/1 24/24/1
f 25/25/1 19/19/1 20/20/1
f 25/25/1 20/20/1 26/26/1
f 27/27/1 21/21/1 24/24/1
f 27/27/1 24/24/1 28/28/1
f 29/29/1 25/25/1 26/26/1
f 29/29/1 26/26/1 30/30/1
f 31/31/1 32/32/1 33/33/1
f 31/31/1 33/33/1 34/34/1
f 35/35/1 36/36/1 37/37/1
f 35/35/1 37/37/1 38/38/1
f 39/39/1 40/40/1 41/41/1
f 39/39/1 41/41/1 42/42/1
f 43/43/1 44/44/1 45/45/1
f 43/43/1 45/45/1 46/46/1
f 2/2/1 47/47/1 48/48/1
f 2/2/1 48/48/1 3/3/1
f 49/49/1 50/50/1 51/51/1
f 49/49/1 51/51/1 52/52/1
f 53/53/2 54/54/2 55/55/2
f 53/53/2 55/55/2 56/56/2
f 57/57/3 58/58/3 59/59/3
f 57/57/3 59/59/3 60/60/3
f 61/61/4 62/62/4 63/63/4
f 61/61/4 63/63/4 64/64/4
f 65/65/5 66/66/5 67/67/5
f 65/65/5 67/67/5 68/68/5
f 69/69/6 70/70/6 71/71/6
f 69/69/6 71/71/6 72/72/6
f 73/73/7 74/74/7 75/75/7
f 73/73/7 75/75/7 76/76/7
f 77/77/8 78/78/8 79/79/8
f 77/77/8 79/79/8 80/80/8
f 81/81/9 82/82/9 83/83/9
f 81/81/9 83/83/9 84/84/9
f 85/85/10 86/86/10 87/87/10
f 85/85/10 87/87/10 88/88/10
f 89/89/11 90/90/11 91/91/11
f 89/89/11 91/91/11 92/92/11
f 93/93/12 94/94/12 95/95/12
f 93/93/12 95/95/12 96/96/12
f 97/97/13 98/98/13 99/99/13
f 97/97/13 99/99/13 100/100/13
f 101/101/14 102/102/14 103/103/14
f 101/101/14 103/103/14 104/104/14
f 105/105/15 106/106/15 107/107/15
f 105/105/15 107/107/15 108/108/15
f 109/109/16 110/110/16 111/111/16
f 109/109/16 111/111/16 112/112/16
s 1
f 113/113/17 114/114/17 115/115/17
s 0
f 113/113/17 115/115/17 116/116/17
