# Blender 3.5.0
# www.blender.org
mtllib CannonCylinder1_2.mtl
o Cylinder.010_PinkGlow_0
v 0.171845 1.632102 4.440685
v 0.252114 1.522277 4.636250
v 0.221038 1.499564 4.636250
v 0.140769 1.609389 4.440685
v 0.140769 1.609389 3.152422
v 0.140769 1.609389 4.440685
v 0.221038 1.499564 4.636250
v 0.221038 1.499564 3.347988
v 0.171845 1.632102 3.152422
v 0.171845 1.632102 4.440685
v 0.140769 1.609389 4.440685
v 0.140769 1.609389 3.152422
v 0.252114 1.522277 3.347988
v 0.171845 1.632102 3.152422
v 0.140769 1.609389 3.152422
v 0.221038 1.499564 3.347988
v 0.252114 1.522277 4.636250
v 0.252114 1.522277 3.347988
v 0.221038 1.499564 3.347988
v 0.221038 1.499564 4.636250
v -0.171845 1.632102 4.440684
v -0.140768 1.609389 4.440684
v -0.221037 1.499564 4.636250
v -0.252114 1.522277 4.636250
v -0.140768 1.609389 3.152422
v -0.221037 1.499564 3.347988
v -0.221037 1.499564 4.636250
v -0.140768 1.609389 4.440684
v -0.171845 1.632102 3.152422
v -0.140768 1.609389 3.152422
v -0.140768 1.609389 4.440684
v -0.171845 1.632102 4.440684
v -0.252114 1.522277 3.347987
v -0.221037 1.499564 3.347988
v -0.140768 1.609389 3.152422
v -0.171845 1.632102 3.152422
v -0.252114 1.522277 4.636250
v -0.221037 1.499564 4.636250
v -0.221037 1.499564 3.347988
v -0.252114 1.522277 3.347987
vn 0.4844 -0.6628 -0.5710
vn 0.8073 0.5901 -0.0000
vn 0.5901 -0.8073 -0.0000
vn -0.4844 0.6628 0.5710
vn -0.5901 0.8073 -0.0000
vn -0.4844 -0.6628 -0.5710
vn -0.8073 0.5901 -0.0000
vn -0.5901 -0.8073 -0.0000
vn 0.4844 0.6628 0.5710
vn 0.5901 0.8073 -0.0000
vt 0.847247 0.020578
vt 0.777753 0.020578
vt 0.777753 0.020578
vt 0.847247 0.020578
vt 0.847247 0.979421
vt 0.847247 0.020578
vt 0.777753 0.020578
vt 0.777753 0.979421
vt 0.847247 0.979421
vt 0.847247 0.020578
vt 0.847247 0.020578
vt 0.847247 0.979421
vt 0.777753 0.979421
vt 0.847247 0.979421
vt 0.847247 0.979421
vt 0.777753 0.979421
vt 0.777753 0.020578
vt 0.777753 0.979421
vt 0.777753 0.979421
vt 0.777753 0.020578
vt 0.847247 0.020578
vt 0.847247 0.020578
vt 0.777753 0.020578
vt 0.777753 0.020578
vt 0.847247 0.979421
vt 0.777753 0.979421
vt 0.777753 0.020578
vt 0.847247 0.020578
vt 0.847247 0.979421
vt 0.847247 0.979421
vt 0.847247 0.020578
vt 0.847247 0.020578
vt 0.777753 0.979421
vt 0.777753 0.979421
vt 0.847247 0.979421
vt 0.847247 0.979421
vt 0.777753 0.020578
vt 0.777753 0.020578
vt 0.777753 0.979421
vt 0.777753 0.979421
s 0
usemtl PinkGlow
f 1/1/1 2/2/1 3/3/1
f 1/1/1 3/3/1 4/4/1
f 5/5/2 6/6/2 7/7/2
f 5/5/2 7/7/2 8/8/2
f 9/9/3 10/10/3 11/11/3
f 9/9/3 11/11/3 12/12/3
f 13/13/4 14/14/4 15/15/4
f 13/13/4 15/15/4 16/16/4
f 17/17/5 18/18/5 19/19/5
f 17/17/5 19/19/5 20/20/5
s 1
f 21/21/6 22/22/6 23/23/6
s 0
f 21/21/6 23/23/6 24/24/6
f 25/25/7 26/26/7 27/27/7
f 25/25/7 27/27/7 28/28/7
f 29/29/8 30/30/8 31/31/8
f 29/29/8 31/31/8 32/32/8
f 33/33/9 34/34/9 35/35/9
f 33/33/9 35/35/9 36/36/9
f 37/37/10 38/38/10 39/39/10
f 37/37/10 39/39/10 40/40/10
