# Blender 3.5.0
# www.blender.org
mtllib CannonTopturretGlow.mtl
o Turret_PurpleGLow_0
v -0.107605 1.656594 1.105604
v 0.107605 1.656594 1.105604
v 0.112859 1.659087 1.106092
v -0.112859 1.659087 1.106092
v 0.107605 1.656594 1.105604
v -0.107605 1.656594 1.105604
v -0.111876 1.657808 1.099892
v 0.111876 1.657808 1.099892
v 0.107605 1.656594 1.105604
v 0.093958 1.637199 1.132945
v 0.097205 1.636679 1.138257
v 0.112859 1.659087 1.106092
v 0.093958 1.637199 1.132945
v 0.107605 1.656594 1.105604
v 0.111876 1.657808 1.099892
v 0.095020 1.634012 1.132858
v 0.093958 1.637199 1.132945
v -0.093958 1.637199 1.132945
v -0.097205 1.636679 1.138257
v 0.097205 1.636679 1.138257
v -0.093958 1.637199 1.132945
v 0.093958 1.637199 1.132945
v 0.095020 1.634012 1.132858
v -0.095020 1.634012 1.132858
v -0.093958 1.637199 1.132945
v -0.107605 1.656594 1.105604
v -0.112859 1.659087 1.106092
v -0.097205 1.636679 1.138257
v -0.107605 1.656594 1.105604
v -0.093958 1.637199 1.132945
v -0.095020 1.634012 1.132858
v -0.111876 1.657808 1.099892
v 0.264259 1.200161 1.105766
v 0.264259 1.717585 1.105766
v 0.261388 1.718834 1.105190
v 0.261056 1.196957 1.105766
v 0.264259 1.717585 1.105766
v 0.264259 1.200161 1.105766
v 0.264259 1.196957 1.100218
v 0.263926 1.722742 1.100794
v 0.264259 1.717585 1.105766
v 0.523713 1.717585 1.555153
v 0.522960 1.718702 1.558531
v 0.261388 1.718834 1.105190
v 0.523713 1.717585 1.555153
v 0.264259 1.717585 1.105766
v 0.263926 1.722742 1.100794
v 0.527669 1.722874 1.557324
v 0.523713 1.717585 1.555153
v 0.523713 1.200161 1.555153
v 0.522212 1.196958 1.558723
v 0.522960 1.718702 1.558531
v 0.523713 1.200161 1.555153
v 0.523713 1.717585 1.555153
v 0.527669 1.722874 1.557324
v 0.528417 1.196958 1.557132
v 0.523713 1.200161 1.555153
v 0.264259 1.200161 1.105766
v 0.261056 1.196957 1.105766
v 0.522212 1.196958 1.558723
v 0.264259 1.200161 1.105766
v 0.523713 1.200161 1.555153
v 0.528417 1.196958 1.557132
v 0.264259 1.196957 1.100218
v 0.525244 1.200161 1.561130
v 0.525244 1.717585 1.561130
v 0.522960 1.718702 1.558531
v 0.522212 1.196958 1.558723
v 0.525244 1.717585 1.561130
v 0.525244 1.200161 1.561130
v 0.528417 1.196958 1.557132
v 0.527669 1.722874 1.557324
v 0.525244 1.717585 1.561130
v 0.515435 1.717585 2.009660
v 0.513538 1.718935 2.010995
v 0.522960 1.718702 1.558531
v 0.515435 1.717585 2.009660
v 0.525244 1.717585 1.561130
v 0.527669 1.722874 1.557324
v 0.517192 1.722641 2.014730
v 0.515435 1.717585 2.009660
v 0.515435 1.200161 2.009661
v 0.513125 1.196958 2.010573
v 0.513538 1.718935 2.010995
v 0.515435 1.200161 2.009661
v 0.515435 1.717585 2.009660
v 0.517192 1.722641 2.014730
v 0.517605 1.196958 2.015153
v 0.515435 1.200161 2.009661
v 0.525244 1.200161 1.561130
v 0.522212 1.196958 1.558723
v 0.513125 1.196958 2.010573
v 0.525244 1.200161 1.561130
v 0.515435 1.200161 2.009661
v 0.517605 1.196958 2.015153
v 0.528417 1.196958 1.557132
v 0.512162 1.200161 2.012863
v 0.512162 1.717585 2.012863
v 0.513538 1.718935 2.010995
v 0.513125 1.196958 2.010573
v 0.512162 1.717585 2.012863
v 0.512162 1.200161 2.012863
v 0.517605 1.196958 2.015153
v 0.517192 1.722641 2.014730
v 0.512162 1.717585 2.012863
v -0.512162 1.717585 2.012863
v -0.513538 1.718935 2.010995
v 0.513538 1.718935 2.010995
v -0.512162 1.717585 2.012863
v 0.512162 1.717585 2.012863
v 0.517192 1.722641 2.014730
v -0.517192 1.722641 2.014730
v -0.512162 1.717585 2.012863
v -0.512162 1.200161 2.012863
v -0.513125 1.196958 2.010574
v -0.513538 1.718935 2.010995
v -0.512162 1.200161 2.012863
v -0.512162 1.717585 2.012863
v -0.517192 1.722641 2.014730
v -0.517605 1.196958 2.015153
v -0.512162 1.200161 2.012863
v 0.512162 1.200161 2.012863
v 0.513125 1.196958 2.010573
v -0.513125 1.196958 2.010574
v 0.512162 1.200161 2.012863
v -0.512162 1.200161 2.012863
v -0.517605 1.196958 2.015153
v 0.517605 1.196958 2.015153
v -0.515435 1.200161 2.009661
v -0.515435 1.717585 2.009661
v -0.513538 1.718935 2.010995
v -0.513125 1.196958 2.010574
v -0.515435 1.717585 2.009661
v -0.515435 1.200161 2.009661
v -0.517605 1.196958 2.015153
v -0.517192 1.722641 2.014730
v -0.515435 1.717585 2.009661
v -0.525244 1.717585 1.561130
v -0.522960 1.718702 1.558531
v -0.513538 1.718935 2.010995
v -0.525244 1.717585 1.561130
v -0.515435 1.717585 2.009661
v -0.517192 1.722641 2.014730
v -0.527669 1.722874 1.557324
v -0.525244 1.717585 1.561130
v -0.525244 1.200161 1.561130
v -0.522212 1.196958 1.558723
v -0.522960 1.718702 1.558531
v -0.525244 1.200161 1.561130
v -0.525244 1.717585 1.561130
v -0.527669 1.722874 1.557324
v -0.528417 1.196958 1.557132
v -0.525244 1.200161 1.561130
v -0.515435 1.200161 2.009661
v -0.513125 1.196958 2.010574
v -0.522212 1.196958 1.558723
v -0.515435 1.200161 2.009661
v -0.525244 1.200161 1.561130
v -0.528417 1.196958 1.557132
v -0.517605 1.196958 2.015153
v -0.523713 1.200161 1.555154
v -0.523713 1.717585 1.555153
v -0.522960 1.718702 1.558531
v -0.522212 1.196958 1.558723
v -0.523713 1.717585 1.555153
v -0.523713 1.200161 1.555154
v -0.528417 1.196958 1.557132
v -0.527669 1.722874 1.557324
v -0.523713 1.717585 1.555153
v -0.264259 1.717585 1.105766
v -0.261388 1.718834 1.105190
v -0.522960 1.718702 1.558531
v -0.264259 1.717585 1.105766
v -0.523713 1.717585 1.555153
v -0.527669 1.722874 1.557324
v -0.263926 1.722742 1.100794
v -0.264259 1.717585 1.105766
v -0.264259 1.200161 1.105766
v -0.261056 1.196957 1.105766
v -0.261388 1.718834 1.105190
v -0.264259 1.200161 1.105766
v -0.264259 1.717585 1.105766
v -0.263926 1.722742 1.100794
v -0.264259 1.196957 1.100218
v -0.264259 1.200161 1.105766
v -0.523713 1.200161 1.555154
v -0.522212 1.196958 1.558723
v -0.261056 1.196957 1.105766
v -0.523713 1.200161 1.555154
v -0.264259 1.200161 1.105766
v -0.264259 1.196957 1.100218
v -0.528417 1.196958 1.557132
v 0.519766 1.720788 1.554724
v 0.262657 1.720788 1.109398
v 0.261388 1.718834 1.105190
v 0.522960 1.718702 1.558531
v 0.262657 1.720788 1.109398
v 0.519766 1.720788 1.554724
v 0.527669 1.722874 1.557324
v 0.263926 1.722742 1.100794
v 0.262657 1.720788 1.109398
v 0.185577 1.720788 1.242905
v 0.181878 1.717585 1.242905
v 0.261388 1.718834 1.105190
v 0.185577 1.720788 1.242905
v 0.262657 1.720788 1.109398
v 0.263926 1.722742 1.100794
v 0.181878 1.723991 1.242905
v 0.185577 1.720788 1.242905
v 0.365606 1.720788 1.554724
v 0.363756 1.717585 1.557927
v 0.181878 1.717585 1.242905
v 0.365606 1.720788 1.554724
v 0.185577 1.720788 1.242905
v 0.181878 1.723991 1.242905
v 0.363756 1.723991 1.557927
v 0.365606 1.720788 1.554724
v 0.519766 1.720788 1.554724
v 0.522960 1.718702 1.558531
v 0.363756 1.717585 1.557927
v 0.519766 1.720788 1.554724
v 0.365606 1.720788 1.554724
v 0.363756 1.723991 1.557927
v 0.527669 1.722874 1.557324
v -0.522040 1.720788 1.561131
v -0.512297 1.720788 2.006636
v -0.513538 1.718935 2.010995
v -0.522960 1.718702 1.558531
v -0.512297 1.720788 2.006636
v -0.522040 1.720788 1.561131
v -0.527669 1.722874 1.557324
v -0.517192 1.722641 2.014730
v -0.512297 1.720788 2.006636
v -0.328239 1.720788 1.871479
v -0.324830 1.717585 1.872950
v -0.513538 1.718935 2.010995
v -0.328239 1.720788 1.871479
v -0.512297 1.720788 2.006636
v -0.517192 1.722641 2.014730
v -0.324830 1.723991 1.872950
v -0.328239 1.720788 1.871479
v -0.366588 1.720788 1.561131
v -0.363756 1.717585 1.557927
v -0.324830 1.717585 1.872950
v -0.366588 1.720788 1.561131
v -0.328239 1.720788 1.871479
v -0.324830 1.723991 1.872950
v -0.363756 1.723991 1.557927
v -0.366588 1.720788 1.561131
v -0.522040 1.720788 1.561131
v -0.522960 1.718702 1.558531
v -0.363756 1.717585 1.557927
v -0.522040 1.720788 1.561131
v -0.366588 1.720788 1.561131
v -0.363756 1.723991 1.557927
v -0.527669 1.722874 1.557324
v 0.512297 1.720788 2.006636
v 0.522040 1.720788 1.561131
v 0.522960 1.718702 1.558531
v 0.513538 1.718935 2.010995
v 0.522040 1.720788 1.561131
v 0.512297 1.720788 2.006636
v 0.517192 1.722641 2.014730
v 0.527669 1.722874 1.557324
v 0.522040 1.720788 1.561131
v 0.366588 1.720788 1.561130
v 0.363756 1.717585 1.557927
v 0.522960 1.718702 1.558531
v 0.366588 1.720788 1.561130
v 0.522040 1.720788 1.561131
v 0.527669 1.722874 1.557324
v 0.363756 1.723991 1.557927
v 0.366588 1.720788 1.561130
v 0.328239 1.720788 1.871479
v 0.324830 1.717585 1.872949
v 0.363756 1.717585 1.557927
v 0.328239 1.720788 1.871479
v 0.366588 1.720788 1.561130
v 0.363756 1.723991 1.557927
v 0.324830 1.723991 1.872949
v 0.328239 1.720788 1.871479
v 0.512297 1.720788 2.006636
v 0.513538 1.718935 2.010995
v 0.324830 1.717585 1.872949
v 0.512297 1.720788 2.006636
v 0.328239 1.720788 1.871479
v 0.324830 1.723991 1.872949
v 0.517192 1.722641 2.014730
v -0.262657 1.720788 1.109398
v -0.519766 1.720788 1.554724
v -0.522960 1.718702 1.558531
v -0.261388 1.718834 1.105190
v -0.519766 1.720788 1.554724
v -0.262657 1.720788 1.109398
v -0.263926 1.722742 1.100794
v -0.527669 1.722874 1.557324
v -0.519766 1.720788 1.554724
v -0.365606 1.720788 1.554724
v -0.363756 1.717585 1.557927
v -0.522960 1.718702 1.558531
v -0.365606 1.720788 1.554724
v -0.519766 1.720788 1.554724
v -0.527669 1.722874 1.557324
v -0.363756 1.723991 1.557927
v -0.365606 1.720788 1.554724
v -0.185577 1.720788 1.242905
v -0.181878 1.717585 1.242905
v -0.363756 1.717585 1.557927
v -0.185577 1.720788 1.242905
v -0.365606 1.720788 1.554724
v -0.363756 1.723991 1.557927
v -0.181878 1.723991 1.242905
v -0.185577 1.720788 1.242905
v -0.262657 1.720788 1.109398
v -0.261388 1.718834 1.105190
v -0.181878 1.717585 1.242905
v -0.262657 1.720788 1.109398
v -0.185577 1.720788 1.242905
v -0.181878 1.723991 1.242905
v -0.263926 1.722742 1.100794
v 0.257109 1.720788 1.106195
v -0.257109 1.720788 1.106195
v -0.261388 1.718834 1.105190
v 0.261388 1.718834 1.105190
v -0.257109 1.720788 1.106195
v 0.257109 1.720788 1.106195
v 0.263926 1.722742 1.100794
v -0.263926 1.722742 1.100794
v -0.257109 1.720788 1.106195
v -0.180029 1.720788 1.239702
v -0.181878 1.717585 1.242905
v -0.261388 1.718834 1.105190
v -0.180029 1.720788 1.239702
v -0.257109 1.720788 1.106195
v -0.263926 1.722742 1.100794
v -0.181878 1.723991 1.242905
v -0.180029 1.720788 1.239702
v 0.180029 1.720788 1.239702
v 0.181878 1.717585 1.242905
v -0.181878 1.717585 1.242905
v 0.180029 1.720788 1.239702
v -0.180029 1.720788 1.239702
v -0.181878 1.723991 1.242905
v 0.181878 1.723991 1.242905
v 0.180029 1.720788 1.239702
v 0.257109 1.720788 1.106195
v 0.261388 1.718834 1.105190
v 0.181878 1.717585 1.242905
v 0.257109 1.720788 1.106195
v 0.180029 1.720788 1.239702
v 0.181878 1.723991 1.242905
v 0.263926 1.722742 1.100794
v -0.505591 1.720788 2.009660
v 0.505591 1.720788 2.009660
v 0.513538 1.718935 2.010995
v -0.513538 1.718935 2.010995
v 0.505591 1.720788 2.009660
v -0.505591 1.720788 2.009660
v -0.517192 1.722641 2.014730
v 0.517192 1.722641 2.014730
v 0.505591 1.720788 2.009660
v 0.323780 1.720788 1.876153
v 0.324830 1.717585 1.872949
v 0.513538 1.718935 2.010995
v 0.323780 1.720788 1.876153
v 0.505591 1.720788 2.009660
v 0.517192 1.722641 2.014730
v 0.324830 1.723991 1.872949
v 0.323780 1.720788 1.876153
v -0.323780 1.720788 1.876153
v -0.324830 1.717585 1.872950
v 0.324830 1.717585 1.872949
v -0.323780 1.720788 1.876153
v 0.323780 1.720788 1.876153
v 0.324830 1.723991 1.872949
v -0.324830 1.723991 1.872950
v -0.323780 1.720788 1.876153
v -0.505591 1.720788 2.009660
v -0.513538 1.718935 2.010995
v -0.324830 1.717585 1.872950
v -0.505591 1.720788 2.009660
v -0.323780 1.720788 1.876153
v -0.324830 1.723991 1.872950
v -0.517192 1.722641 2.014730
v -0.188958 1.335844 1.102992
v 0.188958 1.335844 1.102992
v 0.191326 1.338731 1.106154
v -0.191326 1.338731 1.106154
v 0.188958 1.335844 1.102992
v -0.188958 1.335844 1.102992
v -0.190532 1.339363 1.099829
v 0.190532 1.339363 1.099829
v 0.188958 1.335844 1.102992
v 0.257452 1.200161 1.102992
v 0.261056 1.196957 1.105766
v 0.191326 1.338731 1.106154
v 0.257452 1.200161 1.102992
v 0.188958 1.335844 1.102992
v 0.190532 1.339363 1.099829
v 0.264259 1.196957 1.100218
v 0.257452 1.200161 1.102992
v -0.257452 1.200161 1.102992
v -0.261056 1.196957 1.105766
v 0.261056 1.196957 1.105766
v -0.257452 1.200161 1.102992
v 0.257452 1.200161 1.102992
v 0.264259 1.196957 1.100218
v -0.264259 1.196957 1.100218
v -0.257452 1.200161 1.102992
v -0.188958 1.335844 1.102992
v -0.191326 1.338731 1.106154
v -0.261056 1.196957 1.105766
v -0.188958 1.335844 1.102992
v -0.257452 1.200161 1.102992
v -0.264259 1.196957 1.100218
v -0.190532 1.339363 1.099829
v -0.116135 1.656543 1.102992
v -0.193953 1.340166 1.102992
v -0.191326 1.338731 1.106154
v -0.112859 1.659087 1.106092
v -0.193953 1.340166 1.102992
v -0.116135 1.656543 1.102992
v -0.111876 1.657808 1.099892
v -0.190532 1.339363 1.099829
v -0.193953 1.340166 1.102992
v -0.259454 1.210411 1.102992
v -0.261056 1.196957 1.105766
v -0.191326 1.338731 1.106154
v -0.259454 1.210411 1.102992
v -0.193953 1.340166 1.102992
v -0.190532 1.339363 1.099829
v -0.264259 1.196957 1.100218
v -0.259454 1.210411 1.102992
v -0.259454 1.715991 1.102992
v -0.261388 1.718834 1.105190
v -0.261056 1.196957 1.105766
v -0.259454 1.715991 1.102992
v -0.259454 1.210411 1.102992
v -0.264259 1.196957 1.100218
v -0.263926 1.722742 1.100794
v -0.259454 1.715991 1.102992
v -0.116135 1.656543 1.102992
v -0.112859 1.659087 1.106092
v -0.261388 1.718834 1.105190
v -0.116135 1.656543 1.102992
v -0.259454 1.715991 1.102992
v -0.263926 1.722742 1.100794
v -0.111876 1.657808 1.099892
v 0.111730 1.661651 1.102992
v -0.111730 1.661651 1.102992
v -0.112859 1.659087 1.106092
v 0.112859 1.659087 1.106092
v -0.111730 1.661651 1.102992
v 0.111730 1.661651 1.102992
v 0.111876 1.657808 1.099892
v -0.111876 1.657808 1.099892
v -0.111730 1.661651 1.102992
v -0.246575 1.717585 1.102992
v -0.261388 1.718834 1.105190
v -0.112859 1.659087 1.106092
v -0.246575 1.717585 1.102992
v -0.111730 1.661651 1.102992
v -0.111876 1.657808 1.099892
v -0.263926 1.722742 1.100794
v -0.246575 1.717585 1.102992
v 0.246575 1.717585 1.102992
v 0.261388 1.718834 1.105190
v -0.261388 1.718834 1.105190
v 0.246575 1.717585 1.102992
v -0.246575 1.717585 1.102992
v -0.263926 1.722742 1.100794
v 0.263926 1.722742 1.100794
v 0.246575 1.717585 1.102992
v 0.111730 1.661651 1.102992
v 0.112859 1.659087 1.106092
v 0.261388 1.718834 1.105190
v 0.111730 1.661651 1.102992
v 0.246575 1.717585 1.102992
v 0.263926 1.722742 1.100794
v 0.111876 1.657808 1.099892
v 0.193952 1.340166 1.102992
v 0.116135 1.656543 1.102992
v 0.112859 1.659087 1.106092
v 0.191326 1.338731 1.106154
v 0.116135 1.656543 1.102992
v 0.193952 1.340166 1.102992
v 0.190532 1.339363 1.099829
v 0.111876 1.657808 1.099892
v 0.116135 1.656543 1.102992
v 0.259454 1.715991 1.102992
v 0.261388 1.718834 1.105190
v 0.112859 1.659087 1.106092
v 0.259454 1.715991 1.102992
v 0.116135 1.656543 1.102992
v 0.111876 1.657808 1.099892
v 0.263926 1.722742 1.100794
v 0.259454 1.715991 1.102992
v 0.259454 1.210411 1.102992
v 0.261056 1.196957 1.105766
v 0.261388 1.718834 1.105190
v 0.259454 1.210411 1.102992
v 0.259454 1.715991 1.102992
v 0.263926 1.722742 1.100794
v 0.264259 1.196957 1.100218
v 0.259454 1.210411 1.102992
v 0.193952 1.340166 1.102992
v 0.191326 1.338731 1.106154
v 0.261056 1.196957 1.105766
v 0.193952 1.340166 1.102992
v 0.259454 1.210411 1.102992
v 0.264259 1.196957 1.100218
v 0.190532 1.339363 1.099829
v -0.159223 1.365353 1.135558
v -0.093602 1.632143 1.135558
v -0.097205 1.636679 1.138257
v -0.164615 1.361181 1.138318
v -0.093602 1.632143 1.135558
v -0.159223 1.365353 1.135558
v -0.162004 1.363118 1.132798
v -0.095020 1.634012 1.132858
v -0.093602 1.632143 1.135558
v 0.093602 1.632143 1.135558
v 0.097205 1.636679 1.138257
v -0.097205 1.636679 1.138257
v 0.093602 1.632143 1.135558
v -0.093602 1.632143 1.135558
v -0.095020 1.634012 1.132858
v 0.095020 1.634012 1.132858
v 0.093602 1.632143 1.135558
v 0.159223 1.365353 1.135558
v 0.164615 1.361181 1.138318
v 0.097205 1.636679 1.138257
v 0.159223 1.365353 1.135558
v 0.093602 1.632143 1.135558
v 0.095020 1.634012 1.132858
v 0.162004 1.363117 1.132798
v 0.159223 1.365353 1.135558
v -0.159223 1.365353 1.135558
v -0.164615 1.361181 1.138318
v 0.164615 1.361181 1.138318
v -0.159223 1.365353 1.135558
v 0.159223 1.365353 1.135558
v 0.162004 1.363117 1.132798
v -0.162004 1.363118 1.132798
v 0.111877 1.653100 1.105672
v 0.187701 1.344830 1.105672
v 0.191326 1.338731 1.106154
v 0.112859 1.659087 1.106092
v 0.187701 1.344830 1.105672
v 0.111877 1.653100 1.105672
v 0.111876 1.657808 1.099892
v 0.190532 1.339363 1.099829
v 0.187701 1.344830 1.105672
v 0.164628 1.364128 1.132877
v 0.164615 1.361181 1.138318
v 0.191326 1.338731 1.106154
v 0.164628 1.364128 1.132877
v 0.187701 1.344830 1.105672
v 0.190532 1.339363 1.099829
v 0.162004 1.363117 1.132798
v 0.164628 1.364128 1.132877
v 0.098298 1.633801 1.132877
v 0.097205 1.636679 1.138257
v 0.164615 1.361181 1.138318
v 0.098298 1.633801 1.132877
v 0.164628 1.364128 1.132877
v 0.162004 1.363117 1.132798
v 0.095020 1.634012 1.132858
v 0.098298 1.633801 1.132877
v 0.111877 1.653100 1.105672
v 0.112859 1.659087 1.106092
v 0.097205 1.636679 1.138257
v 0.111877 1.653100 1.105672
v 0.098298 1.633801 1.132877
v 0.095020 1.634012 1.132858
v 0.111876 1.657808 1.099892
v 0.184818 1.340901 1.105604
v -0.184818 1.340901 1.105604
v -0.191326 1.338731 1.106154
v 0.191326 1.338731 1.106154
v -0.184818 1.340901 1.105604
v 0.184818 1.340901 1.105604
v 0.190532 1.339363 1.099829
v -0.190532 1.339363 1.099829
v -0.184818 1.340901 1.105604
v -0.161630 1.360296 1.132945
v -0.164615 1.361181 1.138318
v -0.191326 1.338731 1.106154
v -0.161630 1.360296 1.132945
v -0.184818 1.340901 1.105604
v -0.190532 1.339363 1.099829
v -0.162004 1.363118 1.132798
v -0.161630 1.360296 1.132945
v 0.161630 1.360296 1.132945
v 0.164615 1.361181 1.138318
v -0.164615 1.361181 1.138318
v 0.161630 1.360296 1.132945
v -0.161630 1.360296 1.132945
v -0.162004 1.363118 1.132798
v 0.162004 1.363117 1.132798
v 0.161630 1.360296 1.132945
v 0.184818 1.340901 1.105604
v 0.191326 1.338731 1.106154
v 0.164615 1.361181 1.138318
v 0.184818 1.340901 1.105604
v 0.161630 1.360296 1.132945
v 0.162004 1.363117 1.132798
v 0.190532 1.339363 1.099829
v -0.187701 1.344830 1.105672
v -0.111877 1.653100 1.105672
v -0.112859 1.659087 1.106092
v -0.191326 1.338731 1.106154
v -0.111877 1.653100 1.105672
v -0.187701 1.344830 1.105672
v -0.190532 1.339363 1.099829
v -0.111876 1.657808 1.099892
v -0.111877 1.653100 1.105672
v -0.098298 1.633801 1.132877
v -0.097205 1.636679 1.138257
v -0.112859 1.659087 1.106092
v -0.098298 1.633801 1.132877
v -0.111877 1.653100 1.105672
v -0.111876 1.657808 1.099892
v -0.095020 1.634012 1.132858
v -0.098298 1.633801 1.132877
v -0.164628 1.364128 1.132877
v -0.164615 1.361181 1.138318
v -0.097205 1.636679 1.138257
v -0.164628 1.364128 1.132877
v -0.098298 1.633801 1.132877
v -0.095020 1.634012 1.132858
v -0.162004 1.363118 1.132798
v -0.164628 1.364128 1.132877
v -0.187701 1.344830 1.105672
v -0.191326 1.338731 1.106154
v -0.164615 1.361181 1.138318
v -0.187701 1.344830 1.105672
v -0.164628 1.364128 1.132877
v -0.162004 1.363118 1.132798
v -0.190532 1.339363 1.099829
v 0.360133 1.720788 1.561130
v -0.360133 1.720788 1.561131
v -0.363756 1.717585 1.557927
v 0.363756 1.717585 1.557927
v -0.360133 1.720788 1.561131
v 0.360133 1.720788 1.561130
v 0.363756 1.723991 1.557927
v -0.363756 1.723991 1.557927
v -0.360133 1.720788 1.561131
v -0.321998 1.720788 1.869746
v -0.324830 1.717585 1.872950
v -0.363756 1.717585 1.557927
v -0.321998 1.720788 1.869746
v -0.360133 1.720788 1.561131
v -0.363756 1.723991 1.557927
v -0.324830 1.723991 1.872950
v -0.321998 1.720788 1.869746
v 0.321998 1.720788 1.869746
v 0.324830 1.717585 1.872949
v -0.324830 1.717585 1.872950
v 0.321998 1.720788 1.869746
v -0.321998 1.720788 1.869746
v -0.324830 1.723991 1.872950
v 0.324830 1.723991 1.872949
v 0.321998 1.720788 1.869746
v 0.360133 1.720788 1.561130
v 0.363756 1.717585 1.557927
v 0.324830 1.717585 1.872949
v 0.360133 1.720788 1.561130
v 0.321998 1.720788 1.869746
v 0.324830 1.723991 1.872949
v 0.363756 1.723991 1.557927
v 0.180029 1.720788 1.246108
v -0.180029 1.720788 1.246108
v -0.181878 1.717585 1.242905
v 0.181878 1.717585 1.242905
v -0.180029 1.720788 1.246108
v 0.180029 1.720788 1.246108
v 0.181878 1.723991 1.242905
v -0.181878 1.723991 1.242905
v -0.180029 1.720788 1.246108
v -0.358208 1.720788 1.554724
v -0.363756 1.717585 1.557927
v -0.181878 1.717585 1.242905
v -0.358208 1.720788 1.554724
v -0.180029 1.720788 1.246108
v -0.181878 1.723991 1.242905
v -0.363756 1.723991 1.557927
v -0.358208 1.720788 1.554724
v 0.358208 1.720788 1.554724
v 0.363756 1.717585 1.557927
v -0.363756 1.717585 1.557927
v 0.358208 1.720788 1.554724
v -0.358208 1.720788 1.554724
v -0.363756 1.723991 1.557927
v 0.363756 1.723991 1.557927
v 0.358208 1.720788 1.554724
v 0.180029 1.720788 1.246108
v 0.181878 1.717585 1.242905
v 0.363756 1.717585 1.557927
v 0.180029 1.720788 1.246108
v 0.358208 1.720788 1.554724
v 0.363756 1.723991 1.557927
v 0.181878 1.723991 1.242905
vn -0.0000 -0.1919 0.9814
vn -0.0000 -0.9782 -0.2079
vn -0.4381 0.8227 0.3622
vn -0.4381 0.8227 0.3623
vn -0.7513 -0.2943 -0.5907
vn -0.7513 -0.2942 -0.5907
vn -0.0000 0.9952 0.0974
vn -0.0000 0.0273 -0.9996
vn 0.4381 0.8227 0.3623
vn 0.4381 0.8227 0.3622
vn 0.7513 -0.2943 -0.5908
vn 0.7513 -0.2943 -0.5907
vn -0.0946 0.0006 0.9955
vn 0.9995 0.0003 -0.0315
vn -0.4005 -0.8867 0.2310
vn 0.7942 -0.3985 -0.4586
vn -0.9512 0.0006 -0.3085
vn 0.4320 0.0005 -0.9019
vn -0.6392 0.6748 0.3688
vn -0.6392 0.6749 0.3688
vn 0.6390 0.6749 -0.3692
vn -0.6856 0.0006 0.7280
vn 0.8125 0.0005 0.5830
vn 0.8125 0.0005 0.5829
vn -0.5058 -0.8626 -0.0106
vn 0.9260 -0.3769 0.0206
vn 0.9261 -0.3768 0.0206
vn 0.9260 -0.3768 0.0206
vn -0.4714 0.0006 -0.8819
vn -0.4714 0.0005 -0.8819
vn 0.9373 0.0002 -0.3485
vn -0.7660 0.6426 -0.0161
vn 0.7658 0.6428 0.0174
vn 0.7659 0.6428 0.0174
vn -0.8714 0.0005 -0.4906
vn -0.8714 0.0006 -0.4906
vn -0.3690 0.0002 0.9294
vn -0.3689 0.0002 0.9295
vn -0.0000 -0.8104 -0.5859
vn -0.0000 -0.3465 0.9381
vn 0.8714 0.0006 -0.4906
vn 0.8714 0.0005 -0.4906
vn 0.3689 0.0002 0.9295
vn 0.3689 0.0002 0.9294
vn 0.3690 0.0002 0.9294
vn -0.0000 0.5815 -0.8135
vn -0.0000 0.5815 0.8135
vn 0.4714 0.0005 -0.8819
vn 0.4714 0.0006 -0.8819
vn -0.9373 0.0002 -0.3485
vn -0.9373 0.0002 -0.3486
vn 0.5058 -0.8626 -0.0106
vn 0.5057 -0.8626 -0.0106
vn -0.9260 -0.3768 0.0206
vn -0.9260 -0.3769 0.0206
vn 0.6856 0.0006 0.7280
vn -0.8125 0.0005 0.5830
vn -0.8125 0.0005 0.5829
vn 0.7660 0.6426 -0.0161
vn -0.7659 0.6428 0.0174
vn 0.9512 0.0006 -0.3085
vn -0.4320 0.0005 -0.9019
vn 0.4005 -0.8867 0.2310
vn -0.7942 -0.3985 -0.4586
vn -0.7943 -0.3985 -0.4586
vn 0.0946 0.0006 0.9955
vn -0.9995 0.0003 -0.0315
vn -0.9995 0.0003 -0.0316
vn 0.6392 0.6748 0.3688
vn 0.6392 0.6749 0.3688
vn -0.6390 0.6749 -0.3692
vn -0.6389 0.6749 -0.3692
vn -0.6389 0.6749 -0.3691
vn -0.7862 -0.4196 0.4537
vn -0.2999 0.9381 0.1731
vn 0.5449 -0.7787 0.3110
vn 0.5461 0.7775 0.3118
vn 0.6124 -0.7071 -0.3536
vn 0.6124 0.7071 -0.3536
vn 0.0040 -0.7979 -0.6028
vn 0.0013 0.7384 -0.6744
vn 0.8732 -0.4870 -0.0185
vn 0.8732 -0.4871 -0.0185
vn 0.3478 0.9375 -0.0075
vn 0.3479 0.9375 -0.0075
vn -0.3835 -0.7635 -0.5195
vn -0.3556 0.8024 -0.4794
vn -0.7018 -0.7071 0.0867
vn -0.7018 0.7071 0.0867
vn -0.0013 -0.7393 0.6734
vn -0.0039 0.7975 0.6033
vn -0.8732 -0.4871 -0.0185
vn -0.3479 0.9375 -0.0075
vn -0.3478 0.9375 -0.0075
vn 0.0013 -0.7393 0.6734
vn 0.0039 0.7975 0.6033
vn 0.7018 -0.7071 0.0867
vn 0.7018 0.7071 0.0867
vn 0.3836 -0.7635 -0.5196
vn 0.3835 -0.7635 -0.5195
vn 0.3556 0.8024 -0.4794
vn 0.3555 0.8024 -0.4794
vn 0.7862 -0.4196 0.4537
vn 0.2999 0.9381 0.1731
vn -0.0040 -0.7979 -0.6028
vn -0.0013 0.7384 -0.6744
vn -0.6124 -0.7071 -0.3536
vn -0.6124 -0.7071 -0.3535
vn -0.6124 0.7071 -0.3535
vn -0.6124 0.7071 -0.3536
vn -0.5449 -0.7787 0.3110
vn -0.5461 0.7775 0.3118
vn -0.0000 -0.4574 0.8892
vn -0.0000 0.9404 0.3402
vn 0.5418 -0.7787 -0.3164
vn 0.5431 0.7775 -0.3171
vn -0.0000 -0.7071 -0.7071
vn -0.0000 0.7071 -0.7071
vn -0.5418 -0.7787 -0.3164
vn -0.5431 0.7775 -0.3171
vn -0.0000 -0.5847 -0.8112
vn -0.0000 0.9393 -0.3432
vn -0.3508 -0.8025 0.4826
vn -0.3508 -0.8025 0.4827
vn -0.3818 0.7622 0.5227
vn -0.3818 0.7623 0.5227
vn -0.0000 -0.7071 0.7071
vn -0.0000 0.7071 0.7071
vn 0.3508 -0.8025 0.4827
vn 0.3508 -0.8025 0.4826
vn 0.3818 0.7622 0.5227
vn 0.3818 0.7623 0.5227
vn -0.0000 -0.7385 0.6742
vn -0.0000 -0.6684 -0.7438
vn -0.6729 -0.3361 0.6590
vn -0.6729 -0.3361 0.6589
vn -0.5476 -0.2812 -0.7881
vn -0.0000 0.6547 0.7559
vn -0.0000 0.6546 0.7559
vn -0.0000 0.6546 -0.7559
vn -0.0000 0.6547 -0.7559
vn 0.6729 -0.3361 0.6590
vn 0.5476 -0.2812 -0.7881
vn -0.7316 0.1796 0.6577
vn -0.6299 0.1553 -0.7609
vn -0.6299 0.1553 -0.7610
vn -0.5545 0.2750 0.7854
vn -0.5545 0.2750 0.7855
vn -0.6676 0.3406 -0.6621
vn -0.6675 0.3405 -0.6621
vn -0.6676 0.3405 -0.6621
vn 0.8144 0.0006 0.5804
vn 0.8144 0.0006 0.5803
vn 0.4722 0.0003 -0.8815
vn -0.2644 -0.6420 0.7197
vn -0.2644 -0.6419 0.7197
vn -0.2302 -0.5408 -0.8090
vn -0.0000 0.7706 0.6373
vn -0.0000 0.6279 -0.7783
vn 0.2221 0.5503 0.8049
vn 0.2666 0.6382 -0.7222
vn -0.0000 -0.8694 0.4941
vn -0.0000 -0.3921 -0.9199
vn -0.2221 0.5503 0.8049
vn -0.2247 0.5492 0.8049
vn -0.2666 0.6382 -0.7222
vn 0.7316 0.1796 0.6577
vn 0.7316 0.1796 0.6576
vn 0.6299 0.1553 -0.7609
vn 0.6300 0.1552 -0.7610
vn 0.2644 -0.6420 0.7197
vn 0.2644 -0.6419 0.7197
vn 0.2302 -0.5408 -0.8090
vn -0.8144 0.0006 0.5803
vn -0.4722 0.0003 -0.8815
vn 0.5545 0.2750 0.7855
vn 0.5540 0.2760 0.7855
vn 0.5545 0.2750 0.7854
vn 0.6675 0.3405 -0.6621
vn 0.6676 0.3406 -0.6621
vn 0.5111 -0.1253 0.8504
vn 0.5110 -0.1253 0.8504
vn 0.7839 -0.1933 -0.5900
vn -0.0000 -0.5114 0.8594
vn -0.0000 -0.5114 0.8593
vn -0.0000 -0.8221 -0.5694
vn -0.5110 -0.1253 0.8504
vn -0.7839 -0.1933 -0.5900
vn -0.0000 0.5518 0.8340
vn -0.0000 0.7771 -0.6293
vn -0.1929 -0.0473 0.9801
vn -0.1929 -0.0472 0.9801
vn -0.9481 -0.2337 -0.2156
vn 0.7987 0.5187 0.3050
vn 0.7987 0.5186 0.3051
vn -0.2941 0.6398 -0.7100
vn 0.9663 0.2371 0.1003
vn 0.0161 0.0041 -0.9999
vn 0.0162 0.0041 -0.9999
vn 0.9273 -0.1967 0.3184
vn -0.0967 -0.7854 -0.6114
vn -0.0000 0.2458 0.9693
vn -0.0000 0.9663 -0.2572
vn 0.3316 -0.8798 0.3407
vn 0.3316 -0.8798 0.3406
vn 0.7054 0.1288 -0.6970
vn -0.0000 -0.9867 0.1626
vn -0.0000 -0.0522 -0.9986
vn -0.3316 -0.8798 0.3407
vn -0.3315 -0.8798 0.3407
vn -0.7054 0.1288 -0.6970
vn 0.1929 -0.0472 0.9801
vn 0.9481 -0.2337 -0.2156
vn -0.9273 -0.1967 0.3184
vn 0.0967 -0.7854 -0.6114
vn -0.9663 0.2371 0.1003
vn -0.0161 0.0041 -0.9999
vn -0.7987 0.5186 0.3050
vn -0.7987 0.5186 0.3051
vn 0.2941 0.6398 -0.7100
vn 0.2941 0.6399 -0.7100
vn 0.7018 -0.7071 -0.0867
vn 0.7018 0.7071 -0.0867
vn -0.7018 -0.7071 -0.0867
vn -0.7018 0.7071 -0.0867
vn 0.6124 -0.7071 0.3535
vn 0.6124 -0.7071 0.3536
vn 0.6124 0.7071 0.3536
vn 0.6124 0.7071 0.3535
vn -0.6124 -0.7071 0.3536
vn -0.6124 -0.7071 0.3535
vn -0.6124 0.7071 0.3536
vn -0.6124 0.7071 0.3535
vt 0.977243 0.136930
vt 0.856091 0.136930
vt 0.856091 0.136930
vt 0.977243 0.136930
vt 0.856091 0.136930
vt 0.977243 0.136930
vt 0.977243 0.136930
vt 0.856091 0.136930
vt 0.856091 0.136930
vt 0.856091 0.136930
vt 0.856091 0.136930
vt 0.856091 0.136930
vt 0.856091 0.136930
vt 0.856091 0.136930
vt 0.856091 0.136930
vt 0.856091 0.136930
vt 0.856091 0.136930
vt 0.977243 0.136930
vt 0.977243 0.136930
vt 0.856091 0.136930
vt 0.977243 0.136930
vt 0.856091 0.136930
vt 0.856091 0.136930
vt 0.977243 0.136930
vt 0.977243 0.136930
vt 0.977243 0.136930
vt 0.977243 0.136930
vt 0.977243 0.136930
vt 0.977243 0.136930
vt 0.977243 0.136930
vt 0.977243 0.136930
vt 0.977243 0.136930
vt 0.833333 1.000000
vt 0.833333 0.000000
vt 0.833333 0.000000
vt 0.833333 1.000000
vt 0.833333 0.000000
vt 0.833333 1.000000
vt 0.833333 1.000000
vt 0.833333 0.000000
vt 0.833333 0.000000
vt 0.666667 0.000000
vt 0.666667 0.000000
vt 0.833333 0.000000
vt 0.666667 0.000000
vt 0.833333 0.000000
vt 0.833333 0.000000
vt 0.666667 0.000000
vt 0.666667 0.000000
vt 0.666667 1.000000
vt 0.666667 1.000000
vt 0.666667 0.000000
vt 0.666667 1.000000
vt 0.666667 0.000000
vt 0.666667 0.000000
vt 0.666667 1.000000
vt 0.666667 1.000000
vt 0.833333 1.000000
vt 0.833333 1.000000
vt 0.666667 1.000000
vt 0.833333 1.000000
vt 0.666667 1.000000
vt 0.666667 1.000000
vt 0.833333 1.000000
vt 0.666667 1.000000
vt 0.666667 0.000000
vt 0.666667 0.000000
vt 0.666667 1.000000
vt 0.666667 0.000000
vt 0.666667 1.000000
vt 0.666667 1.000000
vt 0.666667 0.000000
vt 0.666667 0.000000
vt 0.500000 0.000000
vt 0.500000 0.000000
vt 0.666667 0.000000
vt 0.500000 0.000000
vt 0.666667 0.000000
vt 0.666667 0.000000
vt 0.500000 0.000000
vt 0.500000 0.000000
vt 0.500000 1.000000
vt 0.500000 1.000000
vt 0.500000 0.000000
vt 0.500000 1.000000
vt 0.500000 0.000000
vt 0.500000 0.000000
vt 0.500000 1.000000
vt 0.500000 1.000000
vt 0.666667 1.000000
vt 0.666667 1.000000
vt 0.500000 1.000000
vt 0.666667 1.000000
vt 0.500000 1.000000
vt 0.500000 1.000000
vt 0.666667 1.000000
vt 0.500000 1.000000
vt 0.500000 0.000000
vt 0.500000 0.000000
vt 0.500000 1.000000
vt 0.500000 0.000000
vt 0.500000 1.000000
vt 0.500000 1.000000
vt 0.500000 0.000000
vt 0.500000 0.000000
vt 0.333333 0.000000
vt 0.333333 0.000000
vt 0.500000 0.000000
vt 0.333333 0.000000
vt 0.500000 0.000000
vt 0.500000 0.000000
vt 0.333333 0.000000
vt 0.333333 0.000000
vt 0.333333 1.000000
vt 0.333333 1.000000
vt 0.333333 0.000000
vt 0.333333 1.000000
vt 0.333333 0.000000
vt 0.333333 0.000000
vt 0.333333 1.000000
vt 0.333333 1.000000
vt 0.500000 1.000000
vt 0.500000 1.000000
vt 0.333333 1.000000
vt 0.500000 1.000000
vt 0.333333 1.000000
vt 0.333333 1.000000
vt 0.500000 1.000000
vt 0.333333 1.000000
vt 0.333333 0.000000
vt 0.333333 0.000000
vt 0.333333 1.000000
vt 0.333333 0.000000
vt 0.333333 1.000000
vt 0.333333 1.000000
vt 0.333333 0.000000
vt 0.333333 0.000000
vt 0.166667 0.000000
vt 0.166667 0.000000
vt 0.333333 0.000000
vt 0.166667 0.000000
vt 0.333333 0.000000
vt 0.333333 0.000000
vt 0.166667 0.000000
vt 0.166667 0.000000
vt 0.166667 1.000000
vt 0.166667 1.000000
vt 0.166667 0.000000
vt 0.166667 1.000000
vt 0.166667 0.000000
vt 0.166667 0.000000
vt 0.166667 1.000000
vt 0.166667 1.000000
vt 0.333333 1.000000
vt 0.333333 1.000000
vt 0.166667 1.000000
vt 0.333333 1.000000
vt 0.166667 1.000000
vt 0.166667 1.000000
vt 0.333333 1.000000
vt 0.166667 1.000000
vt 0.166667 0.000000
vt 0.166667 0.000000
vt 0.166667 1.000000
vt 0.166667 0.000000
vt 0.166667 1.000000
vt 0.166667 1.000000
vt 0.166667 0.000000
vt 0.166667 0.000000
vt -0.000000 0.000000
vt -0.000000 0.000000
vt 0.166667 0.000000
vt -0.000000 0.000000
vt 0.166667 0.000000
vt 0.166667 0.000000
vt -0.000000 0.000000
vt -0.000000 0.000000
vt -0.000000 1.000000
vt -0.000000 1.000000
vt -0.000000 0.000000
vt -0.000000 1.000000
vt -0.000000 0.000000
vt -0.000000 0.000000
vt -0.000000 1.000000
vt -0.000000 1.000000
vt 0.166667 1.000000
vt 0.166667 1.000000
vt -0.000000 1.000000
vt 0.166667 1.000000
vt -0.000000 1.000000
vt -0.000000 1.000000
vt 0.166667 1.000000
vt 0.666667 0.000000
vt 0.833333 0.000000
vt 0.833333 0.000000
vt 0.666667 0.000000
vt 0.833333 0.000000
vt 0.666667 0.000000
vt 0.666667 0.000000
vt 0.833333 0.000000
vt 0.833333 0.000000
vt 0.833333 0.000000
vt 0.833333 0.000000
vt 0.833333 0.000000
vt 0.833333 0.000000
vt 0.833333 0.000000
vt 0.833333 0.000000
vt 0.833333 0.000000
vt 0.833333 0.000000
vt 0.666667 0.000000
vt 0.666667 0.000000
vt 0.833333 0.000000
vt 0.666667 0.000000
vt 0.833333 0.000000
vt 0.833333 0.000000
vt 0.666667 0.000000
vt 0.666667 0.000000
vt 0.666667 0.000000
vt 0.666667 0.000000
vt 0.666667 0.000000
vt 0.666667 0.000000
vt 0.666667 0.000000
vt 0.666667 0.000000
vt 0.666667 0.000000
vt 0.166667 0.000000
vt 0.333333 0.000000
vt 0.333333 0.000000
vt 0.166667 0.000000
vt 0.333333 0.000000
vt 0.166667 0.000000
vt 0.166667 0.000000
vt 0.333333 0.000000
vt 0.333333 0.000000
vt 0.333333 0.000000
vt 0.333333 0.000000
vt 0.333333 0.000000
vt 0.333333 0.000000
vt 0.333333 0.000000
vt 0.333333 0.000000
vt 0.333333 0.000000
vt 0.333333 0.000000
vt 0.166667 0.000000
vt 0.166667 0.000000
vt 0.333333 0.000000
vt 0.166667 0.000000
vt 0.333333 0.000000
vt 0.333333 0.000000
vt 0.166667 0.000000
vt 0.166667 0.000000
vt 0.166667 0.000000
vt 0.166667 0.000000
vt 0.166667 0.000000
vt 0.166667 0.000000
vt 0.166667 0.000000
vt 0.166667 0.000000
vt 0.166667 0.000000
vt 0.500000 0.000000
vt 0.666667 0.000000
vt 0.666667 0.000000
vt 0.500000 0.000000
vt 0.666667 0.000000
vt 0.500000 0.000000
vt 0.500000 0.000000
vt 0.666667 0.000000
vt 0.666667 0.000000
vt 0.666667 0.000000
vt 0.666667 0.000000
vt 0.666667 0.000000
vt 0.666667 0.000000
vt 0.666667 0.000000
vt 0.666667 0.000000
vt 0.666667 0.000000
vt 0.666667 0.000000
vt 0.500000 0.000000
vt 0.500000 0.000000
vt 0.666667 0.000000
vt 0.500000 0.000000
vt 0.666667 0.000000
vt 0.666667 0.000000
vt 0.500000 0.000000
vt 0.500000 0.000000
vt 0.500000 0.000000
vt 0.500000 0.000000
vt 0.500000 0.000000
vt 0.500000 0.000000
vt 0.500000 0.000000
vt 0.500000 0.000000
vt 0.500000 0.000000
vt -0.000000 0.000000
vt 0.166667 0.000000
vt 0.166667 0.000000
vt -0.000000 0.000000
vt 0.166667 0.000000
vt -0.000000 0.000000
vt -0.000000 0.000000
vt 0.166667 0.000000
vt 0.166667 0.000000
vt 0.166667 0.000000
vt 0.166667 0.000000
vt 0.166667 0.000000
vt 0.166667 0.000000
vt 0.166667 0.000000
vt 0.166667 0.000000
vt 0.166667 0.000000
vt 0.166667 0.000000
vt -0.000000 0.000000
vt -0.000000 0.000000
vt 0.166667 0.000000
vt -0.000000 0.000000
vt 0.166667 0.000000
vt 0.166667 0.000000
vt -0.000000 0.000000
vt -0.000000 0.000000
vt -0.000000 0.000000
vt -0.000000 0.000000
vt -0.000000 0.000000
vt -0.000000 0.000000
vt -0.000000 0.000000
vt -0.000000 0.000000
vt -0.000000 0.000000
vt 0.833333 0.000000
vt 1.000000 0.000000
vt 1.000000 0.000000
vt 0.833333 0.000000
vt 1.000000 0.000000
vt 0.833333 0.000000
vt 0.833333 0.000000
vt 1.000000 0.000000
vt 1.000000 0.000000
vt 1.000000 0.000000
vt 1.000000 0.000000
vt 1.000000 0.000000
vt 1.000000 0.000000
vt 1.000000 0.000000
vt 1.000000 0.000000
vt 1.000000 0.000000
vt 1.000000 0.000000
vt 0.833333 0.000000
vt 0.833333 0.000000
vt 1.000000 0.000000
vt 0.833333 0.000000
vt 1.000000 0.000000
vt 1.000000 0.000000
vt 0.833333 0.000000
vt 0.833333 0.000000
vt 0.833333 0.000000
vt 0.833333 0.000000
vt 0.833333 0.000000
vt 0.833333 0.000000
vt 0.833333 0.000000
vt 0.833333 0.000000
vt 0.833333 0.000000
vt 0.333333 0.000000
vt 0.500000 0.000000
vt 0.500000 0.000000
vt 0.333333 0.000000
vt 0.500000 0.000000
vt 0.333333 0.000000
vt 0.333333 0.000000
vt 0.500000 0.000000
vt 0.500000 0.000000
vt 0.500000 0.000000
vt 0.500000 0.000000
vt 0.500000 0.000000
vt 0.500000 0.000000
vt 0.500000 0.000000
vt 0.500000 0.000000
vt 0.500000 0.000000
vt 0.500000 0.000000
vt 0.333333 0.000000
vt 0.333333 0.000000
vt 0.500000 0.000000
vt 0.333333 0.000000
vt 0.500000 0.000000
vt 0.500000 0.000000
vt 0.333333 0.000000
vt 0.333333 0.000000
vt 0.333333 0.000000
vt 0.333333 0.000000
vt 0.333333 0.000000
vt 0.333333 0.000000
vt 0.333333 0.000000
vt 0.333333 0.000000
vt 0.333333 0.000000
vt 0.977243 0.863070
vt 0.856091 0.863070
vt 0.856091 0.863070
vt 0.977243 0.863070
vt 0.856091 0.863070
vt 0.977243 0.863070
vt 0.977243 0.863070
vt 0.856091 0.863070
vt 0.856091 0.863070
vt 0.833333 1.000000
vt 0.833333 1.000000
vt 0.856091 0.863070
vt 0.833333 1.000000
vt 0.856091 0.863070
vt 0.856091 0.863070
vt 0.833333 1.000000
vt 0.833333 1.000000
vt 1.000000 1.000000
vt 1.000000 1.000000
vt 0.833333 1.000000
vt 1.000000 1.000000
vt 0.833333 1.000000
vt 0.833333 1.000000
vt 1.000000 1.000000
vt 1.000000 1.000000
vt 0.977243 0.863070
vt 0.977243 0.863070
vt 1.000000 1.000000
vt 0.977243 0.863070
vt 1.000000 1.000000
vt 1.000000 1.000000
vt 0.977243 0.863070
vt 0.977243 0.136930
vt 0.977243 0.863070
vt 0.977243 0.863070
vt 0.977243 0.136930
vt 0.977243 0.863070
vt 0.977243 0.136930
vt 0.977243 0.136930
vt 0.977243 0.863070
vt 0.977243 0.863070
vt 1.000000 1.000000
vt 1.000000 1.000000
vt 0.977243 0.863070
vt 1.000000 1.000000
vt 0.977243 0.863070
vt 0.977243 0.863070
vt 1.000000 1.000000
vt 1.000000 1.000000
vt 1.000000 0.000000
vt 1.000000 0.000000
vt 1.000000 1.000000
vt 1.000000 0.000000
vt 1.000000 1.000000
vt 1.000000 1.000000
vt 1.000000 0.000000
vt 1.000000 0.000000
vt 0.977243 0.136930
vt 0.977243 0.136930
vt 1.000000 0.000000
vt 0.977243 0.136930
vt 1.000000 0.000000
vt 1.000000 0.000000
vt 0.977243 0.136930
vt 0.856091 0.136930
vt 0.977243 0.136930
vt 0.977243 0.136930
vt 0.856091 0.136930
vt 0.977243 0.136930
vt 0.856091 0.136930
vt 0.856091 0.136930
vt 0.977243 0.136930
vt 0.977243 0.136930
vt 1.000000 0.000000
vt 1.000000 0.000000
vt 0.977243 0.136930
vt 1.000000 0.000000
vt 0.977243 0.136930
vt 0.977243 0.136930
vt 1.000000 0.000000
vt 1.000000 0.000000
vt 0.833333 0.000000
vt 0.833333 0.000000
vt 1.000000 0.000000
vt 0.833333 0.000000
vt 1.000000 0.000000
vt 1.000000 0.000000
vt 0.833333 0.000000
vt 0.833333 0.000000
vt 0.856091 0.136930
vt 0.856091 0.136930
vt 0.833333 0.000000
vt 0.856091 0.136930
vt 0.833333 0.000000
vt 0.833333 0.000000
vt 0.856091 0.136930
vt 0.856091 0.863070
vt 0.856091 0.136930
vt 0.856091 0.136930
vt 0.856091 0.863070
vt 0.856091 0.136930
vt 0.856091 0.863070
vt 0.856091 0.863070
vt 0.856091 0.136930
vt 0.856091 0.136930
vt 0.833333 0.000000
vt 0.833333 0.000000
vt 0.856091 0.136930
vt 0.833333 0.000000
vt 0.856091 0.136930
vt 0.856091 0.136930
vt 0.833333 0.000000
vt 0.833333 0.000000
vt 0.833333 1.000000
vt 0.833333 1.000000
vt 0.833333 0.000000
vt 0.833333 1.000000
vt 0.833333 0.000000
vt 0.833333 0.000000
vt 0.833333 1.000000
vt 0.833333 1.000000
vt 0.856091 0.863070
vt 0.856091 0.863070
vt 0.833333 1.000000
vt 0.856091 0.863070
vt 0.833333 1.000000
vt 0.833333 1.000000
vt 0.856091 0.863070
vt 0.977243 0.863070
vt 0.977243 0.136930
vt 0.977243 0.136930
vt 0.977243 0.863070
vt 0.977243 0.136930
vt 0.977243 0.863070
vt 0.977243 0.863070
vt 0.977243 0.136930
vt 0.977243 0.136930
vt 0.856091 0.136930
vt 0.856091 0.136930
vt 0.977243 0.136930
vt 0.856091 0.136930
vt 0.977243 0.136930
vt 0.977243 0.136930
vt 0.856091 0.136930
vt 0.856091 0.136930
vt 0.856091 0.863070
vt 0.856091 0.863070
vt 0.856091 0.136930
vt 0.856091 0.863070
vt 0.856091 0.136930
vt 0.856091 0.136930
vt 0.856091 0.863070
vt 0.856091 0.863070
vt 0.977243 0.863070
vt 0.977243 0.863070
vt 0.856091 0.863070
vt 0.977243 0.863070
vt 0.856091 0.863070
vt 0.856091 0.863070
vt 0.977243 0.863070
vt 0.856091 0.136930
vt 0.856091 0.863070
vt 0.856091 0.863070
vt 0.856091 0.136930
vt 0.856091 0.863070
vt 0.856091 0.136930
vt 0.856091 0.136930
vt 0.856091 0.863070
vt 0.856091 0.863070
vt 0.856091 0.863070
vt 0.856091 0.863070
vt 0.856091 0.863070
vt 0.856091 0.863070
vt 0.856091 0.863070
vt 0.856091 0.863070
vt 0.856091 0.863070
vt 0.856091 0.863070
vt 0.856091 0.136930
vt 0.856091 0.136930
vt 0.856091 0.863070
vt 0.856091 0.136930
vt 0.856091 0.863070
vt 0.856091 0.863070
vt 0.856091 0.136930
vt 0.856091 0.136930
vt 0.856091 0.136930
vt 0.856091 0.136930
vt 0.856091 0.136930
vt 0.856091 0.136930
vt 0.856091 0.136930
vt 0.856091 0.136930
vt 0.856091 0.136930
vt 0.856091 0.863070
vt 0.977243 0.863070
vt 0.977243 0.863070
vt 0.856091 0.863070
vt 0.977243 0.863070
vt 0.856091 0.863070
vt 0.856091 0.863070
vt 0.977243 0.863070
vt 0.977243 0.863070
vt 0.977243 0.863070
vt 0.977243 0.863070
vt 0.977243 0.863070
vt 0.977243 0.863070
vt 0.977243 0.863070
vt 0.977243 0.863070
vt 0.977243 0.863070
vt 0.977243 0.863070
vt 0.856091 0.863070
vt 0.856091 0.863070
vt 0.977243 0.863070
vt 0.856091 0.863070
vt 0.977243 0.863070
vt 0.977243 0.863070
vt 0.856091 0.863070
vt 0.856091 0.863070
vt 0.856091 0.863070
vt 0.856091 0.863070
vt 0.856091 0.863070
vt 0.856091 0.863070
vt 0.856091 0.863070
vt 0.856091 0.863070
vt 0.856091 0.863070
vt 0.977243 0.863070
vt 0.977243 0.136930
vt 0.977243 0.136930
vt 0.977243 0.863070
vt 0.977243 0.136930
vt 0.977243 0.863070
vt 0.977243 0.863070
vt 0.977243 0.136930
vt 0.977243 0.136930
vt 0.977243 0.136930
vt 0.977243 0.136930
vt 0.977243 0.136930
vt 0.977243 0.136930
vt 0.977243 0.136930
vt 0.977243 0.136930
vt 0.977243 0.136930
vt 0.977243 0.136930
vt 0.977243 0.863070
vt 0.977243 0.863070
vt 0.977243 0.136930
vt 0.977243 0.863070
vt 0.977243 0.136930
vt 0.977243 0.136930
vt 0.977243 0.863070
vt 0.977243 0.863070
vt 0.977243 0.863070
vt 0.977243 0.863070
vt 0.977243 0.863070
vt 0.977243 0.863070
vt 0.977243 0.863070
vt 0.977243 0.863070
vt 0.977243 0.863070
vt 0.666667 0.000000
vt 0.166667 0.000000
vt 0.166667 0.000000
vt 0.666667 0.000000
vt 0.166667 0.000000
vt 0.666667 0.000000
vt 0.666667 0.000000
vt 0.166667 0.000000
vt 0.166667 0.000000
vt 0.333333 0.000000
vt 0.333333 0.000000
vt 0.166667 0.000000
vt 0.333333 0.000000
vt 0.166667 0.000000
vt 0.166667 0.000000
vt 0.333333 0.000000
vt 0.333333 0.000000
vt 0.500000 0.000000
vt 0.500000 0.000000
vt 0.333333 0.000000
vt 0.500000 0.000000
vt 0.333333 0.000000
vt 0.333333 0.000000
vt 0.500000 0.000000
vt 0.500000 0.000000
vt 0.666667 0.000000
vt 0.666667 0.000000
vt 0.500000 0.000000
vt 0.666667 0.000000
vt 0.500000 0.000000
vt 0.500000 0.000000
vt 0.666667 0.000000
vt 0.833333 0.000000
vt -0.000000 0.000000
vt -0.000000 0.000000
vt 0.833333 0.000000
vt -0.000000 0.000000
vt 0.833333 0.000000
vt 0.833333 0.000000
vt -0.000000 0.000000
vt -0.000000 0.000000
vt 0.166667 0.000000
vt 0.166667 0.000000
vt -0.000000 0.000000
vt 0.166667 0.000000
vt -0.000000 0.000000
vt -0.000000 0.000000
vt 0.166667 0.000000
vt 0.166667 0.000000
vt 0.666667 0.000000
vt 0.666667 0.000000
vt 0.166667 0.000000
vt 0.666667 0.000000
vt 0.166667 0.000000
vt 0.166667 0.000000
vt 0.666667 0.000000
vt 0.666667 0.000000
vt 0.833333 0.000000
vt 0.833333 0.000000
vt 0.666667 0.000000
vt 0.833333 0.000000
vt 0.666667 0.000000
vt 0.666667 0.000000
vt 0.833333 0.000000
s 0
usemtl PurpleGLow
f 1/1/1 2/2/1 3/3/1
f 1/1/1 3/3/1 4/4/1
f 5/5/2 6/6/2 7/7/2
f 5/5/2 7/7/2 8/8/2
s 1
f 9/9/3 10/10/4 11/11/4
f 9/9/3 11/11/4 12/12/4
f 13/13/5 14/14/5 15/15/6
f 13/13/5 15/15/6 16/16/5
s 0
f 17/17/7 18/18/7 19/19/7
f 17/17/7 19/19/7 20/20/7
f 21/21/8 22/22/8 23/23/8
f 21/21/8 23/23/8 24/24/8
s 1
f 25/25/9 26/26/9 27/27/10
f 25/25/9 27/27/10 28/28/10
f 29/29/11 30/30/11 31/31/11
f 29/29/11 31/31/11 32/32/12
f 33/33/13 34/34/13 35/35/13
f 33/33/13 35/35/13 36/36/13
f 37/37/14 38/38/14 39/39/14
f 37/37/14 39/39/14 40/40/14
f 41/41/15 42/42/15 43/43/15
f 41/41/15 43/43/15 44/44/15
f 45/45/16 46/46/16 47/47/16
f 45/45/16 47/47/16 48/48/16
f 49/49/17 50/50/17 51/51/17
f 49/49/17 51/51/17 52/52/17
f 53/53/18 54/54/18 55/55/18
f 53/53/18 55/55/18 56/56/18
f 57/57/19 58/58/19 59/59/20
f 57/57/19 59/59/20 60/60/20
f 61/61/21 62/62/21 63/63/21
f 61/61/21 63/63/21 64/64/21
f 65/65/22 66/66/22 67/67/22
f 65/65/22 67/67/22 68/68/22
f 69/69/23 70/70/23 71/71/24
f 69/69/23 71/71/24 72/72/23
f 73/73/25 74/74/25 75/75/25
f 73/73/25 75/75/25 76/76/25
f 77/77/26 78/78/27 79/79/28
f 77/77/26 79/79/28 80/80/26
f 81/81/29 82/82/30 83/83/30
f 81/81/29 83/83/30 84/84/29
f 85/85/31 86/86/31 87/87/31
f 85/85/31 87/87/31 88/88/31
f 89/89/32 90/90/32 91/91/32
f 89/89/32 91/91/32 92/92/32
f 93/93/33 94/94/34 95/95/34
f 93/93/33 95/95/34 96/96/33
f 97/97/35 98/98/35 99/99/36
f 97/97/35 99/99/36 100/100/35
f 101/101/37 102/102/37 103/103/37
f 101/101/37 103/103/37 104/104/38
s 0
f 105/105/39 106/106/39 107/107/39
f 105/105/39 107/107/39 108/108/39
f 109/109/40 110/110/40 111/111/40
f 109/109/40 111/111/40 112/112/40
s 1
f 113/113/41 114/114/42 115/115/42
f 113/113/41 115/115/42 116/116/41
f 117/117/43 118/118/43 119/119/44
f 117/117/43 119/119/44 120/120/45
s 0
f 121/121/46 122/122/46 123/123/46
f 121/121/46 123/123/46 124/124/46
f 125/125/47 126/126/47 127/127/47
f 125/125/47 127/127/47 128/128/47
s 1
f 129/129/48 130/130/48 131/131/49
f 129/129/48 131/131/49 132/132/48
f 133/133/50 134/134/50 135/135/51
f 133/133/50 135/135/51 136/136/51
f 137/137/52 138/138/53 139/139/52
f 137/137/52 139/139/52 140/140/52
f 141/141/54 142/142/55 143/143/55
f 141/141/54 143/143/55 144/144/54
f 145/145/56 146/146/56 147/147/56
f 145/145/56 147/147/56 148/148/56
f 149/149/57 150/150/58 151/151/58
f 149/149/57 151/151/58 152/152/58
f 153/153/59 154/154/59 155/155/59
f 153/153/59 155/155/59 156/156/59
f 157/157/60 158/158/60 159/159/60
f 157/157/60 159/159/60 160/160/60
f 161/161/61 162/162/61 163/163/61
f 161/161/61 163/163/61 164/164/61
f 165/165/62 166/166/62 167/167/62
f 165/165/62 167/167/62 168/168/62
f 169/169/63 170/170/63 171/171/63
f 169/169/63 171/171/63 172/172/63
f 173/173/64 174/174/64 175/175/64
f 173/173/64 175/175/64 176/176/65
f 177/177/66 178/178/66 179/179/66
f 177/177/66 179/179/66 180/180/66
f 181/181/67 182/182/67 183/183/68
f 181/181/67 183/183/68 184/184/67
f 185/185/69 186/186/70 187/187/69
f 185/185/69 187/187/69 188/188/69
f 189/189/71 190/190/72 191/191/71
f 189/189/71 191/191/71 192/192/73
f 193/193/74 194/194/74 195/195/74
f 193/193/74 195/195/74 196/196/74
f 197/197/75 198/198/75 199/199/75
f 197/197/75 199/199/75 200/200/75
f 201/201/76 202/202/76 203/203/76
f 201/201/76 203/203/76 204/204/76
f 205/205/77 206/206/77 207/207/77
f 205/205/77 207/207/77 208/208/77
s 0
f 209/209/78 210/210/78 211/211/78
s 1
f 209/209/78 211/211/78 212/212/78
s 0
f 213/213/79 214/214/79 215/215/79
f 213/213/79 215/215/79 216/216/79
s 1
f 217/217/80 218/218/80 219/219/80
f 217/217/80 219/219/80 220/220/80
f 221/221/81 222/222/81 223/223/81
f 221/221/81 223/223/81 224/224/81
f 225/225/82 226/226/83 227/227/83
f 225/225/82 227/227/83 228/228/83
f 229/229/84 230/230/84 231/231/85
f 229/229/84 231/231/85 232/232/84
f 233/233/86 234/234/86 235/235/86
f 233/233/86 235/235/86 236/236/86
f 237/237/87 238/238/87 239/239/87
f 237/237/87 239/239/87 240/240/87
s 0
f 241/241/88 242/242/88 243/243/88
f 241/241/88 243/243/88 244/244/88
f 245/245/89 246/246/89 247/247/89
f 245/245/89 247/247/89 248/248/89
s 1
f 249/249/90 250/250/90 251/251/90
f 249/249/90 251/251/90 252/252/90
f 253/253/91 254/254/91 255/255/91
f 253/253/91 255/255/91 256/256/91
f 257/257/92 258/258/92 259/259/92
f 257/257/92 259/259/92 260/260/92
f 261/261/93 262/262/94 263/263/94
f 261/261/93 263/263/94 264/264/93
f 265/265/95 266/266/95 267/267/95
f 265/265/95 267/267/95 268/268/95
f 269/269/96 270/270/96 271/271/96
f 269/269/96 271/271/96 272/272/96
s 0
f 273/273/97 274/274/97 275/275/97
f 273/273/97 275/275/97 276/276/97
f 277/277/98 278/278/98 279/279/98
f 277/277/98 279/279/98 280/280/98
s 1
f 281/281/99 282/282/99 283/283/100
f 281/281/99 283/283/100 284/284/100
f 285/285/101 286/286/101 287/287/102
f 285/285/101 287/287/102 288/288/101
f 289/289/103 290/290/103 291/291/103
f 289/289/103 291/291/103 292/292/103
f 293/293/104 294/294/104 295/295/104
f 293/293/104 295/295/104 296/296/104
f 297/297/105 298/298/105 299/299/105
f 297/297/105 299/299/105 300/300/105
f 301/301/106 302/302/106 303/303/106
f 301/301/106 303/303/106 304/304/106
s 0
f 305/305/107 306/306/107 307/307/107
f 305/305/108 307/307/108 308/308/108
f 309/309/109 310/310/109 311/311/109
f 309/309/110 311/311/110 312/312/110
s 1
f 313/313/111 314/314/111 315/315/111
f 313/313/111 315/315/111 316/316/111
f 317/317/112 318/318/112 319/319/112
f 317/317/112 319/319/112 320/320/112
s 0
f 321/321/113 322/322/113 323/323/113
f 321/321/113 323/323/113 324/324/113
f 325/325/114 326/326/114 327/327/114
f 325/325/114 327/327/114 328/328/114
s 1
f 329/329/115 330/330/115 331/331/115
f 329/329/115 331/331/115 332/332/115
f 333/333/116 334/334/116 335/335/116
f 333/333/116 335/335/116 336/336/116
s 0
f 337/337/117 338/338/117 339/339/117
f 337/337/117 339/339/117 340/340/117
f 341/341/118 342/342/118 343/343/118
f 341/341/118 343/343/118 344/344/118
s 1
f 345/345/119 346/346/119 347/347/119
f 345/345/119 347/347/119 348/348/119
f 349/349/120 350/350/120 351/351/120
f 349/349/120 351/351/120 352/352/120
s 0
f 353/353/121 354/354/121 355/355/121
f 353/353/121 355/355/121 356/356/121
f 357/357/122 358/358/122 359/359/122
f 357/357/122 359/359/122 360/360/122
s 1
f 361/361/123 362/362/124 363/363/123
f 361/361/123 363/363/123 364/364/123
f 365/365/125 366/366/125 367/367/126
f 365/365/125 367/367/126 368/368/125
s 0
f 369/369/127 370/370/127 371/371/127
f 369/369/127 371/371/127 372/372/127
f 373/373/128 374/374/128 375/375/128
f 373/373/128 375/375/128 376/376/128
s 1
f 377/377/129 378/378/129 379/379/130
f 377/377/129 379/379/130 380/380/129
f 381/381/131 382/382/131 383/383/132
f 381/381/131 383/383/132 384/384/132
s 0
f 385/385/133 386/386/133 387/387/133
f 385/385/133 387/387/133 388/388/133
f 389/389/134 390/390/134 391/391/134
f 389/389/134 391/391/134 392/392/134
s 1
f 393/393/135 394/394/136 395/395/135
f 393/393/135 395/395/135 396/396/136
f 397/397/137 398/398/137 399/399/137
f 397/397/137 399/399/137 400/400/137
s 0
f 401/401/138 402/402/138 403/403/138
f 401/401/139 403/403/139 404/404/139
f 405/405/140 406/406/140 407/407/140
f 405/405/141 407/407/141 408/408/141
s 1
f 409/409/142 410/410/142 411/411/142
f 409/409/142 411/411/142 412/412/142
f 413/413/143 414/414/143 415/415/143
f 413/413/143 415/415/143 416/416/143
f 417/417/144 418/418/144 419/419/144
f 417/417/144 419/419/144 420/420/144
f 421/421/145 422/422/145 423/423/145
f 421/421/145 423/423/145 424/424/146
f 425/425/147 426/426/147 427/427/147
f 425/425/147 427/427/147 428/428/148
f 429/429/149 430/430/150 431/431/151
f 429/429/149 431/431/151 432/432/149
f 433/433/152 434/434/153 435/435/152
f 433/433/152 435/435/152 436/436/153
f 437/437/154 438/438/154 439/439/154
f 437/437/154 439/439/154 440/440/154
f 441/441/155 442/442/156 443/443/155
f 441/441/155 443/443/155 444/444/156
f 445/445/157 446/446/157 447/447/157
f 445/445/157 447/447/157 448/448/157
s 0
f 449/449/158 450/450/158 451/451/158
f 449/449/158 451/451/158 452/452/158
f 453/453/159 454/454/159 455/455/159
f 453/453/159 455/455/159 456/456/159
s 1
f 457/457/160 458/458/160 459/459/160
f 457/457/160 459/459/160 460/460/160
f 461/461/161 462/462/161 463/463/161
f 461/461/161 463/463/161 464/464/161
s 0
f 465/465/162 466/466/162 467/467/162
f 465/465/162 467/467/162 468/468/162
f 469/469/163 470/470/163 471/471/163
f 469/469/163 471/471/163 472/472/163
s 1
f 473/473/164 474/474/165 475/475/164
f 473/473/164 475/475/164 476/476/164
f 477/477/166 478/478/166 479/479/166
f 477/477/166 479/479/166 480/480/166
f 481/481/167 482/482/167 483/483/168
f 481/481/167 483/483/168 484/484/167
f 485/485/169 486/486/170 487/487/169
f 485/485/169 487/487/169 488/488/169
f 489/489/171 490/490/172 491/491/172
f 489/489/171 491/491/172 492/492/171
f 493/493/173 494/494/173 495/495/173
f 493/493/173 495/495/173 496/496/173
f 497/497/174 498/498/174 499/499/174
f 497/497/174 499/499/174 500/500/174
f 501/501/175 502/502/175 503/503/175
f 501/501/175 503/503/175 504/504/175
f 505/505/176 506/506/177 507/507/178
f 505/505/176 507/507/178 508/508/176
f 509/509/179 510/510/180 511/511/179
f 509/509/179 511/511/179 512/512/180
f 513/513/181 514/514/181 515/515/182
f 513/513/181 515/515/182 516/516/182
f 517/517/183 518/518/183 519/519/183
f 517/517/183 519/519/183 520/520/183
s 0
f 521/521/184 522/522/184 523/523/184
f 521/521/185 523/523/185 524/524/185
f 525/525/186 526/526/186 527/527/186
f 525/525/186 527/527/186 528/528/186
s 1
f 529/529/187 530/530/187 531/531/187
f 529/529/187 531/531/187 532/532/187
f 533/533/188 534/534/188 535/535/188
f 533/533/188 535/535/188 536/536/188
s 0
f 537/537/189 538/538/189 539/539/189
f 537/537/189 539/539/189 540/540/189
f 541/541/190 542/542/190 543/543/190
f 541/541/190 543/543/190 544/544/190
s 1
f 545/545/191 546/546/192 547/547/192
f 545/545/191 547/547/192 548/548/192
f 549/549/193 550/550/193 551/551/193
f 549/549/193 551/551/193 552/552/193
f 553/553/194 554/554/194 555/555/194
f 553/553/194 555/555/194 556/556/195
f 557/557/196 558/558/196 559/559/196
f 557/557/196 559/559/196 560/560/196
f 561/561/197 562/562/197 563/563/197
f 561/561/197 563/563/197 564/564/197
f 565/565/198 566/566/199 567/567/198
f 565/565/198 567/567/198 568/568/198
f 569/569/200 570/570/200 571/571/200
f 569/569/200 571/571/200 572/572/200
f 573/573/201 574/574/201 575/575/201
f 573/573/201 575/575/201 576/576/201
s 0
f 577/577/202 578/578/202 579/579/202
f 577/577/202 579/579/202 580/580/202
f 581/581/203 582/582/203 583/583/203
f 581/581/203 583/583/203 584/584/203
s 1
f 585/585/204 586/586/205 587/587/204
f 585/585/204 587/587/204 588/588/204
f 589/589/206 590/590/206 591/591/206
f 589/589/206 591/591/206 592/592/206
s 0
f 593/593/207 594/594/207 595/595/207
f 593/593/207 595/595/207 596/596/207
f 597/597/208 598/598/208 599/599/208
f 597/597/208 599/599/208 600/600/208
s 1
f 601/601/209 602/602/210 603/603/209
f 601/601/209 603/603/209 604/604/209
f 605/605/211 606/606/211 607/607/211
f 605/605/211 607/607/211 608/608/211
f 609/609/212 610/610/212 611/611/212
f 609/609/212 611/611/212 612/612/212
f 613/613/213 614/614/213 615/615/213
f 613/613/213 615/615/213 616/616/213
f 617/617/214 618/618/214 619/619/214
f 617/617/214 619/619/214 620/620/214
f 621/621/215 622/622/215 623/623/215
f 621/621/215 623/623/215 624/624/215
f 625/625/216 626/626/216 627/627/216
f 625/625/216 627/627/216 628/628/216
f 629/629/217 630/630/217 631/631/217
f 629/629/217 631/631/217 632/632/217
f 633/633/218 634/634/219 635/635/219
f 633/633/218 635/635/219 636/636/218
f 637/637/220 638/638/220 639/639/221
f 637/637/220 639/639/221 640/640/220
s 0
f 641/641/127 642/642/127 643/643/127
f 641/641/127 643/643/127 644/644/127
f 645/645/128 646/646/128 647/647/128
f 645/645/128 647/647/128 648/648/128
f 649/649/222 650/650/222 651/651/222
f 649/649/222 651/651/222 652/652/222
f 653/653/223 654/654/223 655/655/223
f 653/653/223 655/655/223 656/656/223
s 1
f 657/657/117 658/658/117 659/659/117
s 0
f 657/657/117 659/659/117 660/660/117
f 661/661/118 662/662/118 663/663/118
f 661/661/118 663/663/118 664/664/118
f 665/665/224 666/666/224 667/667/224
f 665/665/224 667/667/224 668/668/224
f 669/669/225 670/670/225 671/671/225
f 669/669/225 671/671/225 672/672/225
f 673/673/127 674/674/127 675/675/127
f 673/673/127 675/675/127 676/676/127
f 677/677/128 678/678/128 679/679/128
f 677/677/128 679/679/128 680/680/128
f 681/681/226 682/682/226 683/683/226
f 681/681/227 683/683/227 684/684/227
f 685/685/228 686/686/228 687/687/228
f 685/685/229 687/687/229 688/688/229
f 689/689/117 690/690/117 691/691/117
f 689/689/117 691/691/117 692/692/117
f 693/693/118 694/694/118 695/695/118
f 693/693/118 695/695/118 696/696/118
f 697/697/230 698/698/230 699/699/230
s 1
f 697/697/231 699/699/231 700/700/231
f 701/701/232 702/702/232 703/703/232
s 0
f 701/701/233 703/703/233 704/704/233
