# Blender 3.5.0
# www.blender.org
mtllib CannonMini_cannon.mtl
o MiniCanon_PurpleGLow_0
v 0.069936 1.756521 3.135885
v -0.069934 1.756521 3.135885
v -0.071119 1.758685 3.138354
v 0.071120 1.758685 3.138354
v -0.069934 1.756521 3.135885
v 0.069936 1.756521 3.135885
v 0.072823 1.754356 3.138354
v -0.072821 1.754356 3.138354
v -0.069934 1.756521 3.135885
v -0.069935 1.756520 1.645078
v -0.071119 1.758685 1.642609
v -0.071119 1.758685 3.138354
v -0.069935 1.756520 1.645078
v -0.069934 1.756521 3.135885
v -0.072821 1.754356 3.138354
v -0.072822 1.754356 1.642609
v -0.069935 1.756520 1.645078
v 0.069935 1.756520 1.645078
v 0.071120 1.758685 1.642609
v -0.071119 1.758685 1.642609
v 0.069935 1.756520 1.645078
v -0.069935 1.756520 1.645078
v -0.072822 1.754356 1.642609
v 0.072822 1.754356 1.642609
v 0.069935 1.756520 1.645078
v 0.069936 1.756521 3.135885
v 0.071120 1.758685 3.138354
v 0.071120 1.758685 1.642609
v 0.069936 1.756521 3.135885
v 0.069935 1.756520 1.645078
v 0.072822 1.754356 1.642609
v 0.072823 1.754356 3.138354
v 0.073294 1.958121 1.645078
v 0.073295 1.958122 3.135885
v 0.071120 1.957768 3.138354
v 0.071120 1.957767 1.642609
v 0.073295 1.958122 3.135885
v 0.073294 1.958121 1.645078
v 0.072822 1.962096 1.642609
v 0.072823 1.962097 3.138354
v 0.073295 1.958122 3.135885
v 0.144983 1.860037 3.135885
v 0.144270 1.858227 3.138354
v 0.071120 1.957768 3.138354
v 0.144983 1.860037 3.135885
v 0.073295 1.958122 3.135885
v 0.072823 1.962097 3.138354
v 0.148342 1.858227 3.138354
v 0.144983 1.860037 3.135885
v 0.144982 1.860037 1.645077
v 0.144270 1.858226 1.642609
v 0.144270 1.858227 3.138354
v 0.144982 1.860037 1.645077
v 0.144983 1.860037 3.135885
v 0.148342 1.858227 3.138354
v 0.148341 1.858226 1.642609
v 0.144982 1.860037 1.645077
v 0.073294 1.958121 1.645078
v 0.071120 1.957767 1.642609
v 0.144270 1.858226 1.642609
v 0.073294 1.958121 1.645078
v 0.144982 1.860037 1.645077
v 0.148341 1.858226 1.642609
v 0.072822 1.962096 1.642609
v 0.144982 1.856415 1.645077
v 0.144983 1.856416 3.135885
v 0.144270 1.858227 3.138354
v 0.144270 1.858226 1.642609
v 0.144983 1.856416 3.135885
v 0.144982 1.856415 1.645077
v 0.148341 1.858226 1.642609
v 0.148342 1.858227 3.138354
v 0.144983 1.856416 3.135885
v 0.073295 1.758332 3.135885
v 0.071120 1.758685 3.138354
v 0.144270 1.858227 3.138354
v 0.073295 1.758332 3.135885
v 0.144983 1.856416 3.135885
v 0.148342 1.858227 3.138354
v 0.072823 1.754356 3.138354
v 0.073295 1.758332 3.135885
v 0.073294 1.758331 1.645078
v 0.071120 1.758685 1.642609
v 0.071120 1.758685 3.138354
v 0.073294 1.758331 1.645078
v 0.073295 1.758332 3.135885
v 0.072823 1.754356 3.138354
v 0.072822 1.754356 1.642609
v 0.073294 1.758331 1.645078
v 0.144982 1.856415 1.645077
v 0.144270 1.858226 1.642609
v 0.071120 1.758685 1.642609
v 0.144982 1.856415 1.645077
v 0.073294 1.758331 1.645078
v 0.072822 1.754356 1.642609
v 0.148341 1.858226 1.642609
v -0.073294 1.758331 1.645078
v -0.073293 1.758332 3.135885
v -0.071119 1.758685 3.138354
v -0.071119 1.758685 1.642609
v -0.073293 1.758332 3.135885
v -0.073294 1.758331 1.645078
v -0.072822 1.754356 1.642609
v -0.072821 1.754356 3.138354
v -0.073293 1.758332 3.135885
v -0.144981 1.856416 3.135885
v -0.144269 1.858227 3.138354
v -0.071119 1.758685 3.138354
v -0.144981 1.856416 3.135885
v -0.073293 1.758332 3.135885
v -0.072821 1.754356 3.138354
v -0.148340 1.858227 3.138354
v -0.144981 1.856416 3.135885
v -0.144982 1.856415 1.645078
v -0.144269 1.858226 1.642609
v -0.144269 1.858227 3.138354
v -0.144982 1.856415 1.645078
v -0.144981 1.856416 3.135885
v -0.148340 1.858227 3.138354
v -0.148341 1.858226 1.642609
v -0.144982 1.856415 1.645078
v -0.073294 1.758331 1.645078
v -0.071119 1.758685 1.642609
v -0.144269 1.858226 1.642609
v -0.073294 1.758331 1.645078
v -0.144982 1.856415 1.645078
v -0.148341 1.858226 1.642609
v -0.072822 1.754356 1.642609
v -0.144982 1.860037 1.645078
v -0.144981 1.860037 3.135885
v -0.144269 1.858227 3.138354
v -0.144269 1.858226 1.642609
v -0.144981 1.860037 3.135885
v -0.144982 1.860037 1.645078
v -0.148341 1.858226 1.642609
v -0.148340 1.858227 3.138354
v -0.144981 1.860037 3.135885
v -0.073293 1.958122 3.135885
v -0.071119 1.957768 3.138354
v -0.144269 1.858227 3.138354
v -0.073293 1.958122 3.135885
v -0.144981 1.860037 3.135885
v -0.148340 1.858227 3.138354
v -0.072821 1.962097 3.138354
v -0.073293 1.958122 3.135885
v -0.073294 1.958121 1.645078
v -0.071119 1.957767 1.642609
v -0.071119 1.957768 3.138354
v -0.073294 1.958121 1.645078
v -0.073293 1.958122 3.135885
v -0.072821 1.962097 3.138354
v -0.072822 1.962096 1.642609
v -0.073294 1.958121 1.645078
v -0.144982 1.860037 1.645078
v -0.144269 1.858226 1.642609
v -0.071119 1.957767 1.642609
v -0.144982 1.860037 1.645078
v -0.073294 1.958121 1.645078
v -0.072822 1.962096 1.642609
v -0.148341 1.858226 1.642609
v -0.069935 1.959932 1.645078
v -0.069934 1.959932 3.135885
v -0.071119 1.957768 3.138354
v -0.071119 1.957767 1.642609
v -0.069934 1.959932 3.135885
v -0.069935 1.959932 1.645078
v -0.072822 1.962096 1.642609
v -0.072821 1.962097 3.138354
v -0.069934 1.959932 3.135885
v 0.069936 1.959932 3.135885
v 0.071120 1.957768 3.138354
v -0.071119 1.957768 3.138354
v 0.069936 1.959932 3.135885
v -0.069934 1.959932 3.135885
v -0.072821 1.962097 3.138354
v 0.072823 1.962097 3.138354
v 0.069936 1.959932 3.135885
v 0.069935 1.959932 1.645078
v 0.071120 1.957767 1.642609
v 0.071120 1.957768 3.138354
v 0.069935 1.959932 1.645078
v 0.069936 1.959932 3.135885
v 0.072823 1.962097 3.138354
v 0.072822 1.962096 1.642609
v 0.069935 1.959932 1.645078
v -0.069935 1.959932 1.645078
v -0.071119 1.957767 1.642609
v 0.071120 1.957767 1.642609
v -0.069935 1.959932 1.645078
v 0.069935 1.959932 1.645078
v 0.072822 1.962096 1.642609
v -0.072822 1.962096 1.642609
vn -0.0000 0.7518 -0.6594
vn -0.0000 -0.7518 -0.6594
vn -0.0000 -0.7518 -0.6593
vn 0.8773 0.4800 -0.0000
vn 0.5999 -0.8001 -0.0000
vn -0.0000 0.7518 0.6594
vn -0.0000 -0.7518 0.6594
vn -0.0000 -0.7518 0.6593
vn -0.8773 0.4800 -0.0000
vn -0.5999 -0.8001 -0.0000
vn 0.1606 -0.9870 -0.0000
vn 0.9930 0.1179 -0.0000
vn -0.6512 -0.4772 -0.5901
vn 0.6524 0.4756 -0.5901
vn 0.6524 0.4755 -0.5901
vn -0.9306 0.3660 -0.0000
vn 0.4745 0.8803 -0.0000
vn -0.6512 -0.4772 0.5901
vn 0.6524 0.4756 0.5901
vn 0.6524 0.4755 0.5901
vn -0.9306 -0.3660 -0.0000
vn 0.4745 -0.8803 -0.0000
vn -0.6512 0.4773 -0.5901
vn -0.6512 0.4772 -0.5901
vn 0.6524 -0.4756 -0.5901
vn 0.1606 0.9870 -0.0000
vn 0.9930 -0.1179 -0.0000
vn -0.6512 0.4772 0.5901
vn -0.6512 0.4773 0.5901
vn 0.6524 -0.4756 0.5901
vn -0.1606 0.9870 -0.0000
vn -0.9930 -0.1179 -0.0000
vn 0.6512 0.4772 -0.5901
vn 0.6512 0.4773 -0.5901
vn -0.6524 -0.4756 -0.5901
vn -0.6524 -0.4755 -0.5901
vn 0.9306 -0.3660 -0.0000
vn -0.4745 -0.8803 -0.0000
vn 0.6512 0.4773 0.5901
vn 0.6512 0.4772 0.5901
vn -0.6524 -0.4756 0.5901
vn -0.6524 -0.4755 0.5901
vn 0.9306 0.3660 -0.0000
vn -0.4745 0.8803 -0.0000
vn 0.6512 -0.4773 -0.5901
vn 0.6512 -0.4772 -0.5901
vn -0.6524 0.4756 -0.5901
vn -0.6524 0.4755 -0.5901
vn -0.1606 -0.9870 -0.0000
vn -0.9930 0.1179 -0.0000
vn 0.6512 -0.4772 0.5901
vn 0.6512 -0.4773 0.5901
vn -0.6524 0.4756 0.5901
vn -0.6524 0.4755 0.5901
vn 0.8773 -0.4800 -0.0000
vn 0.5999 0.8001 -0.0000
vn -0.0000 0.7518 -0.6593
vn -0.8773 -0.4800 -0.0000
vn -0.5999 0.8001 -0.0000
vn -0.0000 0.7518 0.6593
vt 0.625000 0.000000
vt 0.375000 0.000000
vt 0.375000 0.000000
vt 0.625000 0.000000
vt 0.375000 0.000000
vt 0.625000 0.000000
vt 0.625000 0.000000
vt 0.375000 0.000000
vt 0.375000 0.000000
vt 0.375000 1.000000
vt 0.375000 1.000000
vt 0.375000 0.000000
vt 0.375000 1.000000
vt 0.375000 0.000000
vt 0.375000 0.000000
vt 0.375000 1.000000
vt 0.375000 1.000000
vt 0.625000 1.000000
vt 0.625000 1.000000
vt 0.375000 1.000000
vt 0.625000 1.000000
vt 0.375000 1.000000
vt 0.375000 1.000000
vt 0.625000 1.000000
vt 0.625000 1.000000
vt 0.625000 0.000000
vt 0.625000 0.000000
vt 0.625000 1.000000
vt 0.625000 0.000000
vt 0.625000 1.000000
vt 0.625000 1.000000
vt 0.625000 0.000000
vt 0.875000 1.000000
vt 0.875000 0.000000
vt 0.875000 0.000000
vt 0.875000 1.000000
vt 0.875000 0.000000
vt 0.875000 1.000000
vt 0.875000 1.000000
vt 0.875000 0.000000
vt 0.875000 0.000000
vt 0.750000 0.000000
vt 0.750000 0.000000
vt 0.875000 0.000000
vt 0.750000 0.000000
vt 0.875000 0.000000
vt 0.875000 0.000000
vt 0.750000 0.000000
vt 0.750000 0.000000
vt 0.750000 1.000000
vt 0.750000 1.000000
vt 0.750000 0.000000
vt 0.750000 1.000000
vt 0.750000 0.000000
vt 0.750000 0.000000
vt 0.750000 1.000000
vt 0.750000 1.000000
vt 0.875000 1.000000
vt 0.875000 1.000000
vt 0.750000 1.000000
vt 0.875000 1.000000
vt 0.750000 1.000000
vt 0.750000 1.000000
vt 0.875000 1.000000
vt 0.750000 1.000000
vt 0.750000 0.000000
vt 0.750000 0.000000
vt 0.750000 1.000000
vt 0.750000 0.000000
vt 0.750000 1.000000
vt 0.750000 1.000000
vt 0.750000 0.000000
vt 0.750000 0.000000
vt 0.625000 0.000000
vt 0.625000 0.000000
vt 0.750000 0.000000
vt 0.625000 0.000000
vt 0.750000 0.000000
vt 0.750000 0.000000
vt 0.625000 0.000000
vt 0.625000 0.000000
vt 0.625000 1.000000
vt 0.625000 1.000000
vt 0.625000 0.000000
vt 0.625000 1.000000
vt 0.625000 0.000000
vt 0.625000 0.000000
vt 0.625000 1.000000
vt 0.625000 1.000000
vt 0.750000 1.000000
vt 0.750000 1.000000
vt 0.625000 1.000000
vt 0.750000 1.000000
vt 0.625000 1.000000
vt 0.625000 1.000000
vt 0.750000 1.000000
vt 0.375000 1.000000
vt 0.375000 0.000000
vt 0.375000 0.000000
vt 0.375000 1.000000
vt 0.375000 0.000000
vt 0.375000 1.000000
vt 0.375000 1.000000
vt 0.375000 0.000000
vt 0.375000 0.000000
vt 0.250000 0.000000
vt 0.250000 0.000000
vt 0.375000 0.000000
vt 0.250000 0.000000
vt 0.375000 0.000000
vt 0.375000 0.000000
vt 0.250000 0.000000
vt 0.250000 0.000000
vt 0.250000 1.000000
vt 0.250000 1.000000
vt 0.250000 0.000000
vt 0.250000 1.000000
vt 0.250000 0.000000
vt 0.250000 0.000000
vt 0.250000 1.000000
vt 0.250000 1.000000
vt 0.375000 1.000000
vt 0.375000 1.000000
vt 0.250000 1.000000
vt 0.375000 1.000000
vt 0.250000 1.000000
vt 0.250000 1.000000
vt 0.375000 1.000000
vt 0.250000 1.000000
vt 0.250000 0.000000
vt 0.250000 0.000000
vt 0.250000 1.000000
vt 0.250000 0.000000
vt 0.250000 1.000000
vt 0.250000 1.000000
vt 0.250000 0.000000
vt 0.250000 0.000000
vt 0.125000 0.000000
vt 0.125000 0.000000
vt 0.250000 0.000000
vt 0.125000 0.000000
vt 0.250000 0.000000
vt 0.250000 0.000000
vt 0.125000 0.000000
vt 0.125000 0.000000
vt 0.125000 1.000000
vt 0.125000 1.000000
vt 0.125000 0.000000
vt 0.125000 1.000000
vt 0.125000 0.000000
vt 0.125000 0.000000
vt 0.125000 1.000000
vt 0.125000 1.000000
vt 0.250000 1.000000
vt 0.250000 1.000000
vt 0.125000 1.000000
vt 0.250000 1.000000
vt 0.125000 1.000000
vt 0.125000 1.000000
vt 0.250000 1.000000
vt 0.125000 1.000000
vt 0.125000 0.000000
vt 0.125000 0.000000
vt 0.125000 1.000000
vt 0.125000 0.000000
vt 0.125000 1.000000
vt 0.125000 1.000000
vt 0.125000 0.000000
vt 0.125000 0.000000
vt 0.875000 0.000000
vt 0.875000 0.000000
vt 0.125000 0.000000
vt 0.875000 0.000000
vt 0.125000 0.000000
vt 0.125000 0.000000
vt 0.875000 0.000000
vt 0.875000 0.000000
vt 0.875000 1.000000
vt 0.875000 1.000000
vt 0.875000 0.000000
vt 0.875000 1.000000
vt 0.875000 0.000000
vt 0.875000 0.000000
vt 0.875000 1.000000
vt 0.875000 1.000000
vt 0.125000 1.000000
vt 0.125000 1.000000
vt 0.875000 1.000000
vt 0.125000 1.000000
vt 0.875000 1.000000
vt 0.875000 1.000000
vt 0.125000 1.000000
s 0
usemtl PurpleGLow
f 1/1/1 2/2/1 3/3/1
f 1/1/1 3/3/1 4/4/1
f 5/5/2 6/6/2 7/7/2
f 5/5/3 7/7/3 8/8/3
f 9/9/4 10/10/4 11/11/4
f 9/9/4 11/11/4 12/12/4
s 1
f 13/13/5 14/14/5 15/15/5
s 0
f 13/13/5 15/15/5 16/16/5
f 17/17/6 18/18/6 19/19/6
f 17/17/6 19/19/6 20/20/6
f 21/21/7 22/22/7 23/23/7
f 21/21/8 23/23/8 24/24/8
f 25/25/9 26/26/9 27/27/9
f 25/25/9 27/27/9 28/28/9
f 29/29/10 30/30/10 31/31/10
f 29/29/10 31/31/10 32/32/10
f 33/33/11 34/34/11 35/35/11
f 33/33/11 35/35/11 36/36/11
f 37/37/12 38/38/12 39/39/12
f 37/37/12 39/39/12 40/40/12
s 1
f 41/41/13 42/42/13 43/43/13
f 41/41/13 43/43/13 44/44/13
f 45/45/14 46/46/15 47/47/14
f 45/45/14 47/47/14 48/48/15
s 0
f 49/49/16 50/50/16 51/51/16
f 49/49/16 51/51/16 52/52/16
f 53/53/17 54/54/17 55/55/17
f 53/53/17 55/55/17 56/56/17
s 1
f 57/57/18 58/58/18 59/59/18
f 57/57/18 59/59/18 60/60/18
f 61/61/19 62/62/19 63/63/19
f 61/61/19 63/63/19 64/64/20
s 0
f 65/65/21 66/66/21 67/67/21
f 65/65/21 67/67/21 68/68/21
f 69/69/22 70/70/22 71/71/22
f 69/69/22 71/71/22 72/72/22
s 1
f 73/73/23 74/74/24 75/75/23
f 73/73/23 75/75/23 76/76/23
f 77/77/25 78/78/25 79/79/25
f 77/77/25 79/79/25 80/80/25
s 0
f 81/81/26 82/82/26 83/83/26
f 81/81/26 83/83/26 84/84/26
f 85/85/27 86/86/27 87/87/27
f 85/85/27 87/87/27 88/88/27
s 1
f 89/89/28 90/90/29 91/91/29
f 89/89/28 91/91/29 92/92/29
f 93/93/30 94/94/30 95/95/30
f 93/93/30 95/95/30 96/96/30
s 0
f 97/97/31 98/98/31 99/99/31
f 97/97/31 99/99/31 100/100/31
f 101/101/32 102/102/32 103/103/32
f 101/101/32 103/103/32 104/104/32
s 1
f 105/105/33 106/106/33 107/107/33
f 105/105/33 107/107/33 108/108/34
f 109/109/35 110/110/35 111/111/36
f 109/109/35 111/111/36 112/112/36
s 0
f 113/113/37 114/114/37 115/115/37
f 113/113/37 115/115/37 116/116/37
f 117/117/38 118/118/38 119/119/38
f 117/117/38 119/119/38 120/120/38
s 1
f 121/121/39 122/122/39 123/123/40
f 121/121/39 123/123/40 124/124/39
f 125/125/41 126/126/42 127/127/41
f 125/125/41 127/127/41 128/128/42
s 0
f 129/129/43 130/130/43 131/131/43
f 129/129/43 131/131/43 132/132/43
f 133/133/44 134/134/44 135/135/44
f 133/133/44 135/135/44 136/136/44
s 1
f 137/137/45 138/138/45 139/139/46
f 137/137/45 139/139/46 140/140/45
f 141/141/47 142/142/48 143/143/47
f 141/141/47 143/143/47 144/144/48
s 0
f 145/145/49 146/146/49 147/147/49
f 145/145/49 147/147/49 148/148/49
f 149/149/50 150/150/50 151/151/50
f 149/149/50 151/151/50 152/152/50
s 1
f 153/153/51 154/154/51 155/155/51
f 153/153/51 155/155/51 156/156/52
f 157/157/53 158/158/53 159/159/54
f 157/157/53 159/159/54 160/160/54
s 0
f 161/161/55 162/162/55 163/163/55
f 161/161/55 163/163/55 164/164/55
s 1
f 165/165/56 166/166/56 167/167/56
s 0
f 165/165/56 167/167/56 168/168/56
f 169/169/2 170/170/2 171/171/2
f 169/169/2 171/171/2 172/172/2
f 173/173/1 174/174/1 175/175/1
f 173/173/57 175/175/57 176/176/57
f 177/177/58 178/178/58 179/179/58
f 177/177/58 179/179/58 180/180/58
f 181/181/59 182/182/59 183/183/59
f 181/181/59 183/183/59 184/184/59
f 185/185/7 186/186/7 187/187/7
f 185/185/7 187/187/7 188/188/7
f 189/189/6 190/190/6 191/191/6
f 189/189/60 191/191/60 192/192/60
