# Blender 3.5.0
# www.blender.org
mtllib CannonCylinder7_1.mtl
o Cylinder.007_PinkGlow.003_0
v 0.575070 1.437443 1.647577
v 0.616872 1.508652 1.647577
v 0.616872 1.508652 1.695928
v 0.575070 1.437443 1.695928
v 0.746873 1.642103 1.647576
v 0.705071 1.570894 1.647576
v 0.705071 1.570894 1.695928
v 0.746873 1.642103 1.695928
v 0.616872 1.713312 1.647576
v 0.705071 1.713312 1.647576
v 0.705071 1.713312 1.695928
v 0.616872 1.713312 1.695928
v 0.746873 1.437443 1.647577
v 0.705071 1.366233 1.647577
v 0.705071 1.366233 1.695928
v 0.746873 1.437443 1.695928
v 0.705071 1.570894 1.647576
v 0.616872 1.570894 1.647577
v 0.616872 1.570894 1.695928
v 0.705071 1.570894 1.695928
v 0.616872 1.508652 1.647577
v 0.705071 1.508652 1.647577
v 0.705071 1.508652 1.695928
v 0.616872 1.508652 1.695928
v 0.705071 1.366233 1.647577
v 0.616872 1.366233 1.647577
v 0.616872 1.366233 1.695928
v 0.705071 1.366233 1.695928
v 0.616872 1.570894 1.647577
v 0.575070 1.642103 1.647576
v 0.575070 1.642103 1.695928
v 0.616872 1.570894 1.695928
v 0.705071 1.713312 1.647576
v 0.746873 1.642103 1.647576
v 0.746873 1.642103 1.695928
v 0.705071 1.713312 1.695928
v 0.616872 1.366233 1.647577
v 0.575070 1.437443 1.647577
v 0.575070 1.437443 1.695928
v 0.616872 1.366233 1.695928
v 0.575070 1.642103 1.647576
v 0.616872 1.713312 1.647576
v 0.616872 1.713312 1.695928
v 0.575070 1.642103 1.695928
v 0.705071 1.508652 1.647577
v 0.746873 1.437443 1.647577
v 0.746873 1.437443 1.695928
v 0.705071 1.508652 1.695928
v -0.575070 1.437443 1.647577
v -0.575070 1.437443 1.695928
v -0.616872 1.508652 1.695928
v -0.616872 1.508652 1.647577
v -0.746873 1.642103 1.647577
v -0.746873 1.642103 1.695928
v -0.705071 1.570894 1.695928
v -0.705071 1.570894 1.647577
v -0.616872 1.713312 1.647577
v -0.616872 1.713312 1.695928
v -0.705071 1.713312 1.695928
v -0.705071 1.713312 1.647577
v -0.746873 1.437443 1.647577
v -0.746873 1.437443 1.695928
v -0.705071 1.366233 1.695928
v -0.705071 1.366233 1.647577
v -0.705071 1.570894 1.647577
v -0.705071 1.570894 1.695928
v -0.616872 1.570894 1.695928
v -0.616872 1.570894 1.647577
v -0.616872 1.508652 1.647577
v -0.616872 1.508652 1.695928
v -0.705071 1.508652 1.695928
v -0.705071 1.508652 1.647577
v -0.705071 1.366233 1.647577
v -0.705071 1.366233 1.695928
v -0.616872 1.366233 1.695928
v -0.616872 1.366233 1.647577
v -0.616872 1.570894 1.647577
v -0.616872 1.570894 1.695928
v -0.575070 1.642103 1.695928
v -0.575070 1.642103 1.647577
v -0.705071 1.713312 1.647577
v -0.705071 1.713312 1.695928
v -0.746873 1.642103 1.695928
v -0.746873 1.642103 1.647577
v -0.616872 1.366233 1.647577
v -0.616872 1.366233 1.695928
v -0.575070 1.437443 1.695928
v -0.575070 1.437443 1.647577
v -0.575070 1.642103 1.647577
v -0.575070 1.642103 1.695928
v -0.616872 1.713312 1.695928
v -0.616872 1.713312 1.647577
v -0.705071 1.508652 1.647577
v -0.705071 1.508652 1.695928
v -0.746873 1.437443 1.695928
v -0.746873 1.437443 1.647577
v 0.746873 1.437443 1.695928
v 0.705071 1.366233 1.695928
v 0.616872 1.366233 1.695928
v 0.575070 1.437443 1.695928
v 0.616872 1.508652 1.695928
v 0.705071 1.508652 1.695928
v 0.746873 1.642103 1.695928
v 0.705071 1.570894 1.695928
v 0.616872 1.570894 1.695928
v 0.575070 1.642103 1.695928
v 0.616872 1.713312 1.695928
v 0.705071 1.713312 1.695928
v -0.746873 1.437443 1.695928
v -0.705071 1.508652 1.695928
v -0.616872 1.508652 1.695928
v -0.575070 1.437443 1.695928
v -0.616872 1.366233 1.695928
v -0.705071 1.366233 1.695928
v -0.746873 1.642103 1.695928
v -0.705071 1.713312 1.695928
v -0.616872 1.713312 1.695928
v -0.575070 1.642103 1.695928
v -0.616872 1.570894 1.695928
v -0.705071 1.570894 1.695928
vn 0.8624 -0.5062 -0.0000
vn -0.8624 0.5062 -0.0000
vn -0.0000 -1.0000 -0.0000
vn -0.0000 1.0000 -0.0000
vn 0.8624 0.5062 -0.0000
vn -0.8624 -0.5062 -0.0000
vn -0.0000 -0.0000 -1.0000
vt 0.288694 1.000000
vt 0.270574 1.000000
vt 0.270574 1.000000
vt 0.288694 1.000000
vt 0.711306 1.000000
vt 0.597771 1.000000
vt 0.597771 1.000000
vt 0.711306 1.000000
vt 0.270574 1.000000
vt 0.729426 1.000000
vt 0.729426 1.000000
vt 0.270574 1.000000
vt 0.711306 1.000000
vt 0.597771 1.000000
vt 0.597771 1.000000
vt 0.711306 1.000000
vt 0.597771 1.000000
vt 0.402229 1.000000
vt 0.402229 1.000000
vt 0.597771 1.000000
vt 0.270574 1.000000
vt 0.729426 1.000000
vt 0.729426 1.000000
vt 0.270574 1.000000
vt 0.597771 1.000000
vt 0.402229 1.000000
vt 0.402229 1.000000
vt 0.597771 1.000000
vt 0.402229 1.000000
vt 0.288694 1.000000
vt 0.288694 1.000000
vt 0.402229 1.000000
vt 0.729426 1.000000
vt 0.711306 1.000000
vt 0.711306 1.000000
vt 0.729426 1.000000
vt 0.402229 1.000000
vt 0.288694 1.000000
vt 0.288694 1.000000
vt 0.402229 1.000000
vt 0.288694 1.000000
vt 0.270574 1.000000
vt 0.270574 1.000000
vt 0.288694 1.000000
vt 0.729426 1.000000
vt 0.711306 1.000000
vt 0.711306 1.000000
vt 0.729426 1.000000
vt 0.288694 1.000000
vt 0.288694 1.000000
vt 0.270574 1.000000
vt 0.270574 1.000000
vt 0.711306 1.000000
vt 0.711306 1.000000
vt 0.597771 1.000000
vt 0.597771 1.000000
vt 0.270574 1.000000
vt 0.270574 1.000000
vt 0.729426 1.000000
vt 0.729426 1.000000
vt 0.711306 1.000000
vt 0.711306 1.000000
vt 0.597771 1.000000
vt 0.597771 1.000000
vt 0.597771 1.000000
vt 0.597771 1.000000
vt 0.402229 1.000000
vt 0.402229 1.000000
vt 0.270574 1.000000
vt 0.270574 1.000000
vt 0.729426 1.000000
vt 0.729426 1.000000
vt 0.597771 1.000000
vt 0.597771 1.000000
vt 0.402229 1.000000
vt 0.402229 1.000000
vt 0.402229 1.000000
vt 0.402229 1.000000
vt 0.288694 1.000000
vt 0.288694 1.000000
vt 0.729426 1.000000
vt 0.729426 1.000000
vt 0.711306 1.000000
vt 0.711306 1.000000
vt 0.402229 1.000000
vt 0.402229 1.000000
vt 0.288694 1.000000
vt 0.288694 1.000000
vt 0.288694 1.000000
vt 0.288694 1.000000
vt 0.270574 1.000000
vt 0.270574 1.000000
vt 0.729426 1.000000
vt 0.729426 1.000000
vt 0.711306 1.000000
vt 0.711306 1.000000
vt 0.711306 1.000000
vt 0.597771 1.000000
vt 0.402229 1.000000
vt 0.288694 1.000000
vt 0.270574 1.000000
vt 0.729426 1.000000
vt 0.711306 1.000000
vt 0.597771 1.000000
vt 0.402229 1.000000
vt 0.288694 1.000000
vt 0.270574 1.000000
vt 0.729426 1.000000
vt 0.711306 1.000000
vt 0.729426 1.000000
vt 0.270574 1.000000
vt 0.288694 1.000000
vt 0.402229 1.000000
vt 0.597771 1.000000
vt 0.711306 1.000000
vt 0.729426 1.000000
vt 0.270574 1.000000
vt 0.288694 1.000000
vt 0.402229 1.000000
vt 0.597771 1.000000
s 0
usemtl PinkGlow.003
f 1/1/1 2/2/1 3/3/1
f 1/1/1 3/3/1 4/4/1
f 5/5/2 6/6/2 7/7/2
f 5/5/2 7/7/2 8/8/2
f 9/9/3 10/10/3 11/11/3
f 9/9/3 11/11/3 12/12/3
s 1
f 13/13/2 14/14/2 15/15/2
f 13/13/2 15/15/2 16/16/2
s 0
f 17/17/4 18/18/4 19/19/4
f 17/17/4 19/19/4 20/20/4
f 21/21/3 22/22/3 23/23/3
f 21/21/3 23/23/3 24/24/3
f 25/25/4 26/26/4 27/27/4
f 25/25/4 27/27/4 28/28/4
f 29/29/5 30/30/5 31/31/5
f 29/29/5 31/31/5 32/32/5
f 33/33/6 34/34/6 35/35/6
f 33/33/6 35/35/6 36/36/6
f 37/37/5 38/38/5 39/39/5
f 37/37/5 39/39/5 40/40/5
f 41/41/1 42/42/1 43/43/1
f 41/41/1 43/43/1 44/44/1
f 45/45/6 46/46/6 47/47/6
f 45/45/6 47/47/6 48/48/6
f 49/49/6 50/50/6 51/51/6
f 49/49/6 51/51/6 52/52/6
f 53/53/5 54/54/5 55/55/5
f 53/53/5 55/55/5 56/56/5
f 57/57/3 58/58/3 59/59/3
f 57/57/3 59/59/3 60/60/3
f 61/61/5 62/62/5 63/63/5
f 61/61/5 63/63/5 64/64/5
f 65/65/4 66/66/4 67/67/4
f 65/65/4 67/67/4 68/68/4
f 69/69/3 70/70/3 71/71/3
f 69/69/3 71/71/3 72/72/3
f 73/73/4 74/74/4 75/75/4
f 73/73/4 75/75/4 76/76/4
f 77/77/2 78/78/2 79/79/2
f 77/77/2 79/79/2 80/80/2
f 81/81/1 82/82/1 83/83/1
f 81/81/1 83/83/1 84/84/1
f 85/85/2 86/86/2 87/87/2
f 85/85/2 87/87/2 88/88/2
f 89/89/6 90/90/6 91/91/6
f 89/89/6 91/91/6 92/92/6
f 93/93/1 94/94/1 95/95/1
f 93/93/1 95/95/1 96/96/1
f 101/101/7 99/99/7 100/100/7
f 99/99/7 101/101/7 102/102/7
f 99/99/7 102/102/7 98/98/7
f 98/98/7 102/102/7 97/97/7
f 107/107/7 105/105/7 106/106/7
f 105/105/7 107/107/7 108/108/7
f 105/105/7 108/108/7 104/104/7
f 104/104/7 108/108/7 103/103/7
f 110/110/7 114/114/7 109/109/7
f 114/114/7 110/110/7 111/111/7
f 114/114/7 111/111/7 113/113/7
f 113/113/7 111/111/7 112/112/7
f 116/116/7 120/120/7 115/115/7
f 120/120/7 116/116/7 117/117/7
f 120/120/7 117/117/7 119/119/7
f 119/119/7 117/117/7 118/118/7
