# Blender 3.5.0
# www.blender.org
mtllib CannonCylinder9.mtl
o Cylinder.009_Black.007_0
v 0.262657 1.196957 1.102992
v 0.262657 1.720788 1.102992
v 0.525315 1.720788 1.557927
v 0.525315 1.196958 1.557927
v 0.525315 1.196958 1.557927
v 0.525315 1.720788 1.557927
v 0.515365 1.720788 2.012863
v 0.515365 1.196958 2.012863
v 0.515365 1.196958 2.012863
v 0.515365 1.720788 2.012863
v -0.515365 1.720788 2.012863
v -0.515365 1.196958 2.012863
v -0.515365 1.196958 2.012863
v -0.515365 1.720788 2.012863
v -0.525314 1.720788 1.557928
v -0.525314 1.196958 1.557928
v -0.525314 1.196958 1.557928
v -0.525314 1.720788 1.557928
v -0.262657 1.720788 1.102992
v -0.262657 1.196957 1.102992
v 0.525315 1.720788 1.557927
v 0.262657 1.720788 1.102992
v 0.181878 1.720788 1.242905
v 0.363757 1.720788 1.557927
v -0.525314 1.720788 1.557928
v -0.515365 1.720788 2.012863
v -0.324830 1.720788 1.872950
v -0.363756 1.720788 1.557927
v 0.515365 1.720788 2.012863
v 0.525315 1.720788 1.557927
v 0.363757 1.720788 1.557927
v 0.324830 1.720788 1.872950
v -0.262657 1.720788 1.102992
v -0.525314 1.720788 1.557928
v -0.363756 1.720788 1.557927
v -0.181878 1.720788 1.242905
v 0.262657 1.720788 1.102992
v -0.262657 1.720788 1.102992
v -0.181878 1.720788 1.242905
v 0.181878 1.720788 1.242905
v -0.515365 1.720788 2.012863
v 0.515365 1.720788 2.012863
v 0.324830 1.720788 1.872950
v -0.324830 1.720788 1.872950
v -0.190929 1.339047 1.102992
v 0.190929 1.339047 1.102992
v 0.262657 1.196957 1.102992
v -0.262657 1.196957 1.102992
v -0.112367 1.658448 1.102992
v -0.190929 1.339047 1.102992
v -0.262657 1.196957 1.102992
v -0.262657 1.720788 1.102992
v 0.112368 1.658448 1.102992
v -0.112367 1.658448 1.102992
v -0.262657 1.720788 1.102992
v 0.262657 1.720788 1.102992
v 0.190929 1.339047 1.102992
v 0.112368 1.658448 1.102992
v 0.262657 1.720788 1.102992
v 0.262657 1.196957 1.102992
v 0.363757 1.720788 1.557927
v -0.363756 1.720788 1.557927
v -0.324830 1.720788 1.872950
v 0.324830 1.720788 1.872950
v 0.181878 1.720788 1.242905
v -0.181878 1.720788 1.242905
v -0.363756 1.720788 1.557927
v 0.363757 1.720788 1.557927
vn 0.8660 -0.0000 -0.5000
vn 0.9998 -0.0000 0.0219
vn -0.0000 -0.0000 1.0000
vn -0.9998 -0.0000 0.0219
vn -0.8660 -0.0000 -0.5000
vn -0.0000 1.0000 -0.0000
vn -0.0000 -0.0000 -1.0000
vt 0.833333 1.000000
vt 0.833333 0.000000
vt 0.666667 0.000000
vt 0.666667 1.000000
vt 0.666667 1.000000
vt 0.666667 0.000000
vt 0.500000 0.000000
vt 0.500000 1.000000
vt 0.500000 1.000000
vt 0.500000 0.000000
vt 0.333333 0.000000
vt 0.333333 1.000000
vt 0.333333 1.000000
vt 0.333333 0.000000
vt 0.166667 0.000000
vt 0.166667 1.000000
vt 0.166667 1.000000
vt 0.166667 0.000000
vt -0.000000 0.000000
vt -0.000000 1.000000
vt 0.666667 0.000000
vt 0.833333 0.000000
vt 0.833333 0.000000
vt 0.666667 0.000000
vt 0.166667 0.000000
vt 0.333333 0.000000
vt 0.333333 0.000000
vt 0.166667 0.000000
vt 0.500000 0.000000
vt 0.666667 0.000000
vt 0.666667 0.000000
vt 0.500000 0.000000
vt -0.000000 0.000000
vt 0.166667 0.000000
vt 0.166667 0.000000
vt -0.000000 0.000000
vt 0.833333 0.000000
vt 1.000000 0.000000
vt 1.000000 0.000000
vt 0.833333 0.000000
vt 0.333333 0.000000
vt 0.500000 0.000000
vt 0.500000 0.000000
vt 0.333333 0.000000
vt 0.977243 0.863070
vt 0.856091 0.863070
vt 0.833333 1.000000
vt 1.000000 1.000000
vt 0.977243 0.136930
vt 0.977243 0.863070
vt 1.000000 1.000000
vt 1.000000 0.000000
vt 0.856091 0.136930
vt 0.977243 0.136930
vt 1.000000 0.000000
vt 0.833333 0.000000
vt 0.856091 0.863070
vt 0.856091 0.136930
vt 0.833333 0.000000
vt 0.833333 1.000000
vt 0.666667 0.000000
vt 0.166667 0.000000
vt 0.333333 0.000000
vt 0.500000 0.000000
vt 0.833333 0.000000
vt -0.000000 0.000000
vt 0.166667 0.000000
vt 0.666667 0.000000
s 0
usemtl Black.007
f 1/1/1 2/2/1 3/3/1
f 1/1/1 3/3/1 4/4/1
f 5/5/2 6/6/2 7/7/2
f 5/5/2 7/7/2 8/8/2
f 9/9/3 10/10/3 11/11/3
f 9/9/3 11/11/3 12/12/3
f 13/13/4 14/14/4 15/15/4
f 13/13/4 15/15/4 16/16/4
f 17/17/5 18/18/5 19/19/5
f 17/17/5 19/19/5 20/20/5
f 21/21/6 22/22/6 23/23/6
f 21/21/6 23/23/6 24/24/6
f 25/25/6 26/26/6 27/27/6
f 25/25/6 27/27/6 28/28/6
f 29/29/6 30/30/6 31/31/6
f 29/29/6 31/31/6 32/32/6
f 33/33/6 34/34/6 35/35/6
f 33/33/6 35/35/6 36/36/6
f 37/37/6 38/38/6 39/39/6
f 37/37/6 39/39/6 40/40/6
f 41/41/6 42/42/6 43/43/6
f 41/41/6 43/43/6 44/44/6
f 45/45/7 46/46/7 47/47/7
f 45/45/7 47/47/7 48/48/7
f 49/49/7 50/50/7 51/51/7
f 49/49/7 51/51/7 52/52/7
f 53/53/7 54/54/7 55/55/7
f 53/53/7 55/55/7 56/56/7
f 57/57/7 58/58/7 59/59/7
f 57/57/7 59/59/7 60/60/7
f 61/61/6 62/62/6 63/63/6
f 61/61/6 63/63/6 64/64/6
f 65/65/6 66/66/6 67/67/6
f 65/65/6 67/67/6 68/68/6
