# Blender 3.5.0
# www.blender.org
mtllib BaseTop.mtl
o tank_base1
v -21.201941 3.367327 6.180638
v -21.201941 3.673039 4.180638
v -21.201941 2.150373 4.180638
v -21.375711 4.397804 4.180638
v -21.375711 4.397804 6.180638
v -21.201941 2.802934 8.065668
v -21.375711 3.668797 7.581242
v -21.201941 3.085131 6.933633
v -21.201941 1.674653 6.180638
v -21.375711 4.233190 6.933633
v -19.449741 3.673039 4.180638
v -19.449741 3.367327 6.180638
v -19.449741 4.005996 4.180638
v -19.449741 3.814759 6.180638
v -19.449741 3.085131 6.933633
v -19.449741 2.802934 7.686628
v -19.449741 3.021043 7.686628
v -19.449741 3.487751 6.933633
v -20.981899 3.673039 4.180638
v -20.981899 4.005996 4.180638
v -20.981899 3.021043 7.686628
v -20.981899 3.487751 6.933633
v -20.981899 3.367327 6.180638
v -20.981899 3.085131 6.933633
v -20.981899 2.802934 7.686628
v -20.981899 3.814759 6.180638
v -21.201941 3.673039 3.167134
v -21.375711 4.397804 3.167134
v -20.981899 3.673039 3.167134
v -20.981899 4.005996 3.167134
v -19.449741 4.005996 3.167134
v -19.449741 3.673039 3.167134
v -21.201941 1.674653 6.933633
v -21.201941 2.744936 3.167134
v -23.631392 3.367327 6.180638
v -23.631392 3.673039 4.180638
v -23.631392 2.150373 4.180638
v -22.416666 4.397804 4.180638
v -23.457621 4.397804 4.180638
v -23.457621 4.397804 6.180638
v -22.416666 4.397804 6.180638
v -23.631392 2.802934 8.065668
v -22.416666 2.802934 8.065668
v -23.457621 3.668797 7.581242
v -22.416666 3.668797 7.581242
v -23.631392 3.085131 6.933633
v -23.631392 1.674653 6.180638
v -23.457621 4.233190 6.933633
v -22.416666 4.233190 6.933633
v -25.383591 3.673039 4.180638
v -25.383591 3.367327 6.180638
v -25.383591 4.005996 4.180638
v -25.383591 3.814759 6.180638
v -25.383591 3.085131 6.933633
v -25.383591 2.802934 7.686628
v -25.383591 3.021043 7.686628
v -25.383591 3.487751 6.933633
v -23.851433 3.673039 4.180638
v -23.851433 4.005996 4.180638
v -23.851433 3.021043 7.686628
v -23.851433 3.487751 6.933633
v -23.851433 3.367327 6.180638
v -23.851433 3.085131 6.933633
v -23.851433 2.802934 7.686628
v -23.851433 3.814759 6.180638
v -22.416666 3.673039 3.167134
v -23.631392 3.673039 3.167134
v -22.416666 4.397804 3.167134
v -23.457621 4.397804 3.167134
v -23.851433 3.673039 3.167134
v -23.851433 4.005996 3.167134
v -25.383591 4.005996 3.167134
v -25.383591 3.673039 3.167134
v -23.631392 1.674653 6.933633
v -22.416666 2.744936 3.167134
v -23.631392 2.744936 3.167134
v -22.416666 2.150373 4.180638
v -22.416666 1.674653 6.180638
v -22.416666 1.674653 6.933633
v -21.201941 2.047465 8.247494
v -21.201941 1.628391 7.868425
v -23.631392 1.628391 7.868425
v -23.631392 2.047465 8.247494
v -22.416666 2.047465 8.247494
v -22.416666 1.628391 7.868425
v -22.416666 3.811291 1.664858
v -21.377256 3.811291 1.664858
v -22.416666 4.259553 1.664858
v -21.484734 4.259553 1.664858
v -20.981899 3.673039 1.664858
v -20.981899 4.005996 1.664858
v -19.449741 4.005996 2.259033
v -19.449741 3.673039 2.259033
v -23.456076 3.811291 1.664858
v -23.348598 4.259553 1.664858
v -23.851433 3.673039 1.664858
v -23.851433 4.005996 1.664858
v -25.383591 4.005996 2.259033
v -25.383591 3.673039 2.259033
v -22.416666 3.500967 1.772700
v -21.405014 3.500967 1.772700
v -22.416666 4.397804 1.664858
v -21.375711 4.397804 1.664858
v -23.428318 3.500967 1.772700
v -23.457621 4.397804 1.664858
v -22.416666 3.811291 1.835554
v -22.416666 4.259553 1.835554
v -21.377256 3.811291 1.835554
v -21.484734 4.259553 1.835554
v -23.456076 3.811291 1.835554
v -23.348598 4.259553 1.835554
v -21.405014 2.917009 2.138679
v -22.416666 2.917009 2.138679
v -23.428318 2.917009 2.138679
v -22.416666 3.673039 1.664858
v -21.201941 3.673039 1.664858
v -23.631392 3.673039 1.664858
v -22.416666 2.744936 2.246521
v -21.201941 2.744936 2.246521
v -23.631392 2.744936 2.246521
v -22.416666 3.500967 2.042619
v -22.416666 2.917009 2.408597
v -21.405014 3.500967 2.042619
v -23.428318 3.500967 2.042619
v -21.405014 2.917009 2.408597
v -23.428318 2.917009 2.408597
vn 0.7053 0.7089 -0.0000
vn 1.0000 -0.0000 -0.0000
vn -0.0000 1.0000 -0.0000
vn -0.0000 -0.9885 -0.1511
vn -0.0000 0.4883 0.8727
vn -0.0000 0.8500 0.5268
vn -0.0000 0.7539 0.6570
vn -0.0000 0.9769 0.2136
vn -0.0000 -1.0000 -0.0000
vn -0.0000 -0.9364 -0.3509
vn -0.0000 -0.0000 1.0000
vn -0.0000 0.9172 0.3983
vn -0.0000 0.9955 0.0952
vn 0.7775 0.6282 0.0300
vn 0.8485 0.5031 0.1642
vn 0.6837 0.3863 0.6192
vn -0.2398 -0.9300 -0.2785
vn 0.8025 0.4805 0.3537
vn -0.7053 0.7089 -0.0000
vn -1.0000 -0.0000 -0.0000
vn -0.0000 -0.9988 -0.0494
vn -0.0000 -0.0000 -1.0000
vn -0.0000 -0.8625 -0.5060
vn -0.7775 0.6282 0.0300
vn -0.8485 0.5031 0.1642
vn -0.6837 0.3863 0.6192
vn 0.2398 -0.9300 -0.2785
vn -0.8025 0.4805 0.3537
vn -0.0000 -0.9729 -0.2314
vn -0.0000 0.2340 0.9722
vn -0.0000 -0.6708 0.7416
vn 0.3616 -0.0000 -0.9323
vn 0.9724 -0.2332 -0.0000
vn -0.3616 -0.0000 -0.9323
vn -0.9724 -0.2332 -0.0000
vn -0.0000 0.5310 0.8473
vt 0.744003 0.374870
vt 0.682365 0.330184
vt 0.682129 0.327306
vt 0.744003 0.371982
vt 0.680015 0.327810
vt 0.700371 0.336652
vt 0.727781 0.352562
vt 0.669146 0.369421
vt 0.726595 0.352562
vt 0.669606 0.372238
vt 0.744003 0.377645
vt 0.682204 0.332988
vt 0.723407 0.352314
vt 0.724818 0.352562
vt 0.668902 0.374379
vt 0.744003 0.375990
vt 0.682222 0.331323
vt 0.680015 0.330744
vt 0.700371 0.339573
vt 0.725935 0.352562
vt 0.669548 0.373337
vt 0.746504 0.371982
vt 0.675432 0.312424
vt 0.675453 0.315312
vt 0.746504 0.374870
vt 0.675901 0.312349
vt 0.727272 0.349813
vt 0.676084 0.315211
vt 0.725838 0.349813
vt 0.675226 0.316437
vt 0.746504 0.375990
vt 0.674998 0.317562
vt 0.746504 0.377109
vt 0.723632 0.349813
vt 0.675305 0.317513
vt 0.723915 0.349813
vt 0.675793 0.316346
vt 0.724967 0.349813
vt 0.744317 0.371982
vt 0.668580 0.369506
vt 0.727272 0.352000
vt 0.723915 0.352000
vt 0.668001 0.374672
vt 0.724967 0.352000
vt 0.668484 0.373503
vt 0.744317 0.374870
vt 0.744317 0.375990
vt 0.723632 0.352000
vt 0.744317 0.377109
vt 0.725838 0.352000
vt 0.668771 0.372367
vt 0.681794 0.325899
vt 0.651768 0.298443
vt 0.744003 0.370549
vt 0.645899 0.300766
vt 0.728382 0.352562
vt 0.668912 0.367994
vt 0.744317 0.370549
vt 0.727873 0.352000
vt 0.668346 0.368078
vt 0.727873 0.349813
vt 0.675672 0.310921
vt 0.675203 0.310996
vt 0.746504 0.370549
vt 0.680264 0.331789
vt 0.700371 0.340638
vt 0.680506 0.326206
vt 0.650443 0.298443
vt 0.700371 0.335103
vt 0.647223 0.300766
vt 0.740535 0.374870
vt 0.713741 0.322777
vt 0.713505 0.325655
vt 0.740535 0.371982
vt 0.711391 0.325152
vt 0.696904 0.336652
vt 0.727781 0.354048
vt 0.727781 0.355534
vt 0.668710 0.322235
vt 0.726595 0.355534
vt 0.669171 0.319418
vt 0.726595 0.354048
vt 0.740535 0.377645
vt 0.713580 0.319973
vt 0.723407 0.355782
vt 0.723407 0.354048
vt 0.724818 0.355534
vt 0.668467 0.317277
vt 0.724818 0.354048
vt 0.740535 0.375990
vt 0.713598 0.321638
vt 0.711391 0.322218
vt 0.696904 0.339573
vt 0.725935 0.355534
vt 0.669113 0.318319
vt 0.725935 0.354048
vt 0.738034 0.371982
vt 0.722184 0.346538
vt 0.722205 0.343650
vt 0.738034 0.374870
vt 0.722653 0.346613
vt 0.727272 0.358283
vt 0.722836 0.343751
vt 0.725838 0.358283
vt 0.721978 0.342525
vt 0.738034 0.375990
vt 0.721750 0.341400
vt 0.738034 0.377109
vt 0.723632 0.358283
vt 0.722057 0.341449
vt 0.723915 0.358283
vt 0.722545 0.342616
vt 0.724967 0.358283
vt 0.740221 0.371982
vt 0.668147 0.322149
vt 0.727272 0.356096
vt 0.723915 0.356096
vt 0.667567 0.316984
vt 0.724967 0.356096
vt 0.668051 0.318152
vt 0.740221 0.374870
vt 0.740221 0.375990
vt 0.723632 0.356096
vt 0.740221 0.377109
vt 0.725838 0.356096
vt 0.668338 0.319288
vt 0.651768 0.296709
vt 0.742269 0.370549
vt 0.651768 0.294975
vt 0.740535 0.370549
vt 0.713171 0.327062
vt 0.728382 0.354048
vt 0.668477 0.323662
vt 0.728382 0.355534
vt 0.740221 0.370549
vt 0.667913 0.323577
vt 0.727873 0.356096
vt 0.722424 0.348041
vt 0.727873 0.358283
vt 0.738034 0.370549
vt 0.721955 0.347966
vt 0.711640 0.321172
vt 0.696904 0.340638
vt 0.650443 0.296709
vt 0.698638 0.335103
vt 0.650443 0.294975
vt 0.696904 0.335103
vt 0.711882 0.326756
vt 0.698638 0.336652
vt 0.698638 0.339573
vt 0.698638 0.340638
vt 0.681215 0.333491
vt 0.722318 0.352314
vt 0.700371 0.342423
vt 0.680508 0.333103
vt 0.700371 0.341968
vt 0.711885 0.319859
vt 0.696904 0.341968
vt 0.712591 0.319471
vt 0.722318 0.355782
vt 0.696904 0.342423
vt 0.722318 0.354048
vt 0.698638 0.342423
vt 0.698638 0.341968
vt 0.738524 0.353967
vt 0.915340 0.366576
vt 0.738524 0.355450
vt 0.665239 0.307631
vt 0.915340 0.368059
vt 0.739164 0.353967
vt 0.896115 0.318129
vt 0.739164 0.355297
vt 0.896115 0.319459
vt 0.665239 0.306995
vt 0.738327 0.356015
vt 0.744317 0.368425
vt 0.738802 0.356015
vt 0.728763 0.352000
vt 0.668001 0.365962
vt 0.738802 0.358202
vt 0.728411 0.349813
vt 0.675467 0.309641
vt 0.738327 0.358202
vt 0.674998 0.309716
vt 0.746504 0.369265
vt 0.915340 0.365092
vt 0.838052 0.321109
vt 0.738524 0.352483
vt 0.838052 0.320473
vt 0.739164 0.352637
vt 0.896115 0.316799
vt 0.738327 0.351919
vt 0.740221 0.368425
vt 0.667567 0.325693
vt 0.728763 0.356096
vt 0.738802 0.351919
vt 0.722219 0.349321
vt 0.728411 0.358283
vt 0.738802 0.349732
vt 0.738034 0.369265
vt 0.721750 0.349246
vt 0.738327 0.349732
vt 0.652199 0.358887
vt 0.701266 0.308751
vt 0.652199 0.360331
vt 0.729272 0.354048
vt 0.739361 0.353967
vt 0.729272 0.352562
vt 0.668566 0.365878
vt 0.739361 0.355453
vt 0.718556 0.315495
vt 0.652199 0.357443
vt 0.668131 0.325778
vt 0.729272 0.355534
vt 0.739361 0.352481
vt 0.821355 0.344690
vt 0.915441 0.366576
vt 0.821995 0.344690
vt 0.895873 0.318129
vt 0.821355 0.346173
vt 0.664995 0.307632
vt 0.915441 0.368059
vt 0.821995 0.346020
vt 0.895873 0.319459
vt 0.664995 0.306996
vt 0.915441 0.365092
vt 0.838296 0.321110
vt 0.821355 0.343206
vt 0.838296 0.320474
vt 0.821995 0.343359
vt 0.895873 0.316799
vt 0.665711 0.281422
vt 0.701266 0.309735
vt 0.653174 0.360331
vt 0.653174 0.358887
vt 0.665711 0.282866
vt 0.653174 0.357443
vt 0.718556 0.316479
vt 0.665711 0.284310
vt 0.742269 0.368425
vt 0.738327 0.353967
vt 0.651911 0.358887
vt 0.744003 0.368425
vt 0.738327 0.355701
vt 0.645899 0.298621
vt 0.651911 0.360620
vt 0.740535 0.368425
vt 0.738327 0.352233
vt 0.712675 0.329148
vt 0.651911 0.357153
vt 0.698638 0.333801
vt 0.653461 0.358887
vt 0.700371 0.333801
vt 0.647223 0.299452
vt 0.653461 0.360620
vt 0.696904 0.333801
vt 0.711578 0.328034
vt 0.653461 0.357153
vt 0.859103 0.361744
vt 0.652359 0.358887
vt 0.860078 0.361744
vt 0.666093 0.282866
vt 0.701592 0.308956
vt 0.859103 0.363188
vt 0.652359 0.360331
vt 0.859103 0.360300
vt 0.718229 0.315700
vt 0.652359 0.357443
vt 0.666093 0.281422
vt 0.701592 0.309939
vt 0.860078 0.363188
vt 0.860078 0.360300
vt 0.718229 0.316683
vt 0.666093 0.284310
s 0
usemtl Material.001
f 4/8/1 20/40/1 30/60/1 28/57/1
f 27/52/2 2/3/2 3/5/2 34/67/2
f 4/7/3 38/77/3 41/82/3 5/9/3
f 23/46/4 19/39/4 11/22/4 12/25/4
f 38/77/3 4/7/3 28/56/3 68/132/3
f 43/86/5 6/13/5 7/14/5 45/89/5
f 22/44/6 21/42/6 17/36/6 18/38/6
f 10/20/7 49/96/7 45/89/7 7/14/7
f 5/9/8 41/82/8 49/96/8 10/20/8
f 11/22/9 19/39/9 29/58/9 32/64/9
f 2/3/2 1/2/2 9/18/2 3/5/2
f 12/24/2 11/23/2 13/26/2 14/28/2
f 15/30/2 18/37/2 17/35/2 16/32/2
f 12/24/2 14/28/2 18/37/2 15/30/2
f 25/49/10 24/47/10 15/31/10 16/33/10
f 21/42/11 25/48/11 16/34/11 17/36/11
f 26/50/12 22/44/12 18/38/12 14/29/12
f 24/47/10 23/46/10 12/25/10 15/31/10
f 20/41/13 26/50/13 14/29/13 13/27/13
f 4/8/14 5/10/14 26/51/14 20/40/14
f 8/16/10 1/1/10 23/46/10 24/47/10
f 5/10/15 10/21/15 22/45/15 26/51/15
f 7/14/16 6/13/16 25/48/16 21/42/16
f 6/11/17 8/16/17 24/47/17 25/49/17
f 10/21/18 7/15/18 21/43/18 22/45/18
f 1/1/4 2/4/4 19/39/4 23/46/4
f 71/136/19 69/133/19 105/213/19 97/194/19
f 70/135/9 73/140/9 99/200/9 96/193/9
f 73/141/20 72/138/20 98/197/20 99/201/20
f 19/39/9 2/4/9 27/54/9 29/58/9
f 13/26/2 11/23/2 32/63/2 31/62/2
f 20/41/3 13/27/3 31/61/3 30/59/3
f 82/158/21 74/143/21 79/151/21 85/164/21
f 66/127/22 27/53/22 34/68/22 75/144/22
f 8/17/2 6/12/2 80/152/2 81/155/2 33/65/2
f 1/2/2 8/17/2 33/65/2 9/18/2
f 3/6/23 77/149/23 75/145/23 34/69/23
f 39/79/19 69/133/19 71/136/19 59/115/19
f 67/131/20 76/148/20 37/75/20 36/73/20
f 39/78/3 40/80/3 41/82/3 38/77/3
f 62/121/4 51/100/4 50/97/4 58/114/4
f 38/77/3 68/132/3 69/134/3 39/78/3
f 43/86/5 45/89/5 44/87/5 42/85/5
f 61/119/6 57/113/6 56/111/6 60/117/6
f 48/94/7 44/87/7 45/89/7 49/96/7
f 40/80/8 48/94/8 49/96/8 41/82/8
f 50/97/9 73/140/9 70/135/9 58/114/9
f 36/73/20 37/75/20 47/92/20 35/72/20
f 51/99/20 53/103/20 52/101/20 50/98/20
f 54/105/20 55/107/20 56/110/20 57/112/20
f 51/99/20 54/105/20 57/112/20 53/103/20
f 64/124/10 55/108/10 54/106/10 63/122/10
f 60/117/11 56/111/11 55/109/11 64/123/11
f 65/125/12 53/104/12 57/113/12 61/119/12
f 63/122/10 54/106/10 51/100/10 62/121/10
f 59/116/13 52/102/13 53/104/13 65/125/13
f 39/79/24 59/115/24 65/126/24 40/81/24
f 46/90/10 63/122/10 62/121/10 35/71/10
f 40/81/25 65/126/25 61/120/25 48/95/25
f 44/87/26 60/117/26 64/123/26 42/85/26
f 42/83/27 64/124/27 63/122/27 46/90/27
f 48/95/28 61/120/28 60/118/28 44/88/28
f 35/71/4 62/121/4 58/114/4 36/74/4
f 29/58/9 27/54/9 116/243/9 90/176/9
f 72/139/3 71/137/3 97/195/3 98/198/3
f 68/132/3 28/56/3 103/208/3 102/206/3
f 58/114/9 70/135/9 67/130/9 36/74/9
f 52/101/20 72/138/20 73/141/20 50/98/20
f 59/116/3 71/137/3 72/139/3 52/102/3
f 66/127/22 75/144/22 76/146/22 67/129/22
f 46/91/20 74/142/20 82/157/20 83/159/20 42/84/20
f 35/72/20 47/92/20 74/142/20 46/91/20
f 77/149/23 37/76/23 76/147/23 75/145/23
f 47/93/29 37/76/29 77/149/29 78/150/29
f 9/19/29 78/150/29 77/149/29 3/6/29
f 74/143/9 47/93/9 78/150/9 79/151/9
f 6/13/30 43/86/30 84/162/30 80/153/30
f 42/85/30 83/160/30 84/162/30 43/86/30
f 9/19/9 33/66/9 79/151/9 78/150/9
f 80/154/31 84/163/31 85/164/31 81/156/31
f 82/158/31 85/164/31 84/163/31 83/161/31
f 33/66/21 81/156/21 85/164/21 79/151/21
f 86/166/3 94/186/3 110/226/3 106/217/3
f 90/175/32 91/177/32 92/180/32 93/183/32
f 116/244/22 103/210/22 91/177/22 90/175/22
f 94/187/33 95/189/33 111/229/33 110/227/33
f 96/192/34 99/202/34 98/199/34 97/196/34
f 117/248/22 96/192/22 97/196/22 105/215/22
f 30/59/3 31/61/3 92/181/3 91/178/3
f 66/128/9 67/130/9 117/247/9 115/240/9
f 31/62/2 32/63/2 93/184/2 92/182/2
f 69/134/3 68/132/3 102/206/3 105/214/3
f 32/64/9 29/58/9 90/176/9 93/185/9
f 27/54/9 66/128/9 115/240/9 116/243/9
f 67/130/9 70/135/9 96/193/9 117/247/9
f 28/57/1 30/60/1 91/179/1 103/209/1
f 86/165/22 87/167/22 116/244/22 115/241/22
f 89/172/22 88/170/22 102/207/22 103/210/22
f 87/167/22 89/172/22 103/210/22 116/244/22
f 94/188/22 86/165/22 115/241/22 117/248/22
f 88/170/22 95/190/22 105/215/22 102/207/22
f 95/190/22 94/188/22 117/248/22 105/215/22
f 108/220/22 106/216/22 107/218/22 109/223/22
f 110/228/22 111/230/22 107/218/22 106/216/22
f 88/171/9 89/173/9 109/224/9 107/219/9
f 95/191/9 88/171/9 107/219/9 111/231/9
f 89/174/35 87/168/35 108/221/35 109/225/35
f 87/169/3 86/166/3 106/217/3 108/222/3
f 75/145/9 76/147/9 120/256/9 118/251/9
f 34/69/9 75/145/9 118/251/9 119/253/9
f 116/245/20 119/254/20 34/70/20 27/55/20
f 117/249/20 120/257/20 76/148/20 67/131/20
f 113/236/9 112/232/9 125/269/9 122/262/9
f 112/233/2 101/204/2 123/263/2 125/270/2
f 100/203/36 101/205/36 116/246/36 115/242/36
f 104/212/36 100/203/36 115/242/36 117/250/36
f 112/234/36 113/235/36 118/252/36 119/255/36
f 113/235/36 114/237/36 120/258/36 118/252/36
f 101/205/36 112/234/36 119/255/36 116/246/36
f 114/237/36 104/212/36 117/250/36 120/258/36
f 121/259/36 122/261/36 125/271/36 123/264/36
f 122/261/36 121/259/36 124/266/36 126/272/36
f 101/205/3 100/203/3 121/260/3 123/265/3
f 104/211/20 114/238/20 126/273/20 124/267/20
f 114/239/9 113/236/9 122/262/9 126/274/9
f 100/203/3 104/212/3 124/268/3 121/260/3
