# Blender 3.5.0
# www.blender.org
mtllib Cylinder.mtl
o Cylinder
v -21.032837 1.808022 2.485809
v -19.082951 1.808023 2.970923
v -21.032837 1.190724 2.608598
v -19.082951 1.376370 3.056784
v -21.032837 0.667405 2.958268
v -19.082951 1.010432 3.301295
v -21.032837 0.317734 3.481588
v -19.082951 0.765921 3.667233
v -21.032837 0.194946 4.098886
v -19.082951 0.680059 4.098886
v -21.032837 0.317734 4.716184
v -19.082951 0.765920 4.530539
v -21.032837 0.667405 5.239503
v -19.082951 1.010432 4.896477
v -21.032837 1.190724 5.589174
v -19.082951 1.376370 5.140988
v -21.032837 1.808022 5.711963
v -19.082951 1.808022 5.226850
v -21.032837 2.425320 5.589175
v -19.082951 2.239675 5.140988
v -21.032837 2.948640 5.239504
v -19.082951 2.605613 4.896477
v -21.032837 3.298311 4.716184
v -19.082951 2.850125 4.530539
v -21.032837 3.421099 4.098886
v -19.082951 2.935986 4.098886
v -21.032837 3.298311 3.481588
v -19.082951 2.850125 3.667233
v -21.032837 2.948639 2.958268
v -19.082951 2.605613 3.301295
v -21.032837 2.425319 2.608597
v -19.082951 2.239675 3.056783
v -19.082951 1.190725 2.608598
v -19.082951 1.808023 2.485809
v -19.082951 0.667405 2.958268
v -19.082951 0.317734 3.481588
v -19.082951 0.194946 4.098886
v -19.082951 0.317734 4.716184
v -19.082951 0.667405 5.239503
v -19.082951 1.190725 5.589174
v -19.082951 1.808022 5.711963
v -19.082951 2.425320 5.589175
v -19.082951 2.948640 5.239504
v -19.082951 3.298311 4.716184
v -19.082951 3.421099 4.098886
v -19.082951 3.298311 3.481588
v -19.082951 2.948640 2.958268
v -19.082951 2.425320 2.608597
v -19.343063 1.416051 3.152582
v -19.343063 1.808023 3.074614
v -19.343063 1.083753 3.374616
v -19.343063 0.861719 3.706914
v -19.343063 0.783751 4.098886
v -19.343063 0.861719 4.490858
v -19.343063 1.083753 4.823156
v -19.343063 1.416051 5.045190
v -19.343063 1.808023 5.123158
v -19.343063 2.199994 5.045190
v -19.343063 2.532292 4.823156
v -19.343063 2.754327 4.490858
v -19.343063 2.832295 4.098886
v -19.343063 2.754326 3.706914
v -19.343063 2.532292 3.374616
v -19.343063 2.199994 3.152582
v -23.800495 1.808023 2.485809
v -25.750381 1.808023 2.970923
v -23.800495 1.190725 2.608598
v -25.750381 1.376370 3.056784
v -23.800495 0.667405 2.958268
v -25.750381 1.010432 3.301295
v -23.800495 0.317734 3.481588
v -25.750381 0.765921 3.667233
v -23.800495 0.194946 4.098886
v -25.750381 0.680059 4.098886
v -23.800495 0.317734 4.716184
v -25.750381 0.765921 4.530539
v -23.800495 0.667405 5.239503
v -25.750381 1.010432 4.896477
v -23.800495 1.190725 5.589174
v -25.750381 1.376370 5.140988
v -23.800495 1.808022 5.711963
v -25.750381 1.808023 5.226850
v -23.800495 2.425320 5.589175
v -25.750381 2.239676 5.140988
v -23.800495 2.948640 5.239504
v -25.750381 2.605613 4.896477
v -23.800495 3.298311 4.716184
v -25.750381 2.850125 4.530539
v -23.800495 3.421099 4.098886
v -25.750381 2.935986 4.098886
v -23.800495 3.298311 3.481588
v -25.750381 2.850125 3.667233
v -23.800495 2.948640 2.958268
v -25.750381 2.605613 3.301295
v -23.800495 2.425320 2.608597
v -25.750381 2.239675 3.056783
v -25.750381 1.190725 2.608598
v -25.750381 1.808023 2.485809
v -25.750381 0.667405 2.958268
v -25.750381 0.317734 3.481588
v -25.750381 0.194946 4.098886
v -25.750381 0.317734 4.716184
v -25.750381 0.667405 5.239503
v -25.750381 1.190725 5.589174
v -25.750381 1.808023 5.711963
v -25.750381 2.425320 5.589175
v -25.750381 2.948640 5.239504
v -25.750381 3.298311 4.716184
v -25.750381 3.421099 4.098886
v -25.750381 3.298311 3.481588
v -25.750381 2.948640 2.958268
v -25.750381 2.425320 2.608597
v -25.490269 1.416051 3.152582
v -25.490269 1.808023 3.074614
v -25.490269 1.083753 3.374616
v -25.490269 0.861719 3.706914
v -25.490269 0.783751 4.098886
v -25.490269 0.861719 4.490858
v -25.490269 1.083753 4.823156
v -25.490269 1.416051 5.045190
v -25.490269 1.808023 5.123158
v -25.490269 2.199995 5.045190
v -25.490269 2.532292 4.823156
v -25.490269 2.754327 4.490858
v -25.490269 2.832295 4.098886
v -25.490269 2.754327 3.706914
v -25.490269 2.532292 3.374616
v -25.490269 2.199994 3.152582
vn -0.0000 -0.1951 -0.9808
vn -0.0000 -0.5556 -0.8315
vn -0.0000 -0.8315 -0.5556
vn -0.0000 -0.9808 -0.1951
vn -0.0000 -0.9808 0.1951
vn -0.0000 -0.8315 0.5556
vn -0.0000 -0.5556 0.8315
vn -0.0000 -0.1951 0.9808
vn -0.0000 0.1951 0.9808
vn -0.0000 0.5556 0.8315
vn -0.0000 0.8315 0.5556
vn -0.0000 0.9808 0.1951
vn -0.0000 0.9808 -0.1951
vn -0.0000 0.8315 -0.5556
vn 0.3641 0.9134 0.1817
vn -0.0000 0.5556 -0.8315
vn -0.0000 0.1951 -0.9808
vn -1.0000 -0.0000 -0.0000
vn 1.0000 -0.0000 -0.0000
vn 0.3641 -0.9134 -0.1817
vn 0.3641 0.9134 -0.1817
vn 0.3641 -0.9134 0.1817
vn 0.3641 0.7744 -0.5174
vn 0.3641 -0.7744 0.5174
vn 0.3641 0.5174 -0.7744
vn 0.3641 -0.5174 0.7744
vn 0.3641 0.1817 -0.9134
vn 0.3641 0.1817 0.9134
vn 0.3641 -0.1817 0.9134
vn 0.3641 -0.1817 -0.9134
vn 0.3641 0.5174 0.7744
vn 0.3641 -0.5174 -0.7744
vn 0.3641 0.7744 0.5174
vn 0.3641 -0.7744 -0.5174
vn -0.3641 0.9134 0.1817
vn -0.3641 -0.9134 -0.1817
vn -0.3641 0.9134 -0.1817
vn -0.3641 -0.9134 0.1817
vn -0.3641 0.7744 -0.5174
vn -0.3641 -0.7744 0.5174
vn -0.3641 0.5174 -0.7744
vn -0.3641 -0.5174 0.7744
vn -0.3641 0.1817 -0.9134
vn -0.3641 0.1817 0.9134
vn -0.3641 -0.1817 0.9134
vn -0.3641 -0.1817 -0.9134
vn -0.3641 0.5174 0.7744
vn -0.3641 -0.5174 -0.7744
vn -0.3641 0.7744 0.5174
vn -0.3641 -0.7744 -0.5174
vt 0.829906 0.315891
vt 0.853840 0.351136
vt 0.893377 0.311390
vt 0.818448 0.727009
vt 0.829973 0.316721
vt 0.853496 0.351966
vt 0.893821 0.310946
vt 0.818424 0.726381
vt 0.830097 0.317357
vt 0.828128 0.283906
vt 0.852861 0.352601
vt 0.894061 0.310365
vt 0.818355 0.725803
vt 0.818449 0.711401
vt 0.828061 0.284736
vt 0.852031 0.352945
vt 0.894061 0.309737
vt 0.818518 0.710823
vt 0.828061 0.285635
vt 0.851133 0.352945
vt 0.893821 0.309157
vt 0.818542 0.710195
vt 0.828128 0.286465
vt 0.850303 0.352601
vt 0.893377 0.308712
vt 0.818518 0.709613
vt 0.828252 0.287100
vt 0.826164 0.357277
vt 0.849668 0.351966
vt 0.892796 0.308472
vt 0.818449 0.709166
vt 0.818477 0.738072
vt 0.826040 0.357913
vt 0.849324 0.351136
vt 0.892168 0.308472
vt 0.818547 0.737494
vt 0.825973 0.358743
vt 0.849324 0.350237
vt 0.891588 0.308712
vt 0.818571 0.736867
vt 0.825973 0.359641
vt 0.849668 0.349407
vt 0.891143 0.309157
vt 0.818547 0.736285
vt 0.826040 0.360471
vt 0.828900 0.369200
vt 0.850303 0.348772
vt 0.890903 0.309737
vt 0.818477 0.735838
vt 0.818407 0.661314
vt 0.829729 0.369267
vt 0.851133 0.348428
vt 0.890903 0.310365
vt 0.818476 0.660736
vt 0.830628 0.369267
vt 0.852031 0.348428
vt 0.891143 0.310946
vt 0.818501 0.660108
vt 0.831458 0.369200
vt 0.830097 0.313528
vt 0.852861 0.348772
vt 0.891588 0.311390
vt 0.818476 0.659526
vt 0.829973 0.314163
vt 0.853496 0.349407
vt 0.892168 0.311630
vt 0.818407 0.659079
vt 0.818355 0.728038
vt 0.829906 0.314993
vt 0.853840 0.350237
vt 0.892796 0.311630
vt 0.818424 0.727590
vt 0.832703 0.316721
vt 0.894396 0.311330
vt 0.832636 0.315891
vt 0.893761 0.311966
vt 0.832827 0.317357
vt 0.830858 0.283906
vt 0.894740 0.310500
vt 0.830791 0.284736
vt 0.894740 0.309602
vt 0.830791 0.285635
vt 0.894396 0.308772
vt 0.830858 0.286465
vt 0.893761 0.308137
vt 0.830981 0.287100
vt 0.828894 0.357277
vt 0.892931 0.307793
vt 0.828770 0.357913
vt 0.892033 0.307793
vt 0.828703 0.358743
vt 0.891203 0.308137
vt 0.828703 0.359641
vt 0.890568 0.308772
vt 0.828770 0.360471
vt 0.828900 0.366470
vt 0.890224 0.309602
vt 0.829729 0.366537
vt 0.890224 0.310500
vt 0.830628 0.366537
vt 0.890568 0.311330
vt 0.831458 0.366470
vt 0.832827 0.313528
vt 0.891203 0.311966
vt 0.832703 0.314163
vt 0.892033 0.312309
vt 0.832636 0.314993
vt 0.892931 0.312309
vt 0.892078 0.725198
vt 0.818033 0.726425
vt 0.892297 0.725725
vt 0.818055 0.726995
vt 0.891675 0.724795
vt 0.817970 0.725900
vt 0.818064 0.711303
vt 0.891148 0.724577
vt 0.818127 0.710778
vt 0.890578 0.724577
vt 0.818149 0.710209
vt 0.890050 0.724795
vt 0.818127 0.709680
vt 0.889647 0.725198
vt 0.818064 0.709274
vt 0.818093 0.737975
vt 0.889429 0.725725
vt 0.818156 0.737450
vt 0.889429 0.726296
vt 0.818178 0.736880
vt 0.889647 0.726823
vt 0.818156 0.736352
vt 0.890050 0.727226
vt 0.818093 0.735946
vt 0.818022 0.661217
vt 0.890578 0.727444
vt 0.818085 0.660692
vt 0.891148 0.727444
vt 0.818107 0.660122
vt 0.891675 0.727226
vt 0.818085 0.659593
vt 0.892078 0.726823
vt 0.818022 0.659187
vt 0.817970 0.727929
vt 0.892297 0.726296
vt 0.818033 0.727523
vt 0.829906 0.315891
vt 0.853840 0.351136
vt 0.893377 0.311390
vt 0.818448 0.727009
vt 0.829973 0.316721
vt 0.853496 0.351966
vt 0.893821 0.310946
vt 0.818424 0.726381
vt 0.830097 0.317357
vt 0.828128 0.283906
vt 0.852861 0.352601
vt 0.894061 0.310365
vt 0.818355 0.725803
vt 0.818449 0.711401
vt 0.828061 0.284736
vt 0.852031 0.352945
vt 0.894061 0.309737
vt 0.818518 0.710823
vt 0.828061 0.285635
vt 0.851133 0.352945
vt 0.893821 0.309157
vt 0.818542 0.710195
vt 0.828128 0.286465
vt 0.850303 0.352601
vt 0.893377 0.308712
vt 0.818518 0.709613
vt 0.828252 0.287100
vt 0.826164 0.357277
vt 0.849668 0.351966
vt 0.892796 0.308472
vt 0.818449 0.709166
vt 0.818477 0.738072
vt 0.826040 0.357913
vt 0.849324 0.351136
vt 0.892168 0.308472
vt 0.818547 0.737494
vt 0.825973 0.358743
vt 0.849324 0.350237
vt 0.891588 0.308712
vt 0.818571 0.736867
vt 0.825973 0.359641
vt 0.849668 0.349407
vt 0.891143 0.309157
vt 0.818547 0.736285
vt 0.826040 0.360471
vt 0.828900 0.369200
vt 0.850303 0.348772
vt 0.890903 0.309737
vt 0.818477 0.735838
vt 0.818407 0.661314
vt 0.829729 0.369267
vt 0.851133 0.348428
vt 0.890903 0.310365
vt 0.818476 0.660736
vt 0.830628 0.369267
vt 0.852031 0.348428
vt 0.891143 0.310946
vt 0.818501 0.660108
vt 0.831458 0.369200
vt 0.830097 0.313528
vt 0.852861 0.348772
vt 0.891588 0.311390
vt 0.818476 0.659526
vt 0.829973 0.314163
vt 0.853496 0.349407
vt 0.892168 0.311630
vt 0.818407 0.659079
vt 0.818355 0.728038
vt 0.829906 0.314993
vt 0.853840 0.350237
vt 0.892796 0.311630
vt 0.818424 0.727590
vt 0.832703 0.316721
vt 0.894396 0.311330
vt 0.832636 0.315891
vt 0.893761 0.311966
vt 0.832827 0.317357
vt 0.830858 0.283906
vt 0.894740 0.310500
vt 0.830791 0.284736
vt 0.894740 0.309602
vt 0.830791 0.285635
vt 0.894396 0.308772
vt 0.830858 0.286465
vt 0.893761 0.308137
vt 0.830981 0.287100
vt 0.828894 0.357277
vt 0.892931 0.307793
vt 0.828770 0.357913
vt 0.892033 0.307793
vt 0.828703 0.358743
vt 0.891203 0.308137
vt 0.828703 0.359641
vt 0.890568 0.308772
vt 0.828770 0.360471
vt 0.828900 0.366470
vt 0.890224 0.309602
vt 0.829729 0.366537
vt 0.890224 0.310500
vt 0.830628 0.366537
vt 0.890568 0.311330
vt 0.831458 0.366470
vt 0.832827 0.313528
vt 0.891203 0.311966
vt 0.832703 0.314163
vt 0.892033 0.312309
vt 0.832636 0.314993
vt 0.892931 0.312309
vt 0.892078 0.725198
vt 0.818033 0.726425
vt 0.892297 0.725725
vt 0.818055 0.726995
vt 0.891675 0.724795
vt 0.817970 0.725900
vt 0.818064 0.711303
vt 0.891148 0.724577
vt 0.818127 0.710778
vt 0.890578 0.724577
vt 0.818149 0.710209
vt 0.890050 0.724795
vt 0.818127 0.709680
vt 0.889647 0.725198
vt 0.818064 0.709274
vt 0.818093 0.737975
vt 0.889429 0.725725
vt 0.818156 0.737450
vt 0.889429 0.726296
vt 0.818178 0.736880
vt 0.889647 0.726823
vt 0.818156 0.736352
vt 0.890050 0.727226
vt 0.818093 0.735946
vt 0.818022 0.661217
vt 0.890578 0.727444
vt 0.818085 0.660692
vt 0.891148 0.727444
vt 0.818107 0.660122
vt 0.891675 0.727226
vt 0.818085 0.659593
vt 0.892078 0.726823
vt 0.818022 0.659187
vt 0.817970 0.727929
vt 0.892297 0.726296
vt 0.818033 0.727523
s 0
usemtl Material.001
f 1/1/1 34/75/1 33/73/1 3/5/1
f 3/5/2 33/73/2 35/77/2 5/9/2
f 5/10/3 35/78/3 36/80/3 7/15/3
f 7/15/4 36/80/4 37/82/4 9/19/4
f 9/19/5 37/82/5 38/84/5 11/23/5
f 11/23/6 38/84/6 39/86/6 13/27/6
f 13/28/7 39/87/7 40/89/7 15/33/7
f 15/33/8 40/89/8 41/91/8 17/37/8
f 17/37/9 41/91/9 42/93/9 19/41/9
f 19/41/10 42/93/10 43/95/10 21/45/10
f 21/46/11 43/96/11 44/98/11 23/51/11
f 23/51/12 44/98/12 45/100/12 25/55/12
f 25/55/13 45/100/13 46/102/13 27/59/13
f 27/60/14 46/103/14 47/105/14 29/64/14
f 10/22/15 8/18/15 52/117/15 53/119/15
f 29/64/16 47/105/16 48/107/16 31/69/16
f 31/69/17 48/107/17 34/75/17 1/1/17
f 1/2/18 3/6/18 5/11/18 7/16/18 9/20/18 11/24/18 13/29/18 15/34/18 17/38/18 19/42/18 21/47/18 23/52/18 25/56/18 27/61/18 29/65/18 31/70/18
f 2/3/19 4/7/19 33/74/19 34/76/19
f 4/7/19 6/12/19 35/79/19 33/74/19
f 6/12/19 8/17/19 36/81/19 35/79/19
f 8/17/19 10/21/19 37/83/19 36/81/19
f 10/21/19 12/25/19 38/85/19 37/83/19
f 12/25/19 14/30/19 39/88/19 38/85/19
f 14/30/19 16/35/19 40/90/19 39/88/19
f 16/35/19 18/39/19 41/92/19 40/90/19
f 18/39/19 20/43/19 42/94/19 41/92/19
f 20/43/19 22/48/19 43/97/19 42/94/19
f 22/48/19 24/53/19 44/99/19 43/97/19
f 24/53/19 26/57/19 45/101/19 44/99/19
f 26/57/19 28/62/19 46/104/19 45/101/19
f 28/62/19 30/66/19 47/106/19 46/104/19
f 30/66/19 32/71/19 48/108/19 47/106/19
f 32/71/19 2/3/19 34/76/19 48/108/19
f 49/109/19 50/111/19 64/143/19 63/140/19 62/138/19 61/136/19 60/134/19 59/131/19 58/129/19 57/127/19 56/125/19 55/122/19 54/120/19 53/118/19 52/116/19 51/113/19
f 26/58/20 24/54/20 60/135/20 61/137/20
f 12/26/21 10/22/21 53/119/21 54/121/21
f 28/63/22 26/58/22 61/137/22 62/139/22
f 14/31/23 12/26/23 54/121/23 55/123/23
f 30/67/24 28/63/24 62/139/24 63/141/24
f 16/36/25 14/32/25 55/124/25 56/126/25
f 32/72/26 30/68/26 63/142/26 64/144/26
f 18/40/27 16/36/27 56/126/27 57/128/27
f 4/8/28 2/4/28 50/112/28 49/110/28
f 2/4/29 32/72/29 64/144/29 50/112/29
f 20/44/30 18/40/30 57/128/30 58/130/30
f 6/13/31 4/8/31 49/110/31 51/114/31
f 22/49/32 20/44/32 58/130/32 59/132/32
f 8/18/33 6/14/33 51/115/33 52/117/33
f 24/54/34 22/50/34 59/133/34 60/135/34
f 65/145/1 67/149/1 97/217/1 98/219/1
f 67/149/2 69/153/2 99/221/2 97/217/2
f 69/154/3 71/159/3 100/224/3 99/222/3
f 71/159/4 73/163/4 101/226/4 100/224/4
f 73/163/5 75/167/5 102/228/5 101/226/5
f 75/167/6 77/171/6 103/230/6 102/228/6
f 77/172/7 79/177/7 104/233/7 103/231/7
f 79/177/8 81/181/8 105/235/8 104/233/8
f 81/181/9 83/185/9 106/237/9 105/235/9
f 83/185/10 85/189/10 107/239/10 106/237/10
f 85/190/11 87/195/11 108/242/11 107/240/11
f 87/195/12 89/199/12 109/244/12 108/242/12
f 89/199/13 91/203/13 110/246/13 109/244/13
f 91/204/14 93/208/14 111/249/14 110/247/14
f 74/166/35 117/263/35 116/261/35 72/162/35
f 93/208/16 95/213/16 112/251/16 111/249/16
f 95/213/17 65/145/17 98/219/17 112/251/17
f 65/146/19 95/214/19 93/209/19 91/205/19 89/200/19 87/196/19 85/191/19 83/186/19 81/182/19 79/178/19 77/173/19 75/168/19 73/164/19 71/160/19 69/155/19 67/150/19
f 66/147/18 98/220/18 97/218/18 68/151/18
f 68/151/18 97/218/18 99/223/18 70/156/18
f 70/156/18 99/223/18 100/225/18 72/161/18
f 72/161/18 100/225/18 101/227/18 74/165/18
f 74/165/18 101/227/18 102/229/18 76/169/18
f 76/169/18 102/229/18 103/232/18 78/174/18
f 78/174/18 103/232/18 104/234/18 80/179/18
f 80/179/18 104/234/18 105/236/18 82/183/18
f 82/183/18 105/236/18 106/238/18 84/187/18
f 84/187/18 106/238/18 107/241/18 86/192/18
f 86/192/18 107/241/18 108/243/18 88/197/18
f 88/197/18 108/243/18 109/245/18 90/201/18
f 90/201/18 109/245/18 110/248/18 92/206/18
f 92/206/18 110/248/18 111/250/18 94/210/18
f 94/210/18 111/250/18 112/252/18 96/215/18
f 96/215/18 112/252/18 98/220/18 66/147/18
f 113/253/18 115/257/18 116/260/18 117/262/18 118/264/18 119/266/18 120/269/18 121/271/18 122/273/18 123/275/18 124/278/18 125/280/18 126/282/18 127/284/18 128/287/18 114/255/18
f 90/202/36 125/281/36 124/279/36 88/198/36
f 76/170/37 118/265/37 117/263/37 74/166/37
f 92/207/38 126/283/38 125/281/38 90/202/38
f 78/175/39 119/267/39 118/265/39 76/170/39
f 94/211/40 127/285/40 126/283/40 92/207/40
f 80/180/41 120/270/41 119/268/41 78/176/41
f 96/216/42 128/288/42 127/286/42 94/212/42
f 82/184/43 121/272/43 120/270/43 80/180/43
f 68/152/44 113/254/44 114/256/44 66/148/44
f 66/148/45 114/256/45 128/288/45 96/216/45
f 84/188/46 122/274/46 121/272/46 82/184/46
f 70/157/47 115/258/47 113/254/47 68/152/47
f 86/193/48 123/276/48 122/274/48 84/188/48
f 72/162/49 116/261/49 115/259/49 70/158/49
f 88/198/50 124/279/50 123/277/50 86/194/50
