# Blender 3.5.0
# www.blender.org
mtllib Cylinder2.mtl
o Cylinder.002
v -20.996174 1.166819 7.946264
v -19.091463 1.166819 8.196356
v -20.996174 0.944970 7.990393
v -19.091463 1.040676 8.221447
v -20.996174 0.756895 8.116060
v -19.091463 0.933737 8.292901
v -20.996174 0.631228 8.304134
v -19.091463 0.862283 8.399840
v -20.996174 0.587100 8.525983
v -19.091463 0.837191 8.525983
v -20.996174 0.631228 8.747832
v -19.091463 0.862283 8.652126
v -20.996174 0.756895 8.935906
v -19.091463 0.933737 8.759066
v -20.996174 0.944970 9.061574
v -19.091463 1.040676 8.830520
v -20.996174 1.166819 9.105702
v -19.091463 1.166819 8.855611
v -20.996174 1.388667 9.061574
v -19.091463 1.292962 8.830520
v -20.996174 1.576742 8.935906
v -19.091463 1.399901 8.759066
v -20.996174 1.702409 8.747832
v -19.091463 1.471355 8.652126
v -20.996174 1.746538 8.525983
v -19.091463 1.496446 8.525983
v -20.996174 1.702409 8.304134
v -19.091463 1.471355 8.399840
v -20.996174 1.576742 8.116060
v -19.091463 1.399901 8.292901
v -20.996174 1.388667 7.990393
v -19.091463 1.292962 8.221447
v -19.091463 0.944970 7.990393
v -19.091463 1.166819 7.946264
v -19.091463 0.756895 8.116060
v -19.091463 0.631228 8.304134
v -19.091463 0.587100 8.525983
v -19.091463 0.631228 8.747832
v -19.091463 0.756895 8.935906
v -19.091463 0.944970 9.061574
v -19.091463 1.166819 9.105702
v -19.091463 1.388667 9.061574
v -19.091463 1.576742 8.935906
v -19.091463 1.702409 8.747832
v -19.091463 1.746538 8.525983
v -19.091463 1.702409 8.304134
v -19.091463 1.576742 8.116060
v -19.091463 1.388667 7.990393
v -19.189825 1.083107 8.323885
v -19.189825 1.166819 8.307234
v -19.189825 1.012140 8.371304
v -19.189825 0.964721 8.442271
v -19.189825 0.948069 8.525983
v -19.189825 0.964721 8.609694
v -19.189825 1.012140 8.680662
v -19.189825 1.083107 8.728081
v -19.189825 1.166819 8.744733
v -19.189825 1.250530 8.728081
v -19.189825 1.321498 8.680662
v -19.189825 1.368917 8.609695
v -19.189825 1.385568 8.525983
v -19.189825 1.368917 8.442271
v -19.189825 1.321498 8.371304
v -19.189825 1.250530 8.323885
v -23.837156 1.166818 7.946265
v -25.741867 1.166819 8.196356
v -23.837156 0.944970 7.990393
v -25.741867 1.040676 8.221447
v -23.837156 0.756895 8.116060
v -25.741867 0.933737 8.292902
v -23.837156 0.631228 8.304134
v -25.741867 0.862282 8.399840
v -23.837156 0.587100 8.525984
v -25.741867 0.837191 8.525984
v -23.837156 0.631228 8.747832
v -25.741867 0.862282 8.652126
v -23.837156 0.756895 8.935907
v -25.741867 0.933737 8.759066
v -23.837156 0.944970 9.061574
v -25.741867 1.040676 8.830520
v -23.837156 1.166818 9.105702
v -25.741867 1.166819 8.855612
v -23.837156 1.388667 9.061574
v -25.741867 1.292962 8.830520
v -23.837156 1.576742 8.935907
v -25.741867 1.399901 8.759066
v -23.837156 1.702409 8.747832
v -25.741867 1.471355 8.652126
v -23.837156 1.746538 8.525984
v -25.741867 1.496446 8.525984
v -23.837156 1.702409 8.304134
v -25.741867 1.471355 8.399840
v -23.837156 1.576742 8.116060
v -25.741867 1.399900 8.292902
v -23.837156 1.388667 7.990393
v -25.741867 1.292961 8.221447
v -25.741867 0.944970 7.990393
v -25.741867 1.166819 7.946265
v -25.741867 0.756895 8.116060
v -25.741867 0.631228 8.304134
v -25.741867 0.587100 8.525984
v -25.741867 0.631228 8.747832
v -25.741867 0.756895 8.935907
v -25.741867 0.944970 9.061574
v -25.741867 1.166818 9.105702
v -25.741867 1.388667 9.061574
v -25.741867 1.576742 8.935907
v -25.741867 1.702409 8.747832
v -25.741867 1.746538 8.525984
v -25.741867 1.702409 8.304134
v -25.741867 1.576742 8.116060
v -25.741867 1.388667 7.990393
v -25.643507 1.083107 8.323886
v -25.643507 1.166819 8.307234
v -25.643507 1.012139 8.371305
v -25.643507 0.964721 8.442272
v -25.643507 0.948069 8.525984
v -25.643507 0.964721 8.609695
v -25.643507 1.012139 8.680663
v -25.643507 1.083107 8.728082
v -25.643507 1.166819 8.744733
v -25.643507 1.250530 8.728082
v -25.643507 1.321498 8.680663
v -25.643507 1.368917 8.609695
v -25.643507 1.385568 8.525984
v -25.643507 1.368917 8.442272
v -25.643507 1.321498 8.371305
v -25.643507 1.250530 8.323886
vn -0.0000 -0.1951 -0.9808
vn -0.0000 -0.5556 -0.8315
vn -0.0000 -0.8315 -0.5556
vn -0.0000 -0.9808 -0.1951
vn -0.0000 -0.9808 0.1951
vn -0.0000 -0.8315 0.5556
vn -0.0000 -0.5556 0.8315
vn -0.0000 -0.1951 0.9808
vn -0.0000 0.1951 0.9808
vn -0.0000 0.5556 0.8315
vn -0.0000 0.8315 0.5556
vn -0.0000 0.9808 0.1951
vn -0.0000 0.9808 -0.1951
vn -0.0000 0.8315 -0.5556
vn 0.7416 0.5578 -0.3727
vn -0.0000 0.5556 -0.8315
vn -0.0000 0.1951 -0.9808
vn -1.0000 -0.0000 -0.0000
vn 1.0000 -0.0000 -0.0000
vn 0.7416 -0.5578 0.3727
vn 0.7416 0.3727 -0.5578
vn 0.7416 -0.3727 0.5578
vn 0.7416 0.1309 -0.6579
vn 0.7416 0.1309 0.6579
vn 0.7416 -0.1309 0.6579
vn 0.7416 -0.1309 -0.6579
vn 0.7416 0.3727 0.5578
vn 0.7416 -0.3727 -0.5578
vn 0.7416 0.5578 0.3727
vn 0.7416 -0.5578 -0.3727
vn 0.7416 0.6579 0.1309
vn 0.7416 -0.6579 -0.1309
vn 0.7416 0.6579 -0.1309
vn 0.7416 -0.6579 0.1309
vn -0.7416 0.5578 -0.3727
vn -0.7416 -0.5578 0.3727
vn -0.7416 0.3727 -0.5578
vn -0.7416 -0.3727 0.5578
vn -0.7416 0.1309 -0.6579
vn -0.7416 0.1309 0.6579
vn -0.7416 -0.1309 0.6579
vn -0.7416 -0.1309 -0.6579
vn -0.7416 0.3727 0.5578
vn -0.7416 -0.3727 -0.5578
vn -0.7416 0.5578 0.3727
vn -0.7416 -0.5577 -0.3727
vn -0.7416 0.6579 0.1309
vn -0.7416 -0.6579 -0.1309
vn -0.7416 0.6579 -0.1309
vn -0.7416 -0.6579 0.1309
vt 0.829894 0.340586
vt 0.829809 0.367179
vt 0.895373 0.287085
vt 0.839431 0.721343
vt 0.830192 0.340586
vt 0.829486 0.367179
vt 0.895503 0.287214
vt 0.839561 0.721473
vt 0.830420 0.340586
vt 0.826659 0.358434
vt 0.829187 0.367055
vt 0.895673 0.287285
vt 0.839730 0.721543
vt 0.826957 0.358434
vt 0.828959 0.366827
vt 0.895856 0.287285
vt 0.839914 0.721543
vt 0.827280 0.358434
vt 0.828836 0.366529
vt 0.896026 0.287214
vt 0.840083 0.721473
vt 0.827578 0.358434
vt 0.828836 0.366206
vt 0.896156 0.287085
vt 0.840213 0.721343
vt 0.827807 0.358434
vt 0.827811 0.359639
vt 0.828959 0.365908
vt 0.896226 0.286915
vt 0.840283 0.721173
vt 0.827583 0.359639
vt 0.829187 0.365679
vt 0.896226 0.286731
vt 0.840283 0.720990
vt 0.827284 0.359639
vt 0.829486 0.365556
vt 0.896156 0.286562
vt 0.840213 0.720820
vt 0.826962 0.359639
vt 0.829809 0.365556
vt 0.896026 0.286432
vt 0.840083 0.720690
vt 0.826663 0.359639
vt 0.825196 0.312204
vt 0.830107 0.365679
vt 0.895856 0.286362
vt 0.839914 0.720620
vt 0.825494 0.312204
vt 0.830335 0.365908
vt 0.895673 0.286362
vt 0.839730 0.720620
vt 0.825817 0.312204
vt 0.830459 0.366206
vt 0.895503 0.286432
vt 0.839561 0.720690
vt 0.826115 0.312204
vt 0.829044 0.340586
vt 0.830459 0.366529
vt 0.895373 0.286562
vt 0.839431 0.720820
vt 0.829273 0.340586
vt 0.830335 0.366827
vt 0.895303 0.286731
vt 0.839360 0.720990
vt 0.829571 0.340586
vt 0.830107 0.367055
vt 0.895303 0.286915
vt 0.839360 0.721173
vt 0.830192 0.337868
vt 0.895305 0.287511
vt 0.829894 0.337868
vt 0.895076 0.287283
vt 0.830420 0.337868
vt 0.826659 0.355715
vt 0.895603 0.287635
vt 0.826957 0.355715
vt 0.895926 0.287635
vt 0.827280 0.355715
vt 0.896224 0.287511
vt 0.827578 0.355715
vt 0.896452 0.287283
vt 0.827807 0.355715
vt 0.827811 0.362358
vt 0.896576 0.286985
vt 0.827583 0.362358
vt 0.896576 0.286662
vt 0.827284 0.362358
vt 0.896452 0.286363
vt 0.826962 0.362358
vt 0.896224 0.286135
vt 0.826663 0.362358
vt 0.825196 0.309485
vt 0.895926 0.286012
vt 0.825494 0.309485
vt 0.895603 0.286012
vt 0.825817 0.309485
vt 0.895305 0.286135
vt 0.826115 0.309485
vt 0.829044 0.337868
vt 0.895076 0.286363
vt 0.829273 0.337868
vt 0.894953 0.286662
vt 0.829571 0.337868
vt 0.894953 0.286985
vt 0.839648 0.721341
vt 0.839562 0.721255
vt 0.839761 0.721388
vt 0.839883 0.721388
vt 0.839995 0.721341
vt 0.840081 0.721255
vt 0.840128 0.721143
vt 0.840128 0.721021
vt 0.840081 0.720908
vt 0.839995 0.720822
vt 0.839883 0.720775
vt 0.839761 0.720775
vt 0.839648 0.720822
vt 0.839562 0.720908
vt 0.839516 0.721021
vt 0.839516 0.721143
vt 0.829894 0.340586
vt 0.829809 0.367179
vt 0.895373 0.287085
vt 0.839431 0.721343
vt 0.830192 0.340586
vt 0.829486 0.367179
vt 0.895503 0.287214
vt 0.839561 0.721473
vt 0.830420 0.340586
vt 0.826659 0.358434
vt 0.829187 0.367055
vt 0.895673 0.287285
vt 0.839730 0.721543
vt 0.826957 0.358434
vt 0.828959 0.366827
vt 0.895856 0.287285
vt 0.839914 0.721543
vt 0.827280 0.358434
vt 0.828836 0.366529
vt 0.896026 0.287214
vt 0.840083 0.721473
vt 0.827578 0.358434
vt 0.828836 0.366206
vt 0.896156 0.287085
vt 0.840213 0.721343
vt 0.827807 0.358434
vt 0.827811 0.359639
vt 0.828959 0.365908
vt 0.896226 0.286915
vt 0.840283 0.721173
vt 0.827583 0.359639
vt 0.829187 0.365679
vt 0.896226 0.286731
vt 0.840283 0.720990
vt 0.827284 0.359639
vt 0.829486 0.365556
vt 0.896156 0.286562
vt 0.840213 0.720820
vt 0.826962 0.359639
vt 0.829809 0.365556
vt 0.896026 0.286432
vt 0.840083 0.720690
vt 0.826663 0.359639
vt 0.825196 0.312204
vt 0.830107 0.365679
vt 0.895856 0.286362
vt 0.839914 0.720620
vt 0.825494 0.312204
vt 0.830335 0.365908
vt 0.895673 0.286362
vt 0.839730 0.720620
vt 0.825817 0.312204
vt 0.830459 0.366206
vt 0.895503 0.286432
vt 0.839561 0.720690
vt 0.826115 0.312204
vt 0.829044 0.340586
vt 0.830459 0.366529
vt 0.895373 0.286562
vt 0.839431 0.720820
vt 0.829273 0.340586
vt 0.830335 0.366827
vt 0.895303 0.286731
vt 0.839360 0.720990
vt 0.829571 0.340586
vt 0.830107 0.367055
vt 0.895303 0.286915
vt 0.839360 0.721173
vt 0.830192 0.337868
vt 0.895305 0.287511
vt 0.829894 0.337868
vt 0.895076 0.287283
vt 0.830420 0.337868
vt 0.826659 0.355715
vt 0.895603 0.287635
vt 0.826957 0.355715
vt 0.895926 0.287635
vt 0.827280 0.355715
vt 0.896224 0.287511
vt 0.827578 0.355715
vt 0.896452 0.287283
vt 0.827807 0.355715
vt 0.827811 0.362358
vt 0.896576 0.286985
vt 0.827583 0.362358
vt 0.896576 0.286662
vt 0.827284 0.362358
vt 0.896452 0.286363
vt 0.826962 0.362358
vt 0.896224 0.286135
vt 0.826663 0.362358
vt 0.825196 0.309485
vt 0.895926 0.286012
vt 0.825494 0.309485
vt 0.895603 0.286012
vt 0.825817 0.309485
vt 0.895305 0.286135
vt 0.826115 0.309485
vt 0.829044 0.337868
vt 0.895076 0.286363
vt 0.829273 0.337868
vt 0.894953 0.286662
vt 0.829571 0.337868
vt 0.894953 0.286985
vt 0.839648 0.721341
vt 0.839562 0.721255
vt 0.839761 0.721388
vt 0.839883 0.721388
vt 0.839995 0.721341
vt 0.840081 0.721255
vt 0.840128 0.721143
vt 0.840128 0.721021
vt 0.840081 0.720908
vt 0.839995 0.720822
vt 0.839883 0.720775
vt 0.839761 0.720775
vt 0.839648 0.720822
vt 0.839562 0.720908
vt 0.839516 0.721021
vt 0.839516 0.721143
s 0
usemtl Material.001
f 1/1/1 34/71/1 33/69/1 3/5/1
f 3/5/2 33/69/2 35/73/2 5/9/2
f 5/10/3 35/74/3 36/76/3 7/14/3
f 7/14/4 36/76/4 37/78/4 9/18/4
f 9/18/5 37/78/5 38/80/5 11/22/5
f 11/22/6 38/80/6 39/82/6 13/26/6
f 13/27/7 39/83/7 40/85/7 15/31/7
f 15/31/8 40/85/8 41/87/8 17/35/8
f 17/35/9 41/87/9 42/89/9 19/39/9
f 19/39/10 42/89/10 43/91/10 21/43/10
f 21/44/11 43/92/11 44/94/11 23/48/11
f 23/48/12 44/94/12 45/96/12 25/52/12
f 25/52/13 45/96/13 46/98/13 27/56/13
f 27/57/14 46/99/14 47/101/14 29/61/14
f 14/30/15 12/25/15 54/110/15 55/111/15
f 29/61/16 47/101/16 48/103/16 31/65/16
f 31/65/17 48/103/17 34/71/17 1/1/17
f 1/2/18 3/6/18 5/11/18 7/15/18 9/19/18 11/23/18 13/28/18 15/32/18 17/36/18 19/40/18 21/45/18 23/49/18 25/53/18 27/58/18 29/62/18 31/66/18
f 2/3/19 4/7/19 33/70/19 34/72/19
f 4/7/19 6/12/19 35/75/19 33/70/19
f 6/12/19 8/16/19 36/77/19 35/75/19
f 8/16/19 10/20/19 37/79/19 36/77/19
f 10/20/19 12/24/19 38/81/19 37/79/19
f 12/24/19 14/29/19 39/84/19 38/81/19
f 14/29/19 16/33/19 40/86/19 39/84/19
f 16/33/19 18/37/19 41/88/19 40/86/19
f 18/37/19 20/41/19 42/90/19 41/88/19
f 20/41/19 22/46/19 43/93/19 42/90/19
f 22/46/19 24/50/19 44/95/19 43/93/19
f 24/50/19 26/54/19 45/97/19 44/95/19
f 26/54/19 28/59/19 46/100/19 45/97/19
f 28/59/19 30/63/19 47/102/19 46/100/19
f 30/63/19 32/67/19 48/104/19 47/102/19
f 32/67/19 2/3/19 34/72/19 48/104/19
f 49/105/19 50/106/19 64/120/19 63/119/19 62/118/19 61/117/19 60/116/19 59/115/19 58/114/19 57/113/19 56/112/19 55/111/19 54/110/19 53/109/19 52/108/19 51/107/19
f 30/64/20 28/60/20 62/118/20 63/119/20
f 16/34/21 14/30/21 55/111/21 56/112/21
f 32/68/22 30/64/22 63/119/22 64/120/22
f 18/38/23 16/34/23 56/112/23 57/113/23
f 4/8/24 2/4/24 50/106/24 49/105/24
f 2/4/25 32/68/25 64/120/25 50/106/25
f 20/42/26 18/38/26 57/113/26 58/114/26
f 6/13/27 4/8/27 49/105/27 51/107/27
f 22/47/28 20/42/28 58/114/28 59/115/28
f 8/17/29 6/13/29 51/107/29 52/108/29
f 24/51/30 22/47/30 59/115/30 60/116/30
f 10/21/31 8/17/31 52/108/31 53/109/31
f 26/55/32 24/51/32 60/116/32 61/117/32
f 12/25/33 10/21/33 53/109/33 54/110/33
f 28/60/34 26/55/34 61/117/34 62/118/34
f 65/121/1 67/125/1 97/189/1 98/191/1
f 67/125/2 69/129/2 99/193/2 97/189/2
f 69/130/3 71/134/3 100/196/3 99/194/3
f 71/134/4 73/138/4 101/198/4 100/196/4
f 73/138/5 75/142/5 102/200/5 101/198/5
f 75/142/6 77/146/6 103/202/6 102/200/6
f 77/147/7 79/151/7 104/205/7 103/203/7
f 79/151/8 81/155/8 105/207/8 104/205/8
f 81/155/9 83/159/9 106/209/9 105/207/9
f 83/159/10 85/163/10 107/211/10 106/209/10
f 85/164/11 87/168/11 108/214/11 107/212/11
f 87/168/12 89/172/12 109/216/12 108/214/12
f 89/172/13 91/176/13 110/218/13 109/216/13
f 91/177/14 93/181/14 111/221/14 110/219/14
f 78/150/35 119/231/35 118/230/35 76/145/35
f 93/181/16 95/185/16 112/223/16 111/221/16
f 95/185/17 65/121/17 98/191/17 112/223/17
f 65/122/19 95/186/19 93/182/19 91/178/19 89/173/19 87/169/19 85/165/19 83/160/19 81/156/19 79/152/19 77/148/19 75/143/19 73/139/19 71/135/19 69/131/19 67/126/19
f 66/123/18 98/192/18 97/190/18 68/127/18
f 68/127/18 97/190/18 99/195/18 70/132/18
f 70/132/18 99/195/18 100/197/18 72/136/18
f 72/136/18 100/197/18 101/199/18 74/140/18
f 74/140/18 101/199/18 102/201/18 76/144/18
f 76/144/18 102/201/18 103/204/18 78/149/18
f 78/149/18 103/204/18 104/206/18 80/153/18
f 80/153/18 104/206/18 105/208/18 82/157/18
f 82/157/18 105/208/18 106/210/18 84/161/18
f 84/161/18 106/210/18 107/213/18 86/166/18
f 86/166/18 107/213/18 108/215/18 88/170/18
f 88/170/18 108/215/18 109/217/18 90/174/18
f 90/174/18 109/217/18 110/220/18 92/179/18
f 92/179/18 110/220/18 111/222/18 94/183/18
f 94/183/18 111/222/18 112/224/18 96/187/18
f 96/187/18 112/224/18 98/192/18 66/123/18
f 113/225/18 115/227/18 116/228/18 117/229/18 118/230/18 119/231/18 120/232/18 121/233/18 122/234/18 123/235/18 124/236/18 125/237/18 126/238/18 127/239/18 128/240/18 114/226/18
f 94/184/36 127/239/36 126/238/36 92/180/36
f 80/154/37 120/232/37 119/231/37 78/150/37
f 96/188/38 128/240/38 127/239/38 94/184/38
f 82/158/39 121/233/39 120/232/39 80/154/39
f 68/128/40 113/225/40 114/226/40 66/124/40
f 66/124/41 114/226/41 128/240/41 96/188/41
f 84/162/42 122/234/42 121/233/42 82/158/42
f 70/133/43 115/227/43 113/225/43 68/128/43
f 86/167/44 123/235/44 122/234/44 84/162/44
f 72/137/45 116/228/45 115/227/45 70/133/45
f 88/171/46 124/236/46 123/235/46 86/167/46
f 74/141/47 117/229/47 116/228/47 72/137/47
f 90/175/48 125/237/48 124/236/48 88/171/48
f 76/145/49 118/230/49 117/229/49 74/141/49
f 92/180/50 126/238/50 125/237/50 90/175/50
