# Blender 3.5.0
# www.blender.org
mtllib Cylinder1.mtl
o Cylinder.001
v -20.992207 1.552972 5.609907
v -19.075043 1.552972 5.993274
v -20.992207 1.092215 5.701558
v -19.075043 1.238924 6.055742
v -20.992207 0.701605 5.962555
v -19.075043 0.972686 6.233636
v -20.992207 0.440607 6.353166
v -19.075043 0.794792 6.499874
v -20.992207 0.348957 6.813922
v -19.075043 0.732324 6.813922
v -20.992207 0.440607 7.274679
v -19.075043 0.794792 7.127971
v -20.992207 0.701605 7.665289
v -19.075043 0.972686 7.394208
v -20.992207 1.092215 7.926287
v -19.075043 1.238924 7.572103
v -20.992207 1.552972 8.017937
v -19.075043 1.552972 7.634571
v -20.992207 2.013728 7.926287
v -19.075043 1.867020 7.572103
v -20.992207 2.404339 7.665289
v -19.075043 2.133258 7.394208
v -20.992207 2.665337 7.274679
v -19.075043 2.311152 7.127971
v -20.992207 2.756987 6.813922
v -19.075043 2.373621 6.813922
v -20.992207 2.665337 6.353166
v -19.075043 2.311152 6.499874
v -20.992207 2.404339 5.962555
v -19.075043 2.133258 6.233636
v -20.992207 2.013728 5.701557
v -19.075043 1.867020 6.055742
v -19.075043 1.092216 5.701558
v -19.075043 1.552972 5.609907
v -19.075043 0.701605 5.962555
v -19.075043 0.440608 6.353166
v -19.075043 0.348957 6.813922
v -19.075043 0.440608 7.274679
v -19.075043 0.701605 7.665289
v -19.075043 1.092216 7.926287
v -19.075043 1.552972 8.017937
v -19.075043 2.013728 7.926287
v -19.075043 2.404339 7.665289
v -19.075043 2.665337 7.274679
v -19.075043 2.756987 6.813922
v -19.075043 2.665337 6.353166
v -19.075043 2.404339 5.962555
v -19.075043 2.013728 5.701557
v -19.224470 1.310496 6.228533
v -19.224470 1.552972 6.180301
v -19.224470 1.104934 6.365884
v -19.224470 0.967583 6.571446
v -19.224470 0.919351 6.813922
v -19.224470 0.967583 7.056398
v -19.224470 1.104934 7.261960
v -19.224470 1.310496 7.399312
v -19.224470 1.552972 7.447543
v -19.224470 1.795448 7.399312
v -19.224470 2.001010 7.261960
v -19.224470 2.138362 7.056398
v -19.224470 2.186593 6.813922
v -19.224470 2.138361 6.571446
v -19.224470 2.001009 6.365884
v -19.224470 1.795448 6.228533
v -23.841125 1.552971 5.609908
v -25.758289 1.552972 5.993274
v -23.841125 1.092215 5.701558
v -25.758289 1.238923 6.055742
v -23.841125 0.701604 5.962555
v -25.758289 0.972685 6.233636
v -23.841125 0.440607 6.353166
v -25.758289 0.794791 6.499874
v -23.841125 0.348957 6.813923
v -25.758289 0.732323 6.813923
v -23.841125 0.440607 7.274679
v -25.758289 0.794791 7.127971
v -23.841125 0.701604 7.665290
v -25.758289 0.972685 7.394209
v -23.841125 1.092215 7.926287
v -25.758289 1.238923 7.572103
v -23.841125 1.552971 8.017938
v -25.758289 1.552971 7.634571
v -23.841125 2.013728 7.926287
v -25.758289 1.867020 7.572103
v -23.841124 2.404338 7.665290
v -25.758289 2.133257 7.394209
v -23.841124 2.665336 7.274679
v -25.758289 2.311152 7.127971
v -23.841124 2.756986 6.813922
v -25.758289 2.373620 6.813923
v -23.841124 2.665336 6.353166
v -25.758289 2.311152 6.499874
v -23.841124 2.404338 5.962555
v -25.758289 2.133257 6.233636
v -23.841125 2.013727 5.701558
v -25.758289 1.867020 6.055742
v -25.758289 1.092215 5.701558
v -25.758289 1.552972 5.609908
v -25.758289 0.701604 5.962555
v -25.758289 0.440607 6.353166
v -25.758289 0.348957 6.813923
v -25.758289 0.440607 7.274679
v -25.758289 0.701604 7.665290
v -25.758289 1.092215 7.926287
v -25.758289 1.552971 8.017938
v -25.758289 2.013728 7.926287
v -25.758289 2.404338 7.665290
v -25.758289 2.665336 7.274679
v -25.758289 2.756986 6.813922
v -25.758289 2.665336 6.353166
v -25.758289 2.404338 5.962555
v -25.758289 2.013727 5.701558
v -25.608862 1.310495 6.228533
v -25.608862 1.552971 6.180302
v -25.608862 1.104934 6.365885
v -25.608862 0.967582 6.571446
v -25.608862 0.919350 6.813923
v -25.608862 0.967582 7.056399
v -25.608862 1.104934 7.261961
v -25.608862 1.310495 7.399312
v -25.608862 1.552971 7.447544
v -25.608862 1.795448 7.399312
v -25.608862 2.001009 7.261961
v -25.608862 2.138361 7.056399
v -25.608862 2.186593 6.813923
v -25.608862 2.138361 6.571446
v -25.608862 2.001009 6.365885
v -25.608862 1.795447 6.228533
vn -0.0000 -0.1951 -0.9808
vn -0.0000 -0.5556 -0.8315
vn -0.0000 -0.8315 -0.5556
vn -0.0000 -0.9808 -0.1951
vn -0.0000 -0.9808 0.1951
vn -0.0000 -0.8315 0.5556
vn -0.0000 -0.5556 0.8315
vn -0.0000 -0.1951 0.9808
vn -0.0000 0.1951 0.9808
vn -0.0000 0.5556 0.8315
vn -0.0000 0.8315 0.5556
vn -0.0000 0.9808 0.1951
vn -0.0000 0.9808 -0.1951
vn -0.0000 0.8315 -0.5556
vn 0.7753 0.6194 0.1232
vn -0.0000 0.5556 -0.8315
vn -0.0000 0.1951 -0.9808
vn -1.0000 -0.0000 -0.0000
vn 1.0000 -0.0000 -0.0000
vn 0.7753 -0.6194 -0.1232
vn 0.7753 0.6194 -0.1232
vn 0.7753 -0.6194 0.1232
vn 0.7753 0.5251 -0.3509
vn 0.7753 -0.5251 0.3509
vn 0.7753 0.3509 -0.5251
vn 0.7753 -0.3509 0.5251
vn 0.7753 0.1232 -0.6194
vn 0.7753 0.1232 0.6194
vn 0.7753 -0.1232 0.6194
vn 0.7753 -0.1232 -0.6194
vn 0.7753 0.3509 0.5251
vn 0.7753 -0.3509 -0.5251
vn 0.7753 0.5251 0.3509
vn 0.7753 -0.5251 -0.3509
vn -0.7753 0.6194 0.1232
vn -0.7753 -0.6194 -0.1232
vn -0.7753 0.6194 -0.1232
vn -0.7753 -0.6194 0.1232
vn -0.7753 0.5251 -0.3509
vn -0.7753 -0.5251 0.3509
vn -0.7753 0.3509 -0.5251
vn -0.7753 -0.3509 0.5251
vn -0.7753 0.1232 -0.6194
vn -0.7753 0.1232 0.6194
vn -0.7753 -0.1232 0.6194
vn -0.7753 -0.1232 -0.6194
vn -0.7753 0.3509 0.5251
vn -0.7753 -0.3509 -0.5251
vn -0.7753 0.5251 0.3509
vn -0.7753 -0.5251 -0.3509
vt 0.881476 0.320628
vt 0.840448 0.338217
vt 0.853352 0.342683
vt 0.880000 0.330348
vt 0.850813 0.718895
vt 0.881476 0.320154
vt 0.853095 0.343303
vt 0.880422 0.330173
vt 0.851235 0.718720
vt 0.881476 0.319534
vt 0.852621 0.343777
vt 0.880745 0.329850
vt 0.851558 0.718397
vt 0.881476 0.318864
vt 0.852001 0.344033
vt 0.880920 0.329428
vt 0.851733 0.717975
vt 0.881476 0.318244
vt 0.851331 0.344033
vt 0.880920 0.328971
vt 0.851733 0.717518
vt 0.881476 0.317770
vt 0.859037 0.318192
vt 0.850711 0.343777
vt 0.880745 0.328549
vt 0.851558 0.717096
vt 0.859511 0.318192
vt 0.850237 0.343303
vt 0.880422 0.328225
vt 0.851235 0.716772
vt 0.860131 0.318192
vt 0.849981 0.342683
vt 0.880000 0.328051
vt 0.850813 0.716598
vt 0.860801 0.318192
vt 0.849981 0.342012
vt 0.879543 0.328051
vt 0.850356 0.716598
vt 0.861421 0.318192
vt 0.837733 0.331803
vt 0.850237 0.341393
vt 0.879121 0.328225
vt 0.849933 0.716772
vt 0.837113 0.331803
vt 0.850711 0.340919
vt 0.878798 0.328549
vt 0.849610 0.717096
vt 0.836443 0.331803
vt 0.851331 0.340662
vt 0.878623 0.328971
vt 0.849435 0.717518
vt 0.835823 0.331803
vt 0.838064 0.338217
vt 0.852001 0.340662
vt 0.878623 0.329428
vt 0.849435 0.717975
vt 0.838683 0.338217
vt 0.852621 0.340919
vt 0.878798 0.329850
vt 0.849610 0.718397
vt 0.839354 0.338217
vt 0.853095 0.341393
vt 0.879121 0.330173
vt 0.849933 0.718720
vt 0.839973 0.338217
vt 0.853352 0.342012
vt 0.879543 0.330348
vt 0.850356 0.718895
vt 0.878740 0.320154
vt 0.880726 0.330628
vt 0.878740 0.320628
vt 0.840448 0.335480
vt 0.880107 0.330885
vt 0.878740 0.319534
vt 0.881200 0.330154
vt 0.878740 0.318864
vt 0.881457 0.329535
vt 0.878740 0.318244
vt 0.881457 0.328864
vt 0.878740 0.317770
vt 0.859037 0.315455
vt 0.881200 0.328245
vt 0.859511 0.315455
vt 0.880726 0.327770
vt 0.860131 0.315455
vt 0.880107 0.327514
vt 0.860801 0.315455
vt 0.879436 0.327514
vt 0.861421 0.315455
vt 0.837733 0.334540
vt 0.878817 0.327770
vt 0.837113 0.334540
vt 0.878343 0.328245
vt 0.836443 0.334540
vt 0.878086 0.328864
vt 0.835823 0.334540
vt 0.838064 0.335480
vt 0.878086 0.329535
vt 0.838683 0.335480
vt 0.878343 0.330154
vt 0.839354 0.335480
vt 0.878817 0.330628
vt 0.839973 0.335480
vt 0.879436 0.330885
vt 0.851087 0.718498
vt 0.850761 0.718633
vt 0.851336 0.718249
vt 0.851471 0.717923
vt 0.851471 0.717570
vt 0.851336 0.717244
vt 0.851087 0.716994
vt 0.850761 0.716859
vt 0.850408 0.716859
vt 0.850082 0.716994
vt 0.849832 0.717244
vt 0.849697 0.717570
vt 0.849697 0.717923
vt 0.849832 0.718249
vt 0.850082 0.718498
vt 0.850408 0.718633
vt 0.881476 0.320628
vt 0.840448 0.338217
vt 0.853352 0.342683
vt 0.880000 0.330348
vt 0.850813 0.718895
vt 0.881476 0.320154
vt 0.853095 0.343303
vt 0.880422 0.330173
vt 0.851235 0.718720
vt 0.881476 0.319534
vt 0.852621 0.343777
vt 0.880745 0.329850
vt 0.851558 0.718397
vt 0.881476 0.318864
vt 0.852001 0.344033
vt 0.880920 0.329428
vt 0.851733 0.717975
vt 0.881476 0.318244
vt 0.851331 0.344033
vt 0.880920 0.328971
vt 0.851733 0.717518
vt 0.881476 0.317770
vt 0.859037 0.318192
vt 0.850711 0.343777
vt 0.880745 0.328549
vt 0.851558 0.717096
vt 0.859511 0.318192
vt 0.850237 0.343303
vt 0.880422 0.328225
vt 0.851235 0.716772
vt 0.860131 0.318192
vt 0.849981 0.342683
vt 0.880000 0.328051
vt 0.850813 0.716598
vt 0.860801 0.318192
vt 0.849981 0.342012
vt 0.879543 0.328051
vt 0.850356 0.716598
vt 0.861421 0.318192
vt 0.837733 0.331803
vt 0.850237 0.341393
vt 0.879121 0.328225
vt 0.849933 0.716772
vt 0.837113 0.331803
vt 0.850711 0.340919
vt 0.878798 0.328549
vt 0.849610 0.717096
vt 0.836443 0.331803
vt 0.851331 0.340662
vt 0.878623 0.328971
vt 0.849435 0.717518
vt 0.835823 0.331803
vt 0.838064 0.338217
vt 0.852001 0.340662
vt 0.878623 0.329428
vt 0.849435 0.717975
vt 0.838683 0.338217
vt 0.852621 0.340919
vt 0.878798 0.329850
vt 0.849610 0.718397
vt 0.839354 0.338217
vt 0.853095 0.341393
vt 0.879121 0.330173
vt 0.849933 0.718720
vt 0.839973 0.338217
vt 0.853352 0.342012
vt 0.879543 0.330348
vt 0.850356 0.718895
vt 0.878740 0.320154
vt 0.880726 0.330628
vt 0.878740 0.320628
vt 0.840448 0.335480
vt 0.880107 0.330885
vt 0.878740 0.319534
vt 0.881200 0.330154
vt 0.878740 0.318864
vt 0.881457 0.329535
vt 0.878740 0.318244
vt 0.881457 0.328864
vt 0.878740 0.317770
vt 0.859037 0.315455
vt 0.881200 0.328245
vt 0.859511 0.315455
vt 0.880726 0.327770
vt 0.860131 0.315455
vt 0.880107 0.327514
vt 0.860801 0.315455
vt 0.879436 0.327514
vt 0.861421 0.315455
vt 0.837733 0.334540
vt 0.878817 0.327770
vt 0.837113 0.334540
vt 0.878343 0.328245
vt 0.836443 0.334540
vt 0.878086 0.328864
vt 0.835823 0.334540
vt 0.838064 0.335480
vt 0.878086 0.329535
vt 0.838683 0.335480
vt 0.878343 0.330154
vt 0.839354 0.335480
vt 0.878817 0.330628
vt 0.839973 0.335480
vt 0.879436 0.330885
vt 0.851087 0.718498
vt 0.850761 0.718633
vt 0.851336 0.718249
vt 0.851471 0.717923
vt 0.851471 0.717570
vt 0.851336 0.717244
vt 0.851087 0.716994
vt 0.850761 0.716859
vt 0.850408 0.716859
vt 0.850082 0.716994
vt 0.849832 0.717244
vt 0.849697 0.717570
vt 0.849697 0.717923
vt 0.849832 0.718249
vt 0.850082 0.718498
vt 0.850408 0.718633
s 0
usemtl Material.001
f 1/1/1 34/71/1 33/69/1 3/6/1
f 3/6/2 33/69/2 35/74/2 5/10/2
f 5/10/3 35/74/3 36/76/3 7/14/3
f 7/14/4 36/76/4 37/78/4 9/18/4
f 9/18/5 37/78/5 38/80/5 11/22/5
f 11/23/6 38/81/6 39/83/6 13/27/6
f 13/27/7 39/83/7 40/85/7 15/31/7
f 15/31/8 40/85/8 41/87/8 17/35/8
f 17/35/9 41/87/9 42/89/9 19/39/9
f 19/40/10 42/90/10 43/92/10 21/44/10
f 21/44/11 43/92/11 44/94/11 23/48/11
f 23/48/12 44/94/12 45/96/12 25/52/12
f 25/53/13 45/97/13 46/99/13 27/57/13
f 27/57/14 46/99/14 47/101/14 29/61/14
f 10/21/15 8/17/15 52/108/15 53/109/15
f 29/61/16 47/101/16 48/103/16 31/65/16
f 31/65/17 48/103/17 34/72/17 1/2/17
f 1/3/18 3/7/18 5/11/18 7/15/18 9/19/18 11/24/18 13/28/18 15/32/18 17/36/18 19/41/18 21/45/18 23/49/18 25/54/18 27/58/18 29/62/18 31/66/18
f 2/4/19 4/8/19 33/70/19 34/73/19
f 4/8/19 6/12/19 35/75/19 33/70/19
f 6/12/19 8/16/19 36/77/19 35/75/19
f 8/16/19 10/20/19 37/79/19 36/77/19
f 10/20/19 12/25/19 38/82/19 37/79/19
f 12/25/19 14/29/19 39/84/19 38/82/19
f 14/29/19 16/33/19 40/86/19 39/84/19
f 16/33/19 18/37/19 41/88/19 40/86/19
f 18/37/19 20/42/19 42/91/19 41/88/19
f 20/42/19 22/46/19 43/93/19 42/91/19
f 22/46/19 24/50/19 44/95/19 43/93/19
f 24/50/19 26/55/19 45/98/19 44/95/19
f 26/55/19 28/59/19 46/100/19 45/98/19
f 28/59/19 30/63/19 47/102/19 46/100/19
f 30/63/19 32/67/19 48/104/19 47/102/19
f 32/67/19 2/4/19 34/73/19 48/104/19
f 49/105/19 50/106/19 64/120/19 63/119/19 62/118/19 61/117/19 60/116/19 59/115/19 58/114/19 57/113/19 56/112/19 55/111/19 54/110/19 53/109/19 52/108/19 51/107/19
f 26/56/20 24/51/20 60/116/20 61/117/20
f 12/26/21 10/21/21 53/109/21 54/110/21
f 28/60/22 26/56/22 61/117/22 62/118/22
f 14/30/23 12/26/23 54/110/23 55/111/23
f 30/64/24 28/60/24 62/118/24 63/119/24
f 16/34/25 14/30/25 55/111/25 56/112/25
f 32/68/26 30/64/26 63/119/26 64/120/26
f 18/38/27 16/34/27 56/112/27 57/113/27
f 4/9/28 2/5/28 50/106/28 49/105/28
f 2/5/29 32/68/29 64/120/29 50/106/29
f 20/43/30 18/38/30 57/113/30 58/114/30
f 6/13/31 4/9/31 49/105/31 51/107/31
f 22/47/32 20/43/32 58/114/32 59/115/32
f 8/17/33 6/13/33 51/107/33 52/108/33
f 24/51/34 22/47/34 59/115/34 60/116/34
f 65/121/1 67/126/1 97/189/1 98/191/1
f 67/126/2 69/130/2 99/194/2 97/189/2
f 69/130/3 71/134/3 100/196/3 99/194/3
f 71/134/4 73/138/4 101/198/4 100/196/4
f 73/138/5 75/142/5 102/200/5 101/198/5
f 75/143/6 77/147/6 103/203/6 102/201/6
f 77/147/7 79/151/7 104/205/7 103/203/7
f 79/151/8 81/155/8 105/207/8 104/205/8
f 81/155/9 83/159/9 106/209/9 105/207/9
f 83/160/10 85/164/10 107/212/10 106/210/10
f 85/164/11 87/168/11 108/214/11 107/212/11
f 87/168/12 89/172/12 109/216/12 108/214/12
f 89/173/13 91/177/13 110/219/13 109/217/13
f 91/177/14 93/181/14 111/221/14 110/219/14
f 74/141/35 117/229/35 116/228/35 72/137/35
f 93/181/16 95/185/16 112/223/16 111/221/16
f 95/185/17 65/122/17 98/192/17 112/223/17
f 65/123/19 95/186/19 93/182/19 91/178/19 89/174/19 87/169/19 85/165/19 83/161/19 81/156/19 79/152/19 77/148/19 75/144/19 73/139/19 71/135/19 69/131/19 67/127/19
f 66/124/18 98/193/18 97/190/18 68/128/18
f 68/128/18 97/190/18 99/195/18 70/132/18
f 70/132/18 99/195/18 100/197/18 72/136/18
f 72/136/18 100/197/18 101/199/18 74/140/18
f 74/140/18 101/199/18 102/202/18 76/145/18
f 76/145/18 102/202/18 103/204/18 78/149/18
f 78/149/18 103/204/18 104/206/18 80/153/18
f 80/153/18 104/206/18 105/208/18 82/157/18
f 82/157/18 105/208/18 106/211/18 84/162/18
f 84/162/18 106/211/18 107/213/18 86/166/18
f 86/166/18 107/213/18 108/215/18 88/170/18
f 88/170/18 108/215/18 109/218/18 90/175/18
f 90/175/18 109/218/18 110/220/18 92/179/18
f 92/179/18 110/220/18 111/222/18 94/183/18
f 94/183/18 111/222/18 112/224/18 96/187/18
f 96/187/18 112/224/18 98/193/18 66/124/18
f 113/225/18 115/227/18 116/228/18 117/229/18 118/230/18 119/231/18 120/232/18 121/233/18 122/234/18 123/235/18 124/236/18 125/237/18 126/238/18 127/239/18 128/240/18 114/226/18
f 90/176/36 125/237/36 124/236/36 88/171/36
f 76/146/37 118/230/37 117/229/37 74/141/37
f 92/180/38 126/238/38 125/237/38 90/176/38
f 78/150/39 119/231/39 118/230/39 76/146/39
f 94/184/40 127/239/40 126/238/40 92/180/40
f 80/154/41 120/232/41 119/231/41 78/150/41
f 96/188/42 128/240/42 127/239/42 94/184/42
f 82/158/43 121/233/43 120/232/43 80/154/43
f 68/129/44 113/225/44 114/226/44 66/125/44
f 66/125/45 114/226/45 128/240/45 96/188/45
f 84/163/46 122/234/46 121/233/46 82/158/46
f 70/133/47 115/227/47 113/225/47 68/129/47
f 86/167/48 123/235/48 122/234/48 84/163/48
f 72/137/49 116/228/49 115/227/49 70/133/49
f 88/171/50 124/236/50 123/235/50 86/167/50
