# Blender 3.5.0
# www.blender.org
mtllib TankTop.mtl
o tank_top1
v -23.992867 4.985685 5.959165
v -23.637838 6.444748 5.959165
v -24.140755 4.985685 3.575984
v -23.637840 6.068160 3.575984
v -20.899632 4.985685 5.959163
v -21.254658 6.444748 5.959163
v -20.751745 4.985685 3.575982
v -21.254660 6.068160 3.575983
v -22.446251 4.985685 2.526057
v -22.446251 6.004765 2.526057
v -22.446247 4.985685 6.364310
v -22.446247 6.664006 6.364310
v -21.747053 5.893170 2.972092
v -21.557819 5.562478 2.972092
v -21.644936 5.967868 6.037690
v -21.557817 5.562478 6.037690
v -22.446251 5.562478 2.781602
v -22.446251 5.904427 2.781602
v -21.850454 6.004765 2.742512
v -21.436722 4.985685 6.225957
v -21.436724 4.985685 2.742512
v -21.850452 6.589317 6.225958
v -22.446247 5.562478 6.159447
v -22.446247 5.968868 6.159447
v -23.455776 4.985685 2.742513
v -23.042044 6.589317 6.225959
v -23.042046 6.004765 2.742513
v -23.455774 4.985685 6.225959
v -21.085152 5.562478 5.802898
v -21.175133 5.966039 5.802898
v -24.465302 4.985685 4.767575
v -23.637838 6.356450 4.767574
v -20.427197 4.985685 4.767572
v -21.254658 6.356450 4.767573
v -22.446249 6.613478 4.445184
v -20.955006 5.562478 3.705586
v -21.137379 5.894276 3.705586
v -21.850454 6.576134 4.484235
v -21.441853 4.985685 4.474472
v -23.450645 4.985685 4.474473
v -23.042044 6.576134 4.484236
v -24.465302 4.985685 5.363370
v -21.254658 6.467932 5.363368
v -22.446249 6.695933 5.404747
v -22.446249 4.985685 5.478869
v -23.937494 5.562478 3.705588
v -21.850454 6.639916 5.355096
v -21.736032 4.985685 5.184688
v -23.156464 4.985685 5.184689
v -23.042044 6.639916 5.355097
v -23.637838 6.467932 5.363369
v -20.427197 4.985685 5.363367
v -23.755119 5.894276 3.705588
v -23.637840 6.222446 4.171779
v -20.589472 4.985685 4.171777
v -23.807344 5.562478 5.802900
v -24.303028 4.985685 4.171780
v -21.254660 6.222446 4.171778
v -22.446249 6.309122 3.485621
v -22.446249 4.985685 3.315475
v -23.717363 5.966039 5.802900
v -21.850454 6.290449 3.613373
v -21.736034 4.985685 3.764257
v -23.156466 4.985685 3.764257
v -23.042046 6.290449 3.613374
v -21.626715 4.985685 3.654937
v -21.287252 4.985685 4.474472
v -23.265785 4.985685 3.654938
v -23.605246 4.985685 4.474473
v -21.626713 4.985685 5.294007
v -23.265783 4.985685 5.294008
v -22.446249 4.985685 5.633470
v -22.446249 4.985685 3.470076
v -22.446249 4.599288 3.655811
v -21.441853 4.599288 4.474472
v -23.264912 4.599288 4.474473
v -22.446249 4.599288 5.293134
v -21.867369 4.599288 3.895591
v -23.025131 4.599288 3.895591
v -21.867367 4.599288 5.053353
v -23.025129 4.599288 5.053354
v -23.890619 5.966039 5.959165
v -23.992867 5.562478 5.959165
v -23.933521 5.894276 3.575984
v -24.140755 5.562478 3.575984
v -20.958977 5.894276 3.575983
v -20.751745 5.562478 3.575982
v -21.001877 5.966039 5.959163
v -20.899632 5.562478 5.959163
v -22.446247 5.968868 6.364310
v -22.446247 5.562478 6.364310
v -22.446251 5.904427 2.526057
v -22.446251 5.562478 2.526057
v -21.436722 5.562478 6.225957
v -21.535715 5.967868 6.225958
v -21.436724 5.562478 2.742512
v -21.651752 5.893170 2.742512
v -23.455776 5.562478 2.742513
v -23.240749 5.893170 2.742513
v -23.455774 5.562478 6.225959
v -23.356781 5.967868 6.225959
v -20.619621 5.908225 4.767572
v -20.427197 5.562478 4.767572
v -24.272877 5.908225 4.767575
v -24.465302 5.562478 4.767575
v -20.427197 5.562478 5.363367
v -20.607971 5.924359 5.363368
v -24.465302 5.562478 5.363370
v -24.284525 5.924359 5.363370
v -24.303028 5.562478 4.171780
v -24.106794 5.905171 4.171780
v -20.589472 5.562478 4.171777
v -20.785704 5.905171 4.171777
v -23.334681 5.562478 2.972093
v -23.145447 5.893170 2.972093
v -23.334679 5.562478 6.037691
v -23.247561 5.967868 6.037691
v -20.838728 5.908225 4.754242
v -20.669388 5.562478 4.754242
v -24.053768 5.908225 4.754244
v -24.223110 5.562478 4.754244
v -20.669386 5.562478 5.278570
v -20.828478 5.924359 5.278570
v -24.223110 5.562478 5.278572
v -24.064020 5.924359 5.278572
v -24.080303 5.562478 4.229916
v -23.907608 5.905171 4.229916
v -20.812197 5.562478 4.229914
v -20.984890 5.905171 4.229914
v -21.736034 4.599288 3.764257
v -21.627588 4.599288 4.474472
v -23.156466 4.599288 3.764257
v -23.450645 4.599288 4.474473
v -21.736032 4.599288 5.184688
v -23.156464 4.599288 5.184689
v -22.446249 4.599288 5.478869
v -22.446249 4.599288 3.470076
v -22.446249 4.264078 3.655811
v -22.446249 4.264078 4.445184
v -21.627588 4.264078 4.474472
v -23.264912 4.264078 4.474473
v -22.446249 4.264078 5.293134
v -21.867369 4.264078 3.895591
v -23.025131 4.264078 3.895591
v -21.867367 4.264078 5.053353
v -23.025129 4.264078 5.053354
vn 0.9649 -0.0000 -0.2628
vn 0.4449 -0.0000 0.8956
vn -0.1358 -0.0000 0.9907
vn -0.7836 -0.0000 0.6213
vn -0.0000 -1.0000 -0.0000
vn -0.2663 0.9627 0.0484
vn 0.1159 0.9923 0.0447
vn 0.2096 -0.0000 -0.9778
vn 0.5614 0.8096 -0.1714
vn 0.2882 0.2702 -0.9186
vn -0.1826 0.0437 0.9822
vn -0.4399 0.2269 0.8689
vn 0.4399 0.2269 0.8689
vn 0.5304 0.8258 -0.1916
vn -0.4610 0.7984 -0.3873
vn -0.2096 -0.0000 -0.9778
vn 0.7836 -0.0000 0.6213
vn 0.7304 0.6426 0.2315
vn 0.2663 0.9627 0.0484
vn -0.2882 0.2702 -0.9186
vn 0.1358 -0.0000 0.9907
vn -0.9649 -0.0000 -0.2628
vn -0.5304 0.8258 -0.1916
vn -0.1159 0.9923 0.0447
vn 0.1826 0.0437 0.9822
vn -0.0874 0.9481 -0.3056
vn 0.9239 -0.0000 0.3827
vn 0.3923 0.8844 -0.2531
vn -0.5614 0.8096 -0.1714
vn 0.6095 0.7876 -0.0903
vn 0.3827 -0.0000 0.9239
vn 0.0874 0.9481 -0.3056
vn -0.3923 0.8844 -0.2531
vn -1.0000 -0.0000 -0.0000
vn -0.4449 -0.0000 0.8956
vn -0.7726 -0.0000 -0.6349
vn -0.0772 0.9939 -0.0794
vn -0.3827 -0.0000 -0.9239
vn 0.3349 0.9356 -0.1118
vn -0.6095 0.7876 -0.0903
vn -0.9239 -0.0000 -0.3827
vn 0.0772 0.9939 -0.0794
vn -0.3349 0.9356 -0.1118
vn 1.0000 -0.0000 -0.0000
vn 0.4610 0.7984 -0.3873
vn -0.3213 0.9070 -0.2721
vn 0.1030 0.9467 -0.3052
vn 0.7726 -0.0000 -0.6349
vn 0.3213 0.9070 -0.2721
vn -0.1030 0.9467 -0.3052
vn -0.2333 0.0656 -0.9702
vn -0.9239 -0.0000 0.3827
vn -0.3827 -0.0000 0.9239
vn 0.3827 -0.0000 -0.9239
vn 0.9239 -0.0000 -0.3827
vn -0.0000 1.0000 -0.0000
vn 0.0324 -0.9981 0.0529
vn -0.0009 -1.0000 0.0007
vn 0.0143 -0.9999 -0.0028
vn -0.0065 -0.9996 0.0289
vn -0.0324 -0.9981 0.0529
vn -0.0143 -0.9999 -0.0028
vn -0.0026 -1.0000 0.0021
vn 0.0065 -0.9996 0.0289
vn -0.7304 0.6426 0.2315
vn 0.1426 0.0153 0.9897
vn -0.4440 0.0972 0.8907
vn 0.7867 0.2560 0.5618
vn 0.7074 0.3968 -0.5850
vn -0.8576 0.4515 -0.2462
vn 0.4440 0.0972 0.8907
vn 0.2333 0.0656 -0.9702
vn -0.7074 0.3968 -0.5850
vn -0.1426 0.0153 0.9897
vn 0.8692 0.4318 -0.2408
vn -0.9070 0.4209 -0.0153
vn 0.9070 0.4209 -0.0153
vn -0.7867 0.2560 0.5618
vn -0.8692 0.4318 -0.2408
vn 0.8576 0.4515 -0.2462
vn 0.0011 -1.0000 0.0003
vn 0.0009 -1.0000 0.0007
vn -0.0006 -1.0000 0.0053
vn -0.0011 -1.0000 0.0003
vn 0.0084 -0.9998 0.0170
vn 0.0006 -1.0000 0.0053
vn -0.0084 -0.9998 0.0170
vn 0.0026 -1.0000 0.0021
vt 0.901858 0.656598
vt 0.923691 0.696432
vt 0.852098 0.653751
vt 0.878993 0.691347
vt 0.874875 0.674050
vt 0.834871 0.727980
vt 0.901948 0.653781
vt 0.920837 0.696609
vt 0.881049 0.693366
vt 0.923691 0.692727
vt 0.852124 0.657383
vt 0.874891 0.671251
vt 0.833466 0.727901
vt 0.880993 0.689311
vt 0.920837 0.692549
vt 0.823544 0.663898
vt 0.883049 0.691329
vt 0.901645 0.658013
vt 0.919579 0.694579
vt 0.915357 0.720786
vt 0.882948 0.693231
vt 0.924177 0.694579
vt 0.852131 0.655471
vt 0.879633 0.689976
vt 0.875125 0.672750
vt 0.713497 0.318856
vt 0.684180 0.305668
vt 0.877924 0.689908
vt 0.713921 0.318791
vt 0.684575 0.305448
vt 0.863504 0.724671
vt 0.685366 0.378112
vt 0.877077 0.693483
vt 0.685851 0.378219
vt 0.867165 0.724671
vt 0.684589 0.306464
vt 0.863277 0.723607
vt 0.877176 0.689467
vt 0.684180 0.306460
vt 0.915341 0.720122
vt 0.883263 0.692540
vt 0.924011 0.693370
vt 0.852133 0.656690
vt 0.901629 0.656859
vt 0.823482 0.665089
vt 0.919838 0.693370
vt 0.880256 0.689587
vt 0.875046 0.672016
vt 0.685858 0.377147
vt 0.867310 0.723607
vt 0.685371 0.377143
vt 0.876113 0.693372
vt 0.901629 0.659248
vt 0.901858 0.652697
vt 0.919838 0.695789
vt 0.875038 0.673416
vt 0.879256 0.690605
vt 0.915341 0.721532
vt 0.882263 0.693559
vt 0.924011 0.695789
vt 0.852116 0.654318
vt 0.866884 0.725238
vt 0.685840 0.378829
vt 0.877694 0.693360
vt 0.685357 0.378720
vt 0.922264 0.696998
vt 0.901968 0.655242
vt 0.880014 0.692350
vt 0.922264 0.692161
vt 0.823521 0.662419
vt 0.882014 0.690313
vt 0.881272 0.691585
vt 0.713986 0.317743
vt 0.864380 0.725394
vt 0.713562 0.317806
vt 0.878398 0.690947
vt 0.881741 0.691045
vt 0.921913 0.693376
vt 0.907873 0.648951
vt 0.921913 0.695782
vt 0.845608 0.649103
vt 0.880741 0.692064
vt 0.901952 0.655951
vt 0.922978 0.696998
vt 0.834127 0.728076
vt 0.881499 0.689808
vt 0.880449 0.690776
vt 0.923116 0.694579
vt 0.912563 0.648964
vt 0.864380 0.721821
vt 0.702268 0.290684
vt 0.880995 0.690312
vt 0.907818 0.648232
vt 0.912548 0.649867
vt 0.922764 0.693729
vt 0.922764 0.695430
vt 0.912548 0.648199
vt 0.845559 0.649910
vt 0.879995 0.691331
vt 0.879499 0.691844
vt 0.834168 0.728077
vt 0.852098 0.658079
vt 0.922978 0.692161
vt 0.823482 0.661735
vt 0.701844 0.290665
vt 0.875373 0.690123
vt 0.880531 0.692858
vt 0.823533 0.663158
vt 0.921550 0.692355
vt 0.685840 0.375632
vt 0.702239 0.293164
vt 0.866884 0.721977
vt 0.921550 0.696803
vt 0.901958 0.654511
vt 0.882531 0.690821
vt 0.882110 0.692408
vt 0.920525 0.694579
vt 0.685357 0.375734
vt 0.701746 0.293159
vt 0.874756 0.692559
vt 0.882502 0.691793
vt 0.921062 0.693729
vt 0.907818 0.649865
vt 0.880220 0.648592
vt 0.880220 0.650273
vt 0.845559 0.648219
vt 0.921062 0.695430
vt 0.881502 0.692811
vt 0.920931 0.693598
vt 0.921913 0.693191
vt 0.920931 0.695561
vt 0.921913 0.695968
vt 0.922895 0.693598
vt 0.922895 0.695561
vt 0.923301 0.694579
vt 0.920710 0.694579
vt 0.880241 0.649378
vt 0.881487 0.657296
vt 0.894237 0.649047
vt 0.908330 0.648971
vt 0.882853 0.656560
vt 0.918286 0.649143
vt 0.882018 0.658577
vt 0.883299 0.658046
vt 0.845039 0.648902
vt 0.894220 0.648407
vt 0.882018 0.656765
vt 0.914414 0.649729
vt 0.918246 0.648422
vt 0.881487 0.658046
vt 0.894220 0.649777
vt 0.883299 0.657296
vt 0.845027 0.649638
vt 0.914414 0.648399
vt 0.918246 0.649801
vt 0.845027 0.648279
vt 0.882768 0.658577
vt 0.874301 0.674339
vt 0.834835 0.727371
vt 0.874506 0.692685
vt 0.901174 0.656592
vt 0.851408 0.653750
vt 0.867071 0.721755
vt 0.880813 0.693631
vt 0.875207 0.689917
vt 0.901263 0.653775
vt 0.864225 0.721578
vt 0.883309 0.691088
vt 0.878645 0.690854
vt 0.822861 0.663906
vt 0.864225 0.725637
vt 0.874320 0.670947
vt 0.833542 0.727289
vt 0.877845 0.693595
vt 0.851434 0.657382
vt 0.867071 0.725460
vt 0.874293 0.672738
vt 0.876048 0.693608
vt 0.851441 0.655470
vt 0.867555 0.723607
vt 0.915477 0.720787
vt 0.877257 0.689172
vt 0.900955 0.658006
vt 0.862971 0.723607
vt 0.851442 0.656689
vt 0.867390 0.724817
vt 0.874305 0.671636
vt 0.877144 0.693735
vt 0.900939 0.656852
vt 0.822800 0.665097
vt 0.863230 0.724817
vt 0.915474 0.719888
vt 0.883438 0.692378
vt 0.878107 0.689672
vt 0.900939 0.659241
vt 0.901174 0.652692
vt 0.863230 0.722398
vt 0.882104 0.693736
vt 0.915474 0.721768
vt 0.876270 0.689172
vt 0.851426 0.654317
vt 0.867390 0.722398
vt 0.874293 0.673775
vt 0.875039 0.693162
vt 0.882578 0.689800
vt 0.878662 0.692338
vt 0.822838 0.662427
vt 0.865648 0.726026
vt 0.879512 0.692923
vt 0.874440 0.691188
vt 0.901284 0.655237
vt 0.865648 0.721189
vt 0.851408 0.658078
vt 0.822800 0.661743
vt 0.866360 0.726026
vt 0.834111 0.727289
vt 0.882079 0.689291
vt 0.878488 0.693030
vt 0.901268 0.655946
vt 0.866360 0.721189
vt 0.878993 0.692433
vt 0.874239 0.691873
vt 0.834168 0.727321
vt 0.901274 0.654506
vt 0.864937 0.721383
vt 0.880159 0.693280
vt 0.874819 0.690551
vt 0.822850 0.663167
vt 0.864937 0.725832
vt 0.882946 0.690441
vt 0.878658 0.691597
vt 0.684575 0.307551
vt 0.702170 0.289732
vt 0.863504 0.722543
vt 0.684180 0.307323
vt 0.876308 0.689467
vt 0.701746 0.289713
vt 0.685851 0.376132
vt 0.867165 0.722543
vt 0.685366 0.376230
vt 0.875225 0.692979
vt 0.713542 0.316500
vt 0.878413 0.692253
vt 0.713980 0.316441
vt 0.865632 0.725736
vt 0.701874 0.291953
vt 0.874697 0.691241
vt 0.702312 0.291970
vt 0.865632 0.721479
vt 0.866258 0.725736
vt 0.685813 0.379441
vt 0.713953 0.315839
vt 0.878260 0.692863
vt 0.685380 0.379250
vt 0.713497 0.315894
vt 0.702310 0.292594
vt 0.866258 0.721479
vt 0.874520 0.691844
vt 0.701855 0.292579
vt 0.702290 0.291327
vt 0.865006 0.721650
vt 0.701855 0.291310
vt 0.875031 0.690681
vt 0.713983 0.317092
vt 0.865006 0.725565
vt 0.713548 0.317152
vt 0.878409 0.691601
vt 0.908275 0.649886
vt 0.880682 0.648596
vt 0.881932 0.656560
vt 0.882768 0.656765
vt 0.914459 0.648984
vt 0.880682 0.650277
vt 0.846017 0.648212
vt 0.881281 0.658132
vt 0.846066 0.649096
vt 0.881932 0.658783
vt 0.908275 0.648253
vt 0.913010 0.649871
vt 0.883504 0.657211
vt 0.913010 0.648203
vt 0.846017 0.649903
vt 0.882853 0.658783
vt 0.913025 0.648968
vt 0.883504 0.658132
vt 0.880703 0.649382
vt 0.881281 0.657211
vt 0.856185 0.722245
vt 0.894638 0.649051
vt 0.855824 0.721372
vt 0.854904 0.721715
vt 0.914855 0.649002
vt 0.918683 0.649137
vt 0.856716 0.720964
vt 0.855435 0.720433
vt 0.845440 0.648905
vt 0.894621 0.648411
vt 0.855435 0.722245
vt 0.914810 0.649747
vt 0.918643 0.648416
vt 0.856716 0.721715
vt 0.894621 0.649780
vt 0.854904 0.720964
vt 0.845428 0.649642
vt 0.914810 0.648416
vt 0.918643 0.649795
vt 0.845428 0.648282
vt 0.856185 0.720433
s 0
usemtl Material.001
f 7/16/1 87/170/1 112/228/1 55/108/1
f 5/11/2 89/175/2 94/185/2 20/43/2
f 11/23/3 91/179/3 100/201/3 28/61/3
f 1/1/4 83/161/4 108/219/4 42/83/4
f 70/133/5 52/103/5 5/10/5 20/42/5
f 50/99/6 51/100/6 2/4/6 26/57/6
f 47/92/7 44/87/7 12/24/7 22/47/7
f 71/134/5 72/135/5 11/22/5 28/60/5
f 9/18/8 93/183/8 96/189/8 21/44/8
f 113/230/9 58/115/9 34/71/9 102/205/9
f 92/181/10 10/20/10 19/40/10 97/192/10
f 90/177/11 12/25/11 26/56/11 101/203/11
f 101/203/12 26/56/12 2/5/12 82/158/12
f 88/172/13 6/12/13 22/48/13 95/187/13
f 86/168/14 8/17/14 58/115/14 113/230/14
f 84/164/15 4/9/15 27/59/15 99/198/15
f 25/53/16 98/195/16 93/183/16 9/18/16
f 52/102/17 106/213/17 89/175/17 5/11/17
f 107/216/18 43/85/18 6/13/18 88/173/18
f 43/86/19 47/92/19 22/47/19 6/14/19
f 72/135/5 70/133/5 20/42/5 11/22/5
f 99/199/20 27/58/20 10/20/20 92/181/20
f 20/43/21 94/185/21 91/179/21 11/23/21
f 57/114/22 110/224/22 85/166/22 3/7/22
f 111/226/23 54/107/23 4/9/23 84/164/23
f 42/84/5 71/134/5 28/60/5 1/2/5
f 44/87/24 50/99/24 26/57/24 12/24/24
f 95/187/25 22/48/25 12/25/25 90/177/25
f 59/116/26 65/128/26 41/82/26 35/72/26
f 57/113/5 68/131/5 69/132/5 31/66/5
f 39/79/27 48/93/27 134/278/27 75/140/27
f 58/115/28 62/121/28 38/77/28 34/71/28
f 104/209/29 32/68/29 54/107/29 111/226/29
f 102/205/30 34/71/30 43/86/30 107/217/30
f 48/94/31 45/89/31 136/284/31 134/279/31
f 62/121/32 59/116/32 35/72/32 38/77/32
f 65/128/33 54/107/33 32/68/33 41/82/33
f 66/129/5 55/109/5 33/69/5 67/130/5
f 55/108/1 112/228/1 103/207/1 33/70/1
f 42/83/34 108/219/34 105/211/34 31/67/34
f 28/61/35 100/201/35 83/162/35 1/3/35
f 3/7/36 85/166/36 98/196/36 25/54/36
f 35/72/37 41/82/37 50/99/37 44/87/37
f 31/66/5 69/132/5 71/134/5 42/84/5
f 64/125/38 73/137/38 137/286/38 132/273/38
f 34/71/39 38/77/39 47/92/39 43/86/39
f 109/221/40 51/100/40 32/68/40 104/209/40
f 40/81/41 64/126/41 132/274/41 133/276/41
f 38/77/42 35/72/42 44/87/42 47/92/42
f 41/82/43 32/68/43 51/100/43 50/99/43
f 67/130/5 33/69/5 52/103/5 70/133/5
f 33/70/44 103/207/44 106/214/44 52/104/44
f 97/193/45 19/41/45 8/17/45 86/168/45
f 21/46/5 7/15/5 55/109/5 66/129/5
f 27/59/46 4/9/46 54/107/46 65/128/46
f 19/41/47 10/21/47 59/116/47 62/121/47
f 25/55/5 9/19/5 60/117/5 68/131/5
f 21/45/48 96/190/48 87/170/48 7/16/48
f 8/17/49 19/41/49 62/121/49 58/115/49
f 9/19/5 21/46/5 66/129/5 60/117/5
f 3/8/5 25/55/5 68/131/5 57/113/5
f 10/21/50 27/59/50 65/128/50 59/116/50
f 115/235/51 18/39/51 17/36/51 114/232/51
f 31/67/22 105/211/22 110/224/22 57/114/22
f 39/78/5 63/122/5 66/129/5 67/130/5
f 64/127/5 40/80/5 69/132/5 68/131/5
f 48/95/5 39/78/5 67/130/5 70/133/5
f 40/80/5 49/96/5 71/134/5 69/132/5
f 45/88/5 48/95/5 70/133/5 72/135/5
f 49/96/5 45/88/5 72/135/5 71/134/5
f 73/136/5 64/127/5 68/131/5 60/117/5
f 63/122/5 73/136/5 60/117/5 66/129/5
f 76/142/41 79/149/41 144/300/41 141/293/41
f 81/155/52 76/142/52 141/293/52 146/306/52
f 77/145/53 81/156/53 146/307/53 142/296/53
f 74/139/54 78/146/54 143/297/54 138/289/54
f 63/123/55 39/79/55 75/140/55 130/268/55
f 73/137/54 63/124/54 130/269/54 137/286/54
f 45/89/53 49/97/53 135/281/53 136/284/53
f 49/98/52 40/81/52 133/276/52 135/282/52
f 98/197/56 85/167/56 46/90/56 114/234/56
f 82/160/57 109/222/57 125/258/57 61/120/57
f 89/176/56 106/215/56 122/250/56 29/62/56
f 84/165/58 99/200/58 115/236/58 53/106/58
f 99/200/59 92/182/59 18/38/59 115/236/59
f 106/215/56 103/208/56 119/245/56 122/250/56
f 96/191/56 93/184/56 17/37/56 14/31/56
f 102/206/60 107/218/60 123/253/60 118/243/60
f 107/218/61 88/174/61 30/64/61 123/253/61
f 92/182/62 97/194/62 13/28/62 18/38/62
f 105/212/56 108/220/56 124/257/56 121/249/56
f 94/186/56 89/176/56 29/62/56 16/35/56
f 83/163/56 100/202/56 116/239/56 56/112/56
f 88/174/63 95/188/63 15/33/63 30/64/63
f 109/222/64 104/210/64 120/247/64 125/258/64
f 85/167/56 110/225/56 126/261/56 46/90/56
f 82/159/65 2/6/65 51/101/65 109/223/65
f 15/32/66 24/51/66 23/49/66 16/34/66
f 117/240/67 61/118/67 56/110/67 116/238/67
f 123/254/68 30/65/68 29/63/68 122/251/68
f 13/26/69 37/75/69 36/73/69 14/29/69
f 127/262/70 53/105/70 46/91/70 126/260/70
f 30/65/71 15/32/71 16/34/71 29/63/71
f 18/39/72 13/27/72 14/30/72 17/36/72
f 53/105/73 115/237/73 114/233/73 46/91/73
f 24/51/74 117/240/74 116/238/74 23/49/74
f 129/266/75 118/242/75 119/244/75 128/264/75
f 125/259/76 120/246/76 121/248/76 124/256/76
f 118/242/77 123/255/77 122/252/77 119/244/77
f 61/119/78 125/259/78 124/256/78 56/111/78
f 120/246/79 127/262/79 126/260/79 121/248/79
f 37/75/80 129/266/80 128/264/80 36/73/80
f 108/220/56 83/163/56 56/112/56 124/257/56
f 93/184/56 98/197/56 114/234/56 17/37/56
f 90/178/81 101/204/81 117/241/81 24/52/81
f 97/194/82 86/169/82 37/76/82 13/28/82
f 104/210/83 111/227/83 127/263/83 120/247/83
f 100/202/56 91/180/56 23/50/56 116/239/56
f 110/225/56 105/212/56 121/249/56 126/261/56
f 95/188/84 90/178/84 24/52/84 15/33/84
f 87/171/56 96/191/56 14/31/56 36/74/56
f 86/169/85 113/231/85 129/267/85 37/76/85
f 113/231/86 102/206/86 118/243/86 129/267/86
f 112/229/56 87/171/56 36/74/56 128/265/56
f 91/180/56 94/186/56 16/35/56 23/50/56
f 111/227/87 84/165/87 53/106/87 127/263/87
f 103/208/56 112/229/56 128/265/56 119/245/56
f 101/204/88 82/160/88 61/120/88 117/241/88
f 131/271/5 78/147/5 130/270/5 75/141/5
f 79/150/5 76/143/5 133/277/5 132/275/5
f 80/152/5 131/271/5 75/141/5 134/280/5
f 76/143/5 81/157/5 135/283/5 133/277/5
f 77/144/5 80/152/5 134/280/5 136/285/5
f 81/157/5 77/144/5 136/285/5 135/283/5
f 74/138/5 79/150/5 132/275/5 137/287/5
f 78/147/5 74/138/5 137/287/5 130/270/5
f 138/288/5 143/298/5 140/291/5 139/290/5
f 144/301/5 138/288/5 139/290/5 141/294/5
f 139/290/5 140/291/5 145/303/5 142/295/5
f 141/294/5 139/290/5 142/295/5 146/308/5
f 79/151/38 74/139/38 138/289/38 144/302/38
f 80/153/31 77/145/31 142/296/31 145/304/31
f 131/272/27 80/154/27 145/305/27 140/292/27
f 78/148/55 131/272/55 140/292/55 143/299/55
