# Blender 3.5.0
# www.blender.org
mtllib TopCylinder.mtl
o Cylinder.003
v -22.483900 6.389122 4.939282
v -22.483900 6.100393 7.342184
v -22.245674 6.341736 4.939282
v -22.356167 6.074985 7.342184
v -22.043716 6.206792 4.939282
v -22.247879 6.002630 7.342184
v -21.908773 6.004834 4.939282
v -22.175524 5.894342 7.342184
v -21.861387 5.766608 4.939282
v -22.150116 5.766608 7.342184
v -21.908773 5.528383 4.939282
v -22.175524 5.638875 7.342184
v -22.043716 5.326425 4.939282
v -22.247879 5.530587 7.342184
v -22.245674 5.191481 4.939282
v -22.356167 5.458231 7.342184
v -22.483900 5.144095 4.939282
v -22.483900 5.432824 7.342184
v -22.722126 5.191481 4.939282
v -22.611633 5.458231 7.342184
v -22.924084 5.326425 4.939282
v -22.719921 5.530587 7.342184
v -23.059027 5.528383 4.939282
v -22.792276 5.638875 7.342184
v -23.106413 5.766608 4.939282
v -22.817684 5.766608 7.342184
v -23.059027 6.004834 4.939282
v -22.792276 5.894342 7.342184
v -22.924084 6.206792 4.939282
v -22.719921 6.002630 7.342184
v -22.722126 6.341736 4.939282
v -22.611633 6.074985 7.342184
v -22.245674 6.341735 7.342184
v -22.483900 6.389122 7.342184
v -22.043716 6.206792 7.342184
v -21.908773 6.004834 7.342184
v -21.861387 5.766608 7.342184
v -21.908773 5.528383 7.342184
v -22.043716 5.326425 7.342184
v -22.245674 5.191481 7.342184
v -22.483900 5.144095 7.342184
v -22.722126 5.191481 7.342184
v -22.924084 5.326425 7.342184
v -23.059027 5.528383 7.342184
v -23.106413 5.766608 7.342184
v -23.059027 6.004834 7.342184
v -22.924084 6.206792 7.342184
v -22.722126 6.341736 7.342184
v -22.356167 6.074985 8.664594
v -22.483900 6.100393 8.664594
v -22.247879 6.002629 8.664594
v -22.175524 5.894342 8.664594
v -22.150116 5.766608 8.664594
v -22.175524 5.638875 8.664594
v -22.247879 5.530587 8.664594
v -22.356167 5.458231 8.664594
v -22.483900 5.432824 8.664594
v -22.611633 5.458231 8.664594
v -22.719921 5.530587 8.664594
v -22.792276 5.638875 8.664594
v -22.817684 5.766608 8.664594
v -22.792276 5.894342 8.664594
v -22.719921 6.002630 8.664594
v -22.611633 6.074985 8.664594
v -22.309372 6.187956 8.664595
v -22.483900 6.222672 8.664595
v -22.161413 6.089094 8.664595
v -22.062551 5.941136 8.664595
v -22.027836 5.766608 8.664595
v -22.062551 5.592080 8.664595
v -22.161413 5.444122 8.664595
v -22.309372 5.345260 8.664595
v -22.483900 5.310544 8.664595
v -22.658428 5.345260 8.664595
v -22.806385 5.444122 8.664595
v -22.905249 5.592080 8.664595
v -22.939964 5.766608 8.664595
v -22.905249 5.941136 8.664595
v -22.806385 6.089094 8.664595
v -22.658428 6.187957 8.664595
v -22.370886 6.039448 9.449718
v -22.483900 6.061928 9.449718
v -22.275078 5.975430 9.449718
v -22.211060 5.879622 9.449718
v -22.188581 5.766608 9.449718
v -22.211060 5.653594 9.449718
v -22.275078 5.557786 9.449718
v -22.370886 5.493769 9.449718
v -22.483900 5.471289 9.449718
v -22.596914 5.493768 9.449718
v -22.692722 5.557786 9.449718
v -22.756741 5.653594 9.449718
v -22.779221 5.766608 9.449718
v -22.756741 5.879622 9.449718
v -22.692722 5.975431 9.449718
v -22.596914 6.039448 9.449718
v -22.309372 6.187956 9.449718
v -22.483900 6.222672 9.449718
v -22.161415 6.089094 9.449718
v -22.062551 5.941136 9.449718
v -22.027836 5.766608 9.449718
v -22.062551 5.592080 9.449718
v -22.161415 5.444122 9.449718
v -22.309372 5.345260 9.449718
v -22.483900 5.310544 9.449718
v -22.658428 5.345260 9.449718
v -22.806387 5.444122 9.449718
v -22.905249 5.592080 9.449718
v -22.939964 5.766608 9.449718
v -22.905249 5.941136 9.449718
v -22.806387 6.089094 9.449718
v -22.658428 6.187957 9.449718
v -22.370886 6.039448 9.241311
v -22.483900 6.061928 9.241311
v -22.275078 5.975430 9.241311
v -22.211060 5.879622 9.241311
v -22.188581 5.766608 9.241311
v -22.211060 5.653594 9.241311
v -22.275078 5.557786 9.241311
v -22.370886 5.493769 9.241311
v -22.483900 5.471289 9.241311
v -22.596914 5.493768 9.241311
v -22.692722 5.557786 9.241311
v -22.756741 5.653594 9.241311
v -22.779221 5.766608 9.241311
v -22.756741 5.879622 9.241311
v -22.692722 5.975431 9.241311
v -22.596914 6.039448 9.241311
vn -0.0000 1.0000 -0.0000
vn 0.3827 0.9239 -0.0000
vn 0.7071 0.7071 -0.0000
vn 0.9239 0.3827 -0.0000
vn 1.0000 -0.0000 -0.0000
vn 0.9239 -0.3827 -0.0000
vn 0.7071 -0.7071 -0.0000
vn 0.3827 -0.9239 -0.0000
vn -0.0000 -1.0000 -0.0000
vn -0.3827 -0.9239 -0.0000
vn -0.7071 -0.7071 -0.0000
vn -0.9239 -0.3827 -0.0000
vn -1.0000 -0.0000 -0.0000
vn -0.9239 0.3827 -0.0000
vn -0.7071 0.7071 -0.0000
vn -0.3827 0.9239 -0.0000
vn -0.0000 -0.0000 -1.0000
vn -0.0000 -0.0000 1.0000
vt 0.837814 0.375620
vt 0.852164 0.380752
vt 0.849067 0.381401
vt 0.862175 0.282309
vt 0.838329 0.375620
vt 0.852679 0.380965
vt 0.848768 0.381401
vt 0.861899 0.282309
vt 0.867178 0.284845
vt 0.838723 0.375620
vt 0.827307 0.331618
vt 0.853072 0.381359
vt 0.848493 0.381516
vt 0.867389 0.284845
vt 0.827821 0.331618
vt 0.853285 0.381873
vt 0.848281 0.381727
vt 0.867665 0.284845
vt 0.828378 0.331618
vt 0.853285 0.382430
vt 0.848167 0.382003
vt 0.867964 0.284845
vt 0.828893 0.331618
vt 0.860900 0.300084
vt 0.853072 0.382945
vt 0.848167 0.382301
vt 0.868240 0.284845
vt 0.821389 0.348404
vt 0.860506 0.300084
vt 0.852679 0.383339
vt 0.848281 0.382577
vt 0.821177 0.348404
vt 0.859992 0.300084
vt 0.852164 0.383552
vt 0.848493 0.382788
vt 0.820902 0.348404
vt 0.859435 0.300084
vt 0.851607 0.383552
vt 0.848768 0.382903
vt 0.820603 0.348404
vt 0.858920 0.300084
vt 0.851093 0.383339
vt 0.849067 0.382903
vt 0.820327 0.348404
vt 0.858527 0.300084
vt 0.828981 0.331917
vt 0.850699 0.382945
vt 0.820116 0.348404
vt 0.849343 0.382788
vt 0.817037 0.296574
vt 0.828467 0.331917
vt 0.850486 0.382430
vt 0.849554 0.382577
vt 0.817313 0.296574
vt 0.827910 0.331917
vt 0.850486 0.381873
vt 0.849668 0.382301
vt 0.817611 0.296574
vt 0.827395 0.331917
vt 0.836349 0.375620
vt 0.850699 0.381359
vt 0.849668 0.382003
vt 0.817887 0.296574
vt 0.862961 0.282309
vt 0.836743 0.375620
vt 0.851093 0.380965
vt 0.849554 0.381727
vt 0.862749 0.282309
vt 0.837258 0.375620
vt 0.851607 0.380752
vt 0.849343 0.381516
vt 0.862473 0.282309
vt 0.838329 0.371006
vt 0.848639 0.380752
vt 0.837814 0.371006
vt 0.849196 0.380752
vt 0.838723 0.371006
vt 0.827307 0.327004
vt 0.848125 0.380965
vt 0.827821 0.327004
vt 0.847731 0.381359
vt 0.828378 0.327004
vt 0.847518 0.381873
vt 0.828893 0.327004
vt 0.860900 0.304698
vt 0.847518 0.382430
vt 0.860506 0.304698
vt 0.847731 0.382945
vt 0.859992 0.304698
vt 0.848125 0.383339
vt 0.859435 0.304698
vt 0.848639 0.383552
vt 0.858920 0.304698
vt 0.849196 0.383552
vt 0.858527 0.304698
vt 0.828981 0.336531
vt 0.849711 0.383339
vt 0.828467 0.336531
vt 0.850105 0.382945
vt 0.827910 0.336531
vt 0.850318 0.382430
vt 0.827395 0.336531
vt 0.836349 0.371006
vt 0.850318 0.381873
vt 0.836743 0.371006
vt 0.850105 0.381359
vt 0.837258 0.371006
vt 0.849711 0.380965
vt 0.861899 0.284848
vt 0.867178 0.282306
vt 0.860711 0.377571
vt 0.862175 0.284848
vt 0.860711 0.377272
vt 0.867389 0.282306
vt 0.860596 0.377847
vt 0.867665 0.282306
vt 0.860385 0.378058
vt 0.867964 0.282306
vt 0.860109 0.378172
vt 0.868240 0.282306
vt 0.821389 0.350943
vt 0.859811 0.378172
vt 0.821177 0.350943
vt 0.859535 0.378058
vt 0.820902 0.350943
vt 0.859324 0.377847
vt 0.820603 0.350943
vt 0.859209 0.377571
vt 0.820327 0.350943
vt 0.859209 0.377272
vt 0.820116 0.350943
vt 0.817037 0.294035
vt 0.859324 0.376996
vt 0.817313 0.294035
vt 0.859535 0.376785
vt 0.817611 0.294035
vt 0.859811 0.376671
vt 0.817887 0.294035
vt 0.862961 0.284848
vt 0.860109 0.376671
vt 0.862749 0.284848
vt 0.860385 0.376785
vt 0.862473 0.284848
vt 0.860596 0.376996
vt 0.860986 0.377625
vt 0.822963 0.284355
vt 0.860986 0.377217
vt 0.822963 0.283978
vt 0.860829 0.378002
vt 0.822963 0.284644
vt 0.917513 0.280830
vt 0.860541 0.378291
vt 0.917136 0.280830
vt 0.860164 0.378447
vt 0.916728 0.280830
vt 0.916351 0.280830
vt 0.859756 0.378447
vt 0.820421 0.337995
vt 0.859379 0.378291
vt 0.820421 0.338283
vt 0.859090 0.378002
vt 0.820421 0.338660
vt 0.858934 0.377625
vt 0.820421 0.339068
vt 0.858934 0.377217
vt 0.820421 0.339445
vt 0.859090 0.376840
vt 0.820421 0.339734
vt 0.840062 0.280811
vt 0.859379 0.376552
vt 0.839685 0.280811
vt 0.859756 0.376396
vt 0.839277 0.280811
vt 0.860164 0.376396
vt 0.838900 0.280811
vt 0.822963 0.282905
vt 0.860541 0.376552
vt 0.822963 0.283193
vt 0.860829 0.376840
vt 0.822963 0.283570
vt 0.861470 0.377553
vt 0.824674 0.352774
vt 0.917536 0.280756
vt 0.861470 0.377289
vt 0.824674 0.352530
vt 0.861571 0.377797
vt 0.917536 0.280569
vt 0.861758 0.377984
vt 0.917536 0.280325
vt 0.862002 0.378085
vt 0.917536 0.280061
vt 0.862266 0.378085
vt 0.917536 0.279817
vt 0.863260 0.349717
vt 0.862510 0.377984
vt 0.863260 0.349531
vt 0.862697 0.377797
vt 0.863260 0.349286
vt 0.862798 0.377553
vt 0.863260 0.349022
vt 0.862798 0.377289
vt 0.863260 0.348778
vt 0.862697 0.377045
vt 0.863260 0.348591
vt 0.816865 0.280602
vt 0.862510 0.376858
vt 0.816865 0.280358
vt 0.862266 0.376757
vt 0.816865 0.280093
vt 0.862002 0.376757
vt 0.816865 0.279849
vt 0.824674 0.351835
vt 0.861758 0.376858
vt 0.824674 0.352022
vt 0.861571 0.377045
vt 0.824674 0.352266
vt 0.824470 0.284355
vt 0.861109 0.377625
vt 0.824470 0.283978
vt 0.861109 0.377217
vt 0.824470 0.284644
vt 0.917513 0.282337
vt 0.861265 0.378002
vt 0.917136 0.282337
vt 0.861553 0.378291
vt 0.916728 0.282337
vt 0.861930 0.378447
vt 0.916351 0.282337
vt 0.821928 0.337995
vt 0.862338 0.378447
vt 0.821928 0.338283
vt 0.862715 0.378291
vt 0.821928 0.338660
vt 0.863004 0.378002
vt 0.821928 0.339068
vt 0.863160 0.377625
vt 0.821928 0.339445
vt 0.863160 0.377217
vt 0.821928 0.339734
vt 0.840062 0.282318
vt 0.863004 0.376840
vt 0.839685 0.282318
vt 0.862715 0.376552
vt 0.839277 0.282318
vt 0.862338 0.376396
vt 0.838900 0.282318
vt 0.824470 0.282905
vt 0.861930 0.376396
vt 0.824470 0.283193
vt 0.861553 0.376552
vt 0.824470 0.283570
vt 0.861265 0.376840
vt 0.879058 0.357364
vt 0.825075 0.352774
vt 0.917136 0.280756
vt 0.879322 0.357364
vt 0.825075 0.352530
vt 0.878814 0.357465
vt 0.917136 0.280569
vt 0.878627 0.357652
vt 0.917136 0.280325
vt 0.878526 0.357896
vt 0.917136 0.280061
vt 0.878526 0.358161
vt 0.917136 0.279817
vt 0.862860 0.349717
vt 0.878627 0.358405
vt 0.862860 0.349531
vt 0.878814 0.358591
vt 0.862860 0.349286
vt 0.879058 0.358693
vt 0.862860 0.349022
vt 0.879322 0.358693
vt 0.862860 0.348778
vt 0.879566 0.358591
vt 0.862860 0.348591
vt 0.816464 0.280602
vt 0.879753 0.358405
vt 0.816464 0.280358
vt 0.879854 0.358161
vt 0.816464 0.280093
vt 0.879854 0.357896
vt 0.816464 0.279849
vt 0.825075 0.351835
vt 0.879753 0.357652
vt 0.825075 0.352022
vt 0.879566 0.357465
vt 0.825075 0.352266
s 1
usemtl Material.001
f 1/1/1 34/75/1 33/73/2 3/5/2
f 3/5/2 33/73/2 35/77/3 5/10/3
f 5/11/3 35/78/3 36/80/4 7/15/4
f 7/15/4 36/80/4 37/82/5 9/19/5
f 9/19/5 37/82/5 38/84/6 11/23/6
f 11/24/6 38/85/6 39/87/7 13/29/7
f 13/29/7 39/87/7 40/89/8 15/33/8
f 15/33/8 40/89/8 41/91/9 17/37/9
f 17/37/9 41/91/9 42/93/10 19/41/10
f 19/41/10 42/93/10 43/95/11 21/45/11
f 21/46/11 43/96/11 44/98/12 23/51/12
f 23/51/12 44/98/12 45/100/13 25/55/13
f 25/55/13 45/100/13 46/102/14 27/59/14
f 27/60/14 46/103/14 47/105/15 29/65/15
f 22/48/11 20/44/10 58/129/10 59/131/11
f 29/65/15 47/105/15 48/107/16 31/69/16
f 31/69/16 48/107/16 34/75/1 1/1/1
f 1/2/17 3/6/17 5/12/17 7/16/17 9/20/17 11/25/17 13/30/17 15/34/17 17/38/17 19/42/17 21/47/17 23/52/17 25/56/17 27/61/17 29/66/17 31/70/17
f 2/3/18 4/7/18 33/74/18 34/76/18
f 4/7/18 6/13/18 35/79/18 33/74/18
f 6/13/18 8/17/18 36/81/18 35/79/18
f 8/17/18 10/21/18 37/83/18 36/81/18
f 10/21/18 12/26/18 38/86/18 37/83/18
f 12/26/18 14/31/18 39/88/18 38/86/18
f 14/31/18 16/35/18 40/90/18 39/88/18
f 16/35/18 18/39/18 41/92/18 40/90/18
f 18/39/18 20/43/18 42/94/18 41/92/18
f 20/43/18 22/49/18 43/97/18 42/94/18
f 22/49/18 24/53/18 44/99/18 43/97/18
f 24/53/18 26/57/18 45/101/18 44/99/18
f 26/57/18 28/62/18 46/104/18 45/101/18
f 28/62/18 30/67/18 47/106/18 46/104/18
f 30/67/18 32/71/18 48/108/18 47/106/18
f 32/71/18 2/3/18 34/76/18 48/108/18
f 64/144/17 63/142/17 79/177/17 80/179/17
f 8/18/4 6/14/3 51/114/3 52/116/4
f 24/54/12 22/50/11 59/132/11 60/134/12
f 10/22/5 8/18/4 52/116/4 53/118/5
f 26/58/13 24/54/12 60/134/12 61/136/13
f 12/27/6 10/22/5 53/118/5 54/120/6
f 28/63/14 26/58/13 61/136/13 62/138/14
f 14/32/7 12/28/6 54/121/6 55/123/7
f 30/68/15 28/64/14 62/139/14 63/141/15
f 16/36/8 14/32/7 55/123/7 56/125/8
f 32/72/16 30/68/15 63/141/15 64/143/16
f 18/40/9 16/36/8 56/125/8 57/127/9
f 4/8/2 2/4/1 50/112/1 49/109/2
f 2/4/1 32/72/16 64/143/16 50/112/1
f 20/44/10 18/40/9 57/127/9 58/129/10
f 6/14/3 4/9/2 49/110/2 51/114/3
f 70/156/6 69/155/5 101/226/5 102/228/6
f 57/128/17 56/126/17 72/161/17 73/163/17
f 49/111/17 50/113/17 66/147/17 65/145/17
f 50/113/17 64/144/17 80/179/17 66/147/17
f 58/130/17 57/128/17 73/163/17 74/165/17
f 51/115/17 49/111/17 65/145/17 67/149/17
f 59/133/17 58/130/17 74/165/17 75/167/17
f 52/117/17 51/115/17 67/149/17 68/152/17
f 60/135/17 59/133/17 75/167/17 76/170/17
f 53/119/17 52/117/17 68/152/17 69/154/17
f 61/137/17 60/135/17 76/170/17 77/172/17
f 54/122/17 53/119/17 69/154/17 70/157/17
f 62/140/17 61/137/17 77/172/17 78/174/17
f 55/124/17 54/122/17 70/157/17 71/159/17
f 63/142/17 62/140/17 78/174/17 79/177/17
f 56/126/17 55/124/17 71/159/17 72/161/17
f 96/216/8 95/214/7 127/286/7 128/288/8
f 78/175/14 77/173/13 109/244/13 110/246/14
f 71/160/7 70/158/6 102/229/6 103/231/7
f 79/178/15 78/176/14 110/247/14 111/249/15
f 72/162/8 71/160/7 103/231/7 104/233/8
f 80/180/16 79/178/15 111/249/15 112/251/16
f 73/164/9 72/162/8 104/233/8 105/235/9
f 65/146/2 66/148/1 98/219/1 97/217/2
f 66/148/1 80/180/16 112/251/16 98/219/1
f 74/166/10 73/164/9 105/235/9 106/237/10
f 67/150/3 65/146/2 97/217/2 99/221/3
f 75/168/11 74/166/10 106/237/10 107/239/11
f 68/153/4 67/151/3 99/222/3 100/224/4
f 76/171/12 75/169/11 107/240/11 108/242/12
f 69/155/5 68/153/4 100/224/4 101/226/5
f 77/173/13 76/171/12 108/242/12 109/244/13
f 82/184/18 81/181/18 97/218/18 98/220/18
f 81/181/18 83/186/18 99/223/18 97/218/18
f 83/186/18 84/188/18 100/225/18 99/223/18
f 84/188/18 85/190/18 101/227/18 100/225/18
f 85/190/18 86/192/18 102/230/18 101/227/18
f 86/192/18 87/195/18 103/232/18 102/230/18
f 87/195/18 88/197/18 104/234/18 103/232/18
f 88/197/18 89/199/18 105/236/18 104/234/18
f 89/199/18 90/201/18 106/238/18 105/236/18
f 90/201/18 91/203/18 107/241/18 106/238/18
f 91/203/18 92/206/18 108/243/18 107/241/18
f 92/206/18 93/208/18 109/245/18 108/243/18
f 93/208/18 94/210/18 110/248/18 109/245/18
f 94/210/18 95/213/18 111/250/18 110/248/18
f 95/213/18 96/215/18 112/252/18 111/250/18
f 96/215/18 82/184/18 98/220/18 112/252/18
f 113/253/18 114/256/18 128/287/18 127/285/18 126/282/18 125/280/18 124/278/18 123/275/18 122/273/18 121/271/18 120/269/18 119/267/18 118/264/18 117/262/18 116/260/18 115/258/18
f 89/200/1 88/198/16 120/270/16 121/272/1
f 81/182/10 82/185/9 114/257/9 113/254/10
f 82/185/9 96/216/8 128/288/8 114/257/9
f 90/202/2 89/200/1 121/272/1 122/274/2
f 83/187/11 81/183/10 113/255/10 115/259/11
f 91/204/3 90/202/2 122/274/2 123/276/3
f 84/189/12 83/187/11 115/259/11 116/261/12
f 92/207/4 91/205/3 123/277/3 124/279/4
f 85/191/13 84/189/12 116/261/12 117/263/13
f 93/209/5 92/207/4 124/279/4 125/281/5
f 86/193/14 85/191/13 117/263/13 118/265/14
f 94/211/6 93/209/5 125/281/5 126/283/6
f 87/196/15 86/194/14 118/266/14 119/268/15
f 95/214/7 94/212/6 126/284/6 127/286/7
f 88/198/16 87/196/15 119/268/15 120/270/16
